<svg width="11" height="28" viewBox="0 0 11 28" fill="none" xmlns="http://www.w3.org/2000/svg">
<path opacity="0.4" d="M5.7139 22.753C6.38216 22.753 6.92389 22.2113 6.92389 21.543C6.92389 20.8747 6.38216 20.333 5.7139 20.333C5.04563 20.333 4.50391 20.8747 4.50391 21.543C4.50391 22.2113 5.04563 22.753 5.7139 22.753Z" fill="#3A3A3A" stroke="#E62C2F" stroke-width="0.2" stroke-linecap="round" stroke-linejoin="round"/>
<path opacity="0.4" d="M5.7139 22.753C6.38216 22.753 6.92389 22.2113 6.92389 21.543C6.92389 20.8747 6.38216 20.333 5.7139 20.333C5.04563 20.333 4.50391 20.8747 4.50391 21.543C4.50391 22.2113 5.04563 22.753 5.7139 22.753Z" stroke="#E62C2F" stroke-width="0.2" stroke-linecap="round" stroke-linejoin="round"/>
<path opacity="0.7" d="M5.71204 22.4231C6.19805 22.4231 6.59204 22.0291 6.59204 21.5431C6.59204 21.0571 6.19805 20.6631 5.71204 20.6631C5.22603 20.6631 4.83203 21.0571 4.83203 21.5431C4.83203 22.0291 5.22603 22.4231 5.71204 22.4231Z" fill="#3A3A3A" stroke="#E62C2F" stroke-width="0.2" stroke-linecap="round" stroke-linejoin="round"/>
<path opacity="0.8" d="M5.71204 22.4231C6.19805 22.4231 6.59204 22.0291 6.59204 21.5431C6.59204 21.0571 6.19805 20.6631 5.71204 20.6631C5.22603 20.6631 4.83203 21.0571 4.83203 21.5431C4.83203 22.0291 5.22603 22.4231 5.71204 22.4231Z" stroke="#E62C2F" stroke-width="0.2" stroke-linecap="round" stroke-linejoin="round"/>
</svg>
