<svg width="9" height="27" viewBox="0 0 9 27" fill="none" xmlns="http://www.w3.org/2000/svg">
<path opacity="0.4" d="M4.33499 22.2032C5.00326 22.2032 5.54498 21.6615 5.54498 20.9932C5.54498 20.3249 5.00326 19.7832 4.33499 19.7832C3.66673 19.7832 3.125 20.3249 3.125 20.9932C3.125 21.6615 3.66673 22.2032 4.33499 22.2032Z" fill="#3A3A3A" stroke="#E62C2F" stroke-width="0.2" stroke-linecap="round" stroke-linejoin="round"/>
<path opacity="0.4" d="M4.33499 22.2032C5.00326 22.2032 5.54498 21.6615 5.54498 20.9932C5.54498 20.3249 5.00326 19.7832 4.33499 19.7832C3.66673 19.7832 3.125 20.3249 3.125 20.9932C3.125 21.6615 3.66673 22.2032 4.33499 22.2032Z" stroke="#E62C2F" stroke-width="0.2" stroke-linecap="round" stroke-linejoin="round"/>
<path opacity="0.7" d="M4.33313 21.8733C4.81914 21.8733 5.21313 21.4793 5.21313 20.9933C5.21313 20.5073 4.81914 20.1133 4.33313 20.1133C3.84712 20.1133 3.45312 20.5073 3.45312 20.9933C3.45312 21.4793 3.84712 21.8733 4.33313 21.8733Z" fill="#3A3A3A" stroke="#E62C2F" stroke-width="0.2" stroke-linecap="round" stroke-linejoin="round"/>
<path opacity="0.8" d="M4.33313 21.8733C4.81914 21.8733 5.21313 21.4793 5.21313 20.9933C5.21313 20.5073 4.81914 20.1133 4.33313 20.1133C3.84712 20.1133 3.45312 20.5073 3.45312 20.9933C3.45312 21.4793 3.84712 21.8733 4.33313 21.8733Z" stroke="#E62C2F" stroke-width="0.2" stroke-linecap="round" stroke-linejoin="round"/>
</svg>
