<svg width="10" height="33" viewBox="0 0 10 33" fill="none" xmlns="http://www.w3.org/2000/svg">
<path opacity="0.4" d="M4.84671 27.713C5.51497 27.713 6.0567 27.1712 6.0567 26.503C6.0567 25.8347 5.51497 25.293 4.84671 25.293C4.17845 25.293 3.63672 25.8347 3.63672 26.503C3.63672 27.1712 4.17845 27.713 4.84671 27.713Z" fill="#3A3A3A" stroke="#E62C2F" stroke-width="0.2" stroke-linecap="round" stroke-linejoin="round"/>
<path opacity="0.4" d="M4.84671 27.713C5.51497 27.713 6.0567 27.1712 6.0567 26.503C6.0567 25.8347 5.51497 25.293 4.84671 25.293C4.17845 25.293 3.63672 25.8347 3.63672 26.503C3.63672 27.1712 4.17845 27.713 4.84671 27.713Z" stroke="#E62C2F" stroke-width="0.2" stroke-linecap="round" stroke-linejoin="round"/>
<path opacity="0.7" d="M4.84485 27.383C5.33086 27.383 5.72485 26.9891 5.72485 26.503C5.72485 26.017 5.33086 25.623 4.84485 25.623C4.35884 25.623 3.96484 26.017 3.96484 26.503C3.96484 26.9891 4.35884 27.383 4.84485 27.383Z" fill="#3A3A3A" stroke="#E62C2F" stroke-width="0.2" stroke-linecap="round" stroke-linejoin="round"/>
<path opacity="0.8" d="M4.84485 27.383C5.33086 27.383 5.72485 26.9891 5.72485 26.503C5.72485 26.017 5.33086 25.623 4.84485 25.623C4.35884 25.623 3.96484 26.017 3.96484 26.503C3.96484 26.9891 4.35884 27.383 4.84485 27.383Z" stroke="#E62C2F" stroke-width="0.2" stroke-linecap="round" stroke-linejoin="round"/>
</svg>
