<svg width="12" height="29" viewBox="0 0 12 29" fill="none" xmlns="http://www.w3.org/2000/svg">
<path opacity="0.4" d="M5.64359 23.8624C6.31185 23.8624 6.85361 23.3206 6.85361 22.6524C6.85361 21.9841 6.31185 21.4424 5.64359 21.4424C4.97532 21.4424 4.43359 21.9841 4.43359 22.6524C4.43359 23.3206 4.97532 23.8624 5.64359 23.8624Z" fill="#3A3A3A" stroke="#E62C2F" stroke-width="0.2" stroke-linecap="round" stroke-linejoin="round"/>
<path opacity="0.4" d="M5.64359 23.8624C6.31185 23.8624 6.85361 23.3206 6.85361 22.6524C6.85361 21.9841 6.31185 21.4424 5.64359 21.4424C4.97532 21.4424 4.43359 21.9841 4.43359 22.6524C4.43359 23.3206 4.97532 23.8624 5.64359 23.8624Z" stroke="#E62C2F" stroke-width="0.2" stroke-linecap="round" stroke-linejoin="round"/>
<path opacity="0.7" d="M5.64172 23.5325C6.12773 23.5325 6.52173 23.1385 6.52173 22.6525C6.52173 22.1665 6.12773 21.7725 5.64172 21.7725C5.15571 21.7725 4.76172 22.1665 4.76172 22.6525C4.76172 23.1385 5.15571 23.5325 5.64172 23.5325Z" fill="#3A3A3A" stroke="#E62C2F" stroke-width="0.2" stroke-linecap="round" stroke-linejoin="round"/>
<path opacity="0.8" d="M5.64172 23.5325C6.12773 23.5325 6.52173 23.1385 6.52173 22.6525C6.52173 22.1665 6.12773 21.7725 5.64172 21.7725C5.15571 21.7725 4.76172 22.1665 4.76172 22.6525C4.76172 23.1385 5.15571 23.5325 5.64172 23.5325Z" stroke="#E62C2F" stroke-width="0.2" stroke-linecap="round" stroke-linejoin="round"/>
</svg>
