<svg width="9" height="27" viewBox="0 0 9 27" fill="none" xmlns="http://www.w3.org/2000/svg">
<path opacity="0.4" d="M4.4444 22.043C5.11266 22.043 5.65439 21.5013 5.65439 20.833C5.65439 20.1648 5.11266 19.623 4.4444 19.623C3.77613 19.623 3.23438 20.1648 3.23438 20.833C3.23438 21.5013 3.77613 22.043 4.4444 22.043Z" fill="#3A3A3A" stroke="#E62C2F" stroke-width="0.2" stroke-linecap="round" stroke-linejoin="round"/>
<path opacity="0.4" d="M4.4444 22.043C5.11266 22.043 5.65439 21.5013 5.65439 20.833C5.65439 20.1648 5.11266 19.623 4.4444 19.623C3.77613 19.623 3.23438 20.1648 3.23438 20.833C3.23438 21.5013 3.77613 22.043 4.4444 22.043Z" stroke="#E62C2F" stroke-width="0.2" stroke-linecap="round" stroke-linejoin="round"/>
<path opacity="0.7" d="M4.4425 21.7131C4.92852 21.7131 5.32248 21.3191 5.32248 20.8331C5.32248 20.3471 4.92852 19.9531 4.4425 19.9531C3.95649 19.9531 3.5625 20.3471 3.5625 20.8331C3.5625 21.3191 3.95649 21.7131 4.4425 21.7131Z" fill="#3A3A3A" stroke="#E62C2F" stroke-width="0.2" stroke-linecap="round" stroke-linejoin="round"/>
<path opacity="0.8" d="M4.4425 21.7131C4.92852 21.7131 5.32248 21.3191 5.32248 20.8331C5.32248 20.3471 4.92852 19.9531 4.4425 19.9531C3.95649 19.9531 3.5625 20.3471 3.5625 20.8331C3.5625 21.3191 3.95649 21.7131 4.4425 21.7131Z" stroke="#E62C2F" stroke-width="0.2" stroke-linecap="round" stroke-linejoin="round"/>
</svg>
