<svg width="13" height="28" viewBox="0 0 13 28" fill="none" xmlns="http://www.w3.org/2000/svg">
<path opacity="0.4" d="M6.32329 22.9825C6.99155 22.9825 7.53329 22.4408 7.53329 21.7725C7.53329 21.1042 6.99155 20.5625 6.32329 20.5625C5.65502 20.5625 5.11328 21.1042 5.11328 21.7725C5.11328 22.4408 5.65502 22.9825 6.32329 22.9825Z" fill="#3A3A3A" stroke="#E62C2F" stroke-width="0.2" stroke-linecap="round" stroke-linejoin="round"/>
<path opacity="0.4" d="M6.32329 22.9825C6.99155 22.9825 7.53329 22.4408 7.53329 21.7725C7.53329 21.1042 6.99155 20.5625 6.32329 20.5625C5.65502 20.5625 5.11328 21.1042 5.11328 21.7725C5.11328 22.4408 5.65502 22.9825 6.32329 22.9825Z" stroke="#E62C2F" stroke-width="0.2" stroke-linecap="round" stroke-linejoin="round"/>
<path opacity="0.7" d="M6.32141 22.6526C6.80742 22.6526 7.20142 22.2586 7.20142 21.7726C7.20142 21.2866 6.80742 20.8926 6.32141 20.8926C5.8354 20.8926 5.44141 21.2866 5.44141 21.7726C5.44141 22.2586 5.8354 22.6526 6.32141 22.6526Z" fill="#3A3A3A" stroke="#E62C2F" stroke-width="0.2" stroke-linecap="round" stroke-linejoin="round"/>
<path opacity="0.8" d="M6.32141 22.6526C6.80742 22.6526 7.20142 22.2586 7.20142 21.7726C7.20142 21.2866 6.80742 20.8926 6.32141 20.8926C5.8354 20.8926 5.44141 21.2866 5.44141 21.7726C5.44141 22.2586 5.8354 22.6526 6.32141 22.6526Z" stroke="#E62C2F" stroke-width="0.2" stroke-linecap="round" stroke-linejoin="round"/>
</svg>
