<svg width="14" height="26" viewBox="0 0 14 26" fill="none" xmlns="http://www.w3.org/2000/svg">
<path opacity="0.4" d="M6.92485 21.043C7.59312 21.043 8.13484 20.5013 8.13484 19.833C8.13484 19.1648 7.59312 18.623 6.92485 18.623C6.25659 18.623 5.71484 19.1648 5.71484 19.833C5.71484 20.5013 6.25659 21.043 6.92485 21.043Z" fill="#3A3A3A" stroke="#E62C2F" stroke-width="0.2" stroke-linecap="round" stroke-linejoin="round"/>
<path opacity="0.4" d="M6.92485 21.043C7.59312 21.043 8.13484 20.5013 8.13484 19.833C8.13484 19.1648 7.59312 18.623 6.92485 18.623C6.25659 18.623 5.71484 19.1648 5.71484 19.833C5.71484 20.5013 6.25659 21.043 6.92485 21.043Z" stroke="#E62C2F" stroke-width="0.2" stroke-linecap="round" stroke-linejoin="round"/>
<path opacity="0.7" d="M6.92297 20.7131C7.40898 20.7131 7.80296 20.3191 7.80296 19.8331C7.80296 19.3471 7.40898 18.9531 6.92297 18.9531C6.43696 18.9531 6.04297 19.3471 6.04297 19.8331C6.04297 20.3191 6.43696 20.7131 6.92297 20.7131Z" fill="#3A3A3A" stroke="#E62C2F" stroke-width="0.2" stroke-linecap="round" stroke-linejoin="round"/>
<path opacity="0.8" d="M6.92297 20.7131C7.40898 20.7131 7.80296 20.3191 7.80296 19.8331C7.80296 19.3471 7.40898 18.9531 6.92297 18.9531C6.43696 18.9531 6.04297 19.3471 6.04297 19.8331C6.04297 20.3191 6.43696 20.7131 6.92297 20.7131Z" stroke="#E62C2F" stroke-width="0.2" stroke-linecap="round" stroke-linejoin="round"/>
</svg>
