<svg width="12" height="24" viewBox="0 0 12 24" fill="none" xmlns="http://www.w3.org/2000/svg">
<path opacity="0.4" d="M5.85454 19.8624C6.5228 19.8624 7.06454 19.3206 7.06454 18.6524C7.06454 17.9841 6.5228 17.4424 5.85454 17.4424C5.18627 17.4424 4.64453 17.9841 4.64453 18.6524C4.64453 19.3206 5.18627 19.8624 5.85454 19.8624Z" fill="#3A3A3A" stroke="#E62C2F" stroke-width="0.2" stroke-linecap="round" stroke-linejoin="round"/>
<path opacity="0.4" d="M5.85454 19.8624C6.5228 19.8624 7.06454 19.3206 7.06454 18.6524C7.06454 17.9841 6.5228 17.4424 5.85454 17.4424C5.18627 17.4424 4.64453 17.9841 4.64453 18.6524C4.64453 19.3206 5.18627 19.8624 5.85454 19.8624Z" stroke="#E62C2F" stroke-width="0.2" stroke-linecap="round" stroke-linejoin="round"/>
<path opacity="0.7" d="M5.85266 19.5325C6.33867 19.5325 6.73267 19.1385 6.73267 18.6525C6.73267 18.1665 6.33867 17.7725 5.85266 17.7725C5.36665 17.7725 4.97266 18.1665 4.97266 18.6525C4.97266 19.1385 5.36665 19.5325 5.85266 19.5325Z" fill="#3A3A3A" stroke="#E62C2F" stroke-width="0.2" stroke-linecap="round" stroke-linejoin="round"/>
<path opacity="0.8" d="M5.85266 19.5325C6.33867 19.5325 6.73267 19.1385 6.73267 18.6525C6.73267 18.1665 6.33867 17.7725 5.85266 17.7725C5.36665 17.7725 4.97266 18.1665 4.97266 18.6525C4.97266 19.1385 5.36665 19.5325 5.85266 19.5325Z" stroke="#E62C2F" stroke-width="0.2" stroke-linecap="round" stroke-linejoin="round"/>
</svg>
