<svg width="11" height="28" viewBox="0 0 11 28" fill="none" xmlns="http://www.w3.org/2000/svg">
<path opacity="0.4" d="M5.36624 23.2032C6.03451 23.2032 6.57623 22.6615 6.57623 21.9932C6.57623 21.3249 6.03451 20.7832 5.36624 20.7832C4.69798 20.7832 4.15625 21.3249 4.15625 21.9932C4.15625 22.6615 4.69798 23.2032 5.36624 23.2032Z" fill="#3A3A3A" stroke="#E62C2F" stroke-width="0.2" stroke-linecap="round" stroke-linejoin="round"/>
<path opacity="0.4" d="M5.36624 23.2032C6.03451 23.2032 6.57623 22.6615 6.57623 21.9932C6.57623 21.3249 6.03451 20.7832 5.36624 20.7832C4.69798 20.7832 4.15625 21.3249 4.15625 21.9932C4.15625 22.6615 4.69798 23.2032 5.36624 23.2032Z" stroke="#E62C2F" stroke-width="0.2" stroke-linecap="round" stroke-linejoin="round"/>
<path opacity="0.7" d="M5.36438 22.8733C5.85039 22.8733 6.24438 22.4793 6.24438 21.9933C6.24438 21.5073 5.85039 21.1133 5.36438 21.1133C4.87837 21.1133 4.48438 21.5073 4.48438 21.9933C4.48438 22.4793 4.87837 22.8733 5.36438 22.8733Z" fill="#3A3A3A" stroke="#E62C2F" stroke-width="0.2" stroke-linecap="round" stroke-linejoin="round"/>
<path opacity="0.8" d="M5.36438 22.8733C5.85039 22.8733 6.24438 22.4793 6.24438 21.9933C6.24438 21.5073 5.85039 21.1133 5.36438 21.1133C4.87837 21.1133 4.48438 21.5073 4.48438 21.9933C4.48438 22.4793 4.87837 22.8733 5.36438 22.8733Z" stroke="#E62C2F" stroke-width="0.2" stroke-linecap="round" stroke-linejoin="round"/>
</svg>
