<svg width="9" height="27" viewBox="0 0 9 27" fill="none" xmlns="http://www.w3.org/2000/svg">
<path opacity="0.4" d="M4.6358 21.9825C5.30407 21.9825 5.84579 21.4408 5.84579 20.7725C5.84579 20.1042 5.30407 19.5625 4.6358 19.5625C3.96754 19.5625 3.42578 20.1042 3.42578 20.7725C3.42578 21.4408 3.96754 21.9825 4.6358 21.9825Z" fill="#3A3A3A" stroke="#E62C2F" stroke-width="0.2" stroke-linecap="round" stroke-linejoin="round"/>
<path opacity="0.4" d="M4.6358 21.9825C5.30407 21.9825 5.84579 21.4408 5.84579 20.7725C5.84579 20.1042 5.30407 19.5625 4.6358 19.5625C3.96754 19.5625 3.42578 20.1042 3.42578 20.7725C3.42578 21.4408 3.96754 21.9825 4.6358 21.9825Z" stroke="#E62C2F" stroke-width="0.2" stroke-linecap="round" stroke-linejoin="round"/>
<path opacity="0.7" d="M4.63391 21.6526C5.11992 21.6526 5.51389 21.2586 5.51389 20.7726C5.51389 20.2866 5.11992 19.8926 4.63391 19.8926C4.1479 19.8926 3.75391 20.2866 3.75391 20.7726C3.75391 21.2586 4.1479 21.6526 4.63391 21.6526Z" fill="#3A3A3A" stroke="#E62C2F" stroke-width="0.2" stroke-linecap="round" stroke-linejoin="round"/>
<path opacity="0.8" d="M4.63391 21.6526C5.11992 21.6526 5.51389 21.2586 5.51389 20.7726C5.51389 20.2866 5.11992 19.8926 4.63391 19.8926C4.1479 19.8926 3.75391 20.2866 3.75391 20.7726C3.75391 21.2586 4.1479 21.6526 4.63391 21.6526Z" stroke="#E62C2F" stroke-width="0.2" stroke-linecap="round" stroke-linejoin="round"/>
</svg>
