<svg width="10" height="33" viewBox="0 0 10 33" fill="none" xmlns="http://www.w3.org/2000/svg">
<path opacity="0.4" d="M5.4444 27.5928C6.11266 27.5928 6.65439 27.0511 6.65439 26.3829C6.65439 25.7146 6.11266 25.1729 5.4444 25.1729C4.77613 25.1729 4.23438 25.7146 4.23438 26.3829C4.23438 27.0511 4.77613 27.5928 5.4444 27.5928Z" fill="#3A3A3A" stroke="#E62C2F" stroke-width="0.2" stroke-linecap="round" stroke-linejoin="round"/>
<path opacity="0.4" d="M5.4444 27.5928C6.11266 27.5928 6.65439 27.0511 6.65439 26.3829C6.65439 25.7146 6.11266 25.1729 5.4444 25.1729C4.77613 25.1729 4.23438 25.7146 4.23438 26.3829C4.23438 27.0511 4.77613 27.5928 5.4444 27.5928Z" stroke="#E62C2F" stroke-width="0.2" stroke-linecap="round" stroke-linejoin="round"/>
<path opacity="0.7" d="M5.4425 27.2629C5.92852 27.2629 6.32248 26.8689 6.32248 26.3829C6.32248 25.8969 5.92852 25.5029 5.4425 25.5029C4.95649 25.5029 4.5625 25.8969 4.5625 26.3829C4.5625 26.8689 4.95649 27.2629 5.4425 27.2629Z" fill="#3A3A3A" stroke="#E62C2F" stroke-width="0.2" stroke-linecap="round" stroke-linejoin="round"/>
<path opacity="0.8" d="M5.4425 27.2629C5.92852 27.2629 6.32248 26.8689 6.32248 26.3829C6.32248 25.8969 5.92852 25.5029 5.4425 25.5029C4.95649 25.5029 4.5625 25.8969 4.5625 26.3829C4.5625 26.8689 4.95649 27.2629 5.4425 27.2629Z" stroke="#E62C2F" stroke-width="0.2" stroke-linecap="round" stroke-linejoin="round"/>
</svg>
