<svg width="12" height="29" viewBox="0 0 12 29" fill="none" xmlns="http://www.w3.org/2000/svg">
<path opacity="0.4" d="M6.10455 23.3028C6.77282 23.3028 7.31454 22.7611 7.31454 22.0928C7.31454 21.4245 6.77282 20.8828 6.10455 20.8828C5.43629 20.8828 4.89453 21.4245 4.89453 22.0928C4.89453 22.7611 5.43629 23.3028 6.10455 23.3028Z" fill="#3A3A3A" stroke="#E62C2F" stroke-width="0.2" stroke-linecap="round" stroke-linejoin="round"/>
<path opacity="0.4" d="M6.10455 23.3028C6.77282 23.3028 7.31454 22.7611 7.31454 22.0928C7.31454 21.4245 6.77282 20.8828 6.10455 20.8828C5.43629 20.8828 4.89453 21.4245 4.89453 22.0928C4.89453 22.7611 5.43629 23.3028 6.10455 23.3028Z" stroke="#E62C2F" stroke-width="0.2" stroke-linecap="round" stroke-linejoin="round"/>
<path opacity="0.7" d="M6.10266 22.9729C6.58867 22.9729 6.98264 22.5789 6.98264 22.0929C6.98264 21.6069 6.58867 21.2129 6.10266 21.2129C5.61665 21.2129 5.22266 21.6069 5.22266 22.0929C5.22266 22.5789 5.61665 22.9729 6.10266 22.9729Z" fill="#3A3A3A" stroke="#E62C2F" stroke-width="0.2" stroke-linecap="round" stroke-linejoin="round"/>
<path opacity="0.8" d="M6.10266 22.9729C6.58867 22.9729 6.98264 22.5789 6.98264 22.0929C6.98264 21.6069 6.58867 21.2129 6.10266 21.2129C5.61665 21.2129 5.22266 21.6069 5.22266 22.0929C5.22266 22.5789 5.61665 22.9729 6.10266 22.9729Z" stroke="#E62C2F" stroke-width="0.2" stroke-linecap="round" stroke-linejoin="round"/>
</svg>
