<svg width="9" height="27" viewBox="0 0 9 27" fill="none" xmlns="http://www.w3.org/2000/svg">
<path opacity="0.4" d="M4.57327 21.713C5.24154 21.713 5.78329 21.1712 5.78329 20.503C5.78329 19.8347 5.24154 19.293 4.57327 19.293C3.90501 19.293 3.36328 19.8347 3.36328 20.503C3.36328 21.1712 3.90501 21.713 4.57327 21.713Z" fill="#3A3A3A" stroke="#E62C2F" stroke-width="0.2" stroke-linecap="round" stroke-linejoin="round"/>
<path opacity="0.4" d="M4.57327 21.713C5.24154 21.713 5.78329 21.1712 5.78329 20.503C5.78329 19.8347 5.24154 19.293 4.57327 19.293C3.90501 19.293 3.36328 19.8347 3.36328 20.503C3.36328 21.1712 3.90501 21.713 4.57327 21.713Z" stroke="#E62C2F" stroke-width="0.2" stroke-linecap="round" stroke-linejoin="round"/>
<path opacity="0.7" d="M4.57138 21.383C5.05739 21.383 5.45139 20.9891 5.45139 20.503C5.45139 20.017 5.05739 19.623 4.57138 19.623C4.08537 19.623 3.69141 20.017 3.69141 20.503C3.69141 20.9891 4.08537 21.383 4.57138 21.383Z" fill="#3A3A3A" stroke="#E62C2F" stroke-width="0.2" stroke-linecap="round" stroke-linejoin="round"/>
<path opacity="0.8" d="M4.57138 21.383C5.05739 21.383 5.45139 20.9891 5.45139 20.503C5.45139 20.017 5.05739 19.623 4.57138 19.623C4.08537 19.623 3.69141 20.017 3.69141 20.503C3.69141 20.9891 4.08537 21.383 4.57138 21.383Z" stroke="#E62C2F" stroke-width="0.2" stroke-linecap="round" stroke-linejoin="round"/>
</svg>
