<svg width="13" height="28" viewBox="0 0 13 28" fill="none" xmlns="http://www.w3.org/2000/svg">
<path opacity="0.4" d="M6.75299 22.713C7.42126 22.713 7.96298 22.1712 7.96298 21.503C7.96298 20.8347 7.42126 20.293 6.75299 20.293C6.08473 20.293 5.54297 20.8347 5.54297 21.503C5.54297 22.1712 6.08473 22.713 6.75299 22.713Z" fill="#3A3A3A" stroke="#E62C2F" stroke-width="0.2" stroke-linecap="round" stroke-linejoin="round"/>
<path opacity="0.4" d="M6.75299 22.713C7.42126 22.713 7.96298 22.1712 7.96298 21.503C7.96298 20.8347 7.42126 20.293 6.75299 20.293C6.08473 20.293 5.54297 20.8347 5.54297 21.503C5.54297 22.1712 6.08473 22.713 6.75299 22.713Z" stroke="#E62C2F" stroke-width="0.2" stroke-linecap="round" stroke-linejoin="round"/>
<path opacity="0.7" d="M6.7511 22.383C7.23711 22.383 7.6311 21.9891 7.6311 21.503C7.6311 21.017 7.23711 20.623 6.7511 20.623C6.26509 20.623 5.87109 21.017 5.87109 21.503C5.87109 21.9891 6.26509 22.383 6.7511 22.383Z" fill="#3A3A3A" stroke="#E62C2F" stroke-width="0.2" stroke-linecap="round" stroke-linejoin="round"/>
<path opacity="0.8" d="M6.7511 22.383C7.23711 22.383 7.6311 21.9891 7.6311 21.503C7.6311 21.017 7.23711 20.623 6.7511 20.623C6.26509 20.623 5.87109 21.017 5.87109 21.503C5.87109 21.9891 6.26509 22.383 6.7511 22.383Z" stroke="#E62C2F" stroke-width="0.2" stroke-linecap="round" stroke-linejoin="round"/>
</svg>
