<svg width="14" height="25" viewBox="0 0 14 25" fill="none" xmlns="http://www.w3.org/2000/svg">
<path opacity="0.4" d="M6.85455 19.713C7.52282 19.713 8.06454 19.1712 8.06454 18.503C8.06454 17.8347 7.52282 17.293 6.85455 17.293C6.18629 17.293 5.64453 17.8347 5.64453 18.503C5.64453 19.1712 6.18629 19.713 6.85455 19.713Z" fill="#3A3A3A" stroke="#E62C2F" stroke-width="0.2" stroke-linecap="round" stroke-linejoin="round"/>
<path opacity="0.4" d="M6.85455 19.713C7.52282 19.713 8.06454 19.1712 8.06454 18.503C8.06454 17.8347 7.52282 17.293 6.85455 17.293C6.18629 17.293 5.64453 17.8347 5.64453 18.503C5.64453 19.1712 6.18629 19.713 6.85455 19.713Z" stroke="#E62C2F" stroke-width="0.2" stroke-linecap="round" stroke-linejoin="round"/>
<path opacity="0.7" d="M6.85266 19.383C7.33867 19.383 7.73264 18.9891 7.73264 18.503C7.73264 18.017 7.33867 17.623 6.85266 17.623C6.36665 17.623 5.97266 18.017 5.97266 18.503C5.97266 18.9891 6.36665 19.383 6.85266 19.383Z" fill="#3A3A3A" stroke="#E62C2F" stroke-width="0.2" stroke-linecap="round" stroke-linejoin="round"/>
<path opacity="0.8" d="M6.85266 19.383C7.33867 19.383 7.73264 18.9891 7.73264 18.503C7.73264 18.017 7.33867 17.623 6.85266 17.623C6.36665 17.623 5.97266 18.017 5.97266 18.503C5.97266 18.9891 6.36665 19.383 6.85266 19.383Z" stroke="#E62C2F" stroke-width="0.2" stroke-linecap="round" stroke-linejoin="round"/>
</svg>
