<svg width="12" height="24" viewBox="0 0 12 24" fill="none" xmlns="http://www.w3.org/2000/svg">
<path opacity="0.4" d="M6.01468 19.9229C6.68294 19.9229 7.2247 19.3812 7.2247 18.7129C7.2247 18.0447 6.68294 17.5029 6.01468 17.5029C5.34641 17.5029 4.80469 18.0447 4.80469 18.7129C4.80469 19.3812 5.34641 19.9229 6.01468 19.9229Z" fill="#3A3A3A" stroke="#E62C2F" stroke-width="0.2" stroke-linecap="round" stroke-linejoin="round"/>
<path opacity="0.4" d="M6.01468 19.9229C6.68294 19.9229 7.2247 19.3812 7.2247 18.7129C7.2247 18.0447 6.68294 17.5029 6.01468 17.5029C5.34641 17.5029 4.80469 18.0447 4.80469 18.7129C4.80469 19.3812 5.34641 19.9229 6.01468 19.9229Z" stroke="#E62C2F" stroke-width="0.2" stroke-linecap="round" stroke-linejoin="round"/>
<path opacity="0.7" d="M6.01279 19.593C6.4988 19.593 6.89279 19.199 6.89279 18.713C6.89279 18.227 6.4988 17.833 6.01279 17.833C5.52678 17.833 5.13281 18.227 5.13281 18.713C5.13281 19.199 5.52678 19.593 6.01279 19.593Z" fill="#3A3A3A" stroke="#E62C2F" stroke-width="0.2" stroke-linecap="round" stroke-linejoin="round"/>
<path opacity="0.8" d="M6.01279 19.593C6.4988 19.593 6.89279 19.199 6.89279 18.713C6.89279 18.227 6.4988 17.833 6.01279 17.833C5.52678 17.833 5.13281 18.227 5.13281 18.713C5.13281 19.199 5.52678 19.593 6.01279 19.593Z" stroke="#E62C2F" stroke-width="0.2" stroke-linecap="round" stroke-linejoin="round"/>
</svg>
