<svg width="9" height="23" viewBox="0 0 9 23" fill="none" xmlns="http://www.w3.org/2000/svg">
<path opacity="0.4" d="M4.56546 6.32332C5.23372 6.32332 5.77545 5.78158 5.77545 5.11332C5.77545 4.44505 5.23372 3.90332 4.56546 3.90332C3.8972 3.90332 3.35547 4.44505 3.35547 5.11332C3.35547 5.78158 3.8972 6.32332 4.56546 6.32332Z" fill="#3A3A3A" stroke="#E62C2F" stroke-width="0.2" stroke-linecap="round" stroke-linejoin="round"/>
<path opacity="0.4" d="M4.56546 6.32332C5.23372 6.32332 5.77545 5.78158 5.77545 5.11332C5.77545 4.44505 5.23372 3.90332 4.56546 3.90332C3.8972 3.90332 3.35547 4.44505 3.35547 5.11332C3.35547 5.78158 3.8972 6.32332 4.56546 6.32332Z" stroke="#E62C2F" stroke-width="0.2" stroke-linecap="round" stroke-linejoin="round"/>
<path opacity="0.7" d="M4.5636 5.9934C5.04961 5.9934 5.4436 5.59941 5.4436 5.1134C5.4436 4.62739 5.04961 4.2334 4.5636 4.2334C4.07759 4.2334 3.68359 4.62739 3.68359 5.1134C3.68359 5.59941 4.07759 5.9934 4.5636 5.9934Z" fill="#3A3A3A" stroke="#E62C2F" stroke-width="0.2" stroke-linecap="round" stroke-linejoin="round"/>
<path opacity="0.8" d="M4.5636 5.9934C5.04961 5.9934 5.4436 5.59941 5.4436 5.1134C5.4436 4.62739 5.04961 4.2334 4.5636 4.2334C4.07759 4.2334 3.68359 4.62739 3.68359 5.1134C3.68359 5.59941 4.07759 5.9934 4.5636 5.9934Z" stroke="#E62C2F" stroke-width="0.2" stroke-linecap="round" stroke-linejoin="round"/>
</svg>
