<svg width="9" height="25" viewBox="0 0 9 25" fill="none" xmlns="http://www.w3.org/2000/svg">
<path opacity="0.4" d="M4.6358 6.7032C5.30407 6.7032 5.84579 6.16147 5.84579 5.4932C5.84579 4.82494 5.30407 4.2832 4.6358 4.2832C3.96754 4.2832 3.42578 4.82494 3.42578 5.4932C3.42578 6.16147 3.96754 6.7032 4.6358 6.7032Z" fill="#3A3A3A" stroke="#E62C2F" stroke-width="0.2" stroke-linecap="round" stroke-linejoin="round"/>
<path opacity="0.4" d="M4.6358 6.7032C5.30407 6.7032 5.84579 6.16147 5.84579 5.4932C5.84579 4.82494 5.30407 4.2832 4.6358 4.2832C3.96754 4.2832 3.42578 4.82494 3.42578 5.4932C3.42578 6.16147 3.96754 6.7032 4.6358 6.7032Z" stroke="#E62C2F" stroke-width="0.2" stroke-linecap="round" stroke-linejoin="round"/>
<path opacity="0.7" d="M4.63391 6.37328C5.11992 6.37328 5.51389 5.97929 5.51389 5.49328C5.51389 5.00727 5.11992 4.61328 4.63391 4.61328C4.1479 4.61328 3.75391 5.00727 3.75391 5.49328C3.75391 5.97929 4.1479 6.37328 4.63391 6.37328Z" fill="#3A3A3A" stroke="#E62C2F" stroke-width="0.2" stroke-linecap="round" stroke-linejoin="round"/>
<path opacity="0.8" d="M4.63391 6.37328C5.11992 6.37328 5.51389 5.97929 5.51389 5.49328C5.51389 5.00727 5.11992 4.61328 4.63391 4.61328C4.1479 4.61328 3.75391 5.00727 3.75391 5.49328C3.75391 5.97929 4.1479 6.37328 4.63391 6.37328Z" stroke="#E62C2F" stroke-width="0.2" stroke-linecap="round" stroke-linejoin="round"/>
</svg>
