<svg width="9" height="31" viewBox="0 0 9 31" fill="none" xmlns="http://www.w3.org/2000/svg">
<path opacity="0.4" d="M4.83499 7.99324C5.50326 7.99324 6.04498 7.45151 6.04498 6.78324C6.04498 6.11498 5.50326 5.57324 4.83499 5.57324C4.16673 5.57324 3.625 6.11498 3.625 6.78324C3.625 7.45151 4.16673 7.99324 4.83499 7.99324Z" fill="#3A3A3A" stroke="#E62C2F" stroke-width="0.2" stroke-linecap="round" stroke-linejoin="round"/>
<path opacity="0.4" d="M4.83499 7.99324C5.50326 7.99324 6.04498 7.45151 6.04498 6.78324C6.04498 6.11498 5.50326 5.57324 4.83499 5.57324C4.16673 5.57324 3.625 6.11498 3.625 6.78324C3.625 7.45151 4.16673 7.99324 4.83499 7.99324Z" stroke="#E62C2F" stroke-width="0.2" stroke-linecap="round" stroke-linejoin="round"/>
<path opacity="0.7" d="M4.83313 7.66331C5.31914 7.66331 5.71313 7.26933 5.71313 6.78332C5.71313 6.29731 5.31914 5.90332 4.83313 5.90332C4.34712 5.90332 3.95312 6.29731 3.95312 6.78332C3.95312 7.26933 4.34712 7.66331 4.83313 7.66331Z" fill="#3A3A3A" stroke="#E62C2F" stroke-width="0.2" stroke-linecap="round" stroke-linejoin="round"/>
<path opacity="0.8" d="M4.83313 7.66331C5.31914 7.66331 5.71313 7.26933 5.71313 6.78332C5.71313 6.29731 5.31914 5.90332 4.83313 5.90332C4.34712 5.90332 3.95312 6.29731 3.95312 6.78332C3.95312 7.26933 4.34712 7.66331 4.83313 7.66331Z" stroke="#E62C2F" stroke-width="0.2" stroke-linecap="round" stroke-linejoin="round"/>
</svg>
