<svg width="10" height="25" viewBox="0 0 10 25" fill="none" xmlns="http://www.w3.org/2000/svg">
<path opacity="0.4" d="M5.0264 6.36239C5.69466 6.36239 6.23639 5.82065 6.23639 5.15239C6.23639 4.48412 5.69466 3.94238 5.0264 3.94238C4.35813 3.94238 3.81641 4.48412 3.81641 5.15239C3.81641 5.82065 4.35813 6.36239 5.0264 6.36239Z" fill="#3A3A3A" stroke="#E62C2F" stroke-width="0.2" stroke-linecap="round" stroke-linejoin="round"/>
<path opacity="0.4" d="M5.0264 6.36239C5.69466 6.36239 6.23639 5.82065 6.23639 5.15239C6.23639 4.48412 5.69466 3.94238 5.0264 3.94238C4.35813 3.94238 3.81641 4.48412 3.81641 5.15239C3.81641 5.82065 4.35813 6.36239 5.0264 6.36239Z" stroke="#E62C2F" stroke-width="0.2" stroke-linecap="round" stroke-linejoin="round"/>
<path opacity="0.7" d="M5.02454 6.03246C5.51055 6.03246 5.90454 5.63848 5.90454 5.15247C5.90454 4.66646 5.51055 4.27246 5.02454 4.27246C4.53853 4.27246 4.14453 4.66646 4.14453 5.15247C4.14453 5.63848 4.53853 6.03246 5.02454 6.03246Z" fill="#3A3A3A" stroke="#E62C2F" stroke-width="0.2" stroke-linecap="round" stroke-linejoin="round"/>
<path opacity="0.8" d="M5.02454 6.03246C5.51055 6.03246 5.90454 5.63848 5.90454 5.15247C5.90454 4.66646 5.51055 4.27246 5.02454 4.27246C4.53853 4.27246 4.14453 4.66646 4.14453 5.15247C4.14453 5.63848 4.53853 6.03246 5.02454 6.03246Z" stroke="#E62C2F" stroke-width="0.2" stroke-linecap="round" stroke-linejoin="round"/>
</svg>
