<svg width="11" height="25" viewBox="0 0 11 25" fill="none" xmlns="http://www.w3.org/2000/svg">
<path opacity="0.4" d="M5.22565 7.36239C5.89391 7.36239 6.43564 6.82065 6.43564 6.15239C6.43564 5.48412 5.89391 4.94238 5.22565 4.94238C4.55738 4.94238 4.01562 5.48412 4.01562 6.15239C4.01562 6.82065 4.55738 7.36239 5.22565 7.36239Z" fill="#3A3A3A" stroke="#E62C2F" stroke-width="0.2" stroke-linecap="round" stroke-linejoin="round"/>
<path opacity="0.4" d="M5.22565 7.36239C5.89391 7.36239 6.43564 6.82065 6.43564 6.15239C6.43564 5.48412 5.89391 4.94238 5.22565 4.94238C4.55738 4.94238 4.01562 5.48412 4.01562 6.15239C4.01562 6.82065 4.55738 7.36239 5.22565 7.36239Z" stroke="#E62C2F" stroke-width="0.2" stroke-linecap="round" stroke-linejoin="round"/>
<path opacity="0.7" d="M5.22375 7.03246C5.70977 7.03246 6.10376 6.63848 6.10376 6.15247C6.10376 5.66646 5.70977 5.27246 5.22375 5.27246C4.73774 5.27246 4.34375 5.66646 4.34375 6.15247C4.34375 6.63848 4.73774 7.03246 5.22375 7.03246Z" fill="#3A3A3A" stroke="#E62C2F" stroke-width="0.2" stroke-linecap="round" stroke-linejoin="round"/>
<path opacity="0.8" d="M5.22375 7.03246C5.70977 7.03246 6.10376 6.63848 6.10376 6.15247C6.10376 5.66646 5.70977 5.27246 5.22375 5.27246C4.73774 5.27246 4.34375 5.66646 4.34375 6.15247C4.34375 6.63848 4.73774 7.03246 5.22375 7.03246Z" stroke="#E62C2F" stroke-width="0.2" stroke-linecap="round" stroke-linejoin="round"/>
</svg>
