<svg width="15" height="25" viewBox="0 0 15 25" fill="none" xmlns="http://www.w3.org/2000/svg">
<path opacity="0.4" d="M7.70609 6.4825C8.37435 6.4825 8.91611 5.94076 8.91611 5.2725C8.91611 4.60423 8.37435 4.0625 7.70609 4.0625C7.03782 4.0625 6.49609 4.60423 6.49609 5.2725C6.49609 5.94076 7.03782 6.4825 7.70609 6.4825Z" fill="#3A3A3A" stroke="#E62C2F" stroke-width="0.2" stroke-linecap="round" stroke-linejoin="round"/>
<path opacity="0.4" d="M7.70609 6.4825C8.37435 6.4825 8.91611 5.94076 8.91611 5.2725C8.91611 4.60423 8.37435 4.0625 7.70609 4.0625C7.03782 4.0625 6.49609 4.60423 6.49609 5.2725C6.49609 5.94076 7.03782 6.4825 7.70609 6.4825Z" stroke="#E62C2F" stroke-width="0.2" stroke-linecap="round" stroke-linejoin="round"/>
<path opacity="0.7" d="M7.70422 6.15258C8.19023 6.15258 8.58423 5.75859 8.58423 5.27258C8.58423 4.78656 8.19023 4.39258 7.70422 4.39258C7.21821 4.39258 6.82422 4.78656 6.82422 5.27258C6.82422 5.75859 7.21821 6.15258 7.70422 6.15258Z" fill="#3A3A3A" stroke="#E62C2F" stroke-width="0.2" stroke-linecap="round" stroke-linejoin="round"/>
<path opacity="0.8" d="M7.70422 6.15258C8.19023 6.15258 8.58423 5.75859 8.58423 5.27258C8.58423 4.78656 8.19023 4.39258 7.70422 4.39258C7.21821 4.39258 6.82422 4.78656 6.82422 5.27258C6.82422 5.75859 7.21821 6.15258 7.70422 6.15258Z" stroke="#E62C2F" stroke-width="0.2" stroke-linecap="round" stroke-linejoin="round"/>
</svg>
