<svg width="13" height="24" viewBox="0 0 13 24" fill="none" xmlns="http://www.w3.org/2000/svg">
<path opacity="0.4" d="M6.59671 6.4825C7.26497 6.4825 7.8067 5.94076 7.8067 5.2725C7.8067 4.60423 7.26497 4.0625 6.59671 4.0625C5.92845 4.0625 5.38672 4.60423 5.38672 5.2725C5.38672 5.94076 5.92845 6.4825 6.59671 6.4825Z" fill="#3A3A3A" stroke="#E62C2F" stroke-width="0.2" stroke-linecap="round" stroke-linejoin="round"/>
<path opacity="0.4" d="M6.59671 6.4825C7.26497 6.4825 7.8067 5.94076 7.8067 5.2725C7.8067 4.60423 7.26497 4.0625 6.59671 4.0625C5.92845 4.0625 5.38672 4.60423 5.38672 5.2725C5.38672 5.94076 5.92845 6.4825 6.59671 6.4825Z" stroke="#E62C2F" stroke-width="0.2" stroke-linecap="round" stroke-linejoin="round"/>
<path opacity="0.7" d="M6.59485 6.15258C7.08086 6.15258 7.47485 5.75859 7.47485 5.27258C7.47485 4.78656 7.08086 4.39258 6.59485 4.39258C6.10884 4.39258 5.71484 4.78656 5.71484 5.27258C5.71484 5.75859 6.10884 6.15258 6.59485 6.15258Z" fill="#3A3A3A" stroke="#E62C2F" stroke-width="0.2" stroke-linecap="round" stroke-linejoin="round"/>
<path opacity="0.8" d="M6.59485 6.15258C7.08086 6.15258 7.47485 5.75859 7.47485 5.27258C7.47485 4.78656 7.08086 4.39258 6.59485 4.39258C6.10884 4.39258 5.71484 4.78656 5.71484 5.27258C5.71484 5.75859 6.10884 6.15258 6.59485 6.15258Z" stroke="#E62C2F" stroke-width="0.2" stroke-linecap="round" stroke-linejoin="round"/>
</svg>
