<svg width="12" height="22" viewBox="0 0 12 22" fill="none" xmlns="http://www.w3.org/2000/svg">
<path opacity="0.4" d="M5.81546 5.61239C6.48372 5.61239 7.02545 5.07065 7.02545 4.40239C7.02545 3.73412 6.48372 3.19238 5.81546 3.19238C5.1472 3.19238 4.60547 3.73412 4.60547 4.40239C4.60547 5.07065 5.1472 5.61239 5.81546 5.61239Z" fill="#3A3A3A" stroke="#E62C2F" stroke-width="0.2" stroke-linecap="round" stroke-linejoin="round"/>
<path opacity="0.4" d="M5.81546 5.61239C6.48372 5.61239 7.02545 5.07065 7.02545 4.40239C7.02545 3.73412 6.48372 3.19238 5.81546 3.19238C5.1472 3.19238 4.60547 3.73412 4.60547 4.40239C4.60547 5.07065 5.1472 5.61239 5.81546 5.61239Z" stroke="#E62C2F" stroke-width="0.2" stroke-linecap="round" stroke-linejoin="round"/>
<path opacity="0.7" d="M5.8136 5.28246C6.29961 5.28246 6.6936 4.88848 6.6936 4.40247C6.6936 3.91646 6.29961 3.52246 5.8136 3.52246C5.32759 3.52246 4.93359 3.91646 4.93359 4.40247C4.93359 4.88848 5.32759 5.28246 5.8136 5.28246Z" fill="#3A3A3A" stroke="#E62C2F" stroke-width="0.2" stroke-linecap="round" stroke-linejoin="round"/>
<path opacity="0.8" d="M5.8136 5.28246C6.29961 5.28246 6.6936 4.88848 6.6936 4.40247C6.6936 3.91646 6.29961 3.52246 5.8136 3.52246C5.32759 3.52246 4.93359 3.91646 4.93359 4.40247C4.93359 4.88848 5.32759 5.28246 5.8136 5.28246Z" stroke="#E62C2F" stroke-width="0.2" stroke-linecap="round" stroke-linejoin="round"/>
</svg>
