<svg width="9" height="23" viewBox="0 0 9 23" fill="none" xmlns="http://www.w3.org/2000/svg">
<path opacity="0.4" d="M4.74515 6.65243C5.41341 6.65243 5.95514 6.11069 5.95514 5.44242C5.95514 4.77416 5.41341 4.23242 4.74515 4.23242C4.07688 4.23242 3.53516 4.77416 3.53516 5.44242C3.53516 6.11069 4.07688 6.65243 4.74515 6.65243Z" fill="#3A3A3A" stroke="#E62C2F" stroke-width="0.2" stroke-linecap="round" stroke-linejoin="round"/>
<path opacity="0.4" d="M4.74515 6.65243C5.41341 6.65243 5.95514 6.11069 5.95514 5.44242C5.95514 4.77416 5.41341 4.23242 4.74515 4.23242C4.07688 4.23242 3.53516 4.77416 3.53516 5.44242C3.53516 6.11069 4.07688 6.65243 4.74515 6.65243Z" stroke="#E62C2F" stroke-width="0.2" stroke-linecap="round" stroke-linejoin="round"/>
<path opacity="0.7" d="M4.74329 6.3225C5.2293 6.3225 5.62329 5.92851 5.62329 5.4425C5.62329 4.95649 5.2293 4.5625 4.74329 4.5625C4.25728 4.5625 3.86328 4.95649 3.86328 5.4425C3.86328 5.92851 4.25728 6.3225 4.74329 6.3225Z" fill="#3A3A3A" stroke="#E62C2F" stroke-width="0.2" stroke-linecap="round" stroke-linejoin="round"/>
<path opacity="0.8" d="M4.74329 6.3225C5.2293 6.3225 5.62329 5.92851 5.62329 5.4425C5.62329 4.95649 5.2293 4.5625 4.74329 4.5625C4.25728 4.5625 3.86328 4.95649 3.86328 5.4425C3.86328 5.92851 4.25728 6.3225 4.74329 6.3225Z" stroke="#E62C2F" stroke-width="0.2" stroke-linecap="round" stroke-linejoin="round"/>
</svg>
