<svg width="9" height="25" viewBox="0 0 9 25" fill="none" xmlns="http://www.w3.org/2000/svg">
<path opacity="0.4" d="M4.39359 6.75301C5.06185 6.75301 5.60361 6.21127 5.60361 5.54301C5.60361 4.87474 5.06185 4.33301 4.39359 4.33301C3.72532 4.33301 3.18359 4.87474 3.18359 5.54301C3.18359 6.21127 3.72532 6.75301 4.39359 6.75301Z" fill="#3A3A3A" stroke="#E62C2F" stroke-width="0.2" stroke-linecap="round" stroke-linejoin="round"/>
<path opacity="0.4" d="M4.39359 6.75301C5.06185 6.75301 5.60361 6.21127 5.60361 5.54301C5.60361 4.87474 5.06185 4.33301 4.39359 4.33301C3.72532 4.33301 3.18359 4.87474 3.18359 5.54301C3.18359 6.21127 3.72532 6.75301 4.39359 6.75301Z" stroke="#E62C2F" stroke-width="0.2" stroke-linecap="round" stroke-linejoin="round"/>
<path opacity="0.7" d="M4.39172 6.42309C4.87773 6.42309 5.27173 6.0291 5.27173 5.54309C5.27173 5.05708 4.87773 4.66309 4.39172 4.66309C3.90571 4.66309 3.51172 5.05708 3.51172 5.54309C3.51172 6.0291 3.90571 6.42309 4.39172 6.42309Z" fill="#3A3A3A" stroke="#E62C2F" stroke-width="0.2" stroke-linecap="round" stroke-linejoin="round"/>
<path opacity="0.8" d="M4.39172 6.42309C4.87773 6.42309 5.27173 6.0291 5.27173 5.54309C5.27173 5.05708 4.87773 4.66309 4.39172 4.66309C3.90571 4.66309 3.51172 5.05708 3.51172 5.54309C3.51172 6.0291 3.90571 6.42309 4.39172 6.42309Z" stroke="#E62C2F" stroke-width="0.2" stroke-linecap="round" stroke-linejoin="round"/>
</svg>
