<svg width="9" height="31" viewBox="0 0 9 31" fill="none" xmlns="http://www.w3.org/2000/svg">
<path opacity="0.4" d="M4.20609 8.26277C4.87435 8.26277 5.41611 7.72104 5.41611 7.05277C5.41611 6.38451 4.87435 5.84277 4.20609 5.84277C3.53782 5.84277 2.99609 6.38451 2.99609 7.05277C2.99609 7.72104 3.53782 8.26277 4.20609 8.26277Z" fill="#3A3A3A" stroke="#E62C2F" stroke-width="0.2" stroke-linecap="round" stroke-linejoin="round"/>
<path opacity="0.4" d="M4.20609 8.26277C4.87435 8.26277 5.41611 7.72104 5.41611 7.05277C5.41611 6.38451 4.87435 5.84277 4.20609 5.84277C3.53782 5.84277 2.99609 6.38451 2.99609 7.05277C2.99609 7.72104 3.53782 8.26277 4.20609 8.26277Z" stroke="#E62C2F" stroke-width="0.2" stroke-linecap="round" stroke-linejoin="round"/>
<path opacity="0.7" d="M4.20422 7.93285C4.69023 7.93285 5.08423 7.53886 5.08423 7.05285C5.08423 6.56684 4.69023 6.17285 4.20422 6.17285C3.71821 6.17285 3.32422 6.56684 3.32422 7.05285C3.32422 7.53886 3.71821 7.93285 4.20422 7.93285Z" fill="#3A3A3A" stroke="#E62C2F" stroke-width="0.2" stroke-linecap="round" stroke-linejoin="round"/>
<path opacity="0.8" d="M4.20422 7.93285C4.69023 7.93285 5.08423 7.53886 5.08423 7.05285C5.08423 6.56684 4.69023 6.17285 4.20422 6.17285C3.71821 6.17285 3.32422 6.56684 3.32422 7.05285C3.32422 7.53886 3.71821 7.93285 4.20422 7.93285Z" stroke="#E62C2F" stroke-width="0.2" stroke-linecap="round" stroke-linejoin="round"/>
</svg>
