<svg width="10" height="25" viewBox="0 0 10 25" fill="none" xmlns="http://www.w3.org/2000/svg">
<path opacity="0.4" d="M4.9053 6.55281C5.57357 6.55281 6.1153 6.01108 6.1153 5.34281C6.1153 4.67455 5.57357 4.13281 4.9053 4.13281C4.23704 4.13281 3.69531 4.67455 3.69531 5.34281C3.69531 6.01108 4.23704 6.55281 4.9053 6.55281Z" fill="#3A3A3A" stroke="#E62C2F" stroke-width="0.2" stroke-linecap="round" stroke-linejoin="round"/>
<path opacity="0.4" d="M4.9053 6.55281C5.57357 6.55281 6.1153 6.01108 6.1153 5.34281C6.1153 4.67455 5.57357 4.13281 4.9053 4.13281C4.23704 4.13281 3.69531 4.67455 3.69531 5.34281C3.69531 6.01108 4.23704 6.55281 4.9053 6.55281Z" stroke="#E62C2F" stroke-width="0.2" stroke-linecap="round" stroke-linejoin="round"/>
<path opacity="0.7" d="M4.90344 6.22289C5.38945 6.22289 5.78345 5.8289 5.78345 5.34289C5.78345 4.85688 5.38945 4.46289 4.90344 4.46289C4.41743 4.46289 4.02344 4.85688 4.02344 5.34289C4.02344 5.8289 4.41743 6.22289 4.90344 6.22289Z" fill="#3A3A3A" stroke="#E62C2F" stroke-width="0.2" stroke-linecap="round" stroke-linejoin="round"/>
<path opacity="0.8" d="M4.90344 6.22289C5.38945 6.22289 5.78345 5.8289 5.78345 5.34289C5.78345 4.85688 5.38945 4.46289 4.90344 4.46289C4.41743 4.46289 4.02344 4.85688 4.02344 5.34289C4.02344 5.8289 4.41743 6.22289 4.90344 6.22289Z" stroke="#E62C2F" stroke-width="0.2" stroke-linecap="round" stroke-linejoin="round"/>
</svg>
