<svg width="11" height="25" viewBox="0 0 11 25" fill="none" xmlns="http://www.w3.org/2000/svg">
<path opacity="0.4" d="M5.4639 7.6827C6.13216 7.6827 6.67389 7.14097 6.67389 6.4727C6.67389 5.80444 6.13216 5.2627 5.4639 5.2627C4.79563 5.2627 4.25391 5.80444 4.25391 6.4727C4.25391 7.14097 4.79563 7.6827 5.4639 7.6827Z" fill="#3A3A3A" stroke="#E62C2F" stroke-width="0.2" stroke-linecap="round" stroke-linejoin="round"/>
<path opacity="0.4" d="M5.4639 7.6827C6.13216 7.6827 6.67389 7.14097 6.67389 6.4727C6.67389 5.80444 6.13216 5.2627 5.4639 5.2627C4.79563 5.2627 4.25391 5.80444 4.25391 6.4727C4.25391 7.14097 4.79563 7.6827 5.4639 7.6827Z" stroke="#E62C2F" stroke-width="0.2" stroke-linecap="round" stroke-linejoin="round"/>
<path opacity="0.7" d="M5.46204 7.35278C5.94805 7.35278 6.34204 6.95879 6.34204 6.47278C6.34204 5.98677 5.94805 5.59277 5.46204 5.59277C4.97603 5.59277 4.58203 5.98677 4.58203 6.47278C4.58203 6.95879 4.97603 7.35278 5.46204 7.35278Z" fill="#3A3A3A" stroke="#E62C2F" stroke-width="0.2" stroke-linecap="round" stroke-linejoin="round"/>
<path opacity="0.8" d="M5.46204 7.35278C5.94805 7.35278 6.34204 6.95879 6.34204 6.47278C6.34204 5.98677 5.94805 5.59277 5.46204 5.59277C4.97603 5.59277 4.58203 5.98677 4.58203 6.47278C4.58203 6.95879 4.97603 7.35278 5.46204 7.35278Z" stroke="#E62C2F" stroke-width="0.2" stroke-linecap="round" stroke-linejoin="round"/>
</svg>
