<svg width="15" height="25" viewBox="0 0 15 25" fill="none" xmlns="http://www.w3.org/2000/svg">
<path opacity="0.4" d="M7.81548 6.67293C8.48374 6.67293 9.02547 6.13119 9.02547 5.46293C9.02547 4.79466 8.48374 4.25293 7.81548 4.25293C7.14721 4.25293 6.60547 4.79466 6.60547 5.46293C6.60547 6.13119 7.14721 6.67293 7.81548 6.67293Z" fill="#3A3A3A" stroke="#E62C2F" stroke-width="0.2" stroke-linecap="round" stroke-linejoin="round"/>
<path opacity="0.4" d="M7.81548 6.67293C8.48374 6.67293 9.02547 6.13119 9.02547 5.46293C9.02547 4.79466 8.48374 4.25293 7.81548 4.25293C7.14721 4.25293 6.60547 4.79466 6.60547 5.46293C6.60547 6.13119 7.14721 6.67293 7.81548 6.67293Z" stroke="#E62C2F" stroke-width="0.2" stroke-linecap="round" stroke-linejoin="round"/>
<path opacity="0.7" d="M7.8136 6.343C8.29961 6.343 8.69359 5.94902 8.69359 5.46301C8.69359 4.97699 8.29961 4.58301 7.8136 4.58301C7.32759 4.58301 6.93359 4.97699 6.93359 5.46301C6.93359 5.94902 7.32759 6.343 7.8136 6.343Z" fill="#3A3A3A" stroke="#E62C2F" stroke-width="0.2" stroke-linecap="round" stroke-linejoin="round"/>
<path opacity="0.8" d="M7.8136 6.343C8.29961 6.343 8.69359 5.94902 8.69359 5.46301C8.69359 4.97699 8.29961 4.58301 7.8136 4.58301C7.32759 4.58301 6.93359 4.97699 6.93359 5.46301C6.93359 5.94902 7.32759 6.343 7.8136 6.343Z" stroke="#E62C2F" stroke-width="0.2" stroke-linecap="round" stroke-linejoin="round"/>
</svg>
