<svg width="13" height="24" viewBox="0 0 13 24" fill="none" xmlns="http://www.w3.org/2000/svg">
<path opacity="0.4" d="M6.41312 6.65243C7.08138 6.65243 7.62312 6.11069 7.62312 5.44242C7.62312 4.77416 7.08138 4.23242 6.41312 4.23242C5.74485 4.23242 5.20312 4.77416 5.20312 5.44242C5.20312 6.11069 5.74485 6.65243 6.41312 6.65243Z" fill="#3A3A3A" stroke="#E62C2F" stroke-width="0.2" stroke-linecap="round" stroke-linejoin="round"/>
<path opacity="0.4" d="M6.41312 6.65243C7.08138 6.65243 7.62312 6.11069 7.62312 5.44242C7.62312 4.77416 7.08138 4.23242 6.41312 4.23242C5.74485 4.23242 5.20312 4.77416 5.20312 5.44242C5.20312 6.11069 5.74485 6.65243 6.41312 6.65243Z" stroke="#E62C2F" stroke-width="0.2" stroke-linecap="round" stroke-linejoin="round"/>
<path opacity="0.7" d="M6.41124 6.3225C6.89725 6.3225 7.29124 5.92851 7.29124 5.4425C7.29124 4.95649 6.89725 4.5625 6.41124 4.5625C5.92523 4.5625 5.53125 4.95649 5.53125 5.4425C5.53125 5.92851 5.92523 6.3225 6.41124 6.3225Z" fill="#3A3A3A" stroke="#E62C2F" stroke-width="0.2" stroke-linecap="round" stroke-linejoin="round"/>
<path opacity="0.8" d="M6.41124 6.3225C6.89725 6.3225 7.29124 5.92851 7.29124 5.4425C7.29124 4.95649 6.89725 4.5625 6.41124 4.5625C5.92523 4.5625 5.53125 4.95649 5.53125 5.4425C5.53125 5.92851 5.92523 6.3225 6.41124 6.3225Z" stroke="#E62C2F" stroke-width="0.2" stroke-linecap="round" stroke-linejoin="round"/>
</svg>
