<svg width="12" height="22" viewBox="0 0 12 22" fill="none" xmlns="http://www.w3.org/2000/svg">
<path opacity="0.4" d="M6.26469 5.77254C6.93296 5.77254 7.47469 5.2308 7.47469 4.56254C7.47469 3.89427 6.93296 3.35254 6.26469 3.35254C5.59643 3.35254 5.05469 3.89427 5.05469 4.56254C5.05469 5.2308 5.59643 5.77254 6.26469 5.77254Z" fill="#3A3A3A" stroke="#E62C2F" stroke-width="0.2" stroke-linecap="round" stroke-linejoin="round"/>
<path opacity="0.4" d="M6.26469 5.77254C6.93296 5.77254 7.47469 5.2308 7.47469 4.56254C7.47469 3.89427 6.93296 3.35254 6.26469 3.35254C5.59643 3.35254 5.05469 3.89427 5.05469 4.56254C5.05469 5.2308 5.59643 5.77254 6.26469 5.77254Z" stroke="#E62C2F" stroke-width="0.2" stroke-linecap="round" stroke-linejoin="round"/>
<path opacity="0.7" d="M6.26282 5.44261C6.74883 5.44261 7.14281 5.04862 7.14281 4.56261C7.14281 4.0766 6.74883 3.68262 6.26282 3.68262C5.77681 3.68262 5.38281 4.0766 5.38281 4.56261C5.38281 5.04862 5.77681 5.44261 6.26282 5.44261Z" fill="#3A3A3A" stroke="#E62C2F" stroke-width="0.2" stroke-linecap="round" stroke-linejoin="round"/>
<path opacity="0.8" d="M6.26282 5.44261C6.74883 5.44261 7.14281 5.04862 7.14281 4.56261C7.14281 4.0766 6.74883 3.68262 6.26282 3.68262C5.77681 3.68262 5.38281 4.0766 5.38281 4.56261C5.38281 5.04862 5.77681 5.44261 6.26282 5.44261Z" stroke="#E62C2F" stroke-width="0.2" stroke-linecap="round" stroke-linejoin="round"/>
</svg>
