<svg width="8" height="20" viewBox="0 0 8 20" fill="none" xmlns="http://www.w3.org/2000/svg">
<path opacity="0.4" d="M4.19485 16.8028C4.59801 16.8028 4.92484 16.4759 4.92484 16.0728C4.92484 15.6696 4.59801 15.3428 4.19485 15.3428C3.79168 15.3428 3.46484 15.6696 3.46484 16.0728C3.46484 16.4759 3.79168 16.8028 4.19485 16.8028Z" fill="#3A3A3A" stroke="#E62C2F" stroke-width="0.15" stroke-linecap="round" stroke-linejoin="round"/>
<path opacity="0.4" d="M4.19485 16.8028C4.59801 16.8028 4.92484 16.4759 4.92484 16.0728C4.92484 15.6696 4.59801 15.3428 4.19485 15.3428C3.79168 15.3428 3.46484 15.6696 3.46484 16.0728C3.46484 16.4759 3.79168 16.8028 4.19485 16.8028Z" stroke="#E62C2F" stroke-width="0.15" stroke-linecap="round" stroke-linejoin="round"/>
<path opacity="0.7" d="M4.19407 16.603C4.48678 16.603 4.72407 16.3657 4.72407 16.073C4.72407 15.7803 4.48678 15.543 4.19407 15.543C3.90136 15.543 3.66406 15.7803 3.66406 16.073C3.66406 16.3657 3.90136 16.603 4.19407 16.603Z" fill="#3A3A3A" stroke="#E62C2F" stroke-width="0.15" stroke-linecap="round" stroke-linejoin="round"/>
<path opacity="0.8" d="M4.19407 16.603C4.48678 16.603 4.72407 16.3657 4.72407 16.073C4.72407 15.7803 4.48678 15.543 4.19407 15.543C3.90136 15.543 3.66406 15.7803 3.66406 16.073C3.66406 16.3657 3.90136 16.603 4.19407 16.603Z" stroke="#E62C2F" stroke-width="0.15" stroke-linecap="round" stroke-linejoin="round"/>
</svg>
