<svg width="6" height="19" viewBox="0 0 6 19" fill="none" xmlns="http://www.w3.org/2000/svg">
<path opacity="0.4" d="M3.09328 16.003C3.49644 16.003 3.82328 15.6761 3.82328 15.273C3.82328 14.8698 3.49644 14.543 3.09328 14.543C2.69011 14.543 2.36328 14.8698 2.36328 15.273C2.36328 15.6761 2.69011 16.003 3.09328 16.003Z" fill="#3A3A3A" stroke="#E62C2F" stroke-width="0.15" stroke-linecap="round" stroke-linejoin="round"/>
<path opacity="0.4" d="M3.09328 16.003C3.49644 16.003 3.82328 15.6761 3.82328 15.273C3.82328 14.8698 3.49644 14.543 3.09328 14.543C2.69011 14.543 2.36328 14.8698 2.36328 15.273C2.36328 15.6761 2.69011 16.003 3.09328 16.003Z" stroke="#E62C2F" stroke-width="0.15" stroke-linecap="round" stroke-linejoin="round"/>
<path opacity="0.7" d="M3.0925 15.8032C3.38521 15.8032 3.62251 15.5659 3.62251 15.2732C3.62251 14.9805 3.38521 14.7432 3.0925 14.7432C2.79979 14.7432 2.5625 14.9805 2.5625 15.2732C2.5625 15.5659 2.79979 15.8032 3.0925 15.8032Z" fill="#3A3A3A" stroke="#E62C2F" stroke-width="0.15" stroke-linecap="round" stroke-linejoin="round"/>
<path opacity="0.8" d="M3.0925 15.8032C3.38521 15.8032 3.62251 15.5659 3.62251 15.2732C3.62251 14.9805 3.38521 14.7432 3.0925 14.7432C2.79979 14.7432 2.5625 14.9805 2.5625 15.2732C2.5625 15.5659 2.79979 15.8032 3.0925 15.8032Z" stroke="#E62C2F" stroke-width="0.15" stroke-linecap="round" stroke-linejoin="round"/>
</svg>
