<svg width="7" height="22" viewBox="0 0 7 22" fill="none" xmlns="http://www.w3.org/2000/svg">
<path opacity="0.4" d="M3.91359 18.0733C4.31676 18.0733 4.64359 17.7464 4.64359 17.3433C4.64359 16.9401 4.31676 16.6133 3.91359 16.6133C3.51043 16.6133 3.18359 16.9401 3.18359 17.3433C3.18359 17.7464 3.51043 18.0733 3.91359 18.0733Z" fill="#3A3A3A" stroke="#E62C2F" stroke-width="0.15" stroke-linecap="round" stroke-linejoin="round"/>
<path opacity="0.4" d="M3.91359 18.0733C4.31676 18.0733 4.64359 17.7464 4.64359 17.3433C4.64359 16.9401 4.31676 16.6133 3.91359 16.6133C3.51043 16.6133 3.18359 16.9401 3.18359 17.3433C3.18359 17.7464 3.51043 18.0733 3.91359 18.0733Z" stroke="#E62C2F" stroke-width="0.15" stroke-linecap="round" stroke-linejoin="round"/>
<path opacity="0.7" d="M3.91282 17.8735C4.20553 17.8735 4.44281 17.6362 4.44281 17.3435C4.44281 17.0508 4.20553 16.8135 3.91282 16.8135C3.6201 16.8135 3.38281 17.0508 3.38281 17.3435C3.38281 17.6362 3.6201 17.8735 3.91282 17.8735Z" fill="#3A3A3A" stroke="#E62C2F" stroke-width="0.15" stroke-linecap="round" stroke-linejoin="round"/>
<path opacity="0.8" d="M3.91282 17.8735C4.20553 17.8735 4.44281 17.6362 4.44281 17.3435C4.44281 17.0508 4.20553 16.8135 3.91282 16.8135C3.6201 16.8135 3.38281 17.0508 3.38281 17.3435C3.38281 17.6362 3.6201 17.8735 3.91282 17.8735Z" stroke="#E62C2F" stroke-width="0.15" stroke-linecap="round" stroke-linejoin="round"/>
</svg>
