<svg width="11" height="20" viewBox="0 0 11 20" fill="none" xmlns="http://www.w3.org/2000/svg">
<path opacity="0.4" d="M5.75641 17.0128C6.27556 17.0128 6.69641 16.592 6.69641 16.0728C6.69641 15.5537 6.27556 15.1328 5.75641 15.1328C5.23726 15.1328 4.81641 15.5537 4.81641 16.0728C4.81641 16.592 5.23726 17.0128 5.75641 17.0128Z" fill="#3A3A3A" stroke="#E62C2F" stroke-width="0.15" stroke-linecap="round" stroke-linejoin="round"/>
<path opacity="0.4" d="M5.75641 17.0128C6.27556 17.0128 6.69641 16.592 6.69641 16.0728C6.69641 15.5537 6.27556 15.1328 5.75641 15.1328C5.23726 15.1328 4.81641 15.5537 4.81641 16.0728C4.81641 16.592 5.23726 17.0128 5.75641 17.0128Z" stroke="#E62C2F" stroke-width="0.15" stroke-linecap="round" stroke-linejoin="round"/>
<path opacity="0.7" d="M5.75813 16.7526C6.13368 16.7526 6.43813 16.4481 6.43813 16.0726C6.43813 15.697 6.13368 15.3926 5.75813 15.3926C5.38257 15.3926 5.07812 15.697 5.07812 16.0726C5.07812 16.4481 5.38257 16.7526 5.75813 16.7526Z" fill="#3A3A3A" stroke="#E62C2F" stroke-width="0.15" stroke-linecap="round" stroke-linejoin="round"/>
<path opacity="0.8" d="M5.75813 16.7526C6.13368 16.7526 6.43813 16.4481 6.43813 16.0726C6.43813 15.697 6.13368 15.3926 5.75813 15.3926C5.38257 15.3926 5.07812 15.697 5.07812 16.0726C5.07812 16.4481 5.38257 16.7526 5.75813 16.7526Z" stroke="#E62C2F" stroke-width="0.15" stroke-linecap="round" stroke-linejoin="round"/>
</svg>
