<svg width="14" height="20" viewBox="0 0 14 20" fill="none" xmlns="http://www.w3.org/2000/svg">
<path opacity="0.4" d="M7.99469 16.4132C8.51384 16.4132 8.93469 15.9923 8.93469 15.4732C8.93469 14.9541 8.51384 14.5332 7.99469 14.5332C7.47554 14.5332 7.05469 14.9541 7.05469 15.4732C7.05469 15.9923 7.47554 16.4132 7.99469 16.4132Z" fill="#3A3A3A" stroke="#E62C2F" stroke-width="0.15" stroke-linecap="round" stroke-linejoin="round"/>
<path opacity="0.4" d="M7.99469 16.4132C8.51384 16.4132 8.93469 15.9923 8.93469 15.4732C8.93469 14.9541 8.51384 14.5332 7.99469 14.5332C7.47554 14.5332 7.05469 14.9541 7.05469 15.4732C7.05469 15.9923 7.47554 16.4132 7.99469 16.4132Z" stroke="#E62C2F" stroke-width="0.15" stroke-linecap="round" stroke-linejoin="round"/>
<path opacity="0.7" d="M7.99641 16.153C8.37196 16.153 8.6764 15.8485 8.6764 15.473C8.6764 15.0974 8.37196 14.793 7.99641 14.793C7.62085 14.793 7.31641 15.0974 7.31641 15.473C7.31641 15.8485 7.62085 16.153 7.99641 16.153Z" fill="#3A3A3A" stroke="#E62C2F" stroke-width="0.15" stroke-linecap="round" stroke-linejoin="round"/>
<path opacity="0.8" d="M7.99641 16.153C8.37196 16.153 8.6764 15.8485 8.6764 15.473C8.6764 15.0974 8.37196 14.793 7.99641 14.793C7.62085 14.793 7.31641 15.0974 7.31641 15.473C7.31641 15.8485 7.62085 16.153 7.99641 16.153Z" stroke="#E62C2F" stroke-width="0.15" stroke-linecap="round" stroke-linejoin="round"/>
</svg>
