<svg width="8" height="20" viewBox="0 0 8 20" fill="none" xmlns="http://www.w3.org/2000/svg">
<path opacity="0.4" d="M3.54641 16.8028C3.94958 16.8028 4.27641 16.4759 4.27641 16.0728C4.27641 15.6696 3.94958 15.3428 3.54641 15.3428C3.14324 15.3428 2.81641 15.6696 2.81641 16.0728C2.81641 16.4759 3.14324 16.8028 3.54641 16.8028Z" fill="#3A3A3A" stroke="#E62C2F" stroke-width="0.15" stroke-linecap="round" stroke-linejoin="round"/>
<path opacity="0.4" d="M3.54641 16.8028C3.94958 16.8028 4.27641 16.4759 4.27641 16.0728C4.27641 15.6696 3.94958 15.3428 3.54641 15.3428C3.14324 15.3428 2.81641 15.6696 2.81641 16.0728C2.81641 16.4759 3.14324 16.8028 3.54641 16.8028Z" stroke="#E62C2F" stroke-width="0.15" stroke-linecap="round" stroke-linejoin="round"/>
<path opacity="0.7" d="M3.54562 16.603C3.83833 16.603 4.07562 16.3657 4.07562 16.073C4.07562 15.7803 3.83833 15.543 3.54562 15.543C3.25291 15.543 3.01562 15.7803 3.01562 16.073C3.01562 16.3657 3.25291 16.603 3.54562 16.603Z" fill="#3A3A3A" stroke="#E62C2F" stroke-width="0.15" stroke-linecap="round" stroke-linejoin="round"/>
<path opacity="0.8" d="M3.54562 16.603C3.83833 16.603 4.07562 16.3657 4.07562 16.073C4.07562 15.7803 3.83833 15.543 3.54562 15.543C3.25291 15.543 3.01562 15.7803 3.01562 16.073C3.01562 16.3657 3.25291 16.603 3.54562 16.603Z" stroke="#E62C2F" stroke-width="0.15" stroke-linecap="round" stroke-linejoin="round"/>
</svg>
