<svg width="7" height="19" viewBox="0 0 7 19" fill="none" xmlns="http://www.w3.org/2000/svg">
<path opacity="0.4" d="M3.74562 16.1729C4.14879 16.1729 4.47562 15.8461 4.47562 15.4429C4.47562 15.0397 4.14879 14.7129 3.74562 14.7129C3.34245 14.7129 3.01562 15.0397 3.01562 15.4429C3.01562 15.8461 3.34245 16.1729 3.74562 16.1729Z" fill="#3A3A3A" stroke="#E62C2F" stroke-width="0.15" stroke-linecap="round" stroke-linejoin="round"/>
<path opacity="0.4" d="M3.74562 16.1729C4.14879 16.1729 4.47562 15.8461 4.47562 15.4429C4.47562 15.0397 4.14879 14.7129 3.74562 14.7129C3.34245 14.7129 3.01562 15.0397 3.01562 15.4429C3.01562 15.8461 3.34245 16.1729 3.74562 16.1729Z" stroke="#E62C2F" stroke-width="0.15" stroke-linecap="round" stroke-linejoin="round"/>
<path opacity="0.7" d="M3.74484 15.9731C4.03755 15.9731 4.27484 15.7358 4.27484 15.4431C4.27484 15.1504 4.03755 14.9131 3.74484 14.9131C3.45213 14.9131 3.21484 15.1504 3.21484 15.4431C3.21484 15.7358 3.45213 15.9731 3.74484 15.9731Z" fill="#3A3A3A" stroke="#E62C2F" stroke-width="0.15" stroke-linecap="round" stroke-linejoin="round"/>
<path opacity="0.8" d="M3.74484 15.9731C4.03755 15.9731 4.27484 15.7358 4.27484 15.4431C4.27484 15.1504 4.03755 14.9131 3.74484 14.9131C3.45213 14.9131 3.21484 15.1504 3.21484 15.4431C3.21484 15.7358 3.45213 15.9731 3.74484 15.9731Z" stroke="#E62C2F" stroke-width="0.15" stroke-linecap="round" stroke-linejoin="round"/>
</svg>
