<svg width="7" height="22" viewBox="0 0 7 22" fill="none" xmlns="http://www.w3.org/2000/svg">
<path opacity="0.4" d="M3.96437 17.9131C4.36754 17.9131 4.69437 17.5863 4.69437 17.1831C4.69437 16.78 4.36754 16.4531 3.96437 16.4531C3.5612 16.4531 3.23438 16.78 3.23438 17.1831C3.23438 17.5863 3.5612 17.9131 3.96437 17.9131Z" fill="#3A3A3A" stroke="#E62C2F" stroke-width="0.15" stroke-linecap="round" stroke-linejoin="round"/>
<path opacity="0.4" d="M3.96437 17.9131C4.36754 17.9131 4.69437 17.5863 4.69437 17.1831C4.69437 16.78 4.36754 16.4531 3.96437 16.4531C3.5612 16.4531 3.23438 16.78 3.23438 17.1831C3.23438 17.5863 3.5612 17.9131 3.96437 17.9131Z" stroke="#E62C2F" stroke-width="0.15" stroke-linecap="round" stroke-linejoin="round"/>
<path opacity="0.7" d="M3.96359 17.7133C4.2563 17.7133 4.49359 17.476 4.49359 17.1833C4.49359 16.8906 4.2563 16.6533 3.96359 16.6533C3.67088 16.6533 3.43359 16.8906 3.43359 17.1833C3.43359 17.476 3.67088 17.7133 3.96359 17.7133Z" fill="#3A3A3A" stroke="#E62C2F" stroke-width="0.15" stroke-linecap="round" stroke-linejoin="round"/>
<path opacity="0.8" d="M3.96359 17.7133C4.2563 17.7133 4.49359 17.476 4.49359 17.1833C4.49359 16.8906 4.2563 16.6533 3.96359 16.6533C3.67088 16.6533 3.43359 16.8906 3.43359 17.1833C3.43359 17.476 3.67088 17.7133 3.96359 17.7133Z" stroke="#E62C2F" stroke-width="0.15" stroke-linecap="round" stroke-linejoin="round"/>
</svg>
