<svg width="11" height="20" viewBox="0 0 11 20" fill="none" xmlns="http://www.w3.org/2000/svg">
<path opacity="0.4" d="M4.97514 16.8527C5.49429 16.8527 5.91515 16.4318 5.91515 15.9127C5.91515 15.3935 5.49429 14.9727 4.97514 14.9727C4.456 14.9727 4.03516 15.3935 4.03516 15.9127C4.03516 16.4318 4.456 16.8527 4.97514 16.8527Z" fill="#3A3A3A" stroke="#E62C2F" stroke-width="0.15" stroke-linecap="round" stroke-linejoin="round"/>
<path opacity="0.4" d="M4.97514 16.8527C5.49429 16.8527 5.91515 16.4318 5.91515 15.9127C5.91515 15.3935 5.49429 14.9727 4.97514 14.9727C4.456 14.9727 4.03516 15.3935 4.03516 15.9127C4.03516 16.4318 4.456 16.8527 4.97514 16.8527Z" stroke="#E62C2F" stroke-width="0.15" stroke-linecap="round" stroke-linejoin="round"/>
<path opacity="0.7" d="M4.97687 16.5924C5.35242 16.5924 5.65688 16.288 5.65688 15.9124C5.65688 15.5369 5.35242 15.2324 4.97687 15.2324C4.60131 15.2324 4.29688 15.5369 4.29688 15.9124C4.29688 16.288 4.60131 16.5924 4.97687 16.5924Z" fill="#3A3A3A" stroke="#E62C2F" stroke-width="0.15" stroke-linecap="round" stroke-linejoin="round"/>
<path opacity="0.8" d="M4.97687 16.5924C5.35242 16.5924 5.65688 16.288 5.65688 15.9124C5.65688 15.5369 5.35242 15.2324 4.97687 15.2324C4.60131 15.2324 4.29688 15.5369 4.29688 15.9124C4.29688 16.288 4.60131 16.5924 4.97687 16.5924Z" stroke="#E62C2F" stroke-width="0.15" stroke-linecap="round" stroke-linejoin="round"/>
</svg>
