<svg width="14" height="20" viewBox="0 0 14 20" fill="none" xmlns="http://www.w3.org/2000/svg">
<path opacity="0.4" d="M5.81595 16.4932C6.35719 16.4932 6.79594 16.0544 6.79594 15.5132C6.79594 14.972 6.35719 14.5332 5.81595 14.5332C5.27471 14.5332 4.83594 14.972 4.83594 15.5132C4.83594 16.0544 5.27471 16.4932 5.81595 16.4932Z" fill="#3A3A3A" stroke="#E62C2F" stroke-width="0.15" stroke-linecap="round" stroke-linejoin="round"/>
<path opacity="0.4" d="M5.81595 16.4932C6.35719 16.4932 6.79594 16.0544 6.79594 15.5132C6.79594 14.972 6.35719 14.5332 5.81595 14.5332C5.27471 14.5332 4.83594 14.972 4.83594 15.5132C4.83594 16.0544 5.27471 16.4932 5.81595 16.4932Z" stroke="#E62C2F" stroke-width="0.15" stroke-linecap="round" stroke-linejoin="round"/>
<path opacity="0.7" d="M5.81548 16.2227C6.2076 16.2227 6.52547 15.9049 6.52547 15.5127C6.52547 15.1206 6.2076 14.8027 5.81548 14.8027C5.42335 14.8027 5.10547 15.1206 5.10547 15.5127C5.10547 15.9049 5.42335 16.2227 5.81548 16.2227Z" fill="#3A3A3A" stroke="#E62C2F" stroke-width="0.15" stroke-linecap="round" stroke-linejoin="round"/>
<path opacity="0.8" d="M5.81548 16.2227C6.2076 16.2227 6.52547 15.9049 6.52547 15.5127C6.52547 15.1206 6.2076 14.8027 5.81548 14.8027C5.42335 14.8027 5.10547 15.1206 5.10547 15.5127C5.10547 15.9049 5.42335 16.2227 5.81548 16.2227Z" stroke="#E62C2F" stroke-width="0.15" stroke-linecap="round" stroke-linejoin="round"/>
</svg>
