<svg width="5" height="19" viewBox="0 0 5 19" fill="none" xmlns="http://www.w3.org/2000/svg">
<path opacity="0.4" d="M2.61672 5.29301C3.01989 5.29301 3.34672 4.96617 3.34672 4.563C3.34672 4.15984 3.01989 3.83301 2.61672 3.83301C2.21355 3.83301 1.88672 4.15984 1.88672 4.563C1.88672 4.96617 2.21355 5.29301 2.61672 5.29301Z" fill="#3A3A3A" stroke="#E62C2F" stroke-width="0.15" stroke-linecap="round" stroke-linejoin="round"/>
<path opacity="0.4" d="M2.61672 5.29301C3.01989 5.29301 3.34672 4.96617 3.34672 4.563C3.34672 4.15984 3.01989 3.83301 2.61672 3.83301C2.21355 3.83301 1.88672 4.15984 1.88672 4.563C1.88672 4.96617 2.21355 5.29301 2.61672 5.29301Z" stroke="#E62C2F" stroke-width="0.15" stroke-linecap="round" stroke-linejoin="round"/>
<path opacity="0.7" d="M2.61594 5.0932C2.90865 5.0932 3.14594 4.85591 3.14594 4.5632C3.14594 4.27049 2.90865 4.0332 2.61594 4.0332C2.32323 4.0332 2.08594 4.27049 2.08594 4.5632C2.08594 4.85591 2.32323 5.0932 2.61594 5.0932Z" fill="#3A3A3A" stroke="#E62C2F" stroke-width="0.15" stroke-linecap="round" stroke-linejoin="round"/>
<path opacity="0.8" d="M2.61594 5.0932C2.90865 5.0932 3.14594 4.85591 3.14594 4.5632C3.14594 4.27049 2.90865 4.0332 2.61594 4.0332C2.32323 4.0332 2.08594 4.27049 2.08594 4.5632C2.08594 4.85591 2.32323 5.0932 2.61594 5.0932Z" stroke="#E62C2F" stroke-width="0.15" stroke-linecap="round" stroke-linejoin="round"/>
</svg>
