<svg width="6" height="19" viewBox="0 0 6 19" fill="none" xmlns="http://www.w3.org/2000/svg">
<path opacity="0.4" d="M2.74562 5.29301C3.14879 5.29301 3.47562 4.96617 3.47562 4.563C3.47562 4.15984 3.14879 3.83301 2.74562 3.83301C2.34245 3.83301 2.01562 4.15984 2.01562 4.563C2.01562 4.96617 2.34245 5.29301 2.74562 5.29301Z" fill="#3A3A3A" stroke="#E62C2F" stroke-width="0.15" stroke-linecap="round" stroke-linejoin="round"/>
<path opacity="0.4" d="M2.74562 5.29301C3.14879 5.29301 3.47562 4.96617 3.47562 4.563C3.47562 4.15984 3.14879 3.83301 2.74562 3.83301C2.34245 3.83301 2.01562 4.15984 2.01562 4.563C2.01562 4.96617 2.34245 5.29301 2.74562 5.29301Z" stroke="#E62C2F" stroke-width="0.15" stroke-linecap="round" stroke-linejoin="round"/>
<path opacity="0.7" d="M2.74484 5.0932C3.03755 5.0932 3.27484 4.85591 3.27484 4.5632C3.27484 4.27049 3.03755 4.0332 2.74484 4.0332C2.45213 4.0332 2.21484 4.27049 2.21484 4.5632C2.21484 4.85591 2.45213 5.0932 2.74484 5.0932Z" fill="#3A3A3A" stroke="#E62C2F" stroke-width="0.15" stroke-linecap="round" stroke-linejoin="round"/>
<path opacity="0.8" d="M2.74484 5.0932C3.03755 5.0932 3.27484 4.85591 3.27484 4.5632C3.27484 4.27049 3.03755 4.0332 2.74484 4.0332C2.45213 4.0332 2.21484 4.27049 2.21484 4.5632C2.21484 4.85591 2.45213 5.0932 2.74484 5.0932Z" stroke="#E62C2F" stroke-width="0.15" stroke-linecap="round" stroke-linejoin="round"/>
</svg>
