<svg width="7" height="23" viewBox="0 0 7 23" fill="none" xmlns="http://www.w3.org/2000/svg">
<path opacity="0.4" d="M3.63625 6.34281C4.03941 6.34281 4.36624 6.01598 4.36624 5.61282C4.36624 5.20965 4.03941 4.88281 3.63625 4.88281C3.23308 4.88281 2.90625 5.20965 2.90625 5.61282C2.90625 6.01598 3.23308 6.34281 3.63625 6.34281Z" fill="#3A3A3A" stroke="#E62C2F" stroke-width="0.15" stroke-linecap="round" stroke-linejoin="round"/>
<path opacity="0.4" d="M3.63625 6.34281C4.03941 6.34281 4.36624 6.01598 4.36624 5.61282C4.36624 5.20965 4.03941 4.88281 3.63625 4.88281C3.23308 4.88281 2.90625 5.20965 2.90625 5.61282C2.90625 6.01598 3.23308 6.34281 3.63625 6.34281Z" stroke="#E62C2F" stroke-width="0.15" stroke-linecap="round" stroke-linejoin="round"/>
<path opacity="0.7" d="M3.63547 6.14301C3.92818 6.14301 4.16547 5.90572 4.16547 5.61301C4.16547 5.3203 3.92818 5.08301 3.63547 5.08301C3.34276 5.08301 3.10547 5.3203 3.10547 5.61301C3.10547 5.90572 3.34276 6.14301 3.63547 6.14301Z" fill="#3A3A3A" stroke="#E62C2F" stroke-width="0.15" stroke-linecap="round" stroke-linejoin="round"/>
<path opacity="0.8" d="M3.63547 6.14301C3.92818 6.14301 4.16547 5.90572 4.16547 5.61301C4.16547 5.3203 3.92818 5.08301 3.63547 5.08301C3.34276 5.08301 3.10547 5.3203 3.10547 5.61301C3.10547 5.90572 3.34276 6.14301 3.63547 6.14301Z" stroke="#E62C2F" stroke-width="0.15" stroke-linecap="round" stroke-linejoin="round"/>
</svg>
