<svg width="12" height="19" viewBox="0 0 12 19" fill="none" xmlns="http://www.w3.org/2000/svg">
<path opacity="0.4" d="M6.57657 5.97247C7.18408 5.97247 7.67657 5.47997 7.67657 4.87246C7.67657 4.26495 7.18408 3.77246 6.57657 3.77246C5.96906 3.77246 5.47656 4.26495 5.47656 4.87246C5.47656 5.47997 5.96906 5.97247 6.57657 5.97247Z" fill="#3A3A3A" stroke="#E62C2F" stroke-width="0.15" stroke-linecap="round" stroke-linejoin="round"/>
<path opacity="0.4" d="M6.57657 5.97247C7.18408 5.97247 7.67657 5.47997 7.67657 4.87246C7.67657 4.26495 7.18408 3.77246 6.57657 3.77246C5.96906 3.77246 5.47656 4.26495 5.47656 4.87246C5.47656 5.47997 5.96906 5.97247 6.57657 5.97247Z" stroke="#E62C2F" stroke-width="0.15" stroke-linecap="round" stroke-linejoin="round"/>
<path opacity="0.7" d="M6.57515 5.66203C7.01145 5.66203 7.36514 5.30833 7.36514 4.87202C7.36514 4.43572 7.01145 4.08203 6.57515 4.08203C6.13884 4.08203 5.78516 4.43572 5.78516 4.87202C5.78516 5.30833 6.13884 5.66203 6.57515 5.66203Z" fill="#3A3A3A" stroke="#E62C2F" stroke-width="0.15" stroke-linecap="round" stroke-linejoin="round"/>
<path opacity="0.8" d="M6.57515 5.66203C7.01145 5.66203 7.36514 5.30833 7.36514 4.87202C7.36514 4.43572 7.01145 4.08203 6.57515 4.08203C6.13884 4.08203 5.78516 4.43572 5.78516 4.87202C5.78516 5.30833 6.13884 5.66203 6.57515 5.66203Z" stroke="#E62C2F" stroke-width="0.15" stroke-linecap="round" stroke-linejoin="round"/>
</svg>
