<svg width="13" height="20" viewBox="0 0 13 20" fill="none" xmlns="http://www.w3.org/2000/svg">
<path opacity="0.4" d="M6.21329 6.24297C6.8208 6.24297 7.31329 5.75048 7.31329 5.14297C7.31329 4.53545 6.8208 4.04297 6.21329 4.04297C5.60577 4.04297 5.11328 4.53545 5.11328 5.14297C5.11328 5.75048 5.60577 6.24297 6.21329 6.24297Z" fill="#3A3A3A" stroke="#E62C2F" stroke-width="0.15" stroke-linecap="round" stroke-linejoin="round"/>
<path opacity="0.4" d="M6.21329 6.24297C6.8208 6.24297 7.31329 5.75048 7.31329 5.14297C7.31329 4.53545 6.8208 4.04297 6.21329 4.04297C5.60577 4.04297 5.11328 4.53545 5.11328 5.14297C5.11328 5.75048 5.60577 6.24297 6.21329 6.24297Z" stroke="#E62C2F" stroke-width="0.15" stroke-linecap="round" stroke-linejoin="round"/>
<path opacity="0.7" d="M6.21187 5.93254C6.64817 5.93254 7.00186 5.57884 7.00186 5.14254C7.00186 4.70624 6.64817 4.35254 6.21187 4.35254C5.77556 4.35254 5.42188 4.70624 5.42188 5.14254C5.42188 5.57884 5.77556 5.93254 6.21187 5.93254Z" fill="#3A3A3A" stroke="#E62C2F" stroke-width="0.15" stroke-linecap="round" stroke-linejoin="round"/>
<path opacity="0.8" d="M6.21187 5.93254C6.64817 5.93254 7.00186 5.57884 7.00186 5.14254C7.00186 4.70624 6.64817 4.35254 6.21187 4.35254C5.77556 4.35254 5.42188 4.70624 5.42188 5.14254C5.42188 5.57884 5.77556 5.93254 6.21187 5.93254Z" stroke="#E62C2F" stroke-width="0.15" stroke-linecap="round" stroke-linejoin="round"/>
</svg>
