<svg width="5" height="19" viewBox="0 0 5 19" fill="none" xmlns="http://www.w3.org/2000/svg">
<path opacity="0.4" d="M2.16359 5.29301C2.56676 5.29301 2.89359 4.96617 2.89359 4.563C2.89359 4.15984 2.56676 3.83301 2.16359 3.83301C1.76042 3.83301 1.43359 4.15984 1.43359 4.563C1.43359 4.96617 1.76042 5.29301 2.16359 5.29301Z" fill="#3A3A3A" stroke="#E62C2F" stroke-width="0.15" stroke-linecap="round" stroke-linejoin="round"/>
<path opacity="0.4" d="M2.16359 5.29301C2.56676 5.29301 2.89359 4.96617 2.89359 4.563C2.89359 4.15984 2.56676 3.83301 2.16359 3.83301C1.76042 3.83301 1.43359 4.15984 1.43359 4.563C1.43359 4.96617 1.76042 5.29301 2.16359 5.29301Z" stroke="#E62C2F" stroke-width="0.15" stroke-linecap="round" stroke-linejoin="round"/>
<path opacity="0.7" d="M2.16281 5.0932C2.45552 5.0932 2.69282 4.85591 2.69282 4.5632C2.69282 4.27049 2.45552 4.0332 2.16281 4.0332C1.8701 4.0332 1.63281 4.27049 1.63281 4.5632C1.63281 4.85591 1.8701 5.0932 2.16281 5.0932Z" fill="#3A3A3A" stroke="#E62C2F" stroke-width="0.15" stroke-linecap="round" stroke-linejoin="round"/>
<path opacity="0.8" d="M2.16281 5.0932C2.45552 5.0932 2.69282 4.85591 2.69282 4.5632C2.69282 4.27049 2.45552 4.0332 2.16281 4.0332C1.8701 4.0332 1.63281 4.27049 1.63281 4.5632C1.63281 4.85591 1.8701 5.0932 2.16281 5.0932Z" stroke="#E62C2F" stroke-width="0.15" stroke-linecap="round" stroke-linejoin="round"/>
</svg>
