<svg width="6" height="19" viewBox="0 0 6 19" fill="none" xmlns="http://www.w3.org/2000/svg">
<path opacity="0.4" d="M3.05421 5.29301C3.45738 5.29301 3.78422 4.96617 3.78422 4.563C3.78422 4.15984 3.45738 3.83301 3.05421 3.83301C2.65105 3.83301 2.32422 4.15984 2.32422 4.563C2.32422 4.96617 2.65105 5.29301 3.05421 5.29301Z" fill="#3A3A3A" stroke="#E62C2F" stroke-width="0.15" stroke-linecap="round" stroke-linejoin="round"/>
<path opacity="0.4" d="M3.05421 5.29301C3.45738 5.29301 3.78422 4.96617 3.78422 4.563C3.78422 4.15984 3.45738 3.83301 3.05421 3.83301C2.65105 3.83301 2.32422 4.15984 2.32422 4.563C2.32422 4.96617 2.65105 5.29301 3.05421 5.29301Z" stroke="#E62C2F" stroke-width="0.15" stroke-linecap="round" stroke-linejoin="round"/>
<path opacity="0.7" d="M3.05344 5.0932C3.34615 5.0932 3.58344 4.85591 3.58344 4.5632C3.58344 4.27049 3.34615 4.0332 3.05344 4.0332C2.76073 4.0332 2.52344 4.27049 2.52344 4.5632C2.52344 4.85591 2.76073 5.0932 3.05344 5.0932Z" fill="#3A3A3A" stroke="#E62C2F" stroke-width="0.15" stroke-linecap="round" stroke-linejoin="round"/>
<path opacity="0.8" d="M3.05344 5.0932C3.34615 5.0932 3.58344 4.85591 3.58344 4.5632C3.58344 4.27049 3.34615 4.0332 3.05344 4.0332C2.76073 4.0332 2.52344 4.27049 2.52344 4.5632C2.52344 4.85591 2.76073 5.0932 3.05344 5.0932Z" stroke="#E62C2F" stroke-width="0.15" stroke-linecap="round" stroke-linejoin="round"/>
</svg>
