<svg width="6" height="23" viewBox="0 0 6 23" fill="none" xmlns="http://www.w3.org/2000/svg">
<path opacity="0.4" d="M2.99562 6.30277C3.39879 6.30277 3.72562 5.97594 3.72562 5.57278C3.72562 5.16961 3.39879 4.84277 2.99562 4.84277C2.59246 4.84277 2.26562 5.16961 2.26562 5.57278C2.26562 5.97594 2.59246 6.30277 2.99562 6.30277Z" fill="#3A3A3A" stroke="#E62C2F" stroke-width="0.15" stroke-linecap="round" stroke-linejoin="round"/>
<path opacity="0.4" d="M2.99562 6.30277C3.39879 6.30277 3.72562 5.97594 3.72562 5.57278C3.72562 5.16961 3.39879 4.84277 2.99562 4.84277C2.59246 4.84277 2.26562 5.16961 2.26562 5.57278C2.26562 5.97594 2.59246 6.30277 2.99562 6.30277Z" stroke="#E62C2F" stroke-width="0.15" stroke-linecap="round" stroke-linejoin="round"/>
<path opacity="0.7" d="M2.99484 6.10297C3.28755 6.10297 3.52485 5.86568 3.52485 5.57297C3.52485 5.28026 3.28755 5.04297 2.99484 5.04297C2.70213 5.04297 2.46484 5.28026 2.46484 5.57297C2.46484 5.86568 2.70213 6.10297 2.99484 6.10297Z" fill="#3A3A3A" stroke="#E62C2F" stroke-width="0.15" stroke-linecap="round" stroke-linejoin="round"/>
<path opacity="0.8" d="M2.99484 6.10297C3.28755 6.10297 3.52485 5.86568 3.52485 5.57297C3.52485 5.28026 3.28755 5.04297 2.99484 5.04297C2.70213 5.04297 2.46484 5.28026 2.46484 5.57297C2.46484 5.86568 2.70213 6.10297 2.99484 6.10297Z" stroke="#E62C2F" stroke-width="0.15" stroke-linecap="round" stroke-linejoin="round"/>
</svg>
