<svg width="12" height="19" viewBox="0 0 12 19" fill="none" xmlns="http://www.w3.org/2000/svg">
<path opacity="0.4" d="M5.22515 5.81261C5.7443 5.81261 6.16516 5.39176 6.16516 4.87261C6.16516 4.35346 5.7443 3.93262 5.22515 3.93262C4.70601 3.93262 4.28516 4.35346 4.28516 4.87261C4.28516 5.39176 4.70601 5.81261 5.22515 5.81261Z" fill="#3A3A3A" stroke="#E62C2F" stroke-width="0.15" stroke-linecap="round" stroke-linejoin="round"/>
<path opacity="0.4" d="M5.22515 5.81261C5.7443 5.81261 6.16516 5.39176 6.16516 4.87261C6.16516 4.35346 5.7443 3.93262 5.22515 3.93262C4.70601 3.93262 4.28516 4.35346 4.28516 4.87261C4.28516 5.39176 4.70601 5.81261 5.22515 5.81261Z" stroke="#E62C2F" stroke-width="0.15" stroke-linecap="round" stroke-linejoin="round"/>
<path opacity="0.7" d="M5.22687 5.55238C5.60243 5.55238 5.90687 5.24794 5.90687 4.87238C5.90687 4.49683 5.60243 4.19238 5.22687 4.19238C4.85132 4.19238 4.54688 4.49683 4.54688 4.87238C4.54688 5.24794 4.85132 5.55238 5.22687 5.55238Z" fill="#3A3A3A" stroke="#E62C2F" stroke-width="0.15" stroke-linecap="round" stroke-linejoin="round"/>
<path opacity="0.8" d="M5.22687 5.55238C5.60243 5.55238 5.90687 5.24794 5.90687 4.87238C5.90687 4.49683 5.60243 4.19238 5.22687 4.19238C4.85132 4.19238 4.54688 4.49683 4.54688 4.87238C4.54688 5.24794 4.85132 5.55238 5.22687 5.55238Z" stroke="#E62C2F" stroke-width="0.15" stroke-linecap="round" stroke-linejoin="round"/>
</svg>
