<svg width="13" height="20" viewBox="0 0 13 20" fill="none" xmlns="http://www.w3.org/2000/svg">
<path opacity="0.4" d="M6.55328 6.25305C7.07243 6.25305 7.49328 5.8322 7.49328 5.31305C7.49328 4.7939 7.07243 4.37305 6.55328 4.37305C6.03413 4.37305 5.61328 4.7939 5.61328 5.31305C5.61328 5.8322 6.03413 6.25305 6.55328 6.25305Z" fill="#3A3A3A" stroke="#E62C2F" stroke-width="0.15" stroke-linecap="round" stroke-linejoin="round"/>
<path opacity="0.4" d="M6.55328 6.25305C7.07243 6.25305 7.49328 5.8322 7.49328 5.31305C7.49328 4.7939 7.07243 4.37305 6.55328 4.37305C6.03413 4.37305 5.61328 4.7939 5.61328 5.31305C5.61328 5.8322 6.03413 6.25305 6.55328 6.25305Z" stroke="#E62C2F" stroke-width="0.15" stroke-linecap="round" stroke-linejoin="round"/>
<path opacity="0.7" d="M6.555 5.99281C6.93055 5.99281 7.235 5.68837 7.235 5.31281C7.235 4.93726 6.93055 4.63281 6.555 4.63281C6.17945 4.63281 5.875 4.93726 5.875 5.31281C5.875 5.68837 6.17945 5.99281 6.555 5.99281Z" fill="#3A3A3A" stroke="#E62C2F" stroke-width="0.15" stroke-linecap="round" stroke-linejoin="round"/>
<path opacity="0.8" d="M6.555 5.99281C6.93055 5.99281 7.235 5.68837 7.235 5.31281C7.235 4.93726 6.93055 4.63281 6.555 4.63281C6.17945 4.63281 5.875 4.93726 5.875 5.31281C5.875 5.68837 6.17945 5.99281 6.555 5.99281Z" stroke="#E62C2F" stroke-width="0.15" stroke-linecap="round" stroke-linejoin="round"/>
</svg>
