<svg width="10" height="28" viewBox="0 0 10 28" fill="none" xmlns="http://www.w3.org/2000/svg">
<mask id="mask0_254_19794" style="mask-type:luminance" maskUnits="userSpaceOnUse" x="0" y="0" width="10" height="21">
<path d="M9.3858 20.3269C9.1358 17.7769 8.56578 15.1769 8.32578 12.5969C8.08578 10.0169 7.11579 7.9369 6.55579 4.0169C5.99579 0.106899 4.63579 -0.0731004 3.80579 1.9469C2.97579 3.9669 1.76579 9.4169 2.02579 12.4169C2.29579 15.4169 1.44578 18.8969 0.925781 20.3269H9.37579H9.3858Z" fill="white"/>
</mask>
<g mask="url(#mask0_254_19794)">
<path opacity="0.85" d="M-1.14453 19.9665H10.6855C10.6455 18.0865 10.5955 12.2065 10.5555 10.3165C9.67545 9.87652 8.33546 9.39652 6.75546 9.52652C5.26546 9.65652 4.65544 10.2465 3.23544 10.4265C2.23544 10.5565 0.765469 10.4865 -1.14453 9.52652V19.9565V19.9665Z" fill="#C7B39A"/>
</g>
</svg>
