<svg width="11" height="28" viewBox="0 0 11 28" fill="none" xmlns="http://www.w3.org/2000/svg">
<mask id="mask0_254_19753" style="mask-type:luminance" maskUnits="userSpaceOnUse" x="6" y="0" width="4" height="19">
<path d="M6.51958 5.13124C6.3309 2.32046 6.14947 0.18971 6.62947 0.191643C8.30945 0.198408 9.2648 6.32231 9.3219 7.04254C9.42614 8.47297 9.43875 10.313 9.47367 11.5732C9.58809 15.4437 9.83719 18.1547 9.83719 18.1547C8.5096 15.0693 7.97997 12.4872 7.74714 10.7062C7.64032 9.91579 7.16947 7.64388 6.51962 5.12124L6.51958 5.13124Z" fill="white"/>
</mask>
<g mask="url(#mask0_254_19753)">
<path opacity="0.85" d="M-0.865622 18.8213L10.9643 18.8689C10.9603 17.3789 10.9624 11.8989 10.9584 10.4088C9.61095 9.7634 8.18235 9.40764 6.6916 9.59164C5.34088 9.7662 4.78883 10.274 3.43812 10.4485C2.18748 10.6035 0.768272 10.4078 -0.828655 9.64136L-0.865622 18.8213Z" fill="#C7B39A"/>
</g>
<mask id="mask1_254_19753" style="mask-type:luminance" maskUnits="userSpaceOnUse" x="1" y="0" width="9" height="19">
<path d="M9.83795 18.1644L1.24843 18.0198C1.24843 18.0198 3.27048 10.0679 3.45371 1.81853C3.45528 1.42853 3.78031 0.179828 4.37031 0.182204C5.0703 0.185023 5.41618 1.20642 5.54449 1.62694C6.65994 5.24146 7.59253 9.56526 7.7479 10.7159C7.98073 12.4968 8.51036 15.079 9.83795 18.1644Z" fill="white"/>
</mask>
<g mask="url(#mask1_254_19753)">
<path opacity="0.85" d="M-0.865622 18.8213L10.9643 18.8689C10.9603 17.3789 10.9624 11.8989 10.9584 10.4088C9.61095 9.7634 8.18235 9.40764 6.6916 9.59164C5.34088 9.7662 4.78883 10.274 3.43812 10.4485C2.18748 10.6035 0.768272 10.4078 -0.828655 9.64136L-0.865622 18.8213Z" fill="#C7B39A"/>
</g>
</svg>
