<svg width="13" height="28" viewBox="0 0 13 28" fill="none" xmlns="http://www.w3.org/2000/svg">
<mask id="mask0_254_19722" style="mask-type:luminance" maskUnits="userSpaceOnUse" x="4" y="0" width="5" height="13">
<path d="M8.51578 2.40642C8.28578 0.126424 6.88578 0.716424 6.78578 2.62642C6.68578 4.53642 5.82578 8.31642 4.67578 12.0664L8.69577 12.5564C9.05577 11.1764 8.75578 4.68642 8.51578 2.40642Z" fill="white"/>
</mask>
<g mask="url(#mask0_254_19722)">
<path opacity="0.85" d="M1.42407 18.6964H13.2541C13.2241 17.1564 13.1941 10.6164 13.1541 9.07642C11.6741 8.53642 10.4441 8.45642 9.51407 8.52642C7.49407 8.66642 6.64407 9.50642 4.78407 9.49642C3.41407 9.48642 2.27406 9.01642 1.41406 8.52642V18.7064L1.42407 18.6964Z" fill="#C7B39A"/>
</g>
<mask id="mask1_254_19722" style="mask-type:luminance" maskUnits="userSpaceOnUse" x="1" y="1" width="12" height="18">
<path d="M1.65625 18.1869C2.72625 15.8369 3.22625 16.0269 2.73625 13.7769C2.24625 11.5269 1.29625 9.0169 2.78625 5.2469C4.27625 1.4769 6.55625 -0.273095 6.13625 2.3969C5.71625 5.0669 5.05625 7.9069 5.78625 9.9369C6.51625 11.9669 8.17625 12.4469 8.70625 10.1169C9.23625 7.78691 9.26625 6.0869 9.29625 4.5769C9.32625 3.0769 9.56625 -0.00309598 10.7462 1.9969C11.9162 3.9969 12.7562 7.1569 12.3362 11.2369C12.3362 11.2369 11.3762 16.4069 12.2562 18.1969H1.65625V18.1869Z" fill="white"/>
</mask>
<g mask="url(#mask1_254_19722)">
<path opacity="0.85" d="M1.42798 18.6964H13.258C13.228 17.1564 13.198 10.6164 13.158 9.07642C11.678 8.53642 10.448 8.45642 9.51797 8.52642C7.49797 8.66642 6.64798 9.50642 4.78798 9.49642C3.41798 9.48642 2.27797 9.01642 1.41797 8.52642V18.7064L1.42798 18.6964Z" fill="#C7B39A"/>
</g>
</svg>
