<svg width="13" height="25" viewBox="0 0 13 25" fill="none" xmlns="http://www.w3.org/2000/svg">
<mask id="mask0_254_19705" style="mask-type:luminance" maskUnits="userSpaceOnUse" x="4" y="1" width="5" height="11">
<path d="M8.69577 2.37691C8.60577 0.376908 7.30577 0.796909 7.11577 2.46691C6.91577 4.12691 5.93578 7.37691 4.67578 10.5869L8.29578 11.2669C8.69578 10.0869 8.77577 4.38691 8.69577 2.37691Z" fill="white"/>
</mask>
<g mask="url(#mask0_254_19705)">
<path opacity="0.85" d="M1.05469 16.9373H12.8847V7.75727C12.2547 7.59727 11.2347 7.39727 9.9847 7.44727C7.7847 7.53727 6.86469 8.31727 4.91469 8.42727C4.04469 8.47727 2.71469 8.41727 1.05469 7.74727V16.9273V16.9373Z" fill="#C7B39A"/>
</g>
<mask id="mask1_254_19705" style="mask-type:luminance" maskUnits="userSpaceOnUse" x="1" y="0" width="12" height="17">
<path d="M12.3045 9.18625C11.9645 7.18625 12.0845 4.31625 11.1045 1.64625C10.1245 -1.02375 9.35454 0.826252 9.60454 2.05625C9.85454 3.29625 9.35454 5.70625 8.68454 7.07625C8.01454 8.44625 7.22453 11.1863 5.80453 10.0863C4.38453 8.98625 5.17453 5.29625 5.97453 2.53625C6.77453 -0.223748 5.17453 0.466252 4.58453 1.71625C4.00453 2.96625 1.83454 6.18625 1.87454 9.67625C1.91454 13.1663 2.19453 14.4263 1.14453 16.3063L12.2945 16.4663C12.6445 13.6063 12.6545 11.1963 12.3045 9.19625V9.18625Z" fill="white"/>
</mask>
<g mask="url(#mask1_254_19705)">
<path opacity="0.85" d="M1.05469 16.9363H12.8847V7.75629C12.2547 7.59629 11.2347 7.3963 9.9847 7.4463C7.7847 7.5363 6.86469 8.31629 4.91469 8.42629C4.04469 8.47629 2.71469 8.41629 1.05469 7.74629V16.9263V16.9363Z" fill="#C7B39A"/>
</g>
</svg>
