<svg width="10" height="32" viewBox="0 0 10 32" fill="none" xmlns="http://www.w3.org/2000/svg">
<mask id="mask0_254_19514" style="mask-type:luminance" maskUnits="userSpaceOnUse" x="1" y="0" width="8" height="22">
<path d="M2.71313 8.85658C3.48313 6.50658 4.50313 4.56657 4.80313 2.14657C5.10313 -0.273426 6.10315 -0.233425 6.63315 1.09657C7.16315 2.42657 7.68314 8.30657 7.84314 12.1266C8.00314 15.9466 7.72313 19.5466 8.39313 21.8566H1.70312C2.61313 18.5766 1.93313 11.2066 2.71313 8.85658Z" fill="white"/>
</mask>
<g mask="url(#mask0_254_19514)">
<path opacity="0.85" d="M11.0214 21.8565H-0.808594C-0.718594 20.3465 -0.638615 13.8465 -0.548615 12.3365C0.521386 11.8865 2.03139 11.4565 3.77139 11.6765C4.90139 11.8165 5.38139 12.1465 6.52139 12.3065C7.59139 12.4565 9.10139 12.4265 11.0214 11.6765V21.8565Z" fill="#C7B39A"/>
</g>
</svg>
