<svg width="10" height="27" viewBox="0 0 10 27" fill="none" xmlns="http://www.w3.org/2000/svg">
<mask id="mask0_254_19479" style="mask-type:luminance" maskUnits="userSpaceOnUse" x="0" y="0" width="9" height="19">
<path d="M0.925781 18.1463C0.925781 16.0163 1.49579 12.0863 1.90579 9.45627C2.31579 6.82627 3.86578 6.09627 3.57578 3.41627C3.28578 0.72627 4.5058 0.19627 5.5658 2.17627C6.6258 4.15627 7.27579 6.79627 6.99579 9.72627C6.71579 12.6563 7.3058 14.3763 8.9458 18.1563H0.935791L0.925781 18.1463Z" fill="white"/>
</mask>
<g mask="url(#mask0_254_19479)">
<path opacity="0.85" d="M10.4672 18.6761H-1.36279C-1.36279 17.1461 -1.37281 11.6161 -1.38281 10.0861C-0.282812 9.66605 1.18721 9.29605 2.85721 9.49605C4.29721 9.66605 4.88718 10.1261 6.20718 10.1861C7.26718 10.2361 8.68721 10.0261 10.4172 8.95605C10.4372 10.8661 10.4472 16.7661 10.4672 18.6761Z" fill="#C7B39A"/>
</g>
</svg>
