<svg width="13" height="25" viewBox="0 0 13 25" fill="none" xmlns="http://www.w3.org/2000/svg">
<mask id="mask0_254_19442" style="mask-type:luminance" maskUnits="userSpaceOnUse" x="4" y="1" width="5" height="11">
<path d="M4.36382 2.37691C4.45382 0.376908 5.75383 0.796909 5.94383 2.46691C6.14383 4.12691 7.12384 7.37691 8.38384 10.5869L4.76381 11.2669C4.36381 10.0869 4.28382 4.38691 4.36382 2.37691Z" fill="white"/>
</mask>
<g mask="url(#mask0_254_19442)">
<path opacity="0.85" d="M11.994 16.9373H0.164062V7.75727C0.794062 7.59727 1.81406 7.39727 3.06406 7.44727C5.26406 7.53727 6.18406 8.31727 8.13406 8.42727C9.00406 8.47727 10.334 8.41727 11.994 7.74727V16.9273V16.9373Z" fill="#C7B39A"/>
</g>
<mask id="mask1_254_19442" style="mask-type:luminance" maskUnits="userSpaceOnUse" x="0" y="0" width="12" height="17">
<path d="M0.753657 9.18625C1.09366 7.18625 0.973639 4.31625 1.95364 1.64625C2.93364 -1.02375 3.70364 0.826252 3.45364 2.05625C3.20364 3.29625 3.70365 5.70625 4.37365 7.07625C5.04365 8.44625 5.83366 11.1863 7.25366 10.0863C8.67366 8.98625 7.88364 5.29625 7.08364 2.53625C6.28364 -0.223748 7.88366 0.466252 8.47366 1.71625C9.05366 2.96625 11.2237 6.18625 11.1837 9.67625C11.1437 13.1663 10.8637 14.4263 11.9137 16.3063L0.763637 16.4663C0.413637 13.6063 0.403657 11.1963 0.753657 9.19625V9.18625Z" fill="white"/>
</mask>
<g mask="url(#mask1_254_19442)">
<path opacity="0.85" d="M11.994 16.9363H0.164062V7.75629C0.794062 7.59629 1.81406 7.3963 3.06406 7.4463C5.26406 7.5363 6.18406 8.31629 8.13406 8.42629C9.00406 8.47629 10.334 8.41629 11.994 7.74629V16.9263V16.9363Z" fill="#C7B39A"/>
</g>
</svg>
