<svg width="11" height="24" viewBox="0 0 11 24" fill="none" xmlns="http://www.w3.org/2000/svg">
<mask id="mask0_254_19425" style="mask-type:luminance" maskUnits="userSpaceOnUse" x="3" y="1" width="5" height="11">
<path d="M4.5939 2.31667C5.0139 0.35667 6.22389 0.986669 6.14389 2.65667C6.06389 4.32667 6.5039 7.69667 7.2139 11.0667L3.53391 11.1367C3.33391 9.90667 4.18391 4.26667 4.60391 2.30667L4.5939 2.31667Z" fill="white"/>
</mask>
<g mask="url(#mask0_254_19425)">
<path opacity="0.85" d="M11.2753 16.9271H-0.554688C-0.514688 15.3771 -0.484702 9.81713 -0.444702 8.26713C0.705298 7.76713 1.9653 7.46713 3.3053 7.52713C4.9953 7.60713 5.73529 8.20713 7.48529 8.32713C8.62529 8.40713 9.89531 8.25713 11.2853 7.74713V16.9271H11.2753Z" fill="#C7B39A"/>
</g>
<mask id="mask1_254_19425" style="mask-type:luminance" maskUnits="userSpaceOnUse" x="0" y="0" width="11" height="17">
<path d="M0.734375 16.5565C1.36437 12.9765 0.794396 8.04653 1.2244 6.20653C1.6544 4.36653 2.23439 1.23653 3.40439 0.876527C4.56439 0.516527 4.2444 3.57653 3.6644 6.11653C3.0744 8.65653 3.69439 10.5165 5.78439 10.8565C7.86439 11.1965 6.30437 5.88653 6.54437 2.74653C6.78437 -0.393473 8.54439 0.426527 8.37439 2.40653C8.19439 4.38653 10.1844 8.70653 10.0844 9.84653C9.98438 10.9965 9.38437 13.8065 10.2644 16.5465H0.754395L0.734375 16.5565Z" fill="white"/>
</mask>
<g mask="url(#mask1_254_19425)">
<path opacity="0.85" d="M11.2753 16.9261H-0.554688C-0.514688 15.3761 -0.484702 9.81615 -0.444702 8.26615C0.705298 7.76615 1.9653 7.46615 3.3053 7.52615C4.9953 7.60615 5.73529 8.20615 7.48529 8.32615C8.62529 8.40615 9.89531 8.25615 11.2853 7.74615V16.9261H11.2753Z" fill="#C7B39A"/>
</g>
</svg>
