<svg width="8" height="24" viewBox="0 0 8 24" fill="none" xmlns="http://www.w3.org/2000/svg">
<mask id="mask0_254_19680" style="mask-type:luminance" maskUnits="userSpaceOnUse" x="0" y="8" width="8" height="16">
<path d="M7.31546 8.61691C7.02546 10.0869 5.98544 15.2269 5.20544 20.2069C4.83544 22.5869 4.05545 24.5769 3.33545 22.0669C2.61545 19.5569 2.16546 16.0969 1.93546 13.4469C1.70546 10.7969 0.965469 9.27691 0.855469 8.58691L7.31546 8.61691Z" fill="white"/>
</mask>
<g mask="url(#mask0_254_19680)">
<path opacity="0.7" d="M10.2973 15.2167C9.14733 14.8767 7.46735 14.5667 5.56735 14.9567C4.54735 15.1667 4.16734 15.4367 3.30734 15.5767C2.12734 15.7767 0.407341 15.6867 -1.91266 14.3267C-1.93266 12.3367 -1.95266 8.33668 -1.97266 6.34668H10.2973V15.2067V15.2167Z" fill="#C7B39A"/>
</g>
</svg>
