<svg width="9" height="25" viewBox="0 0 9 25" fill="none" xmlns="http://www.w3.org/2000/svg">
<mask id="mask0_254_19597" style="mask-type:luminance" maskUnits="userSpaceOnUse" x="0" y="8" width="8" height="17">
<path d="M7.93579 8.06641C7.74579 9.85641 6.0858 14.7064 5.5058 21.3064C5.2658 23.9964 4.21579 26.2164 3.40579 23.3964C2.59579 20.5764 2.08578 16.6964 1.83578 13.7164C1.58578 10.7364 0.685781 8.97641 0.425781 8.06641H7.93579Z" fill="white"/>
</mask>
<g mask="url(#mask0_254_19597)">
<path opacity="0.85" d="M10.5039 15.6364C9.20391 15.3664 7.58388 15.2164 5.79388 15.5364C4.58388 15.7564 4.0939 16.0364 3.0239 16.1764C1.7939 16.3264 0.203906 16.2264 -1.74609 15.3664C-1.74609 13.2664 -1.74609 9.16641 -1.74609 7.06641H10.5239C10.5239 9.25641 10.5139 13.4464 10.5039 15.6364Z" fill="#C7B39A"/>
</g>
</svg>
