<svg width="9" height="31" viewBox="0 0 9 31" fill="none" xmlns="http://www.w3.org/2000/svg">
<mask id="mask0_254_19586" style="mask-type:luminance" maskUnits="userSpaceOnUse" x="0" y="7" width="9" height="24">
<path d="M0.66626 7.72656L8.13626 7.78656C7.33626 9.78656 7.26626 14.6266 7.22626 18.6566C7.19626 22.5166 6.37625 24.9466 5.34625 28.0366C4.31625 31.1266 3.13625 30.3066 3.12625 27.7266C3.10625 25.1466 2.40624 23.0366 1.45624 19.5166C1.02624 17.9266 0.956248 16.5966 0.966248 13.5366C0.966248 10.3766 0.78625 8.47656 0.65625 7.72656H0.66626Z" fill="white"/>
</mask>
<g mask="url(#mask0_254_19586)">
<path opacity="0.85" d="M10.7271 17.6063C8.78705 17.1963 7.22705 17.1863 6.13705 17.2663C4.61705 17.3763 3.88703 17.6563 2.26703 17.7063C0.657029 17.7563 -0.662959 17.5463 -1.53296 17.3563C-1.53296 14.8063 -1.53297 9.24629 -1.54297 6.69629H10.7271V17.6063Z" fill="#C7B39A"/>
</g>
</svg>
