<svg width="12" height="21" viewBox="0 0 12 21" fill="none" xmlns="http://www.w3.org/2000/svg">
<mask id="mask0_254_19548" style="mask-type:luminance" maskUnits="userSpaceOnUse" x="1" y="6" width="11" height="15">
<path d="M1.35547 6.08691H10.6955C10.0155 7.20691 10.9154 8.46691 11.0754 9.85691C11.2354 11.2469 11.8655 10.7469 11.7455 13.8969C11.6255 17.0369 11.1155 17.8469 10.6655 19.0969C10.2155 20.3569 9.07546 21.1469 8.78546 19.3469C8.49546 17.5469 9.31545 13.6169 8.58545 12.1669C7.85545 10.7169 7.19544 10.2369 6.82544 11.2469C6.45544 12.2569 5.76546 12.7769 5.93546 14.0869C6.10546 15.3969 7.19544 17.6669 7.45544 18.9269C7.71544 20.1869 7.38544 21.1169 5.54544 19.1369C3.70544 17.1569 2.31544 15.8569 2.54544 13.3269C2.77544 10.7969 2.49544 9.79691 2.23544 8.74691C1.97544 7.69691 1.63547 7.02691 1.35547 6.09691V6.08691Z" fill="white"/>
</mask>
<g mask="url(#mask0_254_19548)">
<path opacity="0.85" d="M12.3547 13.6868C11.5947 13.3868 10.4447 13.0468 9.05469 13.0968C7.12469 13.1668 6.3247 13.9368 4.5947 14.0168C3.6447 14.0668 2.26469 13.9068 0.554688 12.9268C0.554688 11.3668 0.554688 6.81684 0.554688 5.25684H12.3847C12.3747 7.06684 12.3647 11.8768 12.3547 13.6968V13.6868Z" fill="#C7B39A"/>
</g>
</svg>
