<svg width="8" height="24" viewBox="0 0 8 24" fill="none" xmlns="http://www.w3.org/2000/svg">
<mask id="mask0_254_19672" style="mask-type:luminance" maskUnits="userSpaceOnUse" x="0" y="8" width="8" height="16">
<path d="M0.796875 8.61691C1.08687 10.0869 2.12689 15.2269 2.90689 20.2069C3.27689 22.5869 4.05689 24.5769 4.77689 22.0669C5.49689 19.5569 5.94688 16.0969 6.17688 13.4469C6.40688 10.7969 7.1469 9.27691 7.2569 8.58691L0.796875 8.61691Z" fill="white"/>
</mask>
<g mask="url(#mask0_254_19672)">
<path opacity="0.7" d="M-2.17188 15.2167C-1.02188 14.8767 0.658136 14.5667 2.55814 14.9567C3.57814 15.1667 3.95815 15.4367 4.81815 15.5767C5.99815 15.7767 7.71815 15.6867 10.0381 14.3267C10.0581 12.3367 10.0781 8.33668 10.0981 6.34668H-2.17188V15.2067V15.2167Z" fill="#C7B39A"/>
</g>
</svg>
