<svg width="9" height="25" viewBox="0 0 9 25" fill="none" xmlns="http://www.w3.org/2000/svg">
<mask id="mask0_254_19664" style="mask-type:luminance" maskUnits="userSpaceOnUse" x="1" y="8" width="8" height="17">
<path d="M1.1875 8.08691C1.3775 9.87691 3.03749 14.7269 3.61749 21.3269C3.85749 24.0169 4.9075 26.2369 5.7175 23.4169C6.5275 20.5969 7.03751 16.7169 7.28751 13.7369C7.53751 10.7569 8.43751 8.99691 8.69751 8.08691H1.1875Z" fill="white"/>
</mask>
<g mask="url(#mask0_254_19664)">
<path opacity="0.85" d="M-1.38235 15.6667C-0.0823548 15.3967 1.53764 15.2467 3.32764 15.5667C4.53764 15.7867 5.02766 16.0667 6.09766 16.2067C7.32766 16.3567 8.91765 16.2567 10.8676 15.3967C10.8676 13.2967 10.8676 9.19668 10.8676 7.09668H-1.40234C-1.40234 9.28668 -1.39235 13.4767 -1.38235 15.6667Z" fill="#C7B39A"/>
</g>
</svg>
