<svg width="9" height="31" viewBox="0 0 9 31" fill="none" xmlns="http://www.w3.org/2000/svg">
<mask id="mask0_254_19653" style="mask-type:luminance" maskUnits="userSpaceOnUse" x="0" y="7" width="9" height="24">
<path d="M8.45438 7.74707L0.984375 7.80707C1.78438 9.80707 1.85438 14.6471 1.89438 18.6771C1.92438 22.5371 2.74438 24.9671 3.77438 28.0571C4.80438 31.1471 5.98438 30.3271 5.99438 27.7471C6.01438 25.1671 6.7144 23.0571 7.6644 19.5371C8.0944 17.9471 8.16439 16.6171 8.15439 13.5571C8.14439 10.4971 8.33439 8.49707 8.46439 7.74707H8.45438Z" fill="white"/>
</mask>
<g mask="url(#mask0_254_19653)">
<path opacity="0.85" d="M-1.59375 17.6375C0.34625 17.2275 1.90625 17.2175 2.99625 17.2975C4.51625 17.4075 5.24624 17.6875 6.86624 17.7375C8.47624 17.7875 9.79626 17.5775 10.6663 17.3875C10.6663 14.8375 10.6662 9.27754 10.6762 6.72754H-1.59375V17.6375Z" fill="#C7B39A"/>
</g>
</svg>
