<svg width="9" height="25" viewBox="0 0 9 25" fill="none" xmlns="http://www.w3.org/2000/svg">
<mask id="mask0_254_19642" style="mask-type:luminance" maskUnits="userSpaceOnUse" x="0" y="7" width="9" height="18">
<path d="M0.814697 7.88696C1.3647 10.577 1.8047 12.597 2.3447 14.627C2.8047 16.377 3.4447 18.047 3.2247 21.217C3.0347 24.017 3.40469 26.347 4.80469 23.647C6.20469 20.947 6.86468 16.627 6.95468 13.517C7.04468 10.417 7.79469 8.81695 8.05469 7.87695H0.804688L0.814697 7.88696Z" fill="white"/>
</mask>
<g mask="url(#mask0_254_19642)">
<path opacity="0.85" d="M-1.47656 16.4471C-0.436563 16.1471 1.12345 15.8371 2.97345 16.0471C4.22345 16.1871 4.74345 16.4771 5.85345 16.5871C6.99345 16.6971 8.64345 16.6171 10.7534 15.6771C10.7834 13.5371 10.8034 8.38707 10.8334 6.24707H-1.43655C-1.44655 8.64707 -1.46656 14.0471 -1.47656 16.4571V16.4471Z" fill="#C7B39A"/>
</g>
</svg>
