<svg width="11" height="24" viewBox="0 0 11 24" fill="none" xmlns="http://www.w3.org/2000/svg">
<mask id="mask0_254_19631" style="mask-type:luminance" maskUnits="userSpaceOnUse" x="0" y="8" width="10" height="16">
<path d="M0.964844 8.08691C1.51484 10.7669 1.93484 13.0469 2.30484 15.1169C2.62484 16.8969 3.92484 19.4469 3.44484 20.9069C2.58484 23.5769 2.87484 24.9169 5.02484 22.7669C7.09484 20.6869 7.26484 17.0269 7.35484 13.9269C7.44484 10.8269 8.32485 9.50691 9.06485 8.08691H0.964844Z" fill="white"/>
</mask>
<g mask="url(#mask0_254_19631)">
<path opacity="0.85" d="M-0.674377 15.4766C0.245623 15.1866 1.61563 14.8766 3.23563 15.0166C4.46563 15.1166 5.09562 15.4166 6.08562 15.6166C7.32562 15.8666 9.13563 15.9466 11.5356 15.1666V6.30664H-0.734375C-0.714375 8.69664 -0.684383 13.0866 -0.664383 15.4766H-0.674377Z" fill="#C7B39A"/>
</g>
</svg>
