<svg width="14" height="24" viewBox="0 0 14 24" fill="none" xmlns="http://www.w3.org/2000/svg">
<mask id="mask0_254_19623" style="mask-type:luminance" maskUnits="userSpaceOnUse" x="1" y="8" width="12" height="16">
<path d="M12.6062 8.14648L1.15625 8.44648C1.67625 9.85648 1.69625 10.4765 1.81625 11.7565C1.93625 13.0365 1.98625 15.6865 1.78625 17.0365C1.58625 18.3765 1.06625 22.5265 1.73625 23.1165C2.40625 23.7165 3.30625 22.5065 3.88625 20.9965C4.46625 19.4865 5.16624 17.9265 5.44624 15.5065C5.72624 13.0865 6.34624 13.0465 6.83624 13.6465C7.32624 14.2465 7.78625 17.6965 7.99625 18.9965C8.20625 20.2965 6.92625 23.7665 8.20625 23.4865C9.48625 23.2065 10.6962 20.8265 11.3062 19.4865C11.9162 18.1465 12.8063 16.1665 12.5663 14.0465C12.3363 11.9265 12.1963 9.19649 12.5963 8.15649L12.6062 8.14648Z" fill="white"/>
</mask>
<g mask="url(#mask0_254_19623)">
<path opacity="0.85" d="M0.625 16.4666C2.095 15.8266 3.30499 15.6766 4.11499 15.6466C6.37499 15.5666 7.475 16.3866 9.995 16.3366C11.255 16.3166 12.265 16.0866 12.895 15.9166V6.05664H0.625C0.625 8.52664 0.625 13.9966 0.625 16.4666Z" fill="#C7B39A"/>
</g>
</svg>
