<svg width="12" height="23" viewBox="0 0 12 23" fill="none" xmlns="http://www.w3.org/2000/svg">
<mask id="mask0_254_19605" style="mask-type:luminance" maskUnits="userSpaceOnUse" x="0" y="6" width="12" height="17">
<path d="M4.47546 6.90648H0.355469C0.705469 7.63648 1.48546 10.1265 1.47546 11.2065C1.47546 12.2865 0.615473 13.9165 0.875473 15.5265C1.13547 17.1365 1.95547 21.6665 2.79547 22.4065C3.62547 23.1565 4.27547 20.6365 4.27547 18.0865C4.27547 15.5365 5.53547 12.6665 6.12547 12.6665C7.12547 12.6665 7.43547 16.2065 7.23547 16.9065C7.03547 17.6065 6.22547 23.1565 7.34547 22.7865C8.46547 22.4265 10.1755 19.6465 10.2755 17.6865C10.3655 15.7265 10.2655 13.2065 10.3955 12.2265C10.5255 11.2465 11.2255 8.25648 11.6255 6.89648H4.47546V6.90648Z" fill="white"/>
</mask>
<g mask="url(#mask0_254_19605)">
<path opacity="0.85" d="M0.184067 15.5764C0.864067 15.2764 1.94407 14.8864 3.29407 14.8164C5.17407 14.7164 6.14406 15.2964 8.27406 15.5564C9.23406 15.6764 10.6641 15.7464 12.4641 15.4864C12.4641 13.0964 12.4641 7.70641 12.4641 5.31641H0.194061C0.194061 7.73641 0.174062 13.1664 0.164062 15.5864L0.184067 15.5764Z" fill="#C7B39A"/>
</g>
</svg>
