<svg width="12" height="21" viewBox="0 0 12 21" fill="none" xmlns="http://www.w3.org/2000/svg">
<mask id="mask0_254_19615" style="mask-type:luminance" maskUnits="userSpaceOnUse" x="0" y="6" width="11" height="15">
<path d="M10.7762 6.10645H1.43619C2.11619 7.22645 1.21619 8.48644 1.05619 9.87644C0.896187 11.2664 0.266189 10.7664 0.386189 13.9164C0.506189 17.0564 1.01619 17.8664 1.46619 19.1164C1.91619 20.3764 3.0562 21.1664 3.3462 19.3664C3.6362 17.5664 2.81619 13.6364 3.54619 12.1864C4.27619 10.7364 4.93619 10.2564 5.30619 11.2664C5.67619 12.2764 6.36619 12.7964 6.19619 14.1064C6.02619 15.4164 4.9362 17.6864 4.6762 18.9464C4.4162 20.2064 4.74619 21.1364 6.58619 19.1564C8.42619 17.1764 9.81619 15.8764 9.58619 13.3464C9.35619 10.8164 9.63618 9.81644 9.89618 8.76644C10.1562 7.71644 10.4962 7.04644 10.7762 6.11644V6.10645Z" fill="white"/>
</mask>
<g mask="url(#mask0_254_19615)">
<path opacity="0.85" d="M-0.235626 13.7064C0.524374 13.4064 1.67438 13.0664 3.06438 13.1164C4.99438 13.1864 5.79437 13.9564 7.52437 14.0364C8.47437 14.0864 9.85438 13.9264 11.5644 12.9464C11.5644 11.3864 11.5644 6.83637 11.5644 5.27637H-0.265625C-0.255625 7.08637 -0.245626 11.8964 -0.235626 13.7164V13.7064Z" fill="#C7B39A"/>
</g>
</svg>
