<svg width="7" height="22" viewBox="0 0 7 22" fill="none" xmlns="http://www.w3.org/2000/svg">
<mask id="mask0_254_19993" style="mask-type:luminance" maskUnits="userSpaceOnUse" x="1" y="0" width="5" height="15">
<path d="M1.01953 14.7863C1.81953 11.4163 2.18953 7.46628 2.37953 2.11628C2.39953 1.55628 2.68953 1.02628 3.19953 0.786275C3.57953 0.606275 3.88953 0.666276 4.12953 0.976276C4.29953 1.19628 4.36953 1.48628 4.35953 1.77628C4.11953 6.58628 4.41953 10.6663 5.28953 14.7963H1.01953V14.7863Z" fill="white"/>
</mask>
<g mask="url(#mask0_254_19993)">
<path opacity="0.85" d="M5.58969 7.13648C5.20969 7.21648 4.63968 7.28649 3.96968 7.21649C3.15968 7.12649 2.87969 6.89648 2.38969 6.89648C1.86969 6.89648 1.13969 7.16648 0.249687 8.38648C0.229687 9.21648 0.199687 15.0565 0.179688 15.8865C1.99969 15.8365 3.82968 15.7965 5.64968 15.7465C5.62968 14.5365 5.59969 8.33649 5.57969 7.12649L5.58969 7.13648Z" fill="#C7B39A"/>
</g>
</svg>
