<svg width="12" height="20" viewBox="0 0 12 20" fill="none" xmlns="http://www.w3.org/2000/svg">
<mask id="mask0_254_20051" style="mask-type:luminance" maskUnits="userSpaceOnUse" x="0" y="0" width="12" height="15">
<path d="M3.14234 14.2063C1.54234 10.7863 1.08234 6.87627 0.902344 2.44627C0.902344 2.26627 0.902343 2.08627 0.942343 1.91627C1.09234 1.15627 1.80234 0.976274 2.14234 1.80627C2.18234 1.90627 2.21234 2.02627 2.23234 2.13627C2.58234 4.67627 3.11234 6.99627 3.97234 8.86627C4.03234 8.99627 4.07234 9.13627 4.16234 9.25627C4.58234 9.82627 5.23234 10.0063 5.89234 9.99627C6.52234 9.98627 7.10234 9.69627 7.53234 9.25627C7.76234 9.01627 7.95234 8.73627 8.08234 8.41627C8.79234 6.71627 8.93234 4.74627 9.24234 2.67627C9.32234 2.15627 9.45234 1.62627 9.80234 1.23627C10.4523 0.516274 10.9823 0.876274 11.0423 2.15627C11.2623 6.85627 10.0123 11.3963 8.41234 14.2263H3.15234L3.14234 14.2063Z" fill="white"/>
</mask>
<g mask="url(#mask0_254_20051)">
<path opacity="0.85" d="M0.204062 6.706C0.924062 6.836 2.05406 6.996 3.43406 6.966C5.58406 6.916 6.45406 6.466 8.18406 6.526C9.08406 6.556 10.4041 6.746 11.9941 7.476C11.9941 9.036 11.9941 14.586 11.9941 16.146H0.164062C0.174062 14.336 0.184061 8.516 0.194061 6.706H0.204062Z" fill="#C7B39A"/>
</g>
<mask id="mask1_254_20051" style="mask-type:luminance" maskUnits="userSpaceOnUse" x="3" y="0" width="5" height="10">
<path d="M5.89313 9.98674C5.23313 9.99674 4.58313 9.81674 4.16313 9.24674C4.08313 9.13674 4.03313 8.99674 3.97313 8.85674C3.97313 8.83674 3.96312 8.82674 3.95312 8.80674C4.51313 6.92674 4.61313 4.52674 4.47313 1.87674C4.46313 1.59674 4.51312 1.30674 4.68312 1.07674C4.89312 0.766738 5.12312 0.766739 5.35312 1.09674C5.50312 1.31674 5.58312 1.58674 5.60312 1.85674C5.82312 4.34674 6.44313 6.81674 7.49313 9.25674C7.06313 9.69674 6.50313 9.96674 5.88313 9.97674L5.89313 9.98674Z" fill="white"/>
</mask>
<g mask="url(#mask1_254_20051)">
<path opacity="0.85" d="M0.204062 6.70698C0.924062 6.83698 2.05406 6.99698 3.43406 6.96698C5.58406 6.91698 6.45406 6.46698 8.18406 6.52698C9.08406 6.55698 10.4041 6.74698 11.9941 7.47698C11.9941 9.03698 11.9941 14.587 11.9941 16.147H0.164062C0.174062 14.337 0.184061 8.51698 0.194061 6.70698H0.204062Z" fill="#C7B39A"/>
</g>
</svg>
