<svg width="8" height="20" viewBox="0 0 8 20" fill="none" xmlns="http://www.w3.org/2000/svg">
<mask id="mask0_254_19940" style="mask-type:luminance" maskUnits="userSpaceOnUse" x="1" y="0" width="6" height="15">
<path d="M6.76485 14.1662C5.82485 10.8062 5.08484 6.96617 5.10484 1.85617C5.10484 1.38617 4.94484 0.916171 4.60484 0.576171C4.19484 0.176171 3.85484 0.366171 3.60484 1.28617C2.98484 6.54617 2.35484 9.78617 1.71484 13.7662V14.1662H6.76485Z" fill="white"/>
</mask>
<g mask="url(#mask0_254_19940)">
<path opacity="0.85" d="M1.64594 7.05641C2.02594 7.13641 2.59594 7.20641 3.26594 7.13641C4.07594 7.04641 4.35593 6.81641 4.84593 6.81641C5.36593 6.81641 6.09593 7.08641 6.98593 8.30641C7.00593 9.13641 7.03593 13.9764 7.05593 14.8064C5.23593 14.7564 3.40594 14.7164 1.58594 14.6664C1.60594 13.4564 1.63594 8.25641 1.65594 7.04641L1.64594 7.05641Z" fill="#C7B39A"/>
</g>
</svg>
