<svg width="7" height="22" viewBox="0 0 7 22" fill="none" xmlns="http://www.w3.org/2000/svg">
<mask id="mask0_254_19913" style="mask-type:luminance" maskUnits="userSpaceOnUse" x="1" y="0" width="5" height="15">
<path d="M5.47702 14.7765C4.67702 11.4065 4.30702 7.45651 4.11702 2.10651C4.09702 1.54651 3.80703 1.01651 3.29703 0.77651C2.91703 0.59651 2.60702 0.65651 2.36702 0.96651C2.19702 1.18651 2.12702 1.47651 2.13702 1.76651C2.37702 6.57651 2.07703 10.6565 1.20703 14.7865H5.47702V14.7765Z" fill="white"/>
</mask>
<g mask="url(#mask0_254_19913)">
<path opacity="0.85" d="M0.907654 7.13648C1.28765 7.21648 1.85765 7.28649 2.52765 7.21649C3.33765 7.12649 3.61765 6.89648 4.10765 6.89648C4.62765 6.89648 5.35765 7.16648 6.24765 8.38648C6.26765 9.21648 6.29766 15.0565 6.31766 15.8865C4.49766 15.8365 2.66766 15.7965 0.847656 15.7465C0.867656 14.5365 0.897648 8.33649 0.917648 7.12649L0.907654 7.13648Z" fill="#C7B39A"/>
</g>
</svg>
