<svg width="11" height="20" viewBox="0 0 11 20" fill="none" xmlns="http://www.w3.org/2000/svg">
<mask id="mask0_254_19970" style="mask-type:luminance" maskUnits="userSpaceOnUse" x="0" y="0" width="11" height="15">
<path d="M8.35487 14.1965C9.95487 10.7765 10.4149 6.86651 10.5949 2.43651C10.5949 2.25651 10.5949 2.07651 10.5549 1.90651C10.4049 1.14651 9.69487 0.966508 9.35487 1.79651C9.31487 1.89651 9.28487 2.01651 9.26487 2.12651C8.91487 4.66651 8.38486 6.98651 7.52486 8.85651C7.46486 8.98651 7.42486 9.12651 7.33486 9.24651C6.91486 9.81651 6.26487 9.99651 5.60487 9.98651C4.97487 9.97651 4.39487 9.68651 3.96487 9.24651C3.73487 9.00651 3.54486 8.72651 3.41486 8.40651C2.70486 6.70651 2.56486 4.73651 2.25486 2.66651C2.17486 2.14651 2.04486 1.61651 1.69486 1.22651C1.04486 0.506509 0.514872 0.866508 0.454872 2.14651C0.234872 6.84651 1.48486 11.3865 3.08486 14.2165H8.34487L8.35487 14.1965Z" fill="white"/>
</mask>
<g mask="url(#mask0_254_19970)">
<path opacity="0.85" d="M11.3056 6.69624C10.5856 6.82624 9.45562 6.98624 8.07562 6.95624C5.92562 6.90624 5.05562 6.45624 3.32562 6.51624C2.42562 6.54624 1.10563 6.73624 -0.484375 7.46624C-0.484375 9.02624 -0.484375 14.5762 -0.484375 16.1362H11.3456C11.3356 14.3262 11.3256 8.51624 11.3156 6.69624H11.3056Z" fill="#C7B39A"/>
</g>
<mask id="mask1_254_19970" style="mask-type:luminance" maskUnits="userSpaceOnUse" x="4" y="0" width="4" height="10">
<path d="M5.61562 9.97697C6.27562 9.98697 6.92563 9.80697 7.34563 9.23697C7.42563 9.12697 7.47563 8.98697 7.53563 8.84697C7.53563 8.82697 7.54562 8.81697 7.55562 8.79697C6.99562 6.91697 6.89563 4.51697 7.03563 1.86697C7.04563 1.58697 6.99562 1.29697 6.82562 1.06697C6.61562 0.756973 6.38562 0.756972 6.15562 1.08697C6.00562 1.30697 5.92562 1.57697 5.90562 1.84697C5.68562 4.33697 5.06562 6.80697 4.01562 9.24697C4.44563 9.68697 5.00563 9.95697 5.62563 9.96697L5.61562 9.97697Z" fill="white"/>
</mask>
<g mask="url(#mask1_254_19970)">
<path opacity="0.85" d="M11.3056 6.69721C10.5856 6.82721 9.45562 6.98721 8.07562 6.95721C5.92562 6.90721 5.05562 6.45721 3.32562 6.51721C2.42562 6.54721 1.10563 6.73722 -0.484375 7.46722C-0.484375 9.02722 -0.484375 14.5772 -0.484375 16.1372H11.3456C11.3356 14.3272 11.3256 8.51721 11.3156 6.69721H11.3056Z" fill="#C7B39A"/>
</g>
</svg>
