<svg width="5" height="18" viewBox="0 0 5 18" fill="none" xmlns="http://www.w3.org/2000/svg">
<mask id="mask0_254_19834" style="mask-type:luminance" maskUnits="userSpaceOnUse" x="1" y="6" width="4" height="12">
<path d="M1.71484 6.84668H4.51485C4.51485 6.84668 4.51485 7.03668 4.51485 7.04668C4.12485 10.2767 4.06485 13.3367 4.51485 16.1367C4.68485 17.4067 4.38484 17.5767 3.81484 17.0567C3.41484 16.6967 3.11485 16.2267 2.94485 15.7067C2.21485 13.4867 1.86485 10.3967 1.72485 6.84668" fill="white"/>
</mask>
<g mask="url(#mask0_254_19834)">
<path opacity="0.85" d="M5.92609 12.427C5.54609 12.347 4.9761 12.277 4.2961 12.347C3.4861 12.437 3.19609 12.667 2.71609 12.667C2.19609 12.667 1.46609 12.397 0.566093 11.177C0.546093 10.337 0.516094 6.50699 0.496094 5.66699C2.32609 5.71699 4.15609 5.75699 5.99609 5.80699C5.97609 7.01699 5.94609 11.227 5.92609 12.437V12.427Z" fill="#C7B39A"/>
</g>
</svg>
