<svg width="5" height="18" viewBox="0 0 5 18" fill="none" xmlns="http://www.w3.org/2000/svg">
<mask id="mask0_254_19890" style="mask-type:luminance" maskUnits="userSpaceOnUse" x="1" y="6" width="3" height="12">
<path d="M3.89425 6.93652H1.09425C1.09425 6.93652 1.09425 7.12652 1.09425 7.13652C1.48425 10.3665 1.54425 13.4265 1.09425 16.2265C0.924249 17.4965 1.22425 17.6665 1.79425 17.1465C2.19425 16.7865 2.49425 16.3165 2.66425 15.7965C3.39425 13.5765 3.74425 10.4865 3.88425 6.93652" fill="white"/>
</mask>
<g mask="url(#mask0_254_19890)">
<path opacity="0.85" d="M-0.305 12.5168C0.0749997 12.4368 0.644997 12.3668 1.325 12.4368C2.135 12.5268 2.425 12.7568 2.905 12.7568C3.425 12.7568 4.15499 12.4868 5.05499 11.2668C5.07499 10.4268 5.105 6.59684 5.125 5.75684C3.295 5.80684 1.465 5.84684 -0.375 5.89684C-0.355 7.10684 -0.325 11.3168 -0.305 12.5268V12.5168Z" fill="#C7B39A"/>
</g>
</svg>
