<svg width="12" height="18" viewBox="0 0 12 18" fill="none" xmlns="http://www.w3.org/2000/svg">
<mask id="mask0_254_19900" style="mask-type:luminance" maskUnits="userSpaceOnUse" x="0" y="6" width="12" height="12">
<path d="M2.2765 6.96645C1.2765 10.1364 0.516504 13.1364 0.586504 15.5964C0.596504 16.0964 0.706502 16.5964 0.926502 17.0464C1.2265 17.6364 1.5465 17.7264 1.8965 17.2464C2.0565 17.0164 2.1665 16.7464 2.2165 16.4664L3.0565 12.5264C3.2565 11.6164 3.7865 10.7864 4.5865 10.3064C5.1065 9.99644 5.6465 9.87645 6.1965 9.96645C6.8465 10.0764 7.4065 10.4764 7.7765 11.0164C8.5565 12.1164 10.2365 15.3164 10.2365 15.3164C11.0165 16.4364 11.4765 16.3764 11.5765 15.0264C11.6265 13.3464 10.0665 9.66645 8.5965 6.85645L2.2465 6.96645H2.2765Z" fill="white"/>
</mask>
<g mask="url(#mask0_254_19900)">
<path opacity="0.85" d="M-0.0146866 12.6168C0.715313 12.3668 1.88531 12.0468 3.34531 12.0268C5.22531 12.0068 6.02531 12.5168 7.63531 12.3868C8.46531 12.3168 9.71531 12.0568 11.1853 11.1168C11.1753 9.8968 11.1653 5.6868 11.1553 4.4668H-0.0546875C-0.0446875 6.1868 -0.0346868 10.8968 -0.0246868 12.6168H-0.0146866Z" fill="#C7B39A"/>
</g>
</svg>
