<svg width="8" height="27" viewBox="0 0 8 27" fill="none" xmlns="http://www.w3.org/2000/svg">
<mask id="mask0_254_19175" style="mask-type:luminance" maskUnits="userSpaceOnUse" x="0" y="0" width="8" height="20">
<path d="M7.5047 19.4565C7.4347 15.7965 6.55468 11.5665 6.01468 9.70655C5.47468 7.84655 5.09468 4.56654 3.76468 1.78654C2.43468 -0.993455 1.77469 1.51655 1.90469 2.71655C2.03469 3.91655 1.29469 8.71654 0.834686 10.6665C0.374686 12.6165 0.724688 16.0765 0.0546875 19.4565H7.5047Z" fill="white"/>
</mask>
<g mask="url(#mask0_254_19175)">
<path opacity="0.7" d="M-2.01562 19.7965H9.81439C9.78439 17.9565 9.7544 16.1065 9.7244 14.2665C7.7744 13.3065 6.27437 13.2465 5.26437 13.3565C3.88437 13.5165 3.28438 14.0365 1.83438 14.1465C0.214381 14.2665 -1.13563 13.7865 -2.01562 13.3565V19.7865V19.7965Z" fill="#C7B39A"/>
</g>
</svg>
