<svg width="10" height="32" viewBox="0 0 10 32" fill="none" xmlns="http://www.w3.org/2000/svg">
<mask id="mask0_254_19167" style="mask-type:luminance" maskUnits="userSpaceOnUse" x="1" y="0" width="8" height="22">
<path d="M7.34406 8.85658C6.57406 6.50658 5.55406 4.56657 5.25406 2.14657C4.95406 -0.273426 3.95404 -0.233425 3.42404 1.09657C2.89404 2.42657 2.37405 8.30657 2.21405 12.1266C2.05405 15.9466 2.33406 19.5466 1.66406 21.8566H8.35406C7.44406 18.5766 8.12406 11.2066 7.34406 8.85658Z" fill="white"/>
</mask>
<g mask="url(#mask0_254_19167)">
<path opacity="0.7" d="M-0.964844 21.8565H10.8651C10.7751 20.3465 10.6952 18.8465 10.6052 17.3365C9.53516 16.8865 8.02516 16.4565 6.28516 16.6765C5.15516 16.8165 4.67516 17.1465 3.53516 17.3065C2.46516 17.4565 0.955156 17.4265 -0.964844 16.6765V21.8565Z" fill="#C7B39A"/>
</g>
</svg>
