<svg width="10" height="27" viewBox="0 0 10 27" fill="none" xmlns="http://www.w3.org/2000/svg">
<mask id="mask0_254_19135" style="mask-type:luminance" maskUnits="userSpaceOnUse" x="1" y="0" width="9" height="19">
<path d="M9.12547 18.1463C9.12547 16.0163 8.55546 12.0863 8.14546 9.45627C7.73546 6.82627 6.18546 6.09627 6.47546 3.41627C6.76546 0.72627 5.54547 0.19627 4.48547 2.17627C3.42547 4.15627 2.77547 6.79627 3.05547 9.72627C3.33547 12.6563 2.74547 14.3763 1.10547 18.1563H9.11546L9.12547 18.1463Z" fill="white"/>
</mask>
<g mask="url(#mask0_254_19135)">
<path opacity="0.7" d="M-0.40625 18.6761H11.4238L11.4437 14.0861C10.3437 13.6661 8.87375 13.2961 7.20375 13.4961C5.76375 13.6661 5.17374 14.1261 3.85374 14.1861C2.79374 14.2361 1.37374 14.0261 -0.356262 12.9561C-0.376262 14.8661 -0.38625 16.7661 -0.40625 18.6761Z" fill="#C7B39A"/>
</g>
</svg>
