<svg width="13" height="28" viewBox="0 0 13 28" fill="none" xmlns="http://www.w3.org/2000/svg">
<mask id="mask0_254_19123" style="mask-type:luminance" maskUnits="userSpaceOnUse" x="1" y="1" width="12" height="18">
<path d="M1.65625 18.1869C2.72625 15.8369 3.22625 16.0269 2.73625 13.7769C2.24625 11.5269 1.29625 9.0169 2.78625 5.2469C4.27625 1.4769 6.55625 -0.273095 6.13625 2.3969C5.71625 5.0669 5.05625 7.9069 5.78625 9.9369C6.51625 11.9669 8.17625 12.4469 8.70625 10.1169C9.23625 7.78691 9.26625 6.0869 9.29625 4.5769C9.32625 3.0769 9.56625 -0.00309598 10.7462 1.9969C11.9162 3.9969 12.7562 7.1569 12.3362 11.2369C12.3362 11.2369 11.3762 16.4069 12.2562 18.1969H1.65625V18.1869Z" fill="white"/>
</mask>
<g mask="url(#mask0_254_19123)">
<path opacity="0.7" d="M1.42798 18.6964H13.258C13.228 17.1564 13.198 15.6164 13.158 14.0764C11.678 13.5364 10.448 13.4564 9.51797 13.5264C7.49797 13.6664 6.64798 14.5064 4.78798 14.4964C3.41798 14.4864 2.27797 14.0164 1.41797 13.5264C1.41797 15.2564 1.41797 16.9764 1.41797 18.7064L1.42798 18.6964Z" fill="#C7B39A"/>
</g>
</svg>
