<svg width="13" height="25" viewBox="0 0 13 25" fill="none" xmlns="http://www.w3.org/2000/svg">
<mask id="mask0_254_19111" style="mask-type:luminance" maskUnits="userSpaceOnUse" x="1" y="0" width="12" height="17">
<path d="M12.3045 9.18723C11.9645 7.18723 12.0845 4.31723 11.1045 1.64723C10.1245 -1.02277 9.35454 0.827229 9.60454 2.05723C9.85454 3.29723 9.35454 5.70723 8.68454 7.07723C8.01454 8.44723 7.22453 11.1872 5.80453 10.0872C4.38453 8.98723 5.17453 5.29723 5.97453 2.53723C6.77453 -0.222772 5.17453 0.467229 4.58453 1.71723C4.00453 2.96723 1.83454 6.18723 1.87454 9.67723C1.91454 13.1672 2.19453 14.4272 1.14453 16.3072L12.2945 16.4672C12.6445 13.6072 12.6545 11.1972 12.3045 9.19723V9.18723Z" fill="white"/>
</mask>
<g mask="url(#mask0_254_19111)">
<path opacity="0.7" d="M1.05469 16.9373H12.8847V11.7573C12.2547 11.5973 11.2347 11.3973 9.9847 11.4473C7.7847 11.5373 6.86469 12.3173 4.91469 12.4273C4.04469 12.4773 2.71469 12.4173 1.05469 11.7473V16.9273V16.9373Z" fill="#C7B39A"/>
</g>
</svg>
