<svg width="11" height="24" viewBox="0 0 11 24" fill="none" xmlns="http://www.w3.org/2000/svg">
<mask id="mask0_254_19099" style="mask-type:luminance" maskUnits="userSpaceOnUse" x="0" y="0" width="11" height="17">
<path d="M10.323 16.5565C9.69297 12.9765 10.263 8.04653 9.83296 6.20653C9.40296 4.36653 8.82297 1.23653 7.65297 0.876527C6.49297 0.516527 6.81296 3.57653 7.39296 6.11653C7.98296 8.65653 7.36296 10.5165 5.27296 10.8565C3.19296 11.1965 4.75297 5.88653 4.51297 2.74653C4.27297 -0.393473 2.51297 0.426527 2.68297 2.40653C2.86297 4.38653 0.872961 8.70653 0.972961 9.84653C1.07296 10.9965 1.67297 13.8065 0.792969 16.5465H10.303L10.323 16.5565Z" fill="white"/>
</mask>
<g mask="url(#mask0_254_19099)">
<path opacity="0.7" d="M-0.216553 16.9261H11.6134C11.5734 15.3761 11.5434 13.8161 11.5034 12.2661C10.3534 11.7661 9.09343 11.4661 7.75343 11.5261C6.06343 11.6061 5.32344 12.2061 3.57344 12.3261C2.43344 12.4061 1.16344 12.2561 -0.226562 11.7461V16.9261H-0.216553Z" fill="#C7B39A"/>
</g>
</svg>
