<svg width="10" height="28" viewBox="0 0 10 28" fill="none" xmlns="http://www.w3.org/2000/svg">
<mask id="mask0_254_19016" style="mask-type:luminance" maskUnits="userSpaceOnUse" x="0" y="0" width="10" height="21">
<path d="M0.675781 20.3269C0.925781 17.7769 1.49578 15.1769 1.73578 12.5969C1.97578 10.0169 2.9458 7.9369 3.5058 4.0169C4.0658 0.106899 5.4258 -0.0731004 6.2558 1.9469C7.0858 3.9669 8.2958 9.4169 8.0358 12.4169C7.7658 15.4169 8.6158 18.8969 9.1358 20.3269H0.685791H0.675781Z" fill="white"/>
</mask>
<g mask="url(#mask0_254_19016)">
<path opacity="0.7" d="M11.1972 19.9665H-0.632812C-0.592813 18.0865 -0.542808 16.2065 -0.502808 14.3165C0.377192 13.8765 1.71718 13.3965 3.29718 13.5265C4.78718 13.6565 5.3972 14.2465 6.8172 14.4265C7.8172 14.5565 9.2872 14.4865 11.1972 13.5265V19.9565V19.9665Z" fill="#C7B39A"/>
</g>
</svg>
