<svg width="13" height="28" viewBox="0 0 13 28" fill="none" xmlns="http://www.w3.org/2000/svg">
<mask id="mask0_254_18953" style="mask-type:luminance" maskUnits="userSpaceOnUse" x="0" y="1" width="12" height="18">
<path d="M11.3952 18.1869C10.3252 15.8369 9.82524 16.0269 10.3152 13.7769C10.8052 11.5269 11.7552 9.0169 10.2652 5.2469C8.77522 1.4769 6.49524 -0.273095 6.91524 2.3969C7.33524 5.0669 7.99522 7.9069 7.26522 9.9369C6.53522 11.9669 4.87523 12.4469 4.34523 10.1169C3.81523 7.78691 3.78524 6.0869 3.75524 4.5769C3.72524 3.0769 3.48523 -0.00309598 2.30523 1.9969C1.13523 3.9969 0.295229 7.1569 0.715229 11.2369C0.715229 11.2369 1.67522 16.4069 0.795216 18.1969H11.3952V18.1869Z" fill="white"/>
</mask>
<g mask="url(#mask0_254_18953)">
<path opacity="0.7" d="M11.6347 18.6964H-0.195312C-0.165313 17.1564 -0.135306 15.6164 -0.0953064 14.0764C1.38469 13.5364 2.61468 13.4564 3.54468 13.5264C5.56468 13.6664 6.41469 14.5064 8.27469 14.4964C9.64469 14.4864 10.7847 14.0164 11.6447 13.5264V18.7064L11.6347 18.6964Z" fill="#C7B39A"/>
</g>
</svg>
