<svg width="13" height="25" viewBox="0 0 13 25" fill="none" xmlns="http://www.w3.org/2000/svg">
<mask id="mask0_254_18941" style="mask-type:luminance" maskUnits="userSpaceOnUse" x="0" y="0" width="12" height="17">
<path d="M0.753657 9.18723C1.09366 7.18723 0.973639 4.31723 1.95364 1.64723C2.93364 -1.02277 3.70364 0.827229 3.45364 2.05723C3.20364 3.29723 3.70365 5.70723 4.37365 7.07723C5.04365 8.44723 5.83366 11.1872 7.25366 10.0872C8.67366 8.98723 7.88364 5.29723 7.08364 2.53723C6.28364 -0.222772 7.88366 0.467229 8.47366 1.71723C9.05366 2.96723 11.2237 6.18723 11.1837 9.67723C11.1437 13.1672 10.8637 14.4272 11.9137 16.3072L0.763637 16.4672C0.413637 13.6072 0.403657 11.1972 0.753657 9.19723V9.18723Z" fill="white"/>
</mask>
<g mask="url(#mask0_254_18941)">
<path opacity="0.7" d="M11.994 16.9373H0.164062V11.7573C0.794062 11.5973 1.81406 11.3973 3.06406 11.4473C5.26406 11.5373 6.18406 12.3173 8.13406 12.4273C9.00406 12.4773 10.334 12.4173 11.994 11.7473V16.9273V16.9373Z" fill="#C7B39A"/>
</g>
</svg>
