<svg width="11" height="24" viewBox="0 0 11 24" fill="none" xmlns="http://www.w3.org/2000/svg">
<mask id="mask0_254_18929" style="mask-type:luminance" maskUnits="userSpaceOnUse" x="0" y="0" width="11" height="17">
<path d="M0.734375 16.5565C1.36437 12.9765 0.794396 8.04653 1.2244 6.20653C1.6544 4.36653 2.23439 1.23653 3.40439 0.876527C4.56439 0.516527 4.2444 3.57653 3.6644 6.11653C3.0744 8.65653 3.69439 10.5165 5.78439 10.8565C7.86439 11.1965 6.30437 5.88653 6.54437 2.74653C6.78437 -0.393473 8.54439 0.426527 8.37439 2.40653C8.19439 4.38653 10.1844 8.70653 10.0844 9.84653C9.98438 10.9965 9.38437 13.8065 10.2644 16.5465H0.754395L0.734375 16.5565Z" fill="white"/>
</mask>
<g mask="url(#mask0_254_18929)">
<path opacity="0.7" d="M11.2753 16.9261H-0.554688C-0.514688 15.3761 -0.484702 13.8161 -0.444702 12.2661C0.705298 11.7661 1.9653 11.4661 3.3053 11.5261C4.9953 11.6061 5.73529 12.2061 7.48529 12.3261C8.62529 12.4061 9.89531 12.2561 11.2853 11.7461V16.9261H11.2753Z" fill="#C7B39A"/>
</g>
</svg>
