<svg width="8" height="24" viewBox="0 0 8 24" fill="none" xmlns="http://www.w3.org/2000/svg">
<mask id="mask0_254_18921" style="mask-type:luminance" maskUnits="userSpaceOnUse" x="0" y="8" width="8" height="16">
<path d="M7.32327 8.58665C7.03327 10.0566 5.99329 15.1966 5.21329 20.1766C4.84329 22.5566 4.06329 24.5466 3.34329 22.0366C2.62329 19.5266 2.1733 16.0666 1.9433 13.4166C1.7133 10.7666 0.973281 9.24664 0.863281 8.55664L7.32327 8.58665Z" fill="white"/>
</mask>
<g mask="url(#mask0_254_18921)">
<path opacity="0.7" d="M10.2934 13.1864C9.14343 12.8464 7.46345 12.5364 5.56345 12.9264C4.54345 13.1364 4.16344 13.4064 3.30344 13.5464C2.12344 13.7464 0.403435 13.6564 -1.91656 12.2964C-1.93656 10.3064 -1.95656 8.30641 -1.97656 6.31641H10.2934V13.1764V13.1864Z" fill="#C7B39A"/>
</g>
</svg>
