<svg width="9" height="25" viewBox="0 0 9 25" fill="none" xmlns="http://www.w3.org/2000/svg">
<mask id="mask0_254_18891" style="mask-type:luminance" maskUnits="userSpaceOnUse" x="1" y="7" width="8" height="18">
<path d="M8.31424 7.85668C7.76424 10.5467 7.32424 12.5667 6.78424 14.5967C6.32424 16.3467 5.68424 18.0167 5.90424 21.1867C6.09424 23.9867 5.72422 26.3167 4.32422 23.6167C2.92422 20.9167 2.26422 16.5967 2.17422 13.4867C2.08422 10.3867 1.33422 8.78668 1.07422 7.84668H8.32422L8.31424 7.85668Z" fill="white"/>
</mask>
<g mask="url(#mask0_254_18891)">
<path opacity="0.7" d="M10.5952 13.4266C9.55515 13.1266 7.99514 12.8166 6.14514 13.0266C4.89514 13.1666 4.37514 13.4566 3.26514 13.5666C2.12514 13.6766 0.475143 13.5966 -1.63486 12.6566C-1.66486 10.5166 -1.68484 8.36656 -1.71484 6.22656H10.5551C10.5651 8.62656 10.5852 11.0266 10.5952 13.4366V13.4266Z" fill="#C7B39A"/>
</g>
</svg>
