<svg width="11" height="24" viewBox="0 0 11 24" fill="none" xmlns="http://www.w3.org/2000/svg">
<mask id="mask0_254_18880" style="mask-type:luminance" maskUnits="userSpaceOnUse" x="2" y="8" width="9" height="16">
<path d="M10.1664 8.06641C9.61641 10.7464 9.19639 13.0264 8.82639 15.0964C8.50639 16.8764 7.2064 19.4264 7.6864 20.8864C8.5464 23.5564 8.25641 24.8964 6.10641 22.7464C4.03641 20.6664 3.8664 17.0064 3.7764 13.9064C3.6864 10.8064 2.80641 9.48641 2.06641 8.06641H10.1664Z" fill="white"/>
</mask>
<g mask="url(#mask0_254_18880)">
<path opacity="0.7" d="M11.8076 13.4561C10.8876 13.1661 9.51764 12.8561 7.89764 12.9961C6.66764 13.0961 6.03764 13.3961 5.04764 13.5961C3.80764 13.8461 1.99766 13.9261 -0.402344 13.1461V6.28613H11.8676C11.8476 8.67613 11.8176 11.0661 11.7976 13.4561H11.8076Z" fill="#C7B39A"/>
</g>
</svg>
