<svg width="14" height="24" viewBox="0 0 14 24" fill="none" xmlns="http://www.w3.org/2000/svg">
<mask id="mask0_254_18872" style="mask-type:luminance" maskUnits="userSpaceOnUse" x="1" y="8" width="12" height="16">
<path d="M1.52354 8.12695L12.9736 8.42696C12.4536 9.83696 12.4336 10.457 12.3136 11.737C12.1936 13.017 12.1435 15.667 12.3435 17.017C12.5435 18.357 13.0635 22.507 12.3935 23.097C11.7235 23.697 10.8235 22.487 10.2435 20.977C9.66354 19.467 8.96355 17.907 8.68355 15.487C8.40355 13.067 7.78353 13.027 7.29353 13.627C6.80353 14.227 6.34356 17.677 6.13356 18.977C5.92356 20.277 7.20354 23.747 5.92354 23.467C4.64354 23.187 3.43353 20.807 2.82353 19.467C2.21353 18.127 1.32355 16.147 1.56355 14.027C1.79355 11.907 1.93355 9.17696 1.53355 8.13696L1.52354 8.12695Z" fill="white"/>
</mask>
<g mask="url(#mask0_254_18872)">
<path opacity="0.7" d="M13.4926 13.4373C12.0226 12.7973 10.8127 12.6473 10.0027 12.6173C7.74266 12.5373 6.64265 13.3573 4.12265 13.3073C2.86265 13.2873 1.85266 13.0573 1.22266 12.8873V6.02734H13.4926C13.4926 8.49734 13.4926 10.9673 13.4926 13.4373Z" fill="#C7B39A"/>
</g>
</svg>
