<svg width="13" height="23" viewBox="0 0 13 23" fill="none" xmlns="http://www.w3.org/2000/svg">
<mask id="mask0_254_18854" style="mask-type:luminance" maskUnits="userSpaceOnUse" x="0" y="6" width="12" height="17">
<path d="M7.6539 6.88695H11.7739C11.4239 7.61695 10.6439 10.107 10.6539 11.187C10.6539 12.267 11.5139 13.897 11.2539 15.507C10.9939 17.117 10.1739 21.647 9.33389 22.387C8.50389 23.137 7.85391 20.617 7.85391 18.067C7.85391 15.517 6.59391 12.647 6.00391 12.647C5.00391 12.647 4.69389 16.187 4.89389 16.887C5.09389 17.587 5.90391 23.1369 4.78391 22.7669C3.66391 22.4069 1.95391 19.627 1.85391 17.667C1.76391 15.707 1.86389 13.187 1.73389 12.207C1.60389 11.227 0.903906 8.23695 0.503906 6.87695H7.6539V6.88695Z" fill="white"/>
</mask>
<g mask="url(#mask0_254_18854)">
<path opacity="0.7" d="M11.9323 12.5569C11.2523 12.2569 10.1723 11.8669 8.82233 11.7969C6.94233 11.6969 5.97235 12.2769 3.84235 12.5369C2.88235 12.6569 1.45234 12.7269 -0.347656 12.4669C-0.347656 10.0769 -0.347656 7.68688 -0.347656 5.29688H11.9223C11.9223 7.71688 11.9423 10.1469 11.9523 12.5669L11.9323 12.5569Z" fill="#C7B39A"/>
</g>
</svg>
