<svg width="8" height="24" viewBox="0 0 8 24" fill="none" xmlns="http://www.w3.org/2000/svg">
<mask id="mask0_254_19091" style="mask-type:luminance" maskUnits="userSpaceOnUse" x="0" y="8" width="8" height="16">
<path d="M0.804688 8.58665C1.09469 10.0566 2.1347 15.1966 2.9147 20.1766C3.2847 22.5566 4.0647 24.5466 4.7847 22.0366C5.5047 19.5266 5.95469 16.0666 6.18469 13.4166C6.41469 10.7666 7.15468 9.24664 7.26468 8.55664L0.804688 8.58665Z" fill="white"/>
</mask>
<g mask="url(#mask0_254_19091)">
<path opacity="0.7" d="M-2.16406 13.1864C-1.01406 12.8464 0.665949 12.5364 2.56595 12.9264C3.58595 13.1364 3.96593 13.4064 4.82593 13.5464C6.00593 13.7464 7.72593 13.6564 10.0459 12.2964C10.0659 10.3064 10.086 8.30641 10.106 6.31641H-2.16406V13.1764V13.1864Z" fill="#C7B39A"/>
</g>
</svg>
