<svg width="9" height="25" viewBox="0 0 9 25" fill="none" xmlns="http://www.w3.org/2000/svg">
<mask id="mask0_254_19083" style="mask-type:luminance" maskUnits="userSpaceOnUse" x="1" y="8" width="8" height="17">
<path d="M1.19531 8.06641C1.38531 9.85641 3.04531 14.7064 3.62531 21.3064C3.86531 23.9964 4.91531 26.2164 5.72531 23.3964C6.53531 20.5764 7.04529 16.6964 7.29529 13.7164C7.54529 10.7364 8.44529 8.97641 8.70529 8.06641H1.19531Z" fill="white"/>
</mask>
<g mask="url(#mask0_254_19083)">
<path opacity="0.7" d="M-1.37454 13.6364C-0.0745423 13.3664 1.54545 13.2164 3.33545 13.5364C4.54545 13.7564 5.03547 14.0364 6.10547 14.1764C7.33547 14.3264 8.92546 14.2264 10.8755 13.3664C10.8755 11.2664 10.8755 9.16641 10.8755 7.06641H-1.39453C-1.39453 9.25641 -1.38454 11.4464 -1.37454 13.6364Z" fill="#C7B39A"/>
</g>
</svg>
