<svg width="9" height="31" viewBox="0 0 9 31" fill="none" xmlns="http://www.w3.org/2000/svg">
<mask id="mask0_254_19072" style="mask-type:luminance" maskUnits="userSpaceOnUse" x="0" y="7" width="9" height="24">
<path d="M8.46609 7.72656L0.996094 7.78656C1.79609 9.78656 1.8661 14.6266 1.9061 18.6566C1.9361 22.5166 2.7561 24.9466 3.7861 28.0366C4.8161 31.1266 5.9961 30.3066 6.0061 27.7266C6.0261 25.1466 6.72609 23.0366 7.67609 19.5166C8.10609 17.9266 8.17611 16.5966 8.16611 13.5366C8.15611 10.4766 8.3461 8.47656 8.4761 7.72656H8.46609Z" fill="white"/>
</mask>
<g mask="url(#mask0_254_19072)">
<path opacity="0.7" d="M-1.59375 14.6063C0.34625 14.1963 1.90625 14.1863 2.99625 14.2663C4.51625 14.3763 5.24624 14.6563 6.86624 14.7063C8.47624 14.7563 9.79626 14.5463 10.6663 14.3563C10.6663 11.8063 10.6662 9.24629 10.6762 6.69629H-1.59375V14.6063Z" fill="#C7B39A"/>
</g>
</svg>
