<svg width="9" height="25" viewBox="0 0 9 25" fill="none" xmlns="http://www.w3.org/2000/svg">
<mask id="mask0_254_19061" style="mask-type:luminance" maskUnits="userSpaceOnUse" x="0" y="7" width="9" height="18">
<path d="M0.814697 7.85668C1.3647 10.5467 1.8047 12.5667 2.3447 14.5967C2.8047 16.3467 3.4447 18.0167 3.2247 21.1867C3.0347 23.9867 3.40469 26.3167 4.80469 23.6167C6.20469 20.9167 6.86468 16.5967 6.95468 13.4867C7.04468 10.3867 7.79469 8.78668 8.05469 7.84668H0.804688L0.814697 7.85668Z" fill="white"/>
</mask>
<g mask="url(#mask0_254_19061)">
<path opacity="0.7" d="M-1.46484 13.4266C-0.424844 13.1266 1.13514 12.8166 2.98514 13.0266C4.23514 13.1666 4.75514 13.4566 5.86514 13.5666C7.00514 13.6766 8.65514 13.5966 10.7651 12.6566C10.7951 10.5166 10.8152 8.36656 10.8452 6.22656H-1.42487C-1.43487 8.62656 -1.45484 11.0266 -1.46484 13.4366V13.4266Z" fill="#C7B39A"/>
</g>
</svg>
