<svg width="11" height="24" viewBox="0 0 11 24" fill="none" xmlns="http://www.w3.org/2000/svg">
<mask id="mask0_254_19050" style="mask-type:luminance" maskUnits="userSpaceOnUse" x="0" y="8" width="10" height="16">
<path d="M0.964844 8.06641C1.51484 10.7464 1.93484 13.0264 2.30484 15.0964C2.62484 16.8764 3.92484 19.4264 3.44484 20.8864C2.58484 23.5564 2.87484 24.8964 5.02484 22.7464C7.09484 20.6664 7.26484 17.0064 7.35484 13.9064C7.44484 10.8064 8.32485 9.48641 9.06485 8.06641H0.964844Z" fill="white"/>
</mask>
<g mask="url(#mask0_254_19050)">
<path opacity="0.7" d="M-0.674377 13.4561C0.245623 13.1661 1.61563 12.8561 3.23563 12.9961C4.46563 13.0961 5.09562 13.3961 6.08562 13.5961C7.32562 13.8461 9.13563 13.9261 11.5356 13.1461C11.5356 10.8561 11.5356 8.57613 11.5356 6.28613H-0.734375C-0.714375 8.67613 -0.684383 11.0661 -0.664383 13.4561H-0.674377Z" fill="#C7B39A"/>
</g>
</svg>
