<svg width="14" height="24" viewBox="0 0 14 24" fill="none" xmlns="http://www.w3.org/2000/svg">
<mask id="mask0_254_19042" style="mask-type:luminance" maskUnits="userSpaceOnUse" x="1" y="8" width="12" height="16">
<path d="M12.6062 8.12695L1.15625 8.42696C1.67625 9.83696 1.69625 10.457 1.81625 11.737C1.93625 13.017 1.98625 15.667 1.78625 17.017C1.58625 18.357 1.06625 22.507 1.73625 23.097C2.40625 23.697 3.30625 22.487 3.88625 20.977C4.46625 19.467 5.16624 17.907 5.44624 15.487C5.72624 13.067 6.34624 13.027 6.83624 13.627C7.32624 14.227 7.78625 17.677 7.99625 18.977C8.20625 20.277 6.92625 23.747 8.20625 23.467C9.48625 23.187 10.6962 20.807 11.3062 19.467C11.9162 18.127 12.8063 16.147 12.5663 14.027C12.3363 11.907 12.1963 9.17696 12.5963 8.13696L12.6062 8.12695Z" fill="white"/>
</mask>
<g mask="url(#mask0_254_19042)">
<path opacity="0.7" d="M0.636719 13.4373C2.10672 12.7973 3.31672 12.6473 4.12672 12.6173C6.38672 12.5373 7.48671 13.3573 10.0067 13.3073C11.2667 13.2873 12.2767 13.0573 12.9067 12.8873V6.02734H0.636719C0.636719 8.49734 0.636719 10.9673 0.636719 13.4373Z" fill="#C7B39A"/>
</g>
</svg>
