<svg width="12" height="23" viewBox="0 0 12 23" fill="none" xmlns="http://www.w3.org/2000/svg">
<mask id="mask0_254_19024" style="mask-type:luminance" maskUnits="userSpaceOnUse" x="0" y="6" width="12" height="17">
<path d="M4.47546 6.88695H0.355469C0.705469 7.61695 1.48546 10.107 1.47546 11.187C1.47546 12.267 0.615473 13.897 0.875473 15.507C1.13547 17.117 1.95547 21.647 2.79547 22.387C3.62547 23.137 4.27547 20.617 4.27547 18.067C4.27547 15.517 5.53547 12.647 6.12547 12.647C7.12547 12.647 7.43547 16.187 7.23547 16.887C7.03547 17.587 6.22547 23.1369 7.34547 22.7669C8.46547 22.4069 10.1755 19.627 10.2755 17.667C10.3655 15.707 10.2655 13.187 10.3955 12.207C10.5255 11.227 11.2255 8.23695 11.6255 6.87695H4.47546V6.88695Z" fill="white"/>
</mask>
<g mask="url(#mask0_254_19024)">
<path opacity="0.7" d="M0.19577 12.5569C0.87577 12.2569 1.95577 11.8669 3.30577 11.7969C5.18577 11.6969 6.15578 12.2769 8.28578 12.5369C9.24578 12.6569 10.6758 12.7269 12.4758 12.4669C12.4758 10.0769 12.4758 7.68688 12.4758 5.29688H0.20578C0.20578 7.71688 0.185781 10.1469 0.175781 12.5669L0.19577 12.5569Z" fill="#C7B39A"/>
</g>
</svg>
