<svg width="12" height="21" viewBox="0 0 12 21" fill="none" xmlns="http://www.w3.org/2000/svg">
<mask id="mask0_254_19034" style="mask-type:luminance" maskUnits="userSpaceOnUse" x="0" y="6" width="11" height="15">
<path d="M10.7762 6.08691H1.43619C2.11619 7.20691 1.21619 8.46691 1.05619 9.85691C0.896187 11.2469 0.266189 10.7469 0.386189 13.8969C0.506189 17.0369 1.01619 17.8469 1.46619 19.0969C1.91619 20.3569 3.0562 21.1469 3.3462 19.3469C3.6362 17.5469 2.81619 13.6169 3.54619 12.1669C4.27619 10.7169 4.93619 10.2369 5.30619 11.2469C5.67619 12.2569 6.36619 12.7769 6.19619 14.0869C6.02619 15.3969 4.9362 17.6669 4.6762 18.9269C4.4162 20.1869 4.74619 21.1169 6.58619 19.1369C8.42619 17.1569 9.81619 15.8569 9.58619 13.3269C9.35619 10.7969 9.63618 9.79691 9.89618 8.74691C10.1562 7.69691 10.4962 7.02691 10.7762 6.09691V6.08691Z" fill="white"/>
</mask>
<g mask="url(#mask0_254_19034)">
<path opacity="0.7" d="M-0.223907 10.6868C0.536093 10.3868 1.6861 10.0468 3.0761 10.0968C5.0061 10.1668 5.8061 10.9368 7.5361 11.0168C8.4861 11.0668 9.8661 10.9068 11.5761 9.92683C11.5761 8.36683 11.5761 6.81684 11.5761 5.25684H-0.253906C-0.243906 7.06684 -0.233907 8.87683 -0.223907 10.6968V10.6868Z" fill="#C7B39A"/>
</g>
</svg>
