<svg width="8" height="20" viewBox="0 0 8 20" fill="none" xmlns="http://www.w3.org/2000/svg">
<mask id="mask0_254_19390" style="mask-type:luminance" maskUnits="userSpaceOnUse" x="0" y="0" width="6" height="15">
<path d="M0.746094 14.1769C1.68609 10.8169 2.4261 6.97691 2.4061 1.86691C2.4061 1.39691 2.5661 0.926913 2.9061 0.586913C3.3161 0.186913 3.6561 0.376913 3.9061 1.29691C4.5261 6.55691 5.1561 9.79691 5.7961 13.7769V14.1769H0.746094Z" fill="white"/>
</mask>
<g mask="url(#mask0_254_19390)">
<path opacity="0.7" d="M5.86703 11.0671C5.48703 11.1471 4.91703 11.2171 4.24703 11.1471C3.43703 11.0571 3.15703 10.8271 2.66703 10.8271C2.14703 10.8271 1.41703 11.0971 0.527031 12.3171C0.507031 13.1471 0.477031 13.9871 0.457031 14.8171C2.27703 14.7671 4.10703 14.7271 5.92703 14.6771C5.90703 13.4671 5.87703 12.2671 5.85703 11.0571L5.86703 11.0671Z" fill="#C7B39A"/>
</g>
</svg>
