<svg width="7" height="19" viewBox="0 0 7 19" fill="none" xmlns="http://www.w3.org/2000/svg">
<mask id="mask0_254_19377" style="mask-type:luminance" maskUnits="userSpaceOnUse" x="1" y="0" width="5" height="14">
<path d="M1.59594 13.1369C2.47594 9.66692 2.65594 6.48692 2.64594 2.54692C2.64594 2.01692 2.80594 1.48692 3.13594 1.06692C3.56594 0.526919 3.90594 0.616919 4.16594 1.16692C4.33594 1.52692 4.33594 1.92692 4.36594 2.32692C4.78594 7.31692 4.95594 9.33692 5.07594 13.1369H1.58594H1.59594Z" fill="white"/>
</mask>
<g mask="url(#mask0_254_19377)">
<path opacity="0.7" d="M5.94516 10.5964C5.56516 10.6764 4.99516 10.7464 4.32516 10.6764C3.51516 10.5864 3.23516 10.3564 2.74516 10.3564C2.22516 10.3564 1.49516 10.6264 0.605156 11.8464C0.585156 12.6764 0.555156 13.5164 0.535156 14.3464C2.35516 14.2964 4.18516 14.2564 6.00516 14.2064C5.98516 12.9964 5.95516 11.7964 5.93516 10.5864L5.94516 10.5964Z" fill="#C7B39A"/>
</g>
</svg>
