<svg width="7" height="22" viewBox="0 0 7 22" fill="none" xmlns="http://www.w3.org/2000/svg">
<mask id="mask0_254_19365" style="mask-type:luminance" maskUnits="userSpaceOnUse" x="1" y="0" width="5" height="15">
<path d="M1.02344 14.7863C1.82344 11.4163 2.19343 7.46628 2.38343 2.11628C2.40343 1.55628 2.69344 1.02628 3.20344 0.786275C3.58344 0.606275 3.89343 0.666276 4.13343 0.976276C4.30343 1.19628 4.37344 1.48628 4.36344 1.77628C4.12344 6.58628 4.42344 10.6663 5.29344 14.7963H1.02344V14.7863Z" fill="white"/>
</mask>
<g mask="url(#mask0_254_19365)">
<path opacity="0.7" d="M5.59359 12.1365C5.21359 12.2165 4.64359 12.2865 3.97359 12.2165C3.16359 12.1265 2.88359 11.8965 2.39359 11.8965C1.87359 11.8965 1.14359 12.1665 0.253593 13.3865C0.233593 14.2165 0.203594 15.0565 0.183594 15.8865C2.00359 15.8365 3.83359 15.7965 5.65359 15.7465C5.63359 14.5365 5.60359 13.3365 5.58359 12.1265L5.59359 12.1365Z" fill="#C7B39A"/>
</g>
</svg>
