<svg width="12" height="20" viewBox="0 0 12 20" fill="none" xmlns="http://www.w3.org/2000/svg">
<mask id="mask0_254_19351" style="mask-type:luminance" maskUnits="userSpaceOnUse" x="0" y="0" width="12" height="15">
<path d="M3.14625 14.2063C1.54625 10.7863 1.08625 6.87627 0.90625 2.44627C0.90625 2.26627 0.906249 2.08627 0.946249 1.91627C1.09625 1.15627 1.80625 0.976274 2.14625 1.80627C2.18625 1.90627 2.21625 2.02627 2.23625 2.13627C2.58625 4.67627 3.11625 6.99627 3.97625 8.86627C4.03625 8.99627 4.07625 9.13627 4.16625 9.25627C4.58625 9.82627 5.23625 10.0063 5.89625 9.99627C6.52625 9.98627 7.10625 9.69627 7.53625 9.25627C7.76625 9.01627 7.95625 8.73627 8.08625 8.41627C8.79625 6.71627 8.93625 4.74627 9.24625 2.67627C9.32625 2.15627 9.45625 1.62627 9.80625 1.23627C10.4562 0.516274 10.9862 0.876274 11.0462 2.15627C11.2662 6.85627 10.0163 11.3963 8.41625 14.2263H3.15625L3.14625 14.2063Z" fill="white"/>
</mask>
<g mask="url(#mask0_254_19351)">
<path opacity="0.7" d="M0.207968 10.706C0.927968 10.836 2.05797 10.996 3.43797 10.966C5.58797 10.916 6.45797 10.466 8.18797 10.526C9.08797 10.556 10.408 10.746 11.998 11.476C11.998 13.036 11.998 14.586 11.998 16.146H0.167969C0.177969 14.336 0.187968 12.516 0.197968 10.706H0.207968Z" fill="#C7B39A"/>
</g>
</svg>
