<svg width="14" height="20" viewBox="0 0 14 20" fill="none" xmlns="http://www.w3.org/2000/svg">
<mask id="mask0_254_19413" style="mask-type:luminance" maskUnits="userSpaceOnUse" x="0" y="0" width="13" height="14">
<path d="M4.77297 13.7067C2.91297 10.5567 1.43297 6.57667 0.302966 2.46667C0.182966 2.00667 0.262966 1.49667 0.582966 1.14667C0.902966 0.786668 1.24297 0.836668 1.60297 1.44667C2.49297 4.22667 3.69297 6.64667 5.37297 8.48667C6.82297 9.75667 8.22297 9.92667 9.55297 8.96667C9.59297 8.93667 9.62297 8.90667 9.66297 8.87667C10.913 7.21667 11.063 4.72667 10.853 1.95667C10.823 1.52667 10.913 1.08667 11.183 0.746667C11.473 0.376667 11.773 0.396668 12.083 0.806668C12.253 1.04667 12.363 1.32667 12.413 1.61667C13.243 6.14667 13.163 10.2467 11.763 13.6867H4.77297V13.7067Z" fill="white"/>
</mask>
<g mask="url(#mask0_254_19413)">
<path opacity="0.7" d="M1.96359 9.79675C2.68359 9.92675 3.79359 10.0768 5.16359 10.0468C7.29359 9.99675 8.15359 9.54675 9.86359 9.61675C10.7536 9.64675 12.0636 9.83675 13.6436 10.5567C13.6436 12.0967 13.6436 13.6368 13.6436 15.1868H1.93359C1.94359 13.3868 1.95359 11.5968 1.96359 9.79675Z" fill="#C7B39A"/>
</g>
</svg>
