<svg width="8" height="20" viewBox="0 0 8 20" fill="none" xmlns="http://www.w3.org/2000/svg">
<mask id="mask0_254_19230" style="mask-type:luminance" maskUnits="userSpaceOnUse" x="1" y="0" width="6" height="15">
<path d="M6.76485 14.1671C5.82485 10.8071 5.08484 6.96715 5.10484 1.85715C5.10484 1.38715 4.94484 0.917148 4.60484 0.577148C4.19484 0.177148 3.85484 0.367148 3.60484 1.28715C2.98484 6.54715 2.35484 9.78715 1.71484 13.7671V14.1671H6.76485Z" fill="white"/>
</mask>
<g mask="url(#mask0_254_19230)">
<path opacity="0.7" d="M1.64594 11.0574C2.02594 11.1374 2.59594 11.2074 3.26594 11.1374C4.07594 11.0474 4.35593 10.8174 4.84593 10.8174C5.36593 10.8174 6.09593 11.0874 6.98593 12.3074C7.00593 13.1374 7.03593 13.9774 7.05593 14.8074C5.23593 14.7574 3.40594 14.7174 1.58594 14.6674C1.60594 13.4574 1.63594 12.2574 1.65594 11.0474L1.64594 11.0574Z" fill="#C7B39A"/>
</g>
</svg>
