<svg width="6" height="19" viewBox="0 0 6 19" fill="none" xmlns="http://www.w3.org/2000/svg">
<mask id="mask0_254_19217" style="mask-type:luminance" maskUnits="userSpaceOnUse" x="1" y="0" width="4" height="14">
<path d="M4.91359 13.1272C4.03359 9.65716 3.85359 6.47715 3.86359 2.53715C3.86359 2.00715 3.7036 1.47715 3.3736 1.05715C2.9436 0.517153 2.60359 0.607154 2.34359 1.15715C2.17359 1.51715 2.17359 1.91715 2.14359 2.31715C1.72359 7.30715 1.55359 9.32716 1.43359 13.1272H4.92359H4.91359Z" fill="white"/>
</mask>
<g mask="url(#mask0_254_19217)">
<path opacity="0.7" d="M0.563904 10.5867C0.943904 10.6667 1.51391 10.7367 2.18391 10.6667C2.99391 10.5767 3.27391 10.3467 3.76391 10.3467C4.28391 10.3467 5.01391 10.6167 5.90391 11.8367C5.92391 12.6667 5.95391 13.5067 5.97391 14.3367C4.15391 14.2867 2.32391 14.2467 0.503906 14.1967C0.523906 12.9867 0.553906 11.7867 0.573906 10.5767L0.563904 10.5867Z" fill="#C7B39A"/>
</g>
</svg>
