<svg width="7" height="22" viewBox="0 0 7 22" fill="none" xmlns="http://www.w3.org/2000/svg">
<mask id="mask0_254_19205" style="mask-type:luminance" maskUnits="userSpaceOnUse" x="1" y="0" width="5" height="15">
<path d="M5.47311 14.7765C4.67311 11.4065 4.30311 7.45651 4.11311 2.10651C4.09311 1.54651 3.80312 1.01651 3.29312 0.77651C2.91312 0.59651 2.60311 0.65651 2.36311 0.96651C2.19311 1.18651 2.12312 1.47651 2.13312 1.76651C2.37312 6.57651 2.07313 10.6565 1.20312 14.7865H5.47311V14.7765Z" fill="white"/>
</mask>
<g mask="url(#mask0_254_19205)">
<path opacity="0.7" d="M0.903748 12.1365C1.28375 12.2165 1.85374 12.2865 2.52374 12.2165C3.33374 12.1265 3.61374 11.8965 4.10374 11.8965C4.62374 11.8965 5.35374 12.1665 6.24374 13.3865C6.26374 14.2165 6.29375 15.0565 6.31375 15.8865C4.49375 15.8365 2.66375 15.7965 0.84375 15.7465C0.86375 14.5365 0.893742 13.3365 0.913742 12.1265L0.903748 12.1365Z" fill="#C7B39A"/>
</g>
</svg>
