<svg width="11" height="20" viewBox="0 0 11 20" fill="none" xmlns="http://www.w3.org/2000/svg">
<mask id="mask0_254_19191" style="mask-type:luminance" maskUnits="userSpaceOnUse" x="0" y="0" width="11" height="15">
<path d="M8.35487 14.1965C9.95487 10.7765 10.4149 6.86651 10.5949 2.43651C10.5949 2.25651 10.5949 2.07651 10.5549 1.90651C10.4049 1.14651 9.69487 0.966508 9.35487 1.79651C9.31487 1.89651 9.28487 2.01651 9.26487 2.12651C8.91487 4.66651 8.38486 6.98651 7.52486 8.85651C7.46486 8.98651 7.42486 9.12651 7.33486 9.24651C6.91486 9.81651 6.26487 9.99651 5.60487 9.98651C4.97487 9.97651 4.39487 9.68651 3.96487 9.24651C3.73487 9.00651 3.54486 8.72651 3.41486 8.40651C2.70486 6.70651 2.56486 4.73651 2.25486 2.66651C2.17486 2.14651 2.04486 1.61651 1.69486 1.22651C1.04486 0.506509 0.514872 0.866508 0.454872 2.14651C0.234872 6.84651 1.48486 11.3865 3.08486 14.2165H8.34487L8.35487 14.1965Z" fill="white"/>
</mask>
<g mask="url(#mask0_254_19191)">
<path opacity="0.7" d="M11.3056 10.6962C10.5856 10.8262 9.45562 10.9862 8.07562 10.9562C5.92562 10.9062 5.05562 10.4562 3.32562 10.5162C2.42562 10.5462 1.10563 10.7362 -0.484375 11.4662C-0.484375 13.0262 -0.484375 14.5762 -0.484375 16.1362H11.3456C11.3356 14.3262 11.3256 12.5162 11.3156 10.6962H11.3056Z" fill="#C7B39A"/>
</g>
</svg>
