<svg width="14" height="20" viewBox="0 0 14 20" fill="none" xmlns="http://www.w3.org/2000/svg">
<mask id="mask0_254_19401" style="mask-type:luminance" maskUnits="userSpaceOnUse" x="0" y="0" width="14" height="14">
<path d="M8.73248 13.6969C10.5925 10.5469 12.0725 6.5669 13.2025 2.4569C13.3225 1.9969 13.2425 1.4869 12.9225 1.1369C12.6025 0.776902 12.2625 0.826902 11.9025 1.4369C11.0125 4.2169 9.81247 6.6369 8.13247 8.4769C6.68247 9.7469 5.28248 9.9169 3.95248 8.9569C3.91248 8.9269 3.88248 8.8969 3.84248 8.8669C2.59248 7.2069 2.44248 4.7169 2.65248 1.9469C2.68248 1.5169 2.59248 1.0769 2.32248 0.736902C2.03248 0.366902 1.73248 0.386902 1.42248 0.796902C1.25248 1.0369 1.14248 1.3169 1.09248 1.6069C0.262479 6.1369 0.342473 10.2369 1.74247 13.6769H8.73248V13.6969Z" fill="white"/>
</mask>
<g mask="url(#mask0_254_19401)">
<path opacity="0.7" d="M11.5433 9.79675C10.8233 9.92675 9.71329 10.0768 8.34329 10.0468C6.21329 9.99675 5.35328 9.54675 3.64328 9.61675C2.75328 9.64675 1.44328 9.83675 -0.136719 10.5567C-0.136719 12.0967 -0.136719 13.6368 -0.136719 15.1868H11.5833C11.5733 13.3868 11.5633 11.5968 11.5533 9.79675H11.5433Z" fill="#C7B39A"/>
</g>
</svg>
