<svg width="6" height="19" viewBox="0 0 6 19" fill="none" xmlns="http://www.w3.org/2000/svg">
<mask id="mask0_254_19262" style="mask-type:luminance" maskUnits="userSpaceOnUse" x="1" y="6" width="4" height="13">
<path d="M4.98812 6.42676V6.91676C4.43812 10.3668 4.24813 13.6468 4.58813 16.6968C4.70813 17.9968 4.41812 18.3268 3.80812 17.9168C3.35812 17.6168 3.04812 17.1368 2.88812 16.6168C2.03812 13.8868 1.56812 10.3868 1.32812 6.42676H4.98812Z" fill="white"/>
</mask>
<g mask="url(#mask0_254_19262)">
<path opacity="0.7" d="M6.62922 9.74672C6.21922 9.66672 5.58921 9.57672 4.84921 9.65672C3.95921 9.75672 3.64922 10.0067 3.11922 10.0067C2.54922 10.0067 1.74922 9.71672 0.769218 8.37672C0.749218 7.46672 0.719219 6.54672 0.699219 5.63672C2.69922 5.68672 4.69922 5.73672 6.69922 5.78672C6.67922 7.10672 6.64922 8.42672 6.62922 9.74672Z" fill="#C7B39A"/>
</g>
</svg>
