<svg width="13" height="19" viewBox="0 0 13 19" fill="none" xmlns="http://www.w3.org/2000/svg">
<mask id="mask0_254_19241" style="mask-type:luminance" maskUnits="userSpaceOnUse" x="1" y="7" width="12" height="12">
<path d="M10.2159 7.4768C12.0459 10.1068 12.9859 13.6768 12.9859 17.4068C12.9259 18.4968 12.5859 18.7368 12.0259 18.2668C11.6859 17.9868 11.4659 17.5768 11.3759 17.1468C10.8259 14.7168 10.0559 12.6868 8.91592 11.2968C7.58592 9.9568 6.44592 10.0268 5.44592 11.0768C4.16592 12.2368 3.49592 14.0968 3.14592 16.3068C3.09592 16.6368 2.98593 16.9668 2.79593 17.2468C2.41593 17.8168 2.02593 17.8568 1.62593 17.3168C1.42593 17.0468 1.31593 16.7268 1.26593 16.3968C0.855928 13.3168 1.39593 10.3868 2.84593 7.59679C2.86593 7.55679 2.88592 7.5168 2.91592 7.4668H10.2159V7.4768Z" fill="white"/>
</mask>
<g mask="url(#mask0_254_19241)">
<path opacity="0.7" d="M12.8273 10.6566C11.4673 10.0466 10.3173 9.85656 9.50734 9.80656C7.09734 9.65656 5.94734 10.5866 3.86734 10.1866C2.61734 9.94657 1.67735 9.35656 1.07735 8.89656C1.05735 7.67656 1.04734 6.44656 1.02734 5.22656H12.8573C12.8473 7.03656 12.8373 8.84656 12.8273 10.6666V10.6566Z" fill="#C7B39A"/>
</g>
</svg>
