<svg width="5" height="19" viewBox="0 0 5 19" fill="none" xmlns="http://www.w3.org/2000/svg">
<mask id="mask0_254_19317" style="mask-type:luminance" maskUnits="userSpaceOnUse" x="0" y="6" width="5" height="13">
<path d="M0.636719 6.50684V6.99683C1.18672 10.4468 1.37672 13.7268 1.03672 16.7768C0.91672 18.0768 1.20672 18.4068 1.81672 17.9968C2.26672 17.6968 2.57672 17.2168 2.73672 16.6968C3.58672 13.9668 4.05672 10.4668 4.29672 6.50684H0.636719Z" fill="white"/>
</mask>
<g mask="url(#mask0_254_19317)">
<path opacity="0.7" d="M-1.01203 9.83657C-0.602032 9.75657 0.0279672 9.66656 0.767967 9.74656C1.65797 9.84656 1.96797 10.0966 2.49797 10.0966C3.06797 10.0966 3.86797 9.80656 4.84797 8.46656C4.86797 7.55656 4.89796 6.63656 4.91796 5.72656C2.91796 5.77656 0.917969 5.82656 -1.08203 5.87656C-1.06203 7.19656 -1.03203 8.51657 -1.01203 9.83657Z" fill="#C7B39A"/>
</g>
</svg>
