<svg width="7" height="22" viewBox="0 0 7 22" fill="none" xmlns="http://www.w3.org/2000/svg">
<mask id="mask0_254_19306" style="mask-type:luminance" maskUnits="userSpaceOnUse" x="1" y="8" width="5" height="14">
<path d="M1.54688 8.01683C2.20688 12.2668 2.58687 16.4168 2.63687 20.4568C2.63687 20.7368 2.69687 21.0268 2.83687 21.2768C3.05687 21.6668 3.34687 21.7268 3.70687 21.4568C4.04687 21.2068 4.25687 20.8268 4.33687 20.4168C5.16687 16.4868 5.56687 12.3368 5.66687 8.00684H1.54688V8.01683Z" fill="white"/>
</mask>
<g mask="url(#mask0_254_19306)">
<path opacity="0.7" d="M0.47625 11.3668C0.88625 11.2868 1.51625 11.1968 2.25625 11.2768C3.14625 11.3768 3.45625 11.6268 3.98625 11.6268C4.55625 11.6268 5.35625 11.3368 6.33625 9.99683C6.35625 9.08683 6.38625 8.16684 6.40625 7.25684C4.40625 7.30684 2.40625 7.35684 0.40625 7.40684C0.42625 8.72684 0.45625 10.0468 0.47625 11.3668Z" fill="#C7B39A"/>
</g>
</svg>
