<svg width="13" height="19" viewBox="0 0 13 19" fill="none" xmlns="http://www.w3.org/2000/svg">
<mask id="mask0_254_19296" style="mask-type:luminance" maskUnits="userSpaceOnUse" x="0" y="7" width="13" height="12">
<path d="M3.395 7.55687C1.565 10.1869 0.625 13.7569 0.625 17.4869C0.685 18.5769 1.025 18.8169 1.585 18.3469C1.925 18.0669 2.145 17.6569 2.235 17.2269C2.785 14.7969 3.555 12.7669 4.695 11.3769C6.025 10.0369 7.165 10.1069 8.165 11.1569C9.445 12.3169 10.115 14.1769 10.465 16.3869C10.515 16.7169 10.625 17.0469 10.815 17.3269C11.195 17.8969 11.585 17.9369 11.985 17.3969C12.185 17.1269 12.295 16.8069 12.345 16.4769C12.755 13.3969 12.215 10.4669 10.765 7.67687C10.745 7.63687 10.725 7.59688 10.695 7.54688H3.395V7.55687Z" fill="white"/>
</mask>
<g mask="url(#mask0_254_19296)">
<path opacity="0.7" d="M0.795625 10.7464C2.15563 10.1364 3.30563 9.94641 4.11563 9.89641C6.52563 9.74641 7.67562 10.6764 9.75562 10.2764C11.0056 10.0364 11.9456 9.4464 12.5456 8.9864C12.5656 7.7664 12.5756 6.53641 12.5956 5.31641H0.765625C0.775625 7.12641 0.785625 8.93641 0.795625 10.7564V10.7464Z" fill="#C7B39A"/>
</g>
</svg>
