<svg width="13" height="25" viewBox="0 0 13 25" fill="none" xmlns="http://www.w3.org/2000/svg">
<mask id="mask0_229_1165" style="mask-type:luminance" maskUnits="userSpaceOnUse" x="0" y="14" width="13" height="11">
<path d="M1.15407 16.2766C0.104074 18.5666 -0.0159343 21.6066 1.61407 22.6066C3.24407 23.6066 4.30407 22.6066 5.13407 22.8466C5.96407 23.0866 8.39407 25.6966 10.3641 23.6166C12.0341 21.8566 13.0441 16.6866 12.1641 15.4666C10.2741 12.8466 8.63408 15.8366 5.98408 14.3566C4.83408 13.7166 2.19407 14.0166 1.16407 16.2666L1.15407 16.2766Z" fill="white"/>
</mask>
<g mask="url(#mask0_229_1165)">
<path opacity="0.75" d="M7.15252 25.5466C7.15252 25.5466 8.64252 21.5166 5.46252 21.5166C2.64252 21.5166 3.74252 25.5666 3.74252 25.5666L7.15252 25.5466Z" fill="#3A3A3A" stroke="#3A3A3A" stroke-width="0.2" stroke-linecap="round" stroke-linejoin="round"/>
</g>
</svg>
