<svg width="11" height="24" viewBox="0 0 11 24" fill="none" xmlns="http://www.w3.org/2000/svg">
<mask id="mask0_229_1150" style="mask-type:luminance" maskUnits="userSpaceOnUse" x="0" y="13" width="11" height="11">
<path d="M0.93297 16.4973C0.162971 18.2173 0.502964 22.8873 2.22296 22.8873C3.94296 22.8873 4.37297 22.6173 5.01297 23.2673C5.65297 23.9173 6.62297 22.9473 7.16297 23.0573C7.70297 23.1673 9.67297 24.6073 10.213 21.7173C10.763 18.8173 10.813 14.5173 9.14296 14.8473C5.02296 15.6473 6.03297 11.3073 2.80297 15.7073C2.21297 16.5173 1.56298 15.0673 0.922976 16.5173L0.93297 16.4973Z" fill="white"/>
</mask>
<g mask="url(#mask0_229_1150)">
<path opacity="0.75" d="M6.81162 25.4973C6.81162 25.4973 8.65161 21.5273 5.47161 21.5273C2.65161 21.5273 4.16161 25.4673 4.16161 25.4673L6.81162 25.4973Z" fill="#3A3A3A" stroke="#3A3A3A" stroke-width="0.2" stroke-linecap="round" stroke-linejoin="round"/>
</g>
</svg>
