<svg width="10" height="32" viewBox="0 0 10 32" fill="none" xmlns="http://www.w3.org/2000/svg">
<mask id="mask0_229_823" style="mask-type:luminance" maskUnits="userSpaceOnUse" x="0" y="19" width="10" height="13">
<path d="M9.3847 28.0668C9.8747 26.0168 8.6047 23.2768 8.3547 22.0268C8.1147 20.7768 6.30468 19.1568 4.98468 19.2468C3.66468 19.3468 1.95468 20.3968 1.73468 21.2368C0.594677 25.5968 -0.6453 27.8668 1.4147 30.2668C2.7347 31.7968 4.78469 31.9468 6.24469 30.6968C7.70469 29.4468 8.83468 30.3168 9.36468 28.0668H9.3847Z" fill="white"/>
</mask>
<g mask="url(#mask0_229_823)">
<path opacity="0.75" d="M3.39433 33.3468C3.34433 32.9068 2.42435 29.7168 4.91435 29.7168C7.67435 29.7168 6.75434 33.2968 6.75434 33.2968L3.39433 33.3368V33.3468Z" fill="#3A3A3A" stroke="#3A3A3A" stroke-width="0.5" stroke-linecap="round" stroke-linejoin="round"/>
</g>
</svg>
