<svg width="11" height="28" viewBox="0 0 11 28" fill="none" xmlns="http://www.w3.org/2000/svg">
<mask id="mask0_229_1401" style="mask-type:luminance" maskUnits="userSpaceOnUse" x="0" y="15" width="11" height="13">
<path d="M10.9241 23.457C10.9241 21.507 9.94415 18.037 9.21415 17.157C8.48415 16.277 6.87416 15.497 5.65416 15.667C4.43416 15.837 3.99416 17.247 3.06416 17.207C2.14416 17.167 1.30415 16.967 1.11415 18.717C0.914147 20.477 0.524168 20.617 0.354168 21.747C0.184168 22.867 -0.205854 23.827 1.89415 24.667C3.99415 25.507 4.51416 28.047 6.37416 27.487C8.24416 26.927 7.99416 25.857 9.31416 25.367C10.6342 24.877 10.9241 24.197 10.9241 23.467V23.457Z" fill="white"/>
</mask>
<g mask="url(#mask0_229_1401)">
<path opacity="0.75" d="M4.11524 29.3571C4.11524 29.3571 3.52525 25.5771 5.91525 25.5771C8.69525 25.5771 8.09525 29.2771 8.09525 29.2771L4.11524 29.3571Z" fill="#3A3A3A" stroke="#3A3A3A" stroke-width="0.5" stroke-linecap="round" stroke-linejoin="round"/>
</g>
</svg>
