<svg width="10" height="27" viewBox="0 0 10 27" fill="none" xmlns="http://www.w3.org/2000/svg">
<mask id="mask0_229_847" style="mask-type:luminance" maskUnits="userSpaceOnUse" x="0" y="15" width="10" height="12">
<path d="M9.09341 24.5661C8.60341 25.3961 6.9834 25.2461 6.7334 25.9361C6.4934 26.6161 4.06342 26.9161 3.38342 25.7361C2.70342 24.5661 1.43342 24.1261 1.13342 23.0061C0.843422 21.8861 0.503422 17.4861 1.13342 17.0461C1.76342 16.6061 2.83341 17.1461 3.37341 16.5561C3.91341 15.9661 5.2534 14.3561 6.1734 15.3861C7.0934 16.4161 7.2534 17.1461 8.0134 17.2661C9.6834 17.5261 9.44341 23.9661 9.09341 24.5661Z" fill="white"/>
</mask>
<g mask="url(#mask0_229_847)">
<path opacity="0.75" d="M3.26171 28.6463C3.26171 28.6463 2.32172 24.5863 4.74172 24.4863C7.85172 24.3563 7.02172 28.6863 7.02172 28.6863L3.26171 28.6463Z" fill="#3A3A3A" stroke="#3A3A3A" stroke-width="0.2" stroke-linecap="round" stroke-linejoin="round"/>
</g>
</svg>
