<svg width="13" height="25" viewBox="0 0 13 25" fill="none" xmlns="http://www.w3.org/2000/svg">
<mask id="mask0_229_1069" style="mask-type:luminance" maskUnits="userSpaceOnUse" x="0" y="14" width="13" height="11">
<path d="M11.956 16.2961C13.006 18.5861 13.126 21.6261 11.496 22.6261C9.82599 23.6561 8.80601 22.6261 7.97601 22.8661C7.14601 23.1061 4.71599 25.7161 2.74599 23.6361C1.07599 21.8761 0.0660064 16.7061 0.946006 15.4861C2.83601 12.8661 4.476 15.8561 7.126 14.3761C8.276 13.7361 10.916 14.0361 11.946 16.2861L11.956 16.2961Z" fill="white"/>
</mask>
<g mask="url(#mask0_229_1069)">
<path opacity="0.75" d="M5.94636 25.5661C5.94636 25.5661 4.45636 21.5361 7.63636 21.5361C10.4564 21.5361 9.35636 25.5861 9.35636 25.5861L5.94636 25.5661Z" fill="#3A3A3A" stroke="#3A3A3A" stroke-width="0.2" stroke-linecap="round" stroke-linejoin="round"/>
</g>
</svg>
