<svg width="8" height="24" viewBox="0 0 8 24" fill="none" xmlns="http://www.w3.org/2000/svg">
<mask id="mask0_229_945" style="mask-type:luminance" maskUnits="userSpaceOnUse" x="0" y="0" width="8" height="12">
<path d="M7.28493 8.86705C7.03493 10.277 5.93491 9.84705 5.39491 10.567C4.85491 11.287 3.71492 11.407 2.99492 10.567C2.27492 9.72705 0.89492 9.50705 0.77492 8.14705C0.65492 6.78705 -0.18508 1.71705 0.77492 1.04705C1.73492 0.387045 6.70492 0.0370454 7.27492 1.04705C7.84492 2.05705 7.56492 7.22705 7.27492 8.86705H7.28493Z" fill="white"/>
</mask>
<g mask="url(#mask0_229_945)">
<path opacity="0.75" d="M5.14612 -1.71289C5.14612 -1.71289 6.85613 2.08711 3.90613 2.08711C1.28613 2.08711 2.68613 -1.68289 2.68613 -1.68289L5.14612 -1.71289Z" fill="#3A3A3A" stroke="#3A3A3A" stroke-width="0.2" stroke-linecap="round" stroke-linejoin="round"/>
</g>
</svg>
