<svg width="9" height="25" viewBox="0 0 9 25" fill="none" xmlns="http://www.w3.org/2000/svg">
<mask id="mask0_229_873" style="mask-type:luminance" maskUnits="userSpaceOnUse" x="0" y="0" width="9" height="12">
<path d="M7.0934 0.617408C6.0934 0.187408 4.8834 1.19741 4.4334 0.887409C3.9834 0.577409 1.73339 -0.00259095 1.14339 0.907409C0.553388 1.81741 -0.10659 6.21741 0.35341 7.82741C0.80341 9.43741 3.2834 12.2974 4.2134 11.8874C5.1434 11.4774 7.5134 9.78741 7.6834 9.27741C8.2534 7.57741 8.54341 1.23741 7.10341 0.617408H7.0934Z" fill="white"/>
</mask>
<g mask="url(#mask0_229_873)">
<path opacity="0.75" d="M5.69538 -1.64258C5.69538 -1.64258 7.52536 2.48742 4.36536 2.48742C1.56536 2.48742 3.06538 -1.60258 3.06538 -1.60258L5.69538 -1.63258V-1.64258Z" fill="#3A3A3A" stroke="#3A3A3A" stroke-width="0.5" stroke-linecap="round" stroke-linejoin="round"/>
</g>
</svg>
