<svg width="13" height="23" viewBox="0 0 13 23" fill="none" xmlns="http://www.w3.org/2000/svg">
<mask id="mask0_229_897" style="mask-type:luminance" maskUnits="userSpaceOnUse" x="0" y="0" width="13" height="10">
<path d="M11.3249 7.96717C12.2049 6.13717 12.6849 2.51717 10.4549 1.37717C8.22486 0.237171 6.55486 1.44717 5.48486 0.777168C4.41486 0.107168 1.19488 -0.722831 0.534881 1.95717C-0.125119 4.63717 0.404874 6.85717 0.714874 7.62717C1.02487 8.38717 1.97488 8.13717 2.78488 7.96717C3.59488 7.80717 5.04489 9.36717 5.88489 9.37717C7.95489 9.39717 8.63488 7.53717 9.62488 7.62717C10.6149 7.71717 10.8849 8.89717 11.3349 7.96717H11.3249Z" fill="white"/>
</mask>
<g mask="url(#mask0_229_897)">
<path opacity="0.75" d="M7.39458 -1.55273C7.39458 -1.55273 9.2246 2.57727 6.0646 2.57727C3.2646 2.57727 4.76458 -1.51273 4.76458 -1.51273L7.39458 -1.54274V-1.55273Z" fill="#3A3A3A" stroke="#3A3A3A" stroke-width="0.2" stroke-linecap="round" stroke-linejoin="round"/>
</g>
</svg>
