<svg width="9" height="25" viewBox="0 0 9 25" fill="none" xmlns="http://www.w3.org/2000/svg">
<mask id="mask0_229_970" style="mask-type:luminance" maskUnits="userSpaceOnUse" x="0" y="0" width="9" height="12">
<path d="M2.03431 0.577373C3.03431 0.147373 4.24431 1.15737 4.69431 0.84737C5.14431 0.53737 7.39429 -0.04263 7.98429 0.86737C8.57429 1.77737 9.2343 6.17737 8.7743 7.78737C8.3243 9.39737 5.84431 12.2574 4.91431 11.8474C3.98431 11.4374 1.61431 9.74737 1.44431 9.23737C0.874312 7.53737 0.584298 1.19737 2.0243 0.577373H2.03431Z" fill="white"/>
</mask>
<g mask="url(#mask0_229_970)">
<path opacity="0.75" d="M3.42547 -1.68262C3.42547 -1.68262 1.59549 2.44738 4.75549 2.44738C7.55549 2.44738 6.05547 -1.64262 6.05547 -1.64262L3.42547 -1.67262V-1.68262Z" fill="#3A3A3A" stroke="#3A3A3A" stroke-width="0.5" stroke-linecap="round" stroke-linejoin="round"/>
</g>
</svg>
