<svg width="9" height="30" viewBox="0 0 9 30" fill="none" xmlns="http://www.w3.org/2000/svg">
<mask id="mask0_229_1018" style="mask-type:luminance" maskUnits="userSpaceOnUse" x="0" y="0" width="9" height="13">
<path d="M2.03632 10.2972C0.716323 8.42722 0.576324 4.97721 0.786324 4.04721C0.996324 3.11721 4.2863 0.137217 5.0763 0.167217C5.8663 0.197217 8.23631 1.11722 8.61631 2.00722C9.00631 2.88722 8.79632 7.06722 8.09632 8.90722C7.39632 10.7472 4.82631 12.7572 4.20631 12.4372C3.58631 12.1072 2.72632 11.2972 2.03632 10.3072V10.2972Z" fill="white"/>
</mask>
<g mask="url(#mask0_229_1018)">
<path opacity="0.75" d="M3.85517 -1.89258C3.85517 -1.89258 2.02516 2.23742 5.18516 2.23742C7.98516 2.23742 6.48515 -1.85258 6.48515 -1.85258L3.85517 -1.88258V-1.89258Z" fill="#3A3A3A" stroke="#3A3A3A" stroke-width="0.2" stroke-linecap="round" stroke-linejoin="round"/>
</g>
</svg>
