<svg width="11" height="24" viewBox="0 0 11 24" fill="none" xmlns="http://www.w3.org/2000/svg">
<mask id="mask0_229_958" style="mask-type:luminance" maskUnits="userSpaceOnUse" x="0" y="0" width="11" height="12">
<path d="M0.584207 6.70724C0.164207 4.91724 0.624208 2.92724 1.94421 2.09724C3.26421 1.26724 5.48422 -0.28276 6.56422 0.13724C7.64422 0.55724 7.77421 1.05724 8.49421 1.36724C9.21421 1.67724 10.3742 3.14724 10.2742 5.12724C10.1742 7.10724 8.52422 8.50724 8.17422 9.29724C7.82422 10.0872 5.27421 12.4572 3.60421 10.8372C1.93421 9.21724 1.32421 9.86724 0.574213 6.70724H0.584207Z" fill="white"/>
</mask>
<g mask="url(#mask0_229_958)">
<path opacity="0.75" d="M4.58563 -1.99316C4.58563 -1.99316 2.75564 2.13683 5.91564 2.13683C8.71564 2.13683 7.21564 -1.95317 7.21564 -1.95317L4.58563 -1.98317V-1.99316Z" fill="#3A3A3A" stroke="#3A3A3A" stroke-width="0.2" stroke-linecap="round" stroke-linejoin="round"/>
</g>
</svg>
