<svg width="12" height="23" viewBox="0 0 12 23" fill="none" xmlns="http://www.w3.org/2000/svg">
<mask id="mask0_229_994" style="mask-type:luminance" maskUnits="userSpaceOnUse" x="0" y="0" width="12" height="10">
<path d="M0.794505 7.92615C-0.0854952 6.09615 -0.5655 2.47615 1.6645 1.33615C3.8945 0.196151 5.5645 1.40615 6.6345 0.736153C7.7045 0.0661527 10.9245 -0.763847 11.5845 1.91615C12.2345 4.59615 11.7145 6.81615 11.4045 7.58615C11.0945 8.34615 10.1445 8.09615 9.3345 7.92615C8.5245 7.76615 7.07451 9.32615 6.23451 9.33615C4.16451 9.35615 3.4845 7.49615 2.4945 7.58615C1.5045 7.67615 1.23451 8.85615 0.78451 7.92615H0.794505Z" fill="white"/>
</mask>
<g mask="url(#mask0_229_994)">
<path opacity="0.75" d="M4.73407 -1.59375C4.73407 -1.59375 2.90407 2.53625 6.06407 2.53625C8.86407 2.53625 7.36406 -1.55375 7.36406 -1.55375L4.73407 -1.58375V-1.59375Z" fill="#3A3A3A" stroke="#3A3A3A" stroke-width="0.2" stroke-linecap="round" stroke-linejoin="round"/>
</g>
</svg>
