<svg width="8" height="20" viewBox="0 0 8 20" fill="none" xmlns="http://www.w3.org/2000/svg">
<mask id="mask0_229_1393" style="mask-type:luminance" maskUnits="userSpaceOnUse" x="0" y="12" width="8" height="8">
<path d="M5.93532 13.7762C6.10532 13.9962 6.24532 14.2362 6.34532 14.4962C7.32532 16.8562 7.86532 18.9362 5.94532 19.5062C4.10532 19.5662 2.26532 19.6262 1.35532 19.2862C0.175319 18.4162 -0.0146823 17.0362 0.385318 15.3662C0.485318 14.9462 0.655318 14.5362 0.885318 14.1762C1.34532 13.4462 2.05532 12.8962 2.91532 12.6962C3.29532 12.6062 3.67532 12.5862 4.04532 12.6362C4.80532 12.7462 5.47532 13.1762 5.93532 13.7762Z" fill="white"/>
</mask>
<g mask="url(#mask0_229_1393)">
<path opacity="0.75" d="M3.08514 20.1159C3.08514 20.1159 2.01514 18.0459 3.86514 18.0459C5.50514 18.0459 4.62514 20.0959 4.62514 20.0959L3.08514 20.1159Z" fill="#3A3A3A" stroke="#3A3A3A" stroke-width="0.2" stroke-linecap="round" stroke-linejoin="round"/>
</g>
</svg>
