<svg width="7" height="22" viewBox="0 0 7 22" fill="none" xmlns="http://www.w3.org/2000/svg">
<mask id="mask0_229_1373" style="mask-type:luminance" maskUnits="userSpaceOnUse" x="0" y="13" width="7" height="9">
<path d="M1.16036 14.7762C1.38036 14.4462 1.65036 14.1562 1.98036 13.9262C3.07036 13.1462 4.19036 13.2562 5.33036 14.4362C6.10036 15.6762 6.48036 16.9262 6.20036 18.1562C5.84036 19.3662 5.16036 20.3262 4.25036 21.1162C3.93036 21.3962 3.52036 21.5362 3.10036 21.5362H2.83036C2.65036 21.5362 2.46036 21.5162 2.29036 21.4562C0.470358 20.8362 -0.0496438 18.9962 0.620356 16.0662C0.720356 15.6062 0.910355 15.1662 1.17036 14.7762H1.16036Z" fill="white"/>
</mask>
<g mask="url(#mask0_229_1373)">
<path opacity="0.75" d="M2.2723 22.3264C2.2723 22.3264 1.1623 20.0264 3.0823 20.0264C4.7823 20.0264 3.8723 22.3064 3.8723 22.3064L2.2723 22.3264Z" fill="#3A3A3A" stroke="#3A3A3A" stroke-width="0.2" stroke-linecap="round" stroke-linejoin="round"/>
</g>
</svg>
