<svg width="11" height="20" viewBox="0 0 11 20" fill="none" xmlns="http://www.w3.org/2000/svg">
<mask id="mask0_229_1293" style="mask-type:luminance" maskUnits="userSpaceOnUse" x="1" y="12" width="9" height="8">
<path d="M3.08341 13.7164C2.87341 13.9364 2.66341 14.1964 2.46341 14.4764C1.80341 15.3364 1.39342 16.4364 1.42342 17.9464C1.47342 18.8164 1.82341 19.2264 2.40341 19.3164C2.80341 19.3764 3.22341 19.2564 3.54341 19.0064C3.87341 18.7464 4.22341 18.8364 4.58341 19.0964C4.94341 19.3564 5.35341 19.5264 5.79341 19.5264C6.61341 19.5264 7.40341 19.4264 8.19341 19.2364C8.82341 19.1664 9.21341 18.7364 9.23341 17.8064C9.41341 16.7764 9.26341 15.7564 8.77341 14.7364C8.68341 14.5564 8.56342 14.3864 8.42342 14.2364C8.40342 14.2164 8.39341 14.1964 8.37341 14.1864C6.55341 12.2264 4.78341 11.9064 3.10341 13.7064L3.08341 13.7164Z" fill="white"/>
</mask>
<g mask="url(#mask0_229_1293)">
<path opacity="0.75" d="M6.27338 20.6968C6.27338 20.6968 7.61338 17.9268 5.30338 17.9268C3.26338 17.9268 4.35338 20.6668 4.35338 20.6668L6.27338 20.6868V20.6968Z" fill="#3A3A3A" stroke="#3A3A3A" stroke-width="0.2" stroke-linecap="round" stroke-linejoin="round"/>
</g>
</svg>
