<svg width="14" height="20" viewBox="0 0 14 20" fill="none" xmlns="http://www.w3.org/2000/svg">
<mask id="mask0_229_1282" style="mask-type:luminance" maskUnits="userSpaceOnUse" x="0" y="12" width="11" height="8">
<path d="M1.74431 13.6967C1.61431 13.8467 1.48431 13.9967 1.35431 14.1667C0.24431 15.7867 -0.415683 17.3267 0.954317 18.5467C1.90432 19.2767 3.29431 19.4767 4.83431 19.4967C5.10431 19.4967 5.33431 19.3467 5.47431 19.1267C5.75431 18.6967 6.28431 18.8967 6.91431 19.3267C7.10431 19.4567 7.32431 19.5367 7.55431 19.5467C8.09431 19.5767 8.55431 19.4667 8.97431 19.2367C9.90431 18.7367 10.4043 17.6967 10.3343 16.6467C10.3143 16.2367 10.2443 15.8367 10.1443 15.4467C9.9543 14.6467 9.48431 13.9467 8.82431 13.4567C6.13431 11.4967 3.75431 11.4567 1.74431 13.7067V13.6967Z" fill="white"/>
</mask>
<g mask="url(#mask0_229_1282)">
<path opacity="0.75" d="M6.80291 20.7065C6.80291 20.7065 8.28291 17.6465 5.73291 17.6465C3.47291 17.6465 4.68291 20.6765 4.68291 20.6765L6.80291 20.7065Z" fill="#3A3A3A" stroke="#3A3A3A" stroke-width="0.2" stroke-linecap="round" stroke-linejoin="round"/>
</g>
</svg>
