<svg width="6" height="19" viewBox="0 0 6 19" fill="none" xmlns="http://www.w3.org/2000/svg">
<mask id="mask0_229_1255" style="mask-type:luminance" maskUnits="userSpaceOnUse" x="0" y="0" width="6" height="8">
<path d="M1.31647 6.42665C1.41647 6.64665 1.55648 6.85665 1.72648 7.02665C2.43648 7.73665 3.14648 7.97665 3.87648 7.77665C4.35648 7.64665 4.73648 7.32665 4.97648 6.91665C5.13648 6.64665 5.23647 6.33665 5.25647 6.01665L5.55647 2.42665C5.50647 1.88665 5.37648 1.41665 5.15648 1.01665C4.91648 0.586648 4.45647 0.306646 3.95647 0.276646L1.48647 0.116646C0.856471 0.0866464 0.656475 0.246646 0.686475 1.02665C0.686475 1.22665 0.706477 1.42665 0.696477 1.62665C0.656477 3.21665 0.776472 4.62665 1.13647 5.75665C1.15647 5.98665 1.21647 6.21665 1.31647 6.42665Z" fill="white"/>
</mask>
<g mask="url(#mask0_229_1255)">
<path opacity="0.75" d="M2.32657 -0.403088C2.32657 -0.403088 1.32656 1.66692 3.05656 1.66692C4.58656 1.66692 3.76657 -0.393085 3.76657 -0.393085L2.32657 -0.413086V-0.403088Z" fill="#3A3A3A" stroke="#3A3A3A" stroke-width="0.2" stroke-linecap="round" stroke-linejoin="round"/>
</g>
</svg>
