<svg width="7" height="22" viewBox="0 0 7 22" fill="none" xmlns="http://www.w3.org/2000/svg">
<mask id="mask0_229_1235" style="mask-type:luminance" maskUnits="userSpaceOnUse" x="0" y="0" width="7" height="10">
<path d="M5.07622 7.9269C5.82622 6.9969 6.17622 5.7169 6.17622 4.1469C6.17622 3.6169 6.02622 3.0969 5.76622 2.6369C3.82622 -0.663104 2.03622 -0.933103 0.436219 2.6069C-0.0337813 4.7069 0.126217 6.48689 0.966217 7.91689C1.01622 8.00689 1.07622 8.0969 1.12622 8.1769C2.47622 10.2969 3.79621 10.3169 5.08621 7.91689L5.07622 7.9269Z" fill="white"/>
</mask>
<g mask="url(#mask0_229_1235)">
<path opacity="0.75" d="M2.37701 -0.333008C2.37701 -0.333008 1.337 1.81699 3.137 1.81699C4.727 1.81699 3.87701 -0.313011 3.87701 -0.313011L2.37701 -0.333008Z" fill="#3A3A3A" stroke="#3A3A3A" stroke-width="0.2" stroke-linecap="round" stroke-linejoin="round"/>
</g>
</svg>
