<svg width="12" height="19" viewBox="0 0 12 19" fill="none" xmlns="http://www.w3.org/2000/svg">
<mask id="mask0_229_1423" style="mask-type:luminance" maskUnits="userSpaceOnUse" x="1" y="0" width="10" height="10">
<path d="M9.76612 7.75692C10.0761 7.44692 10.3361 7.08691 10.5061 6.67691C10.9361 5.63691 11.0561 4.47691 10.9461 3.21691C10.8961 2.66691 10.6961 2.12691 10.3161 1.72691C9.60612 0.976909 8.66612 0.96691 7.54612 1.51691C6.98612 1.98691 6.27613 1.78691 5.49613 1.22691C4.28613 0.756909 3.26612 0.85691 2.43612 1.51691C1.61612 2.52691 1.57612 3.94691 2.28612 5.77691C2.55612 6.46691 2.92613 7.10691 3.41613 7.63691C3.67613 7.92691 3.97613 8.18691 4.30613 8.40691C5.89613 9.48691 7.57612 9.37691 9.33612 8.11691C9.49612 8.00691 9.63613 7.88691 9.77613 7.74691L9.76612 7.75692Z" fill="white"/>
</mask>
<g mask="url(#mask0_229_1423)">
<path opacity="0.75" d="M5.72738 0.166992C5.72738 0.166992 4.36737 2.97699 6.71737 2.97699C8.79737 2.97699 7.68737 0.186989 7.68737 0.186989L5.73737 0.166992H5.72738Z" fill="#3A3A3A" stroke="#3A3A3A" stroke-width="0.2" stroke-linecap="round" stroke-linejoin="round"/>
</g>
</svg>
