<svg width="13" height="19" viewBox="0 0 13 19" fill="none" xmlns="http://www.w3.org/2000/svg">
<mask id="mask0_229_1210" style="mask-type:luminance" maskUnits="userSpaceOnUse" x="0" y="0" width="12" height="9">
<path d="M10.3166 7.80667C10.7666 7.56667 11.1466 7.20667 11.3566 6.73667C11.5266 6.38667 11.6266 6.01667 11.6566 5.62667C11.8366 4.52667 11.8066 3.39667 11.6266 2.25668C11.5566 1.84668 11.3766 1.46667 11.0866 1.16667C10.6166 0.686675 10.1466 0.366672 9.65656 0.296672C8.91656 0.0466721 8.20655 0.136675 7.50655 0.506675H7.43656C6.94656 0.736675 6.47655 0.726675 6.00655 0.506675C4.45655 0.016675 3.00656 -0.0833253 1.74656 0.576675C1.39656 0.826675 1.14655 1.34667 1.00655 2.20667C0.876552 3.96667 1.44656 5.62667 2.51656 7.19667C2.61656 7.34667 2.72656 7.47667 2.85656 7.59667C3.03656 7.76667 3.24655 7.90667 3.47655 8.01667C5.84655 9.09667 8.11656 8.99667 10.3166 7.80667Z" fill="white"/>
</mask>
<g mask="url(#mask0_229_1210)">
<path opacity="0.75" d="M5.42702 -1.04371C5.42702 -1.04371 3.95701 1.98629 6.49701 1.98629C8.73701 1.98629 7.53702 -1.02371 7.53702 -1.02371L5.42702 -1.05371V-1.04371Z" fill="#3A3A3A" stroke="#3A3A3A" stroke-width="0.2" stroke-linecap="round" stroke-linejoin="round"/>
</g>
</svg>
