<svg width="12" height="18" viewBox="0 0 12 18" fill="none" xmlns="http://www.w3.org/2000/svg">
<mask id="mask0_229_1340" style="mask-type:luminance" maskUnits="userSpaceOnUse" x="1" y="0" width="10" height="9">
<path d="M2.27702 6.92683C1.96702 6.61683 1.70702 6.25683 1.53702 5.84683C1.10702 4.80683 0.987019 3.64683 1.09702 2.38683C1.14702 1.83683 1.34702 1.29683 1.72702 0.896832C2.43702 0.146832 3.37702 0.136829 4.49702 0.686829C5.05702 1.15683 5.76702 0.956832 6.54702 0.396832C7.75702 -0.0731677 8.77702 0.0268294 9.60702 0.686829C10.427 1.69683 10.467 3.11683 9.75702 4.94683C9.48702 5.63683 9.11702 6.27683 8.62702 6.80683C8.36702 7.09683 8.06702 7.35683 7.73702 7.57683C6.14702 8.65683 4.46702 8.54683 2.70702 7.28683C2.54702 7.17683 2.40702 7.05683 2.26702 6.91683L2.27702 6.92683Z" fill="white"/>
</mask>
<g mask="url(#mask0_229_1340)">
<path opacity="0.75" d="M6.31836 -0.672852C6.31836 -0.672852 7.67836 2.13715 5.32836 2.13715C3.24836 2.13715 4.35836 -0.652855 4.35836 -0.652855L6.30836 -0.672852H6.31836Z" fill="#3A3A3A" stroke="#3A3A3A" stroke-width="0.2" stroke-linecap="round" stroke-linejoin="round"/>
</g>
</svg>
