<svg width="10" height="28" viewBox="0 0 10 28" fill="none" xmlns="http://www.w3.org/2000/svg">
<mask id="mask0_289_9713" style="mask-type:luminance" maskUnits="userSpaceOnUse" x="0" y="14" width="10" height="14">
<path d="M1.48733 26.7992C1.71733 26.8592 2.73735 27.4292 4.19735 27.2892C5.10735 27.1992 6.23735 27.5692 7.34735 27.1592C7.90735 26.9492 8.55734 26.9192 9.18734 26.7092C9.87734 26.4792 9.92735 23.7592 9.69735 21.2192C9.46735 18.6792 8.95734 19.3292 8.12734 17.8992C4.50734 11.6692 4.08733 17.2592 2.29733 17.3892C1.15733 17.4692 -0.372671 26.3492 1.48733 26.7892V26.7992Z" fill="white"/>
</mask>
<g mask="url(#mask0_289_9713)">
<path opacity="0.75" d="M6.80717 28.8088C6.80717 28.8088 7.60717 25.5488 5.33717 25.5488C2.59717 25.5488 3.46718 28.8488 3.46718 28.8488L6.81718 28.8088H6.80717Z" fill="#3A3A3A" stroke="#E62C2F" stroke-width="0.5" stroke-linecap="round" stroke-linejoin="round"/>
</g>
</svg>
