<svg width="11" height="28" viewBox="0 0 11 28" fill="none" xmlns="http://www.w3.org/2000/svg">
<mask id="mask0_289_9700" style="mask-type:luminance" maskUnits="userSpaceOnUse" x="0" y="15" width="11" height="13">
<path d="M0.183594 23.2695C0.183594 21.3195 1.16359 17.8495 1.89359 16.9695C2.62359 16.0895 4.23358 15.3095 5.45358 15.4795C6.67358 15.6495 7.11358 17.0595 8.04358 17.0195C8.96358 16.9795 9.80359 16.7795 9.99359 18.5295C10.1936 20.2895 10.5836 20.4295 10.7536 21.5595C10.9236 22.6795 11.3136 23.6395 9.21359 24.4795C7.11359 25.3195 6.59358 27.8595 4.73358 27.2995C2.86358 26.7395 3.11358 25.6695 1.79358 25.1795C0.473579 24.6895 0.183594 24.0095 0.183594 23.2795V23.2695Z" fill="white"/>
</mask>
<g mask="url(#mask0_289_9700)">
<path opacity="0.75" d="M6.98375 29.1696C6.98375 29.1696 7.57376 25.3896 5.18376 25.3896C2.40376 25.3896 3.00376 29.0896 3.00376 29.0896L6.98375 29.1696Z" fill="#3A3A3A" stroke="#E62C2F" stroke-width="0.5" stroke-linecap="round" stroke-linejoin="round"/>
</g>
</svg>
