<svg width="13" height="28" viewBox="0 0 13 28" fill="none" xmlns="http://www.w3.org/2000/svg">
<mask id="mask0_289_9689" style="mask-type:luminance" maskUnits="userSpaceOnUse" x="0" y="16" width="13" height="12">
<path d="M1.81397 17.999C1.04397 19.399 0.593954 24.739 1.22395 25.669C1.85395 26.599 3.56395 26.739 4.25395 26.059C4.94395 25.379 5.15396 26.149 5.76396 26.489C6.37396 26.819 6.91396 26.199 7.57396 26.849C8.82396 28.069 11.234 27.239 11.924 24.359C12.604 21.479 12.754 18.889 12.414 18.009C12.074 17.129 10.414 18.549 9.24396 17.469C8.07396 16.399 6.36396 16.439 4.94396 17.079C3.52396 17.719 2.94396 15.959 1.82396 18.009L1.81397 17.999Z" fill="white"/>
</mask>
<g mask="url(#mask0_289_9689)">
<path opacity="0.75" d="M7.61344 28.4089C7.61344 28.4089 9.10345 24.3789 5.92345 24.3789C3.10345 24.3789 4.20345 28.4289 4.20345 28.4289L7.61344 28.4089Z" fill="#3A3A3A" stroke="#E62C2F" stroke-width="0.5" stroke-linecap="round" stroke-linejoin="round"/>
</g>
</svg>
