<svg width="13" height="25" viewBox="0 0 13 25" fill="none" xmlns="http://www.w3.org/2000/svg">
<mask id="mask0_289_9674" style="mask-type:luminance" maskUnits="userSpaceOnUse" x="0" y="13" width="13" height="12">
<path d="M1.15407 16.1194C0.104074 18.4094 -0.0159343 21.4494 1.61407 22.4494C3.24407 23.4494 4.30407 22.4494 5.13407 22.6894C5.96407 22.9294 8.39407 25.5394 10.3641 23.4594C12.0341 21.6994 13.0441 16.5294 12.1641 15.3094C10.2741 12.6894 8.63408 15.6794 5.98408 14.1994C4.83408 13.5594 2.19407 13.8594 1.16407 16.1094L1.15407 16.1194Z" fill="white"/>
</mask>
<g mask="url(#mask0_289_9674)">
<path opacity="0.75" d="M7.15252 25.3894C7.15252 25.3894 8.64252 21.3594 5.46252 21.3594C2.64252 21.3594 3.74252 25.4094 3.74252 25.4094L7.15252 25.3894Z" fill="#3A3A3A" stroke="#E62C2F" stroke-width="0.5" stroke-linecap="round" stroke-linejoin="round"/>
</g>
</svg>
