<svg width="10" height="28" viewBox="0 0 10 28" fill="none" xmlns="http://www.w3.org/2000/svg">
<mask id="mask0_289_9611" style="mask-type:luminance" maskUnits="userSpaceOnUse" x="0" y="14" width="10" height="14">
<path d="M8.62632 26.8197C8.39632 26.8797 7.37633 27.4497 5.91633 27.3097C5.00633 27.2197 3.8763 27.5897 2.7663 27.1797C2.2063 26.9697 1.55631 26.9397 0.926308 26.7297C0.236308 26.4997 0.186328 23.7797 0.416328 21.2397C0.646328 18.6997 1.15631 19.3497 1.98631 17.9197C5.60631 11.6897 6.02632 17.2797 7.81632 17.4097C8.95632 17.4897 10.4863 26.3697 8.62632 26.8097V26.8197Z" fill="white"/>
</mask>
<g mask="url(#mask0_289_9611)">
<path opacity="0.75" d="M3.30471 28.8293C3.30471 28.8293 2.50471 25.5693 4.77471 25.5693C7.51471 25.5693 6.64471 28.8693 6.64471 28.8693L3.2947 28.8293H3.30471Z" fill="#3A3A3A" stroke="#E62C2F" stroke-width="0.5" stroke-linecap="round" stroke-linejoin="round"/>
</g>
</svg>
