<svg width="10" height="32" viewBox="0 0 10 32" fill="none" xmlns="http://www.w3.org/2000/svg">
<mask id="mask0_289_9329" style="mask-type:luminance" maskUnits="userSpaceOnUse" x="0" y="19" width="10" height="13">
<path d="M9.3847 27.9095C9.8747 25.8595 8.6047 23.1195 8.3547 21.8695C8.1147 20.6195 6.30468 18.9995 4.98468 19.0895C3.66468 19.1895 1.95468 20.2395 1.73468 21.0795C0.594677 25.4395 -0.6453 27.7095 1.4147 30.1095C2.7347 31.6395 4.78469 31.7895 6.24469 30.5395C7.70469 29.2895 8.83468 30.1595 9.36468 27.9095H9.3847Z" fill="white"/>
</mask>
<g mask="url(#mask0_289_9329)">
<path opacity="0.75" d="M3.39433 33.1896C3.34433 32.7496 2.42435 29.5596 4.91435 29.5596C7.67435 29.5596 6.75434 33.1396 6.75434 33.1396L3.39433 33.1796V33.1896Z" fill="#3A3A3A" stroke="#E62C2F" stroke-width="0.5" stroke-linecap="round" stroke-linejoin="round"/>
</g>
</svg>
