<svg width="11" height="28" viewBox="0 0 11 28" fill="none" xmlns="http://www.w3.org/2000/svg">
<mask id="mask0_289_9598" style="mask-type:luminance" maskUnits="userSpaceOnUse" x="0" y="15" width="11" height="13">
<path d="M10.9241 23.2998C10.9241 21.3498 9.94415 17.8798 9.21415 16.9998C8.48415 16.1198 6.87416 15.3398 5.65416 15.5098C4.43416 15.6798 3.99416 17.0898 3.06416 17.0498C2.14416 17.0098 1.30415 16.8098 1.11415 18.5598C0.914147 20.3198 0.524168 20.4598 0.354168 21.5898C0.184168 22.7098 -0.205854 23.6698 1.89415 24.5098C3.99415 25.3498 4.51416 27.8898 6.37416 27.3298C8.24416 26.7698 7.99416 25.6998 9.31416 25.2098C10.6342 24.7198 10.9241 24.0398 10.9241 23.3098V23.2998Z" fill="white"/>
</mask>
<g mask="url(#mask0_289_9598)">
<path opacity="0.75" d="M4.11524 29.1999C4.11524 29.1999 3.52525 25.4199 5.91525 25.4199C8.69525 25.4199 8.09525 29.1199 8.09525 29.1199L4.11524 29.1999Z" fill="#3A3A3A" stroke="#E62C2F" stroke-width="0.5" stroke-linecap="round" stroke-linejoin="round"/>
</g>
</svg>
