<svg width="10" height="27" viewBox="0 0 10 27" fill="none" xmlns="http://www.w3.org/2000/svg">
<mask id="mask0_289_9353" style="mask-type:luminance" maskUnits="userSpaceOnUse" x="0" y="14" width="10" height="13">
<path d="M9.09341 24.4089C8.60341 25.2389 6.9834 25.0889 6.7334 25.7789C6.4934 26.4589 4.06342 26.7589 3.38342 25.5789C2.70342 24.4089 1.43342 23.9689 1.13342 22.8489C0.843422 21.7289 0.503422 17.3289 1.13342 16.8889C1.76342 16.4489 2.83341 16.9889 3.37341 16.3989C3.91341 15.8089 5.2534 14.1989 6.1734 15.2289C7.0934 16.2589 7.2534 16.9889 8.0134 17.1089C9.6834 17.3689 9.44341 23.8089 9.09341 24.4089Z" fill="white"/>
</mask>
<g mask="url(#mask0_289_9353)">
<path opacity="0.75" d="M3.26171 28.489C3.26171 28.489 2.32172 24.429 4.74172 24.329C7.85172 24.199 7.02172 28.529 7.02172 28.529L3.26171 28.489Z" fill="#3A3A3A" stroke="#E62C2F" stroke-width="0.5" stroke-linecap="round" stroke-linejoin="round"/>
</g>
</svg>
