<svg width="13" height="28" viewBox="0 0 13 28" fill="none" xmlns="http://www.w3.org/2000/svg">
<mask id="mask0_289_9587" style="mask-type:luminance" maskUnits="userSpaceOnUse" x="0" y="16" width="13" height="12">
<path d="M11.2831 18.0195C12.0531 19.4195 12.5031 24.7595 11.8731 25.6895C11.2431 26.6195 9.53312 26.7595 8.84312 26.0795C8.15312 25.3995 7.94311 26.1695 7.33311 26.5095C6.72311 26.8395 6.18311 26.2195 5.52311 26.8695C4.27311 28.0895 1.86311 27.2595 1.17311 24.3795C0.493108 21.4995 0.343118 18.9095 0.683118 18.0295C1.02312 17.1495 2.68313 18.5695 3.85313 17.4895C5.02313 16.4195 6.73312 16.4595 8.15312 17.0995C9.57312 17.7395 10.1531 15.9795 11.2731 18.0295L11.2831 18.0195Z" fill="white"/>
</mask>
<g mask="url(#mask0_289_9587)">
<path opacity="0.75" d="M5.49323 28.4294C5.49323 28.4294 4.00324 24.3994 7.18324 24.3994C10.0032 24.3994 8.90324 28.4494 8.90324 28.4494L5.49323 28.4294Z" fill="#3A3A3A" stroke="#E62C2F" stroke-width="0.5" stroke-linecap="round" stroke-linejoin="round"/>
</g>
</svg>
