<svg width="13" height="25" viewBox="0 0 13 25" fill="none" xmlns="http://www.w3.org/2000/svg">
<mask id="mask0_289_9572" style="mask-type:luminance" maskUnits="userSpaceOnUse" x="0" y="13" width="13" height="12">
<path d="M11.956 16.1389C13.006 18.4289 13.126 21.4689 11.496 22.4689C9.82599 23.4989 8.80601 22.4689 7.97601 22.7089C7.14601 22.9489 4.71599 25.5589 2.74599 23.4789C1.07599 21.7189 0.0660064 16.5489 0.946006 15.3289C2.83601 12.7089 4.476 15.6989 7.126 14.2189C8.276 13.5789 10.916 13.8789 11.946 16.1289L11.956 16.1389Z" fill="white"/>
</mask>
<g mask="url(#mask0_289_9572)">
<path opacity="0.75" d="M5.94636 25.4089C5.94636 25.4089 4.45636 21.3789 7.63636 21.3789C10.4564 21.3789 9.35636 25.4289 9.35636 25.4289L5.94636 25.4089Z" fill="#3A3A3A" stroke="#E62C2F" stroke-width="0.5" stroke-linecap="round" stroke-linejoin="round"/>
</g>
</svg>
