<svg width="11" height="24" viewBox="0 0 11 24" fill="none" xmlns="http://www.w3.org/2000/svg">
<mask id="mask0_289_9557" style="mask-type:luminance" maskUnits="userSpaceOnUse" x="0" y="13" width="11" height="11">
<path d="M10.1782 16.3704C10.9482 18.0904 10.6082 22.7604 8.88819 22.7604C7.16819 22.7604 6.73818 22.4904 6.09818 23.1404C5.45818 23.7904 4.48819 22.8204 3.94819 22.9304C3.40819 23.0404 1.43817 24.4804 0.898171 21.5904C0.348171 18.6904 0.298178 14.3904 1.96818 14.7204C6.08818 15.5204 5.07817 11.1804 8.30817 15.5804C8.89817 16.3904 9.54818 14.9404 10.1882 16.3904L10.1782 16.3704Z" fill="white"/>
</mask>
<g mask="url(#mask0_289_9557)">
<path opacity="0.75" d="M4.29902 25.3606C4.29902 25.3606 2.45904 21.3906 5.63904 21.3906C8.45904 21.3906 6.94904 25.3306 6.94904 25.3306L4.29902 25.3606Z" fill="#3A3A3A" stroke="#E62C2F" stroke-width="0.5" stroke-linecap="round" stroke-linejoin="round"/>
</g>
</svg>
