<svg width="8" height="24" viewBox="0 0 8 24" fill="none" xmlns="http://www.w3.org/2000/svg">
<mask id="mask0_289_9449" style="mask-type:luminance" maskUnits="userSpaceOnUse" x="0" y="0" width="8" height="11">
<path d="M7.28493 8.70982C7.03493 10.1198 5.93491 9.68982 5.39491 10.4098C4.85491 11.1298 3.71492 11.2498 2.99492 10.4098C2.27492 9.56982 0.89492 9.34982 0.77492 7.98982C0.65492 6.62982 -0.18508 1.55982 0.77492 0.889819C1.73492 0.229819 6.70492 -0.120181 7.27492 0.889819C7.84492 1.89982 7.56492 7.06982 7.27492 8.70982H7.28493Z" fill="white"/>
</mask>
<g mask="url(#mask0_289_9449)">
<path opacity="0.75" d="M5.14612 -1.87012C5.14612 -1.87012 6.85613 1.92988 3.90613 1.92988C1.28613 1.92988 2.68613 -1.84012 2.68613 -1.84012L5.14612 -1.87012Z" fill="#3A3A3A" stroke="#E62C2F" stroke-width="0.5" stroke-linecap="round" stroke-linejoin="round"/>
</g>
</svg>
