<svg width="9" height="25" viewBox="0 0 9 25" fill="none" xmlns="http://www.w3.org/2000/svg">
<mask id="mask0_289_9377" style="mask-type:luminance" maskUnits="userSpaceOnUse" x="0" y="0" width="9" height="12">
<path d="M7.0934 0.460182C6.0934 0.0301816 4.8834 1.04018 4.4334 0.730182C3.9834 0.420182 1.73339 -0.159818 1.14339 0.750183C0.553388 1.66018 -0.10659 6.06018 0.35341 7.67018C0.80341 9.28018 3.2834 12.1402 4.2134 11.7302C5.1434 11.3202 7.5134 9.63018 7.6834 9.12018C8.2534 7.42018 8.54341 1.08018 7.10341 0.460182H7.0934Z" fill="white"/>
</mask>
<g mask="url(#mask0_289_9377)">
<path opacity="0.75" d="M5.69538 -1.7998C5.69538 -1.7998 7.52536 2.3302 4.36536 2.3302C1.56536 2.3302 3.06538 -1.7598 3.06538 -1.7598L5.69538 -1.78981V-1.7998Z" fill="#3A3A3A" stroke="#E62C2F" stroke-width="0.5" stroke-linecap="round" stroke-linejoin="round"/>
</g>
</svg>
