<svg width="9" height="30" viewBox="0 0 9 30" fill="none" xmlns="http://www.w3.org/2000/svg">
<mask id="mask0_289_9425" style="mask-type:luminance" maskUnits="userSpaceOnUse" x="0" y="0" width="9" height="13">
<path d="M7.09441 10.1791C8.41441 8.30906 8.55441 4.85905 8.34441 3.92905C8.13441 2.99905 4.8444 0.019053 4.0544 0.049053C3.2644 0.079053 0.894388 0.999053 0.514388 1.88905C0.124388 2.76905 0.334408 6.94905 1.03441 8.78905C1.73441 10.6291 4.30439 12.6391 4.92439 12.3191C5.54439 11.9891 6.40441 11.1791 7.09441 10.1891V10.1791Z" fill="white"/>
</mask>
<g mask="url(#mask0_289_9425)">
<path opacity="0.75" d="M5.27349 -2.01074C5.27349 -2.01074 7.1035 2.11926 3.9435 2.11926C1.1435 2.11926 2.64349 -1.97075 2.64349 -1.97075L5.27349 -2.00074V-2.01074Z" fill="#3A3A3A" stroke="#E62C2F" stroke-width="0.5" stroke-linecap="round" stroke-linejoin="round"/>
</g>
</svg>
