<svg width="9" height="25" viewBox="0 0 9 25" fill="none" xmlns="http://www.w3.org/2000/svg">
<mask id="mask0_289_9437" style="mask-type:luminance" maskUnits="userSpaceOnUse" x="0" y="0" width="9" height="12">
<path d="M7.67783 8.77936C8.49783 7.95936 8.99783 5.46936 8.92783 4.07936C8.85783 2.69936 8.35785 2.60936 7.22785 1.67936C6.09785 0.749357 4.68785 -0.320643 3.66785 0.359357C1.05785 2.09936 -0.582173 1.04936 0.577827 5.25936C1.16783 7.38936 0.967827 8.72936 1.82783 9.56936C2.68783 10.4094 3.77785 11.4794 4.84785 11.1594C5.91785 10.8394 7.12784 9.32936 7.68784 8.77936H7.67783Z" fill="white"/>
</mask>
<g mask="url(#mask0_289_9437)">
<path opacity="0.75" d="M5.76957 -1.91016C5.76957 -1.91016 7.59958 2.21984 4.43958 2.21984C1.63958 2.21984 3.1396 -1.87016 3.1396 -1.87016L5.76957 -1.90015V-1.91016Z" fill="#3A3A3A" stroke="#E62C2F" stroke-width="0.5" stroke-linecap="round" stroke-linejoin="round"/>
</g>
</svg>
