<svg width="11" height="25" viewBox="0 0 11 25" fill="none" xmlns="http://www.w3.org/2000/svg">
<mask id="mask0_289_9365" style="mask-type:luminance" maskUnits="userSpaceOnUse" x="0" y="0" width="11" height="13">
<path d="M10.5359 7.58908C10.9559 5.79908 10.4959 3.80908 9.17589 2.97908C7.85589 2.14908 5.6359 0.599076 4.5559 1.01908C3.4759 1.43908 3.34591 1.93908 2.62591 2.24908C1.90591 2.55908 0.745907 4.02908 0.845907 6.00908C0.945907 7.98908 2.59591 9.38908 2.94591 10.1791C3.29591 10.9691 5.84589 13.3391 7.51589 11.7191C9.18589 10.0991 9.79589 10.7491 10.5459 7.58908H10.5359Z" fill="white"/>
</mask>
<g mask="url(#mask0_289_9365)">
<path opacity="0.75" d="M6.53523 -1.11133C6.53523 -1.11133 8.36521 3.01867 5.20521 3.01867C2.40521 3.01867 3.90522 -1.07133 3.90522 -1.07133L6.53523 -1.10133V-1.11133Z" fill="#3A3A3A" stroke="#E62C2F" stroke-width="0.5" stroke-linecap="round" stroke-linejoin="round"/>
</g>
</svg>
