<svg width="14" height="25" viewBox="0 0 14 25" fill="none" xmlns="http://www.w3.org/2000/svg">
<mask id="mask0_289_9413" style="mask-type:luminance" maskUnits="userSpaceOnUse" x="0" y="0" width="14" height="11">
<path d="M13.1942 8.86918C13.8442 7.00918 14.2942 3.87918 12.6642 2.76918C8.34418 -0.18082 7.51418 1.54918 5.97418 1.25918C4.82418 1.04918 2.49417 0.559179 1.06418 1.54918C-0.365825 2.53918 0.0541835 6.81918 0.854184 8.15918C1.65418 9.49918 2.69417 9.66918 3.99417 9.58918C5.29417 9.50918 6.88417 10.5992 8.56417 10.0892C10.2442 9.58918 12.6742 10.3292 13.1842 8.86918H13.1942Z" fill="white"/>
</mask>
<g mask="url(#mask0_289_9413)">
<path opacity="0.75" d="M8.53342 -0.980976C8.53342 -0.980976 10.0634 2.87902 6.90342 2.90902C4.10342 2.93902 5.25342 -1.00098 5.25342 -1.00098H8.53342V-0.980976Z" fill="#3A3A3A" stroke="#E62C2F" stroke-width="0.5" stroke-linecap="round" stroke-linejoin="round"/>
</g>
</svg>
