<svg width="13" height="24" viewBox="0 0 13 24" fill="none" xmlns="http://www.w3.org/2000/svg">
<mask id="mask0_289_9401" style="mask-type:luminance" maskUnits="userSpaceOnUse" x="0" y="0" width="13" height="11">
<path d="M11.3249 8.80897C12.2049 6.97897 12.6849 3.35897 10.4549 2.21897C8.22486 1.07897 6.55486 2.28897 5.48486 1.61897C4.41486 0.948965 1.19488 0.118965 0.534881 2.79897C-0.125119 5.47897 0.404874 7.69896 0.714874 8.46896C1.02487 9.22896 1.97488 8.97897 2.78488 8.80897C3.59488 8.64897 5.04489 10.209 5.88489 10.219C7.95489 10.239 8.63488 8.37896 9.62488 8.46896C10.6149 8.55896 10.8849 9.73897 11.3349 8.80897H11.3249Z" fill="white"/>
</mask>
<g mask="url(#mask0_289_9401)">
<path opacity="0.75" d="M7.39458 -0.710938C7.39458 -0.710938 9.2246 3.41906 6.0646 3.41906C3.2646 3.41906 4.76458 -0.670937 4.76458 -0.670937L7.39458 -0.700939V-0.710938Z" fill="#3A3A3A" stroke="#E62C2F" stroke-width="0.5" stroke-linecap="round" stroke-linejoin="round"/>
</g>
</svg>
