<svg width="12" height="22" viewBox="0 0 12 22" fill="none" xmlns="http://www.w3.org/2000/svg">
<mask id="mask0_289_9389" style="mask-type:luminance" maskUnits="userSpaceOnUse" x="0" y="0" width="12" height="9">
<path d="M9.98445 8.45968C11.1345 7.63968 11.9444 5.66968 11.5744 3.57968C11.2044 1.49968 10.1745 2.03968 9.63448 1.93968C9.09448 1.83968 8.16445 0.919679 6.79445 1.18968C5.41445 1.46968 4.89447 1.29968 3.59447 1.00968C2.29447 0.709682 1.01447 1.54968 0.974474 3.40968C0.924474 5.26968 0.974461 6.83968 1.80446 7.52968C2.63446 8.21968 5.14447 7.32968 5.97447 7.52968C6.80447 7.72968 8.22446 9.72968 9.99446 8.45968H9.98445Z" fill="white"/>
</mask>
<g mask="url(#mask0_289_9389)">
<path opacity="0.75" d="M7.37456 -0.659924C7.37456 -0.659924 8.92456 2.55008 6.24456 2.55008C3.87456 2.55008 5.14455 -0.639923 5.14455 -0.639923L7.37456 -0.669922V-0.659924Z" fill="#3A3A3A" stroke="#E62C2F" stroke-width="0.5" stroke-linecap="round" stroke-linejoin="round"/>
</g>
</svg>
