<svg width="8" height="23" viewBox="0 0 8 23" fill="none" xmlns="http://www.w3.org/2000/svg">
<mask id="mask0_289_9545" style="mask-type:luminance" maskUnits="userSpaceOnUse" x="0" y="0" width="8" height="11">
<path d="M0.847974 8.66978C1.09797 10.0798 2.19796 9.64978 2.73796 10.3698C3.27796 11.0898 4.41798 11.2098 5.13798 10.3698C5.85798 9.52978 7.23798 9.30978 7.35798 7.94978C7.47798 6.58978 8.31798 1.51978 7.35798 0.84978C6.39798 0.18978 1.42798 -0.16022 0.857984 0.84978C0.287984 1.85978 0.567984 7.02978 0.857984 8.66978H0.847974Z" fill="white"/>
</mask>
<g mask="url(#mask0_289_9545)">
<path opacity="0.75" d="M2.98899 -1.91016C2.98899 -1.91016 1.27902 1.88984 4.22902 1.88984C6.84901 1.88984 5.44902 -1.88016 5.44902 -1.88016L2.98899 -1.91016Z" fill="#3A3A3A" stroke="#E62C2F" stroke-width="0.5" stroke-linecap="round" stroke-linejoin="round"/>
</g>
</svg>
