<svg width="9" height="25" viewBox="0 0 9 25" fill="none" xmlns="http://www.w3.org/2000/svg">
<mask id="mask0_289_9473" style="mask-type:luminance" maskUnits="userSpaceOnUse" x="0" y="0" width="9" height="12">
<path d="M2.03431 0.420146C3.03431 -0.00985366 4.24431 1.00014 4.69431 0.690143C5.14431 0.380143 7.39429 -0.199857 7.98429 0.710143C8.57429 1.62014 9.2343 6.02015 8.7743 7.63015C8.3243 9.24015 5.84431 12.1001 4.91431 11.6901C3.98431 11.2801 1.61431 9.59014 1.44431 9.08014C0.874312 7.38014 0.584298 1.04015 2.0243 0.420146H2.03431Z" fill="white"/>
</mask>
<g mask="url(#mask0_289_9473)">
<path opacity="0.75" d="M3.42547 -1.83984C3.42547 -1.83984 1.59549 2.29016 4.75549 2.29016C7.55549 2.29016 6.05547 -1.79984 6.05547 -1.79984L3.42547 -1.82984V-1.83984Z" fill="#3A3A3A" stroke="#E62C2F" stroke-width="0.5" stroke-linecap="round" stroke-linejoin="round"/>
</g>
</svg>
