<svg width="9" height="30" viewBox="0 0 9 30" fill="none" xmlns="http://www.w3.org/2000/svg">
<mask id="mask0_289_9521" style="mask-type:luminance" maskUnits="userSpaceOnUse" x="0" y="0" width="9" height="13">
<path d="M2.03632 10.14C0.716323 8.26999 0.576324 4.81999 0.786324 3.88999C0.996324 2.95999 4.2863 -0.0200095 5.0763 0.00999051C5.8663 0.0399905 8.23631 0.959991 8.61631 1.84999C9.00631 2.72999 8.79632 6.90999 8.09632 8.74999C7.39632 10.59 4.82631 12.6 4.20631 12.28C3.58631 11.95 2.72632 11.14 2.03632 10.15V10.14Z" fill="white"/>
</mask>
<g mask="url(#mask0_289_9521)">
<path opacity="0.75" d="M3.85517 -2.0498C3.85517 -2.0498 2.02516 2.0802 5.18516 2.0802C7.98516 2.0802 6.48515 -2.0098 6.48515 -2.0098L3.85517 -2.03981V-2.0498Z" fill="#3A3A3A" stroke="#E62C2F" stroke-width="0.5" stroke-linecap="round" stroke-linejoin="round"/>
</g>
</svg>
