<svg width="9" height="25" viewBox="0 0 9 25" fill="none" xmlns="http://www.w3.org/2000/svg">
<mask id="mask0_289_9533" style="mask-type:luminance" maskUnits="userSpaceOnUse" x="0" y="0" width="9" height="12">
<path d="M1.44401 8.73932C0.624006 7.91932 0.124006 5.42932 0.194006 4.03932C0.264006 2.65932 0.763988 2.56932 1.89399 1.63932C3.02399 0.709318 4.43399 -0.360682 5.45399 0.319318C8.06399 2.05932 9.70398 1.00932 8.54398 5.21932C7.95398 7.34932 8.15398 8.68932 7.29398 9.52932C6.43398 10.3693 5.34399 11.4393 4.27399 11.1193C3.20399 10.7993 1.994 9.28932 1.434 8.73932H1.44401Z" fill="white"/>
</mask>
<g mask="url(#mask0_289_9533)">
<path opacity="0.75" d="M3.36297 -1.95117C3.36297 -1.95117 1.53299 2.17883 4.69299 2.17883C7.49299 2.17883 5.99297 -1.91117 5.99297 -1.91117L3.36297 -1.94117V-1.95117Z" fill="#3A3A3A" stroke="#E62C2F" stroke-width="0.5" stroke-linecap="round" stroke-linejoin="round"/>
</g>
</svg>
