<svg width="11" height="25" viewBox="0 0 11 25" fill="none" xmlns="http://www.w3.org/2000/svg">
<mask id="mask0_289_9461" style="mask-type:luminance" maskUnits="userSpaceOnUse" x="0" y="0" width="11" height="13">
<path d="M0.584207 7.55001C0.164207 5.76001 0.624208 3.77001 1.94421 2.94001C3.26421 2.11001 5.48422 0.560014 6.56422 0.980014C7.64422 1.40001 7.77421 1.90001 8.49421 2.21001C9.21421 2.52001 10.3742 3.99002 10.2742 5.97002C10.1742 7.95002 8.52422 9.35002 8.17422 10.14C7.82422 10.93 5.27421 13.3 3.60421 11.68C1.93421 10.06 1.32421 10.71 0.574213 7.55001H0.584207Z" fill="white"/>
</mask>
<g mask="url(#mask0_289_9461)">
<path opacity="0.75" d="M4.58563 -1.15039C4.58563 -1.15039 2.75564 2.97961 5.91564 2.97961C8.71564 2.97961 7.21564 -1.11039 7.21564 -1.11039L4.58563 -1.14039V-1.15039Z" fill="#3A3A3A" stroke="#E62C2F" stroke-width="0.5" stroke-linecap="round" stroke-linejoin="round"/>
</g>
</svg>
