<svg width="14" height="25" viewBox="0 0 14 25" fill="none" xmlns="http://www.w3.org/2000/svg">
<mask id="mask0_289_9509" style="mask-type:luminance" maskUnits="userSpaceOnUse" x="0" y="0" width="14" height="11">
<path d="M0.926203 8.81938C0.276203 6.95938 -0.173799 3.82938 1.4562 2.71938C5.7762 -0.230623 6.60619 1.49937 8.14619 1.20937C9.29619 0.999375 11.6262 0.509376 13.0562 1.49938C14.4862 2.48938 14.0662 6.76937 13.2662 8.10937C12.4662 9.44937 11.4262 9.61937 10.1262 9.53937C8.8262 9.45937 7.23619 10.5494 5.55619 10.0394C3.87619 9.53937 1.4462 10.2794 0.936197 8.81938H0.926203Z" fill="white"/>
</mask>
<g mask="url(#mask0_289_9509)">
<path opacity="0.75" d="M5.59687 -1.02102C5.59687 -1.02102 4.06686 2.83898 7.22686 2.86898C10.0269 2.89898 8.87687 -1.04102 8.87687 -1.04102H5.59687V-1.02102Z" fill="#3A3A3A" stroke="#E62C2F" stroke-width="0.5" stroke-linecap="round" stroke-linejoin="round"/>
</g>
</svg>
