<svg width="12" height="24" viewBox="0 0 12 24" fill="none" xmlns="http://www.w3.org/2000/svg">
<mask id="mask0_289_9497" style="mask-type:luminance" maskUnits="userSpaceOnUse" x="0" y="0" width="12" height="11">
<path d="M0.794505 8.76892C-0.0854952 6.93892 -0.5655 3.31892 1.6645 2.17892C3.8945 1.03892 5.5645 2.24893 6.6345 1.57893C7.7045 0.908926 10.9245 0.0789263 11.5845 2.75893C12.2345 5.43893 11.7145 7.65893 11.4045 8.42893C11.0945 9.18893 10.1445 8.93892 9.3345 8.76892C8.5245 8.60892 7.07451 10.1689 6.23451 10.1789C4.16451 10.1989 3.4845 8.33893 2.4945 8.42893C1.5045 8.51893 1.23451 9.69892 0.78451 8.76892H0.794505Z" fill="white"/>
</mask>
<g mask="url(#mask0_289_9497)">
<path opacity="0.75" d="M4.73407 -0.750977C4.73407 -0.750977 2.90407 3.37902 6.06407 3.37902C8.86407 3.37902 7.36406 -0.710976 7.36406 -0.710976L4.73407 -0.740974V-0.750977Z" fill="#3A3A3A" stroke="#E62C2F" stroke-width="0.5" stroke-linecap="round" stroke-linejoin="round"/>
</g>
</svg>
