<svg width="12" height="22" viewBox="0 0 12 22" fill="none" xmlns="http://www.w3.org/2000/svg">
<mask id="mask0_289_9485" style="mask-type:luminance" maskUnits="userSpaceOnUse" x="0" y="0" width="12" height="9">
<path d="M2.1454 8.40988C0.995396 7.58988 0.1854 5.61988 0.5554 3.52988C0.9254 1.44988 1.9554 1.98988 2.4954 1.88988C3.0354 1.78988 3.9654 0.869878 5.3354 1.13988C6.7154 1.41988 7.23541 1.24988 8.53541 0.959877C9.83541 0.659877 11.1154 1.49988 11.1554 3.35988C11.2054 5.21988 11.1554 6.78988 10.3254 7.47988C9.4954 8.16988 6.98541 7.27988 6.15541 7.47988C5.32541 7.67988 3.9054 9.67988 2.1354 8.40988H2.1454Z" fill="white"/>
</mask>
<g mask="url(#mask0_289_9485)">
<path opacity="0.75" d="M4.75445 -0.699963C4.75445 -0.699963 3.20446 2.51004 5.88446 2.51004C8.25446 2.51004 6.98446 -0.679962 6.98446 -0.679962L4.75445 -0.709961V-0.699963Z" fill="#3A3A3A" stroke="#E62C2F" stroke-width="0.5" stroke-linecap="round" stroke-linejoin="round"/>
</g>
</svg>
