<svg width="8" height="20" viewBox="0 0 8 20" fill="none" xmlns="http://www.w3.org/2000/svg">
<mask id="mask0_289_9901" style="mask-type:luminance" maskUnits="userSpaceOnUse" x="0" y="12" width="8" height="8">
<path d="M5.93532 13.6189C6.10532 13.8389 6.24532 14.0789 6.34532 14.3389C7.32532 16.6989 7.86532 18.7789 5.94532 19.3489C4.10532 19.4089 2.26532 19.4689 1.35532 19.1289C0.175319 18.2589 -0.0146823 16.8789 0.385318 15.2089C0.485318 14.7889 0.655318 14.3789 0.885318 14.0189C1.34532 13.2889 2.05532 12.7389 2.91532 12.5389C3.29532 12.4489 3.67532 12.4289 4.04532 12.4789C4.80532 12.5889 5.47532 13.0189 5.93532 13.6189Z" fill="white"/>
</mask>
<g mask="url(#mask0_289_9901)">
<path opacity="0.75" d="M3.08514 19.9587C3.08514 19.9587 2.01514 17.8887 3.86514 17.8887C5.50514 17.8887 4.62514 19.9387 4.62514 19.9387L3.08514 19.9587Z" fill="#3A3A3A" stroke="#E62C2F" stroke-width="0.5" stroke-linecap="round" stroke-linejoin="round"/>
</g>
</svg>
