<svg width="7" height="19" viewBox="0 0 7 19" fill="none" xmlns="http://www.w3.org/2000/svg">
<mask id="mask0_289_9891" style="mask-type:luminance" maskUnits="userSpaceOnUse" x="0" y="12" width="7" height="7">
<path d="M1.73655 12.8388C0.746547 14.2288 0.536545 15.6988 0.926545 17.2288C1.05655 17.7588 1.49655 18.1688 2.03655 18.2788C2.93655 18.4588 4.15655 18.3688 5.34655 18.2988C6.38655 18.2988 6.37655 17.5788 6.25655 16.8688C6.15655 15.7288 5.93655 14.6188 5.58655 13.5388C5.49655 13.2488 5.34655 12.9888 5.14655 12.7588C4.97655 12.5588 4.75655 12.3988 4.51655 12.2788C3.59655 11.8488 2.67655 12.0388 1.74655 12.8388H1.73655Z" fill="white"/>
</mask>
<g mask="url(#mask0_289_9891)">
<path opacity="0.75" d="M2.89688 19.2389C2.89688 19.2389 1.89688 17.1689 3.62688 17.1689C5.15688 17.1689 4.33688 19.2189 4.33688 19.2189L2.90688 19.2389H2.89688Z" fill="#3A3A3A" stroke="#E62C2F" stroke-width="0.5" stroke-linecap="round" stroke-linejoin="round"/>
</g>
</svg>
