<svg width="7" height="22" viewBox="0 0 7 22" fill="none" xmlns="http://www.w3.org/2000/svg">
<mask id="mask0_289_9881" style="mask-type:luminance" maskUnits="userSpaceOnUse" x="0" y="13" width="7" height="9">
<path d="M1.16036 14.619C1.38036 14.289 1.65036 13.999 1.98036 13.769C3.07036 12.989 4.19036 13.099 5.33036 14.279C6.10036 15.519 6.48036 16.769 6.20036 17.999C5.84036 19.209 5.16036 20.169 4.25036 20.959C3.93036 21.239 3.52036 21.379 3.10036 21.379H2.83036C2.65036 21.379 2.46036 21.359 2.29036 21.299C0.470358 20.679 -0.0496438 18.839 0.620356 15.909C0.720356 15.449 0.910355 15.009 1.17036 14.619H1.16036Z" fill="white"/>
</mask>
<g mask="url(#mask0_289_9881)">
<path opacity="0.75" d="M2.2723 22.1691C2.2723 22.1691 1.1623 19.8691 3.0823 19.8691C4.7823 19.8691 3.8723 22.1491 3.8723 22.1491L2.2723 22.1691Z" fill="#3A3A3A" stroke="#E62C2F" stroke-width="0.5" stroke-linecap="round" stroke-linejoin="round"/>
</g>
</svg>
