<svg width="11" height="20" viewBox="0 0 11 20" fill="none" xmlns="http://www.w3.org/2000/svg">
<mask id="mask0_289_9870" style="mask-type:luminance" maskUnits="userSpaceOnUse" x="1" y="12" width="9" height="8">
<path d="M7.55156 13.5689C7.76156 13.7889 7.97156 14.0489 8.17156 14.3289C8.83156 15.1889 9.24156 16.2889 9.21156 17.7989C9.16156 18.6689 8.81156 19.0789 8.23156 19.1689C7.83156 19.2289 7.41156 19.1089 7.09156 18.8589C6.76156 18.5989 6.41156 18.6889 6.05156 18.9489C5.69156 19.2089 5.28156 19.3789 4.84156 19.3789C4.02156 19.3789 3.23156 19.2789 2.44156 19.0889C1.81156 19.0189 1.42156 18.5889 1.40156 17.6589C1.22156 16.6289 1.37156 15.6089 1.86156 14.5889C1.95156 14.4089 2.07156 14.2389 2.21156 14.0889C2.23156 14.0689 2.24156 14.0489 2.26156 14.0389C4.08156 12.0789 5.85156 11.7589 7.53156 13.5589L7.55156 13.5689Z" fill="white"/>
</mask>
<g mask="url(#mask0_289_9870)">
<path opacity="0.75" d="M4.3709 20.5493C4.3709 20.5493 3.0309 17.7793 5.3409 17.7793C7.3809 17.7793 6.2909 20.5193 6.2909 20.5193L4.3709 20.5393V20.5493Z" fill="#3A3A3A" stroke="#E62C2F" stroke-width="0.5" stroke-linecap="round" stroke-linejoin="round"/>
</g>
</svg>
