<svg width="14" height="20" viewBox="0 0 14 20" fill="none" xmlns="http://www.w3.org/2000/svg">
<mask id="mask0_289_9859" style="mask-type:luminance" maskUnits="userSpaceOnUse" x="3" y="11" width="11" height="9">
<path d="M11.9051 13.5492C12.0351 13.6992 12.1651 13.8492 12.2951 14.0192C13.4051 15.6392 14.0651 17.1792 12.6951 18.3992C11.7451 19.1292 10.3551 19.3292 8.81507 19.3492C8.54507 19.3492 8.31507 19.1992 8.17507 18.9792C7.89507 18.5492 7.36507 18.7492 6.73507 19.1792C6.54507 19.3092 6.32507 19.3892 6.09507 19.3992C5.55507 19.4292 5.09507 19.3192 4.67507 19.0892C3.74507 18.5892 3.24507 17.5492 3.31507 16.4992C3.33507 16.0892 3.40507 15.6892 3.50507 15.2992C3.69507 14.4992 4.16507 13.7992 4.82507 13.3092C7.51507 11.3492 9.89507 11.3092 11.9051 13.5592V13.5492Z" fill="white"/>
</mask>
<g mask="url(#mask0_289_9859)">
<path opacity="0.75" d="M6.83336 20.559C6.83336 20.559 5.35336 17.499 7.90336 17.499C10.1634 17.499 8.95336 20.529 8.95336 20.529L6.83336 20.559Z" fill="#3A3A3A" stroke="#E62C2F" stroke-width="0.5" stroke-linecap="round" stroke-linejoin="round"/>
</g>
</svg>
