<svg width="8" height="20" viewBox="0 0 8 20" fill="none" xmlns="http://www.w3.org/2000/svg">
<mask id="mask0_289_9833" style="mask-type:luminance" maskUnits="userSpaceOnUse" x="0" y="12" width="8" height="8">
<path d="M1.70438 13.6092C1.53438 13.8292 1.39438 14.0692 1.29438 14.3292C0.314379 16.6892 -0.225619 18.7692 1.69438 19.3392C3.53438 19.3992 5.37438 19.4592 6.28438 19.1192C7.46438 18.2492 7.65438 16.8692 7.25438 15.1992C7.15438 14.7792 6.98438 14.3692 6.75438 14.0092C6.29438 13.2792 5.58438 12.7292 4.72438 12.5292C4.34438 12.4392 3.96437 12.4192 3.59437 12.4692C2.83437 12.5792 2.16438 13.0092 1.70438 13.6092Z" fill="white"/>
</mask>
<g mask="url(#mask0_289_9833)">
<path opacity="0.75" d="M4.55314 19.9596C4.55314 19.9596 5.62314 17.8896 3.77314 17.8896C2.13314 17.8896 3.01315 19.9396 3.01315 19.9396L4.55314 19.9596Z" fill="#3A3A3A" stroke="#E62C2F" stroke-width="0.5" stroke-linecap="round" stroke-linejoin="round"/>
</g>
</svg>
