<svg width="6" height="19" viewBox="0 0 6 19" fill="none" xmlns="http://www.w3.org/2000/svg">
<mask id="mask0_289_9823" style="mask-type:luminance" maskUnits="userSpaceOnUse" x="0" y="12" width="6" height="7">
<path d="M4.91071 12.829C5.90071 14.219 6.11071 15.689 5.72071 17.219C5.59071 17.749 5.15071 18.159 4.61071 18.269C3.71071 18.449 2.49071 18.359 1.30071 18.289C0.260706 18.289 0.27071 17.569 0.39071 16.859C0.49071 15.719 0.710708 14.609 1.06071 13.529C1.15071 13.239 1.30071 12.979 1.50071 12.749C1.67071 12.549 1.89071 12.389 2.13071 12.269C3.05071 11.839 3.97071 12.029 4.90071 12.829H4.91071Z" fill="white"/>
</mask>
<g mask="url(#mask0_289_9823)">
<path opacity="0.75" d="M3.74932 19.2292C3.74932 19.2292 4.74932 17.1592 3.01932 17.1592C1.48932 17.1592 2.30932 19.2092 2.30932 19.2092L3.73932 19.2292H3.74932Z" fill="#3A3A3A" stroke="#E62C2F" stroke-width="0.5" stroke-linecap="round" stroke-linejoin="round"/>
</g>
</svg>
