<svg width="7" height="22" viewBox="0 0 7 22" fill="none" xmlns="http://www.w3.org/2000/svg">
<mask id="mask0_289_9813" style="mask-type:luminance" maskUnits="userSpaceOnUse" x="0" y="13" width="7" height="9">
<path d="M5.4756 14.6092C5.2556 14.2792 4.9856 13.9892 4.6556 13.7592C3.5656 12.9792 2.4456 13.0892 1.3056 14.2692C0.535598 15.5092 0.155602 16.7592 0.435602 17.9892C0.795602 19.1992 1.4756 20.1592 2.3856 20.9492C2.7056 21.2292 3.11561 21.3692 3.53561 21.3692H3.8056C3.9856 21.3692 4.17561 21.3492 4.34561 21.2892C6.16561 20.6692 6.6856 18.8292 6.0156 15.8992C5.9156 15.4392 5.7256 14.9992 5.4656 14.6092H5.4756Z" fill="white"/>
</mask>
<g mask="url(#mask0_289_9813)">
<path opacity="0.75" d="M4.37453 22.1691C4.37453 22.1691 5.48453 19.8691 3.56453 19.8691C1.86453 19.8691 2.77452 22.1491 2.77452 22.1491L4.37453 22.1691Z" fill="#3A3A3A" stroke="#E62C2F" stroke-width="0.5" stroke-linecap="round" stroke-linejoin="round"/>
</g>
</svg>
