<svg width="5" height="19" viewBox="0 0 5 19" fill="none" xmlns="http://www.w3.org/2000/svg">
<mask id="mask0_289_9773" style="mask-type:luminance" maskUnits="userSpaceOnUse" x="0" y="0" width="5" height="9">
<path d="M4.50672 7.88955C4.71672 7.48955 4.81672 7.03955 4.83672 6.58955L4.96672 3.11955C5.01672 2.31955 4.68672 1.91955 4.21672 1.61955C3.50672 1.10955 2.48672 0.879548 1.62672 0.929548C1.02672 1.11955 1.00672 0.97955 0.926718 1.50955C0.886718 1.75955 0.876719 2.00955 0.896719 2.25955C1.00672 3.85955 1.16672 5.32955 1.32672 6.69955C1.36672 7.06955 1.50672 7.40955 1.72672 7.70955C1.74672 7.73955 1.77672 7.76955 1.79672 7.80955C2.82672 9.07955 3.68672 9.17955 4.37672 8.13955C4.42672 8.06955 4.47672 7.98955 4.51672 7.90955" fill="white"/>
</mask>
<g mask="url(#mask0_289_9773)">
<path opacity="0.75" d="M2.2577 0.459217C2.2577 0.459217 1.2677 2.49922 2.9777 2.49922C4.4877 2.49922 3.6777 0.469219 3.6777 0.469219L2.2577 0.449219V0.459217Z" fill="#3A3A3A" stroke="#E62C2F" stroke-width="0.5" stroke-linecap="round" stroke-linejoin="round"/>
</g>
</svg>
