<svg width="6" height="19" viewBox="0 0 6 19" fill="none" xmlns="http://www.w3.org/2000/svg">
<mask id="mask0_289_9765" style="mask-type:luminance" maskUnits="userSpaceOnUse" x="0" y="0" width="6" height="9">
<path d="M1.31647 7.26942C1.41647 7.48942 1.55648 7.69942 1.72648 7.86942C2.43648 8.57942 3.14648 8.81942 3.87648 8.61942C4.35648 8.48942 4.73648 8.16942 4.97648 7.75942C5.13648 7.48942 5.23647 7.17942 5.25647 6.85942L5.55647 3.26942C5.50647 2.72942 5.37648 2.25942 5.15648 1.85942C4.91648 1.42942 4.45647 1.14942 3.95647 1.11942L1.48647 0.95942C0.856471 0.92942 0.656475 1.08942 0.686475 1.86942C0.686475 2.06942 0.706477 2.26942 0.696477 2.46942C0.656477 4.05942 0.776472 5.46942 1.13647 6.59942C1.15647 6.82942 1.21647 7.05942 1.31647 7.26942Z" fill="white"/>
</mask>
<g mask="url(#mask0_289_9765)">
<path opacity="0.75" d="M2.32657 0.439686C2.32657 0.439686 1.32656 2.50969 3.05656 2.50969C4.58656 2.50969 3.76657 0.449688 3.76657 0.449688L2.32657 0.429688V0.439686Z" fill="#3A3A3A" stroke="#E62C2F" stroke-width="0.5" stroke-linecap="round" stroke-linejoin="round"/>
</g>
</svg>
