<svg width="7" height="23" viewBox="0 0 7 23" fill="none" xmlns="http://www.w3.org/2000/svg">
<mask id="mask0_289_9745" style="mask-type:luminance" maskUnits="userSpaceOnUse" x="0" y="0" width="7" height="11">
<path d="M5.07622 8.76967C5.82622 7.83967 6.17622 6.55967 6.17622 4.98967C6.17622 4.45967 6.02622 3.93967 5.76622 3.47967C3.82622 0.179669 2.03622 -0.0903294 0.436219 3.44967C-0.0337813 5.54967 0.126217 7.32967 0.966217 8.75967C1.01622 8.84967 1.07622 8.93967 1.12622 9.01967C2.47622 11.1397 3.79621 11.1597 5.08621 8.75967L5.07622 8.76967Z" fill="white"/>
</mask>
<g mask="url(#mask0_289_9745)">
<path opacity="0.75" d="M2.37701 0.509766C2.37701 0.509766 1.337 2.65976 3.137 2.65976C4.727 2.65976 3.87701 0.529762 3.87701 0.529762L2.37701 0.509766Z" fill="#3A3A3A" stroke="#E62C2F" stroke-width="0.5" stroke-linecap="round" stroke-linejoin="round"/>
</g>
</svg>
