<svg width="12" height="19" viewBox="0 0 12 19" fill="none" xmlns="http://www.w3.org/2000/svg">
<mask id="mask0_289_9909" style="mask-type:luminance" maskUnits="userSpaceOnUse" x="1" y="0" width="10" height="9">
<path d="M9.76612 7.59969C10.0761 7.28969 10.3361 6.92969 10.5061 6.51969C10.9361 5.47969 11.0561 4.31969 10.9461 3.05969C10.8961 2.50969 10.6961 1.96968 10.3161 1.56968C9.60612 0.819682 8.66612 0.809683 7.54612 1.35968C6.98612 1.82968 6.27613 1.62968 5.49613 1.06968C4.28613 0.599682 3.26612 0.699683 2.43612 1.35968C1.61612 2.36968 1.57612 3.78969 2.28612 5.61969C2.55612 6.30969 2.92613 6.94969 3.41613 7.47969C3.67613 7.76969 3.97613 8.02968 4.30613 8.24968C5.89613 9.32968 7.57612 9.21968 9.33612 7.95968C9.49612 7.84968 9.63613 7.72969 9.77613 7.58969L9.76612 7.59969Z" fill="white"/>
</mask>
<g mask="url(#mask0_289_9909)">
<path opacity="0.75" d="M5.72738 0.00976562C5.72738 0.00976562 4.36737 2.81976 6.71737 2.81976C8.79737 2.81976 7.68737 0.0297623 7.68737 0.0297623L5.73737 0.00976562H5.72738Z" fill="#3A3A3A" stroke="#E62C2F" stroke-width="0.5" stroke-linecap="round" stroke-linejoin="round"/>
</g>
</svg>
