<svg width="13" height="20" viewBox="0 0 13 20" fill="none" xmlns="http://www.w3.org/2000/svg">
<mask id="mask0_289_9725" style="mask-type:luminance" maskUnits="userSpaceOnUse" x="0" y="0" width="12" height="10">
<path d="M10.3166 8.64944C10.7666 8.40944 11.1466 8.04945 11.3566 7.57945C11.5266 7.22945 11.6266 6.85945 11.6566 6.46945C11.8366 5.36945 11.8066 4.23945 11.6266 3.09945C11.5566 2.68945 11.3766 2.30945 11.0866 2.00945C10.6166 1.52945 10.1466 1.20945 9.65656 1.13945C8.91656 0.889446 8.20655 0.979448 7.50655 1.34945H7.43656C6.94656 1.57945 6.47655 1.56945 6.00655 1.34945C4.45655 0.859448 3.00656 0.759448 1.74656 1.41945C1.39656 1.66945 1.14655 2.18945 1.00655 3.04945C0.876552 4.80945 1.44656 6.46944 2.51656 8.03944C2.61656 8.18944 2.72656 8.31944 2.85656 8.43944C3.03656 8.60944 3.24655 8.74944 3.47655 8.85944C5.84655 9.93944 8.11656 9.83944 10.3166 8.64944Z" fill="white"/>
</mask>
<g mask="url(#mask0_289_9725)">
<path opacity="0.75" d="M5.42702 -0.200939C5.42702 -0.200939 3.95701 2.82906 6.49701 2.82906C8.73701 2.82906 7.53702 -0.180939 7.53702 -0.180939L5.42702 -0.210938V-0.200939Z" fill="#3A3A3A" stroke="#E62C2F" stroke-width="0.5" stroke-linecap="round" stroke-linejoin="round"/>
</g>
</svg>
