<svg width="5" height="18" viewBox="0 0 5 18" fill="none" xmlns="http://www.w3.org/2000/svg">
<mask id="mask0_289_9782" style="mask-type:luminance" maskUnits="userSpaceOnUse" x="0" y="0" width="5" height="8">
<path d="M1.10563 6.96962C0.895629 6.56962 0.795627 6.11963 0.775627 5.66963L0.64563 2.19962C0.59563 1.39962 0.92563 0.999625 1.39563 0.699625C2.10563 0.189625 3.12563 -0.0403739 3.98563 0.00962615C4.58563 0.199626 4.60563 0.0596242 4.68563 0.589624C4.72563 0.839624 4.73563 1.08962 4.71563 1.33962C4.60563 2.93962 4.44563 4.40962 4.28563 5.77962C4.24563 6.14962 4.10563 6.48962 3.88563 6.78962C3.86563 6.81962 3.83563 6.84963 3.81563 6.88963C2.78563 8.15963 1.92563 8.25962 1.23563 7.21962C1.18563 7.14962 1.13563 7.06963 1.09563 6.98963" fill="white"/>
</mask>
<g mask="url(#mask0_289_9782)">
<path opacity="0.75" d="M3.36745 -0.449963C3.36745 -0.449963 4.35745 1.59004 2.64745 1.59004C1.13745 1.59004 1.94745 -0.43996 1.94745 -0.43996L3.36745 -0.459961V-0.449963Z" fill="#3A3A3A" stroke="#E62C2F" stroke-width="0.5" stroke-linecap="round" stroke-linejoin="round"/>
</g>
</svg>
