<svg width="5" height="18" viewBox="0 0 5 18" fill="none" xmlns="http://www.w3.org/2000/svg">
<mask id="mask0_289_9841" style="mask-type:luminance" maskUnits="userSpaceOnUse" x="0" y="-1" width="5" height="9">
<path d="M4.29469 6.30946C4.19469 6.52946 4.05469 6.73946 3.88469 6.90946C3.17469 7.61946 2.46469 7.85946 1.73469 7.65946C1.25469 7.52946 0.874686 7.20946 0.634686 6.79946C0.474686 6.52946 0.374687 6.21946 0.354687 5.89946L0.0546875 2.30946C0.104688 1.76946 0.234689 1.29946 0.454689 0.89946C0.694689 0.46946 1.15469 0.189459 1.65469 0.159459L4.12469 -0.000541052C4.75469 -0.0305411 4.95469 0.129459 4.92469 0.909459C4.92469 1.10946 4.90468 1.30946 4.91468 1.50946C4.95468 3.09946 4.83469 4.50946 4.47469 5.63946C4.45469 5.86946 4.39469 6.09946 4.29469 6.30946Z" fill="white"/>
</mask>
<g mask="url(#mask0_289_9841)">
<path opacity="0.75" d="M3.28447 -0.510506C3.28447 -0.510506 4.28447 1.55949 2.55447 1.55949C1.02447 1.55949 1.84447 -0.500507 1.84447 -0.500507L3.28447 -0.520508V-0.510506Z" fill="#3A3A3A" stroke="#E62C2F" stroke-width="0.5" stroke-linecap="round" stroke-linejoin="round"/>
</g>
</svg>
