<svg width="7" height="23" viewBox="0 0 7 23" fill="none" xmlns="http://www.w3.org/2000/svg">
<mask id="mask0_289_9755" style="mask-type:luminance" maskUnits="userSpaceOnUse" x="0" y="0" width="7" height="11">
<path d="M1.54531 8.76967C0.795315 7.83967 0.445312 6.55967 0.445312 4.98967C0.445312 4.45967 0.595312 3.93967 0.855312 3.47967C2.79531 0.179669 4.58531 -0.0903294 6.18531 3.44967C6.65531 5.54967 6.49531 7.32967 5.65531 8.75967C5.60531 8.84967 5.54531 8.93967 5.49531 9.01967C4.14531 11.1397 2.82531 11.1597 1.53531 8.75967L1.54531 8.76967Z" fill="white"/>
</mask>
<g mask="url(#mask0_289_9755)">
<path opacity="0.75" d="M4.23476 0.509766C4.23476 0.509766 5.27476 2.65976 3.47476 2.65976C1.88476 2.65976 2.73476 0.529762 2.73476 0.529762L4.23476 0.509766Z" fill="#3A3A3A" stroke="#E62C2F" stroke-width="0.5" stroke-linecap="round" stroke-linejoin="round"/>
</g>
</svg>
