<svg width="12" height="19" viewBox="0 0 12 19" fill="none" xmlns="http://www.w3.org/2000/svg">
<mask id="mask0_289_9849" style="mask-type:luminance" maskUnits="userSpaceOnUse" x="1" y="0" width="10" height="10">
<path d="M2.27702 7.7696C1.96702 7.4596 1.70702 7.0996 1.53702 6.6896C1.10702 5.6496 0.987019 4.4896 1.09702 3.2296C1.14702 2.6796 1.34702 2.13961 1.72702 1.73961C2.43702 0.989606 3.37702 0.979603 4.49702 1.5296C5.05702 1.9996 5.76702 1.79961 6.54702 1.23961C7.75702 0.769606 8.77702 0.869603 9.60702 1.5296C10.427 2.5396 10.467 3.95961 9.75702 5.78961C9.48702 6.47961 9.11702 7.11961 8.62702 7.64961C8.36702 7.93961 8.06702 8.19961 7.73702 8.41961C6.14702 9.49961 4.46702 9.38961 2.70702 8.12961C2.54702 8.01961 2.40702 7.89961 2.26702 7.75961L2.27702 7.7696Z" fill="white"/>
</mask>
<g mask="url(#mask0_289_9849)">
<path opacity="0.75" d="M6.31836 0.169922C6.31836 0.169922 7.67836 2.97992 5.32836 2.97992C3.24836 2.97992 4.35836 0.189919 4.35836 0.189919L6.30836 0.169922H6.31836Z" fill="#3A3A3A" stroke="#E62C2F" stroke-width="0.5" stroke-linecap="round" stroke-linejoin="round"/>
</g>
</svg>
