<svg width="13" height="20" viewBox="0 0 13 20" fill="none" xmlns="http://www.w3.org/2000/svg">
<mask id="mask0_289_9735" style="mask-type:luminance" maskUnits="userSpaceOnUse" x="1" y="0" width="12" height="10">
<path d="M3.30468 8.68949C2.85468 8.44949 2.47468 8.08949 2.26468 7.61949C2.09468 7.26949 1.99468 6.89949 1.96468 6.50949C1.78468 5.40949 1.81468 4.27949 1.99468 3.13949C2.06468 2.72949 2.24468 2.34949 2.53468 2.04949C3.00468 1.56949 3.47468 1.24949 3.96468 1.17949C4.70468 0.929488 5.41468 1.01949 6.11468 1.38949H6.18468C6.67468 1.61949 7.14468 1.60949 7.61468 1.38949C9.16468 0.899487 10.6147 0.799487 11.8747 1.45949C12.2247 1.70949 12.4747 2.22949 12.6147 3.08949C12.7447 4.84949 12.1747 6.50949 11.1047 8.07949C11.0047 8.22949 10.8947 8.35949 10.7647 8.47949C10.5847 8.64949 10.3747 8.78949 10.1447 8.89949C7.77468 9.97949 5.50468 9.87949 3.30468 8.68949Z" fill="white"/>
</mask>
<g mask="url(#mask0_289_9735)">
<path opacity="0.75" d="M8.19276 -0.150154C8.19276 -0.150154 9.66277 2.87984 7.12277 2.87984C4.88277 2.87984 6.08277 -0.130157 6.08277 -0.130157L8.19276 -0.160156V-0.150154Z" fill="#3A3A3A" stroke="#E62C2F" stroke-width="0.5" stroke-linecap="round" stroke-linejoin="round"/>
</g>
</svg>
