<svg width="10" height="28" viewBox="0 0 10 28" fill="none" xmlns="http://www.w3.org/2000/svg">
<mask id="mask0_254_12249" style="mask-type:luminance" maskUnits="userSpaceOnUse" x="0" y="15" width="10" height="13">
<path d="M1.49328 26.9775C1.72328 27.0275 2.75328 27.6175 4.21328 27.4675C5.12328 27.3775 6.26329 27.7475 7.38329 27.3375C7.95329 27.1275 8.60327 27.0875 9.23327 26.8775C9.92327 26.6475 9.97328 23.9175 9.74328 21.3675C9.51328 18.8175 9.00327 19.4675 8.17327 18.0375C4.54327 11.7775 4.11329 17.3975 2.31329 17.5275C1.16329 17.6075 -0.756712 26.4575 1.50329 26.9675L1.49328 26.9775Z" fill="white"/>
</mask>
<g mask="url(#mask0_254_12249)">
<path d="M3.74609 27.7174C3.79609 27.6774 3.5661 25.9074 4.2861 25.0574C4.5361 24.7674 4.87609 24.6174 5.30609 24.6074C5.69609 24.6074 6.0061 24.7374 6.2261 25.0074C6.8861 25.7774 6.6961 27.4374 6.6561 27.7874L3.74609 27.7174Z" fill="#DDDDDD"/>
</g>
</svg>
