<svg width="8" height="27" viewBox="0 0 8 27" fill="none" xmlns="http://www.w3.org/2000/svg">
<mask id="mask0_254_12239" style="mask-type:luminance" maskUnits="userSpaceOnUse" x="0" y="15" width="8" height="12">
<path d="M0.966119 25.5368C-0.0538813 24.9468 0.126104 21.8868 0.0761041 20.1268C-0.0238959 16.6968 3.87612 12.9468 6.55612 16.8568C7.41612 18.1068 7.8161 18.4768 7.8261 21.6668C7.8261 24.8568 7.04611 27.4568 5.08611 26.2268C3.12611 24.9968 3.16612 26.8068 0.966119 25.5368Z" fill="white"/>
</mask>
<g mask="url(#mask0_254_12239)">
<path d="M2.44922 26.747C2.49922 26.707 2.26922 24.967 2.97922 24.127C3.22922 23.827 3.5792 23.677 4.0192 23.667C4.4192 23.667 4.7292 23.807 4.9592 24.067C5.6092 24.837 5.42921 26.467 5.37921 26.807L2.44922 26.737V26.747Z" fill="#DDDDDD"/>
</g>
</svg>
