<svg width="10" height="32" viewBox="0 0 10 32" fill="none" xmlns="http://www.w3.org/2000/svg">
<mask id="mask0_254_12229" style="mask-type:luminance" maskUnits="userSpaceOnUse" x="0" y="19" width="10" height="13">
<path d="M0.7539 28.0477C0.2639 25.9877 1.4539 23.2477 1.6939 21.9977C1.9439 20.7477 3.8439 19.0977 5.1639 19.1977C6.4839 19.2977 8.20388 20.3477 8.42388 21.1977C9.57388 25.5777 10.8139 27.8577 8.74389 30.2677C7.42389 31.8077 5.36388 31.9477 3.89388 30.6977C2.42388 29.4477 1.2939 30.3177 0.7539 28.0477Z" fill="white"/>
</mask>
<g mask="url(#mask0_254_12229)">
<path d="M3.57342 32.0382C3.62342 31.9982 3.36344 30.0682 4.15344 29.1282C4.43344 28.7982 4.82343 28.6282 5.30343 28.6182C5.75343 28.6182 6.09345 28.7682 6.35345 29.0682C7.08345 29.9282 6.87342 31.7382 6.82342 32.1082L3.57342 32.0382Z" fill="#DDDDDD"/>
</g>
</svg>
