<svg width="11" height="28" viewBox="0 0 11 28" fill="none" xmlns="http://www.w3.org/2000/svg">
<mask id="mask0_254_12215" style="mask-type:luminance" maskUnits="userSpaceOnUse" x="0" y="15" width="11" height="13">
<path d="M0.09375 23.4067C0.09375 21.4467 0.683751 18.3967 1.81375 17.0767C2.56375 16.2067 4.16374 15.4067 5.39374 15.5767C6.62374 15.7467 7.06374 17.1667 7.99374 17.1267C8.92374 17.0867 9.76374 16.8767 9.95374 18.6467C10.1537 20.4167 10.5537 20.5567 10.7137 21.6867C10.8837 22.8167 11.2738 23.7767 9.16376 24.6167C7.05376 25.4567 6.53376 28.0067 4.66376 27.4467C2.79376 26.8867 3.03375 25.8067 1.71375 25.3167C0.393745 24.8267 0.09375 24.1367 0.09375 23.4067Z" fill="white"/>
</mask>
<g mask="url(#mask0_254_12215)">
<path d="M3.59595 27.687C3.64595 27.647 3.39595 25.777 4.16595 24.867C4.43595 24.547 4.81594 24.377 5.27594 24.377C5.70594 24.377 6.04595 24.527 6.28595 24.817C6.98595 25.647 6.78593 27.407 6.73593 27.767L3.58594 27.697L3.59595 27.687Z" fill="#DDDDDD"/>
</g>
</svg>
