<svg width="10" height="27" viewBox="0 0 10 27" fill="none" xmlns="http://www.w3.org/2000/svg">
<mask id="mask0_254_12205" style="mask-type:luminance" maskUnits="userSpaceOnUse" x="0" y="14" width="10" height="13">
<path d="M1.00424 24.5571C1.49424 25.3871 3.12425 25.2471 3.37425 25.9271C3.62425 26.6171 6.05425 26.9071 6.74425 25.7271C7.43425 24.5471 8.70424 24.1071 9.00424 22.9771C9.29424 21.8471 9.64424 17.4371 9.00424 16.9971C8.36424 16.5571 7.29424 17.0971 6.75424 16.5071C6.21424 15.9171 4.86424 14.2971 3.94425 15.3271C3.02425 16.3571 2.85425 17.0571 2.09425 17.2171C0.124254 17.6271 0.664252 23.9471 1.01425 24.5471L1.00424 24.5571Z" fill="white"/>
</mask>
<g mask="url(#mask0_254_12205)">
<path d="M3.1969 26.6665C3.2469 26.6265 2.9969 24.7965 3.7569 23.9165C4.0269 23.6065 4.38691 23.4465 4.84691 23.4365C5.26691 23.4365 5.5969 23.5765 5.8369 23.8665C6.5269 24.6765 6.3269 26.3965 6.2769 26.7465L3.1969 26.6765V26.6665Z" fill="#DDDDDD"/>
</g>
</svg>
