<svg width="13" height="28" viewBox="0 0 13 28" fill="none" xmlns="http://www.w3.org/2000/svg">
<mask id="mask0_254_12194" style="mask-type:luminance" maskUnits="userSpaceOnUse" x="0" y="16" width="13" height="12">
<path d="M1.65323 18.1366C0.883229 19.5466 0.583221 24.8866 1.22322 25.8166C1.86322 26.7466 3.57323 26.8966 4.26323 26.2066C4.95323 25.5166 5.17323 26.2966 5.78323 26.6366C6.39323 26.9666 6.93323 26.3466 7.59323 26.9966C8.84323 28.2266 11.2732 27.3866 11.9532 24.4966C12.6432 21.6066 12.7832 19.0066 12.4432 18.1266C12.1032 17.2466 10.4332 18.6666 9.25322 17.5866C8.07322 16.5066 6.36322 16.5566 4.94322 17.1966C3.52322 17.8366 2.78323 16.0866 1.65323 18.1466V18.1366Z" fill="white"/>
</mask>
<g mask="url(#mask0_254_12194)">
<path d="M4.33182 27.5772C4.38182 27.5372 4.10183 25.6271 4.92183 24.6571C5.24183 24.2771 5.68182 24.0871 6.25182 24.0771C6.77182 24.0771 7.17183 24.2471 7.46183 24.5871C8.21183 25.4871 7.99183 27.2871 7.93183 27.6472L4.33182 27.5671V27.5772Z" fill="#DDDDDD"/>
</g>
</svg>
