<svg width="13" height="25" viewBox="0 0 13 25" fill="none" xmlns="http://www.w3.org/2000/svg">
<mask id="mask0_254_12183" style="mask-type:luminance" maskUnits="userSpaceOnUse" x="0" y="14" width="13" height="11">
<path d="M1.36305 15.8071C-0.0469506 18.0171 -0.156938 21.6371 1.56306 22.6271C3.28306 23.6071 4.26306 22.6271 5.09306 22.8771C5.92306 23.1271 8.29305 25.6671 10.143 23.9571C12.143 22.1071 13.0331 16.7071 12.1531 15.4771C10.2631 12.8471 8.58305 15.8771 5.94305 14.3571C5.08305 13.8571 2.77305 13.6071 1.36305 15.8171V15.8071Z" fill="white"/>
</mask>
<g mask="url(#mask0_254_12183)">
<path d="M3.15221 24.0873C3.15221 24.0873 2.9322 22.4773 3.6622 21.5973C3.9922 21.1973 4.48221 20.9873 5.12221 20.9873C5.71221 20.9873 6.15221 21.1773 6.45221 21.5373C7.12221 22.3573 6.91221 23.8473 6.85221 24.1573L3.15221 24.0873Z" fill="#DDDDDD"/>
</g>
</svg>
