<svg width="11" height="24" viewBox="0 0 11 24" fill="none" xmlns="http://www.w3.org/2000/svg">
<mask id="mask0_254_12172" style="mask-type:luminance" maskUnits="userSpaceOnUse" x="0" y="13" width="11" height="11">
<path d="M0.862929 16.5159C0.0929293 18.2459 0.542938 22.9159 2.26294 22.9159C3.98294 22.9159 4.42294 22.6459 5.07294 23.2959C5.72294 23.9459 6.69294 22.9759 7.23294 23.0759C7.77294 23.1859 9.75293 24.6359 10.3029 21.7259C10.8529 18.8159 10.9029 14.4959 9.23294 14.8259C5.10294 15.6259 6.11293 11.2659 2.86293 15.6859C2.27293 16.4959 1.51293 15.0559 0.862929 16.5159Z" fill="white"/>
</mask>
<g mask="url(#mask0_254_12172)">
<path d="M3.5841 23.8861C3.6341 23.8461 3.3741 22.2261 4.1041 21.3461C4.4141 20.9761 4.85411 20.7861 5.42411 20.7861C5.95411 20.7861 6.3541 20.9561 6.6341 21.2961C7.3041 22.1061 7.09411 23.6361 7.04411 23.9561L3.5841 23.8861Z" fill="#DDDDDD"/>
</g>
</svg>
