<svg width="10" height="28" viewBox="0 0 10 28" fill="none" xmlns="http://www.w3.org/2000/svg">
<mask id="mask0_254_12014" style="mask-type:luminance" maskUnits="userSpaceOnUse" x="0" y="15" width="10" height="13">
<path d="M8.62335 26.9775C8.39335 27.0275 7.36335 27.6175 5.90335 27.4675C4.99335 27.3775 3.85334 27.7475 2.73334 27.3375C2.16334 27.1275 1.51336 27.0875 0.883361 26.8775C0.193361 26.6475 0.143352 23.9175 0.373352 21.3675C0.603352 18.8175 1.11336 19.4675 1.94336 18.0375C5.57336 11.7775 6.00334 17.3975 7.80334 17.5275C8.95334 17.6075 10.8733 26.4575 8.61334 26.9675L8.62335 26.9775Z" fill="white"/>
</mask>
<g mask="url(#mask0_254_12014)">
<path d="M3.46658 27.7874C3.41658 27.4474 3.23657 25.7774 3.89657 25.0074C4.11657 24.7474 4.42657 24.6074 4.80657 24.6074C5.24657 24.6074 5.58657 24.7674 5.83657 25.0574C6.57657 25.9274 6.30657 27.7674 6.30657 27.7774H3.46658V27.7874Z" fill="#DDDDDD"/>
</g>
</svg>
