<svg width="9" height="27" viewBox="0 0 9 27" fill="none" xmlns="http://www.w3.org/2000/svg">
<mask id="mask0_254_12004" style="mask-type:luminance" maskUnits="userSpaceOnUse" x="0" y="15" width="9" height="12">
<path d="M7.15298 25.5368C8.17298 24.9468 7.99297 21.8868 8.04297 20.1268C8.14297 16.6968 4.24299 12.9468 1.56299 16.8568C0.702988 18.1068 0.302969 18.4768 0.292969 21.6668C0.292969 24.8568 1.07299 27.4568 3.03299 26.2268C4.99299 24.9968 4.95298 26.8068 7.15298 25.5368Z" fill="white"/>
</mask>
<g mask="url(#mask0_254_12004)">
<path d="M2.74455 26.817C2.69455 26.477 2.51456 24.847 3.16456 24.077C3.39456 23.807 3.70455 23.667 4.08455 23.667C4.53455 23.667 4.88456 23.827 5.13456 24.127C5.86456 24.987 5.60456 26.797 5.59456 26.817H2.73454H2.74455Z" fill="#DDDDDD"/>
</g>
</svg>
