<svg width="10" height="32" viewBox="0 0 10 32" fill="none" xmlns="http://www.w3.org/2000/svg">
<mask id="mask0_254_11994" style="mask-type:luminance" maskUnits="userSpaceOnUse" x="0" y="19" width="10" height="13">
<path d="M9.36495 28.0477C9.85495 25.9877 8.66495 23.2477 8.42495 21.9977C8.17495 20.7477 6.27495 19.0977 4.95495 19.1977C3.63494 19.2977 1.91497 20.3477 1.69497 21.1977C0.544966 25.5777 -0.695041 27.8577 1.37496 30.2677C2.69496 31.8077 4.75496 31.9477 6.22496 30.6977C7.69496 29.4477 8.82495 30.3177 9.36495 28.0477Z" fill="white"/>
</mask>
<g mask="url(#mask0_254_11994)">
<path d="M3.29688 32.1082C3.24688 31.7482 3.03688 29.9282 3.76688 29.0682C4.01688 28.7682 4.36688 28.6182 4.79688 28.6182C5.29688 28.6182 5.68689 28.7982 5.96689 29.1282C6.77689 30.0882 6.4869 32.0782 6.4769 32.0982H3.29688V32.1082Z" fill="#DDDDDD"/>
</g>
</svg>
