<svg width="12" height="28" viewBox="0 0 12 28" fill="none" xmlns="http://www.w3.org/2000/svg">
<mask id="mask0_254_11979" style="mask-type:luminance" maskUnits="userSpaceOnUse" x="0" y="15" width="12" height="13">
<path d="M11.0245 23.4067C11.0245 21.4467 10.4345 18.3967 9.30453 17.0767C8.55453 16.2067 6.95455 15.4067 5.72455 15.5767C4.49455 15.7467 4.05454 17.1667 3.12454 17.1267C2.19454 17.0867 1.35455 16.8767 1.16455 18.6467C0.964549 20.4167 0.564539 20.5567 0.404539 21.6867C0.234539 22.8167 -0.155473 23.7767 1.95453 24.6167C4.06453 25.4567 4.58453 28.0067 6.45453 27.4467C8.32453 26.8867 8.08454 25.8067 9.40454 25.3167C10.7245 24.8267 11.0245 24.1367 11.0245 23.4067Z" fill="white"/>
</mask>
<g mask="url(#mask0_254_11979)">
<path d="M4.37341 27.767C4.32341 27.417 4.12339 25.647 4.82339 24.817C5.07339 24.527 5.40339 24.377 5.82339 24.377C6.30339 24.377 6.6834 24.547 6.9534 24.867C7.7434 25.797 7.4534 27.727 7.4534 27.747H4.37341V27.767Z" fill="#DDDDDD"/>
</g>
</svg>
