<svg width="10" height="27" viewBox="0 0 10 27" fill="none" xmlns="http://www.w3.org/2000/svg">
<mask id="mask0_254_11969" style="mask-type:luminance" maskUnits="userSpaceOnUse" x="0" y="14" width="10" height="13">
<path d="M9.11425 24.5571C8.62425 25.3871 6.99425 25.2471 6.74425 25.9271C6.49425 26.6171 4.06426 26.9071 3.37426 25.7271C2.68426 24.5471 1.41425 24.1071 1.11425 22.9771C0.824246 21.8471 0.474246 17.4371 1.11425 16.9971C1.75425 16.5571 2.82425 17.0971 3.36425 16.5071C3.90425 15.9171 5.25424 14.2971 6.17424 15.3271C7.09424 16.3571 7.26425 17.0571 8.02425 17.2171C9.99425 17.6271 9.45427 23.9471 9.10427 24.5471L9.11425 24.5571Z" fill="white"/>
</mask>
<g mask="url(#mask0_254_11969)">
<path d="M3.85554 26.7377C3.80554 26.3877 3.61551 24.6677 4.29551 23.8577C4.53551 23.5777 4.86551 23.4277 5.26551 23.4277C5.73551 23.4277 6.10553 23.5977 6.37553 23.9077C7.14553 24.8177 6.86552 26.7077 6.86552 26.7277H3.85554V26.7377Z" fill="#DDDDDD"/>
</g>
</svg>
