<svg width="13" height="28" viewBox="0 0 13 28" fill="none" xmlns="http://www.w3.org/2000/svg">
<mask id="mask0_254_11958" style="mask-type:luminance" maskUnits="userSpaceOnUse" x="0" y="16" width="13" height="12">
<path d="M11.4637 18.1366C12.2337 19.5466 12.5337 24.8866 11.8937 25.8166C11.2537 26.7466 9.54374 26.8966 8.85374 26.2066C8.16374 25.5166 7.94372 26.2966 7.33372 26.6366C6.72372 26.9666 6.18372 26.3466 5.52372 26.9966C4.27372 28.2266 1.84374 27.3866 1.16374 24.4966C0.473739 21.6066 0.333718 19.0066 0.673718 18.1266C1.01372 17.2466 2.68372 18.6666 3.86372 17.5866C5.04372 16.5066 6.75372 16.5566 8.17372 17.1966C9.59372 17.8366 10.3337 16.0866 11.4637 18.1466V18.1366Z" fill="white"/>
</mask>
<g mask="url(#mask0_254_11958)">
<path d="M5.18562 27.6464C5.13562 27.2864 4.90562 25.4864 5.65562 24.5864C5.94562 24.2464 6.34563 24.0664 6.84563 24.0664C7.42563 24.0664 7.87563 24.2664 8.19563 24.6464C9.03563 25.6464 8.71562 27.6164 8.71562 27.6364L5.18562 27.6564V27.6464Z" fill="#DDDDDD"/>
</g>
</svg>
