<svg width="13" height="25" viewBox="0 0 13 25" fill="none" xmlns="http://www.w3.org/2000/svg">
<mask id="mask0_254_11947" style="mask-type:luminance" maskUnits="userSpaceOnUse" x="0" y="14" width="13" height="11">
<path d="M11.7541 15.8071C13.1641 18.0171 13.274 21.6371 11.554 22.6271C9.83405 23.6071 8.85405 22.6271 8.02405 22.8771C7.19405 23.1271 4.82406 25.6671 2.97406 23.9571C0.974061 22.1071 0.0840509 16.7071 0.964051 15.4771C2.85405 12.8471 4.53404 15.8771 7.17404 14.3571C8.03404 13.8571 10.3441 13.6071 11.7541 15.8171V15.8071Z" fill="white"/>
</mask>
<g mask="url(#mask0_254_11947)">
<path d="M6.26668 24.1575C6.21668 23.8375 6.00671 22.3475 6.66671 21.5275C6.96671 21.1575 7.40671 20.9775 7.97671 20.9775C8.63671 20.9775 9.12669 21.1875 9.45669 21.5875C10.2067 22.4975 9.90669 24.1275 9.89669 24.1475H6.25671L6.26668 24.1575Z" fill="#DDDDDD"/>
</g>
</svg>
