<svg width="11" height="24" viewBox="0 0 11 24" fill="none" xmlns="http://www.w3.org/2000/svg">
<mask id="mask0_254_11936" style="mask-type:luminance" maskUnits="userSpaceOnUse" x="0" y="13" width="11" height="11">
<path d="M10.264 16.5159C11.034 18.2459 10.584 22.9159 8.86396 22.9159C7.14396 22.9159 6.70396 22.6459 6.05396 23.2959C5.40396 23.9459 4.43396 22.9759 3.89396 23.0759C3.35396 23.1859 1.37395 24.6359 0.823952 21.7259C0.273952 18.8159 0.22396 14.4959 1.89396 14.8259C6.02396 15.6259 5.01395 11.2659 8.26395 15.6859C8.85395 16.4959 9.61396 15.0559 10.264 16.5159Z" fill="white"/>
</mask>
<g mask="url(#mask0_254_11936)">
<path d="M4.07538 23.9561C4.02538 23.6361 3.82538 22.0961 4.48538 21.2961C4.76538 20.9561 5.16538 20.7861 5.67538 20.7861C6.26538 20.7861 6.71538 20.9761 7.01538 21.3461C7.76538 22.2461 7.47539 23.9261 7.46539 23.9461H4.07538V23.9561Z" fill="#DDDDDD"/>
</g>
</svg>
