<svg width="8" height="24" viewBox="0 0 8 24" fill="none" xmlns="http://www.w3.org/2000/svg">
<mask id="mask0_254_11926" style="mask-type:luminance" maskUnits="userSpaceOnUse" x="0" y="0" width="8" height="11">
<path d="M7.31591 8.59681C7.05591 10.0168 5.95592 9.58681 5.41592 10.3068C4.87592 11.0368 3.7259 11.1568 2.9959 10.3068C2.2659 9.45681 0.875913 9.23682 0.755913 7.86682C0.635913 6.49682 -0.214087 1.37681 0.755913 0.706813C1.72591 0.0368126 6.73591 -0.313187 7.31591 0.706813C7.89591 1.72681 7.61591 6.94681 7.31591 8.59681Z" fill="white"/>
</mask>
<g mask="url(#mask0_254_11926)">
<path d="M3.90395 3.09676C3.54395 3.09676 3.25394 2.95676 3.02394 2.69676C2.24394 1.79676 2.51393 -0.303242 2.51393 -0.323242H5.21394C5.15394 -0.293242 5.43395 1.88676 4.68395 2.74676C4.48395 2.97676 4.22395 3.09676 3.90395 3.09676Z" fill="#DDDDDD"/>
</g>
</svg>
