<svg width="9" height="25" viewBox="0 0 9 25" fill="none" xmlns="http://www.w3.org/2000/svg">
<mask id="mask0_254_11916" style="mask-type:luminance" maskUnits="userSpaceOnUse" x="0" y="0" width="9" height="12">
<path d="M7.13596 0.267238C6.12596 -0.162762 4.90596 0.847239 4.44596 0.537239C3.98596 0.227239 1.72595 -0.362761 1.12595 0.557239C0.52595 1.47724 -0.134068 5.91724 0.325932 7.53724C0.785932 9.16724 3.27595 12.0472 4.21595 11.6372C5.15595 11.2272 7.54595 9.51724 7.71595 9.00724C8.28595 7.29724 8.58595 0.887238 7.12595 0.267238H7.13596Z" fill="white"/>
</mask>
<g mask="url(#mask0_254_11916)">
<path d="M4.43901 3.0966C4.04901 3.0966 3.739 2.9466 3.499 2.6766C2.729 1.7866 2.999 -0.213398 2.999 -0.233398H5.79899C5.73899 -0.203398 6.02901 1.8666 5.28901 2.7266C5.07901 2.9766 4.79902 3.0966 4.44902 3.0966H4.429H4.43901Z" fill="#DDDDDD"/>
</g>
</svg>
