<svg width="9" height="31" viewBox="0 0 9 31" fill="none" xmlns="http://www.w3.org/2000/svg">
<mask id="mask0_254_11906" style="mask-type:luminance" maskUnits="userSpaceOnUse" x="0" y="0" width="9" height="13">
<path d="M7.11323 10.2869C8.44323 8.39686 8.59324 4.92686 8.37324 3.97686C8.15324 3.03686 4.84322 0.0268633 4.04322 0.0568633C3.24322 0.0868633 0.853237 1.01686 0.463237 1.90686C0.0732369 2.79686 0.283236 7.01686 0.993236 8.86686C1.70324 10.7169 4.29323 12.7569 4.92323 12.4269C5.55323 12.0969 6.41323 11.2769 7.11323 10.2769V10.2869Z" fill="white"/>
</mask>
<g mask="url(#mask0_254_11906)">
<path d="M4.03334 3.23664C3.65334 3.23664 3.33334 3.08664 3.09334 2.81664C2.30334 1.90664 2.58333 -0.163359 2.58333 -0.193359H5.41335C5.35335 -0.163359 5.64335 1.97664 4.88335 2.86664C4.67335 3.11664 4.38332 3.23664 4.04332 3.23664H4.02333H4.03334Z" fill="#DDDDDD"/>
</g>
</svg>
