<svg width="10" height="25" viewBox="0 0 10 25" fill="none" xmlns="http://www.w3.org/2000/svg">
<mask id="mask0_254_11896" style="mask-type:luminance" maskUnits="userSpaceOnUse" x="0" y="0" width="10" height="12">
<path d="M7.83381 8.77636C8.66381 7.94636 9.16382 5.43636 9.09382 4.03636C9.02382 2.63636 8.52382 2.54636 7.37382 1.60636C6.23382 0.66636 4.81381 -0.413642 3.77381 0.276358C1.14381 2.02636 -0.516175 0.976359 0.663825 5.22636C1.26382 7.37636 1.0538 8.72636 1.9238 9.57636C2.7938 10.4264 3.89382 11.4964 4.97382 11.1764C6.05382 10.8564 7.27381 9.33636 7.83381 8.77636Z" fill="white"/>
</mask>
<g mask="url(#mask0_254_11896)">
<path d="M4.70423 3.22633C4.27423 3.22633 3.92425 3.06633 3.66425 2.76633C2.85425 1.82633 3.14423 -0.243672 3.14423 -0.263672H6.18424C6.12424 -0.233672 6.43423 1.90633 5.64423 2.82633C5.41423 3.09633 5.10424 3.23633 4.71424 3.23633H4.69425L4.70423 3.22633Z" fill="#DDDDDD"/>
</g>
</svg>
