<svg width="11" height="24" viewBox="0 0 11 24" fill="none" xmlns="http://www.w3.org/2000/svg">
<mask id="mask0_254_11886" style="mask-type:luminance" maskUnits="userSpaceOnUse" x="0" y="0" width="11" height="12">
<path d="M10.5851 6.76686C11.0151 4.95686 10.5451 2.95686 9.21509 2.11686C7.88509 1.27686 5.64508 -0.283144 4.54508 0.136856C3.44508 0.566856 3.32509 1.05686 2.59509 1.37686C1.86509 1.68686 0.695077 3.16686 0.795077 5.17686C0.895077 7.18686 2.5651 8.58686 2.9151 9.38686C3.2651 10.1869 5.83509 12.5769 7.52509 10.9369C9.20509 9.29686 9.82508 9.96686 10.5851 6.76686Z" fill="white"/>
</mask>
<g mask="url(#mask0_254_11886)">
<path d="M5.34467 3.12648C4.90467 3.12648 4.55466 2.96648 4.30466 2.66648C3.55466 1.77648 3.82465 -0.0835156 3.82465 -0.103516H6.79465C6.73465 -0.0735156 7.02465 1.85648 6.29465 2.71648C6.06465 2.98648 5.75466 3.12648 5.36466 3.12648H5.34467Z" fill="#DDDDDD"/>
</g>
</svg>
