<svg width="14" height="24" viewBox="0 0 14 24" fill="none" xmlns="http://www.w3.org/2000/svg">
<mask id="mask0_254_11876" style="mask-type:luminance" maskUnits="userSpaceOnUse" x="0" y="0" width="14" height="10">
<path d="M13.2631 8.06706C13.9231 6.19706 14.3731 3.02706 12.7331 1.90706C8.37307 -1.07294 7.53309 0.677058 5.97309 0.387058C4.81309 0.167058 2.45307 -0.312943 1.01307 0.687057C-0.426935 1.68706 -0.00692618 6.00706 0.803074 7.36706C1.60307 8.72706 2.66307 8.88706 3.98307 8.80706C5.29307 8.72706 6.90309 9.82706 8.60309 9.31706C10.2931 8.80706 12.7531 9.55706 13.2731 8.07706L13.2631 8.06706Z" fill="white"/>
</mask>
<g mask="url(#mask0_254_11876)">
<path d="M6.64563 2.77738C6.07563 2.77738 5.63565 2.57738 5.31565 2.20738C4.49565 1.23738 4.80565 -0.662617 4.81565 -0.682617H8.37564C8.32564 -0.652617 8.65565 1.30738 7.85565 2.26738C7.56565 2.60738 7.16565 2.77738 6.66565 2.77738H6.64563Z" fill="#DDDDDD"/>
</g>
</svg>
