<svg width="13" height="23" viewBox="0 0 13 23" fill="none" xmlns="http://www.w3.org/2000/svg">
<mask id="mask0_254_11866" style="mask-type:luminance" maskUnits="userSpaceOnUse" x="0" y="0" width="13" height="10">
<path d="M11.4143 7.98648C12.3043 6.13648 12.7342 2.49648 10.4842 1.35648C8.23423 0.216481 6.55424 1.43648 5.46424 0.746481C4.38424 0.0664805 1.12425 -0.763521 0.474252 1.93648C-0.175748 4.63648 0.334245 6.88648 0.654245 7.65648C0.974245 8.42648 1.92424 8.16648 2.74424 8.00648C3.56424 7.84648 5.02425 9.42648 5.87425 9.42648C7.96425 9.44648 8.64423 7.56648 9.64423 7.65648C10.6442 7.74648 10.9643 8.91648 11.4143 7.98648Z" fill="white"/>
</mask>
<g mask="url(#mask0_254_11866)">
<path d="M6.22626 3.04617C5.62626 3.04617 5.14626 2.83617 4.81626 2.43617C3.94626 1.39617 4.27625 -0.633831 4.27625 -0.653831L8.06626 -0.673828C8.01626 -0.633828 8.36624 1.47617 7.51624 2.49617C7.21624 2.85617 6.78625 3.04617 6.24625 3.04617H6.22626Z" fill="#DDDDDD"/>
</g>
</svg>
