<svg width="12" height="21" viewBox="0 0 12 21" fill="none" xmlns="http://www.w3.org/2000/svg">
<mask id="mask0_254_11856" style="mask-type:luminance" maskUnits="userSpaceOnUse" x="0" y="0" width="12" height="9">
<path d="M9.98456 7.64659C11.1446 6.81659 11.9646 4.82659 11.5946 2.72659C11.2246 0.626589 10.1846 1.16659 9.63459 1.06659C9.09459 0.966589 8.15456 0.036589 6.76456 0.316589C5.37456 0.596589 4.84458 0.436589 3.53458 0.136589C2.22458 -0.163411 0.934588 0.676591 0.884588 2.55659C0.834588 4.43659 0.884585 6.01659 1.72458 6.71659C2.56458 7.40659 5.09458 6.51659 5.93458 6.71659C6.77458 6.91659 8.20456 8.93659 9.98456 7.65659V7.64659Z" fill="white"/>
</mask>
<g mask="url(#mask0_254_11856)">
<path d="M6.34292 2.54703C5.84292 2.54703 5.44293 2.36703 5.16293 2.03703C4.43293 1.16703 4.71292 -0.532969 4.71292 -0.542969H7.88293C7.83293 -0.502969 8.12293 1.24703 7.41293 2.09703C7.16293 2.39703 6.80291 2.55703 6.36291 2.55703H6.34292V2.54703Z" fill="#DDDDDD"/>
</g>
</svg>
