<svg width="8" height="24" viewBox="0 0 8 24" fill="none" xmlns="http://www.w3.org/2000/svg">
<mask id="mask0_254_12162" style="mask-type:luminance" maskUnits="userSpaceOnUse" x="0" y="0" width="8" height="11">
<path d="M0.763753 8.58705C1.02375 10.0071 2.12378 9.57705 2.66378 10.297C3.20378 11.0271 4.35376 11.147 5.08376 10.297C5.81376 9.44705 7.20375 9.22705 7.32375 7.85705C7.44375 6.48705 8.29375 1.36705 7.32375 0.697047C6.35375 0.027047 1.34375 -0.322953 0.763753 0.697047C0.183753 1.71705 0.463753 6.93705 0.763753 8.58705Z" fill="white"/>
</mask>
<g mask="url(#mask0_254_12162)">
<path d="M4.15323 3.08668C3.83323 3.08668 3.57323 2.96668 3.37323 2.73668C2.60323 1.85668 2.91324 -0.38332 2.91324 -0.40332L5.61322 -0.263317C5.55322 -0.223317 5.80324 1.81668 5.03324 2.69668C4.81324 2.95668 4.51323 3.08668 4.15323 3.09668H4.13324L4.15323 3.08668Z" fill="#DDDDDD"/>
</g>
</svg>
