<svg width="9" height="25" viewBox="0 0 9 25" fill="none" xmlns="http://www.w3.org/2000/svg">
<mask id="mask0_254_12152" style="mask-type:luminance" maskUnits="userSpaceOnUse" x="0" y="0" width="9" height="12">
<path d="M1.94475 0.2565C2.95475 -0.1735 4.17476 0.836496 4.63476 0.526496C5.09476 0.216496 7.35473 -0.373503 7.95473 0.546497C8.55473 1.4665 9.21475 5.9065 8.75475 7.5265C8.29475 9.1565 5.80474 12.0365 4.86474 11.6265C3.92474 11.2165 1.53474 9.5065 1.36474 8.9965C0.794738 7.2865 0.494734 0.8765 1.95473 0.2565H1.94475Z" fill="white"/>
</mask>
<g mask="url(#mask0_254_12152)">
<path d="M4.63609 3.08555C4.29609 3.08555 4.01606 2.95555 3.79606 2.71555C3.03606 1.83555 3.34609 -0.294453 3.35609 -0.314453L6.15608 -0.17445C6.10608 -0.13445 6.34608 1.80555 5.59608 2.67555C5.35608 2.94555 5.04608 3.09555 4.65608 3.09555H4.63609V3.08555Z" fill="#DDDDDD"/>
</g>
</svg>
