<svg width="9" height="31" viewBox="0 0 9 31" fill="none" xmlns="http://www.w3.org/2000/svg">
<mask id="mask0_254_12142" style="mask-type:luminance" maskUnits="userSpaceOnUse" x="0" y="0" width="9" height="13">
<path d="M1.96439 10.2771C0.634393 8.3871 0.484383 4.9171 0.704383 3.9671C0.924383 3.0271 4.2344 0.0170977 5.0344 0.0470977C5.8344 0.0770977 8.22439 1.0071 8.61439 1.8971C9.00439 2.7871 8.79439 7.0071 8.08439 8.8571C7.37439 10.7071 4.7844 12.7471 4.1544 12.4171C3.5244 12.0871 2.66439 11.2671 1.96439 10.2671V10.2771Z" fill="white"/>
</mask>
<g mask="url(#mask0_254_12142)">
<path d="M5.02515 3.22656C4.68515 3.22656 4.40515 3.09656 4.18515 2.85656C3.40515 1.95656 3.72516 -0.253438 3.72516 -0.273438L6.55515 -0.133438C6.49515 -0.0934381 6.74516 1.91656 5.97516 2.80656C5.73516 3.08656 5.42516 3.22656 5.03516 3.22656H5.01514H5.02515Z" fill="#DDDDDD"/>
</g>
</svg>
