<svg width="10" height="25" viewBox="0 0 10 25" fill="none" xmlns="http://www.w3.org/2000/svg">
<mask id="mask0_254_12132" style="mask-type:luminance" maskUnits="userSpaceOnUse" x="0" y="0" width="10" height="12">
<path d="M2.24308 8.76659C1.41308 7.93659 0.913066 5.42659 0.983066 4.02659C1.05307 2.62659 1.55307 2.53659 2.70307 1.59659C3.84307 0.656591 5.26307 -0.423407 6.30307 0.266593C8.93307 2.01659 10.5931 0.966594 9.41309 5.21659C8.81309 7.36659 9.02308 8.71659 8.15308 9.56659C7.28308 10.4166 6.18309 11.4866 5.10309 11.1666C4.02309 10.8466 2.80308 9.32659 2.24308 8.76659Z" fill="white"/>
</mask>
<g mask="url(#mask0_254_12132)">
<path d="M5.35255 3.20672C4.97255 3.20672 4.66253 3.06672 4.42253 2.79672C3.62253 1.86672 3.95253 -0.343281 3.96253 -0.363281L6.99253 -0.223282C6.94253 -0.183282 7.20254 1.82672 6.40254 2.74672C6.14254 3.04672 5.79253 3.20672 5.36253 3.20672H5.34254H5.35255Z" fill="#DDDDDD"/>
</g>
</svg>
