<svg width="11" height="24" viewBox="0 0 11 24" fill="none" xmlns="http://www.w3.org/2000/svg">
<mask id="mask0_254_12122" style="mask-type:luminance" maskUnits="userSpaceOnUse" x="0" y="0" width="11" height="12">
<path d="M0.494478 6.75709C0.0644775 4.94709 0.534473 2.94709 1.86447 2.10709C3.19447 1.26709 5.43449 -0.292909 6.53449 0.127091C7.63449 0.557091 7.75448 1.04709 8.48448 1.36709C9.21448 1.67709 10.3845 3.15709 10.2845 5.16709C10.1845 7.16709 8.51448 8.57709 8.16448 9.37709C7.81448 10.1771 5.24448 12.5671 3.55448 10.9271C1.87448 9.28709 1.25448 9.95709 0.494478 6.75709Z" fill="white"/>
</mask>
<g mask="url(#mask0_254_12122)">
<path d="M5.71299 3.11641C5.32299 3.11641 5.013 2.97641 4.783 2.70641C4.033 1.82641 4.35299 -0.163594 4.35299 -0.183594L7.313 -0.0535927C7.263 -0.0135927 7.503 1.78641 6.763 2.65641C6.503 2.95641 6.15299 3.11641 5.72299 3.11641H5.703H5.71299Z" fill="#DDDDDD"/>
</g>
</svg>
