<svg width="15" height="24" viewBox="0 0 15 24" fill="none" xmlns="http://www.w3.org/2000/svg">
<mask id="mask0_254_12112" style="mask-type:luminance" maskUnits="userSpaceOnUse" x="0" y="0" width="15" height="10">
<path d="M0.816513 8.05631C0.156513 6.18631 -0.293489 3.01632 1.34651 1.89632C5.70651 -1.08368 6.54651 0.666315 8.10651 0.376315C9.26651 0.156315 11.6265 -0.323685 13.0665 0.676315C14.5065 1.67631 14.0865 5.99631 13.2765 7.35631C12.4765 8.71631 11.4165 8.87632 10.0965 8.79632C8.78651 8.71632 7.1765 9.81631 5.4765 9.30631C3.7865 8.79631 1.3265 9.54631 0.806503 8.06631L0.816513 8.05631Z" fill="white"/>
</mask>
<g mask="url(#mask0_254_12112)">
<path d="M7.41504 2.76633C6.90504 2.76633 6.50503 2.59633 6.22503 2.25633C5.41503 1.28633 5.77504 -0.743672 5.77504 -0.763672L9.33503 -0.623672C9.28503 -0.583672 9.56504 1.24633 8.76504 2.19633C8.45504 2.57633 8.00504 2.76633 7.43504 2.76633H7.41504Z" fill="#DDDDDD"/>
</g>
</svg>
