<svg width="13" height="23" viewBox="0 0 13 23" fill="none" xmlns="http://www.w3.org/2000/svg">
<mask id="mask0_254_12102" style="mask-type:luminance" maskUnits="userSpaceOnUse" x="0" y="0" width="13" height="10">
<path d="M1.66542 7.96695C0.77542 6.11695 0.345427 2.47695 2.59543 1.33695C4.84543 0.196948 6.52542 1.41695 7.61542 0.726947C8.69542 0.0469475 11.9554 -0.78305 12.6054 1.91695C13.2554 4.61695 12.7454 6.86695 12.4254 7.63695C12.1054 8.40695 11.1554 8.14695 10.3354 7.98695C9.51542 7.82695 8.05543 9.40695 7.20543 9.40695C5.11543 9.42695 4.43542 7.54695 3.43542 7.63695C2.43542 7.72695 2.11542 8.89695 1.66542 7.96695Z" fill="white"/>
</mask>
<g mask="url(#mask0_254_12102)">
<path d="M6.83324 3.03683C6.29324 3.03683 5.87325 2.85684 5.56325 2.48684C4.69325 1.44684 5.08324 -0.723164 5.08324 -0.743164L8.87325 -0.603165C8.82325 -0.563165 9.12325 1.39684 8.26325 2.41684C7.93325 2.81684 7.45325 3.01683 6.85325 3.02683H6.83324V3.03683Z" fill="#DDDDDD"/>
</g>
</svg>
