<svg width="12" height="21" viewBox="0 0 12 21" fill="none" xmlns="http://www.w3.org/2000/svg">
<mask id="mask0_254_12092" style="mask-type:luminance" maskUnits="userSpaceOnUse" x="0" y="0" width="12" height="9">
<path d="M2.09431 7.63682C0.934307 6.80682 0.114306 4.81682 0.484306 2.71682C0.854306 0.616823 1.8943 1.15682 2.4443 1.05682C2.9843 0.956824 3.92431 0.0268235 5.31431 0.306824C6.70431 0.586824 7.2343 0.426823 8.5443 0.126823C9.8543 -0.173177 11.1443 0.666821 11.1943 2.54682C11.2443 4.42682 11.1943 6.00682 10.3543 6.70682C9.5143 7.39682 6.98429 6.50682 6.14429 6.70682C5.30429 6.90682 3.87431 8.92682 2.09431 7.64682V7.63682Z" fill="white"/>
</mask>
<g mask="url(#mask0_254_12092)">
<path d="M5.71446 2.53719C5.26446 2.53719 4.91446 2.38719 4.65446 2.07719C3.93446 1.20719 4.25445 -0.612813 4.25445 -0.632812L7.42447 -0.502811C7.37447 -0.462811 7.61446 1.16719 6.90446 2.01719C6.62446 2.34719 6.22446 2.51719 5.72446 2.52719H5.70447L5.71446 2.53719Z" fill="#DDDDDD"/>
</g>
</svg>
