<svg width="8" height="20" viewBox="0 0 8 20" fill="none" xmlns="http://www.w3.org/2000/svg">
<mask id="mask0_254_12365" style="mask-type:luminance" maskUnits="userSpaceOnUse" x="0" y="12" width="8" height="8">
<path d="M5.95484 13.7068C6.12484 13.9268 6.26485 14.1668 6.36485 14.4268C7.34485 16.7868 7.88485 18.8668 5.96485 19.4368C4.12485 19.4968 2.28485 19.5568 1.37485 19.2168C0.19485 18.3468 0.00484896 16.9668 0.404849 15.2968C0.504849 14.8768 0.674849 14.4668 0.904849 14.1068C1.36485 13.3768 2.07485 12.8268 2.93485 12.6268C3.31485 12.5368 3.69485 12.5168 4.06485 12.5668C4.82485 12.6768 5.49484 13.1068 5.95484 13.7068Z" fill="white"/>
</mask>
<g mask="url(#mask0_254_12365)">
<path d="M2.51612 19.9365C2.47612 19.6365 2.33612 18.3665 2.85612 17.7465C3.05612 17.5165 3.32611 17.3965 3.66611 17.3965C4.06611 17.3965 4.36612 17.5365 4.58612 17.7865C5.18612 18.4965 4.96612 19.9265 4.95612 19.9465H2.51612V19.9365Z" fill="#DDDDDD"/>
</g>
</svg>
