<svg width="7" height="19" viewBox="0 0 7 19" fill="none" xmlns="http://www.w3.org/2000/svg">
<mask id="mask0_254_12353" style="mask-type:luminance" maskUnits="userSpaceOnUse" x="0" y="12" width="7" height="7">
<path d="M1.75608 12.9267C0.766078 14.3167 0.556077 15.7867 0.946077 17.3167C1.07608 17.8467 1.51608 18.2567 2.05608 18.3667C2.95608 18.5467 4.17608 18.4567 5.36608 18.3867C6.40608 18.3867 6.39607 17.6667 6.27607 16.9567C6.17607 15.8167 5.95608 14.7067 5.60608 13.6267C5.51608 13.3367 5.36608 13.0767 5.16608 12.8467C4.99608 12.6467 4.77608 12.4867 4.53608 12.3667C3.61608 11.9367 2.69608 12.1267 1.76608 12.9267H1.75608Z" fill="white"/>
</mask>
<g mask="url(#mask0_254_12353)">
<path d="M2.58927 19.0271C2.54927 18.7271 2.42928 17.4471 2.91928 16.8671C3.07928 16.6771 3.30928 16.5771 3.57928 16.5771C3.89928 16.5771 4.14928 16.6871 4.32928 16.9071C4.89928 17.5771 4.69928 19.0271 4.68928 19.0471H2.58927V19.0271Z" fill="#DDDDDD"/>
</g>
</svg>
