<svg width="7" height="22" viewBox="0 0 7 22" fill="none" xmlns="http://www.w3.org/2000/svg">
<mask id="mask0_254_12341" style="mask-type:luminance" maskUnits="userSpaceOnUse" x="0" y="13" width="7" height="9">
<path d="M1.18336 14.6766C1.40336 14.3466 1.67335 14.0566 2.00335 13.8266C3.09335 13.0466 4.21335 13.1566 5.35335 14.3366C6.12335 15.5766 6.50335 16.8166 6.22335 18.0566C5.86335 19.2666 5.18336 20.2266 4.27336 21.0166C3.95336 21.2966 3.54335 21.4366 3.12335 21.4366H2.85335C2.67335 21.4366 2.48335 21.4166 2.31335 21.3566C0.493352 20.7366 -0.0166458 18.8966 0.643354 15.9666C0.743354 15.5066 0.933353 15.0666 1.19335 14.6766H1.18336Z" fill="white"/>
</mask>
<g mask="url(#mask0_254_12341)">
<path d="M2.10215 21.5869C2.06215 21.3069 1.94216 20.1369 2.41216 19.5869C2.57216 19.3969 2.79216 19.2969 3.07216 19.2969C3.39216 19.2969 3.64216 19.4069 3.82216 19.6169C4.36216 20.2469 4.16216 21.5769 4.16216 21.5969H2.11216L2.10215 21.5869Z" fill="#DDDDDD"/>
</g>
</svg>
