<svg width="11" height="20" viewBox="0 0 11 20" fill="none" xmlns="http://www.w3.org/2000/svg">
<mask id="mask0_254_12328" style="mask-type:luminance" maskUnits="userSpaceOnUse" x="1" y="12" width="9" height="8">
<path d="M7.57062 13.6461C7.78062 13.8661 7.99062 14.1261 8.19062 14.4061C8.85062 15.2661 9.26062 16.3661 9.23062 17.8661C9.18062 18.7361 8.83062 19.1461 8.26062 19.2361C7.86062 19.2961 7.44062 19.1761 7.12062 18.9261C6.79062 18.6661 6.44062 18.7561 6.08062 19.0161C5.72062 19.2761 5.31062 19.4461 4.87062 19.4461C4.05062 19.4461 3.26062 19.3461 2.48062 19.1561C1.85062 19.0861 1.46062 18.6561 1.44062 17.7261C1.26062 16.6961 1.41062 15.6761 1.90062 14.6661C1.99062 14.4861 2.11062 14.3161 2.25062 14.1661C2.27062 14.1461 2.28062 14.1261 2.30062 14.1161C4.12062 12.1561 5.89062 11.8361 7.57062 13.6361V13.6461Z" fill="white"/>
</mask>
<g mask="url(#mask0_254_12328)">
<path d="M4.16033 20.5063C4.12033 20.1563 3.95033 18.4863 4.58033 17.7563C4.78033 17.5263 5.05033 17.4062 5.37033 17.4062C5.75033 17.4062 6.05033 17.5462 6.28033 17.8062C6.99033 18.6362 6.74033 20.4863 6.74033 20.5063H4.16033Z" fill="#DDDDDD"/>
</g>
</svg>
