<svg width="14" height="20" viewBox="0 0 14 20" fill="none" xmlns="http://www.w3.org/2000/svg">
<mask id="mask0_254_12315" style="mask-type:luminance" maskUnits="userSpaceOnUse" x="3" y="11" width="11" height="9">
<path d="M11.9146 13.6266C12.0446 13.7766 12.1746 13.9266 12.3046 14.0966C13.4146 15.7166 14.0646 17.2566 12.7046 18.4666C11.7546 19.1966 10.3646 19.3966 8.8246 19.4166C8.5646 19.4166 8.32461 19.2666 8.18461 19.0466C7.90461 18.6166 7.37461 18.8166 6.74461 19.2466C6.55461 19.3766 6.33461 19.4566 6.10461 19.4666C5.56461 19.4966 5.10461 19.3866 4.69461 19.1566C3.76461 18.6566 3.26461 17.6166 3.33461 16.5666C3.35461 16.1566 3.42461 15.7566 3.52461 15.3666C3.71461 14.5666 4.18461 13.8666 4.84461 13.3866C7.53461 11.4266 9.91461 11.3866 11.9146 13.6266Z" fill="white"/>
</mask>
<g mask="url(#mask0_254_12315)">
<path d="M6.90603 20.1865C6.85603 19.8665 6.67603 18.3765 7.30603 17.6265C7.54603 17.3365 7.88603 17.1865 8.32603 17.1865C8.82603 17.1865 9.20603 17.3565 9.47603 17.6765C10.176 18.5165 9.91603 20.1665 9.91603 20.1765H6.91603L6.90603 20.1865Z" fill="#DDDDDD"/>
</g>
</svg>
