<svg width="8" height="20" viewBox="0 0 8 20" fill="none" xmlns="http://www.w3.org/2000/svg">
<mask id="mask0_254_12438" style="mask-type:luminance" maskUnits="userSpaceOnUse" x="0" y="12" width="8" height="8">
<path d="M1.70438 13.7674C1.53438 13.9874 1.39438 14.2274 1.29438 14.4874C0.314379 16.8474 -0.225619 18.9274 1.69438 19.4974C3.53438 19.5574 5.37438 19.6174 6.28438 19.2774C7.46438 18.4074 7.65438 17.0274 7.25438 15.3574C7.15438 14.9374 6.98438 14.5274 6.75438 14.1674C6.29438 13.4374 5.58438 12.8874 4.72438 12.6874C4.34438 12.5974 3.96437 12.5774 3.59437 12.6274C2.83437 12.7374 2.16438 13.1674 1.70438 13.7674Z" fill="white"/>
</mask>
<g mask="url(#mask0_254_12438)">
<path d="M2.63499 19.937C2.68499 19.897 2.495 18.527 3.075 17.847C3.295 17.587 3.595 17.457 3.975 17.457C4.335 17.457 4.605 17.577 4.795 17.807C5.315 18.427 5.17499 19.697 5.13499 19.997L2.625 19.947L2.63499 19.937Z" fill="#DDDDDD"/>
</g>
<mask id="mask1_254_12438" style="mask-type:luminance" maskUnits="userSpaceOnUse" x="0" y="12" width="8" height="8">
<path d="M1.70438 13.7674C1.53438 13.9874 1.39438 14.2274 1.29438 14.4874C0.314379 16.8474 -0.225619 18.9274 1.69438 19.4974C3.53438 19.5574 5.37438 19.6174 6.28438 19.2774C7.46438 18.4074 7.65438 17.0274 7.25438 15.3574C7.15438 14.9374 6.98438 14.5274 6.75438 14.1674C6.29438 13.4374 5.58438 12.8874 4.72438 12.6874C4.34438 12.5974 3.96437 12.5774 3.59437 12.6274C2.83437 12.7374 2.16438 13.1674 1.70438 13.7674Z" fill="white"/>
</mask>
<g mask="url(#mask1_254_12438)">
<path d="M2.63499 19.937C2.68499 19.897 2.495 18.527 3.075 17.847C3.295 17.587 3.595 17.457 3.975 17.457C4.335 17.457 4.605 17.577 4.795 17.807C5.315 18.427 5.17499 19.697 5.13499 19.997L2.625 19.947L2.63499 19.937Z" fill="#DDDDDD"/>
</g>
</svg>
