<svg width="6" height="19" viewBox="0 0 6 19" fill="none" xmlns="http://www.w3.org/2000/svg">
<mask id="mask0_254_12413" style="mask-type:luminance" maskUnits="userSpaceOnUse" x="0" y="12" width="6" height="7">
<path d="M4.91071 12.9872C5.90071 14.3772 6.11071 15.8472 5.72071 17.3772C5.59071 17.9072 5.15071 18.3172 4.61071 18.4272C3.71071 18.6072 2.49071 18.5172 1.30071 18.4472C0.260706 18.4472 0.27071 17.7272 0.39071 17.0172C0.49071 15.8772 0.710708 14.7672 1.06071 13.6872C1.15071 13.3972 1.30071 13.1372 1.50071 12.9072C1.67071 12.7072 1.89071 12.5472 2.13071 12.4272C3.05071 11.9972 3.97071 12.1872 4.90071 12.9872H4.91071Z" fill="white"/>
</mask>
<g mask="url(#mask0_254_12413)">
<path d="M1.90234 19.0377C1.95234 18.9977 1.78234 17.6077 2.33234 16.9677C2.51234 16.7577 2.76234 16.6477 3.07234 16.6377C3.35234 16.6377 3.57234 16.7377 3.74234 16.9277C4.24234 17.5077 4.11234 18.7877 4.07234 19.0877L1.90234 19.0377Z" fill="#DDDDDD"/>
</g>
<mask id="mask1_254_12413" style="mask-type:luminance" maskUnits="userSpaceOnUse" x="0" y="12" width="6" height="7">
<path d="M4.91071 12.9872C5.90071 14.3772 6.11071 15.8472 5.72071 17.3772C5.59071 17.9072 5.15071 18.3172 4.61071 18.4272C3.71071 18.6072 2.49071 18.5172 1.30071 18.4472C0.260706 18.4472 0.27071 17.7272 0.39071 17.0172C0.49071 15.8772 0.710708 14.7672 1.06071 13.6872C1.15071 13.3972 1.30071 13.1372 1.50071 12.9072C1.67071 12.7072 1.89071 12.5472 2.13071 12.4272C3.05071 11.9972 3.97071 12.1872 4.90071 12.9872H4.91071Z" fill="white"/>
</mask>
<g mask="url(#mask1_254_12413)">
<path d="M1.90234 19.0377C1.95234 18.9977 1.78234 17.6077 2.33234 16.9677C2.51234 16.7577 2.76234 16.6477 3.07234 16.6377C3.35234 16.6377 3.57234 16.7377 3.74234 16.9277C4.24234 17.5077 4.11234 18.7877 4.07234 19.0877L1.90234 19.0377Z" fill="#DDDDDD"/>
</g>
</svg>
