<svg width="7" height="22" viewBox="0 0 7 22" fill="none" xmlns="http://www.w3.org/2000/svg">
<mask id="mask0_254_12401" style="mask-type:luminance" maskUnits="userSpaceOnUse" x="0" y="13" width="7" height="9">
<path d="M5.4756 14.7371C5.2556 14.4071 4.9856 14.1171 4.6556 13.8871C3.5656 13.1071 2.4456 13.2171 1.3056 14.3971C0.535598 15.6371 0.155602 16.8771 0.435602 18.1171C0.795602 19.3271 1.4756 20.2872 2.3856 21.0772C2.7056 21.3572 3.11561 21.4971 3.53561 21.4971H3.8056C3.9856 21.4971 4.17561 21.4772 4.34561 21.4172C6.16561 20.7972 6.6756 18.9571 6.0156 16.0271C5.9156 15.5671 5.7256 15.1271 5.4656 14.7371H5.4756Z" fill="white"/>
</mask>
<g mask="url(#mask0_254_12401)">
<path d="M2.43359 21.5972C2.48359 21.5572 2.3236 20.2872 2.8436 19.6872C3.0236 19.4772 3.27359 19.3672 3.58359 19.3672C3.86359 19.3672 4.09359 19.4672 4.25359 19.6572C4.72359 20.2072 4.6036 21.3672 4.5636 21.6572L2.44359 21.6072L2.43359 21.5972Z" fill="#DDDDDD"/>
</g>
</svg>
