<svg width="11" height="20" viewBox="0 0 11 20" fill="none" xmlns="http://www.w3.org/2000/svg">
<mask id="mask0_254_12388" style="mask-type:luminance" maskUnits="userSpaceOnUse" x="1" y="12" width="9" height="8">
<path d="M3.09514 13.7164C2.88514 13.9364 2.67513 14.1964 2.47513 14.4764C1.81513 15.3364 1.40514 16.4364 1.43514 17.9364C1.48514 18.8064 1.83514 19.2164 2.40514 19.3064C2.80514 19.3664 3.22514 19.2464 3.54514 18.9964C3.87514 18.7364 4.22513 18.8264 4.58513 19.0864C4.94513 19.3464 5.35514 19.5164 5.79514 19.5164C6.61514 19.5164 7.40514 19.4164 8.18514 19.2264C8.81514 19.1564 9.20513 18.7264 9.22513 17.7964C9.40513 16.7664 9.25514 15.7464 8.76514 14.7364C8.67514 14.5564 8.55513 14.3864 8.41513 14.2364C8.39513 14.2164 8.38513 14.1964 8.36513 14.1864C6.54513 12.2264 4.77514 11.9064 3.09514 13.7064V13.7164Z" fill="white"/>
</mask>
<g mask="url(#mask0_254_12388)">
<path d="M3.85547 20.5068C3.90547 20.4668 3.68547 18.6768 4.38547 17.8668C4.60547 17.6068 4.90547 17.4768 5.27547 17.4668C5.61547 17.4668 5.88546 17.5868 6.08546 17.8168C6.71546 18.5568 6.54546 20.2168 6.50546 20.5668L3.85547 20.4968V20.5068Z" fill="#DDDDDD"/>
</g>
</svg>
