<svg width="14" height="20" viewBox="0 0 14 20" fill="none" xmlns="http://www.w3.org/2000/svg">
<mask id="mask0_254_12375" style="mask-type:luminance" maskUnits="userSpaceOnUse" x="0" y="11" width="11" height="9">
<path d="M1.7478 13.6871C1.6178 13.8371 1.4878 13.9871 1.3578 14.1571C0.247802 15.7771 -0.402192 17.3171 0.957808 18.5271C1.90781 19.2571 3.2978 19.4571 4.8378 19.4771C5.0978 19.4771 5.3378 19.3271 5.4778 19.1071C5.7578 18.6771 6.2878 18.8771 6.9178 19.3071C7.1078 19.4371 7.3278 19.5171 7.5578 19.5271C8.0978 19.5571 8.5578 19.4471 8.9678 19.2171C9.8978 18.7171 10.3978 17.6771 10.3278 16.6271C10.3078 16.2171 10.2378 15.8171 10.1378 15.4271C9.9478 14.6271 9.47781 13.9271 8.81781 13.4471C6.12781 11.4871 3.7478 11.4471 1.7478 13.6871Z" fill="white"/>
</mask>
<g mask="url(#mask0_254_12375)">
<path d="M3.68968 20.1868C3.73968 20.1468 3.50968 18.5668 4.18968 17.7468C4.45968 17.4268 4.83969 17.2568 5.31969 17.2568C5.76969 17.2568 6.10969 17.4068 6.34969 17.6968C6.96969 18.4468 6.78968 19.9268 6.74968 20.2568L3.67969 20.1968L3.68968 20.1868Z" fill="#DDDDDD"/>
</g>
</svg>
