<svg width="5" height="19" viewBox="0 0 5 19" fill="none" xmlns="http://www.w3.org/2000/svg">
<mask id="mask0_254_12082" style="mask-type:luminance" maskUnits="userSpaceOnUse" x="0" y="0" width="5" height="9">
<path d="M4.50672 7.89345C4.71672 7.49345 4.81672 7.04345 4.83672 6.59345L4.96672 3.12345C5.01672 2.33345 4.68672 1.92345 4.21672 1.62345C3.50672 1.11345 2.48672 0.883454 1.62672 0.933454C1.02672 1.12345 1.00672 0.983456 0.926718 1.51346C0.886718 1.76346 0.876719 2.01346 0.896719 2.26346C1.00672 3.86346 1.16672 5.33345 1.32672 6.70345C1.36672 7.07345 1.50672 7.41345 1.72672 7.71345C1.74672 7.74345 1.77672 7.77346 1.79672 7.81346C2.82672 9.07345 3.67672 9.18345 4.37672 8.14345C4.42672 8.07345 4.47672 7.99345 4.51672 7.91345" fill="white"/>
</mask>
<g mask="url(#mask0_254_12082)">
<path d="M2.87549 2.6936C2.65549 2.6936 2.47549 2.61359 2.34549 2.45359C1.84549 1.87359 2.05548 0.453594 2.05548 0.433594L3.88549 0.543594C3.83549 0.583594 3.98549 1.85359 3.49549 2.41359C3.34549 2.59359 3.14549 2.68359 2.89549 2.68359L2.87549 2.6936Z" fill="#DDDDDD"/>
</g>
</svg>
