<svg width="6" height="19" viewBox="0 0 6 19" fill="none" xmlns="http://www.w3.org/2000/svg">
<mask id="mask0_254_12072" style="mask-type:luminance" maskUnits="userSpaceOnUse" x="0" y="0" width="6" height="9">
<path d="M1.31636 6.95692C1.41636 7.17692 1.55637 7.38692 1.72637 7.55692C2.43637 8.26692 3.14637 8.50692 3.87637 8.30692C4.35637 8.17692 4.73637 7.85692 4.97637 7.44692C5.13637 7.17692 5.23637 6.86692 5.25637 6.54692L5.55636 2.95692C5.50636 2.41692 5.37637 1.94692 5.15637 1.54692C4.91637 1.11692 4.45636 0.83692 3.95636 0.80692L1.48636 0.64692C0.866362 0.61692 0.656366 0.77692 0.686366 1.55692C0.686366 1.75692 0.706368 1.95692 0.696368 2.15692C0.656368 3.74692 0.776363 5.14692 1.13636 6.28692C1.15636 6.51692 1.21636 6.74692 1.31636 6.95692Z" fill="white"/>
</mask>
<g mask="url(#mask0_254_12072)">
<path d="M2.94403 2.41645C2.69403 2.41645 2.50403 2.32644 2.35403 2.15644C1.83403 1.55644 2.05403 0.116445 2.05403 0.106445L4.01403 0.216446C3.96403 0.256446 4.11403 1.53645 3.61403 2.12645C3.44403 2.31645 3.22403 2.41645 2.95403 2.41645H2.94403Z" fill="#DDDDDD"/>
</g>
</svg>
