<svg width="7" height="23" viewBox="0 0 7 23" fill="none" xmlns="http://www.w3.org/2000/svg">
<mask id="mask0_254_12060" style="mask-type:luminance" maskUnits="userSpaceOnUse" x="0" y="0" width="7" height="11">
<path d="M5.08012 8.49682C5.83012 7.56682 6.18013 6.28682 6.18013 4.72682C6.18013 4.19682 6.03013 3.67682 5.77013 3.22682C3.83013 -0.0731831 2.04012 -0.333182 0.440125 3.19682C-0.0298751 5.29682 0.130124 7.07682 0.970124 8.50682C1.02012 8.59682 1.08013 8.68682 1.13013 8.76682C2.48013 10.8868 3.80012 10.9068 5.08012 8.50682V8.49682Z" fill="white"/>
</mask>
<g mask="url(#mask0_254_12060)">
<path d="M2.95938 2.75633C2.69938 2.75633 2.47938 2.66633 2.32938 2.47633C1.81938 1.87633 2.03938 0.496328 2.03938 0.486328L4.07938 0.596325C4.02938 0.636325 4.17938 1.85633 3.68938 2.43633C3.51938 2.63633 3.27937 2.74633 2.97937 2.74633H2.96938L2.95938 2.75633Z" fill="#DDDDDD"/>
</g>
</svg>
