<svg width="12" height="19" viewBox="0 0 12 19" fill="none" xmlns="http://www.w3.org/2000/svg">
<mask id="mask0_254_12048" style="mask-type:luminance" maskUnits="userSpaceOnUse" x="1" y="0" width="10" height="9">
<path d="M9.34034 7.4571C9.65034 7.1471 9.91034 6.78711 10.0803 6.37711C10.5103 5.33711 10.6303 4.17711 10.5203 2.91711C10.4703 2.36711 10.2703 1.8271 9.89034 1.4271C9.18034 0.677104 8.24033 0.667105 7.12034 1.21711C6.56034 1.68711 5.85035 1.4871 5.07035 0.927104C3.86035 0.457104 2.84033 0.557105 2.01033 1.21711C1.19033 2.22711 1.15034 3.6471 1.86034 5.4771C2.12034 6.1671 2.50035 6.7971 2.99035 7.3371C3.25035 7.6271 3.55034 7.8871 3.87034 8.1071C5.46034 9.18711 7.13033 9.0771 8.90033 7.8171C9.06033 7.7071 9.20034 7.5871 9.34034 7.4471V7.4571Z" fill="white"/>
</mask>
<g mask="url(#mask0_254_12048)">
<path d="M6.19179 3.20656C5.76179 3.20656 5.43179 3.06656 5.19179 2.77656C4.56179 2.01656 4.85179 0.496562 4.85179 0.476562L7.76178 0.596561C7.76178 0.596561 7.92178 1.99656 7.31178 2.72656C7.05178 3.03656 6.68178 3.19656 6.20178 3.19656H6.18179L6.19179 3.20656Z" fill="#DDDDDD"/>
</g>
</svg>
