<svg width="13" height="20" viewBox="0 0 13 20" fill="none" xmlns="http://www.w3.org/2000/svg">
<mask id="mask0_254_12036" style="mask-type:luminance" maskUnits="userSpaceOnUse" x="0" y="0" width="12" height="10">
<path d="M10.297 8.33671C10.747 8.09671 11.127 7.73671 11.337 7.26672C11.507 6.91672 11.597 6.54671 11.637 6.15671C11.817 5.05671 11.787 3.92672 11.607 2.78672C11.537 2.37672 11.357 1.99671 11.067 1.70671C10.597 1.22671 10.127 0.906715 9.63702 0.836715C8.89702 0.586715 8.18703 0.676714 7.48703 1.04671H7.41702C6.92702 1.27671 6.45703 1.26671 5.98703 1.04671C4.43703 0.556714 2.99702 0.456714 1.72702 1.11671C1.37702 1.36671 1.12703 1.88671 0.987029 2.74671C0.857029 4.50671 1.42703 6.15672 2.48703 7.73672C2.58703 7.88672 2.69703 8.01671 2.82703 8.13671C3.00703 8.30671 3.21702 8.44672 3.44702 8.55672C5.80702 9.63672 8.08703 9.53671 10.287 8.34671L10.297 8.33671Z" fill="white"/>
</mask>
<g mask="url(#mask0_254_12036)">
<path d="M6.52691 3.26617C6.06691 3.26617 5.70691 3.11617 5.44691 2.80617C4.76691 1.98617 5.07691 0.346172 5.08691 0.326172L8.21691 0.446171C8.16691 0.486171 8.39692 1.95617 7.73692 2.74617C7.45692 3.07617 7.05692 3.25617 6.53692 3.25617H6.51692L6.52691 3.26617Z" fill="#DDDDDD"/>
</g>
</svg>
