<svg width="5" height="19" viewBox="0 0 5 19" fill="none" xmlns="http://www.w3.org/2000/svg">
<mask id="mask0_254_12305" style="mask-type:luminance" maskUnits="userSpaceOnUse" x="0" y="0" width="5" height="9">
<path d="M1.0861 7.89345C0.876098 7.49345 0.776096 7.04345 0.756096 6.59345L0.626099 3.12346C0.576099 2.33346 0.906099 1.92346 1.3761 1.62346C2.0861 1.11346 3.10609 0.883454 3.96609 0.933454C4.56609 1.12345 4.58609 0.983456 4.66609 1.51346C4.70609 1.76346 4.7161 2.01346 4.6961 2.26346C4.5861 3.86346 4.4261 5.33345 4.2661 6.70345C4.2261 7.07345 4.0861 7.41345 3.8661 7.71345C3.8461 7.74345 3.8161 7.77346 3.7961 7.81346C2.7661 9.07346 1.91609 9.18345 1.21609 8.14345C1.16609 8.07345 1.1161 7.99346 1.0761 7.91346" fill="white"/>
</mask>
<g mask="url(#mask0_254_12305)">
<path d="M2.70691 2.6934C2.45691 2.6934 2.25692 2.6034 2.10692 2.4234C1.59692 1.8334 1.77691 0.503398 1.77691 0.483398L3.60692 0.503395C3.55692 0.553395 3.72691 1.9034 3.24691 2.4634C3.10691 2.6234 2.93692 2.7034 2.71692 2.7034H2.70691V2.6934Z" fill="#DDDDDD"/>
</g>
</svg>
