<svg width="5" height="19" viewBox="0 0 5 19" fill="none" xmlns="http://www.w3.org/2000/svg">
<mask id="mask0_254_12295" style="mask-type:luminance" maskUnits="userSpaceOnUse" x="0" y="0" width="5" height="9">
<path d="M4.27516 7.24012C4.17516 7.46012 4.03516 7.67012 3.86516 7.84012C3.15516 8.55012 2.44516 8.79012 1.71516 8.59012C1.23516 8.46012 0.855158 8.14012 0.615158 7.73012C0.455158 7.46012 0.355155 7.15012 0.335155 6.83012L0.0351562 3.24012C0.0851563 2.70012 0.215158 2.23012 0.435158 1.83012C0.675158 1.40012 1.13515 1.12012 1.63515 1.09012L4.10516 0.930123C4.72516 0.900123 4.93516 1.06012 4.90516 1.84012C4.90516 2.04012 4.88516 2.24012 4.89516 2.44012C4.93516 4.03012 4.81516 5.43012 4.45516 6.57012C4.43516 6.80012 4.37516 7.03012 4.27516 7.24012Z" fill="white"/>
</mask>
<g mask="url(#mask0_254_12295)">
<path d="M2.63358 2.69946C2.36358 2.69946 2.13358 2.59945 1.97358 2.40945C1.45358 1.79945 1.63358 0.449453 1.64358 0.439453H3.60358C3.55358 0.499453 3.73358 1.85945 3.23358 2.43945C3.08358 2.60945 2.89358 2.69946 2.64358 2.69946H2.63358Z" fill="#DDDDDD"/>
</g>
</svg>
