<svg width="7" height="23" viewBox="0 0 7 23" fill="none" xmlns="http://www.w3.org/2000/svg">
<mask id="mask0_254_12283" style="mask-type:luminance" maskUnits="userSpaceOnUse" x="0" y="0" width="7" height="11">
<path d="M1.52578 8.79662C0.775784 7.86662 0.425781 6.58662 0.425781 5.02662C0.425781 4.49662 0.575781 3.97662 0.835781 3.52662C2.77578 0.226622 4.56578 -0.0333772 6.16578 3.49662C6.63578 5.59662 6.47578 7.37662 5.63578 8.80662C5.58578 8.89662 5.52578 8.98662 5.47578 9.06662C4.12578 11.1866 2.80578 11.2066 1.52578 8.80662V8.79662Z" fill="white"/>
</mask>
<g mask="url(#mask0_254_12283)">
<path d="M3.62856 3.04617C3.32856 3.04617 3.08856 2.93617 2.91856 2.73617C2.39856 2.12617 2.58856 0.846172 2.58856 0.826172H4.62856C4.57856 0.886172 4.75856 2.18617 4.26856 2.76617C4.10856 2.94617 3.89856 3.04617 3.63856 3.04617H3.62856Z" fill="#DDDDDD"/>
</g>
</svg>
