<svg width="12" height="19" viewBox="0 0 12 19" fill="none" xmlns="http://www.w3.org/2000/svg">
<mask id="mask0_254_12271" style="mask-type:luminance" maskUnits="userSpaceOnUse" x="1" y="0" width="10" height="10">
<path d="M2.25358 7.74812C1.94358 7.43812 1.68358 7.07812 1.51358 6.66812C1.08358 5.62812 0.963582 4.46812 1.07358 3.20812C1.12358 2.65812 1.32358 2.11812 1.70358 1.71812C2.41358 0.96812 3.35358 0.958121 4.47358 1.50812C5.03358 1.97812 5.74358 1.77812 6.52358 1.21812C7.73358 0.74812 8.75358 0.848121 9.58358 1.50812C10.4036 2.51812 10.4436 3.93812 9.73358 5.76812C9.47358 6.45812 9.09358 7.08812 8.60358 7.62812C8.34358 7.91812 8.04358 8.17812 7.72358 8.39812C6.13358 9.47812 4.46358 9.36812 2.69358 8.10812C2.53358 7.99812 2.39358 7.87812 2.25358 7.73812V7.74812Z" fill="white"/>
</mask>
<g mask="url(#mask0_254_12271)">
<path d="M5.39442 3.49789C4.91442 3.49789 4.54441 3.33789 4.28441 3.02789C3.65441 2.26789 3.90442 0.847891 3.90442 0.837891H6.81442C6.76442 0.887891 7.01442 2.33789 6.40442 3.07789C6.17442 3.35789 5.83442 3.50789 5.40442 3.50789H5.38442L5.39442 3.49789Z" fill="#DDDDDD"/>
</g>
</svg>
