<svg width="13" height="20" viewBox="0 0 13 20" fill="none" xmlns="http://www.w3.org/2000/svg">
<mask id="mask0_254_12259" style="mask-type:luminance" maskUnits="userSpaceOnUse" x="1" y="0" width="12" height="10">
<path d="M3.29687 8.62675C2.84687 8.38675 2.46687 8.02675 2.25687 7.55675C2.08687 7.20675 1.99687 6.83675 1.95687 6.44675C1.77687 5.34675 1.80687 4.21675 1.98687 3.07675C2.05687 2.66675 2.23687 2.28675 2.52687 1.99675C2.99687 1.51675 3.46687 1.19675 3.95687 1.12675C4.69687 0.876752 5.40687 0.966751 6.10687 1.33675H6.17687C6.66687 1.56675 7.13687 1.55675 7.60687 1.33675C9.15687 0.846751 10.5969 0.746755 11.8669 1.40675C12.2169 1.65675 12.4669 2.17675 12.6069 3.03675C12.7369 4.79675 12.1669 6.44675 11.1069 8.02675C11.0069 8.17675 10.8969 8.30676 10.7669 8.42675C10.5869 8.59676 10.3769 8.73675 10.1469 8.84675C7.78687 9.92675 5.50687 9.82675 3.30687 8.63675L3.29687 8.62675Z" fill="white"/>
</mask>
<g mask="url(#mask0_254_12259)">
<path d="M7.05743 3.5575C6.53743 3.5575 6.13743 3.3775 5.85743 3.0475C5.17743 2.2275 5.44743 0.6975 5.44743 0.6875H8.58743C8.53743 0.7275 8.80743 2.3075 8.15743 3.0975C7.90743 3.3975 7.54743 3.5575 7.07743 3.5575H7.05743Z" fill="#DDDDDD"/>
</g>
</svg>
