<svg width="42" height="39" viewBox="0 0 42 39" fill="none" xmlns="http://www.w3.org/2000/svg">
<path fill-rule="evenodd" clip-rule="evenodd" d="M21.8998 4.79669C22.6681 4.79291 23.2887 4.16659 23.283 3.39836C23.2792 2.63014 22.6529 2.0095 21.8847 2.01518C21.1165 2.01896 20.4958 2.64527 20.5015 3.4135C20.5053 4.18173 21.1316 4.80048 21.8998 4.79669Z" fill="white"/>
<path fill-rule="evenodd" clip-rule="evenodd" d="M8.29706 14.5451C6.69817 16.2746 5.63476 18.4903 5.34904 20.9331C4.98385 24.0496 5.9167 27.0203 7.71995 29.3004C9.5232 31.5824 12.1969 33.1756 15.3133 33.5408C17.8602 33.8397 20.3503 33.2626 22.443 32.0176C24.3995 30.852 26.0079 29.1017 26.9899 26.9314L23.9719 26.0818C23.2491 27.4687 22.1649 28.5946 20.8687 29.3647C19.3474 30.2711 17.5328 30.6874 15.6709 30.4698C13.4022 30.2049 11.4551 29.043 10.1419 27.3836C8.82877 25.7223 8.14947 23.5614 8.41627 21.2908C8.6263 19.4988 9.39642 17.8829 10.5544 16.6303C11.7143 15.3758 13.2659 14.4789 15.0313 14.1326L14.4372 11.1089C12.0209 11.5876 9.89217 12.8194 8.29706 14.5451Z" fill="white"/>
<path fill-rule="evenodd" clip-rule="evenodd" d="M23.7258 33.8702C21.213 35.3651 18.2195 36.0557 15.1542 35.6962C11.4096 35.2572 8.19854 33.3423 6.03389 30.6024C3.86734 27.8625 2.74716 24.2958 3.18615 20.5511C3.53242 17.5993 4.80586 14.9332 6.71696 12.8669C8.63185 10.795 11.1882 9.31531 14.1003 8.74198L13.5061 5.71826C9.94313 6.42026 6.80779 8.23487 4.4577 10.7761C2.10193 13.3211 0.537095 16.5889 0.115138 20.1897C-0.422242 24.7802 0.951483 29.1549 3.60811 32.5173C6.26473 35.8797 10.2043 38.2261 14.7947 38.7653C18.5469 39.2043 22.2158 38.3566 25.3001 36.5212C28.3654 34.6971 30.848 31.8986 32.2576 28.417L29.2642 27.573C28.0967 30.2694 26.1308 32.4379 23.7258 33.8702Z" fill="white"/>
<path fill-rule="evenodd" clip-rule="evenodd" d="M41.117 14.2785C41.1075 14.2368 41.0886 14.1971 41.064 14.1611L38.7461 11.0882C39.2002 8.69461 39.3251 7.94341 38.2314 5.65765C37.3099 3.42676 34.9579 0.862844 29.0051 1.05396C28.8632 0.448455 28.3182 -0.00188625 27.6692 5.94055e-06C26.9161 0.00379032 26.3069 0.618752 26.3106 1.37184C26.3144 2.12493 26.9294 2.73422 27.6825 2.73043C27.9587 2.72854 28.2142 2.64529 28.428 2.50337C28.92 2.90262 29.4384 3.60273 29.8963 4.53747C29.7241 4.67371 29.5917 4.85915 29.516 5.07107C28.6569 5.03133 27.9001 5.05783 27.3589 5.07864C27.3248 5.08053 27.2908 5.08053 27.2567 5.08242C27.13 4.69074 26.7667 4.40502 26.3315 4.40691C25.796 4.40881 25.3645 4.8459 25.3664 5.38139C25.3683 5.91688 25.8054 6.3483 26.3409 6.34641C26.7667 6.34451 27.1224 6.06636 27.2511 5.68414C27.2927 5.68225 27.3324 5.68225 27.3797 5.68036C27.902 5.66143 28.6342 5.63494 29.4668 5.67279C29.5122 5.91877 29.6333 6.13827 29.8074 6.30667C28.761 6.95758 27.8925 7.74663 27.2662 8.61514C27.0429 8.45998 26.7723 8.36726 26.479 8.36916C25.726 8.37294 25.1167 8.9879 25.1205 9.74099C25.1242 10.4411 25.6522 11.0125 26.3315 11.0901C26.3542 12.9899 27.8887 15.3286 30.0761 17.6276C29.3268 19.4668 28.1574 21.3723 26.3712 23.1717C26.1744 22.9996 25.9171 22.8955 25.6351 22.8974C25.0183 22.9012 24.5225 23.4026 24.5244 24.0194C24.5282 24.6363 25.0296 25.1321 25.6465 25.1302C25.9152 25.1283 26.1612 25.0318 26.3523 24.8747L31.4593 26.2276C31.4649 26.8426 31.9664 27.3365 32.5813 27.3346C33.1982 27.3308 33.6939 26.8293 33.692 26.2125C33.6902 25.7716 33.4309 25.3913 33.0582 25.2134C33.0714 24.343 33.2928 23.6183 33.7147 23.1131C34.1064 22.6419 34.6646 22.3846 35.2872 22.3846C35.2909 22.3846 35.2947 22.3846 35.2985 22.3846H35.3742C36.729 22.3941 38.1311 22.3997 38.7744 21.5426C39.1396 21.0582 39.2078 20.3751 38.9807 19.4593C39.3818 19.2738 39.6449 18.99 39.7168 18.6513C39.7622 18.4375 39.747 18.1347 39.501 17.7885L39.9722 17.6276C40.0687 17.5955 40.1425 17.516 40.1671 17.4176C40.2995 16.9048 40.2314 16.392 39.9817 15.9568C40.572 15.69 41.3232 15.2132 41.117 14.2785ZM37.0185 4.68696C36.5644 4.60749 36.0838 4.57153 35.5861 4.57532C35.4442 4.21202 35.0923 3.95279 34.6798 3.95468C34.5 3.95657 34.3354 4.00766 34.1916 4.0947C32.9314 3.054 31.3268 2.22522 29.4119 1.6481C33.0014 1.60647 35.5918 2.64339 37.0185 4.68696ZM35.518 15.7676C34.9409 16.8916 34.1859 17.9758 33.2795 18.9787C33.1528 18.9181 33.0109 18.8822 32.8595 18.8822C32.6854 18.8822 32.5246 18.9332 32.3845 19.0146C31.8245 18.5056 31.2909 17.989 30.7894 17.4725C31.5406 15.4932 31.832 13.5992 31.9001 11.9908C31.9058 11.9908 31.9115 11.9908 31.9172 11.9908C32.2086 11.9889 32.4773 11.8962 32.6986 11.7391C33.7526 12.4752 34.6779 13.3872 35.4669 14.3598C35.2928 14.5358 35.185 14.7799 35.1869 15.0467C35.1888 15.3362 35.3193 15.5897 35.518 15.7676ZM33.1017 11.2926C33.2133 11.0939 33.2777 10.865 33.2758 10.6209C33.272 9.86777 32.657 9.25848 31.9039 9.26227C31.8737 9.26227 31.8434 9.26605 31.8131 9.26795C31.7053 8.28779 31.516 7.33224 31.2606 6.44669C31.4252 6.34073 31.5614 6.19692 31.6561 6.02473C31.7015 6.00581 31.7488 5.98878 31.7961 5.96986C33.834 6.42588 35.8908 7.5101 36.7668 10.0059C36.7801 10.144 36.7895 10.2841 36.7952 10.426C36.8463 11.6426 36.6476 12.8764 36.2389 14.0836C36.2105 14.0817 36.1822 14.076 36.1538 14.076C36.1065 14.076 36.0611 14.0836 36.0156 14.0911C35.1888 13.0561 34.2162 12.0816 33.1017 11.2926ZM32.816 5.61224C33.1509 5.51384 33.4877 5.43059 33.8245 5.36625C33.9872 5.68036 34.3108 5.89607 34.6892 5.89417C34.8311 5.89417 34.9636 5.86201 35.0847 5.80713C35.5956 6.44102 35.9986 7.13356 36.2843 7.88097C35.3553 6.71349 34.1083 6.02095 32.816 5.61224ZM28.9294 2.13439C30.9105 2.6907 32.5454 3.49677 33.8037 4.52423C33.7696 4.59992 33.745 4.68128 33.7299 4.76643C33.0847 4.89131 32.4337 5.07864 31.7942 5.32273C31.728 4.73426 31.2265 4.27824 30.621 4.28203C30.5643 4.28203 30.5075 4.28771 30.4545 4.29527C30.008 3.37378 29.4857 2.62258 28.9294 2.13439ZM30.447 6.61699C30.5075 6.62645 30.5699 6.63213 30.6324 6.63213C30.6513 6.63213 30.6721 6.63023 30.691 6.62834C30.9351 7.47983 31.1225 8.42592 31.2265 9.44581C31.0014 9.57826 30.8159 9.77127 30.6967 10.0059C29.8036 9.67477 28.8462 9.47609 27.8282 9.4477C27.7998 9.31147 27.7506 9.18469 27.6844 9.06737C28.3561 8.08154 29.3306 7.25277 30.447 6.61699ZM26.9407 11.022C27.3759 10.8706 27.7109 10.5054 27.8187 10.0513C28.7875 10.0778 29.6995 10.2727 30.5491 10.5925C30.5491 10.6057 30.5472 10.6209 30.5472 10.6341C30.5491 11.1677 30.8576 11.6256 31.3041 11.8489C31.2511 13.3532 30.9938 15.1243 30.3277 16.9843C28.2974 14.7969 26.9313 12.6493 26.9407 11.022ZM30.5378 18.095C30.9957 18.5567 31.4763 19.0146 31.9758 19.4668C31.9247 19.5861 31.8945 19.7185 31.8945 19.8566C31.8945 20.0023 31.9304 20.1386 31.9891 20.2635C30.5264 21.5766 28.7932 22.6949 26.8764 23.518C28.6096 21.7564 29.7714 19.9002 30.5378 18.095ZM33.255 22.7233C32.7611 23.3156 32.4943 24.1349 32.464 25.1056C32.1064 25.1434 31.7999 25.3497 31.6239 25.6448L26.7137 24.343C26.725 24.3052 26.7345 24.2673 26.7421 24.2295C28.8727 23.3666 30.7951 22.1462 32.4016 20.6987C32.5416 20.7762 32.7005 20.8235 32.8727 20.8235C33.0563 20.8216 33.2247 20.7687 33.3704 20.6778C33.8415 21.0695 34.3184 21.4536 34.8009 21.8245C34.1954 21.9324 33.658 22.2408 33.255 22.7233ZM38.2938 21.1774C37.8776 21.7318 36.8217 21.7791 35.7337 21.7791C35.0639 21.2777 34.4035 20.7535 33.7639 20.218C33.8113 20.1045 33.8359 19.9796 33.8359 19.8472C33.8359 19.6807 33.7885 19.5255 33.7129 19.3874C34.6665 18.3315 35.4612 17.1905 36.0667 16.0041C36.0989 16.0079 36.1311 16.0136 36.1632 16.0136C36.3165 16.0136 36.4584 15.9739 36.5871 15.9095C37.3875 17.1489 37.9741 18.3769 38.3317 19.3647C38.5796 20.2048 38.5663 20.8141 38.2938 21.1774ZM39.4045 15.5387C39.3118 15.5746 39.2437 15.6541 39.221 15.7506C39.1983 15.8471 39.2248 15.9493 39.291 16.0212C39.5654 16.3239 39.6789 16.7061 39.6165 17.1073L38.8691 17.3608C38.7669 17.3949 38.6912 17.4819 38.6704 17.5879C38.6496 17.6939 38.6874 17.8017 38.7688 17.8736C39.0394 18.1082 39.168 18.3391 39.1283 18.5207C39.0999 18.6532 38.9788 18.7781 38.7915 18.8765C38.4036 17.8774 37.8094 16.6796 37.0204 15.4781C37.0866 15.3457 37.1282 15.1981 37.1282 15.0391C37.1264 14.7477 36.9939 14.4904 36.7895 14.3125C37.2342 13.022 37.4518 11.7013 37.3969 10.3995C37.3894 10.2367 37.378 10.0778 37.3629 9.91886C37.3629 9.90751 37.361 9.89804 37.3591 9.88669C37.1926 8.20832 36.5625 6.70214 35.5142 5.41923C35.5577 5.34544 35.5918 5.26597 35.6145 5.18082C36.2673 5.17703 36.8879 5.24704 37.448 5.4022C37.5313 5.56493 37.6108 5.73144 37.6808 5.90553C38.7063 8.05316 38.5985 8.63028 38.1368 11.0617L38.1273 11.1109C38.1122 11.1942 38.1311 11.2812 38.1822 11.3475L40.538 14.4715C40.6061 14.9067 40.2977 15.1924 39.4045 15.5387Z" fill="white"/>
<path fill-rule="evenodd" clip-rule="evenodd" d="M26.0591 18.5C26.7554 18.4962 27.3155 17.9285 27.3117 17.2341C27.3079 16.5378 26.7403 15.9777 26.0459 15.9815C25.3495 15.9852 24.7894 16.5529 24.7932 17.2473C24.797 17.9418 25.3647 18.5038 26.0591 18.5Z" fill="white"/>
<path fill-rule="evenodd" clip-rule="evenodd" d="M23.0794 20.8711C23.0832 21.4879 23.5846 21.9837 24.2014 21.9818C24.8183 21.978 25.314 21.4766 25.3121 20.8597C25.3084 20.2429 24.8069 19.7471 24.1901 19.749C23.5732 19.7528 23.0756 20.2542 23.0794 20.8711Z" fill="white"/>
<path fill-rule="evenodd" clip-rule="evenodd" d="M22.2357 13.7691C21.4675 13.7728 20.8468 14.3992 20.8506 15.1693C20.8544 15.9375 21.4807 16.5581 22.2508 16.5544C23.019 16.5506 23.6397 15.9243 23.6359 15.1541C23.6302 14.3859 23.0039 13.7653 22.2357 13.7691Z" fill="white"/>
<path fill-rule="evenodd" clip-rule="evenodd" d="M19.0998 12.2555C19.096 11.4702 18.4565 10.8363 17.6712 10.8401C16.886 10.8439 16.2521 11.4834 16.2559 12.2687C16.2597 13.054 16.8992 13.6878 17.6845 13.6841C18.4697 13.6803 19.1036 13.0407 19.0998 12.2555Z" fill="white"/>
<path fill-rule="evenodd" clip-rule="evenodd" d="M21.6676 11.2434C22.4113 11.2396 23.0111 10.6341 23.0073 9.89047C23.0035 9.14684 22.398 8.54701 21.6544 8.5508C20.9108 8.55458 20.3109 9.16008 20.3147 9.90371C20.3185 10.6473 20.924 11.2472 21.6676 11.2434Z" fill="white"/>
<path d="M17.1825 8.72494C18.2641 8.72494 19.1409 7.84812 19.1409 6.76652C19.1409 5.68492 18.2641 4.80811 17.1825 4.80811C16.1009 4.80811 15.2241 5.68492 15.2241 6.76652C15.2241 7.84812 16.1009 8.72494 17.1825 8.72494Z" fill="white"/>
<path d="M16.84 25.4139C18.6792 25.4139 20.1702 23.9229 20.1702 22.0837C20.1702 20.2444 18.6792 18.7534 16.84 18.7534C15.0008 18.7534 13.5098 20.2444 13.5098 22.0837C13.5098 23.9229 15.0008 25.4139 16.84 25.4139Z" fill="white"/>
</svg>
