<svg width="19" height="28" viewBox="0 0 19 28" fill="none" xmlns="http://www.w3.org/2000/svg">
<path d="M14.3506 20.1374C14.1006 17.5874 13.5306 14.9874 13.2906 12.4074C13.0506 9.82745 12.0806 7.74745 11.5206 3.82745C10.9606 -0.0825541 9.60063 -0.262554 8.77063 1.75745C7.94063 3.77745 6.73063 9.22745 6.99063 12.2274C7.26063 15.2274 6.41062 18.7074 5.89062 20.1374H14.3406H14.3506Z" fill="#F4DE9C" stroke="#5E5E5A" stroke-width="0.15" stroke-linecap="round" stroke-linejoin="round"/>
<path d="M18.8406 15.1973H0.640625V19.8573H18.8406V15.1973Z" fill="#FFE4E3"/>
<path d="M0.640625 19.8574H18.8406" stroke="#5E5E5A" stroke-width="0.15" stroke-miterlimit="10"/>
<path d="M18.8406 15.1973H0.640625" stroke="#5E5E5A" stroke-width="0.15" stroke-miterlimit="10"/>
<path d="M6.41064 26.7875C6.64064 26.8375 7.66063 27.4175 9.12063 27.2775C10.0306 27.1875 11.1606 27.5575 12.2706 27.1475C12.8306 26.9375 13.4806 26.9075 14.1106 26.6975C14.8006 26.4675 14.8506 23.7475 14.6206 21.2075C14.3906 18.6675 13.8806 19.3175 13.0506 17.8875C9.43062 11.6575 9.01064 17.2475 7.22064 17.3775C6.08064 17.4575 4.16064 26.2675 6.41064 26.7775V26.7875Z" fill="white" stroke="#5E5E5A" stroke-width="0.15" stroke-linecap="round" stroke-linejoin="round"/>
</svg>
