<svg width="19" height="27" viewBox="0 0 19 27" fill="none" xmlns="http://www.w3.org/2000/svg">
<path d="M13.4695 19.2671C13.3995 15.6071 12.5195 11.3771 11.9795 9.51709C11.4395 7.65709 11.0595 4.37709 9.72952 1.59709C8.39952 -1.18291 7.73954 1.32709 7.86954 2.52709C7.99954 3.72709 7.25953 8.52709 6.79953 10.4771C6.33953 12.4271 6.68953 15.8871 6.01953 19.2671H13.4695Z" fill="#F4DE9C" stroke="#5E5E5A" stroke-width="0.15" stroke-linecap="round" stroke-linejoin="round"/>
<path d="M18.6414 14.1973H0.441406V18.8573H18.6414V14.1973Z" fill="#FFE4E3"/>
<path d="M0.441406 18.8574H18.6414" stroke="#5E5E5A" stroke-width="0.15" stroke-miterlimit="10"/>
<path d="M18.6414 14.1973H0.441406" stroke="#5E5E5A" stroke-width="0.15" stroke-miterlimit="10"/>
<path d="M6.86812 25.3572C5.84812 24.7672 6.0281 21.7272 5.9781 19.9672C5.8881 16.5472 9.75812 12.8172 12.4281 16.7172C13.2781 17.9672 13.6881 18.3272 13.6881 21.4972C13.6881 24.6672 12.9181 27.2572 10.9581 26.0372C9.00812 24.8172 9.04811 26.6172 6.85811 25.3572H6.86812Z" fill="white" stroke="#5E5E5A" stroke-width="0.15" stroke-linecap="round" stroke-linejoin="round"/>
</svg>
