<svg width="19" height="33" viewBox="0 0 19 33" fill="none" xmlns="http://www.w3.org/2000/svg">
<path d="M11.3089 9.66712C10.5389 7.31712 9.5189 5.37712 9.2189 2.95712C8.9189 0.537121 7.91889 0.577122 7.38889 1.90712C6.85889 3.23712 6.33889 9.11712 6.17889 12.9371C6.01889 16.7571 6.29891 20.3571 5.62891 22.6671H12.3189C11.4089 19.3871 12.0889 12.0171 11.3089 9.66712Z" fill="#F4DE9C" stroke="#5E5E5A" stroke-width="0.15" stroke-linecap="round" stroke-linejoin="round"/>
<path d="M18.4383 20.1973H0.238281V24.8573H18.4383V20.1973Z" fill="#FFE4E3"/>
<path d="M0.238281 24.8574H18.4383" stroke="#5E5E5A" stroke-width="0.15" stroke-miterlimit="10"/>
<path d="M18.4383 20.1973H0.238281" stroke="#5E5E5A" stroke-width="0.15" stroke-miterlimit="10"/>
<path d="M4.64133 28.8773C4.15133 26.8273 5.33133 24.0973 5.58133 22.8473C5.82133 21.5973 7.72132 19.9673 9.04132 20.0573C10.3613 20.1573 12.0713 21.2073 12.2913 22.0473C13.4313 26.4073 14.6713 28.6773 12.6113 31.0773C11.2913 32.6073 9.24134 32.7573 7.78134 31.5073C6.32134 30.2573 5.19135 31.1273 4.66135 28.8773H4.64133Z" fill="white" stroke="#5E5E5A" stroke-width="0.15" stroke-linecap="round" stroke-linejoin="round"/>
</svg>
