<svg width="19" height="29" viewBox="0 0 19 29" fill="none" xmlns="http://www.w3.org/2000/svg">
<path d="M10.4496 5.93707C10.2496 3.12707 10.0596 0.99707 10.5396 0.99707C12.2196 0.99707 13.1996 7.11707 13.2596 7.83707C13.3696 9.26707 13.3896 11.1071 13.4296 12.3671C13.5596 16.2371 13.8197 18.9471 13.8197 18.9471C12.4797 15.8671 11.9396 13.2871 11.6996 11.5071C11.5896 10.7171 11.1096 8.44707 10.4496 5.92707V5.93707Z" fill="#EDD091" stroke="#5E5E5A" stroke-width="0.15" stroke-linecap="round" stroke-linejoin="round"/>
<path d="M13.8216 18.957L10.1016 18.917L13.8216 18.957Z" fill="#EDD091" stroke="#5E5E5A" stroke-width="0.15" stroke-linecap="round" stroke-linejoin="round"/>
<path d="M13.8205 18.9571L5.23047 18.8471C5.23047 18.8471 7.22048 10.8871 7.37048 2.63707C7.37048 2.24707 7.69049 0.99707 8.28049 0.99707C8.98049 0.99707 9.33048 2.01707 9.46048 2.43707C10.5905 6.04707 11.5405 10.3671 11.7005 11.5171C11.9405 13.2971 12.4805 15.8771 13.8205 18.9571Z" fill="#F4DE9C" stroke="#5E5E5A" stroke-width="0.15" stroke-linecap="round" stroke-linejoin="round"/>
<path d="M18.2508 16.1973H0.0507812V20.8573H18.2508V16.1973Z" fill="#FFE4E3"/>
<path d="M0.0507812 20.8574H18.2408" stroke="#5E5E5A" stroke-width="0.15" stroke-miterlimit="10"/>
<path d="M18.2408 16.1973H0.0507812" stroke="#5E5E5A" stroke-width="0.15" stroke-miterlimit="10"/>
<path d="M4.10156 24.2371C4.10156 22.2871 4.69155 19.2471 5.81155 17.9371C6.55155 17.0671 8.15155 16.2771 9.37155 16.4471C10.5916 16.6171 11.0315 18.0271 11.9615 17.9871C12.8815 17.9471 13.7216 17.7471 13.9116 19.4971C14.1116 21.2571 14.5015 21.3971 14.6715 22.5271C14.8415 23.6471 15.2316 24.6071 13.1316 25.4471C11.0316 26.2871 10.5116 28.8271 8.65155 28.2671C6.78155 27.7071 7.03155 26.6371 5.71155 26.1471C4.39155 25.6571 4.10156 24.9771 4.10156 24.2471V24.2371Z" fill="white" stroke="#5E5E5A" stroke-width="0.15" stroke-linecap="round" stroke-linejoin="round"/>
</svg>
