<svg width="20" height="27" viewBox="0 0 20 27" fill="none" xmlns="http://www.w3.org/2000/svg">
<path d="M14.0903 17.9578C14.0903 15.8278 13.5203 11.8978 13.1103 9.26779C12.7003 6.63779 11.1503 5.90779 11.4403 3.22779C11.7303 0.54779 10.5103 0.00778997 9.45032 1.98779C8.39032 3.96779 7.74031 6.60779 8.02031 9.53779C8.30031 12.4678 7.71031 14.1878 6.07031 17.9678H14.0803L14.0903 17.9578Z" fill="#F4DE9C" stroke="#5E5E5A" stroke-width="0.15" stroke-linecap="round" stroke-linejoin="round"/>
<path d="M19.0516 14.1973H0.851562V18.8573H19.0516V14.1973Z" fill="#FFE4E3"/>
<path d="M0.851562 18.8574H19.0516" stroke="#5E5E5A" stroke-width="0.15" stroke-miterlimit="10"/>
<path d="M19.0516 14.1973H0.851562" stroke="#5E5E5A" stroke-width="0.15" stroke-miterlimit="10"/>
<path d="M5.929 24.3776C6.419 25.2076 8.039 25.0576 8.289 25.7476C8.529 26.4276 10.959 26.7276 11.639 25.5476C12.319 24.3776 13.589 23.9376 13.889 22.8176C14.179 21.6976 14.519 17.2976 13.889 16.8576C13.259 16.4176 12.189 16.9576 11.649 16.3676C11.109 15.7776 9.769 14.1676 8.849 15.1976C7.929 16.2276 7.759 16.9176 7.009 17.0776C5.049 17.4876 5.579 23.7776 5.929 24.3776Z" fill="white" stroke="#5E5E5A" stroke-width="0.15" stroke-linecap="round" stroke-linejoin="round"/>
</svg>
