<svg width="19" height="28" viewBox="0 0 19 28" fill="none" xmlns="http://www.w3.org/2000/svg">
<path d="M11.4806 2.21697C11.2506 -0.0630295 9.85063 0.526971 9.75063 2.43697C9.65063 4.34697 8.79062 8.12697 7.64062 11.877L11.6606 12.367C12.0206 10.987 11.7206 4.49697 11.4806 2.21697Z" fill="#F4DE9C" stroke="#5E5E5A" stroke-width="0.15" stroke-linecap="round" stroke-linejoin="round"/>
<path d="M4.62109 17.9975C5.69109 15.6475 6.1911 15.8375 5.7011 13.5875C5.2111 11.3375 4.2611 8.82745 5.7511 5.05745C7.2411 1.28745 9.52109 -0.462549 9.10109 2.20745C8.68109 4.87745 8.0211 7.71745 8.7511 9.74745C9.4811 11.7775 11.1411 12.2575 11.6711 9.92745C12.2011 7.59745 12.2311 5.89745 12.2611 4.38745C12.2911 2.88745 12.5311 -0.192549 13.7111 1.80745C14.8811 3.80745 15.7211 6.96745 15.3011 11.0475C15.3011 11.0475 14.3411 16.2175 15.2211 18.0075H4.62109V17.9975Z" fill="#F4DE9C" stroke="#5E5E5A" stroke-width="0.15" stroke-linecap="round" stroke-linejoin="round"/>
<path d="M18.8484 15.1973H0.648438V19.8573H18.8484V15.1973Z" fill="#FFE4E3"/>
<path d="M0.648438 19.8574H18.8484" stroke="#5E5E5A" stroke-width="0.15" stroke-miterlimit="10"/>
<path d="M18.8484 15.1973H0.648438" stroke="#5E5E5A" stroke-width="0.15" stroke-miterlimit="10"/>
<path d="M4.579 17.977C3.809 19.377 3.50901 24.697 4.14901 25.627C4.77901 26.557 6.48901 26.697 7.17901 26.017C7.86901 25.337 8.079 26.107 8.689 26.447C9.299 26.777 9.83901 26.157 10.499 26.807C11.749 28.027 14.159 27.197 14.849 24.317C15.529 21.437 15.679 18.847 15.339 17.967C14.999 17.087 13.339 18.507 12.169 17.427C10.999 16.357 9.28901 16.397 7.86901 17.037C6.44901 17.677 5.71901 15.937 4.58901 17.987L4.579 17.977Z" fill="white" stroke="#5E5E5A" stroke-width="0.15" stroke-linecap="round" stroke-linejoin="round"/>
</svg>
