<svg width="19" height="25" viewBox="0 0 19 25" fill="none" xmlns="http://www.w3.org/2000/svg">
<path d="M11.6606 2.18746C11.5706 0.187455 10.2706 0.607455 10.0806 2.27746C9.88061 3.93746 8.90062 7.18746 7.64062 10.3975L11.2606 11.0775C11.6606 9.89746 11.7406 4.19746 11.6606 2.18746Z" fill="#F4DE9C" stroke="#5E5E5A" stroke-width="0.15" stroke-linecap="round" stroke-linejoin="round"/>
<path d="M15.2694 8.99778C14.9294 6.99778 15.0494 4.12778 14.0694 1.45778C13.0894 -1.21222 12.3194 0.637776 12.5694 1.86778C12.8194 3.10778 12.3194 5.51777 11.6494 6.88777C10.9794 8.25777 10.1894 10.9978 8.76938 9.89778C7.34938 8.79778 8.13938 5.10778 8.93938 2.34778C9.73938 -0.412225 8.13938 0.277776 7.54938 1.52778C6.96938 2.77778 4.79939 5.99778 4.83939 9.48778C4.87939 12.9778 5.15937 14.2378 4.10938 16.1178L15.2594 16.2778C15.6094 13.4178 15.6194 11.0078 15.2694 9.00778V8.99778Z" fill="#F4DE9C" stroke="#5E5E5A" stroke-width="0.15" stroke-linecap="round" stroke-linejoin="round"/>
<path d="M18.7703 12.1973H0.570312V16.8573H18.7703V12.1973Z" fill="#FFE4E3"/>
<path d="M0.570312 16.8574H18.7603" stroke="#5E5E5A" stroke-width="0.15" stroke-miterlimit="10"/>
<path d="M18.7603 12.1973H0.570312" stroke="#5E5E5A" stroke-width="0.15" stroke-miterlimit="10"/>
<path d="M4.37108 15.657C2.96108 17.857 2.86108 21.467 4.57108 22.447C6.28108 23.427 7.26108 22.447 8.09108 22.687C8.92108 22.927 11.2711 25.467 13.1211 23.757C15.1111 21.917 16.0011 16.537 15.1211 15.317C13.2311 12.697 11.5611 15.717 8.94108 14.207C8.08108 13.707 5.79108 13.467 4.38108 15.667L4.37108 15.657Z" fill="white" stroke="#5E5E5A" stroke-width="0.15" stroke-linecap="round" stroke-linejoin="round"/>
</svg>
