<svg width="20" height="28" viewBox="0 0 20 28" fill="none" xmlns="http://www.w3.org/2000/svg">
<path d="M5.64062 20.1374C5.89062 17.5874 6.46062 14.9874 6.70062 12.4074C6.94062 9.82745 7.91064 7.74745 8.47064 3.82745C9.03064 -0.0825541 10.3906 -0.262554 11.2206 1.75745C12.0506 3.77745 13.2606 9.22745 13.0006 12.2274C12.7306 15.2274 13.5806 18.7074 14.1006 20.1374H5.65063H5.64062Z" fill="#F4DE9C" stroke="#5E5E5A" stroke-width="0.15" stroke-linecap="round" stroke-linejoin="round"/>
<path d="M19.0398 15.1973H0.839844V19.8573H19.0398V15.1973Z" fill="#FFE4E3"/>
<path d="M0.839844 19.8574H19.0398" stroke="#5E5E5A" stroke-width="0.15" stroke-miterlimit="10"/>
<path d="M19.0398 15.1973H0.839844" stroke="#5E5E5A" stroke-width="0.15" stroke-miterlimit="10"/>
<path d="M13.5794 26.7875C13.3494 26.8375 12.3294 27.4175 10.8694 27.2775C9.95945 27.1875 8.82945 27.5575 7.71945 27.1475C7.15945 26.9375 6.50946 26.9075 5.87946 26.6975C5.18946 26.4675 5.13945 23.7475 5.36945 21.2075C5.59945 18.6675 6.10945 19.3175 6.93945 17.8875C10.5595 11.6575 10.9794 17.2475 12.7694 17.3775C13.9094 17.4575 15.8294 26.2675 13.5794 26.7775V26.7875Z" fill="white" stroke="#5E5E5A" stroke-width="0.15" stroke-linecap="round" stroke-linejoin="round"/>
</svg>
