<svg width="19" height="27" viewBox="0 0 19 27" fill="none" xmlns="http://www.w3.org/2000/svg">
<path d="M5.51953 19.2671C5.58953 15.6071 6.46952 11.3771 7.00952 9.51709C7.54952 7.65709 7.92952 4.37709 9.25952 1.59709C10.5895 -1.18291 11.2495 1.32709 11.1195 2.52709C10.9895 3.72709 11.7295 8.52709 12.1895 10.4771C12.6495 12.4271 12.2995 15.8871 12.9695 19.2671H5.51953Z" fill="#F4DE9C" stroke="#5E5E5A" stroke-width="0.15" stroke-linecap="round" stroke-linejoin="round"/>
<path d="M18.2391 14.1973H0.0390625V18.8573H18.2391V14.1973Z" fill="#FFE4E3"/>
<path d="M0.0390625 18.8574H18.2291" stroke="#5E5E5A" stroke-width="0.15" stroke-miterlimit="10"/>
<path d="M18.2291 14.1973H0.0390625" stroke="#5E5E5A" stroke-width="0.15" stroke-miterlimit="10"/>
<path d="M12.1208 25.3572C13.1408 24.7672 12.9608 21.7272 13.0108 19.9672C13.1008 16.5472 9.23079 12.8172 6.56079 16.7172C5.71079 17.9672 5.30078 18.3272 5.30078 21.4972C5.30078 24.6672 6.07079 27.2572 8.03079 26.0372C9.98079 24.8172 9.9408 26.6172 12.1308 25.3572H12.1208Z" fill="white" stroke="#5E5E5A" stroke-width="0.15" stroke-linecap="round" stroke-linejoin="round"/>
</svg>
