<svg width="19" height="33" viewBox="0 0 19 33" fill="none" xmlns="http://www.w3.org/2000/svg">
<path d="M7.67798 9.66712C8.44798 7.31712 9.46797 5.37712 9.76797 2.95712C10.068 0.537121 11.068 0.577122 11.598 1.90712C12.128 3.23712 12.648 9.11712 12.808 12.9371C12.968 16.7571 12.688 20.3571 13.358 22.6671H6.66797C7.57797 19.3871 6.89798 12.0171 7.67798 9.66712Z" fill="#F4DE9C" stroke="#5E5E5A" stroke-width="0.15" stroke-linecap="round" stroke-linejoin="round"/>
<path d="M18.4305 20.1973H0.230469V24.8573H18.4305V20.1973Z" fill="#FFE4E3"/>
<path d="M0.230469 24.8574H18.4305" stroke="#5E5E5A" stroke-width="0.15" stroke-miterlimit="10"/>
<path d="M18.4305 20.1973H0.230469" stroke="#5E5E5A" stroke-width="0.15" stroke-miterlimit="10"/>
<path d="M14.3495 28.8773C14.8395 26.8273 13.6595 24.0973 13.4095 22.8473C13.1695 21.5973 11.2695 19.9673 9.94952 20.0573C8.62952 20.1573 6.91952 21.2073 6.69952 22.0473C5.55952 26.4073 4.31954 28.6773 6.37954 31.0773C7.69954 32.6073 9.74953 32.7573 11.2095 31.5073C12.6695 30.2573 13.7995 31.1273 14.3295 28.8773H14.3495Z" fill="white" stroke="#5E5E5A" stroke-width="0.15" stroke-linecap="round" stroke-linejoin="round"/>
</svg>
