<svg width="19" height="29" viewBox="0 0 19 29" fill="none" xmlns="http://www.w3.org/2000/svg">
<path d="M8.53015 5.93707C8.73015 3.12707 8.92016 0.99707 8.44016 0.99707C6.76016 0.99707 5.78015 7.11707 5.72015 7.83707C5.61015 9.26707 5.59014 11.1071 5.55014 12.3671C5.42014 16.2371 5.16016 18.9471 5.16016 18.9471C6.50016 15.8671 7.04015 13.2871 7.28015 11.5071C7.39015 10.7171 7.87015 8.44707 8.53015 5.92707V5.93707Z" fill="#EDD091" stroke="#5E5E5A" stroke-width="0.15" stroke-linecap="round" stroke-linejoin="round"/>
<path d="M5.17188 18.957L8.8819 18.917L5.17188 18.957Z" fill="#EDD091" stroke="#5E5E5A" stroke-width="0.15" stroke-linecap="round" stroke-linejoin="round"/>
<path d="M5.17188 18.9571L13.7619 18.8471C13.7619 18.8471 11.7719 10.8871 11.6219 2.63707C11.6219 2.24707 11.3019 0.99707 10.7119 0.99707C10.0119 0.99707 9.66189 2.01707 9.53189 2.43707C8.40189 6.04707 7.45187 10.3671 7.29187 11.5171C7.05187 13.2971 6.51188 15.8771 5.17188 18.9571Z" fill="#F4DE9C" stroke="#5E5E5A" stroke-width="0.15" stroke-linecap="round" stroke-linejoin="round"/>
<path d="M18.6297 16.1973H0.429688V20.8573H18.6297V16.1973Z" fill="#FFE4E3"/>
<path d="M0.429688 20.8574H18.6297" stroke="#5E5E5A" stroke-width="0.15" stroke-miterlimit="10"/>
<path d="M18.6297 16.1973H0.429688" stroke="#5E5E5A" stroke-width="0.15" stroke-miterlimit="10"/>
<path d="M14.889 24.2371C14.889 22.2871 14.299 19.2471 13.179 17.9371C12.439 17.0671 10.839 16.2771 9.619 16.4471C8.399 16.6171 7.959 18.0271 7.029 17.9871C6.109 17.9471 5.26899 17.7471 5.07899 19.4971C4.87899 21.2571 4.48901 21.3971 4.31901 22.5271C4.14901 23.6471 3.75899 24.6071 5.85899 25.4471C7.95899 26.2871 8.479 28.8271 10.339 28.2671C12.209 27.7071 11.959 26.6371 13.279 26.1471C14.599 25.6571 14.889 24.9771 14.889 24.2471V24.2371Z" fill="white" stroke="#5E5E5A" stroke-width="0.15" stroke-linecap="round" stroke-linejoin="round"/>
</svg>
