<svg width="19" height="27" viewBox="0 0 19 27" fill="none" xmlns="http://www.w3.org/2000/svg">
<path d="M5.89062 17.9578C5.89062 15.8278 6.46064 11.8978 6.87064 9.26779C7.28064 6.63779 8.83062 5.90779 8.54062 3.22779C8.25062 0.54779 9.47064 0.00778997 10.5306 1.98779C11.5906 3.96779 12.2406 6.60779 11.9606 9.53779C11.6806 12.4678 12.2706 14.1878 13.9106 17.9678H5.90063L5.89062 17.9578Z" fill="#F4DE9C" stroke="#5E5E5A" stroke-width="0.15" stroke-linecap="round" stroke-linejoin="round"/>
<path d="M18.8289 14.1973H0.628906V18.8573H18.8289V14.1973Z" fill="#FFE4E3"/>
<path d="M0.628906 18.8574H18.8289" stroke="#5E5E5A" stroke-width="0.15" stroke-miterlimit="10"/>
<path d="M18.8289 14.1973H0.628906" stroke="#5E5E5A" stroke-width="0.15" stroke-miterlimit="10"/>
<path d="M14.0583 24.3776C13.5683 25.2076 11.9482 25.0576 11.6982 25.7476C11.4582 26.4276 9.02827 26.7276 8.34827 25.5476C7.66827 24.3776 6.39827 23.9376 6.09827 22.8176C5.80827 21.6976 5.46827 17.2976 6.09827 16.8576C6.72827 16.4176 7.79826 16.9576 8.33826 16.3676C8.87826 15.7776 10.2182 14.1676 11.1382 15.1976C12.0582 16.2276 12.2282 16.9176 12.9782 17.0776C14.9382 17.4876 14.4083 23.7776 14.0583 24.3776Z" fill="white" stroke="#5E5E5A" stroke-width="0.15" stroke-linecap="round" stroke-linejoin="round"/>
</svg>
