<svg width="20" height="28" viewBox="0 0 20 28" fill="none" xmlns="http://www.w3.org/2000/svg">
<path d="M8.499 2.21697C8.729 -0.0630295 10.129 0.526971 10.229 2.43697C10.329 4.34697 11.189 8.12697 12.339 11.877L8.31901 12.367C7.95901 10.987 8.259 4.49697 8.499 2.21697Z" fill="#F4DE9C" stroke="#5E5E5A" stroke-width="0.15" stroke-linecap="round" stroke-linejoin="round"/>
<path d="M15.3601 17.9975C14.2901 15.6475 13.7901 15.8375 14.2801 13.5875C14.7701 11.3375 15.7201 8.82745 14.2301 5.05745C12.7401 1.28745 10.4601 -0.462549 10.8801 2.20745C11.3001 4.87745 11.9601 7.71745 11.2301 9.74745C10.5001 11.7775 8.84008 12.2575 8.31008 9.92745C7.78008 7.59745 7.75008 5.89745 7.72008 4.38745C7.69008 2.88745 7.45007 -0.192549 6.27007 1.80745C5.10007 3.80745 4.26007 6.96745 4.68007 11.0475C4.68007 11.0475 5.64006 16.2175 4.76006 18.0075H15.3601V17.9975Z" fill="#F4DE9C" stroke="#5E5E5A" stroke-width="0.15" stroke-linecap="round" stroke-linejoin="round"/>
<path d="M19.0281 15.1973H0.828125V19.8573H19.0281V15.1973Z" fill="#FFE4E3"/>
<path d="M0.828125 19.8574H19.0181" stroke="#5E5E5A" stroke-width="0.15" stroke-miterlimit="10"/>
<path d="M19.0181 15.1973H0.828125" stroke="#5E5E5A" stroke-width="0.15" stroke-miterlimit="10"/>
<path d="M15.408 17.977C16.178 19.377 16.478 24.697 15.838 25.627C15.208 26.557 13.498 26.697 12.808 26.017C12.118 25.337 11.908 26.107 11.298 26.447C10.688 26.777 10.148 26.157 9.48796 26.807C8.23796 28.027 5.82795 27.197 5.13795 24.317C4.45795 21.437 4.30796 18.847 4.64796 17.967C4.98796 17.087 6.64798 18.507 7.81798 17.427C8.98798 16.357 10.698 16.397 12.118 17.037C13.538 17.677 14.268 15.937 15.398 17.987L15.408 17.977Z" fill="white" stroke="#5E5E5A" stroke-width="0.15" stroke-linecap="round" stroke-linejoin="round"/>
</svg>
