<svg width="19" height="25" viewBox="0 0 19 25" fill="none" xmlns="http://www.w3.org/2000/svg">
<path d="M7.32866 2.18746C7.41866 0.187455 8.71868 0.607455 8.90868 2.27746C9.10868 3.93746 10.0887 7.18746 11.3487 10.3975L7.72865 11.0775C7.32865 9.89746 7.24866 4.19746 7.32866 2.18746Z" fill="#F4DE9C" stroke="#5E5E5A" stroke-width="0.15" stroke-linecap="round" stroke-linejoin="round"/>
<path d="M3.7185 8.99778C4.0585 6.99778 3.93848 4.12778 4.91848 1.45778C5.89848 -1.21222 6.66848 0.637776 6.41848 1.86778C6.16848 3.10778 6.6685 5.51777 7.3385 6.88777C8.0085 8.25777 8.7985 10.9978 10.2185 9.89778C11.6385 8.79778 10.8485 5.10778 10.0485 2.34778C9.24849 -0.412225 10.8485 0.277776 11.4385 1.52778C12.0185 2.77778 14.1885 5.99778 14.1485 9.48778C14.1085 12.9778 13.8285 14.2378 14.8785 16.1178L3.72848 16.2778C3.37848 13.4178 3.3685 11.0078 3.7185 9.00778V8.99778Z" fill="#F4DE9C" stroke="#5E5E5A" stroke-width="0.15" stroke-linecap="round" stroke-linejoin="round"/>
<path d="M18.2195 12.1973H0.0195312V16.8573H18.2195V12.1973Z" fill="#FFE4E3"/>
<path d="M0.0195312 16.8574H18.2195" stroke="#5E5E5A" stroke-width="0.15" stroke-miterlimit="10"/>
<path d="M18.2195 12.1973H0.0195312" stroke="#5E5E5A" stroke-width="0.15" stroke-miterlimit="10"/>
<path d="M14.6205 15.657C16.0305 17.857 16.1305 21.467 14.4205 22.447C12.7105 23.427 11.7305 22.447 10.9005 22.687C10.0705 22.927 7.72048 25.467 5.87048 23.757C3.88048 21.917 2.99048 16.537 3.87048 15.317C5.76048 12.697 7.43047 15.717 10.0505 14.207C10.9105 13.707 13.2005 13.467 14.6105 15.667L14.6205 15.657Z" fill="white" stroke="#5E5E5A" stroke-width="0.15" stroke-linecap="round" stroke-linejoin="round"/>
</svg>
