<svg width="20" height="24" viewBox="0 0 20 24" fill="none" xmlns="http://www.w3.org/2000/svg">
<path d="M13.2881 8.39719C12.9981 9.86719 11.9581 15.0072 11.1781 19.9872C10.8081 22.3672 10.0281 24.3572 9.30814 21.8472C8.58814 19.3372 8.13814 15.8772 7.90814 13.2272C7.67814 10.5772 6.93812 9.05719 6.82812 8.36719L13.2881 8.39719Z" fill="#F4DE9C" stroke="#5E5E5A" stroke-width="0.15" stroke-linecap="round" stroke-linejoin="round"/>
<path d="M19.0398 7.00684H0.839844V11.6668H19.0398V7.00684Z" fill="#FFE4E3"/>
<path d="M0.839844 11.6572H19.0398" stroke="#5E5E5A" stroke-width="0.15" stroke-miterlimit="10"/>
<path d="M19.0398 7.00684H0.839844" stroke="#5E5E5A" stroke-width="0.15" stroke-miterlimit="10"/>
<path d="M13.2498 8.6776C12.9998 10.0876 11.8998 9.65759 11.3598 10.3776C10.8198 11.0976 9.67976 11.2176 8.95976 10.3776C8.23976 9.53759 6.85976 9.31759 6.73976 7.95759C6.61976 6.59759 5.77976 1.52759 6.73976 0.857592C7.69976 0.197592 12.6698 -0.152408 13.2398 0.857592C13.8098 1.86759 13.5298 7.0376 13.2398 8.6776H13.2498Z" fill="white" stroke="#5E5E5A" stroke-width="0.15" stroke-linecap="round" stroke-linejoin="round"/>
</svg>
