<svg width="19" height="25" viewBox="0 0 19 25" fill="none" xmlns="http://www.w3.org/2000/svg">
<path d="M12.9006 7.87695C12.7106 9.66695 11.0506 14.517 10.4706 21.117C10.2306 23.807 9.18064 26.027 8.37064 23.207C7.56064 20.387 7.05063 16.507 6.80063 13.527C6.55063 10.547 5.65062 8.78695 5.39062 7.87695H12.9006Z" fill="#F4DE9C" stroke="#5E5E5A" stroke-width="0.15" stroke-linecap="round" stroke-linejoin="round"/>
<path d="M18.2391 7.00684H0.0390625V11.6668H18.2391V7.00684Z" fill="#FFE4E3"/>
<path d="M0.0390625 11.6572H18.2291" stroke="#5E5E5A" stroke-width="0.15" stroke-miterlimit="10"/>
<path d="M18.2291 7.00684H0.0390625" stroke="#5E5E5A" stroke-width="0.15" stroke-miterlimit="10"/>
<path d="M12.0582 0.426978C11.0582 -0.00302154 9.84824 1.00698 9.39824 0.696979C8.94824 0.386979 6.69823 -0.193021 6.10823 0.716979C5.51823 1.62698 4.85825 6.02698 5.31825 7.63698C5.76825 9.24698 8.24824 12.107 9.17824 11.697C10.1082 11.287 12.4782 9.59698 12.6482 9.08698C13.2182 7.38698 13.5083 1.04698 12.0683 0.426978H12.0582Z" fill="white" stroke="#5E5E5A" stroke-width="0.15" stroke-linecap="round" stroke-linejoin="round"/>
</svg>
