<svg width="19" height="30" viewBox="0 0 19 30" fill="none" xmlns="http://www.w3.org/2000/svg">
<path d="M5.6311 7.53711L13.1011 7.59711C12.3011 9.59711 12.2311 14.4371 12.1911 18.4671C12.1611 22.3271 11.3411 24.7571 10.3111 27.8471C9.2811 30.9371 8.10109 30.1171 8.09109 27.5371C8.07109 24.9571 7.37108 22.8471 6.42108 19.3271C5.99108 17.7371 5.92109 16.4071 5.93109 13.3471C5.94109 10.2871 5.75109 8.28711 5.62109 7.53711H5.6311Z" fill="#F4DE9C" stroke="#5E5E5A" stroke-width="0.15" stroke-linecap="round" stroke-linejoin="round"/>
<path d="M18.4305 7.00684H0.230469V11.6668H18.4305V7.00684Z" fill="#FFE4E3"/>
<path d="M0.230469 11.6572H18.4305" stroke="#5E5E5A" stroke-width="0.15" stroke-miterlimit="10"/>
<path d="M18.4305 7.00684H0.230469" stroke="#5E5E5A" stroke-width="0.15" stroke-miterlimit="10"/>
<path d="M12.0592 10.2474C13.3792 8.37741 13.5192 4.92741 13.3092 3.99741C13.0992 3.06741 9.80924 0.0874124 9.01924 0.117412C8.22924 0.147412 5.85923 1.06741 5.47923 1.95741C5.08923 2.83741 5.29925 7.01741 5.99925 8.85741C6.69925 10.6974 9.26924 12.7074 9.88924 12.3874C10.5092 12.0574 11.3692 11.2474 12.0592 10.2574V10.2474Z" fill="white" stroke="#5E5E5A" stroke-width="0.15" stroke-linecap="round" stroke-linejoin="round"/>
</svg>
