<svg width="19" height="25" viewBox="0 0 19 25" fill="none" xmlns="http://www.w3.org/2000/svg">
<path d="M13.2791 7.66723C12.7291 10.3572 12.2891 12.3772 11.7491 14.4072C11.2891 16.1572 10.6491 17.8272 10.8691 20.9972C11.0591 23.7972 10.6891 26.1272 9.28906 23.4272C7.88906 20.7272 7.22907 16.4072 7.13907 13.2972C7.04907 10.1972 6.29906 8.59723 6.03906 7.65723H13.2891L13.2791 7.66723Z" fill="#F4DE9C" stroke="#5E5E5A" stroke-width="0.15" stroke-linecap="round" stroke-linejoin="round"/>
<path d="M18.6297 7.00684H0.429688V11.6668H18.6297V7.00684Z" fill="#FFE4E3"/>
<path d="M0.429688 11.6572H18.6297" stroke="#5E5E5A" stroke-width="0.15" stroke-miterlimit="10"/>
<path d="M18.6297 7.00684H0.429688" stroke="#5E5E5A" stroke-width="0.15" stroke-miterlimit="10"/>
<path d="M12.6388 8.74713C13.4588 7.92713 13.9588 5.43713 13.8888 4.04713C13.8188 2.66713 13.3188 2.57713 12.1888 1.64713C11.0588 0.71713 9.64879 -0.352869 8.62879 0.327131C6.01879 2.06713 4.37876 1.01713 5.53876 5.22713C6.12876 7.35713 5.92876 8.69713 6.78876 9.53713C7.64876 10.3771 8.73878 11.4471 9.80878 11.1271C10.8788 10.8071 12.0888 9.29713 12.6488 8.74713H12.6388Z" fill="white" stroke="#5E5E5A" stroke-width="0.15" stroke-linecap="round" stroke-linejoin="round"/>
</svg>
