<svg width="19" height="25" viewBox="0 0 19 25" fill="none" xmlns="http://www.w3.org/2000/svg">
<path d="M14.1313 8.87695C13.5813 11.557 13.1612 13.837 12.7912 15.907C12.4712 17.687 11.1712 20.237 11.6512 21.697C12.5112 24.367 12.2213 25.707 10.0713 23.557C8.00126 21.477 7.83124 17.817 7.74124 14.717C7.65124 11.617 6.77125 10.297 6.03125 8.87695H14.1313Z" fill="#F4DE9C" stroke="#5E5E5A" stroke-width="0.15" stroke-linecap="round" stroke-linejoin="round"/>
<path d="M18.8289 8.00684H0.628906V12.6668H18.8289V8.00684Z" fill="#FFE4E3"/>
<path d="M0.628906 12.6572H18.8289" stroke="#5E5E5A" stroke-width="0.15" stroke-miterlimit="10"/>
<path d="M18.8289 8.00684H0.628906" stroke="#5E5E5A" stroke-width="0.15" stroke-miterlimit="10"/>
<path d="M14.5008 7.55685C14.9208 5.76685 14.4607 3.77685 13.1407 2.94685C11.8207 2.11685 9.60074 0.56685 8.52074 0.98685C7.44074 1.40685 7.31075 1.90685 6.59075 2.21685C5.87075 2.52685 4.71075 3.99685 4.81075 5.97685C4.91075 7.95685 6.56076 9.35685 6.91076 10.1469C7.26076 10.9369 9.81073 13.3068 11.4807 11.6868C13.1507 10.0668 13.7607 10.7168 14.5107 7.55685H14.5008Z" fill="white" stroke="#5E5E5A" stroke-width="0.15" stroke-linecap="round" stroke-linejoin="round"/>
</svg>
