<svg width="19" height="25" viewBox="0 0 19 25" fill="none" xmlns="http://www.w3.org/2000/svg">
<path d="M4.48839 8.9375L15.9384 9.2375C15.4184 10.6475 15.3984 11.2675 15.2784 12.5475C15.1584 13.8275 15.1084 16.4775 15.3084 17.8275C15.5084 19.1675 16.0284 23.3175 15.3584 23.9075C14.6884 24.5075 13.7884 23.2975 13.2084 21.7875C12.6284 20.2775 11.9284 18.7175 11.6484 16.2975C11.3684 13.8775 10.7484 13.8375 10.2584 14.4375C9.76838 15.0375 9.3084 18.4875 9.0984 19.7875C8.8884 21.0875 10.1684 24.5575 8.88838 24.2775C7.60838 23.9975 6.39837 21.6175 5.78837 20.2775C5.17837 18.9375 4.28839 16.9575 4.52839 14.8375C4.75839 12.7175 4.8984 9.9875 4.4984 8.9475L4.48839 8.9375Z" fill="#F4DE9C" stroke="#5E5E5A" stroke-width="0.15" stroke-linecap="round" stroke-linejoin="round"/>
<path d="M18.9891 8.00684H0.789062V12.6668H18.9891V8.00684Z" fill="#FFE4E3"/>
<path d="M0.789062 12.6572H18.9891" stroke="#5E5E5A" stroke-width="0.15" stroke-miterlimit="10"/>
<path d="M18.9891 8.00684H0.789062" stroke="#5E5E5A" stroke-width="0.15" stroke-miterlimit="10"/>
<path d="M16.159 8.83695C16.809 6.97695 17.259 3.84695 15.629 2.73695C11.309 -0.213047 10.479 1.51696 8.93902 1.22696C7.78902 1.01696 5.45902 0.526952 4.02902 1.51695C2.59902 2.50695 3.01903 6.78695 3.81903 8.12695C4.61903 9.46695 5.65901 9.63695 6.95901 9.55695C8.25901 9.47695 9.84902 10.567 11.529 10.057C13.209 9.55695 15.639 10.297 16.149 8.83695H16.159Z" fill="white" stroke="#5E5E5A" stroke-width="0.15" stroke-linecap="round" stroke-linejoin="round"/>
</svg>
