<svg width="19" height="24" viewBox="0 0 19 24" fill="none" xmlns="http://www.w3.org/2000/svg">
<path d="M10.6187 7.6975H14.7387C14.3887 8.4275 13.6087 10.9175 13.6187 11.9975C13.6187 13.0775 14.4787 14.7075 14.2188 16.3175C13.9588 17.9275 13.1387 22.4575 12.2987 23.1975C11.4687 23.9475 10.8188 21.4275 10.8188 18.8775C10.8188 16.3275 9.55875 13.4575 8.96875 13.4575C7.96875 13.4575 7.65873 16.9975 7.85873 17.6975C8.05873 18.3975 8.86875 23.9475 7.74875 23.5775C6.62875 23.2175 4.91876 20.4375 4.81876 18.4775C4.72876 16.5175 4.82873 13.9975 4.69873 13.0175C4.56873 12.0375 3.86875 9.0475 3.46875 7.6875H10.6187V7.6975Z" fill="#F4DE9C" stroke="#5E5E5A" stroke-width="0.15" stroke-linecap="round" stroke-linejoin="round"/>
<path d="M18.2 8.00684H0V12.6668H18.2V8.00684Z" fill="#FFE4E3"/>
<path d="M0 12.6572H18.2" stroke="#5E5E5A" stroke-width="0.15" stroke-miterlimit="10"/>
<path d="M18.2 8.00684H0" stroke="#5E5E5A" stroke-width="0.15" stroke-miterlimit="10"/>
<path d="M14.3397 8.75771C15.2197 6.92771 15.6497 3.31772 13.4197 2.18772C11.1897 1.05772 9.51971 2.25772 8.44971 1.58772C7.37971 0.917715 4.15972 0.0877154 3.49972 2.76772C2.83972 5.44772 3.36972 7.66771 3.67972 8.43771C3.98972 9.19771 4.93972 8.94772 5.74972 8.77772C6.55972 8.61772 8.00973 10.1777 8.84973 10.1877C10.9197 10.2077 11.5997 8.34771 12.5897 8.43771C13.5797 8.52771 13.8997 9.68772 14.3497 8.76772L14.3397 8.75771Z" fill="white" stroke="#5E5E5A" stroke-width="0.15" stroke-linecap="round" stroke-linejoin="round"/>
</svg>
