<svg width="19" height="24" viewBox="0 0 19 24" fill="none" xmlns="http://www.w3.org/2000/svg">
<path d="M6.75781 8.39719C7.04781 9.86719 8.08783 15.0072 8.86783 19.9872C9.23783 22.3672 10.0178 24.3572 10.7378 21.8472C11.4578 19.3372 11.9078 15.8772 12.1378 13.2272C12.3678 10.5772 13.1078 9.05719 13.2178 8.36719L6.75781 8.39719Z" fill="#F4DE9C" stroke="#5E5E5A" stroke-width="0.15" stroke-linecap="round" stroke-linejoin="round"/>
<path d="M18.8406 7.00684H0.640625V11.6668H18.8406V7.00684Z" fill="#FFE4E3"/>
<path d="M0.640625 11.6572H18.8406" stroke="#5E5E5A" stroke-width="0.15" stroke-miterlimit="10"/>
<path d="M18.8406 7.00684H0.640625" stroke="#5E5E5A" stroke-width="0.15" stroke-miterlimit="10"/>
<path d="M6.80891 8.6776C7.05891 10.0876 8.1589 9.65759 8.6989 10.3776C9.2389 11.0976 10.3789 11.2176 11.0989 10.3776C11.8189 9.53759 13.1989 9.31759 13.3189 7.95759C13.4389 6.59759 14.2789 1.52759 13.3189 0.857592C12.3589 0.197592 7.38892 -0.152408 6.81892 0.857592C6.24892 1.86759 6.52892 7.0376 6.81892 8.6776H6.80891Z" fill="white" stroke="#5E5E5A" stroke-width="0.15" stroke-linecap="round" stroke-linejoin="round"/>
</svg>
