<svg width="19" height="25" viewBox="0 0 19 25" fill="none" xmlns="http://www.w3.org/2000/svg">
<path d="M6.16016 7.87695C6.35016 9.66695 8.01015 14.517 8.59015 21.117C8.83015 23.807 9.88016 26.027 10.6902 23.207C11.5002 20.387 12.0101 16.507 12.2601 13.527C12.5101 10.547 13.4101 8.78695 13.6701 7.87695H6.16016Z" fill="#F4DE9C" stroke="#5E5E5A" stroke-width="0.15" stroke-linecap="round" stroke-linejoin="round"/>
<path d="M18.6414 7.00684H0.441406V11.6668H18.6414V7.00684Z" fill="#FFE4E3"/>
<path d="M0.441406 11.6572H18.6414" stroke="#5E5E5A" stroke-width="0.15" stroke-miterlimit="10"/>
<path d="M18.6414 7.00684H0.441406" stroke="#5E5E5A" stroke-width="0.15" stroke-miterlimit="10"/>
<path d="M6.99915 0.426978C7.99915 -0.00302154 9.20916 1.00698 9.65916 0.696979C10.1092 0.386979 12.3591 -0.193021 12.9491 0.716979C13.5391 1.62698 14.1991 6.02698 13.7391 7.63698C13.2891 9.24698 10.8092 12.107 9.87916 11.697C8.94916 11.287 6.57916 9.59698 6.40916 9.08698C5.83916 7.38698 5.54914 1.04698 6.98914 0.426978H6.99915Z" fill="white" stroke="#5E5E5A" stroke-width="0.15" stroke-linecap="round" stroke-linejoin="round"/>
</svg>
