<svg width="19" height="30" viewBox="0 0 19 30" fill="none" xmlns="http://www.w3.org/2000/svg">
<path d="M13.4192 7.53711L5.94922 7.59711C6.74922 9.59711 6.81922 14.4371 6.85922 18.4671C6.88922 22.3271 7.70923 24.7571 8.73923 27.8471C9.76923 30.9371 10.9492 30.1171 10.9592 27.5371C10.9792 24.9571 11.6792 22.8471 12.6292 19.3271C13.0592 17.7371 13.1292 16.4071 13.1192 13.3471C13.1092 10.2871 13.2992 8.28711 13.4292 7.53711H13.4192Z" fill="#F4DE9C" stroke="#5E5E5A" stroke-width="0.15" stroke-linecap="round" stroke-linejoin="round"/>
<path d="M18.4383 7.00684H0.238281V11.6668H18.4383V7.00684Z" fill="#FFE4E3"/>
<path d="M0.238281 11.6572H18.4383" stroke="#5E5E5A" stroke-width="0.15" stroke-miterlimit="10"/>
<path d="M18.4383 7.00684H0.238281" stroke="#5E5E5A" stroke-width="0.15" stroke-miterlimit="10"/>
<path d="M7.00117 10.2474C5.68117 8.37741 5.54117 4.92741 5.75117 3.99741C5.96117 3.06741 9.25115 0.0874124 10.0411 0.117412C10.8311 0.147412 13.2012 1.06741 13.5812 1.95741C13.9712 2.83741 13.7612 7.01741 13.0612 8.85741C12.3612 10.6974 9.79115 12.7074 9.17115 12.3874C8.55115 12.0574 7.69117 11.2474 7.00117 10.2574V10.2474Z" fill="white" stroke="#5E5E5A" stroke-width="0.15" stroke-linecap="round" stroke-linejoin="round"/>
</svg>
