<svg width="19" height="25" viewBox="0 0 19 25" fill="none" xmlns="http://www.w3.org/2000/svg">
<path d="M5.77954 7.66723C6.32954 10.3572 6.76954 12.3772 7.30954 14.4072C7.76954 16.1572 8.40954 17.8272 8.18954 20.9972C7.99954 23.7972 8.36953 26.1272 9.76953 23.4272C11.1695 20.7272 11.8295 16.4072 11.9195 13.2972C12.0095 10.1972 12.7595 8.59723 13.0195 7.65723H5.76953L5.77954 7.66723Z" fill="#F4DE9C" stroke="#5E5E5A" stroke-width="0.15" stroke-linecap="round" stroke-linejoin="round"/>
<path d="M18.2508 7.00684H0.0507812V11.6668H18.2508V7.00684Z" fill="#FFE4E3"/>
<path d="M0.0507812 11.6572H18.2408" stroke="#5E5E5A" stroke-width="0.15" stroke-miterlimit="10"/>
<path d="M18.2408 7.00684H0.0507812" stroke="#5E5E5A" stroke-width="0.15" stroke-miterlimit="10"/>
<path d="M6.40885 8.74713C5.58885 7.92713 5.08885 5.43713 5.15885 4.04713C5.22885 2.66713 5.72883 2.57713 6.85883 1.64713C7.98883 0.71713 9.39883 -0.352869 10.4188 0.327131C13.0288 2.06713 14.6688 1.01713 13.5088 5.22713C12.9188 7.35713 13.1188 8.69713 12.2588 9.53713C11.3988 10.3771 10.3088 11.4471 9.23884 11.1271C8.16884 10.8071 6.95884 9.29713 6.39884 8.74713H6.40885Z" fill="white" stroke="#5E5E5A" stroke-width="0.15" stroke-linecap="round" stroke-linejoin="round"/>
</svg>
