<svg width="20" height="25" viewBox="0 0 20 25" fill="none" xmlns="http://www.w3.org/2000/svg">
<path d="M5.92969 8.87695C6.47969 11.557 6.89968 13.837 7.26968 15.907C7.58968 17.687 8.88968 20.237 8.40968 21.697C7.54968 24.367 7.83968 25.707 9.98969 23.557C12.0597 21.477 12.2297 17.817 12.3197 14.717C12.4097 11.617 13.2897 10.297 14.0297 8.87695H5.92969Z" fill="#F4DE9C" stroke="#5E5E5A" stroke-width="0.15" stroke-linecap="round" stroke-linejoin="round"/>
<path d="M19.0516 8.00684H0.851562V12.6668H19.0516V8.00684Z" fill="#FFE4E3"/>
<path d="M0.851562 12.6572H19.0516" stroke="#5E5E5A" stroke-width="0.15" stroke-miterlimit="10"/>
<path d="M19.0516 8.00684H0.851562" stroke="#5E5E5A" stroke-width="0.15" stroke-miterlimit="10"/>
<path d="M5.54905 7.55685C5.12905 5.76685 5.58905 3.77685 6.90905 2.94685C8.22905 2.11685 10.4491 0.56685 11.5291 0.98685C12.6091 1.40685 12.7391 1.90685 13.4591 2.21685C14.1791 2.52685 15.3391 3.99685 15.2391 5.97685C15.1391 7.95685 13.4891 9.35685 13.1391 10.1469C12.7891 10.9369 10.2391 13.3068 8.56906 11.6868C6.89906 10.0668 6.28906 10.7168 5.53906 7.55685H5.54905Z" fill="white" stroke="#5E5E5A" stroke-width="0.15" stroke-linecap="round" stroke-linejoin="round"/>
</svg>
