<svg width="19" height="25" viewBox="0 0 19 25" fill="none" xmlns="http://www.w3.org/2000/svg">
<path d="M15.5711 8.9375L4.12109 9.2375C4.64109 10.6475 4.6611 11.2675 4.7811 12.5475C4.9011 13.8275 4.9511 16.4775 4.7511 17.8275C4.5511 19.1675 4.0311 23.3175 4.7011 23.9075C5.3711 24.5075 6.27109 23.2975 6.85109 21.7875C7.43109 20.2775 8.13109 18.7175 8.41109 16.2975C8.69109 13.8775 9.31109 13.8375 9.80109 14.4375C10.2911 15.0375 10.7511 18.4875 10.9611 19.7875C11.1711 21.0875 9.8911 24.5575 11.1711 24.2775C12.4511 23.9975 13.6611 21.6175 14.2711 20.2775C14.8811 18.9375 15.7711 16.9575 15.5311 14.8375C15.3011 12.7175 15.1611 9.9875 15.5611 8.9475L15.5711 8.9375Z" fill="#F4DE9C" stroke="#5E5E5A" stroke-width="0.15" stroke-linecap="round" stroke-linejoin="round"/>
<path d="M18.8484 8.00684H0.648438V12.6668H18.8484V8.00684Z" fill="#FFE4E3"/>
<path d="M0.648438 12.6572H18.8484" stroke="#5E5E5A" stroke-width="0.15" stroke-miterlimit="10"/>
<path d="M18.8484 8.00684H0.648438" stroke="#5E5E5A" stroke-width="0.15" stroke-miterlimit="10"/>
<path d="M3.89105 8.83695C3.24105 6.97695 2.79105 3.84695 4.42105 2.73695C8.74105 -0.213047 9.57103 1.51696 11.111 1.22696C12.261 1.01696 14.591 0.526952 16.021 1.51695C17.451 2.50695 17.031 6.78695 16.231 8.12695C15.431 9.46695 14.391 9.63695 13.091 9.55695C11.791 9.47695 10.201 10.567 8.52104 10.057C6.84104 9.55695 4.41104 10.297 3.90104 8.83695H3.89105Z" fill="white" stroke="#5E5E5A" stroke-width="0.15" stroke-linecap="round" stroke-linejoin="round"/>
</svg>
