<svg width="19" height="24" viewBox="0 0 19 24" fill="none" xmlns="http://www.w3.org/2000/svg">
<path d="M8.44031 7.6975H4.32031C4.67031 8.4275 5.45031 10.9175 5.44031 11.9975C5.44031 13.0775 4.58032 14.7075 4.84032 16.3175C5.10032 17.9275 5.92031 22.4575 6.76031 23.1975C7.59031 23.9475 8.24031 21.4275 8.24031 18.8775C8.24031 16.3275 9.50032 13.4575 10.0903 13.4575C11.0903 13.4575 11.4003 16.9975 11.2003 17.6975C11.0003 18.3975 10.1903 23.9475 11.3103 23.5775C12.4303 23.2175 14.1403 20.4375 14.2403 18.4775C14.3303 16.5175 14.2303 13.9975 14.3603 13.0175C14.4903 12.0375 15.1903 9.0475 15.5903 7.6875H8.44031V7.6975Z" fill="#F4DE9C" stroke="#5E5E5A" stroke-width="0.15" stroke-linecap="round" stroke-linejoin="round"/>
<path d="M18.6492 8.00684H0.449219V12.6668H18.6492V8.00684Z" fill="#FFE4E3"/>
<path d="M0.449219 12.6572H18.6492" stroke="#5E5E5A" stroke-width="0.15" stroke-miterlimit="10"/>
<path d="M18.6492 8.00684H0.449219" stroke="#5E5E5A" stroke-width="0.15" stroke-miterlimit="10"/>
<path d="M4.70972 8.75771C3.82972 6.92771 3.39972 3.31772 5.62972 2.18772C7.85972 1.05772 9.52972 2.25772 10.5997 1.58772C11.6697 0.917715 14.8897 0.0877154 15.5497 2.76772C16.2097 5.44772 15.6797 7.66771 15.3697 8.43771C15.0597 9.19771 14.1097 8.94772 13.2997 8.77772C12.4897 8.61772 11.0397 10.1777 10.1997 10.1877C8.12973 10.2077 7.44972 8.34771 6.45972 8.43771C5.46972 8.52771 5.14973 9.68772 4.69973 8.76772L4.70972 8.75771Z" fill="white" stroke="#5E5E5A" stroke-width="0.15" stroke-linecap="round" stroke-linejoin="round"/>
</svg>
