<svg width="19" height="20" viewBox="0 0 19 20" fill="none" xmlns="http://www.w3.org/2000/svg">
<path d="M6.85938 13.9777C7.79937 10.6177 8.53937 6.7777 8.51937 1.6677C8.51937 1.1977 8.67937 0.727694 9.01937 0.387694C9.42937 -0.0123056 9.76937 0.177694 10.0194 1.09769C10.6394 6.35769 11.2694 9.59769 11.9094 13.5777V13.9777H6.85938Z" fill="#F4DE9C" stroke="#5E5E5A" stroke-width="0.15" stroke-linecap="round" stroke-linejoin="round"/>
<path d="M18.8016 10.6572H0.601562V14.9372H18.8016V10.6572Z" fill="#FFE4E3"/>
<path d="M0.601562 14.9375H18.7916" stroke="#5E5E5A" stroke-width="0.15" stroke-miterlimit="10"/>
<path d="M18.7916 10.6572H0.601562" stroke="#5E5E5A" stroke-width="0.15" stroke-miterlimit="10"/>
<path d="M11.908 13.5769C12.078 13.7969 12.218 14.0369 12.318 14.2969C13.298 16.6569 13.838 18.7369 11.918 19.3069C10.078 19.3669 8.23798 19.4269 7.32798 19.0869C6.14798 18.2169 5.95797 16.8369 6.35797 15.1669C6.45797 14.7469 6.62797 14.3369 6.85797 13.9769C7.31797 13.2469 8.02797 12.6969 8.88797 12.4969C9.26797 12.4069 9.64797 12.3869 10.018 12.4369C10.778 12.5469 11.448 12.9769 11.908 13.5769Z" fill="white" stroke="#5E5E5A" stroke-width="0.15" stroke-linecap="round" stroke-linejoin="round"/>
</svg>
