<svg width="19" height="19" viewBox="0 0 19 19" fill="none" xmlns="http://www.w3.org/2000/svg">
<path d="M7.70922 12.9475C8.58922 9.47747 8.76922 6.29747 8.75922 2.35747C8.75922 1.82747 8.91922 1.29747 9.24922 0.877466C9.67922 0.337466 10.0192 0.427466 10.2792 0.977466C10.4492 1.33747 10.4492 1.73747 10.4792 2.13747C10.8992 7.12747 11.0692 9.14747 11.1892 12.9475H7.69922H7.70922Z" fill="#F4DE9C" stroke="#5E5E5A" stroke-width="0.15" stroke-linecap="round" stroke-linejoin="round"/>
<path d="M18.5984 9.65723H0.398438V13.9372H18.5984V9.65723Z" fill="#FFE4E3"/>
<path d="M0.398438 13.9375H18.5984" stroke="#5E5E5A" stroke-width="0.15" stroke-miterlimit="10"/>
<path d="M18.5984 9.65723H0.398438" stroke="#5E5E5A" stroke-width="0.15" stroke-miterlimit="10"/>
<path d="M9.31033 18.2774C8.79033 18.2774 8.36033 18.2474 8.02033 18.1774C7.51033 18.0674 7.09033 17.6774 6.97033 17.1874C6.57033 15.5974 6.83033 14.1774 7.77033 12.8574C8.35033 12.3674 8.95033 12.1074 9.52033 12.1074C9.83033 12.1074 10.1403 12.1774 10.4503 12.3274C10.6803 12.4374 10.8903 12.5874 11.0503 12.7874C11.2403 12.9974 11.3803 13.2574 11.4703 13.5374C11.8103 14.5974 12.0303 15.7174 12.1303 16.8574C12.2003 17.2574 12.2403 17.6974 12.0303 17.9574C11.8903 18.1274 11.6503 18.2074 11.3003 18.2074L10.9503 18.2274C10.3903 18.2574 9.82033 18.2974 9.30033 18.2974L9.31033 18.2774Z" fill="white"/>
<path d="M9.5292 12.1676C9.8292 12.1676 10.1292 12.2376 10.4192 12.3776C10.6392 12.4876 10.8392 12.6276 10.9992 12.8176C11.1792 13.0276 11.3192 13.2676 11.4092 13.5376C11.7492 14.5976 11.9692 15.7076 12.0692 16.8576C12.1392 17.2376 12.1792 17.6576 11.9792 17.8876C11.8592 18.0376 11.6292 18.1076 11.2992 18.1076L10.9492 18.1276C10.3992 18.1576 9.8292 18.1976 9.3092 18.1976C8.7892 18.1976 8.3692 18.1676 8.0292 18.0976C7.5392 17.9976 7.1492 17.6276 7.0392 17.1576C6.6392 15.5876 6.8992 14.1976 7.8092 12.9176C8.3892 12.4176 8.9692 12.1676 9.5292 12.1676ZM9.5292 12.0176C8.9292 12.0176 8.3192 12.2776 7.7092 12.7976C6.7192 14.1876 6.5092 15.6576 6.8992 17.1876C7.0292 17.7176 7.4692 18.1276 8.0092 18.2376C8.3992 18.3176 8.8392 18.3476 9.3192 18.3476C9.9492 18.3476 10.6392 18.2976 11.3192 18.2576C12.3592 18.2576 12.3492 17.5376 12.2292 16.8276C12.1292 15.6876 11.9092 14.5776 11.5592 13.4976C11.4692 13.2076 11.3192 12.9476 11.1192 12.7176C10.9492 12.5176 10.7292 12.3576 10.4892 12.2376C10.1692 12.0876 9.8492 12.0176 9.5292 12.0176Z" fill="#5E5E5A"/>
</svg>
