<svg width="19" height="22" viewBox="0 0 19 22" fill="none" xmlns="http://www.w3.org/2000/svg">
<path d="M7.14062 14.5871C7.94063 11.2171 8.31063 7.26706 8.50063 1.91706C8.52063 1.35706 8.81063 0.827057 9.32063 0.587057C9.70063 0.407057 10.0106 0.467057 10.2506 0.777057C10.4206 0.997057 10.4906 1.28706 10.4806 1.57706C10.2406 6.38706 10.5406 10.4671 11.4106 14.5971H7.14062V14.5871Z" fill="#F4DE9C" stroke="#5E5E5A" stroke-width="0.15" stroke-linecap="round" stroke-linejoin="round"/>
<path d="M18.3992 12.6572H0.199219V16.9372H18.3992V12.6572Z" fill="#FFE4E3"/>
<path d="M0.199219 16.9375H18.3992" stroke="#5E5E5A" stroke-width="0.15" stroke-miterlimit="10"/>
<path d="M18.3992 12.6572H0.199219" stroke="#5E5E5A" stroke-width="0.15" stroke-miterlimit="10"/>
<path d="M8.80721 21.2774C8.61721 21.2774 8.44721 21.2474 8.28721 21.1974C6.54721 20.6074 5.99721 18.8174 6.66721 15.8974C6.76721 15.4374 6.95721 15.0074 7.20721 14.6274C7.42721 14.2874 7.69721 14.0074 8.00721 13.7974C8.45721 13.4774 8.90721 13.3174 9.35721 13.3174C9.98721 13.3174 10.6372 13.6474 11.2672 14.3074C12.0872 15.6474 12.3672 16.8474 12.1172 17.9674C11.7772 19.0974 11.1472 20.0474 10.1872 20.8874C9.88721 21.1474 9.49721 21.2874 9.08721 21.2874H8.81721L8.80721 21.2774Z" fill="white"/>
<path d="M9.3582 13.3871C9.9682 13.3871 10.5982 13.7071 11.1982 14.3271C12.0182 15.6571 12.2982 16.8371 12.0482 17.9271C11.7182 19.0471 11.0882 19.9871 10.1482 20.8171C9.8582 21.0671 9.4882 21.1971 9.0882 21.1971H8.8182C8.6382 21.1971 8.4682 21.1671 8.3282 21.1271C6.6082 20.5371 6.0882 18.8371 6.7582 15.9171C6.8582 15.4571 7.0382 15.0471 7.2882 14.6771C7.5082 14.3471 7.7682 14.0771 8.0682 13.8671C8.5082 13.5571 8.9482 13.3971 9.3682 13.3971M9.3682 13.2471C8.8982 13.2471 8.4382 13.4171 7.9782 13.7471C7.6482 13.9771 7.3782 14.2671 7.1582 14.5971C6.8982 14.9871 6.7082 15.4271 6.6082 15.8871C5.9482 18.8171 6.4582 20.6571 8.2782 21.2771C8.4482 21.3371 8.6382 21.3571 8.8182 21.3571H9.0882C9.5082 21.3571 9.9282 21.2171 10.2382 20.9371C11.1382 20.1471 11.8282 19.1871 12.1882 17.9771C12.4682 16.7371 12.0882 15.4971 11.3182 14.2571C10.6582 13.5771 9.9982 13.2471 9.3582 13.2471H9.3682Z" fill="#5E5E5A"/>
</svg>
