<svg width="19" height="20" viewBox="0 0 19 20" fill="none" xmlns="http://www.w3.org/2000/svg">
<path d="M7.05906 8.64728C7.62906 6.75728 7.72906 4.34729 7.58906 1.68729C7.57906 1.40729 7.62906 1.11728 7.79906 0.887285C8.00906 0.577285 8.23906 0.577285 8.46906 0.907285C8.61906 1.12729 8.69906 1.39729 8.71906 1.66729C8.93906 4.15729 9.55906 6.62729 10.6091 9.06729L10.5891 11.0273L7.03906 10.9973L7.05906 8.65729V8.64728Z" fill="#F4DE9C" stroke="#5E5E5A" stroke-width="0.15" stroke-linecap="round" stroke-linejoin="round"/>
<path d="M6.25953 14.0071C4.65953 10.5871 4.19953 6.67706 4.01953 2.24706C4.01953 2.06706 4.01953 1.88705 4.05953 1.71705C4.20953 0.957055 4.91953 0.777055 5.25953 1.60706C5.29953 1.70706 5.32953 1.82706 5.34953 1.93706C5.69953 4.47706 6.22953 6.79706 7.08953 8.66706C7.14953 8.79706 7.18953 8.93706 7.27953 9.05706C7.69953 9.62706 8.34953 9.80706 9.00953 9.79706C9.63953 9.78706 10.2195 9.49706 10.6495 9.05706C10.8795 8.81706 11.0695 8.53705 11.1995 8.21705C11.9095 6.51705 12.0495 4.54706 12.3595 2.47706C12.4395 1.95706 12.5695 1.42706 12.9195 1.03706C13.5695 0.317056 14.0995 0.677055 14.1595 1.95705C14.3795 6.65705 13.1295 11.1971 11.5295 14.0271H6.26953L6.25953 14.0071Z" fill="#F4DE9C" stroke="#5E5E5A" stroke-width="0.15" stroke-linecap="round" stroke-linejoin="round"/>
<path d="M18.2 10.6572H0V14.9372H18.2V10.6572Z" fill="#FFE4E3"/>
<path d="M0 14.9375H18.2" stroke="#5E5E5A" stroke-width="0.15" stroke-miterlimit="10"/>
<path d="M18.2 10.6572H0" stroke="#5E5E5A" stroke-width="0.15" stroke-miterlimit="10"/>
<path d="M8.80968 19.2675C8.02968 19.2675 7.23969 19.1675 6.45969 18.9775C5.81969 18.9075 5.49968 18.4575 5.47968 17.6175C5.29968 16.5875 5.44969 15.5775 5.93969 14.5875C6.02969 14.4175 6.13969 14.2475 6.27969 14.0975C7.33969 12.9575 8.31968 12.3975 9.23968 12.3975C10.0097 12.3975 10.7697 12.7875 11.4897 13.5575C11.6997 13.7775 11.8997 14.0275 12.1097 14.3175C12.8197 15.2575 13.1597 16.3775 13.1397 17.7375C13.0997 18.5275 12.7997 18.9475 12.2297 19.0375C12.1597 19.0475 12.0997 19.0475 12.0297 19.0475C11.7197 19.0475 11.3997 18.9375 11.1397 18.7375C10.9897 18.6275 10.8397 18.5675 10.6697 18.5675C10.4597 18.5675 10.2497 18.6575 10.0097 18.8275C9.63969 19.0975 9.22969 19.2475 8.83969 19.2475H8.81968L8.80968 19.2675Z" fill="white"/>
<path d="M9.22801 12.4874C9.97801 12.4874 10.718 12.8674 11.428 13.6274C11.638 13.8574 11.848 14.1074 12.038 14.3774C12.738 15.2974 13.068 16.4074 13.048 17.7474C12.998 18.7474 12.538 18.9274 12.198 18.9774C12.138 18.9774 12.078 18.9874 12.008 18.9874C11.718 18.9874 11.418 18.8874 11.168 18.6974C11.008 18.5774 10.838 18.5174 10.658 18.5174C10.438 18.5174 10.208 18.6074 9.95801 18.7974C9.59801 19.0574 9.20801 19.1974 8.80801 19.1974C8.03801 19.1974 7.24801 19.0974 6.44801 18.9074C6.06801 18.8674 5.56801 18.6874 5.53801 17.5974C5.35801 16.5974 5.50801 15.5974 5.98801 14.6274C6.07801 14.4574 6.18801 14.2974 6.30801 14.1574L6.35801 14.0974C7.35801 13.0274 8.31801 12.4774 9.20801 12.4774M9.20801 12.3274C8.23801 12.3274 7.24801 12.9074 6.24801 13.9974C6.22801 14.0174 6.21801 14.0374 6.19801 14.0474C6.05801 14.1974 5.93801 14.3674 5.84801 14.5474C5.34801 15.5674 5.19801 16.5874 5.38801 17.6174C5.40801 18.5474 5.79801 18.9774 6.42801 19.0474C7.19801 19.2374 7.98801 19.3374 8.79801 19.3374H8.81801C9.25801 19.3374 9.67801 19.1674 10.028 18.9074C10.238 18.7574 10.438 18.6574 10.648 18.6574C10.788 18.6574 10.928 18.7074 11.068 18.8074C11.338 19.0174 11.668 19.1274 11.998 19.1274C12.068 19.1274 12.138 19.1274 12.208 19.1074C12.778 19.0174 13.138 18.6074 13.188 17.7374C13.208 16.2274 12.808 15.1374 12.148 14.2674C11.938 13.9774 11.738 13.7274 11.528 13.5074C10.778 12.7074 10.008 12.3174 9.21801 12.3174L9.20801 12.3274Z" fill="#5E5E5A"/>
</svg>
