<svg width="19" height="20" viewBox="0 0 19 20" fill="none" xmlns="http://www.w3.org/2000/svg">
<path d="M12.7297 13.9777C11.7897 10.6177 11.0497 6.7777 11.0697 1.6677C11.0697 1.1977 10.9097 0.727694 10.5697 0.387694C10.1597 -0.0123056 9.81969 0.177694 9.56969 1.09769C8.94969 6.35769 8.31969 9.59769 7.67969 13.5777V13.9777H12.7297Z" fill="#F4DE9C" stroke="#5E5E5A" stroke-width="0.15" stroke-linecap="round" stroke-linejoin="round"/>
<path d="M18.9891 10.6572H0.789062V14.9372H18.9891V10.6572Z" fill="#FFE4E3"/>
<path d="M0.789062 14.9375H18.9891" stroke="#5E5E5A" stroke-width="0.15" stroke-miterlimit="10"/>
<path d="M18.9891 10.6572H0.789062" stroke="#5E5E5A" stroke-width="0.15" stroke-miterlimit="10"/>
<path d="M7.66922 13.5769C7.49922 13.7969 7.35922 14.0369 7.25922 14.2969C6.27922 16.6569 5.73922 18.7369 7.65922 19.3069C9.49922 19.3669 11.3392 19.4269 12.2492 19.0869C13.4292 18.2169 13.6192 16.8369 13.2192 15.1669C13.1192 14.7469 12.9492 14.3369 12.7192 13.9769C12.2592 13.2469 11.5492 12.6969 10.6892 12.4969C10.3092 12.4069 9.92922 12.3869 9.55922 12.4369C8.79922 12.5469 8.12922 12.9769 7.66922 13.5769Z" fill="white" stroke="#5E5E5A" stroke-width="0.15" stroke-linecap="round" stroke-linejoin="round"/>
</svg>
