<svg width="20" height="19" viewBox="0 0 20 19" fill="none" xmlns="http://www.w3.org/2000/svg">
<path d="M11.8784 12.9377C10.9984 9.4677 10.8184 6.2877 10.8284 2.3477C10.8284 1.8177 10.6684 1.2877 10.3384 0.8677C9.90844 0.3277 9.56843 0.417701 9.30843 0.967701C9.13843 1.3277 9.13844 1.7277 9.10844 2.1277C8.68844 7.1177 8.51844 9.1377 8.39844 12.9377H11.8884H11.8784Z" fill="#F4DE9C" stroke="#5E5E5A" stroke-width="0.15" stroke-linecap="round" stroke-linejoin="round"/>
<path d="M19.1883 9.65723H0.988281V13.9372H19.1883V9.65723Z" fill="#FFE4E3"/>
<path d="M0.988281 13.9375H19.1883" stroke="#5E5E5A" stroke-width="0.15" stroke-miterlimit="10"/>
<path d="M19.1883 9.65723H0.988281" stroke="#5E5E5A" stroke-width="0.15" stroke-miterlimit="10"/>
<path d="M10.2824 18.2669C9.76239 18.2669 9.19239 18.2369 8.63239 18.1969L8.28239 18.1769C7.93239 18.1769 7.69239 18.0969 7.54239 17.9269C7.32239 17.6669 7.37239 17.2269 7.44239 16.8369C7.54239 15.6869 7.77239 14.5769 8.10239 13.5169C8.19239 13.2369 8.33239 12.9869 8.52239 12.7669C8.69239 12.5769 8.89239 12.4169 9.13239 12.3069C9.44239 12.1669 9.75239 12.0869 10.0624 12.0869C10.6424 12.0869 11.2324 12.3469 11.8324 12.8569C12.7624 14.1669 13.0224 15.5769 12.6224 17.1669C12.5024 17.6669 12.0824 18.0569 11.5724 18.1569C11.2324 18.2269 10.8024 18.2569 10.2824 18.2569V18.2669Z" fill="white"/>
<path d="M10.0614 12.1673C10.6214 12.1673 11.2014 12.4173 11.7514 12.8873C12.6814 14.1873 12.9414 15.5873 12.5414 17.1573C12.4214 17.6273 12.0314 17.9973 11.5514 18.0973C11.2114 18.1673 10.7914 18.1973 10.2714 18.1973C9.75135 18.1973 9.18135 18.1673 8.63135 18.1273L8.27135 18.1073C7.95135 18.1073 7.72136 18.0273 7.60136 17.8873C7.40136 17.6573 7.45135 17.2373 7.52135 16.8473C7.62135 15.7173 7.84136 14.6073 8.18136 13.5473C8.27136 13.2773 8.40136 13.0273 8.59136 12.8273C8.75136 12.6373 8.95136 12.4973 9.17136 12.3873C9.47136 12.2473 9.77136 12.1773 10.0614 12.1773M10.0614 12.0273C9.74136 12.0273 9.42136 12.0973 9.10136 12.2473C8.86136 12.3673 8.64136 12.5273 8.47136 12.7273C8.27136 12.9473 8.12136 13.2173 8.03136 13.5073C7.69136 14.5873 7.47136 15.6973 7.36136 16.8373C7.23136 17.5473 7.22135 18.2673 8.27135 18.2673C8.95135 18.3073 9.64135 18.3573 10.2714 18.3573C10.7514 18.3573 11.1914 18.3273 11.5814 18.2473C12.1214 18.1373 12.5614 17.7273 12.6914 17.1973C13.0814 15.6673 12.8714 14.1973 11.8814 12.8073C11.2714 12.2873 10.6714 12.0273 10.0614 12.0273Z" fill="#5E5E5A"/>
</svg>
