<svg width="19" height="22" viewBox="0 0 19 22" fill="none" xmlns="http://www.w3.org/2000/svg">
<path d="M11.438 14.5871C10.638 11.2171 10.268 7.26706 10.078 1.91706C10.058 1.35706 9.76797 0.827057 9.25797 0.587057C8.87797 0.407057 8.56796 0.467057 8.32796 0.777057C8.15796 0.997057 8.08796 1.28706 8.09796 1.57706C8.33796 6.38706 8.03797 10.4671 7.16797 14.5971H11.438V14.5871Z" fill="#F4DE9C" stroke="#5E5E5A" stroke-width="0.15" stroke-linecap="round" stroke-linejoin="round"/>
<path d="M18.3914 12.6572H0.191406V16.9372H18.3914V12.6572Z" fill="#FFE4E3"/>
<path d="M0.191406 16.9375H18.3914" stroke="#5E5E5A" stroke-width="0.15" stroke-miterlimit="10"/>
<path d="M18.3914 12.6572H0.191406" stroke="#5E5E5A" stroke-width="0.15" stroke-miterlimit="10"/>
<path d="M9.50881 21.2676C9.09881 21.2676 8.6988 21.1276 8.4088 20.8676C7.4488 20.0276 6.81881 19.0776 6.47881 17.9376C6.22881 16.8276 6.50881 15.6276 7.33881 14.2776C7.95881 13.6376 8.6088 13.3076 9.2388 13.3076C9.6788 13.3076 10.1388 13.4676 10.5888 13.7876C10.8988 14.0076 11.1688 14.2876 11.3888 14.6176C11.6388 14.9976 11.8188 15.4176 11.9288 15.8876C12.5888 18.8076 12.0488 20.5976 10.3088 21.1876C10.1588 21.2376 9.98881 21.2676 9.78881 21.2676H9.5188H9.50881Z" fill="white"/>
<path d="M9.23045 13.3778C9.66045 13.3778 10.1005 13.5378 10.5305 13.8478C10.8305 14.0578 11.0905 14.3378 11.3105 14.6578C11.5605 15.0278 11.7404 15.4478 11.8404 15.8978C12.5004 18.8178 11.9904 20.5278 10.2604 21.1078C10.1204 21.1578 9.95044 21.1778 9.77044 21.1778H9.50045C9.10045 21.1778 8.73044 21.0378 8.44044 20.7978C7.49044 19.9678 6.87045 19.0278 6.54045 17.9178C6.29045 16.8178 6.57045 15.6378 7.37045 14.3278C7.99045 13.6878 8.61045 13.3678 9.23045 13.3678M9.23045 13.2178C8.58045 13.2178 7.93044 13.5478 7.27044 14.2278C6.50044 15.4678 6.12045 16.7178 6.40045 17.9478C6.76045 19.1578 7.44044 20.1178 8.35044 20.9078C8.67044 21.1878 9.08045 21.3278 9.50045 21.3278H9.77044C9.95044 21.3278 10.1405 21.3078 10.3105 21.2478C12.1305 20.6278 12.6504 18.7878 11.9804 15.8578C11.8804 15.3978 11.6904 14.9578 11.4304 14.5678C11.2104 14.2378 10.9404 13.9478 10.6104 13.7178C10.1504 13.3878 9.69044 13.2178 9.22044 13.2178H9.23045Z" fill="#5E5E5A"/>
</svg>
