<svg width="19" height="20" viewBox="0 0 19 20" fill="none" xmlns="http://www.w3.org/2000/svg">
<path d="M11.5305 8.64728C10.9605 6.75728 10.8605 4.34729 11.0005 1.68729C11.0105 1.40729 10.9605 1.11728 10.7905 0.887285C10.5805 0.577285 10.3505 0.577285 10.1205 0.907285C9.97047 1.12729 9.89047 1.39729 9.87047 1.66729C9.65047 4.15729 9.03047 6.62729 7.98047 9.06729L8.00047 11.0273L11.5505 10.9973L11.5305 8.65729V8.64728Z" fill="#F4DE9C" stroke="#5E5E5A" stroke-width="0.15" stroke-linecap="round" stroke-linejoin="round"/>
<path d="M12.3197 14.0071C13.9197 10.5871 14.3797 6.67706 14.5597 2.24706C14.5597 2.06706 14.5597 1.88705 14.5197 1.71705C14.3697 0.957055 13.6597 0.777055 13.3197 1.60706C13.2797 1.70706 13.2497 1.82706 13.2297 1.93706C12.8797 4.47706 12.3497 6.79706 11.4897 8.66706C11.4297 8.79706 11.3897 8.93706 11.2997 9.05706C10.8797 9.62706 10.2297 9.80706 9.56971 9.79706C8.93971 9.78706 8.35971 9.49706 7.92971 9.05706C7.69971 8.81706 7.50971 8.53705 7.37971 8.21705C6.66971 6.51705 6.5297 4.54706 6.2197 2.47706C6.1397 1.95706 6.00971 1.42706 5.65971 1.03706C5.00971 0.317056 4.47972 0.677055 4.41972 1.95705C4.19972 6.65705 5.44971 11.1971 7.04971 14.0271H12.3097L12.3197 14.0071Z" fill="#F4DE9C" stroke="#5E5E5A" stroke-width="0.15" stroke-linecap="round" stroke-linejoin="round"/>
<path d="M18.5906 10.6572H0.390625V14.9372H18.5906V10.6572Z" fill="#FFE4E3"/>
<path d="M0.390625 14.9375H18.5906" stroke="#5E5E5A" stroke-width="0.15" stroke-miterlimit="10"/>
<path d="M18.5906 10.6572H0.390625" stroke="#5E5E5A" stroke-width="0.15" stroke-miterlimit="10"/>
<path d="M9.74617 19.267C9.35617 19.267 8.94616 19.127 8.57616 18.847C8.33616 18.667 8.12617 18.587 7.91617 18.587C7.75617 18.587 7.59617 18.647 7.44617 18.757C7.18617 18.957 6.87617 19.067 6.55617 19.067C6.49617 19.067 6.42616 19.067 6.35616 19.057C5.78616 18.967 5.48617 18.547 5.44617 17.757C5.42617 16.397 5.75617 15.277 6.47617 14.337C6.68617 14.047 6.88616 13.797 7.09616 13.577C7.81616 12.807 8.57616 12.417 9.34616 12.417C10.2662 12.417 11.2462 12.967 12.2562 14.057C12.4362 14.257 12.5562 14.417 12.6462 14.597C13.1262 15.577 13.2862 16.597 13.1062 17.617C13.0862 18.467 12.7662 18.917 12.1262 18.987C11.3362 19.177 10.5362 19.277 9.76616 19.277H9.74617V19.267Z" fill="white"/>
<path d="M9.35779 12.4869C10.2578 12.4869 11.2178 13.0269 12.2378 14.1269L12.2678 14.1569C12.3978 14.2969 12.5078 14.4569 12.5978 14.6269C13.0778 15.5969 13.2278 16.5969 13.0478 17.6269C13.0178 18.6869 12.5178 18.8669 12.1178 18.9169C11.3378 19.1069 10.5478 19.2069 9.7578 19.2069C9.3778 19.2069 8.9878 19.0669 8.6378 18.8069C8.3878 18.6169 8.15779 18.5269 7.93779 18.5269C7.75779 18.5269 7.5878 18.5869 7.4278 18.7069C7.1778 18.8969 6.8778 18.9969 6.5878 18.9969C6.5278 18.9969 6.46779 18.9969 6.40779 18.9869C6.06779 18.9369 5.6178 18.7469 5.5578 17.7569C5.5378 16.4069 5.8678 15.3069 6.5678 14.3769C6.7578 14.1069 6.9678 13.8569 7.1778 13.6269C7.8878 12.8669 8.62779 12.4869 9.37779 12.4869M9.37779 12.3369C8.59779 12.3369 7.8278 12.7169 7.0678 13.5269C6.8578 13.7469 6.6478 14.0069 6.4478 14.2869C5.7878 15.1469 5.37779 16.2469 5.40779 17.7569C5.45779 18.6269 5.8078 19.0369 6.3878 19.1269C6.4578 19.1369 6.52779 19.1469 6.59779 19.1469C6.92779 19.1469 7.2578 19.0269 7.5278 18.8269C7.6678 18.7169 7.8078 18.6769 7.9478 18.6769C8.1478 18.6769 8.3578 18.7669 8.5678 18.9269C8.9278 19.1869 9.3378 19.3569 9.7778 19.3569H9.79779C10.6078 19.3569 11.3978 19.2569 12.1678 19.0669C12.7978 18.9969 13.1878 18.5669 13.2078 17.6369C13.3878 16.6069 13.2378 15.5869 12.7478 14.5669C12.6578 14.3869 12.5378 14.2169 12.3978 14.0669C12.3778 14.0469 12.3678 14.0269 12.3478 14.0169C11.3378 12.9269 10.3478 12.3469 9.3878 12.3469L9.37779 12.3369Z" fill="#5E5E5A"/>
</svg>
