<svg width="19" height="19" viewBox="0 0 19 19" fill="none" xmlns="http://www.w3.org/2000/svg">
<path d="M8.67969 7.65723H11.4797C11.4797 7.65723 11.4797 7.84723 11.4797 7.85723C11.0897 11.0872 11.0297 14.1472 11.4797 16.9472C11.6497 18.2172 11.3497 18.3872 10.7797 17.8672C10.3797 17.5072 10.0797 17.0372 9.90969 16.5172C9.17969 14.2972 8.82969 11.2072 8.68969 7.65723" fill="#F4DE9C"/>
<path d="M8.67969 7.65723H11.4797C11.4797 7.65723 11.4797 7.84723 11.4797 7.85723C11.0897 11.0872 11.0297 14.1472 11.4797 16.9472C11.6497 18.2172 11.3497 18.3872 10.7797 17.8672C10.3797 17.5072 10.0797 17.0372 9.90969 16.5172C9.17969 14.2972 8.82969 11.2072 8.68969 7.65723" stroke="#5E5E5A" stroke-width="0.15" stroke-linecap="round" stroke-linejoin="round"/>
<path d="M18.9891 6.40723H0.789062V10.6872H18.9891V6.40723Z" fill="#FFE4E3"/>
<path d="M0.789062 10.6875H18.9891" stroke="#5E5E5A" stroke-width="0.15" stroke-miterlimit="10"/>
<path d="M18.9891 6.40723H0.789062" stroke="#5E5E5A" stroke-width="0.15" stroke-miterlimit="10"/>
<path d="M11.4716 7.85732C11.6816 7.45732 11.7816 7.00732 11.8016 6.55732L11.9316 3.08732C11.9816 2.28732 11.6516 1.88732 11.1816 1.58732C10.4716 1.07732 9.45157 0.847321 8.59157 0.897321C7.99157 1.08732 7.97156 0.947323 7.89156 1.47732C7.85156 1.72732 7.84156 1.97732 7.86156 2.22732C7.97156 3.82732 8.13156 5.29732 8.29156 6.66732C8.33156 7.03732 8.47156 7.37732 8.69156 7.67732C8.71156 7.70732 8.74156 7.73732 8.76156 7.77732C9.79156 9.04732 10.6516 9.14732 11.3416 8.10732C11.3916 8.03732 11.4416 7.95732 11.4816 7.87732" fill="white"/>
<path d="M11.4716 7.85732C11.6816 7.45732 11.7816 7.00732 11.8016 6.55732L11.9316 3.08732C11.9816 2.28732 11.6516 1.88732 11.1816 1.58732C10.4716 1.07732 9.45157 0.847321 8.59157 0.897321C7.99157 1.08732 7.97156 0.947323 7.89156 1.47732C7.85156 1.72732 7.84156 1.97732 7.86156 2.22732C7.97156 3.82732 8.13156 5.29732 8.29156 6.66732C8.33156 7.03732 8.47156 7.37732 8.69156 7.67732C8.71156 7.70732 8.74156 7.73732 8.76156 7.77732C9.79156 9.04732 10.6516 9.14732 11.3416 8.10732C11.3916 8.03732 11.4416 7.95732 11.4816 7.87732" stroke="#5E5E5A" stroke-width="0.15" stroke-linecap="round" stroke-linejoin="round"/>
</svg>
