<svg width="20" height="19" viewBox="0 0 20 19" fill="none" xmlns="http://www.w3.org/2000/svg">
<path d="M11.9491 7.2373V7.72731C11.3991 11.1773 11.2091 14.4573 11.5491 17.5073C11.6691 18.8073 11.3791 19.1373 10.7691 18.7273C10.3191 18.4273 10.0091 17.9473 9.84906 17.4273C8.99906 14.6973 8.52906 11.1973 8.28906 7.2373H11.9491Z" fill="#F4DE9C" stroke="#5E5E5A" stroke-width="0.15" stroke-linecap="round" stroke-linejoin="round"/>
<path d="M19.1883 6.40723H0.988281V10.6872H19.1883V6.40723Z" fill="#FFE4E3"/>
<path d="M0.988281 10.6875H19.1883" stroke="#5E5E5A" stroke-width="0.15" stroke-miterlimit="10"/>
<path d="M19.1883 6.40723H0.988281" stroke="#5E5E5A" stroke-width="0.15" stroke-miterlimit="10"/>
<path d="M8.28132 7.23719C8.38132 7.45719 8.52132 7.66719 8.69132 7.83719C9.40132 8.54719 10.1113 8.78719 10.8413 8.58719C11.3213 8.45719 11.7013 8.1372 11.9413 7.7272C12.1013 7.4572 12.2013 7.14719 12.2213 6.82719L12.5213 3.23719C12.4713 2.69719 12.3413 2.22719 12.1213 1.82719C11.8813 1.39719 11.4213 1.11719 10.9213 1.08719L8.45131 0.927193C7.82131 0.897193 7.62132 1.05719 7.65132 1.83719C7.65132 2.03719 7.67132 2.2372 7.66132 2.4372C7.62132 4.0272 7.74132 5.4372 8.10132 6.5672C8.12132 6.7972 8.18132 7.02719 8.28132 7.23719Z" fill="white" stroke="#5E5E5A" stroke-width="0.15" stroke-linecap="round" stroke-linejoin="round"/>
</svg>
