<svg width="19" height="23" viewBox="0 0 19 23" fill="none" xmlns="http://www.w3.org/2000/svg">
<path d="M11.038 8.73754C10.378 12.9875 9.99797 17.1375 9.94797 21.1775C9.94797 21.4575 9.88797 21.7475 9.74797 21.9975C9.52797 22.3875 9.23796 22.4475 8.87796 22.1775C8.53796 21.9275 8.32797 21.5475 8.24797 21.1375C7.41797 17.2075 7.01797 13.0575 6.91797 8.72754H11.038V8.73754Z" fill="#F4DE9C" stroke="#5E5E5A" stroke-width="0.15" stroke-linecap="round" stroke-linejoin="round"/>
<path d="M18.3914 6.40723H0.191406V10.6872H18.3914V6.40723Z" fill="#FFE4E3"/>
<path d="M0.191406 10.6875H18.3914" stroke="#5E5E5A" stroke-width="0.15" stroke-miterlimit="10"/>
<path d="M18.3914 6.40723H0.191406" stroke="#5E5E5A" stroke-width="0.15" stroke-miterlimit="10"/>
<path d="M9.03288 10.4873C8.43288 10.4873 7.79288 9.96727 7.14288 8.95727C7.08288 8.87727 7.03287 8.78727 6.98287 8.69727C6.17287 7.31727 5.99287 5.54727 6.46287 3.43727C7.21287 1.78727 8.02287 0.947266 8.87287 0.947266C9.72287 0.947266 10.6629 1.80727 11.6629 3.48727C11.9229 3.93727 12.0629 4.44727 12.0629 4.95727C12.0629 6.53727 11.6929 7.79726 10.9829 8.68726C10.3429 9.88726 9.69288 10.4873 9.03288 10.4873Z" fill="white"/>
<path d="M8.87154 1.02695C9.70154 1.02695 10.6115 1.86695 11.5915 3.53695C11.8515 3.97695 11.9815 4.46695 11.9815 4.96695C11.9815 6.53695 11.6215 7.77696 10.9015 8.67696C10.2815 9.83696 9.65154 10.427 9.03154 10.427C8.45154 10.427 7.84154 9.92696 7.20154 8.92696C7.14154 8.84696 7.09153 8.75696 7.04153 8.67696C6.24153 7.30696 6.06153 5.55695 6.52153 3.50695C7.26153 1.87695 8.05153 1.04696 8.86153 1.04696M8.86153 0.896954C7.99153 0.896954 7.16153 1.71695 6.38153 3.44695C5.91153 5.54695 6.07153 7.32695 6.91153 8.75695C6.96153 8.84695 7.02153 8.93695 7.07153 9.01695C7.73153 10.047 8.38153 10.577 9.02153 10.577C9.70153 10.577 10.3715 9.98696 11.0315 8.74696C11.7815 7.81696 12.1315 6.53695 12.1315 4.96695C12.1315 4.43695 11.9815 3.91695 11.7215 3.45695C10.7315 1.76695 9.77154 0.876953 8.87154 0.876953L8.86153 0.896954Z" fill="#5E5E5A"/>
</svg>
