<svg width="19" height="19" viewBox="0 0 19 19" fill="none" xmlns="http://www.w3.org/2000/svg">
<path d="M13.309 7.68715C14.309 10.8571 15.069 13.8572 14.999 16.3172C14.989 16.8172 14.879 17.3171 14.659 17.7671C14.359 18.3571 14.039 18.4472 13.689 17.9672C13.529 17.7372 13.419 17.4671 13.369 17.1871L12.529 13.2472C12.329 12.3372 11.799 11.5071 10.999 11.0271C10.479 10.7171 9.93899 10.5971 9.38899 10.6871C8.73899 10.7971 8.17899 11.1971 7.80899 11.7371C7.02899 12.8371 5.34898 16.0372 5.34898 16.0372C4.56898 17.1572 4.10898 17.0972 4.00898 15.7472C3.95898 14.0672 5.51898 10.3871 6.98898 7.57715L13.339 7.68715H13.309Z" fill="#F4DE9C" stroke="#5E5E5A" stroke-width="0.15" stroke-linecap="round" stroke-linejoin="round"/>
<path d="M18.5906 6.40723H0.390625V10.6872H18.5906V6.40723Z" fill="#FFE4E3"/>
<path d="M0.390625 10.6875H18.5906" stroke="#5E5E5A" stroke-width="0.15" stroke-miterlimit="10"/>
<path d="M18.5906 6.40723H0.390625" stroke="#5E5E5A" stroke-width="0.15" stroke-miterlimit="10"/>
<path d="M10.0695 9.0075C9.31945 9.0075 8.58945 8.7675 7.87945 8.2775C7.55945 8.0675 7.26945 7.8075 7.00945 7.5175C6.53945 7.0075 6.16946 6.3875 5.88946 5.6775C5.18946 3.8675 5.23946 2.4575 6.02946 1.4875C6.48946 1.1275 7.02945 0.9375 7.61945 0.9375C8.04945 0.9375 8.50946 1.0375 8.99946 1.2275C9.50946 1.5975 9.95945 1.7875 10.3695 1.7875C10.6495 1.7875 10.9094 1.6975 11.1294 1.5075C11.6294 1.2675 12.0895 1.1375 12.4995 1.1375C13.0095 1.1375 13.4294 1.3275 13.7994 1.7075C14.1394 2.0675 14.3594 2.5775 14.4094 3.1475C14.5194 4.4775 14.3795 5.5975 13.9795 6.5775C13.8195 6.9675 13.5795 7.3175 13.2595 7.6275C13.1195 7.7575 12.9794 7.8775 12.8294 7.9875C11.8794 8.6575 10.9595 9.0075 10.0695 9.0075Z" fill="white"/>
<path d="M7.62128 1.02719C8.03128 1.02719 8.48128 1.11719 8.96128 1.29719C9.49128 1.67719 9.95128 1.86719 10.3713 1.86719C10.6713 1.86719 10.9413 1.76718 11.1513 1.58718C11.6513 1.33718 12.1113 1.21719 12.5013 1.21719C12.9913 1.21719 13.3913 1.39719 13.7413 1.76719C14.0713 2.11719 14.2813 2.61719 14.3313 3.16719C14.4413 4.48719 14.3013 5.58719 13.9013 6.55719C13.7413 6.93719 13.5113 7.27718 13.2013 7.58718C13.0713 7.71718 12.9313 7.83718 12.7813 7.93718C11.8513 8.59718 10.9313 8.93718 10.0713 8.93718C9.34128 8.93718 8.62128 8.69718 7.92128 8.22718C7.61128 8.01718 7.32128 7.76719 7.06128 7.47719C6.60128 6.96719 6.23128 6.35719 5.96128 5.66719C5.27128 3.88719 5.31128 2.50719 6.06128 1.57719C6.52128 1.21719 7.04128 1.02719 7.62128 1.02719ZM7.62128 0.877186C7.00128 0.877186 6.45127 1.06719 5.97127 1.45719C5.15127 2.46719 5.11128 3.88719 5.82128 5.71719C6.09128 6.40719 6.46128 7.04719 6.95128 7.57719C7.21128 7.86719 7.51128 8.12719 7.84128 8.34719C8.57128 8.83719 9.31128 9.08718 10.0713 9.08718C10.9813 9.08718 11.9113 8.73719 12.8713 8.05719C13.0313 7.94719 13.1713 7.82719 13.3113 7.68719C13.6213 7.37719 13.8813 7.01719 14.0513 6.60719C14.4813 5.56719 14.6013 4.40719 14.4913 3.14719C14.4413 2.59719 14.2413 2.05718 13.8613 1.65718C13.4813 1.24718 13.0213 1.05719 12.5113 1.05719C12.0813 1.05719 11.6013 1.18719 11.0913 1.44719C10.8713 1.62719 10.6313 1.70719 10.3813 1.70719C9.97128 1.70719 9.52128 1.49718 9.04128 1.15718C8.54128 0.967185 8.07128 0.867188 7.63128 0.867188L7.62128 0.877186Z" fill="#5E5E5A"/>
</svg>
