<svg width="19" height="19" viewBox="0 0 19 19" fill="none" xmlns="http://www.w3.org/2000/svg">
<path d="M10.8591 7.74707H8.05909C8.05909 7.74707 8.05909 7.93707 8.05909 7.94707C8.44909 11.1771 8.50909 14.2371 8.05909 17.0371C7.88909 18.3071 8.1891 18.4771 8.7591 17.9571C9.1591 17.5971 9.45909 17.1271 9.62909 16.6071C10.3591 14.3871 10.7091 11.2971 10.8491 7.74707" fill="#F4DE9C"/>
<path d="M10.8591 7.74707H8.05909C8.05909 7.74707 8.05909 7.93707 8.05909 7.94707C8.44909 11.1771 8.50909 14.2371 8.05909 17.0371C7.88909 18.3071 8.1891 18.4771 8.7591 17.9571C9.1591 17.5971 9.45909 17.1271 9.62909 16.6071C10.3591 14.3871 10.7091 11.2971 10.8491 7.74707" stroke="#5E5E5A" stroke-width="0.15" stroke-linecap="round" stroke-linejoin="round"/>
<path d="M18.8016 6.40723H0.601562V10.6872H18.8016V6.40723Z" fill="#FFE4E3"/>
<path d="M0.601562 10.6875H18.7916" stroke="#5E5E5A" stroke-width="0.15" stroke-miterlimit="10"/>
<path d="M18.7916 6.40723H0.601562" stroke="#5E5E5A" stroke-width="0.15" stroke-miterlimit="10"/>
<path d="M8.07047 7.93739C7.86047 7.53739 7.76047 7.0874 7.74047 6.6374L7.61047 3.1674C7.56047 2.3674 7.89047 1.9674 8.36047 1.6674C9.07047 1.1574 10.0905 0.9274 10.9505 0.9774C11.5505 1.1674 11.5705 1.0274 11.6505 1.5574C11.6905 1.8074 11.7005 2.0574 11.6805 2.3074C11.5705 3.9074 11.4105 5.3774 11.2505 6.7474C11.2105 7.1174 11.0705 7.45739 10.8505 7.75739C10.8305 7.78739 10.8005 7.8174 10.7805 7.8574C9.75047 9.1274 8.89047 9.22739 8.20047 8.18739C8.15047 8.11739 8.10047 8.0374 8.06047 7.9574" fill="white"/>
<path d="M8.07047 7.93739C7.86047 7.53739 7.76047 7.0874 7.74047 6.6374L7.61047 3.1674C7.56047 2.3674 7.89047 1.9674 8.36047 1.6674C9.07047 1.1574 10.0905 0.9274 10.9505 0.9774C11.5505 1.1674 11.5705 1.0274 11.6505 1.5574C11.6905 1.8074 11.7005 2.0574 11.6805 2.3074C11.5705 3.9074 11.4105 5.3774 11.2505 6.7474C11.2105 7.1174 11.0705 7.45739 10.8505 7.75739C10.8305 7.78739 10.8005 7.8174 10.7805 7.8574C9.75047 9.1274 8.89047 9.22739 8.20047 8.18739C8.15047 8.11739 8.10047 8.0374 8.06047 7.9574" stroke="#5E5E5A" stroke-width="0.15" stroke-linecap="round" stroke-linejoin="round"/>
</svg>
