<svg width="19" height="19" viewBox="0 0 19 19" fill="none" xmlns="http://www.w3.org/2000/svg">
<path d="M7.60156 7.27734V7.76734C8.15156 11.2173 8.34156 14.4973 8.00156 17.5473C7.88156 18.8473 8.17156 19.1773 8.78156 18.7673C9.23156 18.4673 9.54156 17.9873 9.70156 17.4673C10.5516 14.7373 11.0216 11.2373 11.2616 7.27734H7.60156Z" fill="#F4DE9C" stroke="#5E5E5A" stroke-width="0.15" stroke-linecap="round" stroke-linejoin="round"/>
<path d="M18.5984 6.40723H0.398438V10.6872H18.5984V6.40723Z" fill="#FFE4E3"/>
<path d="M0.398438 10.6875H18.5984" stroke="#5E5E5A" stroke-width="0.15" stroke-miterlimit="10"/>
<path d="M18.5984 6.40723H0.398438" stroke="#5E5E5A" stroke-width="0.15" stroke-miterlimit="10"/>
<path d="M11.2595 7.27723C11.1595 7.49723 11.0195 7.70723 10.8495 7.87723C10.1395 8.58723 9.42953 8.82723 8.69953 8.62723C8.21953 8.49723 7.83953 8.17723 7.59953 7.76723C7.43953 7.49723 7.33953 7.18723 7.31953 6.86723L7.01953 3.27723C7.06953 2.73723 7.19953 2.26723 7.41953 1.86723C7.65953 1.43723 8.11953 1.15723 8.61953 1.12723L11.0895 0.967232C11.7195 0.937232 11.9195 1.09723 11.8895 1.87723C11.8895 2.07723 11.8695 2.27723 11.8795 2.47723C11.9195 4.06723 11.7995 5.47723 11.4395 6.60723C11.4195 6.83723 11.3595 7.06723 11.2595 7.27723Z" fill="white" stroke="#5E5E5A" stroke-width="0.15" stroke-linecap="round" stroke-linejoin="round"/>
</svg>
