<svg width="19" height="23" viewBox="0 0 19 23" fill="none" xmlns="http://www.w3.org/2000/svg">
<path d="M7.50781 8.77758C8.16781 13.0276 8.54781 17.1776 8.59781 21.2176C8.59781 21.4976 8.65781 21.7876 8.79781 22.0376C9.01781 22.4276 9.30781 22.4876 9.66781 22.2176C10.0078 21.9676 10.2178 21.5876 10.2978 21.1776C11.1278 17.2476 11.5278 13.0976 11.6278 8.76758H7.50781V8.77758Z" fill="#F4DE9C" stroke="#5E5E5A" stroke-width="0.15" stroke-linecap="round" stroke-linejoin="round"/>
<path d="M18.3992 6.40723H0.199219V10.6872H18.3992V6.40723Z" fill="#FFE4E3"/>
<path d="M0.199219 10.6875H18.3992" stroke="#5E5E5A" stroke-width="0.15" stroke-miterlimit="10"/>
<path d="M18.3992 6.40723H0.199219" stroke="#5E5E5A" stroke-width="0.15" stroke-miterlimit="10"/>
<path d="M9.51047 10.5273C8.86047 10.5273 8.20047 9.9273 7.57047 8.7373C6.85047 7.8373 6.48047 6.5773 6.48047 4.9973C6.48047 4.4873 6.62047 3.97731 6.88047 3.52731C7.87047 1.83731 8.81047 0.987305 9.67047 0.987305C10.5305 0.987305 11.3305 1.8273 12.0805 3.4873C12.5405 5.5773 12.3705 7.3473 11.5505 8.7273C11.5005 8.8173 11.4505 8.8973 11.3905 8.9873C10.7405 10.0073 10.1105 10.5173 9.50047 10.5173L9.51047 10.5273Z" fill="white"/>
<path d="M9.68016 1.06699C10.5002 1.06699 11.2802 1.89699 12.0102 3.49699C12.4702 5.58699 12.3002 7.33699 11.5002 8.69699C11.4502 8.78699 11.4002 8.86699 11.3402 8.95699C10.7102 9.94699 10.0902 10.457 9.52016 10.457C8.90016 10.457 8.27016 9.86699 7.63016 8.68699C6.92016 7.80699 6.57016 6.56699 6.56016 5.00699C6.56016 4.50699 6.70016 4.01699 6.95016 3.57699C7.93016 1.91699 8.85016 1.06699 9.67016 1.06699M9.67016 0.916992C8.76016 0.916992 7.81016 1.80699 6.82016 3.49699C6.55016 3.95699 6.41016 4.47699 6.41016 5.00699C6.41016 6.57699 6.76016 7.84699 7.51016 8.78699C8.17016 10.017 8.84016 10.617 9.52016 10.617C10.1602 10.617 10.8102 10.087 11.4702 9.05699C11.5302 8.97699 11.5802 8.88699 11.6302 8.79699C12.4702 7.36699 12.6302 5.58699 12.1602 3.48699C11.3802 1.75699 10.5502 0.936993 9.68016 0.936993L9.67016 0.916992Z" fill="#5E5E5A"/>
</svg>
