<svg width="19" height="19" viewBox="0 0 19 19" fill="none" xmlns="http://www.w3.org/2000/svg">
<path d="M5.24135 7.73695C4.24135 10.907 3.48135 13.907 3.55135 16.367C3.56135 16.867 3.67135 17.367 3.89135 17.817C4.19135 18.407 4.51135 18.497 4.86135 18.017C5.02135 17.787 5.13135 17.517 5.18135 17.237L6.02135 13.297C6.22135 12.387 6.75135 11.557 7.55135 11.077C8.07135 10.767 8.61135 10.647 9.16135 10.737C9.81135 10.847 10.3713 11.247 10.7413 11.787C11.5213 12.887 13.2013 16.087 13.2013 16.087C13.9813 17.207 14.4413 17.147 14.5413 15.797C14.5913 14.117 13.0313 10.437 11.5613 7.62695L5.21135 7.73695H5.24135Z" fill="#F4DE9C" stroke="#5E5E5A" stroke-width="0.15" stroke-linecap="round" stroke-linejoin="round"/>
<path d="M18.2 6.40723H0V10.6872H18.2V6.40723Z" fill="#FFE4E3"/>
<path d="M0 10.6875H18.2" stroke="#5E5E5A" stroke-width="0.15" stroke-miterlimit="10"/>
<path d="M18.2 6.40723H0" stroke="#5E5E5A" stroke-width="0.15" stroke-miterlimit="10"/>
<path d="M8.48178 9.05707C7.60178 9.05707 6.67179 8.71708 5.72179 8.03708C5.57179 7.92708 5.43179 7.80707 5.29179 7.67707C4.97179 7.36707 4.73178 7.01707 4.57179 6.62707C4.17178 5.64707 4.02178 4.52707 4.14178 3.19707C4.19178 2.62707 4.40179 2.11707 4.75179 1.75707C5.11179 1.36707 5.54179 1.18707 6.05179 1.18707C6.46179 1.18707 6.93179 1.31707 7.44179 1.56707C7.65179 1.74707 7.90179 1.83707 8.19179 1.83707C8.59179 1.83707 9.05178 1.65707 9.57178 1.27707C10.0418 1.09707 10.5118 0.99707 10.9318 0.99707C11.5318 0.99707 12.0718 1.18707 12.5418 1.55707C13.3218 2.51707 13.3718 3.92707 12.6718 5.73707C12.4018 6.43707 12.0218 7.05707 11.5518 7.57707C11.2918 7.86707 10.9918 8.11707 10.6818 8.33707C9.97179 8.81707 9.24179 9.05707 8.49179 9.05707H8.48178Z" fill="white"/>
<path d="M10.9209 1.06699C11.5009 1.06699 12.0209 1.24699 12.4609 1.58699C13.2309 2.53699 13.2809 3.92699 12.5909 5.70699C12.3209 6.40699 11.9509 7.01699 11.4909 7.51699C11.2309 7.80699 10.9409 8.05699 10.6309 8.26699C9.94093 8.73699 9.21092 8.97699 8.48092 8.97699C7.61092 8.97699 6.70093 8.63699 5.77093 7.97699C5.62093 7.86699 5.48093 7.75699 5.35093 7.62699C5.04093 7.32699 4.80092 6.97699 4.65092 6.59699C4.25092 5.62699 4.11093 4.51699 4.22093 3.20699C4.27093 2.65699 4.47092 2.15699 4.81092 1.80699C5.16092 1.43699 5.56093 1.25699 6.05093 1.25699C6.45093 1.25699 6.90093 1.37699 7.37093 1.60699C7.61093 1.80699 7.88093 1.90699 8.18093 1.90699C8.60093 1.90699 9.06093 1.71699 9.59093 1.33699C10.0709 1.15699 10.5209 1.06699 10.9309 1.06699M10.9309 0.916992C10.4909 0.916992 10.0209 1.01699 9.52093 1.20699C9.04093 1.54699 8.59093 1.75699 8.18093 1.75699C7.92093 1.75699 7.68093 1.67699 7.47093 1.49699C6.96093 1.24699 6.48093 1.10699 6.05093 1.10699C5.54093 1.10699 5.08093 1.29699 4.70093 1.70699C4.32093 2.10699 4.12092 2.64699 4.07092 3.19699C3.96092 4.45699 4.07093 5.61699 4.51093 6.65699C4.68093 7.06699 4.93093 7.42699 5.25093 7.73699C5.39093 7.86699 5.53093 7.99699 5.69093 8.10699C6.65093 8.78699 7.58092 9.13699 8.49092 9.13699C9.25092 9.13699 10.0009 8.897 10.7209 8.397C11.0509 8.177 11.3409 7.91699 11.6109 7.62699C12.1009 7.08699 12.4809 6.44699 12.7409 5.76699C13.4509 3.93699 13.4109 2.50699 12.5909 1.50699C12.1009 1.11699 11.5509 0.926991 10.9409 0.926991L10.9309 0.916992Z" fill="#5E5E5A"/>
</svg>
