<svg width="9" height="21" viewBox="0 0 9 21" fill="none" xmlns="http://www.w3.org/2000/svg">
<path d="M0.47876 20.3506C0.47876 20.3506 0.47875 20.3806 0.46875 20.3906C0.46875 20.3906 0.46876 20.3606 0.47876 20.3506Z" fill="#F4DE9C" stroke="#5E5E5A" stroke-width="0.15" stroke-linecap="round" stroke-linejoin="round"/>
<path d="M0.869385 19.0501C1.16938 18.2201 1.49939 17.6701 1.77939 17.6501C3.56939 17.5201 3.98938 11.9201 7.60938 18.1601C8.14938 19.0901 8.54938 19.1501 8.82938 19.7701C8.54938 17.4201 8.0694 15.0401 7.8494 12.6701C7.6094 10.0901 6.63938 8.01014 6.07938 4.09014C5.51938 0.180141 4.15938 0.00014174 3.32938 2.02014C2.49938 4.04014 1.28938 9.49014 1.54938 12.4901C1.74938 14.7701 1.30937 17.3301 0.859375 19.0501H0.869385Z" fill="#F4DE9C" stroke="#5E5E5A" stroke-width="0.15" stroke-linecap="round" stroke-linejoin="round"/>
</svg>
