<svg width="10" height="19" viewBox="0 0 10 19" fill="none" xmlns="http://www.w3.org/2000/svg">
<path d="M6.01994 5.19977C5.81994 2.38977 5.62994 0.259766 6.10994 0.259766C7.78994 0.259766 8.76994 6.37977 8.82994 7.09977C8.93994 8.52977 8.95995 10.3698 8.99995 11.6298C9.12995 15.4998 9.38997 18.2098 9.38997 18.2098C8.04997 15.1298 7.50994 12.5498 7.26994 10.7698C7.15994 9.97977 6.67994 7.70976 6.01994 5.18976V5.19977Z" fill="#EDD091" stroke="#5E5E5A" stroke-width="0.15" stroke-linecap="round" stroke-linejoin="round"/>
<path d="M1.39081 17.1998C2.13081 16.3298 3.73081 15.5398 4.95081 15.7098C6.17081 15.8798 6.6108 17.2898 7.5408 17.2498C8.1908 17.2198 8.80081 17.1198 9.17081 17.6798C8.00081 14.8398 7.50078 12.4498 7.27078 10.7798C7.11078 9.62977 6.16079 5.30977 5.03079 1.69977C4.90079 1.28977 4.5608 0.259766 3.8508 0.259766C3.2608 0.259766 2.9508 1.51977 2.9408 1.89977C2.7908 10.1498 0.800781 18.1098 0.800781 18.1098H0.810791C0.980791 17.7598 1.18081 17.4498 1.39081 17.1998Z" fill="#F4DE9C" stroke="#5E5E5A" stroke-width="0.15" stroke-linecap="round" stroke-linejoin="round"/>
</svg>
