<svg width="9" height="18" viewBox="0 0 9 18" fill="none" xmlns="http://www.w3.org/2000/svg">
<path d="M0.670624 17.2303C0.880624 16.7603 1.18063 16.4303 1.57063 16.3503C2.32063 16.1903 2.49063 15.5003 3.41063 14.4703C4.33063 13.4403 5.67063 15.0603 6.21063 15.6403C6.75063 16.2203 7.82062 15.6903 8.45062 16.1303C8.53062 16.1803 8.59063 16.2903 8.63063 16.4403C8.52063 14.2303 8.04062 10.8703 7.68062 8.54026C7.27062 5.91026 5.72062 5.18025 6.01062 2.50025C6.30062 -0.189746 5.08063 -0.719746 4.02063 1.26025C2.96063 3.24025 2.31062 5.88025 2.59062 8.81025C2.87062 11.7403 2.28062 13.4603 0.640625 17.2403H0.65062L0.670624 17.2303Z" fill="#F4DE9C" stroke="#5E5E5A" stroke-width="0.15" stroke-linecap="round" stroke-linejoin="round"/>
</svg>
