<svg width="12" height="19" viewBox="0 0 12 19" fill="none" xmlns="http://www.w3.org/2000/svg">
<path d="M7.05093 2.47967C6.82093 0.199666 5.42094 0.789666 5.32094 2.69967C5.22094 4.60967 4.36094 8.38967 3.21094 12.1397L7.23093 12.6297C7.59093 11.2497 7.29093 4.75967 7.05093 2.47967Z" fill="#F4DE9C" stroke="#5E5E5A" stroke-width="0.15" stroke-linecap="round" stroke-linejoin="round"/>
<path d="M0.371094 17.8904C1.38109 16.4104 2.11109 17.8904 3.43109 17.3004C4.85109 16.6704 6.55109 16.6204 7.73109 17.6904C8.74109 18.6204 10.1111 17.6904 10.6911 17.9804C10.0111 16.0004 10.8811 11.3004 10.8811 11.3004C11.3011 7.22038 10.4611 4.06038 9.29109 2.06038C8.12109 0.0603813 7.87109 3.14038 7.84109 4.64038C7.81109 6.14038 7.7811 7.85038 7.2511 10.1804C6.7211 12.5104 5.0611 12.0304 4.3311 10.0004C3.6011 7.97038 4.26109 5.13038 4.68109 2.46038C5.10109 -0.209619 2.8211 1.54038 1.3311 5.31038C-0.1589 9.08038 0.791097 11.5904 1.2811 13.8404C1.7411 15.9704 1.32109 15.9204 0.371094 17.8904Z" fill="#F4DE9C" stroke="#5E5E5A" stroke-width="0.15" stroke-linecap="round" stroke-linejoin="round"/>
</svg>
