<svg width="13" height="17" viewBox="0 0 13 17" fill="none" xmlns="http://www.w3.org/2000/svg">
<path d="M8.23093 2.45015C8.14093 0.450151 6.84092 0.870151 6.65092 2.54015C6.45092 4.20015 5.47094 7.45015 4.21094 10.6602L7.83093 11.3402C8.23093 10.1602 8.31093 4.46015 8.23093 2.45015Z" fill="#F4DE9C" stroke="#5E5E5A" stroke-width="0.15" stroke-linecap="round" stroke-linejoin="round"/>
<path d="M0.679688 16.3705C0.759687 16.2105 0.849697 16.0605 0.939697 15.9205C2.3497 13.7205 4.63969 13.9705 5.49969 14.4605C8.11969 15.9705 9.78969 12.9505 11.6797 15.5705C11.7597 15.6805 11.8197 15.8505 11.8797 16.0305C12.1697 13.3905 12.1697 11.1305 11.8397 9.26047C11.4997 7.26047 11.6197 4.39047 10.6397 1.72047C9.65969 -0.949529 8.88969 0.900471 9.13969 2.13047C9.38969 3.37047 8.8897 5.78047 8.2197 7.15047C7.5497 8.52047 6.75969 11.2605 5.33969 10.1605C3.91969 9.06047 4.70969 5.37047 5.50969 2.61047C6.30969 -0.149529 4.70969 0.540471 4.11969 1.79047C3.53969 3.04047 1.3697 6.26047 1.4097 9.75047C1.4497 13.2405 1.72969 14.5005 0.679688 16.3805V16.3705Z" fill="#F4DE9C" stroke="#5E5E5A" stroke-width="0.15" stroke-linecap="round" stroke-linejoin="round"/>
</svg>
