<svg width="10" height="17" viewBox="0 0 10 17" fill="none" xmlns="http://www.w3.org/2000/svg">
<path d="M5.9911 2.38991C5.5711 0.429912 4.3611 1.05991 4.4411 2.72991C4.5211 4.39991 4.08109 7.76991 3.37109 11.1399L7.0511 11.2099C7.2511 9.97991 6.40109 4.33991 5.98109 2.37991L5.9911 2.38991Z" fill="#F4DE9C" stroke="#5E5E5A" stroke-width="0.15" stroke-linecap="round" stroke-linejoin="round"/>
<path d="M0.349854 16.61C0.989854 15.17 1.74984 16.59 2.33984 15.79C5.56984 11.39 4.55984 15.73 8.67984 14.93C9.16984 14.84 9.49984 15.14 9.72984 15.69C9.31984 12.23 9.76985 7.96 9.37985 6.27C8.94985 4.43 8.36984 1.3 7.19984 0.940003C6.03984 0.580003 6.35985 3.64 6.93985 6.18C7.52985 8.72 6.90985 10.58 4.81985 10.92C2.73985 11.26 4.29984 5.95 4.05984 2.81C3.81984 -0.329996 2.05984 0.490004 2.22984 2.47C2.40984 4.45 0.419852 8.77 0.519852 9.91C0.619852 11.06 1.21984 13.86 0.339844 16.6L0.349854 16.61Z" fill="#F4DE9C" stroke="#5E5E5A" stroke-width="0.15" stroke-linecap="round" stroke-linejoin="round"/>
</svg>
