<svg width="9" height="21" viewBox="0 0 9 21" fill="none" xmlns="http://www.w3.org/2000/svg">
<path d="M8.66235 20.4004C8.66235 20.4004 8.66234 20.3704 8.65234 20.3604C8.65234 20.3704 8.65235 20.3904 8.66235 20.4004Z" fill="#F4DE9C" stroke="#5E5E5A" stroke-width="0.15" stroke-linecap="round" stroke-linejoin="round"/>
<path d="M1.51126 18.1504C5.13126 11.9204 5.55125 17.5104 7.34125 17.6404C7.62125 17.6604 7.95125 18.2204 8.25125 19.0404C7.80125 17.3204 7.36125 14.7604 7.56125 12.4804C7.83125 9.48038 6.61125 4.03038 5.78125 2.01038C4.95125 -0.00962389 3.59125 0.170376 3.03125 4.08038C2.47125 7.99038 1.50126 10.0804 1.26126 12.6604C1.04126 15.0304 0.55125 17.4104 0.28125 19.7604C0.56125 19.1304 0.961251 19.0804 1.50125 18.1504H1.51126Z" fill="#F4DE9C" stroke="#5E5E5A" stroke-width="0.15" stroke-linecap="round" stroke-linejoin="round"/>
</svg>
