<svg width="9" height="19" viewBox="0 0 9 19" fill="none" xmlns="http://www.w3.org/2000/svg">
<path d="M0.488739 17.4405C0.538739 17.2905 0.598762 17.1805 0.668762 17.1305C1.29876 16.6905 2.36875 17.2305 2.90875 16.6405C3.44875 16.0505 4.78874 14.4405 5.70874 15.4705C6.62874 16.5005 6.79874 17.1905 7.54874 17.3505C7.94874 17.4305 8.23876 17.7705 8.44876 18.2305H8.45874C6.81874 14.4505 6.22876 12.7305 6.50876 9.80048C6.78876 6.87048 6.13874 4.23049 5.07874 2.25049C4.01874 0.270485 2.79875 0.810485 3.08875 3.49048C3.37875 6.18049 1.82876 6.90049 1.41876 9.53049C1.05876 11.8705 0.57875 15.2205 0.46875 17.4305L0.488739 17.4405Z" fill="#F4DE9C" stroke="#5E5E5A" stroke-width="0.15" stroke-linecap="round" stroke-linejoin="round"/>
</svg>
