<svg width="11" height="19" viewBox="0 0 11 19" fill="none" xmlns="http://www.w3.org/2000/svg">
<path d="M4.06932 2.47967C4.29932 0.199666 5.6993 0.789666 5.7993 2.69967C5.8993 4.60967 6.75931 8.38967 7.90931 12.1397L3.88932 12.6297C3.52932 11.2497 3.82932 4.75967 4.06932 2.47967Z" fill="#F4DE9C" stroke="#5E5E5A" stroke-width="0.15" stroke-linecap="round" stroke-linejoin="round"/>
<path d="M0.440388 17.9804C1.02039 17.6904 2.39038 18.6104 3.40038 17.6904C4.57038 16.6204 6.2804 16.6604 7.7004 17.3004C9.0204 17.8904 9.7604 16.4104 10.7604 17.8904C9.8104 15.9204 9.39039 15.9704 9.85039 13.8404C10.3404 11.5904 11.2904 9.08038 9.80037 5.31038C8.31037 1.54038 6.0304 -0.209619 6.4504 2.46038C6.8704 5.13038 7.53037 7.97038 6.80037 10.0004C6.07037 12.0304 4.41039 12.5104 3.88039 10.1804C3.35039 7.85038 3.32039 6.15038 3.29039 4.64038C3.26039 3.14038 3.02038 0.0603813 1.84038 2.06038C0.670382 4.06038 -0.169615 7.22038 0.250385 11.3004C0.250385 11.3004 1.12039 16.0004 0.440388 17.9804Z" fill="#F4DE9C" stroke="#5E5E5A" stroke-width="0.15" stroke-linecap="round" stroke-linejoin="round"/>
</svg>
