<svg width="13" height="17" viewBox="0 0 13 17" fill="none" xmlns="http://www.w3.org/2000/svg">
<path d="M4.89897 2.45015C4.98897 0.450151 6.28899 0.870151 6.47899 2.54015C6.67899 4.20015 7.65899 7.45015 8.91899 10.6602L5.29897 11.3402C4.89897 10.1602 4.81897 4.46015 4.89897 2.45015Z" fill="#F4DE9C" stroke="#5E5E5A" stroke-width="0.15" stroke-linecap="round" stroke-linejoin="round"/>
<path d="M1.4482 15.5802C3.3382 12.9602 5.0082 15.9802 7.6282 14.4702C8.4882 13.9702 10.7782 13.7302 12.1882 15.9302C12.2782 16.0702 12.3682 16.2302 12.4482 16.3802C11.3982 14.5102 11.6782 13.2402 11.7182 9.75019C11.7582 6.26019 9.5882 3.04019 9.0082 1.79019C8.4282 0.540186 6.81819 -0.149814 7.61819 2.61019C8.41819 5.37019 9.2082 9.07019 7.7882 10.1602C6.3682 11.2502 5.5782 8.52019 4.9082 7.15019C4.2382 5.78019 3.73818 3.37019 3.98818 2.13019C4.23818 0.890186 3.45818 -0.949813 2.48818 1.72019C1.50818 4.39019 1.6282 7.26019 1.2882 9.26019C0.968201 11.1402 0.958193 13.4002 1.24819 16.0302C1.29819 15.8502 1.3582 15.6902 1.4482 15.5702V15.5802Z" fill="#F4DE9C" stroke="#5E5E5A" stroke-width="0.15" stroke-linecap="round" stroke-linejoin="round"/>
</svg>
