<svg width="10" height="17" viewBox="0 0 10 17" fill="none" xmlns="http://www.w3.org/2000/svg">
<path d="M4.12906 2.38991C4.54906 0.429912 5.75905 1.05991 5.67905 2.72991C5.59905 4.39991 6.03905 7.76991 6.74905 11.1399L3.06906 11.2099C2.86906 9.97991 3.71907 4.33991 4.13907 2.37991L4.12906 2.38991Z" fill="#F4DE9C" stroke="#5E5E5A" stroke-width="0.15" stroke-linecap="round" stroke-linejoin="round"/>
<path d="M0.400604 15.6995C0.620604 15.1495 0.960623 14.8395 1.45062 14.9395C5.57062 15.7395 4.56062 11.3995 7.79062 15.7995C8.38062 16.5995 9.13061 15.1795 9.78061 16.6195C8.90061 13.8795 9.50062 11.0695 9.60062 9.92954C9.70062 8.77954 7.72062 4.45953 7.89062 2.48953C8.07063 0.509535 6.30061 -0.310465 6.06061 2.82954C5.82061 5.96954 7.3806 11.2795 5.3006 10.9395C3.2206 10.5995 2.6006 8.74954 3.1806 6.19954C3.7706 3.65954 4.09062 0.599535 2.92062 0.959535C1.75062 1.31954 1.1706 4.43954 0.740601 6.28954C0.350601 7.97954 0.800625 12.2495 0.390625 15.7095L0.400604 15.6995Z" fill="#F4DE9C" stroke="#5E5E5A" stroke-width="0.15" stroke-linecap="round" stroke-linejoin="round"/>
</svg>
