<svg width="7" height="16" viewBox="0 0 7 16" fill="none" xmlns="http://www.w3.org/2000/svg">
<path d="M4.92844 2.63988C4.38844 3.35988 3.24844 3.47988 2.52844 2.63988C1.88844 1.88988 0.738438 1.62988 0.398438 0.629883C0.508437 1.32988 1.25845 2.83988 1.47845 5.48988C1.70845 8.13988 2.15845 11.5999 2.87845 14.1099C3.59845 16.6199 4.36844 14.6299 4.74844 12.2499C5.47844 7.61989 6.42845 2.84988 6.78845 1.02988C6.49845 2.31988 5.45844 1.93988 4.92844 2.63988Z" fill="#F4DE9C" stroke="#5E5E5A" stroke-width="0.15" stroke-linecap="round" stroke-linejoin="round"/>
<path d="M6.84766 0.729927C6.84766 0.729927 6.84764 0.689922 6.85764 0.669922C6.85764 0.669922 6.85764 0.709927 6.85764 0.729927H6.84766Z" fill="#F4DE9C" stroke="#5E5E5A" stroke-width="0.15" stroke-linecap="round" stroke-linejoin="round"/>
</svg>
