<svg width="8" height="24" viewBox="0 0 8 24" fill="none" xmlns="http://www.w3.org/2000/svg">
<path d="M6.63095 3.5098C5.93095 4.4998 5.08094 5.3098 4.46094 5.6398C3.84094 5.9698 1.27095 3.9498 0.570953 2.1098C0.430953 1.7498 0.310938 1.2998 0.210938 0.799805C0.340937 1.5398 0.530935 3.4398 0.520935 6.6098C0.520935 9.6698 0.580956 10.9998 1.01096 12.5898C1.95096 16.1098 2.66094 18.2198 2.68094 20.7998C2.70094 23.3798 3.88094 24.1998 4.90094 21.1098C5.93094 18.0198 6.75094 15.5898 6.78094 11.7298C6.81094 8.35981 6.87095 4.4198 7.35095 2.0598C7.16095 2.5898 6.93095 3.0998 6.63095 3.5198V3.5098Z" fill="#F4DE9C" stroke="#5E5E5A" stroke-width="0.15" stroke-linecap="round" stroke-linejoin="round"/>
</svg>
