<svg width="8" height="18" viewBox="0 0 8 18" fill="none" xmlns="http://www.w3.org/2000/svg">
<path d="M7.2103 2.00969C6.6503 2.56969 5.4403 4.06969 4.3703 4.38969C3.3003 4.70969 2.21031 3.63969 1.35031 2.79969C1.24031 2.68969 1.15031 2.57968 1.07031 2.44968C1.35031 3.40968 1.64031 4.70968 1.69031 6.55968C1.78031 9.65968 2.4503 13.9797 3.8403 16.6897C5.2403 19.3897 5.61032 17.0597 5.42032 14.2597C5.21032 11.0897 5.84029 9.41969 6.30029 7.66969C6.84029 5.63969 7.28029 3.61969 7.83029 0.929688C7.65029 1.37969 7.4503 1.76969 7.2103 2.00969Z" fill="#F4DE9C" stroke="#5E5E5A" stroke-width="0.15" stroke-linecap="round" stroke-linejoin="round"/>
<path d="M0.601562 0.929688V0.93969V0.929688Z" fill="#F4DE9C" stroke="#5E5E5A" stroke-width="0.15" stroke-linecap="round" stroke-linejoin="round"/>
</svg>
