<svg width="13" height="16" viewBox="0 0 13 16" fill="none" xmlns="http://www.w3.org/2000/svg">
<path d="M12.4982 0.499962H12.4782C11.6682 1.39996 9.59822 0.869962 8.10822 1.31996C6.42822 1.81996 4.83824 0.729962 3.53824 0.819962C2.56824 0.879962 1.73823 0.799961 1.05823 0.209961C1.45823 1.25996 1.32823 3.97996 1.08823 6.09996C0.85823 8.21996 1.73824 10.21 2.34824 11.54C2.95824 12.88 4.17825 15.26 5.44825 15.54C6.72825 15.82 5.44824 12.34 5.65824 11.05C5.86824 9.74996 6.32824 6.29996 6.81824 5.69996C7.30824 5.09996 7.92822 5.13996 8.20822 7.55996C8.48822 9.97996 9.18822 11.54 9.76822 13.05C10.3482 14.56 11.2582 15.77 11.9182 15.17C12.5882 14.57 12.0682 10.43 11.8682 9.08996C11.6682 7.74996 11.7182 5.09996 11.8382 3.80996C11.9582 2.52996 11.9782 1.90996 12.4982 0.499962Z" fill="#F4DE9C" stroke="#5E5E5A" stroke-width="0.15" stroke-linecap="round" stroke-linejoin="round"/>
</svg>
