<svg width="11" height="16" viewBox="0 0 11 16" fill="none" xmlns="http://www.w3.org/2000/svg">
<path d="M10.9019 1.03024C10.4619 1.93024 10.1419 0.780239 9.15186 0.690239C8.16186 0.600239 7.49187 2.46024 5.41187 2.44024C4.57187 2.44024 3.12186 0.870235 2.31186 1.03024C1.50186 1.19024 0.561852 1.45024 0.241852 0.690239C0.221852 0.640239 0.191875 0.560234 0.171875 0.490234C0.571875 1.99023 1.14186 4.42024 1.25186 5.28024C1.38186 6.26024 1.27186 8.78023 1.37186 10.7402C1.46186 12.7002 3.18185 15.4702 4.30185 15.8402C5.42185 16.2002 4.61187 10.6602 4.41187 9.96024C4.21187 9.26024 4.52185 5.72024 5.52185 5.72024C6.12185 5.72024 7.37186 8.59024 7.37186 11.1402C7.37186 13.6902 8.01187 16.2102 8.85187 15.4602C9.68187 14.7102 10.5119 10.1902 10.7719 8.58024C11.0319 6.97024 10.1719 5.35024 10.1719 4.26024C10.1719 3.51024 10.5419 2.08024 10.8919 1.03024H10.9019Z" fill="#F4DE9C" stroke="#5E5E5A" stroke-width="0.15" stroke-linecap="round" stroke-linejoin="round"/>
</svg>
