<svg width="12" height="15" viewBox="0 0 12 15" fill="none" xmlns="http://www.w3.org/2000/svg">
<path d="M10.6089 3.92992C10.4989 2.96992 10.0489 2.08993 9.98889 1.25993C9.83889 1.41993 9.68889 1.56993 9.51889 1.68993C7.74889 2.95993 6.3289 0.949922 5.4989 0.759922C4.6689 0.559922 2.15889 1.44992 1.32889 0.759922C1.13889 0.609922 0.998906 0.399922 0.878906 0.169922C1.15891 1.09992 1.50891 1.76992 1.75891 2.81992C2.00891 3.86992 2.29891 4.86993 2.06891 7.39993C1.83891 9.92993 3.22891 11.2399 5.06891 13.2099C6.90891 15.1899 7.22891 14.2599 6.97891 12.9999C6.71891 11.7399 5.62889 9.46993 5.45889 8.15993C5.28889 6.84993 5.97891 6.32992 6.34891 5.31992C6.71891 4.31992 7.38889 4.78992 8.10889 6.23992C8.83889 7.68992 8.0189 11.6199 8.3089 13.4199C8.5989 15.2199 9.7389 14.4299 10.1889 13.1699C10.6389 11.9099 11.1489 11.1099 11.2689 7.96992C11.3889 4.82992 10.7589 5.31992 10.5989 3.92992H10.6089Z" fill="#F4DE9C" stroke="#5E5E5A" stroke-width="0.15" stroke-linecap="round" stroke-linejoin="round"/>
</svg>
