<svg width="7" height="16" viewBox="0 0 7 16" fill="none" xmlns="http://www.w3.org/2000/svg">
<path d="M0.339844 0.660156C0.339844 0.660156 0.339854 0.700154 0.349854 0.720154C0.349854 0.700154 0.349854 0.680156 0.349854 0.660156H0.339844Z" fill="#F4DE9C" stroke="#5E5E5A" stroke-width="0.15" stroke-linecap="round" stroke-linejoin="round"/>
<path d="M4.65845 2.63988C3.93845 3.47988 2.79845 3.35988 2.25845 2.63988C1.72845 1.93988 0.688437 2.31988 0.398438 1.02988C0.758438 2.85988 1.70845 7.62989 2.43845 12.2499C2.80845 14.6299 3.58844 16.6199 4.30844 14.1099C5.02844 11.5999 5.47844 8.13988 5.70844 5.48988C5.93844 2.83988 6.67845 1.31988 6.78845 0.629883C6.45845 1.62988 5.29845 1.88988 4.65845 2.63988Z" fill="#F4DE9C" stroke="#5E5E5A" stroke-width="0.15" stroke-linecap="round" stroke-linejoin="round"/>
</svg>
