<svg width="9" height="24" viewBox="0 0 9 24" fill="none" xmlns="http://www.w3.org/2000/svg">
<path d="M7.6394 2.11004C6.9394 3.95004 4.36939 5.96004 3.74939 5.64004C3.12939 5.31004 2.26938 4.50004 1.57938 3.51004C1.27938 3.09004 1.04937 2.59004 0.859375 2.05004C1.33937 4.42004 1.39939 8.35004 1.43939 11.72C1.46939 15.58 2.2894 18.01 3.3194 21.1C4.3494 24.19 5.5294 23.37 5.5394 20.79C5.5594 18.21 6.25938 16.1 7.20938 12.58C7.63938 10.99 7.7094 9.66004 7.6994 6.60004C7.6994 3.44004 7.8794 1.54004 8.0094 0.790039C7.9094 1.29004 7.78938 1.74004 7.64938 2.10004L7.6394 2.11004Z" fill="#F4DE9C" stroke="#5E5E5A" stroke-width="0.15" stroke-linecap="round" stroke-linejoin="round"/>
</svg>
