<svg width="8" height="18" viewBox="0 0 8 18" fill="none" xmlns="http://www.w3.org/2000/svg">
<path d="M7.59766 0.93969V0.929688V0.93969Z" fill="#F4DE9C" stroke="#5E5E5A" stroke-width="0.15" stroke-linecap="round" stroke-linejoin="round"/>
<path d="M6.83939 2.80945C5.97939 3.64945 4.8894 4.71945 3.8194 4.39945C2.7494 4.07945 1.5394 2.56945 0.979401 2.01945C0.739401 1.77945 0.529375 1.38945 0.359375 0.939453C0.909375 3.62945 1.3494 5.64945 1.8894 7.67945C2.3494 9.42945 2.98938 11.0994 2.76938 14.2694C2.57938 17.0694 2.9494 19.3994 4.3494 16.6994C5.7494 13.9994 6.40939 9.67945 6.49939 6.56945C6.54939 4.71945 6.83938 3.41945 7.11938 2.45945C7.03938 2.57945 6.94939 2.69945 6.83939 2.80945Z" fill="#F4DE9C" stroke="#5E5E5A" stroke-width="0.15" stroke-linecap="round" stroke-linejoin="round"/>
</svg>
