<svg width="13" height="16" viewBox="0 0 13 16" fill="none" xmlns="http://www.w3.org/2000/svg">
<path d="M12.1392 0.200195C11.4492 0.800195 10.6192 0.880196 9.65923 0.810196C8.35923 0.730196 6.76922 1.8202 5.08922 1.3102C3.59922 0.860196 1.52922 1.3902 0.719223 0.490196H0.699219C1.21922 1.9002 1.23922 2.5202 1.35922 3.8002C1.47922 5.0802 1.52922 7.7302 1.32922 9.0802C1.12922 10.4202 0.609221 14.5702 1.27922 15.1602C1.94922 15.7602 2.84921 14.5502 3.42921 13.0402C4.00921 11.5302 4.70923 9.9702 4.98923 7.5502C5.26923 5.1302 5.88923 5.0902 6.37923 5.6902C6.86923 6.2902 7.32922 9.7402 7.53922 11.0402C7.74922 12.3402 6.46922 15.8102 7.74922 15.5302C9.02922 15.2502 10.2392 12.8702 10.8492 11.5302C11.4592 10.1902 12.3492 8.21019 12.1092 6.09019C11.8792 3.97019 11.7392 1.2402 12.1392 0.200195Z" fill="#F4DE9C" stroke="#5E5E5A" stroke-width="0.15" stroke-linecap="round" stroke-linejoin="round"/>
</svg>
