<svg width="12" height="16" viewBox="0 0 12 16" fill="none" xmlns="http://www.w3.org/2000/svg">
<path d="M10.9413 0.690239C10.6313 1.45024 9.68125 1.20024 8.87125 1.03024C8.06125 0.860235 6.61126 2.43024 5.77126 2.44024C3.70126 2.46024 3.02125 0.600239 2.03125 0.690239C1.05125 0.780239 0.72125 1.93024 0.28125 1.03024C0.63125 2.08024 1.00125 3.50024 1.00125 4.26024C1.00125 5.34024 0.141245 6.97024 0.401245 8.58024C0.661245 10.1902 1.48126 14.7202 2.32126 15.4602C3.15126 16.2102 3.80125 13.6902 3.80125 11.1402C3.80125 8.59024 5.06125 5.72024 5.65125 5.72024C6.65125 5.72024 6.96125 9.26024 6.76125 9.96024C6.56125 10.6602 5.75125 16.2102 6.87125 15.8402C7.99125 15.4802 9.70125 12.7002 9.80125 10.7402C9.89125 8.78023 9.79125 6.26024 9.92125 5.28024C10.0312 4.41024 10.6013 1.99023 11.0013 0.490234C10.9813 0.560234 10.9512 0.630237 10.9312 0.680237L10.9413 0.690239Z" fill="#F4DE9C" stroke="#5E5E5A" stroke-width="0.15" stroke-linecap="round" stroke-linejoin="round"/>
</svg>
