<svg width="12" height="15" viewBox="0 0 12 15" fill="none" xmlns="http://www.w3.org/2000/svg">
<path d="M10.8596 0.759922C10.0296 1.44992 7.51963 0.559922 6.68963 0.759922C5.85963 0.959922 4.43962 2.95993 2.66962 1.68993C2.50962 1.56993 2.34962 1.41993 2.19962 1.25993C2.13962 2.08993 1.68962 2.96992 1.57962 3.92992C1.41962 5.31992 0.789626 4.81992 0.909626 7.96992C1.02963 11.1099 1.53963 11.9199 1.98963 13.1699C2.43963 14.4299 3.57962 15.2199 3.86962 13.4199C4.15962 11.6199 3.33963 7.68992 4.06963 6.23992C4.79963 4.78992 5.45962 4.30992 5.82962 5.31992C6.19962 6.31992 6.88962 6.84993 6.71962 8.15993C6.54962 9.46993 5.45962 11.7399 5.19962 12.9999C4.93962 14.2599 5.26962 15.1899 7.10962 13.2099C8.94962 11.2299 10.3396 9.92993 10.1096 7.39993C9.87962 4.86993 10.1596 3.86992 10.4196 2.81992C10.6696 1.76992 11.0196 1.09992 11.2996 0.169922C11.1796 0.409922 11.0396 0.609922 10.8496 0.759922H10.8596Z" fill="#F4DE9C" stroke="#5E5E5A" stroke-width="0.15" stroke-linecap="round" stroke-linejoin="round"/>
</svg>
