<svg width="11" height="15" viewBox="0 0 11 15" fill="none" xmlns="http://www.w3.org/2000/svg">
<path d="M3.62937 8.90998C4.19937 7.01998 4.29937 4.60998 4.15937 1.94998C4.14937 1.66998 4.19938 1.37998 4.36938 1.14998C4.57938 0.83998 4.80938 0.839981 5.03938 1.16998C5.18938 1.38998 5.26938 1.65998 5.28938 1.92998C5.50938 4.41998 6.12937 6.88998 7.17937 9.32998L7.15937 11.29L3.60938 11.26L3.62937 8.91998V8.90998Z" fill="#F4DE9C" stroke="#5E5E5A" stroke-width="0.15" stroke-linecap="round" stroke-linejoin="round"/>
<path d="M8.11073 13.7904C8.16073 13.8404 8.21073 13.9104 8.25073 13.9704C9.77073 11.1304 10.9407 6.75042 10.7207 2.21043C10.6607 0.930425 10.1307 0.580426 9.48073 1.29043C9.13073 1.68043 9.00073 2.21043 8.92073 2.73043C8.61073 4.81043 8.47073 6.77043 7.76073 8.47043C7.63073 8.79043 7.44073 9.07043 7.21073 9.31043C6.78073 9.75043 6.21073 10.0404 5.57073 10.0504C4.91073 10.0604 4.26073 9.88043 3.84073 9.31043C3.76073 9.20043 3.71073 9.06043 3.65073 8.92043C2.79073 7.06043 2.26073 4.73043 1.91073 2.19043C1.89073 2.08043 1.87073 1.97043 1.82073 1.86043C1.48073 1.03043 0.770727 1.20043 0.620727 1.97043C0.590727 2.14043 0.570726 2.32043 0.580726 2.50043C0.760726 6.93043 1.22073 10.8404 2.82073 14.2604C4.64073 12.3004 6.41073 11.9804 8.09073 13.7804L8.11073 13.7904Z" fill="#F4DE9C" stroke="#5E5E5A" stroke-width="0.15" stroke-linecap="round" stroke-linejoin="round"/>
</svg>
