<svg width="14" height="14" viewBox="0 0 14 14" fill="none" xmlns="http://www.w3.org/2000/svg">
<path d="M5.91016 8.57043C6.55016 7.03043 6.62016 4.59043 6.49016 1.84043C6.47016 1.48043 6.56016 1.10043 6.79016 0.820434C7.12016 0.410434 7.47016 0.520434 7.84016 0.980434C7.97016 1.14043 8.03016 1.34043 8.04016 1.54043C8.14016 3.78043 8.92016 6.31043 9.96016 8.96043V10.9304H5.91016V8.57043Z" fill="#F4DE9C" stroke="#5E5E5A" stroke-width="0.15" stroke-linecap="round" stroke-linejoin="round"/>
<path d="M5.21812 13.5304C7.90812 11.5704 10.2881 11.5304 12.2981 13.7804C13.6981 10.3404 13.7681 6.24042 12.9481 1.71042C12.8981 1.42042 12.7881 1.14042 12.6181 0.900417C12.3081 0.490417 12.0081 0.470418 11.7181 0.840418C11.4481 1.18042 11.3581 1.62042 11.3881 2.05042C11.5981 4.81042 11.4481 7.31042 10.1981 8.97042C10.1581 9.00042 10.1281 9.03042 10.0881 9.06042C8.75812 10.0204 7.36812 9.85042 5.90812 8.58042C4.22812 6.73042 3.02812 4.31042 2.13812 1.54042C1.78812 0.930418 1.44812 0.880418 1.11812 1.24042C0.798122 1.59042 0.718122 2.10042 0.838122 2.56042C1.93812 6.57042 3.38812 10.4604 5.18812 13.5804C5.19812 13.5804 5.20812 13.5604 5.21812 13.5504V13.5304Z" fill="#F4DE9C" stroke="#5E5E5A" stroke-width="0.15" stroke-linecap="round" stroke-linejoin="round"/>
</svg>
