<svg width="12" height="15" viewBox="0 0 12 15" fill="none" xmlns="http://www.w3.org/2000/svg">
<path d="M8.10078 8.90998C7.53078 7.01998 7.43079 4.60998 7.57079 1.94998C7.58079 1.66998 7.53078 1.37998 7.36078 1.14998C7.15078 0.83998 6.92078 0.839981 6.69078 1.16998C6.54078 1.38998 6.46078 1.65998 6.44078 1.92998C6.22078 4.41998 5.60078 6.88998 4.55078 9.32998L4.57079 11.29L8.12077 11.26L8.10078 8.91998V8.90998Z" fill="#F4DE9C" stroke="#5E5E5A" stroke-width="0.15" stroke-linecap="round" stroke-linejoin="round"/>
<path d="M3.61945 13.7898C5.29945 11.9898 7.06946 12.3098 8.88946 14.2698C10.4895 10.8498 10.9495 6.93975 11.1295 2.50975C11.1295 2.32975 11.1295 2.14975 11.0895 1.97975C10.9395 1.21975 10.2295 1.03975 9.88945 1.86975C9.84945 1.96975 9.81946 2.08975 9.79946 2.19975C9.44946 4.73975 8.91945 7.05975 8.05945 8.92975C7.99945 9.05975 7.95945 9.19975 7.86945 9.31975C7.44945 9.88975 6.79946 10.0698 6.13946 10.0598C5.50946 10.0498 4.92946 9.75975 4.49946 9.31975C4.26946 9.07975 4.07945 8.79975 3.94945 8.47975C3.23945 6.77975 3.09945 4.80975 2.78945 2.73975C2.70945 2.21975 2.57945 1.68975 2.22945 1.29975C1.57945 0.579751 1.04946 0.93975 0.989461 2.21975C0.779461 6.76975 1.93946 11.1398 3.45946 13.9798C3.50946 13.9198 3.55946 13.8498 3.59946 13.7998L3.61945 13.7898Z" fill="#F4DE9C" stroke="#5E5E5A" stroke-width="0.15" stroke-linecap="round" stroke-linejoin="round"/>
</svg>
