<svg width="13" height="14" viewBox="0 0 13 14" fill="none" xmlns="http://www.w3.org/2000/svg">
<path d="M7.6711 8.55969C7.0311 7.01969 6.96109 4.57969 7.09109 1.82969C7.11109 1.46969 7.02109 1.08969 6.79109 0.809692C6.46109 0.399692 6.1111 0.509692 5.7411 0.969692C5.6111 1.12969 5.55109 1.32969 5.54109 1.52969C5.44109 3.76969 4.66109 6.29969 3.62109 8.94969V10.9197H7.6711V8.55969Z" fill="#F4DE9C" stroke="#5E5E5A" stroke-width="0.15" stroke-linecap="round" stroke-linejoin="round"/>
<path d="M12.4615 1.21014C12.1415 0.850144 11.8015 0.900144 11.4415 1.51014C10.5515 4.29014 9.35153 6.71014 7.67154 8.55014C6.22153 9.82014 4.82154 9.99014 3.49154 9.03014C3.45154 9.00014 3.42154 8.97014 3.38154 8.94014C2.13154 7.28014 1.98154 4.79014 2.19154 2.02014C2.22154 1.59014 2.13154 1.15014 1.86154 0.810144C1.57154 0.440144 1.27154 0.460144 0.961544 0.870144C0.791544 1.11014 0.681542 1.39014 0.631542 1.68014C-0.198458 6.21014 -0.118464 10.3101 1.28154 13.7501C3.29154 11.5001 5.67154 11.5501 8.36154 13.5001C8.36154 13.5001 8.38154 13.5201 8.39154 13.5301C10.1915 10.4201 11.6415 6.52014 12.7415 2.51014C12.8615 2.05014 12.7815 1.54014 12.4615 1.19014V1.21014Z" fill="#F4DE9C" stroke="#5E5E5A" stroke-width="0.15" stroke-linecap="round" stroke-linejoin="round"/>
</svg>
