<svg width="12" height="12" viewBox="0 0 12 12" fill="none" xmlns="http://www.w3.org/2000/svg">
<path d="M9.87983 0.949844C9.73983 1.07984 9.59983 1.20984 9.43983 1.31984C7.66983 2.57984 5.99983 2.68984 4.40983 1.60984C4.07983 1.38984 3.78983 1.12984 3.51983 0.839844C2.04983 3.64984 0.499821 7.31985 0.539821 9.00985C0.639821 10.3598 1.09983 10.4198 1.87983 9.29985C1.87983 9.29985 3.56982 6.09984 4.33982 4.99984C4.71982 4.45984 5.27983 4.05984 5.91983 3.94984C6.46983 3.85984 7.00983 3.97984 7.52983 4.28984C8.32983 4.76984 8.85982 5.59985 9.05982 6.50985L9.89982 10.4498C9.95982 10.7298 10.0598 10.9998 10.2198 11.2298C10.5698 11.7198 10.8898 11.6198 11.1898 11.0298C11.4198 10.5798 11.5198 10.0798 11.5298 9.57985C11.5998 7.11985 10.8398 4.10984 9.83982 0.949844H9.87983Z" fill="#F4DE9C" stroke="#5E5E5A" stroke-width="0.15" stroke-linecap="round" stroke-linejoin="round"/>
</svg>
