<svg width="13" height="12" viewBox="0 0 13 12" fill="none" xmlns="http://www.w3.org/2000/svg">
<path d="M9.92889 0.829926C9.92889 0.829926 9.8789 0.869921 9.8489 0.879921C7.6489 2.06992 5.36889 2.16992 3.00889 1.08992C2.77889 0.98992 2.5689 0.839922 2.3889 0.669922C0.938898 3.44992 0.398896 6.38993 0.808896 9.46992C0.848896 9.79992 0.968897 10.1199 1.1689 10.3899C1.5689 10.9199 1.9589 10.8799 2.3389 10.3199C2.5289 10.0399 2.6389 9.70992 2.6889 9.37992C3.0389 7.15992 3.7089 5.30993 4.9889 4.14993C5.9889 3.09993 7.11891 3.02993 8.45891 4.36993C9.59891 5.76993 10.3689 7.79992 10.9189 10.2199C11.0189 10.6499 11.2289 11.0599 11.5689 11.3399C12.1289 11.7999 12.4689 11.5699 12.5289 10.4799C12.5289 6.87993 11.6489 3.43993 9.9389 0.829926H9.92889Z" fill="#F4DE9C" stroke="#5E5E5A" stroke-width="0.15" stroke-linecap="round" stroke-linejoin="round"/>
</svg>
