<svg width="12" height="12" viewBox="0 0 12 12" fill="none" xmlns="http://www.w3.org/2000/svg">
<path d="M8.15994 0.889648C7.89994 1.17965 7.59994 1.43965 7.26994 1.65965C5.67994 2.73965 3.99994 2.62965 2.23994 1.36965C2.07994 1.25965 1.93994 1.13965 1.79994 0.999649C0.79994 4.16965 0.0399417 7.16965 0.109942 9.62965C0.119942 10.1296 0.229942 10.6297 0.449942 11.0797C0.749942 11.6697 1.06994 11.7596 1.41994 11.2796C1.57994 11.0496 1.68994 10.7796 1.73994 10.4996L2.57994 6.55965C2.77994 5.64965 3.30994 4.81965 4.10994 4.33965C4.62994 4.02965 5.16994 3.90965 5.71994 3.99965C6.36994 4.10965 6.92994 4.50965 7.29994 5.04965C8.07994 6.14965 9.75994 9.34965 9.75994 9.34965C10.5399 10.4696 10.9999 10.4096 11.0999 9.05965C11.1499 7.37965 9.58994 3.69965 8.11994 0.889648H8.15994Z" fill="#F4DE9C" stroke="#5E5E5A" stroke-width="0.15" stroke-linecap="round" stroke-linejoin="round"/>
</svg>
