<svg width="13" height="12" viewBox="0 0 13 12" fill="none" xmlns="http://www.w3.org/2000/svg">
<path d="M9.68188 1.12996C7.31188 2.20996 5.04188 2.10996 2.84188 0.91996C2.81188 0.89996 2.79188 0.879965 2.76188 0.869965C1.05188 3.46996 0.171875 6.90996 0.171875 10.52C0.231875 11.61 0.571875 11.85 1.13188 11.38C1.47188 11.1 1.69188 10.69 1.78188 10.26C2.33188 7.82996 3.10187 5.79997 4.24187 4.40997C5.57187 3.06997 6.71187 3.13996 7.71187 4.18996C8.99187 5.34996 9.66188 7.20996 10.0119 9.41996C10.0619 9.74996 10.1719 10.08 10.3619 10.36C10.7419 10.93 11.1319 10.97 11.5319 10.43C11.7319 10.16 11.8419 9.83996 11.8919 9.50996C12.3019 6.42996 11.7619 3.49996 10.3119 0.709961C10.1319 0.879961 9.92187 1.01996 9.69187 1.12996H9.68188Z" fill="#F4DE9C" stroke="#5E5E5A" stroke-width="0.15" stroke-linecap="round" stroke-linejoin="round"/>
</svg>
