<svg width="10" height="28" viewBox="0 0 10 28" fill="none" xmlns="http://www.w3.org/2000/svg">
<mask id="mask0_254_20547" style="mask-type:luminance" maskUnits="userSpaceOnUse" x="0" y="0" width="10" height="21">
<path d="M9.3858 20.3269C9.1358 17.7769 8.56578 15.1769 8.32578 12.5969C8.08578 10.0169 7.11579 7.9369 6.55579 4.0169C5.99579 0.106899 4.63579 -0.0731004 3.80579 1.9469C2.97579 3.9669 1.76579 9.4169 2.02579 12.4169C2.29579 15.4169 1.44578 18.8969 0.925781 20.3269H9.37579H9.3858Z" fill="white"/>
</mask>
<g mask="url(#mask0_254_20547)">
<path opacity="0.95" d="M-1.14453 19.9665H10.6855C10.6455 18.0865 10.5955 5.20652 10.5555 3.31652C9.67545 2.87652 8.33546 2.39652 6.75546 2.52652C5.26546 2.65652 4.65544 3.24652 3.23544 3.42652C2.23544 3.55652 0.765469 3.48652 -1.14453 2.52652C-1.14453 4.66652 -1.14453 17.8165 -1.14453 19.9565V19.9665Z" fill="#C7B39A"/>
</g>
</svg>
