<svg width="10" height="32" viewBox="0 0 10 32" fill="none" xmlns="http://www.w3.org/2000/svg">
<mask id="mask0_254_20531" style="mask-type:luminance" maskUnits="userSpaceOnUse" x="1" y="0" width="8" height="22">
<path d="M7.34796 8.85658C6.57796 6.50658 5.55797 4.56657 5.25797 2.14657C4.95797 -0.273426 3.95795 -0.233425 3.42795 1.09657C2.89795 2.42657 2.37796 8.30657 2.21796 12.1266C2.05796 15.9466 2.33797 19.5466 1.66797 21.8566H8.35797C7.44797 18.5766 8.12796 11.2066 7.34796 8.85658Z" fill="white"/>
</mask>
<g mask="url(#mask0_254_20531)">
<path opacity="0.95" d="M-0.960938 21.8565H10.869C10.779 20.3465 10.6991 4.84654 10.6091 3.33654C9.53907 2.88654 8.02906 2.45654 6.28906 2.67654C5.15906 2.81654 4.67906 3.14654 3.53906 3.30654C2.46906 3.45654 0.959062 3.42654 -0.960938 2.67654C-0.960938 4.40654 -0.960938 20.1265 -0.960938 21.8565Z" fill="#C7B39A"/>
</g>
</svg>
