<svg width="11" height="28" viewBox="0 0 11 28" fill="none" xmlns="http://www.w3.org/2000/svg">
<mask id="mask0_254_20507" style="mask-type:luminance" maskUnits="userSpaceOnUse" x="6" y="0" width="4" height="19">
<path d="M6.48479 5.12652C6.28479 2.31652 6.09478 0.186523 6.57478 0.186523C8.25478 0.186523 9.23478 6.30652 9.29478 7.02652C9.40478 8.45652 9.4248 10.2965 9.4648 11.5565C9.5948 15.4265 9.85481 18.1365 9.85481 18.1365C8.51481 15.0565 7.97479 12.4765 7.73479 10.6965C7.62479 9.90652 7.14479 7.63652 6.48479 5.11652V5.12652Z" fill="white"/>
</mask>
<g mask="url(#mask0_254_20507)">
<path opacity="0.85" d="M-0.84375 18.8467H10.9862C10.9762 17.3567 10.9563 3.87675 10.9463 2.38675C9.59626 1.74675 8.16624 1.39675 6.67624 1.58675C5.32624 1.76675 4.77624 2.27675 3.42624 2.45675C2.17624 2.61675 0.75625 2.42675 -0.84375 1.66675C-0.84375 3.39675 -0.84375 17.1167 -0.84375 18.8467Z" fill="#C7B39A"/>
</g>
<mask id="mask1_254_20507" style="mask-type:luminance" maskUnits="userSpaceOnUse" x="1" y="0" width="9" height="19">
<path d="M9.85565 18.1465L1.26562 18.0365C1.26562 18.0365 3.25564 10.0765 3.40564 1.82652C3.40564 1.43652 3.72564 0.186523 4.31564 0.186523C5.01564 0.186523 5.36564 1.20652 5.49564 1.62652C6.62564 5.23652 7.57563 9.55652 7.73563 10.7065C7.97563 12.4865 8.51565 15.0665 9.85565 18.1465Z" fill="white"/>
</mask>
<g mask="url(#mask1_254_20507)">
<path opacity="0.95" d="M-0.84375 18.8467H10.9862C10.9762 17.3567 10.9563 3.87675 10.9463 2.38675C9.59626 1.74675 8.16624 1.39675 6.67624 1.58675C5.32624 1.76675 4.77624 2.27675 3.42624 2.45675C2.17624 2.61675 0.75625 2.42675 -0.84375 1.66675C-0.84375 3.39675 -0.84375 17.1167 -0.84375 18.8467Z" fill="#C7B39A"/>
</g>
</svg>
