<svg width="10" height="27" viewBox="0 0 10 27" fill="none" xmlns="http://www.w3.org/2000/svg">
<mask id="mask0_254_20496" style="mask-type:luminance" maskUnits="userSpaceOnUse" x="1" y="0" width="9" height="19">
<path d="M9.12547 18.1463C9.12547 16.0163 8.55546 12.0863 8.14546 9.45627C7.73546 6.82627 6.18546 6.09627 6.47546 3.41627C6.76546 0.72627 5.54547 0.19627 4.48547 2.17627C3.42547 4.15627 2.77547 6.79627 3.05547 9.72627C3.33547 12.6563 2.74547 14.3763 1.10547 18.1563H9.11546L9.12547 18.1463Z" fill="white"/>
</mask>
<g mask="url(#mask0_254_20496)">
<path opacity="0.95" d="M-0.40625 18.6761H11.4238C11.4238 17.1461 11.4337 4.61605 11.4437 3.08605C10.3437 2.66605 8.87375 2.29605 7.20375 2.49605C5.76375 2.66605 5.17374 3.12606 3.85374 3.18606C2.79374 3.23606 1.37374 3.02605 -0.356262 1.95605C-0.376262 3.86605 -0.38625 16.7661 -0.40625 18.6761Z" fill="#C7B39A"/>
</g>
</svg>
