<svg width="11" height="24" viewBox="0 0 11 24" fill="none" xmlns="http://www.w3.org/2000/svg">
<mask id="mask0_254_20442" style="mask-type:luminance" maskUnits="userSpaceOnUse" x="3" y="1" width="5" height="11">
<path d="M6.45595 2.31667C6.03595 0.35667 4.82594 0.986669 4.90594 2.65667C4.98594 4.32667 4.54594 7.69667 3.83594 11.0667L7.51595 11.1367C7.71595 9.90667 6.86594 4.26667 6.44594 2.30667L6.45595 2.31667Z" fill="white"/>
</mask>
<g mask="url(#mask0_254_20442)">
<path opacity="0.85" d="M-0.212646 16.9271H11.6173C11.5773 15.3771 11.5473 4.81713 11.5073 3.26713C10.3573 2.76713 9.09734 2.46713 7.75734 2.52713C6.06734 2.60713 5.32735 3.20713 3.57735 3.32713C2.43735 3.40713 1.16734 3.25713 -0.222656 2.74713C-0.222656 4.47713 -0.222656 15.1971 -0.222656 16.9271H-0.212646Z" fill="#C7B39A"/>
</g>
<mask id="mask1_254_20442" style="mask-type:luminance" maskUnits="userSpaceOnUse" x="0" y="0" width="11" height="17">
<path d="M10.3269 16.5565C9.69687 12.9765 10.2669 8.04653 9.83687 6.20653C9.40687 4.36653 8.82688 1.23653 7.65688 0.876527C6.49688 0.516527 6.81687 3.57653 7.39687 6.11653C7.98687 8.65653 7.36687 10.5165 5.27687 10.8565C3.19687 11.1965 4.75688 5.88653 4.51688 2.74653C4.27688 -0.393473 2.51687 0.426527 2.68687 2.40653C2.86687 4.38653 0.876868 8.70653 0.976868 9.84653C1.07687 10.9965 1.67687 13.8065 0.796875 16.5465H10.3069L10.3269 16.5565Z" fill="white"/>
</mask>
<g mask="url(#mask1_254_20442)">
<path opacity="0.85" d="M-0.212646 16.9261H11.6173C11.5773 15.3761 11.5473 4.81615 11.5073 3.26615C10.3573 2.76615 9.09734 2.46615 7.75734 2.52615C6.06734 2.60615 5.32735 3.20615 3.57735 3.32615C2.43735 3.40615 1.16734 3.25615 -0.222656 2.74615C-0.222656 4.47615 -0.222656 15.1961 -0.222656 16.9261H-0.212646Z" fill="#C7B39A"/>
</g>
</svg>
