<svg width="9" height="27" viewBox="0 0 9 27" fill="none" xmlns="http://www.w3.org/2000/svg">
<mask id="mask0_254_20262" style="mask-type:luminance" maskUnits="userSpaceOnUse" x="0" y="0" width="9" height="20">
<path d="M0.554688 19.4565C0.624688 15.7965 1.50468 11.5665 2.04468 9.70655C2.58468 7.84655 2.96468 4.56654 4.29468 1.78654C5.62468 -0.993455 6.28469 1.51655 6.15469 2.71655C6.02469 3.91655 6.7647 8.71654 7.2247 10.6665C7.6847 12.6165 7.3347 16.0765 8.0047 19.4565H0.554688Z" fill="white"/>
</mask>
<g mask="url(#mask0_254_20262)">
<path opacity="0.95" d="M10.0761 19.7966H-1.75391C-1.72391 17.9566 -1.69391 6.10655 -1.66391 4.26655C0.28609 3.30655 1.78608 3.24655 2.79608 3.35655C4.17608 3.51655 4.7761 4.03655 6.2261 4.14655C7.8461 4.26655 9.19608 3.78655 10.0761 3.35655V19.7866V19.7966Z" fill="#C7B39A"/>
</g>
<mask id="mask1_254_20262" style="mask-type:luminance" maskUnits="userSpaceOnUse" x="0" y="0" width="9" height="20">
<path d="M0.554688 19.4565C0.624688 15.7965 1.50468 11.5665 2.04468 9.70655C2.58468 7.84655 2.96468 4.56654 4.29468 1.78654C5.62468 -0.993455 6.28469 1.51655 6.15469 2.71655C6.02469 3.91655 6.7647 8.71654 7.2247 10.6665C7.6847 12.6165 7.3347 16.0765 8.0047 19.4565H0.554688Z" fill="white"/>
</mask>
<g mask="url(#mask1_254_20262)">
<path opacity="0.95" d="M10.0761 19.7966H-1.75391C-1.72391 17.9566 -1.69391 6.10655 -1.66391 4.26655C0.28609 3.30655 1.78608 3.24655 2.79608 3.35655C4.17608 3.51655 4.7761 4.03655 6.2261 4.14655C7.8461 4.26655 9.19608 3.78655 10.0761 3.35655V19.7866V19.7966Z" fill="#C7B39A"/>
</g>
</svg>
