<svg width="10" height="32" viewBox="0 0 10 32" fill="none" xmlns="http://www.w3.org/2000/svg">
<mask id="mask0_254_20247" style="mask-type:luminance" maskUnits="userSpaceOnUse" x="1" y="0" width="8" height="22">
<path d="M2.71313 8.85658C3.48313 6.50658 4.50313 4.56657 4.80313 2.14657C5.10313 -0.273426 6.10315 -0.233425 6.63315 1.09657C7.16315 2.42657 7.68314 8.30657 7.84314 12.1266C8.00314 15.9466 7.72313 19.5466 8.39313 21.8566H1.70312C2.61313 18.5766 1.93313 11.2066 2.71313 8.85658Z" fill="white"/>
</mask>
<g mask="url(#mask0_254_20247)">
<path opacity="0.95" d="M11.0214 21.8565H-0.808594C-0.718594 20.3465 -0.638615 4.84654 -0.548615 3.33654C0.521386 2.88654 2.03139 2.45654 3.77139 2.67654C4.90139 2.81654 5.38139 3.14654 6.52139 3.30654C7.59139 3.45654 9.10139 3.42654 11.0214 2.67654V21.8565Z" fill="#C7B39A"/>
</g>
<mask id="mask1_254_20247" style="mask-type:luminance" maskUnits="userSpaceOnUse" x="1" y="0" width="8" height="22">
<path d="M2.71313 8.85658C3.48313 6.50658 4.50313 4.56657 4.80313 2.14657C5.10313 -0.273426 6.10315 -0.233425 6.63315 1.09657C7.16315 2.42657 7.68314 8.30657 7.84314 12.1266C8.00314 15.9466 7.72313 19.5466 8.39313 21.8566H1.70312C2.61313 18.5766 1.93313 11.2066 2.71313 8.85658Z" fill="white"/>
</mask>
<g mask="url(#mask1_254_20247)">
<path opacity="0.95" d="M11.0214 21.8565H-0.808594C-0.718594 20.3465 -0.638615 4.84654 -0.548615 3.33654C0.521386 2.88654 2.03139 2.45654 3.77139 2.67654C4.90139 2.81654 5.38139 3.14654 6.52139 3.30654C7.59139 3.45654 9.10139 3.42654 11.0214 2.67654V21.8565Z" fill="#C7B39A"/>
</g>
</svg>
