<svg width="11" height="28" viewBox="0 0 11 28" fill="none" xmlns="http://www.w3.org/2000/svg">
<mask id="mask0_254_20200" style="mask-type:luminance" maskUnits="userSpaceOnUse" x="1" y="0" width="4" height="19">
<path d="M4.56531 5.12652C4.76531 2.31652 4.95531 0.186523 4.47531 0.186523C2.79531 0.186523 1.81531 6.30652 1.75531 7.02652C1.64531 8.45652 1.6253 10.2965 1.5853 11.5565C1.4553 15.4265 1.19531 18.1365 1.19531 18.1365C2.53531 15.0565 3.07531 12.4765 3.31531 10.6965C3.42531 9.90652 3.90531 7.63652 4.56531 5.11652V5.12652Z" fill="white"/>
</mask>
<g mask="url(#mask0_254_20200)">
<path opacity="0.85" d="M11.9042 18.8467H0.0742188C0.0842187 17.3567 0.104227 3.87675 0.114227 2.38675C1.46423 1.74675 2.89425 1.39675 4.38425 1.58675C5.73425 1.76675 6.28425 2.27675 7.63425 2.45675C8.88425 2.61675 10.3042 2.42675 11.9042 1.66675V18.8467Z" fill="#C7B39A"/>
</g>
<mask id="mask1_254_20200" style="mask-type:luminance" maskUnits="userSpaceOnUse" x="1" y="0" width="9" height="19">
<path d="M1.20312 18.1465L9.79312 18.0365C9.79312 18.0365 7.80314 10.0765 7.65314 1.82652C7.65314 1.43652 7.33313 0.186523 6.74313 0.186523C6.04313 0.186523 5.69314 1.20652 5.56314 1.62652C4.43314 5.23652 3.48312 9.55652 3.32312 10.7065C3.08312 12.4865 2.54313 15.0665 1.20312 18.1465Z" fill="white"/>
</mask>
<g mask="url(#mask1_254_20200)">
<path opacity="0.95" d="M11.9042 18.8467H0.0742188C0.0842187 17.3567 0.104227 3.87675 0.114227 2.38675C1.46423 1.74675 2.89425 1.39675 4.38425 1.58675C5.73425 1.76675 6.28425 2.27675 7.63425 2.45675C8.88425 2.61675 10.3042 2.42675 11.9042 1.66675V18.8467Z" fill="#C7B39A"/>
</g>
<mask id="mask2_254_20200" style="mask-type:luminance" maskUnits="userSpaceOnUse" x="1" y="0" width="4" height="19">
<path d="M4.56531 5.12652C4.76531 2.31652 4.95531 0.186523 4.47531 0.186523C2.79531 0.186523 1.81531 6.30652 1.75531 7.02652C1.64531 8.45652 1.6253 10.2965 1.5853 11.5565C1.4553 15.4265 1.19531 18.1365 1.19531 18.1365C2.53531 15.0565 3.07531 12.4765 3.31531 10.6965C3.42531 9.90652 3.90531 7.63652 4.56531 5.11652V5.12652Z" fill="white"/>
</mask>
<g mask="url(#mask2_254_20200)">
<path opacity="0.85" d="M11.9042 18.8467H0.0742188C0.0842187 17.3567 0.104227 3.87675 0.114227 2.38675C1.46423 1.74675 2.89425 1.39675 4.38425 1.58675C5.73425 1.76675 6.28425 2.27675 7.63425 2.45675C8.88425 2.61675 10.3042 2.42675 11.9042 1.66675V18.8467Z" fill="#C7B39A"/>
</g>
<mask id="mask3_254_20200" style="mask-type:luminance" maskUnits="userSpaceOnUse" x="1" y="0" width="9" height="19">
<path d="M1.20312 18.1465L9.79312 18.0365C9.79312 18.0365 7.80314 10.0765 7.65314 1.82652C7.65314 1.43652 7.33313 0.186523 6.74313 0.186523C6.04313 0.186523 5.69314 1.20652 5.56314 1.62652C4.43314 5.23652 3.48312 9.55652 3.32312 10.7065C3.08312 12.4865 2.54313 15.0665 1.20312 18.1465Z" fill="white"/>
</mask>
<g mask="url(#mask3_254_20200)">
<path opacity="0.95" d="M11.9042 18.8467H0.0742188C0.0842187 17.3567 0.104227 3.87675 0.114227 2.38675C1.46423 1.74675 2.89425 1.39675 4.38425 1.58675C5.73425 1.76675 6.28425 2.27675 7.63425 2.45675C8.88425 2.61675 10.3042 2.42675 11.9042 1.66675V18.8467Z" fill="#C7B39A"/>
</g>
</svg>
