<svg width="10" height="27" viewBox="0 0 10 27" fill="none" xmlns="http://www.w3.org/2000/svg">
<mask id="mask0_254_20179" style="mask-type:luminance" maskUnits="userSpaceOnUse" x="0" y="0" width="9" height="19">
<path d="M0.925781 18.1463C0.925781 16.0163 1.49579 12.0863 1.90579 9.45627C2.31579 6.82627 3.86578 6.09627 3.57578 3.41627C3.28578 0.72627 4.5058 0.19627 5.5658 2.17627C6.6258 4.15627 7.27579 6.79627 6.99579 9.72627C6.71579 12.6563 7.3058 14.3763 8.9458 18.1563H0.935791L0.925781 18.1463Z" fill="white"/>
</mask>
<g mask="url(#mask0_254_20179)">
<path opacity="0.95" d="M10.4672 18.6761H-1.36279C-1.36279 17.1461 -1.37281 4.61605 -1.38281 3.08605C-0.282812 2.66605 1.18721 2.29605 2.85721 2.49605C4.29721 2.66605 4.88718 3.12606 6.20718 3.18606C7.26718 3.23606 8.68721 3.02605 10.4172 1.95605C10.4372 3.86605 10.4472 16.7661 10.4672 18.6761Z" fill="#C7B39A"/>
</g>
<mask id="mask1_254_20179" style="mask-type:luminance" maskUnits="userSpaceOnUse" x="0" y="0" width="9" height="19">
<path d="M0.925781 18.1463C0.925781 16.0163 1.49579 12.0863 1.90579 9.45627C2.31579 6.82627 3.86578 6.09627 3.57578 3.41627C3.28578 0.72627 4.5058 0.19627 5.5658 2.17627C6.6258 4.15627 7.27579 6.79627 6.99579 9.72627C6.71579 12.6563 7.3058 14.3763 8.9458 18.1563H0.935791L0.925781 18.1463Z" fill="white"/>
</mask>
<g mask="url(#mask1_254_20179)">
<path opacity="0.95" d="M10.4672 18.6761H-1.36279C-1.36279 17.1461 -1.37281 4.61605 -1.38281 3.08605C-0.282812 2.66605 1.18721 2.29605 2.85721 2.49605C4.29721 2.66605 4.88718 3.12606 6.20718 3.18606C7.26718 3.23606 8.68721 3.02605 10.4172 1.95605C10.4372 3.86605 10.4472 16.7661 10.4672 18.6761Z" fill="#C7B39A"/>
</g>
</svg>
