<svg width="8" height="24" viewBox="0 0 8 24" fill="none" xmlns="http://www.w3.org/2000/svg">
<mask id="mask0_254_20359" style="mask-type:luminance" maskUnits="userSpaceOnUse" x="0" y="8" width="8" height="16">
<path d="M7.31155 8.61594C7.02155 10.0859 5.98154 15.2259 5.20154 20.2059C4.83154 22.5859 4.05154 24.5759 3.33154 22.0659C2.61154 19.5559 2.16155 16.0959 1.93155 13.4459C1.70155 10.7959 0.961562 9.27594 0.851562 8.58594L7.31155 8.61594Z" fill="white"/>
</mask>
<g mask="url(#mask0_254_20359)">
<path opacity="0.95" d="M10.2934 21.2157C9.14343 20.8757 7.46345 20.5657 5.56345 20.9557C4.54345 21.1657 4.16344 21.4357 3.30344 21.5757C2.12344 21.7757 0.403435 21.6857 -1.91656 20.3257C-1.93656 18.3357 -1.95656 8.3357 -1.97656 6.3457H10.2934V21.2057V21.2157Z" fill="#C7B39A"/>
</g>
</svg>
