<svg width="9" height="25" viewBox="0 0 9 25" fill="none" xmlns="http://www.w3.org/2000/svg">
<mask id="mask0_254_20351" style="mask-type:luminance" maskUnits="userSpaceOnUse" x="0" y="8" width="8" height="17">
<path d="M7.93188 8.06641C7.74188 9.85641 6.08189 14.7064 5.50189 21.3064C5.26189 23.9964 4.21189 26.2164 3.40189 23.3964C2.59189 20.5764 2.08188 16.6964 1.83188 13.7164C1.58188 10.7364 0.681875 8.97641 0.421875 8.06641H7.93188Z" fill="white"/>
</mask>
<g mask="url(#mask0_254_20351)">
<path opacity="0.95" d="M10.5 22.6364C9.2 22.3664 7.57998 22.2164 5.78998 22.5364C4.57998 22.7564 4.08999 23.0364 3.01999 23.1764C1.78999 23.3264 0.2 23.2264 -1.75 22.3664C-1.75 20.2664 -1.75 9.16641 -1.75 7.06641H10.52C10.52 9.25641 10.51 20.4464 10.5 22.6364Z" fill="#C7B39A"/>
</g>
</svg>
