<svg width="9" height="31" viewBox="0 0 9 31" fill="none" xmlns="http://www.w3.org/2000/svg">
<mask id="mask0_254_20340" style="mask-type:luminance" maskUnits="userSpaceOnUse" x="0" y="7" width="9" height="24">
<path d="M0.662354 7.72656L8.13235 7.78656C7.33235 9.78656 7.26235 14.6266 7.22235 18.6566C7.19235 22.5166 6.37235 24.9466 5.34235 28.0366C4.31235 31.1266 3.13234 30.3066 3.12234 27.7266C3.10234 25.1466 2.40233 23.0366 1.45233 19.5166C1.02233 17.9266 0.952341 16.5966 0.962341 13.5366C0.972341 10.4766 0.782344 8.47656 0.652344 7.72656H0.662354Z" fill="white"/>
</mask>
<g mask="url(#mask0_254_20340)">
<path opacity="0.95" d="M10.7231 27.6063C8.78314 27.1963 7.22315 27.1863 6.13315 27.2663C4.61315 27.3763 3.88312 27.6563 2.26312 27.7063C0.653123 27.7563 -0.666865 27.5463 -1.53687 27.3563C-1.53687 24.8063 -1.53688 9.24629 -1.54688 6.69629H10.7231V27.6063Z" fill="#C7B39A"/>
</g>
</svg>
