<svg width="11" height="24" viewBox="0 0 11 24" fill="none" xmlns="http://www.w3.org/2000/svg">
<mask id="mask0_254_20318" style="mask-type:luminance" maskUnits="userSpaceOnUse" x="2" y="8" width="9" height="16">
<path d="M10.1625 8.06641C9.61251 10.7464 9.19248 13.0264 8.82248 15.0964C8.50248 16.8764 7.2025 19.4264 7.6825 20.8864C8.5425 23.5564 8.25251 24.8964 6.10251 22.7464C4.03251 20.6664 3.86249 17.0064 3.77249 13.9064C3.68249 10.8064 2.8025 9.48641 2.0625 8.06641H10.1625Z" fill="white"/>
</mask>
<g mask="url(#mask0_254_20318)">
<path opacity="0.95" d="M11.8037 21.4561C10.8837 21.1661 9.51374 20.8561 7.89374 20.9961C6.66374 21.0961 6.03373 21.3961 5.04373 21.5961C3.80373 21.8461 1.99375 21.9261 -0.40625 21.1461V6.28613H11.8637C11.8437 8.67613 11.8137 19.0661 11.7937 21.4561H11.8037Z" fill="#C7B39A"/>
</g>
</svg>
