<svg width="14" height="24" viewBox="0 0 14 24" fill="none" xmlns="http://www.w3.org/2000/svg">
<mask id="mask0_254_20310" style="mask-type:luminance" maskUnits="userSpaceOnUse" x="1" y="8" width="12" height="16">
<path d="M1.52354 8.12598L12.9736 8.42598C12.4536 9.83598 12.4336 10.456 12.3136 11.736C12.1936 13.016 12.1435 15.666 12.3435 17.016C12.5435 18.356 13.0635 22.506 12.3935 23.096C11.7235 23.696 10.8235 22.486 10.2435 20.976C9.66354 19.466 8.96355 17.906 8.68355 15.486C8.40355 13.066 7.78353 13.026 7.29353 13.626C6.80353 14.226 6.34356 17.676 6.13356 18.976C5.92356 20.276 7.20354 23.746 5.92354 23.466C4.64354 23.186 3.43353 20.806 2.82353 19.466C2.21353 18.126 1.32355 16.146 1.56355 14.026C1.79355 11.906 1.93355 9.17598 1.53355 8.13598L1.52354 8.12598Z" fill="white"/>
</mask>
<g mask="url(#mask0_254_20310)">
<path opacity="0.95" d="M13.4926 21.4364C12.0226 20.7964 10.8127 20.6464 10.0027 20.6164C7.74266 20.5364 6.64265 21.3564 4.12265 21.3064C2.86265 21.2864 1.85266 21.0564 1.22266 20.8864V6.02637H13.4926C13.4926 8.49637 13.4926 18.9664 13.4926 21.4364Z" fill="#C7B39A"/>
</g>
</svg>
