<svg width="13" height="23" viewBox="0 0 13 23" fill="none" xmlns="http://www.w3.org/2000/svg">
<mask id="mask0_254_20292" style="mask-type:luminance" maskUnits="userSpaceOnUse" x="0" y="6" width="12" height="17">
<path d="M7.6539 6.88597H11.7739C11.4239 7.61597 10.6439 10.106 10.6539 11.186C10.6539 12.266 11.5139 13.896 11.2539 15.506C10.9939 17.116 10.1739 21.646 9.33389 22.386C8.50389 23.136 7.85391 20.616 7.85391 18.066C7.85391 15.516 6.59391 12.646 6.00391 12.646C5.00391 12.646 4.69389 16.186 4.89389 16.886C5.09389 17.586 5.90391 23.136 4.78391 22.766C3.66391 22.406 1.95391 19.626 1.85391 17.666C1.76391 15.706 1.86389 13.186 1.73389 12.206C1.60389 11.226 0.903906 8.23598 0.503906 6.87598H7.6539V6.88597Z" fill="white"/>
</mask>
<g mask="url(#mask0_254_20292)">
<path opacity="0.95" d="M11.9323 20.5559C11.2523 20.2559 10.1723 19.8659 8.82233 19.7959C6.94233 19.6959 5.97235 20.2759 3.84235 20.5359C2.88235 20.6559 1.45234 20.7259 -0.347656 20.4659C-0.347656 18.0759 -0.347656 7.6859 -0.347656 5.2959H11.9223C11.9223 7.7159 11.9423 18.1459 11.9523 20.5659L11.9323 20.5559Z" fill="#C7B39A"/>
</g>
</svg>
