<svg width="12" height="21" viewBox="0 0 12 21" fill="none" xmlns="http://www.w3.org/2000/svg">
<mask id="mask0_254_20302" style="mask-type:luminance" maskUnits="userSpaceOnUse" x="1" y="6" width="11" height="15">
<path d="M1.35156 6.08594H10.6916C10.0116 7.20594 10.9115 8.46594 11.0715 9.85594C11.2315 11.2459 11.8615 10.7459 11.7415 13.8959C11.6215 17.0359 11.1116 17.8459 10.6616 19.0959C10.2116 20.3559 9.07156 21.1459 8.78156 19.3459C8.49156 17.5459 9.31154 13.6159 8.58154 12.1659C7.85154 10.7159 7.19153 10.2359 6.82153 11.2459C6.45153 12.2559 5.76155 12.7759 5.93155 14.0859C6.10155 15.3959 7.19154 17.6659 7.45154 18.9259C7.71154 20.1859 7.38153 21.1159 5.54153 19.1359C3.70153 17.1559 2.31153 15.8559 2.54153 13.3259C2.77153 10.7959 2.49154 9.79594 2.23154 8.74594C1.97154 7.69594 1.63156 7.02594 1.35156 6.09594V6.08594Z" fill="white"/>
</mask>
<g mask="url(#mask0_254_20302)">
<path opacity="0.95" d="M12.3508 18.6859C11.5908 18.3859 10.4408 18.0459 9.05078 18.0959C7.12078 18.1659 6.32079 18.9359 4.59079 19.0159C3.64079 19.0659 2.26078 18.9059 0.550781 17.9259C0.550781 16.3659 0.550781 6.81586 0.550781 5.25586H12.3808C12.3708 7.06586 12.3608 16.8759 12.3508 18.6959V18.6859Z" fill="#C7B39A"/>
</g>
</svg>
