<svg width="8" height="24" viewBox="0 0 8 24" fill="none" xmlns="http://www.w3.org/2000/svg">
<mask id="mask0_254_20434" style="mask-type:luminance" maskUnits="userSpaceOnUse" x="0" y="8" width="8" height="16">
<path d="M0.804688 8.83665C1.09469 10.3066 2.1347 15.4466 2.9147 20.4266C3.2847 22.8066 4.0647 24.7966 4.7847 22.2866C5.5047 19.7766 5.95469 16.3166 6.18469 13.6666C6.41469 11.0166 7.15468 9.49664 7.26468 8.80664L0.804688 8.83665Z" fill="white"/>
</mask>
<g mask="url(#mask0_254_20434)">
<path opacity="0.95" d="M-2.16406 21.4364C-1.01406 21.0964 0.665949 20.7864 2.56595 21.1764C3.58595 21.3864 3.96593 21.6564 4.82593 21.7964C6.00593 21.9964 7.72593 21.9064 10.0459 20.5464C10.0659 18.5564 10.086 8.55641 10.106 6.56641H-2.16406V21.4264V21.4364Z" fill="#C7B39A"/>
</g>
</svg>
