<svg width="9" height="25" viewBox="0 0 9 25" fill="none" xmlns="http://www.w3.org/2000/svg">
<mask id="mask0_254_20426" style="mask-type:luminance" maskUnits="userSpaceOnUse" x="1" y="8" width="8" height="17">
<path d="M1.1875 8.28711C1.3775 10.0771 3.03749 14.9271 3.61749 21.5271C3.85749 24.2171 4.9075 26.4371 5.7175 23.6171C6.5275 20.7971 7.03751 16.9171 7.28751 13.9371C7.53751 10.9571 8.43751 9.19711 8.69751 8.28711H1.1875Z" fill="white"/>
</mask>
<g mask="url(#mask0_254_20426)">
<path opacity="0.95" d="M-1.38235 22.8669C-0.0823548 22.5969 1.53764 22.4469 3.32764 22.7669C4.53764 22.9869 5.02766 23.2669 6.09766 23.4069C7.32766 23.5569 8.91765 23.4569 10.8676 22.5969C10.8676 20.4969 10.8676 9.39687 10.8676 7.29688H-1.40234C-1.40234 9.48688 -1.39235 20.6769 -1.38235 22.8669Z" fill="#C7B39A"/>
</g>
</svg>
