<svg width="9" height="31" viewBox="0 0 9 31" fill="none" xmlns="http://www.w3.org/2000/svg">
<mask id="mask0_254_20415" style="mask-type:luminance" maskUnits="userSpaceOnUse" x="0" y="7" width="9" height="24">
<path d="M8.45438 7.94727L0.984375 8.00727C1.78438 10.0073 1.85438 14.8473 1.89438 18.8773C1.92438 22.7373 2.74438 25.1673 3.77438 28.2573C4.80438 31.3473 5.98438 30.5273 5.99438 27.9473C6.01438 25.3673 6.7144 23.2573 7.6644 19.7373C8.0944 18.1473 8.16439 16.8173 8.15439 13.7573C8.14439 10.6973 8.33439 8.69727 8.46439 7.94727H8.45438Z" fill="white"/>
</mask>
<g mask="url(#mask0_254_20415)">
<path opacity="0.95" d="M-1.59375 27.8377C0.34625 27.4277 1.90625 27.4177 2.99625 27.4977C4.51625 27.6077 5.24624 27.8877 6.86624 27.9377C8.47624 27.9877 9.79626 27.7777 10.6663 27.5877C10.6663 25.0377 10.6662 9.47773 10.6762 6.92773H-1.59375V27.8377Z" fill="#C7B39A"/>
</g>
</svg>
