<svg width="9" height="26" viewBox="0 0 9 26" fill="none" xmlns="http://www.w3.org/2000/svg">
<mask id="mask0_254_20404" style="mask-type:luminance" maskUnits="userSpaceOnUse" x="0" y="8" width="9" height="18">
<path d="M0.814697 8.08715C1.3647 10.7772 1.8047 12.7971 2.3447 14.8271C2.8047 16.5771 3.4447 18.2471 3.2247 21.4171C3.0347 24.2171 3.40469 26.5471 4.80469 23.8471C6.20469 21.1471 6.86468 16.8271 6.95468 13.7171C7.04468 10.6171 7.79469 9.01715 8.05469 8.07715H0.804688L0.814697 8.08715Z" fill="white"/>
</mask>
<g mask="url(#mask0_254_20404)">
<path opacity="0.95" d="M-1.47656 22.6473C-0.436563 22.3473 1.12345 22.0373 2.97345 22.2473C4.22345 22.3873 4.74345 22.6773 5.85345 22.7873C6.99345 22.8973 8.64345 22.8173 10.7534 21.8773C10.7834 19.7373 10.8034 8.58727 10.8334 6.44727H-1.43655C-1.44655 8.84727 -1.46656 20.2473 -1.47656 22.6573V22.6473Z" fill="#C7B39A"/>
</g>
</svg>
