<svg width="11" height="25" viewBox="0 0 11 25" fill="none" xmlns="http://www.w3.org/2000/svg">
<mask id="mask0_254_20393" style="mask-type:luminance" maskUnits="userSpaceOnUse" x="0" y="8" width="10" height="17">
<path d="M0.964844 8.29688C1.51484 10.9769 1.93484 13.2569 2.30484 15.3269C2.62484 17.1069 3.92484 19.6569 3.44484 21.1169C2.58484 23.7869 2.87484 25.1269 5.02484 22.9769C7.09484 20.8969 7.26484 17.2369 7.35484 14.1369C7.44484 11.0369 8.32485 9.71687 9.06485 8.29688H0.964844Z" fill="white"/>
</mask>
<g mask="url(#mask0_254_20393)">
<path opacity="0.95" d="M-0.674377 21.6866C0.245623 21.3966 1.61563 21.0866 3.23563 21.2266C4.46563 21.3266 5.09562 21.6266 6.08562 21.8266C7.32562 22.0766 9.13563 22.1566 11.5356 21.3766C11.5356 19.0866 11.5356 8.8066 11.5356 6.5166H-0.734375C-0.714375 8.9066 -0.684383 19.2966 -0.664383 21.6866H-0.674377Z" fill="#C7B39A"/>
</g>
</svg>
