<svg width="14" height="24" viewBox="0 0 14 24" fill="none" xmlns="http://www.w3.org/2000/svg">
<mask id="mask0_254_20385" style="mask-type:luminance" maskUnits="userSpaceOnUse" x="1" y="8" width="12" height="16">
<path d="M12.6062 8.35742L1.15625 8.65742C1.67625 10.0674 1.69625 10.6874 1.81625 11.9674C1.93625 13.2474 1.98625 15.8974 1.78625 17.2474C1.58625 18.5874 1.06625 22.7374 1.73625 23.3274C2.40625 23.9274 3.30625 22.7174 3.88625 21.2074C4.46625 19.6974 5.16624 18.1374 5.44624 15.7174C5.72624 13.2974 6.34624 13.2574 6.83624 13.8574C7.32624 14.4574 7.78625 17.9074 7.99625 19.2074C8.20625 20.5074 6.92625 23.9774 8.20625 23.6974C9.48625 23.4174 10.6962 21.0374 11.3062 19.6974C11.9162 18.3574 12.8063 16.3774 12.5663 14.2574C12.3363 12.1374 12.1963 9.40742 12.5963 8.36742L12.6062 8.35742Z" fill="white"/>
</mask>
<g mask="url(#mask0_254_20385)">
<path opacity="0.95" d="M0.625 21.6678C2.095 21.0278 3.30499 20.8778 4.11499 20.8478C6.37499 20.7678 7.475 21.5878 9.995 21.5378C11.255 21.5178 12.265 21.2878 12.895 21.1178C12.895 18.8278 12.895 8.54781 12.895 6.25781H0.625C0.625 8.72781 0.625 19.1978 0.625 21.6678Z" fill="#C7B39A"/>
</g>
</svg>
