<svg width="12" height="23" viewBox="0 0 12 23" fill="none" xmlns="http://www.w3.org/2000/svg">
<mask id="mask0_254_20367" style="mask-type:luminance" maskUnits="userSpaceOnUse" x="0" y="7" width="12" height="17">
<path d="M4.47546 7.10668H0.355469C0.705469 7.83668 1.48546 10.3267 1.47546 11.4067C1.47546 12.4867 0.615473 14.1167 0.875473 15.7267C1.13547 17.3367 1.95547 21.8667 2.79547 22.6067C3.62547 23.3567 4.27547 20.8367 4.27547 18.2867C4.27547 15.7367 5.53547 12.8667 6.12547 12.8667C7.12547 12.8667 7.43547 16.4067 7.23547 17.1067C7.03547 17.8067 6.22547 23.3567 7.34547 22.9867C8.46547 22.6267 10.1755 19.8467 10.2755 17.8867C10.3655 15.9267 10.2655 13.4067 10.3955 12.4267C10.5255 11.4467 11.2255 8.45668 11.6255 7.09668H4.47546V7.10668Z" fill="white"/>
</mask>
<g mask="url(#mask0_254_20367)">
<path opacity="0.95" d="M0.184067 20.7766C0.864067 20.4766 1.94407 20.0866 3.29407 20.0166C5.17407 19.9166 6.14406 20.4966 8.27406 20.7566C9.23406 20.8766 10.6641 20.9466 12.4641 20.6866C12.4641 18.2966 12.4641 7.9066 12.4641 5.5166H0.194061C0.194061 7.9366 0.174062 18.3666 0.164062 20.7866L0.184067 20.7766Z" fill="#C7B39A"/>
</g>
</svg>
