<svg width="12" height="21" viewBox="0 0 12 21" fill="none" xmlns="http://www.w3.org/2000/svg">
<mask id="mask0_254_20377" style="mask-type:luminance" maskUnits="userSpaceOnUse" x="0" y="6" width="11" height="15">
<path d="M10.7762 6.30664H1.43619C2.11619 7.42664 1.21619 8.68664 1.05619 10.0766C0.896187 11.4666 0.266189 10.9666 0.386189 14.1166C0.506189 17.2566 1.01619 18.0666 1.46619 19.3166C1.91619 20.5766 3.0562 21.3666 3.3462 19.5666C3.6362 17.7666 2.81619 13.8366 3.54619 12.3866C4.27619 10.9366 4.93619 10.4566 5.30619 11.4666C5.67619 12.4766 6.36619 12.9966 6.19619 14.3066C6.02619 15.6166 4.9362 17.8866 4.6762 19.1466C4.4162 20.4066 4.74619 21.3366 6.58619 19.3566C8.42619 17.3766 9.81619 16.0766 9.58619 13.5466C9.35619 11.0166 9.63618 10.0166 9.89618 8.96664C10.1562 7.91664 10.4962 7.24664 10.7762 6.31664V6.30664Z" fill="white"/>
</mask>
<g mask="url(#mask0_254_20377)">
<path opacity="0.95" d="M-0.235626 18.9066C0.524374 18.6066 1.67438 18.2666 3.06438 18.3166C4.99438 18.3866 5.79437 19.1566 7.52437 19.2366C8.47437 19.2866 9.85438 19.1266 11.5644 18.1466C11.5644 16.5866 11.5644 7.03656 11.5644 5.47656H-0.265625C-0.255625 7.28656 -0.245626 17.0966 -0.235626 18.9166V18.9066Z" fill="#C7B39A"/>
</g>
</svg>
