<svg width="8" height="20" viewBox="0 0 8 20" fill="none" xmlns="http://www.w3.org/2000/svg">
<mask id="mask0_254_20766" style="mask-type:luminance" maskUnits="userSpaceOnUse" x="0" y="0" width="6" height="15">
<path d="M0.746094 14.1759C1.68609 10.8159 2.4261 6.97594 2.4061 1.86594C2.4061 1.39594 2.5661 0.925937 2.9061 0.585937C3.3161 0.185937 3.6561 0.375937 3.9061 1.29594C4.5261 6.55594 5.1561 9.79594 5.7961 13.7759V14.1759H0.746094Z" fill="white"/>
</mask>
<g mask="url(#mask0_254_20766)">
<path opacity="0.95" d="M5.86703 3.06617C5.48703 3.14617 4.91703 3.21617 4.24703 3.14617C3.43703 3.05617 3.15703 2.82617 2.66703 2.82617C2.14703 2.82617 1.41703 3.09617 0.527031 4.31617C0.507031 5.14617 0.477031 13.9862 0.457031 14.8162C2.27703 14.7662 4.10703 14.7262 5.92703 14.6762C5.90703 13.4662 5.87703 4.26617 5.85703 3.05617L5.86703 3.06617Z" fill="#C7B39A"/>
</g>
</svg>
