<svg width="7" height="19" viewBox="0 0 7 19" fill="none" xmlns="http://www.w3.org/2000/svg">
<mask id="mask0_254_20753" style="mask-type:luminance" maskUnits="userSpaceOnUse" x="1" y="0" width="5" height="14">
<path d="M1.59203 13.1359C2.47203 9.66594 2.65203 6.48594 2.64203 2.54594C2.64203 2.01594 2.80203 1.48594 3.13203 1.06594C3.56203 0.525942 3.90203 0.615943 4.16203 1.16594C4.33203 1.52594 4.33203 1.92594 4.36203 2.32594C4.78203 7.31594 4.95203 9.33594 5.07203 13.1359H1.58203H1.59203Z" fill="white"/>
</mask>
<g mask="url(#mask0_254_20753)">
<path opacity="0.95" d="M5.94125 2.59547C5.56125 2.67547 4.99125 2.74547 4.32125 2.67547C3.51125 2.58547 3.23125 2.35547 2.74125 2.35547C2.22125 2.35547 1.49125 2.62547 0.60125 3.84547C0.58125 4.67547 0.55125 13.5155 0.53125 14.3455C2.35125 14.2955 4.18125 14.2555 6.00125 14.2055C5.98125 12.9955 5.95125 3.79547 5.93125 2.58547L5.94125 2.59547Z" fill="#C7B39A"/>
</g>
</svg>
