<svg width="14" height="20" viewBox="0 0 14 20" fill="none" xmlns="http://www.w3.org/2000/svg">
<mask id="mask0_254_20777" style="mask-type:luminance" maskUnits="userSpaceOnUse" x="0" y="0" width="13" height="14">
<path d="M4.77297 13.7067C2.91297 10.5567 1.43297 6.57667 0.302966 2.46667C0.182966 2.00667 0.262966 1.49667 0.582966 1.14667C0.902966 0.786668 1.24297 0.836668 1.60297 1.44667C2.49297 4.22667 3.69297 6.64667 5.37297 8.48667C6.82297 9.75667 8.22297 9.92667 9.55297 8.96667C9.59297 8.93667 9.62297 8.90667 9.66297 8.87667C10.913 7.21667 11.063 4.72667 10.853 1.95667C10.823 1.52667 10.913 1.08667 11.183 0.746667C11.473 0.376667 11.773 0.396668 12.083 0.806668C12.253 1.04667 12.363 1.32667 12.413 1.61667C13.243 6.14667 13.163 10.2467 11.763 13.6867H4.77297V13.7067Z" fill="white"/>
</mask>
<g mask="url(#mask0_254_20777)">
<path opacity="0.95" d="M0.13375 2.79675C0.96375 2.92675 2.25375 3.07675 3.83375 3.04675C6.30375 2.99675 7.29375 2.54675 9.27375 2.61675C10.3138 2.64675 11.8138 2.83675 13.6438 3.55675C13.6438 5.09675 13.6438 13.6368 13.6438 15.1868H0.09375C0.10375 13.3868 0.12375 4.59675 0.13375 2.79675Z" fill="#C7B39A"/>
</g>
<mask id="mask1_254_20777" style="mask-type:luminance" maskUnits="userSpaceOnUse" x="5" y="0" width="5" height="10">
<path d="M5.37109 8.49622C6.01109 6.95622 6.08109 4.51622 5.95109 1.76622C5.93109 1.40622 6.02109 1.02622 6.25109 0.746216C6.58109 0.336216 6.93109 0.446215 7.30109 0.906215C7.43109 1.06622 7.49109 1.26622 7.50109 1.46622C7.60109 3.70622 8.38109 6.23622 9.42109 8.88622V9.04622C8.13109 9.91622 6.78109 9.71622 5.37109 8.49622Z" fill="white"/>
</mask>
<g mask="url(#mask1_254_20777)">
<path opacity="0.95" d="M0.200156 2.79578C1.03016 2.92578 2.31016 3.07578 3.88016 3.04578C6.33016 2.99578 7.32016 2.54577 9.29016 2.61577C10.3202 2.64577 11.8202 2.83577 13.6402 3.55577C13.6402 5.09577 13.6402 13.6358 13.6402 15.1858H0.160156C0.170156 13.3858 0.190156 4.59578 0.200156 2.79578Z" fill="#C7B39A"/>
</g>
</svg>
