<svg width="6" height="19" viewBox="0 0 6 19" fill="none" xmlns="http://www.w3.org/2000/svg">
<mask id="mask0_254_20622" style="mask-type:luminance" maskUnits="userSpaceOnUse" x="1" y="0" width="4" height="14">
<path d="M4.91359 13.1262C4.03359 9.65618 3.85359 6.47618 3.86359 2.53618C3.86359 2.00618 3.7036 1.47618 3.3736 1.05618C2.9436 0.516177 2.60359 0.606177 2.34359 1.15618C2.17359 1.51618 2.17359 1.91618 2.14359 2.31618C1.72359 7.30618 1.55359 9.32618 1.43359 13.1262H4.92359H4.91359Z" fill="white"/>
</mask>
<g mask="url(#mask0_254_20622)">
<path opacity="0.95" d="M0.563904 2.5857C0.943904 2.6657 1.51391 2.7357 2.18391 2.6657C2.99391 2.5757 3.27391 2.3457 3.76391 2.3457C4.28391 2.3457 5.01391 2.6157 5.90391 3.8357C5.92391 4.6657 5.95391 13.5057 5.97391 14.3357C4.15391 14.2857 2.32391 14.2457 0.503906 14.1957C0.523906 12.9857 0.553906 3.7857 0.573906 2.5757L0.563904 2.5857Z" fill="#C7B39A"/>
</g>
</svg>
