<svg width="14" height="20" viewBox="0 0 14 20" fill="none" xmlns="http://www.w3.org/2000/svg">
<mask id="mask0_254_20646" style="mask-type:luminance" maskUnits="userSpaceOnUse" x="0" y="0" width="14" height="14">
<path d="M8.73248 13.6969C10.5925 10.5469 12.0725 6.5669 13.2025 2.4569C13.3225 1.9969 13.2425 1.4869 12.9225 1.1369C12.6025 0.776902 12.2625 0.826902 11.9025 1.4369C11.0125 4.2169 9.81247 6.6369 8.13247 8.4769C6.68247 9.7469 5.28248 9.9169 3.95248 8.9569C3.91248 8.9269 3.88248 8.8969 3.84248 8.8669C2.59248 7.2069 2.44248 4.7169 2.65248 1.9469C2.68248 1.5169 2.59248 1.0769 2.32248 0.736902C2.03248 0.366902 1.73248 0.386902 1.42248 0.796902C1.25248 1.0369 1.14248 1.3169 1.09248 1.6069C0.262479 6.1369 0.342473 10.2369 1.74247 13.6769H8.73248V13.6969Z" fill="white"/>
</mask>
<g mask="url(#mask0_254_20646)">
<path opacity="0.95" d="M13.3733 2.79675C12.5433 2.92675 11.2533 3.07675 9.67329 3.04675C7.20329 2.99675 6.21329 2.54675 4.23329 2.61675C3.19329 2.64675 1.69328 2.83675 -0.136719 3.55675C-0.136719 5.09675 -0.136719 13.6368 -0.136719 15.1868H13.4233C13.4133 13.3868 13.3933 4.59675 13.3833 2.79675H13.3733Z" fill="#C7B39A"/>
</g>
<mask id="mask1_254_20646" style="mask-type:luminance" maskUnits="userSpaceOnUse" x="4" y="0" width="5" height="10">
<path d="M8.13203 8.48645C7.49203 6.94645 7.42203 4.50645 7.55203 1.75645C7.57203 1.39645 7.48203 1.01645 7.25203 0.73645C6.92203 0.32645 6.57204 0.43645 6.20204 0.89645C6.07204 1.05645 6.01203 1.25645 6.00203 1.45645C5.90203 3.69645 5.12203 6.22645 4.08203 8.87645V9.03645C5.37203 9.90645 6.72203 9.70645 8.13203 8.48645Z" fill="white"/>
</mask>
<g mask="url(#mask1_254_20646)">
<path opacity="0.95" d="M13.2916 2.79675C12.4616 2.92675 11.1816 3.07675 9.61156 3.04675C7.16156 2.99675 6.17157 2.54675 4.20157 2.61675C3.17157 2.64675 1.67156 2.83675 -0.148438 3.55675C-0.148438 5.09675 -0.148438 13.6368 -0.148438 15.1868H13.3416C13.3316 13.3868 13.3116 4.59675 13.3016 2.79675H13.2916Z" fill="#C7B39A"/>
</g>
</svg>
