<svg width="7" height="22" viewBox="0 0 7 22" fill="none" xmlns="http://www.w3.org/2000/svg">
<mask id="mask0_254_20565" style="mask-type:luminance" maskUnits="userSpaceOnUse" x="0" y="7" width="6" height="15">
<path d="M5.07703 7.92699C4.41703 12.177 4.03703 16.327 3.98703 20.367C3.98703 20.647 3.92703 20.937 3.78703 21.187C3.56703 21.577 3.27702 21.637 2.91702 21.367C2.57702 21.117 2.36703 20.737 2.28703 20.327C1.45703 16.397 1.05703 12.247 0.957031 7.91699H5.07703V7.92699Z" fill="white"/>
</mask>
<g mask="url(#mask0_254_20565)">
<path opacity="0.95" d="M6.14874 19.277C5.73874 19.197 5.10874 19.107 4.36874 19.187C3.47874 19.287 3.16875 19.537 2.63875 19.537C2.06875 19.537 1.26876 19.247 0.288757 17.907C0.268757 16.997 0.23875 8.07699 0.21875 7.16699C2.21875 7.21699 4.21875 7.26699 6.21875 7.31699C6.19875 8.63699 6.16874 17.957 6.14874 19.277Z" fill="#C7B39A"/>
</g>
</svg>
