<svg width="12" height="18" viewBox="0 0 12 18" fill="none" xmlns="http://www.w3.org/2000/svg">
<mask id="mask0_254_20597" style="mask-type:luminance" maskUnits="userSpaceOnUse" x="0" y="6" width="12" height="12">
<path d="M9.34805 6.8766C10.348 10.0466 11.1081 13.0466 11.0381 15.5066C11.0281 16.0066 10.918 16.5066 10.698 16.9566C10.398 17.5466 10.078 17.6366 9.72804 17.1566C9.56804 16.9266 9.45805 16.6566 9.40805 16.3766L8.56805 12.4366C8.36805 11.5266 7.83805 10.6966 7.03805 10.2166C6.51805 9.9066 5.97805 9.7866 5.42805 9.8766C4.77805 9.9866 4.21805 10.3866 3.84805 10.9266C3.06805 12.0266 1.38804 15.2266 1.38804 15.2266C0.608042 16.3466 0.148046 16.2866 0.048046 14.9366C-0.00195396 13.2566 1.55804 9.5766 3.02804 6.7666L9.37805 6.8766H9.34805Z" fill="white"/>
</mask>
<g mask="url(#mask0_254_20597)">
<path opacity="0.95" d="M11.627 15.527C10.867 15.277 9.64703 14.957 8.12703 14.937C6.17703 14.917 5.33703 15.427 3.65703 15.297C2.78703 15.227 1.49703 14.967 -0.0429688 14.027C-0.0329688 12.807 -0.0229755 5.59695 -0.00297546 4.37695H11.657C11.647 6.09695 11.637 13.807 11.627 15.527Z" fill="#C7B39A"/>
</g>
</svg>
