<svg width="7" height="22" viewBox="0 0 7 22" fill="none" xmlns="http://www.w3.org/2000/svg">
<mask id="mask0_254_20695" style="mask-type:luminance" maskUnits="userSpaceOnUse" x="1" y="8" width="5" height="14">
<path d="M1.54688 8.01683C2.20688 12.2668 2.58687 16.4168 2.63687 20.4568C2.63687 20.7368 2.69687 21.0268 2.83687 21.2768C3.05687 21.6668 3.34687 21.7268 3.70687 21.4568C4.04687 21.2068 4.25687 20.8268 4.33687 20.4168C5.16687 16.4868 5.56687 12.3368 5.66687 8.00684H1.54688V8.01683Z" fill="white"/>
</mask>
<g mask="url(#mask0_254_20695)">
<path opacity="0.95" d="M0.47625 19.3668C0.88625 19.2868 1.51625 19.1968 2.25625 19.2768C3.14625 19.3768 3.45625 19.6268 3.98625 19.6268C4.55625 19.6268 5.35625 19.3368 6.33625 17.9968C6.35625 17.0868 6.38625 8.16684 6.40625 7.25684C4.40625 7.30684 2.40625 7.35684 0.40625 7.40684C0.42625 8.72684 0.45625 18.0468 0.47625 19.3668Z" fill="#C7B39A"/>
</g>
</svg>
