<svg width="12" height="18" viewBox="0 0 12 18" fill="none" xmlns="http://www.w3.org/2000/svg">
<mask id="mask0_254_20727" style="mask-type:luminance" maskUnits="userSpaceOnUse" x="0" y="6" width="12" height="12">
<path d="M2.2765 6.96645C1.2765 10.1364 0.516504 13.1364 0.586504 15.5964C0.596504 16.0964 0.706502 16.5964 0.926502 17.0464C1.2265 17.6364 1.5465 17.7264 1.8965 17.2464C2.0565 17.0164 2.1665 16.7464 2.2165 16.4664L3.0565 12.5264C3.2565 11.6164 3.7865 10.7864 4.5865 10.3064C5.1065 9.99644 5.6465 9.87645 6.1965 9.96645C6.8465 10.0764 7.4065 10.4764 7.7765 11.0164C8.5565 12.1164 10.2365 15.3164 10.2365 15.3164C11.0165 16.4364 11.4765 16.3764 11.5765 15.0264C11.6265 13.3464 10.0665 9.66645 8.5965 6.85645L2.2465 6.96645H2.2765Z" fill="white"/>
</mask>
<g mask="url(#mask0_254_20727)">
<path opacity="0.95" d="M-0.0129681 15.6168C0.747032 15.3668 1.96703 15.0468 3.48703 15.0268C5.43703 15.0068 6.27703 15.5168 7.95703 15.3868C8.82703 15.3168 10.117 15.0568 11.657 14.1168C11.647 12.8968 11.637 5.6868 11.617 4.4668H-0.0429688C-0.0329688 6.1868 -0.0229681 13.8968 -0.0129681 15.6168Z" fill="#C7B39A"/>
</g>
</svg>
