<svg width="13" height="19" viewBox="0 0 13 19" fill="none" xmlns="http://www.w3.org/2000/svg">
<mask id="mask0_254_20685" style="mask-type:luminance" maskUnits="userSpaceOnUse" x="0" y="7" width="13" height="12">
<path d="M3.395 7.55687C1.565 10.1869 0.625 13.7569 0.625 17.4869C0.685 18.5769 1.025 18.8169 1.585 18.3469C1.925 18.0669 2.145 17.6569 2.235 17.2269C2.785 14.7969 3.555 12.7669 4.695 11.3769C6.025 10.0369 7.165 10.1069 8.165 11.1569C9.445 12.3169 10.115 14.1769 10.465 16.3869C10.515 16.7169 10.625 17.0469 10.815 17.3269C11.195 17.8969 11.585 17.9369 11.985 17.3969C12.185 17.1269 12.295 16.8069 12.345 16.4769C12.755 13.3969 12.215 10.4669 10.765 7.67687C10.745 7.63687 10.725 7.59688 10.695 7.54688H3.395V7.55687Z" fill="white"/>
</mask>
<g mask="url(#mask0_254_20685)">
<path opacity="0.95" d="M0.315156 16.7464C1.72516 16.1364 2.92516 15.9464 3.77516 15.8964C6.28516 15.7464 7.48516 16.6764 9.63516 16.2764C10.9352 16.0364 11.9152 15.4464 12.5452 14.9864C12.5652 13.7664 12.5752 6.53641 12.5952 5.31641H0.285156C0.295156 7.12641 0.305156 14.9364 0.325156 16.7564L0.315156 16.7464Z" fill="#C7B39A"/>
</g>
</svg>
