<svg width="21" height="28" viewBox="0 0 21 28" fill="none" xmlns="http://www.w3.org/2000/svg">
<path d="M12.5096 23.0205C10.4896 22.7205 8.42956 22.5705 6.38956 22.5705H6.10953C4.15953 22.5805 2.18953 22.7405 0.269531 23.0205V22.1805C2.15953 21.9505 4.13954 21.7905 6.11954 21.7705H6.39954C8.45954 21.7705 10.5395 21.9305 12.5895 22.2505L12.5295 23.0105L12.5096 23.0205Z" fill="#D3D3D3"/>
<path d="M6.3797 21.8502C8.3997 21.8502 10.4297 22.0102 12.4297 22.3102V22.9302C10.4297 22.6402 8.3997 22.4902 6.3797 22.4902H6.0997C4.1797 22.5002 2.23968 22.6502 0.329681 22.9302V22.3102C2.22968 22.0202 4.1797 21.8602 6.0997 21.8502H6.3797ZM6.3797 21.7002C6.2897 21.7002 6.1997 21.7002 6.0997 21.7002C3.8797 21.7202 1.88969 21.9202 0.179688 22.1802V23.1002C1.89969 22.8402 3.8897 22.6502 6.0997 22.6402C6.1897 22.6402 6.2897 22.6402 6.3797 22.6402C8.7097 22.6402 10.7997 22.8402 12.5797 23.1002V22.1802C10.8097 21.9002 8.7197 21.7002 6.3797 21.7002Z" fill="#5E5E5A"/>
<path d="M16.6002 27.53C16.3102 27.53 16.0302 27.51 15.7502 27.49C15.4902 27.47 15.2402 27.45 15.0002 27.45C14.8902 27.45 14.7802 27.45 14.6702 27.47C14.5102 27.49 14.3602 27.49 14.2102 27.49C13.2802 27.49 12.5902 27.21 12.2102 27.06C12.1102 27.02 12.0302 26.99 11.9802 26.98C11.2202 26.81 10.8702 25.51 11.0302 23.41C11.2402 20.58 12.2102 17.76 12.7802 17.72C13.3702 17.68 13.8202 17.08 14.2502 16.5C14.6902 15.9 15.1502 15.29 15.7502 15.29C16.5002 15.29 17.4102 16.24 18.5402 18.19C18.8202 18.68 19.0702 18.92 19.2802 19.14C19.6802 19.55 19.9502 19.82 20.1002 21.48C20.3702 24.48 20.1802 26.71 19.6402 26.89C19.3402 26.99 19.0302 27.05 18.7302 27.11C18.4002 27.17 18.0902 27.24 17.8002 27.34C17.4502 27.47 17.0602 27.53 16.5902 27.53H16.6002Z" fill="#D3D3D3"/>
<path d="M15.7588 15.3597C16.4788 15.3597 17.3688 16.2997 18.4888 18.2297C18.7788 18.7297 19.0288 18.9897 19.2388 19.1997C19.6288 19.5997 19.8888 19.8597 20.0388 21.4897C20.3388 24.7997 20.0588 26.6797 19.6288 26.8197C19.3288 26.9197 19.0288 26.9797 18.7288 27.0397C18.3988 27.1097 18.0888 27.1697 17.7888 27.2797C17.4388 27.4097 17.0688 27.4697 16.6088 27.4697C16.3288 27.4697 16.0388 27.4497 15.7688 27.4297C15.5088 27.4097 15.2588 27.3897 15.0188 27.3897C14.8988 27.3897 14.7888 27.3897 14.6788 27.4097C14.5188 27.4297 14.3688 27.4297 14.2288 27.4297C13.3088 27.4297 12.6288 27.1597 12.2588 27.0097C12.1488 26.9697 12.0688 26.9297 12.0188 26.9197C11.2988 26.7497 10.9688 25.4797 11.1288 23.4297C11.3488 20.5797 12.3288 17.8497 12.8088 17.8097C13.4388 17.7597 13.8888 17.1497 14.3288 16.5597C14.7588 15.9797 15.2088 15.3797 15.7688 15.3797M15.7688 15.2297C14.5288 15.2297 13.9488 17.5797 12.7988 17.6597C11.6588 17.7397 9.73877 26.5497 11.9888 27.0597C12.1988 27.1097 13.0188 27.5697 14.2288 27.5697C14.3788 27.5697 14.5388 27.5697 14.6988 27.5497C14.7988 27.5397 14.9088 27.5397 15.0188 27.5397C15.5088 27.5397 16.0488 27.6197 16.6088 27.6197C17.0188 27.6197 17.4288 27.5797 17.8488 27.4197C18.4088 27.2097 19.0588 27.1797 19.6888 26.9697C20.3788 26.7397 20.4288 24.0197 20.1988 21.4797C19.9688 18.9397 19.4588 19.5897 18.6288 18.1597C17.3388 15.9397 16.4588 15.2197 15.7688 15.2197V15.2297Z" fill="#5E5E5A"/>
</svg>
