<svg width="21" height="27" viewBox="0 0 21 27" fill="none" xmlns="http://www.w3.org/2000/svg">
<path d="M13.0798 22.0205C11.0598 21.7205 8.99984 21.5705 6.95984 21.5705H6.67984C4.72984 21.5805 2.76984 21.7405 0.839844 22.0205V21.1805C2.72984 20.9505 4.70985 20.7905 6.68985 20.7705H6.96985C9.02985 20.7705 11.1099 20.9305 13.1599 21.2505L13.0999 22.0105L13.0798 22.0205Z" fill="#D3D3D3"/>
<path d="M6.95001 20.8502C8.97001 20.8502 11 21.0102 13 21.3102V21.9302C11 21.6402 8.97001 21.4902 6.95001 21.4902H6.67001C4.75001 21.5002 2.80999 21.6502 0.899994 21.9302V21.3102C2.79999 21.0202 4.75001 20.8602 6.67001 20.8502H6.95001ZM6.95001 20.7002C6.86001 20.7002 6.77001 20.7002 6.67001 20.7002C4.45001 20.7202 2.46 20.9202 0.75 21.1802V22.1002C2.47 21.8402 4.46001 21.6502 6.67001 21.6402C6.76001 21.6402 6.86001 21.6402 6.95001 21.6402C9.28001 21.6402 11.37 21.8402 13.15 22.1002V21.1802C11.38 20.9002 9.29001 20.7002 6.95001 20.7002Z" fill="#5E5E5A"/>
<path d="M18.447 26.5296C18.187 26.5296 17.8869 26.4296 17.5769 26.2296C17.0769 25.9196 16.6569 25.7696 16.2669 25.7696C16.0169 25.7696 15.7969 25.8296 15.5769 25.8896C15.3669 25.9496 15.1369 26.0096 14.8769 26.0096C14.4669 26.0096 14.0169 25.8596 13.4769 25.5496C12.6569 25.0796 12.647 22.8196 12.637 21.1696C12.637 20.8296 12.6369 20.5096 12.6269 20.2296C12.5869 18.9096 13.1669 17.4696 14.1269 16.4796C14.8069 15.7796 15.617 15.3896 16.387 15.3896C17.327 15.3896 18.217 15.9496 18.947 17.0196L19.1069 17.2496C19.8569 18.3296 20.197 18.8196 20.197 21.7696C20.197 23.9496 19.8369 25.5697 19.1869 26.2197C18.9769 26.4397 18.727 26.5396 18.447 26.5396V26.5296Z" fill="#D3D3D3"/>
<path d="M16.3883 15.4596C17.3083 15.4596 18.1683 16.0096 18.8883 17.0596L19.0483 17.2896C19.7883 18.3496 20.1183 18.8396 20.1283 21.7596C20.1283 23.9196 19.7783 25.5196 19.1383 26.1596C18.9383 26.3596 18.7083 26.4596 18.4583 26.4596C18.2083 26.4596 17.9283 26.3596 17.6283 26.1696C17.1183 25.8496 16.6883 25.6996 16.2783 25.6996C16.0083 25.6996 15.7883 25.7596 15.5683 25.8196C15.3483 25.8796 15.1383 25.9396 14.8883 25.9396C14.4883 25.9396 14.0583 25.7996 13.5183 25.4896C12.7383 25.0396 12.7283 22.8096 12.7183 21.1696C12.7183 20.8296 12.7183 20.5096 12.7083 20.2196C12.6683 18.9096 13.2383 17.4996 14.1883 16.5296C14.8583 15.8396 15.6383 15.4596 16.3983 15.4596M16.3983 15.3096C14.3583 15.3096 12.4983 17.8396 12.5683 20.2196C12.6183 21.9796 12.4383 25.0196 13.4583 25.6096C14.0883 25.9796 14.5383 26.0796 14.8983 26.0796C15.4383 26.0796 15.7883 25.8396 16.2883 25.8396C16.6183 25.8396 17.0083 25.9396 17.5583 26.2896C17.8983 26.4996 18.1983 26.5996 18.4683 26.5996C19.7583 26.5996 20.2883 24.3796 20.2883 21.7496C20.2883 18.5796 19.8783 18.2096 19.0283 16.9696C18.2183 15.7896 17.2983 15.3096 16.4083 15.3096H16.3983Z" fill="#5E5E5A"/>
</svg>
