<svg width="19" height="32" viewBox="0 0 19 32" fill="none" xmlns="http://www.w3.org/2000/svg">
<path d="M12.658 27.0205C10.638 26.7205 8.57796 26.5705 6.53796 26.5705H6.25797C4.30797 26.5805 2.33797 26.7405 0.417969 27.0205V26.1805C2.30797 25.9505 4.28794 25.7905 6.26794 25.7705H6.54794C8.60794 25.7705 10.6879 25.9305 12.7379 26.2505L12.6779 27.0105L12.658 27.0205Z" fill="#D3D3D3"/>
<path d="M6.52814 25.8502C8.54814 25.8502 10.5781 26.0102 12.5781 26.3102V26.9302C10.5781 26.6402 8.54814 26.4902 6.52814 26.4902H6.24814C4.32814 26.5002 2.38815 26.6502 0.478149 26.9302V26.3102C2.37815 26.0202 4.32814 25.8602 6.24814 25.8502H6.52814ZM6.52814 25.7002C6.43814 25.7002 6.34814 25.7002 6.24814 25.7002C4.02814 25.7202 2.03813 25.9202 0.328125 26.1802V27.1002C2.04813 26.8402 4.03814 26.6502 6.24814 26.6402C6.33814 26.6402 6.43814 26.6402 6.52814 26.6402C8.85814 26.6402 10.9481 26.8402 12.7281 27.1002V26.1802C10.9581 25.9002 8.86814 25.7002 6.52814 25.7002Z" fill="#5E5E5A"/>
<path d="M14.5395 31.5294C13.7595 31.5294 13.0195 31.2494 12.3795 30.7094C11.8195 30.2294 11.3095 30.0594 10.8595 29.9094C10.1295 29.6594 9.59952 29.4794 9.27952 28.1194C8.91952 26.6094 9.47954 24.7094 9.88954 23.3294C10.0295 22.8594 10.1495 22.4494 10.2095 22.1294C10.4295 20.9994 12.1595 19.3994 13.4795 19.3994H13.5895C14.8595 19.4994 16.5595 20.5294 16.7695 21.3394C16.9695 22.0994 17.1695 22.7994 17.3595 23.4394C18.2495 26.4994 18.7795 28.3494 17.1095 30.2994C16.4195 31.0994 15.5095 31.5394 14.5395 31.5394V31.5294Z" fill="#D3D3D3"/>
<path d="M13.4892 19.4696C13.4892 19.4696 13.5592 19.4696 13.5892 19.4696C14.8392 19.5596 16.4992 20.5596 16.6992 21.3496C16.8992 22.1096 17.0992 22.7896 17.2892 23.4496C18.1692 26.4896 18.6992 28.3196 17.0492 30.2396C16.3792 31.0196 15.4792 31.4596 14.5292 31.4596C13.7692 31.4596 13.0392 31.1796 12.4192 30.6596C11.8492 30.1696 11.3292 29.9996 10.8792 29.8396C10.1692 29.5996 9.65921 29.4296 9.34921 28.0996C8.98921 26.6096 9.54919 24.7196 9.95919 23.3396C10.0992 22.8596 10.2192 22.4496 10.2892 22.1296C10.5092 21.0296 12.1992 19.4596 13.4892 19.4596M13.4892 19.3096C12.1792 19.3096 10.3792 20.8896 10.1392 22.0996C9.89922 23.3496 8.70921 26.0696 9.19921 28.1296C9.73921 30.3796 10.8592 29.5196 12.3192 30.7596C12.9792 31.3196 13.7492 31.5996 14.5192 31.5996C15.4692 31.5996 16.4192 31.1796 17.1492 30.3296C19.2092 27.9296 17.9792 25.6596 16.8292 21.2996C16.6092 20.4596 14.8992 19.4096 13.5792 19.3096C13.5392 19.3096 13.5092 19.3096 13.4692 19.3096H13.4892Z" fill="#5E5E5A"/>
</svg>
