<svg width="23" height="28" viewBox="0 0 23 28" fill="none" xmlns="http://www.w3.org/2000/svg">
<path d="M13.2283 23.0205C11.2083 22.7205 9.14826 22.5705 7.10826 22.5705H6.82826C4.87826 22.5805 2.91828 22.7405 0.988281 23.0205V22.1805C2.87828 21.9505 4.85827 21.7905 6.83827 21.7705H7.11827C9.17827 21.7705 11.2583 21.9305 13.3083 22.2505L13.2483 23.0105L13.2283 23.0205Z" fill="#D3D3D3"/>
<path d="M7.09845 21.8502C9.11845 21.8502 11.1484 22.0102 13.1484 22.3102V22.9302C11.1484 22.6402 9.11845 22.4902 7.09845 22.4902H6.81845C4.89845 22.5002 2.95845 22.6502 1.04845 22.9302V22.3102C2.94845 22.0202 4.89845 21.8602 6.81845 21.8502H7.09845ZM7.09845 21.7002C7.00845 21.7002 6.91845 21.7002 6.81845 21.7002C4.59845 21.7202 2.60844 21.9202 0.898438 22.1802V23.1002C2.61844 22.8402 4.60845 22.6502 6.81845 22.6402C6.90845 22.6402 7.00845 22.6402 7.09845 22.6402C9.42845 22.6402 11.5184 22.8402 13.2984 23.1002V22.1802C11.5284 21.9002 9.43845 21.7002 7.09845 21.7002Z" fill="#5E5E5A"/>
<path d="M16.7283 27.5307C16.5683 27.5307 16.4083 27.5007 16.2383 27.4507C15.2283 27.1507 14.8583 26.6907 14.4883 26.2607C14.1883 25.9007 13.9083 25.5607 13.2983 25.3307C11.9183 24.8207 11.7383 24.1207 11.7383 23.5007C11.7383 21.4007 12.3683 18.4907 13.4283 17.2507C14.0483 16.5207 15.4083 15.7607 16.5883 15.7607C16.7083 15.7607 16.8183 15.7607 16.9283 15.7807C17.5283 15.8607 17.9283 16.2507 18.3083 16.6307C18.6783 16.9807 19.0183 17.3207 19.4783 17.3207H19.7383C19.8783 17.3007 20.0183 17.2907 20.1483 17.2907C20.6983 17.2907 21.2483 17.4007 21.3983 18.7707C21.5083 19.7907 21.6983 20.2807 21.8583 20.7107C21.9783 21.0307 22.0883 21.3307 22.1583 21.8007L22.2083 22.1107C22.3783 23.1107 22.5083 23.9007 20.6683 24.6407C19.7483 25.0107 19.1283 25.6907 18.5783 26.3007C17.9783 26.9607 17.4583 27.5307 16.7283 27.5307Z" fill="#D3D3D3"/>
<path d="M16.5901 15.6904V15.8404C16.7001 15.8404 16.8102 15.8404 16.9202 15.8604C17.4902 15.9404 17.8802 16.3204 18.2602 16.6904C18.6402 17.0604 18.9902 17.4004 19.4802 17.4004H19.5302L19.7502 17.3904C19.8902 17.3904 20.0302 17.3704 20.1602 17.3704C20.7002 17.3704 21.1901 17.4804 21.3301 18.7804C21.4401 19.8104 21.6302 20.3004 21.7902 20.7404C21.9102 21.0504 22.0201 21.3504 22.0901 21.8104C22.1101 21.9204 22.1202 22.0204 22.1402 22.1204C22.3002 23.0804 22.4302 23.8504 20.6402 24.5604C19.7102 24.9304 19.0801 25.6304 18.5201 26.2404C17.9301 26.8904 17.4202 27.4504 16.7202 27.4504C16.5702 27.4504 16.4202 27.4304 16.2502 27.3804C15.2602 27.0804 14.9002 26.6404 14.5402 26.2104C14.2502 25.8604 13.9402 25.4904 13.3202 25.2604C11.9902 24.7704 11.8102 24.0904 11.8102 23.5004C11.8102 21.4204 12.4402 18.5304 13.4802 17.3004C14.0902 16.5804 15.4201 15.8404 16.5801 15.8404V15.6904M16.5801 15.6904C15.4201 15.6904 14.0401 16.4204 13.3701 17.2104C12.2501 18.5204 11.6602 21.5504 11.6602 23.5104C11.6602 24.2404 11.9501 24.9304 13.2701 25.4104C14.5901 25.9004 14.3401 26.9704 16.2101 27.5304C16.3901 27.5804 16.5602 27.6104 16.7202 27.6104C18.1902 27.6104 18.8002 25.4704 20.6902 24.7104C22.7902 23.8704 22.4002 22.9104 22.2302 21.7904C22.0602 20.6704 21.6602 20.5204 21.4702 18.7604C21.3202 17.4204 20.8001 17.2204 20.1501 17.2204C19.9501 17.2204 19.7401 17.2404 19.5201 17.2504C19.5101 17.2504 19.4902 17.2504 19.4802 17.2504C18.5802 17.2504 18.1401 15.8804 16.9301 15.7104C16.8201 15.6904 16.7001 15.6904 16.5801 15.6904Z" fill="#5E5E5A"/>
</svg>
