<svg width="20" height="26" viewBox="0 0 20 26" fill="none" xmlns="http://www.w3.org/2000/svg">
<path d="M12.7986 21.0205C10.7786 20.7205 8.71859 20.5705 6.67859 20.5705H6.39859C4.44859 20.5805 2.47859 20.7405 0.558594 21.0205V20.1805C2.44859 19.9505 4.4386 19.7905 6.4086 19.7705H6.6886C8.7486 19.7705 10.8286 19.9305 12.8786 20.2505L12.8186 21.0105L12.7986 21.0205Z" fill="#D3D3D3"/>
<path d="M6.66875 19.8502C8.68875 19.8502 10.7188 20.0102 12.7188 20.3102V20.9302C10.7188 20.6402 8.68875 20.4902 6.66875 20.4902H6.38875C4.46875 20.5002 2.52874 20.6502 0.618744 20.9302V20.3102C2.51874 20.0202 4.46875 19.8602 6.38875 19.8502H6.66875ZM6.66875 19.7002C6.57875 19.7002 6.48875 19.7002 6.38875 19.7002C4.16875 19.7202 2.17875 19.9202 0.46875 20.1802V21.1002C2.18875 20.8402 4.17875 20.6502 6.38875 20.6402C6.47875 20.6402 6.57875 20.6402 6.66875 20.6402C8.99875 20.6402 11.0887 20.8402 12.8687 21.1002V20.1802C11.0987 19.9002 9.00875 19.7002 6.66875 19.7002Z" fill="#5E5E5A"/>
<path d="M15.4207 25.5292C14.6907 25.5292 14.0307 25.2892 13.9207 24.9792C13.7907 24.6092 13.3207 24.4692 12.8307 24.3192C12.3207 24.1592 11.8007 23.9992 11.5607 23.5992C11.3107 23.1692 10.9107 19.1192 11.7207 17.2792C11.9407 16.7792 12.2406 16.4792 12.5906 16.4092C13.1106 16.2992 13.3607 15.9492 13.7407 15.4292C13.9307 15.1692 14.1607 14.8592 14.4707 14.5092C14.6607 14.2992 14.8607 14.1992 15.1007 14.1992C15.8107 14.1992 16.6106 15.0892 17.0406 15.5592L17.1506 15.6792C17.4306 15.9792 17.8207 15.9992 18.1707 15.9992H18.5906C18.8806 15.9992 19.1807 16.0192 19.4107 16.1692C19.9907 16.5692 19.6907 20.8592 19.3807 22.0492C19.2207 22.6492 18.7707 23.0592 18.2807 23.4892C17.8707 23.8592 17.4507 24.2292 17.1407 24.7692C16.8607 25.2392 16.2207 25.5292 15.4207 25.5292Z" fill="#D3D3D3"/>
<path d="M15.0993 14.2796C15.7693 14.2796 16.5593 15.1496 16.9893 15.6196L17.0993 15.7396C17.3793 16.0496 17.7793 16.0896 18.1793 16.0896H18.3893H18.5993C18.8793 16.0896 19.1593 16.1096 19.3793 16.2596C19.8793 16.6096 19.6493 20.7996 19.3193 22.0596C19.1693 22.6396 18.7393 23.0196 18.2493 23.4596C17.8393 23.8296 17.4093 24.2096 17.0893 24.7496C16.8293 25.1996 16.2093 25.4697 15.4293 25.4697C14.6493 25.4697 14.0893 25.2097 13.9993 24.9697C13.8593 24.5697 13.3693 24.4196 12.8593 24.2596C12.3693 24.1096 11.8493 23.9496 11.6293 23.5796C11.3793 23.1496 10.9893 19.1496 11.7893 17.3296C11.9993 16.8496 12.2793 16.5696 12.6093 16.4996C13.1593 16.3796 13.4293 16.0096 13.8093 15.4896C13.9993 15.2196 14.2193 14.9196 14.5293 14.5696C14.6993 14.3796 14.8893 14.2896 15.1093 14.2896M15.1093 14.1396C14.8693 14.1396 14.6293 14.2396 14.4193 14.4696C13.4993 15.4996 13.3293 16.1896 12.5793 16.3496C10.6193 16.7596 11.1493 23.0496 11.4993 23.6496C11.9893 24.4796 13.6093 24.3296 13.8593 25.0196C13.9893 25.3696 14.6793 25.6196 15.4293 25.6196C16.1793 25.6196 16.8793 25.3997 17.2193 24.8297C17.8993 23.6597 19.1693 23.2196 19.4693 22.0996C19.7593 20.9796 20.0993 16.5796 19.4693 16.1396C19.2293 15.9696 18.9193 15.9496 18.6093 15.9496C18.4693 15.9496 18.3293 15.9496 18.1893 15.9496C17.8193 15.9496 17.4693 15.9096 17.2293 15.6496C16.8193 15.1996 15.9293 14.1396 15.1193 14.1396H15.1093Z" fill="#5E5E5A"/>
</svg>
