<svg width="22" height="27" viewBox="0 0 22 27" fill="none" xmlns="http://www.w3.org/2000/svg">
<path d="M12.3806 22.0205C10.3606 21.7205 8.30062 21.5705 6.26062 21.5705H5.98062C4.03062 21.5805 2.06062 21.7405 0.140625 22.0205V21.1805C2.03062 20.9505 4.01063 20.7905 5.99063 20.7705H6.27063C8.33063 20.7705 10.4106 20.9305 12.4606 21.2505L12.4006 22.0105L12.3806 22.0205Z" fill="#D3D3D3"/>
<path d="M6.25078 20.8502C8.27078 20.8502 10.3008 21.0102 12.3008 21.3102V21.9302C10.3008 21.6402 8.27078 21.4902 6.25078 21.4902H5.97078C4.05078 21.5002 2.11077 21.6502 0.200775 21.9302V21.3102C2.10078 21.0202 4.05078 20.8602 5.97078 20.8502H6.25078ZM6.25078 20.7002C6.16078 20.7002 6.07078 20.7002 5.97078 20.7002C3.75078 20.7202 1.76078 20.9202 0.0507812 21.1802V22.1002C1.77078 21.8402 3.76078 21.6502 5.97078 21.6402C6.06078 21.6402 6.16078 21.6402 6.25078 21.6402C8.58078 21.6402 10.6708 21.8402 12.4508 22.1002V21.1802C10.6808 20.9002 8.59078 20.7002 6.25078 20.7002Z" fill="#5E5E5A"/>
<path d="M17.4086 26.5292C16.9086 26.5292 16.4586 26.3492 16.1086 26.0092C15.8786 25.7792 15.6386 25.6792 15.3386 25.6792C15.2186 25.6792 15.1086 25.6892 14.9986 25.7092C14.8886 25.7192 14.7886 25.7392 14.6786 25.7392C14.5286 25.7392 14.3986 25.7092 14.2786 25.6392C14.1086 25.5492 13.9586 25.4092 13.8286 25.2792C13.6386 25.0992 13.4586 24.9292 13.2286 24.9292C13.0586 24.9292 12.8786 25.0292 12.6786 25.2192C12.4186 25.4792 11.9886 25.6192 11.4986 25.6192C10.7786 25.6192 10.0986 25.3092 9.76857 24.8392C9.14857 23.9392 9.45857 18.6292 10.2086 17.2692C10.6886 16.3892 11.0686 16.2692 11.3786 16.2692C11.5686 16.2692 11.7586 16.3192 11.9686 16.3792C12.2086 16.4392 12.4586 16.5092 12.7386 16.5092C12.9786 16.5092 13.2086 16.4592 13.4486 16.3592C14.0986 16.0692 14.7786 15.9092 15.4286 15.9092C16.3086 15.9092 17.0786 16.1892 17.6686 16.7292C17.9986 17.0292 18.3886 17.1692 18.8786 17.1692C19.1886 17.1692 19.4986 17.1092 19.7686 17.0592C19.9986 17.0192 20.1986 16.9792 20.3786 16.9792C20.6186 16.9792 20.7486 17.0592 20.8186 17.2392C21.1186 18.0192 21.0486 20.4892 20.3286 23.5392C19.8386 25.5992 18.5086 26.5192 17.4086 26.5192V26.5292Z" fill="#D3D3D3"/>
<path d="M15.4393 15.9996C16.2993 15.9996 17.0493 16.2796 17.6293 16.7996C17.9693 17.1096 18.3793 17.2596 18.8893 17.2596C19.2093 17.2596 19.5193 17.1996 19.7993 17.1496C20.0193 17.1096 20.2293 17.0696 20.3893 17.0696C20.6293 17.0696 20.7193 17.1496 20.7593 17.2796C21.0593 18.0496 20.9893 20.4996 20.2693 23.5396C19.7893 25.5596 18.4893 26.4596 17.4193 26.4596C16.9393 26.4596 16.5093 26.2896 16.1793 25.9596C15.9393 25.7196 15.6693 25.6096 15.3593 25.6096C15.2393 25.6096 15.1293 25.6196 15.0093 25.6396C14.9093 25.6496 14.8093 25.6696 14.6993 25.6696C14.5593 25.6696 14.4493 25.6396 14.3393 25.5796C14.1693 25.4896 14.0393 25.3596 13.8993 25.2396C13.6993 25.0496 13.5093 24.8696 13.2493 24.8696C13.0593 24.8696 12.8593 24.9696 12.6493 25.1896C12.4093 25.4296 11.9993 25.5696 11.5193 25.5696C10.8193 25.5696 10.1693 25.2796 9.84932 24.8196C9.23932 23.9296 9.54931 18.6796 10.2893 17.3296C10.7493 16.4896 11.1093 16.3696 11.3893 16.3696C11.5693 16.3696 11.7593 16.4196 11.9593 16.4696C12.1893 16.5296 12.4593 16.5996 12.7493 16.5996C12.9993 16.5996 13.2493 16.5496 13.4893 16.4396C14.1293 16.1496 14.7993 15.9996 15.4393 15.9996ZM15.4393 15.8496C14.7593 15.8496 14.0693 16.0196 13.4293 16.2996C13.1893 16.4096 12.9593 16.4496 12.7493 16.4496C12.2293 16.4496 11.8093 16.2096 11.3893 16.2096C10.9893 16.2096 10.5993 16.4196 10.1493 17.2496C9.37931 18.6496 9.07932 23.9696 9.71932 24.8996C10.0893 25.4396 10.8293 25.7196 11.5093 25.7196C11.9993 25.7196 12.4593 25.5796 12.7493 25.2896C12.9493 25.0896 13.1093 25.0196 13.2493 25.0196C13.5993 25.0196 13.8293 25.4796 14.2693 25.7196C14.4193 25.7996 14.5593 25.8196 14.6993 25.8196C14.9193 25.8196 15.1293 25.7596 15.3593 25.7596C15.5893 25.7596 15.8193 25.8196 16.0793 26.0696C16.4493 26.4296 16.9293 26.6096 17.4293 26.6096C18.6093 26.6096 19.9493 25.5996 20.4293 23.5796C21.1093 20.6996 21.2593 18.1096 20.9193 17.2296C20.8293 16.9996 20.6493 16.9296 20.4093 16.9296C20.0193 16.9296 19.4693 17.1196 18.9093 17.1196C18.5093 17.1196 18.1093 17.0196 17.7493 16.6996C17.0993 16.1096 16.2993 15.8596 15.4593 15.8596L15.4393 15.8496Z" fill="#5E5E5A"/>
</svg>
