<svg width="24" height="25" viewBox="0 0 24 25" fill="none" xmlns="http://www.w3.org/2000/svg">
<path d="M12.9509 20.0205C10.9309 19.7205 8.87093 19.5705 6.83093 19.5705H6.55093C4.60093 19.5805 2.63094 19.7405 0.710938 20.0205V19.1805C2.60094 18.9505 4.58093 18.7905 6.56093 18.7705H6.84093C8.90093 18.7705 10.9809 18.9305 13.0309 19.2505L12.9709 20.0105L12.9509 20.0205Z" fill="#D3D3D3"/>
<path d="M6.82111 18.8502C8.84111 18.8502 10.8711 19.0102 12.8711 19.3102V19.9302C10.8711 19.6402 8.84111 19.4902 6.82111 19.4902H6.54109C4.62109 19.5002 2.6811 19.6502 0.771103 19.9302V19.3102C2.6711 19.0202 4.62109 18.8602 6.54109 18.8502H6.82111ZM6.82111 18.7002C6.73111 18.7002 6.64109 18.7002 6.54109 18.7002C4.32109 18.7202 2.33109 18.9202 0.621094 19.1802V20.1002C2.34109 19.8402 4.33109 19.6502 6.54109 19.6402C6.63109 19.6402 6.73111 19.6402 6.82111 19.6402C9.15111 19.6402 11.2411 19.8402 13.0211 20.1002V19.1802C11.2511 18.9002 9.16111 18.7002 6.82111 18.7002Z" fill="#5E5E5A"/>
<path d="M19.2432 24.5302C18.2732 24.5302 17.2732 23.8702 16.5532 23.3802C16.1832 23.1302 15.8932 22.9402 15.6732 22.8702C15.5732 22.8402 15.4632 22.8302 15.3532 22.8302C15.1332 22.8302 14.9032 22.8802 14.6632 22.9302C14.3732 22.9902 14.0532 23.0702 13.6932 23.0702C13.1932 23.0702 12.6932 22.9302 12.1832 22.6402C11.6632 22.3402 11.2932 21.7702 11.1032 20.9902C10.7232 19.4602 11.1032 17.3902 12.0232 15.9602C13.0032 14.4302 14.3532 14.2002 15.0732 14.2002C15.6032 14.2002 16.1332 14.3202 16.4832 14.5302C17.0232 14.8402 17.5632 14.9902 18.1432 14.9902C18.6832 14.9902 19.1732 14.8702 19.6432 14.7502C20.0632 14.6402 20.4632 14.5402 20.8532 14.5402C21.5432 14.5402 22.0932 14.8702 22.6432 15.6202C23.4832 16.7802 22.6132 22.1502 20.6532 23.9602C20.2432 24.3402 19.7832 24.5302 19.2632 24.5302H19.2432Z" fill="#D3D3D3"/>
<path d="M15.0514 14.2804C15.5714 14.2804 16.0814 14.4004 16.4314 14.6004C16.9814 14.9204 17.5314 15.0704 18.1314 15.0704C18.6814 15.0704 19.1714 14.9404 19.6514 14.8204C20.0714 14.7104 20.4614 14.6104 20.8414 14.6104C21.5114 14.6104 22.0414 14.9404 22.5614 15.6604C23.3814 16.8104 22.5214 22.1104 20.5814 23.9104C20.1814 24.2804 19.7414 24.4604 19.2414 24.4604C18.2914 24.4604 17.3114 23.8004 16.5914 23.3204C16.2114 23.0704 15.9214 22.8703 15.6914 22.8004C15.5814 22.7704 15.4714 22.7504 15.3514 22.7504C15.1214 22.7504 14.8914 22.8004 14.6414 22.8604C14.3414 22.9304 14.0414 22.9904 13.6814 22.9904C13.1914 22.9904 12.7114 22.8504 12.2114 22.5704C11.7114 22.2804 11.3514 21.7304 11.1614 20.9704C10.7914 19.4604 11.1614 17.4104 12.0714 15.9904C13.0314 14.4904 14.3514 14.2704 15.0514 14.2704M15.0514 14.1204C14.0414 14.1204 12.8214 14.5404 11.9414 15.9104C10.5314 18.1104 10.4314 21.7204 12.1414 22.7004C12.7414 23.0404 13.2414 23.1404 13.6914 23.1404C14.3714 23.1404 14.8914 22.9004 15.3614 22.9004C15.4614 22.9004 15.5614 22.9104 15.6614 22.9404C16.2814 23.1204 17.7714 24.6003 19.2514 24.6003C19.7414 24.6003 20.2314 24.4403 20.6914 24.0103C22.6814 22.1703 23.5714 16.7904 22.6914 15.5704C22.0714 14.7004 21.4614 14.4504 20.8414 14.4504C20.0014 14.4504 19.1314 14.9004 18.1314 14.9004C17.6314 14.9004 17.0914 14.7904 16.5114 14.4504C16.1914 14.2604 15.6614 14.1104 15.0614 14.1104L15.0514 14.1204Z" fill="#5E5E5A"/>
</svg>
