<svg width="12" height="24" viewBox="0 0 12 24" fill="none" xmlns="http://www.w3.org/2000/svg">
<path d="M9.25358 23.5301C8.83358 23.5301 8.40357 23.3501 8.09357 23.2201C7.93357 23.1501 7.80358 23.1001 7.71358 23.0801H7.61358C7.41358 23.0801 7.17357 23.1801 6.92357 23.2901C6.64357 23.4101 6.36357 23.5301 6.09357 23.5301C5.90357 23.5301 5.74358 23.4601 5.60358 23.3301C5.22358 22.9501 4.90358 22.8801 4.44358 22.8801C4.28358 22.8801 4.09358 22.8801 3.88358 22.9001C3.58358 22.9201 3.21357 22.9301 2.76357 22.9301C2.41357 22.9301 2.10358 22.7201 1.83358 22.3101C0.953577 20.9601 0.863568 17.9401 1.43357 16.6601C1.68357 16.0901 1.94358 16.0201 2.13358 16.0201C2.25358 16.0201 2.37358 16.0501 2.49358 16.0801C2.61358 16.1101 2.74357 16.1401 2.87357 16.1401C3.09357 16.1401 3.26358 16.0501 3.41358 15.8401C4.42358 14.4601 5.07358 13.8701 5.58358 13.8701C5.87358 13.8701 6.12358 14.0501 6.44358 14.2901C6.94358 14.6601 7.57358 15.1201 8.72358 15.1201C9.03358 15.1201 9.36358 15.0901 9.71358 15.0201C9.76358 15.0101 9.82357 15.0001 9.87357 15.0001C10.0936 15.0001 10.2736 15.0901 10.4336 15.2901C11.2236 16.2401 11.1536 19.3601 10.6936 21.8101C10.4736 22.9801 10.0036 23.5501 9.26357 23.5501L9.25358 23.5301Z" fill="#D3D3D3"/>
<path d="M5.57169 13.9398C5.84169 13.9398 6.08168 14.1198 6.39168 14.3398C6.88168 14.6998 7.54169 15.1798 8.71169 15.1798C9.02169 15.1798 9.36169 15.1498 9.71169 15.0798C9.76169 15.0798 9.81169 15.0698 9.85169 15.0698C10.0417 15.0698 10.2117 15.1498 10.3517 15.3298C11.1217 16.2598 11.0517 19.3498 10.5917 21.7798C10.3817 22.9098 9.94169 23.4598 9.24169 23.4598C8.84169 23.4598 8.42168 23.2798 8.11168 23.1498C7.95168 23.0798 7.82169 23.0298 7.71169 23.0098C7.67169 23.0098 7.63168 22.9998 7.59168 22.9998C7.37168 22.9998 7.13168 23.0998 6.87168 23.2098C6.60168 23.3198 6.32169 23.4398 6.07169 23.4398C5.90169 23.4398 5.76168 23.3798 5.64168 23.2598C5.24168 22.8598 4.91167 22.7798 4.43167 22.7798C4.27167 22.7798 4.08168 22.7798 3.86168 22.7998C3.56168 22.8198 3.19169 22.8298 2.74169 22.8298C2.42169 22.8298 2.13169 22.6298 1.88169 22.2498C1.02169 20.9198 0.921677 17.9298 1.48168 16.6698C1.72168 16.1398 1.94168 16.0698 2.11168 16.0698C2.22168 16.0698 2.33168 16.0998 2.45168 16.1298C2.58168 16.1598 2.71169 16.1998 2.85169 16.1998C3.09169 16.1998 3.29168 16.0898 3.45168 15.8698C4.45168 14.5098 5.08168 13.9298 5.55168 13.9298M5.55168 13.7798C5.06168 13.7798 4.45169 14.2498 3.32169 15.7798C3.17169 15.9798 3.01168 16.0498 2.84168 16.0498C2.60168 16.0498 2.35169 15.9198 2.10169 15.9198C1.84169 15.9198 1.58168 16.0598 1.33168 16.6098C0.561683 18.3298 1.01168 22.9798 2.73168 22.9798C3.51168 22.9798 4.03168 22.9198 4.42168 22.9198C4.89168 22.9198 5.18168 22.9998 5.53168 23.3498C5.69168 23.5098 5.88169 23.5698 6.07169 23.5698C6.60169 23.5698 7.19168 23.1198 7.59168 23.1198C7.62168 23.1198 7.65167 23.1198 7.68167 23.1198C7.95167 23.1698 8.60168 23.5798 9.23168 23.5798C9.86168 23.5798 10.4617 23.2098 10.7317 21.7798C11.2617 18.9798 11.3317 14.8898 9.84168 14.8898C9.78168 14.8898 9.73168 14.8898 9.67168 14.9098C9.31168 14.9798 8.99168 15.0098 8.70168 15.0098C6.85168 15.0098 6.36168 13.7598 5.56168 13.7598L5.55168 13.7798Z" fill="#5E5E5A"/>
</svg>
