<svg width="21" height="28" viewBox="0 0 21 28" fill="none" xmlns="http://www.w3.org/2000/svg">
<path d="M12.9275 23.0205C10.9075 22.7205 8.8475 22.5705 6.8075 22.5705H6.5275C4.5775 22.5805 2.6175 22.7405 0.6875 23.0205V22.1805C2.5775 21.9505 4.56751 21.7905 6.53751 21.7705H6.8175C8.8775 21.7705 10.9575 21.9305 13.0075 22.2505L12.9475 23.0105L12.9275 23.0205Z" fill="#D3D3D3"/>
<path d="M6.80939 21.8502C8.82939 21.8502 10.8594 22.0102 12.8594 22.3102V22.9302C10.8594 22.6402 8.82939 22.4902 6.80939 22.4902H6.52939C4.60939 22.5002 2.6694 22.6502 0.759399 22.9302V22.3102C2.6594 22.0202 4.60939 21.8602 6.52939 21.8502H6.80939ZM6.80939 21.7002C6.71939 21.7002 6.62939 21.7002 6.52939 21.7002C4.30939 21.7202 2.31938 21.9202 0.609375 22.1802V23.1002C2.32938 22.8402 4.31939 22.6502 6.52939 22.6402C6.61939 22.6402 6.71939 22.6402 6.80939 22.6402C9.13939 22.6402 11.2294 22.8402 13.0094 23.1002V22.1802C11.2394 21.9002 9.14939 21.7002 6.80939 21.7002Z" fill="#5E5E5A"/>
<path d="M14.5224 27.53C14.0524 27.53 13.6724 27.47 13.3124 27.34C13.0224 27.23 12.7024 27.17 12.3824 27.11C12.0824 27.05 11.7724 26.99 11.4724 26.89C10.9324 26.71 10.7424 24.49 11.0124 21.48C11.1624 19.82 11.4324 19.55 11.8324 19.14C12.0424 18.92 12.2924 18.68 12.5724 18.19C13.7024 16.24 14.6224 15.29 15.3624 15.29C15.9624 15.29 16.4224 15.91 16.8624 16.5C17.2924 17.08 17.7424 17.68 18.3324 17.72C18.9024 17.76 19.8624 20.58 20.0824 23.41C20.2424 25.5 19.8924 26.8 19.1324 26.98C19.0824 26.99 19.0124 27.02 18.9024 27.06C18.5324 27.21 17.8424 27.49 16.9024 27.49C16.7524 27.49 16.6024 27.49 16.4424 27.47C16.3324 27.46 16.2224 27.45 16.1124 27.45C15.8724 27.45 15.6224 27.47 15.3624 27.49C15.0924 27.51 14.8024 27.53 14.5124 27.53H14.5224Z" fill="#D3D3D3"/>
<path d="M15.3715 15.3604C15.9315 15.3604 16.3815 15.9604 16.8115 16.5404C17.2515 17.1304 17.7115 17.7404 18.3315 17.7904C18.8015 17.8304 19.7915 20.5604 20.0115 23.4104C20.1715 25.4604 19.8415 26.7304 19.1215 26.9004C19.0715 26.9104 18.9915 26.9404 18.8815 26.9904C18.5115 27.1404 17.8315 27.4104 16.9115 27.4104C16.7615 27.4104 16.6115 27.4104 16.4615 27.3904C16.3515 27.3804 16.2415 27.3704 16.1215 27.3704C15.8815 27.3704 15.6315 27.3904 15.3715 27.4104C15.1015 27.4304 14.8215 27.4504 14.5315 27.4504C14.0715 27.4504 13.6915 27.3904 13.3515 27.2604C13.0515 27.1504 12.7415 27.0904 12.4115 27.0204C12.1115 26.9604 11.8115 26.9004 11.5115 26.8004C11.0815 26.6604 10.8015 24.7804 11.1015 21.4704C11.2515 19.8404 11.5115 19.5804 11.9015 19.1804C12.1115 18.9704 12.3615 18.7104 12.6515 18.2104C13.7715 16.2804 14.6615 15.3404 15.3815 15.3404M15.3815 15.1904C14.7015 15.1904 13.8115 15.9104 12.5215 18.1304C11.6915 19.5604 11.1815 18.9104 10.9515 21.4504C10.7215 23.9904 10.7715 26.7104 11.4615 26.9404C12.0915 27.1504 12.7315 27.1904 13.3015 27.3904C13.7115 27.5404 14.1315 27.5904 14.5415 27.5904C15.1015 27.5904 15.6415 27.5104 16.1315 27.5104C16.2415 27.5104 16.3515 27.5104 16.4515 27.5204C16.6115 27.5404 16.7715 27.5404 16.9215 27.5404C18.1215 27.5404 18.9515 27.0804 19.1615 27.0304C21.4115 26.5104 19.4915 17.7104 18.3515 17.6304C17.2015 17.5404 16.6115 15.2004 15.3815 15.2004V15.1904Z" fill="#5E5E5A"/>
</svg>
