<svg width="20" height="27" viewBox="0 0 20 27" fill="none" xmlns="http://www.w3.org/2000/svg">
<path d="M12.3611 22.0205C10.3411 21.7205 8.28109 21.5705 6.24109 21.5705H5.96109C4.01109 21.5805 2.04109 21.7405 0.121094 22.0205V21.1805C2.01109 20.9505 3.9911 20.7905 5.9711 20.7705H6.2511C8.3111 20.7705 10.3911 20.9305 12.4411 21.2505L12.3811 22.0105L12.3611 22.0205Z" fill="#D3D3D3"/>
<path d="M6.23126 20.8502C8.25126 20.8502 10.2812 21.0102 12.2812 21.3102V21.9302C10.2812 21.6402 8.25126 21.4902 6.23126 21.4902H5.95126C4.03126 21.5002 2.09124 21.6502 0.181244 21.9302V21.3102C2.08124 21.0202 4.03126 20.8602 5.95126 20.8502H6.23126ZM6.23126 20.7002C6.14126 20.7002 6.05126 20.7002 5.95126 20.7002C3.73126 20.7202 1.74125 20.9202 0.03125 21.1802V22.1002C1.75125 21.8402 3.74126 21.6502 5.95126 21.6402C6.04126 21.6402 6.14126 21.6402 6.23126 21.6402C8.56126 21.6402 10.6512 21.8402 12.4312 22.1002V21.1802C10.6612 20.9002 8.57126 20.7002 6.23126 20.7002Z" fill="#5E5E5A"/>
<path d="M13.6719 26.5291C13.4019 26.5291 13.1519 26.4191 12.9319 26.1991C12.2919 25.5491 11.9219 23.9291 11.9219 21.7491C11.9219 18.7991 12.2719 18.3091 13.0119 17.2291L13.1719 16.9991C13.9019 15.9291 14.7919 15.3691 15.7319 15.3691C16.5119 15.3691 17.3119 15.7591 17.9919 16.4591C18.9519 17.4491 19.5219 18.8791 19.4919 20.2091C19.4919 20.4991 19.4919 20.8191 19.4819 21.1591C19.4819 22.8091 19.4619 25.0691 18.6419 25.5391C18.0919 25.8591 17.6419 25.9991 17.2419 25.9991C16.9819 25.9991 16.7519 25.9391 16.5419 25.8791C16.3319 25.8191 16.1119 25.7591 15.8519 25.7591C15.4619 25.7591 15.0419 25.9091 14.5419 26.2191C14.2319 26.4191 13.9319 26.5191 13.6719 26.5191V26.5291Z" fill="#D3D3D3"/>
<path d="M15.7411 15.4596C16.5011 15.4596 17.2811 15.8396 17.9511 16.5296C18.9011 17.4996 19.4611 18.9196 19.4311 20.2196C19.4311 20.5096 19.4311 20.8296 19.4211 21.1696C19.4211 22.7996 19.4011 25.0396 18.6211 25.4896C18.0811 25.7996 17.6511 25.9396 17.2511 25.9396C17.0011 25.9396 16.7911 25.8796 16.5711 25.8196C16.3511 25.7596 16.1311 25.6996 15.8611 25.6996C15.4511 25.6996 15.0211 25.8496 14.5111 26.1696C14.2111 26.3596 13.9311 26.4596 13.6811 26.4596C13.4311 26.4596 13.2011 26.3596 13.0011 26.1596C12.3711 25.5296 12.0111 23.9296 12.0111 21.7596C12.0111 18.8296 12.3511 18.3496 13.0911 17.2896L13.2511 17.0596C13.9711 16.0196 14.8311 15.4596 15.7511 15.4596M15.7511 15.3096C14.8611 15.3096 13.9411 15.7896 13.1311 16.9696C12.2811 18.2196 11.8711 18.5796 11.8711 21.7496C11.8711 24.3696 12.4011 26.5996 13.6911 26.5996C13.9611 26.5996 14.2611 26.4996 14.6011 26.2896C15.1511 25.9496 15.5411 25.8396 15.8711 25.8396C16.3711 25.8396 16.7211 26.0796 17.2611 26.0796C17.6211 26.0796 18.0711 25.9696 18.7011 25.6096C19.7211 25.0196 19.5411 21.9796 19.5911 20.2196C19.6611 17.8396 17.8011 15.3096 15.7611 15.3096H15.7511Z" fill="#5E5E5A"/>
</svg>
