<svg width="22" height="32" viewBox="0 0 22 32" fill="none" xmlns="http://www.w3.org/2000/svg">
<path d="M12.7908 27.0205C10.7708 26.7205 8.71081 26.5705 6.67081 26.5705H6.39081C4.44081 26.5805 2.48078 26.7405 0.550781 27.0205V26.1805C2.44078 25.9505 4.43079 25.7905 6.40079 25.7705H6.68079C8.74079 25.7705 10.8208 25.9305 12.8708 26.2505L12.8108 27.0105L12.7908 27.0205Z" fill="#D3D3D3"/>
<path d="M6.66095 25.8502C8.68095 25.8502 10.7109 26.0102 12.7109 26.3102V26.9302C10.7109 26.6402 8.68095 26.4902 6.66095 26.4902H6.38095C4.46095 26.5002 2.52093 26.6502 0.610931 26.9302V26.3102C2.51093 26.0202 4.46095 25.8602 6.38095 25.8502H6.66095ZM6.66095 25.7002C6.57095 25.7002 6.48095 25.7002 6.38095 25.7002C4.16095 25.7202 2.17094 25.9202 0.460938 26.1802V27.1002C2.18094 26.8402 4.17095 26.6502 6.38095 26.6402C6.47095 26.6402 6.57095 26.6402 6.66095 26.6402C8.99095 26.6402 11.0809 26.8402 12.8609 27.1002V26.1802C11.0909 25.9002 9.00095 25.7002 6.66095 25.7002Z" fill="#5E5E5A"/>
<path d="M15.5915 31.5304C14.6215 31.5304 13.7115 31.0904 13.0215 30.2904C11.3415 28.3404 11.8815 26.4904 12.7715 23.4304C12.9615 22.7904 13.1615 22.0904 13.3615 21.3304C13.5715 20.5204 15.2715 19.4904 16.5415 19.4004H16.6515C17.9715 19.4004 19.7015 21.0004 19.9215 22.1304C19.9815 22.4504 20.1015 22.8604 20.2415 23.3304C20.6515 24.7104 21.2115 26.6104 20.8515 28.1204C20.5215 29.4904 20.0015 29.6704 19.2715 29.9104C18.8215 30.0604 18.3115 30.2304 17.7515 30.7104C17.1215 31.2504 16.3715 31.5304 15.5915 31.5304Z" fill="#D3D3D3"/>
<path d="M16.6298 19.4701C17.9198 19.4701 19.6098 21.0401 19.8298 22.1401C19.8898 22.4601 20.0098 22.8701 20.1598 23.3501C20.5698 24.7301 21.1298 26.6101 20.7698 28.1101C20.4498 29.4401 19.9398 29.6101 19.2398 29.8501C18.7898 30.0001 18.2699 30.1801 17.6999 30.6701C17.0799 31.1901 16.3498 31.4701 15.5898 31.4701C14.6398 31.4701 13.7499 31.0401 13.0699 30.2501C11.4199 28.3301 11.9498 26.4901 12.8298 23.4601C13.0198 22.8001 13.2199 22.1201 13.4199 21.3601C13.6299 20.5701 15.2798 19.5701 16.5298 19.4801C16.5598 19.4801 16.5998 19.4801 16.6298 19.4801M16.6298 19.3301C16.6298 19.3301 16.5498 19.3301 16.5198 19.3301C15.1998 19.4301 13.4898 20.4801 13.2698 21.3201C12.1298 25.6801 10.8899 27.9501 12.9499 30.3501C13.6799 31.2001 14.6298 31.6201 15.5798 31.6201C16.3498 31.6201 17.1298 31.3401 17.7798 30.7801C19.2398 29.5301 20.3698 30.4001 20.8998 28.1501C21.3898 26.1001 20.2098 23.3701 19.9598 22.1201C19.7198 20.9101 17.9298 19.3301 16.6098 19.3301H16.6298Z" fill="#5E5E5A"/>
</svg>
