<svg width="22" height="28" viewBox="0 0 22 28" fill="none" xmlns="http://www.w3.org/2000/svg">
<path d="M13.2087 23.0205C11.1887 22.7205 9.12875 22.5705 7.08875 22.5705H6.80875C4.85875 22.5805 2.89875 22.7405 0.96875 23.0205V22.1805C2.85875 21.9505 4.83876 21.7905 6.81876 21.7705H7.09875C9.15875 21.7705 11.2388 21.9305 13.2888 22.2505L13.2288 23.0105L13.2087 23.0205Z" fill="#D3D3D3"/>
<path d="M7.07889 21.8502C9.09889 21.8502 11.1289 22.0102 13.1289 22.3102V22.9302C11.1289 22.6402 9.09889 22.4902 7.07889 22.4902H6.79889C4.87889 22.5002 2.9389 22.6502 1.0289 22.9302V22.3102C2.9289 22.0202 4.87889 21.8602 6.79889 21.8502H7.07889ZM7.07889 21.7002C6.98889 21.7002 6.89889 21.7002 6.79889 21.7002C4.57889 21.7202 2.58891 21.9202 0.878906 22.1802V23.1002C2.59891 22.8402 4.58889 22.6502 6.79889 22.6402C6.88889 22.6402 6.98889 22.6402 7.07889 22.6402C9.40889 22.6402 11.4989 22.8402 13.2789 23.1002V22.1802C11.5089 21.9002 9.41889 21.7002 7.07889 21.7002Z" fill="#5E5E5A"/>
<path d="M16.3912 27.5307C15.6512 27.5307 15.1312 26.9607 14.5312 26.3007C13.9812 25.6907 13.3612 25.0107 12.4412 24.6407C10.5912 23.9007 10.7312 23.1107 10.8912 22.1107L10.9412 21.8007C11.0112 21.3307 11.1212 21.0307 11.2412 20.7107C11.4012 20.2807 11.5912 19.7907 11.7012 18.7707C11.8512 17.4107 12.4012 17.2907 12.9512 17.2907C13.0812 17.2907 13.2212 17.2907 13.3612 17.3107L13.5812 17.3207C14.0912 17.3207 14.4312 16.9907 14.7912 16.6307C15.1812 16.2507 15.5812 15.8607 16.1712 15.7807C16.2812 15.7607 16.3912 15.7607 16.5112 15.7607C17.6912 15.7607 19.0412 16.5207 19.6712 17.2507C20.7312 18.4907 21.3612 21.4007 21.3612 23.5007C21.3612 24.1207 21.1712 24.8207 19.8012 25.3307C19.1912 25.5607 18.9112 25.9007 18.6112 26.2607C18.2512 26.7007 17.8812 27.1507 16.8712 27.4507C16.7012 27.5007 16.5412 27.5307 16.3812 27.5307H16.3912Z" fill="#D3D3D3"/>
<path d="M16.5415 15.8404C17.7015 15.8404 19.0315 16.5804 19.6415 17.3004C20.6915 18.5304 21.3115 21.4204 21.3115 23.5004C21.3115 24.0904 21.1315 24.7704 19.8015 25.2604C19.1715 25.4904 18.8715 25.8604 18.5815 26.2104C18.2315 26.6404 17.8615 27.0804 16.8715 27.3804C16.7015 27.4304 16.5515 27.4504 16.4015 27.4504C15.7015 27.4504 15.1915 26.8904 14.6015 26.2404C14.0515 25.6304 13.4215 24.9404 12.4815 24.5604C10.6915 23.8404 10.8215 23.0804 10.9815 22.1204C11.0015 22.0204 11.0215 21.9104 11.0315 21.8104C11.1015 21.3504 11.2115 21.0504 11.3315 20.7404C11.4915 20.3004 11.6815 19.8104 11.7915 18.7804C11.9315 17.4804 12.4315 17.3704 12.9615 17.3704C13.0915 17.3704 13.2315 17.3704 13.3715 17.3904H13.5915L13.6415 17.4004C14.1315 17.4004 14.4915 17.0504 14.8615 16.6904C15.2415 16.3204 15.6315 15.9404 16.2015 15.8604C16.3115 15.8404 16.4215 15.8404 16.5315 15.8404M16.5315 15.6904C16.4115 15.6904 16.2915 15.6904 16.1815 15.7104C14.9815 15.8804 14.5315 17.2504 13.6315 17.2504C13.6215 17.2504 13.6015 17.2504 13.5915 17.2504C13.3715 17.2404 13.1615 17.2204 12.9615 17.2204C12.3115 17.2204 11.7915 17.4204 11.6415 18.7604C11.4415 20.5204 11.0515 20.6604 10.8815 21.7904C10.7115 22.9104 10.3215 23.8704 12.4215 24.7104C14.3215 25.4704 14.9215 27.6104 16.3915 27.6104C16.5515 27.6104 16.7215 27.5804 16.9015 27.5304C18.7715 26.9704 18.5215 25.9004 19.8415 25.4104C21.1615 24.9204 21.4515 24.2404 21.4515 23.5104C21.4515 21.5604 20.8615 18.5204 19.7415 17.2104C19.0715 16.4204 17.6915 15.6904 16.5315 15.6904Z" fill="#5E5E5A"/>
</svg>
