<svg width="20" height="26" viewBox="0 0 20 26" fill="none" xmlns="http://www.w3.org/2000/svg">
<path d="M12.6385 21.0205C10.6185 20.7205 8.55843 20.5705 6.51843 20.5705H6.23843C4.28843 20.5805 2.31844 20.7405 0.398438 21.0205V20.1805C2.28844 19.9505 4.26844 19.7905 6.24844 19.7705H6.52844C8.58844 19.7705 10.6684 19.9305 12.7184 20.2505L12.6584 21.0105L12.6385 21.0205Z" fill="#D3D3D3"/>
<path d="M6.50861 19.8502C8.52861 19.8502 10.5586 20.0102 12.5586 20.3102V20.9302C10.5586 20.6402 8.52861 20.4902 6.50861 20.4902H6.22861C4.30861 20.5002 2.36859 20.6502 0.458588 20.9302V20.3102C2.35859 20.0202 4.30861 19.8602 6.22861 19.8502H6.50861ZM6.50861 19.7002C6.41861 19.7002 6.32861 19.7002 6.22861 19.7002C4.00861 19.7202 2.01859 19.9202 0.308594 20.1802V21.1002C2.02859 20.8402 4.01861 20.6502 6.22861 20.6402C6.31861 20.6402 6.41861 20.6402 6.50861 20.6402C8.83861 20.6402 10.9286 20.8402 12.7086 21.1002V20.1802C10.9386 19.9002 8.84861 19.7002 6.50861 19.7002Z" fill="#5E5E5A"/>
<path d="M15.6985 25.5304C14.8985 25.5304 14.2585 25.2504 13.9785 24.7704C13.6685 24.2404 13.2485 23.8604 12.8385 23.4904C12.3585 23.0604 11.8985 22.6504 11.7385 22.0504C11.4285 20.8704 11.1285 16.5804 11.7085 16.1704C11.9385 16.0104 12.2385 15.9904 12.5285 15.9904H12.9485C13.2985 15.9904 13.6985 15.9704 13.9685 15.6704L14.0785 15.5504C14.5085 15.0704 15.3185 14.1904 16.0185 14.1904C16.2585 14.1904 16.4685 14.2904 16.6485 14.5004C16.9585 14.8504 17.1885 15.1604 17.3785 15.4204C17.7585 15.9404 18.0085 16.2904 18.5285 16.4004C18.8885 16.4704 19.1785 16.7704 19.3985 17.2704C20.2285 19.1504 19.8185 23.1404 19.5585 23.5904C19.3185 23.9904 18.7985 24.1504 18.2885 24.3104C17.7885 24.4604 17.3285 24.6004 17.1985 24.9704C17.0885 25.2804 16.4285 25.5204 15.6985 25.5204V25.5304Z" fill="#D3D3D3"/>
<path d="M16.0203 14.1301V14.2801C16.2403 14.2801 16.4303 14.3701 16.6003 14.5601C16.9103 14.9101 17.1303 15.2101 17.3203 15.4801C17.7003 16.0001 17.9703 16.3701 18.5203 16.4901C18.8503 16.5601 19.1303 16.8401 19.3403 17.3201C20.1403 19.1401 19.7503 23.1401 19.5003 23.5701C19.2803 23.9501 18.7703 24.1001 18.2703 24.2501C17.7603 24.4101 17.2703 24.5601 17.1303 24.9601C17.0403 25.2001 16.4703 25.4601 15.7003 25.4601C14.9303 25.4601 14.3103 25.1901 14.0403 24.7401C13.7203 24.2001 13.3003 23.8101 12.8803 23.4501C12.3803 23.0101 11.9603 22.6301 11.8103 22.0501C11.4803 20.7901 11.2503 16.6001 11.7503 16.2501C11.9603 16.1001 12.2503 16.0801 12.5303 16.0801H12.7403H12.9503C13.3403 16.0801 13.7403 16.0401 14.0303 15.7301L14.1403 15.6101C14.5603 15.1401 15.3503 14.2701 16.0303 14.2701V14.1201M16.0303 14.1201C15.2303 14.1201 14.3403 15.1801 13.9203 15.6301C13.6803 15.8901 13.3303 15.9301 12.9603 15.9301C12.8203 15.9301 12.6803 15.9301 12.5403 15.9301C12.2303 15.9301 11.9203 15.9601 11.6803 16.1201C11.0503 16.5601 11.3903 20.9501 11.6803 22.0801C11.9703 23.2001 13.2403 23.6401 13.9303 24.8101C14.2603 25.3801 15.0103 25.6001 15.7203 25.6001C16.4603 25.6001 17.1603 25.3501 17.2903 25.0001C17.5303 24.3201 19.1603 24.4601 19.6503 23.6301C20.0003 23.0301 20.5403 16.7401 18.5703 16.3301C17.8203 16.1701 17.6503 15.4801 16.7303 14.4501C16.5203 14.2101 16.2803 14.1201 16.0403 14.1201H16.0303Z" fill="#5E5E5A"/>
</svg>
