<svg width="22" height="27" viewBox="0 0 22 27" fill="none" xmlns="http://www.w3.org/2000/svg">
<path d="M13.0681 22.0205C11.0481 21.7205 8.98815 21.5705 6.94815 21.5705H6.66815C4.71815 21.5805 2.75812 21.7405 0.828125 22.0205V21.1805C2.71812 20.9505 4.69813 20.7905 6.67813 20.7705H6.95813C9.01813 20.7705 11.0981 20.9305 13.1481 21.2505L13.0881 22.0105L13.0681 22.0205Z" fill="#D3D3D3"/>
<path d="M6.93829 20.8502C8.95829 20.8502 10.9883 21.0102 12.9883 21.3102V21.9302C10.9883 21.6402 8.95829 21.4902 6.93829 21.4902H6.65829C4.73829 21.5002 2.79831 21.6502 0.888306 21.9302V21.3102C2.78831 21.0202 4.73829 20.8602 6.65829 20.8502H6.93829ZM6.93829 20.7002C6.84829 20.7002 6.75829 20.7002 6.65829 20.7002C4.43829 20.7202 2.44828 20.9202 0.738281 21.1802V22.1002C2.45828 21.8402 4.44829 21.6502 6.65829 21.6402C6.74829 21.6402 6.84829 21.6402 6.93829 21.6402C9.26829 21.6402 11.3583 21.8402 13.1383 22.1002V21.1802C11.3683 20.9002 9.27829 20.7002 6.93829 20.7002Z" fill="#5E5E5A"/>
<path d="M13.7099 26.5299C12.6099 26.5299 11.2699 25.6099 10.7899 23.5499C10.0699 20.4999 9.9999 18.0199 10.2999 17.2499C10.3699 17.0699 10.4999 16.9899 10.7399 16.9899C10.9199 16.9899 11.1199 17.0299 11.3499 17.0699C11.6199 17.1199 11.9299 17.1799 12.2399 17.1799C12.7299 17.1799 13.1199 17.0299 13.4499 16.7399C14.0399 16.1999 14.8099 15.9199 15.6899 15.9199C16.3399 15.9199 17.0199 16.0699 17.6699 16.3699C17.8999 16.4699 18.1299 16.5199 18.3799 16.5199C18.6599 16.5199 18.9099 16.4499 19.1499 16.3899C19.3599 16.3299 19.5499 16.2799 19.7399 16.2799C20.0499 16.2799 20.4299 16.3999 20.9099 17.2799C21.6599 18.6399 21.9599 23.9499 21.3499 24.8499C21.0199 25.3299 20.3499 25.6299 19.6199 25.6299C19.1199 25.6299 18.6899 25.4799 18.4399 25.2299C18.2399 25.0299 18.0599 24.9399 17.8899 24.9399C17.6599 24.9399 17.4799 25.1099 17.2899 25.2899C17.1499 25.4199 17.0099 25.5499 16.8399 25.6499C16.7199 25.7199 16.5899 25.7499 16.4399 25.7499C16.3299 25.7499 16.2299 25.7399 16.1199 25.7199C16.0099 25.7099 15.8899 25.6899 15.7799 25.6899C15.4799 25.6899 15.2399 25.7899 15.0099 26.0199C14.6599 26.3599 14.2099 26.5399 13.7199 26.5399L13.7099 26.5299Z" fill="#D3D3D3"/>
<path d="M15.6884 15.9998C16.3184 15.9998 16.9984 16.1498 17.6384 16.4398C17.8784 16.5498 18.1184 16.5998 18.3784 16.5998C18.6684 16.5998 18.9384 16.5298 19.1684 16.4698C19.3684 16.4198 19.5584 16.3698 19.7384 16.3698C20.0284 16.3698 20.3784 16.4798 20.8384 17.3298C21.5784 18.6798 21.8884 23.9298 21.2784 24.8198C20.9684 25.2798 20.3084 25.5698 19.6084 25.5698C19.1284 25.5698 18.7184 25.4298 18.4784 25.1898C18.2584 24.9698 18.0684 24.8698 17.8784 24.8698C17.6184 24.8698 17.4284 25.0498 17.2284 25.2398C17.0984 25.3698 16.9584 25.4898 16.7884 25.5798C16.6784 25.6398 16.5684 25.6698 16.4284 25.6698C16.3284 25.6698 16.2284 25.6598 16.1184 25.6398C15.9984 25.6198 15.8884 25.6098 15.7684 25.6098C15.4484 25.6098 15.1884 25.7198 14.9484 25.9598C14.6084 26.2898 14.1784 26.4598 13.7084 26.4598C12.6384 26.4598 11.3384 25.5598 10.8584 23.5398C10.1384 20.4998 10.0684 18.0498 10.3684 17.2798C10.4184 17.1498 10.4984 17.0698 10.7384 17.0698C10.9084 17.0698 11.1084 17.1098 11.3284 17.1498C11.6084 17.1998 11.9184 17.2598 12.2384 17.2598C12.7484 17.2598 13.1584 17.1098 13.4984 16.7998C14.0684 16.2698 14.8284 15.9998 15.6884 15.9998ZM15.6884 15.8498C14.8584 15.8498 14.0484 16.0998 13.3984 16.6898C13.0384 17.0198 12.6384 17.1098 12.2384 17.1098C11.6784 17.1098 11.1284 16.9198 10.7384 16.9198C10.4984 16.9198 10.3184 16.9898 10.2284 17.2198C9.88841 18.0998 10.0284 20.6898 10.7184 23.5698C11.1984 25.5898 12.5284 26.5998 13.7184 26.5998C14.2184 26.5998 14.6984 26.4198 15.0684 26.0598C15.3184 25.8098 15.5584 25.7498 15.7884 25.7498C16.0084 25.7498 16.2284 25.8098 16.4484 25.8098C16.5884 25.8098 16.7384 25.7898 16.8784 25.7098C17.3084 25.4698 17.5484 25.0098 17.8984 25.0098C18.0384 25.0098 18.1984 25.0898 18.3984 25.2798C18.6884 25.5598 19.1484 25.7098 19.6384 25.7098C20.3184 25.7098 21.0584 25.4298 21.4284 24.8898C22.0584 23.9598 21.7684 18.6498 20.9984 17.2398C20.5484 16.4198 20.1584 16.1998 19.7584 16.1998C19.3384 16.1998 18.9084 16.4398 18.3984 16.4398C18.1884 16.4398 17.9684 16.3998 17.7184 16.2898C17.0784 15.9998 16.3884 15.8398 15.7084 15.8398L15.6884 15.8498Z" fill="#5E5E5A"/>
</svg>
