<svg width="22" height="25" viewBox="0 0 22 25" fill="none" xmlns="http://www.w3.org/2000/svg">
<path d="M12.49 20.0205C10.47 19.7205 8.41 19.5705 6.37 19.5705H6.09C4.14 19.5805 2.17 19.7405 0.25 20.0205V19.1805C2.14 18.9505 4.12001 18.7905 6.10001 18.7705H6.38C8.44 18.7705 10.52 18.9305 12.57 19.2505L12.51 20.0105L12.49 20.0205Z" fill="#D3D3D3"/>
<path d="M6.36014 18.8502C8.38014 18.8502 10.4102 19.0102 12.4102 19.3102V19.9302C10.4102 19.6402 8.38014 19.4902 6.36014 19.4902H6.08014C4.16014 19.5002 2.22015 19.6502 0.31015 19.9302V19.3102C2.21015 19.0202 4.16014 18.8602 6.08014 18.8502H6.36014ZM6.36014 18.7002C6.27014 18.7002 6.18014 18.7002 6.08014 18.7002C3.86014 18.7202 1.87016 18.9202 0.160156 19.1802V20.1002C1.88016 19.8402 3.87014 19.6502 6.08014 19.6402C6.17014 19.6402 6.27014 19.6402 6.36014 19.6402C8.69014 19.6402 10.7802 19.8402 12.5602 20.1002V19.1802C10.7901 18.9002 8.70014 18.7002 6.36014 18.7002Z" fill="#5E5E5A"/>
<path d="M12.8907 24.5302C12.3707 24.5302 11.9107 24.3402 11.5007 23.9602C9.54073 22.1502 8.67074 16.7802 9.51074 15.6202C10.0507 14.8702 10.6007 14.5402 11.3007 14.5402C11.6907 14.5402 12.0907 14.6402 12.5107 14.7502C12.9807 14.8702 13.4807 14.9902 14.0107 14.9902C14.5907 14.9902 15.1307 14.8402 15.6707 14.5302C16.0307 14.3202 16.5507 14.2002 17.0907 14.2002C17.8107 14.2002 19.1607 14.4302 20.1407 15.9602C21.0607 17.3902 21.4307 19.4602 21.0607 20.9902C20.8707 21.7702 20.4907 22.3402 19.9807 22.6402C19.4707 22.9302 18.9807 23.0702 18.4707 23.0702C18.1107 23.0702 17.7807 23.0002 17.5007 22.9302C17.2507 22.8802 17.0207 22.8302 16.8107 22.8302C16.6907 22.8302 16.5907 22.8402 16.4907 22.8702C16.2807 22.9302 15.9807 23.1302 15.6107 23.3802C14.8907 23.8602 13.8907 24.5302 12.9207 24.5302H12.8907Z" fill="#D3D3D3"/>
<path d="M17.0801 14.1299V14.2799C17.7801 14.2799 19.1001 14.4999 20.0601 15.9999C20.9701 17.4199 21.3401 19.4599 20.9701 20.9799C20.7801 21.7399 20.4201 22.2999 19.9201 22.5799C19.4201 22.8699 18.9401 22.9999 18.4501 22.9999C18.1001 22.9999 17.7901 22.9299 17.4901 22.8699C17.2401 22.8199 17.0101 22.7599 16.7801 22.7599C16.6601 22.7599 16.5401 22.7799 16.4401 22.8099C16.2101 22.8799 15.9201 23.0799 15.5401 23.3299C14.8201 23.8099 13.8401 24.4699 12.8901 24.4699C12.3901 24.4699 11.9501 24.2899 11.5501 23.9199C9.6101 22.1199 8.75012 16.8199 9.57012 15.6699C10.0901 14.9399 10.6301 14.6199 11.2901 14.6199C11.6701 14.6199 12.0601 14.7199 12.4801 14.8299C12.9601 14.9499 13.4501 15.0799 14.0001 15.0799C14.6001 15.0799 15.1501 14.9299 15.7001 14.6099C16.0401 14.4099 16.5601 14.2899 17.0801 14.2899V14.1399M17.0801 14.1399C16.4801 14.1399 15.9501 14.2899 15.6301 14.4799C15.0501 14.8199 14.5101 14.9299 14.0101 14.9299C13.0001 14.9299 12.1301 14.4799 11.3001 14.4799C10.6801 14.4799 10.0801 14.7299 9.45013 15.5999C8.57013 16.8199 9.45013 22.1999 11.4501 24.0399C11.9101 24.4699 12.4001 24.6299 12.8901 24.6299C14.3701 24.6299 15.8501 23.1499 16.4801 22.9699C16.5801 22.9399 16.6801 22.9299 16.7801 22.9299C17.2501 22.9299 17.7701 23.1699 18.4501 23.1699C18.8901 23.1699 19.4001 23.0699 20.0001 22.7299C21.7101 21.7499 21.6001 18.1399 20.2001 15.9399C19.3201 14.5699 18.1001 14.1499 17.0901 14.1499L17.0801 14.1399Z" fill="#5E5E5A"/>
</svg>
