<svg width="22" height="24" viewBox="0 0 22 24" fill="none" xmlns="http://www.w3.org/2000/svg">
<path d="M12.9197 19.0205C10.8997 18.7205 8.83968 18.5705 6.79968 18.5705H6.51968C4.56968 18.5805 2.60969 18.7405 0.679688 19.0205V18.1805C2.56969 17.9505 4.54969 17.7905 6.52969 17.7705H6.80969C8.86969 17.7705 10.9497 17.9305 12.9997 18.2505L12.9397 19.0105L12.9197 19.0205Z" fill="#D3D3D3"/>
<path d="M6.78986 17.8502C8.80986 17.8502 10.8398 18.0102 12.8398 18.3102V18.9302C10.8398 18.6402 8.80986 18.4902 6.78986 18.4902H6.50986C4.58986 18.5002 2.64984 18.6502 0.739838 18.9302V18.3102C2.63984 18.0202 4.58986 17.8602 6.50986 17.8502H6.78986ZM6.78986 17.7002C6.69986 17.7002 6.60986 17.7002 6.50986 17.7002C4.28986 17.7202 2.29984 17.9202 0.589844 18.1802V19.1002C2.30984 18.8402 4.29986 18.6502 6.50986 18.6402C6.59986 18.6402 6.69986 18.6402 6.78986 18.6402C9.11986 18.6402 11.2098 18.8402 12.9898 19.1002V18.1802C11.2198 17.9002 9.12986 17.7002 6.78986 17.7002Z" fill="#5E5E5A"/>
<path d="M12.877 23.5296C12.137 23.5296 11.677 22.9596 11.447 21.7896C10.987 19.3396 10.9169 16.2196 11.7069 15.2696C11.8669 15.0796 12.0469 14.9796 12.2669 14.9796C12.3169 14.9796 12.3669 14.9796 12.4269 14.9996C12.7769 15.0696 13.107 15.0996 13.417 15.0996C14.557 15.0996 15.187 14.6396 15.697 14.2696C16.017 14.0396 16.2669 13.8496 16.5569 13.8496C17.0569 13.8496 17.707 14.4396 18.727 15.8196C18.877 16.0196 19.0469 16.1196 19.2669 16.1196C19.3969 16.1196 19.5269 16.0896 19.6469 16.0596C19.7669 16.0296 19.887 15.9996 20.007 15.9996C20.197 15.9996 20.4569 16.0696 20.7069 16.6396C21.2769 17.9196 21.1769 20.9396 20.3069 22.2896C20.0369 22.6996 19.727 22.9096 19.377 22.9096C18.917 22.9096 18.557 22.8896 18.257 22.8796C18.037 22.8696 17.857 22.8596 17.697 22.8596C17.237 22.8596 16.917 22.9296 16.537 23.3096C16.397 23.4496 16.2469 23.5096 16.0469 23.5096C15.7769 23.5096 15.497 23.3896 15.217 23.2696C14.967 23.1596 14.7269 23.0596 14.5269 23.0596H14.4269C14.3269 23.0796 14.2069 23.1296 14.0469 23.1996C13.7369 23.3296 13.307 23.5096 12.887 23.5096L12.877 23.5296Z" fill="#D3D3D3"/>
<path d="M16.5584 13.94C17.0384 13.94 17.6684 14.52 18.6584 15.88C18.8184 16.1 19.0184 16.21 19.2584 16.21C19.3984 16.21 19.5284 16.18 19.6584 16.14C19.7784 16.11 19.8984 16.08 19.9984 16.08C20.1684 16.08 20.3884 16.15 20.6284 16.68C21.1884 17.94 21.0984 20.93 20.2284 22.26C19.9784 22.65 19.6884 22.84 19.3684 22.84C18.9184 22.84 18.5484 22.82 18.2484 22.81C18.0284 22.8 17.8484 22.79 17.6784 22.79C17.1984 22.79 16.8684 22.87 16.4684 23.27C16.3484 23.39 16.2084 23.45 16.0384 23.45C15.7884 23.45 15.5084 23.33 15.2384 23.22C14.9784 23.11 14.7384 23.01 14.5184 23.01C14.4784 23.01 14.4384 23.01 14.3984 23.02C14.2984 23.04 14.1684 23.1 13.9984 23.16C13.6884 23.29 13.2684 23.47 12.8684 23.47C12.1684 23.47 11.7284 22.92 11.5184 21.79C11.0584 19.36 10.9884 16.27 11.7584 15.33C11.8984 15.16 12.0684 15.07 12.2584 15.07C12.3084 15.07 12.3484 15.07 12.3984 15.08C12.7484 15.15 13.0884 15.18 13.3984 15.18C14.5684 15.18 15.2284 14.69 15.7184 14.34C16.0284 14.11 16.2684 13.94 16.5384 13.94M16.5384 13.79C15.7384 13.79 15.2484 15.04 13.3984 15.04C13.1084 15.04 12.7884 15.01 12.4284 14.94C12.3684 14.93 12.3084 14.92 12.2584 14.92C10.7684 14.92 10.8384 19.02 11.3684 21.81C11.6384 23.24 12.2484 23.61 12.8684 23.61C13.4884 23.61 14.1484 23.21 14.4184 23.15C14.4484 23.15 14.4784 23.15 14.5084 23.15C14.9084 23.15 15.4984 23.6 16.0284 23.6C16.2184 23.6 16.4084 23.54 16.5684 23.38C16.9184 23.03 17.2084 22.95 17.6784 22.95C18.0684 22.95 18.5784 23.01 19.3684 23.01C21.0884 23.01 21.5284 18.36 20.7684 16.64C20.5284 16.09 20.2584 15.95 19.9984 15.95C19.7384 15.95 19.4984 16.08 19.2584 16.08C19.0884 16.08 18.9284 16.02 18.7784 15.81C17.6584 14.28 17.0484 13.81 16.5484 13.81L16.5384 13.79Z" fill="#5E5E5A"/>
</svg>
