<svg width="21" height="24" viewBox="0 0 21 24" fill="none" xmlns="http://www.w3.org/2000/svg">
<path d="M7.0611 6.00953C5.0011 6.00953 2.92109 5.84953 0.871094 5.52953L0.931091 4.76953C2.95109 5.06953 5.0211 5.21953 7.0611 5.21953H7.34109C9.29109 5.20953 11.2611 5.04953 13.1811 4.76953V5.60953C11.2911 5.83953 9.31108 5.99953 7.33109 6.01953H7.05109L7.0611 6.00953Z" fill="#D3D3D3"/>
<path d="M1.01157 4.84969C3.01157 5.13969 5.04155 5.28969 7.06155 5.28969H7.34155C9.26155 5.27969 11.2015 5.12969 13.1115 4.84969V5.46969C11.2115 5.75969 9.26155 5.91969 7.34155 5.92969H7.06155C5.04155 5.92969 3.01157 5.77969 1.01157 5.46969V4.84969ZM13.2516 4.67969C11.5316 4.93969 9.54154 5.12969 7.33154 5.13969C7.24154 5.13969 7.14154 5.13969 7.05154 5.13969C4.72154 5.13969 2.63156 4.93969 0.851562 4.67969V5.59969C2.62156 5.87969 4.71154 6.07969 7.05154 6.07969C7.14154 6.07969 7.23154 6.07969 7.33154 6.07969C9.55154 6.05969 11.5416 5.85969 13.2516 5.59969V4.67969Z" fill="#5E5E5A"/>
<path d="M16.7517 11.1503C16.3117 11.1503 15.9017 10.9503 15.5917 10.5903C15.3317 10.2903 14.9917 10.0703 14.6617 9.85031C14.0417 9.45031 13.4617 9.06031 13.3917 8.22031C13.3717 7.98031 13.3317 7.63031 13.2717 7.22031C13.0317 5.30031 12.6017 1.72031 13.3517 1.19031C13.8517 0.850311 15.5417 0.570312 17.1317 0.570312C18.5517 0.570312 19.5317 0.790311 19.7417 1.17031C20.2917 2.15031 20.0317 7.28032 19.7417 8.94032C19.5917 9.76031 19.1617 9.92031 18.7017 10.0903C18.4017 10.2003 18.1017 10.3103 17.8717 10.6103C17.6117 10.9603 17.1917 11.1603 16.7517 11.1603V11.1503Z" fill="#D3D3D3"/>
<path d="M17.1401 0.490234V0.640232C18.5101 0.640232 19.4901 0.850233 19.6801 1.20023C20.2301 2.17023 19.9601 7.27023 19.6601 8.92023C19.5201 9.70023 19.1201 9.85023 18.6601 10.0102C18.3501 10.1202 18.0301 10.2402 17.8001 10.5502C17.5501 10.8802 17.1601 11.0702 16.7401 11.0702C16.3201 11.0702 15.9301 10.8802 15.6401 10.5402C15.3801 10.2302 15.0301 10.0102 14.7001 9.79023C14.1001 9.40023 13.5301 9.02023 13.4601 8.21023C13.4401 7.97023 13.4001 7.62023 13.3401 7.20023C13.1201 5.43023 12.6701 1.74023 13.3901 1.25023C13.8701 0.920233 15.5501 0.640232 17.1301 0.640232V0.490234M17.1301 0.490234C15.5801 0.490234 13.8401 0.760232 13.3101 1.12023C12.3501 1.78023 13.1901 6.86023 13.3101 8.22023C13.4301 9.58023 14.8101 9.80023 15.5301 10.6402C15.8801 11.0402 16.3201 11.2202 16.7401 11.2202C17.2001 11.2202 17.6401 11.0102 17.9201 10.6402C18.4601 9.92023 19.5501 10.3502 19.8101 8.94024C20.1001 7.31024 20.3801 2.13023 19.8101 1.12023C19.5501 0.670232 18.4101 0.490234 17.1401 0.490234H17.1301Z" fill="#5E5E5A"/>
</svg>
