<svg width="20" height="25" viewBox="0 0 20 25" fill="none" xmlns="http://www.w3.org/2000/svg">
<path d="M6.49078 6.00953C4.43078 6.00953 2.35078 5.84953 0.300781 5.52953L0.360779 4.76953C2.38078 5.06953 4.45078 5.21953 6.49078 5.21953H6.77078C8.72078 5.20953 10.6908 5.04953 12.6108 4.76953V5.60953C10.7208 5.83953 8.7408 5.99953 6.7608 6.01953H6.4808L6.49078 6.00953Z" fill="#D3D3D3"/>
<path d="M0.449066 4.84969C2.44907 5.13969 4.47905 5.28969 6.49905 5.28969H6.77905C8.69905 5.27969 10.639 5.12969 12.549 4.84969V5.46969C10.649 5.75969 8.69905 5.91969 6.77905 5.92969H6.49905C4.47905 5.92969 2.44907 5.77969 0.449066 5.46969V4.84969ZM12.6891 4.67969C10.9691 4.93969 8.97904 5.12969 6.76904 5.13969C6.67904 5.13969 6.57904 5.13969 6.48904 5.13969C4.15904 5.13969 2.06906 4.93969 0.289062 4.67969V5.59969C2.05906 5.87969 4.14904 6.07969 6.48904 6.07969C6.57904 6.07969 6.66904 6.07969 6.76904 6.07969C8.98904 6.05969 10.9791 5.85969 12.6891 5.59969V4.67969Z" fill="#5E5E5A"/>
<path d="M15.5402 11.9205C14.5102 11.9205 12.3702 9.34055 11.9602 7.87055C11.5102 6.26055 12.1802 1.88054 12.7402 1.01054C12.9802 0.630544 13.5402 0.560547 13.9602 0.560547C14.7402 0.560547 15.6602 0.830546 15.9302 1.02055C16.0002 1.07055 16.0902 1.09055 16.2002 1.09055C16.4102 1.09055 16.6602 1.01055 16.9502 0.910545C17.3002 0.790545 17.7002 0.660545 18.0902 0.660545C18.2802 0.660545 18.4502 0.690544 18.6102 0.760544C19.9702 1.34054 19.7302 7.60055 19.1502 9.33055C19.0002 9.79055 16.6802 11.4705 15.7202 11.8905C15.6702 11.9105 15.6102 11.9205 15.5502 11.9205H15.5402Z" fill="#D3D3D3"/>
<path d="M13.9607 0.640469C14.7907 0.640469 15.6607 0.930471 15.8807 1.08047C15.9607 1.14047 16.0707 1.17047 16.1907 1.17047C16.4107 1.17047 16.6607 1.08047 16.9607 0.980469C17.3107 0.860469 17.7008 0.730469 18.0708 0.730469C18.2508 0.730469 18.4107 0.760469 18.5607 0.820469C19.8507 1.37047 19.6107 7.62047 19.0607 9.29047C18.9107 9.73047 16.6008 11.4005 15.6708 11.8105C15.6308 11.8305 15.5807 11.8405 15.5307 11.8405C14.6207 11.8405 12.4507 9.38047 12.0207 7.85047C11.5707 6.25047 12.2407 1.91047 12.8007 1.05047C13.0307 0.700468 13.5508 0.63047 13.9508 0.63047M13.9508 0.480469C13.4108 0.480469 12.9108 0.61047 12.6708 0.97047C12.0808 1.88047 11.4207 6.28047 11.8807 7.89047C12.3007 9.40047 14.4907 11.9905 15.5307 11.9905C15.6007 11.9905 15.6708 11.9805 15.7308 11.9505C16.6608 11.5405 19.0308 9.85047 19.2008 9.34047C19.7708 7.64047 20.0607 1.30047 18.6207 0.68047C18.4407 0.60047 18.2508 0.570469 18.0708 0.570469C17.3608 0.570469 16.6207 1.01047 16.1907 1.01047C16.1007 1.01047 16.0307 0.99047 15.9607 0.95047C15.6907 0.76047 14.7708 0.480469 13.9508 0.480469Z" fill="#5E5E5A"/>
</svg>
