<svg width="20" height="31" viewBox="0 0 20 31" fill="none" xmlns="http://www.w3.org/2000/svg">
<path d="M6.92828 6.00953C4.86828 6.00953 2.78828 5.84953 0.738281 5.52953L0.798279 4.76953C2.81828 5.06953 4.88828 5.21953 6.92828 5.21953H7.20828C9.15828 5.20953 11.1283 5.04953 13.0483 4.76953V5.60953C11.1583 5.83953 9.1783 5.99953 7.1983 6.01953H6.9183L6.92828 6.00953Z" fill="#D3D3D3"/>
<path d="M0.878754 4.84969C2.87875 5.13969 4.90874 5.28969 6.92874 5.28969H7.20874C9.12874 5.27969 11.0688 5.12969 12.9788 4.84969V5.46969C11.0788 5.75969 9.12874 5.91969 7.20874 5.92969H6.92874C4.90874 5.92969 2.87875 5.77969 0.878754 5.46969V4.84969ZM13.1187 4.67969C11.3987 4.93969 9.40876 5.12969 7.19876 5.13969C7.10876 5.13969 7.00876 5.13969 6.91876 5.13969C4.58876 5.13969 2.49875 4.93969 0.71875 4.67969V5.59969C2.48875 5.87969 4.57876 6.07969 6.91876 6.07969C7.00876 6.07969 7.09876 6.07969 7.19876 6.07969C9.41876 6.05969 11.4087 5.85969 13.1187 5.59969V4.67969Z" fill="#5E5E5A"/>
<path d="M16.2911 12.6C15.4911 12.6 13.2611 10.74 12.6311 9.08996C11.9111 7.20996 11.7511 3.07996 12.1111 2.24996C12.4911 1.38996 14.8411 0.489961 15.5911 0.459961C16.3811 0.459961 19.6011 3.38996 19.8111 4.27996C20.0111 5.13996 19.8911 8.59996 18.5711 10.47C17.9011 11.41 17.0611 12.24 16.4311 12.58C16.4011 12.6 16.3511 12.61 16.3011 12.61L16.2911 12.6Z" fill="#D3D3D3"/>
<path d="M15.6017 0.379883V0.529881C16.3317 0.529881 19.5417 3.44988 19.7317 4.28988C19.9317 5.13988 19.8117 8.56988 18.5017 10.4199C17.8417 11.3599 17.0117 12.1699 16.3817 12.4999C16.3617 12.5099 16.3217 12.5199 16.2917 12.5199C15.5817 12.5199 13.3617 10.7799 12.7017 9.05988C11.9817 7.18988 11.8217 3.08988 12.1817 2.27988C12.5217 1.49988 14.7917 0.569881 15.5917 0.529881V0.379883M15.5917 0.379883C15.5917 0.379883 15.5917 0.379883 15.5817 0.379883C14.7917 0.409883 12.4217 1.32988 12.0417 2.21988C11.6517 3.09988 11.8617 7.27988 12.5617 9.11988C13.2117 10.8199 15.4717 12.6799 16.2917 12.6799C16.3517 12.6799 16.4117 12.6699 16.4517 12.6399C17.0717 12.3099 17.9317 11.4999 18.6217 10.5099C19.9417 8.63988 20.0817 5.18988 19.8717 4.25988C19.6617 3.32988 16.4117 0.379883 15.5917 0.379883Z" fill="#5E5E5A"/>
</svg>
