<svg width="20" height="25" viewBox="0 0 20 25" fill="none" xmlns="http://www.w3.org/2000/svg">
<path d="M6.35794 6.00953C4.29794 6.00953 2.21797 5.84953 0.167969 5.52953L0.227966 4.76953C2.24797 5.06953 4.31794 5.21953 6.35794 5.21953H6.63797C8.58797 5.20953 10.548 5.04953 12.478 4.76953V5.60953C10.588 5.83953 8.59796 5.99953 6.62796 6.01953H6.34796L6.35794 6.00953Z" fill="#D3D3D3"/>
<path d="M0.308441 4.84969C2.30844 5.13969 4.33843 5.28969 6.35843 5.28969H6.63846C8.55846 5.27969 10.4984 5.12969 12.4084 4.84969V5.46969C10.5084 5.75969 8.55846 5.91969 6.63846 5.92969H6.35843C4.33843 5.92969 2.30844 5.77969 0.308441 5.46969V4.84969ZM12.5484 4.67969C10.8284 4.93969 8.83845 5.12969 6.62845 5.13969C6.53845 5.13969 6.43845 5.13969 6.34845 5.13969C4.01845 5.13969 1.92844 4.93969 0.148438 4.67969V5.59969C1.91844 5.87969 4.00845 6.07969 6.34845 6.07969C6.43845 6.07969 6.52845 6.07969 6.62845 6.07969C8.84845 6.05969 10.8384 5.85969 12.5484 5.59969V4.67969Z" fill="#5E5E5A"/>
<path d="M14.9809 11.3797C14.0809 11.3797 13.1609 10.4897 12.4209 9.76972C11.8809 9.23972 11.7609 8.52972 11.6009 7.52972C11.5009 6.93972 11.4009 6.26972 11.1809 5.47972C10.3509 2.46972 10.9409 2.21973 12.3609 1.62973C12.8809 1.40973 13.5309 1.13972 14.2409 0.669724C14.4409 0.539724 14.6709 0.469727 14.9209 0.469727C15.7909 0.469727 16.8109 1.24972 17.7109 1.97972C17.9109 2.14972 18.1009 2.28973 18.2609 2.40973C19.0109 2.98973 19.3309 3.22973 19.3809 4.32973C19.4409 5.61973 18.9909 8.13973 18.1509 8.96973C18.0409 9.07973 17.9109 9.21972 17.7709 9.37972C17.1409 10.0597 16.1909 11.0897 15.3509 11.3397C15.2309 11.3797 15.1009 11.3897 14.9709 11.3897L14.9809 11.3797Z" fill="#D3D3D3"/>
<path d="M14.9213 0.529881C15.7613 0.529881 16.7813 1.29988 17.6613 2.02988C17.8613 2.19988 18.0513 2.33988 18.2113 2.45988C18.9513 3.01988 19.2513 3.25988 19.3013 4.31988C19.3713 5.77988 18.8513 8.14988 18.1013 8.89988C17.9913 9.00988 17.8613 9.14988 17.7113 9.30988C17.0913 9.97988 16.1513 10.9999 15.3213 11.2499C15.2113 11.2799 15.0913 11.2999 14.9713 11.2999C14.1013 11.2999 13.1913 10.4199 12.4513 9.69988C11.9413 9.19988 11.8313 8.49988 11.6713 7.51988C11.5713 6.92988 11.4613 6.24988 11.2513 5.45988C10.4413 2.50988 11.0113 2.26988 12.3913 1.68988C12.9113 1.46988 13.5613 1.19988 14.2813 0.719883C14.4713 0.589883 14.6813 0.529881 14.9213 0.529881ZM14.9213 0.379883C14.6613 0.379883 14.4213 0.44988 14.1913 0.59988C11.5813 2.33988 9.94127 1.28988 11.1013 5.49988C11.6913 7.62988 11.4913 8.96988 12.3513 9.80988C13.1113 10.5499 14.0413 11.4599 14.9713 11.4599C15.1013 11.4599 15.2313 11.4399 15.3713 11.3999C16.4413 11.0799 17.6513 9.56988 18.2113 9.01988C19.0313 8.19988 19.5313 5.70988 19.4613 4.31988C19.3913 2.93988 18.8913 2.84988 17.7613 1.91988C16.8813 1.19988 15.8313 0.389881 14.9313 0.389881L14.9213 0.379883Z" fill="#5E5E5A"/>
</svg>
