<svg width="22" height="24" viewBox="0 0 22 24" fill="none" xmlns="http://www.w3.org/2000/svg">
<path d="M6.79156 6.00953C4.73156 6.00953 2.65156 5.84953 0.601562 5.52953L0.66156 4.76953C2.68156 5.06953 4.75156 5.21953 6.79156 5.21953H7.07156C9.02156 5.20953 10.9916 5.04953 12.9116 4.76953V5.60953C11.0216 5.83953 9.04155 5.99953 7.06155 6.01953H6.78156L6.79156 6.00953Z" fill="#D3D3D3"/>
<path d="M0.749847 4.84969C2.74985 5.13969 4.77984 5.28969 6.79984 5.28969H7.07983C8.99983 5.27969 10.9399 5.12969 12.8499 4.84969V5.46969C10.9499 5.75969 8.99983 5.91969 7.07983 5.92969H6.79984C4.77984 5.92969 2.74985 5.77969 0.749847 5.46969V4.84969ZM12.9898 4.67969C11.2698 4.93969 9.27985 5.12969 7.06985 5.13969C6.97985 5.13969 6.87986 5.13969 6.78986 5.13969C4.45986 5.13969 2.36984 4.93969 0.589844 4.67969V5.59969C2.35984 5.87969 4.44986 6.07969 6.78986 6.07969C6.87986 6.07969 6.96985 6.07969 7.06985 6.07969C9.28986 6.05969 11.2798 5.85969 12.9898 5.59969V4.67969Z" fill="#5E5E5A"/>
<path d="M16.7012 11.43C15.3312 11.43 13.8112 9.99 13.5412 9.38C13.4312 9.14 13.2112 8.84 12.9512 8.5C12.3412 7.7 11.5112 6.61 11.4512 5.23C11.3512 3.22 12.5512 1.81 13.1912 1.54C13.5212 1.4 13.7212 1.22 13.9412 1.04C14.2212 0.800001 14.5212 0.55 15.1112 0.32C15.2212 0.28 15.3612 0.25 15.5012 0.25C16.5212 0.25 18.1112 1.27 19.2612 2.01L19.6612 2.26C20.8712 3.03 21.4312 4.93 20.9912 6.79C20.4712 9 20.0212 9.31 19.2112 9.88C18.8612 10.12 18.4712 10.4 17.9812 10.88C17.6212 11.23 17.1812 11.42 16.6912 11.42L16.7012 11.43Z" fill="#D3D3D3"/>
<path d="M15.5094 0.329689C16.5094 0.329689 18.0794 1.33969 19.2294 2.07969L19.6294 2.33969C20.8094 3.08969 21.3593 4.95969 20.9293 6.78969C20.4193 8.96969 19.9793 9.27968 19.1793 9.83968C18.8493 10.0697 18.4294 10.3597 17.9394 10.8497C17.5894 11.1897 17.1694 11.3597 16.6994 11.3597C15.3594 11.3597 13.8793 9.94969 13.6093 9.35969C13.4993 9.10969 13.2694 8.80969 13.0094 8.46969C12.4094 7.67969 11.5893 6.58969 11.5193 5.23969C11.4193 3.26969 12.5893 1.88969 13.2093 1.61969C13.5493 1.47969 13.7594 1.29969 13.9794 1.10969C14.2594 0.869688 14.5494 0.629689 15.1294 0.399689C15.2294 0.359689 15.3593 0.339687 15.4993 0.339687M15.4993 0.189686C15.3493 0.189686 15.1993 0.209686 15.0793 0.259686C13.9993 0.679686 13.8693 1.17969 13.1493 1.48969C12.4293 1.79969 11.2693 3.26969 11.3693 5.24969C11.4693 7.22969 13.1194 8.62969 13.4694 9.41969C13.7394 10.0197 15.2494 11.5097 16.6994 11.5097C17.1694 11.5097 17.6294 11.3497 18.0394 10.9497C19.7094 9.32968 20.3194 9.97969 21.0694 6.81969C21.4894 5.02969 21.0293 3.03969 19.7093 2.20969C18.5493 1.46969 16.6794 0.179688 15.5094 0.179688L15.4993 0.189686Z" fill="#5E5E5A"/>
</svg>
