<svg width="24" height="24" viewBox="0 0 24 24" fill="none" xmlns="http://www.w3.org/2000/svg">
<path d="M6.22906 6.00953C4.16906 6.00953 2.08906 5.84953 0.0390625 5.52953L0.0990601 4.76953C2.11906 5.06953 4.18906 5.21953 6.22906 5.21953H6.50906C8.45906 5.20953 10.4291 5.04953 12.3491 4.76953V5.60953C10.4591 5.83953 8.47905 5.99953 6.49905 6.01953H6.21906L6.22906 6.00953Z" fill="#D3D3D3"/>
<path d="M0.179535 4.84969C2.17953 5.13969 4.20955 5.28969 6.22955 5.28969H6.50955C8.42955 5.27969 10.3695 5.12969 12.2795 4.84969V5.46969C10.3795 5.75969 8.42955 5.91969 6.50955 5.92969H6.22955C4.20955 5.92969 2.17953 5.77969 0.179535 5.46969V4.84969ZM12.4196 4.67969C10.6996 4.93969 8.70954 5.12969 6.49954 5.13969C6.40954 5.13969 6.30954 5.13969 6.21954 5.13969C3.88954 5.13969 1.79953 4.93969 0.0195312 4.67969V5.59969C1.78953 5.87969 3.87954 6.07969 6.21954 6.07969C6.30954 6.07969 6.39954 6.07969 6.49954 6.07969C8.71954 6.05969 10.7096 5.85969 12.4196 5.59969V4.67969Z" fill="#5E5E5A"/>
<path d="M17.1686 9.38C16.5086 9.38 15.8786 9.21 15.2586 9.04C14.6986 8.89 14.1786 8.74 13.6786 8.74H13.5286C13.3586 8.76 13.1886 8.76 13.0286 8.76C12.1286 8.76 11.1886 8.59 10.4586 7.35C9.65858 6 9.27858 1.79 10.6486 0.84C11.2086 0.45 11.9886 0.25 12.9586 0.25C13.8686 0.25 14.7786 0.419999 15.3786 0.529999L15.4986 0.549999C15.6286 0.569999 15.7586 0.59 15.8886 0.59C16.1886 0.59 16.4786 0.529999 16.7786 0.459999C17.1286 0.389999 17.4886 0.310001 17.9286 0.310001C19.0786 0.310001 20.4186 0.859999 22.1586 2.05C23.8186 3.18 23.2086 6.48 22.6586 8.06C22.3486 8.95 21.2486 8.98 20.0786 9.01C19.3986 9.03 18.6986 9.05 18.0886 9.23C17.7986 9.32 17.4986 9.36 17.1686 9.36V9.38Z" fill="#D3D3D3"/>
<path d="M12.9593 0.179688V0.329689C13.8593 0.329689 14.7593 0.499688 15.3593 0.609688L15.4793 0.629688C15.6093 0.649688 15.7393 0.669685 15.8793 0.669685C16.1893 0.669685 16.4793 0.609688 16.7893 0.539688C17.1393 0.469688 17.4893 0.389687 17.9293 0.389687C18.6393 0.389687 19.8493 0.569686 22.1193 2.11969C23.7393 3.22969 23.1393 6.47969 22.5893 8.03969C22.2993 8.87969 21.2693 8.90969 20.0793 8.93969C19.3993 8.95969 18.6893 8.97969 18.0693 9.16969C17.7893 9.25969 17.4893 9.29969 17.1693 9.29969C16.5193 9.29969 15.8893 9.12969 15.2793 8.95969C14.7193 8.80969 14.1893 8.65969 13.6793 8.65969C13.6293 8.65969 13.5793 8.65969 13.5193 8.65969C13.3493 8.66969 13.1793 8.67969 13.0193 8.67969C12.1393 8.67969 11.2293 8.50968 10.5093 7.30968C9.71933 5.97968 9.33932 1.82969 10.6793 0.899689C11.2293 0.519689 11.9893 0.329689 12.9493 0.329689V0.179688M12.9493 0.179688C12.1093 0.179688 11.2593 0.319686 10.5993 0.779686C9.16933 1.76969 9.58934 6.04969 10.3893 7.38969C11.0793 8.54969 11.9593 8.82969 13.0293 8.82969C13.1893 8.82969 13.3593 8.82969 13.5393 8.80968C13.5893 8.80968 13.6393 8.80968 13.6893 8.80968C14.7093 8.80968 15.9093 9.44968 17.1693 9.44968C17.4793 9.44968 17.7893 9.40969 18.1093 9.31969C19.7893 8.81969 22.2193 9.55969 22.7293 8.09969C23.3793 6.23969 23.8293 3.10969 22.1993 1.99969C20.1193 0.579687 18.8493 0.249687 17.9193 0.249687C17.0793 0.249687 16.5093 0.529686 15.8793 0.529686C15.7593 0.529686 15.6393 0.519687 15.5093 0.499687C14.8893 0.389687 13.9393 0.189686 12.9593 0.189686L12.9493 0.179688Z" fill="#5E5E5A"/>
</svg>
