<svg width="21" height="23" viewBox="0 0 21 23" fill="none" xmlns="http://www.w3.org/2000/svg">
<path d="M6.66266 6.00953C4.60266 6.00953 2.52266 5.84953 0.472656 5.52953L0.532654 4.76953C2.55265 5.06953 4.62266 5.21953 6.66266 5.21953H6.94266C8.89266 5.20953 10.8627 5.04953 12.7827 4.76953V5.60953C10.8927 5.83953 8.91265 5.99953 6.93265 6.01953H6.65265L6.66266 6.00953Z" fill="#D3D3D3"/>
<path d="M0.620941 4.84969C2.62094 5.13969 4.65096 5.28969 6.67096 5.28969H6.95096C8.87096 5.27969 10.8109 5.12969 12.7209 4.84969V5.46969C10.8209 5.75969 8.87096 5.91969 6.95096 5.92969H6.67096C4.65096 5.92969 2.62094 5.77969 0.620941 5.46969V4.84969ZM12.8609 4.67969C11.1409 4.93969 9.15095 5.12969 6.94095 5.13969C6.85095 5.13969 6.75095 5.13969 6.66095 5.13969C4.33095 5.13969 2.24094 4.93969 0.460938 4.67969V5.59969C2.23094 5.87969 4.32095 6.07969 6.66095 6.07969C6.75095 6.07969 6.84095 6.07969 6.94095 6.07969C9.16095 6.05969 11.1509 5.85969 12.8609 5.59969V4.67969Z" fill="#5E5E5A"/>
<path d="M14.4221 9.36977C14.0521 9.36977 13.5121 9.01977 13.0021 8.67977C12.4521 8.31977 11.8821 7.94976 11.4421 7.94976C11.3921 7.94976 11.3521 7.94977 11.3021 7.95977L11.1321 7.99977C10.8021 8.06977 10.4521 8.13977 10.1521 8.13977C9.71213 8.13977 9.45214 7.98977 9.32214 7.66977C8.98214 6.85977 8.51215 4.62977 9.14215 2.04977C9.50215 0.569767 10.6521 0.259766 11.5521 0.259766C12.5021 0.259766 13.4721 0.599765 13.9821 0.919765C14.2321 1.07977 14.5321 1.14977 14.9321 1.14977C15.1821 1.14977 15.4621 1.11977 15.7521 1.08977C16.0821 1.05977 16.4421 1.01977 16.8221 1.01977C17.6021 1.01977 18.2821 1.17977 18.9621 1.51977C21.0321 2.56977 20.8021 6.00977 19.8521 7.98977C19.7121 8.26976 19.6221 8.29977 19.5521 8.29977C19.4421 8.29977 19.3121 8.19977 19.1621 8.07977C18.9121 7.88977 18.6121 7.65977 18.1721 7.61977C17.6821 7.61977 17.3321 7.91976 16.9221 8.26976C16.3421 8.75976 15.6321 9.36977 14.4721 9.36977H14.4421H14.4221Z" fill="#D3D3D3"/>
<path d="M11.5512 0.330158C12.4812 0.330158 13.4412 0.670156 13.9412 0.980156C14.2012 1.15016 14.5212 1.22016 14.9312 1.22016C15.1912 1.22016 15.4612 1.19016 15.7512 1.16016C16.0912 1.13016 16.4412 1.09016 16.8112 1.09016C17.5812 1.09016 18.2512 1.25016 18.9112 1.58016C21.1112 2.70016 20.5412 6.34015 19.7612 7.95015C19.7112 8.05015 19.6212 8.22016 19.5312 8.22016C19.4512 8.22016 19.3212 8.12015 19.1812 8.02015C18.9412 7.84015 18.6112 7.58016 18.1512 7.54016C18.1212 7.54016 18.0912 7.54016 18.0712 7.54016C17.6312 7.54016 17.2612 7.85016 16.8412 8.21016C16.2412 8.72016 15.5712 9.29016 14.4112 9.29016C14.0612 9.29016 13.5412 8.94016 13.0312 8.61016C12.4512 8.23016 11.9012 7.86016 11.4312 7.86016C11.3812 7.86016 11.3312 7.86016 11.2812 7.87016L11.1112 7.91016C10.7812 7.98016 10.4412 8.05016 10.1512 8.05016C9.74122 8.05016 9.51125 7.92016 9.39125 7.62016C9.06125 6.81016 8.59123 4.61016 9.22123 2.05016C9.57123 0.620156 10.6812 0.320156 11.5612 0.320156M11.5612 0.170155C10.4812 0.170155 9.42122 0.610157 9.08122 2.02016C8.43122 4.70016 8.95124 6.92016 9.26124 7.69016C9.42124 8.09016 9.76123 8.21016 10.1612 8.21016C10.5212 8.21016 10.9412 8.11016 11.3312 8.03016C11.3712 8.03016 11.4112 8.02015 11.4512 8.02015C12.2812 8.02015 13.6212 9.43016 14.4212 9.44016C14.4312 9.44016 14.4412 9.44016 14.4512 9.44016C16.4512 9.44016 17.1412 7.68016 18.0812 7.68016C18.1012 7.68016 18.1312 7.68016 18.1512 7.68016C18.8612 7.74016 19.2312 8.36016 19.5412 8.36016C19.6612 8.36016 19.7812 8.27016 19.9012 8.00016C20.7812 6.17016 21.2112 2.56016 18.9812 1.43016C18.1812 1.03016 17.4612 0.920155 16.8112 0.920155C16.0912 0.920155 15.4612 1.05016 14.9212 1.05016C14.5812 1.05016 14.2812 1.00016 14.0112 0.830158C13.5012 0.510158 12.5112 0.160156 11.5412 0.160156L11.5612 0.170155Z" fill="#5E5E5A"/>
</svg>
