<svg width="22" height="21" viewBox="0 0 22 21" fill="none" xmlns="http://www.w3.org/2000/svg">
<path d="M7.10016 6.00953C5.04016 6.00953 2.96016 5.84953 0.910156 5.52953L0.970154 4.76953C2.99015 5.06953 5.06016 5.21953 7.10016 5.21953H7.38016C9.33016 5.20953 11.3002 5.04953 13.2202 4.76953V5.60953C11.3302 5.83953 9.34015 5.99953 7.37015 6.01953H7.09015L7.10016 6.00953Z" fill="#D3D3D3"/>
<path d="M1.0506 4.84969C3.0506 5.13969 5.08062 5.28969 7.10062 5.28969H7.38062C9.30062 5.27969 11.2406 5.12969 13.1506 4.84969V5.46969C11.2506 5.75969 9.30062 5.91969 7.38062 5.92969H7.10062C5.08062 5.92969 3.0506 5.77969 1.0506 5.46969V4.84969ZM13.2906 4.67969C11.5706 4.93969 9.58061 5.12969 7.37061 5.13969C7.28061 5.13969 7.18061 5.13969 7.09061 5.13969C4.76061 5.13969 2.67062 4.93969 0.890625 4.67969V5.59969C2.66062 5.87969 4.75061 6.07969 7.09061 6.07969C7.18061 6.07969 7.27061 6.07969 7.37061 6.07969C9.59061 6.05969 11.5806 5.85969 13.2906 5.59969V4.67969Z" fill="#5E5E5A"/>
<path d="M18.3195 8.03C17.5795 8.03 16.9195 7.56 16.3895 7.18C16.0595 6.94 15.7695 6.74 15.5195 6.68C15.4295 6.66 15.3195 6.65 15.1895 6.65C14.8595 6.65 14.4295 6.71 13.9695 6.78C13.4295 6.86 12.8795 6.94 12.3895 6.94C11.8995 6.94 11.5795 6.86 11.3795 6.69C10.5595 6.01 10.5295 4.38 10.5695 2.63C10.6095 0.980001 11.6294 0.25 12.6094 0.25C12.7694 0.25 12.9395 0.270001 13.0995 0.310001L13.3495 0.369999C14.0595 0.529999 14.5195 0.639999 15.0895 0.639999C15.4495 0.639999 15.8495 0.59 16.3395 0.5C16.5095 0.46 16.6795 0.450001 16.8395 0.450001C17.5395 0.450001 18.0995 0.74 18.5395 0.98C18.7795 1.11 18.9795 1.21 19.1595 1.25C19.2195 1.26 19.2894 1.26 19.3594 1.26H19.7295C20.2695 1.26 20.7895 1.44 21.0395 2.83C21.4195 4.97 20.5395 6.87 19.4795 7.63C19.0995 7.9 18.7195 8.03 18.3295 8.03H18.3195Z" fill="#D3D3D3"/>
<path d="M12.6196 0.329926C12.7796 0.329926 12.9396 0.349925 13.0996 0.379925L13.3496 0.439922C14.0296 0.599922 14.5296 0.709923 15.1096 0.709923C15.4796 0.709923 15.8796 0.659925 16.3696 0.559925C16.5296 0.529925 16.6896 0.509922 16.8496 0.509922C17.5296 0.509922 18.0796 0.799922 18.5196 1.02992C18.7596 1.15992 18.9696 1.26992 19.1596 1.29992C19.2196 1.30992 19.2996 1.31992 19.3696 1.31992C19.4296 1.31992 19.4896 1.31992 19.5496 1.31992C19.6096 1.31992 19.6796 1.31992 19.7396 1.31992C20.2096 1.31992 20.7296 1.43993 20.9696 2.82993C21.3396 4.93993 20.4796 6.80992 19.4396 7.55992C19.0696 7.81992 18.7096 7.94992 18.3296 7.94992C17.6196 7.94992 16.9596 7.48992 16.4396 7.10992C16.0996 6.86992 15.8096 6.65992 15.5496 6.59992C15.4596 6.57992 15.3396 6.56992 15.2096 6.56992C14.8796 6.56992 14.4396 6.62992 13.9796 6.69992C13.4496 6.77992 12.8896 6.85992 12.4096 6.85992C11.9296 6.85992 11.6296 6.77992 11.4396 6.62992C10.6396 5.96992 10.6196 4.35992 10.6596 2.62992C10.6996 1.02992 11.6796 0.319923 12.6196 0.319923M12.6196 0.169922C11.5096 0.169922 10.5496 1.00992 10.5096 2.62992C10.4596 4.48992 10.5096 6.05992 11.3396 6.74992C11.5796 6.94992 11.9596 7.01992 12.3996 7.01992C13.3196 7.01992 14.4996 6.72992 15.1996 6.72992C15.3196 6.72992 15.4196 6.72992 15.5096 6.75992C16.1396 6.90992 17.1196 8.10992 18.3296 8.10992C18.7096 8.10992 19.1096 7.98993 19.5296 7.68993C20.6796 6.86993 21.4896 4.89993 21.1196 2.80993C20.8596 1.31993 20.2596 1.16992 19.7396 1.16992C19.6096 1.16992 19.4796 1.16992 19.3696 1.16992C19.2996 1.16992 19.2396 1.16992 19.1796 1.15992C18.7096 1.06992 17.9496 0.359924 16.8496 0.359924C16.6896 0.359924 16.5196 0.379924 16.3396 0.409924C15.8396 0.509924 15.4596 0.549923 15.1096 0.549923C14.4896 0.549923 13.9696 0.419923 13.1396 0.229923C12.9696 0.189923 12.7996 0.169922 12.6296 0.169922H12.6196Z" fill="#5E5E5A"/>
</svg>
