<svg width="20" height="24" viewBox="0 0 20 24" fill="none" xmlns="http://www.w3.org/2000/svg">
<path d="M6.63141 6.00953C4.57141 6.00953 2.49141 5.84953 0.441406 5.52953L0.501404 4.76953C2.5214 5.06953 4.59141 5.21953 6.63141 5.21953H6.91141C8.86141 5.20953 10.8314 5.04953 12.7514 4.76953V5.60953C10.8614 5.83953 8.8714 5.99953 6.9014 6.01953H6.6214L6.63141 6.00953Z" fill="#D3D3D3"/>
<path d="M0.581848 4.84969C2.58185 5.13969 4.61187 5.28969 6.63187 5.28969H6.91187C8.83187 5.27969 10.7719 5.12969 12.6819 4.84969V5.46969C10.7819 5.75969 8.83187 5.91969 6.91187 5.92969H6.63187C4.61187 5.92969 2.58185 5.77969 0.581848 5.46969V4.84969ZM12.8219 4.67969C11.1019 4.93969 9.11186 5.12969 6.90186 5.13969C6.81186 5.13969 6.71186 5.13969 6.62186 5.13969C4.29186 5.13969 2.20187 4.93969 0.421875 4.67969V5.59969C2.19187 5.87969 4.28186 6.07969 6.62186 6.07969C6.71186 6.07969 6.80186 6.07969 6.90186 6.07969C9.12186 6.05969 11.1119 5.85969 12.8219 5.59969V4.67969Z" fill="#5E5E5A"/>
<path d="M15.4485 11.1505C15.0085 11.1505 14.5885 10.9405 14.3285 10.6005C14.1085 10.3005 13.7985 10.1905 13.4985 10.0805C13.0385 9.91055 12.5985 9.75055 12.4585 8.93055C12.1585 7.28055 11.8985 2.14055 12.4585 1.16055C12.6685 0.790545 13.6485 0.560547 15.0685 0.560547C16.6585 0.560547 18.3485 0.840546 18.8485 1.18055C19.5985 1.70055 19.1685 5.28054 18.9285 7.20054C18.8785 7.62054 18.8385 7.97054 18.8085 8.21054C18.7385 9.06054 18.1485 9.44054 17.5385 9.84054C17.2085 10.0605 16.8685 10.2805 16.6085 10.5805C16.2985 10.9405 15.8885 11.1405 15.4485 11.1405V11.1505Z" fill="#D3D3D3"/>
<path d="M15.0497 0.640232C16.6297 0.640232 18.2997 0.910233 18.7897 1.25023C19.5097 1.75023 19.0597 5.43023 18.8397 7.20023C18.7897 7.62023 18.7497 7.97023 18.7197 8.21023C18.6497 9.02023 18.0797 9.39023 17.4797 9.79023C17.1497 10.0102 16.7997 10.2402 16.5397 10.5402C16.2497 10.8802 15.8497 11.0702 15.4397 11.0702C15.0297 11.0702 14.6297 10.8702 14.3797 10.5502C14.1397 10.2402 13.8297 10.1202 13.5197 10.0102C13.0597 9.84023 12.6597 9.70023 12.5197 8.92023C12.2197 7.28023 11.9597 2.17023 12.4997 1.20023C12.6897 0.860233 13.6697 0.640232 15.0397 0.640232M15.0397 0.490234C13.7697 0.490234 12.6197 0.670232 12.3697 1.12023C11.7997 2.13023 12.0797 7.30024 12.3697 8.94024C12.6197 10.3502 13.7197 9.92023 14.2597 10.6402C14.5397 11.0102 14.9797 11.2202 15.4397 11.2202C15.8697 11.2202 16.3097 11.0402 16.6497 10.6402C17.3697 9.80023 18.7497 9.58023 18.8697 8.22023C18.9897 6.86023 19.8297 1.79023 18.8697 1.12023C18.3397 0.750232 16.5997 0.490234 15.0497 0.490234H15.0397Z" fill="#5E5E5A"/>
</svg>
