<svg width="21" height="25" viewBox="0 0 21 25" fill="none" xmlns="http://www.w3.org/2000/svg">
<path d="M7.19 6.00953C5.13 6.00953 3.05 5.84953 1 5.52953L1.06 4.76953C3.08 5.06953 5.15 5.21953 7.19 5.21953H7.47C9.42 5.20953 11.39 5.04953 13.31 4.76953V5.60953C11.42 5.83953 9.43999 5.99953 7.45999 6.01953H7.17999L7.19 6.00953Z" fill="#D3D3D3"/>
<path d="M1.14047 4.84969C3.14047 5.13969 5.17046 5.28969 7.19046 5.28969H7.47046C9.39046 5.27969 11.3304 5.12969 13.2404 4.84969V5.46969C11.3404 5.75969 9.39046 5.91969 7.47046 5.92969H7.19046C5.17046 5.92969 3.14047 5.77969 1.14047 5.46969V4.84969ZM13.3805 4.67969C11.6605 4.93969 9.67045 5.12969 7.46045 5.13969C7.37045 5.13969 7.27045 5.13969 7.18045 5.13969C4.85045 5.13969 2.76047 4.93969 0.980469 4.67969V5.59969C2.75047 5.87969 4.84045 6.07969 7.18045 6.07969C7.27045 6.07969 7.36045 6.07969 7.46045 6.07969C9.68045 6.05969 11.6705 5.85969 13.3805 5.59969V4.67969Z" fill="#5E5E5A"/>
<path d="M16.6596 11.9196C16.5996 11.9196 16.5396 11.9096 16.4896 11.8896C15.5296 11.4696 13.2096 9.78957 13.0596 9.32957C12.4796 7.59957 12.2396 1.33957 13.5996 0.759567C13.7596 0.689567 13.9296 0.659569 14.1196 0.659569C14.5096 0.659569 14.9096 0.789569 15.2596 0.909569C15.5496 1.00957 15.7996 1.08957 16.0096 1.08957C16.1196 1.08957 16.2096 1.06957 16.2796 1.01957C16.5396 0.839569 17.4596 0.55957 18.2396 0.55957C18.6596 0.55957 19.2096 0.639567 19.4596 1.00957C20.0196 1.87957 20.6996 6.25957 20.2396 7.86957C19.8396 9.29957 17.6596 11.9196 16.6596 11.9196Z" fill="#D3D3D3"/>
<path d="M18.2394 0.639999C18.6394 0.639999 19.1695 0.710001 19.3895 1.06C19.9495 1.92 20.6095 6.26 20.1695 7.86C19.7395 9.39 17.5695 11.85 16.6595 11.85C16.6095 11.85 16.5594 11.85 16.5194 11.82C15.5894 11.41 13.2795 9.74 13.1295 9.3C12.5695 7.63 12.3295 1.38 13.6295 0.830002C13.7795 0.770002 13.9395 0.740002 14.1195 0.740002C14.4895 0.740002 14.8895 0.870002 15.2295 0.990002C15.5295 1.09 15.7795 1.18 15.9995 1.18C16.1295 1.18 16.2295 1.15 16.3095 1.09C16.5295 0.94 17.3995 0.650002 18.2295 0.650002M18.2295 0.5C17.4095 0.5 16.4895 0.780001 16.2195 0.970001C16.1595 1.01 16.0794 1.03 15.9894 1.03C15.5494 1.03 14.8194 0.59 14.1094 0.59C13.9194 0.59 13.7395 0.620001 13.5595 0.700001C12.1195 1.31 12.4095 7.66 12.9795 9.36C13.1495 9.87 15.5195 11.56 16.4495 11.97C16.5095 12 16.5795 12.01 16.6495 12.01C17.6895 12.01 19.8794 9.42 20.2994 7.91C20.7494 6.3 20.0995 1.9 19.5095 0.990002C19.2695 0.630002 18.7695 0.5 18.2295 0.5Z" fill="#5E5E5A"/>
</svg>
