<svg width="21" height="31" viewBox="0 0 21 31" fill="none" xmlns="http://www.w3.org/2000/svg">
<path d="M6.76031 6.00953C4.70031 6.00953 2.62031 5.84953 0.570312 5.52953L0.63031 4.76953C2.65031 5.06953 4.72031 5.21953 6.76031 5.21953H7.04031C8.99031 5.20953 10.9603 5.04953 12.8803 4.76953V5.60953C10.9903 5.83953 9.0103 5.99953 7.0303 6.01953H6.75031L6.76031 6.00953Z" fill="#D3D3D3"/>
<path d="M0.710785 4.84969C2.71078 5.13969 4.7408 5.28969 6.7608 5.28969H7.0408C8.9608 5.27969 10.9008 5.12969 12.8108 4.84969V5.46969C10.9108 5.75969 8.9608 5.91969 7.0408 5.92969H6.7608C4.7408 5.92969 2.71078 5.77969 0.710785 5.46969V4.84969ZM12.9508 4.67969C11.2308 4.93969 9.24079 5.12969 7.03079 5.13969C6.94079 5.13969 6.84079 5.13969 6.75079 5.13969C4.42079 5.13969 2.33078 4.93969 0.550781 4.67969V5.59969C2.32078 5.87969 4.41079 6.07969 6.75079 6.07969C6.84079 6.07969 6.93079 6.07969 7.03079 6.07969C9.25079 6.05969 11.2408 5.85969 12.9508 5.59969V4.67969Z" fill="#5E5E5A"/>
<path d="M15.9108 12.6002C15.8608 12.6002 15.8108 12.6002 15.7808 12.5702C15.1408 12.2402 14.3008 11.4102 13.6408 10.4602C12.3208 8.59019 12.2008 5.1302 12.4008 4.2702C12.6108 3.3802 15.8308 0.450195 16.6108 0.450195C17.3708 0.480195 19.7208 1.3802 20.1008 2.2402C20.4608 3.0602 20.3008 7.2002 19.5808 9.0802C18.9508 10.7302 16.7308 12.5902 15.9208 12.5902L15.9108 12.6002Z" fill="#D3D3D3"/>
<path d="M16.6015 0.529881C17.4115 0.559881 19.6815 1.48988 20.0215 2.27988C20.3815 3.09988 20.2115 7.18988 19.5015 9.05988C18.8415 10.7899 16.6215 12.5199 15.9115 12.5199C15.8715 12.5199 15.8415 12.5199 15.8215 12.4999C15.1915 12.1699 14.3615 11.3499 13.7015 10.4199C12.4015 8.56988 12.2815 5.13988 12.4715 4.28988C12.6615 3.44988 15.8715 0.529881 16.6015 0.529881ZM16.6015 0.379883C15.7815 0.379883 12.5315 3.32988 12.3215 4.25988C12.1115 5.18988 12.2515 8.63988 13.5715 10.5099C14.2715 11.4999 15.1215 12.3099 15.7415 12.6399C15.7915 12.6599 15.8415 12.6799 15.9015 12.6799C16.7215 12.6799 18.9815 10.8199 19.6315 9.11988C20.3315 7.27988 20.5415 3.10988 20.1515 2.21988C19.7615 1.33988 17.4015 0.419883 16.6115 0.379883C16.6115 0.379883 16.6115 0.379883 16.6015 0.379883Z" fill="#5E5E5A"/>
</svg>
