<svg width="20" height="25" viewBox="0 0 20 25" fill="none" xmlns="http://www.w3.org/2000/svg">
<path d="M6.32281 6.00953C4.26281 6.00953 2.18281 5.84953 0.132812 5.52953L0.19281 4.76953C2.21281 5.06953 4.28281 5.21953 6.32281 5.21953H6.60281C8.55281 5.20953 10.5228 5.04953 12.4428 4.76953V5.60953C10.5528 5.83953 8.5728 5.99953 6.5928 6.01953H6.31281L6.32281 6.00953Z" fill="#D3D3D3"/>
<path d="M0.281097 4.84969C2.2811 5.13969 4.31109 5.28969 6.33109 5.28969H6.61108C8.53108 5.27969 10.4711 5.12969 12.3811 4.84969V5.46969C10.4811 5.75969 8.53108 5.91969 6.61108 5.92969H6.33109C4.31109 5.92969 2.2811 5.77969 0.281097 5.46969V4.84969ZM12.5211 4.67969C10.8011 4.93969 8.8111 5.12969 6.6011 5.13969C6.5111 5.13969 6.41111 5.13969 6.32111 5.13969C3.99111 5.13969 1.90109 4.93969 0.121094 4.67969V5.59969C1.89109 5.87969 3.98111 6.07969 6.32111 6.07969C6.41111 6.07969 6.5011 6.07969 6.6011 6.07969C8.82111 6.05969 10.8111 5.85969 12.5211 5.59969V4.67969Z" fill="#5E5E5A"/>
<path d="M15.2199 11.38C15.0899 11.38 14.9699 11.36 14.8399 11.33C13.9999 11.08 13.0499 10.05 12.4199 9.36996C12.2699 9.20996 12.1399 9.06996 12.0399 8.95996C11.2099 8.12996 10.7499 5.61996 10.8099 4.31996C10.8599 3.21996 11.1799 2.97996 11.9299 2.39996C12.0899 2.27996 12.2799 2.12996 12.4799 1.96996C13.3699 1.23996 14.3999 0.459961 15.2699 0.459961C15.5199 0.459961 15.7499 0.529962 15.9599 0.659962C16.6699 1.12996 17.3199 1.39996 17.8399 1.61996C19.2599 2.21996 19.8499 2.46996 19.0199 5.46996C18.7999 6.25996 18.6899 6.92996 18.5999 7.51996C18.4399 8.50996 18.3199 9.22996 17.7899 9.74996C17.0399 10.48 16.1199 11.37 15.2199 11.37V11.38Z" fill="#D3D3D3"/>
<path d="M15.2709 0.529881C15.5109 0.529881 15.7209 0.589883 15.9109 0.719883C16.6309 1.19988 17.2809 1.46988 17.8009 1.68988C19.1809 2.26988 19.7509 2.50988 18.9409 5.45988C18.7209 6.24988 18.6109 6.91988 18.5209 7.51988C18.3609 8.49988 18.2509 9.20988 17.7209 9.71988C16.9909 10.4299 16.0909 11.3099 15.2209 11.3099C15.1009 11.3099 14.9809 11.2899 14.8709 11.2599C14.0509 11.0099 13.1009 9.99988 12.4809 9.31988C12.3309 9.15988 12.2009 9.01989 12.0909 8.90989C11.3409 8.15989 10.8109 5.78988 10.8909 4.32988C10.9409 3.25988 11.2509 3.02988 11.9809 2.46988C12.1409 2.33988 12.3309 2.19988 12.5309 2.03988C13.4109 1.31988 14.4309 0.539883 15.2709 0.539883M15.2709 0.389881C14.3709 0.389881 13.3209 1.19988 12.4409 1.91988C11.3109 2.84988 10.8109 2.93988 10.7409 4.31988C10.6709 5.69988 11.1709 8.18988 11.9909 9.01988C12.5509 9.57988 13.7609 11.0799 14.8309 11.3999C14.9609 11.4399 15.0909 11.4599 15.2309 11.4599C16.1709 11.4599 17.1009 10.5499 17.8509 9.80988C18.7109 8.96988 18.5109 7.62988 19.1009 5.49988C20.2609 1.28988 18.6209 2.33988 16.0109 0.59988C15.7809 0.44988 15.5409 0.379883 15.2809 0.379883L15.2709 0.389881Z" fill="#5E5E5A"/>
</svg>
