<svg width="21" height="24" viewBox="0 0 21 24" fill="none" xmlns="http://www.w3.org/2000/svg">
<path d="M6.88922 6.00953C4.82922 6.00953 2.74922 5.84953 0.699219 5.52953L0.759216 4.76953C2.77922 5.06953 4.84922 5.21953 6.88922 5.21953H7.16922C9.11922 5.20953 11.0892 5.04953 13.0092 4.76953V5.60953C11.1192 5.83953 9.12923 5.99953 7.15923 6.01953H6.87923L6.88922 6.00953Z" fill="#D3D3D3"/>
<path d="M0.839691 4.84969C2.83969 5.13969 4.86969 5.28969 6.88969 5.28969H7.16969C9.08969 5.27969 11.0297 5.12969 12.9397 4.84969V5.46969C11.0397 5.75969 9.08969 5.91969 7.16969 5.92969H6.88969C4.86969 5.92969 2.83969 5.77969 0.839691 5.46969V4.84969ZM13.0797 4.67969C11.3597 4.93969 9.3697 5.12969 7.1597 5.13969C7.0697 5.13969 6.9697 5.13969 6.8797 5.13969C4.5497 5.13969 2.45969 4.93969 0.679688 4.67969V5.59969C2.44969 5.87969 4.5397 6.07969 6.8797 6.07969C6.9697 6.07969 7.0597 6.07969 7.1597 6.07969C9.3797 6.05969 11.3697 5.85969 13.0797 5.59969V4.67969Z" fill="#5E5E5A"/>
<path d="M15.4882 11.43C14.9982 11.43 14.5682 11.25 14.1982 10.89C13.7082 10.41 13.3082 10.13 12.9682 9.89C12.1582 9.32 11.7182 9.01 11.1882 6.8C10.7482 4.94 11.3082 3.04 12.5182 2.27L12.9182 2.01C14.0782 1.27 15.6582 0.25 16.6782 0.25C16.8282 0.25 16.9582 0.27 17.0682 0.32C17.6682 0.55 17.9582 0.800001 18.2382 1.04C18.4582 1.23 18.6682 1.4 18.9882 1.54C19.6182 1.81 20.8282 3.22 20.7282 5.23C20.6582 6.6 19.8282 7.7 19.2182 8.5C18.9582 8.84 18.7382 9.13 18.6282 9.38C18.3582 9.99 16.8482 11.43 15.4682 11.43H15.4882Z" fill="#D3D3D3"/>
<path d="M16.6894 0.329926C16.8294 0.329926 16.9494 0.349923 17.0594 0.389923C17.6494 0.619923 17.9294 0.859922 18.2094 1.09992C18.4294 1.28992 18.6494 1.46992 18.9794 1.60992C19.5994 1.87992 20.7694 3.24992 20.6694 5.22992C20.5994 6.57992 19.7794 7.66992 19.1794 8.45992C18.9194 8.79992 18.6894 9.09992 18.5794 9.34992C18.3194 9.93992 16.8394 11.3499 15.4894 11.3499C15.0194 11.3499 14.5994 11.1799 14.2494 10.8399C13.7494 10.3599 13.3394 10.0699 13.0094 9.82993C12.2194 9.26993 11.7794 8.95992 11.2594 6.77992C10.8294 4.94992 11.3694 3.07993 12.5594 2.32993L12.9594 2.06992C14.1094 1.32992 15.6794 0.319923 16.6794 0.319923M16.6794 0.169922C15.5094 0.169922 13.6394 1.45992 12.4794 2.19992C11.1594 3.02992 10.6994 5.01993 11.1194 6.80993C11.8694 9.96992 12.4794 9.30993 14.1494 10.9399C14.5594 11.3399 15.0194 11.4999 15.4894 11.4999C16.9294 11.4999 18.4494 9.99993 18.7194 9.40993C19.0694 8.61993 20.7194 7.21993 20.8194 5.23993C20.9194 3.25993 19.7594 1.78992 19.0394 1.47992C18.3194 1.16992 18.1994 0.679924 17.1094 0.249924C16.9794 0.199924 16.8394 0.179924 16.6894 0.179924L16.6794 0.169922Z" fill="#5E5E5A"/>
</svg>
