<svg width="23" height="24" viewBox="0 0 23 24" fill="none" xmlns="http://www.w3.org/2000/svg">
<path d="M6.45953 6.00953C4.39953 6.00953 2.31953 5.84953 0.269531 5.52953L0.329529 4.76953C2.34953 5.06953 4.41953 5.21953 6.45953 5.21953H6.73953C8.68953 5.20953 10.6595 5.04953 12.5795 4.76953V5.60953C10.6895 5.83953 8.70952 5.99953 6.72952 6.01953H6.44952L6.45953 6.00953Z" fill="#D3D3D3"/>
<path d="M0.410004 4.84969C2.41 5.13969 4.44001 5.28969 6.46001 5.28969H6.74001C8.66001 5.27969 10.6 5.12969 12.51 4.84969V5.46969C10.61 5.75969 8.66001 5.91969 6.74001 5.92969H6.46001C4.44001 5.92969 2.41 5.77969 0.410004 5.46969V4.84969ZM12.65 4.67969C10.93 4.93969 8.94 5.12969 6.73 5.13969C6.64 5.13969 6.54 5.13969 6.45 5.13969C4.12 5.13969 2.03 4.93969 0.25 4.67969V5.59969C2.02 5.87969 4.11 6.07969 6.45 6.07969C6.54 6.07969 6.63 6.07969 6.73 6.07969C8.95 6.05969 10.94 5.85969 12.65 5.59969V4.67969Z" fill="#5E5E5A"/>
<path d="M15.0207 9.37953C14.6907 9.37953 14.3907 9.33953 14.1007 9.24953C13.4907 9.06953 12.7907 9.04953 12.1007 9.02953C10.9307 8.99953 9.83067 8.96953 9.52067 8.07953C8.97067 6.49953 8.36067 3.19953 10.0207 2.06953C11.7607 0.87953 13.1107 0.329533 14.2507 0.329533C14.6907 0.329533 15.0507 0.40953 15.4007 0.47953C15.7007 0.53953 15.9907 0.609531 16.2907 0.609531C16.4107 0.609531 16.5407 0.59953 16.6807 0.56953L16.8007 0.54953C17.4007 0.43953 18.3107 0.269531 19.2207 0.269531C20.1907 0.269531 20.9707 0.469531 21.5307 0.859531C22.9007 1.80953 22.5207 6.01953 21.7207 7.36953C21.1307 8.36953 20.3807 8.77953 19.1507 8.77953C18.9907 8.77953 18.8207 8.77953 18.6507 8.75953H18.5007C18.0107 8.75953 17.4807 8.89953 16.9307 9.04953C16.3207 9.21953 15.6807 9.38953 15.0207 9.38953V9.37953Z" fill="#D3D3D3"/>
<path d="M19.23 0.329926C20.19 0.329926 20.95 0.519925 21.5 0.899925C22.84 1.82993 22.45 5.97992 21.67 7.30992C20.96 8.50992 20.04 8.67992 19.16 8.67992C19 8.67992 18.83 8.67993 18.66 8.65993C18.61 8.65993 18.56 8.65993 18.5 8.65993C18 8.65993 17.47 8.80992 16.9 8.95992C16.29 9.12992 15.66 9.29993 15.01 9.29993C14.69 9.29993 14.4 9.25992 14.11 9.16992C13.49 8.97992 12.78 8.95993 12.1 8.93993C10.91 8.90993 9.88995 8.87992 9.58995 8.03992C9.03995 6.46992 8.43996 3.21992 10.06 2.11992C12.33 0.569923 13.54 0.389923 14.25 0.389923C14.69 0.389923 15.04 0.469925 15.39 0.539925C15.7 0.609925 15.99 0.669922 16.3 0.669922C16.44 0.669922 16.57 0.659925 16.7 0.629925L16.82 0.609924C17.42 0.499924 18.32 0.329926 19.22 0.329926M19.22 0.179924C18.24 0.179924 17.28 0.369925 16.67 0.489925C16.54 0.509925 16.42 0.519924 16.3 0.519924C15.66 0.519924 15.1 0.239925 14.26 0.239925C13.33 0.239925 12.06 0.579925 9.97995 1.98993C8.35995 3.09993 8.80995 6.22992 9.44995 8.08992C9.95995 9.54992 12.39 8.80992 14.07 9.30992C14.39 9.40992 14.7 9.43993 15.01 9.43993C16.28 9.43993 17.47 8.79993 18.49 8.79993C18.54 8.79993 18.59 8.79993 18.64 8.79993C18.81 8.80993 18.98 8.81992 19.15 8.81992C20.22 8.81992 21.1 8.53992 21.79 7.37992C22.59 6.03992 23.01 1.75992 21.58 0.769924C20.92 0.309924 20.07 0.169922 19.23 0.169922L19.22 0.179924Z" fill="#5E5E5A"/>
</svg>
