<svg width="23" height="23" viewBox="0 0 23 23" fill="none" xmlns="http://www.w3.org/2000/svg">
<path d="M7.02203 6.00953C4.96203 6.00953 2.88203 5.84953 0.832031 5.52953L0.892029 4.76953C2.91203 5.06953 4.98203 5.21953 7.02203 5.21953H7.30203C9.25203 5.20953 11.222 5.04953 13.142 4.76953V5.60953C11.252 5.83953 9.27202 5.99953 7.29202 6.01953H7.01202L7.02203 6.00953Z" fill="#D3D3D3"/>
<path d="M0.980301 4.84969C2.9803 5.13969 5.0103 5.28969 7.0303 5.28969H7.3103C9.2303 5.27969 11.1703 5.12969 13.0803 4.84969V5.46969C11.1803 5.75969 9.2303 5.91969 7.3103 5.92969H7.0303C5.0103 5.92969 2.9803 5.77969 0.980301 5.46969V4.84969ZM13.2203 4.67969C11.5003 4.93969 9.51031 5.12969 7.30031 5.13969C7.21031 5.13969 7.11031 5.13969 7.02031 5.13969C4.69031 5.13969 2.60031 4.93969 0.820312 4.67969V5.59969C2.59031 5.87969 4.68031 6.07969 7.02031 6.07969C7.11031 6.07969 7.20031 6.07969 7.30031 6.07969C9.52031 6.05969 11.5103 5.85969 13.2203 5.59969V4.67969Z" fill="#5E5E5A"/>
<path d="M16.743 9.37075C15.583 9.37075 14.873 8.76074 14.293 8.27074C13.883 7.92074 13.523 7.61074 13.113 7.61074C12.603 7.65074 12.293 7.89075 12.043 8.08075C11.893 8.20075 11.753 8.30075 11.653 8.30075C11.593 8.30075 11.493 8.27074 11.353 7.99074C10.403 6.01074 10.163 2.57074 12.243 1.52074C12.913 1.18074 13.593 1.02074 14.383 1.02074C14.763 1.02074 15.123 1.06074 15.453 1.09074C15.743 1.12074 16.013 1.15075 16.273 1.15075C16.673 1.15075 16.973 1.08074 17.223 0.920742C17.733 0.600742 18.703 0.260742 19.643 0.260742C20.583 0.260742 21.693 0.570743 22.053 2.05074C22.683 4.63074 22.213 6.85074 21.873 7.67074C21.743 7.99074 21.473 8.14074 21.043 8.14074C20.743 8.14074 20.393 8.07074 20.063 8.00074L19.893 7.96074C19.893 7.96074 19.803 7.95074 19.753 7.95074C19.313 7.95074 18.743 8.32074 18.193 8.68074C17.683 9.02074 17.153 9.37075 16.773 9.37075H16.743Z" fill="#D3D3D3"/>
<path d="M19.6419 0.330433C20.5119 0.330433 21.6319 0.630432 21.9819 2.06043C22.6019 4.62043 22.1419 6.83043 21.8119 7.63043C21.6919 7.93043 21.4519 8.06043 21.0519 8.06043C20.7519 8.06043 20.4119 7.99043 20.0919 7.92043L19.9219 7.88043C19.9219 7.88043 19.8219 7.87043 19.7719 7.87043C19.3119 7.87043 18.7619 8.23043 18.1719 8.62043C17.6719 8.95043 17.1419 9.29043 16.7619 9.30043C15.6319 9.30043 14.9619 8.72043 14.3619 8.22043C13.9419 7.86043 13.5719 7.55043 13.1319 7.55043C13.1019 7.55043 13.0719 7.55043 13.0519 7.55043C12.5919 7.59043 12.2619 7.84043 12.0219 8.03043C11.8819 8.14043 11.7519 8.23043 11.6719 8.23043C11.5819 8.23043 11.4919 8.06043 11.4419 7.96043C10.6619 6.35043 10.0919 2.71043 12.2919 1.59043C12.9519 1.25043 13.6219 1.10043 14.3919 1.10043C14.7719 1.10043 15.1219 1.14043 15.4519 1.17043C15.7419 1.20043 16.0219 1.23043 16.2719 1.23043C16.6819 1.23043 17.0019 1.15043 17.2619 0.990433C17.7619 0.680433 18.7219 0.340431 19.6519 0.340431M19.6519 0.19043C18.6819 0.19043 17.6919 0.540432 17.1819 0.860432C16.9119 1.03043 16.6119 1.08043 16.2719 1.08043C15.7319 1.08043 15.1019 0.950432 14.3819 0.950432C13.7319 0.950432 13.0019 1.06043 12.2119 1.46043C9.98188 2.59043 10.4019 6.20043 11.2919 8.03043C11.4219 8.29043 11.5319 8.39043 11.6519 8.39043C11.9619 8.39043 12.3319 7.77043 13.0419 7.71043C13.0619 7.71043 13.0919 7.71043 13.1119 7.71043C14.0619 7.71043 14.7519 9.47043 16.7419 9.47043C16.7519 9.47043 16.7619 9.47043 16.7719 9.47043C17.5719 9.47043 18.9219 8.05043 19.7419 8.05043C19.7819 8.05043 19.8219 8.05043 19.8619 8.06043C20.2519 8.14043 20.6619 8.24043 21.0319 8.24043C21.4319 8.24043 21.7719 8.12043 21.9319 7.72043C22.2419 6.96043 22.7619 4.73043 22.1119 2.05043C21.7719 0.64043 20.7119 0.200432 19.6319 0.200432L19.6519 0.19043Z" fill="#5E5E5A"/>
</svg>
