<svg width="22" height="20" viewBox="0 0 22 20" fill="none" xmlns="http://www.w3.org/2000/svg">
<path d="M15.6473 16.9393C13.2573 16.3793 10.7973 16.0993 8.32735 16.0993H8.00735C5.65735 16.1293 3.30734 16.4093 1.02734 16.9293V16.0993C3.26734 15.5793 5.62735 15.2693 8.00735 15.2393H8.33734C10.8273 15.2393 13.3073 15.5493 15.7073 16.1693L15.6573 16.9293L15.6473 16.9393Z" fill="#D3D3D3"/>
<path d="M8.33921 15.3297C10.7792 15.3297 13.2092 15.6297 15.5692 16.2297V16.8497C13.1992 16.3097 10.7692 16.0297 8.33921 16.0297H8.00922C5.68922 16.0597 3.35922 16.3297 1.09922 16.8497V16.2297C3.34922 15.6597 5.66922 15.3597 7.99922 15.3297H8.32922M8.32922 15.1797C8.21922 15.1797 8.10922 15.1797 7.99922 15.1797C5.12922 15.2097 2.71922 15.6497 0.949219 16.1097V17.0297C2.77922 16.5997 5.17922 16.2097 8.00922 16.1797C8.11922 16.1797 8.22921 16.1797 8.33921 16.1797C11.3292 16.1797 13.8392 16.5897 15.7192 17.0297V16.1097C13.8992 15.6397 11.3692 15.1797 8.33921 15.1797H8.32922Z" fill="#5E5E5A"/>
<path d="M20.4783 13.8396C20.6483 14.0596 20.7883 14.2996 20.8883 14.5596C21.8683 16.9196 22.4083 18.9996 20.4883 19.5696C18.6483 19.6296 16.8083 19.6896 15.8983 19.3496C14.7183 18.4796 14.5283 17.0996 14.9283 15.4296C15.0283 15.0096 15.1983 14.5996 15.4283 14.2396C15.8883 13.5096 16.5983 12.9596 17.4583 12.7596C17.8383 12.6696 18.2183 12.6496 18.5883 12.6996C19.3483 12.8096 20.0183 13.2396 20.4783 13.8396Z" fill="#D3D3D3" stroke="#5E5E5A" stroke-width="0.15" stroke-linecap="round" stroke-linejoin="round"/>
</svg>
