<svg width="20" height="19" viewBox="0 0 20 19" fill="none" xmlns="http://www.w3.org/2000/svg">
<path d="M15.4872 15.9393C13.0972 15.3793 10.6372 15.0993 8.16719 15.0993H7.84719C5.49719 15.1293 3.14719 15.4093 0.867188 15.9293V15.0993C3.10719 14.5793 5.46719 14.2693 7.84719 14.2393H8.17719C10.6672 14.2393 13.1472 14.5493 15.5472 15.1693L15.4972 15.9293L15.4872 15.9393Z" fill="#D3D3D3"/>
<path d="M8.17906 14.3297C10.6191 14.3297 13.0491 14.6297 15.4091 15.2297V15.8497C13.0391 15.3097 10.6091 15.0297 8.17906 15.0297H7.84906C5.52906 15.0597 3.19906 15.3297 0.93906 15.8497V15.2297C3.18906 14.6597 5.50906 14.3597 7.83906 14.3297H8.16906M8.16906 14.1797C8.05906 14.1797 7.94906 14.1797 7.83906 14.1797C4.96906 14.2097 2.55906 14.6497 0.789062 15.1097V16.0297C2.61906 15.5997 5.01906 15.2097 7.84906 15.1797C7.95906 15.1797 8.06906 15.1797 8.17906 15.1797C11.1691 15.1797 13.6791 15.5897 15.5591 16.0297V15.1097C13.7391 14.6397 11.2091 14.1797 8.17906 14.1797H8.16906Z" fill="#5E5E5A"/>
<path d="M16.8806 18.5401C16.3606 18.5401 15.9306 18.5101 15.5906 18.4401C15.0806 18.3301 14.6606 17.9401 14.5406 17.4501C14.1406 15.8601 14.4006 14.4401 15.3406 13.1201C15.9206 12.6301 16.5206 12.3701 17.0906 12.3701C17.4006 12.3701 17.7106 12.4401 18.0206 12.5901C18.2506 12.7001 18.4606 12.8501 18.6206 13.0501C18.8106 13.2601 18.9506 13.5201 19.0406 13.8001C19.3806 14.8601 19.6006 15.9801 19.7006 17.1201C19.7706 17.5201 19.8206 17.9601 19.6006 18.2201C19.4606 18.3901 19.2206 18.4701 18.8706 18.4701L18.5206 18.4901C17.9606 18.5201 17.3906 18.5601 16.8706 18.5601L16.8806 18.5401Z" fill="#D3D3D3"/>
<path d="M17.0995 12.4303C17.3995 12.4303 17.6995 12.5003 17.9895 12.6403C18.2095 12.7503 18.4095 12.8903 18.5695 13.0803C18.7495 13.2903 18.8895 13.5303 18.9795 13.8003C19.3195 14.8603 19.5395 15.9703 19.6395 17.1203C19.7095 17.5003 19.7495 17.9203 19.5495 18.1503C19.4295 18.3003 19.1995 18.3703 18.8695 18.3703L18.5195 18.3903C17.9695 18.4203 17.3995 18.4603 16.8795 18.4603C16.3595 18.4603 15.9395 18.4303 15.5995 18.3603C15.1095 18.2603 14.7195 17.8903 14.6095 17.4203C14.2095 15.8503 14.4695 14.4603 15.3795 13.1803C15.9595 12.6803 16.5395 12.4303 17.0995 12.4303ZM17.0995 12.2803C16.4995 12.2803 15.8895 12.5403 15.2795 13.0603C14.2895 14.4503 14.0795 15.9203 14.4695 17.4503C14.5995 17.9803 15.0395 18.3903 15.5795 18.5003C15.9695 18.5803 16.4095 18.6103 16.8895 18.6103C17.5195 18.6103 18.2095 18.5603 18.8895 18.5203C19.9295 18.5203 19.9195 17.8003 19.7995 17.0903C19.6995 15.9503 19.4795 14.8403 19.1295 13.7603C19.0395 13.4703 18.8895 13.2103 18.6895 12.9803C18.5195 12.7803 18.2995 12.6203 18.0595 12.5003C17.7395 12.3503 17.4195 12.2803 17.0995 12.2803Z" fill="#5E5E5A"/>
</svg>
