<svg width="20" height="22" viewBox="0 0 20 22" fill="none" xmlns="http://www.w3.org/2000/svg">
<path d="M15.3309 18.9393C12.9409 18.3793 10.4809 18.0993 8.01094 18.0993H7.69094C5.34094 18.1293 2.99094 18.4093 0.710938 18.9293V18.0993C2.95094 17.5793 5.31094 17.2693 7.69094 17.2393H8.02094C10.5109 17.2393 12.9909 17.5493 15.3909 18.1693L15.3409 18.9293L15.3309 18.9393Z" fill="#D3D3D3"/>
<path d="M8.01109 17.3297C10.4511 17.3297 12.8811 17.6297 15.2411 18.2297V18.8497C12.8711 18.3097 10.4411 18.0297 8.01109 18.0297H7.68109C5.36109 18.0597 3.03109 18.3297 0.771093 18.8497V18.2297C3.02109 17.6597 5.34109 17.3597 7.67109 17.3297H8.00109M8.00109 17.1797C7.89109 17.1797 7.78109 17.1797 7.67109 17.1797C4.80109 17.2097 2.39109 17.6497 0.621094 18.1097V19.0297C2.45109 18.5997 4.85109 18.2097 7.68109 18.1797C7.79109 18.1797 7.90109 18.1797 8.01109 18.1797C11.0011 18.1797 13.5111 18.5897 15.3911 19.0297V18.1097C13.5711 17.6397 11.0411 17.1797 8.01109 17.1797H8.00109Z" fill="#5E5E5A"/>
<path d="M16.3775 21.5401C16.1875 21.5401 16.0175 21.5101 15.8575 21.4601C14.1175 20.8701 13.5675 19.0801 14.2375 16.1601C14.3375 15.6901 14.5275 15.2701 14.7775 14.8901C14.9975 14.5501 15.2675 14.2701 15.5775 14.0601C16.0275 13.7401 16.4775 13.5801 16.9275 13.5801C17.5575 13.5801 18.2075 13.9101 18.8375 14.5701C19.6575 15.9101 19.9375 17.1101 19.6875 18.2301C19.3475 19.3601 18.7175 20.3101 17.7575 21.1501C17.4575 21.4101 17.0675 21.5501 16.6575 21.5501H16.3875L16.3775 21.5401Z" fill="#D3D3D3"/>
<path d="M16.9285 13.6498C17.5385 13.6498 18.1685 13.9698 18.7685 14.5898C19.5885 15.9198 19.8685 17.0998 19.6185 18.1898C19.2885 19.3098 18.6585 20.2498 17.7185 21.0798C17.4285 21.3298 17.0585 21.4598 16.6585 21.4598H16.3885C16.2085 21.4598 16.0385 21.4298 15.8985 21.3898C14.1785 20.7998 13.6585 19.0998 14.3285 16.1798C14.4285 15.7198 14.6085 15.3098 14.8585 14.9398C15.0785 14.6098 15.3385 14.3398 15.6385 14.1298C16.0785 13.8198 16.5185 13.6598 16.9385 13.6598M16.9385 13.5098C16.4685 13.5098 16.0085 13.6798 15.5485 14.0098C15.2185 14.2398 14.9485 14.5298 14.7285 14.8598C14.4685 15.2498 14.2785 15.6898 14.1785 16.1498C13.5185 19.0798 14.0285 20.9198 15.8485 21.5398C16.0185 21.5998 16.2085 21.6198 16.3885 21.6198H16.6585C17.0785 21.6198 17.4985 21.4798 17.8085 21.1998C18.7085 20.4098 19.3985 19.4498 19.7585 18.2398C20.0385 16.9998 19.6585 15.7598 18.8885 14.5198C18.2285 13.8398 17.5685 13.5098 16.9285 13.5098H16.9385Z" fill="#5E5E5A"/>
</svg>
