<svg width="21" height="20" viewBox="0 0 21 20" fill="none" xmlns="http://www.w3.org/2000/svg">
<path d="M15.1591 16.9393C12.7691 16.3793 10.3091 16.0993 7.83906 16.0993H7.51906C5.16906 16.1293 2.81906 16.4093 0.539062 16.9293V16.0993C2.77906 15.5793 5.13906 15.2693 7.51906 15.2393H7.84906C10.3391 15.2393 12.8191 15.5493 15.2191 16.1693L15.1691 16.9293L15.1591 16.9393Z" fill="#D3D3D3"/>
<path d="M7.85094 15.3297C10.2909 15.3297 12.7209 15.6297 15.0809 16.2297V16.8497C12.7109 16.3097 10.2809 16.0297 7.85094 16.0297H7.52094C5.20094 16.0597 2.87094 16.3297 0.610937 16.8497V16.2297C2.86094 15.6597 5.18094 15.3597 7.51094 15.3297H7.84094M7.84094 15.1797C7.73094 15.1797 7.62094 15.1797 7.51094 15.1797C4.64094 15.2097 2.23094 15.6497 0.460938 16.1097V17.0297C2.29094 16.5997 4.69094 16.2097 7.52094 16.1797C7.63094 16.1797 7.74094 16.1797 7.85094 16.1797C10.8409 16.1797 13.3509 16.5897 15.2309 17.0297V16.1097C13.4109 15.6397 10.8809 15.1797 7.85094 15.1797H7.84094Z" fill="#5E5E5A"/>
<path d="M15.38 19.5302C14.6 19.5302 13.81 19.4302 13.03 19.2402C12.39 19.1702 12.07 18.7202 12.05 17.8802C11.87 16.8502 12.02 15.8402 12.51 14.8502C12.6 14.6802 12.71 14.5102 12.85 14.3602C13.91 13.2202 14.89 12.6602 15.81 12.6602C16.58 12.6602 17.34 13.0502 18.06 13.8202C18.27 14.0402 18.47 14.2902 18.68 14.5802C19.39 15.5202 19.73 16.6402 19.71 18.0002C19.67 18.7902 19.37 19.2102 18.8 19.3002C18.73 19.3102 18.67 19.3102 18.6 19.3102C18.29 19.3102 17.97 19.2002 17.71 19.0002C17.56 18.8902 17.41 18.8302 17.24 18.8302C17.03 18.8302 16.82 18.9202 16.58 19.0902C16.21 19.3602 15.8 19.5102 15.41 19.5102H15.39L15.38 19.5302Z" fill="#D3D3D3"/>
<path d="M15.7983 12.7501C16.5483 12.7501 17.2883 13.1301 17.9983 13.8901C18.2083 14.1201 18.4183 14.3701 18.6083 14.6401C19.3083 15.5601 19.6383 16.6701 19.6183 18.0101C19.5683 19.0101 19.1083 19.1901 18.7683 19.2401C18.7083 19.2401 18.6483 19.2501 18.5783 19.2501C18.2883 19.2501 17.9883 19.1501 17.7383 18.9601C17.5783 18.8401 17.4083 18.7801 17.2283 18.7801C17.0083 18.7801 16.7783 18.8701 16.5283 19.0601C16.1683 19.3201 15.7783 19.4601 15.3783 19.4601C14.6083 19.4601 13.8183 19.3601 13.0183 19.1701C12.6383 19.1301 12.1383 18.9501 12.1083 17.8601C11.9283 16.8601 12.0783 15.8601 12.5583 14.8901C12.6483 14.7201 12.7583 14.5601 12.8783 14.4201L12.9283 14.3601C13.9283 13.2901 14.8883 12.7401 15.7783 12.7401M15.7783 12.5901C14.8083 12.5901 13.8183 13.1701 12.8183 14.2601C12.7983 14.2801 12.7883 14.3001 12.7683 14.3101C12.6283 14.4601 12.5083 14.6301 12.4183 14.8101C11.9183 15.8301 11.7683 16.8501 11.9583 17.8801C11.9783 18.8101 12.3683 19.2401 12.9983 19.3101C13.7683 19.5001 14.5583 19.6001 15.3683 19.6001H15.3883C15.8283 19.6001 16.2483 19.4301 16.5983 19.1701C16.8083 19.0201 17.0083 18.9201 17.2183 18.9201C17.3583 18.9201 17.4983 18.9701 17.6383 19.0701C17.9083 19.2801 18.2383 19.3901 18.5683 19.3901C18.6383 19.3901 18.7083 19.3901 18.7783 19.3701C19.3483 19.2801 19.7083 18.8701 19.7583 18.0001C19.7783 16.4901 19.3783 15.4001 18.7183 14.5301C18.5083 14.2401 18.3083 13.9901 18.0983 13.7701C17.3483 12.9701 16.5783 12.5801 15.7883 12.5801L15.7783 12.5901Z" fill="#5E5E5A"/>
</svg>
