<svg width="21" height="20" viewBox="0 0 21 20" fill="none" xmlns="http://www.w3.org/2000/svg">
<path d="M14.8192 16.9393C12.4292 16.3793 9.96922 16.0993 7.49922 16.0993H7.17922C4.82922 16.1293 2.47922 16.4093 0.199219 16.9293V16.0993C2.43922 15.5793 4.79922 15.2693 7.17922 15.2393H7.50922C9.99922 15.2393 12.4792 15.5493 14.8792 16.1693L14.8292 16.9293L14.8192 16.9393Z" fill="#D3D3D3"/>
<path d="M7.49937 15.3297C9.93937 15.3297 12.3694 15.6297 14.7294 16.2297V16.8497C12.3594 16.3097 9.92937 16.0297 7.49937 16.0297H7.16937C4.84937 16.0597 2.51938 16.3297 0.259377 16.8497V16.2297C2.50938 15.6597 4.82938 15.3597 7.15938 15.3297H7.48937M7.48937 15.1797C7.37937 15.1797 7.26938 15.1797 7.15938 15.1797C4.28938 15.2097 1.87937 15.6497 0.109375 16.1097V17.0297C1.93938 16.5997 4.33937 16.2097 7.16937 16.1797C7.27937 16.1797 7.38937 16.1797 7.49937 16.1797C10.4894 16.1797 12.9994 16.5897 14.8794 17.0297V16.1097C13.0594 15.6397 10.5294 15.1797 7.49937 15.1797H7.48937Z" fill="#5E5E5A"/>
<path d="M14.2395 13.8396C14.0695 14.0596 13.9295 14.2996 13.8295 14.5596C12.8495 16.9196 12.3095 18.9996 14.2295 19.5696C16.0695 19.6296 17.9095 19.6896 18.8195 19.3496C19.9995 18.4796 20.1895 17.0996 19.7895 15.4296C19.6895 15.0096 19.5195 14.5996 19.2895 14.2396C18.8295 13.5096 18.1195 12.9596 17.2595 12.7596C16.8795 12.6696 16.4995 12.6496 16.1295 12.6996C15.3695 12.8096 14.6995 13.2396 14.2395 13.8396Z" fill="#D3D3D3" stroke="#5E5E5A" stroke-width="0.15" stroke-linecap="round" stroke-linejoin="round"/>
</svg>
