<svg width="19" height="19" viewBox="0 0 19 19" fill="none" xmlns="http://www.w3.org/2000/svg">
<path d="M14.9794 15.9393C12.5894 15.3793 10.1294 15.0993 7.65938 15.0993H7.33937C4.98937 15.1293 2.63937 15.4093 0.359375 15.9293V15.0993C2.59938 14.5793 4.95937 14.2693 7.33937 14.2393H7.66937C10.1594 14.2393 12.6394 14.5493 15.0394 15.1693L14.9894 15.9293L14.9794 15.9393Z" fill="#D3D3D3"/>
<path d="M7.67125 14.3297C10.1112 14.3297 12.5413 14.6297 14.9013 15.2297V15.8497C12.5313 15.3097 10.1012 15.0297 7.67125 15.0297H7.34125C5.02125 15.0597 2.69125 15.3297 0.431252 15.8497V15.2297C2.68125 14.6597 5.00125 14.3597 7.33125 14.3297H7.66125M7.66125 14.1797C7.55125 14.1797 7.44125 14.1797 7.33125 14.1797C4.46125 14.2097 2.05125 14.6497 0.28125 15.1097V16.0297C2.11125 15.5997 4.51125 15.2097 7.34125 15.1797C7.45125 15.1797 7.56125 15.1797 7.67125 15.1797C10.6612 15.1797 13.1713 15.5897 15.0513 16.0297V15.1097C13.2313 14.6397 10.7012 14.1797 7.67125 14.1797H7.66125Z" fill="#5E5E5A"/>
<path d="M15.8527 18.5296C15.3327 18.5296 14.7627 18.4996 14.2027 18.4596L13.8527 18.4396C13.5027 18.4396 13.2627 18.3596 13.1127 18.1896C12.8927 17.9296 12.9427 17.4896 13.0127 17.0996C13.1127 15.9496 13.3427 14.8396 13.6727 13.7796C13.7627 13.4996 13.9027 13.2396 14.0927 13.0296C14.2627 12.8396 14.4627 12.6796 14.7027 12.5696C15.0127 12.4296 15.3227 12.3496 15.6327 12.3496C16.2127 12.3496 16.8027 12.6096 17.4027 13.1196C18.3327 14.4296 18.5927 15.8396 18.1927 17.4296C18.0727 17.9296 17.6527 18.3196 17.1427 18.4196C16.8027 18.4896 16.3727 18.5196 15.8527 18.5196V18.5296Z" fill="#D3D3D3"/>
<path d="M15.6317 12.43C16.1917 12.43 16.7717 12.68 17.3217 13.15C18.2517 14.45 18.5117 15.85 18.1117 17.42C17.9917 17.89 17.6017 18.26 17.1217 18.36C16.7817 18.43 16.3617 18.46 15.8417 18.46C15.3217 18.46 14.7517 18.43 14.2017 18.39L13.8417 18.37C13.5217 18.37 13.2917 18.29 13.1717 18.15C12.9717 17.92 13.0217 17.5 13.0917 17.11C13.1917 15.98 13.4117 14.87 13.7517 13.81C13.8417 13.54 13.9717 13.29 14.1617 13.09C14.3217 12.9 14.5217 12.76 14.7417 12.65C15.0417 12.51 15.3417 12.44 15.6317 12.44M15.6317 12.29C15.3117 12.29 14.9917 12.36 14.6717 12.51C14.4317 12.63 14.2117 12.79 14.0417 12.99C13.8417 13.21 13.6917 13.48 13.6017 13.77C13.2617 14.85 13.0417 15.96 12.9317 17.1C12.8017 17.81 12.7917 18.53 13.8417 18.53C14.5217 18.57 15.2117 18.62 15.8417 18.62C16.3217 18.62 16.7617 18.59 17.1517 18.51C17.6917 18.4 18.1317 17.99 18.2617 17.46C18.6517 15.93 18.4417 14.46 17.4517 13.07C16.8417 12.55 16.2417 12.29 15.6317 12.29Z" fill="#5E5E5A"/>
</svg>
