<svg width="20" height="22" viewBox="0 0 20 22" fill="none" xmlns="http://www.w3.org/2000/svg">
<path d="M15.1395 18.9393C12.7495 18.3793 10.2895 18.0993 7.81953 18.0993H7.49953C5.14953 18.1293 2.79953 18.4093 0.519531 18.9293V18.0993C2.75953 17.5793 5.11953 17.2693 7.49953 17.2393H7.82954C10.3195 17.2393 12.7995 17.5493 15.1995 18.1693L15.1495 18.9293L15.1395 18.9393Z" fill="#D3D3D3"/>
<path d="M7.83141 17.3297C10.2714 17.3297 12.7014 17.6297 15.0614 18.2297V18.8497C12.6914 18.3097 10.2614 18.0297 7.83141 18.0297H7.5014C5.1814 18.0597 2.8514 18.3297 0.5914 18.8497V18.2297C2.8414 17.6597 5.1614 17.3597 7.4914 17.3297H7.8214M7.8214 17.1797C7.7114 17.1797 7.6014 17.1797 7.4914 17.1797C4.6214 17.2097 2.21141 17.6497 0.441406 18.1097V19.0297C2.27141 18.5997 4.6714 18.2097 7.5014 18.1797C7.6114 18.1797 7.72141 18.1797 7.83141 18.1797C10.8214 18.1797 13.3314 18.5897 15.2114 19.0297V18.1097C13.3914 17.6397 10.8614 17.1797 7.83141 17.1797H7.8214Z" fill="#5E5E5A"/>
<path d="M17.0791 21.5303C16.6691 21.5303 16.2691 21.3903 15.9791 21.1303C15.0191 20.2903 14.3891 19.3403 14.0491 18.2003C13.7991 17.0903 14.0791 15.8903 14.9091 14.5403C15.5291 13.9003 16.1791 13.5703 16.8091 13.5703C17.2491 13.5703 17.7091 13.7303 18.1591 14.0503C18.4691 14.2703 18.7391 14.5503 18.9591 14.8803C19.2091 15.2603 19.3891 15.6803 19.4991 16.1503C20.1591 19.0703 19.6191 20.8603 17.8791 21.4503C17.7291 21.5003 17.5591 21.5303 17.3591 21.5303H17.0891H17.0791Z" fill="#D3D3D3"/>
<path d="M16.8008 13.6405C17.2308 13.6405 17.6708 13.8005 18.1008 14.1105C18.4008 14.3205 18.6608 14.6005 18.8808 14.9205C19.1308 15.2905 19.3108 15.7105 19.4108 16.1605C20.0708 19.0805 19.5608 20.7905 17.8308 21.3705C17.6908 21.4205 17.5208 21.4405 17.3408 21.4405H17.0708C16.6708 21.4405 16.3008 21.3005 16.0108 21.0605C15.0608 20.2305 14.4408 19.2905 14.1108 18.1805C13.8608 17.0805 14.1408 15.9005 14.9408 14.5905C15.5608 13.9505 16.1808 13.6305 16.8008 13.6305M16.8008 13.4805C16.1508 13.4805 15.5008 13.8105 14.8408 14.4905C14.0708 15.7305 13.6908 16.9805 13.9708 18.2105C14.3308 19.4205 15.0108 20.3805 15.9208 21.1705C16.2408 21.4505 16.6508 21.5905 17.0708 21.5905H17.3408C17.5208 21.5905 17.7108 21.5705 17.8808 21.5105C19.7008 20.8905 20.2208 19.0505 19.5508 16.1205C19.4508 15.6605 19.2608 15.2205 19.0008 14.8305C18.7808 14.5005 18.5108 14.2105 18.1808 13.9805C17.7208 13.6505 17.2608 13.4805 16.7908 13.4805H16.8008Z" fill="#5E5E5A"/>
</svg>
