<svg width="24" height="20" viewBox="0 0 24 20" fill="none" xmlns="http://www.w3.org/2000/svg">
<path d="M15.3114 16.9393C12.9214 16.3793 10.4614 16.0993 7.99141 16.0993H7.6714C5.3214 16.1293 2.97141 16.4093 0.691406 16.9293V16.0993C2.93141 15.5793 5.2914 15.2693 7.6714 15.2393H8.0014C10.4914 15.2393 12.9714 15.5493 15.3714 16.1693L15.3214 16.9293L15.3114 16.9393Z" fill="#D3D3D3"/>
<path d="M7.99156 15.3297C10.4316 15.3297 12.8616 15.6297 15.2216 16.2297V16.8497C12.8516 16.3097 10.4216 16.0297 7.99156 16.0297H7.66156C5.34156 16.0597 3.01156 16.3297 0.751556 16.8497V16.2297C3.00156 15.6597 5.32155 15.3597 7.65155 15.3297H7.98155M7.98155 15.1797C7.87155 15.1797 7.76155 15.1797 7.65155 15.1797C4.78155 15.2097 2.37156 15.6497 0.601562 16.1097V17.0297C2.43156 16.5997 4.83156 16.2097 7.66156 16.1797C7.77156 16.1797 7.88156 16.1797 7.99156 16.1797C10.9816 16.1797 13.4916 16.5897 15.3716 17.0297V16.1097C13.5516 15.6397 11.0216 15.1797 7.99156 15.1797H7.98155Z" fill="#5E5E5A"/>
<path d="M18.3165 19.5297C17.9265 19.5297 17.5165 19.3897 17.1465 19.1097C16.9065 18.9297 16.6865 18.8497 16.4865 18.8497C16.3265 18.8497 16.1665 18.9097 16.0165 19.0197C15.7565 19.2197 15.4465 19.3297 15.1265 19.3297C15.0565 19.3297 14.9965 19.3297 14.9265 19.3197C14.3565 19.2297 14.0565 18.8097 14.0165 18.0197C13.9965 16.6597 14.3265 15.5397 15.0465 14.5997C15.2565 14.3097 15.4565 14.0597 15.6665 13.8397C16.3865 13.0697 17.1465 12.6797 17.9165 12.6797C18.8365 12.6797 19.8165 13.2297 20.8265 14.3197C21.0065 14.5197 21.1265 14.6897 21.2165 14.8597C21.6965 15.8397 21.8565 16.8597 21.6765 17.8797C21.6565 18.7297 21.3365 19.1797 20.6965 19.2497C19.9065 19.4397 19.1065 19.5397 18.3365 19.5397H18.3165V19.5297Z" fill="#D3D3D3"/>
<path d="M17.9281 12.7496C18.8281 12.7496 19.7881 13.2896 20.8081 14.3896L20.8381 14.4196C20.9681 14.5596 21.0781 14.7196 21.1681 14.8896C21.6481 15.8596 21.7981 16.8596 21.6181 17.8896C21.5881 18.9496 21.0881 19.1296 20.6881 19.1796C19.9081 19.3696 19.1181 19.4696 18.3281 19.4696C17.9481 19.4696 17.5581 19.3296 17.2081 19.0696C16.9581 18.8796 16.7281 18.7896 16.5081 18.7896C16.3281 18.7896 16.1581 18.8496 15.9981 18.9696C15.7481 19.1596 15.4481 19.2596 15.1581 19.2596C15.0981 19.2596 15.0381 19.2596 14.9781 19.2496C14.6381 19.1996 14.1881 19.0096 14.1281 18.0196C14.1081 16.6696 14.4381 15.5696 15.1381 14.6396C15.3281 14.3696 15.5381 14.1196 15.7481 13.8896C16.4581 13.1296 17.1981 12.7496 17.9481 12.7496M17.9481 12.5996C17.1681 12.5996 16.3981 12.9796 15.6381 13.7896C15.4281 14.0096 15.2181 14.2696 15.0181 14.5496C14.3581 15.4096 13.9481 16.5096 13.9781 18.0196C14.0281 18.8896 14.3781 19.2996 14.9581 19.3896C15.0281 19.3996 15.0981 19.4096 15.1681 19.4096C15.4981 19.4096 15.8281 19.2896 16.0981 19.0896C16.2381 18.9796 16.3781 18.9396 16.5181 18.9396C16.7181 18.9396 16.9281 19.0296 17.1381 19.1896C17.4981 19.4496 17.9081 19.6196 18.3481 19.6196H18.3681C19.1781 19.6196 19.9681 19.5196 20.7381 19.3296C21.3681 19.2596 21.7581 18.8296 21.7781 17.8996C21.9581 16.8696 21.8081 15.8496 21.3181 14.8296C21.2281 14.6496 21.1081 14.4796 20.9681 14.3296C20.9481 14.3096 20.9381 14.2896 20.9181 14.2796C19.9081 13.1896 18.9181 12.6096 17.9581 12.6096L17.9481 12.5996Z" fill="#5E5E5A"/>
</svg>
