<svg width="25" height="20" viewBox="0 0 25 20" fill="none" xmlns="http://www.w3.org/2000/svg">
<path d="M15.5497 16.9393C13.1597 16.3793 10.6997 16.0993 8.22969 16.0993H7.9097C5.5597 16.1293 3.20969 16.4093 0.929688 16.9293V16.0993C3.16969 15.5793 5.5297 15.2693 7.9097 15.2393H8.2397C10.7297 15.2393 13.2097 15.5493 15.6097 16.1693L15.5597 16.9293L15.5497 16.9393Z" fill="#D3D3D3"/>
<path d="M8.24156 15.3297C10.6816 15.3297 13.1116 15.6297 15.4716 16.2297V16.8497C13.1016 16.3097 10.6716 16.0297 8.24156 16.0297H7.91156C5.59156 16.0597 3.26156 16.3297 1.00156 16.8497V16.2297C3.25156 15.6597 5.57155 15.3597 7.90155 15.3297H8.23155M8.23155 15.1797C8.12155 15.1797 8.01155 15.1797 7.90155 15.1797C5.03155 15.2097 2.62156 15.6497 0.851562 16.1097V17.0297C2.68156 16.5997 5.08156 16.2097 7.91156 16.1797C8.02156 16.1797 8.13156 16.1797 8.24156 16.1797C11.2316 16.1797 13.7416 16.5897 15.6216 17.0297V16.1097C13.8016 15.6397 11.2716 15.1797 8.24156 15.1797H8.23155Z" fill="#5E5E5A"/>
<path d="M19.0964 19.5296C18.8864 19.5296 18.6664 19.4497 18.4964 19.3297C18.0464 19.0197 17.7164 18.8797 17.4464 18.8797C17.2364 18.8797 17.0664 18.9696 16.9464 19.1596C16.8064 19.3696 16.5964 19.4996 16.3664 19.4996C14.5164 19.4796 13.3364 19.1897 12.5264 18.5597C11.1464 17.3297 11.9064 15.7796 12.9364 14.2796C13.0564 14.1196 13.1864 13.9696 13.3164 13.8196C14.3064 12.7096 15.4264 12.1396 16.6264 12.1396C17.7464 12.1396 18.9764 12.6196 20.2964 13.5796C20.9364 14.0496 21.3964 14.7396 21.5864 15.5196C21.6864 15.9296 21.7464 16.3196 21.7664 16.7096C21.8364 17.7696 21.3264 18.7596 20.4464 19.2296C20.0664 19.4296 19.6664 19.5296 19.2264 19.5296H19.0764H19.0964Z" fill="#D3D3D3"/>
<path d="M16.6382 12.2196C17.7382 12.2196 18.9582 12.6996 20.2582 13.6496C20.2582 13.6496 20.2582 13.6496 20.2682 13.6496C20.8882 14.1096 21.3382 14.7796 21.5182 15.5396C21.6182 15.9396 21.6782 16.3396 21.6982 16.7196C21.7682 17.7496 21.2682 18.7096 20.4182 19.1596C20.0482 19.3596 19.6682 19.4496 19.2282 19.4496C19.1782 19.4496 19.1282 19.4496 19.0782 19.4496C18.8782 19.4496 18.6782 19.3696 18.5182 19.2596C18.0582 18.9396 17.7082 18.7896 17.4282 18.7896C17.1982 18.7896 16.9982 18.8996 16.8682 19.0996C16.7482 19.2896 16.5582 19.3996 16.3482 19.3996C14.5182 19.3696 13.3482 19.0896 12.5682 18.4896C11.4882 17.5296 11.6082 16.3196 12.9782 14.3196C13.1082 14.1596 13.2282 13.9996 13.3582 13.8596C14.3382 12.7696 15.4282 12.2096 16.6182 12.2096M16.6182 12.0596C15.3982 12.0596 14.2782 12.6096 13.2482 13.7596C13.1182 13.9096 12.9882 14.0596 12.8582 14.2296C11.7482 15.8496 11.0882 17.3896 12.4582 18.6096C13.4082 19.3396 14.7982 19.5396 16.3382 19.5596C16.5982 19.5596 16.8382 19.4096 16.9782 19.1896C17.0882 19.0196 17.2382 18.9496 17.4082 18.9496C17.6882 18.9496 18.0282 19.1296 18.4082 19.3896C18.5982 19.5196 18.8182 19.5996 19.0482 19.6096C19.0982 19.6096 19.1482 19.6096 19.2082 19.6096C19.6782 19.6096 20.0982 19.4996 20.4682 19.2996C21.3982 18.7996 21.8982 17.7596 21.8282 16.7096C21.8082 16.2996 21.7382 15.8996 21.6382 15.5096C21.4482 14.7096 20.9782 14.0096 20.3182 13.5196C19.0082 12.5696 17.7682 12.0696 16.6082 12.0696L16.6182 12.0596Z" fill="#5E5E5A"/>
</svg>
