<svg width="20" height="18" viewBox="0 0 20 18" fill="none" xmlns="http://www.w3.org/2000/svg">
<path d="M8.37 5.28961C5.88 5.28961 3.4 4.97961 1 4.35961L1.05 3.59961C3.44 4.14961 5.9 4.43961 8.36 4.43961H8.69C11.04 4.40961 13.39 4.12961 15.67 3.60961V4.43961C13.43 4.95961 11.07 5.26961 8.69 5.29961H8.36L8.37 5.28961Z" fill="#D3D3D3"/>
<path d="M1.12828 3.69C3.49828 4.23 5.92828 4.51 8.35828 4.51H8.68829C11.0083 4.48 13.3383 4.21 15.5983 3.69V4.31C13.3483 4.88 11.0283 5.18 8.69828 5.21H8.36829C5.92829 5.21 3.49828 4.91 1.13828 4.31V3.69M15.7583 3.5C13.9283 3.93 11.5283 4.32 8.69828 4.35C8.58828 4.35 8.47829 4.35 8.36829 4.35C5.37829 4.35 2.86828 3.94 0.988281 3.5V4.42C2.80828 4.89 5.33829 5.35 8.36829 5.35C8.47829 5.35 8.58828 5.35 8.69828 5.35C11.5683 5.32 13.9783 4.88 15.7483 4.42V3.5H15.7583Z" fill="#5E5E5A"/>
<path d="M19.0419 7.12002C19.2519 6.72002 19.3519 6.27002 19.3719 5.82002L19.5019 2.35002C19.5519 1.55002 19.2219 1.15002 18.7519 0.850015C18.0419 0.340015 17.0219 0.110017 16.1619 0.160017C15.5619 0.350017 15.5419 0.210019 15.4619 0.740019C15.4219 0.990019 15.4119 1.24002 15.4319 1.49002C15.5419 3.09002 15.7019 4.56002 15.8619 5.93002C15.9019 6.30002 16.0419 6.64002 16.2619 6.94002C16.2819 6.97002 16.3119 7.00002 16.3319 7.04002C17.3619 8.31002 18.2219 8.41002 18.9119 7.37002C18.9619 7.30002 19.0119 7.22002 19.0519 7.14002" fill="#D3D3D3"/>
<path d="M19.0419 7.12002C19.2519 6.72002 19.3519 6.27002 19.3719 5.82002L19.5019 2.35002C19.5519 1.55002 19.2219 1.15002 18.7519 0.850015C18.0419 0.340015 17.0219 0.110017 16.1619 0.160017C15.5619 0.350017 15.5419 0.210019 15.4619 0.740019C15.4219 0.990019 15.4119 1.24002 15.4319 1.49002C15.5419 3.09002 15.7019 4.56002 15.8619 5.93002C15.9019 6.30002 16.0419 6.64002 16.2619 6.94002C16.2819 6.97002 16.3119 7.00002 16.3319 7.04002C17.3619 8.31002 18.2219 8.41002 18.9119 7.37002C18.9619 7.30002 19.0119 7.22002 19.0519 7.14002" stroke="#5E5E5A" stroke-width="0.15" stroke-linecap="round" stroke-linejoin="round"/>
</svg>
