<svg width="20" height="19" viewBox="0 0 20 19" fill="none" xmlns="http://www.w3.org/2000/svg">
<path d="M7.47157 5.28961C4.98157 5.28961 2.50156 4.97961 0.101562 4.35961L0.151566 3.59961C2.54157 4.14961 5.00156 4.43961 7.46156 4.43961H7.79156C10.1416 4.40961 12.4916 4.12961 14.7716 3.60961V4.43961C12.5316 4.95961 10.1716 5.26961 7.79156 5.29961H7.46156L7.47157 5.28961Z" fill="#D3D3D3"/>
<path d="M0.241562 3.69C2.61156 4.23 5.04156 4.51 7.47157 4.51H7.80157C10.1216 4.48 12.4516 4.21 14.7116 3.69V4.31C12.4616 4.88 10.1416 5.18 7.81156 5.21H7.48157C5.04157 5.21 2.61156 4.91 0.251564 4.31V3.69M14.8716 3.5C13.0416 3.93 10.6416 4.32 7.81156 4.35C7.70156 4.35 7.59157 4.35 7.48157 4.35C4.49157 4.35 1.98156 3.94 0.101562 3.5V4.42C1.92156 4.89 4.45157 5.35 7.48157 5.35C7.59157 5.35 7.70156 5.35 7.81156 5.35C10.6816 5.32 13.0916 4.88 14.8616 4.42V3.5H14.8716Z" fill="#5E5E5A"/>
<path d="M14.8516 6.49989C14.9516 6.71989 15.0916 6.92989 15.2616 7.09989C15.9716 7.80989 16.6816 8.04989 17.4116 7.84989C17.8916 7.71989 18.2716 7.39989 18.5116 6.98989C18.6716 6.71989 18.7716 6.40989 18.7916 6.08989L19.0916 2.49989C19.0416 1.95989 18.9116 1.48989 18.6916 1.08989C18.4516 0.65989 17.9916 0.379888 17.4916 0.349888L15.0216 0.189889C14.3916 0.159889 14.1916 0.319889 14.2216 1.09989C14.2216 1.29989 14.2416 1.49989 14.2316 1.69989C14.1916 3.28989 14.3116 4.69989 14.6716 5.82989C14.6916 6.05989 14.7516 6.28989 14.8516 6.49989Z" fill="#D3D3D3" stroke="#5E5E5A" stroke-width="0.15" stroke-linecap="round" stroke-linejoin="round"/>
</svg>
