<svg width="20" height="22" viewBox="0 0 20 22" fill="none" xmlns="http://www.w3.org/2000/svg">
<path d="M7.42297 5.28961C5.10297 5.28961 2.78297 4.97961 0.542969 4.35961L0.592964 3.59961C2.82296 4.14961 5.12297 4.42961 7.42297 4.42961H7.73297C9.92297 4.39961 12.123 4.12961 14.253 3.59961V4.42961C12.163 4.94961 9.95297 5.25961 7.74297 5.28961H7.43297H7.42297Z" fill="#D3D3D3"/>
<path d="M0.671249 3.69977C2.88125 4.23977 5.15125 4.50977 7.42125 4.50977H7.73125C9.90125 4.48977 12.0612 4.20977 14.1712 3.69977V4.31977C12.0712 4.88977 9.90125 5.18977 7.73125 5.21977H7.42125C5.14125 5.21977 2.87125 4.91977 0.671249 4.31977V3.69977ZM14.3213 3.50977C12.6113 3.93977 10.3713 4.32977 7.73125 4.35977C7.63125 4.35977 7.53125 4.35977 7.43125 4.35977C4.64125 4.35977 2.29125 3.94977 0.53125 3.50977V4.42977C2.23125 4.89977 4.59125 5.35977 7.43125 5.35977C7.53125 5.35977 7.63125 5.35977 7.74125 5.35977C10.4212 5.32977 12.6713 4.88977 14.3313 4.42977V3.50977H14.3213Z" fill="#5E5E5A"/>
<path d="M16.6032 9.74996C16.0032 9.74996 15.3632 9.22996 14.7132 8.21996C14.6532 8.13996 14.6032 8.04996 14.5532 7.95996C13.7432 6.57996 13.5632 4.80996 14.0332 2.69996C14.7832 1.04996 15.5932 0.209961 16.4432 0.209961C17.2932 0.209961 18.2432 1.06996 19.2332 2.74996C19.4932 3.19996 19.6332 3.69996 19.6332 4.21996C19.6332 5.79996 19.2632 7.05996 18.5532 7.94996C17.9132 9.14996 17.2632 9.74996 16.6032 9.74996Z" fill="#D3D3D3"/>
<path d="M16.4418 0.28965C17.2718 0.28965 18.1819 1.12965 19.1619 2.79965C19.4219 3.23965 19.5518 3.72965 19.5518 4.22965C19.5518 5.79965 19.1918 7.03965 18.4718 7.93965C17.8518 9.09965 17.2219 9.68965 16.6019 9.68965C16.0219 9.68965 15.4119 9.18965 14.7719 8.18965C14.7119 8.10965 14.6618 8.01965 14.6118 7.93965C13.8118 6.56965 13.6318 4.81965 14.0918 2.76965C14.8318 1.13965 15.6218 0.30965 16.4318 0.30965M16.4318 0.159649C15.5618 0.159649 14.7318 0.979648 13.9518 2.70965C13.4818 4.80965 13.6418 6.58965 14.4818 8.01965C14.5318 8.10965 14.5918 8.19965 14.6418 8.27965C15.3018 9.30965 15.9518 9.83965 16.5918 9.83965C17.2718 9.83965 17.9419 9.24965 18.6019 8.00965C19.3519 7.07965 19.7018 5.79965 19.7018 4.22965C19.7018 3.69965 19.5518 3.17965 19.2918 2.71965C18.3018 1.02965 17.3418 0.139648 16.4418 0.139648L16.4318 0.159649Z" fill="#5E5E5A"/>
</svg>
