<svg width="23" height="18" viewBox="0 0 23 18" fill="none" xmlns="http://www.w3.org/2000/svg">
<path d="M6.90343 5.28961C4.58343 5.28961 2.26344 4.97961 0.0234375 4.35961L0.0734406 3.59961C2.30344 4.14961 4.60343 4.42961 6.90343 4.42961H7.21344C9.40344 4.39961 11.6034 4.12961 13.7334 3.59961V4.42961C11.6434 4.94961 9.43343 5.25961 7.22343 5.28961H6.91344H6.90343Z" fill="#D3D3D3"/>
<path d="M0.151718 3.69977C2.36172 4.23977 4.63172 4.50977 6.90172 4.50977H7.21173C9.38173 4.48977 11.5417 4.20977 13.6517 3.69977V4.31977C11.5517 4.88977 9.38173 5.18977 7.21173 5.21977H6.90172C4.62172 5.21977 2.35172 4.91977 0.151718 4.31977V3.69977ZM13.8017 3.50977C12.0917 3.93977 9.85173 4.32977 7.21173 4.35977C7.11173 4.35977 7.01173 4.35977 6.91173 4.35977C4.12173 4.35977 1.77172 3.94977 0.0117188 3.50977V4.42977C1.71172 4.89977 4.07173 5.35977 6.91173 5.35977C7.01173 5.35977 7.11173 5.35977 7.22173 5.35977C9.90173 5.32977 12.1517 4.88977 13.8117 4.42977V3.50977H13.8017Z" fill="#5E5E5A"/>
<path d="M17.6398 8.27019C16.8898 8.27019 16.1598 8.0302 15.4498 7.5402C15.1298 7.3302 14.8398 7.07019 14.5798 6.78019C14.1098 6.27019 13.7398 5.65019 13.4598 4.94019C12.7598 3.13019 12.8098 1.72019 13.5998 0.750195C14.0598 0.390195 14.5998 0.200195 15.1898 0.200195C15.6198 0.200195 16.0798 0.300196 16.5698 0.490196C17.0798 0.860196 17.5298 1.05019 17.9398 1.05019C18.2198 1.05019 18.4798 0.960195 18.6998 0.770195C19.1998 0.530195 19.6598 0.400196 20.0698 0.400196C20.5798 0.400196 20.9998 0.590196 21.3698 0.970196C21.7098 1.3302 21.9298 1.84019 21.9798 2.41019C22.0898 3.74019 21.9498 4.86019 21.5498 5.84019C21.3898 6.23019 21.1498 6.58019 20.8298 6.89019C20.6898 7.02019 20.5498 7.14019 20.3998 7.25019C19.4498 7.92019 18.5298 8.27019 17.6398 8.27019Z" fill="#D3D3D3"/>
<path d="M15.1916 0.289883C15.6016 0.289883 16.0516 0.379883 16.5316 0.559883C17.0616 0.939883 17.5216 1.12988 17.9416 1.12988C18.2416 1.12988 18.5116 1.02988 18.7216 0.84988C19.2216 0.59988 19.6816 0.479881 20.0716 0.479881C20.5616 0.479881 20.9616 0.659881 21.3116 1.02988C21.6416 1.37988 21.8516 1.87988 21.9016 2.42988C22.0116 3.74988 21.8716 4.84988 21.4716 5.81988C21.3116 6.19988 21.0816 6.53988 20.7716 6.84988C20.6416 6.97988 20.5016 7.09988 20.3516 7.19988C19.4216 7.85988 18.5016 8.19988 17.6416 8.19988C16.9116 8.19988 16.1916 7.95988 15.4916 7.48988C15.1816 7.27988 14.8916 7.02988 14.6316 6.73988C14.1716 6.22988 13.8016 5.61988 13.5316 4.92988C12.8416 3.14988 12.8816 1.76988 13.6316 0.839882C14.0916 0.479882 14.6116 0.289883 15.1916 0.289883ZM15.1916 0.139881C14.5716 0.139881 14.0216 0.329883 13.5416 0.719883C12.7216 1.72988 12.6816 3.14988 13.3916 4.97988C13.6616 5.66988 14.0316 6.30988 14.5216 6.83988C14.7816 7.12988 15.0816 7.38988 15.4116 7.60988C16.1416 8.09988 16.8816 8.34988 17.6416 8.34988C18.5516 8.34988 19.4816 7.99988 20.4416 7.31988C20.6016 7.20988 20.7416 7.08988 20.8816 6.94988C21.1916 6.63988 21.4516 6.27988 21.6216 5.86988C22.0516 4.82988 22.1716 3.66988 22.0616 2.40988C22.0116 1.85988 21.8116 1.31988 21.4316 0.91988C21.0516 0.50988 20.5916 0.319881 20.0816 0.319881C19.6516 0.319881 19.1716 0.449881 18.6616 0.709881C18.4416 0.889881 18.2016 0.969883 17.9516 0.969883C17.5416 0.969883 17.0916 0.75988 16.6116 0.41988C16.1116 0.22988 15.6416 0.129883 15.2016 0.129883L15.1916 0.139881Z" fill="#5E5E5A"/>
</svg>
