<svg width="23" height="19" viewBox="0 0 23 19" fill="none" xmlns="http://www.w3.org/2000/svg">
<path d="M7.03235 5.28961C4.71235 5.28961 2.39234 4.97961 0.152344 4.35961L0.202347 3.59961C2.43235 4.14961 4.73235 4.42961 7.03235 4.42961H7.34235C9.53235 4.39961 11.7324 4.12961 13.8624 3.59961V4.42961C11.7724 4.94961 9.56235 5.25961 7.34235 5.28961H7.03235Z" fill="#D3D3D3"/>
<path d="M0.280624 3.69977C2.49062 4.23977 4.76062 4.50977 7.03062 4.50977H7.34062C9.51062 4.48977 11.6706 4.20977 13.7806 3.69977V4.31977C11.6806 4.88977 9.51062 5.18977 7.34062 5.21977H7.03062C4.75062 5.21977 2.48062 4.91977 0.280624 4.31977V3.69977ZM13.9306 3.50977C12.2206 3.93977 9.98062 4.32977 7.34062 4.35977C7.24062 4.35977 7.14062 4.35977 7.04062 4.35977C4.25062 4.35977 1.90062 3.94977 0.140625 3.50977V4.42977C1.84063 4.89977 4.20062 5.35977 7.04062 5.35977C7.14062 5.35977 7.24063 5.35977 7.35063 5.35977C10.0306 5.32977 12.2806 4.88977 13.9406 4.42977V3.50977H13.9306Z" fill="#5E5E5A"/>
<path d="M16.2503 8.76C15.1903 8.76 14.1103 8.51 13.0303 8.02C12.8103 7.92 12.6103 7.78 12.4303 7.62C12.3003 7.5 12.1903 7.37 12.1003 7.23C10.9703 5.56 10.4803 3.94 10.6103 2.28C10.7403 1.48 10.9703 0.950001 11.3203 0.700001C11.9003 0.400001 12.5503 0.25 13.2803 0.25C13.9503 0.25 14.6903 0.379999 15.5203 0.639999C15.7603 0.749999 16.0103 0.810001 16.2603 0.810001C16.5103 0.810001 16.7603 0.750001 17.0103 0.630001C17.5103 0.400001 17.9503 0.290001 18.3703 0.290001C18.6403 0.290001 18.9103 0.34 19.1803 0.43C19.6303 0.49 20.0803 0.769999 20.5803 1.28C20.8603 1.57 21.0403 1.93 21.1003 2.32C21.2903 3.53 21.3103 4.62 21.1303 5.67C21.0903 6.07 20.9903 6.43 20.8303 6.76C20.6303 7.18 20.2803 7.54 19.8203 7.79C18.6503 8.42 17.4503 8.74 16.2603 8.74L16.2503 8.76Z" fill="#D3D3D3"/>
<path d="M13.27 0.330158C13.94 0.330158 14.66 0.460155 15.47 0.710155C15.73 0.830155 15.99 0.890156 16.25 0.890156C16.51 0.890156 16.75 0.830158 17 0.720158H17.04C17.04 0.720158 17.09 0.720157 17.11 0.700157C17.53 0.480157 17.95 0.370155 18.36 0.370155C18.62 0.370155 18.89 0.410155 19.17 0.510155C19.59 0.570155 20.03 0.840157 20.51 1.34016C20.78 1.62016 20.95 1.96016 21.01 2.34016C21.2 3.54016 21.21 4.63015 21.04 5.67015C21 6.05015 20.91 6.41016 20.75 6.73016C20.56 7.14016 20.22 7.48016 19.77 7.73016C18.61 8.36016 17.43 8.67015 16.25 8.67015C15.21 8.67015 14.13 8.42016 13.06 7.93016C12.85 7.83016 12.65 7.70016 12.48 7.54016C12.36 7.43016 12.25 7.30015 12.16 7.17015C11.04 5.51015 10.56 3.91016 10.68 2.28016C10.8 1.50016 11.03 0.980155 11.34 0.760155C11.92 0.460155 12.55 0.310158 13.27 0.310158M13.27 0.160156C12.56 0.160156 11.89 0.300157 11.27 0.630157C10.92 0.880157 10.67 1.40015 10.53 2.26015C10.4 4.02015 10.97 5.68016 12.04 7.25016C12.14 7.40016 12.25 7.53016 12.38 7.65016C12.56 7.82016 12.77 7.96016 13 8.07016C14.1 8.57016 15.18 8.82016 16.25 8.82016C17.47 8.82016 18.67 8.49016 19.85 7.86016C20.3 7.62016 20.68 7.26016 20.89 6.79016C21.06 6.44016 21.16 6.07016 21.19 5.68016C21.37 4.58016 21.34 3.45016 21.16 2.31016C21.09 1.90016 20.91 1.52016 20.62 1.22016C20.15 0.740158 19.68 0.420155 19.19 0.350155C18.91 0.260155 18.63 0.210155 18.36 0.210155C17.91 0.210155 17.47 0.330158 17.04 0.560158H16.97C16.73 0.670158 16.49 0.730156 16.25 0.730156C16.01 0.730156 15.77 0.670158 15.54 0.560158C14.76 0.310158 14 0.160156 13.28 0.160156H13.27Z" fill="#5E5E5A"/>
</svg>
