<svg width="20" height="18" viewBox="0 0 20 18" fill="none" xmlns="http://www.w3.org/2000/svg">
<path d="M8.17078 5.28961C5.68078 5.28961 3.20078 4.97961 0.800781 4.35961L0.85078 3.59961C3.24078 4.14961 5.70079 4.43961 8.16079 4.43961H8.49078C10.8408 4.40961 13.1908 4.12961 15.4708 3.60961V4.43961C13.2308 4.95961 10.8708 5.26961 8.49078 5.29961H8.16079L8.17078 5.28961Z" fill="#D3D3D3"/>
<path d="M0.929062 3.69C3.29906 4.23 5.72906 4.51 8.15907 4.51H8.48906C10.8091 4.48 13.1391 4.21 15.3991 3.69V4.31C13.1491 4.88 10.8291 5.18 8.49906 5.21H8.16906C5.72906 5.21 3.29906 4.91 0.93906 4.31V3.69M15.5591 3.5C13.7291 3.93 11.3291 4.32 8.49906 4.35C8.38906 4.35 8.27906 4.35 8.16906 4.35C5.17906 4.35 2.66906 3.94 0.789062 3.5V4.42C2.60906 4.89 5.13906 5.35 8.16906 5.35C8.27906 5.35 8.38906 5.35 8.49906 5.35C11.3691 5.32 13.7791 4.88 15.5491 4.42V3.5H15.5591Z" fill="#5E5E5A"/>
<path d="M15.6408 7.20009C15.4308 6.80009 15.3308 6.35009 15.3108 5.90009L15.1808 2.43009C15.1308 1.63009 15.4608 1.23009 15.9308 0.930094C16.6408 0.420094 17.6608 0.190095 18.5208 0.240095C19.1208 0.430095 19.1408 0.290093 19.2208 0.820093C19.2608 1.07009 19.2708 1.32009 19.2508 1.57009C19.1408 3.17009 18.9808 4.64009 18.8208 6.01009C18.7808 6.38009 18.6408 6.72009 18.4208 7.02009C18.4008 7.05009 18.3708 7.0801 18.3508 7.1201C17.3208 8.3901 16.4608 8.49009 15.7708 7.45009C15.7208 7.38009 15.6708 7.30009 15.6308 7.22009" fill="#D3D3D3"/>
<path d="M15.6408 7.20009C15.4308 6.80009 15.3308 6.35009 15.3108 5.90009L15.1808 2.43009C15.1308 1.63009 15.4608 1.23009 15.9308 0.930094C16.6408 0.420094 17.6608 0.190095 18.5208 0.240095C19.1208 0.430095 19.1408 0.290093 19.2208 0.820093C19.2608 1.07009 19.2708 1.32009 19.2508 1.57009C19.1408 3.17009 18.9808 4.64009 18.8208 6.01009C18.7808 6.38009 18.6408 6.72009 18.4208 7.02009C18.4008 7.05009 18.3708 7.0801 18.3508 7.1201C17.3208 8.3901 16.4608 8.49009 15.7708 7.45009C15.7208 7.38009 15.6708 7.30009 15.6308 7.22009" stroke="#5E5E5A" stroke-width="0.15" stroke-linecap="round" stroke-linejoin="round"/>
</svg>
