<svg width="20" height="19" viewBox="0 0 20 19" fill="none" xmlns="http://www.w3.org/2000/svg">
<path d="M7.97157 5.41949C5.48157 5.41949 3.01156 5.10949 0.601562 4.48949L0.651566 3.72949C3.04157 4.27949 5.50156 4.56949 7.96156 4.56949H8.29156C10.6416 4.53949 12.9916 4.25949 15.2716 3.73949V4.56949C13.0316 5.08949 10.6716 5.39949 8.29156 5.42949H7.96156L7.97157 5.41949Z" fill="#D3D3D3"/>
<path d="M0.741566 3.82965C3.11157 4.36965 5.54156 4.64965 7.97157 4.64965H8.30156C10.6216 4.61965 12.9516 4.34965 15.2116 3.82965V4.44965C12.9616 5.01965 10.6416 5.31965 8.31157 5.34965H7.98156C5.54156 5.34965 3.11156 5.04965 0.751564 4.44965V3.82965M15.3716 3.63965C13.5416 4.06965 11.1416 4.45965 8.31157 4.48965C8.20157 4.48965 8.09156 4.48965 7.98156 4.48965C4.99156 4.48965 2.48156 4.07965 0.601562 3.63965V4.55965C2.42156 5.02965 4.95156 5.48965 7.98156 5.48965C8.09156 5.48965 8.20157 5.48965 8.31157 5.48965C11.1816 5.45965 13.5916 5.01965 15.3616 4.55965V3.63965H15.3716Z" fill="#5E5E5A"/>
<path d="M18.8298 6.53993C18.7298 6.75993 18.5898 6.96993 18.4198 7.13993C17.7098 7.84993 16.9998 8.08993 16.2698 7.88993C15.7898 7.75993 15.4098 7.43993 15.1698 7.02993C15.0098 6.75993 14.9098 6.44993 14.8898 6.12993L14.5898 2.53993C14.6398 1.99993 14.7698 1.52993 14.9898 1.12993C15.2298 0.699929 15.6898 0.419928 16.1898 0.389928L18.6598 0.229928C19.2898 0.199928 19.4898 0.359928 19.4598 1.13993C19.4598 1.33993 19.4398 1.53993 19.4498 1.73993C19.4898 3.32993 19.3698 4.73993 19.0098 5.86993C18.9898 6.09993 18.9298 6.32993 18.8298 6.53993Z" fill="#D3D3D3" stroke="#5E5E5A" stroke-width="0.15" stroke-linecap="round" stroke-linejoin="round"/>
</svg>
