<svg width="20" height="22" viewBox="0 0 20 22" fill="none" xmlns="http://www.w3.org/2000/svg">
<path d="M7.76844 5.56012C5.27844 5.56012 2.80844 5.25012 0.398438 4.63012L0.448439 3.87012C2.83844 4.43012 5.29844 4.71012 7.75844 4.71012H8.08844C10.4384 4.68012 12.7884 4.40012 15.0684 3.88012V4.71012C12.8284 5.23012 10.4684 5.54012 8.08844 5.57012H7.75844L7.76844 5.56012Z" fill="#D3D3D3"/>
<path d="M0.538439 3.97028C2.90844 4.51028 5.33844 4.79028 7.76844 4.79028H8.09844C10.4184 4.76028 12.7484 4.49028 15.0084 3.97028V4.59027C12.7584 5.16027 10.4384 5.46028 8.10844 5.49028H7.77844C5.33844 5.49028 2.90844 5.19027 0.548437 4.59027V3.97028M15.1684 3.78027C13.3384 4.21027 10.9384 4.60028 8.10844 4.63028C7.99844 4.63028 7.88844 4.63028 7.77844 4.63028C4.78844 4.63028 2.27844 4.22027 0.398438 3.78027V4.70028C2.21844 5.17028 4.74844 5.63028 7.77844 5.63028C7.88844 5.63028 7.99844 5.63028 8.10844 5.63028C10.9784 5.60028 13.3884 5.16028 15.1584 4.70028V3.78027H15.1684Z" fill="#5E5E5A"/>
<path d="M17.0808 9.79C16.4308 9.79 15.7708 9.19 15.1408 8C14.4208 7.1 14.0508 5.84 14.0508 4.26C14.0508 3.75 14.1908 3.24 14.4508 2.79C15.4408 1.1 16.3808 0.25 17.2408 0.25C18.1008 0.25 18.9008 1.09 19.6508 2.75C20.1108 4.84 19.9408 6.61 19.1208 7.99C19.0708 8.08 19.0208 8.16 18.9608 8.25C18.3108 9.27 17.6808 9.78 17.0708 9.78L17.0808 9.79Z" fill="#D3D3D3"/>
<path d="M17.2505 0.179688V0.329689C18.0705 0.329689 18.8505 1.15969 19.5805 2.75969C20.0405 4.84969 19.8705 6.59969 19.0705 7.95969C19.0205 8.04969 18.9705 8.12969 18.9105 8.21969C18.2805 9.20969 17.6605 9.71969 17.0905 9.71969C16.4705 9.71969 15.8405 9.12968 15.2005 7.94968C14.4905 7.06968 14.1405 5.82969 14.1305 4.26969C14.1305 3.76969 14.2705 3.27969 14.5205 2.83969C15.5005 1.17969 16.4205 0.329689 17.2405 0.329689V0.179688M17.2405 0.179688C16.3305 0.179688 15.3805 1.06969 14.3905 2.75969C14.1205 3.21969 13.9805 3.73969 13.9805 4.26969C13.9805 5.83969 14.3305 7.10969 15.0805 8.04969C15.7405 9.27969 16.4105 9.87968 17.0905 9.87968C17.7305 9.87968 18.3805 9.34969 19.0405 8.31969C19.1005 8.23969 19.1505 8.14968 19.2005 8.05968C20.0405 6.62968 20.2005 4.84969 19.7305 2.74969C18.9505 1.01969 18.1205 0.199688 17.2505 0.199688L17.2405 0.179688Z" fill="#5E5E5A"/>
</svg>
