<svg width="23" height="18" viewBox="0 0 23 18" fill="none" xmlns="http://www.w3.org/2000/svg">
<path d="M7.58094 5.69977C5.09094 5.69977 2.61094 5.38977 0.210938 4.76977L0.260938 4.00977C2.65094 4.55977 5.11094 4.84977 7.58094 4.84977H7.90094C10.2509 4.81977 12.6009 4.53977 14.8809 4.01977V4.84977C12.6509 5.36977 10.2809 5.67977 7.90094 5.70977H7.57094L7.58094 5.69977Z" fill="#D3D3D3"/>
<path d="M0.339219 4.10015C2.70922 4.64015 5.13922 4.92015 7.56922 4.92015H7.89922C10.2192 4.89015 12.5492 4.62015 14.8092 4.10015V4.72016C12.5592 5.29016 10.2392 5.59016 7.90922 5.62016H7.57922C5.13922 5.62016 2.70922 5.32016 0.349219 4.72016V4.10015M14.9692 3.91016C13.1392 4.34016 10.7392 4.73015 7.90922 4.76015C7.79922 4.76015 7.68922 4.76015 7.57922 4.76015C4.58922 4.76015 2.07922 4.35016 0.199219 3.91016V4.83016C2.01922 5.30016 4.54922 5.76015 7.57922 5.76015C7.68922 5.76015 7.79922 5.76015 7.90922 5.76015C10.7792 5.73015 13.1892 5.29016 14.9592 4.83016V3.91016H14.9692Z" fill="#5E5E5A"/>
<path d="M16.0521 8.31977C15.1721 8.31977 14.2421 7.97977 13.2921 7.29977C13.1421 7.18977 13.0021 7.06977 12.8621 6.93977C12.5421 6.62977 12.3021 6.27977 12.1421 5.88977C11.7421 4.90977 11.5921 3.78977 11.7121 2.45977C11.7621 1.88977 11.9721 1.37977 12.3221 1.01977C12.6821 0.629768 13.1121 0.449768 13.6221 0.449768C14.0321 0.449768 14.5021 0.579769 15.0121 0.829769C15.2221 1.00977 15.4721 1.09977 15.7621 1.09977C16.1621 1.09977 16.6221 0.919768 17.1421 0.539768C17.6121 0.359768 18.0821 0.259766 18.5021 0.259766C19.1021 0.259766 19.6421 0.449767 20.1121 0.819767C20.8921 1.77977 20.9421 3.18977 20.2421 4.99977C19.9721 5.69977 19.5921 6.31977 19.1221 6.83977C18.8621 7.12977 18.5621 7.37977 18.2521 7.59977C17.5421 8.07977 16.8121 8.31977 16.0621 8.31977H16.0521Z" fill="#D3D3D3"/>
<path d="M18.4912 0.329689C19.0712 0.329689 19.5912 0.509686 20.0312 0.849686C20.8012 1.79969 20.8512 3.18969 20.1612 4.96969C19.8912 5.66969 19.5212 6.27969 19.0612 6.77969C18.8012 7.06969 18.5112 7.31969 18.2012 7.52969C17.5112 7.99969 16.7812 8.23969 16.0512 8.23969C15.1812 8.23969 14.2712 7.89968 13.3412 7.23969C13.1912 7.12968 13.0512 7.01969 12.9212 6.88969C12.6112 6.58969 12.3712 6.23969 12.2212 5.85969C11.8212 4.88969 11.6812 3.77969 11.7912 2.46969C11.8412 1.91969 12.0412 1.41969 12.3812 1.06969C12.7312 0.699687 13.1312 0.519688 13.6212 0.519688C14.0212 0.519688 14.4712 0.639686 14.9412 0.869686C15.1812 1.06969 15.4512 1.16969 15.7512 1.16969C16.1712 1.16969 16.6312 0.979686 17.1612 0.599686C17.6412 0.419686 18.0912 0.329689 18.5012 0.329689M18.5012 0.179688C18.0612 0.179688 17.5912 0.279688 17.0912 0.469688C16.6112 0.809688 16.1612 1.01969 15.7512 1.01969C15.4912 1.01969 15.2512 0.939686 15.0412 0.759686C14.5312 0.509686 14.0512 0.369686 13.6212 0.369686C13.1112 0.369686 12.6512 0.559688 12.2712 0.969688C11.8912 1.36969 11.6912 1.90969 11.6412 2.45969C11.5312 3.71969 11.6412 4.87969 12.0812 5.91969C12.2512 6.32969 12.5012 6.68969 12.8212 6.99969C12.9612 7.12969 13.1012 7.25969 13.2612 7.36969C14.2212 8.04969 15.1512 8.39969 16.0612 8.39969C16.8212 8.39969 17.5712 8.15969 18.2912 7.65969C18.6212 7.43969 18.9112 7.17969 19.1812 6.88969C19.6712 6.34969 20.0512 5.70969 20.3112 5.02969C21.0212 3.19969 20.9812 1.76969 20.1612 0.769688C19.6712 0.379688 19.1212 0.189686 18.5112 0.189686L18.5012 0.179688Z" fill="#5E5E5A"/>
</svg>
