<svg width="13" height="19" viewBox="0 0 13 19" fill="none" xmlns="http://www.w3.org/2000/svg">
<path d="M6.43182 8.8098C5.24182 8.8098 4.04182 8.48981 2.87182 7.85981C2.41182 7.60981 2.06182 7.24981 1.86182 6.82981C1.70182 6.49981 1.60182 6.13981 1.56182 5.73981C1.39182 4.68981 1.40182 3.5898 1.59182 2.3898C1.65182 1.9898 1.83182 1.6298 2.11182 1.3498C2.61182 0.839804 3.06182 0.559805 3.50182 0.499805C3.78182 0.409805 4.05182 0.359806 4.32182 0.359806C4.74182 0.359806 5.17182 0.469806 5.60182 0.699806C5.61182 0.699806 5.70182 0.699806 5.71182 0.699806C5.93182 0.809806 6.18182 0.869804 6.43182 0.869804C6.68182 0.869804 6.93182 0.809804 7.18182 0.689804C8.00182 0.429804 8.73182 0.299805 9.41182 0.299805C10.1418 0.299805 10.7818 0.449804 11.3818 0.759804C11.7118 0.999804 11.9518 1.53981 12.0818 2.33981C12.2018 3.98981 11.7218 5.6098 10.5918 7.2798C10.4918 7.4198 10.3818 7.5498 10.2618 7.6698C10.0818 7.8398 9.88182 7.96981 9.66182 8.06981C8.58182 8.5598 7.50182 8.8098 6.44182 8.8098H6.43182Z" fill="#D3D3D3"/>
<path d="M9.40998 0.370232C10.13 0.370232 10.76 0.520234 11.32 0.810234C11.64 1.05023 11.87 1.56023 11.99 2.33023C12.11 3.97023 11.63 5.57024 10.51 7.23024C10.42 7.37024 10.31 7.49023 10.19 7.60023C10.02 7.76023 9.82998 7.89023 9.60998 7.99023C8.53998 8.48023 7.46998 8.73024 6.42998 8.73024C5.24998 8.73024 4.05998 8.41023 2.90998 7.79023C2.45998 7.55023 2.11998 7.20023 1.92998 6.79023C1.77998 6.47023 1.67998 6.11023 1.63998 5.72023C1.46998 4.68023 1.47998 3.60023 1.66998 2.40023C1.72998 2.02023 1.89998 1.67023 2.16998 1.40023C2.65998 0.900234 3.09998 0.630232 3.53998 0.570232C3.79998 0.480232 4.05998 0.440231 4.32998 0.440231C4.73998 0.440231 5.15998 0.550233 5.57998 0.770233C5.59998 0.780233 5.62998 0.790234 5.64998 0.790234H5.68998C5.93998 0.900234 6.18998 0.960232 6.43998 0.960232C6.68998 0.960232 6.95998 0.900231 7.19998 0.780231C8.01998 0.520231 8.74998 0.390232 9.40998 0.390232M9.40998 0.240234C8.68998 0.240234 7.92998 0.390232 7.14998 0.640232C6.90998 0.750232 6.67998 0.810234 6.43998 0.810234C6.19998 0.810234 5.95998 0.750232 5.71998 0.640232H5.64998C5.21998 0.410232 4.77998 0.290234 4.32998 0.290234C4.04998 0.290234 3.77998 0.340233 3.49998 0.430233C3.00998 0.500233 2.53998 0.820232 2.06998 1.30023C1.77998 1.60023 1.58998 1.98023 1.52998 2.39023C1.34998 3.53023 1.30998 4.66023 1.49998 5.76023C1.53998 6.15023 1.63998 6.52023 1.79998 6.87023C2.01998 7.33023 2.39998 7.69024 2.83998 7.94024C4.01998 8.58024 5.20998 8.90023 6.43998 8.90023C7.49998 8.90023 8.58998 8.65023 9.68998 8.15023C9.91998 8.05023 10.13 7.90024 10.31 7.73024C10.44 7.61024 10.55 7.48023 10.65 7.33023C11.72 5.75023 12.29 4.10023 12.16 2.34023C12.02 1.48023 11.77 0.960232 11.42 0.710232C10.79 0.390232 10.12 0.240234 9.41998 0.240234H9.40998Z" fill="#5E5E5A"/>
</svg>
