<svg width="8" height="27" viewBox="0 0 8 27" fill="none" xmlns="http://www.w3.org/2000/svg">
<path opacity="0.4" d="M3.87015 22.2803C4.53841 22.2803 5.08014 21.7386 5.08014 21.0704C5.08014 20.4021 4.53841 19.8604 3.87015 19.8604C3.20188 19.8604 2.66016 20.4021 2.66016 21.0704C2.66016 21.7386 3.20188 22.2803 3.87015 22.2803Z" fill="#E62C2F" stroke="#E62C2F" stroke-width="0.2" stroke-linecap="round" stroke-linejoin="round"/>
<path opacity="0.4" d="M3.87015 22.2803C4.53841 22.2803 5.08014 21.7386 5.08014 21.0704C5.08014 20.4021 4.53841 19.8604 3.87015 19.8604C3.20188 19.8604 2.66016 20.4021 2.66016 21.0704C2.66016 21.7386 3.20188 22.2803 3.87015 22.2803Z" stroke="#E62C2F" stroke-width="0.2" stroke-linecap="round" stroke-linejoin="round"/>
<path opacity="0.7" d="M3.86829 21.9504C4.3543 21.9504 4.74829 21.5564 4.74829 21.0704C4.74829 20.5844 4.3543 20.1904 3.86829 20.1904C3.38228 20.1904 2.98828 20.5844 2.98828 21.0704C2.98828 21.5564 3.38228 21.9504 3.86829 21.9504Z" fill="#E62C2F" stroke="#E62C2F" stroke-width="0.2" stroke-linecap="round" stroke-linejoin="round"/>
<path opacity="0.8" d="M3.86829 21.9504C4.3543 21.9504 4.74829 21.5564 4.74829 21.0704C4.74829 20.5844 4.3543 20.1904 3.86829 20.1904C3.38228 20.1904 2.98828 20.5844 2.98828 21.0704C2.98828 21.5564 3.38228 21.9504 3.86829 21.9504Z" stroke="#E62C2F" stroke-width="0.2" stroke-linecap="round" stroke-linejoin="round"/>
</svg>
