<svg width="10" height="33" viewBox="0 0 10 33" fill="none" xmlns="http://www.w3.org/2000/svg">
<path opacity="0.4" d="M5.38187 27.7901C6.05013 27.7901 6.59186 27.2484 6.59186 26.5801C6.59186 25.9119 6.05013 25.3701 5.38187 25.3701C4.7136 25.3701 4.17188 25.9119 4.17188 26.5801C4.17188 27.2484 4.7136 27.7901 5.38187 27.7901Z" fill="#E62C2F" stroke="#E62C2F" stroke-width="0.2" stroke-linecap="round" stroke-linejoin="round"/>
<path opacity="0.4" d="M5.38187 27.7901C6.05013 27.7901 6.59186 27.2484 6.59186 26.5801C6.59186 25.9119 6.05013 25.3701 5.38187 25.3701C4.7136 25.3701 4.17188 25.9119 4.17188 26.5801C4.17188 27.2484 4.7136 27.7901 5.38187 27.7901Z" stroke="#E62C2F" stroke-width="0.2" stroke-linecap="round" stroke-linejoin="round"/>
<path opacity="0.7" d="M5.38 27.4602C5.86602 27.4602 6.26001 27.0662 6.26001 26.5802C6.26001 26.0942 5.86602 25.7002 5.38 25.7002C4.89399 25.7002 4.5 26.0942 4.5 26.5802C4.5 27.0662 4.89399 27.4602 5.38 27.4602Z" fill="#E62C2F" stroke="#E62C2F" stroke-width="0.2" stroke-linecap="round" stroke-linejoin="round"/>
<path opacity="0.8" d="M5.38 27.4602C5.86602 27.4602 6.26001 27.0662 6.26001 26.5802C6.26001 26.0942 5.86602 25.7002 5.38 25.7002C4.89399 25.7002 4.5 26.0942 4.5 26.5802C4.5 27.0662 4.89399 27.4602 5.38 27.4602Z" stroke="#E62C2F" stroke-width="0.2" stroke-linecap="round" stroke-linejoin="round"/>
</svg>
