<svg width="10" height="27" viewBox="0 0 10 27" fill="none" xmlns="http://www.w3.org/2000/svg">
<path opacity="0.4" d="M4.97955 22.1202C5.64782 22.1202 6.18954 21.5785 6.18954 20.9102C6.18954 20.2419 5.64782 19.7002 4.97955 19.7002C4.31129 19.7002 3.76953 20.2419 3.76953 20.9102C3.76953 21.5785 4.31129 22.1202 4.97955 22.1202Z" fill="#E62C2F" stroke="#E62C2F" stroke-width="0.2" stroke-linecap="round" stroke-linejoin="round"/>
<path opacity="0.4" d="M4.97955 22.1202C5.64782 22.1202 6.18954 21.5785 6.18954 20.9102C6.18954 20.2419 5.64782 19.7002 4.97955 19.7002C4.31129 19.7002 3.76953 20.2419 3.76953 20.9102C3.76953 21.5785 4.31129 22.1202 4.97955 22.1202Z" stroke="#E62C2F" stroke-width="0.2" stroke-linecap="round" stroke-linejoin="round"/>
<path opacity="0.7" d="M4.97766 21.7903C5.46367 21.7903 5.85764 21.3963 5.85764 20.9103C5.85764 20.4243 5.46367 20.0303 4.97766 20.0303C4.49165 20.0303 4.09766 20.4243 4.09766 20.9103C4.09766 21.3963 4.49165 21.7903 4.97766 21.7903Z" fill="#E62C2F" stroke="#E62C2F" stroke-width="0.2" stroke-linecap="round" stroke-linejoin="round"/>
<path opacity="0.8" d="M4.97766 21.7903C5.46367 21.7903 5.85764 21.3963 5.85764 20.9103C5.85764 20.4243 5.46367 20.0303 4.97766 20.0303C4.49165 20.0303 4.09766 20.4243 4.09766 20.9103C4.09766 21.3963 4.49165 21.7903 4.97766 21.7903Z" stroke="#E62C2F" stroke-width="0.2" stroke-linecap="round" stroke-linejoin="round"/>
</svg>
