<svg width="13" height="28" viewBox="0 0 13 28" fill="none" xmlns="http://www.w3.org/2000/svg">
<path opacity="0.4" d="M6.85844 23.0597C7.52671 23.0597 8.06845 22.5179 8.06845 21.8496C8.06845 21.1814 7.52671 20.6396 6.85844 20.6396C6.19018 20.6396 5.64844 21.1814 5.64844 21.8496C5.64844 22.5179 6.19018 23.0597 6.85844 23.0597Z" fill="#E62C2F" stroke="#E62C2F" stroke-width="0.2" stroke-linecap="round" stroke-linejoin="round"/>
<path opacity="0.4" d="M6.85844 23.0597C7.52671 23.0597 8.06845 22.5179 8.06845 21.8496C8.06845 21.1814 7.52671 20.6396 6.85844 20.6396C6.19018 20.6396 5.64844 21.1814 5.64844 21.8496C5.64844 22.5179 6.19018 23.0597 6.85844 23.0597Z" stroke="#E62C2F" stroke-width="0.2" stroke-linecap="round" stroke-linejoin="round"/>
<path opacity="0.7" d="M6.85657 22.7297C7.34258 22.7297 7.73657 22.3357 7.73657 21.8497C7.73657 21.3637 7.34258 20.9697 6.85657 20.9697C6.37056 20.9697 5.97656 21.3637 5.97656 21.8497C5.97656 22.3357 6.37056 22.7297 6.85657 22.7297Z" fill="#E62C2F" stroke="#E62C2F" stroke-width="0.2" stroke-linecap="round" stroke-linejoin="round"/>
<path opacity="0.8" d="M6.85657 22.7297C7.34258 22.7297 7.73657 22.3357 7.73657 21.8497C7.73657 21.3637 7.34258 20.9697 6.85657 20.9697C6.37056 20.9697 5.97656 21.3637 5.97656 21.8497C5.97656 22.3357 6.37056 22.7297 6.85657 22.7297Z" stroke="#E62C2F" stroke-width="0.2" stroke-linecap="round" stroke-linejoin="round"/>
</svg>
