<svg width="13" height="25" viewBox="0 0 13 25" fill="none" xmlns="http://www.w3.org/2000/svg">
<path opacity="0.4" d="M6.46001 20.1202C7.12827 20.1202 7.67 19.5785 7.67 18.9102C7.67 18.2419 7.12827 17.7002 6.46001 17.7002C5.79174 17.7002 5.25 18.2419 5.25 18.9102C5.25 19.5785 5.79174 20.1202 6.46001 20.1202Z" fill="#E62C2F" stroke="#E62C2F" stroke-width="0.2" stroke-linecap="round" stroke-linejoin="round"/>
<path opacity="0.4" d="M6.46001 20.1202C7.12827 20.1202 7.67 19.5785 7.67 18.9102C7.67 18.2419 7.12827 17.7002 6.46001 17.7002C5.79174 17.7002 5.25 18.2419 5.25 18.9102C5.25 19.5785 5.79174 20.1202 6.46001 20.1202Z" stroke="#E62C2F" stroke-width="0.2" stroke-linecap="round" stroke-linejoin="round"/>
<path opacity="0.7" d="M6.45813 19.7903C6.94414 19.7903 7.33812 19.3963 7.33812 18.9103C7.33812 18.4243 6.94414 18.0303 6.45813 18.0303C5.97212 18.0303 5.57812 18.4243 5.57812 18.9103C5.57812 19.3963 5.97212 19.7903 6.45813 19.7903Z" fill="#E62C2F" stroke="#E62C2F" stroke-width="0.2" stroke-linecap="round" stroke-linejoin="round"/>
<path opacity="0.8" d="M6.45813 19.7903C6.94414 19.7903 7.33812 19.3963 7.33812 18.9103C7.33812 18.4243 6.94414 18.0303 6.45813 18.0303C5.97212 18.0303 5.57812 18.4243 5.57812 18.9103C5.57812 19.3963 5.97212 19.7903 6.45813 19.7903Z" stroke="#E62C2F" stroke-width="0.2" stroke-linecap="round" stroke-linejoin="round"/>
</svg>
