<svg width="11" height="24" viewBox="0 0 11 24" fill="none" xmlns="http://www.w3.org/2000/svg">
<path opacity="0.4" d="M5.38969 19.9395C6.05796 19.9395 6.5997 19.3978 6.5997 18.7295C6.5997 18.0613 6.05796 17.5195 5.38969 17.5195C4.72143 17.5195 4.17969 18.0613 4.17969 18.7295C4.17969 19.3978 4.72143 19.9395 5.38969 19.9395Z" fill="#E62C2F" stroke="#E62C2F" stroke-width="0.2" stroke-linecap="round" stroke-linejoin="round"/>
<path opacity="0.4" d="M5.38969 19.9395C6.05796 19.9395 6.5997 19.3978 6.5997 18.7295C6.5997 18.0613 6.05796 17.5195 5.38969 17.5195C4.72143 17.5195 4.17969 18.0613 4.17969 18.7295C4.17969 19.3978 4.72143 19.9395 5.38969 19.9395Z" stroke="#E62C2F" stroke-width="0.2" stroke-linecap="round" stroke-linejoin="round"/>
<path opacity="0.7" d="M5.38782 19.6096C5.87383 19.6096 6.26782 19.2156 6.26782 18.7296C6.26782 18.2436 5.87383 17.8496 5.38782 17.8496C4.90181 17.8496 4.50781 18.2436 4.50781 18.7296C4.50781 19.2156 4.90181 19.6096 5.38782 19.6096Z" fill="#E62C2F" stroke="#E62C2F" stroke-width="0.2" stroke-linecap="round" stroke-linejoin="round"/>
<path opacity="0.8" d="M5.38782 19.6096C5.87383 19.6096 6.26782 19.2156 6.26782 18.7296C6.26782 18.2436 5.87383 17.8496 5.38782 17.8496C4.90181 17.8496 4.50781 18.2436 4.50781 18.7296C4.50781 19.2156 4.90181 19.6096 5.38782 19.6096Z" stroke="#E62C2F" stroke-width="0.2" stroke-linecap="round" stroke-linejoin="round"/>
</svg>
