<svg width="11" height="29" viewBox="0 0 11 29" fill="none" xmlns="http://www.w3.org/2000/svg">
<path opacity="0.4" d="M5.63971 23.38C6.30797 23.38 6.8497 22.8382 6.8497 22.17C6.8497 21.5017 6.30797 20.96 5.63971 20.96C4.97144 20.96 4.42969 21.5017 4.42969 22.17C4.42969 22.8382 4.97144 23.38 5.63971 23.38Z" fill="#E62C2F" stroke="#E62C2F" stroke-width="0.2" stroke-linecap="round" stroke-linejoin="round"/>
<path opacity="0.4" d="M5.63971 23.38C6.30797 23.38 6.8497 22.8382 6.8497 22.17C6.8497 21.5017 6.30797 20.96 5.63971 20.96C4.97144 20.96 4.42969 21.5017 4.42969 22.17C4.42969 22.8382 4.97144 23.38 5.63971 23.38Z" stroke="#E62C2F" stroke-width="0.2" stroke-linecap="round" stroke-linejoin="round"/>
<path opacity="0.7" d="M5.63782 23.05C6.12383 23.05 6.51779 22.656 6.51779 22.17C6.51779 21.684 6.12383 21.29 5.63782 21.29C5.15181 21.29 4.75781 21.684 4.75781 22.17C4.75781 22.656 5.15181 23.05 5.63782 23.05Z" fill="#E62C2F" stroke="#E62C2F" stroke-width="0.2" stroke-linecap="round" stroke-linejoin="round"/>
<path opacity="0.8" d="M5.63782 23.05C6.12383 23.05 6.51779 22.656 6.51779 22.17C6.51779 21.684 6.12383 21.29 5.63782 21.29C5.15181 21.29 4.75781 21.684 4.75781 22.17C4.75781 22.656 5.15181 23.05 5.63782 23.05Z" stroke="#E62C2F" stroke-width="0.2" stroke-linecap="round" stroke-linejoin="round"/>
</svg>
