<svg width="10" height="27" viewBox="0 0 10 27" fill="none" xmlns="http://www.w3.org/2000/svg">
<path opacity="0.4" d="M5.10843 21.7901C5.77669 21.7901 6.31845 21.2484 6.31845 20.5801C6.31845 19.9119 5.77669 19.3701 5.10843 19.3701C4.44016 19.3701 3.89844 19.9119 3.89844 20.5801C3.89844 21.2484 4.44016 21.7901 5.10843 21.7901Z" fill="#E62C2F" stroke="#E62C2F" stroke-width="0.2" stroke-linecap="round" stroke-linejoin="round"/>
<path opacity="0.4" d="M5.10843 21.7901C5.77669 21.7901 6.31845 21.2484 6.31845 20.5801C6.31845 19.9119 5.77669 19.3701 5.10843 19.3701C4.44016 19.3701 3.89844 19.9119 3.89844 20.5801C3.89844 21.2484 4.44016 21.7901 5.10843 21.7901Z" stroke="#E62C2F" stroke-width="0.2" stroke-linecap="round" stroke-linejoin="round"/>
<path opacity="0.7" d="M5.10654 21.4602C5.59255 21.4602 5.98654 21.0662 5.98654 20.5802C5.98654 20.0942 5.59255 19.7002 5.10654 19.7002C4.62053 19.7002 4.22656 20.0942 4.22656 20.5802C4.22656 21.0662 4.62053 21.4602 5.10654 21.4602Z" fill="#E62C2F" stroke="#E62C2F" stroke-width="0.2" stroke-linecap="round" stroke-linejoin="round"/>
<path opacity="0.8" d="M5.10654 21.4602C5.59255 21.4602 5.98654 21.0662 5.98654 20.5802C5.98654 20.0942 5.59255 19.7002 5.10654 19.7002C4.62053 19.7002 4.22656 20.0942 4.22656 20.5802C4.22656 21.0662 4.62053 21.4602 5.10654 21.4602Z" stroke="#E62C2F" stroke-width="0.2" stroke-linecap="round" stroke-linejoin="round"/>
</svg>
