<svg width="11" height="24" viewBox="0 0 11 24" fill="none" xmlns="http://www.w3.org/2000/svg">
<path opacity="0.4" d="M5.54984 20.0001C6.2181 20.0001 6.75986 19.4583 6.75986 18.7901C6.75986 18.1218 6.2181 17.5801 5.54984 17.5801C4.88157 17.5801 4.33984 18.1218 4.33984 18.7901C4.33984 19.4583 4.88157 20.0001 5.54984 20.0001Z" fill="#E62C2F" stroke="#E62C2F" stroke-width="0.2" stroke-linecap="round" stroke-linejoin="round"/>
<path opacity="0.4" d="M5.54984 20.0001C6.2181 20.0001 6.75986 19.4583 6.75986 18.7901C6.75986 18.1218 6.2181 17.5801 5.54984 17.5801C4.88157 17.5801 4.33984 18.1218 4.33984 18.7901C4.33984 19.4583 4.88157 20.0001 5.54984 20.0001Z" stroke="#E62C2F" stroke-width="0.2" stroke-linecap="round" stroke-linejoin="round"/>
<path opacity="0.7" d="M5.54794 19.6702C6.03395 19.6702 6.42795 19.2762 6.42795 18.7902C6.42795 18.3041 6.03395 17.9102 5.54794 17.9102C5.06193 17.9102 4.66797 18.3041 4.66797 18.7902C4.66797 19.2762 5.06193 19.6702 5.54794 19.6702Z" fill="#E62C2F" stroke="#E62C2F" stroke-width="0.2" stroke-linecap="round" stroke-linejoin="round"/>
<path opacity="0.8" d="M5.54794 19.6702C6.03395 19.6702 6.42795 19.2762 6.42795 18.7902C6.42795 18.3041 6.03395 17.9102 5.54794 17.9102C5.06193 17.9102 4.66797 18.3041 4.66797 18.7902C4.66797 19.2762 5.06193 19.6702 5.54794 19.6702Z" stroke="#E62C2F" stroke-width="0.2" stroke-linecap="round" stroke-linejoin="round"/>
</svg>
