<svg width="11" height="25" viewBox="0 0 11 25" fill="none" xmlns="http://www.w3.org/2000/svg">
<path opacity="0.4" d="M5.7608 7.43954C6.42907 7.43954 6.97079 6.8978 6.97079 6.22954C6.97079 5.56127 6.42907 5.01953 5.7608 5.01953C5.09254 5.01953 4.55078 5.56127 4.55078 6.22954C4.55078 6.8978 5.09254 7.43954 5.7608 7.43954Z" fill="#E62C2F" stroke="#E62C2F" stroke-width="0.2" stroke-linecap="round" stroke-linejoin="round"/>
<path opacity="0.4" d="M5.7608 7.43954C6.42907 7.43954 6.97079 6.8978 6.97079 6.22954C6.97079 5.56127 6.42907 5.01953 5.7608 5.01953C5.09254 5.01953 4.55078 5.56127 4.55078 6.22954C4.55078 6.8978 5.09254 7.43954 5.7608 7.43954Z" stroke="#E62C2F" stroke-width="0.2" stroke-linecap="round" stroke-linejoin="round"/>
<path opacity="0.7" d="M5.75891 7.10961C6.24492 7.10961 6.63892 6.71562 6.63892 6.22961C6.63892 5.7436 6.24492 5.34961 5.75891 5.34961C5.2729 5.34961 4.87891 5.7436 4.87891 6.22961C4.87891 6.71562 5.2729 7.10961 5.75891 7.10961Z" fill="#E62C2F" stroke="#E62C2F" stroke-width="0.2" stroke-linecap="round" stroke-linejoin="round"/>
<path opacity="0.8" d="M5.75891 7.10961C6.24492 7.10961 6.63892 6.71562 6.63892 6.22961C6.63892 5.7436 6.24492 5.34961 5.75891 5.34961C5.2729 5.34961 4.87891 5.7436 4.87891 6.22961C4.87891 6.71562 5.2729 7.10961 5.75891 7.10961Z" stroke="#E62C2F" stroke-width="0.2" stroke-linecap="round" stroke-linejoin="round"/>
</svg>
