<svg width="14" height="25" viewBox="0 0 14 25" fill="none" xmlns="http://www.w3.org/2000/svg">
<path opacity="0.4" d="M7.24124 6.55965C7.90951 6.55965 8.45126 6.01791 8.45126 5.34965C8.45126 4.68138 7.90951 4.13965 7.24124 4.13965C6.57298 4.13965 6.03125 4.68138 6.03125 5.34965C6.03125 6.01791 6.57298 6.55965 7.24124 6.55965Z" fill="#E62C2F" stroke="#E62C2F" stroke-width="0.2" stroke-linecap="round" stroke-linejoin="round"/>
<path opacity="0.4" d="M7.24124 6.55965C7.90951 6.55965 8.45126 6.01791 8.45126 5.34965C8.45126 4.68138 7.90951 4.13965 7.24124 4.13965C6.57298 4.13965 6.03125 4.68138 6.03125 5.34965C6.03125 6.01791 6.57298 6.55965 7.24124 6.55965Z" stroke="#E62C2F" stroke-width="0.2" stroke-linecap="round" stroke-linejoin="round"/>
<path opacity="0.7" d="M7.23938 6.22973C7.72539 6.22973 8.11938 5.83573 8.11938 5.34972C8.11938 4.86371 7.72539 4.46973 7.23938 4.46973C6.75337 4.46973 6.35938 4.86371 6.35938 5.34972C6.35938 5.83573 6.75337 6.22973 7.23938 6.22973Z" fill="#E62C2F" stroke="#E62C2F" stroke-width="0.2" stroke-linecap="round" stroke-linejoin="round"/>
<path opacity="0.8" d="M7.23938 6.22973C7.72539 6.22973 8.11938 5.83573 8.11938 5.34972C8.11938 4.86371 7.72539 4.46973 7.23938 4.46973C6.75337 4.46973 6.35938 4.86371 6.35938 5.34972C6.35938 5.83573 6.75337 6.22973 7.23938 6.22973Z" stroke="#E62C2F" stroke-width="0.2" stroke-linecap="round" stroke-linejoin="round"/>
</svg>
