<svg width="13" height="24" viewBox="0 0 13 24" fill="none" xmlns="http://www.w3.org/2000/svg">
<path opacity="0.4" d="M6.13187 6.55965C6.80013 6.55965 7.34186 6.01791 7.34186 5.34965C7.34186 4.68138 6.80013 4.13965 6.13187 4.13965C5.4636 4.13965 4.92188 4.68138 4.92188 5.34965C4.92188 6.01791 5.4636 6.55965 6.13187 6.55965Z" fill="#E62C2F" stroke="#E62C2F" stroke-width="0.2" stroke-linecap="round" stroke-linejoin="round"/>
<path opacity="0.4" d="M6.13187 6.55965C6.80013 6.55965 7.34186 6.01791 7.34186 5.34965C7.34186 4.68138 6.80013 4.13965 6.13187 4.13965C5.4636 4.13965 4.92188 4.68138 4.92188 5.34965C4.92188 6.01791 5.4636 6.55965 6.13187 6.55965Z" stroke="#E62C2F" stroke-width="0.2" stroke-linecap="round" stroke-linejoin="round"/>
<path opacity="0.7" d="M6.13 6.22973C6.61602 6.22973 7.01001 5.83573 7.01001 5.34972C7.01001 4.86371 6.61602 4.46973 6.13 4.46973C5.64399 4.46973 5.25 4.86371 5.25 5.34972C5.25 5.83573 5.64399 6.22973 6.13 6.22973Z" fill="#E62C2F" stroke="#E62C2F" stroke-width="0.2" stroke-linecap="round" stroke-linejoin="round"/>
<path opacity="0.8" d="M6.13 6.22973C6.61602 6.22973 7.01001 5.83573 7.01001 5.34972C7.01001 4.86371 6.61602 4.46973 6.13 4.46973C5.64399 4.46973 5.25 4.86371 5.25 5.34972C5.25 5.83573 5.64399 6.22973 6.13 6.22973Z" stroke="#E62C2F" stroke-width="0.2" stroke-linecap="round" stroke-linejoin="round"/>
</svg>
