<svg width="12" height="22" viewBox="0 0 12 22" fill="none" xmlns="http://www.w3.org/2000/svg">
<path opacity="0.4" d="M6.35062 5.68954C7.01888 5.68954 7.56061 5.1478 7.56061 4.47954C7.56061 3.81127 7.01888 3.26953 6.35062 3.26953C5.68235 3.26953 5.14062 3.81127 5.14062 4.47954C5.14062 5.1478 5.68235 5.68954 6.35062 5.68954Z" fill="#E62C2F" stroke="#E62C2F" stroke-width="0.2" stroke-linecap="round" stroke-linejoin="round"/>
<path opacity="0.4" d="M6.35062 5.68954C7.01888 5.68954 7.56061 5.1478 7.56061 4.47954C7.56061 3.81127 7.01888 3.26953 6.35062 3.26953C5.68235 3.26953 5.14062 3.81127 5.14062 4.47954C5.14062 5.1478 5.68235 5.68954 6.35062 5.68954Z" stroke="#E62C2F" stroke-width="0.2" stroke-linecap="round" stroke-linejoin="round"/>
<path opacity="0.7" d="M6.34875 5.35961C6.83477 5.35961 7.22876 4.96562 7.22876 4.47961C7.22876 3.9936 6.83477 3.59961 6.34875 3.59961C5.86274 3.59961 5.46875 3.9936 5.46875 4.47961C5.46875 4.96562 5.86274 5.35961 6.34875 5.35961Z" fill="#E62C2F" stroke="#E62C2F" stroke-width="0.2" stroke-linecap="round" stroke-linejoin="round"/>
<path opacity="0.8" d="M6.34875 5.35961C6.83477 5.35961 7.22876 4.96562 7.22876 4.47961C7.22876 3.9936 6.83477 3.59961 6.34875 3.59961C5.86274 3.59961 5.46875 3.9936 5.46875 4.47961C5.46875 4.96562 5.86274 5.35961 6.34875 5.35961Z" stroke="#E62C2F" stroke-width="0.2" stroke-linecap="round" stroke-linejoin="round"/>
</svg>
