<svg width="8" height="23" viewBox="0 0 8 23" fill="none" xmlns="http://www.w3.org/2000/svg">
<path opacity="0.4" d="M4.2803 6.72958C4.94857 6.72958 5.4903 6.18783 5.4903 5.51957C5.4903 4.8513 4.94857 4.30957 4.2803 4.30957C3.61204 4.30957 3.07031 4.8513 3.07031 5.51957C3.07031 6.18783 3.61204 6.72958 4.2803 6.72958Z" fill="#E62C2F" stroke="#E62C2F" stroke-width="0.2" stroke-linecap="round" stroke-linejoin="round"/>
<path opacity="0.4" d="M4.2803 6.72958C4.94857 6.72958 5.4903 6.18783 5.4903 5.51957C5.4903 4.8513 4.94857 4.30957 4.2803 4.30957C3.61204 4.30957 3.07031 4.8513 3.07031 5.51957C3.07031 6.18783 3.61204 6.72958 4.2803 6.72958Z" stroke="#E62C2F" stroke-width="0.2" stroke-linecap="round" stroke-linejoin="round"/>
<path opacity="0.7" d="M4.27844 6.39965C4.76445 6.39965 5.15845 6.00566 5.15845 5.51965C5.15845 5.03364 4.76445 4.63965 4.27844 4.63965C3.79243 4.63965 3.39844 5.03364 3.39844 5.51965C3.39844 6.00566 3.79243 6.39965 4.27844 6.39965Z" fill="#E62C2F" stroke="#E62C2F" stroke-width="0.2" stroke-linecap="round" stroke-linejoin="round"/>
<path opacity="0.8" d="M4.27844 6.39965C4.76445 6.39965 5.15845 6.00566 5.15845 5.51965C5.15845 5.03364 4.76445 4.63965 4.27844 4.63965C3.79243 4.63965 3.39844 5.03364 3.39844 5.51965C3.39844 6.00566 3.79243 6.39965 4.27844 6.39965Z" stroke="#E62C2F" stroke-width="0.2" stroke-linecap="round" stroke-linejoin="round"/>
</svg>
