<svg width="9" height="25" viewBox="0 0 9 25" fill="none" xmlns="http://www.w3.org/2000/svg">
<path opacity="0.4" d="M4.92874 6.83015C5.59701 6.83015 6.13876 6.28842 6.13876 5.62016C6.13876 4.95189 5.59701 4.41016 4.92874 4.41016C4.26048 4.41016 3.71875 4.95189 3.71875 5.62016C3.71875 6.28842 4.26048 6.83015 4.92874 6.83015Z" fill="#E62C2F" stroke="#E62C2F" stroke-width="0.2" stroke-linecap="round" stroke-linejoin="round"/>
<path opacity="0.4" d="M4.92874 6.83015C5.59701 6.83015 6.13876 6.28842 6.13876 5.62016C6.13876 4.95189 5.59701 4.41016 4.92874 4.41016C4.26048 4.41016 3.71875 4.95189 3.71875 5.62016C3.71875 6.28842 4.26048 6.83015 4.92874 6.83015Z" stroke="#E62C2F" stroke-width="0.2" stroke-linecap="round" stroke-linejoin="round"/>
<path opacity="0.7" d="M4.92688 6.50024C5.41289 6.50024 5.80688 6.10625 5.80688 5.62024C5.80688 5.13423 5.41289 4.74023 4.92688 4.74023C4.44087 4.74023 4.04688 5.13423 4.04688 5.62024C4.04688 6.10625 4.44087 6.50024 4.92688 6.50024Z" fill="#E62C2F" stroke="#E62C2F" stroke-width="0.2" stroke-linecap="round" stroke-linejoin="round"/>
<path opacity="0.8" d="M4.92688 6.50024C5.41289 6.50024 5.80688 6.10625 5.80688 5.62024C5.80688 5.13423 5.41289 4.74023 4.92688 4.74023C4.44087 4.74023 4.04688 5.13423 4.04688 5.62024C4.04688 6.10625 4.44087 6.50024 4.92688 6.50024Z" stroke="#E62C2F" stroke-width="0.2" stroke-linecap="round" stroke-linejoin="round"/>
</svg>
