<svg width="9" height="30" viewBox="0 0 9 30" fill="none" xmlns="http://www.w3.org/2000/svg">
<path opacity="0.4" d="M4.74124 7.33992C5.40951 7.33992 5.95126 6.79819 5.95126 6.12992C5.95126 5.46166 5.40951 4.91992 4.74124 4.91992C4.07298 4.91992 3.53125 5.46166 3.53125 6.12992C3.53125 6.79819 4.07298 7.33992 4.74124 7.33992Z" fill="#E62C2F" stroke="#E62C2F" stroke-width="0.2" stroke-linecap="round" stroke-linejoin="round"/>
<path opacity="0.4" d="M4.74124 7.33992C5.40951 7.33992 5.95126 6.79819 5.95126 6.12992C5.95126 5.46166 5.40951 4.91992 4.74124 4.91992C4.07298 4.91992 3.53125 5.46166 3.53125 6.12992C3.53125 6.79819 4.07298 7.33992 4.74124 7.33992Z" stroke="#E62C2F" stroke-width="0.2" stroke-linecap="round" stroke-linejoin="round"/>
<path opacity="0.7" d="M4.73938 7.01C5.22539 7.01 5.61938 6.61601 5.61938 6.13C5.61938 5.64399 5.22539 5.25 4.73938 5.25C4.25337 5.25 3.85938 5.64399 3.85938 6.13C3.85938 6.61601 4.25337 7.01 4.73938 7.01Z" fill="#E62C2F" stroke="#E62C2F" stroke-width="0.2" stroke-linecap="round" stroke-linejoin="round"/>
<path opacity="0.8" d="M4.73938 7.01C5.22539 7.01 5.61938 6.61601 5.61938 6.13C5.61938 5.64399 5.22539 5.25 4.73938 5.25C4.25337 5.25 3.85938 5.64399 3.85938 6.13C3.85938 6.61601 4.25337 7.01 4.73938 7.01Z" stroke="#E62C2F" stroke-width="0.2" stroke-linecap="round" stroke-linejoin="round"/>
</svg>
