<svg width="14" height="25" viewBox="0 0 14 25" fill="none" xmlns="http://www.w3.org/2000/svg">
<path opacity="0.4" d="M7.35063 6.75008C8.0189 6.75008 8.56062 6.20834 8.56062 5.54008C8.56062 4.87181 8.0189 4.33008 7.35063 4.33008C6.68237 4.33008 6.14062 4.87181 6.14062 5.54008C6.14062 6.20834 6.68237 6.75008 7.35063 6.75008Z" fill="#E62C2F" stroke="#E62C2F" stroke-width="0.2" stroke-linecap="round" stroke-linejoin="round"/>
<path opacity="0.4" d="M7.35063 6.75008C8.0189 6.75008 8.56062 6.20834 8.56062 5.54008C8.56062 4.87181 8.0189 4.33008 7.35063 4.33008C6.68237 4.33008 6.14062 4.87181 6.14062 5.54008C6.14062 6.20834 6.68237 6.75008 7.35063 6.75008Z" stroke="#E62C2F" stroke-width="0.2" stroke-linecap="round" stroke-linejoin="round"/>
<path opacity="0.7" d="M7.34875 6.42015C7.83477 6.42015 8.22874 6.02616 8.22874 5.54015C8.22874 5.05414 7.83477 4.66016 7.34875 4.66016C6.86274 4.66016 6.46875 5.05414 6.46875 5.54015C6.46875 6.02616 6.86274 6.42015 7.34875 6.42015Z" fill="#E62C2F" stroke="#E62C2F" stroke-width="0.2" stroke-linecap="round" stroke-linejoin="round"/>
<path opacity="0.8" d="M7.34875 6.42015C7.83477 6.42015 8.22874 6.02616 8.22874 5.54015C8.22874 5.05414 7.83477 4.66016 7.34875 4.66016C6.86274 4.66016 6.46875 5.05414 6.46875 5.54015C6.46875 6.02616 6.86274 6.42015 7.34875 6.42015Z" stroke="#E62C2F" stroke-width="0.2" stroke-linecap="round" stroke-linejoin="round"/>
</svg>
