<svg width="12" height="24" viewBox="0 0 12 24" fill="none" xmlns="http://www.w3.org/2000/svg">
<path opacity="0.4" d="M5.94827 6.72958C6.61654 6.72958 7.15828 6.18783 7.15828 5.51957C7.15828 4.8513 6.61654 4.30957 5.94827 4.30957C5.28001 4.30957 4.73828 4.8513 4.73828 5.51957C4.73828 6.18783 5.28001 6.72958 5.94827 6.72958Z" fill="#E62C2F" stroke="#E62C2F" stroke-width="0.2" stroke-linecap="round" stroke-linejoin="round"/>
<path opacity="0.4" d="M5.94827 6.72958C6.61654 6.72958 7.15828 6.18783 7.15828 5.51957C7.15828 4.8513 6.61654 4.30957 5.94827 4.30957C5.28001 4.30957 4.73828 4.8513 4.73828 5.51957C4.73828 6.18783 5.28001 6.72958 5.94827 6.72958Z" stroke="#E62C2F" stroke-width="0.2" stroke-linecap="round" stroke-linejoin="round"/>
<path opacity="0.7" d="M5.9464 6.39965C6.43241 6.39965 6.8264 6.00566 6.8264 5.51965C6.8264 5.03364 6.43241 4.63965 5.9464 4.63965C5.46039 4.63965 5.06641 5.03364 5.06641 5.51965C5.06641 6.00566 5.46039 6.39965 5.9464 6.39965Z" fill="#E62C2F" stroke="#E62C2F" stroke-width="0.2" stroke-linecap="round" stroke-linejoin="round"/>
<path opacity="0.8" d="M5.9464 6.39965C6.43241 6.39965 6.8264 6.00566 6.8264 5.51965C6.8264 5.03364 6.43241 4.63965 5.9464 4.63965C5.46039 4.63965 5.06641 5.03364 5.06641 5.51965C5.06641 6.00566 5.46039 6.39965 5.9464 6.39965Z" stroke="#E62C2F" stroke-width="0.2" stroke-linecap="round" stroke-linejoin="round"/>
</svg>
