<svg width="11" height="20" viewBox="0 0 11 20" fill="none" xmlns="http://www.w3.org/2000/svg">
<path opacity="0.4" d="M5.29156 17.09C5.81071 17.09 6.23156 16.6691 6.23156 16.15C6.23156 15.6308 5.81071 15.21 5.29156 15.21C4.77242 15.21 4.35156 15.6308 4.35156 16.15C4.35156 16.6691 4.77242 17.09 5.29156 17.09Z" fill="#E62C2F" stroke="#E62C2F" stroke-width="0.15" stroke-linecap="round" stroke-linejoin="round"/>
<path opacity="0.4" d="M5.29156 17.09C5.81071 17.09 6.23156 16.6691 6.23156 16.15C6.23156 15.6308 5.81071 15.21 5.29156 15.21C4.77242 15.21 4.35156 15.6308 4.35156 16.15C4.35156 16.6691 4.77242 17.09 5.29156 17.09Z" stroke="#E62C2F" stroke-width="0.15" stroke-linecap="round" stroke-linejoin="round"/>
<path opacity="0.7" d="M5.29328 16.8297C5.66884 16.8297 5.97328 16.5253 5.97328 16.1497C5.97328 15.7742 5.66884 15.4697 5.29328 15.4697C4.91773 15.4697 4.61328 15.7742 4.61328 16.1497C4.61328 16.5253 4.91773 16.8297 5.29328 16.8297Z" fill="#E62C2F" stroke="#E62C2F" stroke-width="0.15" stroke-linecap="round" stroke-linejoin="round"/>
<path opacity="0.8" d="M5.29328 16.8297C5.66884 16.8297 5.97328 16.5253 5.97328 16.1497C5.97328 15.7742 5.66884 15.4697 5.29328 15.4697C4.91773 15.4697 4.61328 15.7742 4.61328 16.1497C4.61328 16.5253 4.91773 16.8297 5.29328 16.8297Z" stroke="#E62C2F" stroke-width="0.15" stroke-linecap="round" stroke-linejoin="round"/>
</svg>
