<svg width="14" height="20" viewBox="0 0 14 20" fill="none" xmlns="http://www.w3.org/2000/svg">
<path opacity="0.4" d="M8.52984 16.4904C9.04899 16.4904 9.46984 16.0695 9.46984 15.5504C9.46984 15.0312 9.04899 14.6104 8.52984 14.6104C8.0107 14.6104 7.58984 15.0312 7.58984 15.5504C7.58984 16.0695 8.0107 16.4904 8.52984 16.4904Z" fill="#E62C2F" stroke="#E62C2F" stroke-width="0.15" stroke-linecap="round" stroke-linejoin="round"/>
<path opacity="0.4" d="M8.52984 16.4904C9.04899 16.4904 9.46984 16.0695 9.46984 15.5504C9.46984 15.0312 9.04899 14.6104 8.52984 14.6104C8.0107 14.6104 7.58984 15.0312 7.58984 15.5504C7.58984 16.0695 8.0107 16.4904 8.52984 16.4904Z" stroke="#E62C2F" stroke-width="0.15" stroke-linecap="round" stroke-linejoin="round"/>
<path opacity="0.7" d="M8.53156 16.2301C8.90712 16.2301 9.21156 15.9257 9.21156 15.5501C9.21156 15.1746 8.90712 14.8701 8.53156 14.8701C8.15601 14.8701 7.85156 15.1746 7.85156 15.5501C7.85156 15.9257 8.15601 16.2301 8.53156 16.2301Z" fill="#E62C2F" stroke="#E62C2F" stroke-width="0.15" stroke-linecap="round" stroke-linejoin="round"/>
<path opacity="0.8" d="M8.53156 16.2301C8.90712 16.2301 9.21156 15.9257 9.21156 15.5501C9.21156 15.1746 8.90712 14.8701 8.53156 14.8701C8.15601 14.8701 7.85156 15.1746 7.85156 15.5501C7.85156 15.9257 8.15601 16.2301 8.53156 16.2301Z" stroke="#E62C2F" stroke-width="0.15" stroke-linecap="round" stroke-linejoin="round"/>
</svg>
