<svg width="8" height="20" viewBox="0 0 8 20" fill="none" xmlns="http://www.w3.org/2000/svg">
<path opacity="0.4" d="M4.08157 16.8799C4.48473 16.8799 4.81156 16.5531 4.81156 16.1499C4.81156 15.7468 4.48473 15.4199 4.08157 15.4199C3.6784 15.4199 3.35156 15.7468 3.35156 16.1499C3.35156 16.5531 3.6784 16.8799 4.08157 16.8799Z" fill="#E62C2F" stroke="#E62C2F" stroke-width="0.15" stroke-linecap="round" stroke-linejoin="round"/>
<path opacity="0.4" d="M4.08157 16.8799C4.48473 16.8799 4.81156 16.5531 4.81156 16.1499C4.81156 15.7468 4.48473 15.4199 4.08157 15.4199C3.6784 15.4199 3.35156 15.7468 3.35156 16.1499C3.35156 16.5531 3.6784 16.8799 4.08157 16.8799Z" stroke="#E62C2F" stroke-width="0.15" stroke-linecap="round" stroke-linejoin="round"/>
<path opacity="0.7" d="M4.08078 16.6801C4.37349 16.6801 4.61078 16.4428 4.61078 16.1501C4.61078 15.8574 4.37349 15.6201 4.08078 15.6201C3.78807 15.6201 3.55078 15.8574 3.55078 16.1501C3.55078 16.4428 3.78807 16.6801 4.08078 16.6801Z" fill="#E62C2F" stroke="#E62C2F" stroke-width="0.15" stroke-linecap="round" stroke-linejoin="round"/>
<path opacity="0.8" d="M4.08078 16.6801C4.37349 16.6801 4.61078 16.4428 4.61078 16.1501C4.61078 15.8574 4.37349 15.6201 4.08078 15.6201C3.78807 15.6201 3.55078 15.8574 3.55078 16.1501C3.55078 16.4428 3.78807 16.6801 4.08078 16.6801Z" stroke="#E62C2F" stroke-width="0.15" stroke-linecap="round" stroke-linejoin="round"/>
</svg>
