<svg width="7" height="19" viewBox="0 0 7 19" fill="none" xmlns="http://www.w3.org/2000/svg">
<path opacity="0.4" d="M3.28078 16.25C3.68394 16.25 4.01077 15.9232 4.01077 15.52C4.01077 15.1169 3.68394 14.79 3.28078 14.79C2.87761 14.79 2.55078 15.1169 2.55078 15.52C2.55078 15.9232 2.87761 16.25 3.28078 16.25Z" fill="#E62C2F" stroke="#E62C2F" stroke-width="0.15" stroke-linecap="round" stroke-linejoin="round"/>
<path opacity="0.4" d="M3.28078 16.25C3.68394 16.25 4.01077 15.9232 4.01077 15.52C4.01077 15.1169 3.68394 14.79 3.28078 14.79C2.87761 14.79 2.55078 15.1169 2.55078 15.52C2.55078 15.9232 2.87761 16.25 3.28078 16.25Z" stroke="#E62C2F" stroke-width="0.15" stroke-linecap="round" stroke-linejoin="round"/>
<path opacity="0.7" d="M3.28 16.0502C3.57271 16.0502 3.81 15.8129 3.81 15.5202C3.81 15.2275 3.57271 14.9902 3.28 14.9902C2.98729 14.9902 2.75 15.2275 2.75 15.5202C2.75 15.8129 2.98729 16.0502 3.28 16.0502Z" fill="#E62C2F" stroke="#E62C2F" stroke-width="0.15" stroke-linecap="round" stroke-linejoin="round"/>
<path opacity="0.8" d="M3.28 16.0502C3.57271 16.0502 3.81 15.8129 3.81 15.5202C3.81 15.2275 3.57271 14.9902 3.28 14.9902C2.98729 14.9902 2.75 15.2275 2.75 15.5202C2.75 15.8129 2.98729 16.0502 3.28 16.0502Z" stroke="#E62C2F" stroke-width="0.15" stroke-linecap="round" stroke-linejoin="round"/>
</svg>
