<svg width="7" height="22" viewBox="0 0 7 22" fill="none" xmlns="http://www.w3.org/2000/svg">
<path opacity="0.4" d="M3.49953 17.9903C3.90269 17.9903 4.22952 17.6634 4.22952 17.2603C4.22952 16.8571 3.90269 16.5303 3.49953 16.5303C3.09636 16.5303 2.76953 16.8571 2.76953 17.2603C2.76953 17.6634 3.09636 17.9903 3.49953 17.9903Z" fill="#E62C2F" stroke="#E62C2F" stroke-width="0.15" stroke-linecap="round" stroke-linejoin="round"/>
<path opacity="0.4" d="M3.49953 17.9903C3.90269 17.9903 4.22952 17.6634 4.22952 17.2603C4.22952 16.8571 3.90269 16.5303 3.49953 16.5303C3.09636 16.5303 2.76953 16.8571 2.76953 17.2603C2.76953 17.6634 3.09636 17.9903 3.49953 17.9903Z" stroke="#E62C2F" stroke-width="0.15" stroke-linecap="round" stroke-linejoin="round"/>
<path opacity="0.7" d="M3.49875 17.7905C3.79146 17.7905 4.02875 17.5532 4.02875 17.2605C4.02875 16.9678 3.79146 16.7305 3.49875 16.7305C3.20604 16.7305 2.96875 16.9678 2.96875 17.2605C2.96875 17.5532 3.20604 17.7905 3.49875 17.7905Z" fill="#E62C2F" stroke="#E62C2F" stroke-width="0.15" stroke-linecap="round" stroke-linejoin="round"/>
<path opacity="0.8" d="M3.49875 17.7905C3.79146 17.7905 4.02875 17.5532 4.02875 17.2605C4.02875 16.9678 3.79146 16.7305 3.49875 16.7305C3.20604 16.7305 2.96875 16.9678 2.96875 17.2605C2.96875 17.5532 3.20604 17.7905 3.49875 17.7905Z" stroke="#E62C2F" stroke-width="0.15" stroke-linecap="round" stroke-linejoin="round"/>
</svg>
