<svg width="11" height="20" viewBox="0 0 11 20" fill="none" xmlns="http://www.w3.org/2000/svg">
<path opacity="0.4" d="M5.5103 16.9298C6.02945 16.9298 6.4503 16.509 6.4503 15.9898C6.4503 15.4707 6.02945 15.0498 5.5103 15.0498C4.99115 15.0498 4.57031 15.4707 4.57031 15.9898C4.57031 16.509 4.99115 16.9298 5.5103 16.9298Z" fill="#E62C2F" stroke="#E62C2F" stroke-width="0.15" stroke-linecap="round" stroke-linejoin="round"/>
<path opacity="0.4" d="M5.5103 16.9298C6.02945 16.9298 6.4503 16.509 6.4503 15.9898C6.4503 15.4707 6.02945 15.0498 5.5103 15.0498C4.99115 15.0498 4.57031 15.4707 4.57031 15.9898C4.57031 16.509 4.99115 16.9298 5.5103 16.9298Z" stroke="#E62C2F" stroke-width="0.15" stroke-linecap="round" stroke-linejoin="round"/>
<path opacity="0.7" d="M5.51202 16.6696C5.88758 16.6696 6.19203 16.3651 6.19203 15.9896C6.19203 15.614 5.88758 15.3096 5.51202 15.3096C5.13647 15.3096 4.83203 15.614 4.83203 15.9896C4.83203 16.3651 5.13647 16.6696 5.51202 16.6696Z" fill="#E62C2F" stroke="#E62C2F" stroke-width="0.15" stroke-linecap="round" stroke-linejoin="round"/>
<path opacity="0.8" d="M5.51202 16.6696C5.88758 16.6696 6.19203 16.3651 6.19203 15.9896C6.19203 15.614 5.88758 15.3096 5.51202 15.3096C5.13647 15.3096 4.83203 15.614 4.83203 15.9896C4.83203 16.3651 5.13647 16.6696 5.51202 16.6696Z" stroke="#E62C2F" stroke-width="0.15" stroke-linecap="round" stroke-linejoin="round"/>
</svg>
