<svg width="14" height="20" viewBox="0 0 14 20" fill="none" xmlns="http://www.w3.org/2000/svg">
<path opacity="0.4" d="M5.3511 16.5704C5.89234 16.5704 6.3311 16.1316 6.3311 15.5904C6.3311 15.0491 5.89234 14.6104 5.3511 14.6104C4.80987 14.6104 4.37109 15.0491 4.37109 15.5904C4.37109 16.1316 4.80987 16.5704 5.3511 16.5704Z" fill="#E62C2F" stroke="#E62C2F" stroke-width="0.15" stroke-linecap="round" stroke-linejoin="round"/>
<path opacity="0.4" d="M5.3511 16.5704C5.89234 16.5704 6.3311 16.1316 6.3311 15.5904C6.3311 15.0491 5.89234 14.6104 5.3511 14.6104C4.80987 14.6104 4.37109 15.0491 4.37109 15.5904C4.37109 16.1316 4.80987 16.5704 5.3511 16.5704Z" stroke="#E62C2F" stroke-width="0.15" stroke-linecap="round" stroke-linejoin="round"/>
<path opacity="0.7" d="M5.35063 16.2999C5.74275 16.2999 6.06062 15.982 6.06062 15.5899C6.06062 15.1978 5.74275 14.8799 5.35063 14.8799C4.95851 14.8799 4.64062 15.1978 4.64062 15.5899C4.64062 15.982 4.95851 16.2999 5.35063 16.2999Z" fill="#E62C2F" stroke="#E62C2F" stroke-width="0.15" stroke-linecap="round" stroke-linejoin="round"/>
<path opacity="0.8" d="M5.35063 16.2999C5.74275 16.2999 6.06062 15.982 6.06062 15.5899C6.06062 15.1978 5.74275 14.8799 5.35063 14.8799C4.95851 14.8799 4.64062 15.1978 4.64062 15.5899C4.64062 15.982 4.95851 16.2999 5.35063 16.2999Z" stroke="#E62C2F" stroke-width="0.15" stroke-linecap="round" stroke-linejoin="round"/>
</svg>
