<svg width="13" height="20" viewBox="0 0 13 20" fill="none" xmlns="http://www.w3.org/2000/svg">
<path opacity="0.4" d="M5.74844 6.32011C6.35596 6.32011 6.84845 5.82763 6.84845 5.22012C6.84845 4.6126 6.35596 4.12012 5.74844 4.12012C5.14093 4.12012 4.64844 4.6126 4.64844 5.22012C4.64844 5.82763 5.14093 6.32011 5.74844 6.32011Z" fill="#E62C2F" stroke="#E62C2F" stroke-width="0.15" stroke-linecap="round" stroke-linejoin="round"/>
<path opacity="0.4" d="M5.74844 6.32011C6.35596 6.32011 6.84845 5.82763 6.84845 5.22012C6.84845 4.6126 6.35596 4.12012 5.74844 4.12012C5.14093 4.12012 4.64844 4.6126 4.64844 5.22012C4.64844 5.82763 5.14093 6.32011 5.74844 6.32011Z" stroke="#E62C2F" stroke-width="0.15" stroke-linecap="round" stroke-linejoin="round"/>
<path opacity="0.7" d="M5.74702 6.00969C6.18333 6.00969 6.53702 5.65599 6.53702 5.21969C6.53702 4.78338 6.18333 4.42969 5.74702 4.42969C5.31072 4.42969 4.95703 4.78338 4.95703 5.21969C4.95703 5.65599 5.31072 6.00969 5.74702 6.00969Z" fill="#E62C2F" stroke="#E62C2F" stroke-width="0.15" stroke-linecap="round" stroke-linejoin="round"/>
<path opacity="0.8" d="M5.74702 6.00969C6.18333 6.00969 6.53702 5.65599 6.53702 5.21969C6.53702 4.78338 6.18333 4.42969 5.74702 4.42969C5.31072 4.42969 4.95703 4.78338 4.95703 5.21969C4.95703 5.65599 5.31072 6.00969 5.74702 6.00969Z" stroke="#E62C2F" stroke-width="0.15" stroke-linecap="round" stroke-linejoin="round"/>
</svg>
