<svg width="5" height="19" viewBox="0 0 5 19" fill="none" xmlns="http://www.w3.org/2000/svg">
<path opacity="0.4" d="M2.69875 5.37016C3.10191 5.37016 3.42875 5.04332 3.42875 4.64015C3.42875 4.23698 3.10191 3.91016 2.69875 3.91016C2.29558 3.91016 1.96875 4.23698 1.96875 4.64015C1.96875 5.04332 2.29558 5.37016 2.69875 5.37016Z" fill="#E62C2F" stroke="#E62C2F" stroke-width="0.15" stroke-linecap="round" stroke-linejoin="round"/>
<path opacity="0.4" d="M2.69875 5.37016C3.10191 5.37016 3.42875 5.04332 3.42875 4.64015C3.42875 4.23698 3.10191 3.91016 2.69875 3.91016C2.29558 3.91016 1.96875 4.23698 1.96875 4.64015C1.96875 5.04332 2.29558 5.37016 2.69875 5.37016Z" stroke="#E62C2F" stroke-width="0.15" stroke-linecap="round" stroke-linejoin="round"/>
<path opacity="0.7" d="M2.69797 5.17035C2.99068 5.17035 3.22797 4.93306 3.22797 4.64035C3.22797 4.34764 2.99068 4.11035 2.69797 4.11035C2.40526 4.11035 2.16797 4.34764 2.16797 4.64035C2.16797 4.93306 2.40526 5.17035 2.69797 5.17035Z" fill="#E62C2F" stroke="#E62C2F" stroke-width="0.15" stroke-linecap="round" stroke-linejoin="round"/>
<path opacity="0.8" d="M2.69797 5.17035C2.99068 5.17035 3.22797 4.93306 3.22797 4.64035C3.22797 4.34764 2.99068 4.11035 2.69797 4.11035C2.40526 4.11035 2.16797 4.34764 2.16797 4.64035C2.16797 4.93306 2.40526 5.17035 2.69797 5.17035Z" stroke="#E62C2F" stroke-width="0.15" stroke-linecap="round" stroke-linejoin="round"/>
</svg>
