<svg width="6" height="19" viewBox="0 0 6 19" fill="none" xmlns="http://www.w3.org/2000/svg">
<path opacity="0.4" d="M2.58937 5.37016C2.99254 5.37016 3.31937 5.04332 3.31937 4.64015C3.31937 4.23698 2.99254 3.91016 2.58937 3.91016C2.1862 3.91016 1.85938 4.23698 1.85938 4.64015C1.85938 5.04332 2.1862 5.37016 2.58937 5.37016Z" fill="#E62C2F" stroke="#E62C2F" stroke-width="0.15" stroke-linecap="round" stroke-linejoin="round"/>
<path opacity="0.4" d="M2.58937 5.37016C2.99254 5.37016 3.31937 5.04332 3.31937 4.64015C3.31937 4.23698 2.99254 3.91016 2.58937 3.91016C2.1862 3.91016 1.85938 4.23698 1.85938 4.64015C1.85938 5.04332 2.1862 5.37016 2.58937 5.37016Z" stroke="#E62C2F" stroke-width="0.15" stroke-linecap="round" stroke-linejoin="round"/>
<path opacity="0.7" d="M2.58859 5.17035C2.8813 5.17035 3.1186 4.93306 3.1186 4.64035C3.1186 4.34764 2.8813 4.11035 2.58859 4.11035C2.29588 4.11035 2.05859 4.34764 2.05859 4.64035C2.05859 4.93306 2.29588 5.17035 2.58859 5.17035Z" fill="#E62C2F" stroke="#E62C2F" stroke-width="0.15" stroke-linecap="round" stroke-linejoin="round"/>
<path opacity="0.8" d="M2.58859 5.17035C2.8813 5.17035 3.1186 4.93306 3.1186 4.64035C3.1186 4.34764 2.8813 4.11035 2.58859 4.11035C2.29588 4.11035 2.05859 4.34764 2.05859 4.64035C2.05859 4.93306 2.29588 5.17035 2.58859 5.17035Z" stroke="#E62C2F" stroke-width="0.15" stroke-linecap="round" stroke-linejoin="round"/>
</svg>
