<svg width="12" height="19" viewBox="0 0 12 19" fill="none" xmlns="http://www.w3.org/2000/svg">
<path opacity="0.4" d="M5.76031 5.88976C6.27946 5.88976 6.70031 5.46891 6.70031 4.94976C6.70031 4.43061 6.27946 4.00977 5.76031 4.00977C5.24116 4.00977 4.82031 4.43061 4.82031 4.94976C4.82031 5.46891 5.24116 5.88976 5.76031 5.88976Z" fill="#E62C2F" stroke="#E62C2F" stroke-width="0.15" stroke-linecap="round" stroke-linejoin="round"/>
<path opacity="0.4" d="M5.76031 5.88976C6.27946 5.88976 6.70031 5.46891 6.70031 4.94976C6.70031 4.43061 6.27946 4.00977 5.76031 4.00977C5.24116 4.00977 4.82031 4.43061 4.82031 4.94976C4.82031 5.46891 5.24116 5.88976 5.76031 5.88976Z" stroke="#E62C2F" stroke-width="0.15" stroke-linecap="round" stroke-linejoin="round"/>
<path opacity="0.7" d="M5.76203 5.62953C6.13758 5.62953 6.44203 5.32509 6.44203 4.94953C6.44203 4.57398 6.13758 4.26953 5.76203 4.26953C5.38647 4.26953 5.08203 4.57398 5.08203 4.94953C5.08203 5.32509 5.38647 5.62953 5.76203 5.62953Z" fill="#E62C2F" stroke="#E62C2F" stroke-width="0.15" stroke-linecap="round" stroke-linejoin="round"/>
<path opacity="0.8" d="M5.76203 5.62953C6.13758 5.62953 6.44203 5.32509 6.44203 4.94953C6.44203 4.57398 6.13758 4.26953 5.76203 4.26953C5.38647 4.26953 5.08203 4.57398 5.08203 4.94953C5.08203 5.32509 5.38647 5.62953 5.76203 5.62953Z" stroke="#E62C2F" stroke-width="0.15" stroke-linecap="round" stroke-linejoin="round"/>
</svg>
