<svg width="13" height="20" viewBox="0 0 13 20" fill="none" xmlns="http://www.w3.org/2000/svg">
<path opacity="0.4" d="M7.08844 6.3302C7.60759 6.3302 8.02844 5.90935 8.02844 5.3902C8.02844 4.87105 7.60759 4.4502 7.08844 4.4502C6.56929 4.4502 6.14844 4.87105 6.14844 5.3902C6.14844 5.90935 6.56929 6.3302 7.08844 6.3302Z" fill="#E62C2F" stroke="#E62C2F" stroke-width="0.15" stroke-linecap="round" stroke-linejoin="round"/>
<path opacity="0.4" d="M7.08844 6.3302C7.60759 6.3302 8.02844 5.90935 8.02844 5.3902C8.02844 4.87105 7.60759 4.4502 7.08844 4.4502C6.56929 4.4502 6.14844 4.87105 6.14844 5.3902C6.14844 5.90935 6.56929 6.3302 7.08844 6.3302Z" stroke="#E62C2F" stroke-width="0.15" stroke-linecap="round" stroke-linejoin="round"/>
<path opacity="0.7" d="M7.09016 6.06996C7.46571 6.06996 7.77016 5.76551 7.77016 5.38996C7.77016 5.01441 7.46571 4.70996 7.09016 4.70996C6.7146 4.70996 6.41016 5.01441 6.41016 5.38996C6.41016 5.76551 6.7146 6.06996 7.09016 6.06996Z" fill="#E62C2F" stroke="#E62C2F" stroke-width="0.15" stroke-linecap="round" stroke-linejoin="round"/>
<path opacity="0.8" d="M7.09016 6.06996C7.46571 6.06996 7.77016 5.76551 7.77016 5.38996C7.77016 5.01441 7.46571 4.70996 7.09016 4.70996C6.7146 4.70996 6.41016 5.01441 6.41016 5.38996C6.41016 5.76551 6.7146 6.06996 7.09016 6.06996Z" stroke="#E62C2F" stroke-width="0.15" stroke-linecap="round" stroke-linejoin="round"/>
</svg>
