<svg width="22" height="28" viewBox="0 0 22 28" fill="none" xmlns="http://www.w3.org/2000/svg">
<path d="M17.6706 20.54H15.4306C15.1324 20.54 14.8906 20.7818 14.8906 21.08V23.32C14.8906 23.6183 15.1324 23.86 15.4306 23.86H17.6706C17.9689 23.86 18.2106 23.6183 18.2106 23.32V21.08C18.2106 20.7818 17.9689 20.54 17.6706 20.54Z" fill="#DDDDDD" stroke="#5E5E5A" stroke-width="0.15" stroke-miterlimit="10" stroke-linecap="round"/>
<path d="M17.1606 21.29H15.9306C15.7704 21.29 15.6406 21.4199 15.6406 21.58V22.81C15.6406 22.9702 15.7704 23.1 15.9306 23.1H17.1606C17.3208 23.1 17.4506 22.9702 17.4506 22.81V21.58C17.4506 21.4199 17.3208 21.29 17.1606 21.29Z" fill="#DDDDDD" stroke="#5E5E5A" stroke-width="0.15" stroke-miterlimit="10" stroke-linecap="round"/>
<path d="M17.1094 23.0903C17.1094 23.2703 17.2594 23.4203 17.4394 23.4203C17.6194 23.4203 17.7694 23.2703 17.7694 23.0903V21.4003C17.7694 21.2203 17.6194 21.0703 17.4394 21.0703C17.2594 21.0703 17.1094 21.2203 17.1094 21.4003V23.0903Z" fill="#DDDDDD" stroke="#5E5E5A" stroke-width="0.15" stroke-miterlimit="10" stroke-linecap="round"/>
<path d="M15.3203 23.0903C15.3203 23.2703 15.4703 23.4203 15.6503 23.4203C15.8303 23.4203 15.9803 23.2703 15.9803 23.0903V21.4003C15.9803 21.2203 15.8303 21.0703 15.6503 21.0703C15.4703 21.0703 15.3203 21.2203 15.3203 21.4003V23.0903Z" fill="#DDDDDD" stroke="#5E5E5A" stroke-width="0.15" stroke-miterlimit="10" stroke-linecap="round"/>
<path d="M14.8889 21.8496H0.128906V22.5496H14.8889V21.8496Z" fill="#DDDDDD" stroke="#5E5E5A" stroke-width="0.15" stroke-miterlimit="10" stroke-linecap="round"/>
</svg>
