<svg width="22" height="27" viewBox="0 0 22 27" fill="none" xmlns="http://www.w3.org/2000/svg">
<path d="M18.5808 19.54H16.3408C16.0426 19.54 15.8008 19.7818 15.8008 20.08V22.32C15.8008 22.6183 16.0426 22.86 16.3408 22.86H18.5808C18.879 22.86 19.1208 22.6183 19.1208 22.32V20.08C19.1208 19.7818 18.879 19.54 18.5808 19.54Z" fill="#DDDDDD" stroke="#5E5E5A" stroke-width="0.15" stroke-miterlimit="10" stroke-linecap="round"/>
<path d="M18.0825 20.29H16.8525C16.6923 20.29 16.5625 20.4199 16.5625 20.58V21.81C16.5625 21.9702 16.6923 22.1 16.8525 22.1H18.0825C18.2427 22.1 18.3725 21.9702 18.3725 21.81V20.58C18.3725 20.4199 18.2427 20.29 18.0825 20.29Z" fill="#DDDDDD" stroke="#5E5E5A" stroke-width="0.15" stroke-miterlimit="10" stroke-linecap="round"/>
<path d="M18.0312 22.0903C18.0312 22.2703 18.1812 22.4203 18.3612 22.4203C18.5412 22.4203 18.6913 22.2703 18.6913 22.0903V20.4003C18.6913 20.2203 18.5412 20.0703 18.3612 20.0703C18.1812 20.0703 18.0312 20.2203 18.0312 20.4003V22.0903Z" fill="#DDDDDD" stroke="#5E5E5A" stroke-width="0.15" stroke-miterlimit="10" stroke-linecap="round"/>
<path d="M16.2305 22.0903C16.2305 22.2703 16.3805 22.4203 16.5605 22.4203C16.7405 22.4203 16.8905 22.2703 16.8905 22.0903V20.4003C16.8905 20.2203 16.7405 20.0703 16.5605 20.0703C16.3805 20.0703 16.2305 20.2203 16.2305 20.4003V22.0903Z" fill="#DDDDDD" stroke="#5E5E5A" stroke-width="0.15" stroke-miterlimit="10" stroke-linecap="round"/>
<path d="M15.8116 20.8496H0.351562V21.5496H15.8116V20.8496Z" fill="#DDDDDD" stroke="#5E5E5A" stroke-width="0.15" stroke-miterlimit="10" stroke-linecap="round"/>
</svg>
