<svg width="22" height="32" viewBox="0 0 22 32" fill="none" xmlns="http://www.w3.org/2000/svg">
<path d="M17.8112 24.54H15.5713C15.273 24.54 15.0312 24.7818 15.0312 25.08V27.32C15.0312 27.6183 15.273 27.86 15.5713 27.86H17.8112C18.1095 27.86 18.3513 27.6183 18.3513 27.32V25.08C18.3513 24.7818 18.1095 24.54 17.8112 24.54Z" fill="#DDDDDD" stroke="#5E5E5A" stroke-width="0.15" stroke-miterlimit="10" stroke-linecap="round"/>
<path d="M17.3012 25.29H16.0713C15.9111 25.29 15.7812 25.4199 15.7812 25.58V26.81C15.7812 26.9702 15.9111 27.1 16.0713 27.1H17.3012C17.4614 27.1 17.5912 26.9702 17.5912 26.81V25.58C17.5912 25.4199 17.4614 25.29 17.3012 25.29Z" fill="#DDDDDD" stroke="#5E5E5A" stroke-width="0.15" stroke-miterlimit="10" stroke-linecap="round"/>
<path d="M17.25 27.0903C17.25 27.2703 17.4 27.4203 17.58 27.4203C17.76 27.4203 17.91 27.2703 17.91 27.0903V25.4003C17.91 25.2203 17.76 25.0703 17.58 25.0703C17.4 25.0703 17.25 25.2203 17.25 25.4003V27.0903Z" fill="#DDDDDD" stroke="#5E5E5A" stroke-width="0.15" stroke-miterlimit="10" stroke-linecap="round"/>
<path d="M15.4609 27.0903C15.4609 27.2703 15.611 27.4203 15.791 27.4203C15.971 27.4203 16.1209 27.2703 16.1209 27.0903V25.4003C16.1209 25.2203 15.971 25.0703 15.791 25.0703C15.611 25.0703 15.4609 25.2203 15.4609 25.4003V27.0903Z" fill="#DDDDDD" stroke="#5E5E5A" stroke-width="0.15" stroke-miterlimit="10" stroke-linecap="round"/>
<path d="M15.0289 25.8496H0.378906V26.5496H15.0289V25.8496Z" fill="#DDDDDD" stroke="#5E5E5A" stroke-width="0.15" stroke-miterlimit="10" stroke-linecap="round"/>
</svg>
