<svg width="23" height="28" viewBox="0 0 23 28" fill="none" xmlns="http://www.w3.org/2000/svg">
<path d="M17.8308 20.54H15.5908C15.2926 20.54 15.0508 20.7818 15.0508 21.08V23.32C15.0508 23.6183 15.2926 23.86 15.5908 23.86H17.8308C18.129 23.86 18.3708 23.6183 18.3708 23.32V21.08C18.3708 20.7818 18.129 20.54 17.8308 20.54Z" fill="#DDDDDD" stroke="#5E5E5A" stroke-width="0.15" stroke-miterlimit="10" stroke-linecap="round"/>
<path d="M17.3325 21.29H16.1025C15.9423 21.29 15.8125 21.4199 15.8125 21.58V22.81C15.8125 22.9702 15.9423 23.1 16.1025 23.1H17.3325C17.4927 23.1 17.6225 22.9702 17.6225 22.81V21.58C17.6225 21.4199 17.4927 21.29 17.3325 21.29Z" fill="#DDDDDD" stroke="#5E5E5A" stroke-width="0.15" stroke-miterlimit="10" stroke-linecap="round"/>
<path d="M17.2812 23.0903C17.2812 23.2703 17.4312 23.4203 17.6112 23.4203C17.7912 23.4203 17.9413 23.2703 17.9413 23.0903V21.4003C17.9413 21.2203 17.7912 21.0703 17.6112 21.0703C17.4312 21.0703 17.2812 21.2203 17.2812 21.4003V23.0903Z" fill="#DDDDDD" stroke="#5E5E5A" stroke-width="0.15" stroke-miterlimit="10" stroke-linecap="round"/>
<path d="M15.4805 23.0903C15.4805 23.2703 15.6305 23.4203 15.8105 23.4203C15.9905 23.4203 16.1405 23.2703 16.1405 23.0903V21.4003C16.1405 21.2203 15.9905 21.0703 15.8105 21.0703C15.6305 21.0703 15.4805 21.2203 15.4805 21.4003V23.0903Z" fill="#DDDDDD" stroke="#5E5E5A" stroke-width="0.15" stroke-miterlimit="10" stroke-linecap="round"/>
<path d="M15.0614 21.8496H0.191406V22.5496H15.0614V21.8496Z" fill="#DDDDDD" stroke="#5E5E5A" stroke-width="0.15" stroke-miterlimit="10" stroke-linecap="round"/>
</svg>
