<svg width="22" height="26" viewBox="0 0 22 26" fill="none" xmlns="http://www.w3.org/2000/svg">
<path d="M18.6511 18.54H16.4111C16.1129 18.54 15.8711 18.7818 15.8711 19.08V21.32C15.8711 21.6183 16.1129 21.86 16.4111 21.86H18.6511C18.9493 21.86 19.1911 21.6183 19.1911 21.32V19.08C19.1911 18.7818 18.9493 18.54 18.6511 18.54Z" fill="#DDDDDD" stroke="#5E5E5A" stroke-width="0.15" stroke-miterlimit="10" stroke-linecap="round"/>
<path d="M18.1411 19.29H16.9111C16.7509 19.29 16.6211 19.4199 16.6211 19.58V20.81C16.6211 20.9702 16.7509 21.1 16.9111 21.1H18.1411C18.3013 21.1 18.4311 20.9702 18.4311 20.81V19.58C18.4311 19.4199 18.3013 19.29 18.1411 19.29Z" fill="#DDDDDD" stroke="#5E5E5A" stroke-width="0.15" stroke-miterlimit="10" stroke-linecap="round"/>
<path d="M18.0898 21.0903C18.0898 21.2703 18.2398 21.4203 18.4198 21.4203C18.5998 21.4203 18.7498 21.2703 18.7498 21.0903V19.4003C18.7498 19.2203 18.5998 19.0703 18.4198 19.0703C18.2398 19.0703 18.0898 19.2203 18.0898 19.4003V21.0903Z" fill="#DDDDDD" stroke="#5E5E5A" stroke-width="0.15" stroke-miterlimit="10" stroke-linecap="round"/>
<path d="M16.3008 21.0903C16.3008 21.2703 16.4508 21.4203 16.6308 21.4203C16.8108 21.4203 16.9608 21.2703 16.9608 21.0903V19.4003C16.9608 19.2203 16.8108 19.0703 16.6308 19.0703C16.4508 19.0703 16.3008 19.2203 16.3008 19.4003V21.0903Z" fill="#DDDDDD" stroke="#5E5E5A" stroke-width="0.15" stroke-miterlimit="10" stroke-linecap="round"/>
<path d="M15.8714 19.8496H0.441406V20.5496H15.8714V19.8496Z" fill="#DDDDDD" stroke="#5E5E5A" stroke-width="0.15" stroke-miterlimit="10" stroke-linecap="round"/>
</svg>
