<svg width="24" height="27" viewBox="0 0 24 27" fill="none" xmlns="http://www.w3.org/2000/svg">
<path d="M17.9011 19.54H15.6611C15.3629 19.54 15.1211 19.7818 15.1211 20.08V22.32C15.1211 22.6183 15.3629 22.86 15.6611 22.86H17.9011C18.1993 22.86 18.4411 22.6183 18.4411 22.32V20.08C18.4411 19.7818 18.1993 19.54 17.9011 19.54Z" fill="#DDDDDD" stroke="#5E5E5A" stroke-width="0.15" stroke-miterlimit="10" stroke-linecap="round"/>
<path d="M17.3911 20.29H16.1611C16.0009 20.29 15.8711 20.4199 15.8711 20.58V21.81C15.8711 21.9702 16.0009 22.1 16.1611 22.1H17.3911C17.5513 22.1 17.6811 21.9702 17.6811 21.81V20.58C17.6811 20.4199 17.5513 20.29 17.3911 20.29Z" fill="#DDDDDD" stroke="#5E5E5A" stroke-width="0.15" stroke-miterlimit="10" stroke-linecap="round"/>
<path d="M17.3398 22.0903C17.3398 22.2703 17.4898 22.4203 17.6698 22.4203C17.8498 22.4203 17.9998 22.2703 17.9998 22.0903V20.4003C17.9998 20.2203 17.8498 20.0703 17.6698 20.0703C17.4898 20.0703 17.3398 20.2203 17.3398 20.4003V22.0903Z" fill="#DDDDDD" stroke="#5E5E5A" stroke-width="0.15" stroke-miterlimit="10" stroke-linecap="round"/>
<path d="M15.5508 22.0903C15.5508 22.2703 15.7008 22.4203 15.8808 22.4203C16.0608 22.4203 16.2108 22.2703 16.2108 22.0903V20.4003C16.2108 20.2203 16.0608 20.0703 15.8808 20.0703C15.7008 20.0703 15.5508 20.2203 15.5508 20.4003V22.0903Z" fill="#DDDDDD" stroke="#5E5E5A" stroke-width="0.15" stroke-miterlimit="10" stroke-linecap="round"/>
<path d="M15.1189 20.8496H0.628906V21.5496H15.1189V20.8496Z" fill="#DDDDDD" stroke="#5E5E5A" stroke-width="0.15" stroke-miterlimit="10" stroke-linecap="round"/>
</svg>
