<svg width="24" height="25" viewBox="0 0 24 25" fill="none" xmlns="http://www.w3.org/2000/svg">
<path d="M18.0886 17.54H15.8486C15.5504 17.54 15.3086 17.7818 15.3086 18.08V20.32C15.3086 20.6183 15.5504 20.86 15.8486 20.86H18.0886C18.3868 20.86 18.6286 20.6183 18.6286 20.32V18.08C18.6286 17.7818 18.3868 17.54 18.0886 17.54Z" fill="#DDDDDD" stroke="#5E5E5A" stroke-width="0.15" stroke-miterlimit="10" stroke-linecap="round"/>
<path d="M17.5786 18.29H16.3486C16.1884 18.29 16.0586 18.4199 16.0586 18.58V19.81C16.0586 19.9702 16.1884 20.1 16.3486 20.1H17.5786C17.7388 20.1 17.8686 19.9702 17.8686 19.81V18.58C17.8686 18.4199 17.7388 18.29 17.5786 18.29Z" fill="#DDDDDD" stroke="#5E5E5A" stroke-width="0.15" stroke-miterlimit="10" stroke-linecap="round"/>
<path d="M17.5312 20.0903C17.5312 20.2703 17.6813 20.4203 17.8613 20.4203C18.0413 20.4203 18.1913 20.2703 18.1913 20.0903V18.4003C18.1913 18.2203 18.0413 18.0703 17.8613 18.0703C17.6813 18.0703 17.5312 18.2203 17.5312 18.4003V20.0903Z" fill="#DDDDDD" stroke="#5E5E5A" stroke-width="0.15" stroke-miterlimit="10" stroke-linecap="round"/>
<path d="M15.7383 20.0903C15.7383 20.2703 15.8883 20.4203 16.0683 20.4203C16.2483 20.4203 16.3983 20.2703 16.3983 20.0903V18.4003C16.3983 18.2203 16.2483 18.0703 16.0683 18.0703C15.8883 18.0703 15.7383 18.2203 15.7383 18.4003V20.0903Z" fill="#DDDDDD" stroke="#5E5E5A" stroke-width="0.15" stroke-miterlimit="10" stroke-linecap="round"/>
<path d="M15.3083 18.8496H0.988281V19.5496H15.3083V18.8496Z" fill="#DDDDDD" stroke="#5E5E5A" stroke-width="0.15" stroke-miterlimit="10" stroke-linecap="round"/>
</svg>
