<svg width="22" height="28" viewBox="0 0 22 28" fill="none" xmlns="http://www.w3.org/2000/svg">
<path d="M17.7214 20.54H15.4814C15.1832 20.54 14.9414 20.7818 14.9414 21.08V23.32C14.9414 23.6183 15.1832 23.86 15.4814 23.86H17.7214C18.0196 23.86 18.2614 23.6183 18.2614 23.32V21.08C18.2614 20.7818 18.0196 20.54 17.7214 20.54Z" fill="#DDDDDD" stroke="#5E5E5A" stroke-width="0.15" stroke-miterlimit="10" stroke-linecap="round"/>
<path d="M17.2114 21.29H15.9814C15.8213 21.29 15.6914 21.4199 15.6914 21.58V22.81C15.6914 22.9702 15.8213 23.1 15.9814 23.1H17.2114C17.3716 23.1 17.5014 22.9702 17.5014 22.81V21.58C17.5014 21.4199 17.3716 21.29 17.2114 21.29Z" fill="#DDDDDD" stroke="#5E5E5A" stroke-width="0.15" stroke-miterlimit="10" stroke-linecap="round"/>
<path d="M17.1602 23.0903C17.1602 23.2703 17.3101 23.4203 17.4901 23.4203C17.6701 23.4203 17.8202 23.2703 17.8202 23.0903V21.4003C17.8202 21.2203 17.6701 21.0703 17.4901 21.0703C17.3101 21.0703 17.1602 21.2203 17.1602 21.4003V23.0903Z" fill="#DDDDDD" stroke="#5E5E5A" stroke-width="0.15" stroke-miterlimit="10" stroke-linecap="round"/>
<path d="M15.3711 23.0903C15.3711 23.2703 15.5211 23.4203 15.7011 23.4203C15.8811 23.4203 16.0311 23.2703 16.0311 23.0903V21.4003C16.0311 21.2203 15.8811 21.0703 15.7011 21.0703C15.5211 21.0703 15.3711 21.2203 15.3711 21.4003V23.0903Z" fill="#DDDDDD" stroke="#5E5E5A" stroke-width="0.15" stroke-miterlimit="10" stroke-linecap="round"/>
<path d="M14.9409 21.8496H0.210938V22.5496H14.9409V21.8496Z" fill="#DDDDDD" stroke="#5E5E5A" stroke-width="0.15" stroke-miterlimit="10" stroke-linecap="round"/>
</svg>
