<svg width="21" height="27" viewBox="0 0 21 27" fill="none" xmlns="http://www.w3.org/2000/svg">
<path d="M17.9011 19.54H15.6611C15.3629 19.54 15.1211 19.7818 15.1211 20.08V22.32C15.1211 22.6183 15.3629 22.86 15.6611 22.86H17.9011C18.1993 22.86 18.4411 22.6183 18.4411 22.32V20.08C18.4411 19.7818 18.1993 19.54 17.9011 19.54Z" fill="#DDDDDD" stroke="#5E5E5A" stroke-width="0.15" stroke-miterlimit="10" stroke-linecap="round"/>
<path d="M17.3911 20.29H16.1611C16.0009 20.29 15.8711 20.4199 15.8711 20.58V21.81C15.8711 21.9702 16.0009 22.1 16.1611 22.1H17.3911C17.5513 22.1 17.6811 21.9702 17.6811 21.81V20.58C17.6811 20.4199 17.5513 20.29 17.3911 20.29Z" fill="#DDDDDD" stroke="#5E5E5A" stroke-width="0.15" stroke-miterlimit="10" stroke-linecap="round"/>
<path d="M17.3398 22.0903C17.3398 22.2703 17.4899 22.4203 17.6699 22.4203C17.8499 22.4203 17.9998 22.2703 17.9998 22.0903V20.4003C17.9998 20.2203 17.8499 20.0703 17.6699 20.0703C17.4899 20.0703 17.3398 20.2203 17.3398 20.4003V22.0903Z" fill="#DDDDDD" stroke="#5E5E5A" stroke-width="0.15" stroke-miterlimit="10" stroke-linecap="round"/>
<path d="M15.5391 22.0903C15.5391 22.2703 15.689 22.4203 15.869 22.4203C16.049 22.4203 16.1991 22.2703 16.1991 22.0903V20.4003C16.1991 20.2203 16.049 20.0703 15.869 20.0703C15.689 20.0703 15.5391 20.2203 15.5391 20.4003V22.0903Z" fill="#DDDDDD" stroke="#5E5E5A" stroke-width="0.15" stroke-miterlimit="10" stroke-linecap="round"/>
<path d="M15.1117 20.8496H0.261719V21.5496H15.1117V20.8496Z" fill="#DDDDDD" stroke="#5E5E5A" stroke-width="0.15" stroke-miterlimit="10" stroke-linecap="round"/>
</svg>
