<svg width="23" height="32" viewBox="0 0 23 32" fill="none" xmlns="http://www.w3.org/2000/svg">
<path d="M18.5612 24.54H16.3213C16.023 24.54 15.7812 24.7818 15.7812 25.08V27.32C15.7812 27.6183 16.023 27.86 16.3213 27.86H18.5612C18.8595 27.86 19.1013 27.6183 19.1013 27.32V25.08C19.1013 24.7818 18.8595 24.54 18.5612 24.54Z" fill="#DDDDDD" stroke="#5E5E5A" stroke-width="0.15" stroke-miterlimit="10" stroke-linecap="round"/>
<path d="M18.0512 25.29H16.8213C16.6611 25.29 16.5312 25.4199 16.5312 25.58V26.81C16.5312 26.9702 16.6611 27.1 16.8213 27.1H18.0512C18.2114 27.1 18.3412 26.9702 18.3412 26.81V25.58C18.3412 25.4199 18.2114 25.29 18.0512 25.29Z" fill="#DDDDDD" stroke="#5E5E5A" stroke-width="0.15" stroke-miterlimit="10" stroke-linecap="round"/>
<path d="M18 27.0903C18 27.2703 18.15 27.4203 18.33 27.4203C18.51 27.4203 18.66 27.2703 18.66 27.0903V25.4003C18.66 25.2203 18.51 25.0703 18.33 25.0703C18.15 25.0703 18 25.2203 18 25.4003V27.0903Z" fill="#DDDDDD" stroke="#5E5E5A" stroke-width="0.15" stroke-miterlimit="10" stroke-linecap="round"/>
<path d="M16.2109 27.0903C16.2109 27.2703 16.361 27.4203 16.541 27.4203C16.721 27.4203 16.8709 27.2703 16.8709 27.0903V25.4003C16.8709 25.2203 16.721 25.0703 16.541 25.0703C16.361 25.0703 16.2109 25.2203 16.2109 25.4003V27.0903Z" fill="#DDDDDD" stroke="#5E5E5A" stroke-width="0.15" stroke-miterlimit="10" stroke-linecap="round"/>
<path d="M15.7814 25.8496H0.441406V26.5496H15.7814V25.8496Z" fill="#DDDDDD" stroke="#5E5E5A" stroke-width="0.15" stroke-miterlimit="10" stroke-linecap="round"/>
</svg>
