<svg width="22" height="28" viewBox="0 0 22 28" fill="none" xmlns="http://www.w3.org/2000/svg">
<path d="M17.2019 20.54H14.9619C14.6636 20.54 14.4219 20.7818 14.4219 21.08V23.32C14.4219 23.6183 14.6636 23.86 14.9619 23.86H17.2019C17.5001 23.86 17.7419 23.6183 17.7419 23.32V21.08C17.7419 20.7818 17.5001 20.54 17.2019 20.54Z" fill="#DDDDDD" stroke="#5E5E5A" stroke-width="0.15" stroke-miterlimit="10" stroke-linecap="round"/>
<path d="M16.7036 21.29H15.4736C15.3134 21.29 15.1836 21.4199 15.1836 21.58V22.81C15.1836 22.9702 15.3134 23.1 15.4736 23.1H16.7036C16.8638 23.1 16.9936 22.9702 16.9936 22.81V21.58C16.9936 21.4199 16.8638 21.29 16.7036 21.29Z" fill="#DDDDDD" stroke="#5E5E5A" stroke-width="0.15" stroke-miterlimit="10" stroke-linecap="round"/>
<path d="M16.6406 23.0903C16.6406 23.2703 16.7906 23.4203 16.9706 23.4203C17.1506 23.4203 17.3006 23.2703 17.3006 23.0903V21.4003C17.3006 21.2203 17.1506 21.0703 16.9706 21.0703C16.7906 21.0703 16.6406 21.2203 16.6406 21.4003V23.0903Z" fill="#DDDDDD" stroke="#5E5E5A" stroke-width="0.15" stroke-miterlimit="10" stroke-linecap="round"/>
<path d="M14.8516 23.0903C14.8516 23.2703 15.0015 23.4203 15.1815 23.4203C15.3615 23.4203 15.5116 23.2703 15.5116 23.0903V21.4003C15.5116 21.2203 15.3615 21.0703 15.1815 21.0703C15.0015 21.0703 14.8516 21.2203 14.8516 21.4003V23.0903Z" fill="#DDDDDD" stroke="#5E5E5A" stroke-width="0.15" stroke-miterlimit="10" stroke-linecap="round"/>
<path d="M14.4216 21.8496H0.101562V22.5496H14.4216V21.8496Z" fill="#DDDDDD" stroke="#5E5E5A" stroke-width="0.15" stroke-miterlimit="10" stroke-linecap="round"/>
</svg>
