<svg width="22" height="26" viewBox="0 0 22 26" fill="none" xmlns="http://www.w3.org/2000/svg">
<path d="M18.7214 18.54H16.4814C16.1832 18.54 15.9414 18.7818 15.9414 19.08V21.32C15.9414 21.6183 16.1832 21.86 16.4814 21.86H18.7214C19.0196 21.86 19.2614 21.6183 19.2614 21.32V19.08C19.2614 18.7818 19.0196 18.54 18.7214 18.54Z" fill="#DDDDDD" stroke="#5E5E5A" stroke-width="0.15" stroke-miterlimit="10" stroke-linecap="round"/>
<path d="M18.2114 19.29H16.9814C16.8213 19.29 16.6914 19.4199 16.6914 19.58V20.81C16.6914 20.9702 16.8213 21.1 16.9814 21.1H18.2114C18.3716 21.1 18.5014 20.9702 18.5014 20.81V19.58C18.5014 19.4199 18.3716 19.29 18.2114 19.29Z" fill="#DDDDDD" stroke="#5E5E5A" stroke-width="0.15" stroke-miterlimit="10" stroke-linecap="round"/>
<path d="M18.1602 21.0903C18.1602 21.2703 18.3101 21.4203 18.4901 21.4203C18.6701 21.4203 18.8202 21.2703 18.8202 21.0903V19.4003C18.8202 19.2203 18.6701 19.0703 18.4901 19.0703C18.3101 19.0703 18.1602 19.2203 18.1602 19.4003V21.0903Z" fill="#DDDDDD" stroke="#5E5E5A" stroke-width="0.15" stroke-miterlimit="10" stroke-linecap="round"/>
<path d="M16.3711 21.0903C16.3711 21.2703 16.5211 21.4203 16.7011 21.4203C16.8811 21.4203 17.0311 21.2703 17.0311 21.0903V19.4003C17.0311 19.2203 16.8811 19.0703 16.7011 19.0703C16.5211 19.0703 16.3711 19.2203 16.3711 19.4003V21.0903Z" fill="#DDDDDD" stroke="#5E5E5A" stroke-width="0.15" stroke-miterlimit="10" stroke-linecap="round"/>
<path d="M15.9283 19.8496H0.738281V20.5496H15.9283V19.8496Z" fill="#DDDDDD" stroke="#5E5E5A" stroke-width="0.15" stroke-miterlimit="10" stroke-linecap="round"/>
</svg>
