<svg width="23" height="27" viewBox="0 0 23 27" fill="none" xmlns="http://www.w3.org/2000/svg">
<path d="M17.9402 19.54H15.7002C15.4019 19.54 15.1602 19.7818 15.1602 20.08V22.32C15.1602 22.6183 15.4019 22.86 15.7002 22.86H17.9402C18.2384 22.86 18.4802 22.6183 18.4802 22.32V20.08C18.4802 19.7818 18.2384 19.54 17.9402 19.54Z" fill="#DDDDDD" stroke="#5E5E5A" stroke-width="0.15" stroke-miterlimit="10" stroke-linecap="round"/>
<path d="M17.4419 20.29H16.2119C16.0517 20.29 15.9219 20.4199 15.9219 20.58V21.81C15.9219 21.9702 16.0517 22.1 16.2119 22.1H17.4419C17.602 22.1 17.7319 21.9702 17.7319 21.81V20.58C17.7319 20.4199 17.602 20.29 17.4419 20.29Z" fill="#DDDDDD" stroke="#5E5E5A" stroke-width="0.15" stroke-miterlimit="10" stroke-linecap="round"/>
<path d="M17.3906 22.0903C17.3906 22.2703 17.5406 22.4203 17.7206 22.4203C17.9006 22.4203 18.0506 22.2703 18.0506 22.0903V20.4003C18.0506 20.2203 17.9006 20.0703 17.7206 20.0703C17.5406 20.0703 17.3906 20.2203 17.3906 20.4003V22.0903Z" fill="#DDDDDD" stroke="#5E5E5A" stroke-width="0.15" stroke-miterlimit="10" stroke-linecap="round"/>
<path d="M15.5898 22.0903C15.5898 22.2703 15.7399 22.4203 15.9199 22.4203C16.0999 22.4203 16.2498 22.2703 16.2498 22.0903V20.4003C16.2498 20.2203 16.0999 20.0703 15.9199 20.0703C15.7399 20.0703 15.5898 20.2203 15.5898 20.4003V22.0903Z" fill="#DDDDDD" stroke="#5E5E5A" stroke-width="0.15" stroke-miterlimit="10" stroke-linecap="round"/>
<path d="M15.1617 20.8496H0.261719V21.5496H15.1617V20.8496Z" fill="#DDDDDD" stroke="#5E5E5A" stroke-width="0.15" stroke-miterlimit="10" stroke-linecap="round"/>
</svg>
