<svg width="24" height="25" viewBox="0 0 24 25" fill="none" xmlns="http://www.w3.org/2000/svg">
<path d="M17.7683 17.54H15.5283C15.2301 17.54 14.9883 17.7818 14.9883 18.08V20.32C14.9883 20.6183 15.2301 20.86 15.5283 20.86H17.7683C18.0665 20.86 18.3083 20.6183 18.3083 20.32V18.08C18.3083 17.7818 18.0665 17.54 17.7683 17.54Z" fill="#DDDDDD" stroke="#5E5E5A" stroke-width="0.15" stroke-miterlimit="10" stroke-linecap="round"/>
<path d="M17.27 18.29H16.04C15.8798 18.29 15.75 18.4199 15.75 18.58V19.81C15.75 19.9702 15.8798 20.1 16.04 20.1H17.27C17.4302 20.1 17.56 19.9702 17.56 19.81V18.58C17.56 18.4199 17.4302 18.29 17.27 18.29Z" fill="#DDDDDD" stroke="#5E5E5A" stroke-width="0.15" stroke-miterlimit="10" stroke-linecap="round"/>
<path d="M17.2188 20.0903C17.2188 20.2703 17.3687 20.4203 17.5487 20.4203C17.7287 20.4203 17.8788 20.2703 17.8788 20.0903V18.4003C17.8788 18.2203 17.7287 18.0703 17.5487 18.0703C17.3687 18.0703 17.2188 18.2203 17.2188 18.4003V20.0903Z" fill="#DDDDDD" stroke="#5E5E5A" stroke-width="0.15" stroke-miterlimit="10" stroke-linecap="round"/>
<path d="M15.418 20.0903C15.418 20.2703 15.568 20.4203 15.748 20.4203C15.928 20.4203 16.0779 20.2703 16.0779 20.0903V18.4003C16.0779 18.2203 15.928 18.0703 15.748 18.0703C15.568 18.0703 15.418 18.2203 15.418 18.4003V20.0903Z" fill="#DDDDDD" stroke="#5E5E5A" stroke-width="0.15" stroke-miterlimit="10" stroke-linecap="round"/>
<path d="M14.9983 18.8496H0.488281V19.5496H14.9983V18.8496Z" fill="#DDDDDD" stroke="#5E5E5A" stroke-width="0.15" stroke-miterlimit="10" stroke-linecap="round"/>
</svg>
