<svg width="23" height="24" viewBox="0 0 23 24" fill="none" xmlns="http://www.w3.org/2000/svg">
<path d="M18.1394 16.54H15.8994C15.6011 16.54 15.3594 16.7818 15.3594 17.08V19.32C15.3594 19.6183 15.6011 19.86 15.8994 19.86H18.1394C18.4376 19.86 18.6794 19.6183 18.6794 19.32V17.08C18.6794 16.7818 18.4376 16.54 18.1394 16.54Z" fill="#DDDDDD" stroke="#5E5E5A" stroke-width="0.15" stroke-miterlimit="10" stroke-linecap="round"/>
<path d="M17.6294 17.29H16.3994C16.2392 17.29 16.1094 17.4199 16.1094 17.58V18.81C16.1094 18.9702 16.2392 19.1 16.3994 19.1H17.6294C17.7896 19.1 17.9194 18.9702 17.9194 18.81V17.58C17.9194 17.4199 17.7896 17.29 17.6294 17.29Z" fill="#DDDDDD" stroke="#5E5E5A" stroke-width="0.15" stroke-miterlimit="10" stroke-linecap="round"/>
<path d="M17.5781 19.0903C17.5781 19.2703 17.7281 19.4203 17.9081 19.4203C18.0881 19.4203 18.2381 19.2703 18.2381 19.0903V17.4003C18.2381 17.2203 18.0881 17.0703 17.9081 17.0703C17.7281 17.0703 17.5781 17.2203 17.5781 17.4003V19.0903Z" fill="#DDDDDD" stroke="#5E5E5A" stroke-width="0.15" stroke-miterlimit="10" stroke-linecap="round"/>
<path d="M15.7891 19.0903C15.7891 19.2703 15.939 19.4203 16.119 19.4203C16.299 19.4203 16.4491 19.2703 16.4491 19.0903V17.4003C16.4491 17.2203 16.299 17.0703 16.119 17.0703C15.939 17.0703 15.7891 17.2203 15.7891 17.4003V19.0903Z" fill="#DDDDDD" stroke="#5E5E5A" stroke-width="0.15" stroke-miterlimit="10" stroke-linecap="round"/>
<path d="M15.3603 17.8496H0.320312V18.5496H15.3603V17.8496Z" fill="#DDDDDD" stroke="#5E5E5A" stroke-width="0.15" stroke-miterlimit="10" stroke-linecap="round"/>
</svg>
