<svg width="21" height="24" viewBox="0 0 21 24" fill="none" xmlns="http://www.w3.org/2000/svg">
<path d="M17.7214 2.54004H15.4814C15.1832 2.54004 14.9414 2.78181 14.9414 3.08004V5.32004C14.9414 5.61827 15.1832 5.86004 15.4814 5.86004H17.7214C18.0196 5.86004 18.2614 5.61827 18.2614 5.32004V3.08004C18.2614 2.78181 18.0196 2.54004 17.7214 2.54004Z" fill="#DDDDDD" stroke="#5E5E5A" stroke-width="0.15" stroke-miterlimit="10" stroke-linecap="round"/>
<path d="M17.2114 3.29004H15.9814C15.8213 3.29004 15.6914 3.41988 15.6914 3.58004V4.81004C15.6914 4.9702 15.8213 5.10004 15.9814 5.10004H17.2114C17.3716 5.10004 17.5014 4.9702 17.5014 4.81004V3.58004C17.5014 3.41988 17.3716 3.29004 17.2114 3.29004Z" fill="#DDDDDD" stroke="#5E5E5A" stroke-width="0.15" stroke-miterlimit="10" stroke-linecap="round"/>
<path d="M17.1602 5.09031C17.1602 5.27031 17.3101 5.42031 17.4901 5.42031C17.6701 5.42031 17.8202 5.27031 17.8202 5.09031V3.40031C17.8202 3.22031 17.6701 3.07031 17.4901 3.07031C17.3101 3.07031 17.1602 3.22031 17.1602 3.40031V5.09031Z" fill="#DDDDDD" stroke="#5E5E5A" stroke-width="0.15" stroke-miterlimit="10" stroke-linecap="round"/>
<path d="M15.3711 5.09031C15.3711 5.27031 15.5211 5.42031 15.7011 5.42031C15.8811 5.42031 16.0311 5.27031 16.0311 5.09031V3.40031C16.0311 3.22031 15.8811 3.07031 15.7011 3.07031C15.5211 3.07031 15.3711 3.22031 15.3711 3.40031V5.09031Z" fill="#DDDDDD" stroke="#5E5E5A" stroke-width="0.15" stroke-miterlimit="10" stroke-linecap="round"/>
<path d="M14.9409 3.84961H0.210938V4.54961H14.9409V3.84961Z" fill="#DDDDDD" stroke="#5E5E5A" stroke-width="0.15" stroke-miterlimit="10" stroke-linecap="round"/>
</svg>
