<svg width="21" height="25" viewBox="0 0 21 25" fill="none" xmlns="http://www.w3.org/2000/svg">
<path d="M17.9011 2.54004H15.6611C15.3629 2.54004 15.1211 2.78181 15.1211 3.08004V5.32004C15.1211 5.61827 15.3629 5.86004 15.6611 5.86004H17.9011C18.1993 5.86004 18.4411 5.61827 18.4411 5.32004V3.08004C18.4411 2.78181 18.1993 2.54004 17.9011 2.54004Z" fill="#DDDDDD" stroke="#5E5E5A" stroke-width="0.15" stroke-miterlimit="10" stroke-linecap="round"/>
<path d="M17.3911 3.29004H16.1611C16.0009 3.29004 15.8711 3.41988 15.8711 3.58004V4.81004C15.8711 4.9702 16.0009 5.10004 16.1611 5.10004H17.3911C17.5513 5.10004 17.6811 4.9702 17.6811 4.81004V3.58004C17.6811 3.41988 17.5513 3.29004 17.3911 3.29004Z" fill="#DDDDDD" stroke="#5E5E5A" stroke-width="0.15" stroke-miterlimit="10" stroke-linecap="round"/>
<path d="M17.3398 5.09031C17.3398 5.27031 17.4899 5.42031 17.6699 5.42031C17.8499 5.42031 17.9998 5.27031 17.9998 5.09031V3.40031C17.9998 3.22031 17.8499 3.07031 17.6699 3.07031C17.4899 3.07031 17.3398 3.22031 17.3398 3.40031V5.09031Z" fill="#DDDDDD" stroke="#5E5E5A" stroke-width="0.15" stroke-miterlimit="10" stroke-linecap="round"/>
<path d="M15.543 5.09031C15.543 5.27031 15.693 5.42031 15.873 5.42031C16.053 5.42031 16.203 5.27031 16.203 5.09031V3.40031C16.203 3.22031 16.053 3.07031 15.873 3.07031C15.693 3.07031 15.543 3.22031 15.543 3.40031V5.09031Z" fill="#DDDDDD" stroke="#5E5E5A" stroke-width="0.15" stroke-miterlimit="10" stroke-linecap="round"/>
<path d="M15.1117 3.84961H0.261719V4.54961H15.1117V3.84961Z" fill="#DDDDDD" stroke="#5E5E5A" stroke-width="0.15" stroke-miterlimit="10" stroke-linecap="round"/>
</svg>
