<svg width="21" height="30" viewBox="0 0 21 30" fill="none" xmlns="http://www.w3.org/2000/svg">
<path d="M17.5612 2.54004H15.3213C15.023 2.54004 14.7812 2.78181 14.7812 3.08004V5.32004C14.7812 5.61827 15.023 5.86004 15.3213 5.86004H17.5612C17.8595 5.86004 18.1013 5.61827 18.1013 5.32004V3.08004C18.1013 2.78181 17.8595 2.54004 17.5612 2.54004Z" fill="#DDDDDD" stroke="#5E5E5A" stroke-width="0.15" stroke-miterlimit="10" stroke-linecap="round"/>
<path d="M17.0512 3.29004H15.8213C15.6611 3.29004 15.5312 3.41988 15.5312 3.58004V4.81004C15.5312 4.9702 15.6611 5.10004 15.8213 5.10004H17.0512C17.2114 5.10004 17.3412 4.9702 17.3412 4.81004V3.58004C17.3412 3.41988 17.2114 3.29004 17.0512 3.29004Z" fill="#DDDDDD" stroke="#5E5E5A" stroke-width="0.15" stroke-miterlimit="10" stroke-linecap="round"/>
<path d="M17 5.09031C17 5.27031 17.15 5.42031 17.33 5.42031C17.51 5.42031 17.66 5.27031 17.66 5.09031V3.40031C17.66 3.22031 17.51 3.07031 17.33 3.07031C17.15 3.07031 17 3.22031 17 3.40031V5.09031Z" fill="#DDDDDD" stroke="#5E5E5A" stroke-width="0.15" stroke-miterlimit="10" stroke-linecap="round"/>
<path d="M15.2109 5.09031C15.2109 5.27031 15.361 5.42031 15.541 5.42031C15.721 5.42031 15.8709 5.27031 15.8709 5.09031V3.40031C15.8709 3.22031 15.721 3.07031 15.541 3.07031C15.361 3.07031 15.2109 3.22031 15.2109 3.40031V5.09031Z" fill="#DDDDDD" stroke="#5E5E5A" stroke-width="0.15" stroke-miterlimit="10" stroke-linecap="round"/>
<path d="M14.7214 3.84961H0.441406V4.54961H14.7214V3.84961Z" fill="#DDDDDD" stroke="#5E5E5A" stroke-width="0.14" stroke-miterlimit="10" stroke-linecap="round"/>
</svg>
