<svg width="22" height="25" viewBox="0 0 22 25" fill="none" xmlns="http://www.w3.org/2000/svg">
<path d="M18.2019 2.54004H15.9619C15.6636 2.54004 15.4219 2.78181 15.4219 3.08004V5.32004C15.4219 5.61827 15.6636 5.86004 15.9619 5.86004H18.2019C18.5001 5.86004 18.7419 5.61827 18.7419 5.32004V3.08004C18.7419 2.78181 18.5001 2.54004 18.2019 2.54004Z" fill="#DDDDDD" stroke="#5E5E5A" stroke-width="0.15" stroke-miterlimit="10" stroke-linecap="round"/>
<path d="M17.7036 3.29004H16.4736C16.3134 3.29004 16.1836 3.41988 16.1836 3.58004V4.81004C16.1836 4.9702 16.3134 5.10004 16.4736 5.10004H17.7036C17.8638 5.10004 17.9936 4.9702 17.9936 4.81004V3.58004C17.9936 3.41988 17.8638 3.29004 17.7036 3.29004Z" fill="#DDDDDD" stroke="#5E5E5A" stroke-width="0.15" stroke-miterlimit="10" stroke-linecap="round"/>
<path d="M17.6406 5.09031C17.6406 5.27031 17.7906 5.42031 17.9706 5.42031C18.1506 5.42031 18.3006 5.27031 18.3006 5.09031V3.40031C18.3006 3.22031 18.1506 3.07031 17.9706 3.07031C17.7906 3.07031 17.6406 3.22031 17.6406 3.40031V5.09031Z" fill="#DDDDDD" stroke="#5E5E5A" stroke-width="0.15" stroke-miterlimit="10" stroke-linecap="round"/>
<path d="M15.8516 5.09031C15.8516 5.27031 16.0015 5.42031 16.1815 5.42031C16.3615 5.42031 16.5116 5.27031 16.5116 5.09031V3.40031C16.5116 3.22031 16.3615 3.07031 16.1815 3.07031C16.0015 3.07031 15.8516 3.22031 15.8516 3.40031V5.09031Z" fill="#DDDDDD" stroke="#5E5E5A" stroke-width="0.15" stroke-miterlimit="10" stroke-linecap="round"/>
<path d="M15.4294 3.84961H0.109375V4.54961H15.4294V3.84961Z" fill="#DDDDDD" stroke="#5E5E5A" stroke-width="0.16" stroke-miterlimit="10" stroke-linecap="round"/>
</svg>
