<svg width="23" height="25" viewBox="0 0 23 25" fill="none" xmlns="http://www.w3.org/2000/svg">
<path d="M18.7214 3.54004H16.4814C16.1832 3.54004 15.9414 3.78181 15.9414 4.08004V6.32004C15.9414 6.61827 16.1832 6.86004 16.4814 6.86004H18.7214C19.0196 6.86004 19.2614 6.61827 19.2614 6.32004V4.08004C19.2614 3.78181 19.0196 3.54004 18.7214 3.54004Z" fill="#DDDDDD" stroke="#5E5E5A" stroke-width="0.15" stroke-miterlimit="10" stroke-linecap="round"/>
<path d="M18.2114 4.29004H16.9814C16.8213 4.29004 16.6914 4.41988 16.6914 4.58004V5.81004C16.6914 5.9702 16.8213 6.10004 16.9814 6.10004H18.2114C18.3716 6.10004 18.5014 5.9702 18.5014 5.81004V4.58004C18.5014 4.41988 18.3716 4.29004 18.2114 4.29004Z" fill="#DDDDDD" stroke="#5E5E5A" stroke-width="0.15" stroke-miterlimit="10" stroke-linecap="round"/>
<path d="M18.1602 6.09031C18.1602 6.27031 18.3101 6.42031 18.4901 6.42031C18.6701 6.42031 18.8202 6.27031 18.8202 6.09031V4.40031C18.8202 4.22031 18.6701 4.07031 18.4901 4.07031C18.3101 4.07031 18.1602 4.22031 18.1602 4.40031V6.09031Z" fill="#DDDDDD" stroke="#5E5E5A" stroke-width="0.15" stroke-miterlimit="10" stroke-linecap="round"/>
<path d="M16.3711 6.09031C16.3711 6.27031 16.5211 6.42031 16.7011 6.42031C16.8811 6.42031 17.0311 6.27031 17.0311 6.09031V4.40031C17.0311 4.22031 16.8811 4.07031 16.7011 4.07031C16.5211 4.07031 16.3711 4.22031 16.3711 4.40031V6.09031Z" fill="#DDDDDD" stroke="#5E5E5A" stroke-width="0.15" stroke-miterlimit="10" stroke-linecap="round"/>
<path d="M15.9283 4.84961H0.738281V5.54961H15.9283V4.84961Z" fill="#DDDDDD" stroke="#5E5E5A" stroke-width="0.15" stroke-miterlimit="10" stroke-linecap="round"/>
</svg>
