<svg width="24" height="25" viewBox="0 0 24 25" fill="none" xmlns="http://www.w3.org/2000/svg">
<path d="M17.9402 3.54004H15.7002C15.4019 3.54004 15.1602 3.78181 15.1602 4.08004V6.32004C15.1602 6.61827 15.4019 6.86004 15.7002 6.86004H17.9402C18.2384 6.86004 18.4802 6.61827 18.4802 6.32004V4.08004C18.4802 3.78181 18.2384 3.54004 17.9402 3.54004Z" fill="#DDDDDD" stroke="#5E5E5A" stroke-width="0.15" stroke-miterlimit="10" stroke-linecap="round"/>
<path d="M17.4419 4.29004H16.2119C16.0517 4.29004 15.9219 4.41988 15.9219 4.58004V5.81004C15.9219 5.9702 16.0517 6.10004 16.2119 6.10004H17.4419C17.602 6.10004 17.7319 5.9702 17.7319 5.81004V4.58004C17.7319 4.41988 17.602 4.29004 17.4419 4.29004Z" fill="#DDDDDD" stroke="#5E5E5A" stroke-width="0.15" stroke-miterlimit="10" stroke-linecap="round"/>
<path d="M17.3906 6.09031C17.3906 6.27031 17.5406 6.42031 17.7206 6.42031C17.9006 6.42031 18.0506 6.27031 18.0506 6.09031V4.40031C18.0506 4.22031 17.9006 4.07031 17.7206 4.07031C17.5406 4.07031 17.3906 4.22031 17.3906 4.40031V6.09031Z" fill="#DDDDDD" stroke="#5E5E5A" stroke-width="0.15" stroke-miterlimit="10" stroke-linecap="round"/>
<path d="M15.5898 6.09031C15.5898 6.27031 15.7399 6.42031 15.9199 6.42031C16.0999 6.42031 16.2498 6.27031 16.2498 6.09031V4.40031C16.2498 4.22031 16.0999 4.07031 15.9199 4.07031C15.7399 4.07031 15.5898 4.22031 15.5898 4.40031V6.09031Z" fill="#DDDDDD" stroke="#5E5E5A" stroke-width="0.15" stroke-miterlimit="10" stroke-linecap="round"/>
<path d="M15.1617 4.84961H0.261719V5.54961H15.1617V4.84961Z" fill="#DDDDDD" stroke="#5E5E5A" stroke-width="0.15" stroke-miterlimit="10" stroke-linecap="round"/>
</svg>
