<svg width="23" height="24" viewBox="0 0 23 24" fill="none" xmlns="http://www.w3.org/2000/svg">
<path d="M17.7683 3.54004H15.5283C15.2301 3.54004 14.9883 3.78181 14.9883 4.08004V6.32004C14.9883 6.61827 15.2301 6.86004 15.5283 6.86004H17.7683C18.0665 6.86004 18.3083 6.61827 18.3083 6.32004V4.08004C18.3083 3.78181 18.0665 3.54004 17.7683 3.54004Z" fill="#DDDDDD" stroke="#5E5E5A" stroke-width="0.15" stroke-miterlimit="10" stroke-linecap="round"/>
<path d="M17.27 4.29004H16.04C15.8798 4.29004 15.75 4.41988 15.75 4.58004V5.81004C15.75 5.9702 15.8798 6.10004 16.04 6.10004H17.27C17.4302 6.10004 17.56 5.9702 17.56 5.81004V4.58004C17.56 4.41988 17.4302 4.29004 17.27 4.29004Z" fill="#DDDDDD" stroke="#5E5E5A" stroke-width="0.15" stroke-miterlimit="10" stroke-linecap="round"/>
<path d="M17.2188 6.09031C17.2188 6.27031 17.3687 6.42031 17.5487 6.42031C17.7287 6.42031 17.8788 6.27031 17.8788 6.09031V4.40031C17.8788 4.22031 17.7287 4.07031 17.5487 4.07031C17.3687 4.07031 17.2188 4.22031 17.2188 4.40031V6.09031Z" fill="#DDDDDD" stroke="#5E5E5A" stroke-width="0.15" stroke-miterlimit="10" stroke-linecap="round"/>
<path d="M15.418 6.09031C15.418 6.27031 15.568 6.42031 15.748 6.42031C15.928 6.42031 16.0779 6.27031 16.0779 6.09031V4.40031C16.0779 4.22031 15.928 4.07031 15.748 4.07031C15.568 4.07031 15.418 4.22031 15.418 4.40031V6.09031Z" fill="#DDDDDD" stroke="#5E5E5A" stroke-width="0.15" stroke-miterlimit="10" stroke-linecap="round"/>
<path d="M14.9983 4.84961H0.488281V5.54961H14.9983V4.84961Z" fill="#DDDDDD" stroke="#5E5E5A" stroke-width="0.15" stroke-miterlimit="10" stroke-linecap="round"/>
</svg>
