<svg width="23" height="22" viewBox="0 0 23 22" fill="none" xmlns="http://www.w3.org/2000/svg">
<path d="M18.1394 3.54004H15.8994C15.6011 3.54004 15.3594 3.78181 15.3594 4.08004V6.32004C15.3594 6.61827 15.6011 6.86004 15.8994 6.86004H18.1394C18.4376 6.86004 18.6794 6.61827 18.6794 6.32004V4.08004C18.6794 3.78181 18.4376 3.54004 18.1394 3.54004Z" fill="#DDDDDD" stroke="#5E5E5A" stroke-width="0.15" stroke-miterlimit="10" stroke-linecap="round"/>
<path d="M17.6294 4.29004H16.3994C16.2392 4.29004 16.1094 4.41988 16.1094 4.58004V5.81004C16.1094 5.9702 16.2392 6.10004 16.3994 6.10004H17.6294C17.7896 6.10004 17.9194 5.9702 17.9194 5.81004V4.58004C17.9194 4.41988 17.7896 4.29004 17.6294 4.29004Z" fill="#DDDDDD" stroke="#5E5E5A" stroke-width="0.15" stroke-miterlimit="10" stroke-linecap="round"/>
<path d="M17.5781 6.09031C17.5781 6.27031 17.7281 6.42031 17.9081 6.42031C18.0881 6.42031 18.2381 6.27031 18.2381 6.09031V4.40031C18.2381 4.22031 18.0881 4.07031 17.9081 4.07031C17.7281 4.07031 17.5781 4.22031 17.5781 4.40031V6.09031Z" fill="#DDDDDD" stroke="#5E5E5A" stroke-width="0.15" stroke-miterlimit="10" stroke-linecap="round"/>
<path d="M15.7891 6.09031C15.7891 6.27031 15.939 6.42031 16.119 6.42031C16.299 6.42031 16.4491 6.27031 16.4491 6.09031V4.40031C16.4491 4.22031 16.299 4.07031 16.119 4.07031C15.939 4.07031 15.7891 4.22031 15.7891 4.40031V6.09031Z" fill="#DDDDDD" stroke="#5E5E5A" stroke-width="0.15" stroke-miterlimit="10" stroke-linecap="round"/>
<path d="M15.3603 4.84961H0.320312V5.54961H15.3603V4.84961Z" fill="#DDDDDD" stroke="#5E5E5A" stroke-width="0.15" stroke-miterlimit="10" stroke-linecap="round"/>
</svg>
