<svg width="21" height="24" viewBox="0 0 21 24" fill="none" xmlns="http://www.w3.org/2000/svg">
<path d="M17.6706 2.54004H15.4306C15.1324 2.54004 14.8906 2.78181 14.8906 3.08004V5.32004C14.8906 5.61827 15.1324 5.86004 15.4306 5.86004H17.6706C17.9689 5.86004 18.2106 5.61827 18.2106 5.32004V3.08004C18.2106 2.78181 17.9689 2.54004 17.6706 2.54004Z" fill="#DDDDDD" stroke="#5E5E5A" stroke-width="0.15" stroke-miterlimit="10" stroke-linecap="round"/>
<path d="M17.1606 3.29004H15.9306C15.7704 3.29004 15.6406 3.41988 15.6406 3.58004V4.81004C15.6406 4.9702 15.7704 5.10004 15.9306 5.10004H17.1606C17.3208 5.10004 17.4506 4.9702 17.4506 4.81004V3.58004C17.4506 3.41988 17.3208 3.29004 17.1606 3.29004Z" fill="#DDDDDD" stroke="#5E5E5A" stroke-width="0.15" stroke-miterlimit="10" stroke-linecap="round"/>
<path d="M17.1094 5.09031C17.1094 5.27031 17.2594 5.42031 17.4394 5.42031C17.6194 5.42031 17.7694 5.27031 17.7694 5.09031V3.40031C17.7694 3.22031 17.6194 3.07031 17.4394 3.07031C17.2594 3.07031 17.1094 3.22031 17.1094 3.40031V5.09031Z" fill="#DDDDDD" stroke="#5E5E5A" stroke-width="0.15" stroke-miterlimit="10" stroke-linecap="round"/>
<path d="M15.3203 5.09031C15.3203 5.27031 15.4703 5.42031 15.6503 5.42031C15.8303 5.42031 15.9803 5.27031 15.9803 5.09031V3.40031C15.9803 3.22031 15.8303 3.07031 15.6503 3.07031C15.4703 3.07031 15.3203 3.22031 15.3203 3.40031V5.09031Z" fill="#DDDDDD" stroke="#5E5E5A" stroke-width="0.15" stroke-miterlimit="10" stroke-linecap="round"/>
<path d="M14.8889 3.84961H0.128906V4.54961H14.8889V3.84961Z" fill="#DDDDDD" stroke="#5E5E5A" stroke-width="0.15" stroke-miterlimit="10" stroke-linecap="round"/>
</svg>
