<svg width="21" height="25" viewBox="0 0 21 25" fill="none" xmlns="http://www.w3.org/2000/svg">
<path d="M17.5808 2.54004H15.3408C15.0426 2.54004 14.8008 2.78181 14.8008 3.08004V5.32004C14.8008 5.61827 15.0426 5.86004 15.3408 5.86004H17.5808C17.879 5.86004 18.1208 5.61827 18.1208 5.32004V3.08004C18.1208 2.78181 17.879 2.54004 17.5808 2.54004Z" fill="#DDDDDD" stroke="#5E5E5A" stroke-width="0.15" stroke-miterlimit="10" stroke-linecap="round"/>
<path d="M17.0825 3.29004H15.8525C15.6923 3.29004 15.5625 3.41988 15.5625 3.58004V4.81004C15.5625 4.9702 15.6923 5.10004 15.8525 5.10004H17.0825C17.2427 5.10004 17.3725 4.9702 17.3725 4.81004V3.58004C17.3725 3.41988 17.2427 3.29004 17.0825 3.29004Z" fill="#DDDDDD" stroke="#5E5E5A" stroke-width="0.15" stroke-miterlimit="10" stroke-linecap="round"/>
<path d="M17.0312 5.09031C17.0312 5.27031 17.1812 5.42031 17.3612 5.42031C17.5412 5.42031 17.6913 5.27031 17.6913 5.09031V3.40031C17.6913 3.22031 17.5412 3.07031 17.3612 3.07031C17.1812 3.07031 17.0312 3.22031 17.0312 3.40031V5.09031Z" fill="#DDDDDD" stroke="#5E5E5A" stroke-width="0.15" stroke-miterlimit="10" stroke-linecap="round"/>
<path d="M15.2305 5.09031C15.2305 5.27031 15.3805 5.42031 15.5605 5.42031C15.7405 5.42031 15.8905 5.27031 15.8905 5.09031V3.40031C15.8905 3.22031 15.7405 3.07031 15.5605 3.07031C15.3805 3.07031 15.2305 3.22031 15.2305 3.40031V5.09031Z" fill="#DDDDDD" stroke="#5E5E5A" stroke-width="0.15" stroke-miterlimit="10" stroke-linecap="round"/>
<path d="M14.8094 3.84961H0.359375V4.54961H14.8094V3.84961Z" fill="#DDDDDD" stroke="#5E5E5A" stroke-width="0.15" stroke-miterlimit="10" stroke-linecap="round"/>
</svg>
