<svg width="22" height="30" viewBox="0 0 22 30" fill="none" xmlns="http://www.w3.org/2000/svg">
<path d="M18.8112 2.54004H16.5713C16.273 2.54004 16.0312 2.78181 16.0312 3.08004V5.32004C16.0312 5.61827 16.273 5.86004 16.5713 5.86004H18.8112C19.1095 5.86004 19.3513 5.61827 19.3513 5.32004V3.08004C19.3513 2.78181 19.1095 2.54004 18.8112 2.54004Z" fill="#DDDDDD" stroke="#5E5E5A" stroke-width="0.15" stroke-miterlimit="10" stroke-linecap="round"/>
<path d="M18.3012 3.29004H17.0713C16.9111 3.29004 16.7812 3.41988 16.7812 3.58004V4.81004C16.7812 4.9702 16.9111 5.10004 17.0713 5.10004H18.3012C18.4614 5.10004 18.5912 4.9702 18.5912 4.81004V3.58004C18.5912 3.41988 18.4614 3.29004 18.3012 3.29004Z" fill="#DDDDDD" stroke="#5E5E5A" stroke-width="0.15" stroke-miterlimit="10" stroke-linecap="round"/>
<path d="M18.25 5.09031C18.25 5.27031 18.4 5.42031 18.58 5.42031C18.76 5.42031 18.91 5.27031 18.91 5.09031V3.40031C18.91 3.22031 18.76 3.07031 18.58 3.07031C18.4 3.07031 18.25 3.22031 18.25 3.40031V5.09031Z" fill="#DDDDDD" stroke="#5E5E5A" stroke-width="0.15" stroke-miterlimit="10" stroke-linecap="round"/>
<path d="M16.4609 5.09031C16.4609 5.27031 16.611 5.42031 16.791 5.42031C16.971 5.42031 17.1209 5.27031 17.1209 5.09031V3.40031C17.1209 3.22031 16.971 3.07031 16.791 3.07031C16.611 3.07031 16.4609 3.22031 16.4609 3.40031V5.09031Z" fill="#DDDDDD" stroke="#5E5E5A" stroke-width="0.15" stroke-miterlimit="10" stroke-linecap="round"/>
<path d="M15.9989 3.84961H0.378906V4.54961H15.9989V3.84961Z" fill="#DDDDDD" stroke="#5E5E5A" stroke-width="0.15" stroke-miterlimit="10" stroke-linecap="round"/>
</svg>
