<svg width="22" height="25" viewBox="0 0 22 25" fill="none" xmlns="http://www.w3.org/2000/svg">
<path d="M17.8308 2.54004H15.5908C15.2926 2.54004 15.0508 2.78181 15.0508 3.08004V5.32004C15.0508 5.61827 15.2926 5.86004 15.5908 5.86004H17.8308C18.129 5.86004 18.3708 5.61827 18.3708 5.32004V3.08004C18.3708 2.78181 18.129 2.54004 17.8308 2.54004Z" fill="#DDDDDD" stroke="#5E5E5A" stroke-width="0.15" stroke-miterlimit="10" stroke-linecap="round"/>
<path d="M17.3325 3.29004H16.1025C15.9423 3.29004 15.8125 3.41988 15.8125 3.58004V4.81004C15.8125 4.9702 15.9423 5.10004 16.1025 5.10004H17.3325C17.4927 5.10004 17.6225 4.9702 17.6225 4.81004V3.58004C17.6225 3.41988 17.4927 3.29004 17.3325 3.29004Z" fill="#DDDDDD" stroke="#5E5E5A" stroke-width="0.15" stroke-miterlimit="10" stroke-linecap="round"/>
<path d="M17.2812 5.09031C17.2812 5.27031 17.4312 5.42031 17.6112 5.42031C17.7912 5.42031 17.9413 5.27031 17.9413 5.09031V3.40031C17.9413 3.22031 17.7912 3.07031 17.6112 3.07031C17.4312 3.07031 17.2812 3.22031 17.2812 3.40031V5.09031Z" fill="#DDDDDD" stroke="#5E5E5A" stroke-width="0.15" stroke-miterlimit="10" stroke-linecap="round"/>
<path d="M15.4805 5.09031C15.4805 5.27031 15.6305 5.42031 15.8105 5.42031C15.9905 5.42031 16.1405 5.27031 16.1405 5.09031V3.40031C16.1405 3.22031 15.9905 3.07031 15.8105 3.07031C15.6305 3.07031 15.4805 3.22031 15.4805 3.40031V5.09031Z" fill="#DDDDDD" stroke="#5E5E5A" stroke-width="0.15" stroke-miterlimit="10" stroke-linecap="round"/>
<path d="M15.0614 3.84961H0.191406V4.54961H15.0614V3.84961Z" fill="#DDDDDD" stroke="#5E5E5A" stroke-width="0.15" stroke-miterlimit="10" stroke-linecap="round"/>
</svg>
