<svg width="22" height="25" viewBox="0 0 22 25" fill="none" xmlns="http://www.w3.org/2000/svg">
<path d="M17.6511 3.54004H15.4111C15.1129 3.54004 14.8711 3.78181 14.8711 4.08004V6.32004C14.8711 6.61827 15.1129 6.86004 15.4111 6.86004H17.6511C17.9493 6.86004 18.1911 6.61827 18.1911 6.32004V4.08004C18.1911 3.78181 17.9493 3.54004 17.6511 3.54004Z" fill="#DDDDDD" stroke="#5E5E5A" stroke-width="0.15" stroke-miterlimit="10" stroke-linecap="round"/>
<path d="M17.1411 4.29004H15.9111C15.7509 4.29004 15.6211 4.41988 15.6211 4.58004V5.81004C15.6211 5.9702 15.7509 6.10004 15.9111 6.10004H17.1411C17.3013 6.10004 17.4311 5.9702 17.4311 5.81004V4.58004C17.4311 4.41988 17.3013 4.29004 17.1411 4.29004Z" fill="#DDDDDD" stroke="#5E5E5A" stroke-width="0.15" stroke-miterlimit="10" stroke-linecap="round"/>
<path d="M17.0898 6.09031C17.0898 6.27031 17.2398 6.42031 17.4198 6.42031C17.5998 6.42031 17.7498 6.27031 17.7498 6.09031V4.40031C17.7498 4.22031 17.5998 4.07031 17.4198 4.07031C17.2398 4.07031 17.0898 4.22031 17.0898 4.40031V6.09031Z" fill="#DDDDDD" stroke="#5E5E5A" stroke-width="0.15" stroke-miterlimit="10" stroke-linecap="round"/>
<path d="M15.3008 6.09031C15.3008 6.27031 15.4508 6.42031 15.6308 6.42031C15.8108 6.42031 15.9608 6.27031 15.9608 6.09031V4.40031C15.9608 4.22031 15.8108 4.07031 15.6308 4.07031C15.4508 4.07031 15.3008 4.22031 15.3008 4.40031V6.09031Z" fill="#DDDDDD" stroke="#5E5E5A" stroke-width="0.15" stroke-miterlimit="10" stroke-linecap="round"/>
<path d="M14.8683 4.84961H0.488281V5.54961H14.8683V4.84961Z" fill="#DDDDDD" stroke="#5E5E5A" stroke-width="0.14" stroke-miterlimit="10" stroke-linecap="round"/>
</svg>
