<svg width="25" height="25" viewBox="0 0 25 25" fill="none" xmlns="http://www.w3.org/2000/svg">
<path d="M18.9011 3.54004H16.6611C16.3629 3.54004 16.1211 3.78181 16.1211 4.08004V6.32004C16.1211 6.61827 16.3629 6.86004 16.6611 6.86004H18.9011C19.1993 6.86004 19.4411 6.61827 19.4411 6.32004V4.08004C19.4411 3.78181 19.1993 3.54004 18.9011 3.54004Z" fill="#DDDDDD" stroke="#5E5E5A" stroke-width="0.15" stroke-miterlimit="10" stroke-linecap="round"/>
<path d="M18.3911 4.29004H17.1611C17.0009 4.29004 16.8711 4.41988 16.8711 4.58004V5.81004C16.8711 5.9702 17.0009 6.10004 17.1611 6.10004H18.3911C18.5513 6.10004 18.6811 5.9702 18.6811 5.81004V4.58004C18.6811 4.41988 18.5513 4.29004 18.3911 4.29004Z" fill="#DDDDDD" stroke="#5E5E5A" stroke-width="0.15" stroke-miterlimit="10" stroke-linecap="round"/>
<path d="M18.3398 6.09031C18.3398 6.27031 18.4898 6.42031 18.6698 6.42031C18.8498 6.42031 18.9998 6.27031 18.9998 6.09031V4.40031C18.9998 4.22031 18.8498 4.07031 18.6698 4.07031C18.4898 4.07031 18.3398 4.22031 18.3398 4.40031V6.09031Z" fill="#DDDDDD" stroke="#5E5E5A" stroke-width="0.15" stroke-miterlimit="10" stroke-linecap="round"/>
<path d="M16.5508 6.09031C16.5508 6.27031 16.7008 6.42031 16.8808 6.42031C17.0608 6.42031 17.2108 6.27031 17.2108 6.09031V4.40031C17.2108 4.22031 17.0608 4.07031 16.8808 4.07031C16.7008 4.07031 16.5508 4.22031 16.5508 4.40031V6.09031Z" fill="#DDDDDD" stroke="#5E5E5A" stroke-width="0.15" stroke-miterlimit="10" stroke-linecap="round"/>
<path d="M16.0989 4.84961H0.628906V5.54961H16.0989V4.84961Z" fill="#DDDDDD" stroke="#5E5E5A" stroke-width="0.16" stroke-miterlimit="10" stroke-linecap="round"/>
</svg>
