<svg width="24" height="24" viewBox="0 0 24 24" fill="none" xmlns="http://www.w3.org/2000/svg">
<path d="M18.0886 3.54004H15.8486C15.5504 3.54004 15.3086 3.78181 15.3086 4.08004V6.32004C15.3086 6.61827 15.5504 6.86004 15.8486 6.86004H18.0886C18.3868 6.86004 18.6286 6.61827 18.6286 6.32004V4.08004C18.6286 3.78181 18.3868 3.54004 18.0886 3.54004Z" fill="#DDDDDD" stroke="#5E5E5A" stroke-width="0.15" stroke-miterlimit="10" stroke-linecap="round"/>
<path d="M17.5786 4.29004H16.3486C16.1884 4.29004 16.0586 4.41988 16.0586 4.58004V5.81004C16.0586 5.9702 16.1884 6.10004 16.3486 6.10004H17.5786C17.7388 6.10004 17.8686 5.9702 17.8686 5.81004V4.58004C17.8686 4.41988 17.7388 4.29004 17.5786 4.29004Z" fill="#DDDDDD" stroke="#5E5E5A" stroke-width="0.15" stroke-miterlimit="10" stroke-linecap="round"/>
<path d="M17.5273 6.09031C17.5273 6.27031 17.6773 6.42031 17.8573 6.42031C18.0373 6.42031 18.1873 6.27031 18.1873 6.09031V4.40031C18.1873 4.22031 18.0373 4.07031 17.8573 4.07031C17.6773 4.07031 17.5273 4.22031 17.5273 4.40031V6.09031Z" fill="#DDDDDD" stroke="#5E5E5A" stroke-width="0.15" stroke-miterlimit="10" stroke-linecap="round"/>
<path d="M15.7383 6.09031C15.7383 6.27031 15.8883 6.42031 16.0683 6.42031C16.2483 6.42031 16.3983 6.27031 16.3983 6.09031V4.40031C16.3983 4.22031 16.2483 4.07031 16.0683 4.07031C15.8883 4.07031 15.7383 4.22031 15.7383 4.40031V6.09031Z" fill="#DDDDDD" stroke="#5E5E5A" stroke-width="0.15" stroke-miterlimit="10" stroke-linecap="round"/>
<path d="M15.3083 4.84961H0.988281V5.54961H15.3083V4.84961Z" fill="#DDDDDD" stroke="#5E5E5A" stroke-width="0.15" stroke-miterlimit="10" stroke-linecap="round"/>
</svg>
