<svg width="12" height="22" viewBox="0 0 12 22" fill="none" xmlns="http://www.w3.org/2000/svg">
<path d="M7.45187 3.54004H5.21188C4.91365 3.54004 4.67188 3.78181 4.67188 4.08004V6.32004C4.67188 6.61827 4.91365 6.86004 5.21188 6.86004H7.45187C7.75011 6.86004 7.99188 6.61827 7.99188 6.32004V4.08004C7.99188 3.78181 7.75011 3.54004 7.45187 3.54004Z" fill="#DDDDDD" stroke="#5E5E5A" stroke-width="0.15" stroke-miterlimit="10" stroke-linecap="round"/>
<path d="M6.9536 4.29004H5.7236C5.56344 4.29004 5.43359 4.41988 5.43359 4.58004V5.81004C5.43359 5.9702 5.56344 6.10004 5.7236 6.10004H6.9536C7.11376 6.10004 7.24361 5.9702 7.24361 5.81004V4.58004C7.24361 4.41988 7.11376 4.29004 6.9536 4.29004Z" fill="#DDDDDD" stroke="#5E5E5A" stroke-width="0.15" stroke-miterlimit="10" stroke-linecap="round"/>
<path d="M6.89062 6.09031C6.89062 6.27031 7.04063 6.42031 7.22063 6.42031C7.40063 6.42031 7.55063 6.27031 7.55063 6.09031V4.40031C7.55063 4.22031 7.40063 4.07031 7.22063 4.07031C7.04063 4.07031 6.89062 4.22031 6.89062 4.40031V6.09031Z" fill="#DDDDDD" stroke="#5E5E5A" stroke-width="0.15" stroke-miterlimit="10" stroke-linecap="round"/>
<path d="M5.10156 6.09031C5.10156 6.27031 5.25155 6.42031 5.43155 6.42031C5.61155 6.42031 5.76155 6.27031 5.76155 6.09031V4.40031C5.76155 4.22031 5.61155 4.07031 5.43155 4.07031C5.25155 4.07031 5.10156 4.22031 5.10156 4.40031V6.09031Z" fill="#DDDDDD" stroke="#5E5E5A" stroke-width="0.15" stroke-miterlimit="10" stroke-linecap="round"/>
</svg>
