<svg width="21" height="20" viewBox="0 0 21 20" fill="none" xmlns="http://www.w3.org/2000/svg">
<path d="M16.4391 14.9404H18.0891C18.3091 14.9404 18.4891 15.1204 18.4891 15.3404V16.9904C18.4891 17.2104 18.3091 17.3904 18.0891 17.3904H16.4391C16.2191 17.3904 16.0391 17.2104 16.0391 16.9904V15.3404C16.0391 15.1204 16.2191 14.9404 16.4391 14.9404Z" fill="#DDDDDD" stroke="#5E5E5A" stroke-width="0.15" stroke-miterlimit="10" stroke-linecap="round"/>
<path d="M17.7077 15.4902H16.8177C16.6962 15.4902 16.5977 15.5887 16.5977 15.7102V16.6002C16.5977 16.7217 16.6962 16.8202 16.8177 16.8202H17.7077C17.8292 16.8202 17.9277 16.7217 17.9277 16.6002V15.7102C17.9277 15.5887 17.8292 15.4902 17.7077 15.4902Z" fill="#DDDDDD" stroke="#5E5E5A" stroke-width="0.15" stroke-miterlimit="10" stroke-linecap="round"/>
<path d="M16.8472 16.8101C16.8472 16.9401 16.7372 17.0501 16.6072 17.0501C16.4772 17.0501 16.3672 16.9401 16.3672 16.8101V15.5701C16.3672 15.4401 16.4772 15.3301 16.6072 15.3301C16.7372 15.3301 16.8472 15.4401 16.8472 15.5701V16.8101Z" fill="#DDDDDD" stroke="#5E5E5A" stroke-width="0.15" stroke-miterlimit="10" stroke-linecap="round"/>
<path d="M18.1675 16.8101C18.1675 16.9401 18.0575 17.0501 17.9275 17.0501C17.7975 17.0501 17.6875 16.9401 17.6875 16.8101V15.5701C17.6875 15.4401 17.7975 15.3301 17.9275 15.3301C18.0575 15.3301 18.1675 15.4401 18.1675 15.5701V16.8101Z" fill="#DDDDDD" stroke="#5E5E5A" stroke-width="0.15" stroke-miterlimit="10" stroke-linecap="round"/>
<path d="M16.05 15.8496H0.25V16.4696H16.05V15.8496Z" fill="#DDDDDD" stroke="#5E5E5A" stroke-width="0.15" stroke-miterlimit="10" stroke-linecap="round"/>
</svg>
