<svg width="20" height="19" viewBox="0 0 20 19" fill="none" xmlns="http://www.w3.org/2000/svg">
<path d="M16.2008 13.9404H17.8508C18.0708 13.9404 18.2508 14.1204 18.2508 14.3404V15.9904C18.2508 16.2104 18.0708 16.3904 17.8508 16.3904H16.2008C15.9808 16.3904 15.8008 16.2104 15.8008 15.9904V14.3404C15.8008 14.1204 15.9808 13.9404 16.2008 13.9404Z" fill="#DDDDDD" stroke="#5E5E5A" stroke-width="0.15" stroke-miterlimit="10" stroke-linecap="round"/>
<path d="M17.4694 14.4902H16.5794C16.4579 14.4902 16.3594 14.5887 16.3594 14.7102V15.6002C16.3594 15.7217 16.4579 15.8202 16.5794 15.8202H17.4694C17.5909 15.8202 17.6894 15.7217 17.6894 15.6002V14.7102C17.6894 14.5887 17.5909 14.4902 17.4694 14.4902Z" fill="#DDDDDD" stroke="#5E5E5A" stroke-width="0.15" stroke-miterlimit="10" stroke-linecap="round"/>
<path d="M16.6206 15.8101C16.6206 15.9401 16.5106 16.0501 16.3806 16.0501C16.2506 16.0501 16.1406 15.9401 16.1406 15.8101V14.5701C16.1406 14.4401 16.2506 14.3301 16.3806 14.3301C16.5106 14.3301 16.6206 14.4401 16.6206 14.5701V15.8101Z" fill="#DDDDDD" stroke="#5E5E5A" stroke-width="0.15" stroke-miterlimit="10" stroke-linecap="round"/>
<path d="M17.9292 15.8101C17.9292 15.9401 17.8192 16.0501 17.6892 16.0501C17.5592 16.0501 17.4492 15.9401 17.4492 15.8101V14.5701C17.4492 14.4401 17.5592 14.3301 17.6892 14.3301C17.8192 14.3301 17.9292 14.4401 17.9292 14.5701V15.8101Z" fill="#DDDDDD" stroke="#5E5E5A" stroke-width="0.15" stroke-miterlimit="10" stroke-linecap="round"/>
<path d="M15.8103 14.8496H0.0703125V15.4696H15.8103V14.8496Z" fill="#DDDDDD" stroke="#5E5E5A" stroke-width="0.15" stroke-miterlimit="10" stroke-linecap="round"/>
</svg>
