<svg width="21" height="22" viewBox="0 0 21 22" fill="none" xmlns="http://www.w3.org/2000/svg">
<path d="M17.0211 16.9404H18.6711C18.8911 16.9404 19.0711 17.1204 19.0711 17.3404V18.9904C19.0711 19.2104 18.8911 19.3904 18.6711 19.3904H17.0211C16.8011 19.3904 16.6211 19.2104 16.6211 18.9904V17.3404C16.6211 17.1204 16.8011 16.9404 17.0211 16.9404Z" fill="#DDDDDD" stroke="#5E5E5A" stroke-width="0.15" stroke-miterlimit="10" stroke-linecap="round"/>
<path d="M18.2897 17.4902H17.3997C17.2782 17.4902 17.1797 17.5887 17.1797 17.7102V18.6002C17.1797 18.7217 17.2782 18.8202 17.3997 18.8202H18.2897C18.4112 18.8202 18.5097 18.7217 18.5097 18.6002V17.7102C18.5097 17.5887 18.4112 17.4902 18.2897 17.4902Z" fill="#DDDDDD" stroke="#5E5E5A" stroke-width="0.15" stroke-miterlimit="10" stroke-linecap="round"/>
<path d="M17.4409 18.8101C17.4409 18.9401 17.3309 19.0501 17.2009 19.0501C17.0709 19.0501 16.9609 18.9401 16.9609 18.8101V17.5701C16.9609 17.4401 17.0709 17.3301 17.2009 17.3301C17.3309 17.3301 17.4409 17.4401 17.4409 17.5701V18.8101Z" fill="#DDDDDD" stroke="#5E5E5A" stroke-width="0.15" stroke-miterlimit="10" stroke-linecap="round"/>
<path d="M18.7495 18.8101C18.7495 18.9401 18.6395 19.0501 18.5095 19.0501C18.3795 19.0501 18.2695 18.9401 18.2695 18.8101V17.5701C18.2695 17.4401 18.3795 17.3301 18.5095 17.3301C18.6395 17.3301 18.7495 17.4401 18.7495 17.5701V18.8101Z" fill="#DDDDDD" stroke="#5E5E5A" stroke-width="0.15" stroke-miterlimit="10" stroke-linecap="round"/>
<path d="M16.6308 17.8496H1.05078V18.4696H16.6308V17.8496Z" fill="#DDDDDD" stroke="#5E5E5A" stroke-width="0.15" stroke-miterlimit="10" stroke-linecap="round"/>
</svg>
