<svg width="22" height="20" viewBox="0 0 22 20" fill="none" xmlns="http://www.w3.org/2000/svg">
<path d="M16.0094 14.9404H17.6594C17.8794 14.9404 18.0594 15.1204 18.0594 15.3404V16.9904C18.0594 17.2104 17.8794 17.3904 17.6594 17.3904H16.0094C15.7894 17.3904 15.6094 17.2104 15.6094 16.9904V15.3404C15.6094 15.1204 15.7894 14.9404 16.0094 14.9404Z" fill="#DDDDDD" stroke="#5E5E5A" stroke-width="0.15" stroke-miterlimit="10" stroke-linecap="round"/>
<path d="M17.278 15.4902H16.388C16.2665 15.4902 16.168 15.5887 16.168 15.7102V16.6002C16.168 16.7217 16.2665 16.8202 16.388 16.8202H17.278C17.3995 16.8202 17.498 16.7217 17.498 16.6002V15.7102C17.498 15.5887 17.3995 15.4902 17.278 15.4902Z" fill="#DDDDDD" stroke="#5E5E5A" stroke-width="0.15" stroke-miterlimit="10" stroke-linecap="round"/>
<path d="M16.4175 16.8101C16.4175 16.9401 16.3075 17.0501 16.1775 17.0501C16.0475 17.0501 15.9375 16.9401 15.9375 16.8101V15.5701C15.9375 15.4401 16.0475 15.3301 16.1775 15.3301C16.3075 15.3301 16.4175 15.4401 16.4175 15.5701V16.8101Z" fill="#DDDDDD" stroke="#5E5E5A" stroke-width="0.15" stroke-miterlimit="10" stroke-linecap="round"/>
<path d="M17.7378 16.8101C17.7378 16.9401 17.6278 17.0501 17.4978 17.0501C17.3678 17.0501 17.2578 16.9401 17.2578 16.8101V15.5701C17.2578 15.4401 17.3678 15.3301 17.4978 15.3301C17.6278 15.3301 17.7378 15.4401 17.7378 15.5701V16.8101Z" fill="#DDDDDD" stroke="#5E5E5A" stroke-width="0.15" stroke-miterlimit="10" stroke-linecap="round"/>
<path d="M15.61 15.8496H1V16.4696H15.61V15.8496Z" fill="#DDDDDD" stroke="#5E5E5A" stroke-width="0.15" stroke-miterlimit="10" stroke-linecap="round"/>
</svg>
