<svg width="14" height="20" viewBox="0 0 14 20" fill="none" xmlns="http://www.w3.org/2000/svg">
<path d="M7.95859 14.9404H9.60859C9.82859 14.9404 10.0086 15.1204 10.0086 15.3404V16.9904C10.0086 17.2104 9.82859 17.3904 9.60859 17.3904H7.95859C7.73859 17.3904 7.55859 17.2104 7.55859 16.9904V15.3404C7.55859 15.1204 7.73859 14.9404 7.95859 14.9404Z" fill="#DDDDDD" stroke="#5E5E5A" stroke-width="0.15" stroke-miterlimit="10" stroke-linecap="round"/>
<path d="M9.22719 15.4902H8.33719C8.21569 15.4902 8.11719 15.5887 8.11719 15.7102V16.6002C8.11719 16.7217 8.21569 16.8202 8.33719 16.8202H9.22719C9.34869 16.8202 9.44719 16.7217 9.44719 16.6002V15.7102C9.44719 15.5887 9.34869 15.4902 9.22719 15.4902Z" fill="#DDDDDD" stroke="#5E5E5A" stroke-width="0.15" stroke-miterlimit="10" stroke-linecap="round"/>
<path d="M8.36672 16.8101C8.36672 16.9401 8.25672 17.0501 8.12672 17.0501C7.99672 17.0501 7.88672 16.9401 7.88672 16.8101V15.5701C7.88672 15.4401 7.99672 15.3301 8.12672 15.3301C8.25672 15.3301 8.36672 15.4401 8.36672 15.5701V16.8101Z" fill="#DDDDDD" stroke="#5E5E5A" stroke-width="0.15" stroke-miterlimit="10" stroke-linecap="round"/>
<path d="M9.68703 16.8101C9.68703 16.9401 9.57703 17.0501 9.44703 17.0501C9.31703 17.0501 9.20703 16.9401 9.20703 16.8101V15.5701C9.20703 15.4401 9.31703 15.3301 9.44703 15.3301C9.57703 15.3301 9.68703 15.4401 9.68703 15.5701V16.8101Z" fill="#DDDDDD" stroke="#5E5E5A" stroke-width="0.15" stroke-miterlimit="10" stroke-linecap="round"/>
</svg>
