<svg width="21" height="20" viewBox="0 0 21 20" fill="none" xmlns="http://www.w3.org/2000/svg">
<path d="M16.5406 14.9404H18.1906C18.4106 14.9404 18.5906 15.1204 18.5906 15.3404V16.9904C18.5906 17.2104 18.4106 17.3904 18.1906 17.3904H16.5406C16.3206 17.3904 16.1406 17.2104 16.1406 16.9904V15.3404C16.1406 15.1204 16.3206 14.9404 16.5406 14.9404Z" fill="#DDDDDD" stroke="#5E5E5A" stroke-width="0.15" stroke-miterlimit="10" stroke-linecap="round"/>
<path d="M17.8014 15.4902H16.9114C16.7899 15.4902 16.6914 15.5887 16.6914 15.7102V16.6002C16.6914 16.7217 16.7899 16.8202 16.9114 16.8202H17.8014C17.9229 16.8202 18.0214 16.7217 18.0214 16.6002V15.7102C18.0214 15.5887 17.9229 15.4902 17.8014 15.4902Z" fill="#DDDDDD" stroke="#5E5E5A" stroke-width="0.15" stroke-miterlimit="10" stroke-linecap="round"/>
<path d="M16.9487 16.8101C16.9487 16.9401 16.8387 17.0501 16.7087 17.0501C16.5787 17.0501 16.4688 16.9401 16.4688 16.8101V15.5701C16.4688 15.4401 16.5787 15.3301 16.7087 15.3301C16.8387 15.3301 16.9487 15.4401 16.9487 15.5701V16.8101Z" fill="#DDDDDD" stroke="#5E5E5A" stroke-width="0.15" stroke-miterlimit="10" stroke-linecap="round"/>
<path d="M18.2613 16.8101C18.2613 16.9401 18.1512 17.0501 18.0212 17.0501C17.8912 17.0501 17.7812 16.9401 17.7812 16.8101V15.5701C17.7812 15.4401 17.8912 15.3301 18.0212 15.3301C18.1512 15.3301 18.2613 15.4401 18.2613 15.5701V16.8101Z" fill="#DDDDDD" stroke="#5E5E5A" stroke-width="0.15" stroke-miterlimit="10" stroke-linecap="round"/>
<path d="M16.1405 15.8496H0.480469V16.4696H16.1405V15.8496Z" fill="#DDDDDD" stroke="#5E5E5A" stroke-width="0.15" stroke-miterlimit="10" stroke-linecap="round"/>
</svg>
