<svg width="21" height="19" viewBox="0 0 21 19" fill="none" xmlns="http://www.w3.org/2000/svg">
<path d="M16.8414 13.9404H18.4914C18.7114 13.9404 18.8914 14.1204 18.8914 14.3404V15.9904C18.8914 16.2104 18.7114 16.3904 18.4914 16.3904H16.8414C16.6214 16.3904 16.4414 16.2104 16.4414 15.9904V14.3404C16.4414 14.1204 16.6214 13.9404 16.8414 13.9404Z" fill="#DDDDDD" stroke="#5E5E5A" stroke-width="0.15" stroke-miterlimit="10" stroke-linecap="round"/>
<path d="M18.11 14.4902H17.22C17.0985 14.4902 17 14.5887 17 14.7102V15.6002C17 15.7217 17.0985 15.8202 17.22 15.8202H18.11C18.2315 15.8202 18.33 15.7217 18.33 15.6002V14.7102C18.33 14.5887 18.2315 14.4902 18.11 14.4902Z" fill="#DDDDDD" stroke="#5E5E5A" stroke-width="0.15" stroke-miterlimit="10" stroke-linecap="round"/>
<path d="M17.2495 15.8101C17.2495 15.9401 17.1395 16.0501 17.0095 16.0501C16.8795 16.0501 16.7695 15.9401 16.7695 15.8101V14.5701C16.7695 14.4401 16.8795 14.3301 17.0095 14.3301C17.1395 14.3301 17.2495 14.4401 17.2495 14.5701V15.8101Z" fill="#DDDDDD" stroke="#5E5E5A" stroke-width="0.15" stroke-miterlimit="10" stroke-linecap="round"/>
<path d="M18.5698 15.8101C18.5698 15.9401 18.4598 16.0501 18.3298 16.0501C18.1998 16.0501 18.0898 15.9401 18.0898 15.8101V14.5701C18.0898 14.4401 18.1998 14.3301 18.3298 14.3301C18.4598 14.3301 18.5698 14.4401 18.5698 14.5701V15.8101Z" fill="#DDDDDD" stroke="#5E5E5A" stroke-width="0.15" stroke-miterlimit="10" stroke-linecap="round"/>
<path d="M16.4381 14.8496H0.578125V15.4696H16.4381V14.8496Z" fill="#DDDDDD" stroke="#5E5E5A" stroke-width="0.15" stroke-miterlimit="10" stroke-linecap="round"/>
</svg>
