<svg width="21" height="22" viewBox="0 0 21 22" fill="none" xmlns="http://www.w3.org/2000/svg">
<path d="M17.0602 16.9404H18.7102C18.9302 16.9404 19.1102 17.1204 19.1102 17.3404V18.9904C19.1102 19.2104 18.9302 19.3904 18.7102 19.3904H17.0602C16.8402 19.3904 16.6602 19.2104 16.6602 18.9904V17.3404C16.6602 17.1204 16.8402 16.9404 17.0602 16.9404Z" fill="#DDDDDD" stroke="#5E5E5A" stroke-width="0.15" stroke-miterlimit="10" stroke-linecap="round"/>
<path d="M18.3209 17.4902H17.4309C17.3094 17.4902 17.2109 17.5887 17.2109 17.7102V18.6002C17.2109 18.7217 17.3094 18.8202 17.4309 18.8202H18.3209C18.4424 18.8202 18.5409 18.7217 18.5409 18.6002V17.7102C18.5409 17.5887 18.4424 17.4902 18.3209 17.4902Z" fill="#DDDDDD" stroke="#5E5E5A" stroke-width="0.15" stroke-miterlimit="10" stroke-linecap="round"/>
<path d="M17.4683 18.8101C17.4683 18.9401 17.3583 19.0501 17.2283 19.0501C17.0983 19.0501 16.9883 18.9401 16.9883 18.8101V17.5701C16.9883 17.4401 17.0983 17.3301 17.2283 17.3301C17.3583 17.3301 17.4683 17.4401 17.4683 17.5701V18.8101Z" fill="#DDDDDD" stroke="#5E5E5A" stroke-width="0.15" stroke-miterlimit="10" stroke-linecap="round"/>
<path d="M18.7808 18.8101C18.7808 18.9401 18.6708 19.0501 18.5408 19.0501C18.4108 19.0501 18.3008 18.9401 18.3008 18.8101V17.5701C18.3008 17.4401 18.4108 17.3301 18.5408 17.3301C18.6708 17.3301 18.7808 17.4401 18.7808 17.5701V18.8101Z" fill="#DDDDDD" stroke="#5E5E5A" stroke-width="0.15" stroke-miterlimit="10" stroke-linecap="round"/>
<path d="M16.6589 17.8496H0.878906V18.4696H16.6589V17.8496Z" fill="#DDDDDD" stroke="#5E5E5A" stroke-width="0.15" stroke-miterlimit="10" stroke-linecap="round"/>
</svg>
