<svg width="23" height="20" viewBox="0 0 23 20" fill="none" xmlns="http://www.w3.org/2000/svg">
<path d="M16.0992 14.9404H17.7492C17.9692 14.9404 18.1492 15.1204 18.1492 15.3404V16.9904C18.1492 17.2104 17.9692 17.3904 17.7492 17.3904H16.0992C15.8792 17.3904 15.6992 17.2104 15.6992 16.9904V15.3404C15.6992 15.1204 15.8792 14.9404 16.0992 14.9404Z" fill="#DDDDDD" stroke="#5E5E5A" stroke-width="0.15" stroke-miterlimit="10" stroke-linecap="round"/>
<path d="M17.3678 15.4902H16.4778C16.3563 15.4902 16.2578 15.5887 16.2578 15.7102V16.6002C16.2578 16.7217 16.3563 16.8202 16.4778 16.8202H17.3678C17.4893 16.8202 17.5878 16.7217 17.5878 16.6002V15.7102C17.5878 15.5887 17.4893 15.4902 17.3678 15.4902Z" fill="#DDDDDD" stroke="#5E5E5A" stroke-width="0.15" stroke-miterlimit="10" stroke-linecap="round"/>
<path d="M16.5073 16.8101C16.5073 16.9401 16.3973 17.0501 16.2673 17.0501C16.1373 17.0501 16.0273 16.9401 16.0273 16.8101V15.5701C16.0273 15.4401 16.1373 15.3301 16.2673 15.3301C16.3973 15.3301 16.5073 15.4401 16.5073 15.5701V16.8101Z" fill="#DDDDDD" stroke="#5E5E5A" stroke-width="0.15" stroke-miterlimit="10" stroke-linecap="round"/>
<path d="M17.8277 16.8101C17.8277 16.9401 17.7176 17.0501 17.5876 17.0501C17.4576 17.0501 17.3477 16.9401 17.3477 16.8101V15.5701C17.3477 15.4401 17.4576 15.3301 17.5876 15.3301C17.7176 15.3301 17.8277 15.4401 17.8277 15.5701V16.8101Z" fill="#DDDDDD" stroke="#5E5E5A" stroke-width="0.15" stroke-miterlimit="10" stroke-linecap="round"/>
<path d="M15.7016 15.8496H0.101562V16.4696H15.7016V15.8496Z" fill="#DDDDDD" stroke="#5E5E5A" stroke-width="0.15" stroke-miterlimit="10" stroke-linecap="round"/>
</svg>
