<svg width="24" height="20" viewBox="0 0 24 20" fill="none" xmlns="http://www.w3.org/2000/svg">
<path d="M14.9703 14.9404H16.6203C16.8403 14.9404 17.0203 15.1204 17.0203 15.3404V16.9904C17.0203 17.2104 16.8403 17.3904 16.6203 17.3904H14.9703C14.7503 17.3904 14.5703 17.2104 14.5703 16.9904V15.3404C14.5703 15.1204 14.7503 14.9404 14.9703 14.9404Z" fill="#DDDDDD" stroke="#5E5E5A" stroke-width="0.15" stroke-miterlimit="10" stroke-linecap="round"/>
<path d="M16.2389 15.4902H15.3489C15.2274 15.4902 15.1289 15.5887 15.1289 15.7102V16.6002C15.1289 16.7217 15.2274 16.8202 15.3489 16.8202H16.2389C16.3604 16.8202 16.4589 16.7217 16.4589 16.6002V15.7102C16.4589 15.5887 16.3604 15.4902 16.2389 15.4902Z" fill="#DDDDDD" stroke="#5E5E5A" stroke-width="0.15" stroke-miterlimit="10" stroke-linecap="round"/>
<path d="M15.3784 16.8101C15.3784 16.9401 15.2684 17.0501 15.1384 17.0501C15.0084 17.0501 14.8984 16.9401 14.8984 16.8101V15.5701C14.8984 15.4401 15.0084 15.3301 15.1384 15.3301C15.2684 15.3301 15.3784 15.4401 15.3784 15.5701V16.8101Z" fill="#DDDDDD" stroke="#5E5E5A" stroke-width="0.15" stroke-miterlimit="10" stroke-linecap="round"/>
<path d="M16.6987 16.8101C16.6987 16.9401 16.5888 17.0501 16.4588 17.0501C16.3288 17.0501 16.2188 16.9401 16.2188 16.8101V15.5701C16.2188 15.4401 16.3288 15.3301 16.4588 15.3301C16.5888 15.3301 16.6987 15.4401 16.6987 15.5701V16.8101Z" fill="#DDDDDD" stroke="#5E5E5A" stroke-width="0.15" stroke-miterlimit="10" stroke-linecap="round"/>
<path d="M14.5806 15.8496H0.140625V16.4696H14.5806V15.8496Z" fill="#DDDDDD" stroke="#5E5E5A" stroke-width="0.15" stroke-miterlimit="10" stroke-linecap="round"/>
</svg>
