<svg width="20" height="18" viewBox="0 0 20 18" fill="none" xmlns="http://www.w3.org/2000/svg">
<path d="M16.7281 3.08008H18.3781C18.5981 3.08008 18.7781 3.26008 18.7781 3.48008V5.13008C18.7781 5.35008 18.5981 5.53008 18.3781 5.53008H16.7281C16.5081 5.53008 16.3281 5.35008 16.3281 5.13008V3.48008C16.3281 3.26008 16.5081 3.08008 16.7281 3.08008Z" fill="#DDDDDD" stroke="#5E5E5A" stroke-width="0.15" stroke-miterlimit="10" stroke-linecap="round"/>
<path d="M17.9889 3.62988H17.0989C16.9774 3.62988 16.8789 3.72838 16.8789 3.84988V4.73988C16.8789 4.86139 16.9774 4.95988 17.0989 4.95988H17.9889C18.1104 4.95988 18.2089 4.86139 18.2089 4.73988V3.84988C18.2089 3.72838 18.1104 3.62988 17.9889 3.62988Z" fill="#DDDDDD" stroke="#5E5E5A" stroke-width="0.15" stroke-miterlimit="10" stroke-linecap="round"/>
<path d="M17.1362 4.94973C17.1362 5.07973 17.0262 5.18972 16.8962 5.18972C16.7662 5.18972 16.6562 5.07973 16.6562 4.94973V3.70972C16.6562 3.57972 16.7662 3.46973 16.8962 3.46973C17.0262 3.46973 17.1362 3.57972 17.1362 3.70972V4.94973Z" fill="#DDDDDD" stroke="#5E5E5A" stroke-width="0.15" stroke-miterlimit="10" stroke-linecap="round"/>
<path d="M18.4566 4.94973C18.4566 5.07973 18.3466 5.18972 18.2166 5.18972C18.0866 5.18972 17.9766 5.07973 17.9766 4.94973V3.70972C17.9766 3.57972 18.0866 3.46973 18.2166 3.46973C18.3466 3.46973 18.4566 3.57972 18.4566 3.70972V4.94973Z" fill="#DDDDDD" stroke="#5E5E5A" stroke-width="0.15" stroke-miterlimit="10" stroke-linecap="round"/>
<path d="M16.3403 3.99023H0.320312V4.61023H16.3403V3.99023Z" fill="#DDDDDD" stroke="#5E5E5A" stroke-width="0.15" stroke-miterlimit="10" stroke-linecap="round"/>
</svg>
