<svg width="21" height="19" viewBox="0 0 21 19" fill="none" xmlns="http://www.w3.org/2000/svg">
<path d="M16.8609 3.08008H18.5109C18.7309 3.08008 18.9109 3.26008 18.9109 3.48008V5.13008C18.9109 5.35008 18.7309 5.53008 18.5109 5.53008H16.8609C16.6409 5.53008 16.4609 5.35008 16.4609 5.13008V3.48008C16.4609 3.26008 16.6409 3.08008 16.8609 3.08008Z" fill="#DDDDDD" stroke="#5E5E5A" stroke-width="0.15" stroke-miterlimit="10" stroke-linecap="round"/>
<path d="M18.1295 3.62988H17.2395C17.118 3.62988 17.0195 3.72838 17.0195 3.84988V4.73988C17.0195 4.86139 17.118 4.95988 17.2395 4.95988H18.1295C18.251 4.95988 18.3495 4.86139 18.3495 4.73988V3.84988C18.3495 3.72838 18.251 3.62988 18.1295 3.62988Z" fill="#DDDDDD" stroke="#5E5E5A" stroke-width="0.15" stroke-miterlimit="10" stroke-linecap="round"/>
<path d="M17.2691 4.94973C17.2691 5.07973 17.1591 5.18972 17.0291 5.18972C16.8991 5.18972 16.7891 5.07973 16.7891 4.94973V3.70972C16.7891 3.57972 16.8991 3.46973 17.0291 3.46973C17.1591 3.46973 17.2691 3.57972 17.2691 3.70972V4.94973Z" fill="#DDDDDD" stroke="#5E5E5A" stroke-width="0.15" stroke-miterlimit="10" stroke-linecap="round"/>
<path d="M18.5894 4.94973C18.5894 5.07973 18.4794 5.18972 18.3494 5.18972C18.2194 5.18972 18.1094 5.07973 18.1094 4.94973V3.70972C18.1094 3.57972 18.2194 3.46973 18.3494 3.46973C18.4794 3.46973 18.5894 3.57972 18.5894 3.70972V4.94973Z" fill="#DDDDDD" stroke="#5E5E5A" stroke-width="0.15" stroke-miterlimit="10" stroke-linecap="round"/>
<path d="M16.4695 3.99023H0.769531V4.61023H16.4695V3.99023Z" fill="#DDDDDD" stroke="#5E5E5A" stroke-width="0.15" stroke-miterlimit="10" stroke-linecap="round"/>
</svg>
