<svg width="21" height="22" viewBox="0 0 21 22" fill="none" xmlns="http://www.w3.org/2000/svg">
<path d="M16.8805 3.08008H18.5305C18.7505 3.08008 18.9305 3.26008 18.9305 3.48008V5.13008C18.9305 5.35008 18.7505 5.53008 18.5305 5.53008H16.8805C16.6605 5.53008 16.4805 5.35008 16.4805 5.13008V3.48008C16.4805 3.26008 16.6605 3.08008 16.8805 3.08008Z" fill="#DDDDDD" stroke="#5E5E5A" stroke-width="0.15" stroke-miterlimit="10" stroke-linecap="round"/>
<path d="M18.1491 3.62988H17.2591C17.1376 3.62988 17.0391 3.72838 17.0391 3.84988V4.73988C17.0391 4.86139 17.1376 4.95988 17.2591 4.95988H18.1491C18.2706 4.95988 18.3691 4.86139 18.3691 4.73988V3.84988C18.3691 3.72838 18.2706 3.62988 18.1491 3.62988Z" fill="#DDDDDD" stroke="#5E5E5A" stroke-width="0.15" stroke-miterlimit="10" stroke-linecap="round"/>
<path d="M17.2886 4.94973C17.2886 5.07973 17.1786 5.18972 17.0486 5.18972C16.9186 5.18972 16.8086 5.07973 16.8086 4.94973V3.70972C16.8086 3.57972 16.9186 3.46973 17.0486 3.46973C17.1786 3.46973 17.2886 3.57972 17.2886 3.70972V4.94973Z" fill="#DDDDDD" stroke="#5E5E5A" stroke-width="0.15" stroke-miterlimit="10" stroke-linecap="round"/>
<path d="M18.6089 4.94973C18.6089 5.07973 18.4989 5.18972 18.3689 5.18972C18.2389 5.18972 18.1289 5.07973 18.1289 4.94973V3.70972C18.1289 3.57972 18.2389 3.46973 18.3689 3.46973C18.4989 3.46973 18.6089 3.57972 18.6089 3.70972V4.94973Z" fill="#DDDDDD" stroke="#5E5E5A" stroke-width="0.15" stroke-miterlimit="10" stroke-linecap="round"/>
<path d="M16.4784 3.99023H0.898438V4.61023H16.4784V3.99023Z" fill="#DDDDDD" stroke="#5E5E5A" stroke-width="0.15" stroke-miterlimit="10" stroke-linecap="round"/>
</svg>
