<svg width="24" height="18" viewBox="0 0 24 18" fill="none" xmlns="http://www.w3.org/2000/svg">
<path d="M17.7086 3.08008H19.3586C19.5786 3.08008 19.7586 3.26008 19.7586 3.48008V5.13008C19.7586 5.35008 19.5786 5.53008 19.3586 5.53008H17.7086C17.4886 5.53008 17.3086 5.35008 17.3086 5.13008V3.48008C17.3086 3.26008 17.4886 3.08008 17.7086 3.08008Z" fill="#DDDDDD" stroke="#5E5E5A" stroke-width="0.15" stroke-miterlimit="10" stroke-linecap="round"/>
<path d="M18.9772 3.62988H18.0872C17.9657 3.62988 17.8672 3.72838 17.8672 3.84988V4.73988C17.8672 4.86139 17.9657 4.95988 18.0872 4.95988H18.9772C19.0987 4.95988 19.1972 4.86139 19.1972 4.73988V3.84988C19.1972 3.72838 19.0987 3.62988 18.9772 3.62988Z" fill="#DDDDDD" stroke="#5E5E5A" stroke-width="0.15" stroke-miterlimit="10" stroke-linecap="round"/>
<path d="M18.1167 4.94973C18.1167 5.07973 18.0067 5.18972 17.8767 5.18972C17.7467 5.18972 17.6367 5.07973 17.6367 4.94973V3.70972C17.6367 3.57972 17.7467 3.46973 17.8767 3.46973C18.0067 3.46973 18.1167 3.57972 18.1167 3.70972V4.94973Z" fill="#DDDDDD" stroke="#5E5E5A" stroke-width="0.15" stroke-miterlimit="10" stroke-linecap="round"/>
<path d="M19.437 4.94973C19.437 5.07973 19.327 5.18972 19.197 5.18972C19.067 5.18972 18.957 5.07973 18.957 4.94973V3.70972C18.957 3.57972 19.067 3.46973 19.197 3.46973C19.327 3.46973 19.437 3.57972 19.437 3.70972V4.94973Z" fill="#DDDDDD" stroke="#5E5E5A" stroke-width="0.15" stroke-miterlimit="10" stroke-linecap="round"/>
<path d="M17.3119 3.99023H0.921875V4.61023H17.3119V3.99023Z" fill="#DDDDDD" stroke="#5E5E5A" stroke-width="0.15" stroke-miterlimit="10" stroke-linecap="round"/>
</svg>
