<svg width="24" height="19" viewBox="0 0 24 19" fill="none" xmlns="http://www.w3.org/2000/svg">
<path d="M15.9899 3.08008H17.6398C17.8598 3.08008 18.0398 3.26008 18.0398 3.48008V5.13008C18.0398 5.35008 17.8598 5.53008 17.6398 5.53008H15.9899C15.7699 5.53008 15.5898 5.35008 15.5898 5.13008V3.48008C15.5898 3.26008 15.7699 3.08008 15.9899 3.08008Z" fill="#DDDDDD" stroke="#5E5E5A" stroke-width="0.15" stroke-miterlimit="10" stroke-linecap="round"/>
<path d="M17.2584 3.62988H16.3684C16.2469 3.62988 16.1484 3.72838 16.1484 3.84988V4.73988C16.1484 4.86139 16.2469 4.95988 16.3684 4.95988H17.2584C17.3799 4.95988 17.4784 4.86139 17.4784 4.73988V3.84988C17.4784 3.72838 17.3799 3.62988 17.2584 3.62988Z" fill="#DDDDDD" stroke="#5E5E5A" stroke-width="0.15" stroke-miterlimit="10" stroke-linecap="round"/>
<path d="M16.4097 4.94973C16.4097 5.07973 16.2997 5.18972 16.1697 5.18972C16.0397 5.18972 15.9297 5.07973 15.9297 4.94973V3.70972C15.9297 3.57972 16.0397 3.46973 16.1697 3.46973C16.2997 3.46973 16.4097 3.57972 16.4097 3.70972V4.94973Z" fill="#DDDDDD" stroke="#5E5E5A" stroke-width="0.15" stroke-miterlimit="10" stroke-linecap="round"/>
<path d="M17.7183 4.94973C17.7183 5.07973 17.6083 5.18972 17.4783 5.18972C17.3483 5.18972 17.2383 5.07973 17.2383 4.94973V3.70972C17.2383 3.57972 17.3483 3.46973 17.4783 3.46973C17.6083 3.46973 17.7183 3.57972 17.7183 3.70972V4.94973Z" fill="#DDDDDD" stroke="#5E5E5A" stroke-width="0.15" stroke-miterlimit="10" stroke-linecap="round"/>
<path d="M15.6 3.99023H0.75V4.61023H15.6V3.99023Z" fill="#DDDDDD" stroke="#5E5E5A" stroke-width="0.15" stroke-miterlimit="10" stroke-linecap="round"/>
</svg>
