<svg width="20" height="18" viewBox="0 0 20 18" fill="none" xmlns="http://www.w3.org/2000/svg">
<path d="M16.2711 3.08008H17.9211C18.1411 3.08008 18.3211 3.26008 18.3211 3.48008V5.13008C18.3211 5.35008 18.1411 5.53008 17.9211 5.53008H16.2711C16.0511 5.53008 15.8711 5.35008 15.8711 5.13008V3.48008C15.8711 3.26008 16.0511 3.08008 16.2711 3.08008Z" fill="#DDDDDD" stroke="#5E5E5A" stroke-width="0.15" stroke-miterlimit="10" stroke-linecap="round"/>
<path d="M17.5397 3.62988H16.6497C16.5282 3.62988 16.4297 3.72838 16.4297 3.84988V4.73988C16.4297 4.86139 16.5282 4.95988 16.6497 4.95988H17.5397C17.6612 4.95988 17.7597 4.86139 17.7597 4.73988V3.84988C17.7597 3.72838 17.6612 3.62988 17.5397 3.62988Z" fill="#DDDDDD" stroke="#5E5E5A" stroke-width="0.15" stroke-miterlimit="10" stroke-linecap="round"/>
<path d="M16.6792 4.94973C16.6792 5.07973 16.5692 5.18972 16.4392 5.18972C16.3092 5.18972 16.1992 5.07973 16.1992 4.94973V3.70972C16.1992 3.57972 16.3092 3.46973 16.4392 3.46973C16.5692 3.46973 16.6792 3.57972 16.6792 3.70972V4.94973Z" fill="#DDDDDD" stroke="#5E5E5A" stroke-width="0.15" stroke-miterlimit="10" stroke-linecap="round"/>
<path d="M17.9995 4.94973C17.9995 5.07973 17.8895 5.18972 17.7595 5.18972C17.6295 5.18972 17.5195 5.07973 17.5195 4.94973V3.70972C17.5195 3.57972 17.6295 3.46973 17.7595 3.46973C17.8895 3.46973 17.9995 3.57972 17.9995 3.70972V4.94973Z" fill="#DDDDDD" stroke="#5E5E5A" stroke-width="0.15" stroke-miterlimit="10" stroke-linecap="round"/>
<path d="M15.8795 3.99023H0.269531V4.61023H15.8795V3.99023Z" fill="#DDDDDD" stroke="#5E5E5A" stroke-width="0.15" stroke-miterlimit="10" stroke-linecap="round"/>
</svg>
