<svg width="20" height="19" viewBox="0 0 20 19" fill="none" xmlns="http://www.w3.org/2000/svg">
<path d="M16.2281 3.08008H17.8781C18.0981 3.08008 18.2781 3.26008 18.2781 3.48008V5.13008C18.2781 5.35008 18.0981 5.53008 17.8781 5.53008H16.2281C16.0081 5.53008 15.8281 5.35008 15.8281 5.13008V3.48008C15.8281 3.26008 16.0081 3.08008 16.2281 3.08008Z" fill="#DDDDDD" stroke="#5E5E5A" stroke-width="0.15" stroke-miterlimit="10" stroke-linecap="round"/>
<path d="M17.4967 3.62988H16.6067C16.4852 3.62988 16.3867 3.72838 16.3867 3.84988V4.73988C16.3867 4.86139 16.4852 4.95988 16.6067 4.95988H17.4967C17.6182 4.95988 17.7167 4.86139 17.7167 4.73988V3.84988C17.7167 3.72838 17.6182 3.62988 17.4967 3.62988Z" fill="#DDDDDD" stroke="#5E5E5A" stroke-width="0.15" stroke-miterlimit="10" stroke-linecap="round"/>
<path d="M16.6362 4.94973C16.6362 5.07973 16.5263 5.18972 16.3963 5.18972C16.2663 5.18972 16.1562 5.07973 16.1562 4.94973V3.70972C16.1562 3.57972 16.2663 3.46973 16.3963 3.46973C16.5263 3.46973 16.6362 3.57972 16.6362 3.70972V4.94973Z" fill="#DDDDDD" stroke="#5E5E5A" stroke-width="0.15" stroke-miterlimit="10" stroke-linecap="round"/>
<path d="M17.9566 4.94973C17.9566 5.07973 17.8466 5.18972 17.7166 5.18972C17.5866 5.18972 17.4766 5.07973 17.4766 4.94973V3.70972C17.4766 3.57972 17.5866 3.46973 17.7166 3.46973C17.8466 3.46973 17.9566 3.57972 17.9566 3.70972V4.94973Z" fill="#DDDDDD" stroke="#5E5E5A" stroke-width="0.15" stroke-miterlimit="10" stroke-linecap="round"/>
<path d="M15.8298 3.99023H0.0898438V4.61023H15.8298V3.99023Z" fill="#DDDDDD" stroke="#5E5E5A" stroke-width="0.15" stroke-miterlimit="10" stroke-linecap="round"/>
</svg>
