<svg width="21" height="22" viewBox="0 0 21 22" fill="none" xmlns="http://www.w3.org/2000/svg">
<path d="M18.6884 3.08008H17.0484C16.8275 3.08008 16.6484 3.25916 16.6484 3.48008V5.12008C16.6484 5.34099 16.8275 5.52008 17.0484 5.52008H18.6884C18.9093 5.52008 19.0884 5.34099 19.0884 5.12008V3.48008C19.0884 3.25916 18.9093 3.08008 18.6884 3.08008Z" fill="#DDDDDD" stroke="#5E5E5A" stroke-width="0.15" stroke-miterlimit="10" stroke-linecap="round"/>
<path d="M18.317 3.62988H17.427C17.3055 3.62988 17.207 3.72838 17.207 3.84988V4.73988C17.207 4.86139 17.3055 4.95988 17.427 4.95988H18.317C18.4385 4.95988 18.537 4.86139 18.537 4.73988V3.84988C18.537 3.72838 18.4385 3.62988 18.317 3.62988Z" fill="#DDDDDD" stroke="#5E5E5A" stroke-width="0.15" stroke-miterlimit="10" stroke-linecap="round"/>
<path d="M17.4566 4.94973C17.4566 5.07973 17.3466 5.18972 17.2166 5.18972C17.0866 5.18972 16.9766 5.07973 16.9766 4.94973V3.70972C16.9766 3.57972 17.0866 3.46973 17.2166 3.46973C17.3466 3.46973 17.4566 3.57972 17.4566 3.70972V4.94973Z" fill="#DDDDDD" stroke="#5E5E5A" stroke-width="0.15" stroke-miterlimit="10" stroke-linecap="round"/>
<path d="M18.7769 4.94973C18.7769 5.07973 18.6669 5.18972 18.5369 5.18972C18.4069 5.18972 18.2969 5.07973 18.2969 4.94973V3.70972C18.2969 3.57972 18.4069 3.46973 18.5369 3.46973C18.6669 3.46973 18.7769 3.57972 18.7769 3.70972V4.94973Z" fill="#DDDDDD" stroke="#5E5E5A" stroke-width="0.15" stroke-miterlimit="10" stroke-linecap="round"/>
<path d="M16.6614 3.99023H0.191406V4.61023H16.6614V3.99023Z" fill="#DDDDDD" stroke="#5E5E5A" stroke-width="0.15" stroke-miterlimit="10" stroke-linecap="round"/>
</svg>
