<svg width="24" height="18" viewBox="0 0 24 18" fill="none" xmlns="http://www.w3.org/2000/svg">
<path d="M16.1383 3.08008H17.7883C18.0083 3.08008 18.1883 3.26008 18.1883 3.48008V5.13008C18.1883 5.35008 18.0083 5.53008 17.7883 5.53008H16.1383C15.9183 5.53008 15.7383 5.35008 15.7383 5.13008V3.48008C15.7383 3.26008 15.9183 3.08008 16.1383 3.08008Z" fill="#DDDDDD" stroke="#5E5E5A" stroke-width="0.15" stroke-miterlimit="10" stroke-linecap="round"/>
<path d="M17.4069 3.62988H16.5169C16.3954 3.62988 16.2969 3.72838 16.2969 3.84988V4.73988C16.2969 4.86139 16.3954 4.95988 16.5169 4.95988H17.4069C17.5284 4.95988 17.6269 4.86139 17.6269 4.73988V3.84988C17.6269 3.72838 17.5284 3.62988 17.4069 3.62988Z" fill="#DDDDDD" stroke="#5E5E5A" stroke-width="0.15" stroke-miterlimit="10" stroke-linecap="round"/>
<path d="M16.5581 4.94973C16.5581 5.07973 16.4481 5.18972 16.3181 5.18972C16.1881 5.18972 16.0781 5.07973 16.0781 4.94973V3.70972C16.0781 3.57972 16.1881 3.46973 16.3181 3.46973C16.4481 3.46973 16.5581 3.57972 16.5581 3.70972V4.94973Z" fill="#DDDDDD" stroke="#5E5E5A" stroke-width="0.15" stroke-miterlimit="10" stroke-linecap="round"/>
<path d="M17.8667 4.94973C17.8667 5.07973 17.7567 5.18972 17.6267 5.18972C17.4967 5.18972 17.3867 5.07973 17.3867 4.94973V3.70972C17.3867 3.57972 17.4967 3.46973 17.6267 3.46973C17.7567 3.46973 17.8667 3.57972 17.8667 3.70972V4.94973Z" fill="#DDDDDD" stroke="#5E5E5A" stroke-width="0.15" stroke-miterlimit="10" stroke-linecap="round"/>
<path d="M15.7414 3.99023H0.691406V4.61023H15.7414V3.99023Z" fill="#DDDDDD" stroke="#5E5E5A" stroke-width="0.15" stroke-miterlimit="10" stroke-linecap="round"/>
</svg>
