<svg width="7" height="19" viewBox="0 0 7 19" fill="none" xmlns="http://www.w3.org/2000/svg">
<path d="M3.73999 0.280273H3.31C2.6 0.280273 1.99998 0.660273 1.94998 1.16027L0.75 18.8503H6.29999L5.09998 1.16027C5.04998 0.660273 4.43999 0.280273 3.73999 0.280273Z" fill="#DDDDDD" stroke="#5E5E5A" stroke-width="0.15" stroke-miterlimit="10"/>
<mask id="mask0_227_1802" style="mask-type:luminance" maskUnits="userSpaceOnUse" x="0" y="0" width="7" height="19">
<path d="M3.73999 0.280273H3.31C2.6 0.280273 1.99998 0.660273 1.94998 1.16027L0.75 18.8503H6.29999L5.09998 1.16027C5.04998 0.660273 4.43999 0.280273 3.73999 0.280273Z" fill="white"/>
</mask>
<g mask="url(#mask0_227_1802)">
<path d="M8.00079 17.9007L-0.949219 14.5107" stroke="#5E5E5A" stroke-width="0.3" stroke-miterlimit="10"/>
<path d="M7.90921 15.8902L-1.05078 12.4902" stroke="#5E5E5A" stroke-width="0.3" stroke-miterlimit="10"/>
<path d="M7.81937 13.8805L-1.14062 10.4805" stroke="#5E5E5A" stroke-width="0.3" stroke-miterlimit="10"/>
<path d="M7.72952 11.8607L-1.23047 8.4707" stroke="#5E5E5A" stroke-width="0.3" stroke-miterlimit="10"/>
<path d="M7.62967 9.84996L-1.32031 6.45996" stroke="#5E5E5A" stroke-width="0.3" stroke-miterlimit="10"/>
<path d="M7.53983 7.84043L-1.41016 4.44043" stroke="#5E5E5A" stroke-width="0.3" stroke-miterlimit="10"/>
<path d="M7.44998 5.83066L-1.5 2.43066" stroke="#5E5E5A" stroke-width="0.3" stroke-miterlimit="10"/>
<path d="M7.36017 3.80992L-1.58984 0.419922" stroke="#5E5E5A" stroke-width="0.3" stroke-miterlimit="10"/>
<path d="M7.27032 1.80039L-1.67969 -1.59961" stroke="#5E5E5A" stroke-width="0.3" stroke-miterlimit="10"/>
</g>
</svg>
