<svg width="7" height="21" viewBox="0 0 7 21" fill="none" xmlns="http://www.w3.org/2000/svg">
<path d="M3.68234 1H3.24234C2.52234 1 1.91234 1.39 1.86234 1.89L0.652344 20.79H6.28235L5.07233 1.89C5.02233 1.39 4.40235 1 3.69235 1H3.68234Z" fill="#DDDDDD" stroke="#5E5E5A" stroke-width="0.15" stroke-miterlimit="10"/>
<mask id="mask0_227_1768" style="mask-type:luminance" maskUnits="userSpaceOnUse" x="0" y="1" width="7" height="20">
<path d="M3.68234 1H3.24234C2.52234 1 1.91234 1.39 1.86234 1.89L0.652344 20.79H6.28235L5.07233 1.89C5.02233 1.39 4.40235 1 3.69235 1H3.68234Z" fill="white"/>
</mask>
<g mask="url(#mask0_227_1768)">
<path d="M8.00189 20.3199L-1.07812 16.8799" stroke="#5E5E5A" stroke-width="0.3" stroke-miterlimit="10"/>
<path d="M8.00189 18.2996L-1.07812 14.8496" stroke="#5E5E5A" stroke-width="0.3" stroke-miterlimit="10"/>
<path d="M8.00189 16.2701L-1.07812 12.8301" stroke="#5E5E5A" stroke-width="0.3" stroke-miterlimit="10"/>
<path d="M8.00189 14.2398L-1.07812 10.7998" stroke="#5E5E5A" stroke-width="0.3" stroke-miterlimit="10"/>
<path d="M8.00189 12.2195L-1.07812 8.76953" stroke="#5E5E5A" stroke-width="0.3" stroke-miterlimit="10"/>
<path d="M8.00189 10.19L-1.07812 6.75" stroke="#5E5E5A" stroke-width="0.3" stroke-miterlimit="10"/>
<path d="M8.00189 8.16973L-1.07812 4.71973" stroke="#5E5E5A" stroke-width="0.3" stroke-miterlimit="10"/>
<path d="M8.00189 6.14019L-1.07812 2.7002" stroke="#5E5E5A" stroke-width="0.3" stroke-miterlimit="10"/>
<path d="M8.00189 4.10992L-1.07812 0.669922" stroke="#5E5E5A" stroke-width="0.3" stroke-miterlimit="10"/>
</g>
</svg>
