<svg width="7" height="19" viewBox="0 0 7 19" fill="none" xmlns="http://www.w3.org/2000/svg">
<path d="M3.76031 0.69043H3.33031C2.64031 0.69043 2.04031 1.06043 1.99031 1.55043L0.820312 18.9304H6.2803L5.11031 1.55043C5.06031 1.06043 4.46031 0.69043 3.77031 0.69043H3.76031Z" fill="#DDDDDD" stroke="#5E5E5A" stroke-width="0.15" stroke-miterlimit="10"/>
<mask id="mask0_227_1733" style="mask-type:luminance" maskUnits="userSpaceOnUse" x="0" y="0" width="7" height="19">
<path d="M3.76031 0.69043H3.33031C2.64031 0.69043 2.04031 1.06043 1.99031 1.55043L0.820312 18.9304H6.2803L5.11031 1.55043C5.06031 1.06043 4.46031 0.69043 3.77031 0.69043H3.76031Z" fill="white"/>
</mask>
<g mask="url(#mask0_227_1733)">
<path d="M6.68843 17.9203L0.398438 15.5303" stroke="#5E5E5A" stroke-width="0.3" stroke-miterlimit="10"/>
<path d="M6.68843 16.1898L0.398438 13.7998" stroke="#5E5E5A" stroke-width="0.3" stroke-miterlimit="10"/>
<path d="M6.68843 14.4503L0.398438 12.0703" stroke="#5E5E5A" stroke-width="0.3" stroke-miterlimit="10"/>
<path d="M6.68843 12.7198L0.398438 10.3398" stroke="#5E5E5A" stroke-width="0.3" stroke-miterlimit="10"/>
<path d="M6.68843 10.9904L0.398438 8.61035" stroke="#5E5E5A" stroke-width="0.3" stroke-miterlimit="10"/>
<path d="M6.68843 9.25988L0.398438 6.87988" stroke="#5E5E5A" stroke-width="0.3" stroke-miterlimit="10"/>
<path d="M6.68843 7.53039L0.398438 5.15039" stroke="#5E5E5A" stroke-width="0.3" stroke-miterlimit="10"/>
<path d="M6.68843 5.79992L0.398438 3.41992" stroke="#5E5E5A" stroke-width="0.3" stroke-miterlimit="10"/>
<path d="M6.68843 4.07043L0.398438 1.69043" stroke="#5E5E5A" stroke-width="0.3" stroke-miterlimit="10"/>
<path d="M6.68843 2.33996L0.398438 -0.0400391" stroke="#5E5E5A" stroke-width="0.3" stroke-miterlimit="10"/>
</g>
</svg>
