<svg width="7" height="19" viewBox="0 0 7 19" fill="none" xmlns="http://www.w3.org/2000/svg">
<path d="M3.57172 0.280273H4.00174C4.71174 0.280273 5.31172 0.660273 5.36172 1.16027L6.56174 18.8503H1.01172L2.21173 1.16027C2.26173 0.660273 2.87172 0.280273 3.57172 0.280273Z" fill="#DDDDDD" stroke="#5E5E5A" stroke-width="0.15" stroke-miterlimit="10"/>
<mask id="mask0_227_1381" style="mask-type:luminance" maskUnits="userSpaceOnUse" x="1" y="0" width="6" height="19">
<path d="M3.57172 0.280273H4.00174C4.71174 0.280273 5.31172 0.660273 5.36172 1.16027L6.56174 18.8503H1.01172L2.21173 1.16027C2.26173 0.660273 2.87172 0.280273 3.57172 0.280273Z" fill="white"/>
</mask>
<g mask="url(#mask0_227_1381)">
<path d="M-0.6875 17.8998L8.26248 14.5098" stroke="#5E5E5A" stroke-width="0.3" stroke-miterlimit="10"/>
<path d="M-0.6875 15.7796L8.26248 12.3896" stroke="#5E5E5A" stroke-width="0.3" stroke-miterlimit="10"/>
<path d="M-0.6875 13.6595L8.26248 10.2695" stroke="#5E5E5A" stroke-width="0.3" stroke-miterlimit="10"/>
<path d="M-0.6875 11.5394L8.26248 8.14941" stroke="#5E5E5A" stroke-width="0.3" stroke-miterlimit="10"/>
<path d="M-0.6875 9.42027L8.26248 6.03027" stroke="#5E5E5A" stroke-width="0.3" stroke-miterlimit="10"/>
<path d="M-0.6875 7.30016L8.26248 3.91016" stroke="#5E5E5A" stroke-width="0.3" stroke-miterlimit="10"/>
<path d="M-0.6875 5.18004L8.26248 1.79004" stroke="#5E5E5A" stroke-width="0.3" stroke-miterlimit="10"/>
<path d="M-0.6875 3.06992L8.26248 -0.330078" stroke="#5E5E5A" stroke-width="0.3" stroke-miterlimit="10"/>
<path d="M-0.6875 0.949805L8.26248 -2.4502" stroke="#5E5E5A" stroke-width="0.3" stroke-miterlimit="10"/>
</g>
</svg>
