<svg width="7" height="19" viewBox="0 0 7 19" fill="none" xmlns="http://www.w3.org/2000/svg">
<path d="M3.08249 0.69043H3.51248C4.20248 0.69043 4.80248 1.06043 4.85248 1.55043L6.02249 18.9304H0.5625L1.73248 1.55043C1.78248 1.06043 2.38248 0.69043 3.07248 0.69043H3.08249Z" fill="#DDDDDD" stroke="#5E5E5A" stroke-width="0.15" stroke-miterlimit="10"/>
<mask id="mask0_227_1329" style="mask-type:luminance" maskUnits="userSpaceOnUse" x="0" y="0" width="7" height="19">
<path d="M3.08249 0.69043H3.51248C4.20248 0.69043 4.80248 1.06043 4.85248 1.55043L6.02249 18.9304H0.5625L1.73248 1.55043C1.78248 1.06043 2.38248 0.69043 3.07248 0.69043H3.08249Z" fill="white"/>
</mask>
<g mask="url(#mask0_227_1329)">
<path d="M0.152344 17.9203L6.44235 15.5303" stroke="#5E5E5A" stroke-width="0.3" stroke-miterlimit="10"/>
<path d="M0.152344 16.1898L6.44235 13.7998" stroke="#5E5E5A" stroke-width="0.3" stroke-miterlimit="10"/>
<path d="M0.152344 14.4503L6.44235 12.0703" stroke="#5E5E5A" stroke-width="0.3" stroke-miterlimit="10"/>
<path d="M0.152344 12.7198L6.44235 10.3398" stroke="#5E5E5A" stroke-width="0.3" stroke-miterlimit="10"/>
<path d="M0.152344 10.9904L6.44235 8.61035" stroke="#5E5E5A" stroke-width="0.3" stroke-miterlimit="10"/>
<path d="M0.152344 9.25988L6.44235 6.87988" stroke="#5E5E5A" stroke-width="0.3" stroke-miterlimit="10"/>
<path d="M0.152344 7.53039L6.44235 5.15039" stroke="#5E5E5A" stroke-width="0.3" stroke-miterlimit="10"/>
<path d="M0.152344 5.79992L6.44235 3.41992" stroke="#5E5E5A" stroke-width="0.3" stroke-miterlimit="10"/>
<path d="M0.152344 4.07043L6.44235 1.69043" stroke="#5E5E5A" stroke-width="0.3" stroke-miterlimit="10"/>
<path d="M0.152344 2.33996L6.44235 -0.0400391" stroke="#5E5E5A" stroke-width="0.3" stroke-miterlimit="10"/>
</g>
</svg>
