<svg width="6" height="18" viewBox="0 0 6 18" fill="none" xmlns="http://www.w3.org/2000/svg">
<path d="M2.98999 16.9805H2.59C1.94 16.9805 1.39 16.6405 1.34 16.2005L0.25 0.520508H5.32999L4.23999 16.2005C4.18999 16.6405 3.63999 16.9805 2.98999 16.9805Z" fill="#DDDDDD" stroke="#5E5E5A" stroke-width="0.15" stroke-miterlimit="10"/>
<mask id="mask0_227_1515" style="mask-type:luminance" maskUnits="userSpaceOnUse" x="0" y="0" width="6" height="17">
<path d="M2.98999 16.9805H2.59C1.94 16.9805 1.39 16.6405 1.34 16.2005L0.25 0.520508H5.32999L4.23999 16.2005C4.18999 16.6405 3.63999 16.9805 2.98999 16.9805Z" fill="white"/>
</mask>
<g mask="url(#mask0_227_1515)">
<path d="M6.88138 1.35059L-1.30859 4.36058" stroke="#5E5E5A" stroke-width="0.3" stroke-miterlimit="10"/>
<path d="M6.88138 3.23047L-1.30859 6.24047" stroke="#5E5E5A" stroke-width="0.3" stroke-miterlimit="10"/>
<path d="M6.88138 5.11035L-1.30859 8.12035" stroke="#5E5E5A" stroke-width="0.3" stroke-miterlimit="10"/>
<path d="M6.88138 6.99023L-1.30859 10.0002" stroke="#5E5E5A" stroke-width="0.3" stroke-miterlimit="10"/>
<path d="M6.88138 8.87012L-1.30859 11.8801" stroke="#5E5E5A" stroke-width="0.3" stroke-miterlimit="10"/>
<path d="M6.88138 10.751L-1.30859 13.761" stroke="#5E5E5A" stroke-width="0.3" stroke-miterlimit="10"/>
<path d="M6.88138 12.6309L-1.30859 15.6409" stroke="#5E5E5A" stroke-width="0.3" stroke-miterlimit="10"/>
<path d="M6.88138 14.5107L-1.30859 17.5207" stroke="#5E5E5A" stroke-width="0.3" stroke-miterlimit="10"/>
<path d="M6.88138 16.3906L-1.30859 19.4006" stroke="#5E5E5A" stroke-width="0.3" stroke-miterlimit="10"/>
</g>
</svg>
