<svg width="7" height="21" viewBox="0 0 7 21" fill="none" xmlns="http://www.w3.org/2000/svg">
<path d="M2.99063 20.1201H3.43063C4.15063 20.1201 4.76064 19.7301 4.81064 19.2301L6.02063 0.330078H0.390625L1.60062 19.2301C1.65062 19.7301 2.27062 20.1201 2.98062 20.1201H2.99063Z" fill="#DDDDDD" stroke="#5E5E5A" stroke-width="0.15" stroke-miterlimit="10"/>
<mask id="mask0_227_1632" style="mask-type:luminance" maskUnits="userSpaceOnUse" x="0" y="0" width="7" height="21">
<path d="M2.99063 20.1201H3.43063C4.15063 20.1201 4.76064 19.7301 4.81064 19.2301L6.02063 0.330078H0.390625L1.60062 19.2301C1.65062 19.7301 2.27062 20.1201 2.98062 20.1201H2.99063Z" fill="white"/>
</mask>
<g mask="url(#mask0_227_1632)">
<path d="M-1.32812 0.799805L7.75189 4.2498" stroke="#5E5E5A" stroke-width="0.3" stroke-miterlimit="10"/>
<path d="M-1.32812 2.83008L7.75189 6.27008" stroke="#5E5E5A" stroke-width="0.3" stroke-miterlimit="10"/>
<path d="M-1.32812 4.85938L7.75189 8.29938" stroke="#5E5E5A" stroke-width="0.3" stroke-miterlimit="10"/>
<path d="M-1.32812 6.87988L7.75189 10.3299" stroke="#5E5E5A" stroke-width="0.3" stroke-miterlimit="10"/>
<path d="M-1.32812 8.91016L7.75189 12.3502" stroke="#5E5E5A" stroke-width="0.3" stroke-miterlimit="10"/>
<path d="M-1.32812 10.9297L7.75189 14.3797" stroke="#5E5E5A" stroke-width="0.3" stroke-miterlimit="10"/>
<path d="M-1.32812 12.96L7.75189 16.4" stroke="#5E5E5A" stroke-width="0.3" stroke-miterlimit="10"/>
<path d="M-1.32812 14.9902L7.75189 18.4302" stroke="#5E5E5A" stroke-width="0.3" stroke-miterlimit="10"/>
<path d="M-1.32812 17.0098L7.75189 20.4598" stroke="#5E5E5A" stroke-width="0.3" stroke-miterlimit="10"/>
</g>
</svg>
