<svg width="5" height="14" viewBox="0 0 5 14" fill="none" xmlns="http://www.w3.org/2000/svg">
<path d="M2.29031 0.810547H2.58031C3.06031 0.810547 3.47031 1.07055 3.50031 1.40055L4.31032 13.5005H0.570312L1.38032 1.40055C1.41032 1.07055 1.82032 0.810547 2.30032 0.810547H2.29031Z" fill="#DDDDDD" stroke="#5E5E5A" stroke-width="0.15" stroke-miterlimit="10"/>
<mask id="mask0_227_1964" style="mask-type:luminance" maskUnits="userSpaceOnUse" x="0" y="0" width="5" height="14">
<path d="M2.29031 0.810547H2.58031C3.06031 0.810547 3.47031 1.07055 3.50031 1.40055L4.31032 13.5005H0.570312L1.38032 1.40055C1.41032 1.07055 1.82032 0.810547 2.30032 0.810547H2.29031Z" fill="white"/>
</mask>
<g mask="url(#mask0_227_1964)">
<path d="M4.89875 13.2108L-0.03125 11.3408" stroke="#5E5E5A" stroke-width="0.3" stroke-miterlimit="10"/>
<path d="M4.89875 11.7811L-0.03125 9.91113" stroke="#5E5E5A" stroke-width="0.3" stroke-miterlimit="10"/>
<path d="M4.89875 10.3405L-0.03125 8.48047" stroke="#5E5E5A" stroke-width="0.3" stroke-miterlimit="10"/>
<path d="M4.89875 8.91101L-0.03125 7.04102" stroke="#5E5E5A" stroke-width="0.3" stroke-miterlimit="10"/>
<path d="M4.89875 7.48133L-0.03125 5.61133" stroke="#5E5E5A" stroke-width="0.3" stroke-miterlimit="10"/>
<path d="M4.89875 6.04066L-0.03125 4.18066" stroke="#5E5E5A" stroke-width="0.3" stroke-miterlimit="10"/>
<path d="M4.89875 4.61121L-0.03125 2.74121" stroke="#5E5E5A" stroke-width="0.3" stroke-miterlimit="10"/>
<path d="M4.89875 3.18055L-0.03125 1.31055" stroke="#5E5E5A" stroke-width="0.3" stroke-miterlimit="10"/>
<path d="M4.89875 1.74086L-0.03125 -0.119141" stroke="#5E5E5A" stroke-width="0.3" stroke-miterlimit="10"/>
</g>
</svg>
