<svg width="4" height="12" viewBox="0 0 4 12" fill="none" xmlns="http://www.w3.org/2000/svg">
<path d="M2.58078 11.29H2.36078C2.00078 11.29 1.69078 11.1 1.66078 10.84L1.05078 0.459961H3.88078L3.27078 10.84C3.24078 11.09 2.93078 11.29 2.57078 11.29H2.58078Z" fill="#DDDDDD" stroke="#5E5E5A" stroke-width="0.15" stroke-miterlimit="10"/>
<mask id="mask0_227_1883" style="mask-type:luminance" maskUnits="userSpaceOnUse" x="1" y="0" width="3" height="12">
<path d="M2.58078 11.29H2.36078C2.00078 11.29 1.69078 11.1 1.66078 10.84L1.05078 0.459961H3.88078L3.27078 10.84C3.24078 11.09 2.93078 11.29 2.57078 11.29H2.58078Z" fill="white"/>
</mask>
<g mask="url(#mask0_227_1883)">
<path d="M4.97922 2.62973L-0.0507812 0.719727" stroke="#5E5E5A" stroke-width="0.3" stroke-miterlimit="10"/>
<path d="M4.97922 3.74984L-0.0507812 1.83984" stroke="#5E5E5A" stroke-width="0.3" stroke-miterlimit="10"/>
<path d="M4.97922 4.87973L-0.0507812 2.96973" stroke="#5E5E5A" stroke-width="0.3" stroke-miterlimit="10"/>
<path d="M4.97922 5.9996L-0.0507812 4.09961" stroke="#5E5E5A" stroke-width="0.3" stroke-miterlimit="10"/>
<path d="M4.97922 7.12973L-0.0507812 5.21973" stroke="#5E5E5A" stroke-width="0.3" stroke-miterlimit="10"/>
<path d="M4.97922 8.25961L-0.0507812 6.34961" stroke="#5E5E5A" stroke-width="0.3" stroke-miterlimit="10"/>
<path d="M4.97922 9.37973L-0.0507812 7.46973" stroke="#5E5E5A" stroke-width="0.3" stroke-miterlimit="10"/>
<path d="M4.97922 10.5096L-0.0507812 8.59961" stroke="#5E5E5A" stroke-width="0.3" stroke-miterlimit="10"/>
<path d="M4.97922 11.6297L-0.0507812 9.71973" stroke="#5E5E5A" stroke-width="0.3" stroke-miterlimit="10"/>
</g>
</svg>
