<svg width="10" height="28" viewBox="0 0 10 28" fill="none" xmlns="http://www.w3.org/2000/svg">
<path d="M1.13501 19.9998C1.71501 18.3498 2.45501 14.9898 2.19501 12.1598C1.93501 9.28977 3.095 3.84976 3.965 1.72976C4.285 0.949765 4.685 0.509766 5.065 0.509766C5.715 0.509766 6.275 1.73977 6.565 3.78977C6.845 5.77977 7.23499 7.29976 7.58499 8.63976C7.92499 9.95976 8.21499 11.0998 8.33499 12.3598C8.45499 13.6898 8.675 15.0398 8.875 16.3498C9.065 17.5498 9.26501 18.7998 9.38501 20.0098H1.125L1.13501 19.9998Z" fill="#F4DE9C"/>
<path d="M5.07346 0.579687C5.54346 0.579687 6.16345 1.41969 6.50345 3.78969C6.78345 5.77969 7.18344 7.30969 7.52344 8.64969C7.86344 9.95969 8.15344 11.0997 8.27344 12.3597C8.39344 13.6897 8.61345 15.0497 8.81345 16.3597C9.00345 17.5297 9.19345 18.7497 9.31345 19.9297H1.23346C1.80346 18.2397 2.51346 14.9397 2.26346 12.1597C2.01346 9.29969 3.16345 3.87969 4.03345 1.75969C4.34345 1.00969 4.71346 0.579687 5.07346 0.579687ZM5.07346 0.429688C4.65346 0.429688 4.23344 0.889687 3.90344 1.69969C3.07344 3.71969 1.86344 9.16969 2.12344 12.1697C2.39344 15.1697 1.54344 18.6497 1.02344 20.0797H9.47345C9.22345 17.5297 8.65345 14.9297 8.41345 12.3497C8.17345 9.76969 7.20346 7.68969 6.64346 3.76969C6.31346 1.42969 5.69345 0.429688 5.06345 0.429688H5.07346Z" fill="#5E5E5A"/>
<path d="M6.16054 27.2195C5.87054 27.2195 5.59053 27.1995 5.31053 27.1795C5.05053 27.1595 4.80053 27.1395 4.56053 27.1395C4.45053 27.1395 4.34055 27.1395 4.23055 27.1595C4.07055 27.1795 3.92053 27.1795 3.77053 27.1795C2.84053 27.1795 2.15054 26.8995 1.78054 26.7495C1.67054 26.7095 1.60053 26.6795 1.55053 26.6695C0.790525 26.4995 0.440543 25.1995 0.600543 23.0995C0.810543 20.2695 1.78054 17.4495 2.35054 17.4095C2.94054 17.3695 3.39054 16.7695 3.82054 16.1895C4.26054 15.5895 4.72054 14.9795 5.32054 14.9795C6.07054 14.9795 6.98052 15.9295 8.11052 17.8795C8.39052 18.3695 8.63054 18.6095 8.85054 18.8295C9.25054 19.2395 9.52055 19.5095 9.67055 21.1695C9.94055 24.1695 9.75053 26.3995 9.21053 26.5795C8.91053 26.6795 8.60053 26.7395 8.30053 26.7995C7.97053 26.8595 7.66053 26.9295 7.37053 27.0295C7.01053 27.1595 6.63054 27.2195 6.16054 27.2195Z" fill="white"/>
<path d="M5.31173 15.0496C6.03173 15.0496 6.92174 15.9896 8.04174 17.9196C8.33174 18.4196 8.58174 18.6796 8.79174 18.8896C9.18174 19.2896 9.44173 19.5496 9.59173 21.1796C9.89173 24.4896 9.61173 26.3696 9.18173 26.5096C8.88173 26.6096 8.58173 26.6696 8.28173 26.7296C7.95173 26.7996 7.64173 26.8597 7.34173 26.9697C6.99173 27.0997 6.62174 27.1596 6.16174 27.1596C5.88174 27.1596 5.59174 27.1396 5.32174 27.1196C5.06174 27.0996 4.81174 27.0797 4.57174 27.0797C4.45174 27.0797 4.34175 27.0796 4.23175 27.0996C4.07175 27.1196 3.92173 27.1196 3.78173 27.1196C2.86173 27.1196 2.18173 26.8496 1.81173 26.6996C1.70173 26.6596 1.62174 26.6196 1.57174 26.6096C0.851743 26.4396 0.521728 25.1696 0.681728 23.1196C0.901728 20.2696 1.88172 17.5396 2.36172 17.4996C2.99172 17.4496 3.44174 16.8396 3.88174 16.2496C4.31174 15.6696 4.76174 15.0696 5.32174 15.0696M5.31173 14.8996C4.07173 14.8996 3.49173 17.2496 2.34173 17.3296C1.20173 17.4096 -0.718265 26.2196 1.53173 26.7296C1.74173 26.7796 2.56172 27.2397 3.77172 27.2397C3.92172 27.2397 4.08173 27.2397 4.24173 27.2197C4.34173 27.2097 4.45173 27.2096 4.56173 27.2096C5.05173 27.2096 5.59173 27.2896 6.15173 27.2896C6.56173 27.2896 6.97175 27.2496 7.39175 27.0896C7.95175 26.8796 8.60175 26.8496 9.23175 26.6396C9.92175 26.4096 9.97173 23.6897 9.74173 21.1497C9.51173 18.6097 9.00175 19.2596 8.17175 17.8296C6.88175 15.6096 6.00173 14.8896 5.31173 14.8896V14.8996Z" fill="#5E5E5A"/>
<mask id="mask0_229_1967" style="mask-type:luminance" maskUnits="userSpaceOnUse" x="0" y="14" width="10" height="14">
<path d="M1.5303 26.7298C1.7603 26.7898 2.78029 27.3598 4.24029 27.2198C5.15029 27.1298 6.28031 27.4998 7.39031 27.0898C7.95031 26.8798 8.60031 26.8498 9.23031 26.6398C9.92031 26.4098 9.97029 23.6898 9.74029 21.1498C9.51029 18.6098 9.00031 19.2598 8.17031 17.8298C4.55031 11.5998 4.1303 17.1898 2.3403 17.3198C1.2003 17.3998 -0.329702 26.2798 1.5303 26.7198V26.7298Z" fill="white"/>
</mask>
<g mask="url(#mask0_229_1967)">
<path opacity="0.75" d="M-1.12796 23.5601C-1.12796 23.5601 2.13205 24.3601 2.13205 22.0901C2.13205 19.3501 -1.16797 20.2201 -1.16797 20.2201L-1.12796 23.5701V23.5601Z" fill="#E62C2F" stroke="#E62C2F" stroke-width="0.5" stroke-linecap="round" stroke-linejoin="round"/>
</g>
</svg>
