<svg width="8" height="27" viewBox="0 0 8 27" fill="none" xmlns="http://www.w3.org/2000/svg">
<path d="M0.230469 19.1404C0.580469 17.3304 0.65047 15.5004 0.70047 13.8904C0.75047 12.5104 0.790458 11.3204 1.00046 10.4404C1.47046 8.43035 2.20047 3.64035 2.07047 2.46035C2.00047 1.83035 2.16045 0.870352 2.49045 0.500352C2.57045 0.410352 2.67047 0.360352 2.76047 0.360352C2.96047 0.360352 3.31047 0.570352 3.79047 1.58035C4.70047 3.50035 5.17047 5.67035 5.54047 7.42035C5.71047 8.22035 5.86046 8.92035 6.03046 9.49035C6.59046 11.4004 7.44047 15.5304 7.51047 19.1404H0.230469Z" fill="#F4DE9C"/>
<path d="M2.76062 0.440039C2.88062 0.440039 3.21061 0.55004 3.72061 1.61004C4.63061 3.52004 5.09061 5.69004 5.47061 7.43004C5.64061 8.23004 5.7906 8.93004 5.9606 9.51004C6.5106 11.4 7.35061 15.48 7.44061 19.07H0.330597C0.670597 17.28 0.730609 15.49 0.780609 13.9C0.830609 12.53 0.870618 11.34 1.07062 10.47C1.55062 8.46004 2.27062 3.65004 2.14062 2.47004C2.07062 1.86004 2.23062 0.910039 2.54062 0.570039C2.61062 0.490039 2.68062 0.450039 2.76062 0.450039M2.76062 0.290039C2.18062 0.290039 1.9106 1.68004 1.9906 2.48004C2.1206 3.68004 1.38062 8.48004 0.920624 10.43C0.460624 12.38 0.810625 15.84 0.140625 19.22H7.59061C7.52061 15.56 6.64062 11.33 6.10062 9.47004C5.56062 7.61004 5.18062 4.33004 3.85062 1.55004C3.41062 0.630038 3.05062 0.290039 2.76062 0.290039Z" fill="#5E5E5A"/>
<path d="M6.00945 26.2203C5.74945 26.2203 5.44946 26.1203 5.13946 25.9203C4.63946 25.6103 4.21943 25.4603 3.82943 25.4603C3.57943 25.4603 3.34946 25.5203 3.13946 25.5803C2.92946 25.6403 2.69944 25.7003 2.43944 25.7003C2.02944 25.7003 1.57945 25.5503 1.03945 25.2403C0.22945 24.7703 0.209453 22.5103 0.199453 20.8603C0.199453 20.5203 0.199444 20.2003 0.189444 19.9103C0.149444 18.5803 0.729444 17.1503 1.68944 16.1603C2.36944 15.4603 3.17945 15.0703 3.94945 15.0703C4.88945 15.0703 5.77945 15.6303 6.50945 16.7003L6.66945 16.9303C7.41945 18.0103 7.75945 18.5003 7.75945 21.4403C7.75945 23.6203 7.39944 25.2403 6.74944 25.8903C6.53944 26.1103 6.28945 26.2203 6.00945 26.2203Z" fill="white"/>
<path d="M3.94131 15.15C4.86131 15.15 5.72131 15.7 6.44131 16.75L6.60131 16.98C7.34131 18.04 7.6713 18.53 7.6813 21.45C7.6813 23.61 7.33131 25.21 6.69131 25.85C6.49131 26.05 6.26131 26.15 6.01131 26.15C5.76131 26.15 5.4813 26.05 5.1813 25.86C4.6713 25.54 4.24129 25.39 3.83129 25.39C3.56129 25.39 3.3413 25.45 3.1213 25.51C2.9013 25.57 2.69131 25.63 2.44131 25.63C2.04131 25.63 1.61131 25.49 1.07131 25.18C0.291312 24.73 0.281293 22.5 0.271293 20.86C0.271293 20.52 0.271314 20.2 0.261314 19.91C0.221314 18.6 0.791295 17.19 1.74129 16.22C2.41129 15.53 3.19132 15.15 3.95132 15.15M3.94131 15C1.90131 15 0.0412897 17.53 0.11129 19.91C0.16129 21.67 -0.0186957 24.71 1.0013 25.3C1.6313 25.67 2.08131 25.77 2.44131 25.77C2.98131 25.77 3.33129 25.53 3.83129 25.53C4.16129 25.53 4.55131 25.63 5.10131 25.98C5.44131 26.19 5.74131 26.29 6.01131 26.29C7.30131 26.29 7.83129 24.07 7.83129 21.44C7.83129 18.27 7.42131 17.9 6.57131 16.66C5.76131 15.48 4.84132 15 3.95132 15H3.94131Z" fill="#5E5E5A"/>
<mask id="mask0_229_1910" style="mask-type:luminance" maskUnits="userSpaceOnUse" x="0" y="14" width="8" height="13">
<path d="M0.950356 25.26C-0.0696439 24.67 0.220357 21.65 0.170357 19.89C0.0803573 16.47 3.84033 12.72 6.52033 16.62C7.37033 17.87 7.78034 18.23 7.78034 21.4C7.78034 24.57 7.01033 27.16 5.05033 25.94C3.10033 24.72 3.14036 26.52 0.950356 25.26Z" fill="white"/>
</mask>
<g mask="url(#mask0_229_1910)">
<path opacity="0.75" d="M-1.92096 22.9097C-1.92096 22.9097 1.33905 23.7097 1.33905 21.4397C1.33905 18.6997 -1.96094 19.5697 -1.96094 19.5697L-1.92096 22.9197V22.9097Z" fill="#E62C2F" stroke="#E62C2F" stroke-width="0.5" stroke-linecap="round" stroke-linejoin="round"/>
</g>
</svg>
