<svg width="10" height="33" viewBox="0 0 10 33" fill="none" xmlns="http://www.w3.org/2000/svg">
<path d="M1.84985 22.5303C2.28985 20.9503 2.29984 18.8203 2.30984 16.3803C2.30984 15.2603 2.31984 14.0803 2.36984 12.8903C2.52984 9.14027 3.02985 3.24027 3.56985 1.89027C3.78985 1.35027 4.07983 1.03027 4.35983 1.03027C4.77983 1.03027 5.10986 1.74027 5.25986 2.92027C5.46986 4.61027 6.01985 6.05027 6.59985 7.58027C6.84985 8.25027 7.10985 8.92027 7.34985 9.64027C7.71985 10.7603 7.75984 13.0603 7.79984 15.4903C7.83984 18.1103 7.88983 20.8303 8.32983 22.5403H1.83984L1.84985 22.5303Z" fill="#F4DE9C"/>
<path d="M4.37 1.09043C4.66 1.09043 5.03001 1.57043 5.20001 2.92043C5.41001 4.62043 5.95999 6.07043 6.54999 7.60043C6.79999 8.26043 7.05999 8.94043 7.29999 9.66043C7.66999 10.7704 7.69999 13.0604 7.73999 15.4804C7.77999 18.0604 7.82 20.7304 8.25 22.4604H1.95001C2.36001 20.8804 2.38001 18.7904 2.39001 16.3804C2.39001 15.2504 2.40001 14.0804 2.45001 12.8904C2.60001 9.24043 3.11999 3.24043 3.64999 1.91043C3.84999 1.41043 4.13 1.09043 4.37 1.09043ZM4.37 0.94043C4.06 0.94043 3.74001 1.27043 3.51001 1.85043C2.98001 3.18043 2.45999 9.06043 2.29999 12.8804C2.13999 16.7004 2.42 20.3004 1.75 22.6104H8.44C7.53 19.3304 8.20999 11.9604 7.42999 9.61043C6.65999 7.26043 5.64 5.32043 5.34 2.90043C5.17 1.52043 4.77 0.94043 4.37 0.94043Z" fill="#5E5E5A"/>
<path d="M6.09031 32.2198C5.31031 32.2198 4.56031 31.9398 3.93031 31.3998C3.37031 30.9198 2.86032 30.7498 2.41032 30.5998C1.68032 30.3498 1.1503 30.1698 0.830305 28.8098C0.470305 27.2998 1.03032 25.3998 1.44032 24.0198C1.58032 23.5498 1.70033 23.1398 1.76033 22.8198C2.00033 21.5898 3.80032 20.0898 5.03032 20.0898H5.14033C6.41033 20.1898 8.11033 21.2198 8.32033 22.0298C8.52033 22.7898 8.72032 23.4898 8.91032 24.1298C9.80032 27.1898 10.3303 29.0398 8.66032 30.9898C7.97032 31.7898 7.06031 32.2298 6.09031 32.2298V32.2198Z" fill="white"/>
<path d="M5.05169 20.15C5.05169 20.15 5.1217 20.15 5.1517 20.15C6.4017 20.24 8.06171 21.24 8.26171 22.03C8.46171 22.79 8.66171 23.47 8.85171 24.13C9.73171 27.17 10.2617 29 8.61169 30.92C7.94169 31.7 7.0417 32.14 6.0917 32.14C5.3317 32.14 4.60171 31.86 3.98171 31.34C3.41171 30.85 2.89171 30.68 2.44171 30.52C1.73171 30.28 1.22171 30.11 0.911707 28.78C0.551707 27.29 1.11169 25.4 1.52169 24.02C1.66169 23.54 1.78171 23.13 1.85171 22.81C2.07171 21.71 3.76169 20.14 5.05169 20.14M5.05169 20C3.74169 20 1.94172 21.58 1.70172 22.79C1.46172 24.04 0.271713 26.76 0.761713 28.82C1.30171 31.07 2.42171 30.21 3.88171 31.45C4.54171 32.01 5.31169 32.29 6.08169 32.29C7.03169 32.29 7.98169 31.87 8.71169 31.02C10.7717 28.62 9.54172 26.35 8.39172 21.99C8.17172 21.15 6.46172 20.1 5.14172 20C5.10172 20 5.0717 20 5.0317 20H5.05169Z" fill="#5E5E5A"/>
<mask id="mask0_229_1898" style="mask-type:luminance" maskUnits="userSpaceOnUse" x="0" y="19" width="10" height="14">
<path d="M0.759859 28.8207C0.269859 26.7707 1.53986 24.0307 1.78986 22.7807C2.02986 21.5307 3.83985 19.9107 5.15985 20.0007C6.47985 20.1007 8.18985 21.1507 8.40985 21.9907C9.54985 26.3507 10.7899 28.6207 8.72986 31.0207C7.40986 32.5507 5.35984 32.7007 3.89984 31.4507C2.43984 30.2007 1.30985 31.0707 0.779848 28.8207H0.759859Z" fill="white"/>
</mask>
<g mask="url(#mask0_229_1898)">
<path opacity="0.75" d="M-1.44922 27.7406C-1.00922 27.7906 2.18079 28.7106 2.18079 26.2206C2.18079 23.4606 -1.3992 24.3806 -1.3992 24.3806L-1.43921 27.7406H-1.44922Z" fill="#E62C2F" stroke="#E62C2F" stroke-width="0.5" stroke-linecap="round" stroke-linejoin="round"/>
</g>
</svg>
