<svg width="11" height="29" viewBox="0 0 11 29" fill="none" xmlns="http://www.w3.org/2000/svg">
<path d="M6.48869 5.90973C6.28869 3.09973 6.09869 0.969727 6.57869 0.969727C8.25869 0.969727 9.23869 7.08973 9.29869 7.80973C9.40869 9.23973 9.4287 11.0797 9.4687 12.3397C9.5987 16.2097 9.85869 18.9197 9.85869 18.9197C8.51869 15.8397 7.97869 13.2597 7.73869 11.4797C7.62869 10.6897 7.14869 8.41973 6.48869 5.89973V5.90973Z" fill="#EDD091" stroke="#5E5E5A" stroke-width="0.15" stroke-linecap="round" stroke-linejoin="round"/>
<path d="M9.85062 18.9299L6.14062 18.8799L9.85062 18.9299Z" fill="#EDD091" stroke="#5E5E5A" stroke-width="0.15" stroke-linecap="round" stroke-linejoin="round"/>
<path d="M9.85172 18.9297L1.26172 18.8197C1.26172 18.8197 3.2517 10.8597 3.4017 2.60973C3.4017 2.21973 3.72171 0.969727 4.31171 0.969727C5.01171 0.969727 5.3617 1.98973 5.4917 2.40973C6.6217 6.01973 7.57172 10.3397 7.73172 11.4897C7.97172 13.2697 8.51172 15.8497 9.85172 18.9297Z" fill="#F4DE9C" stroke="#5E5E5A" stroke-width="0.15" stroke-linecap="round" stroke-linejoin="round"/>
<path d="M0.21875 24.2097C0.21875 22.2597 0.808741 19.2197 1.92874 17.9097C2.66874 17.0397 4.26874 16.2497 5.48874 16.4197C6.70874 16.5897 7.14874 17.9997 8.07874 17.9597C8.99874 17.9197 9.83875 17.7197 10.0287 19.4697C10.2287 21.2297 10.6188 21.3697 10.7888 22.4997C10.9588 23.6197 11.3487 24.5797 9.24875 25.4197C7.14875 26.2597 6.62874 28.7997 4.76874 28.2397C2.89874 27.6797 3.14874 26.6097 1.82874 26.1197C0.508735 25.6297 0.21875 24.9497 0.21875 24.2197V24.2097Z" fill="white" stroke="#5E5E5A" stroke-width="0.15" stroke-linecap="round" stroke-linejoin="round"/>
<mask id="mask0_229_2132" style="mask-type:luminance" maskUnits="userSpaceOnUse" x="0" y="16" width="11" height="13">
<path d="M0.21875 24.2099C0.21875 22.2599 1.19874 18.7899 1.92874 17.9099C2.65874 17.0299 4.26874 16.2499 5.48874 16.4199C6.70874 16.5899 7.14874 17.9999 8.07874 17.9599C8.99874 17.9199 9.83875 17.7199 10.0287 19.4699C10.2287 21.2299 10.6188 21.3699 10.7888 22.4999C10.9588 23.6199 11.3487 24.5799 9.24875 25.4199C7.14875 26.2599 6.62874 28.8 4.76874 28.24C2.89874 27.68 3.14874 26.6099 1.82874 26.1199C0.508735 25.6299 0.21875 24.9499 0.21875 24.2199V24.2099Z" fill="white"/>
</mask>
<g mask="url(#mask0_229_2132)">
<path opacity="0.75" d="M-1.67188 23.4896C-1.67188 23.4896 2.10812 24.0796 2.10812 21.6896C2.10812 18.9096 -1.59186 19.5096 -1.59186 19.5096L-1.67188 23.4896Z" fill="#E62C2F" stroke="#E62C2F" stroke-width="0.5" stroke-linecap="round" stroke-linejoin="round"/>
</g>
</svg>
