<svg width="10" height="27" viewBox="0 0 10 27" fill="none" xmlns="http://www.w3.org/2000/svg">
<path d="M1.32031 17.8305C2.90031 14.2005 3.51032 12.4005 3.23032 9.47055C2.98032 6.81055 3.4803 4.14055 4.6503 1.96055C5.0403 1.23055 5.4803 0.810547 5.8403 0.810547C5.9703 0.810547 6.09031 0.870546 6.19031 0.980546C6.50031 1.32055 6.61031 2.12055 6.50031 3.16055C6.33031 4.72055 6.78031 5.64055 7.26031 6.62055C7.62031 7.35055 7.99032 8.11055 8.17032 9.22055C8.80032 13.3105 9.13032 16.2005 9.14032 17.8205H1.32031V17.8305Z" fill="#F4DE9C"/>
<path d="M5.8392 0.890235C5.9492 0.890235 6.04921 0.940235 6.12921 1.03024C6.41921 1.36024 6.52922 2.13023 6.41922 3.15023C6.24922 4.73023 6.70921 5.66023 7.18921 6.65023C7.54921 7.38023 7.9192 8.13023 8.0892 9.23023C8.7092 13.2502 9.0392 16.1102 9.0592 17.7502H1.4292C2.9792 14.1802 3.57919 12.3902 3.29919 9.46023C3.04919 6.81023 3.5492 4.16023 4.7092 1.99023C5.0792 1.29023 5.49919 0.880235 5.82919 0.880235M5.8392 0.740234C5.4692 0.740234 5.00919 1.13023 4.57919 1.93023C3.51919 3.91023 2.8692 6.55023 3.1492 9.48023C3.4292 12.4102 2.83922 14.1302 1.19922 17.9102H9.2092C9.2092 15.7802 8.63922 11.8502 8.22922 9.22023C7.81922 6.59023 6.2692 5.86023 6.5592 3.18023C6.7292 1.58023 6.36919 0.750235 5.82919 0.750235L5.8392 0.740234Z" fill="#5E5E5A"/>
<path d="M4.97906 26.2206C4.24906 26.2206 3.58906 25.9806 3.47906 25.6706C3.34906 25.3006 2.87906 25.1606 2.38906 25.0106C1.87906 24.8506 1.35904 24.6906 1.11904 24.2906C0.859043 23.8406 0.449046 19.8506 1.27905 17.9706C1.49905 17.4706 1.79904 17.1706 2.14904 17.1006C2.66904 16.9906 2.91904 16.6406 3.29904 16.1206C3.48904 15.8606 3.71905 15.5506 4.02905 15.2006C4.21905 14.9906 4.41905 14.8906 4.65905 14.8906C5.36905 14.8906 6.16905 15.7806 6.59905 16.2506L6.70904 16.3706C6.98904 16.6706 7.37906 16.6906 7.72906 16.6906H8.14904C8.43904 16.6906 8.73905 16.7106 8.96905 16.8606C9.54905 17.2606 9.24905 21.5506 8.93905 22.7406C8.77905 23.3406 8.32904 23.7506 7.83904 24.1806C7.42904 24.5406 7.00906 24.9206 6.69906 25.4606C6.41906 25.9306 5.77906 26.2206 4.97906 26.2206Z" fill="white"/>
<path d="M4.6601 14.9605C5.3301 14.9605 6.12009 15.8305 6.55009 16.3005L6.6601 16.4205C6.9401 16.7305 7.34009 16.7705 7.74009 16.7705H7.95011H8.1601C8.4401 16.7705 8.7201 16.7905 8.9401 16.9405C9.4401 17.2905 9.21011 21.4805 8.88011 22.7405C8.73011 23.3205 8.3001 23.7005 7.8101 24.1405C7.4001 24.5105 6.97009 24.8905 6.65009 25.4305C6.39009 25.8805 5.77009 26.1505 4.99009 26.1505C4.21009 26.1505 3.6501 25.8905 3.5601 25.6505C3.4201 25.2505 2.93011 25.1005 2.42011 24.9405C1.93011 24.7905 1.4101 24.6305 1.1901 24.2605C0.940103 23.8305 0.550106 19.8305 1.35011 18.0105C1.56011 17.5305 1.84011 17.2505 2.17011 17.1805C2.72011 17.0605 2.9901 16.6905 3.3701 16.1705C3.5601 15.9005 3.7801 15.6005 4.0901 15.2505C4.2601 15.0605 4.45011 14.9705 4.67011 14.9705M4.6601 14.8105C4.4201 14.8105 4.1801 14.9105 3.9701 15.1405C3.0501 16.1705 2.88011 16.8605 2.13011 17.0205C0.170105 17.4305 0.700088 23.7205 1.05009 24.3205C1.54009 25.1505 3.1601 25.0005 3.4101 25.6905C3.5401 26.0405 4.24011 26.2905 4.98011 26.2905C5.72011 26.2905 6.43009 26.0705 6.77009 25.5005C7.45009 24.3305 8.72009 23.8905 9.02009 22.7705C9.31009 21.6505 9.65009 17.2505 9.02009 16.8105C8.78009 16.6405 8.4701 16.6205 8.1601 16.6205C8.0201 16.6205 7.88009 16.6205 7.74009 16.6205C7.37009 16.6205 7.0201 16.5805 6.7801 16.3205C6.3701 15.8705 5.48011 14.8105 4.67011 14.8105H4.6601Z" fill="#5E5E5A"/>
<mask id="mask0_229_1922" style="mask-type:luminance" maskUnits="userSpaceOnUse" x="0" y="14" width="10" height="13">
<path d="M1.04949 24.3298C1.53949 25.1598 3.1595 25.0098 3.4095 25.6998C3.6495 26.3798 6.07951 26.6798 6.75951 25.4998C7.43951 24.3298 8.70951 23.8898 9.00951 22.7698C9.29951 21.6498 9.63951 17.2498 9.00951 16.8098C8.37951 16.3698 7.30949 16.9098 6.76949 16.3198C6.22949 15.7298 4.8895 14.1198 3.9695 15.1498C3.0495 16.1798 2.8895 16.9098 2.1295 17.0298C0.459504 17.2898 0.699487 23.7298 1.04949 24.3298Z" fill="white"/>
</mask>
<g mask="url(#mask0_229_1922)">
<path opacity="0.75" d="M-1.99907 22.4201C-1.99907 22.4201 2.06093 23.3601 2.16093 20.9401C2.29093 17.8301 -2.03906 18.6601 -2.03906 18.6601L-1.99907 22.4201Z" fill="#E62C2F" stroke="#E62C2F" stroke-width="0.2" stroke-linecap="round" stroke-linejoin="round"/>
</g>
</svg>
