<svg width="13" height="28" viewBox="0 0 13 28" fill="none" xmlns="http://www.w3.org/2000/svg">
<path d="M8.60953 2.18963C8.37953 -0.0903729 6.97953 0.499626 6.87953 2.40963C6.77953 4.31963 5.91953 8.09963 4.76953 11.8496L8.78952 12.3396C9.14952 10.9596 8.84953 4.46963 8.60953 2.18963Z" fill="#F4DE9C" stroke="#5E5E5A" stroke-width="0.15" stroke-miterlimit="10"/>
<path d="M1.75 17.9594C2.82 15.6094 3.32 15.7994 2.83 13.5494C2.34 11.2994 1.39 8.78937 2.88 5.01937C4.37 1.24937 6.65 -0.500635 6.23 2.16937C5.81 4.83937 5.15 7.67936 5.88 9.70936C6.61 11.7394 8.27 12.2194 8.8 9.88936C9.33 7.55936 9.36 5.85937 9.39 4.34937C9.42 2.84937 9.66 -0.230634 10.84 1.76937C12.01 3.76937 12.85 6.92937 12.43 11.0094C12.43 11.0094 11.47 16.1794 12.35 17.9694H1.75V17.9594Z" fill="#F4DE9C" stroke="#5E5E5A" stroke-width="0.15" stroke-linecap="round" stroke-linejoin="round"/>
<path d="M8.96889 27.2401C8.46889 27.2401 8.01888 27.0601 7.67888 26.7201C7.44888 26.4901 7.20889 26.3901 6.90889 26.3901C6.79889 26.3901 6.67889 26.4001 6.56889 26.4201C6.46889 26.4301 6.35889 26.4501 6.24889 26.4501C6.09889 26.4501 5.96889 26.4201 5.84889 26.3501C5.67889 26.2601 5.52888 26.1201 5.39888 25.9901C5.20888 25.8101 5.02889 25.6401 4.79889 25.6401C4.62889 25.6401 4.44889 25.7401 4.24889 25.9301C3.98889 26.1901 3.55889 26.3301 3.06889 26.3301C2.34889 26.3301 1.66888 26.0201 1.33888 25.5501C0.718882 24.6501 1.02888 19.3401 1.77888 17.9801C2.25888 17.1001 2.63888 16.9801 2.94888 16.9801C3.13888 16.9801 3.32888 17.0301 3.53888 17.0901C3.77888 17.1501 4.02888 17.2201 4.30888 17.2201C4.54888 17.2201 4.77889 17.1701 5.01889 17.0701C5.66889 16.7801 6.34889 16.6201 6.99889 16.6201C7.87889 16.6201 8.64889 16.9001 9.23889 17.4401C9.56889 17.7401 9.95888 17.8801 10.4489 17.8801C10.7589 17.8801 11.0689 17.8201 11.3389 17.7701C11.5689 17.7301 11.7689 17.6901 11.9489 17.6901C12.1889 17.6901 12.3189 17.7701 12.3889 17.9501C12.6889 18.7301 12.6189 21.2001 11.8989 24.2501C11.4089 26.3101 10.0789 27.2301 8.97888 27.2301L8.96889 27.2401Z" fill="white"/>
<path d="M6.9901 16.6998C7.8501 16.6998 8.60009 16.9798 9.18009 17.4998C9.52009 17.8098 9.9301 17.9598 10.4401 17.9598C10.7601 17.9598 11.0701 17.8998 11.3501 17.8498C11.5701 17.8098 11.7801 17.7698 11.9401 17.7698C12.1801 17.7698 12.2701 17.8498 12.3101 17.9798C12.6101 18.7498 12.5401 21.1998 11.8201 24.2398C11.3401 26.2598 10.0401 27.1598 8.9701 27.1598C8.4901 27.1598 8.06009 26.9898 7.73009 26.6598C7.48009 26.4198 7.2201 26.3098 6.9101 26.3098C6.7901 26.3098 6.68009 26.3198 6.56009 26.3398C6.46009 26.3498 6.3601 26.3698 6.2501 26.3698C6.1101 26.3698 6.0001 26.3398 5.8901 26.2798C5.7201 26.1898 5.59009 26.0598 5.45009 25.9398C5.25009 25.7498 5.0601 25.5698 4.8001 25.5698C4.6101 25.5698 4.41009 25.6698 4.20009 25.8898C3.96009 26.1298 3.5501 26.2698 3.0701 26.2698C2.3701 26.2698 1.72009 25.9798 1.40009 25.5198C0.790091 24.6298 1.10009 19.3798 1.84009 18.0298C2.30009 17.1898 2.6601 17.0698 2.9401 17.0698C3.1201 17.0698 3.31009 17.1198 3.51009 17.1698C3.74009 17.2298 4.0101 17.2998 4.3001 17.2998C4.5501 17.2998 4.80009 17.2498 5.04009 17.1398C5.68009 16.8498 6.3501 16.6998 6.9901 16.6998ZM6.9901 16.5498C6.3101 16.5498 5.62009 16.7198 4.98009 16.9998C4.74009 17.1098 4.5101 17.1498 4.3001 17.1498C3.7801 17.1498 3.3601 16.9098 2.9401 16.9098C2.5401 16.9098 2.15009 17.1198 1.70009 17.9498C0.930094 19.3498 0.630101 24.6698 1.2701 25.5998C1.6401 26.1398 2.38009 26.4198 3.06009 26.4198C3.55009 26.4198 4.0101 26.2798 4.3001 25.9898C4.5001 25.7898 4.6601 25.7198 4.8001 25.7198C5.1501 25.7198 5.3801 26.1798 5.8201 26.4198C5.9701 26.4998 6.1101 26.5198 6.2501 26.5198C6.4701 26.5198 6.6801 26.4598 6.9101 26.4598C7.1401 26.4598 7.3701 26.5198 7.6301 26.7698C8.0001 27.1298 8.48009 27.3098 8.98009 27.3098C10.1601 27.3098 11.5001 26.2998 11.9801 24.2798C12.6601 21.3998 12.8101 18.8098 12.4701 17.9298C12.3801 17.6998 12.2001 17.6298 11.9601 17.6298C11.5701 17.6298 11.0201 17.8198 10.4601 17.8198C10.0601 17.8198 9.6601 17.7198 9.3001 17.3998C8.6501 16.8098 7.85009 16.5598 7.01009 16.5598L6.9901 16.5498Z" fill="#5E5E5A"/>
<mask id="mask0_229_1949" style="mask-type:luminance" maskUnits="userSpaceOnUse" x="0" y="16" width="13" height="12">
<path d="M1.86083 17.9297C1.09083 19.3297 0.640833 24.6697 1.27083 25.5997C1.90083 26.5297 3.61083 26.6697 4.30083 25.9897C4.99083 25.3097 5.20083 26.0797 5.81083 26.4197C6.42083 26.7497 6.96082 26.1297 7.62082 26.7797C8.87082 27.9997 11.2808 27.1697 11.9708 24.2897C12.6508 21.4097 12.8008 18.8197 12.4608 17.9397C12.1208 17.0597 10.4608 18.4797 9.29082 17.3997C8.12082 16.3297 6.41083 16.3697 4.99083 17.0097C3.57083 17.6497 2.99082 15.8897 1.87082 17.9397L1.86083 17.9297Z" fill="white"/>
</mask>
<g mask="url(#mask0_229_1949)">
<path opacity="0.75" d="M-1.39015 22.9894C-1.39015 22.9894 2.63985 24.4794 2.63985 21.2994C2.63985 18.4794 -1.41016 19.5794 -1.41016 19.5794L-1.39015 22.9894Z" fill="#E62C2F" stroke="#E62C2F" stroke-width="0.2" stroke-linecap="round" stroke-linejoin="round"/>
</g>
</svg>
