<svg width="13" height="25" viewBox="0 0 13 25" fill="none" xmlns="http://www.w3.org/2000/svg">
<path d="M4.82812 10.2804C6.09812 7.01035 7.04813 3.85035 7.23813 2.22035C7.33813 1.37035 7.73813 0.860352 8.06813 0.860352C8.32813 0.860352 8.62812 1.19035 8.66812 2.13035C8.75812 4.13035 8.67813 9.63035 8.29813 10.9304L4.82812 10.2804Z" fill="#F4DE9C"/>
<path d="M8.06876 0.940039C8.28876 0.940039 8.55875 1.25004 8.59875 2.14004C8.67875 4.05004 8.59875 9.46004 8.24875 10.85L4.93875 10.23C6.19875 6.98004 7.12876 3.86004 7.31876 2.24004C7.41876 1.43004 7.77875 0.950039 8.07875 0.950039M8.06876 0.790039C7.68876 0.790039 7.26875 1.33004 7.15875 2.22004C6.95875 3.88004 5.97875 7.13004 4.71875 10.34L8.33875 11.02C8.73875 9.84004 8.81875 4.14004 8.73875 2.13004C8.69875 1.20004 8.39875 0.790039 8.05875 0.790039H8.06876Z" fill="#5E5E5A"/>
<path d="M1.31641 15.9801C2.11641 14.4901 2.0864 13.3501 2.0264 11.1401C2.0164 10.6301 1.9964 10.0701 1.9864 9.43012C1.9564 6.59012 3.3864 3.94012 4.2464 2.36012C4.4364 2.02012 4.5864 1.73012 4.6964 1.51012C4.9664 0.930117 5.4764 0.460115 5.8264 0.460115C5.9164 0.460115 5.9964 0.500116 6.0464 0.570116C6.1564 0.710116 6.2764 1.12012 5.9464 2.28012C4.7264 6.47012 4.6764 9.04012 5.8064 9.91012C6.0364 10.0901 6.2664 10.1801 6.4864 10.1801C7.3564 10.1801 7.9364 8.85012 8.4464 7.67012C8.5664 7.38012 8.6864 7.11012 8.8064 6.88012C9.4564 5.55012 9.99639 3.11012 9.72639 1.82012C9.61639 1.25012 9.7264 0.550116 9.9664 0.250116C10.0364 0.170116 10.1064 0.120117 10.1864 0.120117C10.3164 0.120117 10.6564 0.250117 11.0864 1.44012C11.7464 3.23012 11.9064 5.12012 12.0464 6.78012C12.1164 7.57012 12.1764 8.32012 12.2864 8.97012C12.6264 10.9501 12.6264 13.3001 12.2864 16.1501L1.3264 15.9901L1.31641 15.9801Z" fill="#F4DE9C"/>
<path d="M10.1775 0.180273C10.3575 0.180273 10.6675 0.510274 11.0075 1.45027C11.6575 3.23027 11.8175 5.11027 11.9575 6.77027C12.0275 7.56027 12.0875 8.31027 12.1975 8.97027C12.5375 10.9303 12.5375 13.2503 12.1975 16.0603L1.42749 15.9003C2.17749 14.4403 2.1475 13.3003 2.0975 11.1303C2.0875 10.6203 2.0675 10.0603 2.0575 9.42027C2.0275 6.60027 3.4575 3.96027 4.3075 2.38027C4.4875 2.04027 4.64749 1.75027 4.75749 1.52027C5.03749 0.920273 5.5375 0.510273 5.8175 0.510273C5.8875 0.510273 5.93749 0.540273 5.97749 0.590273C6.05749 0.700273 6.20749 1.07027 5.86749 2.23027C4.61749 6.52027 4.5875 9.04027 5.7475 9.94027C5.9875 10.1303 6.23749 10.2203 6.47749 10.2203C7.39749 10.2203 7.9875 8.86027 8.4975 7.66027C8.6175 7.37027 8.7375 7.10027 8.8575 6.87027C9.5175 5.53027 10.0475 3.06027 9.78749 1.76027C9.67749 1.22027 9.78749 0.540273 10.0075 0.260273C10.0575 0.190273 10.1175 0.160273 10.1675 0.160273M10.1775 0.0302734C9.73749 0.0302734 9.48749 1.04027 9.64749 1.81027C9.89749 3.05027 9.39749 5.46027 8.72749 6.83027C8.16749 7.98027 7.5175 10.0903 6.4875 10.0903C6.2875 10.0903 6.0775 10.0103 5.8475 9.84027C4.4275 8.74027 5.2175 5.05027 6.0175 2.29027C6.4275 0.890274 6.2075 0.370274 5.8275 0.370274C5.4575 0.370274 4.9175 0.850272 4.6275 1.46027C4.0475 2.71027 1.8775 5.93027 1.9175 9.42027C1.9575 12.9103 2.2375 14.1703 1.1875 16.0503L12.3375 16.2103C12.6875 13.3503 12.6975 10.9403 12.3475 8.94027C12.0075 6.94027 12.1275 4.07027 11.1475 1.40027C10.7775 0.400272 10.4375 0.0302734 10.1775 0.0302734Z" fill="#5E5E5A"/>
<path d="M8.75098 24.2197C7.78098 24.2197 6.78098 23.5596 6.06098 23.0696C5.69098 22.8196 5.40097 22.6297 5.18097 22.5597C5.08097 22.5297 4.97098 22.5196 4.86098 22.5196C4.64098 22.5196 4.41098 22.5696 4.17098 22.6196C3.88098 22.6796 3.56098 22.7596 3.20098 22.7596C2.70098 22.7596 2.20098 22.6197 1.69098 22.3297C1.17098 22.0397 0.800983 21.4596 0.610983 20.6796C0.230983 19.1496 0.610981 17.0797 1.53098 15.6497C2.51098 14.1197 3.86098 13.8896 4.58098 13.8896C5.11098 13.8896 5.64098 14.0096 6.00098 14.2196C6.54098 14.5296 7.08099 14.6796 7.66099 14.6796C8.20099 14.6796 8.69099 14.5596 9.16099 14.4396C9.58099 14.3296 9.98098 14.2296 10.371 14.2296C11.061 14.2296 11.611 14.5597 12.161 15.3097C13.001 16.4697 12.131 21.8397 10.171 23.6497C9.76098 24.0297 9.30098 24.2197 8.78098 24.2197H8.75098Z" fill="white"/>
<path d="M4.55921 13.9598C5.07921 13.9598 5.58921 14.0798 5.93921 14.2798C6.48921 14.5998 7.03921 14.7498 7.63921 14.7498C8.18921 14.7498 8.67921 14.6198 9.15921 14.4998C9.57921 14.3898 9.96922 14.2898 10.3492 14.2898C11.0192 14.2898 11.5492 14.6198 12.0692 15.3398C12.8892 16.4898 12.0292 21.7898 10.0892 23.5898C9.68921 23.9598 9.24921 24.1398 8.74921 24.1398C7.79921 24.1398 6.81922 23.4798 6.09922 22.9998C5.71922 22.7498 5.42921 22.5498 5.19921 22.4798C5.08921 22.4498 4.97921 22.4298 4.85921 22.4298C4.62921 22.4298 4.39921 22.4798 4.14921 22.5398C3.84921 22.6098 3.54921 22.6698 3.18921 22.6698C2.69921 22.6698 2.21921 22.5298 1.71921 22.2498C1.21921 21.9598 0.85921 21.4098 0.66921 20.6498C0.29921 19.1398 0.669213 17.0898 1.57921 15.6698C2.53921 14.1698 3.85921 13.9498 4.55921 13.9498M4.55921 13.8098C3.54921 13.8098 2.32921 14.2298 1.44921 15.5998C0.0392085 17.7998 -0.0607946 21.4098 1.64921 22.3898C2.24921 22.7298 2.74921 22.8298 3.19921 22.8298C3.87921 22.8298 4.39921 22.5898 4.86921 22.5898C4.96921 22.5898 5.06921 22.5998 5.16921 22.6298C5.78921 22.8098 7.27921 24.2898 8.75921 24.2898C9.24921 24.2898 9.73921 24.1298 10.1992 23.6998C12.1892 21.8598 13.0792 16.4798 12.1992 15.2598C11.5792 14.3898 10.9692 14.1398 10.3492 14.1398C9.50922 14.1398 8.63921 14.5898 7.63921 14.5898C7.13921 14.5898 6.59922 14.4798 6.01922 14.1398C5.69922 13.9498 5.16922 13.7998 4.56922 13.7998L4.55921 13.8098Z" fill="#5E5E5A"/>
<mask id="mask0_229_1934" style="mask-type:luminance" maskUnits="userSpaceOnUse" x="0" y="13" width="13" height="12">
<path d="M1.18923 16.05C0.139231 18.34 0.0192219 21.38 1.64922 22.38C3.31922 23.41 4.33923 22.38 5.16923 22.62C5.99923 22.86 8.42922 25.47 10.3992 23.39C12.0692 21.63 13.0792 16.46 12.1992 15.24C10.3092 12.62 8.66923 15.61 6.01923 14.13C4.86923 13.49 2.22922 13.79 1.19923 16.04L1.18923 16.05Z" fill="white"/>
</mask>
<g mask="url(#mask0_229_1934)">
<path opacity="0.75" d="M-2.06985 19.84C-2.06985 19.84 1.96016 21.33 1.96016 18.15C1.96016 15.33 -2.08984 16.43 -2.08984 16.43L-2.06985 19.84Z" fill="#E62C2F" stroke="#E62C2F" stroke-width="0.2" stroke-linecap="round" stroke-linejoin="round"/>
</g>
</svg>
