<svg width="9" height="27" viewBox="0 0 9 27" fill="none" xmlns="http://www.w3.org/2000/svg">
<path d="M0.628906 19.1696C0.708906 15.5596 1.55889 11.4296 2.10889 9.51965C2.27889 8.93965 2.42891 8.24965 2.59891 7.44965C2.97891 5.69965 3.43891 3.52965 4.34891 1.60965C4.82891 0.599649 5.16891 0.389648 5.37891 0.389648C5.47891 0.389648 5.5689 0.439648 5.6489 0.529648C5.9789 0.899648 6.13891 1.85965 6.06891 2.48965C5.93891 3.66965 6.66892 8.45965 7.13892 10.4696C7.34892 11.3496 7.3889 12.5396 7.4389 13.9196C7.4889 15.5296 7.55891 17.3596 7.90891 19.1696H0.628906Z" fill="#F4DE9C"/>
<path d="M5.3808 0.45957C5.4508 0.45957 5.5308 0.49957 5.6008 0.57957C5.9108 0.91957 6.07079 1.86957 6.00079 2.47957C5.87079 3.66957 6.6008 8.46957 7.0708 10.4796C7.2808 11.3496 7.32078 12.5396 7.36078 13.9096C7.41078 15.4996 7.47079 17.2896 7.81079 19.0796H0.700806C0.790806 15.4896 1.63079 11.4096 2.18079 9.51957C2.35079 8.93957 2.50081 8.24957 2.67081 7.43957C3.04081 5.69957 3.51081 3.52957 4.42081 1.61957C4.92081 0.559571 5.2608 0.44957 5.3808 0.44957M5.3808 0.30957C5.0908 0.30957 4.7208 0.64957 4.2908 1.56957C2.9708 4.34957 2.5908 7.62957 2.0408 9.48957C1.5008 11.3496 0.620781 15.5796 0.550781 19.2396H8.00079C7.32079 15.8596 7.68079 12.3996 7.22079 10.4496C6.76079 8.49957 6.02079 3.68957 6.15079 2.49957C6.24079 1.69957 5.9608 0.30957 5.3808 0.30957Z" fill="#5E5E5A"/>
<path d="M2.14062 26.2391C1.87062 26.2391 1.6206 26.1291 1.4006 25.9091C0.760604 25.2591 0.390625 23.6391 0.390625 21.4591C0.390625 18.5091 0.740621 18.0191 1.48062 16.9391L1.64062 16.7091C2.37063 15.6391 3.26062 15.0791 4.20062 15.0791C4.98062 15.0791 5.7806 15.4691 6.4606 16.1691C7.4206 17.1591 7.9906 18.5891 7.9606 19.9191C7.9606 20.2091 7.96062 20.5291 7.95062 20.8691C7.95062 22.5191 7.9306 24.7791 7.1106 25.2491C6.5606 25.5691 6.1106 25.7091 5.7106 25.7091C5.4506 25.7091 5.22062 25.6491 5.01062 25.5891C4.80062 25.5291 4.58062 25.4691 4.32062 25.4691C3.93062 25.4691 3.51062 25.6191 3.01062 25.9291C2.69062 26.1291 2.40062 26.2291 2.14062 26.2291V26.2391Z" fill="white"/>
<path d="M4.20032 15.1695C4.96032 15.1695 5.74031 15.5495 6.41031 16.2395C7.36031 17.2095 7.92032 18.6295 7.89032 19.9295C7.89032 20.2195 7.89031 20.5395 7.88031 20.8795C7.88031 22.5095 7.86029 24.7495 7.08029 25.1995C6.54029 25.5095 6.1103 25.6495 5.7103 25.6495C5.4603 25.6495 5.2503 25.5895 5.0303 25.5295C4.8103 25.4695 4.59031 25.4095 4.32031 25.4095C3.91031 25.4095 3.48031 25.5595 2.97031 25.8795C2.67031 26.0695 2.39032 26.1695 2.14032 26.1695C1.89032 26.1695 1.6603 26.0695 1.4603 25.8695C0.830297 25.2395 0.470306 23.6395 0.470306 21.4695C0.470306 18.5395 0.810293 18.0595 1.55029 16.9995L1.7103 16.7695C2.4303 15.7295 3.2903 15.1695 4.2103 15.1695M4.20032 15.0195C3.31032 15.0195 2.39029 15.4995 1.58029 16.6795C0.730292 17.9295 0.320312 18.2895 0.320312 21.4595C0.320312 24.0795 0.85032 26.3095 2.14032 26.3095C2.41032 26.3095 2.71029 26.2095 3.05029 25.9995C3.60029 25.6595 3.99031 25.5495 4.32031 25.5495C4.82031 25.5495 5.1703 25.7895 5.7103 25.7895C6.0703 25.7895 6.5203 25.6795 7.1503 25.3195C8.1703 24.7295 7.99031 21.6895 8.04031 19.9295C8.11031 17.5495 6.2503 15.0195 4.2103 15.0195H4.20032Z" fill="#5E5E5A"/>
<mask id="mask0_229_1812" style="mask-type:luminance" maskUnits="userSpaceOnUse" x="0" y="14" width="8" height="13">
<path d="M7.18939 25.2796C8.20939 24.6896 7.91939 21.6696 7.96939 19.9096C8.05939 16.4896 4.29938 12.7396 1.61938 16.6396C0.769385 17.8896 0.359375 18.2496 0.359375 21.4196C0.359375 24.5896 1.12939 27.1796 3.08939 25.9596C5.03939 24.7396 4.99939 26.5396 7.18939 25.2796Z" fill="white"/>
</mask>
<g mask="url(#mask0_229_1812)">
<path opacity="0.75" d="M-1.61234 19.5596C-1.61234 19.5596 1.64764 18.7596 1.64764 21.0296C1.64764 23.7696 -1.65234 22.8996 -1.65234 22.8996L-1.61234 19.5496V19.5596Z" fill="#E62C2F" stroke="#E62C2F" stroke-width="0.5" stroke-linecap="round" stroke-linejoin="round"/>
</g>
</svg>
