<svg width="11" height="29" viewBox="0 0 11 29" fill="none" xmlns="http://www.w3.org/2000/svg">
<path d="M4.56921 5.90973C4.76921 3.09973 4.95922 0.969727 4.47922 0.969727C2.79922 0.969727 1.81922 7.08973 1.75922 7.80973C1.64922 9.23973 1.6292 11.0797 1.5892 12.3397C1.4592 16.2097 1.19922 18.9197 1.19922 18.9197C2.53922 15.8397 3.07921 13.2597 3.31921 11.4797C3.42921 10.6897 3.90921 8.41973 4.56921 5.89973V5.90973Z" fill="#EDD091" stroke="#5E5E5A" stroke-width="0.15" stroke-linecap="round" stroke-linejoin="round"/>
<path d="M1.19922 18.9299L4.91922 18.8799L1.19922 18.9299Z" fill="#EDD091" stroke="#5E5E5A" stroke-width="0.15" stroke-linecap="round" stroke-linejoin="round"/>
<path d="M1.19922 18.9297L9.78922 18.8197C9.78922 18.8197 7.7992 10.8597 7.6492 2.60973C7.6492 2.21973 7.3292 0.969727 6.7392 0.969727C6.0392 0.969727 5.6892 1.98973 5.5592 2.40973C4.4292 6.01973 3.47921 10.3397 3.31921 11.4897C3.07921 13.2697 2.53922 15.8497 1.19922 18.9297Z" fill="#F4DE9C" stroke="#5E5E5A" stroke-width="0.15" stroke-linecap="round" stroke-linejoin="round"/>
<path d="M5.85993 28.271C5.11993 28.271 4.59994 27.701 3.99994 27.041C3.44994 26.431 2.82995 25.751 1.90995 25.381C0.0599451 24.641 0.199927 23.851 0.359927 22.851L0.409945 22.541C0.479945 22.071 0.589933 21.771 0.709933 21.451C0.869933 21.021 1.05995 20.531 1.16995 19.511C1.31995 18.151 1.86995 18.031 2.41995 18.031C2.54995 18.031 2.68993 18.031 2.82993 18.051L3.04993 18.061C3.55993 18.061 3.89993 17.731 4.26993 17.371C4.65993 16.991 5.05994 16.601 5.64994 16.521C5.75994 16.501 5.86993 16.501 5.98993 16.501C7.16993 16.501 8.51994 17.261 9.14994 17.991C10.2099 19.231 10.8399 22.141 10.8399 24.241C10.8399 24.861 10.6499 25.561 9.27994 26.071C8.66994 26.301 8.38994 26.641 8.08994 27.001C7.72994 27.441 7.35995 27.891 6.34995 28.191C6.17995 28.241 6.01993 28.271 5.85993 28.271Z" fill="white"/>
<path d="M6.00025 16.5709C7.16025 16.5709 8.49025 17.3109 9.10025 18.0309C10.1503 19.2609 10.7702 22.1509 10.7702 24.2309C10.7702 24.8209 10.5903 25.5009 9.26026 25.9909C8.63026 26.2209 8.33026 26.5909 8.04026 26.9409C7.69026 27.3709 7.32023 27.8109 6.33023 28.1109C6.16023 28.1609 6.01023 28.1809 5.86023 28.1809C5.16023 28.1809 4.65025 27.6209 4.06025 26.9709C3.51025 26.3609 2.88025 25.6709 1.94025 25.2909C0.15025 24.5709 0.28025 23.8109 0.44025 22.8509C0.46025 22.7509 0.480238 22.6409 0.490238 22.5409C0.560238 22.0809 0.670256 21.7809 0.790256 21.4709C0.950256 21.0309 1.14025 20.5409 1.25025 19.5109C1.39025 18.2109 1.89026 18.1009 2.42026 18.1009C2.55026 18.1009 2.69023 18.1009 2.83023 18.1209H3.05024L3.10025 18.1309C3.59025 18.1309 3.95025 17.7809 4.32025 17.4209C4.70025 17.0509 5.09025 16.6709 5.66025 16.5909C5.77025 16.5709 5.88024 16.5709 5.99024 16.5709M6.00025 16.4209C5.88025 16.4209 5.76024 16.4209 5.65024 16.4409C4.45024 16.6109 4.00025 17.9809 3.10025 17.9809C3.09025 17.9809 3.07025 17.9809 3.06025 17.9809C2.84025 17.9709 2.63024 17.9509 2.43024 17.9509C1.78024 17.9509 1.26023 18.1509 1.11023 19.4909C0.910233 21.2509 0.520254 21.3909 0.350254 22.5209C0.180254 23.6409 -0.209738 24.6009 1.89026 25.4409C3.79026 26.2009 4.39023 28.3409 5.86023 28.3409C6.02023 28.3409 6.19024 28.3109 6.37024 28.2609C8.24024 27.7009 7.99024 26.6309 9.31024 26.1409C10.6302 25.6509 10.9203 24.9709 10.9203 24.2409C10.9203 22.2909 10.3302 19.2509 9.21024 17.9409C8.54024 17.1509 7.16025 16.4209 6.00025 16.4209Z" fill="#5E5E5A"/>
<mask id="mask0_229_2131" style="mask-type:luminance" maskUnits="userSpaceOnUse" x="0" y="16" width="11" height="13">
<path d="M10.9203 24.2305C10.9203 22.2805 9.94024 18.8105 9.21024 17.9305C8.48024 17.0505 6.87024 16.2705 5.65024 16.4405C4.43024 16.6105 3.99025 18.0205 3.06025 17.9805C2.14025 17.9405 1.30023 17.7405 1.11023 19.4905C0.910233 21.2505 0.520254 21.3905 0.350254 22.5205C0.180254 23.6405 -0.209738 24.6005 1.89026 25.4405C3.99026 26.2805 4.51024 28.8205 6.37024 28.2605C8.24024 27.7005 7.99024 26.6305 9.31024 26.1405C10.6302 25.6505 10.9203 24.9705 10.9203 24.2405V24.2305Z" fill="white"/>
</mask>
<g mask="url(#mask0_229_2131)">
<path opacity="0.75" d="M7.62831 14.7207C7.62831 14.7207 8.21829 18.5007 5.82829 18.5007C3.04829 18.5007 3.6483 14.8007 3.6483 14.8007L7.62831 14.7207Z" fill="#E62C2F" stroke="#E62C2F" stroke-width="0.5" stroke-linecap="round" stroke-linejoin="round"/>
</g>
<path d="M10.9203 24.2302C10.9203 22.2802 10.3302 19.2402 9.21024 17.9302C8.47024 17.0602 6.87024 16.2702 5.65024 16.4402C4.43024 16.6102 3.99025 18.0202 3.06025 17.9802C2.14025 17.9402 1.30023 17.7402 1.11023 19.4902C0.910233 21.2502 0.520254 21.3902 0.350254 22.5202C0.180254 23.6402 -0.209738 24.6002 1.89026 25.4402C3.99026 26.2802 4.51024 28.8202 6.37024 28.2602C8.24024 27.7002 7.99024 26.6302 9.31024 26.1402C10.6302 25.6502 10.9203 24.9702 10.9203 24.2402V24.2302Z" fill="white" stroke="#5E5E5A" stroke-width="0.15" stroke-linecap="round" stroke-linejoin="round"/>
<mask id="mask1_229_2131" style="mask-type:luminance" maskUnits="userSpaceOnUse" x="0" y="16" width="11" height="13">
<path d="M10.9203 24.2305C10.9203 22.2805 9.94024 18.8105 9.21024 17.9305C8.48024 17.0505 6.87024 16.2705 5.65024 16.4405C4.43024 16.6105 3.99025 18.0205 3.06025 17.9805C2.14025 17.9405 1.30023 17.7405 1.11023 19.4905C0.910233 21.2505 0.520254 21.3905 0.350254 22.5205C0.180254 23.6405 -0.209738 24.6005 1.89026 25.4405C3.99026 26.2805 4.51024 28.8205 6.37024 28.2605C8.24024 27.7005 7.99024 26.6305 9.31024 26.1405C10.6302 25.6505 10.9203 24.9705 10.9203 24.2405V24.2305Z" fill="white"/>
</mask>
<g mask="url(#mask1_229_2131)">
<path opacity="0.75" d="M-1.67969 19.3203C-1.67969 19.3203 2.10031 18.7303 2.10031 21.1203C2.10031 23.9003 -1.5997 23.3003 -1.5997 23.3003L-1.67969 19.3203Z" fill="#E62C2F" stroke="#E62C2F" stroke-width="0.5" stroke-linecap="round" stroke-linejoin="round"/>
</g>
</svg>
