<svg width="9" height="25" viewBox="0 0 9 25" fill="none" xmlns="http://www.w3.org/2000/svg">
<path d="M4.23953 24.4102C4.08953 24.4102 3.78954 24.2502 3.46954 23.1502C2.50954 19.8202 2.04954 15.2802 1.89954 13.4802C1.69954 11.1902 1.13955 9.64015 0.759552 8.60015C0.659552 8.33015 0.579531 8.10016 0.519531 7.91016H7.83954C7.76954 8.50016 7.54954 9.40015 7.27954 10.5302C6.69954 12.9602 5.80956 16.6402 5.41956 21.0702C5.25956 22.9102 4.72953 24.4002 4.23953 24.4002V24.4102Z" fill="#F4DE9C"/>
<path d="M7.75797 8.00059C7.67797 8.58059 7.46795 9.46059 7.20795 10.5306C6.61795 12.9606 5.73796 16.6406 5.34796 21.0806C5.17796 23.0006 4.62795 24.3406 4.23795 24.3406C4.15795 24.3406 3.85796 24.2506 3.53796 23.1406C2.58796 19.8206 2.12796 15.2806 1.96796 13.4906C1.76796 11.1906 1.19794 9.63058 0.827942 8.59058C0.747942 8.37058 0.67795 8.17059 0.61795 8.00059H7.74796M7.92795 7.85059H0.417969C0.667969 8.76059 1.56794 10.5206 1.82794 13.5006C2.07794 16.4806 2.58795 20.3606 3.39795 23.1806C3.66795 24.1106 3.95795 24.4906 4.23795 24.4906C4.80795 24.4906 5.33796 22.9006 5.49796 21.0906C6.07796 14.4906 7.74795 9.63059 7.92795 7.85059Z" fill="#5E5E5A"/>
<path d="M4.00115 11.6305C2.97115 11.6305 0.831159 9.05051 0.421159 7.58051C-0.0288409 5.97051 0.641158 1.59051 1.20116 0.720512C1.44116 0.340512 2.00116 0.270508 2.42116 0.270508C3.20116 0.270508 4.12116 0.540515 4.39116 0.730515C4.46116 0.780515 4.55115 0.800514 4.66115 0.800514C4.87115 0.800514 5.12115 0.720514 5.41115 0.620514C5.76115 0.500514 6.16113 0.370514 6.55113 0.370514C6.74113 0.370514 6.91115 0.400512 7.07115 0.470512C8.43115 1.05051 8.19113 7.31051 7.61113 9.04051C7.46113 9.50051 5.14114 11.1805 4.18114 11.6005C4.13114 11.6205 4.07116 11.6305 4.01116 11.6305H4.00115Z" fill="white"/>
<path d="M2.41951 0.350197C3.24951 0.350197 4.11949 0.640199 4.33949 0.790199C4.41949 0.850199 4.52949 0.880196 4.64949 0.880196C4.86949 0.880196 5.11951 0.790201 5.41951 0.690201C5.76951 0.570201 6.15949 0.440201 6.52949 0.440201C6.70949 0.440201 6.86948 0.470197 7.01948 0.530197C8.30948 1.0802 8.06948 7.3302 7.51948 9.0002C7.36948 9.4402 5.0595 11.1102 4.1295 11.5202C4.0895 11.5402 4.03948 11.5502 3.98948 11.5502C3.07948 11.5502 0.909504 9.0902 0.479504 7.5602C0.0295043 5.9602 0.699503 1.6202 1.2595 0.760201C1.4895 0.410201 2.0095 0.340195 2.4095 0.340195M2.41951 0.200195C1.87951 0.200195 1.37951 0.330201 1.13951 0.690201C0.549508 1.6002 -0.110501 6.0002 0.349499 7.6102C0.769499 9.1202 2.9595 11.7102 4.0095 11.7102C4.0795 11.7102 4.14948 11.7002 4.20948 11.6702C5.13948 11.2602 7.50949 9.5702 7.67949 9.0602C8.24949 7.3602 8.5395 1.0202 7.0995 0.4002C6.9195 0.3202 6.72948 0.290199 6.54948 0.290199C5.83948 0.290199 5.09951 0.730202 4.66951 0.730202C4.57951 0.730202 4.5095 0.710197 4.4395 0.670197C4.1695 0.480197 3.24949 0.200195 2.42949 0.200195H2.41951Z" fill="#5E5E5A"/>
<mask id="mask0_229_1664" style="mask-type:luminance" maskUnits="userSpaceOnUse" x="0" y="0" width="9" height="12">
<path d="M7.08949 0.400613C6.08949 -0.0293874 4.87949 0.980609 4.42949 0.670609C3.97949 0.360609 1.72951 -0.219386 1.13951 0.690614C0.549508 1.60061 -0.110501 6.00061 0.349499 7.61061C0.799499 9.22061 3.27948 12.0806 4.20948 11.6706C5.13948 11.2606 7.50949 9.57061 7.67949 9.06061C8.24949 7.36061 8.5395 1.02061 7.0995 0.400613H7.08949Z" fill="white"/>
</mask>
<g mask="url(#mask0_229_1664)">
<path opacity="0.75" d="M-2.53906 4.05048C-2.53906 4.05048 1.59094 2.22048 1.59094 5.38048C1.59094 8.18048 -2.49905 6.68048 -2.49905 6.68048L-2.52905 4.05048H-2.53906Z" fill="#E62C2F" stroke="#E62C2F" stroke-width="0.5" stroke-linecap="round" stroke-linejoin="round"/>
</g>
</svg>
