<svg width="9" height="25" viewBox="0 0 9 25" fill="none" xmlns="http://www.w3.org/2000/svg">
<path d="M5.33844 24.52C5.20844 24.52 4.89845 24.37 4.37845 23.36C2.92845 20.56 2.31845 16.17 2.22845 13.27C2.15845 10.75 1.64845 9.22996 1.31845 8.21996C1.25845 8.02996 1.19844 7.85996 1.14844 7.70996H8.20844C7.64844 10.42 7.21846 12.39 6.69846 14.36L6.50845 15.04C6.07845 16.59 5.62844 18.2 5.80844 20.98C5.92844 22.78 5.80843 24.11 5.48843 24.45C5.43843 24.5 5.38843 24.53 5.32843 24.53L5.33844 24.52Z" fill="#F4DE9C"/>
<path d="M8.1286 7.78965C7.5786 10.4397 7.15861 12.3796 6.63861 14.3396C6.57861 14.5696 6.51861 14.7896 6.44861 15.0196C6.00861 16.5796 5.5586 18.1897 5.7486 20.9797C5.8686 22.7297 5.74861 24.0696 5.44861 24.3896C5.39861 24.4396 5.3686 24.4496 5.3486 24.4496C5.2786 24.4496 4.99859 24.3697 4.45859 23.3297C3.01859 20.5297 2.4086 16.1596 2.3186 13.2696C2.2486 10.7396 1.7386 9.20965 1.4086 8.19965C1.3586 8.04965 1.30859 7.90965 1.26859 7.77965H8.1286M8.30859 7.63965H1.05859C1.31859 8.57965 2.0686 10.1696 2.1586 13.2796C2.2486 16.3796 2.91859 20.6997 4.30859 23.4097C4.74859 24.2597 5.07858 24.6096 5.32858 24.6096C5.87858 24.6096 6.01861 22.9097 5.88861 20.9797C5.67861 17.8097 6.30859 16.1396 6.76859 14.3896C7.30859 12.3596 7.74858 10.3397 8.29858 7.64965L8.30859 7.63965Z" fill="#5E5E5A"/>
<path d="M4.44967 11.0899C3.54967 11.0899 2.62967 10.1999 1.88967 9.47993C1.34967 8.94993 1.22966 8.22992 1.06966 7.23992C0.969661 6.64992 0.869648 5.97993 0.649648 5.18993C-0.180352 2.17993 0.40964 1.92993 1.82964 1.32993C2.34964 1.10993 2.99965 0.839926 3.70965 0.369926C3.90965 0.229926 4.13967 0.169922 4.38967 0.169922C5.25967 0.169922 6.27965 0.949924 7.17965 1.67992C7.37965 1.84992 7.56966 1.98992 7.72966 2.10992C8.47966 2.68992 8.79966 2.92992 8.84966 4.02992C8.90966 5.31992 8.45965 7.83992 7.61965 8.66992C7.50965 8.77992 7.37964 8.91993 7.23964 9.07993C6.60964 9.75993 5.65966 10.7899 4.81966 11.0399C4.69966 11.0799 4.56967 11.0899 4.44967 11.0899Z" fill="white"/>
<path d="M4.39003 0.239845C5.23003 0.239845 6.25002 1.00985 7.13002 1.73985C7.33002 1.90985 7.52 2.04985 7.68 2.16985C8.42 2.72985 8.72 2.96985 8.77 4.02985C8.84 5.48985 8.32002 7.85985 7.57002 8.60985C7.46002 8.71985 7.33 8.85984 7.18 9.01984C6.56 9.68984 5.62002 10.7098 4.79002 10.9598C4.68002 10.9898 4.56001 11.0098 4.44001 11.0098C3.57001 11.0098 2.66002 10.1299 1.92002 9.40985C1.41002 8.90985 1.30003 8.20985 1.14003 7.22985C1.04003 6.63985 0.930012 5.95985 0.720012 5.16985C-0.0899876 2.21985 0.479997 1.97985 1.86 1.39985C2.38 1.17985 3.03001 0.909848 3.75001 0.429848C3.94001 0.299848 4.15003 0.239845 4.39003 0.239845ZM4.39003 0.0898438C4.13003 0.0898438 3.89001 0.159845 3.66001 0.309845C1.05001 2.04984 -0.589981 0.999846 0.570019 5.20985C1.16002 7.33985 0.960019 8.67984 1.82002 9.51984C2.58002 10.2598 3.51001 11.1698 4.44001 11.1698C4.57001 11.1698 4.70001 11.1498 4.84001 11.1098C5.91001 10.7898 7.12 9.27985 7.68 8.72985C8.5 7.90985 9 5.41985 8.93 4.02985C8.86 2.64985 8.36002 2.55984 7.23002 1.62984C6.35002 0.909845 5.3 0.0998459 4.4 0.0998459L4.39003 0.0898438Z" fill="#5E5E5A"/>
<mask id="mask0_229_1724" style="mask-type:luminance" maskUnits="userSpaceOnUse" x="0" y="0" width="9" height="12">
<path d="M7.68174 8.71978C8.50174 7.89978 9.00174 5.40978 8.93174 4.01978C8.86174 2.63978 8.36176 2.54979 7.23176 1.61979C6.10176 0.689787 4.69176 -0.380213 3.67176 0.299787C1.06176 2.03979 -0.578267 0.989781 0.581733 5.19978C1.17173 7.32978 0.971733 8.66979 1.83173 9.50979C2.69173 10.3498 3.78175 11.4198 4.85175 11.0998C5.92175 10.7798 7.13175 9.26978 7.69175 8.71978H7.68174Z" fill="white"/>
</mask>
<g mask="url(#mask0_229_1724)">
<path opacity="0.75" d="M-1.86719 4.87958C-1.86719 4.87958 2.26282 3.04958 2.26282 6.20958C2.26282 9.00958 -1.82718 7.50958 -1.82718 7.50958L-1.85718 4.87958H-1.86719Z" fill="#E62C2F" stroke="#E62C2F" stroke-width="0.2" stroke-linecap="round" stroke-linejoin="round"/>
</g>
</svg>
