<svg width="14" height="25" viewBox="0 0 14 25" fill="none" xmlns="http://www.w3.org/2000/svg">
<path d="M6.05663 24.189C6.05663 24.189 5.97664 24.189 5.93664 24.179C5.02664 23.979 3.97665 22.609 2.88665 20.219C2.29665 18.909 1.39664 16.939 1.62664 14.819C1.73664 13.779 2.06664 10.369 1.62664 8.99902L12.8566 9.29903C12.4066 10.549 12.3566 11.159 12.2566 12.259L12.2366 12.529C12.1166 13.849 12.0666 16.509 12.2666 17.819C12.5666 19.809 12.9166 23.319 12.3466 23.839C12.2466 23.929 12.1366 23.979 12.0166 23.979C11.5066 23.979 10.8266 23.079 10.3066 21.749L10.0966 21.209C9.55664 19.829 8.99664 18.409 8.74664 16.279C8.57664 14.789 8.24665 14.029 7.78665 14.029C7.60665 14.029 7.41665 14.149 7.22665 14.379C6.78665 14.909 6.38664 17.529 6.15664 19.099L6.05663 19.759C5.97663 20.249 6.10665 21.039 6.22665 21.799C6.38665 22.779 6.54664 23.789 6.27664 24.109C6.22664 24.169 6.14663 24.209 6.05663 24.209V24.189Z" fill="#F4DE9C"/>
<path d="M1.72795 9.05941L12.7579 9.34941C12.3379 10.5494 12.2779 11.1894 12.1879 12.2294L12.168 12.5094C12.048 13.8394 11.9979 16.4994 12.1979 17.8194C12.5979 20.4694 12.7579 23.3594 12.2979 23.7694C12.2079 23.8494 12.1179 23.8894 12.0179 23.8894C11.5379 23.8894 10.8879 23.0094 10.3779 21.7094C10.3079 21.5294 10.238 21.3494 10.168 21.1694C9.62795 19.7994 9.06792 18.3694 8.82792 16.2594C8.64792 14.6994 8.30795 13.9394 7.78795 13.9394C7.58795 13.9394 7.37795 14.0694 7.16795 14.3094C6.75795 14.8094 6.40792 16.9294 6.07792 19.0594C6.03792 19.3194 6.00795 19.5394 5.97795 19.7194C5.89795 20.2194 6.01793 20.9794 6.14793 21.7894C6.29793 22.7094 6.45794 23.7494 6.21794 24.0394C6.17794 24.0894 6.12793 24.1094 6.05793 24.1094C6.02793 24.1094 5.98793 24.1094 5.95793 24.0994C5.07793 23.9094 4.03793 22.5494 2.95793 20.1794C2.36793 18.8794 1.47793 16.9194 1.70793 14.8194C1.81793 13.7994 2.13793 10.5094 1.73793 9.06941M1.51793 8.90942C1.91793 9.95942 1.78793 12.6794 1.54793 14.7994C1.30793 16.9194 2.19793 18.9094 2.80793 20.2394C3.41793 21.5794 4.63794 23.9594 5.90794 24.2394C5.95794 24.2494 5.99792 24.2594 6.04792 24.2594C7.08792 24.2594 5.91793 20.9994 6.11793 19.7494C6.32793 18.4494 6.78794 14.9994 7.27794 14.3994C7.43794 14.2094 7.60794 14.0794 7.77794 14.0794C8.12794 14.0794 8.47795 14.6294 8.66795 16.2594C8.94795 18.6794 9.64795 20.2394 10.2279 21.7494C10.7079 22.9894 11.3979 24.0294 12.0079 24.0294C12.1379 24.0294 12.268 23.9794 12.388 23.8694C13.058 23.2694 12.5379 19.1294 12.3379 17.7894C12.1379 16.4494 12.1879 13.7994 12.3079 12.5094C12.4279 11.2194 12.4479 10.6094 12.9679 9.19941L1.51793 8.89941V8.90942Z" fill="#5E5E5A"/>
<path d="M7.64125 10.0792C6.98125 10.0792 6.35125 9.90922 5.73125 9.73922C5.17125 9.58922 4.65123 9.43922 4.15123 9.43922H4.00124C3.83124 9.45922 3.66124 9.45922 3.50124 9.45922C2.60124 9.45922 1.66123 9.28922 0.931232 8.04922C0.131232 6.69922 -0.248765 2.48922 1.12123 1.53922C1.68123 1.14922 2.46123 0.949219 3.43123 0.949219C4.34123 0.949219 5.24124 1.11923 5.84124 1.22923L5.97124 1.24922C6.10124 1.26922 6.23122 1.28922 6.36122 1.28922C6.66122 1.28922 6.95124 1.22923 7.25124 1.15923C7.60124 1.08923 7.96123 1.00922 8.40123 1.00922C9.55123 1.00922 10.8912 1.55922 12.6312 2.74922C14.2912 3.87922 13.6812 7.17922 13.1312 8.75922C12.8212 9.64922 11.7212 9.67922 10.5512 9.70922C9.87123 9.72922 9.17124 9.74922 8.56124 9.92922C8.27124 10.0192 7.97125 10.0592 7.64125 10.0592V10.0792Z" fill="white"/>
<path d="M3.42981 1.03965C4.32981 1.03965 5.2298 1.20965 5.8298 1.31965L5.94983 1.33965C6.07983 1.35965 6.20982 1.37965 6.34982 1.37965C6.65982 1.37965 6.94982 1.31965 7.25982 1.24965C7.60982 1.17965 7.95981 1.09965 8.39981 1.09965C9.10981 1.09965 10.3198 1.27965 12.5898 2.82965C14.2098 3.93965 13.6098 7.18965 13.0598 8.74965C12.7698 9.58965 11.7398 9.61965 10.5498 9.64965C9.8698 9.66965 9.15982 9.68965 8.53982 9.87965C8.25982 9.96965 7.95983 10.0097 7.63983 10.0097C6.98983 10.0097 6.35981 9.83965 5.74981 9.66965C5.18981 9.51965 4.65981 9.36965 4.14981 9.36965C4.09981 9.36965 4.0498 9.36965 3.9898 9.36965C3.8198 9.37965 3.6498 9.38965 3.4898 9.38965C2.6098 9.38965 1.69982 9.21965 0.979824 8.01965C0.189824 6.68965 -0.190193 2.53965 1.14981 1.60965C1.69981 1.22965 2.45983 1.03965 3.41983 1.03965M3.42981 0.889648C2.58981 0.889648 1.7398 1.02965 1.0798 1.48965C-0.3502 2.47965 0.0698085 6.75965 0.869809 8.09965C1.55981 9.25965 2.43982 9.53965 3.50982 9.53965C3.67982 9.53965 3.8398 9.53965 4.0198 9.51965C4.0698 9.51965 4.11983 9.51965 4.16983 9.51965C5.18983 9.51965 6.38981 10.1597 7.64981 10.1597C7.95981 10.1597 8.26981 10.1196 8.58981 10.0296C10.2698 9.52965 12.6998 10.2696 13.2098 8.80965C13.8598 6.94965 14.3098 3.81965 12.6798 2.70965C10.5998 1.28965 9.32981 0.959648 8.39981 0.959648C7.55981 0.959648 6.9898 1.23965 6.3598 1.23965C6.2398 1.23965 6.1198 1.22965 5.9898 1.20965C5.3698 1.09965 4.41982 0.899651 3.43982 0.899651L3.42981 0.889648Z" fill="#5E5E5A"/>
<mask id="mask0_229_1700" style="mask-type:luminance" maskUnits="userSpaceOnUse" x="0" y="0" width="14" height="11">
<path d="M13.1981 8.79984C13.8481 6.93984 14.2981 3.80984 12.6681 2.69984C8.3481 -0.250162 7.5181 1.47984 5.9781 1.18984C4.8281 0.979844 2.4981 0.489844 1.0681 1.47984C-0.361905 2.46984 0.0580735 6.74984 0.858073 8.08984C1.65807 9.42984 2.69809 9.59984 3.99809 9.51984C5.29809 9.43984 6.8881 10.5298 8.5681 10.0198C10.2481 9.51984 12.6781 10.2598 13.1881 8.79984H13.1981Z" fill="white"/>
</mask>
<g mask="url(#mask0_229_1700)">
<path opacity="0.75" d="M-2.17142 4.1496C-2.17142 4.1496 1.6886 2.6196 1.7186 5.7796C1.7486 8.5796 -2.19141 7.4296 -2.19141 7.4296V4.1496H-2.17142Z" fill="#E62C2F" stroke="#E62C2F" stroke-width="0.2" stroke-linecap="round" stroke-linejoin="round"/>
</g>
</svg>
