<svg width="12" height="22" viewBox="0 0 12 22" fill="none" xmlns="http://www.w3.org/2000/svg">
<path d="M9.48141 21.1104C9.18141 21.1104 8.96141 20.7604 8.85141 20.1204C8.73141 19.3804 8.8014 18.2904 8.8714 17.1404C8.9714 15.4904 9.08142 13.7904 8.64142 12.9204C8.14142 11.9304 7.70141 11.4204 7.32141 11.4204C7.08141 11.4204 6.88139 11.6204 6.74139 12.0004C6.63139 12.3104 6.4814 12.5704 6.3414 12.8204C6.0214 13.4004 5.7214 13.9404 5.8414 14.8704C5.9314 15.6004 6.31142 16.6104 6.67142 17.6004C6.96142 18.4004 7.24139 19.1604 7.36139 19.7204C7.47139 20.2804 7.4614 20.7104 7.3114 20.8904C7.2614 20.9504 7.19141 20.9804 7.10141 20.9804C6.88141 20.9804 6.44139 20.7904 5.58139 19.8604L5.23141 19.4904C3.58141 17.7204 2.38141 16.4504 2.60141 14.1104C2.82141 11.6904 2.57139 10.6604 2.33139 9.66043L2.29141 9.50043C2.14141 8.88043 1.9614 8.39043 1.7814 7.91043C1.6614 7.60043 1.55141 7.29043 1.44141 6.94043H10.5514C10.1714 7.68043 10.4114 8.46043 10.6614 9.29043C10.7914 9.73043 10.9314 10.1804 10.9814 10.6404C11.0414 11.1504 11.1514 11.4104 11.2814 11.6804C11.5014 12.1604 11.7214 12.6604 11.6514 14.6604C11.5514 17.3104 11.1814 18.2704 10.7914 19.2804C10.7214 19.4604 10.6514 19.6504 10.5814 19.8404C10.3214 20.5504 9.85141 21.0904 9.47141 21.0904L9.48141 21.1104Z" fill="#F4DE9C"/>
<path d="M10.4416 7.02011C10.1216 7.75011 10.3516 8.51011 10.6016 9.32011C10.7316 9.75011 10.8716 10.2001 10.9216 10.6601C10.9816 11.1801 11.1016 11.4601 11.2316 11.7201C11.4416 12.1901 11.6716 12.6801 11.5916 14.6701C11.4916 17.3101 11.1216 18.2601 10.7316 19.2701C10.6616 19.4501 10.5915 19.6401 10.5215 19.8301C10.2815 20.5101 9.82157 21.0301 9.48157 21.0301C9.22157 21.0301 9.02155 20.7001 8.93155 20.1001C8.81155 19.3701 8.88157 18.2901 8.95157 17.1401C9.05157 15.4801 9.16155 13.7701 8.71155 12.8801C8.19155 11.8501 7.74156 11.3401 7.32156 11.3401C7.04156 11.3401 6.83157 11.5501 6.67157 11.9701C6.56157 12.2701 6.41156 12.5301 6.28156 12.7801C5.96156 13.3701 5.65155 13.9301 5.77155 14.8801C5.87155 15.6201 6.24154 16.6401 6.61154 17.6201C6.90154 18.4201 7.18156 19.1701 7.29156 19.7201C7.40156 20.2501 7.39157 20.6701 7.26157 20.8301C7.22157 20.8801 7.18154 20.9001 7.11154 20.9001C6.94154 20.9001 6.53157 20.7601 5.64157 19.8001L5.29156 19.4301C3.65156 17.6801 2.46155 16.4101 2.68155 14.1001C2.90155 11.6701 2.65156 10.6301 2.41156 9.63011L2.37155 9.48012C2.22155 8.86012 2.03154 8.36011 1.86154 7.88011C1.76154 7.60011 1.65154 7.32012 1.55154 7.01012H10.4416M10.6916 6.87012H1.35156C1.63156 7.80012 1.98157 8.47011 2.23157 9.52011C2.48157 10.5701 2.77156 11.5701 2.54156 14.1001C2.31156 16.6301 3.70156 17.9401 5.54156 19.9101C6.31156 20.7301 6.81155 21.0501 7.12155 21.0501C7.55155 21.0501 7.60157 20.4301 7.45157 19.7001C7.19157 18.4401 6.10155 16.1701 5.93155 14.8601C5.76155 13.5501 6.45156 13.0301 6.82156 12.0201C6.96156 11.6601 7.13154 11.4901 7.33154 11.4901C7.68154 11.4901 8.12155 12.0201 8.59155 12.9501C9.32155 14.4001 8.50156 18.3301 8.79156 20.1301C8.91156 20.8801 9.18155 21.1801 9.49155 21.1801C9.92155 21.1801 10.4116 20.6101 10.6716 19.8801C11.1216 18.6201 11.6316 17.8201 11.7516 14.6801C11.8716 11.5401 11.2415 12.0301 11.0815 10.6401C10.9215 9.25011 10.0116 8.00012 10.7016 6.87012H10.6916Z" fill="#5E5E5A"/>
<path d="M8.79213 8.74094C8.05213 8.74094 7.3921 8.27094 6.8621 7.89094C6.5321 7.65094 6.24211 7.45094 5.99211 7.39094C5.90211 7.37094 5.79212 7.36094 5.66212 7.36094C5.33212 7.36094 4.90212 7.42094 4.44212 7.49094C3.90212 7.57094 3.3521 7.65094 2.8621 7.65094C2.3721 7.65094 2.05213 7.57094 1.85213 7.40094C1.03213 6.72094 1.00213 5.09093 1.04213 3.34093C1.08213 1.69093 2.10211 0.960938 3.08211 0.960938C3.24211 0.960938 3.41213 0.980935 3.57213 1.02094L3.82213 1.08094C4.53213 1.24094 4.99212 1.35094 5.56212 1.35094C5.92212 1.35094 6.32212 1.30094 6.81212 1.21094C6.98212 1.18094 7.15212 1.16094 7.31212 1.16094C8.01212 1.16094 8.57213 1.45094 9.01213 1.69094C9.25213 1.82094 9.45212 1.92094 9.63212 1.96094C9.69212 1.97094 9.76211 1.97094 9.83211 1.97094H10.2021C10.7321 1.97094 11.2621 2.15094 11.5121 3.54094C11.8921 5.68094 11.0121 7.58093 9.95213 8.34093C9.57213 8.61093 9.19213 8.74094 8.79213 8.74094Z" fill="white"/>
<path d="M3.08055 1.04063C3.24055 1.04063 3.40056 1.06062 3.56056 1.09062L3.81056 1.15063C4.49056 1.31063 4.99057 1.42062 5.57057 1.42062C5.94057 1.42062 6.34055 1.37062 6.83055 1.27062C6.99055 1.24062 7.15056 1.22063 7.31056 1.22063C7.99056 1.22063 8.54058 1.51062 8.98058 1.74062C9.22058 1.87062 9.43056 1.98063 9.62056 2.01063C9.68056 2.02063 9.76055 2.03062 9.83055 2.03062C9.89055 2.03062 9.95058 2.03062 10.0106 2.03062C10.0706 2.03062 10.1406 2.03062 10.2006 2.03062C10.6706 2.03062 11.1906 2.15063 11.4306 3.54063C11.8006 5.65063 10.9406 7.52062 9.90056 8.27062C9.53056 8.53062 9.17058 8.66063 8.79058 8.66063C8.08058 8.66063 7.42056 8.20063 6.90056 7.82063C6.56056 7.58063 6.27058 7.37062 6.01058 7.31062C5.92058 7.29062 5.80058 7.28062 5.67058 7.28062C5.34058 7.28062 4.90057 7.34063 4.44057 7.41063C3.91057 7.49063 3.35056 7.57063 2.87056 7.57063C2.39056 7.57063 2.09056 7.49062 1.90056 7.34062C1.10056 6.68062 1.08056 5.07062 1.12056 3.34062C1.16056 1.74062 2.14055 1.03062 3.08055 1.03062M3.08055 0.890625C1.97055 0.890625 1.01057 1.73062 0.970568 3.35062C0.920568 5.21062 0.970555 6.78063 1.80055 7.47063C2.04055 7.67063 2.42055 7.74062 2.86055 7.74062C3.78055 7.74062 4.96057 7.45062 5.66057 7.45062C5.78057 7.45062 5.88057 7.45063 5.97057 7.48063C6.60057 7.63063 7.58058 8.83063 8.79058 8.83063C9.17058 8.83063 9.57056 8.71063 9.99056 8.41063C11.1406 7.59063 11.9506 5.62062 11.5806 3.53062C11.3206 2.04062 10.7206 1.89062 10.2006 1.89062C10.0706 1.89062 9.94055 1.89062 9.83055 1.89062C9.76055 1.89062 9.70058 1.89062 9.64058 1.88062C9.17058 1.79062 8.41056 1.08063 7.31056 1.08063C7.15056 1.08063 6.98055 1.10062 6.80055 1.13062C6.30055 1.23062 5.92057 1.27062 5.57057 1.27062C4.95057 1.27062 4.43057 1.13062 3.60057 0.950623C3.43057 0.910623 3.26056 0.890625 3.09056 0.890625H3.08055Z" fill="#5E5E5A"/>
<mask id="mask0_229_1676" style="mask-type:luminance" maskUnits="userSpaceOnUse" x="0" y="0" width="12" height="9">
<path d="M9.99227 8.39034C11.1423 7.57034 11.9523 5.60035 11.5823 3.51035C11.2123 1.43035 10.1823 1.97035 9.64229 1.87035C9.10229 1.77035 8.17226 0.850347 6.80226 1.12035C5.42226 1.40035 4.90228 1.23035 3.60228 0.940346C2.30228 0.640346 1.02229 1.48034 0.982287 3.34034C0.932287 5.20034 0.982274 6.77034 1.81227 7.46034C2.64227 8.15034 5.15229 7.26034 5.98229 7.46034C6.81229 7.66034 8.23228 9.66034 10.0023 8.39034H9.99227Z" fill="white"/>
</mask>
<g mask="url(#mask0_229_1676)">
<path opacity="0.75" d="M-0.825928 3.49078C-0.825928 3.49078 2.38406 1.94078 2.38406 4.62078C2.38406 6.99078 -0.805939 5.72078 -0.805939 5.72078L-0.835938 3.49078H-0.825928Z" fill="#E62C2F" stroke="#E62C2F" stroke-width="0.2" stroke-linecap="round" stroke-linejoin="round"/>
</g>
</svg>
