<svg width="8" height="23" viewBox="0 0 8 23" fill="none" xmlns="http://www.w3.org/2000/svg">
<path d="M4.07236 22.9099C3.70236 22.9099 3.26234 21.7199 2.99234 19.9499C2.29234 15.4699 1.38234 10.8699 0.99234 8.90993L0.902344 8.44992L7.18234 8.41992C7.14234 8.60992 7.06234 8.85992 6.96234 9.16992C6.68234 10.0299 6.27234 11.3299 6.11234 13.2099C5.97234 14.8099 5.56234 18.8499 4.71234 21.8199C4.43234 22.7799 4.19236 22.9299 4.07236 22.9299V22.9099Z" fill="#F4DE9C"/>
<path d="M7.0708 8.48985C7.0308 8.65985 6.9608 8.87985 6.8808 9.13985C6.6008 9.99985 6.19079 11.3098 6.03079 13.1898C5.89079 14.7898 5.49081 18.8198 4.64081 21.7798C4.35081 22.7798 4.1208 22.8298 4.0708 22.8298C3.8008 22.8298 3.36079 21.8198 3.06079 19.9398C2.35079 15.4398 1.44078 10.8399 1.05078 8.86985L0.980804 8.51984L7.0708 8.48985ZM7.2608 8.33984L0.800781 8.36985C1.09078 9.83985 2.1308 14.9798 2.9108 19.9598C3.1608 21.5598 3.5908 22.9799 4.0708 22.9799C4.3008 22.9799 4.54079 22.6398 4.78079 21.8198C5.50079 19.3098 5.95079 15.8498 6.18079 13.1998C6.41079 10.5498 7.1508 9.02984 7.2608 8.33984Z" fill="#5E5E5A"/>
<path d="M3.9094 10.8605C3.4694 10.8605 3.0494 10.6505 2.7894 10.3105C2.5694 10.0105 2.25938 9.90051 1.95938 9.79051C1.49938 9.62051 1.05941 9.46051 0.919407 8.64051C0.619407 6.99051 0.359407 1.85051 0.919407 0.870514C1.12941 0.500514 2.10939 0.270508 3.52939 0.270508C5.11939 0.270508 6.81939 0.550511 7.30939 0.890511C8.05939 1.41051 7.62941 4.99051 7.38941 6.91051C7.33941 7.33051 7.29938 7.68051 7.26938 7.92051C7.19938 8.77051 6.60939 9.15051 5.99939 9.55051C5.66939 9.77051 5.3294 9.99051 5.0694 10.2905C4.7594 10.6505 4.3494 10.8505 3.9094 10.8505V10.8605Z" fill="white"/>
<path d="M3.52015 0.350197C5.10015 0.350197 6.77018 0.620197 7.26018 0.960197C7.98018 1.4602 7.53016 5.1402 7.31016 6.9102C7.26016 7.3302 7.22017 7.6802 7.19017 7.9202C7.12017 8.7302 6.55018 9.1002 5.95018 9.5002C5.62018 9.7202 5.27018 9.9502 5.01018 10.2502C4.72018 10.5902 4.32017 10.7802 3.91017 10.7802C3.50017 10.7802 3.10017 10.5802 2.85017 10.2602C2.62017 9.9502 2.30016 9.8302 1.99016 9.7202C1.53016 9.5502 1.13016 9.4102 0.990156 8.6302C0.690156 6.9902 0.430167 1.8802 0.970167 0.910202C1.16017 0.570202 2.14018 0.350197 3.51018 0.350197M3.52015 0.200195C2.25015 0.200195 1.10017 0.3802 0.850172 0.8302C0.280172 1.8402 0.560172 7.0102 0.850172 8.6502C1.10017 10.0602 2.20016 9.6302 2.74016 10.3502C3.02016 10.7202 3.46018 10.9302 3.92018 10.9302C4.35018 10.9302 4.79017 10.7502 5.13017 10.3502C5.85017 9.5102 7.23017 9.2902 7.35017 7.9302C7.47017 6.5702 8.31017 1.5002 7.35017 0.8302C6.82017 0.4602 5.08016 0.200195 3.53016 0.200195H3.52015Z" fill="#5E5E5A"/>
<mask id="mask0_229_2064" style="mask-type:luminance" maskUnits="userSpaceOnUse" x="0" y="0" width="8" height="11">
<path d="M0.840162 8.65025C1.09016 10.0602 2.19018 9.63025 2.73018 10.3502C3.27018 11.0702 4.41017 11.1902 5.13017 10.3502C5.85017 9.51025 7.23017 9.29025 7.35017 7.93025C7.47017 6.57025 8.31017 1.50025 7.35017 0.830248C6.39017 0.170248 1.42017 -0.179752 0.850172 0.830248C0.280172 1.84025 0.560172 7.01025 0.850172 8.65025H0.840162Z" fill="white"/>
</mask>
<g mask="url(#mask0_229_2064)">
<path opacity="0.75" d="M-1.80078 6.69984C-1.80078 6.69984 1.99921 8.40984 1.99921 5.45984C1.99921 2.83984 -1.77078 4.23984 -1.77078 4.23984L-1.80078 6.69984Z" fill="#E62C2F" stroke="#E62C2F" stroke-width="0.2" stroke-linecap="round" stroke-linejoin="round"/>
</g>
</svg>
