<svg width="9" height="25" viewBox="0 0 9 25" fill="none" xmlns="http://www.w3.org/2000/svg">
<path d="M4.88126 24.4109C4.39126 24.4109 3.86126 22.9209 3.70126 21.0809C3.31126 16.6509 2.42125 12.9709 1.84125 10.5409C1.57125 9.4109 1.35125 8.5009 1.28125 7.9209H8.60126C8.54126 8.1109 8.46124 8.3409 8.36124 8.6109C7.98124 9.6409 7.41125 11.2009 7.22125 13.4909C7.07125 15.2909 6.61125 19.8209 5.65125 23.1609C5.34125 24.2509 5.03126 24.4209 4.88126 24.4209V24.4109Z" fill="#F4DE9C"/>
<path d="M8.5014 8.00059C8.4414 8.17059 8.37141 8.37058 8.29141 8.59058C7.91141 9.63058 7.3414 11.1906 7.1514 13.4906C7.0014 15.2806 6.54139 19.8206 5.58139 23.1406C5.26139 24.2506 4.97141 24.3406 4.88141 24.3406C4.49141 24.3406 3.94139 23.0006 3.77139 21.0806C3.38139 16.6406 2.49141 12.9706 1.91141 10.5306C1.65141 9.45059 1.44139 8.58059 1.36139 8.00059H8.49139M8.70142 7.85059H1.19141C1.38141 9.64059 3.0414 14.4906 3.6214 21.0906C3.7814 22.9006 4.30141 24.4906 4.88141 24.4906C5.16141 24.4906 5.45141 24.1106 5.72141 23.1806C6.53141 20.3606 7.04141 16.4806 7.29141 13.5006C7.54141 10.5206 8.44142 8.76059 8.70142 7.85059Z" fill="#5E5E5A"/>
<path d="M5.12052 11.6305C5.06052 11.6305 5.00054 11.6205 4.95054 11.6005C3.99054 11.1805 1.67051 9.50051 1.52051 9.04051C0.940515 7.31051 0.700523 1.05051 2.06052 0.470512C2.22052 0.400512 2.39051 0.370514 2.58051 0.370514C2.97051 0.370514 3.37053 0.500514 3.72053 0.620514C4.01053 0.720514 4.26053 0.800514 4.47053 0.800514C4.58053 0.800514 4.67052 0.780515 4.74052 0.730515C5.00052 0.550515 5.92054 0.270508 6.70054 0.270508C7.12054 0.270508 7.67054 0.350512 7.92054 0.720512C8.48054 1.59051 9.16054 5.97051 8.70054 7.58051C8.29054 9.04051 6.15052 11.6305 5.12052 11.6305Z" fill="white"/>
<path d="M6.70212 0.350197C7.10212 0.350197 7.63212 0.420195 7.85212 0.770195C8.41212 1.6302 9.08212 5.9702 8.63212 7.5702C8.20212 9.1002 6.03211 11.5602 5.12211 11.5602C5.07211 11.5602 5.02212 11.5602 4.98212 11.5302C4.05212 11.1202 1.74211 9.4502 1.59211 9.0102C1.03211 7.3402 0.792109 1.0902 2.09211 0.540199C2.24211 0.480199 2.4021 0.450195 2.5821 0.450195C2.9521 0.450195 3.35211 0.580195 3.69211 0.700195C3.99211 0.800195 4.2421 0.890198 4.4621 0.890198C4.5921 0.890198 4.6921 0.860201 4.7721 0.800201C4.9921 0.650201 5.86211 0.360199 6.69211 0.360199M6.70212 0.200195C5.88212 0.200195 4.96211 0.480197 4.69211 0.670197C4.63211 0.710197 4.5521 0.730202 4.4621 0.730202C4.0221 0.730202 3.2921 0.290199 2.5821 0.290199C2.3921 0.290199 2.21211 0.3202 2.03211 0.4002C0.592111 1.0102 0.882124 7.3602 1.45212 9.0602C1.62212 9.5702 3.99213 11.2602 4.92213 11.6702C4.98213 11.7002 5.05211 11.7102 5.12211 11.7102C6.16211 11.7102 8.3521 9.1202 8.7721 7.6102C9.2221 6.0002 8.57212 1.6002 7.98212 0.690201C7.74212 0.330201 7.24212 0.200195 6.70212 0.200195Z" fill="#5E5E5A"/>
<mask id="mask0_229_1992" style="mask-type:luminance" maskUnits="userSpaceOnUse" x="0" y="0" width="9" height="12">
<path d="M2.0304 0.400613C3.0304 -0.0293874 4.24041 0.980609 4.69041 0.670609C5.14041 0.360609 7.39041 -0.219386 7.98041 0.690614C8.57041 1.60061 9.23039 6.00061 8.77039 7.61061C8.32039 9.22061 5.84041 12.0806 4.91041 11.6706C3.98041 11.2606 1.61041 9.57061 1.44041 9.06061C0.870406 7.36061 0.580392 1.02061 2.02039 0.400613H2.0304Z" fill="white"/>
</mask>
<g mask="url(#mask0_229_1992)">
<path opacity="0.75" d="M-1.71875 6.82037C-1.71875 6.82037 2.41125 8.65037 2.41125 5.49037C2.41125 2.69037 -1.67874 4.19037 -1.67874 4.19037L-1.70874 6.82037H-1.71875Z" fill="#E62C2F" stroke="#E62C2F" stroke-width="0.5" stroke-linecap="round" stroke-linejoin="round"/>
</g>
</svg>
