<svg width="9" height="30" viewBox="0 0 9 30" fill="none" xmlns="http://www.w3.org/2000/svg">
<path d="M5.12814 29.6305C4.93814 29.6305 4.41813 29.4405 3.83813 27.6905C2.79813 24.5505 1.99813 22.1405 1.95813 18.3305C1.91813 13.9505 1.81813 9.52047 1.07812 7.54047L8.35812 7.48047C8.20812 8.41047 8.05815 10.3805 8.06815 13.2105C8.06815 16.2905 8.00813 17.5905 7.57812 19.1705L7.15814 20.7105C6.43814 23.3205 5.92814 25.2005 5.90814 27.3905C5.90814 28.7005 5.57813 29.6205 5.11813 29.6205L5.12814 29.6305Z" fill="#F4DE9C"/>
<path d="M8.27655 7.56015C8.12655 8.53015 7.98655 10.4702 7.99655 13.2102C7.99655 16.2802 7.93654 17.5702 7.51654 19.1502C7.36654 19.6902 7.22656 20.2002 7.09656 20.6902C6.37656 23.3102 5.85656 25.2002 5.84656 27.4002C5.83656 28.8202 5.47657 29.5602 5.13657 29.5602C4.84657 29.5602 4.37656 29.0602 3.91656 27.6702L3.88657 27.5802C2.87657 24.5302 2.07654 22.1302 2.04654 18.3302C2.00654 14.0202 1.90654 9.65015 1.20654 7.61015L8.28656 7.55016M8.44656 7.41016L0.976562 7.47015C1.77656 9.47015 1.84657 14.3101 1.88657 18.3401C1.91657 22.2001 2.73654 24.6302 3.76654 27.7202C4.22654 29.1102 4.72656 29.7102 5.12656 29.7102C5.61656 29.7102 5.97654 28.8202 5.98654 27.4102C6.00654 24.8302 6.70656 22.7201 7.65656 19.2001C8.08656 17.6101 8.15655 16.2802 8.14655 13.2202C8.14655 10.0602 8.32654 8.16016 8.45654 7.41016H8.44656Z" fill="#5E5E5A"/>
<path d="M4.36782 12.2105C4.31782 12.2105 4.26782 12.2105 4.23782 12.1805C3.59782 11.8505 2.75783 11.0205 2.09783 10.0705C0.777833 8.20055 0.657812 4.74055 0.857812 3.88055C1.06781 2.99055 4.28783 0.0605469 5.06783 0.0605469C5.82783 0.0905469 8.17782 0.990548 8.55782 1.85055C8.91782 2.67055 8.75784 6.81055 8.03784 8.69055C7.40784 10.3406 5.18783 12.2005 4.37783 12.2005L4.36782 12.2105Z" fill="white"/>
<path d="M5.05851 0.140236C5.86851 0.170236 8.13852 1.10024 8.47852 1.89024C8.83852 2.71024 8.6685 6.80023 7.9585 8.67023C7.2985 10.4002 5.07851 12.1302 4.36851 12.1302C4.32851 12.1302 4.29851 12.1302 4.27851 12.1102C3.64851 11.7802 2.81852 10.9602 2.15852 10.0302C0.858516 8.18024 0.738505 4.75024 0.928505 3.90024C1.1185 3.06024 4.32851 0.140236 5.05851 0.140236ZM5.05851 -0.00976562C4.23851 -0.00976562 0.988511 2.94024 0.778511 3.87024C0.568511 4.80024 0.708511 8.25024 2.02851 10.1202C2.72851 11.1102 3.57852 11.9202 4.19852 12.2502C4.24852 12.2702 4.2985 12.2902 4.3585 12.2902C5.1785 12.2902 7.43851 10.4302 8.08851 8.73024C8.78851 6.89024 8.9985 2.72024 8.6085 1.83024C8.2185 0.950238 5.85852 0.0302344 5.06852 -0.00976562C5.06852 -0.00976562 5.06851 -0.00976562 5.05851 -0.00976562Z" fill="#5E5E5A"/>
<mask id="mask0_229_2040" style="mask-type:luminance" maskUnits="userSpaceOnUse" x="0" y="-1" width="9" height="14">
<path d="M2.02851 10.1205C0.708511 8.25046 0.568511 4.80046 0.778511 3.87046C0.988511 2.94046 4.27852 -0.0395407 5.06852 -0.00954074C5.85852 0.0204593 8.2285 0.940463 8.6085 1.83046C8.9985 2.71046 8.78851 6.89046 8.08851 8.73046C7.38851 10.5705 4.81852 12.5805 4.19852 12.2605C3.57852 11.9305 2.71851 11.1205 2.02851 10.1305V10.1205Z" fill="white"/>
</mask>
<g mask="url(#mask0_229_2040)">
<path opacity="0.75" d="M-1.94141 7.57037C-1.94141 7.57037 2.1886 9.40037 2.1886 6.24037C2.1886 3.44037 -1.9014 4.94037 -1.9014 4.94037L-1.9314 7.57037H-1.94141Z" fill="#E62C2F" stroke="#E62C2F" stroke-width="0.2" stroke-linecap="round" stroke-linejoin="round"/>
</g>
</svg>
