<svg width="11" height="25" viewBox="0 0 11 25" fill="none" xmlns="http://www.w3.org/2000/svg">
<path d="M3.43689 24.5209C3.33689 24.5209 3.2569 24.4809 3.1969 24.4009C2.9569 24.0709 3.07688 23.0809 3.51688 21.6909C3.83688 20.7009 3.37688 19.2509 2.92688 17.8509C2.69688 17.1309 2.48689 16.4609 2.37689 15.8609C2.00689 13.8309 1.59688 11.5609 1.04688 8.9209H8.93689L8.76688 9.2309C8.06688 10.5309 7.34688 11.8709 7.26688 14.6809C7.18688 17.4909 7.07689 21.3409 4.96689 23.4709C4.10689 24.3409 3.65689 24.5209 3.43689 24.5209Z" fill="#F4DE9C"/>
<path d="M8.81876 9.00059C8.77876 9.07059 8.74874 9.14059 8.70874 9.21059C8.00874 10.5206 7.28876 11.8706 7.19876 14.6906C7.11876 17.4906 7.00876 21.3206 4.91876 23.4206C4.02876 24.3106 3.60875 24.4506 3.43875 24.4506C3.35875 24.4506 3.29876 24.4206 3.25876 24.3606C3.02876 24.0506 3.15875 23.0606 3.59875 21.7206C3.92875 20.7106 3.45876 19.2506 3.00876 17.8406C2.77876 17.1306 2.56874 16.4506 2.45874 15.8606V15.8206C2.08874 13.8406 1.68874 11.6006 1.14874 9.01059H8.81876M9.06876 8.85059H0.96875C1.51875 11.5306 1.93875 13.8106 2.30875 15.8806C2.62875 17.6606 3.92876 20.2106 3.44876 21.6706C2.87876 23.4206 2.81875 24.6006 3.43875 24.6006C3.76875 24.6006 4.28875 24.2706 5.02875 23.5306C7.09875 21.4506 7.26873 17.7906 7.35873 14.6906C7.44873 11.5906 8.32876 10.2706 9.06876 8.85059Z" fill="#5E5E5A"/>
<path d="M4.95696 12.1407C4.46696 12.1407 4.03698 11.9607 3.66698 11.6007C3.17698 11.1207 2.77697 10.8407 2.43697 10.6007C1.62697 10.0307 1.18697 9.7207 0.656975 7.5107C0.216975 5.6507 0.776961 3.75071 1.98696 2.98071L2.38699 2.73071C3.54699 1.99071 5.12696 0.970703 6.14696 0.970703C6.29696 0.970703 6.42698 0.990703 6.53698 1.0407C7.13698 1.2707 7.42696 1.5207 7.70696 1.7607C7.92696 1.9507 8.13696 2.1207 8.45696 2.2607C9.08696 2.5307 10.297 3.9407 10.197 5.9507C10.127 7.3307 9.29697 8.4207 8.68697 9.2207C8.42697 9.5607 8.20698 9.8507 8.09698 10.1007C7.82698 10.7107 6.31697 12.1507 4.93697 12.1507L4.95696 12.1407Z" fill="white"/>
<path d="M6.14811 1.04063C6.28811 1.04063 6.4081 1.06062 6.5181 1.10062C7.1081 1.33062 7.38813 1.57062 7.66813 1.81062C7.88813 2.00062 8.10812 2.18063 8.43812 2.32063C9.05812 2.59063 10.2281 3.96063 10.1281 5.94063C10.0581 7.29063 9.23813 8.38062 8.63813 9.17062C8.37813 9.51062 8.14812 9.81062 8.03812 10.0606C7.77812 10.6506 6.29813 12.0606 4.94813 12.0606C4.47813 12.0606 4.05811 11.8906 3.70811 11.5506C3.20811 11.0706 2.79812 10.7806 2.46812 10.5406C1.67812 9.98063 1.23812 9.67062 0.718116 7.49062C0.288116 5.66062 0.828104 3.79063 2.0181 3.04063L2.41813 2.78062C3.56813 2.04062 5.13813 1.03062 6.13813 1.03062M6.14811 0.890625C4.97811 0.890625 3.10813 2.18062 1.94813 2.92062C0.628127 3.75062 0.168112 5.74062 0.588112 7.53062C1.33811 10.6906 1.94811 10.0306 3.61811 11.6606C4.02811 12.0606 4.48811 12.2206 4.95811 12.2206C6.39811 12.2206 7.91812 10.7206 8.18812 10.1306C8.53812 9.34062 10.1881 7.94062 10.2881 5.96062C10.3881 3.98062 9.22813 2.51062 8.50813 2.20062C7.78813 1.89062 7.6681 1.40063 6.5781 0.970627C6.4481 0.920627 6.30812 0.900627 6.15812 0.900627L6.14811 0.890625Z" fill="#5E5E5A"/>
<mask id="mask0_229_1980" style="mask-type:luminance" maskUnits="userSpaceOnUse" x="0" y="0" width="11" height="13">
<path d="M0.588112 7.53048C0.168112 5.74048 0.628127 3.75048 1.94813 2.92048C3.26813 2.09048 5.48812 0.540483 6.56812 0.960483C7.64812 1.38048 7.77812 1.88049 8.49812 2.19049C9.21812 2.50049 10.3781 3.97048 10.2781 5.95048C10.1781 7.93048 8.52811 9.33049 8.17811 10.1205C7.82811 10.9105 5.2781 13.2805 3.6081 11.6605C1.9381 10.0405 1.3281 10.6905 0.578102 7.53048H0.588112Z" fill="white"/>
</mask>
<g mask="url(#mask0_229_1980)">
<path opacity="0.75" d="M-2.07031 7.95025C-2.07031 7.95025 2.05969 9.78025 2.05969 6.62025C2.05969 3.82025 -2.0303 5.32025 -2.0303 5.32025L-2.0603 7.95025H-2.07031Z" fill="#E62C2F" stroke="#E62C2F" stroke-width="0.2" stroke-linecap="round" stroke-linejoin="round"/>
</g>
</svg>
