<svg width="14" height="25" viewBox="0 0 14 25" fill="none" xmlns="http://www.w3.org/2000/svg">
<path d="M8.06953 24.1905C7.97953 24.1905 7.89953 24.1605 7.84953 24.0905C7.57953 23.7705 7.73952 22.7605 7.89952 21.7805C8.01952 21.0105 8.14953 20.2205 8.06953 19.7405L7.96953 19.0805C7.72953 17.5105 7.32952 14.8905 6.89952 14.3605C6.70952 14.1305 6.51952 14.0105 6.33952 14.0105C5.87952 14.0105 5.54953 14.7705 5.37953 16.2605C5.12953 18.3805 4.56953 19.8105 4.02953 21.1905L3.81953 21.7305C3.30953 23.0605 2.61953 23.9605 2.10953 23.9605C1.98953 23.9605 1.87953 23.9105 1.77953 23.8205C1.20953 23.3105 1.55953 19.8005 1.85953 17.8005C2.05953 16.4905 2.00953 13.8305 1.88953 12.5105L1.86952 12.2405C1.76952 11.1505 1.71953 10.5305 1.26953 9.28046L12.4995 8.98047C12.0595 10.3505 12.3795 13.7705 12.4995 14.8005C12.7295 16.9305 11.8395 18.9005 11.2395 20.2005C10.1495 22.5905 9.09953 23.9605 8.18953 24.1605C8.14953 24.1605 8.10953 24.1705 8.06953 24.1705V24.1905Z" fill="#F4DE9C"/>
<path d="M12.3984 9.06015C11.9984 10.5102 12.3084 13.8002 12.4284 14.8102C12.6584 16.9202 11.7684 18.8802 11.1784 20.1702C10.0984 22.5402 9.06844 23.8901 8.17844 24.0901C8.13844 24.0901 8.10845 24.1002 8.07845 24.1002C8.00845 24.1002 7.95844 24.0802 7.91844 24.0302C7.66844 23.7402 7.83845 22.7002 7.98845 21.7802C8.11845 20.9702 8.23845 20.2102 8.15845 19.7102C8.12845 19.5302 8.09844 19.3002 8.05844 19.0502C7.73844 16.9202 7.37844 14.8002 6.96844 14.3002C6.76844 14.0502 6.55845 13.9302 6.34845 13.9302C5.82845 13.9302 5.49844 14.6902 5.30844 16.2502C5.05844 18.3602 4.50844 19.7802 3.96844 21.1602C3.89844 21.3402 3.82844 21.5201 3.75844 21.7001C3.25844 23.0001 2.59844 23.8801 2.11844 23.8801C2.01844 23.8801 1.92844 23.8402 1.83844 23.7602C1.37844 23.3502 1.54845 20.4602 1.93845 17.8102C2.13845 16.4902 2.08844 13.8302 1.96844 12.5002L1.94844 12.2202C1.85844 11.1902 1.79845 10.5401 1.37845 9.34015L12.4084 9.05016M12.5984 8.91016L1.14844 9.21015C1.66844 10.6202 1.68844 11.2401 1.80844 12.5201C1.92844 13.8001 1.97844 16.4502 1.77844 17.8002C1.57844 19.1502 1.05844 23.2901 1.72844 23.8801C1.84844 23.9901 1.97844 24.0402 2.10844 24.0402C2.70844 24.0402 3.40844 23.0002 3.88844 21.7602C4.46844 20.2502 5.16844 18.6901 5.44844 16.2701C5.63844 14.6401 5.97844 14.0901 6.33844 14.0901C6.50844 14.0901 6.67844 14.2202 6.83844 14.4102C7.32844 15.0102 7.78844 18.4602 7.99844 19.7602C8.19844 21.0102 7.02845 24.2701 8.06845 24.2701C8.10845 24.2701 8.15845 24.2702 8.20845 24.2502C9.48845 23.9702 10.6984 21.5902 11.3084 20.2502C11.9184 18.9102 12.8085 16.9302 12.5685 14.8102C12.3385 12.6902 12.1984 9.96015 12.5984 8.92015V8.91016Z" fill="#5E5E5A"/>
<path d="M6.49114 10.0797C6.16114 10.0797 5.86114 10.0397 5.57114 9.94972C4.96114 9.76972 4.26114 9.74973 3.58114 9.72973C2.41114 9.69973 1.31113 9.66972 1.00113 8.77972C0.451134 7.19972 -0.158866 3.89972 1.50113 2.76972C3.24113 1.57972 4.59113 1.02972 5.73113 1.02972C6.17113 1.02972 6.54114 1.10973 6.88114 1.17973C7.18114 1.23973 7.47114 1.30972 7.77114 1.30972C7.90114 1.30972 8.02114 1.29972 8.16114 1.26972L8.29113 1.24973C8.89113 1.13973 9.80113 0.969727 10.7011 0.969727C11.6711 0.969727 12.4511 1.16972 13.0111 1.55972C14.3811 2.50972 14.0011 6.71973 13.2011 8.06973C12.4711 9.30973 11.5311 9.47973 10.6311 9.47973C10.4711 9.47973 10.3011 9.47972 10.1311 9.45972H9.98113C9.49113 9.45972 8.96113 9.59973 8.40113 9.74973C7.79113 9.91973 7.15114 10.0897 6.49114 10.0897V10.0797Z" fill="white"/>
<path d="M10.7004 1.03989C11.6604 1.03989 12.4204 1.22989 12.9704 1.60989C14.3104 2.53989 13.9204 6.68988 13.1404 8.01988C12.4304 9.21988 11.5104 9.38988 10.6304 9.38988C10.4704 9.38988 10.3004 9.38989 10.1304 9.36989C10.0804 9.36989 10.0304 9.36989 9.97042 9.36989C9.47042 9.36989 8.94042 9.51988 8.37042 9.66988C7.76042 9.83988 7.13042 10.0099 6.48042 10.0099C6.16042 10.0099 5.87043 9.96988 5.58043 9.87988C4.96043 9.68988 4.25043 9.66989 3.57043 9.64989C2.38043 9.61989 1.36042 9.58989 1.06042 8.74989C0.510421 7.17989 -0.0895777 3.92989 1.53042 2.82989C3.80042 1.27989 5.01042 1.09988 5.72042 1.09988C6.16042 1.09988 6.51042 1.17989 6.86042 1.24989C7.17042 1.31989 7.46043 1.37988 7.77043 1.37988C7.91043 1.37988 8.04042 1.36988 8.17042 1.33988L8.29042 1.31989C8.89042 1.20989 9.79043 1.03989 10.6904 1.03989M10.7004 0.889885C9.72042 0.889885 8.76042 1.07988 8.15042 1.19988C8.02042 1.21988 7.90042 1.22989 7.78042 1.22989C7.14042 1.22989 6.58043 0.949883 5.74043 0.949883C4.81043 0.949883 3.54043 1.28988 1.46043 2.69988C-0.15957 3.80988 0.290416 6.93989 0.930416 8.79989C1.44042 10.2599 3.87043 9.51988 5.55043 10.0199C5.87043 10.1199 6.18043 10.1499 6.49043 10.1499C7.76043 10.1499 8.95042 9.50989 9.97042 9.50989C10.0204 9.50989 10.0704 9.50989 10.1204 9.50989C10.2904 9.51989 10.4604 9.52988 10.6304 9.52988C11.7004 9.52988 12.5804 9.24988 13.2704 8.08988C14.0704 6.74988 14.4904 2.46989 13.0604 1.47989C12.4004 1.01989 11.5504 0.879883 10.7104 0.879883L10.7004 0.889885Z" fill="#5E5E5A"/>
<mask id="mask0_229_2028" style="mask-type:luminance" maskUnits="userSpaceOnUse" x="0" y="0" width="15" height="11">
<path d="M0.930101 8.79984C0.280101 6.93984 -0.169885 3.80984 1.46012 2.69984C5.78012 -0.250162 6.6101 1.47984 8.1501 1.18984C9.3001 0.979844 11.6301 0.489844 13.0601 1.47984C14.4901 2.46984 14.0701 6.74984 13.2701 8.08984C12.4701 9.42984 11.4301 9.59984 10.1301 9.51984C8.83011 9.43984 7.24011 10.5298 5.56011 10.0198C3.88011 9.51984 1.45011 10.2598 0.940111 8.79984H0.930101Z" fill="white"/>
</mask>
<g mask="url(#mask0_229_2028)">
<path opacity="0.75" d="M-2.03859 7.38987C-2.03859 7.38987 1.82141 8.91987 1.85141 5.75987C1.88141 2.95987 -2.05859 4.10987 -2.05859 4.10987V7.38987H-2.03859Z" fill="#E62C2F" stroke="#E62C2F" stroke-width="0.2" stroke-linecap="round" stroke-linejoin="round"/>
</g>
</svg>
