<svg width="12" height="24" viewBox="0 0 12 24" fill="none" xmlns="http://www.w3.org/2000/svg">
<path d="M7.24875 23.4893C7.18875 23.4893 7.12875 23.4593 7.07875 23.3893C6.50875 22.6393 7.10875 18.3893 7.30875 17.6793C7.47875 17.0693 7.29875 14.5193 6.63875 13.6493C6.48875 13.4493 6.30875 13.3493 6.12875 13.3493C5.45875 13.3493 4.19875 16.2593 4.19875 18.8393C4.19875 21.1693 3.67875 23.2193 3.08875 23.2193C3.00875 23.2193 2.92875 23.1793 2.83875 23.1093C2.15875 22.4993 1.38875 19.0393 0.948746 16.2693C0.788746 15.2993 1.04875 14.3293 1.26875 13.4693C1.40875 12.9193 1.54875 12.3993 1.54875 11.9693C1.54875 10.8893 0.82875 8.56926 0.46875 7.73926H11.5287C11.1187 9.15926 10.4488 12.0393 10.3188 12.9893C10.2488 13.5193 10.2487 14.4893 10.2487 15.5993C10.2487 16.5193 10.2487 17.5493 10.1987 18.4493C10.1087 20.4193 8.40875 23.1293 7.32875 23.4793H7.24875V23.4893Z" fill="#F4DE9C"/>
<path d="M11.4276 7.80941C11.0176 9.25941 10.3677 12.0494 10.2477 12.9694C10.1777 13.5094 10.1776 14.4694 10.1776 15.5894C10.1776 16.4994 10.1777 17.5394 10.1277 18.4394C10.0377 20.3494 8.33765 23.0694 7.30765 23.3994C7.28765 23.3994 7.26764 23.3994 7.25764 23.3994C7.22764 23.3994 7.19764 23.3994 7.14764 23.3294C6.59764 22.6094 7.19765 18.3594 7.38765 17.6794C7.55765 17.0594 7.36765 14.4694 6.69765 13.5794C6.52765 13.3594 6.33766 13.2494 6.12766 13.2494C5.35766 13.2494 4.12766 16.2894 4.12766 18.8194C4.12766 21.3494 3.56766 23.1194 3.09766 23.1194C3.03766 23.1194 2.97764 23.0894 2.89764 23.0194C2.22764 22.4194 1.47765 18.9894 1.02765 16.2194C0.877649 15.2694 1.12766 14.2994 1.34766 13.4494C1.48766 12.8894 1.62766 12.3694 1.62766 11.9294C1.62766 10.8894 0.957646 8.68941 0.587646 7.77941H11.4377M11.6277 7.65942H0.347656C0.697656 8.38942 1.47765 10.8794 1.46765 11.9594C1.46765 13.0394 0.607645 14.6694 0.867645 16.2794C1.12765 17.8894 1.94764 22.4194 2.78764 23.1594C2.88764 23.2494 2.98765 23.2894 3.08765 23.2894C3.77765 23.2894 4.26765 21.0694 4.26765 18.8394C4.26765 16.2894 5.52765 13.4194 6.11765 13.4194C7.11765 13.4194 7.42765 16.9594 7.22765 17.6594C7.03765 18.3394 6.26766 23.5594 7.23766 23.5594C7.26766 23.5594 7.30765 23.5594 7.33765 23.5394C8.45765 23.1794 10.1677 20.3994 10.2677 18.4394C10.3577 16.4794 10.2576 13.9594 10.3876 12.9794C10.5176 11.9994 11.2176 9.00941 11.6176 7.64941L11.6277 7.65942Z" fill="#5E5E5A"/>
<path d="M6.20786 10.0797C5.04786 10.0797 4.33785 9.46973 3.75785 8.97973C3.34785 8.62973 2.98786 8.31973 2.57786 8.31973C2.06786 8.35973 1.75785 8.59973 1.50785 8.78973C1.34785 8.90973 1.21785 9.00973 1.11785 9.00973C1.05785 9.00973 0.957863 8.97972 0.817863 8.69972C-0.132137 6.71972 -0.372137 3.27973 1.70786 2.22973C2.37786 1.88973 3.05786 1.72973 3.84786 1.72973C4.22786 1.72973 4.58785 1.76973 4.91785 1.79973C5.20785 1.82973 5.47786 1.85973 5.73786 1.85973C6.13786 1.85973 6.43786 1.78972 6.68786 1.62972C7.19786 1.30972 8.16786 0.969727 9.10786 0.969727C10.0479 0.969727 11.1579 1.27973 11.5179 2.75973C12.1479 5.33973 11.6779 7.55972 11.3379 8.37972C11.2079 8.69972 10.9379 8.84972 10.5079 8.84972C10.2079 8.84972 9.85785 8.77972 9.52785 8.70972L9.35786 8.66972C9.35786 8.66972 9.26786 8.65973 9.21786 8.65973C8.77786 8.65973 8.20786 9.02972 7.65786 9.38972C7.14786 9.72972 6.61786 10.0797 6.23786 10.0797H6.20786Z" fill="white"/>
<path d="M9.10891 1.03965C9.97891 1.03965 11.0989 1.33965 11.4489 2.76965C12.0689 5.32965 11.6089 7.53965 11.2789 8.33965C11.1589 8.63965 10.9189 8.76965 10.5189 8.76965C10.2189 8.76965 9.87891 8.69965 9.54891 8.62965L9.37891 8.58965C9.37891 8.58965 9.2789 8.57965 9.2289 8.57965C8.7689 8.57965 8.21891 8.93965 7.62891 9.32965C7.12891 9.65965 6.59891 9.99965 6.21891 10.0097C5.08891 10.0097 4.41892 9.42965 3.81892 8.92965C3.39892 8.56965 3.02891 8.25965 2.58891 8.25965C2.55891 8.25965 2.5389 8.25965 2.5089 8.25965C2.0489 8.29965 1.7189 8.54965 1.4789 8.73965C1.3389 8.84965 1.20891 8.93965 1.12891 8.93965C1.03891 8.93965 0.948903 8.76965 0.898903 8.66965C0.118903 7.05965 -0.451091 3.41965 1.74891 2.29965C2.40891 1.95965 3.07892 1.80965 3.84892 1.80965C4.22892 1.80965 4.57891 1.84965 4.90891 1.87965C5.19891 1.90965 5.47891 1.93965 5.72891 1.93965C6.13891 1.93965 6.45891 1.85965 6.71891 1.69965C7.21891 1.38965 8.17891 1.04965 9.10891 1.04965M9.10891 0.889648C8.13891 0.889648 7.14891 1.23965 6.63891 1.55965C6.36891 1.72965 6.06891 1.77965 5.72891 1.77965C5.18891 1.77965 4.55891 1.64965 3.83891 1.64965C3.18891 1.64965 2.45891 1.75965 1.66891 2.15965C-0.561093 3.28965 -0.141091 6.89965 0.748909 8.72965C0.878909 8.98965 0.98891 9.08965 1.10891 9.08965C1.41891 9.08965 1.78891 8.46965 2.49891 8.40965C2.51891 8.40965 2.54892 8.40965 2.56892 8.40965C3.51892 8.40965 4.20891 10.1696 6.19891 10.1696C6.20891 10.1696 6.21891 10.1696 6.22891 10.1696C7.02891 10.1696 8.37891 8.74965 9.19891 8.74965C9.23891 8.74965 9.27892 8.74965 9.31892 8.75965C9.70892 8.83965 10.1189 8.93965 10.4889 8.93965C10.8889 8.93965 11.2289 8.81965 11.3889 8.41965C11.6989 7.65965 12.2189 5.42965 11.5689 2.74965C11.2289 1.33965 10.1689 0.899651 9.08891 0.899651L9.10891 0.889648Z" fill="#5E5E5A"/>
<mask id="mask0_229_2016" style="mask-type:luminance" maskUnits="userSpaceOnUse" x="0" y="0" width="12" height="11">
<path d="M0.798411 8.73962C-0.081589 6.90962 -0.561594 3.28963 1.66841 2.14963C3.89841 1.01963 5.56841 2.21963 6.63841 1.54963C7.70841 0.879629 10.9284 0.0496294 11.5884 2.72963C12.2384 5.40963 11.7184 7.62963 11.4084 8.39963C11.0984 9.15963 10.1484 8.90962 9.3384 8.73962C8.5284 8.57962 7.07841 10.1396 6.23841 10.1496C4.16841 10.1696 3.48841 8.30963 2.49841 8.39963C1.50841 8.48963 1.2384 9.66962 0.788401 8.73962H0.798411Z" fill="white"/>
</mask>
<g mask="url(#mask0_229_2016)">
<path opacity="0.75" d="M-2.78125 7.13971C-2.78125 7.13971 1.34875 8.9697 1.34875 5.8097C1.34875 3.0097 -2.74126 4.50971 -2.74126 4.50971L-2.77126 7.13971H-2.78125Z" fill="#E62C2F" stroke="#E62C2F" stroke-width="0.2" stroke-linecap="round" stroke-linejoin="round"/>
</g>
</svg>
