<svg width="12" height="22" viewBox="0 0 12 22" fill="none" xmlns="http://www.w3.org/2000/svg">
<path d="M2.63765 21.11C2.25765 21.11 1.77765 20.57 1.52765 19.86C1.45765 19.67 1.38766 19.48 1.31766 19.3C0.927658 18.28 0.557657 17.32 0.457657 14.68C0.377657 12.68 0.607652 12.18 0.827652 11.7C0.947652 11.43 1.06766 11.17 1.12766 10.66C1.17766 10.2 1.31765 9.73996 1.44765 9.30996C1.69765 8.47996 1.93765 7.69996 1.55765 6.95996H10.6676C10.5576 7.29996 10.4477 7.60996 10.3277 7.91996C10.1477 8.39996 9.96766 8.88996 9.81766 9.50996L9.77765 9.65997C9.53765 10.66 9.28765 11.69 9.50765 14.11C9.71765 16.45 8.52766 17.73 6.87766 19.49L6.53764 19.86C5.67764 20.78 5.23765 20.98 5.01765 20.98C4.92765 20.98 4.85765 20.95 4.80765 20.89C4.65765 20.71 4.64765 20.29 4.75765 19.72C4.86765 19.16 5.14765 18.41 5.44765 17.61C5.80765 16.63 6.18765 15.61 6.27765 14.88C6.39765 13.95 6.09765 13.41 5.77765 12.83C5.63765 12.58 5.49766 12.31 5.37766 12.01C5.23766 11.62 5.03765 11.43 4.79765 11.43C4.41765 11.43 3.97765 11.93 3.47765 12.93C3.03765 13.8 3.14765 15.51 3.24765 17.16C3.31765 18.31 3.38765 19.4 3.26765 20.14C3.16765 20.78 2.93765 21.13 2.63765 21.13V21.11Z" fill="#F4DE9C"/>
<path d="M10.5684 7.02011C10.4684 7.33011 10.3684 7.61011 10.2584 7.89011C10.0784 8.37011 9.89837 8.87011 9.74837 9.49011L9.70838 9.64011C9.46838 10.6401 9.20837 11.6801 9.43837 14.1101C9.64837 16.4201 8.46837 17.6801 6.82837 19.4401L6.47837 19.8101C5.58837 20.7601 5.17837 20.9101 5.00837 20.9101C4.93837 20.9101 4.89837 20.8901 4.85837 20.8401C4.72837 20.6801 4.71837 20.2701 4.82837 19.7301C4.93837 19.1801 5.21837 18.4201 5.50837 17.6301C5.86837 16.6401 6.24838 15.6201 6.34838 14.8901C6.46838 13.9401 6.16837 13.3801 5.83837 12.7901C5.69837 12.5401 5.55837 12.2801 5.44837 11.9801C5.28837 11.5601 5.07837 11.3501 4.79837 11.3501C4.37837 11.3501 3.92838 11.8501 3.40838 12.8901C2.95838 13.7801 3.06837 15.4901 3.16837 17.1501C3.23837 18.3001 3.30837 19.3901 3.18837 20.1101C3.08837 20.7101 2.89837 21.0401 2.63837 21.0401C2.29837 21.0401 1.83838 20.5101 1.59838 19.8401C1.52838 19.6501 1.45837 19.4601 1.38837 19.2801C0.998371 18.2701 0.62837 17.3201 0.52837 14.6801C0.45837 12.6901 0.678371 12.2001 0.888371 11.7301C1.00837 11.4601 1.13837 11.1901 1.19837 10.6701C1.24837 10.2101 1.38838 9.76012 1.51838 9.33012C1.76838 8.53012 1.99836 7.76011 1.67836 7.03011H10.5684M10.7684 6.87012H1.42836C2.10836 7.99012 1.20837 9.25011 1.04837 10.6401C0.888374 12.0301 0.258376 11.5301 0.378376 14.6801C0.498376 17.8201 1.00838 18.6301 1.45838 19.8801C1.71838 20.6101 2.21837 21.1801 2.63837 21.1801C2.94837 21.1801 3.21837 20.8801 3.33837 20.1301C3.62837 18.3301 2.80836 14.4001 3.53836 12.9501C3.99836 12.0201 4.43837 11.4901 4.79837 11.4901C4.99837 11.4901 5.16837 11.6601 5.30837 12.0201C5.67837 13.0201 6.36837 13.5501 6.19837 14.8601C6.02837 16.1701 4.93836 18.4401 4.67836 19.7001C4.52836 20.4301 4.57837 21.0501 5.00837 21.0501C5.31837 21.0501 5.81837 20.7301 6.58837 19.9101C8.42837 17.9301 9.81837 16.6301 9.58837 14.1001C9.35837 11.5701 9.63837 10.5701 9.89837 9.52011C10.1584 8.47011 10.4984 7.80012 10.7784 6.87012H10.7684Z" fill="#5E5E5A"/>
<path d="M3.33808 8.74094C2.93808 8.74094 2.55808 8.61093 2.17808 8.34093C1.10808 7.58093 0.238078 5.68094 0.618078 3.54094C0.868078 2.16094 1.38808 1.96094 1.92808 1.96094H2.29809C2.36809 1.96094 2.43808 1.96094 2.49808 1.96094C2.66808 1.93094 2.87808 1.82094 3.11808 1.69094C3.56808 1.45094 4.11809 1.16094 4.81809 1.16094C4.97809 1.16094 5.13809 1.18094 5.31809 1.21094C5.80809 1.31094 6.19809 1.35094 6.56809 1.35094C7.13809 1.35094 7.59808 1.24094 8.30808 1.08094L8.55808 1.02094C8.72808 0.980935 8.88809 0.960938 9.04809 0.960938C10.0281 0.960938 11.0481 1.70093 11.0881 3.34093C11.1381 5.09093 11.1081 6.72094 10.2781 7.40094C10.0781 7.57094 9.73809 7.65094 9.26809 7.65094C8.79809 7.65094 8.22809 7.57094 7.68809 7.49094C7.22809 7.42094 6.79808 7.36094 6.46808 7.36094C6.33808 7.36094 6.22808 7.37094 6.13808 7.39094C5.88808 7.45094 5.59809 7.65094 5.26809 7.89094C4.73809 8.27094 4.06808 8.74094 3.33808 8.74094Z" fill="white"/>
<path d="M9.03689 1.04063C9.98689 1.04063 10.9569 1.75062 10.9969 3.35062C11.0469 5.08062 11.0169 6.69062 10.2169 7.35062C10.0269 7.51062 9.70689 7.58063 9.24689 7.58063C8.78689 7.58063 8.21689 7.50062 7.67689 7.42062C7.21689 7.35062 6.77689 7.29063 6.44689 7.29063C6.30689 7.29063 6.19689 7.30063 6.10689 7.32063C5.84689 7.38063 5.5569 7.59063 5.2169 7.83063C4.6969 8.20063 4.0369 8.67062 3.3269 8.67062C2.9469 8.67062 2.5769 8.54062 2.2169 8.28062C1.1669 7.53062 0.306897 5.66063 0.686897 3.55063C0.936897 2.15063 1.45689 2.04063 1.91689 2.04063C1.98689 2.04063 2.04689 2.04063 2.10689 2.04063C2.16689 2.04063 2.22689 2.04063 2.28689 2.04063C2.36689 2.04063 2.43689 2.04062 2.49689 2.02062C2.68689 1.99062 2.89689 1.87063 3.13689 1.75063C3.57689 1.52063 4.12689 1.23063 4.80689 1.23063C4.96689 1.23063 5.12689 1.25062 5.28689 1.28062C5.77689 1.38062 6.1769 1.43063 6.5469 1.43063C7.1269 1.43063 7.61689 1.32063 8.30689 1.16063L8.55689 1.10062C8.71689 1.06062 8.87689 1.05063 9.03689 1.05063M9.03689 0.890625C8.86689 0.890625 8.69689 0.910623 8.52689 0.950623C7.69689 1.14062 7.17689 1.27062 6.55689 1.27062C6.20689 1.27062 5.8169 1.23062 5.3269 1.13062C5.1469 1.09062 4.9769 1.08063 4.8169 1.08063C3.7169 1.08063 2.9569 1.79062 2.4869 1.88062C2.4269 1.89062 2.3669 1.89062 2.2969 1.89062C2.1869 1.89062 2.05689 1.89062 1.92689 1.89062C1.40689 1.89062 0.806897 2.04062 0.546897 3.53062C0.176897 5.61062 0.996894 7.58063 2.13689 8.41063C2.55689 8.71063 2.95689 8.83063 3.33689 8.83063C4.54689 8.83063 5.5169 7.63063 6.1569 7.48063C6.2469 7.46063 6.3469 7.45062 6.4669 7.45062C7.1569 7.45062 8.3369 7.74062 9.2669 7.74062C9.7069 7.74062 10.0869 7.67063 10.3269 7.47063C11.1569 6.78063 11.2069 5.22062 11.1569 3.35062C11.1169 1.73062 10.1469 0.890625 9.0469 0.890625H9.03689Z" fill="#5E5E5A"/>
<mask id="mask0_229_2004" style="mask-type:luminance" maskUnits="userSpaceOnUse" x="0" y="0" width="12" height="9">
<path d="M2.13758 8.39034C0.987583 7.57034 0.177587 5.60035 0.547587 3.51035C0.917587 1.43035 1.94759 1.97035 2.48759 1.87035C3.02759 1.77035 3.95759 0.850347 5.32759 1.12035C6.70759 1.40035 7.22758 1.23035 8.52758 0.940346C9.82758 0.640346 11.1076 1.48034 11.1476 3.34034C11.1976 5.20034 11.1476 6.77034 10.3176 7.46034C9.48759 8.15034 6.97758 7.26034 6.14758 7.46034C5.31758 7.66034 3.89759 9.66034 2.12759 8.39034H2.13758Z" fill="white"/>
</mask>
<g mask="url(#mask0_229_2004)">
<path opacity="0.75" d="M-1.45093 6.42045C-1.45093 6.42045 1.75906 7.97045 1.75906 5.29045C1.75906 2.92045 -1.43092 4.19045 -1.43092 4.19045L-1.46094 6.42045H-1.45093Z" fill="#E62C2F" stroke="#E62C2F" stroke-width="0.2" stroke-linecap="round" stroke-linejoin="round"/>
</g>
</svg>
