<svg width="7" height="19" viewBox="0 0 7 19" fill="none" xmlns="http://www.w3.org/2000/svg">
<path d="M1.88109 12.9201C2.76109 9.45012 2.94109 6.27012 2.93109 2.33012C2.93109 1.80012 3.09109 1.27012 3.42109 0.850122C3.85109 0.310122 4.19109 0.400122 4.45109 0.950122C4.62109 1.31012 4.62109 1.71012 4.65109 2.11012C5.07109 7.10012 5.24109 9.12012 5.36109 12.9201H1.87109H1.88109Z" fill="#F4DE9C" stroke="#5E5E5A" stroke-width="0.15" stroke-linecap="round" stroke-linejoin="round"/>
<path d="M1.88108 12.7802C0.891075 14.1702 0.681078 15.6402 1.07108 17.1702C1.20108 17.7002 1.64108 18.1102 2.18108 18.2202C3.08108 18.4002 4.30108 18.3102 5.49108 18.2402C6.53108 18.2402 6.52108 17.5202 6.40108 16.8102C6.30108 15.6702 6.08108 14.5602 5.73108 13.4802C5.64108 13.1902 5.49108 12.9302 5.29108 12.7002C5.12108 12.5002 4.90108 12.3402 4.66108 12.2202C3.74108 11.7902 2.82108 11.9802 1.89108 12.7802H1.88108Z" fill="white" stroke="#5E5E5A" stroke-width="0.15" stroke-linecap="round" stroke-linejoin="round"/>
<mask id="mask0_229_2115" style="mask-type:luminance" maskUnits="userSpaceOnUse" x="0" y="11" width="7" height="8">
<path d="M1.88108 12.7802C0.891075 14.1702 0.681078 15.6402 1.07108 17.1702C1.20108 17.7002 1.64108 18.1102 2.18108 18.2202C3.08108 18.4002 4.30108 18.3102 5.49108 18.2402C6.53108 18.2402 6.52108 17.5202 6.40108 16.8102C6.30108 15.6702 6.08108 14.5602 5.73108 13.4802C5.64108 13.1902 5.49108 12.9302 5.29108 12.7002C5.12108 12.5002 4.90108 12.3402 4.66108 12.2202C3.74108 11.7902 2.82108 11.9802 1.89108 12.7802H1.88108Z" fill="white"/>
</mask>
<g mask="url(#mask0_229_2115)">
<path opacity="0.75" d="M-0.320312 14.7299C-0.320312 14.7299 1.74969 13.7299 1.74969 15.4599C1.74969 16.9899 -0.300316 16.1699 -0.300316 16.1699L-0.320312 14.7399V14.7299Z" fill="#E62C2F" stroke="#E62C2F" stroke-width="0.2" stroke-linecap="round" stroke-linejoin="round"/>
</g>
</svg>
