<svg width="7" height="22" viewBox="0 0 7 22" fill="none" xmlns="http://www.w3.org/2000/svg">
<path d="M1.32031 14.5705C2.12031 11.2005 2.49031 7.25046 2.68031 1.90046C2.70031 1.34046 2.99031 0.810455 3.50031 0.570455C3.88031 0.390455 4.19031 0.450456 4.43031 0.760456C4.60031 0.980456 4.67031 1.27045 4.66031 1.56045C4.42031 6.37045 4.72031 10.4505 5.59031 14.5805H1.32031V14.5705Z" fill="#F4DE9C" stroke="#5E5E5A" stroke-width="0.15" stroke-linecap="round" stroke-linejoin="round"/>
<path d="M1.32051 14.5604C1.54051 14.2304 1.81051 13.9404 2.14051 13.7104C3.23051 12.9304 4.35052 13.0404 5.49052 14.2204C6.26052 15.4604 6.64051 16.7104 6.36051 17.9404C6.00051 19.1504 5.32051 20.1104 4.41051 20.9004C4.09051 21.1804 3.68051 21.3204 3.26051 21.3204H2.99052C2.81052 21.3204 2.62051 21.3004 2.45051 21.2404C0.630514 20.6204 0.110512 18.7804 0.780512 15.8504C0.880512 15.3904 1.07052 14.9504 1.33052 14.5604H1.32051Z" fill="white" stroke="#5E5E5A" stroke-width="0.15" stroke-linecap="round" stroke-linejoin="round"/>
<mask id="mask0_229_2107" style="mask-type:luminance" maskUnits="userSpaceOnUse" x="0" y="13" width="7" height="9">
<path d="M1.32051 14.5604C1.54051 14.2304 1.81051 13.9404 2.14051 13.7104C3.23051 12.9304 4.35052 13.0404 5.49052 14.2204C6.26052 15.4604 6.64051 16.7104 6.36051 17.9404C6.00051 19.1504 5.32051 20.1104 4.41051 20.9004C4.09051 21.1804 3.68051 21.3204 3.26051 21.3204H2.99052C2.81052 21.3204 2.62051 21.3004 2.45051 21.2404C0.630514 20.6204 0.110512 18.7804 0.780512 15.8504C0.880512 15.3904 1.07052 14.9504 1.33052 14.5604H1.32051Z" fill="white"/>
</mask>
<g mask="url(#mask0_229_2107)">
<path opacity="0.75" d="M-0.828125 16.5106C-0.828125 16.5106 1.47188 15.4006 1.47188 17.3206C1.47188 19.0206 -0.808125 18.1106 -0.808125 18.1106L-0.828125 16.5106Z" fill="#E62C2F" stroke="#E62C2F" stroke-width="0.2" stroke-linecap="round" stroke-linejoin="round"/>
</g>
</svg>
