<svg width="8" height="20" viewBox="0 0 8 20" fill="none" xmlns="http://www.w3.org/2000/svg">
<path d="M6.90938 13.9396C5.96938 10.5796 5.22937 6.73961 5.24937 1.62961C5.24937 1.15961 5.08937 0.689609 4.74937 0.349609C4.33937 -0.0503913 3.99937 0.139608 3.74937 1.05961C3.12937 6.31961 2.49937 9.55961 1.85938 13.5396V13.9396H6.90938Z" fill="#F4DE9C" stroke="#5E5E5A" stroke-width="0.15" stroke-linecap="round" stroke-linejoin="round"/>
<path d="M1.86063 13.5496C1.69063 13.7696 1.55063 14.0096 1.45063 14.2696C0.470629 16.6296 -0.0693691 18.7096 1.85063 19.2796C3.69063 19.3396 5.53063 19.3996 6.44063 19.0596C7.62063 18.1896 7.81064 16.8096 7.41064 15.1396C7.31064 14.7196 7.14064 14.3096 6.91064 13.9496C6.45064 13.2196 5.74063 12.6696 4.88063 12.4696C4.50063 12.3796 4.12063 12.3596 3.75063 12.4096C2.99063 12.5196 2.32063 12.9496 1.86063 13.5496Z" fill="white" stroke="#5E5E5A" stroke-width="0.15" stroke-linecap="round" stroke-linejoin="round"/>
<mask id="mask0_229_1577" style="mask-type:luminance" maskUnits="userSpaceOnUse" x="0" y="12" width="8" height="8">
<path d="M1.86063 13.5496C1.69063 13.7696 1.55063 14.0096 1.45063 14.2696C0.470629 16.6296 -0.0693691 18.7096 1.85063 19.2796C3.69063 19.3396 5.53063 19.3996 6.44063 19.0596C7.62063 18.1896 7.81064 16.8096 7.41064 15.1396C7.31064 14.7196 7.14064 14.3096 6.91064 13.9496C6.45064 13.2196 5.74063 12.6696 4.88063 12.4696C4.50063 12.3796 4.12063 12.3596 3.75063 12.4096C2.99063 12.5196 2.32063 12.9496 1.86063 13.5496Z" fill="white"/>
</mask>
<g mask="url(#mask0_229_1577)">
<path opacity="0.75" d="M-0.210938 16.7895C-0.210938 16.7895 1.85906 17.8595 1.85906 16.0095C1.85906 14.3695 -0.190941 15.2495 -0.190941 15.2495L-0.210938 16.7895Z" fill="#E62C2F" stroke="#E62C2F" stroke-width="0.2" stroke-linecap="round" stroke-linejoin="round"/>
</g>
</svg>
