<svg width="14" height="20" viewBox="0 0 14 20" fill="none" xmlns="http://www.w3.org/2000/svg">
<path d="M8.28827 8.25989C7.64827 6.71989 7.57828 4.27989 7.70828 1.52989C7.72828 1.16989 7.63828 0.789887 7.40828 0.509887C7.07828 0.0998874 6.72828 0.209887 6.35828 0.669887C6.22828 0.829887 6.16828 1.02989 6.15828 1.22989C6.05828 3.46989 5.27828 5.99989 4.23828 8.64989V10.6199H8.28827V8.25989Z" fill="#F4DE9C" stroke="#5E5E5A" stroke-width="0.15" stroke-linecap="round" stroke-linejoin="round"/>
<path d="M8.87701 13.4703C10.737 10.3203 12.217 6.34034 13.347 2.23034C13.467 1.77034 13.387 1.26034 13.067 0.910339C12.747 0.550339 12.407 0.600339 12.047 1.21034C11.157 3.99034 9.957 6.41034 8.277 8.25034C6.827 9.52034 5.42701 9.69034 4.09701 8.73034C4.05701 8.70034 4.02701 8.67034 3.98701 8.64034C2.73701 6.98034 2.58701 4.49034 2.79701 1.72034C2.82701 1.29034 2.73701 0.85034 2.46701 0.51034C2.17701 0.14034 1.87701 0.160339 1.56701 0.570339C1.39701 0.810339 1.28701 1.09034 1.23701 1.38034C0.407011 5.91034 0.487005 10.0103 1.887 13.4503H8.87701V13.4703Z" fill="#F4DE9C" stroke="#5E5E5A" stroke-width="0.15" stroke-linecap="round" stroke-linejoin="round"/>
<path d="M1.88884 13.4701C1.75884 13.6201 1.62884 13.7701 1.49884 13.9401C0.388842 15.5601 -0.271152 17.1001 1.09885 18.3201C2.04885 19.0501 3.43884 19.2501 4.97884 19.2701C5.24884 19.2701 5.47884 19.1201 5.61884 18.9001C5.89884 18.4701 6.42884 18.6701 7.05884 19.1001C7.24884 19.2301 7.46884 19.3101 7.69884 19.3201C8.23884 19.3501 8.69884 19.2401 9.11884 19.0101C10.0488 18.5101 10.5488 17.4701 10.4788 16.4201C10.4588 16.0101 10.3888 15.6101 10.2888 15.2201C10.0988 14.4201 9.62884 13.7201 8.96884 13.2301C6.27884 11.2701 3.89884 11.2301 1.88884 13.4801V13.4701Z" fill="white" stroke="#5E5E5A" stroke-width="0.15" stroke-linecap="round" stroke-linejoin="round"/>
<mask id="mask0_229_1543" style="mask-type:luminance" maskUnits="userSpaceOnUse" x="0" y="11" width="11" height="9">
<path d="M1.88884 13.4701C1.75884 13.6201 1.62884 13.7701 1.49884 13.9401C0.388842 15.5601 -0.271152 17.1001 1.09885 18.3201C2.04885 19.0501 3.43884 19.2501 4.97884 19.2701C5.24884 19.2701 5.47884 19.1201 5.61884 18.9001C5.89884 18.4701 6.42884 18.6701 7.05884 19.1001C7.24884 19.2301 7.46884 19.3101 7.69884 19.3201C8.23884 19.3501 8.69884 19.2401 9.11884 19.0101C10.0488 18.5101 10.5488 17.4701 10.4788 16.4201C10.4588 16.0101 10.3888 15.6101 10.2888 15.2201C10.0988 14.4201 9.62884 13.7201 8.96884 13.2301C6.27884 11.2701 3.89884 11.2301 1.88884 13.4801V13.4701Z" fill="white"/>
</mask>
<g mask="url(#mask0_229_1543)">
<path opacity="0.75" d="M-1.48047 16.8205C-1.48047 16.8205 1.57953 18.3005 1.57953 15.7505C1.57953 13.4905 -1.45047 14.7005 -1.45047 14.7005L-1.48047 16.8205Z" fill="#E62C2F" stroke="#E62C2F" stroke-width="0.2" stroke-linecap="round" stroke-linejoin="round"/>
</g>
</svg>
