<svg width="12" height="19" viewBox="0 0 12 19" fill="none" xmlns="http://www.w3.org/2000/svg">
<path d="M9.48867 7.65981C10.4887 10.8298 11.2487 13.8298 11.1787 16.2898C11.1687 16.7898 11.0587 17.2898 10.8387 17.7398C10.5387 18.3298 10.2187 18.4198 9.86866 17.9398C9.70866 17.7098 9.59867 17.4398 9.54867 17.1598L8.70868 13.2198C8.50868 12.3098 7.97866 11.4798 7.17866 10.9998C6.65866 10.6898 6.11868 10.5698 5.56868 10.6598C4.91868 10.7698 4.35867 11.1698 3.98867 11.7098C3.20867 12.8098 1.52867 16.0098 1.52867 16.0098C0.748667 17.1298 0.288671 17.0698 0.188671 15.7198C0.138671 14.0398 1.69867 10.3598 3.16867 7.5498L9.51867 7.65981H9.48867Z" fill="#F4DE9C" stroke="#5E5E5A" stroke-width="0.15" stroke-linecap="round" stroke-linejoin="round"/>
<path d="M6.24914 8.97993C5.49914 8.97993 4.76914 8.73993 4.05914 8.25993C3.73914 8.03993 3.44914 7.78992 3.18914 7.49992C2.71914 6.98992 2.34915 6.36993 2.06915 5.65993C1.36915 3.85993 1.41915 2.44992 2.20915 1.46992C2.66915 1.10992 3.20914 0.919922 3.79914 0.919922C4.22914 0.919922 4.68913 1.01992 5.17913 1.20992C5.68913 1.57992 6.13914 1.75993 6.54914 1.75993C6.82914 1.75993 7.08914 1.66993 7.30914 1.47993C7.80914 1.23993 8.26913 1.10992 8.67913 1.10992C9.18913 1.10992 9.60913 1.29992 9.97913 1.67992C10.3191 2.03992 10.5391 2.55993 10.5891 3.11993C10.7091 4.44993 10.5591 5.56993 10.1591 6.54993C9.99914 6.93993 9.75914 7.28992 9.43914 7.59992C9.29914 7.72992 9.15913 7.84992 9.00913 7.95992C8.05913 8.62992 7.13913 8.97993 6.25913 8.97993H6.24914Z" fill="white"/>
<path d="M3.80877 0.990074C4.21877 0.990074 4.66877 1.08008 5.14877 1.26008C5.67877 1.64008 6.13877 1.83008 6.55877 1.83008C6.85877 1.83008 7.12877 1.73008 7.33877 1.55008C7.83877 1.30008 8.29878 1.18008 8.68878 1.18008C9.17878 1.18008 9.57877 1.36008 9.92877 1.73008C10.2588 2.08008 10.4688 2.58007 10.5188 3.13007C10.6288 4.45007 10.4888 5.55007 10.0888 6.52007C9.92877 6.90007 9.69878 7.24008 9.38878 7.55008C9.25878 7.68008 9.11878 7.80008 8.96878 7.90008C8.03878 8.56008 7.11877 8.90008 6.25877 8.90008C5.52877 8.90008 4.80878 8.66008 4.10878 8.19008C3.79878 7.98008 3.50878 7.73008 3.24878 7.44008C2.78878 6.93008 2.41877 6.32007 2.14877 5.63007C1.45877 3.85007 1.49878 2.47008 2.24878 1.54008C2.70878 1.18008 3.22877 0.990074 3.80877 0.990074ZM3.80877 0.840073C3.18877 0.840073 2.63878 1.03007 2.15878 1.42007C1.33878 2.43007 1.29877 3.85008 2.00877 5.68008C2.27877 6.37008 2.64878 7.01008 3.13878 7.54008C3.39878 7.83008 3.69878 8.09007 4.02878 8.31007C4.75878 8.80007 5.49877 9.05008 6.25877 9.05008C7.16877 9.05008 8.09877 8.70007 9.05877 8.02007C9.21877 7.91007 9.35878 7.79008 9.49878 7.65008C9.80878 7.34008 10.0688 6.98008 10.2388 6.57008C10.6688 5.53008 10.7888 4.37008 10.6788 3.11008C10.6288 2.56008 10.4288 2.02008 10.0488 1.62008C9.66878 1.21008 9.20877 1.02007 8.69877 1.02007C8.26877 1.02007 7.78878 1.15008 7.27878 1.41008C7.05878 1.59008 6.81878 1.67007 6.56878 1.67007C6.15878 1.67007 5.70877 1.46008 5.22877 1.12008C4.72877 0.930079 4.25878 0.830078 3.81878 0.830078L3.80877 0.840073Z" fill="#5E5E5A"/>
<mask id="mask0_229_1465" style="mask-type:luminance" maskUnits="userSpaceOnUse" x="1" y="0" width="10" height="10">
<path d="M9.48878 7.66024C9.79878 7.35024 10.0588 6.99023 10.2288 6.58023C10.6588 5.54023 10.7788 4.38023 10.6688 3.12023C10.6188 2.57023 10.4188 2.03023 10.0388 1.63023C9.32877 0.880229 8.38878 0.87023 7.26878 1.42023C6.70878 1.89023 5.99878 1.69023 5.21878 1.13023C4.00878 0.660229 2.98878 0.76023 2.15878 1.42023C1.33878 2.43023 1.29877 3.85023 2.00877 5.68023C2.27877 6.37023 2.64878 7.01023 3.13878 7.54023C3.39878 7.83023 3.69878 8.09023 4.02878 8.31023C5.61878 9.39023 7.29877 9.28023 9.05877 8.02023C9.21877 7.91023 9.35878 7.79023 9.49878 7.65023L9.48878 7.66024Z" fill="white"/>
</mask>
<g mask="url(#mask0_229_1465)">
<path opacity="0.75" d="M0.0976562 5.73048C0.0976562 5.73048 2.90765 7.09047 2.90765 4.74047C2.90765 2.66047 0.117645 3.77047 0.117645 3.77047L0.0976562 5.72048V5.73048Z" fill="#E62C2F" stroke="#E62C2F" stroke-width="0.2" stroke-linecap="round" stroke-linejoin="round"/>
</g>
</svg>
