<svg width="13" height="20" viewBox="0 0 13 20" fill="none" xmlns="http://www.w3.org/2000/svg">
<path d="M9.37217 8.25024C11.2022 10.8802 12.1422 14.4502 12.1422 18.1802C12.0822 19.2702 11.7422 19.5102 11.1822 19.0402C10.8422 18.7602 10.6222 18.3502 10.5322 17.9202C9.98218 15.4902 9.21219 13.4602 8.07219 12.0702C6.74219 10.7302 5.60219 10.8002 4.60219 11.8502C3.32219 13.0102 2.65218 14.8702 2.30218 17.0802C2.25218 17.4102 2.14218 17.7402 1.95218 18.0202C1.57218 18.5902 1.18218 18.6302 0.782178 18.0902C0.582178 17.8202 0.472178 17.5002 0.422178 17.1702C0.0121775 14.0902 0.552179 11.1602 2.00218 8.37024C2.02218 8.33024 2.04219 8.29023 2.07219 8.24023H9.37217V8.25024Z" fill="#F4DE9C" stroke="#5E5E5A" stroke-width="0.15" stroke-linecap="round" stroke-linejoin="round"/>
<path d="M9.4611 8.58012C9.9111 8.34012 10.2911 7.98012 10.5011 7.51012C10.6711 7.16012 10.7711 6.79011 10.8011 6.40012C10.9811 5.30011 10.9511 4.17011 10.7711 3.03011C10.7011 2.62011 10.5211 2.24012 10.2311 1.94012C9.76108 1.46012 9.29109 1.14011 8.80109 1.07011C8.06109 0.820113 7.35108 0.910113 6.65108 1.28011H6.58109C6.09109 1.51011 5.62108 1.50011 5.15108 1.28011C3.60108 0.790112 2.15109 0.690112 0.891088 1.35011C0.541088 1.60011 0.291083 2.12012 0.151083 2.98012C0.0210828 4.74012 0.591092 6.40011 1.66109 7.97011C1.76109 8.12011 1.87109 8.25012 2.00109 8.37012C2.18109 8.54012 2.39108 8.68011 2.62108 8.79011C4.99108 9.87011 7.2611 9.77012 9.4611 8.58012Z" fill="white" stroke="#5E5E5A" stroke-width="0.15" stroke-linecap="round" stroke-linejoin="round"/>
<mask id="mask0_229_1457" style="mask-type:luminance" maskUnits="userSpaceOnUse" x="0" y="0" width="11" height="10">
<path d="M9.4611 8.58012C9.9111 8.34012 10.2911 7.98012 10.5011 7.51012C10.6711 7.16012 10.7711 6.79011 10.8011 6.40012C10.9811 5.30011 10.9511 4.17011 10.7711 3.03011C10.7011 2.62011 10.5211 2.24012 10.2311 1.94012C9.76108 1.46012 9.29109 1.14011 8.80109 1.07011C8.06109 0.820113 7.35108 0.910113 6.65108 1.28011H6.58109C6.09109 1.51011 5.62108 1.50011 5.15108 1.28011C3.60108 0.790112 2.15109 0.690112 0.891088 1.35011C0.541088 1.60011 0.291083 2.12012 0.151083 2.98012C0.0210828 4.74012 0.591092 6.40011 1.66109 7.97011C1.76109 8.12011 1.87109 8.25012 2.00109 8.37012C2.18109 8.54012 2.39108 8.68011 2.62108 8.79011C4.99108 9.87011 7.2611 9.77012 9.4611 8.58012Z" fill="white"/>
</mask>
<g mask="url(#mask0_229_1457)">
<path opacity="0.75" d="M-1.38063 6.22011C-1.38063 6.22011 1.64937 7.69011 1.64937 5.15011C1.64937 2.91011 -1.36063 4.11011 -1.36063 4.11011L-1.39062 6.22011H-1.38063Z" fill="#E62C2F" stroke="#E62C2F" stroke-width="0.2" stroke-linecap="round" stroke-linejoin="round"/>
</g>
</svg>
