<svg width="5" height="19" viewBox="0 0 5 19" fill="none" xmlns="http://www.w3.org/2000/svg">
<path d="M3.99972 7.62988H1.19972C1.19972 7.62988 1.19972 7.81989 1.19972 7.82989C1.58972 11.0599 1.64972 14.1199 1.19972 16.9199C1.02972 18.1899 1.32972 18.3599 1.89972 17.8399C2.29972 17.4799 2.59972 17.0099 2.76972 16.4899C3.49972 14.2699 3.84972 11.1799 3.98972 7.62988" fill="#F4DE9C"/>
<path d="M3.99972 7.62988H1.19972C1.19972 7.62988 1.19972 7.81989 1.19972 7.82989C1.58972 11.0599 1.64972 14.1199 1.19972 16.9199C1.02972 18.1899 1.32972 18.3599 1.89972 17.8399C2.29972 17.4799 2.59972 17.0099 2.76972 16.4899C3.49972 14.2699 3.84972 11.1799 3.98972 7.62988" stroke="#5E5E5A" stroke-width="0.15" stroke-linecap="round" stroke-linejoin="round"/>
<path d="M1.2111 7.82021C1.0011 7.42021 0.901096 6.97021 0.881096 6.52021L0.751099 3.05021C0.701099 2.25021 1.0311 1.85021 1.5011 1.55021C2.2111 1.04021 3.23109 0.810212 4.09109 0.860212C4.69109 1.05021 4.7111 0.910214 4.7911 1.44021C4.8311 1.69021 4.8411 1.94021 4.8211 2.19021C4.7111 3.79021 4.5511 5.26021 4.3911 6.63021C4.3511 7.00021 4.2111 7.34021 3.9911 7.64021C3.9711 7.67021 3.9411 7.70021 3.9211 7.74021C2.8911 9.01021 2.03109 9.11021 1.34109 8.07021C1.29109 8.00021 1.2411 7.92021 1.2011 7.84021" fill="white"/>
<path d="M1.2111 7.82021C1.0011 7.42021 0.901096 6.97021 0.881096 6.52021L0.751099 3.05021C0.701099 2.25021 1.0311 1.85021 1.5011 1.55021C2.2111 1.04021 3.23109 0.810212 4.09109 0.860212C4.69109 1.05021 4.7111 0.910214 4.7911 1.44021C4.8311 1.69021 4.8411 1.94021 4.8211 2.19021C4.7111 3.79021 4.5511 5.26021 4.3911 6.63021C4.3511 7.00021 4.2111 7.34021 3.9911 7.64021C3.9711 7.67021 3.9411 7.70021 3.9211 7.74021C2.8911 9.01021 2.03109 9.11021 1.34109 8.07021C1.29109 8.00021 1.2411 7.92021 1.2011 7.84021" stroke="#5E5E5A" stroke-width="0.15" stroke-linecap="round" stroke-linejoin="round"/>
<mask id="mask0_229_1533" style="mask-type:luminance" maskUnits="userSpaceOnUse" x="0" y="0" width="5" height="9">
<path d="M1.2111 7.82021C1.0011 7.42021 0.901096 6.97021 0.881096 6.52021L0.751099 3.05021C0.701099 2.25021 1.0311 1.85021 1.5011 1.55021C2.2111 1.04021 3.23109 0.810212 4.09109 0.860212C4.69109 1.05021 4.7111 0.910214 4.7911 1.44021C4.8311 1.69021 4.8411 1.94021 4.8211 2.19021C4.7111 3.79021 4.5511 5.26021 4.3911 6.63021C4.3511 7.00021 4.2111 7.34021 3.9911 7.64021C3.9711 7.67021 3.9411 7.70021 3.9211 7.74021C2.8911 9.01021 2.03109 9.11021 1.34109 8.07021C1.29109 8.00021 1.2411 7.92021 1.2011 7.84021" fill="white"/>
</mask>
<g mask="url(#mask0_229_1533)">
<path opacity="0.75" d="M-0.388435 4.37977C-0.388435 4.37977 1.65157 3.38977 1.65157 5.09977C1.65157 6.60977 -0.378433 5.79978 -0.378433 5.79978L-0.398438 4.37977H-0.388435Z" fill="#E62C2F" stroke="#E62C2F" stroke-width="0.2" stroke-linecap="round" stroke-linejoin="round"/>
</g>
</svg>
