<svg width="6" height="19" viewBox="0 0 6 19" fill="none" xmlns="http://www.w3.org/2000/svg">
<path d="M0.738281 7.2002V7.6902C1.28828 11.1402 1.47828 14.4202 1.13828 17.4702C1.01828 18.7702 1.30828 19.1002 1.91828 18.6902C2.36828 18.3902 2.67828 17.9102 2.83828 17.3902C3.68828 14.6602 4.15828 11.1602 4.39828 7.2002H0.738281Z" fill="#F4DE9C" stroke="#5E5E5A" stroke-width="0.15" stroke-linecap="round" stroke-linejoin="round"/>
<path d="M4.40015 7.20985C4.30015 7.42985 4.16015 7.63985 3.99015 7.80985C3.28015 8.51985 2.57015 8.75985 1.84015 8.55985C1.36015 8.42985 0.98015 8.10984 0.74015 7.69984C0.58015 7.42984 0.480152 7.11985 0.460152 6.79985L0.160156 3.20985C0.210156 2.66985 0.34015 2.19985 0.56015 1.79985C0.80015 1.36985 1.26015 1.08985 1.76015 1.05985L4.23016 0.89985C4.86016 0.86985 5.06015 1.02985 5.03015 1.80985C5.03015 2.00985 5.01015 2.20985 5.02015 2.40985C5.06015 3.99985 4.94015 5.40985 4.58015 6.53985C4.56015 6.76985 4.50015 6.99985 4.40015 7.20985Z" fill="white" stroke="#5E5E5A" stroke-width="0.15" stroke-linecap="round" stroke-linejoin="round"/>
<mask id="mask0_229_1525" style="mask-type:luminance" maskUnits="userSpaceOnUse" x="0" y="0" width="6" height="9">
<path d="M4.40015 7.20985C4.30015 7.42985 4.16015 7.63985 3.99015 7.80985C3.28015 8.51985 2.57015 8.75985 1.84015 8.55985C1.36015 8.42985 0.98015 8.10984 0.74015 7.69984C0.58015 7.42984 0.480152 7.11985 0.460152 6.79985L0.160156 3.20985C0.210156 2.66985 0.34015 2.19985 0.56015 1.79985C0.80015 1.36985 1.26015 1.08985 1.76015 1.05985L4.23016 0.89985C4.86016 0.86985 5.06015 1.02985 5.03015 1.80985C5.03015 2.00985 5.01015 2.20985 5.02015 2.40985C5.06015 3.99985 4.94015 5.40985 4.58015 6.53985C4.56015 6.76985 4.50015 6.99985 4.40015 7.20985Z" fill="white"/>
</mask>
<g mask="url(#mask0_229_1525)">
<path opacity="0.75" d="M-0.880623 4.36954C-0.880623 4.36954 1.18938 3.36953 1.18938 5.09953C1.18938 6.62953 -0.870628 5.80953 -0.870628 5.80953L-0.890625 4.36954H-0.880623Z" fill="#E62C2F" stroke="#E62C2F" stroke-width="0.2" stroke-linecap="round" stroke-linejoin="round"/>
</g>
</svg>
