<svg width="12" height="19" viewBox="0 0 12 19" fill="none" xmlns="http://www.w3.org/2000/svg">
<path d="M2.37807 7.65981C1.37807 10.8298 0.618067 13.8298 0.688067 16.2898C0.698067 16.7898 0.808067 17.2898 1.02807 17.7398C1.32807 18.3298 1.64807 18.4198 1.99807 17.9398C2.15807 17.7098 2.26807 17.4398 2.31807 17.1598L3.15807 13.2198C3.35807 12.3098 3.88807 11.4798 4.68807 10.9998C5.20807 10.6898 5.74807 10.5698 6.29807 10.6598C6.94807 10.7698 7.50807 11.1698 7.87807 11.7098C8.65807 12.8098 10.3381 16.0098 10.3381 16.0098C11.1181 17.1298 11.5781 17.0698 11.6781 15.7198C11.7281 14.0398 10.1681 10.3598 8.69807 7.5498L2.34807 7.65981H2.37807Z" fill="#F4DE9C" stroke="#5E5E5A" stroke-width="0.15" stroke-linecap="round" stroke-linejoin="round"/>
<path d="M2.37858 7.66024C2.06858 7.35024 1.80858 6.99023 1.63858 6.58023C1.20858 5.54023 1.08858 4.38023 1.19858 3.12023C1.24858 2.57023 1.44858 2.03023 1.82858 1.63023C2.53858 0.880229 3.47858 0.87023 4.59858 1.42023C5.15858 1.89023 5.86858 1.69023 6.64858 1.13023C7.85858 0.660229 8.87858 0.76023 9.70858 1.42023C10.5286 2.43023 10.5686 3.85023 9.85858 5.68023C9.58858 6.37023 9.21858 7.01023 8.72858 7.54023C8.46858 7.83023 8.16858 8.09023 7.83858 8.31023C6.24858 9.39023 4.56858 9.28023 2.80858 8.02023C2.64858 7.91023 2.50858 7.79023 2.36858 7.65023L2.37858 7.66024Z" fill="white" stroke="#5E5E5A" stroke-width="0.15" stroke-linecap="round" stroke-linejoin="round"/>
<mask id="mask0_229_1509" style="mask-type:luminance" maskUnits="userSpaceOnUse" x="1" y="0" width="10" height="10">
<path d="M2.37858 7.66024C2.06858 7.35024 1.80858 6.99023 1.63858 6.58023C1.20858 5.54023 1.08858 4.38023 1.19858 3.12023C1.24858 2.57023 1.44858 2.03023 1.82858 1.63023C2.53858 0.880229 3.47858 0.87023 4.59858 1.42023C5.15858 1.89023 5.86858 1.69023 6.64858 1.13023C7.85858 0.660229 8.87858 0.76023 9.70858 1.42023C10.5286 2.43023 10.5686 3.85023 9.85858 5.68023C9.58858 6.37023 9.21858 7.01023 8.72858 7.54023C8.46858 7.83023 8.16858 8.09023 7.83858 8.31023C6.24858 9.39023 4.56858 9.28023 2.80858 8.02023C2.64858 7.91023 2.50858 7.79023 2.36858 7.65023L2.37858 7.66024Z" fill="white"/>
</mask>
<g mask="url(#mask0_229_1509)">
<path opacity="0.75" d="M-0.5625 4.02034C-0.5625 4.02034 2.2475 2.66034 2.2475 5.01034C2.2475 7.09034 -0.5425 5.98035 -0.5425 5.98035L-0.5625 4.03034V4.02034Z" fill="#E62C2F" stroke="#E62C2F" stroke-width="0.2" stroke-linecap="round" stroke-linejoin="round"/>
</g>
</svg>
