<svg width="10" height="28" viewBox="0 0 10 28" fill="none" xmlns="http://www.w3.org/2000/svg">
<path d="M9.3858 20.3269C9.1358 17.7769 8.56577 15.1769 8.32578 12.5969C8.08578 10.0169 7.11579 7.9369 6.55579 4.0169C5.99579 0.106899 4.63579 -0.0731004 3.80579 1.9469C2.97579 3.9669 1.76579 9.4169 2.02579 12.4169C2.29579 15.4169 1.44578 18.8969 0.925781 20.3269H9.37579H9.3858Z" fill="#F4DE9C" stroke="#5E5E5A" stroke-width="0.15" stroke-linecap="round" stroke-linejoin="round"/>
<path d="M1.4458 26.9769C1.6758 27.0269 2.69579 27.6069 4.15579 27.4669C5.06579 27.3769 6.19578 27.7469 7.30578 27.3369C7.86578 27.1269 8.51578 27.0969 9.14578 26.8869C9.83578 26.6569 9.88579 23.9369 9.65579 21.3969C9.42579 18.8569 8.91578 19.5069 8.08578 18.0769C4.46578 11.8469 4.04579 17.4369 2.25579 17.5669C1.11579 17.6469 -0.804203 26.4569 1.4458 26.9669V26.9769Z" fill="white" stroke="#5E5E5A" stroke-width="0.15" stroke-linecap="round" stroke-linejoin="round"/>
</svg>
