<svg width="9" height="27" viewBox="0 0 9 27" fill="none" xmlns="http://www.w3.org/2000/svg">
<path d="M8.5047 19.4565C8.4347 15.7965 7.55468 11.5665 7.01468 9.70655C6.47468 7.84655 6.09468 4.56654 4.76468 1.78654C3.43468 -0.993455 2.77469 1.51655 2.90469 2.71655C3.03469 3.91655 2.29469 8.71655 1.83469 10.6665C1.37469 12.6165 1.72469 16.0765 1.05469 19.4565H8.5047Z" fill="#F4DE9C" stroke="#5E5E5A" stroke-width="0.15" stroke-linecap="round" stroke-linejoin="round"/>
<path d="M1.90328 25.5467C0.883275 24.9567 1.06326 21.9167 1.01326 20.1567C0.92326 16.7367 4.79327 13.0067 7.46327 16.9067C8.31327 18.1567 8.72328 18.5167 8.72328 21.6867C8.72328 24.8567 7.95327 27.4467 5.99327 26.2267C4.04327 25.0067 4.08327 26.8067 1.89327 25.5467H1.90328Z" fill="white" stroke="#5E5E5A" stroke-width="0.15" stroke-linecap="round" stroke-linejoin="round"/>
</svg>
