<svg width="10" height="32" viewBox="0 0 10 32" fill="none" xmlns="http://www.w3.org/2000/svg">
<path d="M7.34406 8.85658C6.57406 6.50658 5.55406 4.56657 5.25406 2.14657C4.95406 -0.273426 3.95404 -0.233425 3.42404 1.09657C2.89404 2.42657 2.37405 8.30657 2.21405 12.1266C2.05405 15.9466 2.33406 19.5466 1.66406 21.8566H8.35406C7.44407 18.5766 8.12405 11.2066 7.34406 8.85658Z" fill="#F4DE9C" stroke="#5E5E5A" stroke-width="0.15" stroke-linecap="round" stroke-linejoin="round"/>
<path d="M0.676483 28.0667C0.186483 26.0167 1.36649 23.2867 1.61649 22.0367C1.85649 20.7867 3.75648 19.1567 5.07648 19.2467C6.39648 19.3467 8.10648 20.3967 8.32648 21.2367C9.46648 25.5967 10.7065 27.8667 8.64648 30.2667C7.32648 31.7967 5.2765 31.9467 3.8165 30.6967C2.3565 29.4467 1.2265 30.3167 0.696502 28.0667H0.676483Z" fill="white" stroke="#5E5E5A" stroke-width="0.15" stroke-linecap="round" stroke-linejoin="round"/>
</svg>
