<svg width="11" height="28" viewBox="0 0 11 28" fill="none" xmlns="http://www.w3.org/2000/svg">
<path d="M6.48479 5.12652C6.28479 2.31652 6.09478 0.186523 6.57478 0.186523C8.25478 0.186523 9.23478 6.30652 9.29478 7.02652C9.40478 8.45652 9.4248 10.2965 9.4648 11.5565C9.5948 15.4265 9.85481 18.1365 9.85481 18.1365C8.51481 15.0565 7.97479 12.4765 7.73479 10.6965C7.62479 9.90652 7.14479 7.63652 6.48479 5.11652V5.12652Z" fill="#EDD091" stroke="#5E5E5A" stroke-width="0.15" stroke-linecap="round" stroke-linejoin="round"/>
<path d="M9.85672 18.1464L6.13672 18.1064L9.85672 18.1464Z" fill="#EDD091" stroke="#5E5E5A" stroke-width="0.15" stroke-linecap="round" stroke-linejoin="round"/>
<path d="M9.85672 18.1464L6.13672 18.1064L9.85672 18.1464Z" fill="#EDD091" stroke="#5E5E5A" stroke-width="0.15" stroke-linecap="round" stroke-linejoin="round"/>
<path d="M9.85565 18.1465L1.26562 18.0365C1.26562 18.0365 3.25564 10.0765 3.40564 1.82652C3.40564 1.43652 3.72564 0.186523 4.31564 0.186523C5.01564 0.186523 5.36564 1.20652 5.49564 1.62652C6.62564 5.23652 7.57563 9.55652 7.73563 10.7065C7.97563 12.4865 8.51565 15.0665 9.85565 18.1465Z" fill="#F4DE9C" stroke="#5E5E5A" stroke-width="0.15" stroke-linecap="round" stroke-linejoin="round"/>
<path d="M9.85565 18.1465L1.26562 18.0365C1.26562 18.0365 3.25564 10.0765 3.40564 1.82652C3.40564 1.43652 3.72564 0.186523 4.31564 0.186523C5.01564 0.186523 5.36564 1.20652 5.49564 1.62652C6.62564 5.23652 7.57563 9.55652 7.73563 10.7065C7.97563 12.4865 8.51565 15.0665 9.85565 18.1465Z" fill="#F4DE9C"/>
<path d="M9.85565 18.1465L1.26562 18.0365C1.26562 18.0365 3.25564 10.0765 3.40564 1.82652C3.40564 1.43652 3.72564 0.186523 4.31564 0.186523C5.01564 0.186523 5.36564 1.20652 5.49564 1.62652C6.62564 5.23652 7.57563 9.55652 7.73563 10.7065C7.97563 12.4865 8.51565 15.0665 9.85565 18.1465Z" stroke="#5E5E5A" stroke-width="0.15" stroke-linecap="round" stroke-linejoin="round"/>
<path d="M0.136719 23.4265C0.136719 21.4765 0.72671 18.4365 1.84671 17.1265C2.58671 16.2565 4.18671 15.4665 5.40671 15.6365C6.62671 15.8065 7.0667 17.2165 7.9967 17.1765C8.9167 17.1365 9.75672 16.9365 9.94672 18.6865C10.1467 20.4465 10.5367 20.5865 10.7067 21.7165C10.8767 22.8365 11.2667 23.7965 9.16672 24.6365C7.06672 25.4765 6.54671 28.0165 4.68671 27.4565C2.81671 26.8965 3.0667 25.8265 1.7467 25.3365C0.426704 24.8465 0.136719 24.1665 0.136719 23.4365V23.4265Z" fill="white" stroke="#5E5E5A" stroke-width="0.15" stroke-linecap="round" stroke-linejoin="round"/>
</svg>
