<svg width="10" height="27" viewBox="0 0 10 27" fill="none" xmlns="http://www.w3.org/2000/svg">
<path d="M9.12547 18.1463C9.12547 16.0163 8.55546 12.0863 8.14546 9.45627C7.73546 6.82627 6.18546 6.09627 6.47546 3.41627C6.76546 0.72627 5.54547 0.19627 4.48547 2.17627C3.42547 4.15627 2.77547 6.79627 3.05547 9.72627C3.33547 12.6563 2.74547 14.3763 1.10547 18.1563H9.11546L9.12547 18.1463Z" fill="#F4DE9C" stroke="#5E5E5A" stroke-width="0.15" stroke-linecap="round" stroke-linejoin="round"/>
<path d="M9.12547 18.1463C9.12547 16.0163 8.55546 12.0863 8.14546 9.45627C7.73546 6.82627 6.18546 6.09627 6.47546 3.41627C6.76546 0.72627 5.54547 0.19627 4.48547 2.17627C3.42547 4.15627 2.77547 6.79627 3.05547 9.72627C3.33547 12.6563 2.74547 14.3763 1.10547 18.1563H9.11546L9.12547 18.1463Z" fill="#F4DE9C"/>
<path d="M9.12547 18.1463C9.12547 16.0163 8.55546 12.0863 8.14546 9.45627C7.73546 6.82627 6.18546 6.09627 6.47546 3.41627C6.76546 0.72627 5.54547 0.19627 4.48547 2.17627C3.42547 4.15627 2.77547 6.79627 3.05547 9.72627C3.33547 12.6563 2.74547 14.3763 1.10547 18.1563H9.11546L9.12547 18.1463Z" stroke="#5E5E5A" stroke-width="0.15" stroke-linecap="round" stroke-linejoin="round"/>
<path d="M0.964157 24.5671C1.45416 25.3971 3.07416 25.2471 3.32416 25.9371C3.56416 26.6171 5.99416 26.9171 6.67416 25.7371C7.35416 24.5671 8.62416 24.1271 8.92416 23.0071C9.21416 21.8871 9.55416 17.4871 8.92416 17.0471C8.29416 16.6071 7.22416 17.1471 6.68416 16.5571C6.14416 15.9671 4.80415 14.3571 3.88416 15.3871C2.96415 16.4171 2.79416 17.1071 2.04416 17.2671C0.0841587 17.6771 0.614157 23.9671 0.964157 24.5671Z" fill="white" stroke="#5E5E5A" stroke-width="0.15" stroke-linecap="round" stroke-linejoin="round"/>
</svg>
