<svg width="13" height="28" viewBox="0 0 13 28" fill="none" xmlns="http://www.w3.org/2000/svg">
<path d="M8.51578 2.40642C8.28578 0.126424 6.88578 0.716424 6.78578 2.62642C6.68578 4.53642 5.82578 8.31642 4.67578 12.0664L8.69577 12.5564C9.05577 11.1764 8.75578 4.68642 8.51578 2.40642Z" fill="#F4DE9C" stroke="#5E5E5A" stroke-width="0.15" stroke-linecap="round" stroke-linejoin="round"/>
<path d="M1.65625 18.1869C2.72625 15.8369 3.22625 16.0269 2.73625 13.7769C2.24625 11.5269 1.29625 9.0169 2.78625 5.2469C4.27625 1.4769 6.55625 -0.273095 6.13625 2.3969C5.71625 5.0669 5.05625 7.90691 5.78625 9.9369C6.51625 11.9669 8.17625 12.4469 8.70625 10.1169C9.23625 7.78691 9.26625 6.0869 9.29625 4.5769C9.32625 3.0769 9.56625 -0.00309598 10.7462 1.9969C11.9162 3.9969 12.7562 7.1569 12.3362 11.2369C12.3362 11.2369 11.3762 16.4069 12.2562 18.1969H1.65625V18.1869Z" fill="#F4DE9C" stroke="#5E5E5A" stroke-width="0.15" stroke-linecap="round" stroke-linejoin="round"/>
<path d="M1.65625 18.1869C2.72625 15.8369 3.22625 16.0269 2.73625 13.7769C2.24625 11.5269 1.29625 9.0169 2.78625 5.2469C4.27625 1.4769 6.55625 -0.273095 6.13625 2.3969C5.71625 5.0669 5.05625 7.90691 5.78625 9.9369C6.51625 11.9669 8.17625 12.4469 8.70625 10.1169C9.23625 7.78691 9.26625 6.0869 9.29625 4.5769C9.32625 3.0769 9.56625 -0.00309598 10.7462 1.9969C11.9162 3.9969 12.7562 7.1569 12.3362 11.2369C12.3362 11.2369 11.3762 16.4069 12.2562 18.1969H1.65625V18.1869Z" fill="#F4DE9C"/>
<path d="M1.65625 18.1869C2.72625 15.8369 3.22625 16.0269 2.73625 13.7769C2.24625 11.5269 1.29625 9.0169 2.78625 5.2469C4.27625 1.4769 6.55625 -0.273095 6.13625 2.3969C5.71625 5.0669 5.05625 7.9069 5.78625 9.9369C6.51625 11.9669 8.17625 12.4469 8.70625 10.1169C9.23625 7.78691 9.26625 6.0869 9.29625 4.5769C9.32625 3.0769 9.56625 -0.00309598 10.7462 1.9969C11.9162 3.9969 12.7562 7.1569 12.3362 11.2369C12.3362 11.2369 11.3762 16.4069 12.2562 18.1969H1.65625V18.1869Z" stroke="#5E5E5A" stroke-width="0.15" stroke-linecap="round" stroke-linejoin="round"/>
<path d="M1.61416 18.1665C0.844156 19.5665 0.544164 24.8865 1.18416 25.8165C1.81416 26.7465 3.52416 26.8865 4.21416 26.2065C4.90416 25.5265 5.11416 26.2965 5.72416 26.6365C6.33416 26.9665 6.87417 26.3465 7.53417 26.9965C8.78417 28.2165 11.1942 27.3865 11.8842 24.5065C12.5642 21.6265 12.7142 19.0365 12.3742 18.1565C12.0342 17.2765 10.3742 18.6965 9.20417 17.6165C8.03417 16.5465 6.32416 16.5865 4.90416 17.2265C3.48416 17.8665 2.75417 16.1265 1.62417 18.1765L1.61416 18.1665Z" fill="white" stroke="#5E5E5A" stroke-width="0.15" stroke-linecap="round" stroke-linejoin="round"/>
</svg>
