<svg width="13" height="25" viewBox="0 0 13 25" fill="none" xmlns="http://www.w3.org/2000/svg">
<path d="M8.69577 2.37691C8.60577 0.376908 7.30577 0.796909 7.11577 2.46691C6.91577 4.12691 5.93578 7.37691 4.67578 10.5869L8.29578 11.2669C8.69578 10.0869 8.77577 4.38691 8.69577 2.37691Z" fill="#F4DE9C" stroke="#5E5E5A" stroke-width="0.15" stroke-linecap="round" stroke-linejoin="round"/>
<path d="M12.3045 9.18723C11.9645 7.18723 12.0845 4.31723 11.1045 1.64723C10.1245 -1.02277 9.35454 0.827229 9.60454 2.05723C9.85454 3.29723 9.35454 5.70723 8.68454 7.07723C8.01454 8.44723 7.22453 11.1872 5.80453 10.0872C4.38453 8.98723 5.17453 5.29723 5.97453 2.53723C6.77453 -0.222772 5.17453 0.467229 4.58453 1.71723C4.00453 2.96723 1.83454 6.18723 1.87454 9.67723C1.91454 13.1672 2.19453 14.4272 1.14453 16.3072L12.2945 16.4672C12.6445 13.6072 12.6545 11.1972 12.3045 9.19723V9.18723Z" fill="#F4DE9C" stroke="#5E5E5A" stroke-width="0.15" stroke-linecap="round" stroke-linejoin="round"/>
<path d="M12.3045 9.18723C11.9645 7.18723 12.0845 4.31723 11.1045 1.64723C10.1245 -1.02277 9.35454 0.827229 9.60454 2.05723C9.85454 3.29723 9.35454 5.70723 8.68454 7.07723C8.01454 8.44723 7.22453 11.1872 5.80453 10.0872C4.38453 8.98723 5.17453 5.29723 5.97453 2.53723C6.77453 -0.222772 5.17453 0.467229 4.58453 1.71723C4.00453 2.96723 1.83454 6.18723 1.87454 9.67723C1.91454 13.1672 2.19453 14.4272 1.14453 16.3072L12.2945 16.4672C12.6445 13.6072 12.6545 11.1972 12.3045 9.19723V9.18723Z" fill="#F4DE9C"/>
<path d="M12.3045 9.18723C11.9645 7.18723 12.0845 4.31723 11.1045 1.64723C10.1245 -1.02277 9.35454 0.827229 9.60454 2.05723C9.85454 3.29723 9.35454 5.70723 8.68454 7.07723C8.01454 8.44723 7.22453 11.1872 5.80453 10.0872C4.38453 8.98723 5.17453 5.29723 5.97453 2.53723C6.77453 -0.222772 5.17453 0.467229 4.58453 1.71723C4.00453 2.96723 1.83454 6.18723 1.87454 9.67723C1.91454 13.1672 2.19453 14.4272 1.14453 16.3072L12.2945 16.4672C12.6445 13.6072 12.6545 11.1972 12.3045 9.19723V9.18723Z" stroke="#5E5E5A" stroke-width="0.15" stroke-linecap="round" stroke-linejoin="round"/>
<path d="M1.40624 15.8464C-0.00376022 18.0464 -0.103763 21.6564 1.60624 22.6364C3.31624 23.6164 4.29624 22.6364 5.12624 22.8764C5.95624 23.1164 8.30624 25.6564 10.1562 23.9464C12.1462 22.1064 13.0362 16.7264 12.1562 15.5064C10.2662 12.8864 8.59623 15.9064 5.97623 14.3964C5.11623 13.8964 2.82623 13.6564 1.41623 15.8564L1.40624 15.8464Z" fill="white" stroke="#5E5E5A" stroke-width="0.15" stroke-linecap="round" stroke-linejoin="round"/>
</svg>
