<svg width="11" height="24" viewBox="0 0 11 24" fill="none" xmlns="http://www.w3.org/2000/svg">
<path d="M6.45595 2.31667C6.03595 0.35667 4.82594 0.986669 4.90594 2.65667C4.98594 4.32667 4.54594 7.69667 3.83594 11.0667L7.51595 11.1367C7.71595 9.90667 6.86594 4.26667 6.44594 2.30667L6.45595 2.31667Z" fill="#F4DE9C" stroke="#5E5E5A" stroke-width="0.15" stroke-linecap="round" stroke-linejoin="round"/>
<path d="M10.323 16.5565C9.69297 12.9765 10.263 8.04653 9.83296 6.20653C9.40296 4.36653 8.82297 1.23653 7.65297 0.876527C6.49297 0.516527 6.81296 3.57653 7.39296 6.11653C7.98296 8.65653 7.36296 10.5165 5.27296 10.8565C3.19296 11.1965 4.75297 5.88653 4.51297 2.74653C4.27297 -0.393473 2.51297 0.426527 2.68297 2.40653C2.86297 4.38653 0.872961 8.70653 0.972961 9.84653C1.07296 10.9965 1.67297 13.8065 0.792969 16.5465H10.303L10.323 16.5565Z" fill="#F4DE9C" stroke="#5E5E5A" stroke-width="0.15" stroke-linecap="round" stroke-linejoin="round"/>
<path d="M10.323 16.5565C9.69297 12.9765 10.263 8.04653 9.83296 6.20653C9.40296 4.36653 8.82297 1.23653 7.65297 0.876527C6.49297 0.516527 6.81296 3.57653 7.39296 6.11653C7.98296 8.65653 7.36296 10.5165 5.27296 10.8565C3.19296 11.1965 4.75297 5.88653 4.51297 2.74653C4.27297 -0.393473 2.51297 0.426527 2.68297 2.40653C2.86297 4.38653 0.872961 8.70653 0.972961 9.84653C1.07296 10.9965 1.67297 13.8065 0.792969 16.5465H10.303L10.323 16.5565Z" fill="#F4DE9C"/>
<path d="M10.323 16.5565C9.69297 12.9765 10.263 8.04653 9.83296 6.20653C9.40296 4.36653 8.82297 1.23653 7.65297 0.876527C6.49297 0.516527 6.81296 3.57653 7.39296 6.11653C7.98296 8.65653 7.36296 10.5165 5.27296 10.8565C3.19296 11.1965 4.75297 5.88653 4.51297 2.74653C4.27297 -0.393473 2.51297 0.426527 2.68297 2.40653C2.86297 4.38653 0.872961 8.70653 0.972961 9.84653C1.07296 10.9965 1.67297 13.8065 0.792969 16.5465H10.303L10.323 16.5565Z" stroke="#5E5E5A" stroke-width="0.15" stroke-linecap="round" stroke-linejoin="round"/>
<path d="M0.816058 16.5466C0.0460579 18.2666 0.496052 22.9166 2.21605 22.9166C3.93605 22.9166 4.36604 22.6466 5.00604 23.2966C5.64604 23.9466 6.61605 22.9766 7.15605 23.0866C7.69605 23.1966 9.66606 24.6366 10.2061 21.7466C10.7561 18.8466 10.8061 14.5466 9.13605 14.8766C5.01605 15.6766 6.02605 11.3366 2.79605 15.7366C2.20605 16.5466 1.45605 15.1166 0.806048 16.5666L0.816058 16.5466Z" fill="white" stroke="#5E5E5A" stroke-width="0.15" stroke-linecap="round" stroke-linejoin="round"/>
</svg>
