<svg width="10" height="28" viewBox="0 0 10 28" fill="none" xmlns="http://www.w3.org/2000/svg">
<path d="M0.675781 20.3269C0.925781 17.7769 1.49578 15.1769 1.73578 12.5969C1.97578 10.0169 2.9458 7.9369 3.5058 4.0169C4.0658 0.106899 5.4258 -0.0731004 6.2558 1.9469C7.0858 3.9669 8.2958 9.4169 8.0358 12.4169C7.7658 15.4169 8.6158 18.8969 9.1358 20.3269H0.685791H0.675781Z" fill="#F4DE9C" stroke="#5E5E5A" stroke-width="0.15" stroke-linecap="round" stroke-linejoin="round"/>
<path d="M8.61459 26.9769C8.38459 27.0269 7.3646 27.6069 5.9046 27.4669C4.9946 27.3769 3.86461 27.7469 2.75461 27.3369C2.19461 27.1269 1.54461 27.0969 0.914611 26.8869C0.224611 26.6569 0.174602 23.9369 0.404602 21.3969C0.634602 18.8569 1.14461 19.5069 1.97461 18.0769C5.59461 11.8469 6.0146 17.4369 7.8046 17.5669C8.9446 17.6469 10.8646 26.4569 8.61459 26.9669V26.9769Z" fill="white" stroke="#5E5E5A" stroke-width="0.15" stroke-linecap="round" stroke-linejoin="round"/>
</svg>
