<svg width="9" height="27" viewBox="0 0 9 27" fill="none" xmlns="http://www.w3.org/2000/svg">
<path d="M0.554688 19.4565C0.624688 15.7965 1.50468 11.5665 2.04468 9.70655C2.58468 7.84655 2.96468 4.56654 4.29468 1.78654C5.62468 -0.993455 6.28469 1.51655 6.15469 2.71655C6.02469 3.91655 6.7647 8.71655 7.2247 10.6665C7.6847 12.6165 7.3347 16.0765 8.0047 19.4565H0.554688Z" fill="#F4DE9C" stroke="#5E5E5A" stroke-width="0.15" stroke-linecap="round" stroke-linejoin="round"/>
<path d="M7.15594 25.5467C8.17594 24.9567 7.99593 21.9167 8.04593 20.1567C8.13593 16.7367 4.26595 13.0067 1.59595 16.9067C0.745947 18.1567 0.335938 18.5167 0.335938 21.6867C0.335938 24.8567 1.10595 27.4467 3.06595 26.2267C5.01595 25.0067 4.97595 26.8067 7.16595 25.5467H7.15594Z" fill="white" stroke="#5E5E5A" stroke-width="0.15" stroke-linecap="round" stroke-linejoin="round"/>
</svg>
