<svg width="10" height="32" viewBox="0 0 10 32" fill="none" xmlns="http://www.w3.org/2000/svg">
<path d="M2.71313 8.85658C3.48313 6.50658 4.50313 4.56657 4.80313 2.14657C5.10313 -0.273426 6.10315 -0.233425 6.63315 1.09657C7.16315 2.42657 7.68314 8.30657 7.84314 12.1266C8.00314 15.9466 7.72313 19.5466 8.39313 21.8566H1.70312C2.61313 18.5766 1.93313 11.2066 2.71313 8.85658Z" fill="#F4DE9C" stroke="#5E5E5A" stroke-width="0.15" stroke-linecap="round" stroke-linejoin="round"/>
<path d="M9.3847 28.0667C9.8747 26.0167 8.6947 23.2867 8.4447 22.0367C8.2047 20.7867 6.30468 19.1567 4.98468 19.2467C3.66468 19.3467 1.95468 20.3967 1.73468 21.2367C0.594677 25.5967 -0.6453 27.8667 1.4147 30.2667C2.7347 31.7967 4.78469 31.9467 6.24469 30.6967C7.70469 29.4467 8.83468 30.3167 9.36468 28.0667H9.3847Z" fill="white" stroke="#5E5E5A" stroke-width="0.15" stroke-linecap="round" stroke-linejoin="round"/>
</svg>
