<svg width="11" height="28" viewBox="0 0 11 28" fill="none" xmlns="http://www.w3.org/2000/svg">
<path d="M4.56531 5.12652C4.76531 2.31652 4.95531 0.186523 4.47531 0.186523C2.79531 0.186523 1.81531 6.30652 1.75531 7.02652C1.64531 8.45652 1.6253 10.2965 1.5853 11.5565C1.4553 15.4265 1.19531 18.1365 1.19531 18.1365C2.53531 15.0565 3.07531 12.4765 3.31531 10.6965C3.42531 9.90652 3.90531 7.63652 4.56531 5.11652V5.12652Z" fill="#EDD091" stroke="#5E5E5A" stroke-width="0.15" stroke-linecap="round" stroke-linejoin="round"/>
<path d="M1.20703 18.1464L4.91705 18.1064L1.20703 18.1464Z" fill="#EDD091" stroke="#5E5E5A" stroke-width="0.15" stroke-linecap="round" stroke-linejoin="round"/>
<path d="M4.56531 5.12652C4.76531 2.31652 4.95531 0.186523 4.47531 0.186523C2.79531 0.186523 1.81531 6.30652 1.75531 7.02652C1.64531 8.45652 1.6253 10.2965 1.5853 11.5565C1.4553 15.4265 1.19531 18.1365 1.19531 18.1365C2.53531 15.0565 3.07531 12.4765 3.31531 10.6965C3.42531 9.90652 3.90531 7.63652 4.56531 5.11652V5.12652Z" fill="#EDD091"/>
<path d="M4.56531 5.12652C4.76531 2.31652 4.95531 0.186523 4.47531 0.186523C2.79531 0.186523 1.81531 6.30652 1.75531 7.02652C1.64531 8.45652 1.6253 10.2965 1.5853 11.5565C1.4553 15.4265 1.19531 18.1365 1.19531 18.1365C2.53531 15.0565 3.07531 12.4765 3.31531 10.6965C3.42531 9.90652 3.90531 7.63652 4.56531 5.11652V5.12652Z" stroke="#5E5E5A" stroke-width="0.15" stroke-linecap="round" stroke-linejoin="round"/>
<path d="M1.20703 18.1464L4.91705 18.1064L1.20703 18.1464Z" fill="#EDD091" stroke="#5E5E5A" stroke-width="0.15" stroke-linecap="round" stroke-linejoin="round"/>
<path d="M1.20312 18.1465L9.79312 18.0365C9.79312 18.0365 7.80314 10.0765 7.65314 1.82652C7.65314 1.43652 7.33313 0.186523 6.74313 0.186523C6.04313 0.186523 5.69314 1.20652 5.56314 1.62652C4.43314 5.23652 3.48312 9.55652 3.32312 10.7065C3.08312 12.4865 2.54313 15.0665 1.20312 18.1465Z" fill="#F4DE9C"/>
<path d="M1.20312 18.1465L9.79312 18.0365C9.79312 18.0365 7.80314 10.0765 7.65314 1.82652C7.65314 1.43652 7.33313 0.186523 6.74313 0.186523C6.04313 0.186523 5.69314 1.20652 5.56314 1.62652C4.43314 5.23652 3.48312 9.55652 3.32312 10.7065C3.08312 12.4865 2.54313 15.0665 1.20312 18.1465Z" stroke="#5E5E5A" stroke-width="0.15" stroke-linecap="round" stroke-linejoin="round"/>
<path d="M10.9241 23.4265C10.9241 21.4765 10.3342 18.4365 9.21415 17.1265C8.47415 16.2565 6.87416 15.4665 5.65416 15.6365C4.43416 15.8065 3.99416 17.2165 3.06416 17.1765C2.14416 17.1365 1.30415 16.9365 1.11415 18.6865C0.914147 20.4465 0.524168 20.5865 0.354168 21.7165C0.184168 22.8365 -0.205854 23.7965 1.89415 24.6365C3.99415 25.4765 4.51416 28.0165 6.37416 27.4565C8.24416 26.8965 7.99416 25.8265 9.31416 25.3365C10.6342 24.8465 10.9241 24.1665 10.9241 23.4365V23.4265Z" fill="white" stroke="#5E5E5A" stroke-width="0.15" stroke-linecap="round" stroke-linejoin="round"/>
</svg>
