<svg width="10" height="27" viewBox="0 0 10 27" fill="none" xmlns="http://www.w3.org/2000/svg">
<path d="M0.925781 18.1463C0.925781 16.0163 1.49579 12.0863 1.90579 9.45627C2.31579 6.82627 3.86578 6.09627 3.57578 3.41627C3.28578 0.72627 4.5058 0.19627 5.5658 2.17627C6.6258 4.15627 7.27579 6.79627 6.99579 9.72627C6.71579 12.6563 7.3058 14.3763 8.9458 18.1563H0.935791L0.925781 18.1463Z" fill="#F4DE9C" stroke="#5E5E5A" stroke-width="0.15" stroke-linecap="round" stroke-linejoin="round"/>
<path d="M0.925781 18.1463C0.925781 16.0163 1.49579 12.0863 1.90579 9.45627C2.31579 6.82627 3.86578 6.09627 3.57578 3.41627C3.28578 0.72627 4.5058 0.19627 5.5658 2.17627C6.6258 4.15627 7.27579 6.79627 6.99579 9.72627C6.71579 12.6563 7.3058 14.3763 8.9458 18.1563H0.935791L0.925781 18.1463Z" fill="#F4DE9C"/>
<path d="M0.925781 18.1463C0.925781 16.0163 1.49579 12.0863 1.90579 9.45627C2.31579 6.82627 3.86578 6.09627 3.57578 3.41627C3.28578 0.72627 4.5058 0.19627 5.5658 2.17627C6.6258 4.15627 7.27579 6.79627 6.99579 9.72627C6.71579 12.6563 7.3058 14.3763 8.9458 18.1563H0.935791L0.925781 18.1463Z" stroke="#5E5E5A" stroke-width="0.15" stroke-linecap="round" stroke-linejoin="round"/>
<path d="M9.09341 24.5671C8.60341 25.3971 6.9834 25.2471 6.7334 25.9371C6.4934 26.6171 4.06342 26.9171 3.38342 25.7371C2.70342 24.5671 1.43342 24.1271 1.13342 23.0071C0.843422 21.8871 0.503422 17.4871 1.13342 17.0471C1.76342 16.6071 2.83341 17.1471 3.37341 16.5571C3.91341 15.9671 5.2534 14.3571 6.1734 15.3871C7.0934 16.4171 7.2634 17.1071 8.0134 17.2671C9.9734 17.6771 9.44341 23.9671 9.09341 24.5671Z" fill="white" stroke="#5E5E5A" stroke-width="0.15" stroke-linecap="round" stroke-linejoin="round"/>
</svg>
