<svg width="13" height="28" viewBox="0 0 13 28" fill="none" xmlns="http://www.w3.org/2000/svg">
<path d="M4.53416 2.40642C4.76416 0.126424 6.16414 0.716424 6.26414 2.62642C6.36414 4.53642 7.22416 8.31642 8.37416 12.0664L4.35417 12.5564C3.99417 11.1764 4.29416 4.68642 4.53416 2.40642Z" fill="#F4DE9C" stroke="#5E5E5A" stroke-width="0.15" stroke-linecap="round" stroke-linejoin="round"/>
<path d="M11.3952 18.1869C10.3252 15.8369 9.82524 16.0269 10.3152 13.7769C10.8052 11.5269 11.7552 9.0169 10.2652 5.2469C8.77522 1.4769 6.49524 -0.273095 6.91524 2.3969C7.33524 5.0669 7.99522 7.90691 7.26522 9.9369C6.53522 11.9669 4.87523 12.4469 4.34523 10.1169C3.81523 7.78691 3.78524 6.0869 3.75524 4.5769C3.72524 3.0769 3.48523 -0.00309598 2.30523 1.9969C1.13523 3.9969 0.295229 7.1569 0.715229 11.2369C0.715229 11.2369 1.67522 16.4069 0.795216 18.1969H11.3952V18.1869Z" fill="#F4DE9C" stroke="#5E5E5A" stroke-width="0.15" stroke-linecap="round" stroke-linejoin="round"/>
<path d="M11.3952 18.1869C10.3252 15.8369 9.82524 16.0269 10.3152 13.7769C10.8052 11.5269 11.7552 9.0169 10.2652 5.2469C8.77522 1.4769 6.49524 -0.273095 6.91524 2.3969C7.33524 5.0669 7.99522 7.90691 7.26522 9.9369C6.53522 11.9669 4.87523 12.4469 4.34523 10.1169C3.81523 7.78691 3.78524 6.0869 3.75524 4.5769C3.72524 3.0769 3.48523 -0.00309598 2.30523 1.9969C1.13523 3.9969 0.295229 7.1569 0.715229 11.2369C0.715229 11.2369 1.67522 16.4069 0.795216 18.1969H11.3952V18.1869Z" fill="#F4DE9C"/>
<path d="M11.3952 18.1869C10.3252 15.8369 9.82524 16.0269 10.3152 13.7769C10.8052 11.5269 11.7552 9.0169 10.2652 5.2469C8.77522 1.4769 6.49524 -0.273095 6.91524 2.3969C7.33524 5.0669 7.99522 7.9069 7.26522 9.9369C6.53522 11.9669 4.87523 12.4469 4.34523 10.1169C3.81523 7.78691 3.78524 6.0869 3.75524 4.5769C3.72524 3.0769 3.48523 -0.00309598 2.30523 1.9969C1.13523 3.9969 0.295229 7.1569 0.715229 11.2369C0.715229 11.2369 1.67522 16.4069 0.795216 18.1969H11.3952V18.1869Z" stroke="#5E5E5A" stroke-width="0.15" stroke-linecap="round" stroke-linejoin="round"/>
<path d="M11.4431 18.1665C12.2131 19.5665 12.5131 24.8865 11.8731 25.8165C11.2431 26.7465 9.53312 26.8865 8.84312 26.2065C8.15312 25.5265 7.94311 26.2965 7.33311 26.6365C6.72311 26.9665 6.18311 26.3465 5.52311 26.9965C4.27311 28.2165 1.86311 27.3865 1.17311 24.5065C0.493108 21.6265 0.343118 19.0365 0.683118 18.1565C1.02312 17.2765 2.68313 18.6965 3.85313 17.6165C5.02313 16.5465 6.73312 16.5865 8.15312 17.2265C9.57312 17.8665 10.3031 16.1265 11.4331 18.1765L11.4431 18.1665Z" fill="white" stroke="#5E5E5A" stroke-width="0.15" stroke-linecap="round" stroke-linejoin="round"/>
</svg>
