<svg width="13" height="25" viewBox="0 0 13 25" fill="none" xmlns="http://www.w3.org/2000/svg">
<path d="M4.36382 2.37691C4.45382 0.376908 5.75383 0.796909 5.94383 2.46691C6.14383 4.12691 7.12384 7.37691 8.38384 10.5869L4.76381 11.2669C4.36381 10.0869 4.28382 4.38691 4.36382 2.37691Z" fill="#F4DE9C" stroke="#5E5E5A" stroke-width="0.15" stroke-linecap="round" stroke-linejoin="round"/>
<path d="M0.753657 9.18723C1.09366 7.18723 0.973639 4.31723 1.95364 1.64723C2.93364 -1.02277 3.70364 0.827229 3.45364 2.05723C3.20364 3.29723 3.70365 5.70723 4.37365 7.07723C5.04365 8.44723 5.83366 11.1872 7.25366 10.0872C8.67366 8.98723 7.88364 5.29723 7.08364 2.53723C6.28364 -0.222772 7.88366 0.467229 8.47366 1.71723C9.05366 2.96723 11.2236 6.18723 11.1837 9.67723C11.1437 13.1672 10.8637 14.4272 11.9137 16.3072L0.763637 16.4672C0.413637 13.6072 0.403657 11.1972 0.753657 9.19723V9.18723Z" fill="#F4DE9C" stroke="#5E5E5A" stroke-width="0.15" stroke-linecap="round" stroke-linejoin="round"/>
<path d="M0.753657 9.18723C1.09366 7.18723 0.973639 4.31723 1.95364 1.64723C2.93364 -1.02277 3.70364 0.827229 3.45364 2.05723C3.20364 3.29723 3.70365 5.70723 4.37365 7.07723C5.04365 8.44723 5.83366 11.1872 7.25366 10.0872C8.67366 8.98723 7.88364 5.29723 7.08364 2.53723C6.28364 -0.222772 7.88366 0.467229 8.47366 1.71723C9.05366 2.96723 11.2236 6.18723 11.1837 9.67723C11.1437 13.1672 10.8637 14.4272 11.9137 16.3072L0.763637 16.4672C0.413637 13.6072 0.403657 11.1972 0.753657 9.19723V9.18723Z" fill="#F4DE9C"/>
<path d="M0.753657 9.18723C1.09366 7.18723 0.973639 4.31723 1.95364 1.64723C2.93364 -1.02277 3.70364 0.827229 3.45364 2.05723C3.20364 3.29723 3.70365 5.70723 4.37365 7.07723C5.04365 8.44723 5.83366 11.1872 7.25366 10.0872C8.67366 8.98723 7.88364 5.29723 7.08364 2.53723C6.28364 -0.222772 7.88366 0.467229 8.47366 1.71723C9.05366 2.96723 11.2237 6.18723 11.1837 9.67723C11.1437 13.1672 10.8637 14.4272 11.9137 16.3072L0.763637 16.4672C0.413637 13.6072 0.403657 11.1972 0.753657 9.19723V9.18723Z" stroke="#5E5E5A" stroke-width="0.15" stroke-linecap="round" stroke-linejoin="round"/>
<path d="M11.6556 15.8464C13.0656 18.0464 13.1656 21.6564 11.4556 22.6364C9.74563 23.6164 8.76564 22.6364 7.93564 22.8764C7.10564 23.1164 4.75564 25.6564 2.90564 23.9464C0.915637 22.1064 0.0256374 16.7264 0.905637 15.5064C2.79564 12.8864 4.46563 15.9064 7.08563 14.3964C7.94563 13.8964 10.2356 13.6564 11.6456 15.8564L11.6556 15.8464Z" fill="white" stroke="#5E5E5A" stroke-width="0.15" stroke-linecap="round" stroke-linejoin="round"/>
</svg>
