<svg width="11" height="24" viewBox="0 0 11 24" fill="none" xmlns="http://www.w3.org/2000/svg">
<path d="M4.5939 2.31667C5.0139 0.35667 6.22389 0.986669 6.14389 2.65667C6.06389 4.32667 6.5039 7.69667 7.2139 11.0667L3.53391 11.1367C3.33391 9.90667 4.18391 4.26667 4.60391 2.30667L4.5939 2.31667Z" fill="#F4DE9C" stroke="#5E5E5A" stroke-width="0.15" stroke-linecap="round" stroke-linejoin="round"/>
<path d="M0.734375 16.5565C1.36437 12.9765 0.794396 8.04653 1.2244 6.20653C1.6544 4.36653 2.23439 1.23653 3.40439 0.876527C4.56439 0.516527 4.2444 3.57653 3.6644 6.11653C3.0744 8.65653 3.69439 10.5165 5.78439 10.8565C7.86439 11.1965 6.30437 5.88653 6.54437 2.74653C6.78437 -0.393473 8.54439 0.426527 8.37439 2.40653C8.19439 4.38653 10.1844 8.70653 10.0844 9.84653C9.98438 10.9965 9.38437 13.8065 10.2644 16.5465H0.754395L0.734375 16.5565Z" fill="#F4DE9C" stroke="#5E5E5A" stroke-width="0.15" stroke-linecap="round" stroke-linejoin="round"/>
<path d="M0.734375 16.5565C1.36437 12.9765 0.794396 8.04653 1.2244 6.20653C1.6544 4.36653 2.23439 1.23653 3.40439 0.876527C4.56439 0.516527 4.2444 3.57653 3.6644 6.11653C3.0744 8.65653 3.69439 10.5165 5.78439 10.8565C7.86439 11.1965 6.30437 5.88653 6.54437 2.74653C6.78437 -0.393473 8.54439 0.426527 8.37439 2.40653C8.19439 4.38653 10.1844 8.70653 10.0844 9.84653C9.98438 10.9965 9.38437 13.8065 10.2644 16.5465H0.754395L0.734375 16.5565Z" fill="#F4DE9C"/>
<path d="M0.734375 16.5565C1.36437 12.9765 0.794396 8.04653 1.2244 6.20653C1.6544 4.36653 2.23439 1.23653 3.40439 0.876527C4.56439 0.516527 4.2444 3.57653 3.6644 6.11653C3.0744 8.65653 3.69439 10.5165 5.78439 10.8565C7.86439 11.1965 6.30437 5.88653 6.54437 2.74653C6.78437 -0.393473 8.54439 0.426527 8.37439 2.40653C8.19439 4.38653 10.1844 8.70653 10.0844 9.84653C9.98438 10.9965 9.38437 13.8065 10.2644 16.5465H0.754395L0.734375 16.5565Z" stroke="#5E5E5A" stroke-width="0.15" stroke-linecap="round" stroke-linejoin="round"/>
<path d="M10.2452 16.5466C11.0152 18.2666 10.5652 22.9166 8.8452 22.9166C7.1252 22.9166 6.69519 22.6466 6.05519 23.2966C5.41519 23.9466 4.4452 22.9766 3.9052 23.0866C3.3652 23.1966 1.39521 24.6366 0.855212 21.7466C0.305212 18.8466 0.255189 14.5466 1.92519 14.8766C6.04519 15.6766 5.03518 11.3366 8.26518 15.7366C8.85518 16.5466 9.60521 15.1166 10.2552 16.5666L10.2452 16.5466Z" fill="white" stroke="#5E5E5A" stroke-width="0.15" stroke-linecap="round" stroke-linejoin="round"/>
</svg>
