<svg width="8" height="24" viewBox="0 0 8 24" fill="none" xmlns="http://www.w3.org/2000/svg">
<path d="M7.32327 8.58665C7.03327 10.0566 5.99329 15.1966 5.21329 20.1766C4.84329 22.5566 4.06329 24.5466 3.34329 22.0366C2.62329 19.5266 2.1733 16.0666 1.9433 13.4166C1.7133 10.7666 0.973281 9.24664 0.863281 8.55664L7.32327 8.58665Z" fill="#F4DE9C" stroke="#5E5E5A" stroke-width="0.15" stroke-linecap="round" stroke-linejoin="round"/>
<path d="M7.28493 8.86705C7.03493 10.277 5.93491 9.84705 5.39491 10.567C4.85491 11.287 3.71492 11.407 2.99492 10.567C2.27492 9.72705 0.89492 9.50705 0.77492 8.14705C0.65492 6.78705 -0.18508 1.71705 0.77492 1.04705C1.73492 0.387045 6.70492 0.0370454 7.27492 1.04705C7.84492 2.05705 7.56492 7.22705 7.27492 8.86705H7.28493Z" fill="white" stroke="#5E5E5A" stroke-width="0.15" stroke-linecap="round" stroke-linejoin="round"/>
</svg>
