<svg width="9" height="25" viewBox="0 0 9 25" fill="none" xmlns="http://www.w3.org/2000/svg">
<path d="M7.93579 8.06641C7.74579 9.85641 6.0858 14.7064 5.5058 21.3064C5.2658 23.9964 4.21579 26.2164 3.40579 23.3964C2.59579 20.5764 2.08578 16.6964 1.83578 13.7164C1.58578 10.7364 0.685781 8.97641 0.425781 8.06641H7.93579Z" fill="#F4DE9C" stroke="#5E5E5A" stroke-width="0.15" stroke-linecap="round" stroke-linejoin="round"/>
<path d="M7.0934 0.616432C6.0934 0.186432 4.8834 1.19643 4.4334 0.886432C3.9834 0.576432 1.73339 -0.00356752 1.14339 0.906433C0.553388 1.81643 -0.10659 6.21643 0.35341 7.82643C0.80341 9.43643 3.2834 12.2964 4.2134 11.8864C5.14339 11.4764 7.5134 9.78643 7.6834 9.27643C8.2534 7.57643 8.54341 1.23643 7.10341 0.616432H7.0934Z" fill="white" stroke="#5E5E5A" stroke-width="0.15" stroke-linecap="round" stroke-linejoin="round"/>
</svg>
