<svg width="9" height="31" viewBox="0 0 9 31" fill="none" xmlns="http://www.w3.org/2000/svg">
<path d="M0.66626 7.72656L8.13626 7.78656C7.33626 9.78656 7.26626 14.6266 7.22626 18.6566C7.19626 22.5166 6.37625 24.9466 5.34625 28.0366C4.31625 31.1266 3.13625 30.3066 3.12625 27.7266C3.10625 25.1466 2.40624 23.0366 1.45624 19.5166C1.02624 17.9266 0.956248 16.5966 0.966248 13.5366C0.976248 10.4766 0.78625 8.47656 0.65625 7.72656H0.66626Z" fill="#F4DE9C" stroke="#5E5E5A" stroke-width="0.15" stroke-linecap="round" stroke-linejoin="round"/>
<path d="M0.66626 7.72656L8.13626 7.78656C7.33626 9.78656 7.26626 14.6266 7.22626 18.6566C7.19626 22.5166 6.37625 24.9466 5.34625 28.0366C4.31625 31.1266 3.13625 30.3066 3.12625 27.7266C3.10625 25.1466 2.40624 23.0366 1.45624 19.5166C1.02624 17.9266 0.956248 16.5966 0.966248 13.5366C0.976248 10.4766 0.78625 8.47656 0.65625 7.72656H0.66626Z" fill="#F4DE9C"/>
<path d="M0.66626 7.72656L8.13626 7.78656C7.33626 9.78656 7.26626 14.6266 7.22626 18.6566C7.19626 22.5166 6.37625 24.9466 5.34625 28.0366C4.31625 31.1266 3.13625 30.3066 3.12625 27.7266C3.10625 25.1466 2.40624 23.0366 1.45624 19.5166C1.02624 17.9266 0.956248 16.5966 0.966248 13.5366C0.976248 10.4766 0.78625 8.47656 0.65625 7.72656H0.66626Z" stroke="#5E5E5A" stroke-width="0.15" stroke-linecap="round" stroke-linejoin="round"/>
<path d="M7.09441 10.4369C8.4144 8.56687 8.55441 5.11686 8.34441 4.18686C8.13441 3.25686 4.8444 0.276866 4.0544 0.306866C3.2644 0.336866 0.894388 1.25687 0.514388 2.14687C0.124388 3.02687 0.334408 7.20687 1.03441 9.04687C1.73441 10.8869 4.30439 12.8969 4.92439 12.5769C5.54439 12.2469 6.40441 11.4369 7.09441 10.4469V10.4369Z" fill="white" stroke="#5E5E5A" stroke-width="0.15" stroke-linecap="round" stroke-linejoin="round"/>
</svg>
