<svg width="9" height="25" viewBox="0 0 9 25" fill="none" xmlns="http://www.w3.org/2000/svg">
<path d="M8.31424 7.85668C7.76424 10.5467 7.32424 12.5667 6.78424 14.5967C6.32424 16.3467 5.68424 18.0167 5.90424 21.1867C6.09424 23.9867 5.72422 26.3167 4.32422 23.6167C2.92422 20.9167 2.26422 16.5967 2.17422 13.4867C2.08422 10.3867 1.33422 8.78668 1.07422 7.84668H8.32422L8.31424 7.85668Z" fill="#F4DE9C" stroke="#5E5E5A" stroke-width="0.15" stroke-linecap="round" stroke-linejoin="round"/>
<path d="M8.31424 7.85668C7.76424 10.5467 7.32424 12.5667 6.78424 14.5967C6.32424 16.3467 5.68424 18.0167 5.90424 21.1867C6.09424 23.9867 5.72422 26.3167 4.32422 23.6167C2.92422 20.9167 2.26422 16.5967 2.17422 13.4867C2.08422 10.3867 1.33422 8.78668 1.07422 7.84668H8.32422L8.31424 7.85668Z" fill="#F4DE9C"/>
<path d="M8.31424 7.85668C7.76424 10.5467 7.32424 12.5667 6.78424 14.5967C6.32424 16.3467 5.68424 18.0167 5.90424 21.1867C6.09424 23.9867 5.72422 26.3167 4.32422 23.6167C2.92422 20.9167 2.26422 16.5967 2.17422 13.4867C2.08422 10.3867 1.33422 8.78668 1.07422 7.84668H8.32422L8.31424 7.85668Z" stroke="#5E5E5A" stroke-width="0.15" stroke-linecap="round" stroke-linejoin="round"/>
<path d="M7.67393 8.93659C8.49393 8.11659 8.99393 5.62659 8.92393 4.23658C8.85393 2.85659 8.35394 2.76658 7.22395 1.83658C6.09395 0.906583 4.68395 -0.163416 3.66395 0.516584C1.05395 2.25658 -0.586079 1.20659 0.573921 5.41659C1.16392 7.54659 0.963921 8.88659 1.82392 9.72659C2.68392 10.5666 3.77394 11.6366 4.84394 11.3166C5.91394 10.9966 7.12394 9.48659 7.68394 8.93659H7.67393Z" fill="white" stroke="#5E5E5A" stroke-width="0.15" stroke-linecap="round" stroke-linejoin="round"/>
</svg>
