<svg width="11" height="24" viewBox="0 0 11 24" fill="none" xmlns="http://www.w3.org/2000/svg">
<path d="M10.1664 8.06641C9.61641 10.7464 9.19639 13.0264 8.82639 15.0964C8.50639 16.8764 7.2064 19.4264 7.6864 20.8864C8.5464 23.5564 8.25641 24.8964 6.10641 22.7464C4.03641 20.6664 3.8664 17.0064 3.7764 13.9064C3.6864 10.8064 2.80641 9.48641 2.06641 8.06641H10.1664Z" fill="#F4DE9C" stroke="#5E5E5A" stroke-width="0.15" stroke-linecap="round" stroke-linejoin="round"/>
<path d="M10.1664 8.06641C9.61641 10.7464 9.19639 13.0264 8.82639 15.0964C8.50639 16.8764 7.2064 19.4264 7.6864 20.8864C8.5464 23.5564 8.25641 24.8964 6.10641 22.7464C4.03641 20.6664 3.8664 17.0064 3.7764 13.9064C3.6864 10.8064 2.80641 9.48641 2.06641 8.06641H10.1664Z" fill="#F4DE9C"/>
<path d="M10.1664 8.06641C9.61641 10.7464 9.19639 13.0264 8.82639 15.0964C8.50639 16.8764 7.2064 19.4264 7.6864 20.8864C8.5464 23.5564 8.25641 24.8964 6.10641 22.7464C4.03641 20.6664 3.8664 17.0064 3.7764 13.9064C3.6864 10.8064 2.80641 9.48641 2.06641 8.06641H10.1664Z" stroke="#5E5E5A" stroke-width="0.15" stroke-linecap="round" stroke-linejoin="round"/>
<path d="M10.5359 6.7463C10.9559 4.9563 10.4959 2.9663 9.17589 2.1363C7.85589 1.3063 5.6359 -0.243697 4.5559 0.176303C3.4759 0.596303 3.34591 1.0963 2.62591 1.4063C1.90591 1.7163 0.745907 3.1863 0.845907 5.1663C0.945907 7.1463 2.59591 8.54631 2.94591 9.33631C3.29591 10.1263 5.84589 12.4963 7.51589 10.8763C9.18589 9.2563 9.79589 9.9063 10.5459 6.7463H10.5359Z" fill="white" stroke="#5E5E5A" stroke-width="0.15" stroke-linecap="round" stroke-linejoin="round"/>
</svg>
