<svg width="14" height="24" viewBox="0 0 14 24" fill="none" xmlns="http://www.w3.org/2000/svg">
<path d="M1.52354 8.12695L12.9736 8.42696C12.4536 9.83696 12.4336 10.457 12.3136 11.737C12.1936 13.017 12.1435 15.667 12.3435 17.017C12.5435 18.357 13.0635 22.507 12.3935 23.097C11.7235 23.697 10.8235 22.487 10.2435 20.977C9.66354 19.467 8.96355 17.907 8.68355 15.487C8.40355 13.067 7.78353 13.027 7.29353 13.627C6.80353 14.227 6.34356 17.677 6.13356 18.977C5.92356 20.277 7.20354 23.747 5.92354 23.467C4.64354 23.187 3.43353 20.807 2.82353 19.467C2.21353 18.127 1.32355 16.147 1.56355 14.027C1.79355 11.907 1.93355 9.17696 1.53355 8.13696L1.52354 8.12695Z" fill="#F4DE9C" stroke="#5E5E5A" stroke-width="0.15" stroke-linecap="round" stroke-linejoin="round"/>
<path d="M13.1942 8.0264C13.8442 6.1664 14.2942 3.03641 12.6642 1.92641C8.34418 -1.02359 7.51418 0.706408 5.97418 0.416408C4.82418 0.206408 2.49417 -0.283595 1.06418 0.706405C-0.365825 1.69641 0.0541835 5.97641 0.854184 7.31641C1.65418 8.65641 2.69417 8.82641 3.99417 8.74641C5.29417 8.66641 6.88417 9.75641 8.56417 9.24641C10.2442 8.74641 12.6742 9.4864 13.1842 8.0264H13.1942Z" fill="white" stroke="#5E5E5A" stroke-width="0.15" stroke-linecap="round" stroke-linejoin="round"/>
</svg>
