<svg width="13" height="23" viewBox="0 0 13 23" fill="none" xmlns="http://www.w3.org/2000/svg">
<path d="M7.6539 6.88695H11.7739C11.4239 7.61695 10.6439 10.107 10.6539 11.187C10.6539 12.267 11.5139 13.897 11.2539 15.507C10.9939 17.117 10.1739 21.647 9.33389 22.387C8.50389 23.137 7.85391 20.617 7.85391 18.067C7.85391 15.517 6.59391 12.647 6.00391 12.647C5.00391 12.647 4.69389 16.187 4.89389 16.887C5.09389 17.587 5.9039 23.1369 4.78391 22.7669C3.66391 22.4069 1.95391 19.627 1.85391 17.667C1.76391 15.707 1.86389 13.187 1.73389 12.207C1.60389 11.227 0.903906 8.23695 0.503906 6.87695H7.6539V6.88695Z" fill="#F4DE9C" stroke="#5E5E5A" stroke-width="0.15" stroke-linecap="round" stroke-linejoin="round"/>
<path d="M7.6539 6.88695H11.7739C11.4239 7.61695 10.6439 10.107 10.6539 11.187C10.6539 12.267 11.5139 13.897 11.2539 15.507C10.9939 17.117 10.1739 21.647 9.33389 22.387C8.50389 23.137 7.85391 20.617 7.85391 18.067C7.85391 15.517 6.59391 12.647 6.00391 12.647C5.00391 12.647 4.69389 16.187 4.89389 16.887C5.09389 17.587 5.90391 23.1369 4.78391 22.7669C3.66391 22.4069 1.95391 19.627 1.85391 17.667C1.76391 15.707 1.86389 13.187 1.73389 12.207C1.60389 11.227 0.903906 8.23695 0.503906 6.87695H7.6539V6.88695Z" stroke="#5E5E5A" stroke-width="0.15" stroke-linecap="round" stroke-linejoin="round"/>
<path d="M11.3749 7.94717C12.2549 6.11717 12.6849 2.50717 10.4549 1.37717C8.22486 0.247171 6.55486 1.44717 5.48486 0.777168C4.41486 0.107168 1.19488 -0.722831 0.534881 1.95717C-0.125119 4.63717 0.404874 6.85717 0.714874 7.62717C1.02487 8.38717 1.97488 8.13717 2.78488 7.96717C3.59488 7.80717 5.04489 9.36717 5.88489 9.37717C7.95489 9.39717 8.63488 7.53717 9.62488 7.62717C10.6149 7.71717 10.9349 8.87717 11.3849 7.95717L11.3749 7.94717Z" fill="white" stroke="#5E5E5A" stroke-width="0.15" stroke-linecap="round" stroke-linejoin="round"/>
</svg>
