<svg width="12" height="21" viewBox="0 0 12 21" fill="none" xmlns="http://www.w3.org/2000/svg">
<path d="M1.35547 6.08691H10.6955C10.0155 7.20691 10.9154 8.46691 11.0754 9.85691C11.2354 11.2469 11.8655 10.7469 11.7455 13.8969C11.6255 17.0369 11.1155 17.8469 10.6655 19.0969C10.2155 20.3569 9.07546 21.1469 8.78546 19.3469C8.49546 17.5469 9.31545 13.6169 8.58545 12.1669C7.85545 10.7169 7.19544 10.2369 6.82544 11.2469C6.45544 12.2569 5.76546 12.7769 5.93546 14.0869C6.10546 15.3969 7.19544 17.6669 7.45544 18.9269C7.71544 20.1869 7.38544 21.1169 5.54544 19.1369C3.70544 17.1569 2.31544 15.8569 2.54544 13.3269C2.77544 10.7969 2.49544 9.79691 2.23544 8.74691C1.97544 7.69691 1.63547 7.02691 1.35547 6.09691V6.08691Z" fill="#F4DE9C" stroke="#5E5E5A" stroke-width="0.15" stroke-linecap="round" stroke-linejoin="round"/>
<path d="M9.98445 7.61691C11.1345 6.79691 11.9444 4.82691 11.5744 2.73691C11.2044 0.656909 10.1745 1.19691 9.63448 1.09691C9.09448 0.996905 8.16445 0.0769052 6.79445 0.346905C5.41445 0.626905 4.89447 0.456909 3.59447 0.166909C2.29447 -0.133091 1.01447 0.706906 0.974474 2.56691C0.924474 4.42691 0.974461 5.99691 1.80446 6.68691C2.63446 7.37691 5.14447 6.48691 5.97447 6.68691C6.80447 6.88691 8.22446 8.88691 9.99446 7.61691H9.98445Z" fill="white" stroke="#5E5E5A" stroke-width="0.15" stroke-linecap="round" stroke-linejoin="round"/>
</svg>
