<svg width="8" height="24" viewBox="0 0 8 24" fill="none" xmlns="http://www.w3.org/2000/svg">
<path d="M0.804688 8.58665C1.09469 10.0566 2.1347 15.1966 2.9147 20.1766C3.2847 22.5566 4.0647 24.5466 4.7847 22.0366C5.5047 19.5266 5.95469 16.0666 6.18469 13.4166C6.41469 10.7666 7.15468 9.24664 7.26468 8.55664L0.804688 8.58665Z" fill="#F4DE9C" stroke="#5E5E5A" stroke-width="0.15" stroke-linecap="round" stroke-linejoin="round"/>
<path d="M0.844068 8.86705C1.09407 10.277 2.19405 9.84705 2.73405 10.567C3.27405 11.287 4.41408 11.407 5.13408 10.567C5.85408 9.72705 7.23408 9.50705 7.35408 8.14705C7.47408 6.78705 8.31408 1.71705 7.35408 1.04705C6.39408 0.387045 1.42408 0.0370454 0.854078 1.04705C0.284078 2.05705 0.564078 7.22705 0.854078 8.86705H0.844068Z" fill="white" stroke="#5E5E5A" stroke-width="0.15" stroke-linecap="round" stroke-linejoin="round"/>
</svg>
