<svg width="9" height="25" viewBox="0 0 9 25" fill="none" xmlns="http://www.w3.org/2000/svg">
<path d="M1.19531 8.06641C1.38531 9.85641 3.04531 14.7064 3.62531 21.3064C3.86531 23.9964 4.91531 26.2164 5.72531 23.3964C6.53531 20.5764 7.04529 16.6964 7.29529 13.7164C7.54529 10.7364 8.44529 8.97641 8.70529 8.06641H1.19531Z" fill="#F4DE9C" stroke="#5E5E5A" stroke-width="0.15" stroke-linecap="round" stroke-linejoin="round"/>
<path d="M2.03431 0.616432C3.03431 0.186432 4.24431 1.19643 4.69431 0.886432C5.14431 0.576432 7.39429 -0.00356752 7.98429 0.906433C8.57429 1.81643 9.2343 6.21643 8.7743 7.82643C8.3243 9.43643 5.84431 12.2964 4.91431 11.8864C3.98431 11.4764 1.61431 9.78643 1.44431 9.27643C0.874312 7.57643 0.584298 1.23643 2.0243 0.616432H2.03431Z" fill="white" stroke="#5E5E5A" stroke-width="0.15" stroke-linecap="round" stroke-linejoin="round"/>
</svg>
