<svg width="9" height="31" viewBox="0 0 9 31" fill="none" xmlns="http://www.w3.org/2000/svg">
<path d="M8.46609 7.72656L0.996094 7.78656C1.79609 9.78656 1.8661 14.6266 1.9061 18.6566C1.9361 22.5166 2.7561 24.9466 3.7861 28.0366C4.8161 31.1266 5.9961 30.3066 6.0061 27.7266C6.0261 25.1466 6.72609 23.0366 7.67609 19.5166C8.10609 17.9266 8.17611 16.5966 8.16611 13.5366C8.15611 10.4766 8.3461 8.47656 8.4761 7.72656H8.46609Z" fill="#F4DE9C" stroke="#5E5E5A" stroke-width="0.15" stroke-linecap="round" stroke-linejoin="round"/>
<path d="M8.46609 7.72656L0.996094 7.78656C1.79609 9.78656 1.8661 14.6266 1.9061 18.6566C1.9361 22.5166 2.7561 24.9466 3.7861 28.0366C4.8161 31.1266 5.9961 30.3066 6.0061 27.7266C6.0261 25.1466 6.72609 23.0366 7.67609 19.5166C8.10609 17.9266 8.17611 16.5966 8.16611 13.5366C8.15611 10.4766 8.3461 8.47656 8.4761 7.72656H8.46609Z" fill="#F4DE9C"/>
<path d="M8.46609 7.72656L0.996094 7.78656C1.79609 9.78656 1.8661 14.6266 1.9061 18.6566C1.9361 22.5166 2.7561 24.9466 3.7861 28.0366C4.8161 31.1266 5.9961 30.3066 6.0061 27.7266C6.0261 25.1466 6.72609 23.0366 7.67609 19.5166C8.10609 17.9266 8.17611 16.5966 8.16611 13.5366C8.15611 10.4766 8.3461 8.47656 8.4761 7.72656H8.46609Z" stroke="#5E5E5A" stroke-width="0.15" stroke-linecap="round" stroke-linejoin="round"/>
<path d="M2.03632 10.4369C0.716323 8.56687 0.576324 5.11686 0.786324 4.18686C0.996324 3.25686 4.2863 0.276866 5.0763 0.306866C5.8663 0.336866 8.23631 1.25687 8.61631 2.14687C9.00631 3.02687 8.79632 7.20687 8.09632 9.04687C7.39632 10.8869 4.82631 12.8969 4.20631 12.5769C3.58631 12.2469 2.72632 11.4369 2.03632 10.4469V10.4369Z" fill="white" stroke="#5E5E5A" stroke-width="0.15" stroke-linecap="round" stroke-linejoin="round"/>
</svg>
