<svg width="9" height="25" viewBox="0 0 9 25" fill="none" xmlns="http://www.w3.org/2000/svg">
<path d="M0.814697 7.85668C1.3647 10.5467 1.8047 12.5667 2.3447 14.5967C2.8047 16.3467 3.4447 18.0167 3.2247 21.1867C3.0347 23.9867 3.40469 26.3167 4.80469 23.6167C6.20469 20.9167 6.86468 16.5967 6.95468 13.4867C7.04468 10.3867 7.79469 8.78668 8.05469 7.84668H0.804688L0.814697 7.85668Z" fill="#F4DE9C" stroke="#5E5E5A" stroke-width="0.15" stroke-linecap="round" stroke-linejoin="round"/>
<path d="M0.814697 7.85668C1.3647 10.5467 1.8047 12.5667 2.3447 14.5967C2.8047 16.3467 3.4447 18.0167 3.2247 21.1867C3.0347 23.9867 3.40469 26.3167 4.80469 23.6167C6.20469 20.9167 6.86468 16.5967 6.95468 13.4867C7.04468 10.3867 7.79469 8.78668 8.05469 7.84668H0.804688L0.814697 7.85668Z" fill="#F4DE9C"/>
<path d="M0.814697 7.85668C1.3647 10.5467 1.8047 12.5667 2.3447 14.5967C2.8047 16.3467 3.4447 18.0167 3.2247 21.1867C3.0347 23.9867 3.40469 26.3167 4.80469 23.6167C6.20469 20.9167 6.86468 16.5967 6.95468 13.4867C7.04468 10.3867 7.79469 8.78668 8.05469 7.84668H0.804688L0.814697 7.85668Z" stroke="#5E5E5A" stroke-width="0.15" stroke-linecap="round" stroke-linejoin="round"/>
<path d="M1.45573 8.93659C0.635725 8.11659 0.135725 5.62659 0.205725 4.23658C0.275725 2.85659 0.775737 2.76658 1.90574 1.83658C3.03574 0.906583 4.44573 -0.163416 5.46573 0.516584C8.07574 2.25658 9.71573 1.20659 8.55573 5.41659C7.96573 7.54659 8.16573 8.88659 7.30573 9.72659C6.44573 10.5666 5.35574 11.6366 4.28574 11.3166C3.21574 10.9966 2.00575 9.48659 1.44575 8.93659H1.45573Z" fill="white" stroke="#5E5E5A" stroke-width="0.15" stroke-linecap="round" stroke-linejoin="round"/>
</svg>
