<svg width="11" height="24" viewBox="0 0 11 24" fill="none" xmlns="http://www.w3.org/2000/svg">
<path d="M0.964844 8.06641C1.51484 10.7464 1.93484 13.0264 2.30484 15.0964C2.62484 16.8764 3.92484 19.4264 3.44484 20.8864C2.58484 23.5564 2.87484 24.8964 5.02484 22.7464C7.09484 20.6664 7.26484 17.0064 7.35484 13.9064C7.44484 10.8064 8.32485 9.48641 9.06485 8.06641H0.964844Z" fill="#F4DE9C" stroke="#5E5E5A" stroke-width="0.15" stroke-linecap="round" stroke-linejoin="round"/>
<path d="M0.964844 8.06641C1.51484 10.7464 1.93484 13.0264 2.30484 15.0964C2.62484 16.8764 3.92484 19.4264 3.44484 20.8864C2.58484 23.5564 2.87484 24.8964 5.02484 22.7464C7.09484 20.6664 7.26484 17.0064 7.35484 13.9064C7.44484 10.8064 8.32485 9.48641 9.06485 8.06641H0.964844Z" fill="#F4DE9C"/>
<path d="M0.964844 8.06641C1.51484 10.7464 1.93484 13.0264 2.30484 15.0964C2.62484 16.8764 3.92484 19.4264 3.44484 20.8864C2.58484 23.5564 2.87484 24.8964 5.02484 22.7464C7.09484 20.6664 7.26484 17.0064 7.35484 13.9064C7.44484 10.8064 8.32485 9.48641 9.06485 8.06641H0.964844Z" stroke="#5E5E5A" stroke-width="0.15" stroke-linecap="round" stroke-linejoin="round"/>
<path d="M0.595926 6.7463C0.175926 4.9563 0.635927 2.9663 1.95593 2.1363C3.27593 1.3063 5.49592 -0.243697 6.57592 0.176303C7.65592 0.596303 7.78591 1.0963 8.50591 1.4063C9.22591 1.7163 10.3859 3.1863 10.2859 5.1663C10.1859 7.1463 8.53592 8.54631 8.18592 9.33631C7.83592 10.1263 5.28592 12.4963 3.61592 10.8763C1.94592 9.2563 1.33592 9.9063 0.585916 6.7463H0.595926Z" fill="white" stroke="#5E5E5A" stroke-width="0.15" stroke-linecap="round" stroke-linejoin="round"/>
</svg>
