<svg width="15" height="24" viewBox="0 0 15 24" fill="none" xmlns="http://www.w3.org/2000/svg">
<path d="M12.6062 8.12695L1.15625 8.42696C1.67625 9.83696 1.69625 10.457 1.81625 11.737C1.93625 13.017 1.98625 15.667 1.78625 17.017C1.58625 18.357 1.06625 22.507 1.73625 23.097C2.40625 23.697 3.30625 22.487 3.88625 20.977C4.46625 19.467 5.16624 17.907 5.44624 15.487C5.72624 13.067 6.34624 13.027 6.83624 13.627C7.32624 14.227 7.78625 17.677 7.99625 18.977C8.20625 20.277 6.92625 23.747 8.20625 23.467C9.48625 23.187 10.6962 20.807 11.3062 19.467C11.9162 18.127 12.8063 16.147 12.5663 14.027C12.3363 11.907 12.1963 9.17696 12.5963 8.13696L12.6062 8.12695Z" fill="#F4DE9C" stroke="#5E5E5A" stroke-width="0.15" stroke-linecap="round" stroke-linejoin="round"/>
<path d="M0.934015 8.0264C0.284015 6.1664 -0.165986 3.03641 1.46401 1.92641C5.78401 -1.02359 6.61402 0.706408 8.15402 0.416408C9.30402 0.206408 11.634 -0.283595 13.064 0.706405C14.494 1.69641 14.074 5.97641 13.274 7.31641C12.474 8.65641 11.434 8.82641 10.134 8.74641C8.83401 8.66641 7.24402 9.75641 5.56402 9.24641C3.88402 8.74641 1.45401 9.4864 0.94401 8.0264H0.934015Z" fill="white" stroke="#5E5E5A" stroke-width="0.15" stroke-linecap="round" stroke-linejoin="round"/>
</svg>
