<svg width="13" height="23" viewBox="0 0 13 23" fill="none" xmlns="http://www.w3.org/2000/svg">
<path d="M5.47546 6.88695H1.35547C1.70547 7.61695 2.48546 10.107 2.47546 11.187C2.47546 12.267 1.61547 13.897 1.87547 15.507C2.13547 17.117 2.95547 21.647 3.79547 22.387C4.62547 23.137 5.27547 20.617 5.27547 18.067C5.27547 15.517 6.53547 12.647 7.12547 12.647C8.12547 12.647 8.43547 16.187 8.23547 16.887C8.03547 17.587 7.22547 23.1369 8.34547 22.7669C9.46547 22.4069 11.1755 19.627 11.2755 17.667C11.3655 15.707 11.2655 13.187 11.3955 12.207C11.5255 11.227 12.2255 8.23695 12.6255 6.87695H5.47546V6.88695Z" fill="#F4DE9C" stroke="#5E5E5A" stroke-width="0.15" stroke-linecap="round" stroke-linejoin="round"/>
<path d="M5.47546 6.88695H1.35547C1.70547 7.61695 2.48546 10.107 2.47546 11.187C2.47546 12.267 1.61547 13.897 1.87547 15.507C2.13547 17.117 2.95547 21.647 3.79547 22.387C4.62547 23.137 5.27547 20.617 5.27547 18.067C5.27547 15.517 6.53547 12.647 7.12547 12.647C8.12547 12.647 8.43547 16.187 8.23547 16.887C8.03547 17.587 7.22547 23.1369 8.34547 22.7669C9.46547 22.4069 11.1755 19.627 11.2755 17.667C11.3655 15.707 11.2655 13.187 11.3955 12.207C11.5255 11.227 12.2255 8.23695 12.6255 6.87695H5.47546V6.88695Z" stroke="#5E5E5A" stroke-width="0.15" stroke-linecap="round" stroke-linejoin="round"/>
<path d="M1.75659 7.94717C0.876592 6.11717 0.446605 2.50717 2.67661 1.37717C4.90661 0.247171 6.57659 1.44717 7.64659 0.777168C8.71659 0.107168 11.9366 -0.722831 12.5966 1.95717C13.2466 4.63717 12.7266 6.85717 12.4166 7.62717C12.1066 8.38717 11.1566 8.13717 10.3466 7.96717C9.5366 7.80717 8.0866 9.36717 7.2466 9.37717C5.1766 9.39717 4.49659 7.53717 3.50659 7.62717C2.51659 7.71717 2.1966 8.87717 1.7466 7.95717L1.75659 7.94717Z" fill="white" stroke="#5E5E5A" stroke-width="0.15" stroke-linecap="round" stroke-linejoin="round"/>
</svg>
