<svg width="12" height="21" viewBox="0 0 12 21" fill="none" xmlns="http://www.w3.org/2000/svg">
<path d="M10.7762 6.08691H1.43619C2.11619 7.20691 1.21619 8.46691 1.05619 9.85691C0.896187 11.2469 0.266189 10.7469 0.386189 13.8969C0.506189 17.0369 1.01619 17.8469 1.46619 19.0969C1.91619 20.3569 3.0562 21.1469 3.3462 19.3469C3.6362 17.5469 2.81619 13.6169 3.54619 12.1669C4.27619 10.7169 4.93619 10.2369 5.30619 11.2469C5.67619 12.2569 6.36619 12.7769 6.19619 14.0869C6.02619 15.3969 4.9362 17.6669 4.6762 18.9269C4.4162 20.1869 4.74619 21.1169 6.58619 19.1369C8.42619 17.1569 9.81618 15.8569 9.58619 13.3269C9.35619 10.7969 9.63618 9.79691 9.89618 8.74691C10.1562 7.69691 10.4962 7.02691 10.7762 6.09691V6.08691Z" fill="#F4DE9C" stroke="#5E5E5A" stroke-width="0.15" stroke-linecap="round" stroke-linejoin="round"/>
<path d="M2.1454 7.61691C0.995396 6.79691 0.1854 4.82691 0.5554 2.73691C0.9254 0.656909 1.9554 1.19691 2.4954 1.09691C3.0354 0.996905 3.9654 0.0769052 5.3354 0.346905C6.7154 0.626905 7.23541 0.456909 8.53541 0.166909C9.83541 -0.133091 11.1154 0.706906 11.1554 2.56691C11.2054 4.42691 11.1554 5.99691 10.3254 6.68691C9.4954 7.37691 6.98541 6.48691 6.15541 6.68691C5.32541 6.88691 3.9054 8.88691 2.1354 7.61691H2.1454Z" fill="white" stroke="#5E5E5A" stroke-width="0.15" stroke-linecap="round" stroke-linejoin="round"/>
</svg>
