<svg width="9" height="20" viewBox="0 0 9 20" fill="none" xmlns="http://www.w3.org/2000/svg">
<path d="M1.74609 14.1769C2.68609 10.8169 3.4261 6.97691 3.4061 1.86691C3.4061 1.39691 3.5661 0.926913 3.9061 0.586913C4.3161 0.186913 4.6561 0.376913 4.9061 1.29691C5.5261 6.55691 6.1561 9.79691 6.7961 13.7769V14.1769H1.74609Z" fill="#F4DE9C" stroke="#5E5E5A" stroke-width="0.15" stroke-linecap="round" stroke-linejoin="round"/>
<path d="M1.74609 14.1769C2.68609 10.8169 3.4261 6.97691 3.4061 1.86691C3.4061 1.39691 3.5661 0.926913 3.9061 0.586913C4.3161 0.186913 4.6561 0.376913 4.9061 1.29691C5.5261 6.55691 6.1561 9.79691 6.7961 13.7769V14.1769H1.74609Z" fill="#F4DE9C"/>
<path d="M1.74609 14.1769C2.68609 10.8169 3.4261 6.97691 3.4061 1.86691C3.4061 1.39691 3.5661 0.926913 3.9061 0.586913C4.3161 0.186913 4.6561 0.376913 4.9061 1.29691C5.5261 6.55691 6.1561 9.79691 6.7961 13.7769V14.1769H1.74609Z" stroke="#5E5E5A" stroke-width="0.15" stroke-linecap="round" stroke-linejoin="round"/>
<path d="M6.7947 13.7771C6.9647 13.9971 7.10469 14.2371 7.20469 14.4971C8.18469 16.8571 8.72469 18.9371 6.80469 19.5071C4.96469 19.5671 3.12469 19.6271 2.21469 19.2871C1.03469 18.4171 0.844693 17.0371 1.24469 15.3671C1.34469 14.9471 1.51469 14.5371 1.74469 14.1771C2.20469 13.4471 2.91469 12.8971 3.77469 12.6971C4.15469 12.6071 4.5347 12.5871 4.9047 12.6371C5.6647 12.7471 6.3347 13.1771 6.7947 13.7771Z" fill="white" stroke="#5E5E5A" stroke-width="0.15" stroke-linecap="round" stroke-linejoin="round"/>
</svg>
