<svg width="7" height="19" viewBox="0 0 7 19" fill="none" xmlns="http://www.w3.org/2000/svg">
<path d="M1.59594 13.1369C2.47594 9.66692 2.65594 6.48692 2.64594 2.54692C2.64594 2.01692 2.80594 1.48692 3.13594 1.06692C3.56594 0.526919 3.90594 0.616919 4.16594 1.16692C4.33594 1.52692 4.33594 1.92692 4.36594 2.32692C4.78594 7.31692 4.95594 9.33692 5.07594 13.1369H1.58594H1.59594Z" fill="#F4DE9C" stroke="#5E5E5A" stroke-width="0.15" stroke-linecap="round" stroke-linejoin="round"/>
<path d="M1.59594 13.1369C2.47594 9.66692 2.65594 6.48692 2.64594 2.54692C2.64594 2.01692 2.80594 1.48692 3.13594 1.06692C3.56594 0.526919 3.90594 0.616919 4.16594 1.16692C4.33594 1.52692 4.33594 1.92692 4.36594 2.32692C4.78594 7.31692 4.95594 9.33692 5.07594 13.1369H1.58594H1.59594Z" fill="#F4DE9C"/>
<path d="M1.59594 13.1369C2.47594 9.66692 2.65594 6.48692 2.64594 2.54692C2.64594 2.01692 2.80594 1.48692 3.13594 1.06692C3.56594 0.526919 3.90594 0.616919 4.16594 1.16692C4.33594 1.52692 4.33594 1.92692 4.36594 2.32692C4.78594 7.31692 4.95594 9.33692 5.07594 13.1369H1.58594H1.59594Z" stroke="#5E5E5A" stroke-width="0.15" stroke-linecap="round" stroke-linejoin="round"/>
<path d="M3.19705 18.4669C2.67705 18.4669 2.24705 18.4369 1.90705 18.3669C1.39705 18.2569 0.977047 17.8669 0.857047 17.3769C0.457047 15.7869 0.717046 14.3669 1.65705 13.0469C2.23705 12.5569 2.83705 12.2969 3.40705 12.2969C3.71705 12.2969 4.02705 12.3669 4.33705 12.5169C4.56705 12.6269 4.77705 12.7769 4.93705 12.9769C5.12705 13.1869 5.26705 13.4469 5.35705 13.7269C5.69705 14.7869 5.91705 15.9069 6.01705 17.0469C6.08705 17.4469 6.12704 17.8869 5.91704 18.1469C5.77704 18.3169 5.53705 18.3969 5.18705 18.3969L4.82705 18.4169C4.26705 18.4469 3.70705 18.4869 3.18705 18.4869L3.19705 18.4669Z" fill="white"/>
<path d="M3.41592 12.3668C3.71592 12.3668 4.01592 12.4368 4.30592 12.5768C4.52592 12.6868 4.72592 12.8268 4.88592 13.0168C5.06592 13.2268 5.20592 13.4668 5.29592 13.7368C5.63592 14.7968 5.85592 15.9068 5.95592 17.0568C6.02592 17.4368 6.06592 17.8568 5.86592 18.0868C5.74592 18.2368 5.51592 18.3068 5.18592 18.3068L4.83592 18.3268C4.28592 18.3568 3.71592 18.3968 3.19592 18.3968C2.67592 18.3968 2.25592 18.3668 1.91592 18.2968C1.42592 18.1968 1.03592 17.8268 0.92592 17.3568C0.52592 15.7868 0.78592 14.3968 1.69592 13.1168C2.27592 12.6168 2.85592 12.3668 3.41592 12.3668ZM3.41592 12.2168C2.81592 12.2168 2.20592 12.4768 1.59592 12.9968C0.605922 14.3868 0.39592 15.8568 0.78592 17.3868C0.91592 17.9168 1.35592 18.3268 1.89592 18.4368C2.28592 18.5168 2.72592 18.5468 3.20592 18.5468C3.83592 18.5468 4.52592 18.4968 5.20592 18.4568C6.24592 18.4568 6.23592 17.7368 6.11592 17.0268C6.01592 15.8868 5.79592 14.7768 5.44592 13.6968C5.35592 13.4068 5.20592 13.1468 5.00592 12.9168C4.83592 12.7168 4.61592 12.5568 4.37592 12.4368C4.05592 12.2868 3.73592 12.2168 3.41592 12.2168Z" fill="#5E5E5A"/>
</svg>
