<svg width="7" height="22" viewBox="0 0 7 22" fill="none" xmlns="http://www.w3.org/2000/svg">
<path d="M1.02344 14.7863C1.82344 11.4163 2.19343 7.46628 2.38343 2.11628C2.40343 1.55628 2.69344 1.02628 3.20344 0.786275C3.58344 0.606275 3.89343 0.666276 4.13343 0.976276C4.30343 1.19628 4.37344 1.48628 4.36344 1.77628C4.12344 6.58628 4.42344 10.6663 5.29344 14.7963H1.02344V14.7863Z" fill="#F4DE9C" stroke="#5E5E5A" stroke-width="0.15" stroke-linecap="round" stroke-linejoin="round"/>
<path d="M1.02344 14.7863C1.82344 11.4163 2.19343 7.46628 2.38343 2.11628C2.40343 1.55628 2.69344 1.02628 3.20344 0.786275C3.58344 0.606275 3.89343 0.666276 4.13343 0.976276C4.30343 1.19628 4.37344 1.48628 4.36344 1.77628C4.12344 6.58628 4.42344 10.6663 5.29344 14.7963H1.02344V14.7863Z" fill="#F4DE9C"/>
<path d="M1.02344 14.7863C1.82344 11.4163 2.19343 7.46628 2.38343 2.11628C2.40343 1.55628 2.69344 1.02628 3.20344 0.786275C3.58344 0.606275 3.89343 0.666276 4.13343 0.976276C4.30343 1.19628 4.37344 1.48628 4.36344 1.77628C4.12344 6.58628 4.42344 10.6663 5.29344 14.7963H1.02344V14.7863Z" stroke="#5E5E5A" stroke-width="0.15" stroke-linecap="round" stroke-linejoin="round"/>
<path d="M1.03536 14.7772C1.25536 14.4472 1.52536 14.1572 1.85536 13.9272C2.94536 13.1472 4.06536 13.2572 5.20536 14.4372C5.97536 15.6772 6.35536 16.9272 6.07536 18.1572C5.71536 19.3672 5.03536 20.3272 4.12536 21.1172C3.80536 21.3972 3.39536 21.5372 2.97536 21.5372H2.70536C2.52536 21.5372 2.33536 21.5172 2.16536 21.4572C0.345358 20.8372 -0.174644 18.9972 0.495356 16.0672C0.595356 15.6072 0.785359 15.1672 1.04536 14.7772H1.03536Z" fill="white" stroke="#5E5E5A" stroke-width="0.15" stroke-linecap="round" stroke-linejoin="round"/>
</svg>
