<svg width="12" height="20" viewBox="0 0 12 20" fill="none" xmlns="http://www.w3.org/2000/svg">
<path d="M3.94578 8.8465C4.51578 6.9565 4.61578 4.5465 4.47578 1.8865C4.46578 1.6065 4.51578 1.3165 4.68578 1.0865C4.89578 0.776504 5.12578 0.776504 5.35578 1.1065C5.50578 1.3265 5.58578 1.5965 5.60578 1.8665C5.82578 4.3565 6.44578 6.8265 7.49578 9.2665L7.47578 11.2265L3.92578 11.1965L3.94578 8.8565V8.8465Z" fill="#F4DE9C" stroke="#5E5E5A" stroke-width="0.15" stroke-linecap="round" stroke-linejoin="round"/>
<path d="M3.14625 14.2063C1.54625 10.7863 1.08625 6.87627 0.90625 2.44627C0.90625 2.26627 0.906249 2.08627 0.946249 1.91627C1.09625 1.15627 1.80625 0.976274 2.14625 1.80627C2.18625 1.90627 2.21625 2.02627 2.23625 2.13627C2.58625 4.67627 3.11625 6.99627 3.97625 8.86627C4.03625 8.99627 4.07625 9.13627 4.16625 9.25627C4.58625 9.82627 5.23625 10.0063 5.89625 9.99627C6.52625 9.98627 7.10625 9.69627 7.53625 9.25627C7.76625 9.01627 7.95625 8.73627 8.08625 8.41627C8.79625 6.71627 8.93625 4.74627 9.24625 2.67627C9.32625 2.15627 9.45625 1.62627 9.80625 1.23627C10.4562 0.516274 10.9862 0.876274 11.0462 2.15627C11.2662 6.85627 10.0163 11.3963 8.41625 14.2263H3.15625L3.14625 14.2063Z" fill="#F4DE9C"/>
<path d="M3.14625 14.2063C1.54625 10.7863 1.08625 6.87627 0.90625 2.44627C0.90625 2.26627 0.906249 2.08627 0.946249 1.91627C1.09625 1.15627 1.80625 0.976274 2.14625 1.80627C2.18625 1.90627 2.21625 2.02627 2.23625 2.13627C2.58625 4.67627 3.11625 6.99627 3.97625 8.86627C4.03625 8.99627 4.07625 9.13627 4.16625 9.25627C4.58625 9.82627 5.23625 10.0063 5.89625 9.99627C6.52625 9.98627 7.10625 9.69627 7.53625 9.25627C7.76625 9.01627 7.95625 8.73627 8.08625 8.41627C8.79625 6.71627 8.93625 4.74627 9.24625 2.67627C9.32625 2.15627 9.45625 1.62627 9.80625 1.23627C10.4562 0.516274 10.9862 0.876274 11.0462 2.15627C11.2662 6.85627 10.0163 11.3963 8.41625 14.2263H3.15625L3.14625 14.2063Z" stroke="#5E5E5A" stroke-width="0.15" stroke-linecap="round" stroke-linejoin="round"/>
<path d="M5.6964 19.4664C4.9164 19.4664 4.1264 19.3664 3.3464 19.1764C2.7064 19.1064 2.3864 18.6564 2.3664 17.8164C2.1864 16.7864 2.3364 15.7764 2.8264 14.7864C2.9164 14.6164 3.0264 14.4464 3.1664 14.2964C4.2264 13.1564 5.2064 12.6064 6.1264 12.6064C6.8964 12.6064 7.6564 12.9964 8.3764 13.7664C8.5864 13.9864 8.7864 14.2364 8.9964 14.5264C9.7064 15.4664 10.0464 16.5864 10.0264 17.9464C9.9864 18.7364 9.6864 19.1564 9.1164 19.2464C9.0464 19.2564 8.9864 19.2564 8.9164 19.2564C8.6064 19.2564 8.2964 19.1464 8.0264 18.9464C7.8764 18.8364 7.7264 18.7764 7.5564 18.7764C7.3464 18.7764 7.1364 18.8664 6.8964 19.0364C6.5264 19.3064 6.1164 19.4564 5.7264 19.4564H5.7064L5.6964 19.4664Z" fill="white"/>
<path d="M6.11473 12.6866C6.86473 12.6866 7.60473 13.0666 8.31473 13.8266C8.52473 14.0566 8.73473 14.3066 8.92473 14.5766C9.62473 15.4966 9.95473 16.6066 9.93473 17.9466C9.88473 18.9466 9.42473 19.1266 9.08473 19.1766C9.02473 19.1766 8.96473 19.1866 8.89473 19.1866C8.60473 19.1866 8.30473 19.0866 8.05473 18.8966C7.89473 18.7766 7.72473 18.7166 7.54473 18.7166C7.32473 18.7166 7.09473 18.8066 6.84473 18.9966C6.48473 19.2566 6.09473 19.3966 5.69473 19.3966C4.92473 19.3966 4.13473 19.2966 3.33473 19.1066C2.95473 19.0666 2.45473 18.8866 2.42473 17.7966C2.24473 16.7966 2.39473 15.7966 2.87473 14.8266C2.96473 14.6566 3.07473 14.4966 3.19473 14.3566L3.24473 14.2966C4.24473 13.2266 5.20473 12.6766 6.09473 12.6766M6.09473 12.5266C5.12473 12.5266 4.13473 13.1066 3.13473 14.1966C3.11473 14.2166 3.10473 14.2366 3.08473 14.2466C2.94473 14.3966 2.82473 14.5666 2.73473 14.7466C2.23473 15.7666 2.08473 16.7866 2.27473 17.8166C2.30473 18.7466 2.68473 19.1766 3.31473 19.2466C4.08473 19.4366 4.87473 19.5366 5.68473 19.5366H5.70473C6.14473 19.5366 6.56473 19.3666 6.91473 19.1066C7.12473 18.9566 7.32473 18.8566 7.53473 18.8566C7.67473 18.8566 7.81473 18.9066 7.95473 19.0066C8.22473 19.2166 8.55473 19.3266 8.88473 19.3266C8.95473 19.3266 9.02473 19.3266 9.09473 19.3066C9.66473 19.2166 10.0247 18.8066 10.0747 17.9366C10.0947 16.4266 9.69473 15.3366 9.03473 14.4666C8.82473 14.1766 8.62473 13.9266 8.41473 13.7066C7.66473 12.9066 6.89473 12.5166 6.10473 12.5166L6.09473 12.5266Z" fill="#5E5E5A"/>
</svg>
