<svg width="14" height="20" viewBox="0 0 14 20" fill="none" xmlns="http://www.w3.org/2000/svg">
<path d="M5.37109 8.49622C6.01109 6.95622 6.08109 4.51622 5.95109 1.76622C5.93109 1.40622 6.02109 1.02622 6.25109 0.746216C6.58109 0.336216 6.93109 0.446215 7.30109 0.906215C7.43109 1.06622 7.49109 1.26622 7.50109 1.46622C7.60109 3.70622 8.38109 6.23622 9.42109 8.88622V10.8562H5.37109V8.49622Z" fill="#F4DE9C" stroke="#5E5E5A" stroke-width="0.15" stroke-linecap="round" stroke-linejoin="round"/>
<path d="M4.77297 13.7067C2.91297 10.5567 1.43297 6.57667 0.302966 2.46667C0.182966 2.00667 0.262966 1.49667 0.582966 1.14667C0.902966 0.786668 1.24297 0.836668 1.60297 1.44667C2.49297 4.22667 3.69297 6.64667 5.37297 8.48667C6.82297 9.75667 8.22297 9.92667 9.55297 8.96667C9.59297 8.93667 9.62297 8.90667 9.66297 8.87667C10.913 7.21667 11.063 4.72667 10.853 1.95667C10.823 1.52667 10.913 1.08667 11.183 0.746667C11.473 0.376667 11.773 0.396668 12.083 0.806668C12.253 1.04667 12.363 1.32667 12.413 1.61667C13.243 6.14667 13.163 10.2467 11.763 13.6867H4.77297V13.7067Z" fill="#F4DE9C" stroke="#5E5E5A" stroke-width="0.15" stroke-linecap="round" stroke-linejoin="round"/>
<path d="M5.79628 19.4671C5.34628 19.4671 4.94628 19.3672 4.57628 19.1672C3.70628 18.6972 3.18628 17.7171 3.25628 16.6471C3.27628 16.2671 3.34628 15.8671 3.43628 15.4571C3.62628 14.6671 4.08628 13.9771 4.72628 13.5171C6.04628 12.5571 7.27628 12.0771 8.39628 12.0771C9.60628 12.0771 10.7163 12.6371 11.7063 13.7471C11.8363 13.8971 11.9663 14.0471 12.0963 14.2071C13.1263 15.6971 13.8863 17.2471 12.4963 18.4771C11.6963 19.0971 10.5163 19.3871 8.66628 19.4071C8.43628 19.4071 8.22628 19.2771 8.08628 19.0671C7.96628 18.8871 7.80628 18.7871 7.58628 18.7871C7.32628 18.7871 6.98628 18.9272 6.53628 19.2372C6.35628 19.3572 6.14628 19.4371 5.93628 19.4371H5.78628L5.79628 19.4671Z" fill="white"/>
<path d="M8.39445 12.1571C9.57445 12.1571 10.6744 12.7171 11.6544 13.8071C11.7844 13.9471 11.9144 14.1071 12.0344 14.2571C13.4144 16.2671 13.5344 17.4771 12.4644 18.4271C11.6744 19.0371 10.5044 19.3271 8.67445 19.3471C8.47445 19.3471 8.28445 19.2371 8.16445 19.0471C8.03445 18.8471 7.84445 18.7371 7.60445 18.7371C7.32445 18.7371 6.97445 18.8871 6.51445 19.2071C6.35445 19.3171 6.15445 19.3871 5.95445 19.3971C5.90445 19.3971 5.85445 19.3971 5.80445 19.3971C5.37445 19.3971 4.98445 19.2971 4.61445 19.1071C3.76445 18.6571 3.26445 17.6971 3.33445 16.6571C3.35445 16.2771 3.41445 15.8771 3.51445 15.4771C3.70445 14.7171 4.14445 14.0471 4.76445 13.5871H4.77445C6.07445 12.6371 7.29445 12.1571 8.39445 12.1571ZM8.39445 12.0071C7.23445 12.0071 5.99445 12.5071 4.68445 13.4571C4.02445 13.9371 3.55445 14.6471 3.36445 15.4471C3.26445 15.8471 3.20445 16.2471 3.17445 16.6471C3.10445 17.6971 3.60445 18.7371 4.53445 19.2371C4.90445 19.4371 5.32445 19.5471 5.79445 19.5471C5.84445 19.5471 5.89445 19.5471 5.95445 19.5471C6.18445 19.5471 6.40445 19.4571 6.59445 19.3271C6.97445 19.0671 7.32445 18.8871 7.59445 18.8871C7.77445 18.8871 7.91445 18.9571 8.02445 19.1271C8.16445 19.3471 8.40445 19.4971 8.66445 19.4971C10.2044 19.4771 11.5944 19.2771 12.5444 18.5471C13.9144 17.3271 13.2644 15.7871 12.1444 14.1671C12.0144 13.9971 11.8844 13.8471 11.7544 13.6971C10.7244 12.5471 9.60445 11.9971 8.38445 11.9971L8.39445 12.0071Z" fill="#5E5E5A"/>
</svg>
