<svg width="8" height="20" viewBox="0 0 8 20" fill="none" xmlns="http://www.w3.org/2000/svg">
<path d="M6.76485 14.1671C5.82485 10.8071 5.08484 6.96715 5.10484 1.85715C5.10484 1.38715 4.94484 0.917148 4.60484 0.577148C4.19484 0.177148 3.85484 0.367148 3.60484 1.28715C2.98484 6.54715 2.35484 9.78715 1.71484 13.7671V14.1671H6.76485Z" fill="#F4DE9C" stroke="#5E5E5A" stroke-width="0.15" stroke-linecap="round" stroke-linejoin="round"/>
<path d="M6.76485 14.1671C5.82485 10.8071 5.08484 6.96715 5.10484 1.85715C5.10484 1.38715 4.94484 0.917148 4.60484 0.577148C4.19484 0.177148 3.85484 0.367148 3.60484 1.28715C2.98484 6.54715 2.35484 9.78715 1.71484 13.7671V14.1671H6.76485Z" fill="#F4DE9C"/>
<path d="M6.76485 14.1671C5.82485 10.8071 5.08484 6.96715 5.10484 1.85715C5.10484 1.38715 4.94484 0.917148 4.60484 0.577148C4.19484 0.177148 3.85484 0.367148 3.60484 1.28715C2.98484 6.54715 2.35484 9.78715 1.71484 13.7671V14.1671H6.76485Z" stroke="#5E5E5A" stroke-width="0.15" stroke-linecap="round" stroke-linejoin="round"/>
<path d="M1.70438 13.7664C1.53438 13.9864 1.39438 14.2264 1.29438 14.4864C0.314379 16.8464 -0.225619 18.9264 1.69438 19.4964C3.53438 19.5564 5.37438 19.6164 6.28438 19.2764C7.46438 18.4064 7.65438 17.0264 7.25438 15.3564C7.15438 14.9364 6.98438 14.5264 6.75438 14.1664C6.29438 13.4364 5.58438 12.8864 4.72438 12.6864C4.34438 12.5964 3.96437 12.5764 3.59437 12.6264C2.83437 12.7364 2.16438 13.1664 1.70438 13.7664Z" fill="white" stroke="#5E5E5A" stroke-width="0.15" stroke-linecap="round" stroke-linejoin="round"/>
</svg>
