<svg width="6" height="19" viewBox="0 0 6 19" fill="none" xmlns="http://www.w3.org/2000/svg">
<path d="M4.91359 13.1272C4.03359 9.65716 3.85359 6.47715 3.86359 2.53715C3.86359 2.00715 3.7036 1.47715 3.3736 1.05715C2.9436 0.517153 2.60359 0.607154 2.34359 1.15715C2.17359 1.51715 2.17359 1.91715 2.14359 2.31715C1.72359 7.30715 1.55359 9.32716 1.43359 13.1272H4.92359H4.91359Z" fill="#F4DE9C" stroke="#5E5E5A" stroke-width="0.15" stroke-linecap="round" stroke-linejoin="round"/>
<path d="M4.91359 13.1272C4.03359 9.65716 3.85359 6.47715 3.86359 2.53715C3.86359 2.00715 3.7036 1.47715 3.3736 1.05715C2.9436 0.517153 2.60359 0.607154 2.34359 1.15715C2.17359 1.51715 2.17359 1.91715 2.14359 2.31715C1.72359 7.30715 1.55359 9.32716 1.43359 13.1272H4.92359H4.91359Z" fill="#F4DE9C"/>
<path d="M4.91359 13.1272C4.03359 9.65716 3.85359 6.47715 3.86359 2.53715C3.86359 2.00715 3.7036 1.47715 3.3736 1.05715C2.9436 0.517153 2.60359 0.607154 2.34359 1.15715C2.17359 1.51715 2.17359 1.91715 2.14359 2.31715C1.72359 7.30715 1.55359 9.32716 1.43359 13.1272H4.92359H4.91359Z" stroke="#5E5E5A" stroke-width="0.15" stroke-linecap="round" stroke-linejoin="round"/>
<path d="M3.31708 18.4573C2.79708 18.4573 2.23708 18.4273 1.67708 18.3873L1.32708 18.3673C0.977082 18.3673 0.737079 18.2873 0.597079 18.1173C0.377079 17.8573 0.42708 17.4173 0.49708 17.0273C0.59708 15.8873 0.827084 14.7673 1.15708 13.7073C1.24708 13.4273 1.38708 13.1673 1.57708 12.9573C1.74708 12.7573 1.94708 12.6073 2.18708 12.4973C2.49708 12.3573 2.80708 12.2773 3.11708 12.2773C3.69708 12.2773 4.28708 12.5373 4.88708 13.0473C5.81708 14.3573 6.07708 15.7673 5.67708 17.3573C5.55708 17.8573 5.13708 18.2473 4.62708 18.3473C4.28708 18.4173 3.85708 18.4473 3.33708 18.4473L3.31708 18.4573Z" fill="white"/>
<path d="M3.09651 12.207V12.357C3.65651 12.357 4.23651 12.607 4.78651 13.077C5.71651 14.377 5.97651 15.777 5.57651 17.347C5.45651 17.817 5.06652 18.187 4.58652 18.287C4.24652 18.357 3.82651 18.387 3.30651 18.387C2.78651 18.387 2.21651 18.357 1.66651 18.317L1.30651 18.297C0.98651 18.297 0.756512 18.217 0.636512 18.077C0.436512 17.847 0.48651 17.427 0.55651 17.037C0.65651 15.907 0.876514 14.797 1.21651 13.737C1.30651 13.467 1.43652 13.217 1.62652 13.017C1.78652 12.827 1.98651 12.687 2.20651 12.577C2.50651 12.437 2.80651 12.367 3.09651 12.367V12.217M3.09651 12.217C2.77651 12.217 2.45651 12.287 2.13651 12.437C1.89651 12.557 1.67651 12.717 1.50652 12.917C1.30652 13.137 1.15651 13.407 1.06651 13.697C0.726513 14.777 0.506514 15.887 0.396514 17.027C0.266514 17.737 0.25651 18.457 1.30651 18.457C1.98651 18.497 2.67651 18.547 3.30651 18.547C3.77651 18.547 4.22652 18.517 4.61652 18.437C5.15652 18.327 5.59652 17.917 5.72652 17.387C6.11652 15.857 5.90651 14.387 4.91651 12.997C4.30651 12.477 3.70651 12.217 3.09651 12.217Z" fill="#5E5E5A"/>
</svg>
