<svg width="7" height="22" viewBox="0 0 7 22" fill="none" xmlns="http://www.w3.org/2000/svg">
<path d="M5.47311 14.7765C4.67311 11.4065 4.30311 7.45651 4.11311 2.10651C4.09311 1.54651 3.80312 1.01651 3.29312 0.77651C2.91312 0.59651 2.60311 0.65651 2.36311 0.96651C2.19311 1.18651 2.12312 1.47651 2.13312 1.76651C2.37312 6.57651 2.07313 10.6565 1.20312 14.7865H5.47311V14.7765Z" fill="#F4DE9C" stroke="#5E5E5A" stroke-width="0.15" stroke-linecap="round" stroke-linejoin="round"/>
<path d="M5.47311 14.7765C4.67311 11.4065 4.30311 7.45651 4.11311 2.10651C4.09311 1.54651 3.80312 1.01651 3.29312 0.77651C2.91312 0.59651 2.60311 0.65651 2.36311 0.96651C2.19311 1.18651 2.12312 1.47651 2.13312 1.76651C2.37312 6.57651 2.07313 10.6565 1.20312 14.7865H5.47311V14.7765Z" fill="#F4DE9C"/>
<path d="M5.47311 14.7765C4.67311 11.4065 4.30311 7.45651 4.11311 2.10651C4.09311 1.54651 3.80312 1.01651 3.29312 0.77651C2.91312 0.59651 2.60311 0.65651 2.36311 0.96651C2.19311 1.18651 2.12312 1.47651 2.13312 1.76651C2.37312 6.57651 2.07313 10.6565 1.20312 14.7865H5.47311V14.7765Z" stroke="#5E5E5A" stroke-width="0.15" stroke-linecap="round" stroke-linejoin="round"/>
<path d="M5.4756 14.7664C5.2556 14.4364 4.9856 14.1464 4.6556 13.9164C3.5656 13.1364 2.4456 13.2464 1.3056 14.4264C0.535598 15.6664 0.155602 16.9164 0.435602 18.1464C0.795602 19.3564 1.4756 20.3164 2.3856 21.1064C2.7056 21.3864 3.11561 21.5264 3.53561 21.5264H3.8056C3.9856 21.5264 4.17561 21.5064 4.34561 21.4464C6.16561 20.8264 6.6856 18.9864 6.0156 16.0564C5.9156 15.5964 5.7256 15.1564 5.4656 14.7664H5.4756Z" fill="white" stroke="#5E5E5A" stroke-width="0.15" stroke-linecap="round" stroke-linejoin="round"/>
</svg>
