<svg width="11" height="20" viewBox="0 0 11 20" fill="none" xmlns="http://www.w3.org/2000/svg">
<path d="M7.56563 8.83674C6.99563 6.94674 6.89563 4.53674 7.03563 1.87674C7.04563 1.59674 6.99562 1.30674 6.82562 1.07674C6.61562 0.766738 6.38562 0.766739 6.15562 1.09674C6.00562 1.31674 5.92562 1.58674 5.90562 1.85674C5.68562 4.34674 5.06562 6.81674 4.01562 9.25674L4.03563 11.2167L7.58562 11.1867L7.56563 8.84674V8.83674Z" fill="#F4DE9C" stroke="#5E5E5A" stroke-width="0.15" stroke-linecap="round" stroke-linejoin="round"/>
<path d="M8.35487 14.1965C9.95487 10.7765 10.4149 6.86651 10.5949 2.43651C10.5949 2.25651 10.5949 2.07651 10.5549 1.90651C10.4049 1.14651 9.69487 0.966508 9.35487 1.79651C9.31487 1.89651 9.28487 2.01651 9.26487 2.12651C8.91487 4.66651 8.38486 6.98651 7.52486 8.85651C7.46486 8.98651 7.42486 9.12651 7.33486 9.24651C6.91486 9.81651 6.26487 9.99651 5.60487 9.98651C4.97487 9.97651 4.39487 9.68651 3.96487 9.24651C3.73487 9.00651 3.54486 8.72651 3.41486 8.40651C2.70486 6.70651 2.56486 4.73651 2.25486 2.66651C2.17486 2.14651 2.04486 1.61651 1.69486 1.22651C1.04486 0.506509 0.514872 0.866508 0.454872 2.14651C0.234872 6.84651 1.48486 11.3865 3.08486 14.2165H8.34487L8.35487 14.1965Z" fill="#F4DE9C" stroke="#5E5E5A" stroke-width="0.15" stroke-linecap="round" stroke-linejoin="round"/>
<path d="M8.35487 14.1965C9.95487 10.7765 10.4149 6.86651 10.5949 2.43651C10.5949 2.25651 10.5949 2.07651 10.5549 1.90651C10.4049 1.14651 9.69487 0.966508 9.35487 1.79651C9.31487 1.89651 9.28487 2.01651 9.26487 2.12651C8.91487 4.66651 8.38486 6.98651 7.52486 8.85651C7.46486 8.98651 7.42486 9.12651 7.33486 9.24651C6.91486 9.81651 6.26487 9.99651 5.60487 9.98651C4.97487 9.97651 4.39487 9.68651 3.96487 9.24651C3.73487 9.00651 3.54486 8.72651 3.41486 8.40651C2.70486 6.70651 2.56486 4.73651 2.25486 2.66651C2.17486 2.14651 2.04486 1.61651 1.69486 1.22651C1.04486 0.506509 0.514872 0.866508 0.454872 2.14651C0.234872 6.84651 1.48486 11.3865 3.08486 14.2165H8.34487L8.35487 14.1965Z" fill="#F4DE9C"/>
<path d="M8.35487 14.1965C9.95487 10.7765 10.4149 6.86651 10.5949 2.43651C10.5949 2.25651 10.5949 2.07651 10.5549 1.90651C10.4049 1.14651 9.69487 0.966508 9.35487 1.79651C9.31487 1.89651 9.28487 2.01651 9.26487 2.12651C8.91487 4.66651 8.38486 6.98651 7.52486 8.85651C7.46486 8.98651 7.42486 9.12651 7.33486 9.24651C6.91486 9.81651 6.26487 9.99651 5.60487 9.98651C4.97487 9.97651 4.39487 9.68651 3.96487 9.24651C3.73487 9.00651 3.54486 8.72651 3.41486 8.40651C2.70486 6.70651 2.56486 4.73651 2.25486 2.66651C2.17486 2.14651 2.04486 1.61651 1.69486 1.22651C1.04486 0.506509 0.514872 0.866508 0.454872 2.14651C0.234872 6.84651 1.48486 11.3865 3.08486 14.2165H8.34487L8.35487 14.1965Z" stroke="#5E5E5A" stroke-width="0.15" stroke-linecap="round" stroke-linejoin="round"/>
<path d="M5.78305 19.4564C5.39305 19.4564 4.98304 19.3164 4.61304 19.0364C4.37304 18.8564 4.15305 18.7764 3.95305 18.7764C3.79305 18.7764 3.63305 18.8364 3.48305 18.9464C3.22305 19.1464 2.91304 19.2564 2.60304 19.2564C2.53304 19.2564 2.47305 19.2564 2.40305 19.2464C1.83305 19.1564 1.53304 18.7364 1.49304 17.9464C1.47304 16.5864 1.80304 15.4664 2.52304 14.5264C2.73304 14.2364 2.93304 13.9864 3.14304 13.7664C3.86304 12.9964 4.62304 12.6064 5.39304 12.6064C6.31304 12.6064 7.29304 13.1564 8.30304 14.2464C8.49304 14.4464 8.60304 14.6164 8.69304 14.7864C9.17304 15.7664 9.33305 16.7864 9.15305 17.8064C9.13305 18.6564 8.81305 19.1064 8.17305 19.1764C7.37305 19.3664 6.58305 19.4664 5.81305 19.4664H5.79305L5.78305 19.4564Z" fill="white"/>
<path d="M5.39294 12.6764C6.29294 12.6764 7.25295 13.2164 8.27295 14.3164L8.30295 14.3464C8.43295 14.4864 8.54295 14.6464 8.63295 14.8164C9.11295 15.7864 9.26295 16.7864 9.08295 17.8164C9.05295 18.8764 8.55295 19.0564 8.15295 19.1064C7.37295 19.2964 6.58295 19.3964 5.79295 19.3964C5.41295 19.3964 5.02296 19.2564 4.67296 18.9964C4.42296 18.8064 4.19295 18.7164 3.97295 18.7164C3.79295 18.7164 3.62295 18.7764 3.46295 18.8964C3.21295 19.0864 2.91296 19.1864 2.62296 19.1864C2.56296 19.1864 2.50295 19.1864 2.44295 19.1764C2.10295 19.1264 1.65296 18.9364 1.59296 17.9464C1.57296 16.5964 1.90295 15.4964 2.60295 14.5664C2.79295 14.2964 3.00295 14.0464 3.21295 13.8164C3.92295 13.0564 4.66295 12.6764 5.41295 12.6764M5.41295 12.5264C4.63295 12.5264 3.86295 12.9064 3.10295 13.7164C2.89295 13.9364 2.68296 14.1964 2.48296 14.4764C1.82296 15.3364 1.41295 16.4364 1.44295 17.9464C1.49295 18.8164 1.84296 19.2264 2.42296 19.3164C2.49296 19.3264 2.56295 19.3364 2.63295 19.3364C2.96295 19.3364 3.29296 19.2164 3.56296 19.0164C3.70296 18.9064 3.84296 18.8664 3.98296 18.8664C4.18296 18.8664 4.39295 18.9564 4.60295 19.1164C4.96295 19.3764 5.37296 19.5464 5.81296 19.5464H5.83295C6.64295 19.5464 7.43296 19.4464 8.20296 19.2564C8.83296 19.1864 9.22295 18.7564 9.24295 17.8264C9.42295 16.7964 9.27296 15.7764 8.78296 14.7564C8.69296 14.5764 8.57295 14.4064 8.43295 14.2564C8.41295 14.2364 8.40295 14.2164 8.38295 14.2064C7.37295 13.1164 6.38296 12.5364 5.42296 12.5364L5.41295 12.5264Z" fill="#5E5E5A"/>
</svg>
