<svg width="14" height="20" viewBox="0 0 14 20" fill="none" xmlns="http://www.w3.org/2000/svg">
<path d="M8.13203 8.48645C7.49203 6.94645 7.42203 4.50645 7.55203 1.75645C7.57203 1.39645 7.48203 1.01645 7.25203 0.73645C6.92203 0.32645 6.57204 0.43645 6.20204 0.89645C6.07204 1.05645 6.01203 1.25645 6.00203 1.45645C5.90203 3.69645 5.12203 6.22645 4.08203 8.87645V10.8464H8.13203V8.48645Z" fill="#F4DE9C" stroke="#5E5E5A" stroke-width="0.15" stroke-linecap="round" stroke-linejoin="round"/>
<path d="M8.73248 13.6969C10.5925 10.5469 12.0725 6.5669 13.2025 2.4569C13.3225 1.9969 13.2425 1.4869 12.9225 1.1369C12.6025 0.776902 12.2625 0.826902 11.9025 1.4369C11.0125 4.2169 9.81247 6.6369 8.13247 8.4769C6.68247 9.7469 5.28248 9.9169 3.95248 8.9569C3.91248 8.9269 3.88248 8.8969 3.84248 8.8669C2.59248 7.2069 2.44248 4.7169 2.65248 1.9469C2.68248 1.5169 2.59248 1.0769 2.32248 0.736902C2.03248 0.366902 1.73248 0.386902 1.42248 0.796902C1.25248 1.0369 1.14248 1.3169 1.09248 1.6069C0.262479 6.1369 0.342473 10.2369 1.74247 13.6769H8.73248V13.6969Z" fill="#F4DE9C" stroke="#5E5E5A" stroke-width="0.15" stroke-linecap="round" stroke-linejoin="round"/>
<path d="M7.56297 19.4571C7.35297 19.4571 7.13297 19.3772 6.96297 19.2572C6.51297 18.9472 6.18297 18.8071 5.91297 18.8071C5.70297 18.8071 5.53298 18.8971 5.42298 19.0871C5.28298 19.2971 5.07297 19.4271 4.84297 19.4271C2.99297 19.4071 1.81296 19.1172 1.00296 18.4872C-0.377038 17.2572 0.382965 15.7071 1.41297 14.2071C1.53297 14.0471 1.66297 13.8971 1.79297 13.7471C2.78297 12.6371 3.90297 12.0771 5.10297 12.0771C6.22297 12.0771 7.45297 12.5571 8.77297 13.5171C9.41297 13.9871 9.87298 14.6771 10.063 15.4571C10.163 15.8671 10.223 16.2671 10.243 16.6471C10.313 17.7071 9.79298 18.6972 8.92298 19.1672C8.54298 19.3672 8.14297 19.4671 7.70297 19.4671H7.55296L7.56297 19.4571Z" fill="white"/>
<path d="M5.10306 12.1473C6.20306 12.1473 7.42305 12.6273 8.72305 13.5773C8.72305 13.5773 8.72306 13.5773 8.73306 13.5773C9.35306 14.0373 9.80306 14.7073 9.98306 15.4673C10.0831 15.8673 10.1431 16.2673 10.1631 16.6473C10.2331 17.6773 9.73306 18.6373 8.88306 19.0873C8.51306 19.2873 8.13306 19.3773 7.69306 19.3773C7.64306 19.3773 7.59306 19.3773 7.54306 19.3773C7.34306 19.3773 7.14306 19.2973 6.98306 19.1873C6.52306 18.8673 6.17305 18.7173 5.89305 18.7173C5.66305 18.7173 5.46306 18.8273 5.33306 19.0273C5.21306 19.2173 5.02307 19.3273 4.81307 19.3273C2.98307 19.2973 1.81307 19.0173 1.03307 18.4173C-0.0469328 17.4573 0.0730556 16.2473 1.44306 14.2473C1.57306 14.0873 1.69306 13.9273 1.82306 13.7873C2.80306 12.6973 3.89305 12.1373 5.08306 12.1373M5.08306 11.9873C3.86305 11.9873 2.74306 12.5373 1.71306 13.6873C1.58306 13.8373 1.45306 13.9873 1.32306 14.1573C0.21306 15.7773 -0.446933 17.3173 0.923067 18.5373C1.87307 19.2673 3.26306 19.4673 4.80306 19.4873C5.06306 19.4873 5.30306 19.3373 5.44306 19.1173C5.55306 18.9473 5.70306 18.8773 5.87306 18.8773C6.15306 18.8773 6.49306 19.0573 6.87306 19.3173C7.06306 19.4473 7.28306 19.5273 7.51306 19.5373C7.56306 19.5373 7.61307 19.5373 7.67307 19.5373C8.14307 19.5373 8.56306 19.4273 8.93306 19.2273C9.86306 18.7273 10.3631 17.6873 10.2931 16.6373C10.2731 16.2273 10.2031 15.8273 10.1031 15.4373C9.91306 14.6373 9.44307 13.9373 8.78307 13.4473C7.47307 12.4973 6.23306 11.9973 5.07306 11.9973L5.08306 11.9873Z" fill="#5E5E5A"/>
</svg>
