<svg width="6" height="18" viewBox="0 0 6 18" fill="none" xmlns="http://www.w3.org/2000/svg">
<path d="M1.71484 6.84668H4.51485C4.51485 6.84668 4.51485 7.03668 4.51485 7.04668C4.12485 10.2767 4.06485 13.3367 4.51485 16.1367C4.68485 17.4067 4.38484 17.5767 3.81484 17.0567C3.41484 16.6967 3.11485 16.2267 2.94485 15.7067C2.21485 13.4867 1.86485 10.3967 1.72485 6.84668" fill="#F4DE9C"/>
<path d="M1.71484 6.84668H4.51485C4.51485 6.84668 4.51485 7.03668 4.51485 7.04668C4.12485 10.2767 4.06485 13.3367 4.51485 16.1367C4.68485 17.4067 4.38484 17.5767 3.81484 17.0567C3.41484 16.6967 3.11485 16.2267 2.94485 15.7067C2.21485 13.4867 1.86485 10.3967 1.72485 6.84668" stroke="#5E5E5A" stroke-width="0.15" stroke-linecap="round" stroke-linejoin="round"/>
<path d="M4.50672 7.04678C4.71672 6.64678 4.81672 6.19677 4.83672 5.74677L4.96672 2.27677C5.01672 1.47677 4.68672 1.07677 4.21672 0.776773C3.50672 0.266773 2.48672 0.0367746 1.62672 0.0867746C1.02672 0.276775 1.00672 0.136776 0.926718 0.666776C0.886718 0.916776 0.876719 1.16678 0.896719 1.41678C1.00672 3.01678 1.16672 4.48677 1.32672 5.85677C1.36672 6.22677 1.50672 6.56677 1.72672 6.86677C1.74672 6.89677 1.77672 6.92678 1.79672 6.96678C2.82672 8.23678 3.68672 8.33678 4.37672 7.29678C4.42672 7.22678 4.47672 7.14677 4.51672 7.06677" fill="white"/>
<path d="M4.50672 7.04678C4.71672 6.64678 4.81672 6.19677 4.83672 5.74677L4.96672 2.27677C5.01672 1.47677 4.68672 1.07677 4.21672 0.776773C3.50672 0.266773 2.48672 0.0367746 1.62672 0.0867746C1.02672 0.276775 1.00672 0.136776 0.926718 0.666776C0.886718 0.916776 0.876719 1.16678 0.896719 1.41678C1.00672 3.01678 1.16672 4.48677 1.32672 5.85677C1.36672 6.22677 1.50672 6.56677 1.72672 6.86677C1.74672 6.89677 1.77672 6.92678 1.79672 6.96678C2.82672 8.23678 3.68672 8.33678 4.37672 7.29678C4.42672 7.22678 4.47672 7.14677 4.51672 7.06677" stroke="#5E5E5A" stroke-width="0.15" stroke-linecap="round" stroke-linejoin="round"/>
</svg>
