<svg width="6" height="19" viewBox="0 0 6 19" fill="none" xmlns="http://www.w3.org/2000/svg">
<path d="M4.98812 6.42676V6.91676C4.43812 10.3668 4.24813 13.6468 4.58813 16.6968C4.70813 17.9968 4.41812 18.3268 3.80812 17.9168C3.35812 17.6168 3.04812 17.1368 2.88812 16.6168C2.03812 13.8868 1.56812 10.3868 1.32812 6.42676H4.98812Z" fill="#F4DE9C" stroke="#5E5E5A" stroke-width="0.15" stroke-linecap="round" stroke-linejoin="round"/>
<path d="M4.98812 6.42676V6.91676C4.43812 10.3668 4.24813 13.6468 4.58813 16.6968C4.70813 17.9968 4.41812 18.3268 3.80812 17.9168C3.35812 17.6168 3.04812 17.1368 2.88812 16.6168C2.03812 13.8868 1.56812 10.3868 1.32812 6.42676H4.98812Z" fill="#F4DE9C"/>
<path d="M4.98812 6.42676V6.91676C4.43812 10.3668 4.24813 13.6468 4.58813 16.6968C4.70813 17.9968 4.41812 18.3268 3.80812 17.9168C3.35812 17.6168 3.04812 17.1368 2.88812 16.6168C2.03812 13.8868 1.56812 10.3868 1.32812 6.42676H4.98812Z" stroke="#5E5E5A" stroke-width="0.15" stroke-linecap="round" stroke-linejoin="round"/>
<path d="M1.31647 6.42665C1.41647 6.64665 1.55648 6.85665 1.72648 7.02665C2.43648 7.73665 3.14648 7.97665 3.87648 7.77665C4.35648 7.64665 4.73648 7.32665 4.97648 6.91665C5.13648 6.64665 5.23647 6.33665 5.25647 6.01665L5.55647 2.42665C5.50647 1.88665 5.37648 1.41665 5.15648 1.01665C4.91648 0.586648 4.45647 0.306646 3.95647 0.276646L1.48647 0.116646C0.856471 0.0866464 0.656475 0.246646 0.686475 1.02665C0.686475 1.22665 0.706477 1.42665 0.696477 1.62665C0.656477 3.21665 0.776472 4.62665 1.13647 5.75665C1.15647 5.98665 1.21647 6.21665 1.31647 6.42665Z" fill="white" stroke="#5E5E5A" stroke-width="0.15" stroke-linecap="round" stroke-linejoin="round"/>
</svg>
