<svg width="7" height="23" viewBox="0 0 7 23" fill="none" xmlns="http://www.w3.org/2000/svg">
<path d="M5.07703 8.92699C4.41703 13.177 4.03703 17.327 3.98703 21.367C3.98703 21.647 3.92703 21.937 3.78703 22.187C3.56703 22.577 3.27702 22.637 2.91702 22.367C2.57702 22.117 2.36703 21.737 2.28703 21.327C1.45703 17.397 1.05703 13.247 0.957031 8.91699H5.07703V8.92699Z" fill="#F4DE9C" stroke="#5E5E5A" stroke-width="0.15" stroke-linecap="round" stroke-linejoin="round"/>
<path d="M5.07703 8.92699C4.41703 13.177 4.03703 17.327 3.98703 21.367C3.98703 21.647 3.92703 21.937 3.78703 22.187C3.56703 22.577 3.27702 22.637 2.91702 22.367C2.57702 22.117 2.36703 21.737 2.28703 21.327C1.45703 17.397 1.05703 13.247 0.957031 8.91699H5.07703V8.92699Z" fill="#F4DE9C"/>
<path d="M5.07703 8.92699C4.41703 13.177 4.03703 17.327 3.98703 21.367C3.98703 21.647 3.92703 21.937 3.78703 22.187C3.56703 22.577 3.27702 22.637 2.91702 22.367C2.57702 22.117 2.36703 21.737 2.28703 21.327C1.45703 17.397 1.05703 13.247 0.957031 8.91699H5.07703V8.92699Z" stroke="#5E5E5A" stroke-width="0.15" stroke-linecap="round" stroke-linejoin="round"/>
<path d="M5.07622 8.9269C5.82622 7.9969 6.17622 6.7169 6.17622 5.1469C6.17622 4.6169 6.02622 4.0969 5.76622 3.6369C3.82622 0.336896 2.03622 0.0668972 0.436219 3.6069C-0.0337813 5.7069 0.126217 7.4869 0.966217 8.91689C1.01622 9.0069 1.07622 9.0969 1.12622 9.1769C2.47622 11.2969 3.79621 11.3169 5.08621 8.91689L5.07622 8.9269Z" fill="white" stroke="#5E5E5A" stroke-width="0.15" stroke-linecap="round" stroke-linejoin="round"/>
</svg>
