<svg width="13" height="18" viewBox="0 0 13 18" fill="none" xmlns="http://www.w3.org/2000/svg">
<path d="M10.348 6.8766C11.348 10.0466 12.1081 13.0466 12.0381 15.5066C12.0281 16.0066 11.918 16.5066 11.698 16.9566C11.398 17.5466 11.078 17.6366 10.728 17.1566C10.568 16.9266 10.458 16.6566 10.408 16.3766L9.56805 12.4366C9.36805 11.5266 8.83805 10.6966 8.03805 10.2166C7.51805 9.9066 6.97805 9.7866 6.42805 9.8766C5.77805 9.9866 5.21805 10.3866 4.84805 10.9266C4.06805 12.0266 2.38804 15.2266 2.38804 15.2266C1.60804 16.3466 1.14805 16.2866 1.04805 14.9366C0.998046 13.2566 2.55804 9.5766 4.02804 6.7666L10.378 6.8766H10.348Z" fill="#F4DE9C" stroke="#5E5E5A" stroke-width="0.15" stroke-linecap="round" stroke-linejoin="round"/>
<path d="M10.348 6.8766C11.348 10.0466 12.1081 13.0466 12.0381 15.5066C12.0281 16.0066 11.918 16.5066 11.698 16.9566C11.398 17.5466 11.078 17.6366 10.728 17.1566C10.568 16.9266 10.458 16.6566 10.408 16.3766L9.56805 12.4366C9.36805 11.5266 8.83805 10.6966 8.03805 10.2166C7.51805 9.9066 6.97805 9.7866 6.42805 9.8766C5.77805 9.9866 5.21805 10.3866 4.84805 10.9266C4.06805 12.0266 2.38804 15.2266 2.38804 15.2266C1.60804 16.3466 1.14805 16.2866 1.04805 14.9366C0.998046 13.2566 2.55804 9.5766 4.02804 6.7666L10.378 6.8766H10.348Z" fill="#F4DE9C"/>
<path d="M10.348 6.8766C11.348 10.0466 12.1081 13.0466 12.0381 15.5066C12.0281 16.0066 11.918 16.5066 11.698 16.9566C11.398 17.5466 11.078 17.6366 10.728 17.1566C10.568 16.9266 10.458 16.6566 10.408 16.3766L9.56805 12.4366C9.36805 11.5266 8.83805 10.6966 8.03805 10.2166C7.51805 9.9066 6.97805 9.7866 6.42805 9.8766C5.77805 9.9866 5.21805 10.3866 4.84805 10.9266C4.06805 12.0266 2.38804 15.2266 2.38804 15.2266C1.60804 16.3466 1.14805 16.2866 1.04805 14.9366C0.998046 13.2566 2.55804 9.5766 4.02804 6.7666L10.378 6.8766H10.348Z" stroke="#5E5E5A" stroke-width="0.15" stroke-linecap="round" stroke-linejoin="round"/>
<path d="M7.10461 8.19672C6.35461 8.19672 5.62461 7.95672 4.91461 7.47672C4.59461 7.26672 4.30461 7.00672 4.04461 6.71672C3.57461 6.20672 3.20462 5.58672 2.92462 4.87672C2.22462 3.06672 2.27461 1.66672 3.06461 0.686718C3.52461 0.326718 4.06461 0.136719 4.65461 0.136719C5.08461 0.136719 5.54462 0.23672 6.03462 0.42672C6.54462 0.79672 6.99461 0.986721 7.40461 0.986721C7.68461 0.986721 7.94461 0.896718 8.16461 0.706718C8.66461 0.466718 9.12462 0.33672 9.53462 0.33672C10.0446 0.33672 10.4646 0.526719 10.8346 0.906719C11.1746 1.26672 11.3946 1.77672 11.4446 2.34672C11.5546 3.67672 11.4146 4.79672 11.0146 5.77672C10.8546 6.16672 10.6146 6.51672 10.2946 6.82672C10.1546 6.95672 10.0146 7.07672 9.8646 7.18672C8.9146 7.85672 7.99461 8.20672 7.10461 8.20672V8.19672Z" fill="white"/>
<path d="M4.65644 0.21664C5.06644 0.21664 5.51643 0.306641 5.99643 0.486641C6.52643 0.866641 6.98644 1.05664 7.40644 1.05664C7.70644 1.05664 7.97644 0.956638 8.18644 0.776638C8.68644 0.526638 9.14644 0.406639 9.53644 0.406639C10.0264 0.406639 10.4264 0.586638 10.7764 0.956638C11.1064 1.30664 11.3164 1.80664 11.3664 2.35664C11.4764 3.67664 11.3364 4.77664 10.9364 5.74664C10.7764 6.12664 10.5464 6.46664 10.2364 6.77664C10.1064 6.90664 9.96644 7.02664 9.81644 7.12664C8.88644 7.78664 7.96643 8.12664 7.10643 8.12664C6.37643 8.12664 5.65644 7.88664 4.95644 7.41664C4.64644 7.20664 4.35644 6.95664 4.09644 6.66664C3.63644 6.15664 3.26643 5.54664 2.99643 4.85664C2.30643 3.07664 2.34644 1.69664 3.09644 0.76664C3.55644 0.40664 4.07644 0.21664 4.65644 0.21664ZM4.65644 0.0666389C4.03644 0.0666389 3.48643 0.256641 3.00643 0.646641C2.18643 1.65664 2.14643 3.07664 2.85643 4.90664C3.12643 5.59664 3.49644 6.23664 3.98644 6.76664C4.24644 7.05664 4.54644 7.31664 4.87644 7.53664C5.60644 8.02664 6.34643 8.27664 7.10643 8.27664C8.01643 8.27664 8.94644 7.92664 9.90644 7.24664C10.0664 7.13664 10.2064 7.01664 10.3464 6.87664C10.6564 6.56664 10.9164 6.20664 11.0864 5.79664C11.5164 4.75664 11.6364 3.59664 11.5264 2.33664C11.4764 1.78664 11.2764 1.24664 10.8964 0.846638C10.5164 0.436638 10.0564 0.246639 9.54644 0.246639C9.11644 0.246639 8.63644 0.376639 8.12644 0.636639C7.90644 0.816639 7.66643 0.896641 7.41643 0.896641C7.00643 0.896641 6.55644 0.686638 6.07644 0.346638C5.57644 0.156638 5.10643 0.0566406 4.66643 0.0566406L4.65644 0.0666389Z" fill="#5E5E5A"/>
</svg>
