<svg width="14" height="19" viewBox="0 0 14 19" fill="none" xmlns="http://www.w3.org/2000/svg">
<path d="M10.2159 7.4768C12.0459 10.1068 12.9859 13.6768 12.9859 17.4068C12.9259 18.4968 12.5859 18.7368 12.0259 18.2668C11.6859 17.9868 11.4659 17.5768 11.3759 17.1468C10.8259 14.7168 10.0559 12.6868 8.91592 11.2968C7.58592 9.9568 6.44592 10.0268 5.44592 11.0768C4.16592 12.2368 3.49592 14.0968 3.14592 16.3068C3.09592 16.6368 2.98593 16.9668 2.79593 17.2468C2.41593 17.8168 2.02593 17.8568 1.62593 17.3168C1.42593 17.0468 1.31593 16.7268 1.26593 16.3968C0.855928 13.3168 1.39593 10.3868 2.84593 7.59679C2.86593 7.55679 2.88592 7.5168 2.91592 7.4668H10.2159V7.4768Z" fill="#F4DE9C" stroke="#5E5E5A" stroke-width="0.15" stroke-linecap="round" stroke-linejoin="round"/>
<path d="M6.71511 8.68676C5.65511 8.68676 4.57511 8.43675 3.49511 7.94675C3.27511 7.84675 3.0751 7.70676 2.8951 7.54676C2.7651 7.42676 2.65511 7.29676 2.56511 7.15676C1.43511 5.48676 0.945108 3.86676 1.07511 2.20676C1.20511 1.40676 1.4351 0.876759 1.7751 0.626759C2.3551 0.326759 3.00511 0.176758 3.73511 0.176758C4.41511 0.176758 5.1451 0.306757 5.9751 0.566757C6.2151 0.676757 6.46511 0.736759 6.71511 0.736759C6.96511 0.736759 7.21511 0.676759 7.46511 0.556759C7.96511 0.326759 8.40511 0.216759 8.82511 0.216759C9.09511 0.216759 9.3651 0.266758 9.63511 0.356758C10.0851 0.416758 10.5351 0.696757 11.0351 1.20676C11.3151 1.49676 11.4951 1.85676 11.5551 2.24676C11.7451 3.45676 11.7651 4.54676 11.5851 5.59676C11.5451 5.99676 11.4451 6.35676 11.2851 6.68676C11.0851 7.10676 10.7351 7.46676 10.2751 7.71676C9.1051 8.34676 7.90511 8.66676 6.71511 8.66676V8.68676Z" fill="white"/>
<path d="M3.73656 0.256916C4.40656 0.256916 5.12656 0.386913 5.93656 0.636913C6.19656 0.756913 6.45656 0.816914 6.71656 0.816914C6.97656 0.816914 7.21656 0.756915 7.46656 0.646915H7.50655C7.50655 0.646915 7.55656 0.646915 7.57656 0.626915C7.99656 0.406915 8.41656 0.296913 8.82656 0.296913C9.08656 0.296913 9.35656 0.336913 9.63656 0.436913C10.0566 0.496913 10.4966 0.766914 10.9766 1.26691C11.2466 1.54691 11.4166 1.88691 11.4766 2.26691C11.6666 3.46691 11.6766 4.55691 11.5066 5.59691C11.4666 5.97691 11.3666 6.33691 11.2166 6.65691C11.0266 7.06691 10.6866 7.40692 10.2366 7.65692C9.07656 8.28692 7.89656 8.59691 6.71656 8.59691C5.67656 8.59691 4.59657 8.34691 3.53657 7.85691C3.32657 7.75691 3.12656 7.62691 2.95656 7.46692C2.83656 7.35691 2.72656 7.22691 2.63656 7.09691C1.51656 5.43691 1.03656 3.83691 1.15656 2.20691C1.27656 1.42691 1.50656 0.906913 1.81656 0.686913C2.39656 0.386913 3.02656 0.236916 3.74656 0.236916M3.74656 0.0869141C3.03656 0.0869141 2.36656 0.226915 1.74656 0.556915C1.39656 0.806915 1.14655 1.32691 1.00655 2.18691C0.876552 3.94691 1.44656 5.60691 2.51656 7.17691C2.61656 7.32691 2.72656 7.45692 2.85656 7.57692C3.03656 7.74692 3.24655 7.88691 3.47655 7.99691C4.57655 8.49691 5.65655 8.74691 6.72655 8.74691C7.94655 8.74691 9.14656 8.41691 10.3266 7.78691C10.7766 7.54692 11.1566 7.18691 11.3666 6.71692C11.5366 6.36692 11.6366 5.99691 11.6666 5.60691C11.8466 4.50691 11.8166 3.37692 11.6366 2.23692C11.5666 1.82692 11.3866 1.44692 11.0966 1.14692C10.6266 0.666915 10.1566 0.346913 9.66656 0.276913C9.38656 0.186913 9.10655 0.136913 8.83655 0.136913C8.38655 0.136913 7.94656 0.256916 7.51656 0.486916H7.44655C7.20655 0.596916 6.96655 0.656914 6.72655 0.656914C6.48655 0.656914 6.24656 0.596916 6.01656 0.486916C5.23656 0.236916 4.47655 0.0869141 3.75655 0.0869141H3.74656Z" fill="#5E5E5A"/>
</svg>
