<svg width="5" height="18" viewBox="0 0 5 18" fill="none" xmlns="http://www.w3.org/2000/svg">
<path d="M3.89425 6.93652H1.09425C1.09425 6.93652 1.09425 7.12652 1.09425 7.13652C1.48425 10.3665 1.54425 13.4265 1.09425 16.2265C0.924249 17.4965 1.22425 17.6665 1.79425 17.1465C2.19425 16.7865 2.49425 16.3165 2.66425 15.7965C3.39425 13.5765 3.74425 10.4865 3.88425 6.93652" fill="#F4DE9C"/>
<path d="M3.89425 6.93652H1.09425C1.09425 6.93652 1.09425 7.12652 1.09425 7.13652C1.48425 10.3665 1.54425 13.4265 1.09425 16.2265C0.924249 17.4965 1.22425 17.6665 1.79425 17.1465C2.19425 16.7865 2.49425 16.3165 2.66425 15.7965C3.39425 13.5765 3.74425 10.4865 3.88425 6.93652" stroke="#5E5E5A" stroke-width="0.15" stroke-linecap="round" stroke-linejoin="round"/>
<path d="M1.10563 7.12685C0.895629 6.72685 0.795627 6.27685 0.775627 5.82685L0.64563 2.35685C0.59563 1.55685 0.92563 1.15685 1.39563 0.856851C2.10563 0.346851 3.12563 0.116853 3.98563 0.166853C4.58563 0.356853 4.60563 0.216851 4.68563 0.746851C4.72563 0.996851 4.73563 1.24685 4.71563 1.49685C4.60563 3.09685 4.44563 4.56685 4.28563 5.93685C4.24563 6.30685 4.10563 6.64685 3.88563 6.94685C3.86563 6.97685 3.83563 7.00685 3.81563 7.04685C2.78563 8.31685 1.92563 8.41685 1.23563 7.37685C1.18563 7.30685 1.13563 7.22685 1.09563 7.14685" fill="white"/>
<path d="M1.10563 7.12685C0.895629 6.72685 0.795627 6.27685 0.775627 5.82685L0.64563 2.35685C0.59563 1.55685 0.92563 1.15685 1.39563 0.856851C2.10563 0.346851 3.12563 0.116853 3.98563 0.166853C4.58563 0.356853 4.60563 0.216851 4.68563 0.746851C4.72563 0.996851 4.73563 1.24685 4.71563 1.49685C4.60563 3.09685 4.44563 4.56685 4.28563 5.93685C4.24563 6.30685 4.10563 6.64685 3.88563 6.94685C3.86563 6.97685 3.83563 7.00685 3.81563 7.04685C2.78563 8.31685 1.92563 8.41685 1.23563 7.37685C1.18563 7.30685 1.13563 7.22685 1.09563 7.14685" stroke="#5E5E5A" stroke-width="0.15" stroke-linecap="round" stroke-linejoin="round"/>
</svg>
