<svg width="6" height="19" viewBox="0 0 6 19" fill="none" xmlns="http://www.w3.org/2000/svg">
<path d="M1.63672 6.50684V6.99683C2.18672 10.4468 2.37672 13.7268 2.03672 16.7768C1.91672 18.0768 2.20672 18.4068 2.81672 17.9968C3.26672 17.6968 3.57672 17.2168 3.73672 16.6968C4.58672 13.9668 5.05672 10.4668 5.29672 6.50684H1.63672Z" fill="#F4DE9C" stroke="#5E5E5A" stroke-width="0.15" stroke-linecap="round" stroke-linejoin="round"/>
<path d="M1.63672 6.50684V6.99683C2.18672 10.4468 2.37672 13.7268 2.03672 16.7768C1.91672 18.0768 2.20672 18.4068 2.81672 17.9968C3.26672 17.6968 3.57672 17.2168 3.73672 16.6968C4.58672 13.9668 5.05672 10.4668 5.29672 6.50684H1.63672Z" fill="#F4DE9C"/>
<path d="M1.63672 6.50684V6.99683C2.18672 10.4468 2.37672 13.7268 2.03672 16.7768C1.91672 18.0768 2.20672 18.4068 2.81672 17.9968C3.26672 17.6968 3.57672 17.2168 3.73672 16.6968C4.58672 13.9668 5.05672 10.4668 5.29672 6.50684H1.63672Z" stroke="#5E5E5A" stroke-width="0.15" stroke-linecap="round" stroke-linejoin="round"/>
<path d="M5.29469 6.51649C5.19469 6.73649 5.05469 6.94649 4.88469 7.11649C4.17469 7.82649 3.46469 8.06649 2.73469 7.86649C2.25469 7.73649 1.87469 7.41649 1.63469 7.00649C1.47469 6.73649 1.37469 6.42649 1.35469 6.10649L1.05469 2.51649C1.10469 1.97649 1.23469 1.50649 1.45469 1.10649C1.69469 0.676492 2.15469 0.39649 2.65469 0.36649L5.12469 0.20649C5.75469 0.17649 5.95469 0.33649 5.92469 1.11649C5.92469 1.31649 5.90468 1.51649 5.91468 1.71649C5.95468 3.30649 5.83469 4.71649 5.47469 5.84649C5.45469 6.07649 5.39469 6.30649 5.29469 6.51649Z" fill="white" stroke="#5E5E5A" stroke-width="0.15" stroke-linecap="round" stroke-linejoin="round"/>
</svg>
