<svg width="7" height="22" viewBox="0 0 7 22" fill="none" xmlns="http://www.w3.org/2000/svg">
<path d="M1.54688 8.01683C2.20688 12.2668 2.58687 16.4168 2.63687 20.4568C2.63687 20.7368 2.69687 21.0268 2.83687 21.2768C3.05687 21.6668 3.34687 21.7268 3.70687 21.4568C4.04687 21.2068 4.25687 20.8268 4.33687 20.4168C5.16687 16.4868 5.56687 12.3368 5.66687 8.00684H1.54688V8.01683Z" fill="#F4DE9C" stroke="#5E5E5A" stroke-width="0.15" stroke-linecap="round" stroke-linejoin="round"/>
<path d="M1.54688 8.01683C2.20688 12.2668 2.58687 16.4168 2.63687 20.4568C2.63687 20.7368 2.69687 21.0268 2.83687 21.2768C3.05687 21.6668 3.34687 21.7268 3.70687 21.4568C4.04687 21.2068 4.25687 20.8268 4.33687 20.4168C5.16687 16.4868 5.56687 12.3368 5.66687 8.00684H1.54688V8.01683Z" fill="#F4DE9C"/>
<path d="M1.54688 8.01683C2.20688 12.2668 2.58687 16.4168 2.63687 20.4568C2.63687 20.7368 2.69687 21.0268 2.83687 21.2768C3.05687 21.6668 3.34687 21.7268 3.70687 21.4568C4.04687 21.2068 4.25687 20.8268 4.33687 20.4168C5.16687 16.4868 5.56687 12.3368 5.66687 8.00684H1.54688V8.01683Z" stroke="#5E5E5A" stroke-width="0.15" stroke-linecap="round" stroke-linejoin="round"/>
<path d="M1.54531 8.01674C0.795315 7.08674 0.445312 5.80674 0.445312 4.23674C0.445312 3.70674 0.595312 3.18674 0.855312 2.72674C2.79531 -0.57326 4.58531 -0.843259 6.18531 2.69674C6.65531 4.79674 6.49531 6.57674 5.65531 8.00674C5.60531 8.09674 5.54531 8.18674 5.49531 8.26674C4.14531 10.3867 2.82531 10.4067 1.53531 8.00674L1.54531 8.01674Z" fill="white" stroke="#5E5E5A" stroke-width="0.15" stroke-linecap="round" stroke-linejoin="round"/>
</svg>
