<svg width="12" height="18" viewBox="0 0 12 18" fill="none" xmlns="http://www.w3.org/2000/svg">
<path d="M2.2765 6.96645C1.2765 10.1364 0.516504 13.1364 0.586504 15.5964C0.596504 16.0964 0.706502 16.5964 0.926502 17.0464C1.2265 17.6364 1.5465 17.7264 1.8965 17.2464C2.0565 17.0164 2.1665 16.7464 2.2165 16.4664L3.0565 12.5264C3.2565 11.6164 3.7865 10.7864 4.5865 10.3064C5.1065 9.99644 5.6465 9.87645 6.1965 9.96645C6.8465 10.0764 7.4065 10.4764 7.7765 11.0164C8.5565 12.1164 10.2365 15.3164 10.2365 15.3164C11.0165 16.4364 11.4765 16.3764 11.5765 15.0264C11.6265 13.3464 10.0665 9.66645 8.5965 6.85645L2.2465 6.96645H2.2765Z" fill="#F4DE9C" stroke="#5E5E5A" stroke-width="0.15" stroke-linecap="round" stroke-linejoin="round"/>
<path d="M2.2765 6.96645C1.2765 10.1364 0.516504 13.1364 0.586504 15.5964C0.596504 16.0964 0.706502 16.5964 0.926502 17.0464C1.2265 17.6364 1.5465 17.7264 1.8965 17.2464C2.0565 17.0164 2.1665 16.7464 2.2165 16.4664L3.0565 12.5264C3.2565 11.6164 3.7865 10.7864 4.5865 10.3064C5.1065 9.99644 5.6465 9.87645 6.1965 9.96645C6.8465 10.0764 7.4065 10.4764 7.7765 11.0164C8.5565 12.1164 10.2365 15.3164 10.2365 15.3164C11.0165 16.4364 11.4765 16.3764 11.5765 15.0264C11.6265 13.3464 10.0665 9.66645 8.5965 6.85645L2.2465 6.96645H2.2765Z" fill="#F4DE9C"/>
<path d="M2.2765 6.96645C1.2765 10.1364 0.516504 13.1364 0.586504 15.5964C0.596504 16.0964 0.706502 16.5964 0.926502 17.0464C1.2265 17.6364 1.5465 17.7264 1.8965 17.2464C2.0565 17.0164 2.1665 16.7464 2.2165 16.4664L3.0565 12.5264C3.2565 11.6164 3.7865 10.7864 4.5865 10.3064C5.1065 9.99644 5.6465 9.87645 6.1965 9.96645C6.8465 10.0764 7.4065 10.4764 7.7765 11.0164C8.5565 12.1164 10.2365 15.3164 10.2365 15.3164C11.0165 16.4364 11.4765 16.3764 11.5765 15.0264C11.6265 13.3464 10.0665 9.66645 8.5965 6.85645L2.2465 6.96645H2.2765Z" stroke="#5E5E5A" stroke-width="0.15" stroke-linecap="round" stroke-linejoin="round"/>
<path d="M5.51694 8.28656C4.63694 8.28656 3.70694 7.94656 2.75694 7.26656C2.60694 7.15656 2.46694 7.03656 2.32694 6.90656C2.00694 6.59656 1.76694 6.24656 1.60694 5.85656C1.20694 4.87656 1.05694 3.75656 1.17694 2.42656C1.22694 1.85656 1.43694 1.34656 1.78694 0.986565C2.14694 0.596565 2.57694 0.416565 3.08694 0.416565C3.49694 0.416565 3.96694 0.546562 4.47694 0.796562C4.68694 0.976562 4.93694 1.06656 5.22694 1.06656C5.62694 1.06656 6.08694 0.886565 6.60694 0.506565C7.07694 0.326565 7.54694 0.226562 7.97694 0.226562C8.57694 0.226562 9.11694 0.416564 9.58694 0.786564C10.3669 1.74656 10.4169 3.15656 9.71694 4.96656C9.44694 5.66656 9.06694 6.28656 8.59694 6.80656C8.33694 7.09656 8.03694 7.35656 7.72694 7.56656C7.01694 8.04656 6.28694 8.29657 5.53694 8.29657L5.51694 8.28656Z" fill="white"/>
<path d="M7.95608 0.296482C8.53608 0.296482 9.05608 0.476483 9.49608 0.816483C10.2661 1.76648 10.3161 3.15648 9.62608 4.93648C9.35608 5.63648 8.98608 6.24648 8.52608 6.74648C8.26608 7.03648 7.97608 7.28648 7.66608 7.49648C6.97608 7.96648 6.24608 8.20648 5.51608 8.20648C4.64608 8.20648 3.73608 7.86648 2.80608 7.20648C2.65608 7.09648 2.51608 6.98648 2.38608 6.85648C2.07608 6.55648 1.83608 6.20648 1.68608 5.82648C1.28608 4.85648 1.14608 3.74648 1.25608 2.43648C1.30608 1.88648 1.50608 1.38648 1.84608 1.03648C2.19608 0.666484 2.59608 0.486485 3.08608 0.486485C3.48608 0.486485 3.93608 0.606483 4.40608 0.836483C4.64608 1.03648 4.91608 1.13648 5.21608 1.13648C5.63608 1.13648 6.09608 0.946483 6.62608 0.566483C7.10608 0.386483 7.55608 0.296482 7.96608 0.296482M7.96608 0.146484C7.52608 0.146484 7.05608 0.246481 6.55608 0.436481C6.07608 0.776482 5.62608 0.986485 5.21608 0.986485C4.95608 0.986485 4.71608 0.906482 4.50608 0.726482C3.99608 0.476482 3.51608 0.336483 3.08608 0.336483C2.57608 0.336483 2.11608 0.526481 1.73608 0.936481C1.35608 1.33648 1.15608 1.87648 1.10608 2.42648C0.996081 3.68648 1.10608 4.84648 1.54608 5.88648C1.71608 6.29648 1.96608 6.65648 2.28608 6.96648C2.42608 7.09648 2.56608 7.22649 2.72608 7.33649C3.68608 8.01649 4.61608 8.36649 5.52608 8.36649C6.28608 8.36649 7.03608 8.12648 7.75608 7.62648C8.08608 7.40648 8.37608 7.14648 8.64608 6.85648C9.13608 6.31648 9.51608 5.67648 9.77608 4.99648C10.4861 3.16648 10.4461 1.73648 9.62608 0.736485C9.13608 0.346485 8.58608 0.156483 7.97608 0.156483L7.96608 0.146484Z" fill="#5E5E5A"/>
</svg>
