<svg width="13" height="19" viewBox="0 0 13 19" fill="none" xmlns="http://www.w3.org/2000/svg">
<path d="M3.395 7.55687C1.565 10.1869 0.625 13.7569 0.625 17.4869C0.685 18.5769 1.025 18.8169 1.585 18.3469C1.925 18.0669 2.145 17.6569 2.235 17.2269C2.785 14.7969 3.555 12.7669 4.695 11.3769C6.025 10.0369 7.165 10.1069 8.165 11.1569C9.445 12.3169 10.115 14.1769 10.465 16.3869C10.515 16.7169 10.625 17.0469 10.815 17.3269C11.195 17.8969 11.585 17.9369 11.985 17.3969C12.185 17.1269 12.295 16.8069 12.345 16.4769C12.755 13.3969 12.215 10.4669 10.765 7.67687C10.745 7.63687 10.725 7.59688 10.695 7.54688H3.395V7.55687Z" fill="#F4DE9C" stroke="#5E5E5A" stroke-width="0.15" stroke-linecap="round" stroke-linejoin="round"/>
<path d="M6.89667 8.7766C5.70667 8.7766 4.50667 8.4566 3.33667 7.8266C2.87667 7.5766 2.52667 7.2166 2.32667 6.7966C2.16667 6.4666 2.06667 6.0966 2.02667 5.7066C1.85667 4.6566 1.86667 3.5566 2.05667 2.3566C2.11667 1.9566 2.29667 1.5966 2.57667 1.3166C3.07667 0.806601 3.52667 0.526602 3.96667 0.466602C4.24667 0.376602 4.51667 0.326603 4.78667 0.326603C5.20667 0.326603 5.63667 0.436603 6.06667 0.666603C6.07667 0.666603 6.16667 0.666603 6.17667 0.666603C6.39667 0.776603 6.64667 0.836601 6.89667 0.836601C7.14667 0.836601 7.39667 0.776601 7.64667 0.656601C8.46667 0.396601 9.19667 0.266602 9.87667 0.266602C10.6067 0.266602 11.2467 0.416601 11.8467 0.726601C12.1767 0.966601 12.4167 1.5066 12.5467 2.3066C12.6667 3.9566 12.1867 5.5766 11.0567 7.2466C10.9667 7.3866 10.8467 7.5166 10.7267 7.6366C10.5467 7.8066 10.3467 7.9366 10.1267 8.0366C9.04667 8.5266 7.96667 8.7766 6.90667 8.7766H6.89667Z" fill="white"/>
<path d="M9.87483 0.346794C10.5948 0.346794 11.2248 0.496797 11.7848 0.786797C12.1048 1.0268 12.3348 1.5368 12.4548 2.3068C12.5748 3.9468 12.0948 5.54679 10.9748 7.20679C10.8848 7.34679 10.7748 7.4668 10.6548 7.5768C10.4848 7.7368 10.2948 7.8668 10.0748 7.9668C9.00483 8.4568 7.93483 8.70679 6.89483 8.70679C5.71483 8.70679 4.52483 8.38679 3.37483 7.76679C2.92483 7.52679 2.58483 7.1768 2.39483 6.7668C2.24483 6.4468 2.14483 6.0868 2.10483 5.6968C1.93483 4.6568 1.94483 3.5768 2.13483 2.3768C2.19483 1.9968 2.36483 1.6468 2.63483 1.3768C3.12483 0.876797 3.56483 0.606795 4.00483 0.546795C4.26483 0.456795 4.52483 0.416798 4.79483 0.416798C5.20483 0.416798 5.62483 0.526796 6.04483 0.746796C6.06483 0.756796 6.09483 0.766796 6.11483 0.766796H6.15483C6.40483 0.876796 6.65483 0.936794 6.90483 0.936794C7.15483 0.936794 7.42483 0.876798 7.66483 0.756798C8.48483 0.496798 9.21483 0.366795 9.87483 0.366795M9.87483 0.216797C9.15483 0.216797 8.39483 0.366795 7.61483 0.616795C7.37483 0.726795 7.14483 0.786797 6.90483 0.786797C6.66483 0.786797 6.42483 0.726795 6.18483 0.616795H6.11483C5.68483 0.386795 5.24483 0.266796 4.79483 0.266796C4.51483 0.266796 4.24483 0.316795 3.96483 0.406796C3.47483 0.476795 3.00483 0.796794 2.53483 1.27679C2.24483 1.57679 2.05483 1.95679 1.99483 2.36679C1.81483 3.50679 1.77483 4.6368 1.96483 5.7368C2.00483 6.1268 2.10483 6.49679 2.26483 6.84679C2.48483 7.30679 2.86483 7.66679 3.30483 7.91679C4.48483 8.55679 5.67483 8.87679 6.90483 8.87679C7.96483 8.87679 9.05483 8.62679 10.1548 8.12679C10.3848 8.02679 10.5948 7.87679 10.7748 7.70679C10.9048 7.58679 11.0148 7.45679 11.1148 7.30679C12.1848 5.72679 12.7548 4.0768 12.6248 2.3168C12.4848 1.4568 12.2348 0.936794 11.8848 0.686794C11.2548 0.366794 10.5848 0.216797 9.88483 0.216797H9.87483Z" fill="#5E5E5A"/>
</svg>
