<svg width="11" height="28" viewBox="0 0 11 28" fill="none" xmlns="http://www.w3.org/2000/svg">
<mask id="mask0_289_11035" style="mask-type:luminance" maskUnits="userSpaceOnUse" x="1" y="14" width="10" height="14">
<path d="M1.99514 26.4798C2.22514 26.5398 3.24513 27.1098 4.70513 26.9698C5.61513 26.8798 6.74516 27.2498 7.85516 26.8398C8.41516 26.6298 9.06515 26.5998 9.69515 26.3898C10.3852 26.1598 10.4351 23.4398 10.2051 20.8998C9.97513 18.3598 9.46516 19.0098 8.63516 17.5798C5.01516 11.3498 4.59514 16.9398 2.80514 17.0698C1.66514 17.1498 0.135142 26.0298 1.99514 26.4698V26.4798Z" fill="white"/>
</mask>
<g mask="url(#mask0_289_11035)">
<path opacity="0.75" d="M12.2639 20.9502C12.2639 20.9502 9.00391 20.1502 9.00391 22.4202C9.00391 25.1602 12.3039 24.2902 12.3039 24.2902L12.2639 20.9402V20.9502Z" fill="#3A3A3A" stroke="#E62C2F" stroke-width="0.5" stroke-linecap="round" stroke-linejoin="round"/>
</g>
</svg>
