<svg width="10" height="33" viewBox="0 0 10 33" fill="none" xmlns="http://www.w3.org/2000/svg">
<mask id="mask0_289_10960" style="mask-type:luminance" maskUnits="userSpaceOnUse" x="0" y="19" width="10" height="14">
<path d="M0.224703 28.5599C-0.265297 26.5099 1.0047 23.7699 1.2547 22.5199C1.4947 21.2699 3.3047 19.6499 4.6247 19.7399C5.9447 19.8399 7.6547 20.8899 7.8747 21.7299C9.0147 26.0899 10.2547 28.3599 8.1947 30.7599C6.8747 32.2899 4.82469 32.4399 3.36469 31.1899C1.90469 29.9399 0.774692 30.8099 0.244692 28.5599H0.224703Z" fill="white"/>
</mask>
<g mask="url(#mask0_289_10960)">
<path opacity="0.75" d="M11.3136 24.24C10.8736 24.19 7.68359 23.27 7.68359 25.76C7.68359 28.52 11.2636 27.6 11.2636 27.6L11.3036 24.24H11.3136Z" fill="#3A3A3A" stroke="#E62C2F" stroke-width="0.5" stroke-linecap="round" stroke-linejoin="round"/>
</g>
</svg>
