<svg width="12" height="29" viewBox="0 0 12 29" fill="none" xmlns="http://www.w3.org/2000/svg">
<mask id="mask0_289_11022" style="mask-type:luminance" maskUnits="userSpaceOnUse" x="0" y="16" width="12" height="13">
<path d="M0.683594 23.9492C0.683594 21.9992 1.66359 18.5292 2.39359 17.6492C3.12359 16.7692 4.73358 15.9892 5.95358 16.1592C7.17358 16.3292 7.61358 17.7392 8.54358 17.6992C9.46358 17.6592 10.3036 17.4592 10.4936 19.2092C10.6936 20.9692 11.0836 21.1092 11.2536 22.2392C11.4236 23.3592 11.8136 24.3192 9.71359 25.1592C7.61359 25.9992 7.09358 28.5392 5.23358 27.9792C3.36358 27.4192 3.61358 26.3492 2.29358 25.8592C0.973579 25.3692 0.683594 24.6892 0.683594 23.9592V23.9492Z" fill="white"/>
</mask>
<g mask="url(#mask0_289_11022)">
<path opacity="0.75" d="M13.2917 19.0391C13.2917 19.0391 9.51172 18.4491 9.51172 20.8391C9.51172 23.6191 13.2117 23.0191 13.2117 23.0191L13.2917 19.0391Z" fill="#3A3A3A" stroke="#E62C2F" stroke-width="0.5" stroke-linecap="round" stroke-linejoin="round"/>
</g>
</svg>
