<svg width="9" height="27" viewBox="0 0 9 27" fill="none" xmlns="http://www.w3.org/2000/svg">
<mask id="mask0_289_10984" style="mask-type:luminance" maskUnits="userSpaceOnUse" x="0" y="14" width="9" height="13">
<path d="M0.514331 24.069C1.00433 24.899 2.62435 24.749 2.87435 25.439C3.11435 26.119 5.54435 26.419 6.22435 25.239C6.90435 24.069 8.17435 23.629 8.47435 22.509C8.76435 21.389 9.10435 16.989 8.47435 16.549C7.84435 16.109 6.77433 16.649 6.23433 16.059C5.69433 15.469 4.35434 13.859 3.43434 14.889C2.51434 15.919 2.35435 16.649 1.59435 16.769C-0.0756518 17.029 0.164331 23.469 0.514331 24.069Z" fill="white"/>
</mask>
<g mask="url(#mask0_289_10984)">
<path opacity="0.75" d="M11.4129 18.8389C11.4129 18.8389 7.35287 17.8989 7.25287 20.3189C7.12287 23.4289 11.4529 22.5989 11.4529 22.5989L11.4129 18.8389Z" fill="#3A3A3A" stroke="#E62C2F" stroke-width="0.5" stroke-linecap="round" stroke-linejoin="round"/>
</g>
</svg>
