<svg width="13" height="28" viewBox="0 0 13 28" fill="none" xmlns="http://www.w3.org/2000/svg">
<mask id="mask0_289_11011" style="mask-type:luminance" maskUnits="userSpaceOnUse" x="0" y="16" width="13" height="12">
<path d="M1.32567 17.6797C0.555673 19.0797 0.105677 24.4197 0.735677 25.3497C1.36568 26.2797 3.07568 26.4197 3.76568 25.7397C4.45568 25.0597 4.66567 25.8297 5.27567 26.1697C5.88567 26.4997 6.42567 25.8797 7.08567 26.5297C8.33567 27.7497 10.7457 26.9197 11.4357 24.0397C12.1157 21.1597 12.2657 18.5697 11.9257 17.6897C11.5857 16.8097 9.92567 18.2297 8.75567 17.1497C7.58567 16.0797 5.87568 16.1197 4.45568 16.7597C3.03568 17.3997 2.45567 15.6397 1.33567 17.6897L1.32567 17.6797Z" fill="white"/>
</mask>
<g mask="url(#mask0_289_11011)">
<path opacity="0.75" d="M14.3269 20.5499C14.3269 20.5499 10.2969 19.0599 10.2969 22.2399C10.2969 25.0599 14.3469 23.9599 14.3469 23.9599L14.3269 20.5499Z" fill="#3A3A3A" stroke="#E62C2F" stroke-width="0.5" stroke-linecap="round" stroke-linejoin="round"/>
</g>
</svg>
