<svg width="14" height="26" viewBox="0 0 14 26" fill="none" xmlns="http://www.w3.org/2000/svg">
<mask id="mask0_289_10996" style="mask-type:luminance" maskUnits="userSpaceOnUse" x="0" y="14" width="13" height="11">
<path d="M1.65407 16.799C0.604074 19.089 0.484066 22.129 2.11407 23.129C3.78407 24.159 4.80407 23.129 5.63407 23.369C6.46407 23.609 8.89407 26.219 10.8641 24.139C12.5341 22.379 13.5441 17.209 12.6641 15.989C10.7741 13.369 9.13408 16.359 6.48408 14.879C5.33408 14.239 2.69407 14.539 1.66407 16.789L1.65407 16.799Z" fill="white"/>
</mask>
<g mask="url(#mask0_289_10996)">
<path opacity="0.75" d="M14.9128 18.4893C14.9128 18.4893 10.8828 16.9993 10.8828 20.1793C10.8828 22.9993 14.9328 21.8993 14.9328 21.8993L14.9128 18.4893Z" fill="#3A3A3A" stroke="#E62C2F" stroke-width="0.5" stroke-linecap="round" stroke-linejoin="round"/>
</g>
</svg>
