<svg width="11" height="28" viewBox="0 0 11 28" fill="none" xmlns="http://www.w3.org/2000/svg">
<mask id="mask0_289_10825" style="mask-type:luminance" maskUnits="userSpaceOnUse" x="0" y="14" width="10" height="14">
<path d="M9.09507 26.5297C8.86507 26.5897 7.84508 27.1597 6.38508 27.0197C5.47508 26.9297 4.34505 27.2997 3.23505 26.8897C2.67505 26.6797 2.02506 26.6497 1.39506 26.4397C0.705058 26.2097 0.655078 23.4897 0.885078 20.9497C1.11508 18.4097 1.62506 19.0597 2.45506 17.6297C6.07506 11.3997 6.49507 16.9897 8.28507 17.1197C9.42507 17.1997 10.9551 26.0797 9.09507 26.5197V26.5297Z" fill="white"/>
</mask>
<g mask="url(#mask0_289_10825)">
<path opacity="0.75" d="M11.885 24.0093C11.885 24.0093 8.625 24.8093 8.625 22.5393C8.625 19.7993 11.925 20.6693 11.925 20.6693L11.885 24.0193V24.0093Z" fill="#3A3A3A" stroke="#E62C2F" stroke-width="0.5" stroke-linecap="round" stroke-linejoin="round"/>
</g>
</svg>
