<svg width="10" height="33" viewBox="0 0 10 33" fill="none" xmlns="http://www.w3.org/2000/svg">
<mask id="mask0_289_10750" style="mask-type:luminance" maskUnits="userSpaceOnUse" x="0" y="19" width="10" height="14">
<path d="M9.85345 28.6097C10.3435 26.5597 9.07342 23.8197 8.82342 22.5697C8.58342 21.3197 6.77343 19.6997 5.45343 19.7897C4.13343 19.8897 2.42343 20.9397 2.20343 21.7797C1.06343 26.1397 -0.17655 28.4097 1.88345 30.8097C3.20345 32.3397 5.25344 32.4897 6.71344 31.2397C8.17344 29.9897 9.30343 30.8597 9.83343 28.6097H9.85345Z" fill="white"/>
</mask>
<g mask="url(#mask0_289_10750)">
<path opacity="0.75" d="M12.0323 27.5297C11.5923 27.5797 8.40234 28.4997 8.40234 26.0097C8.40234 23.2497 11.9823 24.1697 11.9823 24.1697L12.0223 27.5297H12.0323Z" fill="#3A3A3A" stroke="#E62C2F" stroke-width="0.5" stroke-linecap="round" stroke-linejoin="round"/>
</g>
</svg>
