<svg width="13" height="26" viewBox="0 0 13 26" fill="none" xmlns="http://www.w3.org/2000/svg">
<mask id="mask0_289_10786" style="mask-type:luminance" maskUnits="userSpaceOnUse" x="0" y="14" width="13" height="11">
<path d="M11.413 16.8489C12.463 19.1389 12.583 22.1789 10.953 23.1789C9.28303 24.2089 8.26304 23.1789 7.43304 23.4189C6.60304 23.6589 4.17303 26.2689 2.20303 24.1889C0.533025 22.4289 -0.476962 17.2589 0.403038 16.0389C2.29304 13.4189 3.93303 16.4089 6.58303 14.9289C7.73303 14.2889 10.373 14.5889 11.403 16.8389L11.413 16.8489Z" fill="white"/>
</mask>
<g mask="url(#mask0_289_10786)">
<path opacity="0.75" d="M14.5612 21.3693C14.5612 21.3693 10.5312 22.8593 10.5312 19.6793C10.5312 16.8593 14.5812 17.9593 14.5812 17.9593L14.5612 21.3693Z" fill="#3A3A3A" stroke="#E62C2F" stroke-width="0.5" stroke-linecap="round" stroke-linejoin="round"/>
</g>
</svg>
