<svg width="11" height="25" viewBox="0 0 11 25" fill="none" xmlns="http://www.w3.org/2000/svg">
<mask id="mask0_289_10651" style="mask-type:luminance" maskUnits="userSpaceOnUse" x="0" y="0" width="11" height="12">
<path d="M10.0047 7.29904C10.4247 5.50904 9.96464 3.51904 8.64464 2.68904C7.32464 1.85904 5.10465 0.309037 4.02465 0.729037C2.94465 1.14904 2.81466 1.64904 2.09466 1.95904C1.37466 2.26904 0.214657 3.73904 0.314657 5.71904C0.414657 7.69904 2.06466 9.09904 2.41466 9.88904C2.76466 10.679 5.31464 13.049 6.98464 11.429C8.65464 9.80904 9.26464 10.459 10.0146 7.29904H10.0047Z" fill="white"/>
</mask>
<g mask="url(#mask0_289_10651)">
<path opacity="0.75" d="M12.4738 7.5694C12.4738 7.5694 8.34375 9.3994 8.34375 6.2394C8.34375 3.4394 12.4337 4.93939 12.4337 4.93939L12.4637 7.5694H12.4738Z" fill="#3A3A3A" stroke="#E62C2F" stroke-width="0.4" stroke-linecap="round" stroke-linejoin="round"/>
</g>
</svg>
