<svg width="15" height="25" viewBox="0 0 15 25" fill="none" xmlns="http://www.w3.org/2000/svg">
<mask id="mask0_289_10699" style="mask-type:luminance" maskUnits="userSpaceOnUse" x="0" y="0" width="15" height="10">
<path d="M13.6629 8.56938C14.3129 6.70938 14.7629 3.57937 13.1329 2.46937C8.81294 -0.480631 7.98294 1.24937 6.44294 0.959375C5.29294 0.749375 2.96294 0.259376 1.53294 1.24938C0.102939 2.23938 0.522917 6.51937 1.32292 7.85937C2.12292 9.19937 3.16293 9.36937 4.46293 9.28937C5.76293 9.20937 7.35294 10.2994 9.03294 9.78937C10.7129 9.28937 13.1429 10.0294 13.6529 8.56938H13.6629Z" fill="white"/>
</mask>
<g mask="url(#mask0_289_10699)">
<path opacity="0.75" d="M16.1949 7.47971C16.1949 7.47971 12.3349 9.00971 12.3049 5.84971C12.2749 3.04971 16.2149 4.19971 16.2149 4.19971V7.47971H16.1949Z" fill="#3A3A3A" stroke="#E62C2F" stroke-width="0.4" stroke-linecap="round" stroke-linejoin="round"/>
</g>
</svg>
