<svg width="13" height="24" viewBox="0 0 13 24" fill="none" xmlns="http://www.w3.org/2000/svg">
<mask id="mask0_289_10687" style="mask-type:luminance" maskUnits="userSpaceOnUse" x="0" y="0" width="13" height="10">
<path d="M11.7931 8.50916C12.6731 6.67916 13.1531 3.05916 10.9231 1.91916C8.69308 0.779159 7.02308 1.98916 5.95308 1.31916C4.88308 0.649161 1.6631 -0.180839 1.0031 2.49916C0.353101 5.17916 0.873093 7.39916 1.18309 8.16916C1.49309 8.92916 2.4431 8.67916 3.2531 8.50916C4.0631 8.34916 5.51311 9.90916 6.35311 9.91916C8.42311 9.93916 9.1031 8.07916 10.0931 8.16916C11.0831 8.25916 11.3531 9.43916 11.8031 8.50916H11.7931Z" fill="white"/>
</mask>
<g mask="url(#mask0_289_10687)">
<path opacity="0.75" d="M15.0519 6.90924C15.0519 6.90924 10.9219 8.73924 10.9219 5.57924C10.9219 2.77924 15.0119 4.27924 15.0119 4.27924L15.0419 6.90924H15.0519Z" fill="#3A3A3A" stroke="#E62C2F" stroke-width="0.4" stroke-linecap="round" stroke-linejoin="round"/>
</g>
</svg>
