<svg width="12" height="21" viewBox="0 0 12 21" fill="none" xmlns="http://www.w3.org/2000/svg">
<mask id="mask0_289_10675" style="mask-type:luminance" maskUnits="userSpaceOnUse" x="0" y="0" width="12" height="9">
<path d="M9.45711 8.15987C10.6071 7.33987 11.4171 5.36988 11.0471 3.27988C10.6771 1.19988 9.64713 1.73988 9.10713 1.63988C8.56713 1.53988 7.63711 0.619878 6.26711 0.889878C4.88711 1.16988 4.36713 0.999878 3.06713 0.709878C1.76713 0.409878 0.487131 1.24987 0.447131 3.10987C0.397131 4.96987 0.447117 6.53987 1.27712 7.22987C2.10712 7.91987 4.61713 7.02987 5.44713 7.22987C6.27713 7.42987 7.69712 9.42987 9.46712 8.15987H9.45711Z" fill="white"/>
</mask>
<g mask="url(#mask0_289_10675)">
<path opacity="0.75" d="M12.9873 5.85014C12.9873 5.85014 9.77734 7.40014 9.77734 4.72014C9.77734 2.35014 12.9673 3.62014 12.9673 3.62014L12.9973 5.85014H12.9873Z" fill="#3A3A3A" stroke="#E62C2F" stroke-width="0.4" stroke-linecap="round" stroke-linejoin="round"/>
</g>
</svg>
