<svg width="9" height="24" viewBox="0 0 9 24" fill="none" xmlns="http://www.w3.org/2000/svg">
<mask id="mask0_289_10837" style="mask-type:luminance" maskUnits="userSpaceOnUse" x="0" y="0" width="9" height="12">
<path d="M7.92552 9.41978C7.67552 10.8298 6.57554 10.3998 6.03554 11.1198C5.49554 11.8398 4.35555 11.9598 3.63555 11.1198C2.91555 10.2798 1.53554 10.0598 1.41554 8.69978C1.29554 7.33978 0.455545 2.26978 1.41554 1.59978C2.37554 0.93978 7.34554 0.58978 7.91554 1.59978C8.48554 2.60978 8.20554 7.77978 7.91554 9.41978H7.92552Z" fill="white"/>
</mask>
<g mask="url(#mask0_289_10837)">
<path opacity="0.75" d="M10.5773 7.46937C10.5773 7.46937 6.77734 9.17938 6.77734 6.22938C6.77734 3.60938 10.5473 5.00937 10.5473 5.00937L10.5773 7.46937Z" fill="#3A3A3A" stroke="#E62C2F" stroke-width="0.4" stroke-linecap="round" stroke-linejoin="round"/>
</g>
</svg>
