<svg width="9" height="26" viewBox="0 0 9 26" fill="none" xmlns="http://www.w3.org/2000/svg">
<mask id="mask0_289_10873" style="mask-type:luminance" maskUnits="userSpaceOnUse" x="0" y="0" width="9" height="13">
<path d="M1.48351 1.18967C2.48351 0.759672 3.69352 1.76968 4.14352 1.45968C4.59352 1.14968 6.84353 0.569673 7.43353 1.47967C8.02353 2.38967 8.68353 6.78967 8.22353 8.39967C7.77353 10.0097 5.29352 12.8697 4.36352 12.4597C3.43352 12.0497 1.06352 10.3597 0.893517 9.84968C0.323517 8.14968 0.0335342 1.80967 1.47353 1.18967H1.48351Z" fill="white"/>
</mask>
<g mask="url(#mask0_289_10873)">
<path opacity="0.75" d="M11.1144 4.83954C11.1144 4.83954 6.98438 3.00954 6.98438 6.16954C6.98438 8.96954 11.0744 7.46954 11.0744 7.46954L11.1044 4.83954H11.1144Z" fill="#3A3A3A" stroke="#E62C2F" stroke-width="0.4" stroke-linecap="round" stroke-linejoin="round"/>
</g>
</svg>
