<svg width="9" height="31" viewBox="0 0 9 31" fill="none" xmlns="http://www.w3.org/2000/svg">
<mask id="mask0_289_10921" style="mask-type:luminance" maskUnits="userSpaceOnUse" x="0" y="0" width="9" height="14">
<path d="M1.48554 10.8998C0.165542 9.02975 0.0255423 5.57975 0.235542 4.64975C0.445542 3.71975 3.73555 0.739756 4.52555 0.769756C5.31555 0.799756 7.68556 1.71975 8.06556 2.60975C8.45556 3.48975 8.24554 7.66975 7.54554 9.50975C6.84554 11.3498 4.27556 13.3598 3.65556 13.0398C3.03556 12.7098 2.17554 11.8998 1.48554 10.9098V10.8998Z" fill="white"/>
</mask>
<g mask="url(#mask0_289_10921)">
<path opacity="0.75" d="M10.8644 5.66962C10.8644 5.66962 6.73438 3.83962 6.73438 6.99962C6.73438 9.79962 10.8244 8.29962 10.8244 8.29962L10.8544 5.66962H10.8644Z" fill="#3A3A3A" stroke="#E62C2F" stroke-width="0.4" stroke-linecap="round" stroke-linejoin="round"/>
</g>
</svg>
