<svg width="10" height="26" viewBox="0 0 10 26" fill="none" xmlns="http://www.w3.org/2000/svg">
<mask id="mask0_289_10933" style="mask-type:luminance" maskUnits="userSpaceOnUse" x="0" y="0" width="10" height="12">
<path d="M1.89323 9.50885C1.07323 8.68885 0.573225 6.19885 0.643225 4.80885C0.713225 3.42885 1.21324 3.33885 2.34324 2.40885C3.47324 1.47885 4.88323 0.408849 5.90323 1.08885C8.51323 2.82885 10.1532 1.77885 8.99323 5.98885C8.40323 8.11885 8.60323 9.45885 7.74323 10.2988C6.88323 11.1388 5.79324 12.2089 4.72324 11.8889C3.65324 11.5689 2.44325 10.0588 1.88325 9.50885H1.89323Z" fill="white"/>
</mask>
<g mask="url(#mask0_289_10933)">
<path opacity="0.75" d="M11.4425 5.66864C11.4425 5.66864 7.3125 3.83864 7.3125 6.99864C7.3125 9.79864 11.4025 8.29864 11.4025 8.29864L11.4325 5.66864H11.4425Z" fill="#3A3A3A" stroke="#E62C2F" stroke-width="0.4" stroke-linecap="round" stroke-linejoin="round"/>
</g>
</svg>
