<svg width="11" height="25" viewBox="0 0 11 25" fill="none" xmlns="http://www.w3.org/2000/svg">
<mask id="mask0_289_10861" style="mask-type:luminance" maskUnits="userSpaceOnUse" x="0" y="0" width="11" height="12">
<path d="M1.03343 7.30978C0.613428 5.51978 1.07341 3.52978 2.39341 2.69978C3.71341 1.86978 5.93341 0.31978 7.01341 0.73978C8.09341 1.15978 8.22343 1.65978 8.94343 1.96978C9.66343 2.27978 10.8234 3.74978 10.7234 5.72978C10.6234 7.70978 8.97343 9.10978 8.62343 9.89978C8.27343 10.6898 5.72342 13.0598 4.05342 11.4398C2.38342 9.81978 1.77342 10.4698 1.02342 7.30978H1.03343Z" fill="white"/>
</mask>
<g mask="url(#mask0_289_10861)">
<path opacity="0.75" d="M13.4542 5.07977C13.4542 5.07977 9.32422 3.24978 9.32422 6.40978C9.32422 9.20978 13.4142 7.70978 13.4142 7.70978L13.4442 5.07977H13.4542Z" fill="#3A3A3A" stroke="#E62C2F" stroke-width="0.4" stroke-linecap="round" stroke-linejoin="round"/>
</g>
</svg>
