<svg width="15" height="25" viewBox="0 0 15 25" fill="none" xmlns="http://www.w3.org/2000/svg">
<mask id="mask0_289_10909" style="mask-type:luminance" maskUnits="userSpaceOnUse" x="0" y="0" width="15" height="10">
<path d="M1.37542 8.58891C0.725421 6.72891 0.27542 3.59891 1.90542 2.48891C6.22542 -0.461092 7.05542 1.26891 8.59542 0.978906C9.74542 0.768906 12.0754 0.278907 13.5054 1.26891C14.9354 2.25891 14.5154 6.53891 13.7154 7.87891C12.9154 9.21891 11.8754 9.38891 10.5754 9.30891C9.27542 9.22891 7.68541 10.3189 6.00541 9.80891C4.32541 9.30891 1.89542 10.0489 1.38542 8.58891H1.37542Z" fill="white"/>
</mask>
<g mask="url(#mask0_289_10909)">
<path opacity="0.75" d="M16.7456 3.92889C16.7456 3.92889 12.8856 2.39889 12.8556 5.55889C12.8256 8.35889 16.7656 7.20889 16.7656 7.20889V3.92889H16.7456Z" fill="#3A3A3A" stroke="#E62C2F" stroke-width="0.4" stroke-linecap="round" stroke-linejoin="round"/>
</g>
</svg>
