<svg width="13" height="24" viewBox="0 0 13 24" fill="none" xmlns="http://www.w3.org/2000/svg">
<mask id="mask0_289_10897" style="mask-type:luminance" maskUnits="userSpaceOnUse" x="0" y="0" width="13" height="10">
<path d="M1.24372 8.52967C0.363724 6.69967 -0.116281 3.07967 2.11372 1.93967C4.34372 0.799667 6.01372 2.00967 7.08372 1.33967C8.15372 0.669668 11.3737 -0.160331 12.0337 2.51967C12.6837 5.19967 12.1637 7.41967 11.8537 8.18967C11.5437 8.94967 10.5937 8.69967 9.78373 8.52967C8.97373 8.36967 7.52373 9.92967 6.68373 9.93967C4.61373 9.95967 3.93372 8.09967 2.94372 8.18967C1.95372 8.27967 1.68373 9.45967 1.23373 8.52967H1.24372Z" fill="white"/>
</mask>
<g mask="url(#mask0_289_10897)">
<path opacity="0.75" d="M15.1534 4.0495C15.1534 4.0495 11.0234 2.2195 11.0234 5.3795C11.0234 8.1795 15.1134 6.67951 15.1134 6.67951L15.1434 4.0495H15.1534Z" fill="#3A3A3A" stroke="#E62C2F" stroke-width="0.4" stroke-linecap="round" stroke-linejoin="round"/>
</g>
</svg>
