<svg width="12" height="21" viewBox="0 0 12 21" fill="none" xmlns="http://www.w3.org/2000/svg">
<mask id="mask0_289_10885" style="mask-type:luminance" maskUnits="userSpaceOnUse" x="0" y="0" width="12" height="9">
<path d="M2.5868 8.18039C1.4368 7.36039 0.626806 5.39038 0.996806 3.30038C1.36681 1.22038 2.39681 1.76039 2.93681 1.66039C3.47681 1.56039 4.4068 0.640385 5.7768 0.910385C7.1568 1.19039 7.6768 1.02039 8.9768 0.730385C10.2768 0.430385 11.5568 1.27039 11.5968 3.13039C11.6468 4.99039 11.5968 6.56039 10.7668 7.25039C9.93681 7.94039 7.42681 7.05039 6.59681 7.25039C5.76681 7.45039 4.34681 9.45039 2.57681 8.18039H2.5868Z" fill="white"/>
</mask>
<g mask="url(#mask0_289_10885)">
<path opacity="0.75" d="M13.4053 3.28082C13.4053 3.28082 10.1953 1.73082 10.1953 4.41082C10.1953 6.78082 13.3853 5.51082 13.3853 5.51082L13.4153 3.28082H13.4053Z" fill="#3A3A3A" stroke="#E62C2F" stroke-width="0.4" stroke-linecap="round" stroke-linejoin="round"/>
</g>
</svg>
