<svg width="8" height="21" viewBox="0 0 8 21" fill="none" xmlns="http://www.w3.org/2000/svg">
<mask id="mask0_289_10643" style="mask-type:luminance" maskUnits="userSpaceOnUse" x="0" y="13" width="8" height="8">
<path d="M6.55641 14.3299C6.72641 14.5499 6.86641 14.7899 6.96641 15.0499C7.94641 17.4099 8.48641 19.4899 6.56641 20.0599C4.72641 20.1199 2.88641 20.1799 1.97641 19.8399C0.796413 18.9699 0.606411 17.5899 1.00641 15.9199C1.10641 15.4999 1.27641 15.0899 1.50641 14.7299C1.96641 13.9999 2.67641 13.4499 3.53641 13.2499C3.91641 13.1599 4.29641 13.1399 4.66641 13.1899C5.42641 13.2999 6.09641 13.7299 6.55641 14.3299Z" fill="white"/>
</mask>
<g mask="url(#mask0_289_10643)">
<path opacity="0.75" d="M8.61687 17.6597C8.61687 17.6597 6.54688 18.7297 6.54688 16.8797C6.54688 15.0297 8.59687 16.1197 8.59687 16.1197L8.61687 17.6597Z" fill="#3A3A3A" stroke="#E62C2F" stroke-width="0.5" stroke-linecap="round" stroke-linejoin="round"/>
</g>
</svg>
