<svg width="7" height="22" viewBox="0 0 7 22" fill="none" xmlns="http://www.w3.org/2000/svg">
<mask id="mask0_289_10627" style="mask-type:luminance" maskUnits="userSpaceOnUse" x="0" y="12" width="7" height="10">
<path d="M1.78536 14.3299C2.00536 13.9999 2.27536 13.7099 2.60536 13.4799C3.69536 12.6999 4.81536 12.8099 5.95536 13.9899C6.72536 15.2299 7.10536 16.4799 6.82536 17.7099C6.46536 18.9199 5.78536 19.8799 4.87536 20.6699C4.55536 20.9499 4.14536 21.0899 3.72536 21.0899H3.45536C3.27536 21.0899 3.08536 21.0699 2.91536 21.0099C1.09536 20.3899 0.575356 18.5499 1.24536 15.6199C1.34536 15.1599 1.53536 14.7199 1.79536 14.3299H1.78536Z" fill="white"/>
</mask>
<g mask="url(#mask0_289_10627)">
<path opacity="0.75" d="M7.90547 17.6001C7.90547 17.6001 5.60547 18.7101 5.60547 16.7901C5.60547 15.0901 7.88547 16.0001 7.88547 16.0001L7.90547 17.6001Z" fill="#3A3A3A" stroke="#E62C2F" stroke-width="0.5" stroke-linecap="round" stroke-linejoin="round"/>
</g>
</svg>
