<svg width="11" height="20" viewBox="0 0 11 20" fill="none" xmlns="http://www.w3.org/2000/svg">
<mask id="mask0_289_10618" style="mask-type:luminance" maskUnits="userSpaceOnUse" x="1" y="12" width="9" height="8">
<path d="M8.17265 13.2691C8.38265 13.4891 8.59265 13.7491 8.79265 14.0291C9.45265 14.8891 9.86265 15.9891 9.83265 17.4991C9.78265 18.3691 9.43265 18.7791 8.85265 18.8691C8.45265 18.9291 8.03265 18.8091 7.71265 18.5591C7.38265 18.2991 7.03265 18.3891 6.67265 18.6491C6.31265 18.9091 5.90265 19.0791 5.46265 19.0791C4.64265 19.0791 3.85265 18.9791 3.06265 18.7891C2.43265 18.7191 2.04265 18.2891 2.02265 17.3591C1.84265 16.3291 1.99265 15.3091 2.48265 14.2891C2.57265 14.1091 2.69265 13.9391 2.83265 13.7891C2.85265 13.7691 2.86265 13.7491 2.88265 13.7391C4.70265 11.7791 6.47265 11.4591 8.15265 13.2591L8.17265 13.2691Z" fill="white"/>
</mask>
<g mask="url(#mask0_289_10618)">
<path opacity="0.75" d="M11.2231 16.9287C11.2231 16.9287 8.45312 18.2687 8.45312 15.9587C8.45312 13.9187 11.1931 15.0087 11.1931 15.0087L11.2131 16.9287H11.2231Z" fill="#3A3A3A" stroke="#E62C2F" stroke-width="0.5" stroke-linecap="round" stroke-linejoin="round"/>
</g>
</svg>
