<svg width="7" height="22" viewBox="0 0 7 22" fill="none" xmlns="http://www.w3.org/2000/svg">
<mask id="mask0_289_10585" style="mask-type:luminance" maskUnits="userSpaceOnUse" x="0" y="12" width="7" height="10">
<path d="M6.0967 14.3192C5.8767 13.9892 5.6067 13.6992 5.2767 13.4692C4.1867 12.6892 3.0667 12.7992 1.9267 13.9792C1.1567 15.2192 0.776694 16.4692 1.05669 17.6992C1.41669 18.9092 2.09669 19.8692 3.00669 20.6592C3.32669 20.9392 3.7367 21.0792 4.1567 21.0792H4.4267C4.6067 21.0792 4.7967 21.0592 4.9667 20.9992C6.7867 20.3792 7.3067 18.5392 6.6367 15.6092C6.5367 15.1492 6.34669 14.7092 6.08669 14.3192H6.0967Z" fill="white"/>
</mask>
<g mask="url(#mask0_289_10585)">
<path opacity="0.75" d="M8.07735 16.4696C8.07735 16.4696 5.77734 15.3596 5.77734 17.2796C5.77734 18.9796 8.05734 18.0696 8.05734 18.0696L8.07735 16.4696Z" fill="#3A3A3A" stroke="#E62C2F" stroke-width="0.5" stroke-linecap="round" stroke-linejoin="round"/>
</g>
</svg>
