<svg width="6" height="19" viewBox="0 0 6 19" fill="none" xmlns="http://www.w3.org/2000/svg">
<mask id="mask0_289_10507" style="mask-type:luminance" maskUnits="userSpaceOnUse" x="0" y="0" width="6" height="9">
<path d="M0.933668 6.97938C1.03367 7.19938 1.17367 7.40938 1.34367 7.57938C2.05367 8.28938 2.76367 8.52938 3.49367 8.32938C3.97367 8.19938 4.35367 7.87938 4.59367 7.46938C4.75367 7.19938 4.85367 6.88938 4.87367 6.56938L5.17367 2.97938C5.12367 2.43938 4.99366 1.96938 4.77366 1.56938C4.53366 1.13938 4.07367 0.859377 3.57367 0.829377L1.10367 0.669381C0.473666 0.639381 0.273663 0.799377 0.303663 1.57938C0.303663 1.77938 0.323673 1.97938 0.313673 2.17938C0.273673 3.76938 0.39366 5.17938 0.75366 6.30938C0.77366 6.53938 0.833668 6.76938 0.933668 6.97938Z" fill="white"/>
</mask>
<g mask="url(#mask0_289_10507)">
<path opacity="0.75" d="M6.05531 3.83973C6.05531 3.83973 3.94531 3.15974 3.94531 4.88974C3.94531 6.41974 6.04532 6.27973 6.04532 6.27973L6.06532 3.83973H6.05531Z" fill="#3A3A3A" stroke="#E62C2F" stroke-width="0.5" stroke-linecap="round" stroke-linejoin="round"/>
</g>
</svg>
