<svg width="7" height="23" viewBox="0 0 7 23" fill="none" xmlns="http://www.w3.org/2000/svg">
<mask id="mask0_289_10499" style="mask-type:luminance" maskUnits="userSpaceOnUse" x="0" y="0" width="7" height="11">
<path d="M5.68559 8.47963C6.43559 7.54963 6.7856 6.26963 6.7856 4.69963C6.7856 4.16963 6.6356 3.64963 6.3756 3.18963C4.4356 -0.11037 2.64559 -0.380368 1.04559 3.15963C0.575594 5.25963 0.735592 7.03963 1.57559 8.46963C1.62559 8.55963 1.6856 8.64963 1.7356 8.72963C3.0856 10.8496 4.40559 10.8696 5.69559 8.46963L5.68559 8.47963Z" fill="white"/>
</mask>
<g mask="url(#mask0_289_10499)">
<path opacity="0.75" d="M8.00639 4.82002C8.00639 4.82002 5.56641 3.44002 5.56641 5.60002C5.56641 7.51002 7.9864 6.61001 7.9864 6.61001L8.00639 4.81002V4.82002Z" fill="#3A3A3A" stroke="#E62C2F" stroke-width="0.4" stroke-linecap="round" stroke-linejoin="round"/>
</g>
</svg>
