<svg width="12" height="19" viewBox="0 0 12 19" fill="none" xmlns="http://www.w3.org/2000/svg">
<mask id="mask0_289_10491" style="mask-type:luminance" maskUnits="userSpaceOnUse" x="1" y="0" width="11" height="9">
<path d="M9.95363 7.42977C10.2636 7.11977 10.5236 6.75977 10.6936 6.34977C11.1236 5.30977 11.2436 4.14977 11.1336 2.88977C11.0836 2.33977 10.8836 1.79976 10.5036 1.39976C9.79361 0.649761 8.85362 0.639762 7.73362 1.18976C7.17362 1.65976 6.46362 1.45976 5.68362 0.899761C4.47362 0.429761 3.45362 0.529761 2.62362 1.18976C1.80362 2.19976 1.76362 3.61976 2.47361 5.44976C2.74362 6.13976 3.11362 6.77976 3.60362 7.30976C3.86362 7.59976 4.16362 7.85976 4.49362 8.07976C6.08362 9.15976 7.76362 9.04976 9.52362 7.78976C9.68362 7.67976 9.82362 7.55976 9.96362 7.41976L9.95363 7.42977Z" fill="white"/>
</mask>
<g mask="url(#mask0_289_10491)">
<path opacity="0.75" d="M12.5717 3.78987C12.5717 3.78987 9.76172 2.42988 9.76172 4.77988C9.76172 6.85988 12.5517 5.74988 12.5517 5.74988L12.5717 3.79987V3.78987Z" fill="#3A3A3A" stroke="#E62C2F" stroke-width="0.4" stroke-linecap="round" stroke-linejoin="round"/>
</g>
</svg>
