<svg width="13" height="20" viewBox="0 0 13 20" fill="none" xmlns="http://www.w3.org/2000/svg">
<mask id="mask0_289_10483" style="mask-type:luminance" maskUnits="userSpaceOnUse" x="0" y="0" width="12" height="10">
<path d="M9.92594 8.34965C10.3759 8.10965 10.7559 7.74965 10.9659 7.27965C11.1359 6.92965 11.2359 6.55965 11.2659 6.16965C11.4459 5.06965 11.4159 3.93964 11.2359 2.79964C11.1659 2.38964 10.9859 2.00965 10.6959 1.70965C10.2259 1.22965 9.75594 0.909645 9.26594 0.839645C8.52594 0.589645 7.81593 0.679644 7.11593 1.04964H7.04593C6.55593 1.27964 6.08593 1.26964 5.61593 1.04964C4.06593 0.559644 2.61593 0.459643 1.35593 1.11964C1.00593 1.36964 0.755927 1.88965 0.615927 2.74965C0.485927 4.50965 1.05594 6.16965 2.12594 7.73965C2.22594 7.88965 2.33593 8.01965 2.46593 8.13965C2.64593 8.30965 2.85593 8.44965 3.08593 8.55965C5.45593 9.63965 7.72594 9.53965 9.92594 8.34965Z" fill="white"/>
</mask>
<g mask="url(#mask0_289_10483)">
<path opacity="0.75" d="M12.9167 3.97975C12.9167 3.97975 9.88672 2.50975 9.88672 5.04975C9.88672 7.28975 12.8967 6.08975 12.8967 6.08975L12.9267 3.97975H12.9167Z" fill="#3A3A3A" stroke="#E62C2F" stroke-width="0.4" stroke-linecap="round" stroke-linejoin="round"/>
</g>
</svg>
