<svg width="13" height="20" viewBox="0 0 13 20" fill="none" xmlns="http://www.w3.org/2000/svg">
<mask id="mask0_289_10524" style="mask-type:luminance" maskUnits="userSpaceOnUse" x="1" y="0" width="12" height="10">
<path d="M2.875 8.34965C2.425 8.10965 2.045 7.74965 1.835 7.27965C1.665 6.92965 1.565 6.55965 1.535 6.16965C1.355 5.06965 1.385 3.93964 1.565 2.79964C1.635 2.38964 1.815 2.00965 2.105 1.70965C2.575 1.22965 3.045 0.909645 3.535 0.839645C4.275 0.589645 4.985 0.679644 5.685 1.04964H5.755C6.245 1.27964 6.715 1.26964 7.185 1.04964C8.735 0.559644 10.185 0.459643 11.445 1.11964C11.795 1.36964 12.045 1.88965 12.185 2.74965C12.315 4.50965 11.745 6.16965 10.675 7.73965C10.575 7.88965 10.465 8.01965 10.335 8.13965C10.155 8.30965 9.945 8.44965 9.715 8.55965C7.345 9.63965 5.075 9.53965 2.875 8.34965Z" fill="white"/>
</mask>
<g mask="url(#mask0_289_10524)">
<path opacity="0.75" d="M13.5652 5.98964C13.5652 5.98964 10.5352 7.45964 10.5352 4.91964C10.5352 2.67964 13.5452 3.87964 13.5452 3.87964L13.5752 5.98964H13.5652Z" fill="#3A3A3A" stroke="#E62C2F" stroke-width="0.5" stroke-linecap="round" stroke-linejoin="round"/>
</g>
</svg>
