<svg width="10" height="28" viewBox="0 0 10 28" fill="none" xmlns="http://www.w3.org/2000/svg">
<path d="M1.1311 19.9802C1.7111 18.3302 2.4511 14.9702 2.1911 12.1402C1.9311 9.27023 3.09109 3.83023 3.96109 1.71023C4.28109 0.930235 4.6811 0.490234 5.0611 0.490234C5.7111 0.490234 6.2711 1.72024 6.5611 3.77024C6.8411 5.76024 7.23109 7.28024 7.58109 8.62024C7.92109 9.94024 8.21109 11.0802 8.33109 12.3402C8.45109 13.6702 8.67109 15.0202 8.87109 16.3302C9.06109 17.5302 9.2611 18.7802 9.3811 19.9902H1.12109L1.1311 19.9802Z" fill="#F4DE9C"/>
<path d="M5.06955 0.560157C5.53955 0.560157 6.15954 1.40016 6.49954 3.77016C6.77954 5.76016 7.17953 7.29016 7.51953 8.63016C7.85953 9.94016 8.14953 11.0802 8.26953 12.3402C8.38953 13.6702 8.60954 15.0302 8.80954 16.3402C8.99954 17.5102 9.18954 18.7302 9.30954 19.9102H1.22955C1.79955 18.2202 2.50955 14.9202 2.25955 12.1402C2.00955 9.28016 3.15954 3.86016 4.02954 1.74016C4.33954 0.990156 4.70955 0.560157 5.06955 0.560157ZM5.06955 0.410156C4.64955 0.410156 4.22954 0.870157 3.89954 1.68016C3.06954 3.70016 1.85954 9.15016 2.11954 12.1502C2.38954 15.1502 1.53953 18.6302 1.01953 20.0602H9.46954C9.21954 17.5102 8.64955 14.9102 8.40955 12.3302C8.16955 9.75016 7.19956 7.67016 6.63956 3.75016C6.30956 1.41016 5.68954 0.410156 5.05954 0.410156H5.06955Z" fill="#5E5E5A"/>
<path d="M6.15663 27.1902C5.86663 27.1902 5.58663 27.1702 5.30663 27.1502C5.04663 27.1302 4.79663 27.1102 4.55663 27.1102C4.44663 27.1102 4.33664 27.1102 4.22664 27.1302C4.06664 27.1502 3.91662 27.1502 3.76662 27.1502C2.83662 27.1502 2.14663 26.8702 1.77663 26.7202C1.66663 26.6802 1.59662 26.6502 1.54662 26.6402C0.786619 26.4702 0.436637 25.1702 0.596637 23.0702C0.806637 20.2402 1.77664 17.4202 2.34664 17.3802C2.93664 17.3402 3.38664 16.7402 3.81664 16.1602C4.25664 15.5602 4.71664 14.9502 5.31664 14.9502C6.06664 14.9502 6.97662 15.9002 8.10662 17.8502C8.38662 18.3402 8.62664 18.5802 8.84664 18.8002C9.24664 19.2102 9.51664 19.4802 9.66664 21.1402C9.93664 24.1402 9.74662 26.3702 9.20662 26.5502C8.90662 26.6502 8.59662 26.7102 8.29662 26.7702C7.96662 26.8302 7.65663 26.9002 7.36663 27.0002C7.00663 27.1302 6.62663 27.1902 6.15663 27.1902Z" fill="white"/>
<path d="M5.30783 15.0204C6.02783 15.0204 6.91784 15.9604 8.03784 17.8904C8.32784 18.3904 8.57784 18.6504 8.78784 18.8604C9.17784 19.2604 9.43783 19.5204 9.58783 21.1504C9.88783 24.4604 9.60782 26.3404 9.17782 26.4804C8.87782 26.5804 8.57783 26.6404 8.27783 26.7004C7.94783 26.7704 7.63783 26.8303 7.33783 26.9403C6.98783 27.0703 6.61783 27.1304 6.15783 27.1304C5.87783 27.1304 5.58784 27.1104 5.31784 27.0904C5.05784 27.0704 4.80784 27.0504 4.56784 27.0504C4.44784 27.0504 4.33784 27.0504 4.22784 27.0704C4.06784 27.0904 3.91783 27.0904 3.77783 27.0904C2.85783 27.0904 2.17783 26.8203 1.80783 26.6703C1.69783 26.6303 1.61784 26.5904 1.56784 26.5804C0.847837 26.4104 0.517822 25.1404 0.677822 23.0904C0.897822 20.2404 1.87781 17.5104 2.35781 17.4704C2.98781 17.4204 3.43783 16.8104 3.87783 16.2204C4.30783 15.6404 4.75784 15.0404 5.31784 15.0404M5.30783 14.8704C4.06783 14.8704 3.48783 17.2204 2.33783 17.3004C1.19783 17.3804 -0.722172 26.1904 1.52783 26.7004C1.73783 26.7504 2.55782 27.2104 3.76782 27.2104C3.91782 27.2104 4.07782 27.2103 4.23782 27.1903C4.33782 27.1803 4.44783 27.1804 4.55783 27.1804C5.04783 27.1804 5.58782 27.2603 6.14782 27.2603C6.55782 27.2603 6.96784 27.2204 7.38784 27.0604C7.94784 26.8504 8.59784 26.8204 9.22784 26.6104C9.91784 26.3804 9.96782 23.6603 9.73782 21.1203C9.50782 18.5803 8.99784 19.2304 8.16784 17.8004C6.87784 15.5804 5.99783 14.8604 5.30783 14.8604V14.8704Z" fill="#5E5E5A"/>
<path opacity="0.4" d="M5.24905 22.8302C5.91732 22.8302 6.45905 22.2884 6.45905 21.6202C6.45905 20.9519 5.91732 20.4102 5.24905 20.4102C4.58079 20.4102 4.03906 20.9519 4.03906 21.6202C4.03906 22.2884 4.58079 22.8302 5.24905 22.8302Z" fill="#E62C2F" stroke="#E62C2F" stroke-width="0.2" stroke-linecap="round" stroke-linejoin="round"/>
<path opacity="0.4" d="M5.24905 22.8302C5.91732 22.8302 6.45905 22.2884 6.45905 21.6202C6.45905 20.9519 5.91732 20.4102 5.24905 20.4102C4.58079 20.4102 4.03906 20.9519 4.03906 21.6202C4.03906 22.2884 4.58079 22.8302 5.24905 22.8302Z" stroke="#E62C2F" stroke-width="0.2" stroke-linecap="round" stroke-linejoin="round"/>
</svg>
