<svg width="10" height="33" viewBox="0 0 10 33" fill="none" xmlns="http://www.w3.org/2000/svg">
<path d="M1.84985 22.5C2.28985 20.92 2.29984 18.79 2.30984 16.35C2.30984 15.23 2.31984 14.05 2.36984 12.86C2.52984 9.11 3.02985 3.21 3.56985 1.86C3.78985 1.32 4.07983 1 4.35983 1C4.77983 1 5.10986 1.71 5.25986 2.89C5.46986 4.58 6.01985 6.02 6.59985 7.55C6.84985 8.22 7.10985 8.89 7.34985 9.61C7.71985 10.73 7.75984 13.03 7.79984 15.46C7.83984 18.08 7.88983 20.8 8.32983 22.51H1.83984L1.84985 22.5Z" fill="#F4DE9C"/>
<path d="M4.37 1.06992C4.66 1.06992 5.03001 1.54992 5.20001 2.89992C5.41001 4.59992 5.95999 6.04992 6.54999 7.57992C6.79999 8.23992 7.05999 8.91992 7.29999 9.63992C7.66999 10.7499 7.69999 13.0399 7.73999 15.4599C7.77999 18.0399 7.82 20.7099 8.25 22.4399H1.95001C2.36001 20.8599 2.38001 18.7699 2.39001 16.3599C2.39001 15.2299 2.40001 14.0599 2.45001 12.8699C2.60001 9.21992 3.11999 3.21992 3.64999 1.88992C3.84999 1.38992 4.13 1.06992 4.37 1.06992ZM4.37 0.919922C4.06 0.919922 3.74001 1.24992 3.51001 1.82992C2.98001 3.15992 2.45999 9.03992 2.29999 12.8599C2.13999 16.6699 2.42 20.2799 1.75 22.5899H8.44C7.53 19.3099 8.20999 11.9399 7.42999 9.58992C6.64999 7.23992 5.64 5.29992 5.34 2.87992C5.17 1.49992 4.77 0.919922 4.37 0.919922Z" fill="#5E5E5A"/>
<path d="M6.09031 32.1896C5.31031 32.1896 4.56031 31.9096 3.93031 31.3696C3.37031 30.8896 2.86032 30.7196 2.41032 30.5696C1.68032 30.3196 1.1503 30.1396 0.830305 28.7796C0.470305 27.2696 1.03032 25.3696 1.44032 23.9896C1.58032 23.5196 1.70033 23.1096 1.76033 22.7896C2.00033 21.5596 3.80032 20.0596 5.03032 20.0596H5.14033C6.41033 20.1596 8.11033 21.1896 8.32033 21.9996C8.52033 22.7596 8.72032 23.4596 8.91032 24.0996C9.80032 27.1596 10.3303 29.0096 8.66032 30.9596C7.97032 31.7596 7.06031 32.1996 6.09031 32.1996V32.1896Z" fill="white"/>
<path d="M5.05169 20.1197C5.05169 20.1197 5.1217 20.1197 5.1517 20.1197C6.4017 20.2097 8.06171 21.2097 8.26171 21.9997C8.46171 22.7597 8.66171 23.4397 8.85171 24.0997C9.73171 27.1397 10.2617 28.9697 8.61169 30.8897C7.94169 31.6697 7.0417 32.1097 6.0917 32.1097C5.3317 32.1097 4.60171 31.8297 3.98171 31.3097C3.41171 30.8197 2.89171 30.6497 2.44171 30.4897C1.73171 30.2497 1.22171 30.0797 0.911707 28.7497C0.551707 27.2597 1.11169 25.3697 1.52169 23.9897C1.66169 23.5097 1.78171 23.0997 1.85171 22.7797C2.07171 21.6797 3.76169 20.1097 5.05169 20.1097M5.05169 19.9697C3.74169 19.9697 1.94172 21.5497 1.70172 22.7597C1.46172 24.0097 0.271713 26.7297 0.761713 28.7897C1.30171 31.0397 2.42171 30.1797 3.88171 31.4197C4.54171 31.9797 5.31169 32.2597 6.08169 32.2597C7.03169 32.2597 7.98169 31.8397 8.71169 30.9897C10.7717 28.5897 9.54172 26.3197 8.39172 21.9597C8.17172 21.1197 6.46172 20.0697 5.14172 19.9697C5.10172 19.9697 5.0717 19.9697 5.0317 19.9697H5.05169Z" fill="#5E5E5A"/>
<path opacity="0.4" d="M5.38187 27.7901C6.05013 27.7901 6.59186 27.2484 6.59186 26.5801C6.59186 25.9119 6.05013 25.3701 5.38187 25.3701C4.7136 25.3701 4.17188 25.9119 4.17188 26.5801C4.17188 27.2484 4.7136 27.7901 5.38187 27.7901Z" fill="#E62C2F" stroke="#E62C2F" stroke-width="0.2" stroke-linecap="round" stroke-linejoin="round"/>
<path opacity="0.4" d="M5.38187 27.7901C6.05013 27.7901 6.59186 27.2484 6.59186 26.5801C6.59186 25.9119 6.05013 25.3701 5.38187 25.3701C4.7136 25.3701 4.17188 25.9119 4.17188 26.5801C4.17188 27.2484 4.7136 27.7901 5.38187 27.7901Z" stroke="#E62C2F" stroke-width="0.2" stroke-linecap="round" stroke-linejoin="round"/>
</svg>
