<svg width="11" height="29" viewBox="0 0 11 29" fill="none" xmlns="http://www.w3.org/2000/svg">
<path d="M6.48869 5.90973C6.28869 3.09973 6.09869 0.969727 6.57869 0.969727C8.25869 0.969727 9.23869 7.08973 9.29869 7.80973C9.40869 9.23973 9.4287 11.0797 9.4687 12.3397C9.5987 16.2097 9.85869 18.9197 9.85869 18.9197C8.51869 15.8397 7.97869 13.2597 7.73869 11.4797C7.62869 10.6897 7.14869 8.41973 6.48869 5.89973V5.90973Z" fill="#EDD091" stroke="#5E5E5A" stroke-width="0.15" stroke-linecap="round" stroke-linejoin="round"/>
<path d="M9.85062 18.9299L6.14062 18.8799L9.85062 18.9299Z" fill="#EDD091" stroke="#5E5E5A" stroke-width="0.15" stroke-linecap="round" stroke-linejoin="round"/>
<path d="M9.85172 18.9297L1.26172 18.8197C1.26172 18.8197 3.2517 10.8597 3.4017 2.60973C3.4017 2.21973 3.72171 0.969727 4.31171 0.969727C5.01171 0.969727 5.3617 1.98973 5.4917 2.40973C6.6217 6.01973 7.57172 10.3397 7.73172 11.4897C7.97172 13.2697 8.51172 15.8497 9.85172 18.9297Z" fill="#F4DE9C" stroke="#5E5E5A" stroke-width="0.15" stroke-linecap="round" stroke-linejoin="round"/>
<path d="M5.2886 28.2202C5.1286 28.2202 4.96858 28.1902 4.79858 28.1402C3.78858 27.8402 3.41859 27.3902 3.05859 26.9502C2.75859 26.5902 2.47859 26.2502 1.86859 26.0202C0.488591 25.5102 0.308594 24.8102 0.308594 24.1902C0.308594 22.0902 0.938596 19.1802 1.9986 17.9402C2.6186 17.2102 3.9686 16.4502 5.1586 16.4502C5.2786 16.4502 5.3886 16.4502 5.4986 16.4702C6.0986 16.5502 6.4986 16.9402 6.8786 17.3202C7.2386 17.6702 7.58858 18.0102 8.04858 18.0102H8.30859C8.44859 17.9902 8.5886 17.9802 8.7186 17.9802C9.2686 17.9802 9.8086 18.0902 9.9686 19.4502C10.0786 20.4702 10.2686 20.9602 10.4286 21.3902C10.5486 21.7102 10.6586 22.0102 10.7286 22.4802L10.7786 22.7902C10.9486 23.7902 11.0786 24.5802 9.22861 25.3202C8.30861 25.6902 7.68861 26.3702 7.13861 26.9802C6.53861 27.6402 6.01859 28.2102 5.27859 28.2102L5.2886 28.2202Z" fill="white"/>
<path d="M5.15045 16.5201C5.26045 16.5201 5.37047 16.5201 5.48047 16.5401C6.05047 16.6201 6.44047 17.0001 6.82047 17.3701C7.20047 17.7401 7.55047 18.0801 8.04047 18.0801H8.09045L8.31046 18.0701C8.45046 18.0701 8.59046 18.0501 8.72046 18.0501C9.25046 18.0501 9.75047 18.1601 9.89047 19.4601C10.0005 20.4901 10.1905 20.9801 10.3505 21.4201C10.4705 21.7301 10.5805 22.0301 10.6505 22.4901C10.6705 22.6001 10.6805 22.7001 10.7005 22.8001C10.8605 23.7601 10.9905 24.5301 9.20047 25.2401C8.27047 25.6101 7.64044 26.3101 7.08044 26.9201C6.49044 27.5701 5.98046 28.1301 5.28046 28.1301C5.13046 28.1301 4.98046 28.1101 4.81046 28.0601C3.82046 27.7601 3.46046 27.3201 3.10046 26.8901C2.81046 26.5401 2.50046 26.1701 1.88046 25.9401C0.550463 25.4501 0.370453 24.7701 0.370453 24.1801C0.370453 22.1001 1.00047 19.2101 2.04047 17.9801C2.65047 17.2601 3.98047 16.5201 5.14047 16.5201M5.15045 16.3701C3.99045 16.3701 2.61046 17.1001 1.94046 17.8901C0.82046 19.2001 0.230469 22.2301 0.230469 24.1901C0.230469 24.9201 0.520454 25.6101 1.84045 26.0901C3.16045 26.5801 2.91046 27.6501 4.78046 28.2101C4.96046 28.2601 5.13047 28.2901 5.29047 28.2901C6.76047 28.2901 7.37047 26.1501 9.26047 25.3901C11.3605 24.5501 10.9704 23.5901 10.8004 22.4701C10.6304 21.3501 10.2305 21.2001 10.0405 19.4401C9.89047 18.1001 9.37046 17.9001 8.72046 17.9001C8.52046 17.9001 8.31045 17.9201 8.09045 17.9301C8.08045 17.9301 8.06045 17.9301 8.05045 17.9301C7.15045 17.9301 6.71046 16.5601 5.50046 16.3901C5.39046 16.3701 5.27045 16.3701 5.15045 16.3701Z" fill="#5E5E5A"/>
<path opacity="0.4" d="M5.17874 23.9395C5.84701 23.9395 6.38876 23.3978 6.38876 22.7295C6.38876 22.0613 5.84701 21.5195 5.17874 21.5195C4.51048 21.5195 3.96875 22.0613 3.96875 22.7295C3.96875 23.3978 4.51048 23.9395 5.17874 23.9395Z" fill="#E62C2F" stroke="#E62C2F" stroke-width="0.2" stroke-linecap="round" stroke-linejoin="round"/>
<path opacity="0.4" d="M5.17874 23.9395C5.84701 23.9395 6.38876 23.3978 6.38876 22.7295C6.38876 22.0613 5.84701 21.5195 5.17874 21.5195C4.51048 21.5195 3.96875 22.0613 3.96875 22.7295C3.96875 23.3978 4.51048 23.9395 5.17874 23.9395Z" stroke="#E62C2F" stroke-width="0.2" stroke-linecap="round" stroke-linejoin="round"/>
</svg>
