<svg width="10" height="27" viewBox="0 0 10 27" fill="none" xmlns="http://www.w3.org/2000/svg">
<path d="M1.32031 17.81C2.90031 14.18 3.51032 12.38 3.23032 9.45004C2.98032 6.79004 3.4803 4.12004 4.6503 1.94004C5.0403 1.21004 5.4803 0.790039 5.8403 0.790039C5.9703 0.790039 6.09031 0.850039 6.19031 0.960039C6.50031 1.30004 6.61031 2.10004 6.50031 3.14004C6.33031 4.70004 6.78031 5.62004 7.26031 6.60004C7.62031 7.33004 7.99032 8.09004 8.17032 9.20004C8.80032 13.29 9.13032 16.18 9.14032 17.8H1.32031V17.81Z" fill="#F4DE9C"/>
<path d="M5.8392 0.869726C5.9492 0.869726 6.04921 0.919727 6.12921 1.00973C6.41921 1.33973 6.52922 2.10973 6.41922 3.12973C6.24922 4.70973 6.70921 5.63973 7.18921 6.62973C7.54921 7.35973 7.9192 8.10973 8.0892 9.20973C8.7092 13.2297 9.0392 16.0897 9.0592 17.7297H1.4292C2.9792 14.1597 3.57919 12.3697 3.29919 9.43973C3.04919 6.78973 3.5492 4.13973 4.7092 1.96973C5.0792 1.26973 5.49919 0.859726 5.82919 0.859726M5.8392 0.719727C5.4692 0.719727 5.00919 1.10973 4.57919 1.90973C3.51919 3.88973 2.8692 6.52973 3.1492 9.45973C3.4292 12.3897 2.83922 14.1097 1.19922 17.8897H9.2092C9.2092 15.7597 8.63922 11.8297 8.22922 9.19973C7.81922 6.56973 6.2692 5.83973 6.5592 3.15973C6.7292 1.55973 6.36919 0.729726 5.82919 0.729726L5.8392 0.719727Z" fill="#5E5E5A"/>
<path d="M4.97906 26.1903C4.24906 26.1903 3.58906 25.9504 3.47906 25.6404C3.34906 25.2704 2.87906 25.1304 2.38906 24.9804C1.87906 24.8204 1.35904 24.6603 1.11904 24.2603C0.859043 23.8103 0.449046 19.8203 1.27905 17.9403C1.49905 17.4403 1.79904 17.1404 2.14904 17.0704C2.66904 16.9604 2.91904 16.6104 3.29904 16.0904C3.48904 15.8304 3.71905 15.5204 4.02905 15.1704C4.21905 14.9604 4.41905 14.8604 4.65905 14.8604C5.36905 14.8604 6.16905 15.7504 6.59905 16.2204L6.70904 16.3404C6.98904 16.6404 7.37906 16.6604 7.72906 16.6604H8.14904C8.43904 16.6604 8.73905 16.6804 8.96905 16.8304C9.54905 17.2304 9.24905 21.5203 8.93905 22.7104C8.77905 23.3104 8.32904 23.7204 7.83904 24.1504C7.42904 24.5104 7.00906 24.8904 6.69906 25.4304C6.41906 25.9004 5.77906 26.1903 4.97906 26.1903Z" fill="white"/>
<path d="M4.6601 14.94C5.3301 14.94 6.12009 15.81 6.55009 16.28L6.6601 16.4C6.9401 16.71 7.34011 16.75 7.73011 16.75C7.80011 16.75 7.8701 16.75 7.9401 16.75H8.15009C8.43009 16.75 8.71009 16.77 8.93009 16.91C9.43009 17.26 9.2001 21.45 8.8701 22.71C8.7201 23.29 8.29009 23.67 7.80009 24.11C7.39009 24.48 6.96011 24.86 6.64011 25.4C6.38011 25.85 5.76011 26.12 4.98011 26.12C4.20011 26.12 3.64009 25.86 3.55009 25.62C3.41009 25.22 2.9201 25.07 2.4101 24.91C1.9201 24.76 1.40009 24.6 1.18009 24.23C0.930093 23.8 0.540097 19.8 1.3401 17.98C1.5501 17.5 1.8301 17.22 2.1601 17.15C2.7101 17.03 2.98009 16.66 3.36009 16.14C3.55009 15.87 3.77009 15.57 4.08009 15.22C4.25009 15.03 4.4401 14.94 4.6601 14.94ZM4.6601 14.79C4.4201 14.79 4.1801 14.89 3.9701 15.12C3.0501 16.15 2.88011 16.84 2.13011 17C0.170105 17.41 0.700088 23.7 1.05009 24.3C1.54009 25.13 3.1601 24.98 3.4101 25.67C3.5401 26.02 4.24011 26.27 4.98011 26.27C5.72011 26.27 6.43009 26.05 6.77009 25.48C7.45009 24.31 8.72009 23.87 9.02009 22.75C9.31009 21.63 9.65009 17.23 9.02009 16.79C8.78009 16.62 8.4701 16.6 8.1601 16.6C8.0201 16.6 7.88009 16.6 7.74009 16.6C7.37009 16.6 7.0201 16.56 6.7801 16.3C6.3701 15.85 5.48011 14.79 4.67011 14.79H4.6601Z" fill="#5E5E5A"/>
<path opacity="0.4" d="M4.97955 22.1202C5.64782 22.1202 6.18954 21.5785 6.18954 20.9102C6.18954 20.2419 5.64782 19.7002 4.97955 19.7002C4.31129 19.7002 3.76953 20.2419 3.76953 20.9102C3.76953 21.5785 4.31129 22.1202 4.97955 22.1202Z" fill="#E62C2F" stroke="#E62C2F" stroke-width="0.2" stroke-linecap="round" stroke-linejoin="round"/>
<path opacity="0.4" d="M4.97955 22.1202C5.64782 22.1202 6.18954 21.5785 6.18954 20.9102C6.18954 20.2419 5.64782 19.7002 4.97955 19.7002C4.31129 19.7002 3.76953 20.2419 3.76953 20.9102C3.76953 21.5785 4.31129 22.1202 4.97955 22.1202Z" stroke="#E62C2F" stroke-width="0.2" stroke-linecap="round" stroke-linejoin="round"/>
</svg>
