<svg width="13" height="28" viewBox="0 0 13 28" fill="none" xmlns="http://www.w3.org/2000/svg">
<path d="M8.60953 2.16033C8.37953 -0.11967 6.97953 0.47033 6.87953 2.38033C6.77953 4.29033 5.91953 8.07033 4.76953 11.8203L8.78952 12.3103C9.14952 10.9303 8.84953 4.44033 8.60953 2.16033Z" fill="#F4DE9C" stroke="#5E5E5A" stroke-width="0.15" stroke-miterlimit="10"/>
<path d="M1.75 17.9408C2.82 15.5908 3.32 15.7808 2.83 13.5308C2.34 11.2808 1.39 8.77081 2.88 5.00081C4.37 1.23081 6.65 -0.519189 6.23 2.15081C5.81 4.82081 5.15 7.66081 5.88 9.69081C6.61 11.7208 8.27 12.2008 8.8 9.87081C9.33 7.54081 9.36 5.84081 9.39 4.33081C9.42 2.83081 9.66 -0.249189 10.84 1.75081C12.01 3.75081 12.85 6.91081 12.43 10.9908C12.43 10.9908 11.47 16.1608 12.35 17.9508H1.75V17.9408Z" fill="#F4DE9C" stroke="#5E5E5A" stroke-width="0.15" stroke-linecap="round" stroke-linejoin="round"/>
<path d="M8.96889 27.2206C8.46889 27.2206 8.01888 27.0406 7.67888 26.7006C7.44888 26.4706 7.20889 26.3706 6.90889 26.3706C6.79889 26.3706 6.67889 26.3806 6.56889 26.4006C6.46889 26.4106 6.35889 26.4306 6.24889 26.4306C6.09889 26.4306 5.96889 26.4006 5.84889 26.3306C5.67889 26.2406 5.52888 26.1006 5.39888 25.9706C5.20888 25.7906 5.02889 25.6206 4.79889 25.6206C4.62889 25.6206 4.44889 25.7206 4.24889 25.9106C3.98889 26.1706 3.55889 26.3106 3.06889 26.3106C2.34889 26.3106 1.66888 26.0006 1.33888 25.5306C0.718882 24.6306 1.02888 19.3206 1.77888 17.9606C2.25888 17.0806 2.63888 16.9606 2.94888 16.9606C3.13888 16.9606 3.32888 17.0106 3.53888 17.0706C3.77888 17.1306 4.02888 17.2006 4.30888 17.2006C4.54888 17.2006 4.77889 17.1506 5.01889 17.0506C5.66889 16.7606 6.34889 16.6006 6.99889 16.6006C7.87889 16.6006 8.64889 16.8806 9.23889 17.4206C9.56889 17.7206 9.95888 17.8606 10.4489 17.8606C10.7589 17.8606 11.0689 17.8006 11.3389 17.7506C11.5689 17.7106 11.7689 17.6706 11.9489 17.6706C12.1889 17.6706 12.3189 17.7506 12.3889 17.9306C12.6889 18.7106 12.6189 21.1806 11.8989 24.2306C11.4089 26.2906 10.0789 27.2106 8.97888 27.2106L8.96889 27.2206Z" fill="white"/>
<path d="M6.9901 16.6803C7.8501 16.6803 8.60009 16.9603 9.18009 17.4803C9.52009 17.7903 9.9301 17.9403 10.4401 17.9403C10.7601 17.9403 11.0701 17.8803 11.3501 17.8303C11.5701 17.7903 11.7801 17.7503 11.9401 17.7503C12.1801 17.7503 12.2701 17.8303 12.3101 17.9603C12.6101 18.7303 12.5401 21.1803 11.8201 24.2203C11.3401 26.2403 10.0401 27.1403 8.9701 27.1403C8.4901 27.1403 8.06009 26.9703 7.73009 26.6403C7.49009 26.4003 7.2201 26.2903 6.9101 26.2903C6.7901 26.2903 6.68009 26.3003 6.56009 26.3203C6.46009 26.3303 6.3601 26.3503 6.2501 26.3503C6.1101 26.3503 6.0001 26.3203 5.8901 26.2603C5.7201 26.1703 5.59009 26.0403 5.45009 25.9203C5.25009 25.7303 5.0601 25.5503 4.8001 25.5503C4.6101 25.5503 4.41009 25.6503 4.20009 25.8703C3.96009 26.1103 3.5501 26.2503 3.0701 26.2503C2.3701 26.2503 1.72009 25.9603 1.40009 25.5003C0.790091 24.6103 1.10009 19.3603 1.84009 18.0103C2.30009 17.1703 2.6601 17.0503 2.9401 17.0503C3.1201 17.0503 3.31009 17.1003 3.51009 17.1503C3.74009 17.2103 4.0101 17.2803 4.3001 17.2803C4.5501 17.2803 4.80009 17.2303 5.04009 17.1203C5.68009 16.8303 6.3501 16.6803 6.9901 16.6803ZM6.9901 16.5303C6.3101 16.5303 5.62009 16.7003 4.98009 16.9803C4.74009 17.0903 4.5101 17.1303 4.3001 17.1303C3.7801 17.1303 3.3601 16.8903 2.9401 16.8903C2.5401 16.8903 2.15009 17.1003 1.70009 17.9303C0.930094 19.3303 0.630101 24.6503 1.2701 25.5803C1.6401 26.1203 2.38009 26.4003 3.06009 26.4003C3.55009 26.4003 4.0101 26.2603 4.3001 25.9703C4.5001 25.7703 4.6601 25.7003 4.8001 25.7003C5.1501 25.7003 5.3801 26.1603 5.8201 26.4003C5.9701 26.4803 6.1101 26.5003 6.2501 26.5003C6.4701 26.5003 6.6801 26.4403 6.9101 26.4403C7.1401 26.4403 7.3701 26.5003 7.6301 26.7503C8.0001 27.1103 8.48009 27.2903 8.98009 27.2903C10.1601 27.2903 11.5001 26.2803 11.9801 24.2603C12.6601 21.3803 12.8101 18.7903 12.4701 17.9103C12.3801 17.6803 12.2001 17.6103 11.9601 17.6103C11.5701 17.6103 11.0201 17.8003 10.4601 17.8003C10.0601 17.8003 9.6601 17.7003 9.3001 17.3803C8.6501 16.7903 7.85009 16.5403 7.01009 16.5403L6.9901 16.5303Z" fill="#5E5E5A"/>
<path opacity="0.4" d="M6.85844 23.0597C7.52671 23.0597 8.06845 22.5179 8.06845 21.8496C8.06845 21.1814 7.52671 20.6396 6.85844 20.6396C6.19018 20.6396 5.64844 21.1814 5.64844 21.8496C5.64844 22.5179 6.19018 23.0597 6.85844 23.0597Z" fill="#E62C2F" stroke="#E62C2F" stroke-width="0.2" stroke-linecap="round" stroke-linejoin="round"/>
<path opacity="0.4" d="M6.85844 23.0597C7.52671 23.0597 8.06845 22.5179 8.06845 21.8496C8.06845 21.1814 7.52671 20.6396 6.85844 20.6396C6.19018 20.6396 5.64844 21.1814 5.64844 21.8496C5.64844 22.5179 6.19018 23.0597 6.85844 23.0597Z" stroke="#E62C2F" stroke-width="0.2" stroke-linecap="round" stroke-linejoin="round"/>
</svg>
