<svg width="13" height="25" viewBox="0 0 13 25" fill="none" xmlns="http://www.w3.org/2000/svg">
<path d="M4.82812 10.2598C6.09812 6.98984 7.04813 3.82984 7.23813 2.19984C7.33813 1.34984 7.73813 0.839844 8.06813 0.839844C8.32813 0.839844 8.62812 1.16984 8.66812 2.10984C8.75812 4.10984 8.67813 9.60984 8.29813 10.9098L4.82812 10.2598Z" fill="#F4DE9C"/>
<path d="M8.06876 0.919531C8.28876 0.919531 8.55875 1.22953 8.59875 2.11953C8.67875 4.02953 8.59875 9.43953 8.24875 10.8295L4.93875 10.2095C6.19875 6.95953 7.12876 3.83953 7.31876 2.21953C7.41876 1.40953 7.77875 0.929531 8.07875 0.929531M8.06876 0.769531C7.68876 0.769531 7.26875 1.30953 7.15875 2.19953C6.95875 3.85953 5.97875 7.10953 4.71875 10.3195L8.33875 10.9995C8.73875 9.81953 8.81875 4.11953 8.73875 2.10953C8.69875 1.17953 8.39875 0.769531 8.05875 0.769531H8.06876Z" fill="#5E5E5A"/>
<path d="M1.31641 15.9596C2.11641 14.4696 2.0864 13.3296 2.0264 11.1196C2.0164 10.6096 1.9964 10.0496 1.9864 9.40961C1.9564 6.56961 3.3864 3.91961 4.2464 2.33961C4.4364 1.99961 4.5864 1.70961 4.6964 1.48961C4.9664 0.909609 5.4764 0.43961 5.8264 0.43961C5.9164 0.43961 5.9964 0.479608 6.0464 0.549608C6.1564 0.689608 6.2764 1.09961 5.9464 2.25961C4.7264 6.44961 4.6764 9.01961 5.8064 9.88961C6.0364 10.0696 6.2664 10.1596 6.4864 10.1596C7.3564 10.1596 7.9364 8.82961 8.4464 7.64961C8.5664 7.35961 8.6864 7.08961 8.8064 6.85961C9.4564 5.52961 9.99639 3.08961 9.72639 1.79961C9.61639 1.22961 9.7264 0.529609 9.9664 0.229609C10.0364 0.149609 10.1064 0.0996094 10.1864 0.0996094C10.3164 0.0996094 10.6564 0.229609 11.0864 1.41961C11.7464 3.20961 11.9064 5.09961 12.0464 6.75961C12.1164 7.54961 12.1764 8.29961 12.2864 8.94961C12.6264 10.9296 12.6264 13.2796 12.2864 16.1296L1.3264 15.9696L1.31641 15.9596Z" fill="#F4DE9C"/>
<path d="M10.1775 0.159765C10.3575 0.159765 10.6675 0.489766 11.0075 1.42977C11.6575 3.20977 11.8175 5.08977 11.9575 6.74977C12.0275 7.53977 12.0875 8.29977 12.1975 8.94977C12.5375 10.9098 12.5375 13.2298 12.1975 16.0398L1.42749 15.8798C2.17749 14.4198 2.1475 13.2798 2.0975 11.1098C2.0875 10.5998 2.0675 10.0398 2.0575 9.39977C2.0275 6.57977 3.4575 3.93977 4.3075 2.35977C4.4875 2.01977 4.64749 1.72977 4.75749 1.49977C5.03749 0.899765 5.5375 0.489765 5.8175 0.489765C5.8875 0.489765 5.93749 0.519765 5.97749 0.569765C6.05749 0.669765 6.20749 1.04976 5.86749 2.20976C4.61749 6.49976 4.5875 9.01977 5.7475 9.91977C5.9875 10.1098 6.23749 10.1998 6.47749 10.1998C7.39749 10.1998 7.9875 8.83976 8.4975 7.63976C8.6175 7.34976 8.7375 7.07977 8.8575 6.84977C9.5175 5.50977 10.0475 3.03977 9.78749 1.73977C9.67749 1.19977 9.78749 0.519765 10.0075 0.239765C10.0575 0.169765 10.1175 0.139765 10.1675 0.139765M10.1775 0.00976562C9.73749 0.00976562 9.48749 1.01977 9.64749 1.78977C9.89749 3.02977 9.39749 5.43976 8.72749 6.80976C8.16749 7.95976 7.5175 10.0698 6.4875 10.0698C6.2875 10.0698 6.0775 9.98977 5.8475 9.81977C4.4275 8.71977 5.2175 5.02977 6.0175 2.26977C6.4275 0.869766 6.2075 0.349766 5.8275 0.349766C5.4575 0.349766 4.9175 0.829766 4.6275 1.43977C4.0475 2.68977 1.8775 5.90977 1.9175 9.39977C1.9575 12.8898 2.2375 14.1498 1.1875 16.0298L12.3375 16.1898C12.6875 13.3298 12.6975 10.9198 12.3475 8.91977C11.9975 6.91977 12.1275 4.04976 11.1475 1.37976C10.7775 0.379765 10.4375 0.00976562 10.1775 0.00976562Z" fill="#5E5E5A"/>
<path d="M8.75098 24.1894C7.78098 24.1894 6.78098 23.5294 6.06098 23.0394C5.69098 22.7894 5.40097 22.5994 5.18097 22.5294C5.08097 22.4994 4.97098 22.4894 4.86098 22.4894C4.64098 22.4894 4.41098 22.5394 4.17098 22.5894C3.88098 22.6494 3.56098 22.7294 3.20098 22.7294C2.70098 22.7294 2.20098 22.5894 1.69098 22.2994C1.17098 22.0094 0.800983 21.4294 0.610983 20.6494C0.230983 19.1194 0.610981 17.0494 1.53098 15.6194C2.51098 14.0894 3.86098 13.8594 4.58098 13.8594C5.11098 13.8594 5.64098 13.9794 6.00098 14.1894C6.54098 14.4994 7.08099 14.6494 7.66099 14.6494C8.20099 14.6494 8.69099 14.5294 9.16099 14.4094C9.58099 14.2994 9.98098 14.1994 10.371 14.1994C11.061 14.1994 11.611 14.5294 12.161 15.2794C13.001 16.4394 12.131 21.8094 10.171 23.6194C9.76098 23.9994 9.30098 24.1894 8.78098 24.1894H8.75098Z" fill="white"/>
<path d="M4.55921 13.9295C5.07921 13.9295 5.58921 14.0495 5.93921 14.2495C6.48921 14.5695 7.03921 14.7195 7.63921 14.7195C8.18921 14.7195 8.67921 14.5895 9.15921 14.4695C9.57921 14.3595 9.96922 14.2595 10.3492 14.2595C11.0192 14.2595 11.5492 14.5895 12.0692 15.3095C12.8892 16.4595 12.0292 21.7595 10.0892 23.5595C9.68921 23.9295 9.24921 24.1095 8.74921 24.1095C7.79921 24.1095 6.81922 23.4495 6.09922 22.9695C5.71922 22.7195 5.42921 22.5195 5.19921 22.4495C5.08921 22.4195 4.97921 22.3995 4.85921 22.3995C4.62921 22.3995 4.39921 22.4495 4.14921 22.5095C3.84921 22.5795 3.54921 22.6395 3.18921 22.6395C2.69921 22.6395 2.21921 22.4995 1.71921 22.2195C1.21921 21.9295 0.85921 21.3795 0.66921 20.6195C0.29921 19.1095 0.669213 17.0595 1.57921 15.6395C2.53921 14.1395 3.85921 13.9195 4.55921 13.9195M4.55921 13.7795C3.54921 13.7795 2.32921 14.1995 1.44921 15.5695C0.0392085 17.7695 -0.0607946 21.3795 1.64921 22.3595C2.24921 22.6995 2.74921 22.7995 3.19921 22.7995C3.87921 22.7995 4.39921 22.5595 4.86921 22.5595C4.96921 22.5595 5.06921 22.5695 5.16921 22.5995C5.78921 22.7795 7.27921 24.2595 8.75921 24.2595C9.24921 24.2595 9.73921 24.0995 10.1992 23.6695C12.1892 21.8295 13.0792 16.4495 12.1992 15.2295C11.5792 14.3595 10.9692 14.1095 10.3492 14.1095C9.50922 14.1095 8.63921 14.5595 7.63921 14.5595C7.13921 14.5595 6.59922 14.4495 6.01922 14.1095C5.69922 13.9195 5.16922 13.7695 4.56922 13.7695L4.55921 13.7795Z" fill="#5E5E5A"/>
<path opacity="0.4" d="M6.46001 20.1202C7.12827 20.1202 7.67 19.5785 7.67 18.9102C7.67 18.2419 7.12827 17.7002 6.46001 17.7002C5.79174 17.7002 5.25 18.2419 5.25 18.9102C5.25 19.5785 5.79174 20.1202 6.46001 20.1202Z" fill="#E62C2F" stroke="#E62C2F" stroke-width="0.2" stroke-linecap="round" stroke-linejoin="round"/>
<path opacity="0.4" d="M6.46001 20.1202C7.12827 20.1202 7.67 19.5785 7.67 18.9102C7.67 18.2419 7.12827 17.7002 6.46001 17.7002C5.79174 17.7002 5.25 18.2419 5.25 18.9102C5.25 19.5785 5.79174 20.1202 6.46001 20.1202Z" stroke="#E62C2F" stroke-width="0.2" stroke-linecap="round" stroke-linejoin="round"/>
</svg>
