<svg width="11" height="29" viewBox="0 0 11 29" fill="none" xmlns="http://www.w3.org/2000/svg">
<path d="M4.56921 5.90973C4.76921 3.09973 4.95922 0.969727 4.47922 0.969727C2.79922 0.969727 1.81922 7.08973 1.75922 7.80973C1.64922 9.23973 1.6292 11.0797 1.5892 12.3397C1.4592 16.2097 1.19922 18.9197 1.19922 18.9197C2.53922 15.8397 3.07921 13.2597 3.31921 11.4797C3.42921 10.6897 3.90921 8.41973 4.56921 5.89973V5.90973Z" fill="#EDD091" stroke="#5E5E5A" stroke-width="0.15" stroke-linecap="round" stroke-linejoin="round"/>
<path d="M1.19922 18.9299L4.91922 18.8799L1.19922 18.9299Z" fill="#EDD091" stroke="#5E5E5A" stroke-width="0.15" stroke-linecap="round" stroke-linejoin="round"/>
<path d="M1.19922 18.9297L9.78922 18.8197C9.78922 18.8197 7.7992 10.8597 7.6492 2.60973C7.6492 2.21973 7.3292 0.969727 6.7392 0.969727C6.0392 0.969727 5.6892 1.98973 5.5592 2.40973C4.4292 6.01973 3.47921 10.3397 3.31921 11.4897C3.07921 13.2697 2.53922 15.8497 1.19922 18.9297Z" fill="#F4DE9C" stroke="#5E5E5A" stroke-width="0.15" stroke-linecap="round" stroke-linejoin="round"/>
<path d="M5.85993 28.27C5.11993 28.27 4.59994 27.7 3.99994 27.04C3.44994 26.43 2.82995 25.75 1.90995 25.38C0.0599451 24.64 0.199927 23.85 0.359927 22.85L0.409945 22.54C0.479945 22.07 0.589933 21.77 0.709933 21.45C0.869933 21.02 1.05995 20.53 1.16995 19.51C1.31995 18.15 1.86995 18.03 2.41995 18.03C2.54995 18.03 2.68993 18.03 2.82993 18.05L3.04993 18.06C3.55993 18.06 3.89993 17.73 4.26993 17.37C4.65993 16.99 5.05994 16.6 5.64994 16.52C5.75994 16.5 5.86993 16.5 5.98993 16.5C7.16993 16.5 8.51994 17.26 9.14994 17.99C10.2099 19.23 10.8399 22.14 10.8399 24.24C10.8399 24.86 10.6499 25.56 9.27994 26.07C8.66994 26.3 8.38994 26.64 8.08994 27C7.72994 27.44 7.35995 27.89 6.34995 28.19C6.17995 28.24 6.01993 28.27 5.85993 28.27Z" fill="white"/>
<path d="M6.00025 16.5699C7.16025 16.5699 8.49025 17.3099 9.10025 18.0299C10.1503 19.2599 10.7702 22.1499 10.7702 24.2299C10.7702 24.8199 10.5903 25.4999 9.26026 25.9899C8.63026 26.2199 8.33026 26.5899 8.04026 26.9399C7.69026 27.3699 7.32023 27.8099 6.33023 28.1099C6.17023 28.1599 6.01023 28.1799 5.86023 28.1799C5.16023 28.1799 4.65025 27.6199 4.06025 26.9699C3.51025 26.3599 2.88025 25.6699 1.94025 25.2899C0.15025 24.5699 0.28025 23.8099 0.44025 22.8499C0.46025 22.7499 0.480238 22.6399 0.490238 22.5399C0.560238 22.0799 0.670256 21.7799 0.790256 21.4699C0.950256 21.0299 1.14025 20.5399 1.25025 19.5099C1.39025 18.2099 1.89026 18.0999 2.42026 18.0999C2.55026 18.0999 2.69023 18.0999 2.83023 18.1199H3.05024L3.10025 18.1299C3.59025 18.1299 3.95025 17.7799 4.32025 17.4199C4.70025 17.0499 5.09025 16.6699 5.66025 16.5899C5.77025 16.5699 5.88024 16.5699 5.99024 16.5699M6.00025 16.4199C5.88025 16.4199 5.76024 16.4199 5.65024 16.4399C4.45024 16.6099 4.00025 17.9799 3.10025 17.9799C3.09025 17.9799 3.07025 17.9799 3.06025 17.9799C2.84025 17.9699 2.63024 17.9499 2.43024 17.9499C1.78024 17.9499 1.26023 18.1499 1.11023 19.4899C0.910233 21.2499 0.520254 21.3899 0.350254 22.5199C0.180254 23.6399 -0.209738 24.5999 1.89026 25.4399C3.79026 26.1999 4.39023 28.3399 5.86023 28.3399C6.02023 28.3399 6.19024 28.3099 6.37024 28.2599C8.24024 27.6999 7.99024 26.6299 9.31024 26.1399C10.6302 25.6499 10.9203 24.9699 10.9203 24.2399C10.9203 22.2899 10.3302 19.2499 9.21024 17.9399C8.54024 17.1499 7.16025 16.4199 6.00025 16.4199Z" fill="#5E5E5A"/>
<path opacity="0.4" d="M5.63971 23.38C6.30797 23.38 6.8497 22.8382 6.8497 22.17C6.8497 21.5017 6.30797 20.96 5.63971 20.96C4.97144 20.96 4.42969 21.5017 4.42969 22.17C4.42969 22.8382 4.97144 23.38 5.63971 23.38Z" fill="#E62C2F" stroke="#E62C2F" stroke-width="0.2" stroke-linecap="round" stroke-linejoin="round"/>
<path opacity="0.4" d="M5.63971 23.38C6.30797 23.38 6.8497 22.8382 6.8497 22.17C6.8497 21.5017 6.30797 20.96 5.63971 20.96C4.97144 20.96 4.42969 21.5017 4.42969 22.17C4.42969 22.8382 4.97144 23.38 5.63971 23.38Z" stroke="#E62C2F" stroke-width="0.2" stroke-linecap="round" stroke-linejoin="round"/>
</svg>
