<svg width="10" height="27" viewBox="0 0 10 27" fill="none" xmlns="http://www.w3.org/2000/svg">
<path d="M1 17.8498C1.02 16.2298 1.34001 13.3398 1.98001 9.24984C2.15001 8.13984 2.52 7.37984 2.88 6.64984C3.36 5.67984 3.81001 4.75984 3.64001 3.18984C3.53001 2.14984 3.64001 1.34984 3.95001 1.00984C4.05001 0.899844 4.16999 0.839844 4.29999 0.839844C4.65999 0.839844 5.09999 1.25984 5.48999 1.98984C6.65999 4.16984 7.16 6.83984 6.91 9.49984C6.63 12.4298 7.24001 14.2298 8.82001 17.8598H1V17.8498Z" fill="#F4DE9C"/>
<path d="M4.30185 0.919531C4.63185 0.919531 5.05187 1.33953 5.42188 2.02953C6.58187 4.19953 7.08185 6.84953 6.83185 9.49953C6.55185 12.4195 7.15187 14.2195 8.70187 17.7895H1.07187C1.10187 16.1495 1.42187 13.2895 2.04187 9.26953C2.21187 8.16953 2.58186 7.41953 2.94186 6.68953C3.42186 5.70953 3.88185 4.77953 3.71185 3.18953C3.60185 2.16953 3.71186 1.38953 4.00186 1.06953C4.09186 0.96953 4.18187 0.929531 4.29187 0.929531M4.30185 0.769531C3.76185 0.769531 3.40187 1.60953 3.57187 3.19953C3.86187 5.88953 2.31186 6.60953 1.90186 9.23953C1.49186 11.8695 0.931875 15.7995 0.921875 17.9295H8.93185C7.29185 14.1595 6.70187 12.4295 6.98187 9.50953C7.26187 6.57953 6.61185 3.93953 5.55185 1.95953C5.12185 1.15953 4.66187 0.769531 4.29187 0.769531H4.30185Z" fill="#5E5E5A"/>
<path d="M5.17119 26.2394C4.37119 26.2394 3.73119 25.9594 3.45119 25.4794C3.14119 24.9494 2.72118 24.5694 2.31118 24.1994C1.83118 23.7694 1.37117 23.3594 1.21117 22.7594C0.90117 21.5794 0.601171 17.2894 1.18117 16.8794C1.41117 16.7194 1.71118 16.6994 2.00118 16.6994H2.42119C2.77119 16.6994 3.16118 16.6794 3.44118 16.3794L3.55117 16.2594C3.98117 15.7794 4.79117 14.8994 5.49117 14.8994C5.73117 14.8994 5.94117 14.9994 6.12117 15.2094C6.43117 15.5594 6.66118 15.8694 6.85118 16.1294C7.23118 16.6494 7.48118 16.9994 8.00118 17.1094C8.36118 17.1894 8.65117 17.4794 8.87117 17.9794C9.68117 19.8094 9.28118 23.8594 9.03118 24.2994C8.79118 24.6994 8.27119 24.8594 7.76119 25.0194C7.26119 25.1694 6.80119 25.3094 6.67119 25.6794C6.56119 25.9894 5.90119 26.2294 5.17119 26.2294V26.2394Z" fill="white"/>
<path d="M5.49121 14.9898C5.71121 14.9898 5.90123 15.0798 6.07123 15.2698C6.38123 15.6198 6.60123 15.9198 6.79123 16.1898C7.17123 16.7098 7.44121 17.0798 7.99121 17.1998C8.32121 17.2698 8.60122 17.5498 8.81122 18.0298C9.61122 19.8498 9.22122 23.8498 8.97122 24.2798C8.75122 24.6598 8.24121 24.8098 7.74121 24.9598C7.23121 25.1198 6.74123 25.2698 6.60123 25.6698C6.51123 25.9098 5.94123 26.1698 5.17123 26.1698C4.40123 26.1698 3.78123 25.8998 3.51123 25.4498C3.19123 24.9098 2.77123 24.5198 2.35123 24.1598C1.85123 23.7198 1.43122 23.3398 1.28122 22.7598C0.951219 21.4998 0.721221 17.3098 1.22122 16.9598C1.43122 16.8098 1.72122 16.7898 2.00122 16.7898H2.21121H2.42123C2.81123 16.7898 3.21122 16.7498 3.50122 16.4398L3.61121 16.3198C4.03121 15.8498 4.82122 14.9798 5.50122 14.9798M5.49121 14.8398C4.69121 14.8398 3.80123 15.8998 3.38123 16.3498C3.14123 16.6098 2.79123 16.6498 2.42123 16.6498C2.28123 16.6498 2.14122 16.6498 2.00122 16.6498C1.69122 16.6498 1.38123 16.6798 1.14123 16.8398C0.511235 17.2798 0.851235 21.6698 1.14123 22.7998C1.43123 23.9198 2.70123 24.3598 3.39123 25.5298C3.72123 26.0998 4.47121 26.3198 5.18121 26.3198C5.92121 26.3198 6.62122 26.0698 6.75122 25.7198C6.99122 25.0398 8.62121 25.1798 9.11121 24.3498C9.46121 23.7498 10.0012 17.4598 8.03122 17.0498C7.28122 16.8898 7.11122 16.1998 6.19122 15.1698C5.98122 14.9298 5.74122 14.8398 5.50122 14.8398H5.49121Z" fill="#5E5E5A"/>
<path opacity="0.4" d="M5.10843 21.7901C5.77669 21.7901 6.31845 21.2484 6.31845 20.5801C6.31845 19.9119 5.77669 19.3701 5.10843 19.3701C4.44016 19.3701 3.89844 19.9119 3.89844 20.5801C3.89844 21.2484 4.44016 21.7901 5.10843 21.7901Z" fill="#E62C2F" stroke="#E62C2F" stroke-width="0.2" stroke-linecap="round" stroke-linejoin="round"/>
<path opacity="0.4" d="M5.10843 21.7901C5.77669 21.7901 6.31845 21.2484 6.31845 20.5801C6.31845 19.9119 5.77669 19.3701 5.10843 19.3701C4.44016 19.3701 3.89844 19.9119 3.89844 20.5801C3.89844 21.2484 4.44016 21.7901 5.10843 21.7901Z" stroke="#E62C2F" stroke-width="0.2" stroke-linecap="round" stroke-linejoin="round"/>
</svg>
