<svg width="13" height="25" viewBox="0 0 13 25" fill="none" xmlns="http://www.w3.org/2000/svg">
<path d="M4.84894 10.9596C4.46894 9.65965 4.38894 4.16965 4.47894 2.15965C4.51894 1.22965 4.81892 0.889648 5.07892 0.889648C5.40892 0.889648 5.80894 1.39965 5.90894 2.24965C6.09894 3.87965 7.03894 7.02965 8.31894 10.3096L4.84894 10.9596Z" fill="#F4DE9C"/>
<path d="M5.07913 0.969336C5.37913 0.969336 5.73914 1.44934 5.83914 2.25934C6.02914 3.87934 6.95915 6.99934 8.21915 10.2493L4.90915 10.8693C4.54915 9.48934 4.46914 4.07934 4.55914 2.15934C4.59914 1.27934 4.86914 0.959335 5.08914 0.959335M5.07913 0.819336C4.74913 0.819336 4.43914 1.22934 4.39914 2.15934C4.30914 4.15934 4.39913 9.85934 4.79913 11.0493L8.41916 10.3693C7.16916 7.15934 6.17916 3.90934 5.97916 2.24934C5.86916 1.35934 5.45915 0.819336 5.06915 0.819336H5.07913Z" fill="#5E5E5A"/>
<path d="M0.868139 16.1696C0.528139 13.3196 0.518139 10.9696 0.868139 8.98965C0.978139 8.33965 1.03813 7.58965 1.10813 6.79965C1.24813 5.13965 1.40815 3.25965 2.06815 1.45965C2.50815 0.269648 2.84814 0.139648 2.96814 0.139648C3.04814 0.139648 3.11815 0.17965 3.18815 0.26965C3.42815 0.56965 3.53814 1.26965 3.42814 1.82965C3.16814 3.11965 3.70813 5.56965 4.35813 6.88965C4.46813 7.11965 4.58814 7.39965 4.71814 7.67965C5.22814 8.85965 5.79814 10.1896 6.67814 10.1896C6.89814 10.1896 7.12813 10.0996 7.35813 9.91965C8.47813 9.04965 8.43814 6.47965 7.21814 2.28965C6.87814 1.12965 7.00814 0.719649 7.11814 0.579649C7.17814 0.509649 7.24814 0.469648 7.33814 0.469648C7.68814 0.469648 8.19814 0.93965 8.46814 1.51965C8.57814 1.73965 8.72816 2.02965 8.91816 2.36965C9.77816 3.94965 11.2081 6.59965 11.1781 9.43965C11.1781 10.0796 11.1582 10.6396 11.1382 11.1496C11.0782 13.3596 11.0481 14.4997 11.8481 15.9897L0.888158 16.1497L0.868139 16.1696Z" fill="#F4DE9C"/>
<path d="M2.95891 0.20957C3.00891 0.20957 3.06892 0.23957 3.11892 0.30957C3.34892 0.58957 3.44892 1.27957 3.33892 1.80957C3.07892 3.11957 3.61891 5.58957 4.26891 6.91957C4.37891 7.14957 4.49893 7.42957 4.62893 7.70957C5.14893 8.90957 5.72892 10.2696 6.64892 10.2696C6.88892 10.2696 7.12893 10.1696 7.37893 9.98957C8.54893 9.08957 8.50893 6.55957 7.25893 2.27957C6.91893 1.10957 7.06892 0.73957 7.14892 0.63957C7.18892 0.58957 7.23892 0.55957 7.30892 0.55957C7.58892 0.55957 8.08892 0.959571 8.36892 1.56957C8.47892 1.79957 8.62893 2.08957 8.81893 2.42957C9.66893 4.00957 11.0989 6.63957 11.0689 9.46957C11.0689 10.1096 11.0489 10.6696 11.0289 11.1796C10.9689 13.3496 10.9389 14.4896 11.6889 15.9496L0.918935 16.1096C0.578935 13.2996 0.588935 10.9796 0.918935 9.01957C1.02893 8.35957 1.09893 7.60957 1.15893 6.81957C1.29893 5.16957 1.45891 3.28957 2.10891 1.49957C2.44891 0.559571 2.75892 0.22957 2.93892 0.22957M2.95891 0.0595703C2.68891 0.0595703 2.34891 0.429571 1.98891 1.42957C1.00891 4.09957 1.12893 6.96957 0.78893 8.96957C0.44893 10.9696 0.448909 13.3796 0.798909 16.2396L11.9489 16.0796C10.8989 14.2096 11.1789 12.9396 11.2189 9.44957C11.2589 5.95957 9.08893 2.73957 8.50893 1.48957C8.21893 0.879571 7.68892 0.39957 7.30892 0.39957C6.92892 0.39957 6.70892 0.909571 7.11892 2.31957C7.91892 5.07957 8.70893 8.77957 7.28893 9.86957C7.05893 10.0496 6.84892 10.1196 6.64892 10.1196C5.61892 10.1196 4.96893 7.99957 4.40893 6.85957C3.73893 5.48957 3.23891 3.07957 3.48891 1.83957C3.64891 1.06957 3.39891 0.0595703 2.95891 0.0595703Z" fill="#5E5E5A"/>
<path d="M4.39075 24.2392C3.87075 24.2392 3.41073 24.0492 3.00073 23.6692C1.04073 21.8592 0.170743 16.4892 1.01074 15.3292C1.55074 14.5792 2.10072 14.2492 2.80072 14.2492C3.19072 14.2492 3.59074 14.3492 4.01074 14.4592C4.48074 14.5792 4.97074 14.6992 5.51074 14.6992C6.09074 14.6992 6.63075 14.5492 7.17075 14.2392C7.53075 14.0292 8.05073 13.9092 8.59073 13.9092C9.31073 13.9092 10.6607 14.1392 11.6407 15.6692C12.5607 17.0992 12.9307 19.1692 12.5607 20.6992C12.3707 21.4792 11.9907 22.0492 11.4807 22.3492C10.9707 22.6392 10.4807 22.7792 9.97073 22.7792C9.61073 22.7792 9.28073 22.7092 9.00073 22.6392C8.75073 22.5892 8.52073 22.5392 8.31073 22.5392C8.19073 22.5392 8.09072 22.5492 7.99072 22.5792C7.78072 22.6392 7.48072 22.8392 7.11072 23.0892C6.39072 23.5692 5.39075 24.2392 4.42075 24.2392H4.39075Z" fill="white"/>
<path d="M8.5801 13.9791C9.2801 13.9791 10.6001 14.1991 11.5601 15.6991C12.4701 17.1191 12.8401 19.1591 12.4701 20.6791C12.2801 21.4391 11.9201 21.9991 11.4201 22.2791C10.9201 22.5691 10.4401 22.6991 9.95013 22.6991C9.60013 22.6991 9.2901 22.6291 8.9901 22.5691C8.7401 22.5191 8.51011 22.4591 8.28011 22.4591C8.16011 22.4591 8.04012 22.4791 7.94012 22.5091C7.71012 22.5791 7.42012 22.7791 7.04012 23.0291C6.32012 23.5091 5.34013 24.1691 4.39013 24.1691C3.89013 24.1691 3.4501 23.9891 3.0501 23.6191C1.1101 21.8191 0.250121 16.5191 1.07012 15.3691C1.59012 14.6391 2.13012 14.3191 2.79012 14.3191C3.17012 14.3191 3.56012 14.4191 3.98012 14.5291C4.46012 14.6491 4.95011 14.7791 5.50011 14.7791C6.09011 14.7791 6.65013 14.6291 7.20013 14.3091C7.54013 14.1091 8.0601 13.9891 8.5801 13.9891M8.5801 13.8291C7.9801 13.8291 7.45012 13.9791 7.13012 14.1691C6.55012 14.5091 6.01012 14.6191 5.51012 14.6191C4.50012 14.6191 3.6301 14.1691 2.8001 14.1691C2.1801 14.1691 1.58013 14.4191 0.950126 15.2891C0.0701263 16.5091 0.950126 21.8891 2.95013 23.7291C3.41013 24.1591 3.90013 24.3191 4.39013 24.3191C5.87013 24.3191 7.35012 22.8391 7.98012 22.6591C8.08012 22.6291 8.18011 22.6191 8.28011 22.6191C8.75011 22.6191 9.27013 22.8591 9.95013 22.8591C10.3901 22.8591 10.9001 22.7591 11.5001 22.4191C13.2101 21.4391 13.1001 17.8291 11.7001 15.6291C10.8201 14.2591 9.60011 13.8391 8.59011 13.8391L8.5801 13.8291Z" fill="#5E5E5A"/>
<path opacity="0.4" d="M6.38971 19.7901C7.05797 19.7901 7.5997 19.2484 7.5997 18.5801C7.5997 17.9119 7.05797 17.3701 6.38971 17.3701C5.72144 17.3701 5.17969 17.9119 5.17969 18.5801C5.17969 19.2484 5.72144 19.7901 6.38971 19.7901Z" fill="#E62C2F" stroke="#E62C2F" stroke-width="0.2" stroke-linecap="round" stroke-linejoin="round"/>
<path opacity="0.4" d="M6.38971 19.7901C7.05797 19.7901 7.5997 19.2484 7.5997 18.5801C7.5997 17.9119 7.05797 17.3701 6.38971 17.3701C5.72144 17.3701 5.17969 17.9119 5.17969 18.5801C5.17969 19.2484 5.72144 19.7901 6.38971 19.7901Z" stroke="#E62C2F" stroke-width="0.2" stroke-linecap="round" stroke-linejoin="round"/>
</svg>
