<svg width="8" height="23" viewBox="0 0 8 23" fill="none" xmlns="http://www.w3.org/2000/svg">
<path d="M4.0592 22.8699C3.9392 22.8699 3.69922 22.7299 3.41922 21.7599C2.56922 18.7999 2.1592 14.7599 2.0192 13.1599C1.8592 11.2799 1.43922 9.97989 1.16922 9.11989C1.06922 8.81989 0.989219 8.56988 0.949219 8.37988L7.22922 8.40989L7.13922 8.85989C6.74922 10.8299 5.83922 15.4299 5.13922 19.9199C4.85922 21.6899 4.4292 22.8799 4.0592 22.8799V22.8699Z" fill="#F4DE9C"/>
<path d="M1.05109 8.4498L7.14111 8.4798L7.07111 8.8298C6.68111 10.7998 5.7711 15.3998 5.0611 19.8998C4.7711 21.7798 4.32109 22.7898 4.05109 22.7898C4.01109 22.7898 3.77111 22.7398 3.48111 21.7398C2.63111 18.7798 2.22109 14.7498 2.09109 13.1498C1.93109 11.2698 1.51109 9.9598 1.24109 9.0998C1.16109 8.8398 1.09109 8.6298 1.05109 8.4498ZM0.871094 8.2998C0.981094 8.9998 1.73111 10.5098 1.95111 13.1598C2.17111 15.8098 2.6311 19.2698 3.3511 21.7798C3.5911 22.5998 3.8311 22.9398 4.0611 22.9398C4.5311 22.9398 4.9711 21.5198 5.2211 19.9198C6.0011 14.9398 7.04109 9.7998 7.33109 8.3298L0.871094 8.2998Z" fill="#5E5E5A"/>
<path d="M4.20875 10.8202C3.76875 10.8202 3.35875 10.6202 3.04875 10.2602C2.78875 9.96024 2.44876 9.74023 2.11876 9.52023C1.49876 9.12023 0.918767 8.73024 0.848767 7.89024C0.828767 7.65024 0.788772 7.31024 0.728772 6.89024C0.488772 4.97024 0.0587585 1.39024 0.808758 0.860237C1.30876 0.520237 2.99876 0.240234 4.58876 0.240234C6.00876 0.240234 6.98877 0.460233 7.19877 0.840233C7.74877 1.82023 7.48877 6.95024 7.19877 8.61024C7.04877 9.43024 6.61876 9.59024 6.15876 9.76024C5.85876 9.87024 5.55875 9.98024 5.32875 10.2802C5.06875 10.6302 4.64875 10.8302 4.20875 10.8302V10.8202Z" fill="white"/>
<path d="M4.61052 0.160156V0.31015C5.98052 0.31015 6.96053 0.520155 7.15053 0.870155C7.70053 1.84016 7.43054 6.94015 7.13054 8.59015C6.99054 9.37015 6.59054 9.52015 6.13054 9.68015C5.82054 9.79015 5.50052 9.91015 5.27052 10.2202C5.02052 10.5502 4.63053 10.7402 4.21053 10.7402C3.79053 10.7402 3.40052 10.5502 3.11052 10.2102C2.85052 9.90015 2.50055 9.68015 2.17055 9.46015C1.57055 9.07015 1.00053 8.69015 0.930529 7.88015C0.910529 7.64015 0.870534 7.29016 0.810534 6.87016C0.590534 5.10016 0.140521 1.41015 0.860521 0.920151C1.34052 0.590151 3.02054 0.31015 4.60054 0.31015V0.160156M4.61052 0.160156C3.06052 0.160156 1.32054 0.430153 0.790545 0.790154C-0.169455 1.45015 0.670545 6.53015 0.790545 7.89015C0.910545 9.25015 2.29055 9.47015 3.01055 10.3102C3.36055 10.7102 3.80054 10.8902 4.22054 10.8902C4.68054 10.8902 5.12053 10.6802 5.40053 10.3102C5.94053 9.59015 7.03054 10.0202 7.29054 8.61015C7.58054 6.98015 7.86054 1.80015 7.29054 0.790154C7.03054 0.340154 5.89053 0.160156 4.62053 0.160156H4.61052Z" fill="#5E5E5A"/>
<path opacity="0.4" d="M4.10062 6.40047C4.76888 6.40047 5.31061 5.85873 5.31061 5.19047C5.31061 4.5222 4.76888 3.98047 4.10062 3.98047C3.43235 3.98047 2.89062 4.5222 2.89062 5.19047C2.89062 5.85873 3.43235 6.40047 4.10062 6.40047Z" fill="#E62C2F" stroke="#E62C2F" stroke-width="0.2" stroke-linecap="round" stroke-linejoin="round"/>
<path opacity="0.4" d="M4.10062 6.40047C4.76888 6.40047 5.31061 5.85873 5.31061 5.19047C5.31061 4.5222 4.76888 3.98047 4.10062 3.98047C3.43235 3.98047 2.89062 4.5222 2.89062 5.19047C2.89062 5.85873 3.43235 6.40047 4.10062 6.40047Z" stroke="#E62C2F" stroke-width="0.2" stroke-linecap="round" stroke-linejoin="round"/>
</svg>
