<svg width="9" height="30" viewBox="0 0 9 30" fill="none" xmlns="http://www.w3.org/2000/svg">
<path d="M3.98999 29.6305C3.53999 29.6305 3.21001 28.7105 3.20001 27.4005C3.18001 25.2105 2.67001 23.3205 1.95001 20.7005L1.53 19.1705C1.11 17.5905 1.04001 16.2305 1.04001 13.2105C1.04001 10.3905 0.9 8.42047 0.75 7.48047L8.03 7.54047C7.3 9.52047 7.2 13.9605 7.16 18.3305C7.13 22.1405 6.33 24.5505 5.31 27.6005C4.7 29.4405 4.17999 29.6305 3.98999 29.6305Z" fill="#F4DE9C"/>
<path d="M0.851868 7.56015L7.93185 7.62016C7.22185 9.66016 7.13186 14.0301 7.09186 18.3401C7.06186 22.1401 6.26186 24.5401 5.25186 27.5901L5.22186 27.6802C4.76186 29.0702 4.29186 29.5702 4.00186 29.5702C3.65186 29.5702 3.30187 28.8302 3.29187 27.4102C3.27187 25.2102 2.76187 23.3201 2.04187 20.7001C1.91187 20.2201 1.77186 19.7102 1.62186 19.1602C1.20186 17.5802 1.13188 16.2902 1.14188 13.2202C1.14188 10.4702 1.01185 8.54015 0.861847 7.57015M0.671875 7.41016C0.801875 8.15016 0.991873 10.0502 0.981873 13.2202C0.981873 16.2802 1.04186 17.6101 1.47186 19.2001C2.41186 22.7201 3.12188 24.8302 3.14188 27.4102C3.15188 28.8302 3.51186 29.7102 4.00186 29.7102C4.40186 29.7102 4.90185 29.1102 5.36185 27.7202C6.39185 24.6302 7.21185 22.2001 7.24185 18.3401C7.28185 14.3101 7.35186 9.47015 8.15186 7.47015L0.681854 7.41016H0.671875Z" fill="#5E5E5A"/>
<path d="M4.75201 12.2103C3.95201 12.2103 1.72201 10.3503 1.09201 8.70031C0.372007 6.82031 0.212018 2.69031 0.572018 1.86031C0.952018 1.00031 3.302 0.100312 4.052 0.0703125C4.842 0.0703125 8.062 3.00031 8.272 3.89031C8.472 4.75031 8.35201 8.21031 7.03201 10.0803C6.36201 11.0303 5.52203 11.8503 4.89203 12.1903C4.86203 12.2103 4.81202 12.2203 4.76202 12.2203L4.75201 12.2103Z" fill="white"/>
<path d="M4.06048 -0.00976562V0.140236C4.79048 0.140236 8.00048 3.06024 8.19048 3.90024C8.39048 4.75024 8.27047 8.18024 6.96047 10.0302C6.30047 10.9702 5.47048 11.7802 4.84048 12.1102C4.82048 12.1202 4.78048 12.1302 4.75048 12.1302C4.04048 12.1302 1.82048 10.3902 1.16048 8.67023C0.440484 6.80023 0.280495 2.70024 0.640495 1.89024C0.980495 1.11024 3.25047 0.180236 4.05047 0.140236V-0.00976562M4.06048 -0.00976562C4.06048 -0.00976562 4.06047 -0.00976562 4.05047 -0.00976562C3.26047 0.0202344 0.89049 0.940238 0.51049 1.83024C0.12049 2.71024 0.330479 6.89024 1.03048 8.73024C1.68048 10.4302 3.94049 12.2902 4.76049 12.2902C4.82049 12.2902 4.88049 12.2802 4.92049 12.2502C5.54049 11.9202 6.40048 11.1102 7.09048 10.1202C8.41048 8.25024 8.55048 4.80024 8.34048 3.87024C8.13048 2.94024 4.88048 -0.00976562 4.06048 -0.00976562Z" fill="#5E5E5A"/>
<path opacity="0.4" d="M4.37015 7.07039C5.03841 7.07039 5.58014 6.52865 5.58014 5.86039C5.58014 5.19213 5.03841 4.65039 4.37015 4.65039C3.70188 4.65039 3.16016 5.19213 3.16016 5.86039C3.16016 6.52865 3.70188 7.07039 4.37015 7.07039Z" fill="#E62C2F" stroke="#E62C2F" stroke-width="0.2" stroke-linecap="round" stroke-linejoin="round"/>
<path opacity="0.4" d="M4.37015 7.07039C5.03841 7.07039 5.58014 6.52865 5.58014 5.86039C5.58014 5.19213 5.03841 4.65039 4.37015 4.65039C3.70188 4.65039 3.16016 5.19213 3.16016 5.86039C3.16016 6.52865 3.70188 7.07039 4.37015 7.07039Z" stroke="#E62C2F" stroke-width="0.2" stroke-linecap="round" stroke-linejoin="round"/>
</svg>
