<svg width="14" height="25" viewBox="0 0 14 25" fill="none" xmlns="http://www.w3.org/2000/svg">
<path d="M6.04882 24.189C6.04882 24.189 5.96883 24.189 5.92883 24.179C5.01883 23.979 3.96884 22.609 2.87884 20.219C2.28884 18.909 1.38883 16.939 1.61883 14.819C1.72883 13.779 2.05883 10.369 1.61883 8.99902L12.8488 9.28902C12.3988 10.539 12.3488 11.149 12.2488 12.249L12.2288 12.519C12.1088 13.839 12.0588 16.499 12.2588 17.809C12.5588 19.799 12.9088 23.309 12.3388 23.829C12.2388 23.919 12.1288 23.969 12.0088 23.969C11.4988 23.969 10.8188 23.069 10.2988 21.739L10.0888 21.199C9.54883 19.819 8.98882 18.389 8.73882 16.269C8.56882 14.779 8.23883 14.019 7.77883 14.019C7.59883 14.019 7.40884 14.139 7.21884 14.369C6.77884 14.899 6.37885 17.529 6.13885 19.099L6.03884 19.759C5.95884 20.249 6.08883 21.039 6.20883 21.799C6.36883 22.779 6.52884 23.789 6.25884 24.109C6.20884 24.169 6.12884 24.209 6.03884 24.209L6.04882 24.189Z" fill="#F4DE9C"/>
<path d="M1.72919 9.05941L12.7592 9.34941C12.3392 10.5494 12.2792 11.1894 12.1892 12.2294L12.1692 12.5094C12.0492 13.8394 11.9992 16.4994 12.1992 17.8194C12.5992 20.4694 12.7592 23.3594 12.2992 23.7694C12.2092 23.8494 12.1192 23.8894 12.0192 23.8894C11.5392 23.8894 10.8892 23.0094 10.3792 21.7094C10.3092 21.5294 10.2392 21.3494 10.1692 21.1694C9.62919 19.7994 9.06917 18.3694 8.82917 16.2594C8.64917 14.6994 8.30919 13.9394 7.78919 13.9394C7.57919 13.9394 7.37919 14.0694 7.16919 14.3094C6.75919 14.8094 6.40917 16.9294 6.07917 19.0594C6.03917 19.3194 6.00919 19.5394 5.97919 19.7194C5.89919 20.2194 6.01917 20.9794 6.14917 21.7894C6.29917 22.7094 6.45918 23.7494 6.21918 24.0394C6.17918 24.0894 6.12918 24.1094 6.05918 24.1094C6.02918 24.1094 5.98917 24.1094 5.95917 24.0994C5.07917 23.9094 4.03917 22.5494 2.95917 20.1794C2.36917 18.8794 1.47917 16.9194 1.70917 14.8194C1.81917 13.7994 2.13917 10.5094 1.73917 9.06941M1.51917 8.90942C1.91917 9.95942 1.78917 12.6794 1.54917 14.7994C1.31917 16.9194 2.19918 18.9094 2.80918 20.2394C3.41918 21.5794 4.63918 23.9594 5.90918 24.2394C5.95918 24.2494 5.99917 24.2594 6.04917 24.2594C7.08917 24.2594 5.91917 20.9994 6.11917 19.7494C6.32917 18.4494 6.78918 14.9994 7.27918 14.3994C7.43918 14.2094 7.60918 14.0794 7.77918 14.0794C8.12918 14.0794 8.47919 14.6294 8.66919 16.2594C8.94919 18.6794 9.64919 20.2394 10.2292 21.7494C10.7092 22.9894 11.3992 24.0294 12.0092 24.0294C12.1392 24.0294 12.2692 23.9794 12.3892 23.8694C13.0592 23.2694 12.5392 19.1294 12.3392 17.7894C12.1392 16.4494 12.1892 13.7994 12.3092 12.5094C12.4292 11.2194 12.4492 10.6094 12.9692 9.19941L1.51917 8.89941V8.90942Z" fill="#5E5E5A"/>
<path d="M7.64125 10.0792C6.98125 10.0792 6.35125 9.90922 5.73125 9.73922C5.17125 9.58922 4.65123 9.43922 4.15123 9.43922H4.00124C3.83124 9.45922 3.66124 9.45922 3.50124 9.45922C2.60124 9.45922 1.66123 9.28922 0.931232 8.04922C0.131232 6.69922 -0.248765 2.48922 1.12123 1.53922C1.68123 1.14922 2.46123 0.949219 3.43123 0.949219C4.34123 0.949219 5.25125 1.11923 5.85125 1.22923L5.97124 1.24922C6.10124 1.26922 6.23122 1.28922 6.36122 1.28922C6.66122 1.28922 6.95124 1.22923 7.25124 1.15923C7.60124 1.07923 7.96123 1.00922 8.40123 1.00922C9.55123 1.00922 10.8912 1.55922 12.6312 2.74922C14.2912 3.87922 13.6812 7.17922 13.1312 8.75922C12.8212 9.64922 11.7212 9.67922 10.5512 9.70922C9.87123 9.72922 9.17123 9.74922 8.55123 9.92922C8.26123 10.0192 7.96124 10.0592 7.63124 10.0592L7.64125 10.0792Z" fill="white"/>
<path d="M3.42981 1.03965C4.32981 1.03965 5.2298 1.20965 5.8298 1.31965L5.94983 1.33965C6.07983 1.35965 6.20982 1.37965 6.34982 1.37965C6.65982 1.37965 6.94982 1.31965 7.25982 1.24965C7.60982 1.17965 7.95981 1.09965 8.39981 1.09965C9.10981 1.09965 10.3198 1.27965 12.5898 2.82965C14.2098 3.93965 13.6098 7.18965 13.0598 8.74965C12.7698 9.58965 11.7398 9.61965 10.5498 9.64965C9.8698 9.66965 9.15982 9.68965 8.53982 9.87965C8.25982 9.96965 7.95983 10.0097 7.63983 10.0097C6.98983 10.0097 6.35981 9.83965 5.74981 9.66965C5.18981 9.51965 4.65981 9.36965 4.14981 9.36965C4.09981 9.36965 4.0498 9.36965 3.9898 9.36965C3.8198 9.37965 3.6498 9.38965 3.4898 9.38965C2.6098 9.38965 1.69982 9.21965 0.979824 8.01965C0.189824 6.68965 -0.190193 2.53965 1.14981 1.60965C1.69981 1.22965 2.45983 1.03965 3.41983 1.03965M3.42981 0.889648C2.58981 0.889648 1.7398 1.02965 1.0798 1.48965C-0.3502 2.47965 0.0698085 6.75965 0.869809 8.09965C1.55981 9.25965 2.43982 9.53965 3.50982 9.53965C3.67982 9.53965 3.8398 9.53965 4.0198 9.51965C4.0698 9.51965 4.11983 9.51965 4.16983 9.51965C5.18983 9.51965 6.38981 10.1597 7.64981 10.1597C7.95981 10.1597 8.26981 10.1196 8.58981 10.0296C10.2698 9.52965 12.6998 10.2696 13.2098 8.80965C13.8598 6.94965 14.3098 3.81965 12.6798 2.70965C10.5998 1.28965 9.32981 0.959648 8.39981 0.959648C7.55981 0.959648 6.9898 1.23965 6.3598 1.23965C6.2398 1.23965 6.1198 1.22965 5.9898 1.20965C5.3698 1.09965 4.41982 0.899651 3.43982 0.899651L3.42981 0.889648Z" fill="#5E5E5A"/>
<path opacity="0.4" d="M7.24124 6.55965C7.90951 6.55965 8.45126 6.01791 8.45126 5.34965C8.45126 4.68138 7.90951 4.13965 7.24124 4.13965C6.57298 4.13965 6.03125 4.68138 6.03125 5.34965C6.03125 6.01791 6.57298 6.55965 7.24124 6.55965Z" fill="#E62C2F" stroke="#E62C2F" stroke-width="0.2" stroke-linecap="round" stroke-linejoin="round"/>
<path opacity="0.4" d="M7.24124 6.55965C7.90951 6.55965 8.45126 6.01791 8.45126 5.34965C8.45126 4.68138 7.90951 4.13965 7.24124 4.13965C6.57298 4.13965 6.03125 4.68138 6.03125 5.34965C6.03125 6.01791 6.57298 6.55965 7.24124 6.55965Z" stroke="#E62C2F" stroke-width="0.2" stroke-linecap="round" stroke-linejoin="round"/>
</svg>
