<svg width="13" height="24" viewBox="0 0 13 24" fill="none" xmlns="http://www.w3.org/2000/svg">
<path d="M4.86984 23.4902C4.86984 23.4902 4.81986 23.4902 4.78986 23.4802C3.70986 23.1302 2.00986 20.4202 1.91986 18.4502C1.87986 17.5502 1.87984 16.5102 1.86984 15.6002C1.86984 14.4802 1.86984 13.5202 1.79984 12.9902C1.67984 12.0502 0.999844 9.17023 0.589844 7.74023H11.6498C11.2898 8.57023 10.5699 10.8902 10.5699 11.9702C10.5699 12.4002 10.7099 12.9202 10.8499 13.4702C11.0699 14.3302 11.3299 15.3102 11.1699 16.2702C10.7199 19.0402 9.95985 22.5002 9.27985 23.1102C9.19985 23.1902 9.10985 23.2202 9.02985 23.2202C8.43985 23.2202 7.91986 21.1702 7.91986 18.8402C7.91986 16.2602 6.65984 13.3502 5.98984 13.3502C5.79984 13.3502 5.62986 13.4502 5.47986 13.6502C4.81986 14.5202 4.63984 17.0702 4.80984 17.6802C5.00984 18.3902 5.60986 22.6402 5.03986 23.3902C4.98986 23.4502 4.93984 23.4902 4.86984 23.4902Z" fill="#F4DE9C"/>
<path d="M11.5383 7.81015C11.1683 8.72015 10.4883 10.9202 10.4983 11.9602C10.4983 12.4002 10.6383 12.9302 10.7783 13.4802C10.9983 14.3302 11.2483 15.3002 11.0983 16.2502C10.6483 19.0102 9.8883 22.4502 9.2283 23.0502C9.1583 23.1102 9.08829 23.1502 9.02829 23.1502C8.54829 23.1502 7.99829 21.2702 7.99829 18.8502C7.99829 16.4302 6.76829 13.2802 5.99829 13.2802C5.78829 13.2802 5.59828 13.3902 5.42828 13.6102C4.75828 14.4902 4.56828 17.0902 4.73828 17.7102C4.92828 18.3902 5.5183 22.6402 4.9783 23.3602C4.9383 23.4202 4.89829 23.4302 4.86829 23.4302C4.84829 23.4302 4.8383 23.4302 4.8183 23.4302C3.7783 23.0902 2.08829 20.3702 1.99829 18.4702C1.95829 17.5702 1.9583 16.5402 1.9483 15.6202C1.9483 14.5002 1.9483 13.5402 1.8783 13.0002C1.7583 12.0802 1.1083 9.29015 0.698303 7.84015H11.5483M11.7683 7.66016H0.488281C0.888281 9.02016 1.59829 12.0102 1.71829 12.9902C1.84829 13.9702 1.73829 16.4901 1.83829 18.4501C1.92829 20.4101 3.64828 23.1802 4.76828 23.5502C4.80828 23.5602 4.83829 23.5702 4.86829 23.5702C5.83829 23.5702 5.0683 18.3502 4.8783 17.6702C4.6783 16.9702 4.98828 13.4302 5.98828 13.4302C6.58828 13.4302 7.83829 16.3002 7.83829 18.8502C7.83829 21.0902 8.33828 23.3002 9.01828 23.3002C9.11828 23.3002 9.2083 23.2602 9.3183 23.1702C10.1483 22.4202 10.9783 17.9002 11.2383 16.2902C11.4983 14.6802 10.6383 13.0602 10.6383 11.9702C10.6383 10.8902 11.4183 8.40015 11.7583 7.67015L11.7683 7.66016Z" fill="#5E5E5A"/>
<path d="M5.88649 10.08C5.51649 10.08 4.97648 9.72996 4.46648 9.38996C3.91648 9.02996 3.34648 8.65997 2.90648 8.65997C2.85648 8.65997 2.81647 8.65996 2.76647 8.66996L2.59648 8.69996C2.26648 8.76996 1.91647 8.83996 1.61647 8.83996C1.17647 8.83996 0.916486 8.68996 0.786486 8.36996C0.446486 7.54996 -0.0135373 5.32996 0.606463 2.74996C0.966463 1.26996 2.11647 0.959961 3.01647 0.959961C3.96647 0.959961 4.93649 1.29996 5.44649 1.61996C5.69649 1.77996 5.99647 1.84996 6.39647 1.84996C6.64647 1.84996 6.92648 1.81996 7.21648 1.78996C7.54648 1.75996 7.90649 1.71996 8.28649 1.71996C9.06649 1.71996 9.74647 1.87996 10.4265 2.21996C12.4965 3.26996 12.2665 6.70996 11.3165 8.68996C11.1765 8.96996 11.0865 8.99996 11.0165 8.99996C10.9065 8.99996 10.7765 8.89996 10.6265 8.77996C10.3765 8.58996 10.0765 8.35996 9.63649 8.31996C9.14649 8.31996 8.79649 8.61996 8.38649 8.96996C7.80649 9.45996 7.09648 10.07 5.93648 10.07H5.90648L5.88649 10.08Z" fill="white"/>
<path d="M3.01824 1.03989C3.94824 1.03989 4.90825 1.37989 5.40825 1.68989C5.66825 1.85989 5.98824 1.92989 6.39824 1.92989C6.65824 1.92989 6.92825 1.89989 7.21825 1.86989C7.55825 1.83989 7.90825 1.79989 8.27825 1.79989C9.04825 1.79989 9.71825 1.95989 10.3783 2.28989C12.5783 3.40989 12.0083 7.04989 11.2283 8.65989C11.1783 8.75989 11.0882 8.92989 10.9982 8.92989C10.9182 8.92989 10.7882 8.82989 10.6482 8.72989C10.4082 8.54989 10.0782 8.28989 9.61824 8.24989C9.58824 8.24989 9.55826 8.24989 9.53826 8.24989C9.09826 8.24989 8.72825 8.55988 8.30825 8.91988C7.70825 9.42988 7.03825 9.99989 5.87825 9.99989C5.52825 9.99989 5.00825 9.64989 4.49825 9.31989C3.91825 8.93989 3.36824 8.56989 2.89824 8.56989C2.84824 8.56989 2.79825 8.56989 2.74825 8.57989L2.57824 8.61989C2.24824 8.68989 1.90824 8.75989 1.61824 8.75989C1.20824 8.75989 0.978234 8.62989 0.858234 8.32989C0.528234 7.51989 0.058251 5.31989 0.688251 2.75989C1.03825 1.32989 2.14825 1.02988 3.02825 1.02988M3.01824 0.889885C1.93824 0.889885 0.878257 1.32988 0.538257 2.73988C-0.111743 5.41988 0.40825 7.63989 0.71825 8.40989C0.87825 8.80989 1.21824 8.92989 1.61824 8.92989C1.97824 8.92989 2.39826 8.82989 2.78826 8.74989C2.82826 8.74989 2.86825 8.73988 2.90825 8.73988C3.73825 8.73988 5.07825 10.1499 5.87825 10.1599C5.88825 10.1599 5.89825 10.1599 5.90825 10.1599C7.90825 10.1599 8.59826 8.39989 9.53826 8.39989C9.55826 8.39989 9.58823 8.39989 9.60823 8.39989C10.3182 8.45989 10.6882 9.07989 10.9982 9.07989C11.1182 9.07989 11.2382 8.98989 11.3582 8.71989C12.2382 6.88989 12.6683 3.27989 10.4383 2.14989C9.63825 1.74989 8.91824 1.63988 8.26824 1.63988C7.54824 1.63988 6.91825 1.76988 6.37825 1.76988C6.03825 1.76988 5.73825 1.71989 5.46825 1.54989C4.95825 1.22989 3.96825 0.879883 2.99825 0.879883L3.01824 0.889885Z" fill="#5E5E5A"/>
<path opacity="0.4" d="M6.13187 6.55965C6.80013 6.55965 7.34186 6.01791 7.34186 5.34965C7.34186 4.68138 6.80013 4.13965 6.13187 4.13965C5.4636 4.13965 4.92188 4.68138 4.92188 5.34965C4.92188 6.01791 5.4636 6.55965 6.13187 6.55965Z" fill="#E62C2F" stroke="#E62C2F" stroke-width="0.2" stroke-linecap="round" stroke-linejoin="round"/>
<path opacity="0.4" d="M6.13187 6.55965C6.80013 6.55965 7.34186 6.01791 7.34186 5.34965C7.34186 4.68138 6.80013 4.13965 6.13187 4.13965C5.4636 4.13965 4.92188 4.68138 4.92188 5.34965C4.92188 6.01791 5.4636 6.55965 6.13187 6.55965Z" stroke="#E62C2F" stroke-width="0.2" stroke-linecap="round" stroke-linejoin="round"/>
</svg>
