<svg width="12" height="22" viewBox="0 0 12 22" fill="none" xmlns="http://www.w3.org/2000/svg">
<path d="M9.48312 21.1097C9.18312 21.1097 8.96312 20.7597 8.85312 20.1197C8.73312 19.3797 8.80311 18.2897 8.87311 17.1397C8.97311 15.4897 9.08313 13.7897 8.64313 12.9197C8.14313 11.9297 7.70312 11.4197 7.32312 11.4197C7.08312 11.4197 6.8831 11.6197 6.7431 11.9997C6.6331 12.3097 6.48311 12.5697 6.34311 12.8197C6.02311 13.3997 5.72311 13.9397 5.84311 14.8697C5.93311 15.5997 6.31313 16.6197 6.67313 17.5997C6.96313 18.3997 7.2431 19.1597 7.3631 19.7097C7.4731 20.2697 7.46311 20.6997 7.31311 20.8797C7.26311 20.9397 7.19312 20.9697 7.10312 20.9697C6.88312 20.9697 6.4431 20.7797 5.5831 19.8497L5.2431 19.4797C3.5931 17.7097 2.3931 16.4397 2.6131 14.0997C2.8331 11.6797 2.58311 10.6497 2.34311 9.64969L2.3031 9.48969C2.1531 8.86969 1.97312 8.37969 1.79312 7.89969C1.67312 7.58969 1.56312 7.27969 1.45312 6.92969H10.5631C10.1831 7.66969 10.4231 8.44969 10.6731 9.27969C10.8031 9.71969 10.9431 10.1697 11.0031 10.6297C11.0631 11.1397 11.1731 11.3997 11.3031 11.6697C11.5231 12.1497 11.7431 12.6497 11.6731 14.6497C11.5731 17.2997 11.2031 18.2597 10.8131 19.2797C10.7431 19.4597 10.6731 19.6397 10.6031 19.8397C10.3431 20.5597 9.8731 21.0897 9.4931 21.0897L9.48312 21.1097Z" fill="#F4DE9C"/>
<path d="M10.4416 7.02011C10.1216 7.75011 10.3516 8.51011 10.6016 9.32011C10.7316 9.75011 10.8716 10.2001 10.9216 10.6601C10.9816 11.1801 11.1016 11.4601 11.2316 11.7201C11.4416 12.1901 11.6716 12.6801 11.5916 14.6701C11.4916 17.3101 11.1216 18.2601 10.7316 19.2701C10.6616 19.4501 10.5915 19.6401 10.5215 19.8301C10.2815 20.5101 9.82157 21.0301 9.48157 21.0301C9.22157 21.0301 9.02155 20.7001 8.93155 20.1001C8.81155 19.3701 8.88157 18.2901 8.95157 17.1401C9.05157 15.4801 9.16155 13.7701 8.71155 12.8801C8.19155 11.8501 7.74156 11.3401 7.32156 11.3401C7.04156 11.3401 6.83157 11.5501 6.67157 11.9701C6.56157 12.2701 6.41156 12.5301 6.28156 12.7801C5.96156 13.3701 5.65155 13.9301 5.77155 14.8801C5.87155 15.6201 6.24154 16.6401 6.61154 17.6201C6.90154 18.4201 7.18156 19.1701 7.29156 19.7201C7.40156 20.2501 7.39157 20.6701 7.26157 20.8301C7.22157 20.8801 7.18154 20.9001 7.11154 20.9001C6.94154 20.9001 6.53157 20.7601 5.64157 19.8001L5.29156 19.4301C3.65156 17.6801 2.46155 16.4101 2.68155 14.1001C2.90155 11.6701 2.65156 10.6301 2.41156 9.63011L2.37155 9.48012C2.22155 8.86012 2.03154 8.36011 1.86154 7.88011C1.76154 7.60011 1.65154 7.32012 1.55154 7.01012H10.4416M10.6916 6.87012H1.35156C1.63156 7.80012 1.98157 8.47011 2.23157 9.52011C2.48157 10.5701 2.77156 11.5701 2.54156 14.1001C2.31156 16.6301 3.70156 17.9401 5.54156 19.9101C6.31156 20.7301 6.81155 21.0501 7.12155 21.0501C7.55155 21.0501 7.60157 20.4301 7.45157 19.7001C7.19157 18.4401 6.10155 16.1701 5.93155 14.8601C5.76155 13.5501 6.45156 13.0301 6.82156 12.0201C6.96156 11.6601 7.13154 11.4901 7.33154 11.4901C7.68154 11.4901 8.12155 12.0201 8.59155 12.9501C9.32155 14.4001 8.50156 18.3301 8.79156 20.1301C8.91156 20.8801 9.18155 21.1801 9.49155 21.1801C9.92155 21.1801 10.4116 20.6101 10.6716 19.8801C11.1216 18.6201 11.6316 17.8201 11.7516 14.6801C11.8716 11.5401 11.2415 12.0301 11.0815 10.6401C10.9215 9.25011 10.0116 8.00012 10.7016 6.87012H10.6916Z" fill="#5E5E5A"/>
<path d="M8.79042 8.73996C8.05042 8.73996 7.3904 8.26996 6.8604 7.88996C6.5304 7.64996 6.2404 7.44996 5.9904 7.38996C5.9004 7.36996 5.79041 7.35996 5.66041 7.35996C5.33041 7.35996 4.90041 7.41996 4.44041 7.48996C3.90041 7.56996 3.3504 7.64996 2.8604 7.64996C2.3704 7.64996 2.05041 7.56996 1.84041 7.39996C1.02041 6.71996 0.990409 5.08996 1.03041 3.33996C1.07041 1.68996 2.09042 0.959961 3.07042 0.959961C3.23042 0.959961 3.40041 0.979958 3.56041 1.01996L3.81041 1.07996C4.52041 1.23996 4.9804 1.34996 5.5504 1.34996C5.9104 1.34996 6.3104 1.29996 6.8004 1.20996C6.9704 1.17996 7.1404 1.15997 7.3004 1.15997C8.0004 1.15997 8.56041 1.44996 9.00041 1.68996C9.24041 1.81996 9.44041 1.91996 9.62041 1.95996C9.68041 1.96996 9.75042 1.96996 9.82042 1.96996H10.1904C10.7204 1.96996 11.2504 2.14996 11.5004 3.53996C11.8804 5.67996 11.0004 7.57996 9.94041 8.33996C9.56041 8.60996 9.18042 8.73996 8.79042 8.73996Z" fill="white"/>
<path d="M3.08055 1.03989C3.24055 1.03989 3.40056 1.05988 3.56056 1.08988L3.81056 1.14989C4.49056 1.30989 4.99057 1.41988 5.57057 1.41988C5.94057 1.41988 6.34055 1.36988 6.83055 1.26988C6.99055 1.23988 7.15056 1.21989 7.31056 1.21989C7.99056 1.21989 8.54058 1.50988 8.98058 1.73988C9.22058 1.86988 9.43056 1.97989 9.62056 2.00989C9.69056 2.01989 9.76055 2.02988 9.83055 2.02988C9.89055 2.02988 9.95058 2.02988 10.0106 2.02988C10.0706 2.02988 10.1406 2.02988 10.2006 2.02988C10.6706 2.02988 11.1906 2.14989 11.4306 3.53989C11.8006 5.64989 10.9406 7.51988 9.90056 8.26988C9.53056 8.52988 9.17058 8.65989 8.79058 8.65989C8.08058 8.65989 7.42056 8.19989 6.90056 7.81989C6.56056 7.57989 6.27058 7.36988 6.01058 7.30988C5.92058 7.28988 5.80058 7.27988 5.67058 7.27988C5.34058 7.27988 4.90057 7.33989 4.44057 7.40989C3.91057 7.48989 3.35056 7.56989 2.87056 7.56989C2.39056 7.56989 2.09056 7.48988 1.90056 7.33988C1.10056 6.67988 1.08056 5.06988 1.12056 3.33988C1.16056 1.73988 2.14055 1.02988 3.08055 1.02988M3.08055 0.889885C1.97055 0.889885 1.01057 1.72988 0.970568 3.34988C0.920568 5.20988 0.970555 6.77989 1.80055 7.46989C2.04055 7.66989 2.42055 7.73988 2.86055 7.73988C3.78055 7.73988 4.96057 7.43989 5.66057 7.43989C5.78057 7.43989 5.88057 7.43989 5.97057 7.46989C6.60057 7.61989 7.58058 8.81989 8.79058 8.81989C9.17058 8.81989 9.57056 8.69989 9.99056 8.39989C11.1406 7.57989 11.9506 5.60988 11.5806 3.51988C11.3206 2.02988 10.7206 1.87988 10.2006 1.87988C10.0706 1.87988 9.94055 1.87988 9.83055 1.87988C9.76055 1.87988 9.70058 1.87989 9.64058 1.86989C9.17058 1.77989 8.41056 1.06989 7.31056 1.06989C7.15056 1.06989 6.98055 1.08989 6.80055 1.11989C6.30055 1.21989 5.92057 1.25989 5.57057 1.25989C4.95057 1.25989 4.43057 1.11989 3.60057 0.939888C3.43057 0.899888 3.26056 0.879883 3.09056 0.879883L3.08055 0.889885Z" fill="#5E5E5A"/>
<path opacity="0.4" d="M6.35062 5.68954C7.01888 5.68954 7.56061 5.1478 7.56061 4.47954C7.56061 3.81127 7.01888 3.26953 6.35062 3.26953C5.68235 3.26953 5.14062 3.81127 5.14062 4.47954C5.14062 5.1478 5.68235 5.68954 6.35062 5.68954Z" fill="#E62C2F" stroke="#E62C2F" stroke-width="0.2" stroke-linecap="round" stroke-linejoin="round"/>
<path opacity="0.4" d="M6.35062 5.68954C7.01888 5.68954 7.56061 5.1478 7.56061 4.47954C7.56061 3.81127 7.01888 3.26953 6.35062 3.26953C5.68235 3.26953 5.14062 3.81127 5.14062 4.47954C5.14062 5.1478 5.68235 5.68954 6.35062 5.68954Z" stroke="#E62C2F" stroke-width="0.2" stroke-linecap="round" stroke-linejoin="round"/>
</svg>
