<svg width="9" height="25" viewBox="0 0 9 25" fill="none" xmlns="http://www.w3.org/2000/svg">
<path d="M4.88126 24.4109C4.39126 24.4109 3.86126 22.9209 3.70126 21.0809C3.31126 16.6509 2.42125 12.9709 1.84125 10.5409C1.57125 9.4109 1.35125 8.5009 1.28125 7.9209H8.60126C8.54126 8.1109 8.46124 8.3409 8.36124 8.6109C7.98124 9.6409 7.41125 11.2009 7.22125 13.4909C7.07125 15.2909 6.61125 19.8209 5.65125 23.1609C5.34125 24.2509 5.03126 24.4209 4.88126 24.4209V24.4109Z" fill="#F4DE9C"/>
<path d="M8.5014 8.00059C8.4414 8.17059 8.37141 8.37058 8.29141 8.59058C7.91141 9.63058 7.3414 11.1906 7.1514 13.4906C7.0014 15.2806 6.54139 19.8206 5.58139 23.1406C5.26139 24.2506 4.97141 24.3406 4.88141 24.3406C4.49141 24.3406 3.94139 23.0006 3.77139 21.0806C3.38139 16.6406 2.49141 12.9706 1.91141 10.5306C1.65141 9.45059 1.44139 8.58059 1.36139 8.00059H8.49139M8.70142 7.85059H1.19141C1.38141 9.64059 3.0414 14.4906 3.6214 21.0906C3.7814 22.9006 4.30141 24.4906 4.88141 24.4906C5.16141 24.4906 5.45141 24.1106 5.72141 23.1806C6.53141 20.3606 7.04141 16.4806 7.29141 13.5006C7.54141 10.5206 8.44142 8.76059 8.70142 7.85059Z" fill="#5E5E5A"/>
<path d="M5.12052 11.6305C5.06052 11.6305 5.00054 11.6205 4.95054 11.6005C3.99054 11.1805 1.67051 9.50051 1.52051 9.04051C0.940515 7.31051 0.700523 1.05051 2.06052 0.470512C2.22052 0.400512 2.39051 0.370514 2.58051 0.370514C2.97051 0.370514 3.37053 0.500514 3.72053 0.620514C4.01053 0.720514 4.26053 0.800514 4.47053 0.800514C4.58053 0.800514 4.67052 0.780515 4.74052 0.730515C5.00052 0.550515 5.92054 0.270508 6.70054 0.270508C7.12054 0.270508 7.67054 0.350512 7.92054 0.720512C8.48054 1.59051 9.16054 5.97051 8.70054 7.58051C8.29054 9.04051 6.15052 11.6305 5.12052 11.6305Z" fill="white"/>
<path d="M6.70212 0.350197C7.10212 0.350197 7.63212 0.420195 7.85212 0.770195C8.41212 1.6302 9.07212 5.9702 8.63212 7.5702C8.20212 9.1002 6.03211 11.5602 5.12211 11.5602C5.07211 11.5602 5.02212 11.5602 4.98212 11.5302C4.05212 11.1202 1.74211 9.4502 1.59211 9.0102C1.03211 7.3402 0.792109 1.0902 2.09211 0.540199C2.24211 0.480199 2.4021 0.450195 2.5821 0.450195C2.9521 0.450195 3.35211 0.580195 3.69211 0.700195C3.99211 0.800195 4.2421 0.890198 4.4621 0.890198C4.5821 0.890198 4.6921 0.860201 4.7721 0.800201C4.9921 0.650201 5.86211 0.360199 6.69211 0.360199M6.70212 0.200195C5.88212 0.200195 4.96211 0.480197 4.69211 0.670197C4.63211 0.710197 4.5521 0.730202 4.4621 0.730202C4.0221 0.730202 3.2921 0.290199 2.5821 0.290199C2.3921 0.290199 2.21211 0.3202 2.03211 0.4002C0.592111 1.0102 0.882124 7.3602 1.45212 9.0602C1.62212 9.5702 3.99213 11.2602 4.92213 11.6702C4.98213 11.7002 5.05211 11.7102 5.12211 11.7102C6.16211 11.7102 8.3521 9.1202 8.7721 7.6102C9.2221 6.0002 8.57212 1.6002 7.98212 0.690201C7.74212 0.330201 7.24212 0.200195 6.70212 0.200195Z" fill="#5E5E5A"/>
<mask id="mask0_240_1229" style="mask-type:luminance" maskUnits="userSpaceOnUse" x="0" y="0" width="9" height="12">
<path d="M2.0304 0.400613C3.0304 -0.0293874 4.24041 0.980609 4.69041 0.670609C5.14041 0.360609 7.39041 -0.219386 7.98041 0.690614C8.57041 1.60061 9.23039 6.00061 8.77039 7.61061C8.32039 9.22061 5.84041 12.0806 4.91041 11.6706C3.98041 11.2606 1.61041 9.57061 1.44041 9.06061C0.870406 7.36061 0.580392 1.02061 2.02039 0.400613H2.0304Z" fill="white"/>
</mask>
<g mask="url(#mask0_240_1229)">
<path opacity="0.75" d="M-1.71875 6.82037C-1.71875 6.82037 2.41125 8.65037 2.41125 5.49037C2.41125 2.69037 -1.67874 4.19037 -1.67874 4.19037L-1.70874 6.82037H-1.71875Z" fill="#E62C2F" stroke="#E62C2F" stroke-width="0.5" stroke-linecap="round" stroke-linejoin="round"/>
</g>
<path d="M4.87344 24.4304C4.38344 24.4304 3.85345 22.9404 3.69345 21.1004C3.30345 16.6704 2.41344 12.9904 1.83344 10.5604C1.56344 9.43042 1.34344 8.52043 1.27344 7.94043H8.59344C8.53344 8.13043 8.45345 8.36042 8.35345 8.63042C7.97345 9.66042 7.40344 11.2204 7.21344 13.5104C7.06344 15.3104 6.60346 19.8404 5.64346 23.1804C5.33346 24.2704 5.02344 24.4404 4.87344 24.4404V24.4304Z" fill="#F4DE9C"/>
<path d="M8.48187 8.01035C8.42187 8.18035 8.35185 8.38035 8.27185 8.60035C7.89185 9.64035 7.32187 11.2004 7.13187 13.5004C6.98187 15.2904 6.52186 19.8304 5.56186 23.1504C5.24186 24.2604 4.95185 24.3503 4.86185 24.3503C4.47185 24.3503 3.92186 23.0103 3.75186 21.0903C3.36186 16.6503 2.47188 12.9804 1.89188 10.5404C1.63188 9.46035 1.42186 8.59035 1.34186 8.01035H8.47186M8.68185 7.86035H1.17188C1.36187 9.65035 3.02187 14.5003 3.60187 21.1003C3.76187 22.9103 4.29185 24.5004 4.86185 24.5004C5.14185 24.5004 5.43187 24.1204 5.70187 23.1904C6.51187 20.3704 7.02185 16.4904 7.27185 13.5104C7.52185 10.5304 8.42185 8.77035 8.68185 7.86035Z" fill="#5E5E5A"/>
<path d="M5.10879 11.65C5.04879 11.65 4.9888 11.64 4.9388 11.62C3.9788 11.2 1.65881 9.52004 1.50881 9.06004C0.92881 7.33004 0.688788 1.07004 2.04879 0.490036C2.20879 0.420036 2.37881 0.390038 2.56881 0.390038C2.95881 0.390038 3.35879 0.520038 3.70879 0.640038C3.99879 0.740038 4.24879 0.820038 4.45879 0.820038C4.56879 0.820038 4.65881 0.800038 4.72881 0.750038C4.98881 0.570038 5.9088 0.290039 6.6888 0.290039C7.1088 0.290039 7.6588 0.370036 7.9088 0.740036C8.4688 1.61004 9.1488 5.99004 8.6888 7.60004C8.2788 9.06004 6.13879 11.65 5.10879 11.65Z" fill="white"/>
<path d="M6.69041 0.369728C7.09041 0.369728 7.6204 0.439726 7.8404 0.789726C8.4004 1.64973 9.0704 5.98972 8.6204 7.58972C8.1904 9.11972 6.02039 11.5797 5.11039 11.5797C5.06039 11.5797 5.0104 11.5797 4.9704 11.5497C4.0404 11.1397 1.73039 9.46972 1.58039 9.02972C1.02039 7.35972 0.78039 1.10972 2.08039 0.559723C2.23039 0.499723 2.39041 0.469727 2.57041 0.469727C2.94041 0.469727 3.3404 0.599727 3.6804 0.719727C3.9804 0.819727 4.23042 0.909729 4.45042 0.909729C4.58042 0.909729 4.68041 0.879725 4.76041 0.819725C4.98041 0.669725 5.8504 0.379723 6.6804 0.379723M6.69041 0.219727C5.87041 0.219727 4.9504 0.499728 4.6804 0.689728C4.6204 0.729728 4.54042 0.749725 4.45042 0.749725C4.01042 0.749725 3.28041 0.309723 2.57041 0.309723C2.38041 0.309723 2.20039 0.339724 2.02039 0.419724C0.580392 1.02972 0.870406 7.37973 1.44041 9.07973C1.61041 9.58973 3.98041 11.2797 4.91041 11.6897C4.97041 11.7197 5.04039 11.7297 5.11039 11.7297C6.15039 11.7297 8.34041 9.13972 8.76041 7.62972C9.21041 6.01972 8.5604 1.61972 7.9704 0.709724C7.7304 0.349724 7.23041 0.219727 6.69041 0.219727Z" fill="#5E5E5A"/>
<path opacity="0.4" d="M4.92874 6.83015C5.59701 6.83015 6.13876 6.28842 6.13876 5.62016C6.13876 4.95189 5.59701 4.41016 4.92874 4.41016C4.26048 4.41016 3.71875 4.95189 3.71875 5.62016C3.71875 6.28842 4.26048 6.83015 4.92874 6.83015Z" fill="#E62C2F" stroke="#E62C2F" stroke-width="0.2" stroke-linecap="round" stroke-linejoin="round"/>
<path opacity="0.4" d="M4.92874 6.83015C5.59701 6.83015 6.13876 6.28842 6.13876 5.62016C6.13876 4.95189 5.59701 4.41016 4.92874 4.41016C4.26048 4.41016 3.71875 4.95189 3.71875 5.62016C3.71875 6.28842 4.26048 6.83015 4.92874 6.83015Z" stroke="#E62C2F" stroke-width="0.2" stroke-linecap="round" stroke-linejoin="round"/>
</svg>
