<svg width="9" height="30" viewBox="0 0 9 30" fill="none" xmlns="http://www.w3.org/2000/svg">
<path d="M5.12814 29.6305C4.93814 29.6305 4.41813 29.4405 3.83813 27.6905C2.79813 24.5505 1.99813 22.1405 1.95813 18.3305C1.91813 13.9505 1.81813 9.52047 1.07812 7.54047L8.35812 7.48047C8.20812 8.41047 8.05815 10.3805 8.06815 13.2105C8.06815 16.2905 8.00813 17.5905 7.57812 19.1705L7.15814 20.7105C6.43814 23.3205 5.92814 25.2005 5.90814 27.3905C5.90814 28.7005 5.57813 29.6205 5.11813 29.6205L5.12814 29.6305Z" fill="#F4DE9C"/>
<path d="M8.27655 7.56015C8.12655 8.53015 7.98655 10.4702 7.99655 13.2102C7.99655 16.2802 7.93654 17.5702 7.51654 19.1502C7.36654 19.6902 7.22656 20.2002 7.09656 20.6902C6.37656 23.3102 5.85656 25.2002 5.84656 27.4002C5.83656 28.8202 5.47657 29.5602 5.13657 29.5602C4.84657 29.5602 4.37656 29.0602 3.91656 27.6702L3.88657 27.5802C2.87657 24.5302 2.07654 22.1302 2.04654 18.3302C2.00654 14.0202 1.90654 9.65015 1.20654 7.61015L8.28656 7.55016M8.44656 7.41016L0.976562 7.47015C1.77656 9.47015 1.84657 14.3101 1.88657 18.3401C1.91657 22.2001 2.73654 24.6302 3.76654 27.7202C4.22654 29.1102 4.72656 29.7102 5.12656 29.7102C5.61656 29.7102 5.97654 28.8202 5.98654 27.4102C6.00654 24.8302 6.70656 22.7201 7.65656 19.2001C8.08656 17.6101 8.15655 16.2802 8.14655 13.2202C8.14655 10.0602 8.32654 8.16016 8.45654 7.41016H8.44656Z" fill="#5E5E5A"/>
<path d="M4.36782 12.2105C4.31782 12.2105 4.26782 12.2105 4.23782 12.1805C3.59782 11.8505 2.75783 11.0205 2.09783 10.0705C0.777833 8.20055 0.657812 4.74055 0.857812 3.88055C1.06781 2.99055 4.28783 0.0605469 5.06783 0.0605469C5.82783 0.0905469 8.17782 0.990548 8.55782 1.85055C8.91782 2.67055 8.75784 6.81055 8.03784 8.69055C7.40784 10.3406 5.18783 12.2005 4.37783 12.2005L4.36782 12.2105Z" fill="white"/>
<path d="M5.05851 0.140236C5.86851 0.170236 8.13852 1.10024 8.47852 1.89024C8.83852 2.71024 8.6685 6.80023 7.9585 8.67023C7.2985 10.4002 5.07851 12.1302 4.36851 12.1302C4.32851 12.1302 4.29851 12.1302 4.27851 12.1102C3.64851 11.7802 2.81852 10.9602 2.15852 10.0302C0.858516 8.18024 0.738505 4.75024 0.928505 3.90024C1.1185 3.06024 4.32851 0.140236 5.05851 0.140236ZM5.05851 -0.00976562C4.23851 -0.00976562 0.988511 2.94024 0.778511 3.87024C0.568511 4.80024 0.708511 8.25024 2.02851 10.1202C2.72851 11.1102 3.57852 11.9202 4.19852 12.2502C4.24852 12.2702 4.2985 12.2902 4.3585 12.2902C5.1785 12.2902 7.43851 10.4302 8.08851 8.73024C8.78851 6.89024 8.9985 2.72024 8.6085 1.83024C8.2185 0.950238 5.85852 0.0302344 5.06852 -0.00976562C5.06852 -0.00976562 5.06851 -0.00976562 5.05851 -0.00976562Z" fill="#5E5E5A"/>
<mask id="mask0_240_1225" style="mask-type:luminance" maskUnits="userSpaceOnUse" x="0" y="-1" width="9" height="14">
<path d="M2.02851 10.1205C0.708511 8.25046 0.568511 4.80046 0.778511 3.87046C0.988511 2.94046 4.27852 -0.0395407 5.06852 -0.00954074C5.85852 0.0204593 8.2285 0.940463 8.6085 1.83046C8.9985 2.71046 8.78851 6.89046 8.08851 8.73046C7.38851 10.5705 4.81852 12.5805 4.19852 12.2605C3.57852 11.9305 2.71851 11.1205 2.02851 10.1305V10.1205Z" fill="white"/>
</mask>
<g mask="url(#mask0_240_1225)">
<path opacity="0.75" d="M-1.94141 7.57037C-1.94141 7.57037 2.1886 9.40037 2.1886 6.24037C2.1886 3.44037 -1.9014 4.94037 -1.9014 4.94037L-1.9314 7.57037H-1.94141Z" fill="#E62C2F" stroke="#E62C2F" stroke-width="0.2" stroke-linecap="round" stroke-linejoin="round"/>
</g>
<path d="M5.1203 29.65C4.9303 29.65 4.41029 29.46 3.83029 27.71C2.79029 24.57 1.99032 22.16 1.95032 18.35C1.91032 13.97 1.81031 9.54 1.07031 7.56L8.35031 7.5C8.20031 8.43 8.0503 10.4 8.0603 13.23C8.0603 16.31 8.00031 17.61 7.57031 19.19L7.1503 20.73C6.4303 23.34 5.9203 25.23 5.9003 27.42C5.9003 28.73 5.57029 29.65 5.11029 29.65H5.1203Z" fill="#F4DE9C"/>
<path d="M8.25876 7.57993C8.10876 8.54993 7.96876 10.4899 7.97876 13.2299C7.97876 16.2999 7.91875 17.5899 7.49875 19.1699C7.34875 19.7099 7.20874 20.2199 7.07874 20.7099C6.35874 23.3299 5.83874 25.2199 5.82874 27.4199C5.81874 28.8399 5.45874 29.5799 5.11874 29.5799C4.82874 29.5799 4.35874 29.0799 3.89874 27.6899L3.86874 27.5999C2.85874 24.5499 2.05875 22.1499 2.02875 18.3499C1.98875 14.0399 1.88875 9.66992 1.18875 7.62992L8.26874 7.56992M8.43875 7.41992L0.96875 7.47993C1.76875 9.47993 1.83875 14.3199 1.87875 18.3499C1.90875 22.2099 2.72876 24.6399 3.75876 27.7299C4.21876 29.1199 4.71874 29.7199 5.11874 29.7199C5.60874 29.7199 5.96876 28.8299 5.97876 27.4199C5.99876 24.8399 6.69874 22.7299 7.64874 19.2099C8.07874 17.6199 8.14876 16.2899 8.13876 13.2299C8.13876 10.0699 8.31876 8.16992 8.44876 7.41992H8.43875Z" fill="#5E5E5A"/>
<path d="M4.35998 12.2203C4.30998 12.2203 4.26001 12.2203 4.23001 12.1903C3.59001 11.8603 2.74999 11.0303 2.08999 10.0803C0.769994 8.21031 0.650004 4.75031 0.850004 3.89031C1.06 3.00031 4.28 0.0703125 5.06 0.0703125C5.82 0.100312 8.16999 1.00031 8.54999 1.86031C8.90999 2.68031 8.75 6.82031 8.03 8.70031C7.4 10.3503 5.17999 12.2103 4.36999 12.2103L4.35998 12.2203Z" fill="white"/>
<path d="M5.0507 0.150002C5.8607 0.180002 8.13071 1.11 8.47071 1.9C8.83071 2.72 8.66072 6.81 7.95072 8.68C7.29072 10.41 5.07069 12.14 4.36069 12.14C4.32069 12.14 4.2907 12.14 4.2707 12.12C3.6407 11.79 2.8107 10.97 2.1507 10.04C0.850703 8.19 0.730723 4.76 0.920723 3.91C1.11072 3.07 4.3207 0.150002 5.0507 0.150002ZM5.0507 0C4.2307 0 0.980699 2.95 0.770699 3.88C0.560699 4.81 0.700698 8.26 2.0207 10.13C2.7207 11.12 3.57071 11.93 4.19071 12.26C4.24071 12.28 4.29072 12.3 4.35072 12.3C5.17072 12.3 7.4307 10.44 8.0807 8.74C8.7807 6.9 8.99072 2.73 8.60072 1.84C8.21072 0.959996 5.85071 0.04 5.06071 0C5.06071 0 5.0607 0 5.0507 0Z" fill="#5E5E5A"/>
<path opacity="0.4" d="M4.74124 7.33992C5.40951 7.33992 5.95126 6.79819 5.95126 6.12992C5.95126 5.46166 5.40951 4.91992 4.74124 4.91992C4.07298 4.91992 3.53125 5.46166 3.53125 6.12992C3.53125 6.79819 4.07298 7.33992 4.74124 7.33992Z" fill="#E62C2F" stroke="#E62C2F" stroke-width="0.2" stroke-linecap="round" stroke-linejoin="round"/>
<path opacity="0.4" d="M4.74124 7.33992C5.40951 7.33992 5.95126 6.79819 5.95126 6.12992C5.95126 5.46166 5.40951 4.91992 4.74124 4.91992C4.07298 4.91992 3.53125 5.46166 3.53125 6.12992C3.53125 6.79819 4.07298 7.33992 4.74124 7.33992Z" stroke="#E62C2F" stroke-width="0.2" stroke-linecap="round" stroke-linejoin="round"/>
</svg>
