<svg width="9" height="25" viewBox="0 0 9 25" fill="none" xmlns="http://www.w3.org/2000/svg">
<path d="M3.79407 24.5202C3.73407 24.5202 3.68406 24.4902 3.63406 24.4402C3.31406 24.1002 3.19406 22.7702 3.31406 20.9702C3.50406 18.2002 3.05404 16.5902 2.61404 15.0402L2.42407 14.3502C1.89407 12.3702 1.46406 10.4102 0.914062 7.7002H7.97406C7.93406 7.8502 7.87405 8.0202 7.80405 8.2102C7.47405 9.2102 6.96407 10.7302 6.89407 13.2502C6.81407 16.1502 6.20406 20.5402 4.75406 23.3402C4.23406 24.3502 3.93407 24.5002 3.79407 24.5002V24.5202Z" fill="#F4DE9C"/>
<path d="M7.86249 7.78989C7.82249 7.91989 7.7725 8.05988 7.7225 8.20988C7.3925 9.21988 6.8825 10.7399 6.8125 13.2799C6.7325 16.1699 6.12252 20.5499 4.67252 23.3399C4.13252 24.3799 3.8525 24.4599 3.7825 24.4599C3.7625 24.4599 3.7225 24.4599 3.6825 24.3999C3.3825 24.0799 3.26251 22.7399 3.38251 20.9899C3.57251 18.1999 3.1225 16.5899 2.6825 15.0299C2.6225 14.7999 2.55249 14.5799 2.49249 14.3499C1.97249 12.3899 1.5425 10.4499 1.0025 7.79989H7.86249M8.0625 7.63988H0.8125C1.3625 10.3299 1.8025 12.3499 2.3425 14.3799C2.8025 16.1299 3.4425 17.7999 3.2225 20.9699C3.0925 22.8899 3.2225 24.5999 3.7825 24.5999C4.0325 24.5999 4.37249 24.2499 4.80249 23.3999C6.20249 20.6999 6.86251 16.3799 6.95251 13.2699C7.04251 10.1599 7.79249 8.56988 8.05249 7.62988L8.0625 7.63988Z" fill="#5E5E5A"/>
<path d="M4.68256 11.0899C4.55256 11.0899 4.43256 11.0699 4.31256 11.0399C3.47256 10.7899 2.52258 9.75993 1.89258 9.07993C1.74258 8.91993 1.61258 8.77992 1.51258 8.66992C0.682576 7.83992 0.222565 5.32992 0.282565 4.02992C0.332565 2.92992 0.65256 2.68992 1.40256 2.10992C1.56256 1.98992 1.75258 1.83992 1.95258 1.67992C2.84258 0.949924 3.87256 0.169922 4.74256 0.169922C4.99256 0.169922 5.22256 0.239926 5.43256 0.369926C6.14256 0.839926 6.79256 1.11993 7.31256 1.32993C8.73256 1.92993 9.32256 2.16992 8.49256 5.17992C8.27256 5.96992 8.16257 6.63993 8.07257 7.22993C7.91257 8.22993 7.79258 8.93992 7.26258 9.45992C6.51258 10.1899 5.59257 11.0799 4.69257 11.0799L4.68256 11.0899Z" fill="white"/>
<path d="M4.74354 0.240074C4.98354 0.240074 5.19355 0.300077 5.38355 0.430077C6.10355 0.910077 6.75354 1.18008 7.27354 1.40008C8.65354 1.98008 9.22355 2.22007 8.41355 5.17007C8.19355 5.96007 8.08354 6.63008 7.99354 7.23008C7.83354 8.21008 7.72355 8.92008 7.19355 9.43008C6.46355 10.1401 5.56355 11.0201 4.69355 11.0201C4.57355 11.0201 4.45354 11.0001 4.34354 10.9701C3.52354 10.7201 2.58356 9.71008 1.95356 9.03008C1.80356 8.87008 1.67354 8.73008 1.56354 8.62008C0.813544 7.87008 0.283532 5.50008 0.363532 4.04008C0.413532 2.97008 0.723558 2.74008 1.45356 2.18008C1.61356 2.05008 1.80355 1.91008 2.00355 1.75008C2.88355 1.03008 3.90354 0.250076 4.74354 0.250076M4.74354 0.0900726C3.84354 0.0900726 2.79355 0.900079 1.91355 1.62008C0.78355 2.55008 0.283538 2.64007 0.213538 4.02007C0.143538 5.40007 0.643538 7.89008 1.46354 8.72008C2.02354 9.28008 3.23353 10.7801 4.30353 11.1001C4.43353 11.1401 4.56356 11.1601 4.70356 11.1601C5.64356 11.1601 6.57355 10.2501 7.32355 9.51008C8.18355 8.67008 7.98355 7.33007 8.57355 5.20007C9.73355 0.990073 8.09356 2.04008 5.48356 0.300079C5.25356 0.150079 5.01355 0.0800781 4.75355 0.0800781L4.74354 0.0900726Z" fill="#5E5E5A"/>
<mask id="mask0_240_1226" style="mask-type:luminance" maskUnits="userSpaceOnUse" x="0" y="0" width="9" height="12">
<path d="M1.45182 8.71978C0.631819 7.89978 0.131819 5.40978 0.201819 4.01978C0.271819 2.63978 0.771801 2.54979 1.9018 1.61979C3.0318 0.689787 4.4418 -0.380213 5.4618 0.299787C8.0718 2.03979 9.71179 0.989781 8.5518 5.19978C7.9618 7.32978 8.16179 8.66979 7.30179 9.50979C6.44179 10.3498 5.35181 11.4198 4.28181 11.0998C3.21181 10.7798 2.00181 9.26978 1.44181 8.71978H1.45182Z" fill="white"/>
</mask>
<g mask="url(#mask0_240_1226)">
<path opacity="0.75" d="M-2.57812 6.79987C-2.57812 6.79987 1.55185 8.62986 1.55185 5.46986C1.55185 2.66986 -2.53815 4.16986 -2.53815 4.16986L-2.56815 6.79987H-2.57812Z" fill="#E62C2F" stroke="#E62C2F" stroke-width="0.2" stroke-linecap="round" stroke-linejoin="round"/>
</g>
<path d="M3.7706 24.5397C3.7106 24.5397 3.6606 24.5097 3.6106 24.4597C3.2906 24.1197 3.17062 22.7897 3.29062 20.9897C3.48062 18.2197 3.03061 16.6097 2.59061 15.0597L2.4006 14.3697C1.8706 12.3897 1.44063 10.4297 0.890625 7.71973H7.95062C7.91062 7.86973 7.85061 8.03973 7.78061 8.22973C7.45061 9.22973 6.94061 10.7497 6.87061 13.2697C6.79061 16.1697 6.18062 20.5597 4.73062 23.3597C4.21062 24.3697 3.9106 24.5197 3.7706 24.5197V24.5397Z" fill="#F4DE9C"/>
<path d="M7.8508 7.80941C7.8108 7.93941 7.76078 8.07942 7.71078 8.22942C7.38078 9.23942 6.87078 10.7594 6.80078 13.2994C6.72078 16.1894 6.1108 20.5694 4.6608 23.3594C4.1208 24.3994 3.84078 24.4794 3.77078 24.4794C3.75078 24.4794 3.71081 24.4794 3.67081 24.4194C3.37081 24.0994 3.25079 22.7594 3.37079 21.0094C3.56079 18.2294 3.11081 16.6094 2.67081 15.0494C2.61081 14.8194 2.5408 14.5994 2.4808 14.3694C1.9608 12.4094 1.53078 10.4694 0.990784 7.81941H7.8508M8.05078 7.65942H0.800781C1.35078 10.3494 1.79078 12.3694 2.33078 14.3994C2.79078 16.1494 3.43078 17.8194 3.21078 20.9894C3.08078 22.9094 3.21078 24.6194 3.77078 24.6194C4.02078 24.6194 4.3608 24.2694 4.7908 23.4194C6.1908 20.7194 6.8508 16.3994 6.9408 13.2894C7.0308 10.1894 7.7808 8.58941 8.0408 7.64941L8.05078 7.65942Z" fill="#5E5E5A"/>
<path d="M4.65912 11.0997C4.52912 11.0997 4.40913 11.0797 4.28913 11.0497C3.44913 10.7997 2.49911 9.76968 1.86911 9.08968C1.71911 8.92968 1.58911 8.78969 1.48911 8.67969C0.659108 7.84969 0.199128 5.33969 0.259128 4.03969C0.309128 2.93969 0.629123 2.69969 1.37912 2.11969C1.53912 1.99969 1.72911 1.84969 1.92911 1.68969C2.81911 0.95969 3.84912 0.179688 4.71912 0.179688C4.96912 0.179688 5.19912 0.249684 5.40912 0.379684C6.11912 0.849684 6.76913 1.11968 7.28913 1.33968C8.70913 1.93968 9.29912 2.17969 8.46912 5.18969C8.24912 5.97969 8.13911 6.64969 8.04911 7.23969C7.88911 8.23969 7.76911 8.94969 7.23911 9.46969C6.48911 10.1997 5.56913 11.0897 4.66913 11.0897L4.65912 11.0997Z" fill="white"/>
<path d="M4.7201 0.109612V0.259613C4.9601 0.259613 5.17008 0.319608 5.36008 0.449608C6.08008 0.929608 6.7301 1.19961 7.2501 1.41961C8.6301 1.99961 9.20011 2.23961 8.39011 5.18961C8.17011 5.97961 8.0601 6.64961 7.9701 7.24961C7.8101 8.22961 7.70011 8.93961 7.17011 9.44961C6.44011 10.1596 5.54011 11.0396 4.67011 11.0396C4.55011 11.0396 4.43011 11.0196 4.32011 10.9896C3.50011 10.7396 2.55009 9.72961 1.93009 9.04961C1.78009 8.88961 1.65009 8.74961 1.55009 8.63961C0.800086 7.88961 0.270104 5.51961 0.350104 4.05961C0.400104 2.98961 0.7101 2.75961 1.4401 2.19961C1.6001 2.06961 1.79009 1.92961 1.99009 1.76961C2.87009 1.04961 3.89011 0.269608 4.73011 0.269608V0.119614M4.7201 0.109612C3.8201 0.109612 2.77011 0.91961 1.89011 1.63961C0.760112 2.56961 0.2601 2.65961 0.1901 4.03961C0.1201 5.41961 0.6201 7.90961 1.4401 8.73961C2.0001 9.29961 3.2101 10.7996 4.2801 11.1196C4.4101 11.1596 4.54009 11.1796 4.68009 11.1796C5.62009 11.1796 6.55009 10.2696 7.30009 9.52961C8.16009 8.68961 7.96009 7.34961 8.55009 5.21961C9.71009 1.00961 8.07009 2.05961 5.46009 0.319611C5.23009 0.169611 4.99011 0.0996094 4.73011 0.0996094L4.7201 0.109612Z" fill="#5E5E5A"/>
<path opacity="0.4" d="M4.44046 6.62996C5.10872 6.62996 5.65045 6.08822 5.65045 5.41996C5.65045 4.7517 5.10872 4.20996 4.44046 4.20996C3.7722 4.20996 3.23047 4.7517 3.23047 5.41996C3.23047 6.08822 3.7722 6.62996 4.44046 6.62996Z" fill="#E62C2F" stroke="#E62C2F" stroke-width="0.2" stroke-linecap="round" stroke-linejoin="round"/>
<path opacity="0.4" d="M4.44046 6.62996C5.10872 6.62996 5.65045 6.08822 5.65045 5.41996C5.65045 4.7517 5.10872 4.20996 4.44046 4.20996C3.7722 4.20996 3.23047 4.7517 3.23047 5.41996C3.23047 6.08822 3.7722 6.62996 4.44046 6.62996Z" stroke="#E62C2F" stroke-width="0.2" stroke-linecap="round" stroke-linejoin="round"/>
</svg>
