<svg width="11" height="25" viewBox="0 0 11 25" fill="none" xmlns="http://www.w3.org/2000/svg">
<path d="M3.43689 24.5209C3.33689 24.5209 3.2569 24.4809 3.1969 24.4009C2.9569 24.0709 3.07688 23.0809 3.51688 21.6909C3.83688 20.7009 3.37688 19.2509 2.92688 17.8509C2.69688 17.1309 2.48689 16.4609 2.37689 15.8609C2.00689 13.8109 1.59688 11.5409 1.04688 8.9209H8.93689L8.76688 9.2309C8.06688 10.5309 7.34688 11.8709 7.26688 14.6809C7.18688 17.4909 7.07689 21.3409 4.96689 23.4709C4.10689 24.3409 3.65689 24.5209 3.43689 24.5209Z" fill="#F4DE9C"/>
<path d="M8.81876 9.00059C8.77876 9.07059 8.74874 9.14059 8.70874 9.21059C8.00874 10.5206 7.28876 11.8706 7.19876 14.6906C7.11876 17.4906 7.00876 21.3206 4.91876 23.4206C4.02876 24.3106 3.60875 24.4506 3.43875 24.4506C3.35875 24.4506 3.29876 24.4206 3.25876 24.3606C3.02876 24.0506 3.15875 23.0606 3.59875 21.7206C3.92875 20.7106 3.45876 19.2506 3.00876 17.8406C2.77876 17.1306 2.56874 16.4506 2.45874 15.8606V15.8206C2.08874 13.8406 1.68874 11.6006 1.14874 9.01059H8.81876M9.06876 8.85059H0.96875C1.51875 11.5306 1.93875 13.8106 2.30875 15.8806C2.62875 17.6606 3.92876 20.2106 3.44876 21.6706C2.87876 23.4206 2.81875 24.6006 3.43875 24.6006C3.76875 24.6006 4.28875 24.2706 5.02875 23.5306C7.09875 21.4506 7.26873 17.7906 7.35873 14.6906C7.44873 11.5906 8.32876 10.2706 9.06876 8.85059Z" fill="#5E5E5A"/>
<path d="M4.95696 12.1409C4.46696 12.1409 4.03698 11.9609 3.66698 11.6009C3.17698 11.1209 2.77697 10.8409 2.43697 10.6009C1.62697 10.0309 1.18697 9.72094 0.656975 7.51094C0.216975 5.65094 0.776961 3.75094 1.98696 2.98094L2.38699 2.72094C3.54699 1.98094 5.12696 0.960938 6.14696 0.960938C6.29696 0.960938 6.42698 0.980937 6.53698 1.03094C7.13698 1.26094 7.42696 1.51094 7.70696 1.75094C7.92696 1.94094 8.13696 2.11094 8.45696 2.25094C9.08696 2.52094 10.297 3.93094 10.197 5.94094C10.127 7.32094 9.29697 8.41094 8.68697 9.21094C8.42697 9.55094 8.20698 9.84093 8.09698 10.0909C7.82698 10.7009 6.31697 12.1409 4.93697 12.1409H4.95696Z" fill="white"/>
<path d="M6.14811 1.04063C6.28811 1.04063 6.4081 1.06062 6.5181 1.10062C7.1081 1.33062 7.38813 1.57062 7.66813 1.81062C7.88813 2.00062 8.10812 2.18063 8.43812 2.32063C9.05812 2.59063 10.2281 3.96063 10.1281 5.94063C10.0581 7.29063 9.23813 8.38062 8.63813 9.17062C8.37813 9.51062 8.14812 9.81062 8.03812 10.0606C7.77812 10.6506 6.29813 12.0606 4.94813 12.0606C4.47813 12.0606 4.05811 11.8906 3.70811 11.5506C3.20811 11.0706 2.79812 10.7806 2.46812 10.5406C1.67812 9.98063 1.23812 9.67062 0.718116 7.49062C0.288116 5.66062 0.828104 3.79063 2.0181 3.04063L2.41813 2.78062C3.56813 2.04062 5.13813 1.03062 6.13813 1.03062M6.14811 0.890625C4.97811 0.890625 3.10813 2.18062 1.94813 2.92062C0.628127 3.75062 0.168112 5.74062 0.588112 7.53062C1.33811 10.6906 1.94811 10.0306 3.61811 11.6606C4.02811 12.0606 4.48811 12.2206 4.95811 12.2206C6.39811 12.2206 7.91812 10.7206 8.18812 10.1306C8.53812 9.34062 10.1881 7.94062 10.2881 5.96062C10.3881 3.98062 9.22813 2.51062 8.50813 2.20062C7.78813 1.89062 7.6681 1.40063 6.5781 0.970627C6.4481 0.920627 6.30812 0.900627 6.15812 0.900627L6.14811 0.890625Z" fill="#5E5E5A"/>
<path d="M3.42905 24.5402C3.32905 24.5402 3.24906 24.5002 3.18906 24.4202C2.94906 24.0902 3.06906 23.1002 3.50906 21.7102C3.82906 20.7202 3.36907 19.2802 2.91907 17.8802C2.68907 17.1602 2.47905 16.4902 2.36905 15.8902C1.99905 13.8602 1.58906 11.5902 1.03906 8.9502H8.92905L8.75906 9.2602C8.05906 10.5602 7.33906 11.9002 7.25906 14.7102C7.17906 17.5202 7.06905 21.3702 4.95905 23.4902C4.09905 24.3602 3.64905 24.5402 3.42905 24.5402Z" fill="#F4DE9C"/>
<path d="M8.81094 9.02011C8.77094 9.09011 8.74096 9.16012 8.70096 9.23012C8.00096 10.5401 7.28095 11.8901 7.19095 14.7101C7.11095 17.5101 7.00095 21.3401 4.91095 23.4401C4.02095 24.3301 3.60094 24.4701 3.43094 24.4701C3.35094 24.4701 3.29095 24.4401 3.25095 24.3801C3.02095 24.0701 3.15093 23.0801 3.58093 21.7401C3.91093 20.7301 3.44094 19.2701 2.99094 17.8601C2.76094 17.1501 2.55095 16.4701 2.44095 15.8801V15.8401C2.07095 13.8601 1.67095 11.6201 1.13095 9.02011H8.80093M9.06094 8.87012H0.960938C1.51094 11.5501 1.93093 13.8301 2.30093 15.9001C2.62093 17.6801 3.92095 20.2301 3.44095 21.6901C2.87095 23.4401 2.81094 24.6201 3.43094 24.6201C3.76094 24.6201 4.28094 24.2901 5.02094 23.5501C7.09093 21.4701 7.26095 17.8101 7.35095 14.7101C7.44095 11.6101 8.32094 10.2901 9.06094 8.87012Z" fill="#5E5E5A"/>
<path d="M4.94134 12.1507C4.45134 12.1507 4.02133 11.9707 3.65133 11.6107C3.16133 11.1307 2.76135 10.8507 2.42135 10.6107C1.61135 10.0407 1.17135 9.7307 0.64135 7.5207C0.20135 5.6607 0.761336 3.7607 1.97134 2.9907L2.37133 2.73071C3.53133 1.99071 5.11134 0.970703 6.13134 0.970703C6.28134 0.970703 6.41132 0.990703 6.52132 1.0407C7.12132 1.2707 7.41135 1.5207 7.70135 1.7607C7.92135 1.9507 8.13135 2.1207 8.45135 2.2607C9.08135 2.5307 10.2913 3.9407 10.1913 5.9507C10.1213 7.3307 9.29133 8.4207 8.68133 9.2207C8.42133 9.5607 8.20133 9.8507 8.09133 10.1007C7.82133 10.7107 6.31133 12.1507 4.93133 12.1507H4.94134Z" fill="white"/>
<path d="M6.14033 1.05039C6.28033 1.05039 6.40032 1.07039 6.51032 1.11039C7.10032 1.34039 7.38032 1.58039 7.66032 1.82039C7.88032 2.01039 8.10031 2.19039 8.43031 2.33039C9.05031 2.60039 10.2203 3.97039 10.1203 5.95039C10.0503 7.30039 9.23032 8.39039 8.63032 9.18039C8.37032 9.52039 8.14031 9.82039 8.03031 10.0704C7.77031 10.6604 6.29031 12.0704 4.94031 12.0704C4.47031 12.0704 4.05032 11.9004 3.70032 11.5604C3.20032 11.0804 2.7903 10.7904 2.4603 10.5504C1.6703 9.99039 1.2303 9.68039 0.710304 7.50039C0.280304 5.67039 0.820322 3.80039 2.01032 3.05039L2.41032 2.79039C3.56032 2.05039 5.13032 1.04039 6.13032 1.04039M6.14033 0.900391C4.97033 0.900391 3.10031 2.19039 1.94031 2.93039C0.620315 3.76039 0.160299 5.75039 0.580299 7.54039C1.3303 10.7004 1.9403 10.0404 3.6103 11.6704C4.0203 12.0704 4.48032 12.2304 4.95032 12.2304C6.39032 12.2304 7.9103 10.7304 8.18031 10.1404C8.5303 9.35039 10.1803 7.95039 10.2803 5.97039C10.3803 3.99039 9.22031 2.52039 8.50031 2.21039C7.78031 1.90039 7.66032 1.41039 6.57032 0.980392C6.44032 0.930392 6.30031 0.910393 6.15031 0.910393L6.14033 0.900391Z" fill="#5E5E5A"/>
<path opacity="0.4" d="M4.99905 7.75985C5.66732 7.75985 6.20905 7.21812 6.20905 6.54985C6.20905 5.88159 5.66732 5.33984 4.99905 5.33984C4.33079 5.33984 3.78906 5.88159 3.78906 6.54985C3.78906 7.21812 4.33079 7.75985 4.99905 7.75985Z" fill="#E62C2F" stroke="#E62C2F" stroke-width="0.2" stroke-linecap="round" stroke-linejoin="round"/>
<path opacity="0.4" d="M4.99905 7.75985C5.66732 7.75985 6.20905 7.21812 6.20905 6.54985C6.20905 5.88159 5.66732 5.33984 4.99905 5.33984C4.33079 5.33984 3.78906 5.88159 3.78906 6.54985C3.78906 7.21812 4.33079 7.75985 4.99905 7.75985Z" stroke="#E62C2F" stroke-width="0.2" stroke-linecap="round" stroke-linejoin="round"/>
</svg>
