<svg width="14" height="25" viewBox="0 0 14 25" fill="none" xmlns="http://www.w3.org/2000/svg">
<path d="M8.06953 24.1902C7.97953 24.1902 7.89953 24.1602 7.84953 24.0902C7.57953 23.7702 7.73952 22.7602 7.89952 21.7802C8.01952 21.0202 8.14953 20.2202 8.06953 19.7402L7.96953 19.0802C7.72953 17.5102 7.32952 14.8902 6.89952 14.3602C6.70952 14.1302 6.51952 14.0102 6.33952 14.0102C5.87952 14.0102 5.54953 14.7702 5.37953 16.2602C5.12953 18.3802 4.56953 19.8102 4.02953 21.1902L3.81953 21.7302C3.30953 23.0602 2.61953 23.9602 2.10953 23.9602C1.98953 23.9602 1.88953 23.9102 1.77953 23.8202C1.20953 23.3102 1.55953 19.8002 1.85953 17.8002C2.05953 16.4902 2.00953 13.8302 1.88953 12.5102L1.86952 12.2402C1.76952 11.1502 1.71953 10.5302 1.26953 9.28024L12.4995 8.99023C12.0595 10.3602 12.3795 13.7802 12.4995 14.8102C12.7295 16.9402 11.8395 18.9102 11.2395 20.2102C10.1495 22.6002 9.09953 23.9702 8.18953 24.1702C8.14953 24.1702 8.10953 24.1802 8.06953 24.1802V24.1902Z" fill="#F4DE9C"/>
<path d="M12.3984 9.06015C11.9984 10.5102 12.3084 13.8002 12.4284 14.8102C12.6584 16.9202 11.7684 18.8802 11.1784 20.1702C10.0984 22.5402 9.06844 23.8901 8.17844 24.0901C8.13844 24.0901 8.10845 24.1002 8.07845 24.1002C8.00845 24.1002 7.95844 24.0802 7.91844 24.0302C7.66844 23.7402 7.83845 22.7002 7.98845 21.7802C8.11845 20.9702 8.23845 20.2102 8.15845 19.7102C8.12845 19.5302 8.09844 19.3002 8.05844 19.0502C7.73844 16.9202 7.37844 14.8002 6.96844 14.3002C6.76844 14.0502 6.55845 13.9302 6.34845 13.9302C5.82845 13.9302 5.49844 14.6902 5.30844 16.2502C5.05844 18.3602 4.50844 19.7802 3.96844 21.1602C3.89844 21.3402 3.82844 21.5201 3.75844 21.7001C3.25844 23.0001 2.59844 23.8801 2.11844 23.8801C2.01844 23.8801 1.92844 23.8402 1.83844 23.7602C1.37844 23.3502 1.54845 20.4602 1.93845 17.8102C2.13845 16.4902 2.08844 13.8302 1.96844 12.5002L1.94844 12.2202C1.85844 11.1902 1.79845 10.5401 1.37845 9.34015L12.4084 9.05016M12.5984 8.91016L1.14844 9.21015C1.66844 10.6202 1.68844 11.2401 1.80844 12.5201C1.92844 13.8001 1.97844 16.4502 1.77844 17.8002C1.57844 19.1502 1.05844 23.2901 1.72844 23.8801C1.84844 23.9901 1.97844 24.0402 2.10844 24.0402C2.70844 24.0402 3.40844 23.0002 3.88844 21.7602C4.46844 20.2502 5.16844 18.6901 5.44844 16.2701C5.63844 14.6401 5.97844 14.0901 6.33844 14.0901C6.50844 14.0901 6.67844 14.2202 6.83844 14.4102C7.32844 15.0102 7.78844 18.4602 7.99844 19.7602C8.19844 21.0102 7.02845 24.2701 8.06845 24.2701C8.10845 24.2701 8.15845 24.2702 8.20845 24.2502C9.48845 23.9702 10.6984 21.5902 11.3084 20.2502C11.9184 18.9102 12.8085 16.9302 12.5685 14.8102C12.3385 12.6902 12.1984 9.96015 12.5984 8.92015V8.91016Z" fill="#5E5E5A"/>
<path d="M6.48942 10.0797C6.15942 10.0797 5.85942 10.0397 5.56942 9.94972C4.95942 9.76972 4.24942 9.74973 3.56942 9.72973C2.39942 9.69973 1.29942 9.66972 0.989415 8.77972C0.439415 7.19972 -0.170585 3.89972 1.48942 2.76972C3.22942 1.57972 4.57941 1.02972 5.71941 1.02972C6.16941 1.02972 6.52941 1.10973 6.87941 1.17973C7.17941 1.23973 7.46941 1.30972 7.76941 1.30972C7.89941 1.30972 8.01941 1.29972 8.15941 1.26972L8.27941 1.24973C8.87941 1.13973 9.78941 0.969727 10.6994 0.969727C11.6694 0.969727 12.4494 1.16972 13.0094 1.55972C14.3794 2.50972 13.9994 6.71973 13.1994 8.06973C12.6094 9.06973 11.8594 9.47973 10.6294 9.47973C10.4694 9.47973 10.2994 9.47972 10.1294 9.45972H9.97941C9.48941 9.45972 8.9594 9.59973 8.3994 9.74973C7.7894 9.91973 7.14942 10.0897 6.48942 10.0897V10.0797Z" fill="white"/>
<path d="M10.7004 1.03989C11.6604 1.03989 12.4204 1.22989 12.9704 1.60989C14.3104 2.53989 13.9204 6.68988 13.1404 8.01988C12.4304 9.21988 11.5104 9.38988 10.6304 9.38988C10.4704 9.38988 10.3004 9.38989 10.1304 9.36989C10.0804 9.36989 10.0304 9.36989 9.97042 9.36989C9.47042 9.36989 8.94042 9.51988 8.37042 9.66988C7.76042 9.83988 7.13042 10.0099 6.48042 10.0099C6.16042 10.0099 5.87043 9.96988 5.58043 9.87988C4.96043 9.68988 4.25043 9.66989 3.57043 9.64989C2.38043 9.61989 1.36042 9.58989 1.06042 8.74989C0.510421 7.17989 -0.0895777 3.92989 1.53042 2.82989C3.80042 1.27989 5.01042 1.09988 5.72042 1.09988C6.16042 1.09988 6.51042 1.17989 6.86042 1.24989C7.17042 1.31989 7.46043 1.37988 7.77043 1.37988C7.91043 1.37988 8.04042 1.36988 8.17042 1.33988L8.29042 1.31989C8.89042 1.20989 9.79043 1.03989 10.6904 1.03989M10.7004 0.889885C9.72042 0.889885 8.76042 1.07988 8.15042 1.19988C8.02042 1.21988 7.90042 1.22989 7.78042 1.22989C7.14042 1.22989 6.58043 0.949883 5.74043 0.949883C4.81043 0.949883 3.54043 1.28988 1.46043 2.69988C-0.15957 3.80988 0.290416 6.93989 0.930416 8.79989C1.44042 10.2599 3.87043 9.51988 5.55043 10.0199C5.87043 10.1099 6.18043 10.1499 6.49043 10.1499C7.76043 10.1499 8.95042 9.50989 9.97042 9.50989C10.0204 9.50989 10.0704 9.50989 10.1204 9.50989C10.2904 9.51989 10.4604 9.52988 10.6304 9.52988C11.7004 9.52988 12.5804 9.24988 13.2704 8.08988C14.0704 6.74988 14.4904 2.46989 13.0604 1.47989C12.4004 1.01989 11.5504 0.879883 10.7104 0.879883L10.7004 0.889885Z" fill="#5E5E5A"/>
<mask id="mask0_240_1228" style="mask-type:luminance" maskUnits="userSpaceOnUse" x="0" y="0" width="15" height="11">
<path d="M0.930101 8.79984C0.280101 6.93984 -0.169885 3.80984 1.46012 2.69984C5.78012 -0.250162 6.6101 1.47984 8.1501 1.18984C9.3001 0.979844 11.6301 0.489844 13.0601 1.47984C14.4901 2.46984 14.0701 6.74984 13.2701 8.08984C12.4701 9.42984 11.4301 9.59984 10.1301 9.51984C8.83011 9.43984 7.24011 10.5298 5.56011 10.0198C3.88011 9.51984 1.45011 10.2598 0.940111 8.79984H0.930101Z" fill="white"/>
</mask>
<g mask="url(#mask0_240_1228)">
<path opacity="0.75" d="M-2.03859 7.38987C-2.03859 7.38987 1.82141 8.91987 1.85141 5.75987C1.88141 2.95987 -2.05859 4.10987 -2.05859 4.10987V7.38987H-2.03859Z" fill="#E62C2F" stroke="#E62C2F" stroke-width="0.2" stroke-linecap="round" stroke-linejoin="round"/>
</g>
<path d="M8.06172 24.2C7.97172 24.2 7.89172 24.17 7.84172 24.1C7.57172 23.78 7.73172 22.77 7.89172 21.79C8.01172 21.03 8.14172 20.23 8.06172 19.75L7.96173 19.09C7.72173 17.52 7.32172 14.9 6.89172 14.37C6.70172 14.14 6.51173 14.02 6.33173 14.02C5.87173 14.02 5.54172 14.78 5.37172 16.27C5.12172 18.39 4.56173 19.82 4.02173 21.2L3.81172 21.74C3.30172 23.07 2.61173 23.97 2.10173 23.97C1.98173 23.97 1.87173 23.92 1.77173 23.83C1.20173 23.32 1.55173 19.81 1.85173 17.81C2.05173 16.5 2.00173 13.84 1.88173 12.52L1.86172 12.25C1.76172 11.16 1.71172 10.54 1.26172 9.29L12.4917 9C12.0517 10.37 12.3717 13.79 12.4917 14.82C12.7217 16.95 11.8317 18.92 11.2317 20.22C10.1417 22.61 9.09172 23.98 8.18172 24.18C8.14172 24.18 8.10172 24.19 8.06172 24.19V24.2Z" fill="#F4DE9C"/>
<path d="M12.3806 9.07969C11.9806 10.5297 12.2906 13.8197 12.4106 14.8297C12.6406 16.9397 11.7506 18.8997 11.1606 20.1897C10.0806 22.5597 9.05063 23.9097 8.16063 24.1097C8.12063 24.1097 8.09062 24.1197 8.06062 24.1197C7.99062 24.1197 7.94062 24.0997 7.90062 24.0497C7.65062 23.7597 7.82063 22.7197 7.97063 21.7997C8.10063 20.9897 8.22062 20.2297 8.14062 19.7297C8.11063 19.5497 8.08062 19.3197 8.04062 19.0597C7.72062 16.9297 7.36062 14.8097 6.95062 14.3097C6.75062 14.0597 6.54063 13.9397 6.33063 13.9397C5.81063 13.9397 5.48062 14.6997 5.29062 16.2597C5.04062 18.3697 4.49062 19.7897 3.95062 21.1697C3.88062 21.3497 3.81063 21.5297 3.74063 21.7097C3.24063 23.0097 2.58063 23.8897 2.10063 23.8897C2.00063 23.8897 1.91063 23.8497 1.82063 23.7697C1.36063 23.3597 1.53062 20.4697 1.92062 17.8197C2.12062 16.4997 2.07062 13.8397 1.95062 12.5097L1.93062 12.2297C1.84062 11.1997 1.78063 10.5497 1.36063 9.34969L12.3906 9.05968M12.5906 8.92969L1.14062 9.22969C1.66062 10.6397 1.68063 11.2597 1.80063 12.5397C1.92063 13.8197 1.97063 16.4697 1.77063 17.8197C1.57063 19.1697 1.05063 23.3097 1.72063 23.8997C1.84063 24.0097 1.97063 24.0597 2.10063 24.0597C2.70063 24.0597 3.40063 23.0197 3.88063 21.7797C4.46063 20.2697 5.16063 18.7097 5.44063 16.2897C5.63063 14.6597 5.97063 14.1097 6.33063 14.1097C6.50063 14.1097 6.67063 14.2397 6.83063 14.4297C7.32063 15.0297 7.78063 18.4797 7.99063 19.7797C8.19063 21.0297 7.02062 24.2897 8.06062 24.2897C8.10062 24.2897 8.15062 24.2897 8.20062 24.2697C9.48062 23.9897 10.6906 21.6097 11.3006 20.2697C11.9106 18.9297 12.8006 16.9497 12.5606 14.8297C12.3306 12.7097 12.1906 9.97969 12.5906 8.93969V8.92969Z" fill="#5E5E5A"/>
<path d="M6.46988 10.0993C6.13988 10.0993 5.83989 10.0593 5.54989 9.96926C4.93989 9.78926 4.22989 9.76926 3.54989 9.74926C2.37989 9.71926 1.27988 9.68926 0.969884 8.79926C0.419884 7.21926 -0.190116 3.91926 1.46988 2.78926C3.20988 1.59926 4.55988 1.04926 5.69988 1.04926C6.14988 1.04926 6.50988 1.12926 6.85988 1.19926C7.15988 1.25926 7.44988 1.32926 7.74988 1.32926C7.87988 1.32926 7.99988 1.31926 8.13988 1.28926L8.25988 1.26926C8.85988 1.15926 9.76988 0.989258 10.6799 0.989258C11.6499 0.989258 12.4299 1.18926 12.9899 1.57926C14.3599 2.52926 13.9799 6.73926 13.1799 8.08926C12.5899 9.08926 11.8399 9.49926 10.6099 9.49926C10.4499 9.49926 10.2799 9.49926 10.1099 9.47926H9.95989C9.46989 9.47926 8.93989 9.61926 8.37989 9.76926C7.76989 9.93926 7.12988 10.1093 6.46988 10.1093V10.0993Z" fill="white"/>
<path d="M10.6809 1.04965C11.6409 1.04965 12.4009 1.23965 12.9509 1.61965C14.2909 2.54965 13.9009 6.69965 13.1209 8.02965C12.4109 9.22965 11.4909 9.39965 10.6109 9.39965C10.4509 9.39965 10.2809 9.39965 10.1109 9.37965C10.0609 9.37965 10.0109 9.37965 9.95089 9.37965C9.45089 9.37965 8.92089 9.52965 8.35089 9.67965C7.74089 9.84965 7.1109 10.0196 6.4609 10.0196C6.1409 10.0196 5.85089 9.97965 5.56089 9.88965C4.94089 9.69965 4.23089 9.67965 3.55089 9.65965C2.36089 9.62965 1.34088 9.59965 1.04088 8.75965C0.490882 7.18965 -0.109117 3.93965 1.51088 2.82965C3.78088 1.27965 4.99089 1.09965 5.70089 1.09965C6.14089 1.09965 6.49089 1.17965 6.84089 1.24965C7.15089 1.31965 7.44089 1.37965 7.75089 1.37965C7.89089 1.37965 8.02088 1.36965 8.15088 1.33965L8.27089 1.31965C8.87089 1.20965 9.77089 1.03965 10.6709 1.03965M10.6809 0.899651C9.70088 0.899651 8.74089 1.08965 8.13089 1.20965C8.00089 1.22965 7.88088 1.23965 7.76088 1.23965C7.12088 1.23965 6.56089 0.959648 5.72089 0.959648C4.79089 0.959648 3.52089 1.29965 1.44089 2.70965C-0.179109 3.81965 0.270892 6.94965 0.910892 8.80965C1.42089 10.2696 3.85089 9.52965 5.53089 10.0296C5.85089 10.1296 6.16089 10.1597 6.47089 10.1597C7.74089 10.1597 8.93089 9.51965 9.95089 9.51965C10.0009 9.51965 10.0509 9.51965 10.1009 9.51965C10.2709 9.52965 10.4409 9.53965 10.6109 9.53965C11.6809 9.53965 12.5609 9.25965 13.2509 8.09965C14.0509 6.75965 14.4709 2.47965 13.0409 1.48965C12.3809 1.02965 11.5309 0.889648 10.6909 0.889648L10.6809 0.899651Z" fill="#5E5E5A"/>
<path opacity="0.4" d="M7.35063 6.75008C8.0189 6.75008 8.56062 6.20834 8.56062 5.54008C8.56062 4.87181 8.0189 4.33008 7.35063 4.33008C6.68237 4.33008 6.14062 4.87181 6.14062 5.54008C6.14062 6.20834 6.68237 6.75008 7.35063 6.75008Z" fill="#E62C2F" stroke="#E62C2F" stroke-width="0.2" stroke-linecap="round" stroke-linejoin="round"/>
<path opacity="0.4" d="M7.35063 6.75008C8.0189 6.75008 8.56062 6.20834 8.56062 5.54008C8.56062 4.87181 8.0189 4.33008 7.35063 4.33008C6.68237 4.33008 6.14062 4.87181 6.14062 5.54008C6.14062 6.20834 6.68237 6.75008 7.35063 6.75008Z" stroke="#E62C2F" stroke-width="0.2" stroke-linecap="round" stroke-linejoin="round"/>
</svg>
