<svg width="12" height="24" viewBox="0 0 12 24" fill="none" xmlns="http://www.w3.org/2000/svg">
<path d="M7.24875 23.4893C7.18875 23.4893 7.12875 23.4593 7.07875 23.3893C6.50875 22.6393 7.10875 18.3893 7.30875 17.6793C7.47875 17.0693 7.29875 14.5193 6.63875 13.6493C6.48875 13.4493 6.30875 13.3493 6.12875 13.3493C5.45875 13.3493 4.19875 16.2593 4.19875 18.8393C4.19875 21.1693 3.67875 23.2193 3.08875 23.2193C3.00875 23.2193 2.92875 23.1793 2.83875 23.1093C2.15875 22.4993 1.38875 19.0393 0.948746 16.2693C0.788746 15.2993 1.04875 14.3293 1.26875 13.4693C1.40875 12.9193 1.54875 12.3993 1.54875 11.9693C1.54875 10.8893 0.82875 8.56926 0.46875 7.73926H11.5287C11.1187 9.15926 10.4488 12.0393 10.3188 12.9893C10.2488 13.5193 10.2487 14.4893 10.2487 15.5993C10.2487 16.5193 10.2487 17.5493 10.1987 18.4493C10.1087 20.4193 8.40875 23.1293 7.32875 23.4793H7.24875V23.4893Z" fill="#F4DE9C"/>
<path d="M11.4276 7.80941C11.0176 9.25941 10.3677 12.0494 10.2477 12.9694C10.1777 13.5094 10.1776 14.4694 10.1776 15.5894C10.1776 16.4994 10.1777 17.5394 10.1277 18.4394C10.0377 20.3494 8.33765 23.0694 7.30765 23.3994C7.28765 23.3994 7.26764 23.3994 7.25764 23.3994C7.22764 23.3994 7.19764 23.3994 7.14764 23.3294C6.59764 22.6094 7.19765 18.3594 7.38765 17.6794C7.55765 17.0594 7.36765 14.4694 6.69765 13.5794C6.52765 13.3594 6.33766 13.2494 6.12766 13.2494C5.35766 13.2494 4.12766 16.2894 4.12766 18.8194C4.12766 21.3494 3.56766 23.1194 3.09766 23.1194C3.03766 23.1194 2.97764 23.0894 2.89764 23.0194C2.22764 22.4194 1.47765 18.9894 1.02765 16.2194C0.877649 15.2694 1.12766 14.2994 1.34766 13.4494C1.48766 12.8894 1.62766 12.3694 1.62766 11.9294C1.62766 10.8894 0.957646 8.68941 0.587646 7.77941H11.4377M11.6277 7.65942H0.347656C0.697656 8.38942 1.47765 10.8794 1.46765 11.9594C1.46765 13.0394 0.607645 14.6694 0.867645 16.2794C1.12765 17.8894 1.94764 22.4194 2.78764 23.1594C2.88764 23.2494 2.98765 23.2894 3.08765 23.2894C3.77765 23.2894 4.26765 21.0694 4.26765 18.8394C4.26765 16.2894 5.52765 13.4194 6.11765 13.4194C7.11765 13.4194 7.42765 16.9594 7.22765 17.6594C7.03765 18.3394 6.26766 23.5594 7.23766 23.5594C7.26766 23.5594 7.30765 23.5594 7.33765 23.5394C8.45765 23.1794 10.1677 20.3994 10.2677 18.4394C10.3577 16.4794 10.2576 13.9594 10.3876 12.9794C10.5176 11.9994 11.2176 9.00941 11.6176 7.64941L11.6277 7.65942Z" fill="#5E5E5A"/>
<path d="M6.20786 10.0797C5.04786 10.0797 4.33785 9.46973 3.75785 8.97973C3.34785 8.62973 2.98786 8.31973 2.57786 8.31973C2.06786 8.35973 1.75785 8.59973 1.50785 8.78973C1.34785 8.90973 1.21785 9.00973 1.11785 9.00973C1.05785 9.00973 0.957863 8.97972 0.817863 8.69972C-0.132137 6.71972 -0.372137 3.27973 1.70786 2.22973C2.37786 1.88973 3.05786 1.72973 3.84786 1.72973C4.22786 1.72973 4.58785 1.76973 4.91785 1.79973C5.20785 1.82973 5.47786 1.85973 5.73786 1.85973C6.13786 1.85973 6.43786 1.78972 6.68786 1.62972C7.19786 1.30972 8.16786 0.969727 9.10786 0.969727C10.0479 0.969727 11.1579 1.27973 11.5179 2.75973C12.1479 5.33973 11.6779 7.55972 11.3379 8.37972C11.2079 8.69972 10.9379 8.84972 10.5079 8.84972C10.2079 8.84972 9.85785 8.77972 9.52785 8.70972L9.35786 8.67973C9.35786 8.67973 9.26786 8.66972 9.21786 8.66972C8.77786 8.66972 8.20786 9.03973 7.65786 9.39973C7.14786 9.73973 6.61786 10.0897 6.23786 10.0897H6.20786V10.0797Z" fill="white"/>
<path d="M9.10891 1.03965C9.97891 1.03965 11.0989 1.33965 11.4489 2.76965C12.0689 5.32965 11.6089 7.53965 11.2789 8.33965C11.1589 8.63965 10.9189 8.76965 10.5189 8.76965C10.2189 8.76965 9.87891 8.69965 9.54891 8.62965L9.37891 8.58965C9.37891 8.58965 9.2789 8.57965 9.2289 8.57965C8.7689 8.57965 8.21891 8.93965 7.62891 9.32965C7.12891 9.65965 6.59891 9.99965 6.21891 10.0097C5.08891 10.0097 4.41892 9.42965 3.81892 8.92965C3.39892 8.56965 3.02891 8.25965 2.58891 8.25965C2.55891 8.25965 2.5289 8.25965 2.5089 8.25965C2.0489 8.29965 1.7189 8.54965 1.4789 8.73965C1.3389 8.84965 1.20891 8.93965 1.12891 8.93965C1.03891 8.93965 0.948903 8.76965 0.898903 8.66965C0.118903 7.05965 -0.451091 3.41965 1.74891 2.29965C2.40891 1.95965 3.07892 1.80965 3.84892 1.80965C4.22892 1.80965 4.57891 1.84965 4.90891 1.87965C5.19891 1.90965 5.47891 1.93965 5.73891 1.93965C6.14891 1.93965 6.46891 1.85965 6.72891 1.69965C7.22891 1.38965 8.1889 1.04965 9.1189 1.04965M9.10891 0.889648C8.13891 0.889648 7.14891 1.23965 6.63891 1.55965C6.36891 1.72965 6.06891 1.77965 5.72891 1.77965C5.18891 1.77965 4.55891 1.64965 3.83891 1.64965C3.18891 1.64965 2.45891 1.75965 1.66891 2.15965C-0.561093 3.28965 -0.141091 6.89965 0.748909 8.72965C0.878909 8.98965 0.98891 9.08965 1.10891 9.08965C1.41891 9.08965 1.78891 8.46965 2.49891 8.40965C2.51891 8.40965 2.54892 8.40965 2.56892 8.40965C3.51892 8.40965 4.20891 10.1696 6.19891 10.1696C6.20891 10.1696 6.21891 10.1696 6.22891 10.1696C7.02891 10.1696 8.37891 8.74965 9.19891 8.74965C9.23891 8.74965 9.27892 8.74965 9.31892 8.75965C9.70892 8.83965 10.1189 8.93965 10.4889 8.93965C10.8889 8.93965 11.2289 8.81965 11.3889 8.41965C11.6989 7.65965 12.2189 5.42965 11.5689 2.74965C11.2289 1.33965 10.1689 0.899651 9.08891 0.899651L9.10891 0.889648Z" fill="#5E5E5A"/>
<mask id="mask0_240_1231" style="mask-type:luminance" maskUnits="userSpaceOnUse" x="0" y="0" width="12" height="11">
<path d="M0.798411 8.73962C-0.081589 6.90962 -0.561594 3.28963 1.66841 2.14963C3.89841 1.00963 5.56841 2.21963 6.63841 1.54963C7.70841 0.879629 10.9284 0.0496294 11.5884 2.72963C12.2384 5.40963 11.7184 7.62963 11.4084 8.39963C11.0984 9.15963 10.1484 8.90962 9.3384 8.73962C8.5284 8.57962 7.07841 10.1396 6.23841 10.1496C4.16841 10.1696 3.48841 8.30963 2.49841 8.39963C1.50841 8.48963 1.2384 9.66962 0.788401 8.73962H0.798411Z" fill="white"/>
</mask>
<g mask="url(#mask0_240_1231)">
<path opacity="0.75" d="M-2.78125 7.13971C-2.78125 7.13971 1.34875 8.9697 1.34875 5.8097C1.34875 3.0097 -2.74126 4.50971 -2.74126 4.50971L-2.77126 7.13971H-2.78125Z" fill="#E62C2F" stroke="#E62C2F" stroke-width="0.2" stroke-linecap="round" stroke-linejoin="round"/>
</g>
<path d="M7.23703 23.5098C7.17703 23.5098 7.11703 23.4798 7.06703 23.4098C6.49703 22.6598 7.09703 18.4098 7.29703 17.6998C7.46703 17.0898 7.28703 14.5398 6.62703 13.6698C6.47703 13.4698 6.29702 13.3698 6.11702 13.3698C5.44702 13.3698 4.18703 16.2798 4.18703 18.8598C4.18703 21.1898 3.66703 23.2398 3.07703 23.2398C2.99703 23.2398 2.91703 23.1998 2.82703 23.1298C2.14703 22.5198 1.37703 19.0598 0.937027 16.2898C0.777027 15.3198 1.03702 14.3498 1.25702 13.4898C1.39702 12.9398 1.53702 12.4198 1.53702 11.9898C1.53702 10.9098 0.817031 8.58977 0.457031 7.75977H11.517C11.107 9.17977 10.437 12.0598 10.307 13.0098C10.237 13.5398 10.237 14.5098 10.237 15.6198C10.237 16.5398 10.237 17.5698 10.187 18.4698C10.097 20.4398 8.39703 23.1498 7.31703 23.4998H7.23703V23.5098Z" fill="#F4DE9C"/>
<path d="M11.4081 7.82993C10.9981 9.27993 10.3481 12.0699 10.2281 12.9899C10.1581 13.5299 10.1581 14.4899 10.1581 15.6099C10.1581 16.5199 10.1581 17.5599 10.1081 18.4599C10.0181 20.3699 8.31812 23.0899 7.28812 23.4199C7.26812 23.4199 7.24813 23.4199 7.23813 23.4199C7.20813 23.4199 7.17813 23.4199 7.12813 23.3499C6.57813 22.6299 7.17812 18.3799 7.36812 17.6999C7.53812 17.0799 7.34812 14.4899 6.67812 13.5999C6.50812 13.3799 6.31812 13.2699 6.10812 13.2699C5.33812 13.2699 4.10812 16.3099 4.10812 18.8399C4.10812 21.3699 3.54812 23.1399 3.07812 23.1399C3.01813 23.1399 2.95813 23.1099 2.87813 23.0399C2.20813 22.4399 1.45812 19.0099 1.00812 16.2399C0.858118 15.2899 1.10813 14.3199 1.32812 13.4699C1.46813 12.9099 1.60812 12.3899 1.60812 11.9499C1.60812 10.9099 0.93813 8.70993 0.56813 7.79993H11.4181M11.6081 7.67992H0.328125C0.678125 8.40992 1.45812 10.8999 1.44812 11.9799C1.44812 13.0599 0.588129 14.6899 0.848129 16.2999C1.10813 17.9099 1.92813 22.4399 2.76813 23.1799C2.86813 23.2699 2.96813 23.3099 3.06813 23.3099C3.75813 23.3099 4.24812 21.0899 4.24812 18.8599C4.24812 16.3099 5.50813 13.4399 6.09813 13.4399C7.09813 13.4399 7.40813 16.9799 7.20813 17.6799C7.01813 18.3599 6.24812 23.5799 7.21812 23.5799C7.24812 23.5799 7.28813 23.5799 7.31813 23.5599C8.43813 23.1999 10.1481 20.4199 10.2481 18.4599C10.3381 16.4999 10.2381 13.9799 10.3681 12.9999C10.4981 12.0199 11.1981 9.02992 11.5981 7.66992L11.6081 7.67992Z" fill="#5E5E5A"/>
<path d="M6.18833 10.1002C5.02833 10.1002 4.31833 9.49024 3.73833 9.00024C3.32833 8.65024 2.96833 8.34023 2.55833 8.34023C2.04833 8.38023 1.73833 8.62023 1.48833 8.81023C1.32833 8.93023 1.19834 9.03024 1.09834 9.03024C1.03834 9.03024 0.938332 9.00024 0.798332 8.72024C-0.151668 6.74024 -0.391668 3.30024 1.68833 2.25024C2.35833 1.91024 3.03833 1.75024 3.82833 1.75024C4.20833 1.75024 4.56832 1.79024 4.89832 1.82024C5.18832 1.85024 5.45833 1.88023 5.71833 1.88023C6.11833 1.88023 6.41833 1.81024 6.66833 1.65024C7.17833 1.33024 8.14833 0.990234 9.08833 0.990234C10.0283 0.990234 11.1383 1.30024 11.4983 2.78024C12.1283 5.36024 11.6583 7.58024 11.3183 8.40024C11.1883 8.72024 10.9183 8.87024 10.4883 8.87024C10.1883 8.87024 9.83832 8.80024 9.50832 8.73024L9.33833 8.70023C9.33833 8.70023 9.24833 8.69024 9.19833 8.69024C8.75833 8.69024 8.18833 9.06023 7.63833 9.42023C7.12833 9.76023 6.59833 10.1102 6.21833 10.1102H6.18833V10.1002Z" fill="white"/>
<path d="M9.08938 1.05039C9.95938 1.05039 11.0794 1.35039 11.4294 2.78039C12.0494 5.34039 11.5894 7.55039 11.2594 8.35039C11.1394 8.65039 10.8994 8.78039 10.4994 8.78039C10.1994 8.78039 9.85938 8.71039 9.53938 8.64039L9.36938 8.60039C9.36938 8.60039 9.26938 8.59039 9.21938 8.59039C8.75938 8.59039 8.20938 8.95039 7.61938 9.34039C7.11938 9.67039 6.58939 10.0104 6.20939 10.0204C5.07939 10.0204 4.40938 9.44039 3.80938 8.94039C3.38938 8.58039 3.01938 8.27039 2.57938 8.27039C2.54938 8.27039 2.51938 8.27039 2.49938 8.27039C2.03938 8.31039 1.70938 8.56039 1.46938 8.75039C1.32938 8.86039 1.19938 8.95039 1.11938 8.95039C1.02938 8.95039 0.939382 8.78039 0.889382 8.68039C0.109382 7.07039 -0.460612 3.43039 1.73939 2.31039C2.39939 1.97039 3.06938 1.82039 3.83938 1.82039C4.21938 1.82039 4.56938 1.86039 4.89938 1.89039C5.18938 1.92039 5.46938 1.95039 5.71938 1.95039C6.12938 1.95039 6.44939 1.87039 6.70939 1.71039C7.20939 1.40039 8.16939 1.06039 9.09939 1.06039M9.08938 0.900391C8.11938 0.900391 7.12938 1.25039 6.61938 1.57039C6.34938 1.74039 6.04939 1.79039 5.70939 1.79039C5.16939 1.79039 4.53939 1.66039 3.81939 1.66039C3.16939 1.66039 2.43938 1.77039 1.64938 2.17039C-0.580624 3.30039 -0.160622 6.91039 0.729378 8.74039C0.859378 9.00039 0.969379 9.10039 1.08938 9.10039C1.39938 9.10039 1.76938 8.48039 2.47938 8.42039C2.49938 8.42039 2.52939 8.42039 2.54939 8.42039C3.49939 8.42039 4.18938 10.1804 6.17938 10.1804C6.18938 10.1804 6.19939 10.1804 6.20939 10.1804C7.00939 10.1804 8.35937 8.76039 9.17937 8.76039C9.21937 8.76039 9.25939 8.76039 9.29939 8.77039C9.68939 8.85039 10.0994 8.95039 10.4694 8.95039C10.8694 8.95039 11.2094 8.83039 11.3694 8.43039C11.6794 7.67039 12.1994 5.44039 11.5494 2.76039C11.2094 1.35039 10.1494 0.910393 9.06939 0.910393L9.08938 0.900391Z" fill="#5E5E5A"/>
<path opacity="0.4" d="M5.94827 6.72958C6.61654 6.72958 7.15828 6.18783 7.15828 5.51957C7.15828 4.8513 6.61654 4.30957 5.94827 4.30957C5.28001 4.30957 4.73828 4.8513 4.73828 5.51957C4.73828 6.18783 5.28001 6.72958 5.94827 6.72958Z" fill="#E62C2F" stroke="#E62C2F" stroke-width="0.2" stroke-linecap="round" stroke-linejoin="round"/>
<path opacity="0.4" d="M5.94827 6.72958C6.61654 6.72958 7.15828 6.18783 7.15828 5.51957C7.15828 4.8513 6.61654 4.30957 5.94827 4.30957C5.28001 4.30957 4.73828 4.8513 4.73828 5.51957C4.73828 6.18783 5.28001 6.72958 5.94827 6.72958Z" stroke="#E62C2F" stroke-width="0.2" stroke-linecap="round" stroke-linejoin="round"/>
</svg>
