<svg width="12" height="22" viewBox="0 0 12 22" fill="none" xmlns="http://www.w3.org/2000/svg">
<path d="M2.63765 21.1102C2.25765 21.1102 1.77765 20.5702 1.52765 19.8602C1.45765 19.6702 1.38766 19.4802 1.31766 19.3002C0.927658 18.2802 0.557657 17.3202 0.457657 14.6702C0.377657 12.6702 0.607652 12.1702 0.827652 11.6902C0.947652 11.4202 1.06766 11.1602 1.12766 10.6502C1.17766 10.1902 1.31765 9.7302 1.44765 9.3002C1.69765 8.4702 1.93765 7.6902 1.55765 6.9502H10.6676C10.5576 7.2902 10.4477 7.6002 10.3277 7.9102C10.1477 8.3902 9.96766 8.8802 9.81766 9.5002L9.77765 9.6502C9.53765 10.6502 9.28765 11.6802 9.50765 14.1002C9.71765 16.4402 8.52765 17.7202 6.86765 19.4902L6.52765 19.8602C5.66765 20.7802 5.22765 20.9802 5.00765 20.9802C4.91765 20.9802 4.84765 20.9502 4.79765 20.8902C4.64765 20.7102 4.63765 20.2902 4.74765 19.7202C4.85765 19.1602 5.13765 18.4102 5.43765 17.6102C5.79765 16.6302 6.17765 15.6102 6.26765 14.8802C6.38765 13.9502 6.08765 13.4102 5.76765 12.8302C5.62765 12.5802 5.48765 12.3102 5.36765 12.0102C5.22765 11.6202 5.02764 11.4302 4.78764 11.4302C4.40764 11.4302 3.95765 11.9302 3.46765 12.9302C3.02765 13.8002 3.13766 15.5102 3.23766 17.1602C3.30766 18.3102 3.37765 19.4002 3.25765 20.1402C3.15765 20.7802 2.92766 21.1302 2.62766 21.1302L2.63765 21.1102Z" fill="#F4DE9C"/>
<path d="M10.5684 7.02011C10.4684 7.33011 10.3684 7.61011 10.2584 7.89011C10.0784 8.37011 9.89837 8.87011 9.74837 9.49011L9.70838 9.64011C9.46838 10.6401 9.20837 11.6801 9.43837 14.1101C9.64837 16.4201 8.46837 17.6801 6.82837 19.4401L6.47837 19.8101C5.58837 20.7601 5.17837 20.9101 5.00837 20.9101C4.93837 20.9101 4.89837 20.8901 4.85837 20.8401C4.72837 20.6801 4.71837 20.2701 4.82837 19.7301C4.93837 19.1801 5.21837 18.4201 5.50837 17.6301C5.86837 16.6401 6.24838 15.6201 6.34838 14.8901C6.46838 13.9401 6.16837 13.3801 5.83837 12.7901C5.69837 12.5401 5.55837 12.2801 5.44837 11.9801C5.28837 11.5601 5.07837 11.3501 4.79837 11.3501C4.37837 11.3501 3.92838 11.8501 3.40838 12.8901C2.95838 13.7801 3.06837 15.4901 3.16837 17.1501C3.23837 18.3001 3.30837 19.3901 3.18837 20.1101C3.08837 20.7101 2.89837 21.0401 2.63837 21.0401C2.29837 21.0401 1.83838 20.5101 1.59838 19.8401C1.52838 19.6501 1.45837 19.4601 1.38837 19.2801C0.998371 18.2701 0.62837 17.3201 0.52837 14.6801C0.45837 12.6901 0.678371 12.2001 0.888371 11.7301C1.00837 11.4601 1.13837 11.1901 1.19837 10.6701C1.24837 10.2101 1.38838 9.76012 1.51838 9.33012C1.76838 8.53012 1.99836 7.76011 1.67836 7.03011H10.5684M10.7684 6.87012H1.42836C2.10836 7.99012 1.20837 9.25011 1.04837 10.6401C0.888374 12.0301 0.258376 11.5301 0.378376 14.6801C0.498376 17.8201 1.00838 18.6301 1.45838 19.8801C1.71838 20.6101 2.21837 21.1801 2.63837 21.1801C2.94837 21.1801 3.21837 20.8801 3.33837 20.1301C3.62837 18.3301 2.80836 14.4001 3.53836 12.9501C3.99836 12.0201 4.43837 11.4901 4.79837 11.4901C4.99837 11.4901 5.16837 11.6601 5.30837 12.0201C5.67837 13.0201 6.36837 13.5501 6.19837 14.8601C6.02837 16.1701 4.93836 18.4401 4.67836 19.7001C4.52836 20.4301 4.57837 21.0501 5.00837 21.0501C5.31837 21.0501 5.81837 20.7301 6.58837 19.9101C8.42837 17.9301 9.81837 16.6301 9.58837 14.1001C9.35837 11.5701 9.63837 10.5701 9.89837 9.52011C10.1584 8.47011 10.4984 7.80012 10.7784 6.87012H10.7684Z" fill="#5E5E5A"/>
<path d="M3.33808 8.74094C2.93808 8.74094 2.55808 8.61093 2.17808 8.34093C1.10808 7.57093 0.238078 5.68094 0.618078 3.54094C0.868078 2.16094 1.38808 1.96094 1.92808 1.96094H2.29809C2.36809 1.96094 2.43808 1.96094 2.49808 1.96094C2.66808 1.93094 2.87808 1.82094 3.11808 1.69094C3.56808 1.45094 4.11809 1.16094 4.81809 1.16094C4.97809 1.16094 5.14809 1.18094 5.31809 1.21094C5.80809 1.31094 6.19809 1.35094 6.56809 1.35094C7.13809 1.35094 7.59808 1.24094 8.30808 1.08094L8.55808 1.02094C8.72808 0.980935 8.88809 0.960938 9.04809 0.960938C10.0281 0.960938 11.0481 1.70093 11.0881 3.34093C11.1381 5.09093 11.1081 6.72094 10.2781 7.40094C10.0781 7.57094 9.73808 7.65094 9.25808 7.65094C8.77808 7.65094 8.21808 7.57094 7.67808 7.49094C7.21808 7.42094 6.78809 7.36094 6.45809 7.36094C6.32809 7.36094 6.21809 7.36094 6.12809 7.39094C5.87809 7.45094 5.58808 7.65094 5.25808 7.89094C4.72808 8.27094 4.05808 8.74094 3.32808 8.74094H3.33808Z" fill="white"/>
<path d="M9.03689 1.04063C9.98689 1.04063 10.9569 1.75062 10.9969 3.35062C11.0469 5.08062 11.0169 6.69062 10.2169 7.35062C10.0269 7.51062 9.70689 7.58063 9.24689 7.58063C8.78689 7.58063 8.21689 7.50062 7.67689 7.42062C7.21689 7.35062 6.77689 7.29063 6.44689 7.29063C6.30689 7.29063 6.19689 7.30063 6.10689 7.32063C5.84689 7.38063 5.5569 7.59063 5.2169 7.83063C4.6969 8.20063 4.0369 8.67062 3.3269 8.67062C2.9469 8.67062 2.5769 8.54062 2.2169 8.28062C1.1669 7.53062 0.306897 5.66063 0.686897 3.55063C0.936897 2.15063 1.45689 2.04063 1.91689 2.04063C1.98689 2.04063 2.04689 2.04063 2.10689 2.04063C2.16689 2.04063 2.22689 2.04063 2.28689 2.04063C2.36689 2.04063 2.43689 2.04062 2.49689 2.02062C2.68689 1.99062 2.89689 1.87063 3.13689 1.75063C3.57689 1.52063 4.12689 1.23063 4.80689 1.23063C4.96689 1.23063 5.12689 1.25062 5.28689 1.28062C5.77689 1.38062 6.1769 1.43063 6.5469 1.43063C7.1269 1.43063 7.61689 1.32063 8.30689 1.16063L8.55689 1.10062C8.71689 1.06062 8.87689 1.05063 9.03689 1.05063M9.03689 0.890625C8.86689 0.890625 8.69689 0.910623 8.52689 0.950623C7.69689 1.14062 7.17689 1.27062 6.55689 1.27062C6.20689 1.27062 5.8169 1.23062 5.3269 1.13062C5.1469 1.09062 4.9769 1.08063 4.8169 1.08063C3.7169 1.08063 2.9569 1.79062 2.4869 1.88062C2.4269 1.89062 2.3669 1.89062 2.2969 1.89062C2.1869 1.89062 2.05689 1.89062 1.92689 1.89062C1.40689 1.89062 0.806897 2.04062 0.546897 3.53062C0.176897 5.61062 0.996894 7.58063 2.13689 8.41063C2.55689 8.71063 2.95689 8.83063 3.33689 8.83063C4.54689 8.83063 5.5169 7.63063 6.1569 7.48063C6.2469 7.46063 6.3469 7.45062 6.4669 7.45062C7.1569 7.45062 8.3369 7.75063 9.2669 7.75063C9.7069 7.75063 10.0869 7.68063 10.3269 7.48063C11.1569 6.79063 11.2069 5.23063 11.1569 3.36063C11.1169 1.74063 10.1469 0.900627 9.0469 0.900627L9.03689 0.890625Z" fill="#5E5E5A"/>
<mask id="mask0_240_1232" style="mask-type:luminance" maskUnits="userSpaceOnUse" x="0" y="0" width="12" height="9">
<path d="M2.13758 8.39034C0.987583 7.57034 0.177587 5.60035 0.547587 3.51035C0.917587 1.43035 1.94759 1.97035 2.48759 1.87035C3.02759 1.77035 3.95759 0.850347 5.32759 1.12035C6.70759 1.40035 7.22758 1.23035 8.52758 0.940346C9.82758 0.640346 11.1076 1.48034 11.1476 3.34034C11.1976 5.20034 11.1476 6.77034 10.3176 7.46034C9.48759 8.15034 6.97758 7.26034 6.14758 7.46034C5.31758 7.66034 3.89759 9.66034 2.12759 8.39034H2.13758Z" fill="white"/>
</mask>
<g mask="url(#mask0_240_1232)">
<path opacity="0.75" d="M-1.45093 6.42045C-1.45093 6.42045 1.75906 7.97045 1.75906 5.29045C1.75906 2.92045 -1.43092 4.19045 -1.43092 4.19045L-1.46094 6.42045H-1.45093Z" fill="#E62C2F" stroke="#E62C2F" stroke-width="0.2" stroke-linecap="round" stroke-linejoin="round"/>
</g>
<path d="M2.62985 21.1209C2.24985 21.1209 1.76985 20.5809 1.51985 19.8709C1.44985 19.6809 1.37984 19.4909 1.30984 19.3109C0.919845 18.2909 0.549844 17.3309 0.449844 14.6809C0.369844 12.6809 0.599854 12.1809 0.819854 11.7009C0.939854 11.4309 1.05984 11.1709 1.11984 10.6609C1.16984 10.2009 1.30985 9.74094 1.43985 9.31094C1.68985 8.48094 1.92985 7.70094 1.54985 6.96094H10.6599C10.5499 7.30094 10.4399 7.61094 10.3199 7.92094C10.1399 8.40094 9.95984 8.89094 9.80984 9.51094L9.76985 9.66094C9.52985 10.6609 9.27985 11.6909 9.49985 14.1109C9.70985 16.4509 8.51984 17.7309 6.86984 19.4909L6.51985 19.8609C5.65985 20.7809 5.21985 20.9809 4.99985 20.9809C4.90985 20.9809 4.83984 20.9509 4.78984 20.8909C4.63984 20.7109 4.62985 20.2909 4.73985 19.7209C4.84985 19.1609 5.12984 18.4109 5.42984 17.6109C5.78984 16.6309 6.16984 15.6109 6.25984 14.8809C6.37984 13.9509 6.07984 13.4109 5.75984 12.8309C5.61984 12.5809 5.47985 12.3109 5.35985 12.0109C5.21985 11.6209 5.01985 11.4309 4.77985 11.4309C4.39985 11.4309 3.94985 11.9309 3.45985 12.9309C3.01985 13.8009 3.12984 15.5109 3.22984 17.1609C3.29984 18.3109 3.36985 19.4009 3.24985 20.1409C3.14985 20.7809 2.91984 21.1309 2.61984 21.1309L2.62985 21.1209Z" fill="#F4DE9C"/>
<path d="M10.5606 7.03086C10.4606 7.34086 10.3606 7.62086 10.2506 7.90086C10.0706 8.38086 9.89057 8.88086 9.74057 9.50086L9.70057 9.65086C9.46057 10.6509 9.20056 11.6909 9.43056 14.1209C9.64056 16.4309 8.46058 17.6909 6.82058 19.4509L6.47057 19.8209C5.58057 20.7709 5.17057 20.9209 5.00057 20.9209C4.93057 20.9209 4.89057 20.9009 4.85057 20.8509C4.72057 20.6909 4.71058 20.2809 4.82058 19.7409C4.93058 19.1909 5.21057 18.4309 5.50057 17.6409C5.86057 16.6509 6.24057 15.6309 6.33057 14.9009C6.45057 13.9509 6.15058 13.3909 5.82058 12.8009C5.68058 12.5509 5.54056 12.2909 5.43056 11.9909C5.27056 11.5709 5.06057 11.3609 4.78057 11.3609C4.36057 11.3609 3.91057 11.8609 3.39057 12.9009C2.94057 13.7909 3.05056 15.5009 3.15056 17.1609C3.22056 18.3109 3.29057 19.4009 3.17057 20.1209C3.07057 20.7209 2.88056 21.0509 2.62056 21.0509C2.28056 21.0509 1.82057 20.5209 1.58057 19.8509C1.51057 19.6609 1.44056 19.4709 1.37056 19.2909C0.980564 18.2809 0.610563 17.3309 0.510563 14.6909C0.440563 12.7009 0.660564 12.2109 0.870564 11.7409C0.990564 11.4709 1.12056 11.2009 1.18056 10.6809C1.23056 10.2209 1.37057 9.77086 1.50057 9.34086C1.75057 8.54086 1.98057 7.77086 1.66057 7.04086H10.5506M10.7606 6.88086H1.42057C2.10057 8.00086 1.20056 9.26086 1.04056 10.6509C0.880562 12.0409 0.250564 11.5409 0.370564 14.6909C0.490564 17.8309 1.00057 18.6409 1.45057 19.8909C1.71057 20.6209 2.21057 21.1909 2.63057 21.1909C2.94057 21.1909 3.21057 20.8909 3.33057 20.1409C3.62057 18.3409 2.80057 14.4109 3.53057 12.9609C3.99057 12.0309 4.43056 11.5009 4.79056 11.5009C4.99056 11.5009 5.16057 11.6709 5.30057 12.0309C5.67057 13.0309 6.36057 13.5609 6.19057 14.8709C6.02057 16.1809 4.93057 18.4509 4.67057 19.7109C4.52057 20.4409 4.57057 21.0609 5.00057 21.0609C5.31057 21.0609 5.81057 20.7409 6.58057 19.9209C8.42057 17.9409 9.81057 16.6409 9.58057 14.1109C9.35057 11.5809 9.63057 10.5809 9.89057 9.53086C10.1406 8.48086 10.4906 7.81086 10.7706 6.88086H10.7606Z" fill="#5E5E5A"/>
<path d="M3.32027 8.7507C2.92027 8.7507 2.54026 8.6207 2.17026 8.3507C1.10026 7.5807 0.230265 5.69071 0.610265 3.5507C0.860265 2.1707 1.38026 1.9707 1.92026 1.9707H2.29026C2.36026 1.9707 2.43027 1.9707 2.49027 1.9707C2.66027 1.9407 2.87027 1.8307 3.11027 1.7007C3.56027 1.4607 4.11026 1.1707 4.81026 1.1707C4.97026 1.1707 5.14026 1.1907 5.31026 1.2207C5.80026 1.3207 6.19026 1.3607 6.56026 1.3607C7.13026 1.3607 7.59027 1.2507 8.30027 1.0907L8.55027 1.0307C8.72027 0.990701 8.88026 0.970703 9.04026 0.970703C10.0203 0.970703 11.0403 1.7107 11.0803 3.3507C11.1303 5.1007 11.1003 6.73071 10.2703 7.41071C10.0703 7.58071 9.73026 7.66071 9.26026 7.66071C8.77026 7.66071 8.22026 7.5807 7.68026 7.5007C7.22026 7.4307 6.79027 7.3707 6.46027 7.3707C6.33027 7.3707 6.22027 7.3807 6.13027 7.4007C5.88027 7.4607 5.59026 7.6607 5.26026 7.9007C4.73026 8.2807 4.06027 8.7507 3.33027 8.7507H3.32027Z" fill="white"/>
<path d="M9.02909 1.05039C9.97909 1.05039 10.9491 1.76039 10.9891 3.36039C11.0391 5.09039 11.0091 6.70039 10.2091 7.36039C10.0191 7.52039 9.6991 7.59039 9.2391 7.59039C8.7791 7.59039 8.20909 7.51039 7.66909 7.43039C7.20909 7.36039 6.76909 7.30039 6.43909 7.30039C6.29909 7.30039 6.1891 7.31039 6.0991 7.33039C5.8391 7.39039 5.5491 7.60039 5.2091 7.84039C4.6891 8.21039 4.0291 8.68039 3.3191 8.68039C2.9391 8.68039 2.5691 8.55039 2.2091 8.29039C1.1591 7.54039 0.299083 5.67039 0.679083 3.56039C0.929083 2.16039 1.44909 2.05039 1.90909 2.05039C1.97909 2.05039 2.0391 2.05039 2.0991 2.05039C2.1591 2.05039 2.21909 2.05039 2.27909 2.05039C2.35909 2.05039 2.4291 2.05039 2.4891 2.03039C2.6791 2.00039 2.8891 1.88039 3.1291 1.76039C3.5691 1.53039 4.11909 1.24039 4.79909 1.24039C4.95909 1.24039 5.11909 1.26039 5.27909 1.29039C5.76909 1.39039 6.16908 1.44039 6.53908 1.44039C7.11908 1.44039 7.60908 1.33039 8.28908 1.17039L8.53908 1.11039C8.69908 1.07039 8.85909 1.06039 9.01909 1.06039M9.02909 0.900391C8.85909 0.900391 8.68909 0.920388 8.51909 0.960388C7.68909 1.15039 7.16909 1.28039 6.54909 1.28039C6.19909 1.28039 5.8091 1.24039 5.3191 1.14039C5.1391 1.10039 4.96909 1.09039 4.80909 1.09039C3.70909 1.09039 2.94909 1.80039 2.47909 1.89039C2.41909 1.90039 2.35908 1.90039 2.28908 1.90039C2.17908 1.90039 2.04909 1.90039 1.91909 1.90039C1.39909 1.90039 0.799083 2.05039 0.539083 3.54039C0.169083 5.62039 0.989095 7.59039 2.1291 8.42039C2.5491 8.72039 2.94909 8.84039 3.32909 8.84039C4.53909 8.84039 5.50908 7.64039 6.14908 7.49039C6.23908 7.47039 6.3391 7.46039 6.4591 7.46039C7.1491 7.46039 8.32908 7.75039 9.25908 7.75039C9.69908 7.75039 10.0791 7.68039 10.3191 7.48039C11.1491 6.79039 11.1991 5.23039 11.1491 3.36039C11.1091 1.74039 10.1391 0.900391 9.03908 0.900391H9.02909Z" fill="#5E5E5A"/>
<path opacity="0.4" d="M5.79985 5.84969C6.46812 5.84969 7.00984 5.30795 7.00984 4.63969C7.00984 3.97142 6.46812 3.42969 5.79985 3.42969C5.13159 3.42969 4.58984 3.97142 4.58984 4.63969C4.58984 5.30795 5.13159 5.84969 5.79985 5.84969Z" fill="#E62C2F" stroke="#E62C2F" stroke-width="0.2" stroke-linecap="round" stroke-linejoin="round"/>
<path opacity="0.4" d="M5.79985 5.84969C6.46812 5.84969 7.00984 5.30795 7.00984 4.63969C7.00984 3.97142 6.46812 3.42969 5.79985 3.42969C5.13159 3.42969 4.58984 3.97142 4.58984 4.63969C4.58984 5.30795 5.13159 5.84969 5.79985 5.84969Z" stroke="#E62C2F" stroke-width="0.2" stroke-linecap="round" stroke-linejoin="round"/>
</svg>
