<svg width="7" height="19" viewBox="0 0 7 19" fill="none" xmlns="http://www.w3.org/2000/svg">
<path d="M5.05812 12.9104C4.17812 9.44036 3.99812 6.26036 4.00812 2.32036C4.00812 1.79036 3.84813 1.26036 3.51813 0.840356C3.08813 0.300356 2.74813 0.390357 2.48813 0.940357C2.31813 1.30036 2.31812 1.70036 2.28812 2.10036C1.86812 7.09036 1.69812 9.11036 1.57812 12.9104H5.06813H5.05812Z" fill="#F4DE9C" stroke="#5E5E5A" stroke-width="0.15" stroke-linecap="round" stroke-linejoin="round"/>
<path d="M5.05915 12.7704C6.04915 14.1604 6.25915 15.6304 5.86915 17.1604C5.73915 17.6904 5.29915 18.1004 4.75915 18.2104C3.85915 18.3904 2.63915 18.3004 1.44915 18.2304C0.40915 18.2304 0.419146 17.5104 0.539146 16.8004C0.639146 15.6604 0.85916 14.5504 1.20916 13.4704C1.29916 13.1804 1.44915 12.9204 1.64915 12.6904C1.81915 12.4904 2.03915 12.3304 2.27915 12.2104C3.19915 11.7804 4.11916 11.9704 5.04916 12.7704H5.05915Z" fill="white" stroke="#5E5E5A" stroke-width="0.15" stroke-linecap="round" stroke-linejoin="round"/>
<path opacity="0.4" d="M3.28078 16.25C3.68394 16.25 4.01077 15.9232 4.01077 15.52C4.01077 15.1169 3.68394 14.79 3.28078 14.79C2.87761 14.79 2.55078 15.1169 2.55078 15.52C2.55078 15.9232 2.87761 16.25 3.28078 16.25Z" fill="#E62C2F" stroke="#E62C2F" stroke-width="0.15" stroke-linecap="round" stroke-linejoin="round"/>
<path opacity="0.4" d="M3.28078 16.25C3.68394 16.25 4.01077 15.9232 4.01077 15.52C4.01077 15.1169 3.68394 14.79 3.28078 14.79C2.87761 14.79 2.55078 15.1169 2.55078 15.52C2.55078 15.9232 2.87761 16.25 3.28078 16.25Z" stroke="#E62C2F" stroke-width="0.15" stroke-linecap="round" stroke-linejoin="round"/>
</svg>
