<svg width="7" height="22" viewBox="0 0 7 22" fill="none" xmlns="http://www.w3.org/2000/svg">
<path d="M5.63329 14.5597C4.83329 11.1897 4.46328 7.23971 4.27328 1.88971C4.25328 1.32971 3.96328 0.799713 3.45328 0.559713C3.07328 0.379713 2.76328 0.439713 2.52328 0.749713C2.35328 0.969713 2.28327 1.25971 2.29327 1.54971C2.53327 6.35971 2.23328 10.4397 1.36328 14.5697H5.63329V14.5597Z" fill="#F4DE9C" stroke="#5E5E5A" stroke-width="0.15" stroke-linecap="round" stroke-linejoin="round"/>
<path d="M5.63186 14.5496C5.41186 14.2196 5.14185 13.9296 4.81185 13.6996C3.72185 12.9196 2.60186 13.0296 1.46186 14.2096C0.691861 15.4496 0.311851 16.6996 0.591851 17.9296C0.951851 19.1396 1.63185 20.0996 2.54185 20.8896C2.86185 21.1696 3.27186 21.3096 3.69186 21.3096H3.96186C4.14186 21.3096 4.33185 21.2896 4.50185 21.2296C6.32185 20.6096 6.84185 18.7696 6.17185 15.8396C6.07185 15.3796 5.88185 14.9396 5.62185 14.5496H5.63186Z" fill="white" stroke="#5E5E5A" stroke-width="0.15" stroke-linecap="round" stroke-linejoin="round"/>
<path opacity="0.4" d="M3.49953 17.9903C3.90269 17.9903 4.22952 17.6634 4.22952 17.2603C4.22952 16.8571 3.90269 16.5303 3.49953 16.5303C3.09636 16.5303 2.76953 16.8571 2.76953 17.2603C2.76953 17.6634 3.09636 17.9903 3.49953 17.9903Z" fill="#E62C2F" stroke="#E62C2F" stroke-width="0.15" stroke-linecap="round" stroke-linejoin="round"/>
<path opacity="0.4" d="M3.49953 17.9903C3.90269 17.9903 4.22952 17.6634 4.22952 17.2603C4.22952 16.8571 3.90269 16.5303 3.49953 16.5303C3.09636 16.5303 2.76953 16.8571 2.76953 17.2603C2.76953 17.6634 3.09636 17.9903 3.49953 17.9903Z" stroke="#E62C2F" stroke-width="0.15" stroke-linecap="round" stroke-linejoin="round"/>
</svg>
