<svg width="11" height="20" viewBox="0 0 11 20" fill="none" xmlns="http://www.w3.org/2000/svg">
<path d="M7.71016 8.61018C7.14016 6.72018 7.04015 4.31017 7.18015 1.65017C7.19015 1.37017 7.14015 1.08018 6.97015 0.850176C6.76015 0.540176 6.53016 0.540176 6.30016 0.870176C6.15016 1.09018 6.07016 1.36017 6.05016 1.63017C5.83016 4.12017 5.21016 6.59018 4.16016 9.03018L4.18015 10.9902L7.73015 10.9602L7.71016 8.62018V8.61018Z" fill="#F4DE9C" stroke="#5E5E5A" stroke-width="0.15" stroke-linecap="round" stroke-linejoin="round"/>
<path d="M8.51112 13.9699C10.1111 10.5499 10.5711 6.63994 10.7511 2.20995C10.7511 2.02995 10.7511 1.84995 10.7111 1.67995C10.5611 0.919946 9.85112 0.739946 9.51112 1.56995C9.47112 1.66995 9.44112 1.78995 9.42112 1.89995C9.07112 4.43995 8.54111 6.75995 7.68111 8.62995C7.62111 8.75995 7.58113 8.89995 7.49113 9.01995C7.07113 9.58995 6.42112 9.76995 5.76112 9.75995C5.13112 9.74995 4.55112 9.45995 4.12112 9.01995C3.89112 8.77995 3.70113 8.49995 3.57113 8.17995C2.86113 6.47995 2.72112 4.50995 2.41112 2.43995C2.33112 1.91995 2.20113 1.38995 1.85113 0.999946C1.20113 0.279946 0.671122 0.639946 0.611122 1.91995C0.391122 6.61995 1.64113 11.1599 3.24113 13.9899H8.50112L8.51112 13.9699Z" fill="#F4DE9C" stroke="#5E5E5A" stroke-width="0.15" stroke-linecap="round" stroke-linejoin="round"/>
<path d="M3.23967 13.4898C3.02967 13.7098 2.81966 13.9698 2.61966 14.2498C1.95966 15.1098 1.54967 16.2098 1.57967 17.7198C1.62967 18.5898 1.97966 18.9998 2.55966 19.0898C2.95966 19.1498 3.37966 19.0298 3.69966 18.7798C4.02966 18.5198 4.37967 18.6098 4.73967 18.8698C5.09967 19.1298 5.50966 19.2998 5.94966 19.2998C6.76966 19.2998 7.55967 19.1998 8.34967 19.0098C8.97967 18.9398 9.36966 18.5098 9.38966 17.5798C9.56966 16.5498 9.41966 15.5298 8.92966 14.5098C8.83966 14.3298 8.71967 14.1598 8.57967 14.0098C8.55967 13.9898 8.54966 13.9698 8.52966 13.9598C6.70966 11.9998 4.93966 11.6798 3.25966 13.4798L3.23967 13.4898Z" fill="white" stroke="#5E5E5A" stroke-width="0.15" stroke-linecap="round" stroke-linejoin="round"/>
<path opacity="0.4" d="M5.5103 16.9298C6.02945 16.9298 6.4503 16.509 6.4503 15.9898C6.4503 15.4707 6.02945 15.0498 5.5103 15.0498C4.99115 15.0498 4.57031 15.4707 4.57031 15.9898C4.57031 16.509 4.99115 16.9298 5.5103 16.9298Z" fill="#E62C2F" stroke="#E62C2F" stroke-width="0.15" stroke-linecap="round" stroke-linejoin="round"/>
<path opacity="0.4" d="M5.5103 16.9298C6.02945 16.9298 6.4503 16.509 6.4503 15.9898C6.4503 15.4707 6.02945 15.0498 5.5103 15.0498C4.99115 15.0498 4.57031 15.4707 4.57031 15.9898C4.57031 16.509 4.99115 16.9298 5.5103 16.9298Z" stroke="#E62C2F" stroke-width="0.15" stroke-linecap="round" stroke-linejoin="round"/>
</svg>
