<svg width="14" height="20" viewBox="0 0 14 20" fill="none" xmlns="http://www.w3.org/2000/svg">
<path d="M8.28827 8.25989C7.64827 6.71989 7.57828 4.27989 7.70828 1.52989C7.72828 1.16989 7.63828 0.789887 7.40828 0.509887C7.07828 0.0998874 6.72828 0.209887 6.35828 0.669887C6.22828 0.829887 6.16828 1.02989 6.15828 1.22989C6.05828 3.46989 5.27828 5.99989 4.23828 8.64989V10.6199H8.28827V8.25989Z" fill="#F4DE9C" stroke="#5E5E5A" stroke-width="0.15" stroke-linecap="round" stroke-linejoin="round"/>
<path d="M8.87701 13.4703C10.737 10.3203 12.217 6.34034 13.347 2.23034C13.467 1.77034 13.387 1.26034 13.067 0.910339C12.747 0.550339 12.407 0.600339 12.047 1.21034C11.157 3.99034 9.957 6.41034 8.277 8.25034C6.827 9.52034 5.42701 9.69034 4.09701 8.73034C4.05701 8.70034 4.02701 8.67034 3.98701 8.64034C2.73701 6.98034 2.58701 4.49034 2.79701 1.72034C2.82701 1.29034 2.73701 0.85034 2.46701 0.51034C2.17701 0.14034 1.87701 0.160339 1.56701 0.570339C1.39701 0.810339 1.28701 1.09034 1.23701 1.38034C0.407011 5.91034 0.487005 10.0103 1.887 13.4503H8.87701V13.4703Z" fill="#F4DE9C" stroke="#5E5E5A" stroke-width="0.15" stroke-linecap="round" stroke-linejoin="round"/>
<path d="M7.70969 19.2401C7.49969 19.2401 7.27968 19.1601 7.10968 19.0401C6.65968 18.7301 6.32968 18.5901 6.05968 18.5901C5.84968 18.5901 5.67968 18.6801 5.55968 18.8701C5.41968 19.0801 5.20968 19.2101 4.97968 19.2101C3.12968 19.1901 1.94968 18.9001 1.13968 18.2701C-0.24032 17.0401 0.519684 15.4901 1.54968 14.0001C1.67968 13.8401 1.79967 13.6801 1.92967 13.5401C2.91967 12.4301 4.03969 11.8701 5.23969 11.8701C6.35969 11.8701 7.58969 12.3501 8.90969 13.3101C9.54969 13.7801 10.0097 14.4701 10.1997 15.2501C10.2997 15.6601 10.3597 16.0601 10.3797 16.4401C10.4497 17.5001 9.93968 18.4901 9.05968 18.9601C8.68968 19.1601 8.26968 19.2601 7.82968 19.2601H7.67967L7.70969 19.2401Z" fill="white"/>
<path d="M5.25884 11.9205C6.35884 11.9205 7.57885 12.4005 8.87885 13.3505C8.87885 13.3505 8.87884 13.3505 8.88884 13.3505C9.50884 13.8105 9.95884 14.4805 10.1388 15.2405C10.2388 15.6405 10.2988 16.0405 10.3188 16.4205C10.3888 17.4505 9.88884 18.4105 9.03884 18.8605C8.66884 19.0605 8.28885 19.1505 7.84885 19.1505C7.79885 19.1505 7.74884 19.1505 7.69884 19.1505C7.49884 19.1505 7.29884 19.0705 7.13884 18.9605C6.67884 18.6405 6.32884 18.4905 6.04884 18.4905C5.81884 18.4905 5.61885 18.6005 5.48885 18.8005C5.36885 18.9905 5.17884 19.1005 4.96884 19.1005C3.13884 19.0705 1.96884 18.7905 1.18884 18.1905C0.108844 17.2305 0.228848 16.0205 1.59885 14.0205C1.72885 13.8605 1.84884 13.7005 1.97884 13.5605C2.95884 12.4705 4.04885 11.9105 5.23885 11.9105M5.25884 11.7705C4.03884 11.7705 2.91884 12.3205 1.88884 13.4705C1.75884 13.6205 1.62884 13.7705 1.49884 13.9405C0.388842 15.5605 -0.271152 17.1005 1.09885 18.3205C2.04885 19.0505 3.43884 19.2505 4.97884 19.2705C5.23884 19.2705 5.47884 19.1205 5.61884 18.9005C5.72884 18.7305 5.87884 18.6605 6.04884 18.6605C6.32884 18.6605 6.66884 18.8405 7.04884 19.1005C7.23884 19.2305 7.45884 19.3105 7.68884 19.3205C7.73884 19.3205 7.78885 19.3205 7.84885 19.3205C8.31885 19.3205 8.73884 19.2105 9.10884 19.0105C10.0388 18.5105 10.5388 17.4705 10.4688 16.4205C10.4488 16.0105 10.3788 15.6105 10.2788 15.2205C10.0888 14.4205 9.61885 13.7205 8.95885 13.2305C7.64885 12.2805 6.40884 11.7805 5.24884 11.7805L5.25884 11.7705Z" fill="#5E5E5A"/>
<path opacity="0.4" d="M5.3511 16.5704C5.89234 16.5704 6.3311 16.1316 6.3311 15.5904C6.3311 15.0491 5.89234 14.6104 5.3511 14.6104C4.80987 14.6104 4.37109 15.0491 4.37109 15.5904C4.37109 16.1316 4.80987 16.5704 5.3511 16.5704Z" fill="#E62C2F" stroke="#E62C2F" stroke-width="0.15" stroke-linecap="round" stroke-linejoin="round"/>
<path opacity="0.4" d="M5.3511 16.5704C5.89234 16.5704 6.3311 16.1316 6.3311 15.5904C6.3311 15.0491 5.89234 14.6104 5.3511 14.6104C4.80987 14.6104 4.37109 15.0491 4.37109 15.5904C4.37109 16.1316 4.80987 16.5704 5.3511 16.5704Z" stroke="#E62C2F" stroke-width="0.15" stroke-linecap="round" stroke-linejoin="round"/>
</svg>
