<svg width="6" height="19" viewBox="0 0 6 19" fill="none" xmlns="http://www.w3.org/2000/svg">
<path d="M5.12875 7.2002V7.6902C4.57875 11.1402 4.38874 14.4202 4.72874 17.4702C4.84874 18.7702 4.55875 19.1002 3.94875 18.6902C3.49875 18.3902 3.18875 17.9102 3.02875 17.3902C2.17875 14.6602 1.70875 11.1602 1.46875 7.2002H5.12875Z" fill="#F4DE9C" stroke="#5E5E5A" stroke-width="0.15" stroke-linecap="round" stroke-linejoin="round"/>
<path d="M1.46882 7.20985C1.56882 7.42985 1.70883 7.63985 1.87883 7.80985C2.58883 8.51985 3.29882 8.75985 4.02882 8.55985C4.50882 8.42985 4.88883 8.10984 5.12883 7.69984C5.28883 7.42984 5.38883 7.11985 5.40883 6.79985L5.70883 3.20985C5.65883 2.66985 5.52882 2.19985 5.30882 1.79985C5.06882 1.36985 4.60882 1.08985 4.10882 1.05985L1.63882 0.89985C1.00882 0.86985 0.808819 1.02985 0.838819 1.80985C0.838819 2.00985 0.858829 2.20985 0.848829 2.40985C0.808829 3.99985 0.928816 5.40985 1.28882 6.53985C1.30882 6.76985 1.36882 6.99985 1.46882 7.20985Z" fill="white" stroke="#5E5E5A" stroke-width="0.15" stroke-linecap="round" stroke-linejoin="round"/>
<path opacity="0.4" d="M3.28078 5.37016C3.68394 5.37016 4.01077 5.04332 4.01077 4.64015C4.01077 4.23698 3.68394 3.91016 3.28078 3.91016C2.87761 3.91016 2.55078 4.23698 2.55078 4.64015C2.55078 5.04332 2.87761 5.37016 3.28078 5.37016Z" fill="#E62C2F" stroke="#E62C2F" stroke-width="0.15" stroke-linecap="round" stroke-linejoin="round"/>
<path opacity="0.4" d="M3.28078 5.37016C3.68394 5.37016 4.01077 5.04332 4.01077 4.64015C4.01077 4.23698 3.68394 3.91016 3.28078 3.91016C2.87761 3.91016 2.55078 4.23698 2.55078 4.64015C2.55078 5.04332 2.87761 5.37016 3.28078 5.37016Z" stroke="#E62C2F" stroke-width="0.15" stroke-linecap="round" stroke-linejoin="round"/>
</svg>
