<svg width="12" height="19" viewBox="0 0 12 19" fill="none" xmlns="http://www.w3.org/2000/svg">
<path d="M9.48867 7.65981C10.4887 10.8298 11.2487 13.8298 11.1787 16.2898C11.1687 16.7898 11.0587 17.2898 10.8387 17.7398C10.5387 18.3298 10.2187 18.4198 9.86866 17.9398C9.70866 17.7098 9.59867 17.4398 9.54867 17.1598L8.70868 13.2198C8.50868 12.3098 7.97866 11.4798 7.17866 10.9998C6.65866 10.6898 6.11868 10.5698 5.56868 10.6598C4.91868 10.7698 4.35867 11.1698 3.98867 11.7098C3.20867 12.8098 1.52867 16.0098 1.52867 16.0098C0.748667 17.1298 0.288671 17.0698 0.188671 15.7198C0.138671 14.0398 1.69867 10.3598 3.16867 7.5498L9.51867 7.65981H9.48867Z" fill="#F4DE9C" stroke="#5E5E5A" stroke-width="0.15" stroke-linecap="round" stroke-linejoin="round"/>
<path d="M9.48878 7.66024C9.79878 7.35024 10.0588 6.99023 10.2288 6.58023C10.6588 5.54023 10.7788 4.38023 10.6688 3.12023C10.6188 2.57023 10.4188 2.03023 10.0388 1.63023C9.32877 0.880229 8.38878 0.87023 7.26878 1.42023C6.70878 1.89023 5.99878 1.69023 5.21878 1.13023C4.00878 0.660229 2.98878 0.76023 2.15878 1.42023C1.33878 2.43023 1.29877 3.85023 2.00877 5.68023C2.27877 6.37023 2.64878 7.01023 3.13878 7.54023C3.39878 7.83023 3.69878 8.09023 4.02878 8.31023C5.61878 9.39023 7.29877 9.28023 9.05877 8.02023C9.21877 7.91023 9.35878 7.79023 9.49878 7.65023L9.48878 7.66024Z" fill="white" stroke="#5E5E5A" stroke-width="0.15" stroke-linecap="round" stroke-linejoin="round"/>
<path opacity="0.4" d="M6.11172 6.04961C6.71924 6.04961 7.21173 5.55712 7.21173 4.94961C7.21173 4.34209 6.71924 3.84961 6.11172 3.84961C5.50421 3.84961 5.01172 4.34209 5.01172 4.94961C5.01172 5.55712 5.50421 6.04961 6.11172 6.04961Z" fill="#E62C2F" stroke="#E62C2F" stroke-width="0.15" stroke-linecap="round" stroke-linejoin="round"/>
<path opacity="0.4" d="M6.11172 6.04961C6.71924 6.04961 7.21173 5.55712 7.21173 4.94961C7.21173 4.34209 6.71924 3.84961 6.11172 3.84961C5.50421 3.84961 5.01172 4.34209 5.01172 4.94961C5.01172 5.55712 5.50421 6.04961 6.11172 6.04961Z" stroke="#E62C2F" stroke-width="0.15" stroke-linecap="round" stroke-linejoin="round"/>
</svg>
