<svg width="10" height="28" viewBox="0 0 10 28" fill="none" xmlns="http://www.w3.org/2000/svg">
<path d="M1.49328 26.9472C1.72328 26.9972 2.75328 27.5872 4.21328 27.4372C5.12328 27.3472 6.26329 27.7172 7.38329 27.3072C7.95329 27.0972 8.60327 27.0572 9.23327 26.8472C9.92327 26.6172 9.97328 23.8872 9.74328 21.3372C9.51328 18.7872 9.00327 19.4372 8.17327 18.0072C4.54327 11.7472 4.11329 17.3672 2.31329 17.4972C1.16329 17.5772 -0.756712 26.4272 1.50329 26.9372L1.49328 26.9472Z" fill="#76FF5A"/>
<path d="M1.96241 26.1472C2.18241 26.2472 2.69241 26.7572 4.15241 26.6072C5.06241 26.5172 5.63242 26.9172 6.75242 26.5072C7.32242 26.2972 7.9524 26.4572 8.5824 26.2472C9.2724 26.0172 9.48241 23.8172 9.25241 21.2672C9.02241 18.7172 8.98241 19.4472 8.15241 18.0072C4.52241 11.7472 4.09239 17.3672 2.29239 17.4972C1.14239 17.5772 0.232406 25.3672 1.96241 26.1372V26.1472Z" fill="white"/>
</svg>
