<svg width="8" height="27" viewBox="0 0 8 27" fill="none" xmlns="http://www.w3.org/2000/svg">
<path d="M0.966119 25.5173C-0.0538813 24.9273 0.126104 21.8673 0.0761041 20.1073C-0.0238959 16.6773 3.87612 12.9273 6.55612 16.8373C7.41612 18.0873 7.8161 18.4573 7.8261 21.6473C7.8261 24.8373 7.04611 27.4373 5.08611 26.2073C3.12611 24.9773 3.16612 26.7873 0.966119 25.5173Z" fill="#76FF5A"/>
<path d="M1.41613 24.8773C0.396131 24.2873 0.126104 21.8673 0.0761041 20.1073C-0.0238959 16.6773 3.87612 12.9273 6.55612 16.8373C7.41612 18.0873 7.43612 18.4373 7.34612 21.6273C7.25612 24.8173 6.72611 26.5373 4.76611 25.3173C2.80611 24.0873 3.60612 26.1473 1.40612 24.8873L1.41613 24.8773Z" fill="white"/>
</svg>
