<svg width="10" height="32" viewBox="0 0 10 32" fill="none" xmlns="http://www.w3.org/2000/svg">
<path d="M0.7539 28.0272C0.2639 25.9672 1.4539 23.2272 1.6939 21.9772C1.9439 20.7272 3.8439 19.0772 5.1639 19.1772C6.4839 19.2772 8.20388 20.3272 8.42388 21.1772C9.57388 25.5572 10.8139 27.8372 8.74389 30.2472C7.42389 31.7872 5.36388 31.9272 3.89388 30.6772C2.42388 29.4272 1.2939 30.2972 0.7539 28.0272Z" fill="#76FF5A"/>
<path d="M1.37241 27.7374C0.922407 25.6674 1.44241 23.2174 1.69241 21.9674C1.94241 20.7174 3.84242 19.0674 5.16242 19.1674C6.48242 19.2674 8.20239 20.3174 8.42239 21.1674C9.57239 25.5474 9.77242 27.0374 8.35242 29.5574C7.35242 31.3274 5.2624 30.8674 3.8624 29.9074C2.2724 28.8174 1.72241 29.3374 1.37241 27.7374Z" fill="white"/>
</svg>
