<svg width="11" height="28" viewBox="0 0 11 28" fill="none" xmlns="http://www.w3.org/2000/svg">
<path d="M0.09375 23.3872C0.09375 21.4272 0.683751 18.3772 1.81375 17.0572C2.56375 16.1872 4.16374 15.3872 5.39374 15.5572C6.62374 15.7272 7.06374 17.1472 7.99374 17.1072C8.92374 17.0672 9.76374 16.8572 9.95374 18.6272C10.1537 20.3972 10.5537 20.5372 10.7137 21.6672C10.8837 22.7972 11.2738 23.7572 9.16376 24.5972C7.05376 25.4372 6.53376 27.9872 4.66376 27.4272C2.79376 26.8672 3.03375 25.7872 1.71375 25.2972C0.393745 24.8072 0.09375 24.1172 0.09375 23.3872Z" fill="#76FF5A"/>
<path d="M0.683594 23.0272C0.683594 21.0672 0.683599 18.3772 1.8136 17.0572C2.5636 16.1872 4.16359 15.3872 5.39359 15.5572C6.62359 15.7272 7.06359 17.1472 7.99359 17.1072C8.92359 17.0672 9.76358 16.8572 9.95358 18.6272C10.1536 20.3972 10.0036 20.5672 10.1636 21.6972C10.3336 22.8272 10.3536 23.3772 8.24359 24.2272C6.13359 25.0672 6.5836 26.7572 4.6936 26.4472C2.8036 26.1372 3.3236 25.1172 2.0036 24.6272C0.683601 24.1372 0.683594 23.7572 0.683594 23.0172V23.0272Z" fill="white"/>
</svg>
