<svg width="10" height="27" viewBox="0 0 10 27" fill="none" xmlns="http://www.w3.org/2000/svg">
<path d="M1.00424 24.5366C1.49424 25.3666 3.12425 25.2266 3.37425 25.9066C3.62425 26.5966 6.05425 26.8866 6.74425 25.7066C7.43425 24.5266 8.70424 24.0866 9.00424 22.9566C9.29424 21.8266 9.64424 17.4166 9.00424 16.9766C8.36424 16.5366 7.29424 17.0766 6.75424 16.4866C6.21424 15.8966 4.86424 14.2766 3.94425 15.3066C3.02425 16.3366 2.85425 17.0366 2.09425 17.1966C0.124254 17.6066 0.664252 23.9266 1.01425 24.5266L1.00424 24.5366Z" fill="#76FF5A"/>
<path d="M1.36456 23.8474C1.85456 24.6774 3.19456 24.3374 3.44456 25.0274C3.69456 25.7174 6.00456 26.0474 6.69456 24.8674C7.38456 23.6874 8.34456 23.5274 8.63456 22.3974C8.92456 21.2674 9.64456 17.4274 9.00456 16.9874C8.36456 16.5474 7.29456 17.0874 6.75456 16.4974C6.21456 15.9074 4.86456 14.2874 3.94456 15.3174C3.02456 16.3474 2.85457 17.0474 2.09457 17.2074C0.124567 17.6174 1.02457 23.2474 1.37457 23.8474H1.36456Z" fill="white"/>
</svg>
