<svg width="13" height="28" viewBox="0 0 13 28" fill="none" xmlns="http://www.w3.org/2000/svg">
<path d="M8.95201 27.4569C8.45201 27.4569 8.00201 27.2769 7.65201 26.9269C7.42201 26.6969 7.182 26.5969 6.882 26.5969C6.762 26.5969 6.65201 26.6069 6.54201 26.6269C6.43201 26.6369 6.332 26.6569 6.222 26.6569C6.072 26.6569 5.94201 26.6269 5.82201 26.5569C5.64201 26.4569 5.50201 26.3269 5.37201 26.1969C5.18201 26.0169 5.002 25.8469 4.772 25.8469C4.602 25.8469 4.422 25.9469 4.222 26.1469C3.962 26.4069 3.53201 26.5569 3.03201 26.5569C2.30201 26.5569 1.62201 26.2469 1.29201 25.7669C0.672007 24.8669 0.982009 19.5369 1.73201 18.1669C2.21201 17.2869 2.602 17.1669 2.912 17.1669C3.102 17.1669 3.302 17.2169 3.502 17.2769C3.742 17.3369 3.99201 17.4069 4.28201 17.4069C4.52201 17.4069 4.762 17.3569 4.992 17.2469C5.642 16.9569 6.33201 16.7969 6.98201 16.7969C7.86201 16.7969 8.64201 17.0869 9.23201 17.6269C9.56201 17.9269 9.952 18.0769 10.442 18.0769C10.752 18.0769 11.062 18.0169 11.342 17.9669C11.572 17.9269 11.772 17.8869 11.952 17.8869C12.192 17.8869 12.332 17.9669 12.402 18.1469C12.702 18.9269 12.632 21.4169 11.912 24.4769C11.422 26.5469 10.082 27.4669 8.972 27.4669L8.95201 27.4569Z" fill="#76FF5A"/>
<path d="M1.65285 18.1368C0.882853 19.5468 1.04285 24.1968 1.68285 25.1268C2.32285 26.0568 3.43285 26.2068 4.12285 25.5268C4.81285 24.8468 5.18285 25.5868 5.80285 25.9268C6.41285 26.2568 7.08285 25.6468 7.83285 26.1868C9.06285 27.0968 10.6428 27.1068 11.3328 24.2068C12.0228 21.3168 12.8029 18.9968 12.4529 18.1168C12.1029 17.2368 10.4429 18.6568 9.26285 17.5768C8.08285 16.4968 6.37286 16.5468 4.95286 17.1868C3.53286 17.8268 2.79285 16.0768 1.66285 18.1368H1.65285Z" fill="white"/>
</svg>
