<svg width="13" height="25" viewBox="0 0 13 25" fill="none" xmlns="http://www.w3.org/2000/svg">
<path d="M8.6838 24.4364C7.7038 24.4364 6.7138 23.7664 5.9838 23.2864C5.6138 23.0364 5.3138 22.8364 5.1038 22.7764C5.0038 22.7464 4.8938 22.7364 4.7838 22.7364C4.5638 22.7364 4.33379 22.7864 4.08379 22.8464C3.79379 22.9064 3.4738 22.9864 3.1038 22.9864C2.5938 22.9864 2.10379 22.8464 1.58379 22.5464C1.06379 22.2464 0.683795 21.6764 0.493795 20.8964C0.113795 19.3564 0.493794 17.2764 1.41379 15.8364C2.39379 14.2964 3.75379 14.0664 4.47379 14.0664C5.00379 14.0664 5.53379 14.1864 5.89379 14.3964C6.43379 14.7064 6.9738 14.8564 7.5638 14.8564C8.1038 14.8564 8.5938 14.7364 9.0738 14.6064C9.4938 14.4964 9.9038 14.3964 10.2938 14.3964C10.9938 14.3964 11.5438 14.7364 12.0838 15.4864C12.9238 16.6564 12.0538 22.0464 10.0838 23.8664C9.66379 24.2464 9.2138 24.4364 8.6838 24.4364Z" fill="#76FF5A"/>
<path d="M1.35338 15.7868C-0.0566249 17.9968 0.393375 21.0168 2.10338 21.9968C3.82338 22.9768 4.36337 21.9468 5.19337 22.1968C6.02337 22.4468 8.08337 24.5868 9.94337 22.8668C11.9434 21.0168 13.0234 16.6768 12.1434 15.4468C10.2534 12.8168 8.57338 15.8468 5.93338 14.3268C5.07338 13.8268 2.76338 13.5768 1.35338 15.7868Z" fill="white"/>
</svg>
