<svg width="11" height="24" viewBox="0 0 11 24" fill="none" xmlns="http://www.w3.org/2000/svg">
<path d="M8.78559 23.4368C8.36559 23.4368 7.93559 23.2568 7.62559 23.1168C7.46559 23.0468 7.33558 22.9968 7.24558 22.9768C7.24558 22.9768 7.14558 22.9768 7.13558 22.9768C6.93558 22.9768 6.69558 23.0768 6.44558 23.1868C6.16558 23.3068 5.87558 23.4268 5.61558 23.4268C5.42558 23.4268 5.26559 23.3568 5.12559 23.2268C4.74559 22.8468 4.42559 22.7668 3.95559 22.7668C3.79559 22.7668 3.60558 22.7668 3.39558 22.7868C3.09558 22.8068 2.72559 22.8168 2.26559 22.8168C1.91559 22.8168 1.60558 22.6068 1.33558 22.1968C0.45558 20.8468 0.365592 17.8068 0.925592 16.5168C1.17559 15.9468 1.43559 15.8768 1.62559 15.8768C1.74559 15.8768 1.86558 15.9068 1.99558 15.9368C2.11558 15.9668 2.24559 15.9968 2.37559 15.9968C2.59559 15.9968 2.76558 15.9068 2.91558 15.6968C3.93558 14.3068 4.58558 13.7168 5.08558 13.7168C5.37558 13.7168 5.63559 13.9068 5.95559 14.1368C6.46559 14.5068 7.09558 14.9668 8.24558 14.9668C8.55558 14.9668 8.88559 14.9368 9.23559 14.8668C9.28559 14.8568 9.34558 14.8468 9.39558 14.8468C9.61558 14.8468 9.79559 14.9368 9.95559 15.1368C10.7456 16.0868 10.6756 19.2168 10.2156 21.6768C9.99558 22.8568 9.52559 23.4268 8.78559 23.4268V23.4368Z" fill="#76FF5A"/>
<path d="M0.866607 16.4866C0.096607 18.2166 1.35662 21.9066 2.37662 22.1266C4.06662 22.4866 4.36662 21.7966 5.01662 22.4466C5.66662 23.0966 6.79661 22.3466 7.33661 22.4466C7.87661 22.5566 9.34662 23.3566 9.76662 21.3566C10.3766 18.4566 10.9066 14.4766 9.23662 14.7966C5.10662 15.5966 6.11661 11.2366 2.86661 15.6566C2.27661 16.4666 1.51661 15.0266 0.866607 16.4866Z" fill="white"/>
</svg>
