<svg width="10" height="28" viewBox="0 0 10 28" fill="none" xmlns="http://www.w3.org/2000/svg">
<path d="M8.62335 26.9775C8.39335 27.0275 7.36335 27.6175 5.90335 27.4675C4.99335 27.3775 3.85334 27.7475 2.73334 27.3375C2.16334 27.1275 1.51336 27.0875 0.883361 26.8775C0.193361 26.6475 0.143352 23.9175 0.373352 21.3675C0.603352 18.8175 1.11336 19.4675 1.94336 18.0375C5.57336 11.7775 6.00334 17.3975 7.80334 17.5275C8.95334 17.6075 10.8733 26.4575 8.61334 26.9675L8.62335 26.9775Z" fill="#76FF5A"/>
<path d="M8.15291 26.1775C7.93291 26.2775 7.42291 26.7875 5.96291 26.6375C5.05291 26.5475 4.4829 26.9475 3.3629 26.5375C2.7929 26.3275 2.16292 26.4875 1.53292 26.2775C0.842917 26.0475 0.632904 23.8475 0.862904 21.2975C1.0929 18.7475 1.13291 19.4775 1.96291 18.0375C5.59291 11.7775 6.0229 17.3975 7.8229 17.5275C8.9729 17.6075 9.88291 25.3975 8.15291 26.1675V26.1775Z" fill="white"/>
</svg>
