<svg width="9" height="27" viewBox="0 0 9 27" fill="none" xmlns="http://www.w3.org/2000/svg">
<path d="M7.15298 25.5368C8.17298 24.9468 7.99297 21.8868 8.04297 20.1268C8.14297 16.6968 4.24299 12.9468 1.56299 16.8568C0.702988 18.1068 0.302969 18.4768 0.292969 21.6668C0.292969 24.8568 1.07299 27.4568 3.03299 26.2268C4.99299 24.9968 4.95298 26.8068 7.15298 25.5368Z" fill="#76FF5A"/>
<path d="M6.70404 24.8968C7.72404 24.3068 7.99403 21.8868 8.04403 20.1268C8.14403 16.6968 4.24405 12.9468 1.56405 16.8568C0.704051 18.1068 0.684043 18.4568 0.774043 21.6468C0.864043 24.8368 1.39406 26.5568 3.35406 25.3368C5.31406 24.1068 4.51405 26.1668 6.71405 24.9068L6.70404 24.8968Z" fill="white"/>
</svg>
