<svg width="10" height="32" viewBox="0 0 10 32" fill="none" xmlns="http://www.w3.org/2000/svg">
<path d="M9.36495 28.0477C9.85495 25.9877 8.66495 23.2477 8.42495 21.9977C8.17495 20.7477 6.27495 19.0977 4.95495 19.1977C3.63494 19.2977 1.91497 20.3477 1.69497 21.1977C0.544966 25.5777 -0.695041 27.8577 1.37496 30.2677C2.69496 31.8077 4.75496 31.9477 6.22496 30.6977C7.69496 29.4477 8.82495 30.3177 9.36495 28.0477Z" fill="#76FF5A"/>
<path d="M8.74499 27.7677C9.19499 25.6977 8.67498 23.2477 8.42498 21.9977C8.17498 20.7477 6.27498 19.0977 4.95498 19.1977C3.63498 19.2977 1.915 20.3477 1.695 21.1977C0.545002 25.5777 0.344979 27.0677 1.76498 29.5877C2.76498 31.3577 4.855 30.8977 6.255 29.9377C7.845 28.8477 8.39499 29.3677 8.74499 27.7677Z" fill="white"/>
</svg>
