<svg width="12" height="28" viewBox="0 0 12 28" fill="none" xmlns="http://www.w3.org/2000/svg">
<path d="M11.0245 23.4067C11.0245 21.4467 10.4345 18.3967 9.30453 17.0767C8.55453 16.2067 6.95455 15.4067 5.72455 15.5767C4.49455 15.7467 4.05454 17.1667 3.12454 17.1267C2.19454 17.0867 1.35455 16.8767 1.16455 18.6467C0.964549 20.4167 0.564539 20.5567 0.404539 21.6867C0.234539 22.8167 -0.155473 23.7767 1.95453 24.6167C4.06453 25.4567 4.58453 28.0067 6.45453 27.4467C8.32453 26.8867 8.08454 25.8067 9.40454 25.3167C10.7245 24.8267 11.0245 24.1367 11.0245 23.4067Z" fill="#76FF5A"/>
<path d="M10.4361 23.0565C10.4361 21.0965 10.4361 18.4065 9.30614 17.0865C8.55614 16.2165 6.95616 15.4165 5.72616 15.5865C4.49616 15.7565 4.05615 17.1765 3.12615 17.1365C2.19615 17.0965 1.35616 16.8865 1.16616 18.6565C0.966161 20.4265 1.11614 20.5965 0.956139 21.7265C0.786139 22.8565 0.766152 23.4065 2.87615 24.2565C4.98615 25.0965 4.53614 26.7865 6.42614 26.4765C8.31614 26.1665 7.79614 25.1465 9.11614 24.6565C10.4361 24.1665 10.4361 23.7865 10.4361 23.0465V23.0565Z" fill="white"/>
</svg>
