<svg width="10" height="27" viewBox="0 0 10 27" fill="none" xmlns="http://www.w3.org/2000/svg">
<path d="M9.11425 24.5571C8.62425 25.3871 6.99425 25.2471 6.74425 25.9271C6.49425 26.6171 4.06426 26.9071 3.37426 25.7271C2.68426 24.5471 1.41425 24.1071 1.11425 22.9771C0.824246 21.8471 0.474246 17.4371 1.11425 16.9971C1.75425 16.5571 2.82425 17.0971 3.36425 16.5071C3.90425 15.9171 5.25424 14.2971 6.17424 15.3271C7.09424 16.3571 7.26425 17.0571 8.02425 17.2171C9.99425 17.6271 9.45427 23.9471 9.10427 24.5471L9.11425 24.5571Z" fill="#76FF5A"/>
<path d="M8.75282 23.8669C8.26282 24.6969 6.9228 24.3569 6.6728 25.0469C6.4228 25.7369 4.1128 26.0669 3.4228 24.8869C2.7328 23.7069 1.7728 23.5469 1.4828 22.4169C1.1928 21.2869 0.472801 17.4469 1.1128 17.0069C1.7528 16.5669 2.8228 17.1069 3.3628 16.5169C3.9028 15.9269 5.2528 14.3069 6.1728 15.3369C7.0928 16.3669 7.2628 17.0669 8.0228 17.2269C9.9928 17.6369 9.09281 23.2669 8.74281 23.8669H8.75282Z" fill="white"/>
</svg>
