<svg width="13" height="28" viewBox="0 0 13 28" fill="none" xmlns="http://www.w3.org/2000/svg">
<path d="M4.1743 27.4864C3.0643 27.4864 1.7243 26.5664 1.2343 24.4964C0.504298 21.4264 0.434308 18.9464 0.744308 18.1664C0.814308 17.9864 0.94432 17.9064 1.19432 17.9064C1.37432 17.9064 1.57431 17.9464 1.80431 17.9864C2.07431 18.0364 2.3843 18.0964 2.7043 18.0964C3.1943 18.0964 3.59432 17.9464 3.91432 17.6464C4.50432 17.1064 5.28432 16.8164 6.16432 16.8164C6.81432 16.8164 7.49431 16.9664 8.15431 17.2664C8.38431 17.3664 8.6143 17.4264 8.8643 17.4264C9.1443 17.4264 9.3943 17.3564 9.6443 17.2964C9.8543 17.2364 10.0443 17.1864 10.2343 17.1864C10.5443 17.1864 10.9243 17.3064 11.4143 18.1864C12.1643 19.5564 12.4743 24.8864 11.8543 25.7864C11.5243 26.2664 10.8443 26.5764 10.1143 26.5764C9.6143 26.5764 9.1843 26.4264 8.9243 26.1664C8.7243 25.9664 8.54431 25.8664 8.37431 25.8664C8.14431 25.8664 7.96431 26.0364 7.77431 26.2164C7.63431 26.3464 7.49429 26.4764 7.32429 26.5764C7.20429 26.6464 7.0743 26.6764 6.9243 26.6764C6.8143 26.6764 6.71432 26.6664 6.60432 26.6464C6.49432 26.6364 6.3743 26.6164 6.2643 26.6164C5.9643 26.6164 5.72431 26.7164 5.49431 26.9464C5.14431 27.2864 4.69432 27.4764 4.19432 27.4764L4.1743 27.4864Z" fill="#76FF5A"/>
<path d="M11.4646 18.1573C12.2346 19.5673 12.0746 24.2173 11.4346 25.1473C10.7946 26.0773 9.68464 26.2273 8.99464 25.5473C8.30464 24.8673 7.93464 25.6073 7.31464 25.9473C6.70464 26.2773 6.03464 25.6673 5.28464 26.2073C4.05464 27.1173 2.47464 27.1273 1.78464 24.2273C1.09464 21.3373 0.314649 19.0173 0.664649 18.1373C1.01465 17.2573 2.67465 18.6773 3.85465 17.5973C5.03465 16.5173 6.74465 16.5673 8.16465 17.2073C9.58465 17.8473 10.3246 16.0973 11.4546 18.1573H11.4646Z" fill="white"/>
</svg>
