<svg width="13" height="25" viewBox="0 0 13 25" fill="none" xmlns="http://www.w3.org/2000/svg">
<path d="M4.434 24.4569C3.904 24.4569 3.45401 24.2669 3.03401 23.8869C1.06401 22.0669 0.194008 16.6769 1.03401 15.5069C1.57401 14.7569 2.13399 14.4169 2.82399 14.4169C3.21399 14.4169 3.61399 14.5169 4.04399 14.6269C4.52399 14.7469 5.014 14.8769 5.554 14.8769C6.134 14.8769 6.68401 14.7269 7.22401 14.4169C7.58401 14.2069 8.11399 14.0869 8.64399 14.0869C9.36399 14.0869 10.724 14.3169 11.704 15.8569C12.624 17.2969 13.004 19.3769 12.624 20.9169C12.434 21.7069 12.054 22.2769 11.534 22.5669C11.024 22.8569 10.524 23.0069 10.014 23.0069C9.65399 23.0069 9.32401 22.9369 9.03401 22.8669C8.78401 22.8169 8.554 22.7569 8.334 22.7569C8.214 22.7569 8.11399 22.7669 8.01399 22.7969C7.79399 22.8569 7.50401 23.0569 7.13401 23.3069C6.40401 23.7969 5.414 24.4569 4.434 24.4569Z" fill="#76FF5A"/>
<path d="M11.7672 15.8063C13.1772 18.0163 12.7272 21.0363 11.0172 22.0163C9.29724 22.9963 8.75724 21.9664 7.92724 22.2164C7.09724 22.4664 5.03724 24.6063 3.17724 22.8863C1.17724 21.0363 0.0972607 16.6964 0.977261 15.4664C2.86726 12.8364 4.54725 15.8663 7.18725 14.3464C8.04725 13.8464 10.3572 13.5963 11.7672 15.8063Z" fill="white"/>
</svg>
