<svg width="11" height="24" viewBox="0 0 11 24" fill="none" xmlns="http://www.w3.org/2000/svg">
<path d="M2.33397 23.4571C1.59397 23.4571 1.12398 22.8871 0.90398 21.7071C0.44398 19.2471 0.373989 16.1171 1.16399 15.1671C1.32399 14.9771 1.50399 14.8771 1.72399 14.8771C1.77399 14.8771 1.82399 14.8771 1.88399 14.8971C2.23399 14.9671 2.56398 14.9971 2.87398 14.9971C4.02398 14.9971 4.65399 14.5371 5.16399 14.1671C5.48399 13.9371 5.73398 13.7471 6.03398 13.7471C6.54398 13.7471 7.19397 14.3371 8.20397 15.7271C8.35397 15.9271 8.52398 16.0271 8.74398 16.0271C8.87398 16.0271 9.00398 15.9971 9.12398 15.9671C9.24398 15.9371 9.37398 15.9071 9.49398 15.9071C9.68398 15.9071 9.94399 15.9771 10.194 16.5471C10.764 17.8271 10.664 20.8671 9.78398 22.2271C9.51398 22.6371 9.20399 22.8471 8.85399 22.8471C8.39399 22.8471 8.02399 22.8271 7.72399 22.8171C7.50399 22.8071 7.32399 22.7971 7.16399 22.7971C6.70399 22.7971 6.38398 22.8671 5.99398 23.2571C5.85398 23.3971 5.69399 23.4571 5.50399 23.4571C5.23399 23.4571 4.95397 23.3371 4.67397 23.2171C4.42397 23.1071 4.18397 23.0071 3.98397 23.0071C3.98397 23.0071 3.88398 23.0071 3.87398 23.0071C3.77398 23.0271 3.65398 23.0771 3.49398 23.1471C3.18398 23.2771 2.75397 23.4671 2.33397 23.4671V23.4571Z" fill="#76FF5A"/>
<path d="M10.2673 16.5159C11.0373 18.2459 9.77736 21.9359 8.75736 22.1559C7.06736 22.5159 6.76734 21.8259 6.11734 22.4759C5.46734 23.1259 4.33734 22.3759 3.79734 22.4759C3.25734 22.5859 1.78734 23.3859 1.36734 21.3859C0.757344 18.4859 0.227343 14.5059 1.89734 14.8259C6.02734 15.6259 5.01734 11.2659 8.26734 15.6859C8.85734 16.4959 9.61734 15.0559 10.2673 16.5159Z" fill="white"/>
</svg>
