<svg width="8" height="24" viewBox="0 0 8 24" fill="none" xmlns="http://www.w3.org/2000/svg">
<path d="M7.28466 8.58607C7.02466 10.0061 5.92467 9.57607 5.38467 10.2961C4.84467 11.0261 3.69465 11.1461 2.96465 10.2961C2.23465 9.44607 0.844663 9.22607 0.724663 7.85607C0.604663 6.48607 -0.245337 1.36607 0.724663 0.69607C1.69466 0.0260704 6.70466 -0.32393 7.28466 0.69607C7.86466 1.71607 7.58466 6.93607 7.28466 8.58607Z" fill="#76FF5A"/>
<path d="M7.28591 8.58649C7.02591 10.0065 5.92591 9.57649 5.38591 10.2965C4.84591 11.0265 3.6959 11.1465 2.9659 10.2965C2.2359 9.44649 0.845909 9.22649 0.725909 7.85649C0.605909 6.48649 0.765889 2.14649 1.73589 1.47649C2.70589 0.806489 6.02591 0.626491 6.60591 1.64649C7.18591 2.66649 7.58591 6.93649 7.28591 8.58649Z" fill="white"/>
</svg>
