<svg width="9" height="25" viewBox="0 0 9 25" fill="none" xmlns="http://www.w3.org/2000/svg">
<path d="M7.14374 0.2565C6.13374 -0.1735 4.91374 0.836496 4.45374 0.526496C3.99374 0.216496 1.73376 -0.373503 1.13376 0.546497C0.533763 1.4665 -0.126256 5.9065 0.333744 7.5265C0.793744 9.1565 3.28376 12.0365 4.22376 11.6265C5.16376 11.2165 7.55376 9.5065 7.72376 8.9965C8.29376 7.2865 8.59376 0.8765 7.13376 0.2565H7.14374Z" fill="#76FF5A"/>
<path d="M6.52476 1.18621C5.51476 0.756205 4.83478 1.74621 4.38478 1.42621C3.93478 1.10621 1.94475 0.546206 1.73475 1.61621C1.04475 5.05621 -0.125239 5.90621 0.334761 7.53621C0.794761 9.16621 3.28478 12.0462 4.22478 11.6362C5.16478 11.2262 7.77478 9.54621 7.72478 9.00621C7.29478 4.24621 7.97476 1.80621 6.52476 1.18621Z" fill="white"/>
</svg>
