<svg width="9" height="31" viewBox="0 0 9 31" fill="none" xmlns="http://www.w3.org/2000/svg">
<path d="M7.11543 10.2869C8.44543 8.39686 8.59544 4.91686 8.37544 3.97686C8.15544 3.03686 4.84544 0.0268633 4.03544 0.0568633C3.22544 0.0868633 0.845424 1.01686 0.455424 1.90686C0.0654244 2.79686 0.275423 7.01686 0.985423 8.87686C1.69542 10.7369 4.29545 12.7669 4.91545 12.4369C5.54545 12.1069 6.40545 11.2869 7.10545 10.2869H7.11543Z" fill="#76FF5A"/>
<path d="M7.11489 10.2871C8.44489 8.39712 7.58489 5.19712 7.36489 4.25712C7.14489 3.31712 4.8649 0.977122 4.0649 1.00712C3.2649 1.03712 1.7049 1.56712 1.3149 2.45712C0.924901 3.34712 0.274884 7.01712 0.984884 8.87712C1.69488 10.7371 4.29491 12.7671 4.91491 12.4371C5.54491 12.1071 6.40491 11.2871 7.10491 10.2871H7.11489Z" fill="white"/>
</svg>
