<svg width="10" height="25" viewBox="0 0 10 25" fill="none" xmlns="http://www.w3.org/2000/svg">
<path d="M4.5661 11.1667C3.6561 11.1667 2.72608 10.2667 1.98608 9.53672C1.43608 9.00672 1.3261 8.27672 1.1561 7.27672C1.0561 6.67672 0.946103 6.00672 0.726103 5.20672C-0.113897 2.16672 0.476105 1.91672 1.91611 1.31672C2.43611 1.09672 3.09609 0.816718 3.80609 0.346718C4.00609 0.206718 4.24609 0.136719 4.49609 0.136719C5.37609 0.136719 6.40609 0.926721 7.30609 1.66672C7.51609 1.83672 7.69609 1.97672 7.86609 2.10672C8.62609 2.68672 8.94609 2.92672 8.99609 4.04672C9.05609 5.35672 8.5961 7.88672 7.7561 8.72672C7.6461 8.83672 7.5161 8.97672 7.3761 9.13672C6.7461 9.82672 5.78609 10.8567 4.92608 11.1167C4.80609 11.1567 4.67608 11.1667 4.54608 11.1667H4.5661Z" fill="#76FF5A"/>
<path d="M7.83592 8.77593C8.66592 7.94593 8.50592 5.82593 8.43592 4.42593C8.36592 3.02593 8.19591 3.09593 7.04591 2.15593C5.90591 1.21593 4.92591 0.505929 3.89591 1.19593C1.26591 2.94593 0.32592 1.08593 1.49592 5.33593C2.09592 7.48593 1.05591 8.72593 1.92591 9.57593C2.79591 10.4259 3.89593 11.4959 4.97593 11.1759C6.05593 10.8559 7.27592 9.33593 7.83592 8.77593Z" fill="white"/>
</svg>
