<svg width="11" height="24" viewBox="0 0 11 24" fill="none" xmlns="http://www.w3.org/2000/svg">
<path d="M6.17301 11.4265C4.78301 11.4265 3.26301 9.97648 2.98301 9.35648C2.87301 9.11648 2.65301 8.81649 2.39301 8.47649C1.78301 7.66649 0.943022 6.56648 0.873022 5.17648C0.773022 3.14648 1.98302 1.72648 2.62302 1.45648C2.95302 1.31648 3.16303 1.13648 3.38303 0.946484C3.67303 0.706484 3.963 0.456484 4.573 0.216484C4.683 0.176484 4.82303 0.146484 4.97303 0.146484C6.00303 0.146484 7.60302 1.17648 8.77302 1.92648L9.17301 2.18648C10.393 2.95648 10.953 4.88649 10.513 6.75648C9.98301 8.98648 9.53303 9.29648 8.72303 9.87648C8.37303 10.1265 7.97301 10.4065 7.48301 10.8865C7.11301 11.2465 6.67302 11.4265 6.18302 11.4265H6.17301Z" fill="#76FF5A"/>
<path d="M9.9629 6.67676C10.3929 4.86676 10.1229 3.58676 8.79289 2.74676C7.46289 1.90676 5.8329 0.56676 4.7429 0.98676C3.6429 1.41676 3.5029 2.09676 2.7729 2.40676C2.0429 2.71676 1.57292 3.45676 1.60292 5.27676C1.63292 7.28676 2.56292 8.70676 2.91292 9.50676C3.26292 10.3068 5.8329 12.6968 7.5229 11.0568C9.2029 9.41676 9.2129 9.86676 9.9629 6.67676Z" fill="white"/>
</svg>
