<svg width="14" height="24" viewBox="0 0 14 24" fill="none" xmlns="http://www.w3.org/2000/svg">
<path d="M13.2631 8.06608C13.9231 6.19608 14.3731 3.02608 12.7331 1.90608C8.37307 -1.07392 7.53309 0.676081 5.97309 0.386081C4.81309 0.166081 2.45307 -0.31392 1.01307 0.68608C-0.426935 1.68608 -0.00692618 6.00608 0.803074 7.36608C1.60307 8.72608 2.66307 8.88608 3.98307 8.80608C5.29307 8.72608 6.90309 9.82608 8.60309 9.31608C10.2931 8.80608 12.7531 9.55608 13.2731 8.07608L13.2631 8.06608Z" fill="#76FF5A"/>
<path d="M13.2649 8.06572C13.9249 6.19572 13.6849 3.49572 12.0449 2.38572C7.68486 -0.594276 7.86488 1.40572 6.31488 1.22572C5.14488 1.09572 3.12487 0.195725 1.68487 1.19573C0.244874 2.19573 -0.00513095 5.99573 0.804869 7.35573C1.60487 8.71573 2.66486 8.87573 3.98486 8.79573C5.29486 8.71573 6.90489 9.81572 8.60489 9.30572C10.2949 8.79572 12.7549 9.54572 13.2749 8.06572H13.2649Z" fill="white"/>
</svg>
