<svg width="13" height="23" viewBox="0 0 13 23" fill="none" xmlns="http://www.w3.org/2000/svg">
<path d="M11.4148 7.98648C12.3048 6.13648 12.7348 2.49648 10.4848 1.35648C8.23476 0.216481 6.55477 1.43648 5.46477 0.746481C4.38477 0.0664805 1.12478 -0.763521 0.47478 1.93648C-0.18522 4.63648 0.334772 6.88648 0.654772 7.65648C0.974772 8.42648 1.92477 8.16648 2.74477 8.00648C3.56477 7.84648 5.02477 9.42648 5.87477 9.42648C7.96477 9.44648 8.64476 7.56648 9.64476 7.65648C10.6448 7.74648 10.9648 8.91648 11.4148 7.98648Z" fill="#76FF5A"/>
<path d="M11.4152 7.98664C11.6252 5.51664 12.0052 3.09664 10.1252 1.98664C7.94524 0.706641 6.50525 2.36664 5.41525 1.68664C4.33525 1.00664 1.65524 -0.263361 0.875239 2.65664C0.155239 5.33664 0.345238 6.88664 0.655238 7.65664C0.975238 8.42664 1.92523 8.16664 2.74523 8.00664C3.56523 7.84664 5.02524 9.42664 5.87524 9.42664C7.96524 9.44664 8.64523 7.56664 9.64523 7.65664C10.6452 7.74664 11.3252 9.01664 11.4152 7.98664Z" fill="white"/>
</svg>
