<svg width="12" height="21" viewBox="0 0 12 21" fill="none" xmlns="http://www.w3.org/2000/svg">
<path d="M9.98456 7.64659C11.1446 6.81659 11.9646 4.82659 11.5946 2.72659C11.2246 0.626589 10.1846 1.16659 9.63459 1.06659C9.09459 0.966589 8.15456 0.036589 6.76456 0.316589C5.37456 0.596589 4.84458 0.436589 3.53458 0.136589C2.22458 -0.163411 0.934588 0.676591 0.884588 2.55659C0.834588 4.43659 0.884585 6.01659 1.72458 6.71659C2.56458 7.40659 5.09458 6.51659 5.93458 6.71659C6.77458 6.91659 8.20456 8.93659 9.98456 7.65659V7.64659Z" fill="#76FF5A"/>
<path d="M9.98513 7.64612C11.1451 6.81612 11.3651 4.83612 11.0551 2.71612C10.8451 1.30612 10.1351 1.76612 9.58514 1.66612C9.04514 1.56612 8.10514 0.526119 6.71514 0.806119C5.32514 1.08612 5.42516 1.01612 4.10516 0.746118C2.92516 0.506118 1.90515 0.596119 1.53515 2.39612C1.16515 4.19612 0.885154 6.01612 1.72515 6.70612C2.56515 7.39612 5.09514 6.50612 5.93514 6.70612C6.77514 6.90612 8.20513 8.92612 9.98513 7.64612Z" fill="white"/>
</svg>
