<svg width="8" height="24" viewBox="0 0 8 24" fill="none" xmlns="http://www.w3.org/2000/svg">
<path d="M0.795003 8.57631C1.055 9.99631 2.15503 9.56631 2.69503 10.2863C3.23503 11.0163 4.38501 11.1363 5.11501 10.2863C5.84501 9.43631 7.23503 9.2163 7.35503 7.8463C7.47503 6.4763 8.32503 1.3563 7.35503 0.686305C6.38503 0.0163048 1.375 -0.333695 0.795003 0.686305C0.215003 1.7063 0.495003 6.92631 0.795003 8.57631Z" fill="#76FF5A"/>
<path d="M0.793679 8.57673C1.05368 9.99673 2.1537 9.56673 2.6937 10.2867C3.2337 11.0167 4.38369 11.1367 5.11369 10.2867C5.84369 9.43673 7.23371 9.21672 7.35371 7.84672C7.47371 6.47672 7.3137 2.13673 6.3437 1.46673C5.3737 0.796725 2.0537 0.616723 1.4737 1.63672C0.893702 2.65672 0.493679 6.92673 0.793679 8.57673Z" fill="white"/>
</svg>
