<svg width="9" height="25" viewBox="0 0 9 25" fill="none" xmlns="http://www.w3.org/2000/svg">
<path d="M1.93301 0.24673C2.94301 -0.18327 4.16301 0.826731 4.62301 0.516731C5.08301 0.206731 7.34302 -0.383269 7.94302 0.536731C8.54302 1.45673 9.203 5.89673 8.743 7.51673C8.283 9.14673 5.79302 12.0267 4.85302 11.6167C3.91302 11.2067 1.52302 9.49673 1.35302 8.98673C0.783019 7.27673 0.483015 0.86673 1.94302 0.24673H1.93301Z" fill="#76FF5A"/>
<path d="M2.54444 1.16668C3.55444 0.736678 4.23445 1.72668 4.68445 1.40668C5.13445 1.08668 7.12445 0.526674 7.33445 1.59667C8.02445 5.03667 9.19444 5.88667 8.73444 7.51667C8.27444 9.14667 5.78446 12.0267 4.84446 11.6167C3.90446 11.2067 1.29446 9.52667 1.34446 8.98667C1.77446 4.22667 1.09444 1.78668 2.54444 1.16668Z" fill="white"/>
</svg>
