<svg width="9" height="31" viewBox="0 0 9 31" fill="none" xmlns="http://www.w3.org/2000/svg">
<path d="M1.96439 10.2771C0.634393 8.3871 0.484383 4.9071 0.704383 3.9671C0.924383 3.0271 4.23438 0.0170977 5.04438 0.0470977C5.85438 0.0770977 8.2344 1.0071 8.6244 1.8971C9.0144 2.7871 8.8044 7.0071 8.0944 8.8671C7.3844 10.7271 4.78441 12.7571 4.16441 12.4271C3.53441 12.0971 2.6744 11.2771 1.9744 10.2771H1.96439Z" fill="#76FF5A"/>
<path d="M1.96488 10.2774C0.634883 8.38736 1.49488 5.18736 1.71488 4.24736C1.93488 3.30736 4.21487 0.967356 5.01487 0.997356C5.81487 1.02736 7.37487 1.55736 7.76487 2.44736C8.15487 3.33736 8.80489 7.00736 8.09489 8.86736C7.38489 10.7274 4.7849 12.7574 4.1649 12.4274C3.5349 12.0974 2.67489 11.2774 1.97489 10.2774H1.96488Z" fill="white"/>
</svg>
