<svg width="10" height="25" viewBox="0 0 10 25" fill="none" xmlns="http://www.w3.org/2000/svg">
<path d="M5.50211 11.1567C5.37211 11.1567 5.2421 11.1367 5.1221 11.1067C4.2721 10.8567 3.3121 9.81672 2.6821 9.13672C2.5321 8.97672 2.40208 8.83672 2.29208 8.72672C1.45208 7.88672 0.992095 5.34672 1.05209 4.04672C1.10209 2.93672 1.4221 2.69672 2.1821 2.10672C2.3521 1.97672 2.5321 1.83672 2.7421 1.66672C3.6421 0.926721 4.68209 0.136719 5.55209 0.136719C5.81209 0.136719 6.0421 0.206718 6.2421 0.346718C6.9621 0.826718 7.61211 1.09672 8.13211 1.31672C9.57211 1.91672 10.1621 2.16672 9.32208 5.20672C9.10208 5.99672 8.99209 6.67672 8.89209 7.27672C8.73209 8.27672 8.61209 9.00672 8.08209 9.52672C7.33209 10.2667 6.4021 11.1667 5.4921 11.1667L5.50211 11.1567Z" fill="#76FF5A"/>
<path d="M2.24231 8.76616C1.41231 7.93616 1.5723 5.81617 1.6423 4.41617C1.7123 3.01617 1.88232 3.08617 3.03232 2.14617C4.17232 1.20617 5.15231 0.496163 6.18231 1.18616C8.81231 2.93616 9.7523 1.07617 8.5823 5.32617C7.9823 7.47617 9.02231 8.71616 8.15231 9.56616C7.28231 10.4162 6.18232 11.4862 5.10232 11.1662C4.02232 10.8462 2.80231 9.32616 2.24231 8.76616Z" fill="white"/>
</svg>
