<svg width="11" height="24" viewBox="0 0 11 24" fill="none" xmlns="http://www.w3.org/2000/svg">
<path d="M4.9031 11.407C4.4031 11.407 3.9731 11.227 3.6031 10.867C3.1031 10.387 2.7131 10.107 2.3531 9.85695C1.5331 9.28695 1.0831 8.96695 0.563103 6.73695C0.123103 4.85695 0.683099 2.93695 1.9031 2.16695L2.30309 1.90695C3.47309 1.15695 5.0731 0.126953 6.1031 0.126953C6.2531 0.126953 6.38309 0.146953 6.50309 0.196953C7.10309 0.426953 7.40309 0.686952 7.69309 0.926952C7.91309 1.11695 8.1231 1.29695 8.4531 1.43695C9.0931 1.71695 10.3131 3.12695 10.2031 5.15695C10.1331 6.54695 9.2931 7.64695 8.6831 8.45695C8.4231 8.79695 8.1931 9.09696 8.0931 9.33696C7.8231 9.94696 6.2931 11.407 4.9031 11.407Z" fill="#76FF5A"/>
<path d="M1.10281 6.667C0.67281 4.857 0.942808 3.577 2.27281 2.737C3.60281 1.897 5.23281 0.556994 6.32281 0.976994C7.42281 1.40699 7.56281 2.087 8.29281 2.397C9.02281 2.707 9.49281 3.44699 9.46281 5.26699C9.43281 7.27699 8.50281 8.69699 8.15281 9.49699C7.80281 10.297 5.23281 12.687 3.54281 11.047C1.86281 9.407 1.85281 9.857 1.10281 6.667Z" fill="white"/>
</svg>
