<svg width="15" height="24" viewBox="0 0 15 24" fill="none" xmlns="http://www.w3.org/2000/svg">
<path d="M0.812606 8.05631C0.152606 6.18631 -0.297395 3.01632 1.34261 1.89632C5.70261 -1.08368 6.5426 0.666315 8.1026 0.376315C9.2626 0.156315 11.6226 -0.323685 13.0626 0.676315C14.5026 1.67631 14.0826 5.99631 13.2726 7.35631C12.4726 8.71631 11.4126 8.87632 10.0926 8.79632C8.78261 8.71632 7.1726 9.81631 5.47259 9.30631C3.78259 8.79631 1.3226 9.54631 0.802597 8.06631L0.812606 8.05631Z" fill="#76FF5A"/>
<path d="M0.814151 8.05596C0.154151 6.18596 0.394153 3.48596 2.03415 2.37596C6.39415 -0.604039 6.21415 1.39596 7.76415 1.21596C8.93415 1.08596 10.9541 0.185959 12.3941 1.18596C13.8341 2.18596 14.0841 5.98596 13.2741 7.34596C12.4741 8.70596 11.4142 8.86596 10.0942 8.78596C8.78415 8.70596 7.17414 9.80596 5.47414 9.29596C3.78414 8.78596 1.32414 9.53596 0.804142 8.05596H0.814151Z" fill="white"/>
</svg>
