<svg width="13" height="23" viewBox="0 0 13 23" fill="none" xmlns="http://www.w3.org/2000/svg">
<path d="M1.66542 7.96695C0.77542 6.11695 0.345427 2.47695 2.59543 1.33695C4.84543 0.196948 6.52542 1.41695 7.61542 0.726947C8.69542 0.0469475 11.9554 -0.78305 12.6054 1.91695C13.2554 4.61695 12.7454 6.86695 12.4254 7.63695C12.1054 8.40695 11.1554 8.14695 10.3354 7.98695C9.51542 7.82695 8.05543 9.40695 7.20543 9.40695C5.11543 9.42695 4.43542 7.54695 3.43542 7.63695C2.43542 7.72695 2.11542 8.89695 1.66542 7.96695Z" fill="#76FF5A"/>
<path d="M1.66421 7.96711C1.45421 5.49711 1.07422 3.07711 2.95422 1.96711C5.13422 0.687108 6.57421 2.34711 7.66421 1.66711C8.74421 0.987108 11.4242 -0.282894 12.2042 2.63711C12.9242 5.31711 12.7342 6.86711 12.4242 7.63711C12.1042 8.40711 11.1542 8.1471 10.3342 7.9871C9.51421 7.8271 8.05422 9.40711 7.20422 9.40711C5.11422 9.42711 4.43422 7.54711 3.43422 7.63711C2.43422 7.72711 1.75421 8.99711 1.66421 7.96711Z" fill="white"/>
</svg>
