<svg width="12" height="21" viewBox="0 0 12 21" fill="none" xmlns="http://www.w3.org/2000/svg">
<path d="M2.09431 7.63682C0.934307 6.80682 0.114306 4.81682 0.484306 2.71682C0.854306 0.616823 1.8943 1.15682 2.4443 1.05682C2.9843 0.956824 3.92431 0.0268235 5.31431 0.306824C6.70431 0.586824 7.2343 0.426823 8.5443 0.126823C9.8543 -0.173177 11.1443 0.666821 11.1943 2.54682C11.2443 4.42682 11.1943 6.00682 10.3543 6.70682C9.5143 7.39682 6.98429 6.50682 6.14429 6.70682C5.30429 6.90682 3.87431 8.92682 2.09431 7.64682V7.63682Z" fill="#76FF5A"/>
<path d="M2.0917 7.63635C0.9317 6.80635 0.711692 4.82635 1.02169 2.70635C1.23169 1.29635 1.94169 1.75635 2.49169 1.65635C3.03169 1.55635 3.97169 0.51635 5.36169 0.79635C6.75169 1.07635 6.65169 1.00635 7.97169 0.736353C9.15169 0.496353 10.1717 0.58635 10.5417 2.38635C10.9217 4.22635 11.1917 6.00635 10.3517 6.69635C9.51169 7.38635 6.98169 6.49635 6.14169 6.69635C5.30169 6.89635 3.8717 8.91635 2.0917 7.63635Z" fill="white"/>
</svg>
