<svg width="8" height="20" viewBox="0 0 8 20" fill="none" xmlns="http://www.w3.org/2000/svg">
<path d="M5.92505 13.6768C6.09505 13.8968 6.23505 14.1368 6.33505 14.3868C7.31505 16.7268 7.89505 19.0368 5.93505 19.3468C4.48505 19.5768 2.99504 19.4368 1.99504 19.2868C1.56504 19.2168 1.15505 19.0068 0.87505 18.6668C0.15505 17.8068 0.0750486 16.6268 0.405049 15.2368C0.505049 14.8168 0.675049 14.4168 0.905049 14.0568C1.36505 13.3368 2.06505 12.7868 2.92505 12.5868C3.30505 12.4968 3.67505 12.4768 4.04505 12.5268C4.80505 12.6368 5.46505 13.0568 5.92505 13.6568" fill="#76FF5A"/>
<path d="M5.92578 13.6768C6.09578 13.8968 6.23578 14.1368 6.33578 14.3868C7.31578 16.7268 7.35578 18.4368 5.40578 18.7468C3.95578 18.9768 3.43579 18.9468 2.44579 18.7868C2.01579 18.7168 1.60578 18.5068 1.32578 18.1668C0.605783 17.3068 0.445781 16.6768 0.425781 15.2368C0.425781 14.8068 0.695781 14.4168 0.925781 14.0568C1.38578 13.3368 2.08579 12.7868 2.94579 12.5868C3.32579 12.4968 3.69578 12.4768 4.06578 12.5268C4.82578 12.6368 5.48579 13.0568 5.94579 13.6568" fill="white"/>
</svg>
