<svg width="7" height="19" viewBox="0 0 7 19" fill="none" xmlns="http://www.w3.org/2000/svg">
<path d="M3.34158 18.3971C2.82158 18.3971 2.40158 18.3671 2.05158 18.2971C1.54158 18.1871 1.13158 17.8071 1.00158 17.3071C0.601578 15.7171 0.861577 14.3071 1.80158 12.9971C2.38158 12.5071 2.97158 12.2471 3.55158 12.2471C3.86158 12.2471 4.17158 12.3171 4.47158 12.4671C4.70158 12.5771 4.90158 12.7271 5.07158 12.9271C5.26158 13.1371 5.40158 13.3871 5.49158 13.6771C5.83158 14.7371 6.05158 15.8471 6.15158 16.9771C6.22158 17.3771 6.26157 17.8171 6.05157 18.0671C5.91157 18.2371 5.67158 18.3171 5.32158 18.3171L4.96158 18.3371C4.40158 18.3671 3.84158 18.4071 3.32158 18.4071L3.34158 18.3971Z" fill="white"/>
<path d="M3.34158 18.3971C2.82158 18.3971 2.40158 18.3671 2.05158 18.2971C1.54158 18.1871 1.13158 17.8071 1.00158 17.3071C0.601578 15.7171 0.861577 14.3071 1.80158 12.9971C2.38158 12.5071 2.97158 12.2471 3.55158 12.2471C3.86158 12.2471 4.17158 12.3171 4.47158 12.4671C4.70158 12.5771 4.90158 12.7271 5.07158 12.9271C5.26158 13.1371 5.40158 13.3871 5.49158 13.6771C5.83158 14.7371 6.05158 15.8471 6.15158 16.9771C6.22158 17.3771 6.26157 17.8171 6.05157 18.0671C5.91157 18.2371 5.67158 18.3171 5.32158 18.3171L4.96158 18.3371C4.40158 18.3671 3.84158 18.4071 3.32158 18.4071L3.34158 18.3971Z" fill="#76FF5A"/>
<path d="M3.3826 18.0171C3.1226 18.0171 2.8526 17.9971 2.5026 17.9471C1.9226 17.8671 1.6126 17.8271 1.4726 17.1871C1.1326 15.6771 0.842602 14.3671 1.8226 12.9971C2.4026 12.5071 2.9926 12.2471 3.5726 12.2471C3.8826 12.2471 4.1926 12.3171 4.4926 12.4671C4.7226 12.5771 4.9226 12.7271 5.0926 12.9271C5.2826 13.1371 5.4226 13.3871 5.5126 13.6771C5.7126 14.3071 5.7126 14.8571 5.7126 15.4371C5.7126 15.8271 5.7126 16.2371 5.7726 16.6971C5.8326 17.1571 5.8626 17.5071 5.6826 17.7171C5.5526 17.8671 5.3226 17.9371 4.9626 17.9371L4.2626 17.9871C3.9226 18.0071 3.6526 18.0271 3.3826 18.0271V18.0171Z" fill="white"/>
</svg>
