<svg width="7" height="22" viewBox="0 0 7 22" fill="none" xmlns="http://www.w3.org/2000/svg">
<path d="M2.82249 21.3675C2.63249 21.3675 2.46249 21.3375 2.31249 21.2875C0.582486 20.6975 0.0324869 18.9175 0.692487 16.0075C0.792487 15.5475 0.972488 15.1175 1.23249 14.7475C1.45249 14.4175 1.72249 14.1375 2.03249 13.9175C2.48249 13.5975 2.93249 13.4375 3.37249 13.4375C4.00249 13.4375 4.64249 13.7675 5.27249 14.4175C6.09249 15.7475 6.37249 16.9475 6.11249 18.0575C5.78249 19.1775 5.15249 20.1375 4.19249 20.9675C3.89249 21.2275 3.50249 21.3675 3.09249 21.3675H2.82249Z" fill="#76FF5A"/>
<path d="M2.80311 20.6875C2.63311 20.6875 2.45311 20.6875 2.29311 20.6075C0.793109 19.9275 0.823106 19.1775 0.923106 16.9475L0.963107 16.0975C0.983107 15.5575 1.00311 15.0975 1.23311 14.7475C1.45311 14.4175 1.72311 14.1375 2.03311 13.9175C2.48311 13.5975 2.93311 13.4375 3.37311 13.4375C4.00311 13.4375 4.64311 13.7675 5.27311 14.4175C5.97311 15.5575 5.92311 16.6775 5.62311 17.9875C5.26311 19.1975 5.05311 19.5275 4.17311 20.2875C3.87311 20.5475 3.48311 20.6875 3.07311 20.6875H2.80311Z" fill="white"/>
</svg>
