<svg width="11" height="20" viewBox="0 0 11 20" fill="none" xmlns="http://www.w3.org/2000/svg">
<path d="M4.84093 19.3971C4.06093 19.3971 3.27094 19.2971 2.49094 19.1071C1.85094 19.0371 1.53093 18.5871 1.51093 17.7471C1.33093 16.7171 1.48094 15.7071 1.97094 14.7171C2.06094 14.5471 2.17094 14.3771 2.31094 14.2271C3.37094 13.0871 4.35093 12.5371 5.27093 12.5371C6.04093 12.5371 6.80093 12.9271 7.52093 13.6971C7.73093 13.9171 7.93094 14.1671 8.14094 14.4571C8.85094 15.3971 9.19093 16.5171 9.17093 17.8771C9.13093 18.6671 8.83093 19.0871 8.26093 19.1771C8.20093 19.1771 8.13094 19.1871 8.06094 19.1871C7.75094 19.1871 7.43093 19.0771 7.17093 18.8771C7.02093 18.7671 6.87093 18.7071 6.70093 18.7071C6.49093 18.7071 6.28093 18.7971 6.04094 18.9671C5.67094 19.2371 5.26094 19.3871 4.87094 19.3871H4.85093L4.84093 19.3971Z" fill="#76FF5A"/>
<path d="M4.12143 18.9271C3.83143 18.9271 3.62143 18.8871 3.12143 18.7371L2.95143 18.6871C2.39143 18.5271 2.05143 18.4271 1.97143 17.6271C1.94143 17.3571 1.90143 17.0971 1.85143 16.8471C1.72143 16.1271 1.60143 15.4471 1.96143 14.7171C2.05143 14.5471 2.16143 14.3771 2.30143 14.2271C3.36143 13.0871 4.34142 12.5371 5.26142 12.5371C6.03142 12.5371 6.79142 12.9271 7.51143 13.6971C7.72143 13.9171 7.92143 14.1671 8.13143 14.4571C8.62143 15.0971 8.65143 15.7071 8.70143 16.6271C8.71143 16.9171 8.73143 17.2271 8.76143 17.5871C8.78143 17.7871 8.79143 18.4671 8.18143 18.5571C8.04143 18.5771 7.91143 18.5971 7.80143 18.5971C7.59143 18.5971 7.44143 18.5371 7.26143 18.4071C7.07143 18.2671 6.86143 18.1871 6.64143 18.1871C6.43143 18.1871 6.23143 18.2571 6.05143 18.3871C5.74143 18.6171 5.25143 18.8671 4.80143 18.8971C4.46143 18.9171 4.28143 18.9271 4.12143 18.9271Z" fill="white"/>
</svg>
