<svg width="14" height="20" viewBox="0 0 14 20" fill="none" xmlns="http://www.w3.org/2000/svg">
<path d="M5.94472 19.3968C5.50472 19.3968 5.09472 19.2968 4.72472 19.0968C3.85472 18.6268 3.33472 17.6468 3.40472 16.5768C3.42472 16.1868 3.49472 15.7868 3.58472 15.3868C3.77472 14.5968 4.23472 13.9168 4.87472 13.4468C6.18472 12.4968 7.42472 12.0068 8.54472 12.0068C9.74472 12.0068 10.8647 12.5668 11.8547 13.6768C11.9847 13.8268 12.1147 13.9768 12.2347 14.1368C13.2647 15.6268 14.0247 17.1768 12.6447 18.4068C11.8447 19.0268 10.6647 19.3168 8.81472 19.3368C8.58472 19.3368 8.37472 19.2068 8.23472 18.9968C8.11472 18.8168 7.95472 18.7168 7.73472 18.7168C7.47472 18.7168 7.13472 18.8568 6.68472 19.1668C6.50472 19.2868 6.29472 19.3668 6.08472 19.3668H5.93472L5.94472 19.3968Z" fill="#76FF5A"/>
<path d="M5.88253 18.7078C5.42253 18.7078 5.12253 18.6278 4.88253 18.4378C4.04253 17.7778 3.73253 17.5278 3.80253 16.5078C3.81253 16.2678 3.86253 16.0578 3.92253 15.8278C3.96253 15.6678 4.00253 15.4978 4.02253 15.3178L4.05253 15.1478C4.16253 14.4378 4.25253 13.8778 4.83253 13.4478C6.14253 12.4978 7.38253 12.0078 8.50253 12.0078C9.70253 12.0078 10.8225 12.5678 11.8125 13.6778C11.9425 13.8278 12.0725 13.9778 12.1925 14.1378C12.8925 15.1578 13.1625 16.0878 12.9825 16.8378C12.8525 17.3778 12.4825 17.8078 11.8825 18.1178C10.9725 18.5978 10.8625 18.5978 9.51253 18.6778L9.33253 18.6878C9.00253 18.6878 8.48253 18.5578 8.37253 18.3778C8.24253 18.1778 8.05253 18.0778 7.82253 18.0778C7.55253 18.0778 7.21253 18.2178 6.82253 18.4778C6.64253 18.5978 6.43253 18.6778 6.22253 18.6778C6.11253 18.6778 6.00253 18.6778 5.90253 18.6778L5.88253 18.7078Z" fill="white"/>
</svg>
