<svg width="8" height="20" viewBox="0 0 8 20" fill="none" xmlns="http://www.w3.org/2000/svg">
<path d="M1.7354 13.7364C1.5654 13.9564 1.4254 14.1964 1.3254 14.4464C0.3454 16.7864 -0.234599 19.0964 1.7254 19.4064C3.1754 19.6364 4.6654 19.4964 5.6654 19.3464C6.0954 19.2764 6.5054 19.0664 6.7854 18.7264C7.5054 17.8664 7.5854 16.6864 7.2554 15.2964C7.1554 14.8764 6.9854 14.4764 6.7554 14.1164C6.2954 13.3964 5.5954 12.8464 4.7354 12.6464C4.3554 12.5564 3.9854 12.5364 3.6154 12.5864C2.8554 12.6964 2.1954 13.1164 1.7354 13.7164" fill="#76FF5A"/>
<path d="M1.73363 13.7364C1.56363 13.9564 1.42364 14.1964 1.32364 14.4464C0.343637 16.7864 0.303637 18.4964 2.25364 18.8064C3.70364 19.0364 4.22364 19.0064 5.21364 18.8464C5.64364 18.7764 6.05364 18.5664 6.33364 18.2264C7.05364 17.3664 7.21363 16.7364 7.23363 15.2964C7.23363 14.8664 6.96363 14.4764 6.73363 14.1164C6.27363 13.3964 5.57364 12.8464 4.71364 12.6464C4.33364 12.5564 3.96363 12.5364 3.59363 12.5864C2.83363 12.6964 2.17364 13.1164 1.71364 13.7164" fill="white"/>
</svg>
