<svg width="6" height="19" viewBox="0 0 6 19" fill="none" xmlns="http://www.w3.org/2000/svg">
<path d="M3.30593 18.4561C2.78593 18.4561 2.22593 18.4261 1.66593 18.3861L1.31593 18.3661C0.965928 18.3661 0.725933 18.2861 0.585933 18.1161C0.375933 17.8561 0.415926 17.4261 0.485926 17.0261C0.585926 15.8861 0.80593 14.7761 1.14593 13.7161C1.23593 13.4361 1.37593 13.1861 1.56593 12.9661C1.73593 12.7761 1.93593 12.6161 2.16593 12.5061C2.46593 12.3661 2.77593 12.2861 3.08593 12.2861C3.66593 12.2861 4.25593 12.5461 4.84593 13.0461C5.77593 14.3461 6.03593 15.7561 5.63593 17.3461C5.51593 17.8461 5.10593 18.2261 4.58593 18.3361C4.24593 18.4061 3.82593 18.4361 3.29593 18.4361L3.30593 18.4561Z" fill="white"/>
<path d="M3.30593 18.4561C2.78593 18.4561 2.22593 18.4261 1.66593 18.3861L1.31593 18.3661C0.965928 18.3661 0.725933 18.2861 0.585933 18.1161C0.375933 17.8561 0.415926 17.4261 0.485926 17.0261C0.585926 15.8861 0.80593 14.7761 1.14593 13.7161C1.23593 13.4361 1.37593 13.1861 1.56593 12.9661C1.73593 12.7761 1.93593 12.6161 2.16593 12.5061C2.46593 12.3661 2.77593 12.2861 3.08593 12.2861C3.66593 12.2861 4.25593 12.5461 4.84593 13.0461C5.77593 14.3461 6.03593 15.7561 5.63593 17.3461C5.51593 17.8461 5.10593 18.2261 4.58593 18.3361C4.24593 18.4061 3.82593 18.4361 3.29593 18.4361L3.30593 18.4561Z" fill="#76FF5A"/>
<path d="M3.27801 18.0757C3.00801 18.0757 2.73802 18.0557 2.39802 18.0357L1.70802 17.9957C1.34802 17.9957 1.11801 17.9257 0.988014 17.7757C0.808014 17.5657 0.838018 17.2257 0.898018 16.7557C0.958018 16.2957 0.958015 15.8857 0.958015 15.4957C0.958015 14.9157 0.95802 14.3657 1.15802 13.7357C1.24802 13.4557 1.38802 13.2057 1.57802 12.9857C1.74802 12.7957 1.94802 12.6357 2.17802 12.5257C2.47802 12.3857 2.78801 12.3057 3.09801 12.3057C3.67801 12.3057 4.26802 12.5657 4.85802 13.0657C5.81802 14.4157 5.52802 15.7257 5.18802 17.2357C5.04802 17.8757 4.72802 17.9157 4.20802 17.9957C3.80802 18.0557 3.53801 18.0757 3.27801 18.0757Z" fill="white"/>
</svg>
