<svg width="7" height="22" viewBox="0 0 7 22" fill="none" xmlns="http://www.w3.org/2000/svg">
<path d="M3.56663 21.4261C3.15663 21.4261 2.76663 21.2861 2.46663 21.0261C1.50663 20.1961 0.886629 19.2361 0.546629 18.1161C0.296629 17.0061 0.56662 15.8161 1.39662 14.4661C2.01662 13.8261 2.65663 13.4961 3.28663 13.4961C3.72663 13.4961 4.17663 13.6561 4.62663 13.9761C4.93663 14.1961 5.20663 14.4761 5.42663 14.8061C5.67663 15.1761 5.85663 15.6061 5.96663 16.0661C6.62663 18.9761 6.08663 20.7561 4.34663 21.3461C4.19663 21.3961 4.02662 21.4261 3.83662 21.4261H3.56663Z" fill="#76FF5A"/>
<path d="M3.58603 20.7461C3.17603 20.7461 2.78604 20.6061 2.48604 20.3461C1.60604 19.5761 1.39605 19.2561 1.03605 18.0361C0.736046 16.7261 0.686031 15.6161 1.39603 14.4661C2.01603 13.8261 2.65605 13.4961 3.28605 13.4961C3.72605 13.4961 4.17604 13.6561 4.62604 13.9761C4.93604 14.1961 5.20604 14.4761 5.42604 14.8061C5.65604 15.1461 5.67604 15.6161 5.68604 16.0661L5.72603 17.0161C5.82603 19.2461 5.85604 19.9961 4.35604 20.6761C4.20604 20.7461 4.02604 20.7561 3.84604 20.7561H3.57604L3.58603 20.7461Z" fill="white"/>
</svg>
