<svg width="11" height="20" viewBox="0 0 11 20" fill="none" xmlns="http://www.w3.org/2000/svg">
<path d="M5.78305 19.4567C5.39305 19.4567 4.98304 19.3167 4.61304 19.0367C4.37304 18.8567 4.16305 18.7767 3.95305 18.7767C3.79305 18.7767 3.63305 18.8367 3.48305 18.9467C3.22305 19.1467 2.91304 19.2567 2.60304 19.2567C2.53304 19.2567 2.47305 19.2567 2.40305 19.2367C1.83305 19.1467 1.53304 18.7267 1.49304 17.9367C1.47304 16.5767 1.80305 15.4567 2.51305 14.5167C2.71305 14.2267 2.92304 13.9767 3.13304 13.7567C3.85304 12.9867 4.61304 12.5967 5.38304 12.5967C6.30304 12.5967 7.28305 13.1467 8.29305 14.2367C8.47305 14.4367 8.59305 14.6067 8.68305 14.7767C9.16305 15.7567 9.32304 16.7767 9.14304 17.7967C9.12304 18.6467 8.80305 19.0967 8.17305 19.1667C7.38305 19.3567 6.58305 19.4567 5.81305 19.4567H5.79305H5.78305Z" fill="#76FF5A"/>
<path d="M6.53698 18.9867C6.37698 18.9867 6.20698 18.9767 5.95698 18.9567C5.41698 18.9167 4.91697 18.6667 4.60697 18.4367C4.42697 18.3067 4.22698 18.2367 4.01698 18.2367C3.79698 18.2367 3.58697 18.3167 3.39697 18.4567C3.21697 18.5967 3.06697 18.6467 2.85697 18.6467C2.73697 18.6467 2.61697 18.6267 2.47697 18.6067C1.86697 18.5167 1.87697 17.8367 1.89697 17.6367C1.92697 17.2867 1.94698 16.9667 1.95698 16.6767C2.00698 15.7567 2.03697 15.1567 2.52697 14.5167C2.72697 14.2267 2.93697 13.9767 3.14697 13.7567C3.86697 12.9867 4.62697 12.5967 5.39697 12.5967C6.31697 12.5967 7.29697 13.1467 8.30697 14.2367C8.48697 14.4367 8.60697 14.6067 8.69697 14.7767C9.05697 15.5067 8.93697 16.1867 8.80697 16.9067C8.75697 17.1567 8.71698 17.4167 8.68698 17.6867C8.60698 18.4867 8.26698 18.5767 7.70698 18.7467L7.53698 18.7967C7.03698 18.9467 6.82698 18.9867 6.53698 18.9867Z" fill="white"/>
</svg>
