<svg width="14" height="20" viewBox="0 0 14 20" fill="none" xmlns="http://www.w3.org/2000/svg">
<path d="M7.56297 19.4559C7.35297 19.4559 7.13297 19.3759 6.96297 19.2559C6.51297 18.9459 6.18297 18.8059 5.91297 18.8059C5.70297 18.8059 5.53297 18.8959 5.41297 19.0859C5.27297 19.2959 5.06296 19.4259 4.83296 19.4259C2.98296 19.3959 1.80296 19.1159 1.00296 18.4859C-0.377038 17.2559 0.382965 15.7059 1.41297 14.2159C1.53297 14.0559 1.66297 13.9059 1.79297 13.7559C2.78297 12.6459 3.90297 12.0859 5.10297 12.0859C6.22297 12.0859 7.45297 12.5659 8.76297 13.5259C9.40297 13.9959 9.86297 14.6859 10.053 15.4659C10.153 15.8759 10.213 16.2759 10.233 16.6559C10.303 17.7159 9.79297 18.7059 8.91297 19.1659C8.54297 19.3659 8.13296 19.4659 7.69296 19.4659H7.54297L7.56297 19.4559Z" fill="#76FF5A"/>
<path d="M7.45303 18.7564C7.24303 18.7564 7.03302 18.6764 6.85302 18.5564C6.46302 18.2864 6.12302 18.1464 5.85302 18.1464C5.61302 18.1464 5.42303 18.2464 5.29303 18.4464C5.18303 18.6264 4.65303 18.7564 4.37303 18.7564H4.15303C2.80303 18.6664 2.69303 18.6564 1.78303 18.1764C1.19303 17.8664 0.823027 17.4364 0.683027 16.8964C0.493027 16.1464 0.77302 15.2064 1.47302 14.1964C1.59302 14.0364 1.72302 13.8864 1.85302 13.7364C2.84302 12.6264 3.96302 12.0664 5.16302 12.0664C6.28302 12.0664 7.51303 12.5464 8.82303 13.5064C9.41303 13.9364 9.50302 14.4964 9.61302 15.2064L9.64302 15.3764C9.67302 15.5564 9.71302 15.7264 9.74302 15.8864C9.79302 16.1164 9.84302 16.3264 9.86302 16.5664C9.93302 17.5764 9.62303 17.8264 8.78303 18.4964C8.54303 18.6864 8.24303 18.7664 7.78303 18.7664C7.78303 18.7664 7.57303 18.7664 7.46303 18.7664L7.45303 18.7564Z" fill="white"/>
</svg>
