<svg width="5" height="18" viewBox="0 0 5 18" fill="none" xmlns="http://www.w3.org/2000/svg">
<path d="M4.50672 7.18659C4.71672 6.78659 4.81672 6.33659 4.83672 5.88659L4.96672 2.42659C5.01672 1.63659 4.68672 1.22659 4.21672 0.926588C3.50672 0.416588 2.47672 0.0865891 1.62672 0.236589C1.00672 0.346589 1.00672 0.286587 0.926718 0.816587C0.886718 1.06659 0.876719 1.31659 0.896719 1.56659C1.00672 3.15659 1.16672 4.62659 1.32672 5.99659C1.36672 6.36659 1.50672 6.70659 1.71672 7.00659C1.73672 7.03659 1.76672 7.06659 1.78672 7.10659C2.81672 8.36659 3.66672 8.47659 4.35672 7.43659C4.40672 7.36659 4.45672 7.28659 4.49672 7.20659" fill="#76FF5A"/>
<path d="M4.5059 7.18662C4.7159 6.78662 4.8159 6.33662 4.8359 5.88662L4.6259 2.56662C4.6759 1.77662 4.2959 1.59662 3.8359 1.28662C3.1159 0.796617 3.0359 0.676615 2.1259 0.686615C1.4959 0.686615 1.4459 0.626616 1.3759 1.15662C1.3359 1.40662 1.3459 1.77662 1.3759 2.01662C1.4859 3.60662 1.1859 4.62662 1.3359 5.98662C1.3759 6.35662 1.5159 6.69662 1.7259 6.99662C1.7459 7.02662 1.7759 7.05661 1.7959 7.09661C2.8259 8.35661 3.6759 8.46662 4.3659 7.42662C4.4159 7.35662 4.4659 7.27661 4.5059 7.19661" fill="white"/>
</svg>
