<svg width="6" height="19" viewBox="0 0 6 19" fill="none" xmlns="http://www.w3.org/2000/svg">
<path d="M1.34761 6.50673C1.44761 6.72673 1.58762 6.93672 1.75762 7.10672C2.46762 7.81672 3.17762 8.05672 3.90762 7.85672C4.38762 7.72672 4.76762 7.40672 5.00762 6.99672C5.16762 6.72672 5.26762 6.41672 5.28762 6.09672C5.28762 6.09672 5.58762 3.40673 5.58762 2.50673C5.58762 1.96673 5.40762 1.49672 5.18762 1.09672C4.94762 0.666722 4.48761 0.386724 3.98761 0.356724L1.51762 0.196725C0.897619 0.166725 0.687616 0.326724 0.717616 1.10672C0.717616 1.30672 0.737618 1.50672 0.727618 1.70672C0.687618 3.29672 0.807613 4.69672 1.16761 5.83672C1.18761 6.06672 1.24761 6.29673 1.34761 6.50673Z" fill="#76FF5A"/>
<path d="M1.3474 6.50715C1.4474 6.72715 1.5874 6.93715 1.7574 7.10715C2.4674 7.81715 3.1774 8.05715 3.9074 7.85715C4.3874 7.72715 4.7674 7.40715 5.0074 6.99715C5.1674 6.72715 5.2674 6.41715 5.2874 6.09715C5.2874 6.09715 5.1974 3.64715 5.1874 2.74715C5.1874 2.20715 5.1274 1.92715 4.9074 1.53715C4.6674 1.10715 4.4674 1.02715 3.9674 0.997148L1.9174 0.867147C1.2974 0.837147 1.1574 0.967147 1.1174 1.77715C1.1174 1.97715 1.1174 1.97715 1.1074 2.17715C1.0674 3.76715 0.797403 4.70715 1.1574 5.83715C1.1774 6.06715 1.2374 6.29715 1.3374 6.50715" fill="white"/>
</svg>
