<svg width="7" height="22" viewBox="0 0 7 22" fill="none" xmlns="http://www.w3.org/2000/svg">
<path d="M3.06653 9.83661C2.46653 9.83661 1.82652 9.3266 1.18652 8.3066C1.12652 8.2266 1.07652 8.1366 1.02652 8.0466C0.366519 6.9266 -0.263485 5.1066 0.506515 2.8166C1.05651 1.1466 1.83653 0.266602 2.73653 0.266602C3.63653 0.266602 4.70652 1.1866 5.68652 2.8566C5.94652 3.3066 6.08652 3.8066 6.08652 4.3166C6.08652 5.8966 5.72651 7.1466 5.00651 8.0366C4.36651 9.2266 3.71653 9.8266 3.06653 9.8266V9.83661Z" fill="#76FF5A"/>
<path d="M3.06862 9.83543C2.46862 9.83543 1.82862 9.32543 1.18862 8.30543C1.12862 8.22543 1.07862 8.13543 1.02862 8.04543C0.148616 6.55543 0.388612 5.02543 1.00861 3.16543C1.46861 1.79543 2.09861 1.06543 2.83861 1.06543C3.53861 1.06543 4.32862 1.71543 5.07862 2.90543C5.33862 3.31543 5.47861 3.82543 5.47861 4.36543C5.47861 4.70543 5.48862 5.03543 5.49862 5.34543C5.53862 6.45543 5.57861 7.32543 5.00861 8.03543C4.36861 9.22543 3.71862 9.82543 3.06862 9.82543V9.83543Z" fill="white"/>
</svg>
