<svg width="12" height="18" viewBox="0 0 12 18" fill="none" xmlns="http://www.w3.org/2000/svg">
<path d="M6.10702 8.37637C5.36702 8.37637 4.63703 8.13637 3.92703 7.65637C3.60703 7.44637 3.31702 7.18637 3.05702 6.90637C2.58702 6.39637 2.21701 5.77637 1.94701 5.07637C1.19701 3.14637 1.23702 1.74637 2.07702 0.91637C2.49702 0.49637 3.05702 0.276367 3.65702 0.276367C4.11702 0.276367 4.57702 0.39637 5.02702 0.64637C5.59702 0.95637 6.02701 1.14637 6.44701 1.14637C6.69701 1.14637 6.92701 1.07637 7.14701 0.926369C7.57701 0.646369 8.01702 0.506371 8.43702 0.506371C8.94702 0.506371 9.42702 0.726369 9.80702 1.12637C10.147 1.48637 10.367 1.99637 10.407 2.55637C10.517 3.87637 10.377 4.99637 9.97701 5.96637C9.81701 6.35637 9.57701 6.70637 9.25701 7.01637C9.12701 7.14637 8.98702 7.26637 8.82702 7.37637C7.88702 8.04637 6.96701 8.38637 6.08701 8.38637L6.10702 8.37637Z" fill="#76FF5A"/>
<path d="M6.10607 8.37644C5.36607 8.37644 4.63608 8.13645 3.92608 7.65645C3.60608 7.44645 3.31607 7.18644 3.05607 6.90644C2.65607 6.46644 2.49607 5.56644 2.38607 4.90644L2.32607 4.57645C1.96607 2.67645 1.94607 2.26645 2.52607 1.41645C2.78607 1.03645 3.08607 0.856445 3.46607 0.856445C3.84607 0.856445 4.27607 1.01645 4.94607 1.37645C5.49607 1.67645 5.97607 1.82645 6.38607 1.82645C6.71607 1.82645 6.99607 1.72645 7.22607 1.53645C7.79607 1.25645 8.23607 1.05645 8.60607 1.05645C8.91607 1.05645 9.18608 1.19645 9.48608 1.51645C9.82608 1.87645 10.0361 2.38645 10.0861 2.94645C10.1061 3.19645 10.1361 3.41644 10.1561 3.63644C10.2561 4.51644 10.3261 5.14645 9.98608 5.96645C9.82608 6.35645 9.58608 6.70644 9.26608 7.01644C9.13608 7.14644 8.99607 7.26644 8.83607 7.37644C7.89607 8.04644 6.97608 8.38644 6.09608 8.38644L6.10607 8.37644Z" fill="white"/>
</svg>
