<svg width="12" height="19" viewBox="0 0 12 19" fill="none" xmlns="http://www.w3.org/2000/svg">
<path d="M5.74418 8.77637C4.69418 8.77637 3.60418 8.52637 2.53418 8.03637C2.31418 7.93637 2.11418 7.79637 1.93418 7.63637C1.81418 7.52637 1.69418 7.39637 1.60418 7.24637C0.474176 5.57637 -0.0158296 3.95637 0.11417 2.30637C0.15417 2.02637 0.214184 1.78637 0.284184 1.57637C0.454184 1.05637 0.894177 0.64637 1.46418 0.46637C1.87418 0.33637 2.31417 0.276367 2.77417 0.276367C3.44417 0.276367 4.18418 0.40637 5.01418 0.66637C5.25418 0.77637 5.50417 0.836369 5.75417 0.836369C6.00417 0.836369 6.25417 0.776368 6.50417 0.656368C6.98417 0.406368 7.39417 0.30637 7.80417 0.30637C8.08417 0.30637 8.37418 0.356367 8.67418 0.456367C9.11418 0.516367 9.56417 0.786369 10.0542 1.28637C10.3442 1.57637 10.5342 1.95637 10.6042 2.35637C10.7942 3.56637 10.8142 4.65637 10.6342 5.70637C10.5942 6.12637 10.4842 6.51637 10.3042 6.85637C10.1042 7.24637 9.75418 7.58637 9.31418 7.82637C8.14418 8.45637 6.95418 8.77637 5.76418 8.77637H5.74418Z" fill="#76FF5A"/>
<path d="M5.7473 8.7766C4.6973 8.7766 3.60731 8.5266 2.53731 8.0366C2.31731 7.9366 2.11731 7.7966 1.93731 7.6366C1.81731 7.5266 1.6973 7.3966 1.6073 7.2466C0.597304 5.7566 0.487308 4.5166 0.627308 2.6166C0.647308 2.5166 0.667306 2.4066 0.687306 2.3066C0.897306 1.3866 1.6873 0.766602 2.6373 0.766602C2.6873 0.766602 2.73731 0.766602 2.79731 0.766602C3.30731 0.806602 3.8173 0.9766 4.4673 1.1866L5.0273 1.3666C5.2673 1.4766 5.51731 1.5366 5.76731 1.5366C6.01731 1.5366 6.26731 1.4766 6.51731 1.3566L6.8673 1.1666C7.2073 0.976603 7.3973 0.876602 7.6973 0.876602C7.8273 0.876602 7.97731 0.896602 8.17731 0.946602C8.68731 1.0666 9.07731 1.2166 9.48731 1.6166C9.74731 1.8666 9.93731 2.2266 10.0673 2.7066C10.1273 2.9466 10.2073 3.1966 10.2973 3.4466C10.5273 4.1466 10.7673 4.8766 10.6373 5.6766C10.5973 6.0966 10.4873 6.4866 10.3073 6.8266C10.1073 7.2166 9.75731 7.5566 9.31731 7.7966C8.14731 8.4266 6.95731 8.7466 5.76731 8.7466L5.7473 8.7766Z" fill="white"/>
</svg>
