<svg width="5" height="18" viewBox="0 0 5 18" fill="none" xmlns="http://www.w3.org/2000/svg">
<path d="M1.10563 7.18659C0.895629 6.78659 0.795627 6.33659 0.775627 5.88659L0.64563 2.42659C0.59563 1.63659 0.92563 1.22659 1.39563 0.926588C2.10563 0.416588 3.13563 0.0865891 3.98563 0.236589C4.60563 0.346589 4.60563 0.286587 4.68563 0.816587C4.72563 1.06659 4.73563 1.31659 4.71563 1.56659C4.60563 3.15659 4.44563 4.62659 4.28563 5.99659C4.24563 6.36659 4.10563 6.70659 3.89563 7.00659C3.87563 7.03659 3.84563 7.06659 3.82563 7.10659C2.79563 8.36659 1.94563 8.47659 1.25563 7.43659C1.20563 7.36659 1.15563 7.28659 1.11563 7.20659" fill="#76FF5A"/>
<path d="M1.10735 7.18662C0.897346 6.78662 0.797344 6.33662 0.777344 5.88662L0.987343 2.56662C0.937343 1.77662 1.31734 1.59662 1.77734 1.28662C2.49734 0.796617 2.57734 0.676615 3.48734 0.686615C4.11734 0.686615 4.16734 0.626616 4.23734 1.15662C4.27734 1.40662 4.26734 1.77662 4.23734 2.01662C4.12734 3.60662 4.42734 4.62662 4.27734 5.98662C4.23734 6.35662 4.09734 6.69662 3.88734 6.99662C3.86734 7.02662 3.83734 7.05661 3.81734 7.09661C2.78734 8.35661 1.93734 8.46662 1.24734 7.42662C1.19734 7.35662 1.14735 7.27661 1.10735 7.19661" fill="white"/>
</svg>
