<svg width="5" height="19" viewBox="0 0 5 19" fill="none" xmlns="http://www.w3.org/2000/svg">
<path d="M4.26734 6.50673C4.16734 6.72673 4.02734 6.93672 3.85734 7.10672C3.14734 7.81672 2.43734 8.05672 1.70734 7.85672C1.22734 7.72672 0.847342 7.40672 0.607342 6.99672C0.447342 6.72672 0.347343 6.41672 0.327343 6.09672C0.327343 6.09672 0.0273438 3.40673 0.0273438 2.50673C0.0273438 1.96673 0.207341 1.49672 0.427341 1.09672C0.667341 0.666722 1.12734 0.386724 1.62734 0.356724L4.09734 0.196725C4.71734 0.166725 4.92734 0.326724 4.89734 1.10672C4.89734 1.30672 4.87734 1.50672 4.88734 1.70672C4.92734 3.29672 4.80734 4.69672 4.44734 5.83672C4.42734 6.06672 4.36734 6.29673 4.26734 6.50673Z" fill="#76FF5A"/>
<path d="M4.26812 6.50715C4.16812 6.72715 4.02812 6.93715 3.85812 7.10715C3.14812 7.81715 2.43813 8.05715 1.70813 7.85715C1.22813 7.72715 0.848124 7.40715 0.608124 6.99715C0.448124 6.72715 0.348125 6.41715 0.328125 6.09715C0.328125 6.09715 0.418123 3.64715 0.428123 2.74715C0.428123 2.20715 0.488126 1.92715 0.708126 1.53715C0.948126 1.10715 1.14812 1.02715 1.64812 0.997148L3.69812 0.867147C4.31812 0.837147 4.45812 0.967147 4.49812 1.77715C4.49812 1.97715 4.49813 1.97715 4.50813 2.17715C4.54813 3.76715 4.81813 4.70715 4.45813 5.83715C4.43813 6.06715 4.37813 6.29715 4.27813 6.50715" fill="white"/>
</svg>
