<svg width="7" height="22" viewBox="0 0 7 22" fill="none" xmlns="http://www.w3.org/2000/svg">
<path d="M3.54344 9.83637C2.89344 9.83637 2.24344 9.23637 1.61344 8.05637C0.893438 7.15637 0.533437 5.90637 0.523438 4.32637C0.523438 3.81637 0.663435 3.30637 0.923435 2.86637C1.90344 1.19637 2.95344 0.276367 3.87344 0.276367C4.79344 0.276367 5.55344 1.15637 6.10344 2.82637C6.87344 5.11637 6.24343 6.93637 5.58344 8.05637C5.53343 8.14637 5.48344 8.22637 5.42344 8.31637C4.77344 9.32637 4.14344 9.84637 3.54344 9.84637V9.83637Z" fill="#76FF5A"/>
<path d="M3.54407 9.83617C2.89407 9.83617 2.24407 9.23617 1.61407 8.05617C1.03407 7.33617 1.07407 6.46617 1.11407 5.35617C1.12407 5.04617 1.13407 4.71617 1.13407 4.37617C1.13407 3.83617 1.27407 3.32617 1.53407 2.91617C2.28407 1.73617 3.07407 1.07617 3.77407 1.07617C4.51407 1.07617 5.14407 1.79617 5.60407 3.17617C6.22407 5.02617 6.45407 6.56617 5.58407 8.05617C5.53407 8.14617 5.48407 8.22617 5.42407 8.31617C4.77407 9.32617 4.14407 9.84617 3.54407 9.84617V9.83617Z" fill="white"/>
</svg>
