<svg width="12" height="18" viewBox="0 0 12 18" fill="none" xmlns="http://www.w3.org/2000/svg">
<path d="M5.50854 8.3766C4.62854 8.3766 3.70854 8.0366 2.76854 7.3666C2.61854 7.2566 2.47854 7.1366 2.33854 7.0066C2.01854 6.6966 1.77854 6.3466 1.61854 5.9566C1.21854 4.9866 1.07854 3.8666 1.18854 2.5466C1.23854 1.9866 1.44854 1.4766 1.78854 1.1166C2.16854 0.7066 2.64854 0.496601 3.15854 0.496601C3.57854 0.496601 4.01854 0.636603 4.44854 0.916603C4.66854 1.0566 4.89854 1.1366 5.14854 1.1366C5.55854 1.1366 5.99854 0.9466 6.56854 0.6366C7.01854 0.3866 7.47854 0.266602 7.93854 0.266602C8.53854 0.266602 9.10854 0.496601 9.51854 0.906601C10.3485 1.7366 10.3985 3.1366 9.64854 5.0666C9.37854 5.7666 9.00854 6.3866 8.53854 6.8966C8.27854 7.1866 7.98854 7.4366 7.66854 7.6466C6.96854 8.1266 6.22854 8.3666 5.48854 8.3666L5.50854 8.3766Z" fill="#76FF5A"/>
<path d="M5.50527 8.37644C4.62527 8.37644 3.70527 8.03645 2.76527 7.36645C2.61527 7.25645 2.47527 7.13645 2.33527 7.00645C2.01527 6.69645 1.77527 6.34644 1.61527 5.95644C1.27527 5.14644 1.35527 4.50644 1.44527 3.63644C1.46527 3.41644 1.49527 3.19645 1.51527 2.94645C1.56527 2.38645 1.77527 1.87645 2.11527 1.51645C2.41527 1.19645 2.68527 1.05645 2.99527 1.05645C3.36527 1.05645 3.80527 1.25644 4.39527 1.54644C4.61527 1.72644 4.89527 1.82645 5.22527 1.82645C5.63527 1.82645 6.11527 1.67645 6.66527 1.37645C7.33527 1.01645 7.77527 0.856445 8.14527 0.856445C8.51527 0.856445 8.82527 1.03645 9.08527 1.41645C9.66527 2.26645 9.64527 2.66645 9.28527 4.57645L9.22527 4.90644C9.10527 5.56644 8.95527 6.46644 8.55527 6.90644C8.29527 7.19644 8.00527 7.44645 7.68527 7.65645C6.98527 8.13645 6.24527 8.37644 5.50527 8.37644Z" fill="white"/>
</svg>
