<svg width="13" height="19" viewBox="0 0 13 19" fill="none" xmlns="http://www.w3.org/2000/svg">
<path d="M6.86542 8.77586C5.67542 8.77586 4.47542 8.45586 3.31542 7.82586C2.87542 7.58586 2.52542 7.24586 2.32542 6.85586C2.14542 6.51586 2.03542 6.12586 1.99542 5.70586C1.82542 4.65586 1.83542 3.55586 2.02542 2.35586C2.08542 1.95586 2.28542 1.57586 2.56542 1.28586C3.05542 0.785858 3.50542 0.515856 3.92542 0.455856C4.23542 0.355856 4.52542 0.305859 4.80542 0.305859C5.21542 0.305859 5.62542 0.415856 6.02542 0.615856C6.35542 0.765856 6.60542 0.825859 6.85542 0.825859C7.10542 0.825859 7.35542 0.765859 7.60542 0.645859C8.42542 0.385859 9.15542 0.255859 9.83542 0.255859C10.2954 0.255859 10.7454 0.315858 11.1454 0.445858C11.7154 0.615858 12.1554 1.03586 12.3254 1.55586C12.3954 1.76586 12.4554 2.01586 12.4954 2.29586C12.6154 3.94586 12.1254 5.56586 11.0054 7.23586C10.9054 7.37585 10.7954 7.50585 10.6754 7.62585C10.4954 7.79585 10.2954 7.92586 10.0754 8.02586C8.99542 8.51586 7.91542 8.76585 6.86542 8.76585V8.77586Z" fill="#76FF5A"/>
<path d="M6.8676 8.77613C5.6776 8.77613 4.4776 8.45613 3.3176 7.82613C2.8776 7.58613 2.5276 7.24613 2.3276 6.85613C2.1476 6.51613 2.0376 6.12613 1.9976 5.70613C1.8676 4.89613 2.1076 4.16613 2.3376 3.46613C2.4176 3.21613 2.4976 2.97613 2.5676 2.73613C2.6976 2.25613 2.8876 1.89613 3.1476 1.64613C3.5576 1.24613 3.9476 1.09613 4.4576 0.976131C4.6476 0.926131 4.7976 0.906132 4.9376 0.906132C5.2276 0.906132 5.4176 1.00613 5.7676 1.19613L6.1176 1.38613C6.3676 1.50613 6.6176 1.56613 6.8676 1.56613C7.1176 1.56613 7.3676 1.50613 7.6176 1.38613L8.1676 1.20613C8.8176 0.986131 9.3276 0.816133 9.8376 0.786133C9.8876 0.786133 9.9376 0.786133 9.9976 0.786133C10.9476 0.786133 11.7376 1.40613 11.9476 2.32613C11.9676 2.42613 11.9876 2.52613 12.0076 2.63613C12.1476 4.52613 12.0376 5.76613 11.0276 7.25613C10.9276 7.39613 10.8176 7.52613 10.6976 7.64613C10.5176 7.81613 10.3176 7.94613 10.0976 8.04613C9.0176 8.53613 7.9376 8.78613 6.8876 8.78613L6.8676 8.77613Z" fill="white"/>
</svg>
