<svg width="23" height="28" viewBox="0 0 23 28" fill="none" xmlns="http://www.w3.org/2000/svg">
<path d="M6.67062 20.54H4.4306C4.13237 20.54 3.89062 20.7818 3.89062 21.08V23.32C3.89062 23.6183 4.13237 23.86 4.4306 23.86H6.67062C6.96886 23.86 7.2106 23.6183 7.2106 23.32V21.08C7.2106 20.7818 6.96886 20.54 6.67062 20.54Z" fill="#DDDDDD" stroke="#5E5E5A" stroke-width="0.15" stroke-miterlimit="10" stroke-linecap="round"/>
<path d="M6.16061 21.29H4.9306C4.77044 21.29 4.64062 21.4199 4.64062 21.58V22.81C4.64062 22.9702 4.77044 23.1 4.9306 23.1H6.16061C6.32078 23.1 6.45062 22.9702 6.45062 22.81V21.58C6.45062 21.4199 6.32078 21.29 6.16061 21.29Z" fill="#DDDDDD" stroke="#5E5E5A" stroke-width="0.15" stroke-miterlimit="10" stroke-linecap="round"/>
<path d="M6.10938 23.0903C6.10938 23.2703 6.25939 23.4203 6.43939 23.4203C6.61939 23.4203 6.76938 23.2703 6.76938 23.0903V21.4003C6.76938 21.2203 6.61939 21.0703 6.43939 21.0703C6.25939 21.0703 6.10938 21.2203 6.10938 21.4003V23.0903Z" fill="#DDDDDD" stroke="#5E5E5A" stroke-width="0.15" stroke-miterlimit="10" stroke-linecap="round"/>
<path d="M4.32031 23.0903C4.32031 23.2703 4.4703 23.4203 4.6503 23.4203C4.8303 23.4203 4.98032 23.2703 4.98032 23.0903V21.4003C4.98032 21.2203 4.8303 21.0703 4.6503 21.0703C4.4703 21.0703 4.32031 21.2203 4.32031 21.4003V23.0903Z" fill="#DDDDDD" stroke="#5E5E5A" stroke-width="0.15" stroke-miterlimit="10" stroke-linecap="round"/>
<path d="M21.9409 21.8496H7.21094V22.5496H21.9409V21.8496Z" fill="#DDDDDD" stroke="#5E5E5A" stroke-width="0.15" stroke-miterlimit="10" stroke-linecap="round"/>
</svg>
