<svg width="21" height="27" viewBox="0 0 21 27" fill="none" xmlns="http://www.w3.org/2000/svg">
<path d="M5.58078 19.54H3.34079C3.04256 19.54 2.80078 19.7818 2.80078 20.08V22.32C2.80078 22.6183 3.04256 22.86 3.34079 22.86H5.58078C5.87901 22.86 6.12079 22.6183 6.12079 22.32V20.08C6.12079 19.7818 5.87901 19.54 5.58078 19.54Z" fill="#DDDDDD" stroke="#5E5E5A" stroke-width="0.15" stroke-miterlimit="10" stroke-linecap="round"/>
<path d="M5.08249 20.29H3.85251C3.69235 20.29 3.5625 20.4199 3.5625 20.58V21.81C3.5625 21.9702 3.69235 22.1 3.85251 22.1H5.08249C5.24265 22.1 5.3725 21.9702 5.3725 21.81V20.58C5.3725 20.4199 5.24265 20.29 5.08249 20.29Z" fill="#DDDDDD" stroke="#5E5E5A" stroke-width="0.15" stroke-miterlimit="10" stroke-linecap="round"/>
<path d="M5.03125 22.0903C5.03125 22.2703 5.18124 22.4203 5.36124 22.4203C5.54124 22.4203 5.69125 22.2703 5.69125 22.0903V20.4003C5.69125 20.2203 5.54124 20.0703 5.36124 20.0703C5.18124 20.0703 5.03125 20.2203 5.03125 20.4003V22.0903Z" fill="#DDDDDD" stroke="#5E5E5A" stroke-width="0.15" stroke-miterlimit="10" stroke-linecap="round"/>
<path d="M3.23047 22.0903C3.23047 22.2703 3.38046 22.4203 3.56046 22.4203C3.74046 22.4203 3.89047 22.2703 3.89047 22.0903V20.4003C3.89047 20.2203 3.74046 20.0703 3.56046 20.0703C3.38046 20.0703 3.23047 20.2203 3.23047 20.4003V22.0903Z" fill="#DDDDDD" stroke="#5E5E5A" stroke-width="0.15" stroke-miterlimit="10" stroke-linecap="round"/>
<path d="M20.8889 20.8496H6.12891V21.5496H20.8889V20.8496Z" fill="#DDDDDD" stroke="#5E5E5A" stroke-width="0.15" stroke-miterlimit="10" stroke-linecap="round"/>
</svg>
