<svg width="22" height="32" viewBox="0 0 22 32" fill="none" xmlns="http://www.w3.org/2000/svg">
<path d="M5.81125 24.54H3.57126C3.27302 24.54 3.03125 24.7818 3.03125 25.08V27.32C3.03125 27.6183 3.27302 27.86 3.57126 27.86H5.81125C6.10948 27.86 6.35126 27.6183 6.35126 27.32V25.08C6.35126 24.7818 6.10948 24.54 5.81125 24.54Z" fill="#DDDDDD" stroke="#5E5E5A" stroke-width="0.15" stroke-miterlimit="10" stroke-linecap="round"/>
<path d="M5.30124 25.29H4.07126C3.9111 25.29 3.78125 25.4199 3.78125 25.58V26.81C3.78125 26.9702 3.9111 27.1 4.07126 27.1H5.30124C5.4614 27.1 5.59125 26.9702 5.59125 26.81V25.58C5.59125 25.4199 5.4614 25.29 5.30124 25.29Z" fill="#DDDDDD" stroke="#5E5E5A" stroke-width="0.15" stroke-miterlimit="10" stroke-linecap="round"/>
<path d="M5.25 27.0903C5.25 27.2703 5.39999 27.4203 5.57999 27.4203C5.75999 27.4203 5.91 27.2703 5.91 27.0903V25.4003C5.91 25.2203 5.75999 25.0703 5.57999 25.0703C5.39999 25.0703 5.25 25.2203 5.25 25.4003V27.0903Z" fill="#DDDDDD" stroke="#5E5E5A" stroke-width="0.15" stroke-miterlimit="10" stroke-linecap="round"/>
<path d="M3.46094 27.0903C3.46094 27.2703 3.61095 27.4203 3.79095 27.4203C3.97095 27.4203 4.12094 27.2703 4.12094 27.0903V25.4003C4.12094 25.2203 3.97095 25.0703 3.79095 25.0703C3.61095 25.0703 3.46094 25.2203 3.46094 25.4003V27.0903Z" fill="#DDDDDD" stroke="#5E5E5A" stroke-width="0.15" stroke-miterlimit="10" stroke-linecap="round"/>
<path d="M21.8116 25.8496H6.35156V26.5496H21.8116V25.8496Z" fill="#DDDDDD" stroke="#5E5E5A" stroke-width="0.15" stroke-miterlimit="10" stroke-linecap="round"/>
</svg>
