<svg width="23" height="28" viewBox="0 0 23 28" fill="none" xmlns="http://www.w3.org/2000/svg">
<path d="M6.83078 20.54H4.59079C4.29256 20.54 4.05078 20.7818 4.05078 21.08V23.32C4.05078 23.6183 4.29256 23.86 4.59079 23.86H6.83078C7.12901 23.86 7.37079 23.6183 7.37079 23.32V21.08C7.37079 20.7818 7.12901 20.54 6.83078 20.54Z" fill="#DDDDDD" stroke="#5E5E5A" stroke-width="0.15" stroke-miterlimit="10" stroke-linecap="round"/>
<path d="M6.33249 21.29H5.10251C4.94235 21.29 4.8125 21.4199 4.8125 21.58V22.81C4.8125 22.9702 4.94235 23.1 5.10251 23.1H6.33249C6.49265 23.1 6.6225 22.9702 6.6225 22.81V21.58C6.6225 21.4199 6.49265 21.29 6.33249 21.29Z" fill="#DDDDDD" stroke="#5E5E5A" stroke-width="0.15" stroke-miterlimit="10" stroke-linecap="round"/>
<path d="M6.28125 23.0903C6.28125 23.2703 6.43124 23.4203 6.61124 23.4203C6.79124 23.4203 6.94125 23.2703 6.94125 23.0903V21.4003C6.94125 21.2203 6.79124 21.0703 6.61124 21.0703C6.43124 21.0703 6.28125 21.2203 6.28125 21.4003V23.0903Z" fill="#DDDDDD" stroke="#5E5E5A" stroke-width="0.15" stroke-miterlimit="10" stroke-linecap="round"/>
<path d="M4.48047 23.0903C4.48047 23.2703 4.63046 23.4203 4.81046 23.4203C4.99046 23.4203 5.14047 23.2703 5.14047 23.0903V21.4003C5.14047 21.2203 4.99046 21.0703 4.81046 21.0703C4.63046 21.0703 4.48047 21.2203 4.48047 21.4003V23.0903Z" fill="#DDDDDD" stroke="#5E5E5A" stroke-width="0.15" stroke-miterlimit="10" stroke-linecap="round"/>
<path d="M22.0289 21.8496H7.37891V22.5496H22.0289V21.8496Z" fill="#DDDDDD" stroke="#5E5E5A" stroke-width="0.15" stroke-miterlimit="10" stroke-linecap="round"/>
</svg>
