<svg width="22" height="26" viewBox="0 0 22 26" fill="none" xmlns="http://www.w3.org/2000/svg">
<path d="M21.0614 19.8496H6.19141V20.5496H21.0614V19.8496Z" fill="#DDDDDD" stroke="#5E5E5A" stroke-width="0.15" stroke-miterlimit="10" stroke-linecap="round"/>
<path d="M5.65109 18.54H3.4111C3.11287 18.54 2.87109 18.7818 2.87109 19.08V21.32C2.87109 21.6183 3.11287 21.86 3.4111 21.86H5.65109C5.94933 21.86 6.1911 21.6183 6.1911 21.32V19.08C6.1911 18.7818 5.94933 18.54 5.65109 18.54Z" fill="#DDDDDD" stroke="#5E5E5A" stroke-width="0.15" stroke-miterlimit="10" stroke-linecap="round"/>
<path d="M5.1411 19.29H3.9111C3.75094 19.29 3.62109 19.4199 3.62109 19.58V20.81C3.62109 20.9702 3.75094 21.1 3.9111 21.1H5.1411C5.30126 21.1 5.43109 20.9702 5.43109 20.81V19.58C5.43109 19.4199 5.30126 19.29 5.1411 19.29Z" fill="#DDDDDD" stroke="#5E5E5A" stroke-width="0.15" stroke-miterlimit="10" stroke-linecap="round"/>
<path d="M5.08984 21.0903C5.08984 21.2703 5.23985 21.4203 5.41985 21.4203C5.59985 21.4203 5.74985 21.2703 5.74985 21.0903V19.4003C5.74985 19.2203 5.59985 19.0703 5.41985 19.0703C5.23985 19.0703 5.08984 19.2203 5.08984 19.4003V21.0903Z" fill="#DDDDDD" stroke="#5E5E5A" stroke-width="0.15" stroke-miterlimit="10" stroke-linecap="round"/>
<path d="M3.30078 21.0903C3.30078 21.2703 3.45078 21.4203 3.63078 21.4203C3.81078 21.4203 3.96078 21.2703 3.96078 21.0903V19.4003C3.96078 19.2203 3.81078 19.0703 3.63078 19.0703C3.45078 19.0703 3.30078 19.2203 3.30078 19.4003V21.0903Z" fill="#DDDDDD" stroke="#5E5E5A" stroke-width="0.15" stroke-miterlimit="10" stroke-linecap="round"/>
</svg>
