<svg width="23" height="27" viewBox="0 0 23 27" fill="none" xmlns="http://www.w3.org/2000/svg">
<path d="M22.8714 20.8496H7.44141V21.5496H22.8714V20.8496Z" fill="#DDDDDD" stroke="#5E5E5A" stroke-width="0.15" stroke-miterlimit="10" stroke-linecap="round"/>
<path d="M6.90109 19.54H4.6611C4.36287 19.54 4.12109 19.7818 4.12109 20.08V22.32C4.12109 22.6183 4.36287 22.86 4.6611 22.86H6.90109C7.19933 22.86 7.4411 22.6183 7.4411 22.32V20.08C7.4411 19.7818 7.19933 19.54 6.90109 19.54Z" fill="#DDDDDD" stroke="#5E5E5A" stroke-width="0.15" stroke-miterlimit="10" stroke-linecap="round"/>
<path d="M6.3911 20.29H5.1611C5.00094 20.29 4.87109 20.4199 4.87109 20.58V21.81C4.87109 21.9702 5.00094 22.1 5.1611 22.1H6.3911C6.55126 22.1 6.68109 21.9702 6.68109 21.81V20.58C6.68109 20.4199 6.55126 20.29 6.3911 20.29Z" fill="#DDDDDD" stroke="#5E5E5A" stroke-width="0.15" stroke-miterlimit="10" stroke-linecap="round"/>
<path d="M6.33984 22.0903C6.33984 22.2703 6.48985 22.4203 6.66985 22.4203C6.84985 22.4203 6.99985 22.2703 6.99985 22.0903V20.4003C6.99985 20.2203 6.84985 20.0703 6.66985 20.0703C6.48985 20.0703 6.33984 20.2203 6.33984 20.4003V22.0903Z" fill="#DDDDDD" stroke="#5E5E5A" stroke-width="0.15" stroke-miterlimit="10" stroke-linecap="round"/>
<path d="M4.55078 22.0903C4.55078 22.2703 4.70078 22.4203 4.88078 22.4203C5.06078 22.4203 5.21078 22.2703 5.21078 22.0903V20.4003C5.21078 20.2203 5.06078 20.0703 4.88078 20.0703C4.70078 20.0703 4.55078 20.2203 4.55078 20.4003V22.0903Z" fill="#DDDDDD" stroke="#5E5E5A" stroke-width="0.15" stroke-miterlimit="10" stroke-linecap="round"/>
</svg>
