<svg width="24" height="25" viewBox="0 0 24 25" fill="none" xmlns="http://www.w3.org/2000/svg">
<path d="M8.08859 17.54H5.8486C5.55037 17.54 5.30859 17.7818 5.30859 18.08V20.32C5.30859 20.6183 5.55037 20.86 5.8486 20.86H8.08859C8.38683 20.86 8.6286 20.6183 8.6286 20.32V18.08C8.6286 17.7818 8.38683 17.54 8.08859 17.54Z" fill="#DDDDDD" stroke="#5E5E5A" stroke-width="0.15" stroke-miterlimit="10" stroke-linecap="round"/>
<path d="M7.5786 18.29H6.3486C6.18844 18.29 6.05859 18.4199 6.05859 18.58V19.81C6.05859 19.9702 6.18844 20.1 6.3486 20.1H7.5786C7.73876 20.1 7.86859 19.9702 7.86859 19.81V18.58C7.86859 18.4199 7.73876 18.29 7.5786 18.29Z" fill="#DDDDDD" stroke="#5E5E5A" stroke-width="0.15" stroke-miterlimit="10" stroke-linecap="round"/>
<path d="M7.53125 20.0903C7.53125 20.2703 7.68125 20.4203 7.86125 20.4203C8.04125 20.4203 8.19125 20.2703 8.19125 20.0903V18.4003C8.19125 18.2203 8.04125 18.0703 7.86125 18.0703C7.68125 18.0703 7.53125 18.2203 7.53125 18.4003V20.0903Z" fill="#DDDDDD" stroke="#5E5E5A" stroke-width="0.15" stroke-miterlimit="10" stroke-linecap="round"/>
<path d="M5.73828 20.0903C5.73828 20.2703 5.88828 20.4203 6.06828 20.4203C6.24828 20.4203 6.39827 20.2703 6.39827 20.0903V18.4003C6.39827 18.2203 6.24828 18.0703 6.06828 18.0703C5.88828 18.0703 5.73828 18.2203 5.73828 18.4003V20.0903Z" fill="#DDDDDD" stroke="#5E5E5A" stroke-width="0.15" stroke-miterlimit="10" stroke-linecap="round"/>
<path d="M23.1189 18.8496H8.62891V19.5496H23.1189V18.8496Z" fill="#DDDDDD" stroke="#5E5E5A" stroke-width="0.15" stroke-miterlimit="10" stroke-linecap="round"/>
</svg>
