<svg width="23" height="24" viewBox="0 0 23 24" fill="none" xmlns="http://www.w3.org/2000/svg">
<path d="M7.45187 16.54H5.21188C4.91365 16.54 4.67188 16.7818 4.67188 17.08V19.32C4.67188 19.6183 4.91365 19.86 5.21188 19.86H7.45187C7.75011 19.86 7.99188 19.6183 7.99188 19.32V17.08C7.99188 16.7818 7.75011 16.54 7.45187 16.54Z" fill="#DDDDDD" stroke="#5E5E5A" stroke-width="0.15" stroke-miterlimit="10" stroke-linecap="round"/>
<path d="M6.94969 17.29H5.7197C5.55953 17.29 5.42969 17.4199 5.42969 17.58V18.81C5.42969 18.9702 5.55953 19.1 5.7197 19.1H6.94969C7.10985 19.1 7.2397 18.9702 7.2397 18.81V17.58C7.2397 17.4199 7.10985 17.29 6.94969 17.29Z" fill="#DDDDDD" stroke="#5E5E5A" stroke-width="0.15" stroke-miterlimit="10" stroke-linecap="round"/>
<path d="M6.89062 19.0903C6.89062 19.2703 7.04063 19.4203 7.22063 19.4203C7.40063 19.4203 7.55063 19.2703 7.55063 19.0903V17.4003C7.55063 17.2203 7.40063 17.0703 7.22063 17.0703C7.04063 17.0703 6.89062 17.2203 6.89062 17.4003V19.0903Z" fill="#DDDDDD" stroke="#5E5E5A" stroke-width="0.15" stroke-miterlimit="10" stroke-linecap="round"/>
<path d="M5.10156 19.0903C5.10156 19.2703 5.25155 19.4203 5.43155 19.4203C5.61155 19.4203 5.76155 19.2703 5.76155 19.0903V17.4003C5.76155 17.2203 5.61155 17.0703 5.43155 17.0703C5.25155 17.0703 5.10156 17.2203 5.10156 17.4003V19.0903Z" fill="#DDDDDD" stroke="#5E5E5A" stroke-width="0.15" stroke-miterlimit="10" stroke-linecap="round"/>
<path d="M22.3083 17.8496H7.98828V18.5496H22.3083V17.8496Z" fill="#DDDDDD" stroke="#5E5E5A" stroke-width="0.15" stroke-miterlimit="10" stroke-linecap="round"/>
</svg>
