<svg width="23" height="28" viewBox="0 0 23 28" fill="none" xmlns="http://www.w3.org/2000/svg">
<path d="M6.72141 20.54H4.48141C4.18318 20.54 3.94141 20.7818 3.94141 21.08V23.32C3.94141 23.6183 4.18318 23.86 4.48141 23.86H6.72141C7.01964 23.86 7.26141 23.6183 7.26141 23.32V21.08C7.26141 20.7818 7.01964 20.54 6.72141 20.54Z" fill="#DDDDDD" stroke="#5E5E5A" stroke-width="0.15" stroke-miterlimit="10" stroke-linecap="round"/>
<path d="M6.2114 21.29H4.98141C4.82125 21.29 4.69141 21.4199 4.69141 21.58V22.81C4.69141 22.9702 4.82125 23.1 4.98141 23.1H6.2114C6.37156 23.1 6.5014 22.9702 6.5014 22.81V21.58C6.5014 21.4199 6.37156 21.29 6.2114 21.29Z" fill="#DDDDDD" stroke="#5E5E5A" stroke-width="0.15" stroke-miterlimit="10" stroke-linecap="round"/>
<path d="M6.16016 23.0903C6.16016 23.2703 6.31014 23.4203 6.49014 23.4203C6.67014 23.4203 6.82016 23.2703 6.82016 23.0903V21.4003C6.82016 21.2203 6.67014 21.0703 6.49014 21.0703C6.31014 21.0703 6.16016 21.2203 6.16016 21.4003V23.0903Z" fill="#DDDDDD" stroke="#5E5E5A" stroke-width="0.15" stroke-miterlimit="10" stroke-linecap="round"/>
<path d="M4.37109 23.0903C4.37109 23.2703 4.52111 23.4203 4.70111 23.4203C4.88111 23.4203 5.0311 23.2703 5.0311 23.0903V21.4003C5.0311 21.2203 4.88111 21.0703 4.70111 21.0703C4.52111 21.0703 4.37109 21.2203 4.37109 21.4003V23.0903Z" fill="#DDDDDD" stroke="#5E5E5A" stroke-width="0.15" stroke-miterlimit="10" stroke-linecap="round"/>
<path d="M22.1117 21.8496H7.26172V22.5496H22.1117V21.8496Z" fill="#DDDDDD" stroke="#5E5E5A" stroke-width="0.15" stroke-miterlimit="10" stroke-linecap="round"/>
</svg>
