<svg width="22" height="27" viewBox="0 0 22 27" fill="none" xmlns="http://www.w3.org/2000/svg">
<path d="M5.90109 19.54H3.6611C3.36287 19.54 3.12109 19.7818 3.12109 20.08V22.32C3.12109 22.6183 3.36287 22.86 3.6611 22.86H5.90109C6.19933 22.86 6.4411 22.6183 6.4411 22.32V20.08C6.4411 19.7818 6.19933 19.54 5.90109 19.54Z" fill="#DDDDDD" stroke="#5E5E5A" stroke-width="0.15" stroke-miterlimit="10" stroke-linecap="round"/>
<path d="M5.39111 20.29H4.1611C4.00094 20.29 3.87109 20.4199 3.87109 20.58V21.81C3.87109 21.9702 4.00094 22.1 4.1611 22.1H5.39111C5.55128 22.1 5.68109 21.9702 5.68109 21.81V20.58C5.68109 20.4199 5.55128 20.29 5.39111 20.29Z" fill="#DDDDDD" stroke="#5E5E5A" stroke-width="0.15" stroke-miterlimit="10" stroke-linecap="round"/>
<path d="M5.33984 22.0903C5.33984 22.2703 5.48986 22.4203 5.66986 22.4203C5.84986 22.4203 5.99985 22.2703 5.99985 22.0903V20.4003C5.99985 20.2203 5.84986 20.0703 5.66986 20.0703C5.48986 20.0703 5.33984 20.2203 5.33984 20.4003V22.0903Z" fill="#DDDDDD" stroke="#5E5E5A" stroke-width="0.15" stroke-miterlimit="10" stroke-linecap="round"/>
<path d="M3.53906 22.0903C3.53906 22.2703 3.68905 22.4203 3.86905 22.4203C4.04905 22.4203 4.19907 22.2703 4.19907 22.0903V20.4003C4.19907 20.2203 4.04905 20.0703 3.86905 20.0703C3.68905 20.0703 3.53906 20.2203 3.53906 20.4003V22.0903Z" fill="#DDDDDD" stroke="#5E5E5A" stroke-width="0.15" stroke-miterlimit="10" stroke-linecap="round"/>
<path d="M21.7814 20.8496H6.44141V21.5496H21.7814V20.8496Z" fill="#DDDDDD" stroke="#5E5E5A" stroke-width="0.15" stroke-miterlimit="10" stroke-linecap="round"/>
</svg>
