<svg width="22" height="32" viewBox="0 0 22 32" fill="none" xmlns="http://www.w3.org/2000/svg">
<path d="M6.56125 24.54H4.32126C4.02302 24.54 3.78125 24.7818 3.78125 25.08V27.32C3.78125 27.6183 4.02302 27.86 4.32126 27.86H6.56125C6.85948 27.86 7.10126 27.6183 7.10126 27.32V25.08C7.10126 24.7818 6.85948 24.54 6.56125 24.54Z" fill="#DDDDDD" stroke="#5E5E5A" stroke-width="0.15" stroke-miterlimit="10" stroke-linecap="round"/>
<path d="M6.05124 25.29H4.82126C4.6611 25.29 4.53125 25.4199 4.53125 25.58V26.81C4.53125 26.9702 4.6611 27.1 4.82126 27.1H6.05124C6.2114 27.1 6.34125 26.9702 6.34125 26.81V25.58C6.34125 25.4199 6.2114 25.29 6.05124 25.29Z" fill="#DDDDDD" stroke="#5E5E5A" stroke-width="0.15" stroke-miterlimit="10" stroke-linecap="round"/>
<path d="M6 27.0903C6 27.2703 6.14999 27.4203 6.32999 27.4203C6.50999 27.4203 6.66 27.2703 6.66 27.0903V25.4003C6.66 25.2203 6.50999 25.0703 6.32999 25.0703C6.14999 25.0703 6 25.2203 6 25.4003V27.0903Z" fill="#DDDDDD" stroke="#5E5E5A" stroke-width="0.15" stroke-miterlimit="10" stroke-linecap="round"/>
<path d="M4.21094 27.0903C4.21094 27.2703 4.36095 27.4203 4.54095 27.4203C4.72095 27.4203 4.87094 27.2703 4.87094 27.0903V25.4003C4.87094 25.2203 4.72095 25.0703 4.54095 25.0703C4.36095 25.0703 4.21094 25.2203 4.21094 25.4003V27.0903Z" fill="#DDDDDD" stroke="#5E5E5A" stroke-width="0.15" stroke-miterlimit="10" stroke-linecap="round"/>
<path d="M21.4216 25.8496H7.10156V26.5496H21.4216V25.8496Z" fill="#DDDDDD" stroke="#5E5E5A" stroke-width="0.15" stroke-miterlimit="10" stroke-linecap="round"/>
</svg>
