<svg width="23" height="28" viewBox="0 0 23 28" fill="none" xmlns="http://www.w3.org/2000/svg">
<path d="M7.20187 20.54H4.96185C4.66362 20.54 4.42188 20.7818 4.42188 21.08V23.32C4.42188 23.6183 4.66362 23.86 4.96185 23.86H7.20187C7.50011 23.86 7.74185 23.6183 7.74185 23.32V21.08C7.74185 20.7818 7.50011 20.54 7.20187 20.54Z" fill="#DDDDDD" stroke="#5E5E5A" stroke-width="0.15" stroke-miterlimit="10" stroke-linecap="round"/>
<path d="M6.70361 21.29H5.4736C5.31344 21.29 5.18359 21.4199 5.18359 21.58V22.81C5.18359 22.9702 5.31344 23.1 5.4736 23.1H6.70361C6.86378 23.1 6.99359 22.9702 6.99359 22.81V21.58C6.99359 21.4199 6.86378 21.29 6.70361 21.29Z" fill="#DDDDDD" stroke="#5E5E5A" stroke-width="0.15" stroke-miterlimit="10" stroke-linecap="round"/>
<path d="M6.64062 23.0903C6.64062 23.2703 6.79061 23.4203 6.97061 23.4203C7.15061 23.4203 7.3006 23.2703 7.3006 23.0903V21.4003C7.3006 21.2203 7.15061 21.0703 6.97061 21.0703C6.79061 21.0703 6.64062 21.2203 6.64062 21.4003V23.0903Z" fill="#DDDDDD" stroke="#5E5E5A" stroke-width="0.15" stroke-miterlimit="10" stroke-linecap="round"/>
<path d="M4.85156 23.0903C4.85156 23.2703 5.00155 23.4203 5.18155 23.4203C5.36155 23.4203 5.51157 23.2703 5.51157 23.0903V21.4003C5.51157 21.2203 5.36155 21.0703 5.18155 21.0703C5.00155 21.0703 4.85156 21.2203 4.85156 21.4003V23.0903Z" fill="#DDDDDD" stroke="#5E5E5A" stroke-width="0.15" stroke-miterlimit="10" stroke-linecap="round"/>
<path d="M22.9283 21.8496H7.73828V22.5496H22.9283V21.8496Z" fill="#DDDDDD" stroke="#5E5E5A" stroke-width="0.15" stroke-miterlimit="10" stroke-linecap="round"/>
</svg>
