<svg width="22" height="26" viewBox="0 0 22 26" fill="none" xmlns="http://www.w3.org/2000/svg">
<path d="M5.72141 18.54H3.48141C3.18318 18.54 2.94141 18.7818 2.94141 19.08V21.32C2.94141 21.6183 3.18318 21.86 3.48141 21.86H5.72141C6.01964 21.86 6.26141 21.6183 6.26141 21.32V19.08C6.26141 18.7818 6.01964 18.54 5.72141 18.54Z" fill="#DDDDDD" stroke="#5E5E5A" stroke-width="0.15" stroke-miterlimit="10" stroke-linecap="round"/>
<path d="M5.2114 19.29H3.98141C3.82125 19.29 3.69141 19.4199 3.69141 19.58V20.81C3.69141 20.9702 3.82125 21.1 3.98141 21.1H5.2114C5.37156 21.1 5.5014 20.9702 5.5014 20.81V19.58C5.5014 19.4199 5.37156 19.29 5.2114 19.29Z" fill="#DDDDDD" stroke="#5E5E5A" stroke-width="0.15" stroke-miterlimit="10" stroke-linecap="round"/>
<path d="M5.16016 21.0903C5.16016 21.2703 5.31014 21.4203 5.49014 21.4203C5.67014 21.4203 5.82016 21.2703 5.82016 21.0903V19.4003C5.82016 19.2203 5.67014 19.0703 5.49014 19.0703C5.31014 19.0703 5.16016 19.2203 5.16016 19.4003V21.0903Z" fill="#DDDDDD" stroke="#5E5E5A" stroke-width="0.15" stroke-miterlimit="10" stroke-linecap="round"/>
<path d="M3.37109 21.0903C3.37109 21.2703 3.52111 21.4203 3.70111 21.4203C3.88111 21.4203 4.0311 21.2703 4.0311 21.0903V19.4003C4.0311 19.2203 3.88111 19.0703 3.70111 19.0703C3.52111 19.0703 3.37109 19.2203 3.37109 19.4003V21.0903Z" fill="#DDDDDD" stroke="#5E5E5A" stroke-width="0.15" stroke-miterlimit="10" stroke-linecap="round"/>
<path d="M21.1617 19.8496H6.26172V20.5496H21.1617V19.8496Z" fill="#DDDDDD" stroke="#5E5E5A" stroke-width="0.15" stroke-miterlimit="10" stroke-linecap="round"/>
</svg>
