<svg width="23" height="27" viewBox="0 0 23 27" fill="none" xmlns="http://www.w3.org/2000/svg">
<path d="M6.94016 19.54H4.70016C4.40193 19.54 4.16016 19.7818 4.16016 20.08V22.32C4.16016 22.6183 4.40193 22.86 4.70016 22.86H6.94016C7.23839 22.86 7.48016 22.6183 7.48016 22.32V20.08C7.48016 19.7818 7.23839 19.54 6.94016 19.54Z" fill="#DDDDDD" stroke="#5E5E5A" stroke-width="0.15" stroke-miterlimit="10" stroke-linecap="round"/>
<path d="M6.44186 20.29H5.21185C5.05169 20.29 4.92188 20.4199 4.92188 20.58V21.81C4.92188 21.9702 5.05169 22.1 5.21185 22.1H6.44186C6.60203 22.1 6.73187 21.9702 6.73187 21.81V20.58C6.73187 20.4199 6.60203 20.29 6.44186 20.29Z" fill="#DDDDDD" stroke="#5E5E5A" stroke-width="0.15" stroke-miterlimit="10" stroke-linecap="round"/>
<path d="M6.39062 22.0903C6.39062 22.2703 6.54061 22.4203 6.72061 22.4203C6.90061 22.4203 7.0506 22.2703 7.0506 22.0903V20.4003C7.0506 20.2203 6.90061 20.0703 6.72061 20.0703C6.54061 20.0703 6.39062 20.2203 6.39062 20.4003V22.0903Z" fill="#DDDDDD" stroke="#5E5E5A" stroke-width="0.15" stroke-miterlimit="10" stroke-linecap="round"/>
<path d="M4.58984 22.0903C4.58984 22.2703 4.73986 22.4203 4.91986 22.4203C5.09986 22.4203 5.24985 22.2703 5.24985 22.0903V20.4003C5.24985 20.2203 5.09986 20.0703 4.91986 20.0703C4.73986 20.0703 4.58984 20.2203 4.58984 20.4003V22.0903Z" fill="#DDDDDD" stroke="#5E5E5A" stroke-width="0.15" stroke-miterlimit="10" stroke-linecap="round"/>
<path d="M21.9983 20.8496H7.48828V21.5496H21.9983V20.8496Z" fill="#DDDDDD" stroke="#5E5E5A" stroke-width="0.15" stroke-miterlimit="10" stroke-linecap="round"/>
</svg>
