<svg width="23" height="25" viewBox="0 0 23 25" fill="none" xmlns="http://www.w3.org/2000/svg">
<path d="M6.76828 17.54H4.52829C4.23006 17.54 3.98828 17.7818 3.98828 18.08V20.32C3.98828 20.6183 4.23006 20.86 4.52829 20.86H6.76828C7.06651 20.86 7.30829 20.6183 7.30829 20.32V18.08C7.30829 17.7818 7.06651 17.54 6.76828 17.54Z" fill="#DDDDDD" stroke="#5E5E5A" stroke-width="0.15" stroke-miterlimit="10" stroke-linecap="round"/>
<path d="M6.26999 18.29H5.04001C4.87985 18.29 4.75 18.4199 4.75 18.58V19.81C4.75 19.9702 4.87985 20.1 5.04001 20.1H6.26999C6.43015 20.1 6.56 19.9702 6.56 19.81V18.58C6.56 18.4199 6.43015 18.29 6.26999 18.29Z" fill="#DDDDDD" stroke="#5E5E5A" stroke-width="0.15" stroke-miterlimit="10" stroke-linecap="round"/>
<path d="M6.21875 20.0903C6.21875 20.2703 6.36874 20.4203 6.54874 20.4203C6.72874 20.4203 6.87875 20.2703 6.87875 20.0903V18.4003C6.87875 18.2203 6.72874 18.0703 6.54874 18.0703C6.36874 18.0703 6.21875 18.2203 6.21875 18.4003V20.0903Z" fill="#DDDDDD" stroke="#5E5E5A" stroke-width="0.15" stroke-miterlimit="10" stroke-linecap="round"/>
<path d="M4.41797 20.0903C4.41797 20.2703 4.56796 20.4203 4.74796 20.4203C4.92796 20.4203 5.07794 20.2703 5.07794 20.0903V18.4003C5.07794 18.2203 4.92796 18.0703 4.74796 18.0703C4.56796 18.0703 4.41797 18.2203 4.41797 18.4003V20.0903Z" fill="#DDDDDD" stroke="#5E5E5A" stroke-width="0.15" stroke-miterlimit="10" stroke-linecap="round"/>
<path d="M22.3603 18.8496H7.32031V19.5496H22.3603V18.8496Z" fill="#DDDDDD" stroke="#5E5E5A" stroke-width="0.15" stroke-miterlimit="10" stroke-linecap="round"/>
</svg>
