<svg width="11" height="24" viewBox="0 0 11 24" fill="none" xmlns="http://www.w3.org/2000/svg">
<path d="M6.1394 16.54H3.89938C3.60115 16.54 3.35938 16.7818 3.35938 17.08V19.32C3.35938 19.6183 3.60115 19.86 3.89938 19.86H6.1394C6.43764 19.86 6.67938 19.6183 6.67938 19.32V17.08C6.67938 16.7818 6.43764 16.54 6.1394 16.54Z" fill="#DDDDDD" stroke="#5E5E5A" stroke-width="0.15" stroke-miterlimit="10" stroke-linecap="round"/>
<path d="M5.62939 17.29H4.39938C4.23922 17.29 4.10938 17.4199 4.10938 17.58V18.81C4.10938 18.9702 4.23922 19.1 4.39938 19.1H5.62939C5.78956 19.1 5.9194 18.9702 5.9194 18.81V17.58C5.9194 17.4199 5.78956 17.29 5.62939 17.29Z" fill="#DDDDDD" stroke="#5E5E5A" stroke-width="0.15" stroke-miterlimit="10" stroke-linecap="round"/>
<path d="M5.57812 19.0903C5.57812 19.2703 5.72814 19.4203 5.90814 19.4203C6.08814 19.4203 6.23813 19.2703 6.23813 19.0903V17.4003C6.23813 17.2203 6.08814 17.0703 5.90814 17.0703C5.72814 17.0703 5.57812 17.2203 5.57812 17.4003V19.0903Z" fill="#DDDDDD" stroke="#5E5E5A" stroke-width="0.15" stroke-miterlimit="10" stroke-linecap="round"/>
<path d="M3.78906 19.0903C3.78906 19.2703 3.93905 19.4203 4.11905 19.4203C4.29905 19.4203 4.44907 19.2703 4.44907 19.0903V17.4003C4.44907 17.2203 4.29905 17.0703 4.11905 17.0703C3.93905 17.0703 3.78906 17.2203 3.78906 17.4003V19.0903Z" fill="#DDDDDD" stroke="#5E5E5A" stroke-width="0.15" stroke-miterlimit="10" stroke-linecap="round"/>
</svg>
