<svg width="22" height="24" viewBox="0 0 22 24" fill="none" xmlns="http://www.w3.org/2000/svg">
<path d="M5.72141 2.54004H3.48141C3.18318 2.54004 2.94141 2.78181 2.94141 3.08004V5.32004C2.94141 5.61827 3.18318 5.86004 3.48141 5.86004H5.72141C6.01964 5.86004 6.26141 5.61827 6.26141 5.32004V3.08004C6.26141 2.78181 6.01964 2.54004 5.72141 2.54004Z" fill="#DDDDDD" stroke="#5E5E5A" stroke-width="0.15" stroke-miterlimit="10" stroke-linecap="round"/>
<path d="M5.2114 3.29004H3.98141C3.82125 3.29004 3.69141 3.41988 3.69141 3.58004V4.81004C3.69141 4.9702 3.82125 5.10004 3.98141 5.10004H5.2114C5.37156 5.10004 5.5014 4.9702 5.5014 4.81004V3.58004C5.5014 3.41988 5.37156 3.29004 5.2114 3.29004Z" fill="#DDDDDD" stroke="#5E5E5A" stroke-width="0.15" stroke-miterlimit="10" stroke-linecap="round"/>
<path d="M5.16016 5.09031C5.16016 5.27031 5.31014 5.42031 5.49014 5.42031C5.67014 5.42031 5.82016 5.27031 5.82016 5.09031V3.40031C5.82016 3.22031 5.67014 3.07031 5.49014 3.07031C5.31014 3.07031 5.16016 3.22031 5.16016 3.40031V5.09031Z" fill="#DDDDDD" stroke="#5E5E5A" stroke-width="0.15" stroke-miterlimit="10" stroke-linecap="round"/>
<path d="M3.37109 5.09031C3.37109 5.27031 3.52111 5.42031 3.70111 5.42031C3.88111 5.42031 4.0311 5.27031 4.0311 5.09031V3.40031C4.0311 3.22031 3.88111 3.07031 3.70111 3.07031C3.52111 3.07031 3.37109 3.22031 3.37109 3.40031V5.09031Z" fill="#DDDDDD" stroke="#5E5E5A" stroke-width="0.15" stroke-miterlimit="10" stroke-linecap="round"/>
<path d="M21.1117 3.84961H6.26172V4.54961H21.1117V3.84961Z" fill="#DDDDDD" stroke="#5E5E5A" stroke-width="0.15" stroke-miterlimit="10" stroke-linecap="round"/>
</svg>
