<svg width="21" height="25" viewBox="0 0 21 25" fill="none" xmlns="http://www.w3.org/2000/svg">
<path d="M5.90109 2.54004H3.6611C3.36287 2.54004 3.12109 2.78181 3.12109 3.08004V5.32004C3.12109 5.61827 3.36287 5.86004 3.6611 5.86004H5.90109C6.19933 5.86004 6.4411 5.61827 6.4411 5.32004V3.08004C6.4411 2.78181 6.19933 2.54004 5.90109 2.54004Z" fill="#DDDDDD" stroke="#5E5E5A" stroke-width="0.15" stroke-miterlimit="10" stroke-linecap="round"/>
<path d="M5.39111 3.29004H4.1611C4.00094 3.29004 3.87109 3.41988 3.87109 3.58004V4.81004C3.87109 4.9702 4.00094 5.10004 4.1611 5.10004H5.39111C5.55128 5.10004 5.68109 4.9702 5.68109 4.81004V3.58004C5.68109 3.41988 5.55128 3.29004 5.39111 3.29004Z" fill="#DDDDDD" stroke="#5E5E5A" stroke-width="0.15" stroke-miterlimit="10" stroke-linecap="round"/>
<path d="M5.33984 5.09031C5.33984 5.27031 5.48986 5.42031 5.66986 5.42031C5.84986 5.42031 5.99985 5.27031 5.99985 5.09031V3.40031C5.99985 3.22031 5.84986 3.07031 5.66986 3.07031C5.48986 3.07031 5.33984 3.22031 5.33984 3.40031V5.09031Z" fill="#DDDDDD" stroke="#5E5E5A" stroke-width="0.15" stroke-miterlimit="10" stroke-linecap="round"/>
<path d="M3.54297 5.09031C3.54297 5.27031 3.69296 5.42031 3.87296 5.42031C4.05296 5.42031 4.20297 5.27031 4.20297 5.09031V3.40031C4.20297 3.22031 4.05296 3.07031 3.87296 3.07031C3.69296 3.07031 3.54297 3.22031 3.54297 3.40031V5.09031Z" fill="#DDDDDD" stroke="#5E5E5A" stroke-width="0.15" stroke-miterlimit="10" stroke-linecap="round"/>
<path d="M20.7214 3.84961H6.44141V4.54961H20.7214V3.84961Z" fill="#DDDDDD" stroke="#5E5E5A" stroke-width="0.14" stroke-miterlimit="10" stroke-linecap="round"/>
</svg>
