<svg width="22" height="30" viewBox="0 0 22 30" fill="none" xmlns="http://www.w3.org/2000/svg">
<path d="M5.56125 2.54004H3.32126C3.02302 2.54004 2.78125 2.78181 2.78125 3.08004V5.32004C2.78125 5.61827 3.02302 5.86004 3.32126 5.86004H5.56125C5.85948 5.86004 6.10126 5.61827 6.10126 5.32004V3.08004C6.10126 2.78181 5.85948 2.54004 5.56125 2.54004Z" fill="#DDDDDD" stroke="#5E5E5A" stroke-width="0.15" stroke-miterlimit="10" stroke-linecap="round"/>
<path d="M5.05124 3.29004H3.82126C3.6611 3.29004 3.53125 3.41988 3.53125 3.58004V4.81004C3.53125 4.9702 3.6611 5.10004 3.82126 5.10004H5.05124C5.2114 5.10004 5.34125 4.9702 5.34125 4.81004V3.58004C5.34125 3.41988 5.2114 3.29004 5.05124 3.29004Z" fill="#DDDDDD" stroke="#5E5E5A" stroke-width="0.15" stroke-miterlimit="10" stroke-linecap="round"/>
<path d="M5 5.09031C5 5.27031 5.14999 5.42031 5.32999 5.42031C5.50999 5.42031 5.66 5.27031 5.66 5.09031V3.40031C5.66 3.22031 5.50999 3.07031 5.32999 3.07031C5.14999 3.07031 5 3.22031 5 3.40031V5.09031Z" fill="#DDDDDD" stroke="#5E5E5A" stroke-width="0.15" stroke-miterlimit="10" stroke-linecap="round"/>
<path d="M3.21094 5.09031C3.21094 5.27031 3.36095 5.42031 3.54095 5.42031C3.72095 5.42031 3.87094 5.27031 3.87094 5.09031V3.40031C3.87094 3.22031 3.72095 3.07031 3.54095 3.07031C3.36095 3.07031 3.21094 3.22031 3.21094 3.40031V5.09031Z" fill="#DDDDDD" stroke="#5E5E5A" stroke-width="0.15" stroke-miterlimit="10" stroke-linecap="round"/>
<path d="M21.4294 3.84961H6.10938V4.54961H21.4294V3.84961Z" fill="#DDDDDD" stroke="#5E5E5A" stroke-width="0.16" stroke-miterlimit="10" stroke-linecap="round"/>
</svg>
