<svg width="22" height="25" viewBox="0 0 22 25" fill="none" xmlns="http://www.w3.org/2000/svg">
<path d="M6.20187 2.54004H3.96185C3.66362 2.54004 3.42188 2.78181 3.42188 3.08004V5.32004C3.42188 5.61827 3.66362 5.86004 3.96185 5.86004H6.20187C6.50011 5.86004 6.74185 5.61827 6.74185 5.32004V3.08004C6.74185 2.78181 6.50011 2.54004 6.20187 2.54004Z" fill="#DDDDDD" stroke="#5E5E5A" stroke-width="0.15" stroke-miterlimit="10" stroke-linecap="round"/>
<path d="M5.70361 3.29004H4.4736C4.31344 3.29004 4.18359 3.41988 4.18359 3.58004V4.81004C4.18359 4.9702 4.31344 5.10004 4.4736 5.10004H5.70361C5.86378 5.10004 5.99359 4.9702 5.99359 4.81004V3.58004C5.99359 3.41988 5.86378 3.29004 5.70361 3.29004Z" fill="#DDDDDD" stroke="#5E5E5A" stroke-width="0.15" stroke-miterlimit="10" stroke-linecap="round"/>
<path d="M5.64062 5.09031C5.64062 5.27031 5.79061 5.42031 5.97061 5.42031C6.15061 5.42031 6.3006 5.27031 6.3006 5.09031V3.40031C6.3006 3.22031 6.15061 3.07031 5.97061 3.07031C5.79061 3.07031 5.64062 3.22031 5.64062 3.40031V5.09031Z" fill="#DDDDDD" stroke="#5E5E5A" stroke-width="0.15" stroke-miterlimit="10" stroke-linecap="round"/>
<path d="M3.85156 5.09031C3.85156 5.27031 4.00155 5.42031 4.18155 5.42031C4.36155 5.42031 4.51157 5.27031 4.51157 5.09031V3.40031C4.51157 3.22031 4.36155 3.07031 4.18155 3.07031C4.00155 3.07031 3.85156 3.22031 3.85156 3.40031V5.09031Z" fill="#DDDDDD" stroke="#5E5E5A" stroke-width="0.15" stroke-miterlimit="10" stroke-linecap="round"/>
<path d="M21.9283 3.84961H6.73828V4.54961H21.9283V3.84961Z" fill="#DDDDDD" stroke="#5E5E5A" stroke-width="0.15" stroke-miterlimit="10" stroke-linecap="round"/>
</svg>
