<svg width="23" height="25" viewBox="0 0 23 25" fill="none" xmlns="http://www.w3.org/2000/svg">
<path d="M6.72141 3.54004H4.48141C4.18318 3.54004 3.94141 3.78181 3.94141 4.08004V6.32004C3.94141 6.61827 4.18318 6.86004 4.48141 6.86004H6.72141C7.01964 6.86004 7.26141 6.61827 7.26141 6.32004V4.08004C7.26141 3.78181 7.01964 3.54004 6.72141 3.54004Z" fill="#DDDDDD" stroke="#5E5E5A" stroke-width="0.15" stroke-miterlimit="10" stroke-linecap="round"/>
<path d="M6.2114 4.29004H4.98141C4.82125 4.29004 4.69141 4.41988 4.69141 4.58004V5.81004C4.69141 5.9702 4.82125 6.10004 4.98141 6.10004H6.2114C6.37156 6.10004 6.5014 5.9702 6.5014 5.81004V4.58004C6.5014 4.41988 6.37156 4.29004 6.2114 4.29004Z" fill="#DDDDDD" stroke="#5E5E5A" stroke-width="0.15" stroke-miterlimit="10" stroke-linecap="round"/>
<path d="M6.16016 6.09031C6.16016 6.27031 6.31014 6.42031 6.49014 6.42031C6.67014 6.42031 6.82016 6.27031 6.82016 6.09031V4.40031C6.82016 4.22031 6.67014 4.07031 6.49014 4.07031C6.31014 4.07031 6.16016 4.22031 6.16016 4.40031V6.09031Z" fill="#DDDDDD" stroke="#5E5E5A" stroke-width="0.15" stroke-miterlimit="10" stroke-linecap="round"/>
<path d="M4.37109 6.09031C4.37109 6.27031 4.52111 6.42031 4.70111 6.42031C4.88111 6.42031 5.0311 6.27031 5.0311 6.09031V4.40031C5.0311 4.22031 4.88111 4.07031 4.70111 4.07031C4.52111 4.07031 4.37109 4.22031 4.37109 4.40031V6.09031Z" fill="#DDDDDD" stroke="#5E5E5A" stroke-width="0.15" stroke-miterlimit="10" stroke-linecap="round"/>
<path d="M22.1617 4.84961H7.26172V5.54961H22.1617V4.84961Z" fill="#DDDDDD" stroke="#5E5E5A" stroke-width="0.15" stroke-miterlimit="10" stroke-linecap="round"/>
</svg>
