<svg width="25" height="25" viewBox="0 0 25 25" fill="none" xmlns="http://www.w3.org/2000/svg">
<path d="M8.94016 3.54004H6.70016C6.40193 3.54004 6.16016 3.78181 6.16016 4.08004V6.32004C6.16016 6.61827 6.40193 6.86004 6.70016 6.86004H8.94016C9.23839 6.86004 9.48016 6.61827 9.48016 6.32004V4.08004C9.48016 3.78181 9.23839 3.54004 8.94016 3.54004Z" fill="#DDDDDD" stroke="#5E5E5A" stroke-width="0.15" stroke-miterlimit="10" stroke-linecap="round"/>
<path d="M8.44186 4.29004H7.21185C7.05169 4.29004 6.92188 4.41988 6.92188 4.58004V5.81004C6.92188 5.9702 7.05169 6.10004 7.21185 6.10004H8.44186C8.60203 6.10004 8.73187 5.9702 8.73187 5.81004V4.58004C8.73187 4.41988 8.60203 4.29004 8.44186 4.29004Z" fill="#DDDDDD" stroke="#5E5E5A" stroke-width="0.15" stroke-miterlimit="10" stroke-linecap="round"/>
<path d="M8.39062 6.09031C8.39062 6.27031 8.54061 6.42031 8.72061 6.42031C8.90061 6.42031 9.0506 6.27031 9.0506 6.09031V4.40031C9.0506 4.22031 8.90061 4.07031 8.72061 4.07031C8.54061 4.07031 8.39062 4.22031 8.39062 4.40031V6.09031Z" fill="#DDDDDD" stroke="#5E5E5A" stroke-width="0.15" stroke-miterlimit="10" stroke-linecap="round"/>
<path d="M6.58984 6.09031C6.58984 6.27031 6.73986 6.42031 6.91986 6.42031C7.09986 6.42031 7.24985 6.27031 7.24985 6.09031V4.40031C7.24985 4.22031 7.09986 4.07031 6.91986 4.07031C6.73986 4.07031 6.58984 4.22031 6.58984 4.40031V6.09031Z" fill="#DDDDDD" stroke="#5E5E5A" stroke-width="0.15" stroke-miterlimit="10" stroke-linecap="round"/>
<path d="M23.9983 4.84961H9.48828V5.54961H23.9983V4.84961Z" fill="#DDDDDD" stroke="#5E5E5A" stroke-width="0.15" stroke-miterlimit="10" stroke-linecap="round"/>
</svg>
