<svg width="24" height="24" viewBox="0 0 24 24" fill="none" xmlns="http://www.w3.org/2000/svg">
<path d="M7.76828 3.54004H5.52829C5.23006 3.54004 4.98828 3.78181 4.98828 4.08004V6.32004C4.98828 6.61827 5.23006 6.86004 5.52829 6.86004H7.76828C8.06651 6.86004 8.30829 6.61827 8.30829 6.32004V4.08004C8.30829 3.78181 8.06651 3.54004 7.76828 3.54004Z" fill="#DDDDDD" stroke="#5E5E5A" stroke-width="0.15" stroke-miterlimit="10" stroke-linecap="round"/>
<path d="M7.26999 4.29004H6.04001C5.87985 4.29004 5.75 4.41988 5.75 4.58004V5.81004C5.75 5.9702 5.87985 6.10004 6.04001 6.10004H7.26999C7.43015 6.10004 7.56 5.9702 7.56 5.81004V4.58004C7.56 4.41988 7.43015 4.29004 7.26999 4.29004Z" fill="#DDDDDD" stroke="#5E5E5A" stroke-width="0.15" stroke-miterlimit="10" stroke-linecap="round"/>
<path d="M7.21875 6.09031C7.21875 6.27031 7.36874 6.42031 7.54874 6.42031C7.72874 6.42031 7.87875 6.27031 7.87875 6.09031V4.40031C7.87875 4.22031 7.72874 4.07031 7.54874 4.07031C7.36874 4.07031 7.21875 4.22031 7.21875 4.40031V6.09031Z" fill="#DDDDDD" stroke="#5E5E5A" stroke-width="0.15" stroke-miterlimit="10" stroke-linecap="round"/>
<path d="M5.41797 6.09031C5.41797 6.27031 5.56796 6.42031 5.74796 6.42031C5.92796 6.42031 6.07794 6.27031 6.07794 6.09031V4.40031C6.07794 4.22031 5.92796 4.07031 5.74796 4.07031C5.56796 4.07031 5.41797 4.22031 5.41797 4.40031V6.09031Z" fill="#DDDDDD" stroke="#5E5E5A" stroke-width="0.15" stroke-miterlimit="10" stroke-linecap="round"/>
<path d="M23.3603 4.84961H8.32031V5.54961H23.3603V4.84961Z" fill="#DDDDDD" stroke="#5E5E5A" stroke-width="0.15" stroke-miterlimit="10" stroke-linecap="round"/>
</svg>
