<svg width="12" height="22" viewBox="0 0 12 22" fill="none" xmlns="http://www.w3.org/2000/svg">
<path d="M7.1394 3.54004H4.89938C4.60115 3.54004 4.35938 3.78181 4.35938 4.08004V6.32004C4.35938 6.61827 4.60115 6.86004 4.89938 6.86004H7.1394C7.43764 6.86004 7.67938 6.61827 7.67938 6.32004V4.08004C7.67938 3.78181 7.43764 3.54004 7.1394 3.54004Z" fill="#DDDDDD" stroke="#5E5E5A" stroke-width="0.15" stroke-miterlimit="10" stroke-linecap="round"/>
<path d="M6.62939 4.29004H5.39938C5.23922 4.29004 5.10938 4.41988 5.10938 4.58004V5.81004C5.10938 5.9702 5.23922 6.10004 5.39938 6.10004H6.62939C6.78956 6.10004 6.9194 5.9702 6.9194 5.81004V4.58004C6.9194 4.41988 6.78956 4.29004 6.62939 4.29004Z" fill="#DDDDDD" stroke="#5E5E5A" stroke-width="0.15" stroke-miterlimit="10" stroke-linecap="round"/>
<path d="M6.57812 6.09031C6.57812 6.27031 6.72814 6.42031 6.90814 6.42031C7.08814 6.42031 7.23813 6.27031 7.23813 6.09031V4.40031C7.23813 4.22031 7.08814 4.07031 6.90814 4.07031C6.72814 4.07031 6.57812 4.22031 6.57812 4.40031V6.09031Z" fill="#DDDDDD" stroke="#5E5E5A" stroke-width="0.15" stroke-miterlimit="10" stroke-linecap="round"/>
<path d="M4.78906 6.09031C4.78906 6.27031 4.93905 6.42031 5.11905 6.42031C5.29905 6.42031 5.44907 6.27031 5.44907 6.09031V4.40031C5.44907 4.22031 5.29905 4.07031 5.11905 4.07031C4.93905 4.07031 4.78906 4.22031 4.78906 4.40031V6.09031Z" fill="#DDDDDD" stroke="#5E5E5A" stroke-width="0.15" stroke-miterlimit="10" stroke-linecap="round"/>
</svg>
