<svg width="21" height="24" viewBox="0 0 21 24" fill="none" xmlns="http://www.w3.org/2000/svg">
<path d="M4.67062 2.54004H2.4306C2.13237 2.54004 1.89062 2.78181 1.89062 3.08004V5.32004C1.89062 5.61827 2.13237 5.86004 2.4306 5.86004H4.67062C4.96886 5.86004 5.2106 5.61827 5.2106 5.32004V3.08004C5.2106 2.78181 4.96886 2.54004 4.67062 2.54004Z" fill="#DDDDDD" stroke="#5E5E5A" stroke-width="0.15" stroke-miterlimit="10" stroke-linecap="round"/>
<path d="M4.16061 3.29004H2.9306C2.77044 3.29004 2.64062 3.41988 2.64062 3.58004V4.81004C2.64062 4.9702 2.77044 5.10004 2.9306 5.10004H4.16061C4.32078 5.10004 4.45062 4.9702 4.45062 4.81004V3.58004C4.45062 3.41988 4.32078 3.29004 4.16061 3.29004Z" fill="#DDDDDD" stroke="#5E5E5A" stroke-width="0.15" stroke-miterlimit="10" stroke-linecap="round"/>
<path d="M4.10938 5.09031C4.10938 5.27031 4.25939 5.42031 4.43939 5.42031C4.61939 5.42031 4.76938 5.27031 4.76938 5.09031V3.40031C4.76938 3.22031 4.61939 3.07031 4.43939 3.07031C4.25939 3.07031 4.10938 3.22031 4.10938 3.40031V5.09031Z" fill="#DDDDDD" stroke="#5E5E5A" stroke-width="0.15" stroke-miterlimit="10" stroke-linecap="round"/>
<path d="M2.32031 5.09031C2.32031 5.27031 2.4703 5.42031 2.6503 5.42031C2.8303 5.42031 2.98032 5.27031 2.98032 5.09031V3.40031C2.98032 3.22031 2.8303 3.07031 2.6503 3.07031C2.4703 3.07031 2.32031 3.22031 2.32031 3.40031V5.09031Z" fill="#DDDDDD" stroke="#5E5E5A" stroke-width="0.15" stroke-miterlimit="10" stroke-linecap="round"/>
<path d="M19.9409 3.84961H5.21094V4.54961H19.9409V3.84961Z" fill="#DDDDDD" stroke="#5E5E5A" stroke-width="0.15" stroke-miterlimit="10" stroke-linecap="round"/>
</svg>
