<svg width="21" height="25" viewBox="0 0 21 25" fill="none" xmlns="http://www.w3.org/2000/svg">
<path d="M5.58078 2.54004H3.34079C3.04256 2.54004 2.80078 2.78181 2.80078 3.08004V5.32004C2.80078 5.61827 3.04256 5.86004 3.34079 5.86004H5.58078C5.87901 5.86004 6.12079 5.61827 6.12079 5.32004V3.08004C6.12079 2.78181 5.87901 2.54004 5.58078 2.54004Z" fill="#DDDDDD" stroke="#5E5E5A" stroke-width="0.15" stroke-miterlimit="10" stroke-linecap="round"/>
<path d="M5.08249 3.29004H3.85251C3.69235 3.29004 3.5625 3.41988 3.5625 3.58004V4.81004C3.5625 4.9702 3.69235 5.10004 3.85251 5.10004H5.08249C5.24265 5.10004 5.3725 4.9702 5.3725 4.81004V3.58004C5.3725 3.41988 5.24265 3.29004 5.08249 3.29004Z" fill="#DDDDDD" stroke="#5E5E5A" stroke-width="0.15" stroke-miterlimit="10" stroke-linecap="round"/>
<path d="M5.03125 5.09031C5.03125 5.27031 5.18124 5.42031 5.36124 5.42031C5.54124 5.42031 5.69125 5.27031 5.69125 5.09031V3.40031C5.69125 3.22031 5.54124 3.07031 5.36124 3.07031C5.18124 3.07031 5.03125 3.22031 5.03125 3.40031V5.09031Z" fill="#DDDDDD" stroke="#5E5E5A" stroke-width="0.15" stroke-miterlimit="10" stroke-linecap="round"/>
<path d="M3.23047 5.09031C3.23047 5.27031 3.38046 5.42031 3.56046 5.42031C3.74046 5.42031 3.89047 5.27031 3.89047 5.09031V3.40031C3.89047 3.22031 3.74046 3.07031 3.56046 3.07031C3.38046 3.07031 3.23047 3.22031 3.23047 3.40031V5.09031Z" fill="#DDDDDD" stroke="#5E5E5A" stroke-width="0.15" stroke-miterlimit="10" stroke-linecap="round"/>
<path d="M20.8889 3.84961H6.12891V4.54961H20.8889V3.84961Z" fill="#DDDDDD" stroke="#5E5E5A" stroke-width="0.15" stroke-miterlimit="10" stroke-linecap="round"/>
</svg>
