<svg width="21" height="30" viewBox="0 0 21 30" fill="none" xmlns="http://www.w3.org/2000/svg">
<path d="M5.81125 2.54004H3.57126C3.27302 2.54004 3.03125 2.78181 3.03125 3.08004V5.32004C3.03125 5.61827 3.27302 5.86004 3.57126 5.86004H5.81125C6.10948 5.86004 6.35126 5.61827 6.35126 5.32004V3.08004C6.35126 2.78181 6.10948 2.54004 5.81125 2.54004Z" fill="#DDDDDD" stroke="#5E5E5A" stroke-width="0.15" stroke-miterlimit="10" stroke-linecap="round"/>
<path d="M5.30124 3.29004H4.07126C3.9111 3.29004 3.78125 3.41988 3.78125 3.58004V4.81004C3.78125 4.9702 3.9111 5.10004 4.07126 5.10004H5.30124C5.4614 5.10004 5.59125 4.9702 5.59125 4.81004V3.58004C5.59125 3.41988 5.4614 3.29004 5.30124 3.29004Z" fill="#DDDDDD" stroke="#5E5E5A" stroke-width="0.15" stroke-miterlimit="10" stroke-linecap="round"/>
<path d="M5.25 5.09031C5.25 5.27031 5.39999 5.42031 5.57999 5.42031C5.75999 5.42031 5.91 5.27031 5.91 5.09031V3.40031C5.91 3.22031 5.75999 3.07031 5.57999 3.07031C5.39999 3.07031 5.25 3.22031 5.25 3.40031V5.09031Z" fill="#DDDDDD" stroke="#5E5E5A" stroke-width="0.15" stroke-miterlimit="10" stroke-linecap="round"/>
<path d="M3.46094 5.09031C3.46094 5.27031 3.61095 5.42031 3.79095 5.42031C3.97095 5.42031 4.12094 5.27031 4.12094 5.09031V3.40031C4.12094 3.22031 3.97095 3.07031 3.79095 3.07031C3.61095 3.07031 3.46094 3.22031 3.46094 3.40031V5.09031Z" fill="#DDDDDD" stroke="#5E5E5A" stroke-width="0.15" stroke-miterlimit="10" stroke-linecap="round"/>
<path d="M20.8094 3.84961H6.35938V4.54961H20.8094V3.84961Z" fill="#DDDDDD" stroke="#5E5E5A" stroke-width="0.15" stroke-miterlimit="10" stroke-linecap="round"/>
</svg>
