<svg width="23" height="25" viewBox="0 0 23 25" fill="none" xmlns="http://www.w3.org/2000/svg">
<path d="M5.83078 2.54004H3.59079C3.29256 2.54004 3.05078 2.78181 3.05078 3.08004V5.32004C3.05078 5.61827 3.29256 5.86004 3.59079 5.86004H5.83078C6.12901 5.86004 6.37079 5.61827 6.37079 5.32004V3.08004C6.37079 2.78181 6.12901 2.54004 5.83078 2.54004Z" fill="#DDDDDD" stroke="#5E5E5A" stroke-width="0.15" stroke-miterlimit="10" stroke-linecap="round"/>
<path d="M5.33249 3.29004H4.10251C3.94235 3.29004 3.8125 3.41988 3.8125 3.58004V4.81004C3.8125 4.9702 3.94235 5.10004 4.10251 5.10004H5.33249C5.49265 5.10004 5.6225 4.9702 5.6225 4.81004V3.58004C5.6225 3.41988 5.49265 3.29004 5.33249 3.29004Z" fill="#DDDDDD" stroke="#5E5E5A" stroke-width="0.15" stroke-miterlimit="10" stroke-linecap="round"/>
<path d="M5.28125 5.09031C5.28125 5.27031 5.43124 5.42031 5.61124 5.42031C5.79124 5.42031 5.94125 5.27031 5.94125 5.09031V3.40031C5.94125 3.22031 5.79124 3.07031 5.61124 3.07031C5.43124 3.07031 5.28125 3.22031 5.28125 3.40031V5.09031Z" fill="#DDDDDD" stroke="#5E5E5A" stroke-width="0.15" stroke-miterlimit="10" stroke-linecap="round"/>
<path d="M3.48047 5.09031C3.48047 5.27031 3.63046 5.42031 3.81046 5.42031C3.99046 5.42031 4.14047 5.27031 4.14047 5.09031V3.40031C4.14047 3.22031 3.99046 3.07031 3.81046 3.07031C3.63046 3.07031 3.48047 3.22031 3.48047 3.40031V5.09031Z" fill="#DDDDDD" stroke="#5E5E5A" stroke-width="0.15" stroke-miterlimit="10" stroke-linecap="round"/>
<path d="M21.9989 3.84961H6.37891V4.54961H21.9989V3.84961Z" fill="#DDDDDD" stroke="#5E5E5A" stroke-width="0.15" stroke-miterlimit="10" stroke-linecap="round"/>
</svg>
