<svg width="23" height="25" viewBox="0 0 23 25" fill="none" xmlns="http://www.w3.org/2000/svg">
<path d="M6.65109 3.54004H4.4111C4.11287 3.54004 3.87109 3.78181 3.87109 4.08004V6.32004C3.87109 6.61827 4.11287 6.86004 4.4111 6.86004H6.65109C6.94933 6.86004 7.1911 6.61827 7.1911 6.32004V4.08004C7.1911 3.78181 6.94933 3.54004 6.65109 3.54004Z" fill="#DDDDDD" stroke="#5E5E5A" stroke-width="0.15" stroke-miterlimit="10" stroke-linecap="round"/>
<path d="M6.1411 4.29004H4.9111C4.75094 4.29004 4.62109 4.41988 4.62109 4.58004V5.81004C4.62109 5.9702 4.75094 6.10004 4.9111 6.10004H6.1411C6.30126 6.10004 6.43109 5.9702 6.43109 5.81004V4.58004C6.43109 4.41988 6.30126 4.29004 6.1411 4.29004Z" fill="#DDDDDD" stroke="#5E5E5A" stroke-width="0.15" stroke-miterlimit="10" stroke-linecap="round"/>
<path d="M6.08984 6.09031C6.08984 6.27031 6.23985 6.42031 6.41985 6.42031C6.59985 6.42031 6.74985 6.27031 6.74985 6.09031V4.40031C6.74985 4.22031 6.59985 4.07031 6.41985 4.07031C6.23985 4.07031 6.08984 4.22031 6.08984 4.40031V6.09031Z" fill="#DDDDDD" stroke="#5E5E5A" stroke-width="0.15" stroke-miterlimit="10" stroke-linecap="round"/>
<path d="M4.30078 6.09031C4.30078 6.27031 4.45078 6.42031 4.63078 6.42031C4.81078 6.42031 4.96078 6.27031 4.96078 6.09031V4.40031C4.96078 4.22031 4.81078 4.07031 4.63078 4.07031C4.45078 4.07031 4.30078 4.22031 4.30078 4.40031V6.09031Z" fill="#DDDDDD" stroke="#5E5E5A" stroke-width="0.15" stroke-miterlimit="10" stroke-linecap="round"/>
<path d="M22.0614 4.84961H7.19141V5.54961H22.0614V4.84961Z" fill="#DDDDDD" stroke="#5E5E5A" stroke-width="0.15" stroke-miterlimit="10" stroke-linecap="round"/>
</svg>
