<svg width="24" height="25" viewBox="0 0 24 25" fill="none" xmlns="http://www.w3.org/2000/svg">
<path d="M8.90109 3.54004H6.6611C6.36287 3.54004 6.12109 3.78181 6.12109 4.08004V6.32004C6.12109 6.61827 6.36287 6.86004 6.6611 6.86004H8.90109C9.19933 6.86004 9.4411 6.61827 9.4411 6.32004V4.08004C9.4411 3.78181 9.19933 3.54004 8.90109 3.54004Z" fill="#DDDDDD" stroke="#5E5E5A" stroke-width="0.15" stroke-miterlimit="10" stroke-linecap="round"/>
<path d="M8.3911 4.29004H7.1611C7.00094 4.29004 6.87109 4.41988 6.87109 4.58004V5.81004C6.87109 5.9702 7.00094 6.10004 7.1611 6.10004H8.3911C8.55126 6.10004 8.68109 5.9702 8.68109 5.81004V4.58004C8.68109 4.41988 8.55126 4.29004 8.3911 4.29004Z" fill="#DDDDDD" stroke="#5E5E5A" stroke-width="0.15" stroke-miterlimit="10" stroke-linecap="round"/>
<path d="M8.33984 6.09031C8.33984 6.27031 8.48985 6.42031 8.66985 6.42031C8.84985 6.42031 8.99985 6.27031 8.99985 6.09031V4.40031C8.99985 4.22031 8.84985 4.07031 8.66985 4.07031C8.48985 4.07031 8.33984 4.22031 8.33984 4.40031V6.09031Z" fill="#DDDDDD" stroke="#5E5E5A" stroke-width="0.15" stroke-miterlimit="10" stroke-linecap="round"/>
<path d="M6.55078 6.09031C6.55078 6.27031 6.70078 6.42031 6.88078 6.42031C7.06078 6.42031 7.21078 6.27031 7.21078 6.09031V4.40031C7.21078 4.22031 7.06078 4.07031 6.88078 4.07031C6.70078 4.07031 6.55078 4.22031 6.55078 4.40031V6.09031Z" fill="#DDDDDD" stroke="#5E5E5A" stroke-width="0.15" stroke-miterlimit="10" stroke-linecap="round"/>
<path d="M23.8683 4.84961H9.48828V5.54961H23.8683V4.84961Z" fill="#DDDDDD" stroke="#5E5E5A" stroke-width="0.14" stroke-miterlimit="10" stroke-linecap="round"/>
</svg>
