<svg width="24" height="24" viewBox="0 0 24 24" fill="none" xmlns="http://www.w3.org/2000/svg">
<path d="M7.08859 3.54004H4.8486C4.55037 3.54004 4.30859 3.78181 4.30859 4.08004V6.32004C4.30859 6.61827 4.55037 6.86004 4.8486 6.86004H7.08859C7.38683 6.86004 7.6286 6.61827 7.6286 6.32004V4.08004C7.6286 3.78181 7.38683 3.54004 7.08859 3.54004Z" fill="#DDDDDD" stroke="#5E5E5A" stroke-width="0.15" stroke-miterlimit="10" stroke-linecap="round"/>
<path d="M6.5786 4.29004H5.3486C5.18844 4.29004 5.05859 4.41988 5.05859 4.58004V5.81004C5.05859 5.9702 5.18844 6.10004 5.3486 6.10004H6.5786C6.73876 6.10004 6.86859 5.9702 6.86859 5.81004V4.58004C6.86859 4.41988 6.73876 4.29004 6.5786 4.29004Z" fill="#DDDDDD" stroke="#5E5E5A" stroke-width="0.15" stroke-miterlimit="10" stroke-linecap="round"/>
<path d="M6.52734 6.09031C6.52734 6.27031 6.67735 6.42031 6.85735 6.42031C7.03735 6.42031 7.18735 6.27031 7.18735 6.09031V4.40031C7.18735 4.22031 7.03735 4.07031 6.85735 4.07031C6.67735 4.07031 6.52734 4.22031 6.52734 4.40031V6.09031Z" fill="#DDDDDD" stroke="#5E5E5A" stroke-width="0.15" stroke-miterlimit="10" stroke-linecap="round"/>
<path d="M4.73828 6.09031C4.73828 6.27031 4.88828 6.42031 5.06828 6.42031C5.24828 6.42031 5.39827 6.27031 5.39827 6.09031V4.40031C5.39827 4.22031 5.24828 4.07031 5.06828 4.07031C4.88828 4.07031 4.73828 4.22031 4.73828 4.40031V6.09031Z" fill="#DDDDDD" stroke="#5E5E5A" stroke-width="0.15" stroke-miterlimit="10" stroke-linecap="round"/>
<path d="M23.0989 4.84961H7.62891V5.54961H23.0989V4.84961Z" fill="#DDDDDD" stroke="#5E5E5A" stroke-width="0.16" stroke-miterlimit="10" stroke-linecap="round"/>
</svg>
