<svg width="22" height="20" viewBox="0 0 22 20" fill="none" xmlns="http://www.w3.org/2000/svg">
<path d="M3.43906 14.9404H5.08906C5.30906 14.9404 5.48906 15.1204 5.48906 15.3404V16.9904C5.48906 17.2104 5.30906 17.3904 5.08906 17.3904H3.43906C3.21906 17.3904 3.03906 17.2104 3.03906 16.9904V15.3404C3.03906 15.1204 3.21906 14.9404 3.43906 14.9404Z" fill="#DDDDDD" stroke="#5E5E5A" stroke-width="0.15" stroke-miterlimit="10" stroke-linecap="round"/>
<path d="M4.70766 15.4902H3.81766C3.69615 15.4902 3.59766 15.5887 3.59766 15.7102V16.6002C3.59766 16.7217 3.69615 16.8202 3.81766 16.8202H4.70766C4.82916 16.8202 4.92766 16.7217 4.92766 16.6002V15.7102C4.92766 15.5887 4.82916 15.4902 4.70766 15.4902Z" fill="#DDDDDD" stroke="#5E5E5A" stroke-width="0.15" stroke-miterlimit="10" stroke-linecap="round"/>
<path d="M3.84718 16.8101C3.84718 16.9401 3.73719 17.0501 3.60719 17.0501C3.47719 17.0501 3.36719 16.9401 3.36719 16.8101V15.5701C3.36719 15.4401 3.47719 15.3301 3.60719 15.3301C3.73719 15.3301 3.84718 15.4401 3.84718 15.5701V16.8101Z" fill="#DDDDDD" stroke="#5E5E5A" stroke-width="0.15" stroke-miterlimit="10" stroke-linecap="round"/>
<path d="M5.1675 16.8101C5.1675 16.9401 5.0575 17.0501 4.9275 17.0501C4.7975 17.0501 4.6875 16.9401 4.6875 16.8101V15.5701C4.6875 15.4401 4.7975 15.3301 4.9275 15.3301C5.0575 15.3301 5.1675 15.4401 5.1675 15.5701V16.8101Z" fill="#DDDDDD" stroke="#5E5E5A" stroke-width="0.15" stroke-miterlimit="10" stroke-linecap="round"/>
<path d="M21.1405 15.8496H5.48047V16.4696H21.1405V15.8496Z" fill="#DDDDDD" stroke="#5E5E5A" stroke-width="0.15" stroke-miterlimit="10" stroke-linecap="round"/>
</svg>
