<svg width="21" height="19" viewBox="0 0 21 19" fill="none" xmlns="http://www.w3.org/2000/svg">
<path d="M2.20078 13.9404H3.85078C4.07078 13.9404 4.25078 14.1204 4.25078 14.3404V15.9904C4.25078 16.2104 4.07078 16.3904 3.85078 16.3904H2.20078C1.98078 16.3904 1.80078 16.2104 1.80078 15.9904V14.3404C1.80078 14.1204 1.98078 13.9404 2.20078 13.9404Z" fill="#DDDDDD" stroke="#5E5E5A" stroke-width="0.15" stroke-miterlimit="10" stroke-linecap="round"/>
<path d="M3.46938 14.4902H2.57938C2.45787 14.4902 2.35938 14.5887 2.35938 14.7102V15.6002C2.35938 15.7217 2.45787 15.8202 2.57938 15.8202H3.46938C3.59088 15.8202 3.68937 15.7217 3.68937 15.6002V14.7102C3.68937 14.5887 3.59088 14.4902 3.46938 14.4902Z" fill="#DDDDDD" stroke="#5E5E5A" stroke-width="0.15" stroke-miterlimit="10" stroke-linecap="round"/>
<path d="M2.62062 15.8101C2.62062 15.9401 2.51063 16.0501 2.38063 16.0501C2.25063 16.0501 2.14062 15.9401 2.14062 15.8101V14.5701C2.14062 14.4401 2.25063 14.3301 2.38063 14.3301C2.51063 14.3301 2.62062 14.4401 2.62062 14.5701V15.8101Z" fill="#DDDDDD" stroke="#5E5E5A" stroke-width="0.15" stroke-miterlimit="10" stroke-linecap="round"/>
<path d="M3.92922 15.8101C3.92922 15.9401 3.81922 16.0501 3.68922 16.0501C3.55922 16.0501 3.44922 15.9401 3.44922 15.8101V14.5701C3.44922 14.4401 3.55922 14.3301 3.68922 14.3301C3.81922 14.3301 3.92922 14.4401 3.92922 14.5701V15.8101Z" fill="#DDDDDD" stroke="#5E5E5A" stroke-width="0.15" stroke-miterlimit="10" stroke-linecap="round"/>
<path d="M20.05 14.8496H4.25V15.4696H20.05V14.8496Z" fill="#DDDDDD" stroke="#5E5E5A" stroke-width="0.15" stroke-miterlimit="10" stroke-linecap="round"/>
</svg>
