<svg width="21" height="22" viewBox="0 0 21 22" fill="none" xmlns="http://www.w3.org/2000/svg">
<path d="M3.0211 16.9404H4.67109C4.89109 16.9404 5.07109 17.1204 5.07109 17.3404V18.9904C5.07109 19.2104 4.89109 19.3904 4.67109 19.3904H3.0211C2.8011 19.3904 2.62109 19.2104 2.62109 18.9904V17.3404C2.62109 17.1204 2.8011 16.9404 3.0211 16.9404Z" fill="#DDDDDD" stroke="#5E5E5A" stroke-width="0.15" stroke-miterlimit="10" stroke-linecap="round"/>
<path d="M4.28969 17.4902H3.39969C3.27819 17.4902 3.17969 17.5887 3.17969 17.7102V18.6002C3.17969 18.7217 3.27819 18.8202 3.39969 18.8202H4.28969C4.41119 18.8202 4.50969 18.7217 4.50969 18.6002V17.7102C4.50969 17.5887 4.41119 17.4902 4.28969 17.4902Z" fill="#DDDDDD" stroke="#5E5E5A" stroke-width="0.15" stroke-miterlimit="10" stroke-linecap="round"/>
<path d="M3.44094 18.8101C3.44094 18.9401 3.33094 19.0501 3.20094 19.0501C3.07094 19.0501 2.96094 18.9401 2.96094 18.8101V17.5701C2.96094 17.4401 3.07094 17.3301 3.20094 17.3301C3.33094 17.3301 3.44094 17.4401 3.44094 17.5701V18.8101Z" fill="#DDDDDD" stroke="#5E5E5A" stroke-width="0.15" stroke-miterlimit="10" stroke-linecap="round"/>
<path d="M4.74953 18.8101C4.74953 18.9401 4.63953 19.0501 4.50953 19.0501C4.37953 19.0501 4.26953 18.9401 4.26953 18.8101V17.5701C4.26953 17.4401 4.37953 17.3301 4.50953 17.3301C4.63953 17.3301 4.74953 17.4401 4.74953 17.5701V18.8101Z" fill="#DDDDDD" stroke="#5E5E5A" stroke-width="0.15" stroke-miterlimit="10" stroke-linecap="round"/>
<path d="M20.8103 17.8496H5.07031V18.4696H20.8103V17.8496Z" fill="#DDDDDD" stroke="#5E5E5A" stroke-width="0.15" stroke-miterlimit="10" stroke-linecap="round"/>
</svg>
