<svg width="23" height="20" viewBox="0 0 23 20" fill="none" xmlns="http://www.w3.org/2000/svg">
<path d="M5.00937 14.9404H6.65937C6.87937 14.9404 7.05937 15.1204 7.05937 15.3404V16.9904C7.05937 17.2104 6.87937 17.3904 6.65937 17.3904H5.00937C4.78937 17.3904 4.60938 17.2104 4.60938 16.9904V15.3404C4.60938 15.1204 4.78937 14.9404 5.00937 14.9404Z" fill="#DDDDDD" stroke="#5E5E5A" stroke-width="0.15" stroke-miterlimit="10" stroke-linecap="round"/>
<path d="M6.27797 15.4902H5.38797C5.26647 15.4902 5.16797 15.5887 5.16797 15.7102V16.6002C5.16797 16.7217 5.26647 16.8202 5.38797 16.8202H6.27797C6.39947 16.8202 6.49797 16.7217 6.49797 16.6002V15.7102C6.49797 15.5887 6.39947 15.4902 6.27797 15.4902Z" fill="#DDDDDD" stroke="#5E5E5A" stroke-width="0.15" stroke-miterlimit="10" stroke-linecap="round"/>
<path d="M5.4175 16.8101C5.4175 16.9401 5.3075 17.0501 5.1775 17.0501C5.0475 17.0501 4.9375 16.9401 4.9375 16.8101V15.5701C4.9375 15.4401 5.0475 15.3301 5.1775 15.3301C5.3075 15.3301 5.4175 15.4401 5.4175 15.5701V16.8101Z" fill="#DDDDDD" stroke="#5E5E5A" stroke-width="0.15" stroke-miterlimit="10" stroke-linecap="round"/>
<path d="M6.73781 16.8101C6.73781 16.9401 6.62781 17.0501 6.49781 17.0501C6.36781 17.0501 6.25781 16.9401 6.25781 16.8101V15.5701C6.25781 15.4401 6.36781 15.3301 6.49781 15.3301C6.62781 15.3301 6.73781 15.4401 6.73781 15.5701V16.8101Z" fill="#DDDDDD" stroke="#5E5E5A" stroke-width="0.15" stroke-miterlimit="10" stroke-linecap="round"/>
<path d="M22.6308 15.8496H7.05078V16.4696H22.6308V15.8496Z" fill="#DDDDDD" stroke="#5E5E5A" stroke-width="0.15" stroke-miterlimit="10" stroke-linecap="round"/>
</svg>
