<svg width="22" height="20" viewBox="0 0 22 20" fill="none" xmlns="http://www.w3.org/2000/svg">
<path d="M3.54063 14.9404H5.19063C5.41063 14.9404 5.59062 15.1204 5.59062 15.3404V16.9904C5.59062 17.2104 5.41063 17.3904 5.19063 17.3904H3.54063C3.32063 17.3904 3.14062 17.2104 3.14062 16.9904V15.3404C3.14062 15.1204 3.32063 14.9404 3.54063 14.9404Z" fill="#DDDDDD" stroke="#5E5E5A" stroke-width="0.15" stroke-miterlimit="10" stroke-linecap="round"/>
<path d="M4.80141 15.4902H3.91141C3.7899 15.4902 3.69141 15.5887 3.69141 15.7102V16.6002C3.69141 16.7217 3.7899 16.8202 3.91141 16.8202H4.80141C4.92291 16.8202 5.0214 16.7217 5.0214 16.6002V15.7102C5.0214 15.5887 4.92291 15.4902 4.80141 15.4902Z" fill="#DDDDDD" stroke="#5E5E5A" stroke-width="0.15" stroke-miterlimit="10" stroke-linecap="round"/>
<path d="M3.94875 16.8101C3.94875 16.9401 3.83875 17.0501 3.70875 17.0501C3.57875 17.0501 3.46875 16.9401 3.46875 16.8101V15.5701C3.46875 15.4401 3.57875 15.3301 3.70875 15.3301C3.83875 15.3301 3.94875 15.4401 3.94875 15.5701V16.8101Z" fill="#DDDDDD" stroke="#5E5E5A" stroke-width="0.15" stroke-miterlimit="10" stroke-linecap="round"/>
<path d="M5.26125 16.8101C5.26125 16.9401 5.15125 17.0501 5.02125 17.0501C4.89125 17.0501 4.78125 16.9401 4.78125 16.8101V15.5701C4.78125 15.4401 4.89125 15.3301 5.02125 15.3301C5.15125 15.3301 5.26125 15.4401 5.26125 15.5701V16.8101Z" fill="#DDDDDD" stroke="#5E5E5A" stroke-width="0.15" stroke-miterlimit="10" stroke-linecap="round"/>
<path d="M21.4381 15.8496H5.57812V16.4696H21.4381V15.8496Z" fill="#DDDDDD" stroke="#5E5E5A" stroke-width="0.15" stroke-miterlimit="10" stroke-linecap="round"/>
</svg>
