<svg width="21" height="19" viewBox="0 0 21 19" fill="none" xmlns="http://www.w3.org/2000/svg">
<path d="M2.8414 13.9404H4.4914C4.7114 13.9404 4.8914 14.1204 4.8914 14.3404V15.9904C4.8914 16.2104 4.7114 16.3904 4.4914 16.3904H2.8414C2.6214 16.3904 2.44141 16.2104 2.44141 15.9904V14.3404C2.44141 14.1204 2.6214 13.9404 2.8414 13.9404Z" fill="#DDDDDD" stroke="#5E5E5A" stroke-width="0.15" stroke-miterlimit="10" stroke-linecap="round"/>
<path d="M4.11 14.4902H3.22C3.0985 14.4902 3 14.5887 3 14.7102V15.6002C3 15.7217 3.0985 15.8202 3.22 15.8202H4.11C4.2315 15.8202 4.33 15.7217 4.33 15.6002V14.7102C4.33 14.5887 4.2315 14.4902 4.11 14.4902Z" fill="#DDDDDD" stroke="#5E5E5A" stroke-width="0.15" stroke-miterlimit="10" stroke-linecap="round"/>
<path d="M3.24953 15.8101C3.24953 15.9401 3.13954 16.0501 3.00954 16.0501C2.87954 16.0501 2.76953 15.9401 2.76953 15.8101V14.5701C2.76953 14.4401 2.87954 14.3301 3.00954 14.3301C3.13954 14.3301 3.24953 14.4401 3.24953 14.5701V15.8101Z" fill="#DDDDDD" stroke="#5E5E5A" stroke-width="0.15" stroke-miterlimit="10" stroke-linecap="round"/>
<path d="M4.56985 15.8101C4.56985 15.9401 4.45985 16.0501 4.32985 16.0501C4.19985 16.0501 4.08984 15.9401 4.08984 15.8101V14.5701C4.08984 14.4401 4.19985 14.3301 4.32985 14.3301C4.45985 14.3301 4.56985 14.4401 4.56985 14.5701V15.8101Z" fill="#DDDDDD" stroke="#5E5E5A" stroke-width="0.15" stroke-miterlimit="10" stroke-linecap="round"/>
<path d="M20.6589 14.8496H4.87891V15.4696H20.6589V14.8496Z" fill="#DDDDDD" stroke="#5E5E5A" stroke-width="0.15" stroke-miterlimit="10" stroke-linecap="round"/>
</svg>
