<svg width="21" height="22" viewBox="0 0 21 22" fill="none" xmlns="http://www.w3.org/2000/svg">
<path d="M3.06015 16.9404H4.71016C4.93016 16.9404 5.11015 17.1204 5.11015 17.3404V18.9904C5.11015 19.2104 4.93016 19.3904 4.71016 19.3904H3.06015C2.84015 19.3904 2.66016 19.2104 2.66016 18.9904V17.3404C2.66016 17.1204 2.84015 16.9404 3.06015 16.9404Z" fill="#DDDDDD" stroke="#5E5E5A" stroke-width="0.15" stroke-miterlimit="10" stroke-linecap="round"/>
<path d="M4.32094 17.4902H3.43092C3.30942 17.4902 3.21094 17.5887 3.21094 17.7102V18.6002C3.21094 18.7217 3.30942 18.8202 3.43092 18.8202H4.32094C4.44244 18.8202 4.54092 18.7217 4.54092 18.6002V17.7102C4.54092 17.5887 4.44244 17.4902 4.32094 17.4902Z" fill="#DDDDDD" stroke="#5E5E5A" stroke-width="0.15" stroke-miterlimit="10" stroke-linecap="round"/>
<path d="M3.46828 18.8101C3.46828 18.9401 3.35827 19.0501 3.22827 19.0501C3.09827 19.0501 2.98828 18.9401 2.98828 18.8101V17.5701C2.98828 17.4401 3.09827 17.3301 3.22827 17.3301C3.35827 17.3301 3.46828 17.4401 3.46828 17.5701V18.8101Z" fill="#DDDDDD" stroke="#5E5E5A" stroke-width="0.15" stroke-miterlimit="10" stroke-linecap="round"/>
<path d="M4.78078 18.8101C4.78078 18.9401 4.67077 19.0501 4.54077 19.0501C4.41077 19.0501 4.30078 18.9401 4.30078 18.8101V17.5701C4.30078 17.4401 4.41077 17.3301 4.54077 17.3301C4.67077 17.3301 4.78078 17.4401 4.78078 17.5701V18.8101Z" fill="#DDDDDD" stroke="#5E5E5A" stroke-width="0.15" stroke-miterlimit="10" stroke-linecap="round"/>
<path d="M20.7016 17.8496H5.10156V18.4696H20.7016V17.8496Z" fill="#DDDDDD" stroke="#5E5E5A" stroke-width="0.15" stroke-miterlimit="10" stroke-linecap="round"/>
</svg>
