<svg width="22" height="20" viewBox="0 0 22 20" fill="none" xmlns="http://www.w3.org/2000/svg">
<path d="M5.09923 14.9404H6.74922C6.96922 14.9404 7.14922 15.1204 7.14922 15.3404V16.9904C7.14922 17.2104 6.96922 17.3904 6.74922 17.3904H5.09923C4.87923 17.3904 4.69922 17.2104 4.69922 16.9904V15.3404C4.69922 15.1204 4.87923 14.9404 5.09923 14.9404Z" fill="#DDDDDD" stroke="#5E5E5A" stroke-width="0.15" stroke-miterlimit="10" stroke-linecap="round"/>
<path d="M6.36781 15.4902H5.47781C5.35631 15.4902 5.25781 15.5887 5.25781 15.7102V16.6002C5.25781 16.7217 5.35631 16.8202 5.47781 16.8202H6.36781C6.48932 16.8202 6.58781 16.7217 6.58781 16.6002V15.7102C6.58781 15.5887 6.48932 15.4902 6.36781 15.4902Z" fill="#DDDDDD" stroke="#5E5E5A" stroke-width="0.15" stroke-miterlimit="10" stroke-linecap="round"/>
<path d="M5.50734 16.8101C5.50734 16.9401 5.39735 17.0501 5.26735 17.0501C5.13735 17.0501 5.02734 16.9401 5.02734 16.8101V15.5701C5.02734 15.4401 5.13735 15.3301 5.26735 15.3301C5.39735 15.3301 5.50734 15.4401 5.50734 15.5701V16.8101Z" fill="#DDDDDD" stroke="#5E5E5A" stroke-width="0.15" stroke-miterlimit="10" stroke-linecap="round"/>
<path d="M6.82765 16.8101C6.82765 16.9401 6.71765 17.0501 6.58765 17.0501C6.45765 17.0501 6.34766 16.9401 6.34766 16.8101V15.5701C6.34766 15.4401 6.45765 15.3301 6.58765 15.3301C6.71765 15.3301 6.82765 15.4401 6.82765 15.5701V16.8101Z" fill="#DDDDDD" stroke="#5E5E5A" stroke-width="0.15" stroke-miterlimit="10" stroke-linecap="round"/>
<path d="M21.5806 15.8496H7.14062V16.4696H21.5806V15.8496Z" fill="#DDDDDD" stroke="#5E5E5A" stroke-width="0.15" stroke-miterlimit="10" stroke-linecap="round"/>
</svg>
