<svg width="14" height="20" viewBox="0 0 14 20" fill="none" xmlns="http://www.w3.org/2000/svg">
<path d="M4.97031 14.9404H6.6203C6.8403 14.9404 7.02031 15.1204 7.02031 15.3404V16.9904C7.02031 17.2104 6.8403 17.3904 6.6203 17.3904H4.97031C4.75031 17.3904 4.57031 17.2104 4.57031 16.9904V15.3404C4.57031 15.1204 4.75031 14.9404 4.97031 14.9404Z" fill="#DDDDDD" stroke="#5E5E5A" stroke-width="0.15" stroke-miterlimit="10" stroke-linecap="round"/>
<path d="M6.23891 15.4902H5.34891C5.2274 15.4902 5.12891 15.5887 5.12891 15.7102V16.6002C5.12891 16.7217 5.2274 16.8202 5.34891 16.8202H6.23891C6.36041 16.8202 6.45891 16.7217 6.45891 16.6002V15.7102C6.45891 15.5887 6.36041 15.4902 6.23891 15.4902Z" fill="#DDDDDD" stroke="#5E5E5A" stroke-width="0.15" stroke-miterlimit="10" stroke-linecap="round"/>
<path d="M5.37845 16.8101C5.37845 16.9401 5.26844 17.0501 5.13844 17.0501C5.00844 17.0501 4.89844 16.9401 4.89844 16.8101V15.5701C4.89844 15.4401 5.00844 15.3301 5.13844 15.3301C5.26844 15.3301 5.37845 15.4401 5.37845 15.5701V16.8101Z" fill="#DDDDDD" stroke="#5E5E5A" stroke-width="0.15" stroke-miterlimit="10" stroke-linecap="round"/>
<path d="M6.69875 16.8101C6.69875 16.9401 6.58876 17.0501 6.45876 17.0501C6.32876 17.0501 6.21875 16.9401 6.21875 16.8101V15.5701C6.21875 15.4401 6.32876 15.3301 6.45876 15.3301C6.58876 15.3301 6.69875 15.4401 6.69875 15.5701V16.8101Z" fill="#DDDDDD" stroke="#5E5E5A" stroke-width="0.15" stroke-miterlimit="10" stroke-linecap="round"/>
</svg>
