<svg width="20" height="18" viewBox="0 0 20 18" fill="none" xmlns="http://www.w3.org/2000/svg">
<path d="M1.72813 3.08008H3.37812C3.59812 3.08008 3.77812 3.26008 3.77812 3.48008V5.13008C3.77812 5.35008 3.59812 5.53008 3.37812 5.53008H1.72813C1.50813 5.53008 1.32812 5.35008 1.32812 5.13008V3.48008C1.32812 3.26008 1.50813 3.08008 1.72813 3.08008Z" fill="#DDDDDD" stroke="#5E5E5A" stroke-width="0.15" stroke-miterlimit="10" stroke-linecap="round"/>
<path d="M2.98891 3.62988H2.09891C1.9774 3.62988 1.87891 3.72838 1.87891 3.84988V4.73988C1.87891 4.86139 1.9774 4.95988 2.09891 4.95988H2.98891C3.11041 4.95988 3.20891 4.86139 3.20891 4.73988V3.84988C3.20891 3.72838 3.11041 3.62988 2.98891 3.62988Z" fill="#DDDDDD" stroke="#5E5E5A" stroke-width="0.15" stroke-miterlimit="10" stroke-linecap="round"/>
<path d="M2.13625 4.94973C2.13625 5.07973 2.02625 5.18972 1.89625 5.18972C1.76625 5.18972 1.65625 5.07973 1.65625 4.94973V3.70972C1.65625 3.57972 1.76625 3.46973 1.89625 3.46973C2.02625 3.46973 2.13625 3.57972 2.13625 3.70972V4.94973Z" fill="#DDDDDD" stroke="#5E5E5A" stroke-width="0.15" stroke-miterlimit="10" stroke-linecap="round"/>
<path d="M3.45656 4.94973C3.45656 5.07973 3.34656 5.18972 3.21656 5.18972C3.08656 5.18972 2.97656 5.07973 2.97656 4.94973V3.70972C2.97656 3.57972 3.08656 3.46973 3.21656 3.46973C3.34656 3.46973 3.45656 3.57972 3.45656 3.70972V4.94973Z" fill="#DDDDDD" stroke="#5E5E5A" stroke-width="0.15" stroke-miterlimit="10" stroke-linecap="round"/>
<path d="M19.4695 3.99023H3.76953V4.61023H19.4695V3.99023Z" fill="#DDDDDD" stroke="#5E5E5A" stroke-width="0.15" stroke-miterlimit="10" stroke-linecap="round"/>
</svg>
