<svg width="20" height="19" viewBox="0 0 20 19" fill="none" xmlns="http://www.w3.org/2000/svg">
<path d="M1.86094 3.08008H3.51094C3.73094 3.08008 3.91094 3.26008 3.91094 3.48008V5.13008C3.91094 5.35008 3.73094 5.53008 3.51094 5.53008H1.86094C1.64094 5.53008 1.46094 5.35008 1.46094 5.13008V3.48008C1.46094 3.26008 1.64094 3.08008 1.86094 3.08008Z" fill="#DDDDDD" stroke="#5E5E5A" stroke-width="0.15" stroke-miterlimit="10" stroke-linecap="round"/>
<path d="M3.12953 3.62988H2.23953C2.11803 3.62988 2.01953 3.72838 2.01953 3.84988V4.73988C2.01953 4.86139 2.11803 4.95988 2.23953 4.95988H3.12953C3.25103 4.95988 3.34953 4.86139 3.34953 4.73988V3.84988C3.34953 3.72838 3.25103 3.62988 3.12953 3.62988Z" fill="#DDDDDD" stroke="#5E5E5A" stroke-width="0.15" stroke-miterlimit="10" stroke-linecap="round"/>
<path d="M2.26906 4.94973C2.26906 5.07973 2.15906 5.18972 2.02906 5.18972C1.89906 5.18972 1.78906 5.07973 1.78906 4.94973V3.70972C1.78906 3.57972 1.89906 3.46973 2.02906 3.46973C2.15906 3.46973 2.26906 3.57972 2.26906 3.70972V4.94973Z" fill="#DDDDDD" stroke="#5E5E5A" stroke-width="0.15" stroke-miterlimit="10" stroke-linecap="round"/>
<path d="M3.58937 4.94973C3.58937 5.07973 3.47937 5.18972 3.34937 5.18972C3.21937 5.18972 3.10938 5.07973 3.10938 4.94973V3.70972C3.10938 3.57972 3.21937 3.46973 3.34937 3.46973C3.47937 3.46973 3.58937 3.57972 3.58937 3.70972V4.94973Z" fill="#DDDDDD" stroke="#5E5E5A" stroke-width="0.15" stroke-miterlimit="10" stroke-linecap="round"/>
<path d="M19.4784 3.99023H3.89844V4.61023H19.4784V3.99023Z" fill="#DDDDDD" stroke="#5E5E5A" stroke-width="0.15" stroke-miterlimit="10" stroke-linecap="round"/>
</svg>
