<svg width="22" height="22" viewBox="0 0 22 22" fill="none" xmlns="http://www.w3.org/2000/svg">
<path d="M2.88048 3.08008H4.53047C4.75047 3.08008 4.93047 3.26008 4.93047 3.48008V5.13008C4.93047 5.35008 4.75047 5.53008 4.53047 5.53008H2.88048C2.66048 5.53008 2.48047 5.35008 2.48047 5.13008V3.48008C2.48047 3.26008 2.66048 3.08008 2.88048 3.08008Z" fill="#DDDDDD" stroke="#5E5E5A" stroke-width="0.15" stroke-miterlimit="10" stroke-linecap="round"/>
<path d="M4.14906 3.62988H3.25906C3.13756 3.62988 3.03906 3.72838 3.03906 3.84988V4.73988C3.03906 4.86139 3.13756 4.95988 3.25906 4.95988H4.14906C4.27057 4.95988 4.36906 4.86139 4.36906 4.73988V3.84988C4.36906 3.72838 4.27057 3.62988 4.14906 3.62988Z" fill="#DDDDDD" stroke="#5E5E5A" stroke-width="0.15" stroke-miterlimit="10" stroke-linecap="round"/>
<path d="M3.28859 4.94973C3.28859 5.07973 3.1786 5.18972 3.0486 5.18972C2.9186 5.18972 2.80859 5.07973 2.80859 4.94973V3.70972C2.80859 3.57972 2.9186 3.46973 3.0486 3.46973C3.1786 3.46973 3.28859 3.57972 3.28859 3.70972V4.94973Z" fill="#DDDDDD" stroke="#5E5E5A" stroke-width="0.15" stroke-miterlimit="10" stroke-linecap="round"/>
<path d="M4.6089 4.94973C4.6089 5.07973 4.4989 5.18972 4.3689 5.18972C4.2389 5.18972 4.12891 5.07973 4.12891 4.94973V3.70972C4.12891 3.57972 4.2389 3.46973 4.3689 3.46973C4.4989 3.46973 4.6089 3.57972 4.6089 3.70972V4.94973Z" fill="#DDDDDD" stroke="#5E5E5A" stroke-width="0.15" stroke-miterlimit="10" stroke-linecap="round"/>
<path d="M21.3119 3.99023H4.92188V4.61023H21.3119V3.99023Z" fill="#DDDDDD" stroke="#5E5E5A" stroke-width="0.15" stroke-miterlimit="10" stroke-linecap="round"/>
</svg>
