<svg width="23" height="18" viewBox="0 0 23 18" fill="none" xmlns="http://www.w3.org/2000/svg">
<path d="M5.7086 3.08008H7.3586C7.5786 3.08008 7.75859 3.26008 7.75859 3.48008V5.13008C7.75859 5.35008 7.5786 5.53008 7.3586 5.53008H5.7086C5.4886 5.53008 5.30859 5.35008 5.30859 5.13008V3.48008C5.30859 3.26008 5.4886 3.08008 5.7086 3.08008Z" fill="#DDDDDD" stroke="#5E5E5A" stroke-width="0.15" stroke-miterlimit="10" stroke-linecap="round"/>
<path d="M6.97719 3.62988H6.08719C5.96569 3.62988 5.86719 3.72838 5.86719 3.84988V4.73988C5.86719 4.86139 5.96569 4.95988 6.08719 4.95988H6.97719C7.09869 4.95988 7.19719 4.86139 7.19719 4.73988V3.84988C7.19719 3.72838 7.09869 3.62988 6.97719 3.62988Z" fill="#DDDDDD" stroke="#5E5E5A" stroke-width="0.15" stroke-miterlimit="10" stroke-linecap="round"/>
<path d="M6.11671 4.94973C6.11671 5.07973 6.00672 5.18972 5.87672 5.18972C5.74672 5.18972 5.63672 5.07973 5.63672 4.94973V3.70972C5.63672 3.57972 5.74672 3.46973 5.87672 3.46973C6.00672 3.46973 6.11671 3.57972 6.11671 3.70972V4.94973Z" fill="#DDDDDD" stroke="#5E5E5A" stroke-width="0.15" stroke-miterlimit="10" stroke-linecap="round"/>
<path d="M7.43703 4.94973C7.43703 5.07973 7.32702 5.18972 7.19702 5.18972C7.06702 5.18972 6.95703 5.07973 6.95703 4.94973V3.70972C6.95703 3.57972 7.06702 3.46973 7.19702 3.46973C7.32702 3.46973 7.43703 3.57972 7.43703 3.70972V4.94973Z" fill="#DDDDDD" stroke="#5E5E5A" stroke-width="0.15" stroke-miterlimit="10" stroke-linecap="round"/>
<path d="M22.6 3.99023H7.75V4.61023H22.6V3.99023Z" fill="#DDDDDD" stroke="#5E5E5A" stroke-width="0.15" stroke-miterlimit="10" stroke-linecap="round"/>
</svg>
