<svg width="13" height="19" viewBox="0 0 13 19" fill="none" xmlns="http://www.w3.org/2000/svg">
<path d="M4.98985 3.08008H6.63985C6.85985 3.08008 7.03984 3.26008 7.03984 3.48008V5.13008C7.03984 5.35008 6.85985 5.53008 6.63985 5.53008H4.98985C4.76985 5.53008 4.58984 5.35008 4.58984 5.13008V3.48008C4.58984 3.26008 4.76985 3.08008 4.98985 3.08008Z" fill="#DDDDDD" stroke="#5E5E5A" stroke-width="0.15" stroke-miterlimit="10" stroke-linecap="round"/>
<path d="M6.25844 3.62988H5.36844C5.24694 3.62988 5.14844 3.72838 5.14844 3.84988V4.73988C5.14844 4.86139 5.24694 4.95988 5.36844 4.95988H6.25844C6.37994 4.95988 6.47844 4.86139 6.47844 4.73988V3.84988C6.47844 3.72838 6.37994 3.62988 6.25844 3.62988Z" fill="#DDDDDD" stroke="#5E5E5A" stroke-width="0.15" stroke-miterlimit="10" stroke-linecap="round"/>
<path d="M5.4097 4.94973C5.4097 5.07973 5.29969 5.18972 5.16969 5.18972C5.03969 5.18972 4.92969 5.07973 4.92969 4.94973V3.70972C4.92969 3.57972 5.03969 3.46973 5.16969 3.46973C5.29969 3.46973 5.4097 3.57972 5.4097 3.70972V4.94973Z" fill="#DDDDDD" stroke="#5E5E5A" stroke-width="0.15" stroke-miterlimit="10" stroke-linecap="round"/>
<path d="M6.71828 4.94973C6.71828 5.07973 6.60827 5.18972 6.47827 5.18972C6.34827 5.18972 6.23828 5.07973 6.23828 4.94973V3.70972C6.23828 3.57972 6.34827 3.46973 6.47827 3.46973C6.60827 3.46973 6.71828 3.57972 6.71828 3.70972V4.94973Z" fill="#DDDDDD" stroke="#5E5E5A" stroke-width="0.15" stroke-miterlimit="10" stroke-linecap="round"/>
</svg>
