<svg width="20" height="18" viewBox="0 0 20 18" fill="none" xmlns="http://www.w3.org/2000/svg">
<path d="M1.27109 3.08008H2.92109C3.14109 3.08008 3.32109 3.26008 3.32109 3.48008V5.13008C3.32109 5.35008 3.14109 5.53008 2.92109 5.53008H1.27109C1.05109 5.53008 0.871094 5.35008 0.871094 5.13008V3.48008C0.871094 3.26008 1.05109 3.08008 1.27109 3.08008Z" fill="#DDDDDD" stroke="#5E5E5A" stroke-width="0.15" stroke-miterlimit="10" stroke-linecap="round"/>
<path d="M2.53969 3.62988H1.64969C1.52819 3.62988 1.42969 3.72838 1.42969 3.84988V4.73988C1.42969 4.86139 1.52819 4.95988 1.64969 4.95988H2.53969C2.66119 4.95988 2.75969 4.86139 2.75969 4.73988V3.84988C2.75969 3.72838 2.66119 3.62988 2.53969 3.62988Z" fill="#DDDDDD" stroke="#5E5E5A" stroke-width="0.15" stroke-miterlimit="10" stroke-linecap="round"/>
<path d="M1.67922 4.94973C1.67922 5.07973 1.56922 5.18972 1.43922 5.18972C1.30922 5.18972 1.19922 5.07973 1.19922 4.94973V3.70972C1.19922 3.57972 1.30922 3.46973 1.43922 3.46973C1.56922 3.46973 1.67922 3.57972 1.67922 3.70972V4.94973Z" fill="#DDDDDD" stroke="#5E5E5A" stroke-width="0.15" stroke-miterlimit="10" stroke-linecap="round"/>
<path d="M2.99953 4.94973C2.99953 5.07973 2.88954 5.18972 2.75954 5.18972C2.62954 5.18972 2.51953 5.07973 2.51953 4.94973V3.70972C2.51953 3.57972 2.62954 3.46973 2.75954 3.46973C2.88954 3.46973 2.99953 3.57972 2.99953 3.70972V4.94973Z" fill="#DDDDDD" stroke="#5E5E5A" stroke-width="0.15" stroke-miterlimit="10" stroke-linecap="round"/>
<path d="M19.3403 3.99023H3.32031V4.61023H19.3403V3.99023Z" fill="#DDDDDD" stroke="#5E5E5A" stroke-width="0.15" stroke-miterlimit="10" stroke-linecap="round"/>
</svg>
