<svg width="20" height="19" viewBox="0 0 20 19" fill="none" xmlns="http://www.w3.org/2000/svg">
<path d="M2.22812 3.08008H3.87812C4.09812 3.08008 4.27812 3.26008 4.27812 3.48008V5.13008C4.27812 5.35008 4.09812 5.53008 3.87812 5.53008H2.22812C2.00812 5.53008 1.82812 5.35008 1.82812 5.13008V3.48008C1.82812 3.26008 2.00812 3.08008 2.22812 3.08008Z" fill="#DDDDDD" stroke="#5E5E5A" stroke-width="0.15" stroke-miterlimit="10" stroke-linecap="round"/>
<path d="M3.49672 3.62988H2.60672C2.48522 3.62988 2.38672 3.72838 2.38672 3.84988V4.73988C2.38672 4.86139 2.48522 4.95988 2.60672 4.95988H3.49672C3.61822 4.95988 3.71672 4.86139 3.71672 4.73988V3.84988C3.71672 3.72838 3.61822 3.62988 3.49672 3.62988Z" fill="#DDDDDD" stroke="#5E5E5A" stroke-width="0.15" stroke-miterlimit="10" stroke-linecap="round"/>
<path d="M2.63625 4.94973C2.63625 5.07973 2.52625 5.18972 2.39625 5.18972C2.26625 5.18972 2.15625 5.07973 2.15625 4.94973V3.70972C2.15625 3.57972 2.26625 3.46973 2.39625 3.46973C2.52625 3.46973 2.63625 3.57972 2.63625 3.70972V4.94973Z" fill="#DDDDDD" stroke="#5E5E5A" stroke-width="0.15" stroke-miterlimit="10" stroke-linecap="round"/>
<path d="M3.95656 4.94973C3.95656 5.07973 3.84656 5.18972 3.71656 5.18972C3.58656 5.18972 3.47656 5.07973 3.47656 4.94973V3.70972C3.47656 3.57972 3.58656 3.46973 3.71656 3.46973C3.84656 3.46973 3.95656 3.57972 3.95656 3.70972V4.94973Z" fill="#DDDDDD" stroke="#5E5E5A" stroke-width="0.15" stroke-miterlimit="10" stroke-linecap="round"/>
<path d="M19.8795 3.99023H4.26953V4.61023H19.8795V3.99023Z" fill="#DDDDDD" stroke="#5E5E5A" stroke-width="0.15" stroke-miterlimit="10" stroke-linecap="round"/>
</svg>
