<svg width="21" height="22" viewBox="0 0 21 22" fill="none" xmlns="http://www.w3.org/2000/svg">
<path d="M4.68843 3.08008H3.04844C2.82752 3.08008 2.64844 3.25916 2.64844 3.48008V5.12008C2.64844 5.34099 2.82752 5.52008 3.04844 5.52008H4.68843C4.90935 5.52008 5.08844 5.34099 5.08844 5.12008V3.48008C5.08844 3.25916 4.90935 3.08008 4.68843 3.08008Z" fill="#DDDDDD" stroke="#5E5E5A" stroke-width="0.15" stroke-miterlimit="10" stroke-linecap="round"/>
<path d="M4.31703 3.62988H3.42703C3.30553 3.62988 3.20703 3.72838 3.20703 3.84988V4.73988C3.20703 4.86139 3.30553 4.95988 3.42703 4.95988H4.31703C4.43853 4.95988 4.53703 4.86139 4.53703 4.73988V3.84988C4.53703 3.72838 4.43853 3.62988 4.31703 3.62988Z" fill="#DDDDDD" stroke="#5E5E5A" stroke-width="0.15" stroke-miterlimit="10" stroke-linecap="round"/>
<path d="M3.45656 4.94973C3.45656 5.07973 3.34656 5.18972 3.21656 5.18972C3.08656 5.18972 2.97656 5.07973 2.97656 4.94973V3.70972C2.97656 3.57972 3.08656 3.46973 3.21656 3.46973C3.34656 3.46973 3.45656 3.57972 3.45656 3.70972V4.94973Z" fill="#DDDDDD" stroke="#5E5E5A" stroke-width="0.15" stroke-miterlimit="10" stroke-linecap="round"/>
<path d="M4.77687 4.94973C4.77687 5.07973 4.66688 5.18972 4.53688 5.18972C4.40688 5.18972 4.29688 5.07973 4.29688 4.94973V3.70972C4.29688 3.57972 4.40688 3.46973 4.53688 3.46973C4.66688 3.46973 4.77687 3.57972 4.77687 3.70972V4.94973Z" fill="#DDDDDD" stroke="#5E5E5A" stroke-width="0.15" stroke-miterlimit="10" stroke-linecap="round"/>
<path d="M20.8298 3.99023H5.08984V4.61023H20.8298V3.99023Z" fill="#DDDDDD" stroke="#5E5E5A" stroke-width="0.15" stroke-miterlimit="10" stroke-linecap="round"/>
</svg>
