<svg width="23" height="18" viewBox="0 0 23 18" fill="none" xmlns="http://www.w3.org/2000/svg">
<path d="M4.13828 3.08008H5.78828C6.00828 3.08008 6.18828 3.26008 6.18828 3.48008V5.13008C6.18828 5.35008 6.00828 5.53008 5.78828 5.53008H4.13828C3.91828 5.53008 3.73828 5.35008 3.73828 5.13008V3.48008C3.73828 3.26008 3.91828 3.08008 4.13828 3.08008Z" fill="#DDDDDD" stroke="#5E5E5A" stroke-width="0.15" stroke-miterlimit="10" stroke-linecap="round"/>
<path d="M5.40688 3.62988H4.51688C4.39537 3.62988 4.29688 3.72838 4.29688 3.84988V4.73988C4.29688 4.86139 4.39537 4.95988 4.51688 4.95988H5.40688C5.52838 4.95988 5.62687 4.86139 5.62687 4.73988V3.84988C5.62687 3.72838 5.52838 3.62988 5.40688 3.62988Z" fill="#DDDDDD" stroke="#5E5E5A" stroke-width="0.15" stroke-miterlimit="10" stroke-linecap="round"/>
<path d="M4.55812 4.94973C4.55812 5.07973 4.44812 5.18972 4.31812 5.18972C4.18812 5.18972 4.07812 5.07973 4.07812 4.94973V3.70972C4.07812 3.57972 4.18812 3.46973 4.31812 3.46973C4.44812 3.46973 4.55812 3.57972 4.55812 3.70972V4.94973Z" fill="#DDDDDD" stroke="#5E5E5A" stroke-width="0.15" stroke-miterlimit="10" stroke-linecap="round"/>
<path d="M5.86672 4.94973C5.86672 5.07973 5.75672 5.18972 5.62672 5.18972C5.49672 5.18972 5.38672 5.07973 5.38672 4.94973V3.70972C5.38672 3.57972 5.49672 3.46973 5.62672 3.46973C5.75672 3.46973 5.86672 3.57972 5.86672 3.70972V4.94973Z" fill="#DDDDDD" stroke="#5E5E5A" stroke-width="0.15" stroke-miterlimit="10" stroke-linecap="round"/>
<path d="M22.6614 3.99023H6.19141V4.61023H22.6614V3.99023Z" fill="#DDDDDD" stroke="#5E5E5A" stroke-width="0.15" stroke-miterlimit="10" stroke-linecap="round"/>
</svg>
