<svg width="23" height="19" viewBox="0 0 23 19" fill="none" xmlns="http://www.w3.org/2000/svg">
<path d="M5.65 3.08008H7.3C7.52 3.08008 7.7 3.26008 7.7 3.48008V5.13008C7.7 5.35008 7.52 5.53008 7.3 5.53008H5.65C5.43 5.53008 5.25 5.35008 5.25 5.13008V3.48008C5.25 3.26008 5.43 3.08008 5.65 3.08008Z" fill="#DDDDDD" stroke="#5E5E5A" stroke-width="0.15" stroke-miterlimit="10" stroke-linecap="round"/>
<path d="M6.91859 3.62988H6.02859C5.90709 3.62988 5.80859 3.72838 5.80859 3.84988V4.73988C5.80859 4.86139 5.90709 4.95988 6.02859 4.95988H6.91859C7.0401 4.95988 7.13859 4.86139 7.13859 4.73988V3.84988C7.13859 3.72838 7.0401 3.62988 6.91859 3.62988Z" fill="#DDDDDD" stroke="#5E5E5A" stroke-width="0.15" stroke-miterlimit="10" stroke-linecap="round"/>
<path d="M6.05813 4.94973C6.05813 5.07973 5.94813 5.18972 5.81813 5.18972C5.68813 5.18972 5.57812 5.07973 5.57812 4.94973V3.70972C5.57812 3.57972 5.68813 3.46973 5.81813 3.46973C5.94813 3.46973 6.05813 3.57972 6.05813 3.70972V4.94973Z" fill="#DDDDDD" stroke="#5E5E5A" stroke-width="0.15" stroke-miterlimit="10" stroke-linecap="round"/>
<path d="M7.37844 4.94973C7.37844 5.07973 7.26844 5.18972 7.13844 5.18972C7.00844 5.18972 6.89844 5.07973 6.89844 4.94973V3.70972C6.89844 3.57972 7.00844 3.46973 7.13844 3.46973C7.26844 3.46973 7.37844 3.57972 7.37844 3.70972V4.94973Z" fill="#DDDDDD" stroke="#5E5E5A" stroke-width="0.15" stroke-miterlimit="10" stroke-linecap="round"/>
<path d="M22.7414 3.99023H7.69141V4.61023H22.7414V3.99023Z" fill="#DDDDDD" stroke="#5E5E5A" stroke-width="0.15" stroke-miterlimit="10" stroke-linecap="round"/>
</svg>
