<svg width="11" height="28" viewBox="0 0 11 28" fill="none" xmlns="http://www.w3.org/2000/svg">
<mask id="mask0_254_17893" style="mask-type:luminance" maskUnits="userSpaceOnUse" x="1" y="14" width="10" height="14">
<path d="M1.99514 26.6371C2.22514 26.6971 3.24513 27.2671 4.70513 27.1271C5.61513 27.0371 6.74516 27.4071 7.85516 26.9971C8.41516 26.7871 9.06515 26.7571 9.69515 26.5471C10.3852 26.3171 10.4351 23.5971 10.2051 21.0571C9.97513 18.5171 9.46516 19.1671 8.63516 17.7371C5.01516 11.5071 4.59514 17.0971 2.80514 17.2271C1.66514 17.3071 0.135142 26.1871 1.99514 26.6271V26.6371Z" fill="white"/>
</mask>
<g mask="url(#mask0_254_17893)">
<path opacity="0.75" d="M12.2639 21.1074C12.2639 21.1074 9.00391 20.3074 9.00391 22.5774C9.00391 25.3174 12.3039 24.4474 12.3039 24.4474L12.2639 21.0974V21.1074Z" fill="#E62C2F" stroke="#E62C2F" stroke-width="0.5" stroke-linecap="round" stroke-linejoin="round"/>
</g>
</svg>
