<svg width="10" height="33" viewBox="0 0 10 33" fill="none" xmlns="http://www.w3.org/2000/svg">
<mask id="mask0_254_17818" style="mask-type:luminance" maskUnits="userSpaceOnUse" x="0" y="19" width="10" height="14">
<path d="M0.224703 28.7171C-0.265297 26.6671 1.0047 23.9271 1.2547 22.6771C1.4947 21.4271 3.3047 19.8071 4.6247 19.8971C5.9447 19.9971 7.6547 21.0471 7.8747 21.8871C9.0147 26.2471 10.2547 28.5171 8.1947 30.9171C6.8747 32.4471 4.82469 32.5971 3.36469 31.3471C1.90469 30.0971 0.774692 30.9671 0.244692 28.7171H0.224703Z" fill="white"/>
</mask>
<g mask="url(#mask0_254_17818)">
<path opacity="0.75" d="M11.3136 24.3973C10.8736 24.3473 7.68359 23.4273 7.68359 25.9173C7.68359 28.6773 11.2636 27.7573 11.2636 27.7573L11.3036 24.3973H11.3136Z" fill="#E62C2F" stroke="#E62C2F" stroke-width="0.5" stroke-linecap="round" stroke-linejoin="round"/>
</g>
</svg>
