<svg width="12" height="29" viewBox="0 0 12 29" fill="none" xmlns="http://www.w3.org/2000/svg">
<mask id="mask0_254_17880" style="mask-type:luminance" maskUnits="userSpaceOnUse" x="0" y="16" width="12" height="13">
<path d="M0.683594 24.1064C0.683594 22.1564 1.66359 18.6864 2.39359 17.8064C3.12359 16.9264 4.73358 16.1464 5.95358 16.3164C7.17358 16.4864 7.61358 17.8964 8.54358 17.8564C9.46358 17.8164 10.3036 17.6164 10.4936 19.3664C10.6936 21.1264 11.0836 21.2664 11.2536 22.3964C11.4236 23.5164 11.8136 24.4764 9.71359 25.3164C7.61359 26.1564 7.09358 28.6964 5.23358 28.1364C3.36358 27.5764 3.61358 26.5064 2.29358 26.0164C0.973579 25.5264 0.683594 24.8464 0.683594 24.1164V24.1064Z" fill="white"/>
</mask>
<g mask="url(#mask0_254_17880)">
<path opacity="0.75" d="M13.2917 19.1963C13.2917 19.1963 9.51172 18.6063 9.51172 20.9963C9.51172 23.7763 13.2117 23.1763 13.2117 23.1763L13.2917 19.1963Z" fill="#E62C2F" stroke="#E62C2F" stroke-width="0.5" stroke-linecap="round" stroke-linejoin="round"/>
</g>
</svg>
