<svg width="9" height="27" viewBox="0 0 9 27" fill="none" xmlns="http://www.w3.org/2000/svg">
<mask id="mask0_254_17842" style="mask-type:luminance" maskUnits="userSpaceOnUse" x="0" y="14" width="9" height="13">
<path d="M0.514331 24.2263C1.00433 25.0563 2.62435 24.9063 2.87435 25.5963C3.11435 26.2763 5.54435 26.5763 6.22435 25.3963C6.90435 24.2263 8.17435 23.7863 8.47435 22.6663C8.76435 21.5463 9.10435 17.1463 8.47435 16.7063C7.84435 16.2663 6.77433 16.8063 6.23433 16.2163C5.69433 15.6263 4.35434 14.0163 3.43434 15.0463C2.51434 16.0763 2.35435 16.8063 1.59435 16.9263C-0.0756518 17.1863 0.164331 23.6263 0.514331 24.2263Z" fill="white"/>
</mask>
<g mask="url(#mask0_254_17842)">
<path opacity="0.75" d="M11.4129 18.9961C11.4129 18.9961 7.35287 18.0561 7.25287 20.4761C7.12287 23.5861 11.4529 22.7561 11.4529 22.7561L11.4129 18.9961Z" fill="#E62C2F" stroke="#E62C2F" stroke-width="0.2" stroke-linecap="round" stroke-linejoin="round"/>
</g>
</svg>
