<svg width="13" height="28" viewBox="0 0 13 28" fill="none" xmlns="http://www.w3.org/2000/svg">
<mask id="mask0_254_17869" style="mask-type:luminance" maskUnits="userSpaceOnUse" x="0" y="16" width="13" height="12">
<path d="M1.32567 17.8369C0.555673 19.2369 0.105677 24.5769 0.735677 25.5069C1.36568 26.4369 3.07568 26.5769 3.76568 25.8969C4.45568 25.2169 4.66567 25.9869 5.27567 26.3269C5.88567 26.6569 6.42567 26.0369 7.08567 26.6869C8.33567 27.9069 10.7457 27.0769 11.4357 24.1969C12.1157 21.3169 12.2657 18.7269 11.9257 17.8469C11.5857 16.9669 9.92567 18.3869 8.75567 17.3069C7.58567 16.2369 5.87568 16.2769 4.45568 16.9169C3.03568 17.5569 2.45567 15.7969 1.33567 17.8469L1.32567 17.8369Z" fill="white"/>
</mask>
<g mask="url(#mask0_254_17869)">
<path opacity="0.75" d="M14.3269 20.7071C14.3269 20.7071 10.2969 19.2171 10.2969 22.3971C10.2969 25.2171 14.3469 24.1171 14.3469 24.1171L14.3269 20.7071Z" fill="#E62C2F" stroke="#E62C2F" stroke-width="0.2" stroke-linecap="round" stroke-linejoin="round"/>
</g>
</svg>
