<svg width="14" height="26" viewBox="0 0 14 26" fill="none" xmlns="http://www.w3.org/2000/svg">
<mask id="mask0_254_17854" style="mask-type:luminance" maskUnits="userSpaceOnUse" x="0" y="14" width="13" height="12">
<path d="M1.65407 16.9563C0.604074 19.2463 0.484066 22.2863 2.11407 23.2863C3.78407 24.3163 4.80407 23.2863 5.63407 23.5263C6.46407 23.7663 8.89407 26.3763 10.8641 24.2963C12.5341 22.5363 13.5441 17.3663 12.6641 16.1463C10.7741 13.5263 9.13408 16.5163 6.48408 15.0363C5.33408 14.3963 2.69407 14.6963 1.66407 16.9463L1.65407 16.9563Z" fill="white"/>
</mask>
<g mask="url(#mask0_254_17854)">
<path opacity="0.75" d="M14.9128 18.6466C14.9128 18.6466 10.8828 17.1566 10.8828 20.3366C10.8828 23.1566 14.9328 22.0566 14.9328 22.0566L14.9128 18.6466Z" fill="#E62C2F" stroke="#E62C2F" stroke-width="0.2" stroke-linecap="round" stroke-linejoin="round"/>
</g>
</svg>
