<svg width="11" height="24" viewBox="0 0 11 24" fill="none" xmlns="http://www.w3.org/2000/svg">
<mask id="mask0_254_17803" style="mask-type:luminance" maskUnits="userSpaceOnUse" x="0" y="13" width="11" height="11">
<path d="M0.43297 16.1868C-0.337029 17.9068 0.00296378 22.5768 1.72296 22.5768C3.44296 22.5768 3.87297 22.3068 4.51297 22.9568C5.15297 23.6068 6.12297 22.6368 6.66297 22.7468C7.20297 22.8568 9.17297 24.2968 9.71297 21.4068C10.263 18.5068 10.313 14.2068 8.64296 14.5368C4.52296 15.3368 5.53297 10.9968 2.30297 15.3968C1.71297 16.2068 1.06298 14.7568 0.422976 16.2068L0.43297 16.1868Z" fill="white"/>
</mask>
<g mask="url(#mask0_254_17803)">
<path opacity="0.75" d="M12.3841 17.6369C12.3841 17.6369 8.41406 15.7969 8.41406 18.9769C8.41406 21.7969 12.3541 20.2869 12.3541 20.2869L12.3841 17.6369Z" fill="#E62C2F" stroke="#E62C2F" stroke-width="0.2" stroke-linecap="round" stroke-linejoin="round"/>
</g>
</svg>
