<svg width="11" height="28" viewBox="0 0 11 28" fill="none" xmlns="http://www.w3.org/2000/svg">
<mask id="mask0_254_17683" style="mask-type:luminance" maskUnits="userSpaceOnUse" x="0" y="14" width="10" height="14">
<path d="M9.09507 26.6869C8.86507 26.7469 7.84508 27.3169 6.38508 27.1769C5.47508 27.0869 4.34505 27.4569 3.23505 27.0469C2.67505 26.8369 2.02506 26.8069 1.39506 26.5969C0.705058 26.3669 0.655078 23.6469 0.885078 21.1069C1.11508 18.5669 1.62506 19.2169 2.45506 17.7869C6.07506 11.5569 6.49507 17.1469 8.28507 17.2769C9.42507 17.3569 10.9551 26.2369 9.09507 26.6769V26.6869Z" fill="white"/>
</mask>
<g mask="url(#mask0_254_17683)">
<path opacity="0.75" d="M11.885 24.1666C11.885 24.1666 8.625 24.9666 8.625 22.6966C8.625 19.9566 11.925 20.8266 11.925 20.8266L11.885 24.1765V24.1666Z" fill="#E62C2F" stroke="#E62C2F" stroke-width="0.5" stroke-linecap="round" stroke-linejoin="round"/>
</g>
</svg>
