<svg width="12" height="29" viewBox="0 0 12 29" fill="none" xmlns="http://www.w3.org/2000/svg">
<mask id="mask0_254_17670" style="mask-type:luminance" maskUnits="userSpaceOnUse" x="0" y="16" width="12" height="13">
<path d="M11.3851 24.1572C11.3851 22.2072 10.4051 18.7372 9.67508 17.8572C8.94508 16.9772 7.33508 16.1972 6.11509 16.3672C4.89509 16.5372 4.45509 17.9472 3.52509 17.9072C2.60509 17.8672 1.76508 17.6672 1.57508 19.4172C1.37508 21.1772 0.985097 21.3172 0.815097 22.4472C0.645097 23.5672 0.255106 24.5272 2.35511 25.3672C4.45511 26.2072 4.97509 28.7472 6.83509 28.1872C8.70509 27.6272 8.45509 26.5572 9.77509 26.0672C11.0951 25.5772 11.3851 24.8972 11.3851 24.1672V24.1572Z" fill="white"/>
</mask>
<g mask="url(#mask0_254_17670)">
<path opacity="0.75" d="M13.5066 23.8968C13.5066 23.8968 9.72656 24.4868 9.72656 22.0968C9.72656 19.3168 13.4265 19.9168 13.4265 19.9168L13.5066 23.8968Z" fill="#E62C2F" stroke="#E62C2F" stroke-width="0.5" stroke-linecap="round" stroke-linejoin="round"/>
</g>
</svg>
