<svg width="9" height="27" viewBox="0 0 9 27" fill="none" xmlns="http://www.w3.org/2000/svg">
<mask id="mask0_254_17632" style="mask-type:luminance" maskUnits="userSpaceOnUse" x="0" y="14" width="9" height="13">
<path d="M8.55435 24.2761C8.06435 25.1061 6.44437 24.9561 6.19437 25.6461C5.95437 26.3261 3.52436 26.6261 2.84436 25.4461C2.16436 24.2761 0.89436 23.8361 0.59436 22.7161C0.30436 21.5961 -0.0356402 17.1961 0.59436 16.7561C1.22436 16.3161 2.29435 16.8561 2.83435 16.2661C3.37435 15.6761 4.71437 14.0661 5.63437 15.0961C6.55437 16.1261 6.71437 16.8561 7.47436 16.9761C9.14436 17.2361 8.90435 23.6761 8.55435 24.2761Z" fill="white"/>
</mask>
<g mask="url(#mask0_254_17632)">
<path opacity="0.75" d="M11.6629 22.756C11.6629 22.756 7.60287 23.696 7.50287 21.276C7.37287 18.166 11.7029 18.996 11.7029 18.996L11.6629 22.756Z" fill="#E62C2F" stroke="#E62C2F" stroke-width="0.2" stroke-linecap="round" stroke-linejoin="round"/>
</g>
</svg>
