<svg width="13" height="26" viewBox="0 0 13 26" fill="none" xmlns="http://www.w3.org/2000/svg">
<mask id="mask0_254_17644" style="mask-type:luminance" maskUnits="userSpaceOnUse" x="0" y="14" width="13" height="12">
<path d="M11.413 17.0061C12.463 19.2961 12.583 22.3361 10.953 23.3361C9.28303 24.3661 8.26304 23.3361 7.43304 23.5761C6.60304 23.8161 4.17303 26.4261 2.20303 24.3461C0.533025 22.5861 -0.476962 17.4161 0.403038 16.1961C2.29304 13.5761 3.93303 16.5661 6.58303 15.0861C7.73303 14.4461 10.373 14.7461 11.403 16.9961L11.413 17.0061Z" fill="white"/>
</mask>
<g mask="url(#mask0_254_17644)">
<path opacity="0.75" d="M14.5612 21.5265C14.5612 21.5265 10.5312 23.0165 10.5312 19.8365C10.5312 17.0165 14.5812 18.1165 14.5812 18.1165L14.5612 21.5265Z" fill="#E62C2F" stroke="#E62C2F" stroke-width="0.2" stroke-linecap="round" stroke-linejoin="round"/>
</g>
</svg>
