<svg width="9" height="25" viewBox="0 0 9 25" fill="none" xmlns="http://www.w3.org/2000/svg">
<mask id="mask0_254_17521" style="mask-type:luminance" maskUnits="userSpaceOnUse" x="0" y="0" width="9" height="12">
<path d="M7.55433 0.32737C6.55433 -0.10263 5.34433 0.907367 4.89433 0.597367C4.44433 0.287367 2.19435 -0.292629 1.60435 0.617371C1.01435 1.52737 0.354343 5.92737 0.814343 7.53737C1.26434 9.14737 3.74433 12.0074 4.67433 11.5974C5.60433 11.1874 7.97433 9.49737 8.14433 8.98737C8.71433 7.28737 9.00434 0.94737 7.56434 0.32737H7.55433Z" fill="white"/>
</mask>
<g mask="url(#mask0_254_17521)">
<path opacity="0.75" d="M11.1144 6.70709C11.1144 6.70709 6.98438 8.53709 6.98438 5.37709C6.98438 2.57709 11.0744 4.07709 11.0744 4.07709L11.1044 6.70709H11.1144Z" fill="#E62C2F" stroke="#E62C2F" stroke-width="0.5" stroke-linecap="round" stroke-linejoin="round"/>
</g>
</svg>
