<svg width="12" height="22" viewBox="0 0 12 22" fill="none" xmlns="http://www.w3.org/2000/svg">
<mask id="mask0_254_17533" style="mask-type:luminance" maskUnits="userSpaceOnUse" x="0" y="0" width="12" height="9">
<path d="M9.45711 8.3171C10.6071 7.4971 11.4171 5.5271 11.0471 3.4371C10.6771 1.3571 9.64713 1.8971 9.10713 1.7971C8.56713 1.6971 7.63711 0.777105 6.26711 1.0471C4.88711 1.3271 4.36713 1.1571 3.06713 0.867104C1.76713 0.567104 0.487131 1.4071 0.447131 3.2671C0.397131 5.1271 0.447117 6.6971 1.27712 7.3871C2.10712 8.0771 4.61713 7.1871 5.44713 7.3871C6.27713 7.5871 7.69712 9.5871 9.46712 8.3171H9.45711Z" fill="white"/>
</mask>
<g mask="url(#mask0_254_17533)">
<path opacity="0.75" d="M12.9873 6.00737C12.9873 6.00737 9.77734 7.55737 9.77734 4.87737C9.77734 2.50737 12.9673 3.77737 12.9673 3.77737L12.9973 6.00737H12.9873Z" fill="#E62C2F" stroke="#E62C2F" stroke-width="0.2" stroke-linecap="round" stroke-linejoin="round"/>
</g>
</svg>
