<svg width="9" height="23" viewBox="0 0 9 23" fill="none" xmlns="http://www.w3.org/2000/svg">
<mask id="mask0_254_17695" style="mask-type:luminance" maskUnits="userSpaceOnUse" x="0" y="0" width="9" height="11">
<path d="M7.92552 8.57701C7.67552 9.98701 6.57554 9.557 6.03554 10.277C5.49554 10.997 4.35555 11.117 3.63555 10.277C2.91555 9.437 1.53554 9.217 1.41554 7.857C1.29554 6.497 0.455545 1.42701 1.41554 0.757006C2.37554 0.0970063 7.34554 -0.252994 7.91554 0.757006C8.48554 1.76701 8.20554 6.93701 7.91554 8.57701H7.92552Z" fill="white"/>
</mask>
<g mask="url(#mask0_254_17695)">
<path opacity="0.75" d="M10.5773 6.6266C10.5773 6.6266 6.77734 8.3366 6.77734 5.3866C6.77734 2.7666 10.5473 4.1666 10.5473 4.1666L10.5773 6.6266Z" fill="#E62C2F" stroke="#E62C2F" stroke-width="0.2" stroke-linecap="round" stroke-linejoin="round"/>
</g>
</svg>
