<svg width="9" height="25" viewBox="0 0 9 25" fill="none" xmlns="http://www.w3.org/2000/svg">
<mask id="mask0_254_17731" style="mask-type:luminance" maskUnits="userSpaceOnUse" x="0" y="0" width="9" height="12">
<path d="M1.48351 0.346899C2.48351 -0.083101 3.69352 0.926903 4.14352 0.616903C4.59352 0.306903 6.84353 -0.2731 7.43353 0.6369C8.02353 1.5469 8.68353 5.9469 8.22353 7.5569C7.77353 9.1669 5.29352 12.0269 4.36352 11.6169C3.43352 11.2069 1.06352 9.5169 0.893517 9.0069C0.323517 7.3069 0.0335342 0.966899 1.47353 0.346899H1.48351Z" fill="white"/>
</mask>
<g mask="url(#mask0_254_17731)">
<path opacity="0.75" d="M11.1144 3.99677C11.1144 3.99677 6.98438 2.16677 6.98438 5.32677C6.98438 8.12677 11.0744 6.62676 11.0744 6.62676L11.1044 3.99677H11.1144Z" fill="#E62C2F" stroke="#E62C2F" stroke-width="0.5" stroke-linecap="round" stroke-linejoin="round"/>
</g>
</svg>
