<svg width="10" height="25" viewBox="0 0 10 25" fill="none" xmlns="http://www.w3.org/2000/svg">
<mask id="mask0_254_17791" style="mask-type:luminance" maskUnits="userSpaceOnUse" x="0" y="0" width="10" height="12">
<path d="M1.89323 8.66607C1.07323 7.84607 0.573225 5.35608 0.643225 3.96608C0.713225 2.58608 1.21324 2.49608 2.34324 1.56608C3.47324 0.636076 4.88323 -0.433924 5.90323 0.246076C8.51324 1.98608 10.1532 0.936078 8.99323 5.14608C8.40323 7.27608 8.60323 8.61607 7.74323 9.45607C6.88323 10.2961 5.79324 11.3661 4.72324 11.0461C3.65324 10.7261 2.44325 9.21607 1.88325 8.66607H1.89323Z" fill="white"/>
</mask>
<g mask="url(#mask0_254_17791)">
<path opacity="0.75" d="M11.4425 4.82587C11.4425 4.82587 7.3125 2.99587 7.3125 6.15587C7.3125 8.95587 11.4025 7.45587 11.4025 7.45587L11.4325 4.82587H11.4425Z" fill="#E62C2F" stroke="#E62C2F" stroke-width="0.2" stroke-linecap="round" stroke-linejoin="round"/>
</g>
</svg>
