<svg width="12" height="22" viewBox="0 0 12 22" fill="none" xmlns="http://www.w3.org/2000/svg">
<mask id="mask0_254_17743" style="mask-type:luminance" maskUnits="userSpaceOnUse" x="0" y="0" width="12" height="9">
<path d="M2.5868 8.33762C1.4368 7.51762 0.626806 5.54761 0.996806 3.45761C1.36681 1.37761 2.39681 1.91761 2.93681 1.81761C3.47681 1.71761 4.4068 0.797612 5.7768 1.06761C7.1568 1.34761 7.6768 1.17761 8.9768 0.887612C10.2768 0.587612 11.5568 1.42761 11.5968 3.28761C11.6468 5.14761 11.5968 6.71762 10.7668 7.40762C9.93681 8.09762 7.42681 7.20762 6.59681 7.40762C5.76681 7.60762 4.34681 9.60762 2.57681 8.33762H2.5868Z" fill="white"/>
</mask>
<g mask="url(#mask0_254_17743)">
<path opacity="0.75" d="M13.4053 3.43805C13.4053 3.43805 10.1953 1.88805 10.1953 4.56805C10.1953 6.93805 13.3853 5.66805 13.3853 5.66805L13.4153 3.43805H13.4053Z" fill="#E62C2F" stroke="#E62C2F" stroke-width="0.2" stroke-linecap="round" stroke-linejoin="round"/>
</g>
</svg>
