<svg width="8" height="20" viewBox="0 0 8 20" fill="none" xmlns="http://www.w3.org/2000/svg">
<mask id="mask0_254_17501" style="mask-type:luminance" maskUnits="userSpaceOnUse" x="0" y="12" width="8" height="8">
<path d="M6.55641 13.4871C6.72641 13.7071 6.86641 13.9471 6.96641 14.2071C7.94641 16.5671 8.48641 18.6471 6.56641 19.2171C4.72641 19.2771 2.88641 19.3371 1.97641 18.9971C0.796413 18.1271 0.606411 16.7471 1.00641 15.0771C1.10641 14.6571 1.27641 14.2471 1.50641 13.8871C1.96641 13.1571 2.67641 12.6071 3.53641 12.4071C3.91641 12.3171 4.29641 12.2971 4.66641 12.3471C5.42641 12.4571 6.09641 12.8871 6.55641 13.4871Z" fill="white"/>
</mask>
<g mask="url(#mask0_254_17501)">
<path opacity="0.75" d="M8.61687 16.817C8.61687 16.817 6.54688 17.887 6.54688 16.037C6.54688 14.187 8.59687 15.277 8.59687 15.277L8.61687 16.817Z" fill="#E62C2F" stroke="#E62C2F" stroke-width="0.2" stroke-linecap="round" stroke-linejoin="round"/>
</g>
</svg>
