<svg width="11" height="20" viewBox="0 0 11 20" fill="none" xmlns="http://www.w3.org/2000/svg">
<mask id="mask0_254_17476" style="mask-type:luminance" maskUnits="userSpaceOnUse" x="1" y="12" width="9" height="8">
<path d="M8.17265 13.4264C8.38265 13.6464 8.59265 13.9064 8.79265 14.1864C9.45265 15.0464 9.86265 16.1464 9.83265 17.6564C9.78265 18.5264 9.43265 18.9364 8.85265 19.0264C8.45265 19.0864 8.03265 18.9664 7.71265 18.7164C7.38265 18.4564 7.03265 18.5464 6.67265 18.8064C6.31265 19.0664 5.90265 19.2364 5.46265 19.2364C4.64265 19.2364 3.85265 19.1364 3.06265 18.9464C2.43265 18.8764 2.04265 18.4464 2.02265 17.5164C1.84265 16.4864 1.99265 15.4664 2.48265 14.4464C2.57265 14.2664 2.69265 14.0964 2.83265 13.9464C2.85265 13.9264 2.86265 13.9064 2.88265 13.8964C4.70265 11.9364 6.47265 11.6164 8.15265 13.4164L8.17265 13.4264Z" fill="white"/>
</mask>
<g mask="url(#mask0_254_17476)">
<path opacity="0.75" d="M11.2231 17.0859C11.2231 17.0859 8.45312 18.4259 8.45312 16.1159C8.45312 14.0759 11.1931 15.1659 11.1931 15.1659L11.2131 17.0859H11.2231Z" fill="#E62C2F" stroke="#E62C2F" stroke-width="0.2" stroke-linecap="round" stroke-linejoin="round"/>
</g>
</svg>
