<svg width="14" height="20" viewBox="0 0 14 20" fill="none" xmlns="http://www.w3.org/2000/svg">
<mask id="mask0_254_17467" style="mask-type:luminance" maskUnits="userSpaceOnUse" x="2" y="11" width="12" height="9">
<path d="M11.5144 13.4066C11.6444 13.5566 11.7745 13.7066 11.9045 13.8766C13.0145 15.4966 13.6744 17.0366 12.3045 18.2566C11.3545 18.9866 9.96445 19.1866 8.42445 19.2066C8.15445 19.2066 7.92445 19.0566 7.78445 18.8366C7.50445 18.4066 6.97445 18.6066 6.34445 19.0366C6.15445 19.1666 5.93445 19.2466 5.70445 19.2566C5.16445 19.2866 4.70445 19.1766 4.28445 18.9466C3.35445 18.4466 2.85445 17.4066 2.92445 16.3566C2.94445 15.9466 3.01445 15.5466 3.11445 15.1566C3.30445 14.3566 3.77445 13.6566 4.43445 13.1666C7.12445 11.2066 9.50445 11.1666 11.5144 13.4166V13.4066Z" fill="white"/>
</mask>
<g mask="url(#mask0_254_17467)">
<path opacity="0.75" d="M14.3647 16.3166C14.3647 16.3166 11.3047 17.7966 11.3047 15.2466C11.3047 12.9866 14.3347 14.1966 14.3347 14.1966L14.3647 16.3166Z" fill="#E62C2F" stroke="#E62C2F" stroke-width="0.2" stroke-linecap="round" stroke-linejoin="round"/>
</g>
</svg>
