<svg width="7" height="19" viewBox="0 0 7 19" fill="none" xmlns="http://www.w3.org/2000/svg">
<mask id="mask0_254_17451" style="mask-type:luminance" maskUnits="userSpaceOnUse" x="0" y="11" width="7" height="8">
<path d="M5.52399 12.6972C6.51399 14.0872 6.72399 15.5572 6.33399 17.0872C6.20399 17.6172 5.76399 18.0272 5.22399 18.1372C4.32399 18.3172 3.10399 18.2272 1.91399 18.1572C0.873994 18.1572 0.88399 17.4372 1.00399 16.7272C1.10399 15.5872 1.324 14.4772 1.674 13.3972C1.764 13.1072 1.91399 12.8472 2.11399 12.6172C2.28399 12.4172 2.504 12.2572 2.744 12.1372C3.664 11.7072 4.584 11.8972 5.514 12.6972H5.52399Z" fill="white"/>
</mask>
<g mask="url(#mask0_254_17451)">
<path opacity="0.75" d="M7.55437 14.3969C7.55437 14.3969 5.48438 13.3969 5.48438 15.1269C5.48438 16.6569 7.53438 15.8369 7.53438 15.8369L7.55437 14.4069V14.3969Z" fill="#E62C2F" stroke="#E62C2F" stroke-width="0.2" stroke-linecap="round" stroke-linejoin="round"/>
</g>
</svg>
