<svg width="11" height="20" viewBox="0 0 11 20" fill="none" xmlns="http://www.w3.org/2000/svg">
<mask id="mask0_254_17434" style="mask-type:luminance" maskUnits="userSpaceOnUse" x="1" y="12" width="8" height="8">
<path d="M2.70451 13.4166C2.49451 13.6366 2.2845 13.8966 2.0845 14.1766C1.4245 15.0366 1.01451 16.1366 1.04451 17.6466C1.09451 18.5166 1.44451 18.9266 2.02451 19.0166C2.42451 19.0766 2.84451 18.9566 3.16451 18.7066C3.49451 18.4466 3.84451 18.5366 4.20451 18.7966C4.56451 19.0566 4.97451 19.2266 5.41451 19.2266C6.23451 19.2266 7.02451 19.1266 7.81451 18.9366C8.44451 18.8666 8.83451 18.4366 8.85451 17.5066C9.03451 16.4766 8.8845 15.4566 8.3945 14.4366C8.3045 14.2566 8.18451 14.0866 8.04451 13.9366C8.02451 13.9166 8.01451 13.8966 7.99451 13.8866C6.17451 11.9266 4.4045 11.6066 2.7245 13.4066L2.70451 13.4166Z" fill="white"/>
</mask>
<g mask="url(#mask0_254_17434)">
<path opacity="0.75" d="M10.2934 15.327C10.2934 15.327 7.52344 13.9869 7.52344 16.2969C7.52344 18.3369 10.2634 17.247 10.2634 17.247L10.2834 15.327H10.2934Z" fill="#E62C2F" stroke="#E62C2F" stroke-width="0.2" stroke-linecap="round" stroke-linejoin="round"/>
</g>
</svg>
