<svg width="6" height="19" viewBox="0 0 6 19" fill="none" xmlns="http://www.w3.org/2000/svg">
<mask id="mask0_254_17406" style="mask-type:luminance" maskUnits="userSpaceOnUse" x="0" y="0" width="6" height="9">
<path d="M4.865 7.1366C4.765 7.3566 4.62499 7.5666 4.45499 7.7366C3.74499 8.4466 3.03499 8.6866 2.30499 8.4866C1.82499 8.3566 1.44499 8.0366 1.20499 7.6266C1.04499 7.3566 0.944995 7.04661 0.924995 6.72661L0.625 3.13661C0.675 2.59661 0.804994 2.12661 1.02499 1.72661C1.26499 1.29661 1.725 1.0166 2.225 0.986603L4.695 0.826607C5.325 0.796607 5.525 0.956604 5.495 1.7366C5.495 1.9366 5.47499 2.13661 5.48499 2.33661C5.52499 3.92661 5.405 5.33661 5.045 6.46661C5.025 6.69661 4.965 6.9266 4.865 7.1366Z" fill="white"/>
</mask>
<g mask="url(#mask0_254_17406)">
<path opacity="0.75" d="M6.53484 5.21612C6.53484 5.21612 4.46484 6.21611 4.46484 4.48611C4.46484 2.95611 6.52484 3.77612 6.52484 3.77612L6.54485 5.21612H6.53484Z" fill="#E62C2F" stroke="#E62C2F" stroke-width="0.2" stroke-linecap="round" stroke-linejoin="round"/>
</g>
</svg>
