<svg width="6" height="23" viewBox="0 0 6 23" fill="none" xmlns="http://www.w3.org/2000/svg">
<mask id="mask0_254_17398" style="mask-type:luminance" maskUnits="userSpaceOnUse" x="0" y="0" width="7" height="11">
<path d="M1.1039 8.63686C0.353905 7.70686 0.00390625 6.42686 0.00390625 4.85686C0.00390625 4.32686 0.153906 3.80686 0.413906 3.34686C2.35391 0.0468569 4.1439 -0.223142 5.7439 3.31686C6.2139 5.41686 6.05391 7.19686 5.21391 8.62686C5.16391 8.71686 5.10391 8.80686 5.05391 8.88686C3.70391 11.0069 2.38391 11.0269 1.09391 8.62686L1.1039 8.63686Z" fill="white"/>
</mask>
<g mask="url(#mask0_254_17398)">
<path opacity="0.75" d="M6.83516 6.7565C6.83516 6.7565 4.78516 7.2465 4.78516 5.4565C4.78516 3.8665 6.82516 4.2665 6.82516 4.2665L6.84516 6.7665L6.83516 6.7565Z" fill="#E62C2F" stroke="#E62C2F" stroke-width="0.2" stroke-linecap="round" stroke-linejoin="round"/>
</g>
</svg>
