<svg width="12" height="19" viewBox="0 0 12 19" fill="none" xmlns="http://www.w3.org/2000/svg">
<mask id="mask0_254_17390" style="mask-type:luminance" maskUnits="userSpaceOnUse" x="0" y="0" width="10" height="9">
<path d="M1.84343 7.58699C1.53343 7.27699 1.27342 6.91699 1.10342 6.50699C0.673424 5.46699 0.553426 4.30699 0.663426 3.04699C0.713426 2.49699 0.913427 1.95699 1.29343 1.55699C2.00343 0.806987 2.94342 0.796988 4.06342 1.34699C4.62342 1.81699 5.33343 1.61699 6.11343 1.05699C7.32343 0.586987 8.34342 0.686988 9.17342 1.34699C9.99342 2.35699 10.0334 3.77699 9.32343 5.60699C9.05342 6.29699 8.68342 6.93699 8.19342 7.46699C7.93342 7.75699 7.63343 8.01699 7.30343 8.23699C5.71343 9.31699 4.03343 9.20699 2.27343 7.94699C2.11343 7.83699 1.97342 7.71699 1.83342 7.57699L1.84343 7.58699Z" fill="white"/>
</mask>
<g mask="url(#mask0_254_17390)">
<path opacity="0.75" d="M10.8647 5.80664C10.8647 5.80664 8.05469 7.16665 8.05469 4.81665C8.05469 2.73665 10.8447 3.84664 10.8447 3.84664L10.8647 5.79665V5.80664Z" fill="#E62C2F" stroke="#E62C2F" stroke-width="0.2" stroke-linecap="round" stroke-linejoin="round"/>
</g>
</svg>
