<svg width="11" height="28" viewBox="0 0 11 28" fill="none" xmlns="http://www.w3.org/2000/svg">
<mask id="mask0_229_1967" style="mask-type:luminance" maskUnits="userSpaceOnUse" x="1" y="14" width="10" height="14">
<path d="M1.99514 26.6566C2.22514 26.7166 3.24513 27.2866 4.70513 27.1466C5.61513 27.0566 6.74516 27.4266 7.85516 27.0166C8.41516 26.8066 9.06515 26.7766 9.69515 26.5666C10.3852 26.3366 10.4351 23.6166 10.2051 21.0766C9.97513 18.5366 9.46516 19.1866 8.63516 17.7566C5.01516 11.5266 4.59514 17.1166 2.80514 17.2466C1.66514 17.3266 0.135142 26.2066 1.99514 26.6466V26.6566Z" fill="white"/>
</mask>
<g mask="url(#mask0_229_1967)">
<path opacity="0.75" d="M-0.663116 23.4869C-0.663116 23.4869 2.59689 24.2869 2.59689 22.0169C2.59689 19.2769 -0.703125 20.1469 -0.703125 20.1469L-0.663116 23.4969V23.4869Z" fill="#3A3A3A" stroke="#3A3A3A" stroke-width="0.5" stroke-linecap="round" stroke-linejoin="round"/>
</g>
</svg>
