<svg width="13" height="26" viewBox="0 0 13 26" fill="none" xmlns="http://www.w3.org/2000/svg">
<mask id="mask0_229_1836" style="mask-type:luminance" maskUnits="userSpaceOnUse" x="0" y="14" width="13" height="12">
<path d="M11.413 17.0061C12.463 19.2961 12.583 22.3361 10.953 23.3361C9.28303 24.3661 8.26304 23.3361 7.43304 23.5761C6.60304 23.8161 4.17303 26.4261 2.20303 24.3461C0.533025 22.5861 -0.476962 17.4161 0.403038 16.1961C2.29304 13.5761 3.93303 16.5661 6.58303 15.0861C7.73303 14.4461 10.373 14.7461 11.403 16.9961L11.413 17.0061Z" fill="white"/>
</mask>
<g mask="url(#mask0_229_1836)">
<path opacity="0.75" d="M-1.83545 18.6964C-1.83545 18.6964 2.19455 17.2064 2.19455 20.3864C2.19455 23.2064 -1.85547 22.1064 -1.85547 22.1064L-1.83545 18.6964Z" fill="#3A3A3A" stroke="#3A3A3A" stroke-width="0.2" stroke-linecap="round" stroke-linejoin="round"/>
</g>
</svg>
