<svg width="9" height="25" viewBox="0 0 9 25" fill="none" xmlns="http://www.w3.org/2000/svg">
<mask id="mask0_229_1664" style="mask-type:luminance" maskUnits="userSpaceOnUse" x="0" y="0" width="9" height="12">
<path d="M7.55433 0.32737C6.55433 -0.10263 5.34433 0.907367 4.89433 0.597367C4.44433 0.287367 2.19435 -0.292629 1.60435 0.617371C1.01435 1.52737 0.354343 5.92737 0.814343 7.53737C1.26434 9.14737 3.74433 12.0074 4.67433 11.5974C5.60433 11.1874 7.97433 9.49737 8.14433 8.98737C8.71433 7.28737 9.00434 0.94737 7.56434 0.32737H7.55433Z" fill="white"/>
</mask>
<g mask="url(#mask0_229_1664)">
<path opacity="0.75" d="M-2.07422 3.97724C-2.07422 3.97724 2.05579 2.14723 2.05579 5.30723C2.05579 8.10723 -2.03421 6.60724 -2.03421 6.60724L-2.06421 3.97724H-2.07422Z" fill="#3A3A3A" stroke="#3A3A3A" stroke-width="0.5" stroke-linecap="round" stroke-linejoin="round"/>
</g>
</svg>
