<svg width="10" height="25" viewBox="0 0 10 25" fill="none" xmlns="http://www.w3.org/2000/svg">
<mask id="mask0_229_2052" style="mask-type:luminance" maskUnits="userSpaceOnUse" x="0" y="0" width="10" height="12">
<path d="M1.91666 8.64654C1.09666 7.82654 0.596663 5.33654 0.666663 3.94654C0.736663 2.56654 1.23664 2.47654 2.36664 1.54654C3.49664 0.616544 4.90664 -0.453455 5.92664 0.226545C8.53664 1.96654 10.1766 0.916539 9.01664 5.12654C8.42664 7.25654 8.62664 8.59654 7.76664 9.43654C6.90664 10.2765 5.81665 11.3465 4.74665 11.0265C3.67665 10.7065 2.46665 9.19654 1.90665 8.64654H1.91666Z" fill="white"/>
</mask>
<g mask="url(#mask0_229_2052)">
<path opacity="0.75" d="M-2.11328 6.72662C-2.11328 6.72662 2.01669 8.55662 2.01669 5.39662C2.01669 2.59662 -2.0733 4.09662 -2.0733 4.09662L-2.1033 6.72662H-2.11328Z" fill="#3A3A3A" stroke="#3A3A3A" stroke-width="0.2" stroke-linecap="round" stroke-linejoin="round"/>
</g>
</svg>
