<svg width="11" height="25" viewBox="0 0 11 25" fill="none" xmlns="http://www.w3.org/2000/svg">
<mask id="mask0_229_1980" style="mask-type:luminance" maskUnits="userSpaceOnUse" x="0" y="0" width="11" height="13">
<path d="M1.05296 7.45724C0.632955 5.66724 1.09297 3.67724 2.41297 2.84724C3.73297 2.01724 5.95297 0.46724 7.03297 0.88724C8.11297 1.30724 8.24296 1.80724 8.96296 2.11724C9.68296 2.42724 10.843 3.89724 10.743 5.87724C10.643 7.85724 8.99295 9.25724 8.64295 10.0472C8.29295 10.8372 5.74294 13.2072 4.07294 11.5872C2.40294 9.96725 1.79295 10.6172 1.04295 7.45724H1.05296Z" fill="white"/>
</mask>
<g mask="url(#mask0_229_1980)">
<path opacity="0.75" d="M-1.60547 7.87701C-1.60547 7.87701 2.52454 9.70701 2.52454 6.54701C2.52454 3.74701 -1.56546 5.24701 -1.56546 5.24701L-1.59546 7.87701H-1.60547Z" fill="#3A3A3A" stroke="#3A3A3A" stroke-width="0.2" stroke-linecap="round" stroke-linejoin="round"/>
</g>
</svg>
