<svg width="13" height="24" viewBox="0 0 13 24" fill="none" xmlns="http://www.w3.org/2000/svg">
<mask id="mask0_229_2016" style="mask-type:luminance" maskUnits="userSpaceOnUse" x="0" y="0" width="13" height="11">
<path d="M1.26325 8.66638C0.383255 6.83638 -0.0967501 3.21639 2.13325 2.07639C4.36325 0.946386 6.03325 2.14639 7.10325 1.47639C8.17325 0.806387 11.3932 -0.0236127 12.0532 2.65639C12.7032 5.33639 12.1833 7.55639 11.8733 8.32639C11.5633 9.08639 10.6132 8.83638 9.80325 8.66638C8.99325 8.50638 7.54326 10.0664 6.70326 10.0764C4.63326 10.0964 3.95325 8.23639 2.96325 8.32639C1.97325 8.41639 1.70324 9.59638 1.25324 8.66638H1.26325Z" fill="white"/>
</mask>
<g mask="url(#mask0_229_2016)">
<path opacity="0.75" d="M-2.31641 7.06646C-2.31641 7.06646 1.8136 8.89646 1.8136 5.73646C1.8136 2.93646 -2.27641 4.43647 -2.27641 4.43647L-2.30641 7.06646H-2.31641Z" fill="#3A3A3A" stroke="#3A3A3A" stroke-width="0.2" stroke-linecap="round" stroke-linejoin="round"/>
</g>
</svg>
