<svg width="12" height="22" viewBox="0 0 12 22" fill="none" xmlns="http://www.w3.org/2000/svg">
<mask id="mask0_229_2004" style="mask-type:luminance" maskUnits="userSpaceOnUse" x="0" y="0" width="12" height="9">
<path d="M2.60243 8.3171C1.45243 7.4971 0.642431 5.5271 1.01243 3.4371C1.38243 1.3571 2.41243 1.8971 2.95243 1.7971C3.49243 1.6971 4.42243 0.777105 5.79243 1.0471C7.17243 1.3271 7.69243 1.1571 8.99243 0.867104C10.2924 0.567104 11.5724 1.4071 11.6124 3.2671C11.6624 5.1271 11.6124 6.6971 10.7824 7.3871C9.95244 8.0771 7.44242 7.1871 6.61242 7.3871C5.78242 7.5871 4.36243 9.5871 2.59243 8.3171H2.60243Z" fill="white"/>
</mask>
<g mask="url(#mask0_229_2004)">
<path opacity="0.75" d="M-0.986084 6.34721C-0.986084 6.34721 2.22391 7.89721 2.22391 5.21721C2.22391 2.84721 -0.96608 4.11721 -0.96608 4.11721L-0.996094 6.34721H-0.986084Z" fill="#3A3A3A" stroke="#3A3A3A" stroke-width="0.2" stroke-linecap="round" stroke-linejoin="round"/>
</g>
</svg>
