<svg width="14" height="20" viewBox="0 0 14 20" fill="none" xmlns="http://www.w3.org/2000/svg">
<mask id="mask0_229_2089" style="mask-type:luminance" maskUnits="userSpaceOnUse" x="2" y="11" width="12" height="9">
<path d="M11.5144 13.4066C11.6444 13.5566 11.7745 13.7066 11.9045 13.8766C13.0145 15.4966 13.6744 17.0366 12.3045 18.2566C11.3545 18.9866 9.96445 19.1866 8.42445 19.2066C8.15445 19.2066 7.92445 19.0566 7.78445 18.8366C7.50445 18.4066 6.97445 18.6066 6.34445 19.0366C6.15445 19.1666 5.93445 19.2466 5.70445 19.2566C5.16445 19.2866 4.70445 19.1766 4.28445 18.9466C3.35445 18.4466 2.85445 17.4066 2.92445 16.3566C2.94445 15.9466 3.01445 15.5466 3.11445 15.1566C3.30445 14.3566 3.77445 13.6566 4.43445 13.1666C7.12445 11.2066 9.50445 11.1666 11.5144 13.4166V13.4066Z" fill="white"/>
</mask>
<g mask="url(#mask0_229_2089)">
<path opacity="0.75" d="M1.00391 15.1566C1.00391 15.1566 4.06391 13.6766 4.06391 16.2266C4.06391 18.4866 1.03391 17.2766 1.03391 17.2766L1.00391 15.1566Z" fill="#3A3A3A" stroke="#3A3A3A" stroke-width="0.2" stroke-linecap="round" stroke-linejoin="round"/>
</g>
</svg>
