<svg width="7" height="22" viewBox="0 0 7 22" fill="none" xmlns="http://www.w3.org/2000/svg">
<mask id="mask0_229_1561" style="mask-type:luminance" maskUnits="userSpaceOnUse" x="0" y="13" width="7" height="9">
<path d="M6.0967 14.4764C5.8767 14.1464 5.6067 13.8564 5.2767 13.6264C4.1867 12.8464 3.0667 12.9564 1.9267 14.1364C1.1567 15.3764 0.776694 16.6264 1.05669 17.8564C1.41669 19.0664 2.09669 20.0264 3.00669 20.8164C3.32669 21.0964 3.7367 21.2364 4.1567 21.2364H4.4267C4.6067 21.2364 4.7967 21.2164 4.9667 21.1564C6.7867 20.5364 7.3067 18.6964 6.6367 15.7664C6.5367 15.3064 6.34669 14.8664 6.08669 14.4764H6.0967Z" fill="white"/>
</mask>
<g mask="url(#mask0_229_1561)">
<path opacity="0.75" d="M-0.324219 18.1362C-0.324219 18.1362 1.97577 19.2462 1.97577 17.3262C1.97577 15.6262 -0.30423 16.5362 -0.30423 16.5362L-0.324219 18.1362Z" fill="#3A3A3A" stroke="#3A3A3A" stroke-width="0.2" stroke-linecap="round" stroke-linejoin="round"/>
</g>
</svg>
