<svg width="12" height="19" viewBox="0 0 12 19" fill="none" xmlns="http://www.w3.org/2000/svg">
<mask id="mask0_229_1465" style="mask-type:luminance" maskUnits="userSpaceOnUse" x="1" y="0" width="11" height="9">
<path d="M9.95363 7.58699C10.2636 7.27699 10.5236 6.91699 10.6936 6.50699C11.1236 5.46699 11.2436 4.30699 11.1336 3.04699C11.0836 2.49699 10.8836 1.95699 10.5036 1.55699C9.79361 0.806987 8.85362 0.796988 7.73362 1.34699C7.17362 1.81699 6.46362 1.61699 5.68362 1.05699C4.47362 0.586987 3.45362 0.686988 2.62362 1.34699C1.80362 2.35699 1.76362 3.77699 2.47361 5.60699C2.74362 6.29699 3.11362 6.93699 3.60362 7.46699C3.86362 7.75699 4.16362 8.01699 4.49362 8.23699C6.08362 9.31699 7.76362 9.20699 9.52362 7.94699C9.68362 7.83699 9.82362 7.71699 9.96362 7.57699L9.95363 7.58699Z" fill="white"/>
</mask>
<g mask="url(#mask0_229_1465)">
<path opacity="0.75" d="M0.5625 5.65724C0.5625 5.65724 3.3725 7.01723 3.3725 4.66723C3.3725 2.58723 0.582489 3.69723 0.582489 3.69723L0.5625 5.64723V5.65724Z" fill="#3A3A3A" stroke="#3A3A3A" stroke-width="0.2" stroke-linecap="round" stroke-linejoin="round"/>
</g>
</svg>
