<svg width="13" height="20" viewBox="0 0 13 20" fill="none" xmlns="http://www.w3.org/2000/svg">
<mask id="mask0_229_1501" style="mask-type:luminance" maskUnits="userSpaceOnUse" x="1" y="0" width="12" height="10">
<path d="M2.875 8.50687C2.425 8.26687 2.045 7.90687 1.835 7.43687C1.665 7.08687 1.565 6.71687 1.535 6.32687C1.355 5.22687 1.385 4.09687 1.565 2.95687C1.635 2.54687 1.815 2.16687 2.105 1.86687C2.575 1.38687 3.045 1.06687 3.535 0.996871C4.275 0.746871 4.985 0.83687 5.685 1.20687H5.755C6.245 1.43687 6.715 1.42687 7.185 1.20687C8.73499 0.71687 10.185 0.61687 11.445 1.27687C11.795 1.52687 12.045 2.04687 12.185 2.90687C12.315 4.66687 11.745 6.32687 10.675 7.89687C10.575 8.04687 10.465 8.17687 10.335 8.29687C10.155 8.46687 9.94499 8.60687 9.715 8.71687C7.345 9.79687 5.075 9.69687 2.875 8.50687Z" fill="white"/>
</mask>
<g mask="url(#mask0_229_1501)">
<path opacity="0.75" d="M-0.505625 3.87721C-0.505625 3.87721 2.52437 2.40721 2.52437 4.94721C2.52437 7.18721 -0.485626 5.98721 -0.485626 5.98721L-0.515625 3.87721H-0.505625Z" fill="#3A3A3A" stroke="#3A3A3A" stroke-width="0.2" stroke-linecap="round" stroke-linejoin="round"/>
</g>
</svg>
