<svg width="11" height="29" viewBox="0 0 11 29" fill="none" xmlns="http://www.w3.org/2000/svg">
<path d="M6.48869 5.90973C6.28869 3.09973 6.09869 0.969727 6.57869 0.969727C8.25869 0.969727 9.23869 7.08973 9.29869 7.80973C9.40869 9.23973 9.4287 11.0797 9.4687 12.3397C9.5987 16.2097 9.85869 18.9197 9.85869 18.9197C8.51869 15.8397 7.97869 13.2597 7.73869 11.4797C7.62869 10.6897 7.14869 8.41973 6.48869 5.89973V5.90973Z" fill="#EDD091" stroke="#5E5E5A" stroke-width="0.15" stroke-linecap="round" stroke-linejoin="round"/>
<path d="M9.85062 18.9299L6.14062 18.8799L9.85062 18.9299Z" fill="#EDD091" stroke="#5E5E5A" stroke-width="0.15" stroke-linecap="round" stroke-linejoin="round"/>
<path d="M9.85172 18.9297L1.26172 18.8197C1.26172 18.8197 3.2517 10.8597 3.4017 2.60973C3.4017 2.21973 3.72171 0.969727 4.31171 0.969727C5.01171 0.969727 5.3617 1.98973 5.4917 2.40973C6.6217 6.01973 7.57172 10.3397 7.73172 11.4897C7.97172 13.2697 8.51172 15.8497 9.85172 18.9297Z" fill="#F4DE9C" stroke="#5E5E5A" stroke-width="0.15" stroke-linecap="round" stroke-linejoin="round"/>
<path d="M0.21875 24.1794C0.21875 22.2294 0.808741 19.1894 1.92874 17.8794C2.66874 17.0094 4.26874 16.2194 5.48874 16.3894C6.70874 16.5594 7.14874 17.9694 8.07874 17.9294C8.99874 17.8894 9.83875 17.6894 10.0287 19.4394C10.2287 21.1994 10.6188 21.3394 10.7888 22.4694C10.9588 23.5894 11.3487 24.5494 9.24875 25.3894C7.14875 26.2294 6.62874 28.7694 4.76874 28.2094C2.89874 27.6494 3.14874 26.5794 1.82874 26.0894C0.508735 25.5994 0.21875 24.9194 0.21875 24.1894V24.1794Z" fill="white" stroke="#5E5E5A" stroke-width="0.15" stroke-linecap="round" stroke-linejoin="round"/>
<mask id="mask0_230_706" style="mask-type:luminance" maskUnits="userSpaceOnUse" x="0" y="16" width="11" height="13">
<path d="M0.21875 24.1797C0.21875 22.2297 1.19874 18.7597 1.92874 17.8797C2.65874 16.9997 4.26874 16.2197 5.48874 16.3897C6.70874 16.5597 7.14874 17.9697 8.07874 17.9297C8.99874 17.8897 9.83875 17.6897 10.0287 19.4397C10.2287 21.1997 10.6188 21.3397 10.7888 22.4697C10.9588 23.5897 11.3487 24.5497 9.24875 25.3897C7.14875 26.2297 6.62874 28.7697 4.76874 28.2097C2.89874 27.6497 3.14874 26.5797 1.82874 26.0897C0.508735 25.5997 0.21875 24.9197 0.21875 24.1897V24.1797Z" fill="white"/>
</mask>
<g mask="url(#mask0_230_706)">
<path opacity="0.75" d="M12.8269 19.2695C12.8269 19.2695 9.04688 18.6795 9.04688 21.0695C9.04688 23.8495 12.7469 23.2495 12.7469 23.2495L12.8269 19.2695Z" fill="#E62C2F" stroke="#E62C2F" stroke-width="0.5" stroke-linecap="round" stroke-linejoin="round"/>
</g>
</svg>
