<svg width="10" height="27" viewBox="0 0 10 27" fill="none" xmlns="http://www.w3.org/2000/svg">
<path d="M1.32031 17.81C2.90031 14.18 3.51032 12.38 3.23032 9.45004C2.98032 6.79004 3.4803 4.12004 4.6503 1.94004C5.0403 1.21004 5.4803 0.790039 5.8403 0.790039C5.9703 0.790039 6.09031 0.850039 6.19031 0.960039C6.50031 1.30004 6.61031 2.10004 6.50031 3.14004C6.33031 4.70004 6.78031 5.62004 7.26031 6.60004C7.62031 7.33004 7.99032 8.09004 8.17032 9.20004C8.80032 13.29 9.13032 16.18 9.14032 17.8H1.32031V17.81Z" fill="#F4DE9C"/>
<path d="M5.8392 0.869726C5.9492 0.869726 6.04921 0.919727 6.12921 1.00973C6.41921 1.33973 6.52922 2.10973 6.41922 3.12973C6.24922 4.70973 6.70921 5.63973 7.18921 6.62973C7.54921 7.35973 7.9192 8.10973 8.0892 9.20973C8.7092 13.2297 9.0392 16.0897 9.0592 17.7297H1.4292C2.9792 14.1597 3.57919 12.3697 3.29919 9.43973C3.04919 6.78973 3.5492 4.13973 4.7092 1.96973C5.0792 1.26973 5.49919 0.859726 5.82919 0.859726M5.8392 0.719727C5.4692 0.719727 5.00919 1.10973 4.57919 1.90973C3.51919 3.88973 2.8692 6.52973 3.1492 9.45973C3.4292 12.3897 2.83922 14.1097 1.19922 17.8897H9.2092C9.2092 15.7597 8.63922 11.8297 8.22922 9.19973C7.81922 6.56973 6.2692 5.83973 6.5592 3.15973C6.7292 1.55973 6.36919 0.729726 5.82919 0.729726L5.8392 0.719727Z" fill="#5E5E5A"/>
<path d="M4.97926 26.1903C4.24926 26.1903 3.58926 25.9504 3.47926 25.6404C3.34926 25.2704 2.87926 25.1304 2.38926 24.9804C1.87926 24.8204 1.35924 24.6603 1.11924 24.2603C0.869244 23.8303 0.469248 19.7803 1.27925 17.9403C1.49925 17.4403 1.79924 17.1404 2.14924 17.0704C2.66924 16.9604 2.91924 16.6104 3.29924 16.0904C3.48924 15.8304 3.71925 15.5204 4.02925 15.1704C4.21925 14.9604 4.41925 14.8604 4.65925 14.8604C5.36925 14.8604 6.16926 15.7504 6.59926 16.2204L6.70924 16.3404C6.98924 16.6404 7.37926 16.6604 7.72926 16.6604H8.14924C8.43924 16.6604 8.73925 16.6804 8.96925 16.8304C9.54925 17.2304 9.24925 21.5203 8.93925 22.7104C8.77925 23.3104 8.32925 23.7204 7.83925 24.1504C7.42925 24.5104 7.00926 24.8904 6.69926 25.4304C6.41926 25.9004 5.77926 26.1903 4.97926 26.1903Z" fill="white"/>
<path d="M4.6601 14.94C5.3301 14.94 6.12009 15.81 6.55009 16.28L6.6601 16.4C6.9401 16.71 7.34009 16.75 7.74009 16.75H7.95011H8.1601C8.4401 16.75 8.7201 16.77 8.9401 16.92C9.4401 17.27 9.21011 21.46 8.88011 22.72C8.73011 23.3 8.3001 23.68 7.8101 24.12C7.4001 24.49 6.97009 24.87 6.65009 25.41C6.39009 25.86 5.77009 26.13 4.99009 26.13C4.21009 26.13 3.6501 25.87 3.5601 25.63C3.4201 25.23 2.93011 25.08 2.42011 24.92C1.93011 24.77 1.4101 24.61 1.1901 24.24C0.940103 23.81 0.550106 19.81 1.35011 17.99C1.56011 17.51 1.84011 17.23 2.17011 17.16C2.72011 17.04 2.9901 16.67 3.3701 16.15C3.5601 15.88 3.7801 15.58 4.0901 15.23C4.2601 15.04 4.45011 14.95 4.67011 14.95M4.6601 14.79C4.4201 14.79 4.1801 14.89 3.9701 15.12C3.0501 16.15 2.88011 16.84 2.13011 17C0.170105 17.41 0.700088 23.7 1.05009 24.3C1.54009 25.13 3.1601 24.98 3.4101 25.67C3.5401 26.02 4.24011 26.27 4.98011 26.27C5.72011 26.27 6.43009 26.05 6.77009 25.48C7.45009 24.31 8.72009 23.87 9.02009 22.75C9.31009 21.63 9.65009 17.23 9.02009 16.79C8.78009 16.62 8.4701 16.6 8.1601 16.6C8.0201 16.6 7.88009 16.6 7.74009 16.6C7.37009 16.6 7.0201 16.56 6.7801 16.3C6.3701 15.85 5.48011 14.79 4.67011 14.79H4.6601Z" fill="#5E5E5A"/>
<mask id="mask0_230_647" style="mask-type:luminance" maskUnits="userSpaceOnUse" x="0" y="14" width="10" height="13">
<path d="M1.04949 24.2995C1.53949 25.1295 3.1595 24.9795 3.4095 25.6695C3.6495 26.3495 6.07951 26.6495 6.75951 25.4695C7.43951 24.2995 8.70951 23.8595 9.00951 22.7395C9.29951 21.6195 9.63951 17.2195 9.00951 16.7795C8.37951 16.3395 7.30949 16.8795 6.76949 16.2895C6.22949 15.6995 4.8895 14.0895 3.9695 15.1195C3.0495 16.1495 2.8895 16.8795 2.1295 16.9995C0.459504 17.2595 0.699487 23.6995 1.04949 24.2995Z" fill="white"/>
</mask>
<g mask="url(#mask0_230_647)">
<path opacity="0.75" d="M11.948 19.0693C11.948 19.0693 7.88803 18.1293 7.78803 20.5493C7.65803 23.6593 11.988 22.8293 11.988 22.8293L11.948 19.0693Z" fill="#E62C2F" stroke="#E62C2F" stroke-width="0.2" stroke-linecap="round" stroke-linejoin="round"/>
</g>
</svg>
