<svg width="13" height="25" viewBox="0 0 13 25" fill="none" xmlns="http://www.w3.org/2000/svg">
<path d="M4.82812 10.2598C6.09812 6.98984 7.04813 3.82984 7.23813 2.19984C7.33813 1.34984 7.73813 0.839844 8.06813 0.839844C8.32813 0.839844 8.62812 1.16984 8.66812 2.10984C8.75812 4.10984 8.67813 9.60984 8.29813 10.9098L4.82812 10.2598Z" fill="#F4DE9C"/>
<path d="M8.06876 0.919531C8.28876 0.919531 8.55875 1.22953 8.59875 2.11953C8.67875 4.02953 8.59875 9.43953 8.24875 10.8295L4.93875 10.2095C6.19875 6.95953 7.12876 3.83953 7.31876 2.21953C7.41876 1.40953 7.77875 0.929531 8.07875 0.929531M8.06876 0.769531C7.68876 0.769531 7.26875 1.30953 7.15875 2.19953C6.95875 3.85953 5.97875 7.10953 4.71875 10.3195L8.33875 10.9995C8.73875 9.81953 8.81875 4.11953 8.73875 2.10953C8.69875 1.17953 8.39875 0.769531 8.05875 0.769531H8.06876Z" fill="#5E5E5A"/>
<path d="M1.31641 15.9594C2.11641 14.4694 2.0864 13.3294 2.0264 11.1194C2.0164 10.6094 1.9964 10.0494 1.9864 9.40937C1.9564 6.56937 3.3864 3.91937 4.2464 2.33937C4.4364 1.99937 4.5864 1.70937 4.6964 1.48937C4.9664 0.909374 5.4764 0.439375 5.8264 0.439375C5.9164 0.439375 5.9964 0.479374 6.0464 0.549374C6.1564 0.689374 6.2764 1.09937 5.9464 2.25937C4.7264 6.44937 4.6764 9.01937 5.8064 9.88937C6.0364 10.0694 6.2664 10.1594 6.4864 10.1594C7.3564 10.1594 7.9364 8.82937 8.4464 7.64937C8.5664 7.35937 8.6864 7.08938 8.8064 6.85938C9.4564 5.52937 9.99639 3.08937 9.72639 1.79937C9.61639 1.22937 9.7264 0.529374 9.9664 0.239374C10.0364 0.159374 10.1064 0.109375 10.1864 0.109375C10.3164 0.109375 10.6564 0.239375 11.0864 1.42937C11.7464 3.21937 11.9064 5.10937 12.0464 6.76937C12.1164 7.55937 12.1764 8.30937 12.2864 8.95937C12.6264 10.9394 12.6264 13.2894 12.2864 16.1394L1.3264 15.9794L1.31641 15.9594Z" fill="#F4DE9C"/>
<path d="M10.1775 0.159765C10.3575 0.159765 10.6675 0.489766 11.0075 1.42977C11.6575 3.20977 11.8175 5.08977 11.9575 6.74977C12.0275 7.53977 12.0875 8.28977 12.1975 8.94977C12.5375 10.9098 12.5375 13.2298 12.1975 16.0398L1.42749 15.8798C2.17749 14.4198 2.1475 13.2798 2.0975 11.1098C2.0875 10.5998 2.0675 10.0398 2.0575 9.39977C2.0275 6.57977 3.4575 3.93977 4.3075 2.35977C4.4875 2.01977 4.64749 1.72977 4.75749 1.49977C5.03749 0.899765 5.5375 0.489765 5.8175 0.489765C5.8875 0.489765 5.93749 0.519765 5.97749 0.569765C6.05749 0.679765 6.20749 1.04976 5.86749 2.20976C4.61749 6.49976 4.5875 9.01977 5.7475 9.91977C5.9875 10.1098 6.23749 10.1998 6.47749 10.1998C7.39749 10.1998 7.9875 8.83976 8.4975 7.63976C8.6175 7.34976 8.7375 7.07977 8.8575 6.84977C9.5175 5.50977 10.0475 3.03977 9.78749 1.73977C9.67749 1.19977 9.78749 0.519765 10.0075 0.239765C10.0575 0.169765 10.1175 0.139765 10.1675 0.139765M10.1775 0.00976562C9.73749 0.00976562 9.48749 1.01977 9.64749 1.78977C9.89749 3.02977 9.39749 5.43976 8.72749 6.80976C8.16749 7.95976 7.5175 10.0698 6.4875 10.0698C6.2875 10.0698 6.0775 9.98977 5.8475 9.81977C4.4275 8.71977 5.2175 5.02977 6.0175 2.26977C6.4275 0.869766 6.2075 0.349766 5.8275 0.349766C5.4575 0.349766 4.9175 0.829766 4.6275 1.43977C4.0475 2.68977 1.8775 5.90977 1.9175 9.39977C1.9575 12.8898 2.2375 14.1498 1.1875 16.0298L12.3375 16.1898C12.6875 13.3298 12.6975 10.9198 12.3475 8.91977C11.9975 6.91977 12.1275 4.04976 11.1475 1.37976C10.7775 0.379765 10.4375 0.00976562 10.1775 0.00976562Z" fill="#5E5E5A"/>
<path d="M8.74926 24.1894C7.77926 24.1894 6.77926 23.5294 6.05926 23.0394C5.68926 22.7894 5.39925 22.5994 5.17925 22.5294C5.07925 22.4994 4.96926 22.4894 4.85926 22.4894C4.63926 22.4894 4.40926 22.5394 4.15926 22.5894C3.86926 22.6494 3.54926 22.7294 3.18926 22.7294C2.68926 22.7294 2.18925 22.5894 1.67925 22.2994C1.15925 22.0094 0.789264 21.4294 0.599264 20.6494C0.219264 19.1194 0.599262 17.0494 1.51926 15.6194C2.49926 14.0894 3.84927 13.8594 4.56927 13.8594C5.09927 13.8594 5.62926 13.9794 5.98926 14.1894C6.52926 14.4994 7.06925 14.6494 7.64925 14.6494C8.18925 14.6494 8.67925 14.5294 9.14925 14.4094C9.56925 14.2994 9.96926 14.1994 10.3593 14.1994C11.0493 14.1994 11.5993 14.5294 12.1493 15.2794C12.9893 16.4394 12.1193 21.8094 10.1593 23.6194C9.74926 23.9994 9.28926 24.1894 8.76926 24.1894H8.74926Z" fill="white"/>
<path d="M4.55921 13.9295C5.07921 13.9295 5.58921 14.0495 5.93921 14.2495C6.48921 14.5695 7.03921 14.7195 7.63921 14.7195C8.18921 14.7195 8.67921 14.5895 9.15921 14.4695C9.57921 14.3595 9.96922 14.2595 10.3492 14.2595C11.0192 14.2595 11.5492 14.5895 12.0692 15.3095C12.8892 16.4595 12.0292 21.7595 10.0892 23.5595C9.68921 23.9295 9.24921 24.1095 8.74921 24.1095C7.79921 24.1095 6.81922 23.4495 6.09922 22.9695C5.71922 22.7195 5.42921 22.5195 5.19921 22.4495C5.08921 22.4195 4.97921 22.3995 4.85921 22.3995C4.62921 22.3995 4.39921 22.4495 4.14921 22.5095C3.84921 22.5795 3.54921 22.6395 3.18921 22.6395C2.69921 22.6395 2.21921 22.4995 1.71921 22.2195C1.21921 21.9295 0.85921 21.3795 0.66921 20.6195C0.29921 19.1095 0.669213 17.0595 1.57921 15.6395C2.53921 14.1395 3.85921 13.9195 4.55921 13.9195M4.55921 13.7795C3.54921 13.7795 2.32921 14.1995 1.44921 15.5695C0.0392085 17.7695 -0.0607946 21.3795 1.64921 22.3595C2.24921 22.6995 2.74921 22.7995 3.19921 22.7995C3.87921 22.7995 4.39921 22.5595 4.86921 22.5595C4.96921 22.5595 5.06921 22.5695 5.16921 22.5995C5.78921 22.7795 7.27921 24.2595 8.75921 24.2595C9.24921 24.2595 9.73921 24.0995 10.1992 23.6695C12.1892 21.8295 13.0792 16.4495 12.1992 15.2295C11.5792 14.3595 10.9692 14.1095 10.3492 14.1095C9.50922 14.1095 8.63921 14.5595 7.63921 14.5595C7.13921 14.5595 6.59922 14.4495 6.01922 14.1095C5.69922 13.9195 5.16922 13.7695 4.56922 13.7695L4.55921 13.7795Z" fill="#5E5E5A"/>
<mask id="mask0_230_659" style="mask-type:luminance" maskUnits="userSpaceOnUse" x="0" y="13" width="13" height="12">
<path d="M1.18923 16.0295C0.139231 18.3195 0.0192219 21.3595 1.64922 22.3595C3.31922 23.3895 4.33923 22.3595 5.16923 22.5995C5.99923 22.8395 8.42922 25.4495 10.3992 23.3695C12.0692 21.6095 13.0792 16.4395 12.1992 15.2195C10.3092 12.5995 8.66923 15.5895 6.01923 14.1095C4.86923 13.4695 2.22922 13.7695 1.19923 16.0195L1.18923 16.0295Z" fill="white"/>
</mask>
<g mask="url(#mask0_230_659)">
<path opacity="0.75" d="M14.448 17.7198C14.448 17.7198 10.418 16.2298 10.418 19.4098C10.418 22.2298 14.468 21.1298 14.468 21.1298L14.448 17.7198Z" fill="#E62C2F" stroke="#E62C2F" stroke-width="0.2" stroke-linecap="round" stroke-linejoin="round"/>
</g>
</svg>
