<svg width="11" height="24" viewBox="0 0 11 24" fill="none" xmlns="http://www.w3.org/2000/svg">
<path d="M4.01953 10.7302C4.73953 7.29016 5.14953 4.02016 5.06953 2.39016C5.03953 1.81016 5.16953 1.32016 5.41953 1.06016C5.50953 0.960156 5.61953 0.910156 5.71953 0.910156C5.95953 0.910156 6.28953 1.21016 6.46953 2.07016C6.88953 4.03016 7.70953 9.47016 7.54953 10.8102L4.01953 10.7402V10.7302Z" fill="#F4DE9C"/>
<path d="M5.72969 0.980312C5.92969 0.980312 6.22969 1.27031 6.39969 2.08031C6.79969 3.95031 7.60969 9.30031 7.47969 10.7303L4.1097 10.6603C4.8197 7.25031 5.21969 4.02031 5.14969 2.39031C5.11969 1.73031 5.29969 1.30031 5.47969 1.11031C5.53969 1.05031 5.61969 0.980312 5.72969 0.980312ZM5.72969 0.830313C5.32969 0.830313 4.95969 1.44031 4.99969 2.39031C5.07969 4.06031 4.63969 7.43031 3.92969 10.8003L7.6097 10.8703C7.8097 9.64031 6.95969 4.00031 6.53969 2.04031C6.35969 1.19031 6.0297 0.820312 5.7197 0.820312L5.72969 0.830313Z" fill="#5E5E5A"/>
<path d="M1.00999 16.21C1.71999 13.93 1.42 11.63 1.25 10.25C1.22 9.98996 1.19 9.75996 1.17 9.56996C1.13 9.08996 1.48 7.96996 1.86 6.77996C2.38 5.12996 2.98 3.25996 2.87 2.12996C2.82 1.51996 2.95 0.959962 3.23 0.659962C3.35 0.529962 3.48 0.459961 3.62 0.459961C3.98 0.459961 4.44 0.989962 4.55 2.48996C4.63 3.54996 4.51 4.84996 4.38 6.11996C4.2 8.00996 4.03 9.79996 4.61 10.44C4.76 10.61 4.96 10.69 5.2 10.69C5.26 10.69 5.32 10.69 5.39 10.67C6.22 10.54 6.85 10.16 7.25 9.55996C7.82 8.70996 7.93001 7.41996 7.57001 5.83996C7.13001 3.91996 6.79 1.43996 7.3 0.799961C7.38 0.699961 7.47 0.659962 7.58 0.659962C7.63 0.659962 7.68 0.659962 7.73 0.679962C8.73 0.989962 9.3 3.50996 9.72 5.35996L9.85001 5.94996C10.04 6.76996 10.03 8.20996 10.02 9.87996C10.01 11.93 9.99001 14.24 10.32 16.2H1L1.00999 16.21Z" fill="#F4DE9C"/>
<path d="M3.60844 0.539885C3.95844 0.539885 4.35844 1.13988 4.46844 2.49988C4.54844 3.54988 4.42845 4.85988 4.29845 6.10988C4.10845 8.09988 3.93845 9.81988 4.54845 10.4799C4.71845 10.6599 4.93844 10.7599 5.19844 10.7599C5.25844 10.7599 5.32844 10.7599 5.39844 10.7399C6.24844 10.5999 6.88844 10.2199 7.30844 9.59988C7.88844 8.72988 8.00844 7.42988 7.63844 5.81988C7.05844 3.30988 6.94844 1.35988 7.35844 0.849884C7.41844 0.769884 7.48845 0.739883 7.57845 0.739883C7.61845 0.739883 7.65845 0.739884 7.70845 0.759884C8.66845 1.05988 9.25844 3.65988 9.64844 5.37988C9.69844 5.58988 9.73844 5.78988 9.77844 5.96988C9.96844 6.77988 9.95844 8.21988 9.94844 9.88988C9.92844 11.9099 9.91845 14.1899 10.2384 16.1399H1.10844C1.78844 13.8799 1.49845 11.6099 1.31845 10.2499C1.28845 9.98988 1.25845 9.75988 1.23845 9.57988C1.19845 9.10988 1.54844 7.99988 1.92844 6.81988C2.44844 5.16988 3.04844 3.28988 2.94844 2.13988C2.88844 1.43988 3.07844 0.949883 3.28844 0.729883C3.35844 0.649883 3.47844 0.559883 3.61844 0.559883M3.60844 0.389883C3.13844 0.389883 2.69844 1.10988 2.78844 2.13988C2.96844 4.11988 0.978445 8.43988 1.07845 9.57988C1.17845 10.7299 1.77844 13.5399 0.898438 16.2799H10.4084C9.77845 12.6999 10.3484 7.76988 9.91844 5.92988C9.48844 4.08988 8.90845 0.959884 7.73845 0.599884C7.67845 0.579884 7.61844 0.569883 7.55844 0.569883C6.60844 0.569883 6.91844 3.42988 7.47844 5.83988C8.06844 8.37988 7.44844 10.2399 5.35844 10.5799C5.29844 10.5899 5.23844 10.5999 5.17844 10.5999C3.36844 10.5999 4.82845 5.50988 4.59845 2.46988C4.48845 0.969883 4.01844 0.379883 3.58844 0.379883L3.60844 0.389883Z" fill="#5E5E5A"/>
<path d="M8.79654 23.1893C8.37654 23.1893 7.94654 23.0093 7.63654 22.8793C7.47654 22.8093 7.34654 22.7593 7.25654 22.7393H7.15655C6.95655 22.7393 6.71654 22.8393 6.46654 22.9493C6.18654 23.0693 5.90654 23.1893 5.63654 23.1893C5.44654 23.1893 5.28654 23.1193 5.14654 22.9893C4.76654 22.6093 4.44655 22.5393 3.98655 22.5393C3.82655 22.5393 3.63653 22.5393 3.42653 22.5593C3.12653 22.5793 2.75654 22.5893 2.30654 22.5893C1.95654 22.5893 1.64655 22.3793 1.37655 21.9693C0.496546 20.6193 0.406537 17.5993 0.976537 16.3193C1.22654 15.7493 1.48653 15.6793 1.67653 15.6793C1.79653 15.6793 1.91653 15.7093 2.03653 15.7393C2.15653 15.7693 2.28654 15.7993 2.41654 15.7993C2.63654 15.7993 2.80655 15.7093 2.95655 15.4993C3.96655 14.1193 4.61655 13.5293 5.12655 13.5293C5.41655 13.5293 5.66655 13.7093 5.98655 13.9493C6.48655 14.3193 7.11655 14.7793 8.26655 14.7793C8.57655 14.7793 8.90654 14.7493 9.25654 14.6793C9.30654 14.6793 9.36654 14.6593 9.41654 14.6593C9.63654 14.6593 9.81654 14.7493 9.97654 14.9493C10.7665 15.8993 10.6965 19.0193 10.2365 21.4693C10.0165 22.6393 9.54655 23.2093 8.81655 23.2093L8.79654 23.1893Z" fill="white"/>
<path d="M5.11809 13.5997C5.38809 13.5997 5.62809 13.7797 5.93809 13.9997C6.42809 14.3597 7.08809 14.8397 8.25809 14.8397C8.56809 14.8397 8.90809 14.8097 9.25809 14.7397C9.30809 14.7397 9.35809 14.7297 9.39809 14.7297C9.58809 14.7297 9.75809 14.8097 9.89809 14.9897C10.6681 15.9197 10.5981 19.0097 10.1381 21.4397C9.92809 22.5697 9.48808 23.1197 8.78808 23.1197C8.38808 23.1197 7.9681 22.9397 7.6581 22.8097C7.4981 22.7397 7.36809 22.6897 7.25809 22.6697C7.21809 22.6697 7.17809 22.6597 7.13809 22.6597C6.91809 22.6597 6.67809 22.7597 6.41809 22.8697C6.14809 22.9797 5.86809 23.0997 5.61809 23.0997C5.44809 23.0997 5.30809 23.0397 5.18809 22.9197C4.78809 22.5197 4.45809 22.4397 3.97809 22.4397C3.81809 22.4397 3.6281 22.4397 3.4081 22.4597C3.1081 22.4797 2.73808 22.4897 2.28808 22.4897C1.96808 22.4897 1.67808 22.2897 1.42808 21.9097C0.568084 20.5797 0.46809 17.5897 1.02809 16.3297C1.26809 15.7997 1.4881 15.7297 1.6581 15.7297C1.7681 15.7297 1.87809 15.7597 1.99809 15.7897C2.12809 15.8197 2.25809 15.8597 2.39809 15.8597C2.63809 15.8597 2.83809 15.7497 2.99809 15.5297C3.99809 14.1697 4.6281 13.5897 5.0981 13.5897M5.11809 13.4497C4.62809 13.4497 4.01809 13.9197 2.88809 15.4497C2.73809 15.6497 2.5781 15.7197 2.4081 15.7197C2.1681 15.7197 1.91809 15.5897 1.66809 15.5897C1.40809 15.5897 1.14809 15.7297 0.898086 16.2797C0.128086 17.9997 0.578095 22.6497 2.29809 22.6497C3.07809 22.6497 3.5981 22.5897 3.9881 22.5897C4.4581 22.5897 4.7481 22.6697 5.0981 23.0197C5.2581 23.1797 5.44809 23.2397 5.63809 23.2397C6.16809 23.2397 6.7581 22.7897 7.1581 22.7897C7.1881 22.7897 7.21809 22.7897 7.24809 22.7897C7.51809 22.8397 8.16809 23.2497 8.79809 23.2497C9.42809 23.2497 10.0281 22.8797 10.2981 21.4497C10.8281 18.6497 10.8981 14.5597 9.4081 14.5597C9.3481 14.5597 9.2981 14.5597 9.2381 14.5797C8.8781 14.6497 8.5581 14.6797 8.2681 14.6797C6.4181 14.6797 5.9281 13.4297 5.1281 13.4297L5.11809 13.4497Z" fill="#5E5E5A"/>
<mask id="mask0_230_607" style="mask-type:luminance" maskUnits="userSpaceOnUse" x="0" y="13" width="11" height="11">
<path d="M0.968127 16.26C0.198127 17.98 0.53812 22.65 2.25812 22.65C3.97812 22.65 4.40813 22.38 5.04813 23.03C5.68813 23.68 6.65812 22.71 7.19812 22.82C7.73812 22.93 9.70813 24.37 10.2481 21.48C10.7981 18.58 10.8481 14.28 9.17812 14.61C5.05812 15.41 6.06812 11.07 2.83812 15.47C2.24812 16.28 1.59813 14.83 0.958132 16.28L0.968127 16.26Z" fill="white"/>
</mask>
<g mask="url(#mask0_230_607)">
<path opacity="0.75" d="M12.9192 17.7102C12.9192 17.7102 8.94922 15.8702 8.94922 19.0502C8.94922 21.8702 12.8892 20.3602 12.8892 20.3602L12.9192 17.7102Z" fill="#E62C2F" stroke="#E62C2F" stroke-width="0.2" stroke-linecap="round" stroke-linejoin="round"/>
</g>
</svg>
