<svg width="10" height="28" viewBox="0 0 10 28" fill="none" xmlns="http://www.w3.org/2000/svg">
<path d="M0.752197 20.0303C0.872197 18.8203 1.07221 17.5803 1.26221 16.3703C1.47221 15.0603 1.68219 13.7103 1.80219 12.3803C1.92219 11.1203 2.21219 9.98027 2.55219 8.66027C2.89219 7.32027 3.2922 5.79027 3.5722 3.81027C3.8622 1.76027 4.4222 0.530273 5.0722 0.530273C5.4522 0.530273 5.86221 0.980274 6.17221 1.75027C7.04221 3.87027 8.2022 9.31027 7.9422 12.1803C7.6922 15.0103 8.4322 18.3703 9.0022 20.0203H0.742188L0.752197 20.0303Z" fill="#F4DE9C"/>
<path d="M5.08185 0.609961C5.43185 0.609961 5.81186 1.03996 6.12186 1.78996C6.99186 3.90996 8.14188 9.32996 7.89188 12.19C7.64188 14.97 8.35188 18.27 8.92188 19.96H0.841858C0.961858 18.78 1.15186 17.57 1.34186 16.39C1.55186 15.08 1.76187 13.72 1.88187 12.39C2.00187 11.13 2.29187 9.99996 2.63187 8.67996C2.98187 7.33996 3.37186 5.80996 3.65186 3.81996C3.99186 1.44996 4.61185 0.609961 5.08185 0.609961ZM5.08185 0.459961C4.46185 0.459961 3.84186 1.45996 3.50186 3.79996C2.94186 7.70996 1.97187 9.79996 1.73187 12.38C1.49187 14.96 0.921875 17.56 0.671875 20.11H9.12186C8.60186 18.68 7.76185 15.2 8.02185 12.2C8.29185 9.19996 7.07185 3.74996 6.24185 1.72996C5.91185 0.91996 5.49187 0.459961 5.07187 0.459961H5.08185Z" fill="#5E5E5A"/>
<path d="M3.99115 27.24C3.52115 27.24 3.13116 27.18 2.78116 27.05C2.49116 26.94 2.18117 26.88 1.85117 26.82C1.55117 26.76 1.24117 26.7 0.941165 26.6C0.401165 26.42 0.211174 24.2 0.481174 21.19C0.631174 19.53 0.90115 19.26 1.30115 18.85C1.51115 18.63 1.76117 18.39 2.04117 17.9C3.17117 15.95 4.09115 15 4.83115 15C5.43115 15 5.89115 15.62 6.33115 16.21C6.76115 16.79 7.20117 17.39 7.79117 17.43C8.34117 17.47 9.33117 20.35 9.54117 23.12C9.70117 25.21 9.35116 26.51 8.59116 26.68C8.54116 26.69 8.47115 26.72 8.36115 26.76C7.99115 26.91 7.30115 27.19 6.36115 27.19C6.21115 27.19 6.06116 27.19 5.90116 27.17C5.79116 27.16 5.68117 27.15 5.57117 27.15C5.33117 27.15 5.08117 27.17 4.82117 27.19C4.55117 27.21 4.26117 27.23 3.98117 27.23L3.99115 27.24Z" fill="white"/>
<path d="M4.83069 15.0699C5.39069 15.0699 5.84069 15.6699 6.27069 16.2499C6.71069 16.8399 7.17071 17.4499 7.79071 17.4999C8.26071 17.5399 9.2507 20.2699 9.4707 23.1199C9.6307 25.1699 9.30069 26.4399 8.58069 26.6099C8.53069 26.6199 8.4507 26.6499 8.3407 26.6999C7.9707 26.8499 7.2907 27.1199 6.3707 27.1199C6.2207 27.1199 6.07071 27.1199 5.92071 27.0999C5.81071 27.0899 5.70069 27.0799 5.58069 27.0799C5.34069 27.0799 5.09069 27.0999 4.83069 27.1199C4.56069 27.1399 4.28069 27.1599 3.99069 27.1599C3.53069 27.1599 3.1507 27.0999 2.8107 26.9699C2.5107 26.8599 2.2007 26.7999 1.8707 26.7299C1.5707 26.6699 1.2707 26.6099 0.970703 26.5099C0.540703 26.3699 0.260699 24.4899 0.560699 21.1799C0.710699 19.5499 0.970687 19.2899 1.36069 18.8899C1.57069 18.6799 1.82069 18.4199 2.11069 17.9199C3.23069 15.9899 4.1207 15.0499 4.8407 15.0499M4.83069 14.9199C4.15069 14.9199 3.2607 15.6399 1.9707 17.8599C1.1407 19.2899 0.630695 18.6399 0.400695 21.1799C0.170695 23.7199 0.220705 26.4399 0.910705 26.6699C1.54071 26.8799 2.1807 26.9199 2.7507 27.1199C3.1607 27.2699 3.58069 27.3199 3.99069 27.3199C4.55069 27.3199 5.09069 27.2399 5.58069 27.2399C5.69069 27.2399 5.8007 27.2399 5.9007 27.2499C6.0607 27.2699 6.2207 27.2699 6.3707 27.2699C7.5707 27.2699 8.40069 26.8099 8.61069 26.7599C10.8607 26.2399 8.94069 17.4399 7.80069 17.3599C6.65069 17.2699 6.06069 14.9299 4.83069 14.9299V14.9199Z" fill="#5E5E5A"/>
<mask id="mask0_230_704" style="mask-type:luminance" maskUnits="userSpaceOnUse" x="0" y="14" width="10" height="14">
<path d="M8.63023 26.7601C8.40023 26.8201 7.38023 27.3901 5.92023 27.2501C5.01023 27.1601 3.88021 27.5301 2.77021 27.1201C2.21021 26.9101 1.56021 26.8801 0.930214 26.6701C0.240214 26.4401 0.190235 23.7201 0.420235 21.1801C0.650235 18.6401 1.16021 19.2901 1.99021 17.8601C5.61021 11.6301 6.03023 17.2201 7.82023 17.3501C8.96023 17.4301 10.4902 26.3101 8.63023 26.7501V26.7601Z" fill="white"/>
</mask>
<g mask="url(#mask0_230_704)">
<path opacity="0.75" d="M11.4202 24.2398C11.4202 24.2398 8.16016 25.0398 8.16016 22.7698C8.16016 20.0298 11.4601 20.8998 11.4601 20.8998L11.4202 24.2498V24.2398Z" fill="#E62C2F" stroke="#E62C2F" stroke-width="0.5" stroke-linecap="round" stroke-linejoin="round"/>
</g>
</svg>
