<svg width="10" height="33" viewBox="0 0 10 33" fill="none" xmlns="http://www.w3.org/2000/svg">
<path d="M1.79904 22.55C2.24904 20.84 2.28904 18.12 2.32904 15.5C2.36904 13.07 2.40905 10.77 2.77905 9.65004C3.01905 8.93004 3.27905 8.26004 3.52905 7.59004C4.10905 6.06004 4.65905 4.62004 4.86905 2.93004C5.01905 1.75004 5.34904 1.04004 5.76904 1.04004C6.04904 1.04004 6.33905 1.36004 6.55905 1.90004C7.09905 3.25004 7.59906 9.15004 7.75906 12.9C7.80906 14.1 7.81906 15.27 7.81906 16.39C7.82906 18.84 7.84905 20.96 8.27905 22.54H1.78906L1.79904 22.55Z" fill="#F4DE9C"/>
<path d="M5.7692 1.11973C6.0092 1.11973 6.2892 1.42973 6.4892 1.93973C7.0192 3.25973 7.52921 9.26973 7.68921 12.9197C7.73921 14.1197 7.74921 15.2797 7.74921 16.4097C7.75921 18.8197 7.77921 20.9097 8.18921 22.4897H1.88922C2.31922 20.7597 2.3592 18.0997 2.3992 15.5097C2.4392 13.0897 2.4792 10.7997 2.8392 9.68973C3.0792 8.97973 3.3392 8.28973 3.5892 7.62973C4.1792 6.09973 4.72921 4.64973 4.93921 2.94973C5.10921 1.59973 5.4792 1.11973 5.7692 1.11973ZM5.7692 0.969727C5.3592 0.969727 4.95919 1.54973 4.79919 2.92973C4.49919 5.34973 3.4892 7.28973 2.7092 9.63973C1.9392 11.9897 2.60922 19.3597 1.69922 22.6397H8.38922C7.71922 20.3297 7.9992 16.7297 7.8392 12.9097C7.6792 9.08973 7.16921 3.21973 6.62921 1.87973C6.39921 1.29973 6.0792 0.969727 5.7692 0.969727Z" fill="#5E5E5A"/>
<path d="M4.04847 32.2396C3.07847 32.2396 2.1685 31.7996 1.4785 30.9996C-0.201504 29.0496 0.338496 27.1996 1.2285 24.1296C1.4185 23.4896 1.61849 22.7896 1.81849 22.0296C2.02849 21.2196 3.72848 20.1896 4.99848 20.0996H5.10847C6.33847 20.0996 8.13849 21.5996 8.37849 22.8296C8.43849 23.1496 8.5585 23.5596 8.6985 24.0296C9.1085 25.4096 9.66848 27.3096 9.30848 28.8296C8.97848 30.1996 8.4585 30.3696 7.7285 30.6196C7.2785 30.7696 6.76848 30.9496 6.20848 31.4196C5.57848 31.9596 4.82847 32.2396 4.04847 32.2396Z" fill="white"/>
<path d="M5.0986 20.1695C6.3886 20.1695 8.07858 21.7395 8.29858 22.8395C8.35858 23.1595 8.4786 23.5695 8.6286 24.0495C9.0386 25.4295 9.59858 27.3095 9.23858 28.8095C8.91858 30.1395 8.40858 30.3095 7.70858 30.5495C7.25858 30.6995 6.73861 30.8795 6.16861 31.3695C5.54861 31.8895 4.81859 32.1695 4.05859 32.1695C3.10859 32.1695 2.2186 31.7395 1.5386 30.9495C-0.111399 29.0295 0.418581 27.1895 1.29858 24.1595C1.48858 23.4995 1.68861 22.8195 1.88861 22.0595C2.09861 21.2695 3.74859 20.2695 4.99859 20.1795C5.02859 20.1795 5.0686 20.1795 5.0986 20.1795M5.0986 20.0195C5.0986 20.0195 5.01858 20.0195 4.98858 20.0195C3.66858 20.1195 1.95858 21.1695 1.73858 22.0095C0.598583 26.3695 -0.641394 28.6395 1.41861 31.0395C2.14861 31.8895 3.09858 32.3095 4.04858 32.3095C4.81858 32.3095 5.59859 32.0295 6.24859 31.4695C7.70859 30.2195 8.83859 31.0895 9.36859 28.8395C9.85859 26.7895 8.67859 24.0595 8.42859 22.8095C8.18859 21.5995 6.39858 20.0195 5.07858 20.0195H5.0986Z" fill="#5E5E5A"/>
<mask id="mask0_230_332" style="mask-type:luminance" maskUnits="userSpaceOnUse" x="0" y="20" width="10" height="13">
<path d="M9.38861 28.8402C9.87861 26.7902 8.60858 24.0502 8.35858 22.8002C8.11858 21.5502 6.30858 19.9302 4.98858 20.0202C3.66858 20.1202 1.95858 21.1702 1.73858 22.0102C0.598583 26.3702 -0.641394 28.6402 1.41861 31.0402C2.73861 32.5702 4.78859 32.7202 6.24859 31.4702C7.70859 30.2202 8.83859 31.0902 9.36859 28.8402H9.38861Z" fill="white"/>
</mask>
<g mask="url(#mask0_230_332)">
<path opacity="0.75" d="M11.5675 27.7601C11.1275 27.8101 7.9375 28.7301 7.9375 26.2401C7.9375 23.4801 11.5175 24.4001 11.5175 24.4001L11.5575 27.7601H11.5675Z" fill="#E62C2F" stroke="#E62C2F" stroke-width="0.5" stroke-linecap="round" stroke-linejoin="round"/>
</g>
</svg>
