<svg width="11" height="29" viewBox="0 0 11 29" fill="none" xmlns="http://www.w3.org/2000/svg">
<path d="M4.56921 5.90973C4.76921 3.09973 4.95922 0.969727 4.47922 0.969727C2.79922 0.969727 1.81922 7.08973 1.75922 7.80973C1.64922 9.23973 1.6292 11.0797 1.5892 12.3397C1.4592 16.2097 1.19922 18.9197 1.19922 18.9197C2.53922 15.8397 3.07921 13.2597 3.31921 11.4797C3.42921 10.6897 3.90921 8.41973 4.56921 5.89973V5.90973Z" fill="#EDD091" stroke="#5E5E5A" stroke-width="0.15" stroke-linecap="round" stroke-linejoin="round"/>
<path d="M1.19922 18.9299L4.91922 18.8799L1.19922 18.9299Z" fill="#EDD091" stroke="#5E5E5A" stroke-width="0.15" stroke-linecap="round" stroke-linejoin="round"/>
<path d="M1.19922 18.9297L9.78922 18.8197C9.78922 18.8197 7.7992 10.8597 7.6492 2.60973C7.6492 2.21973 7.3292 0.969727 6.7392 0.969727C6.0392 0.969727 5.6892 1.98973 5.5592 2.40973C4.4292 6.01973 3.47921 10.3397 3.31921 11.4897C3.07921 13.2697 2.53922 15.8497 1.19922 18.9297Z" fill="#F4DE9C" stroke="#5E5E5A" stroke-width="0.15" stroke-linecap="round" stroke-linejoin="round"/>
<path d="M10.9203 24.2302C10.9203 22.2802 10.3302 19.2402 9.21024 17.9302C8.47024 17.0602 6.87024 16.2702 5.65024 16.4402C4.43024 16.6102 3.99025 18.0202 3.06025 17.9802C2.14025 17.9402 1.30023 17.7402 1.11023 19.4902C0.910233 21.2502 0.520254 21.3902 0.350254 22.5202C0.180254 23.6402 -0.209738 24.6002 1.89026 25.4402C3.99026 26.2802 4.51024 28.8202 6.37024 28.2602C8.24024 27.7002 7.99024 26.6302 9.31024 26.1402C10.6302 25.6502 10.9203 24.9702 10.9203 24.2402V24.2302Z" fill="white" stroke="#5E5E5A" stroke-width="0.15" stroke-linecap="round" stroke-linejoin="round"/>
<mask id="mask0_230_705" style="mask-type:luminance" maskUnits="userSpaceOnUse" x="0" y="16" width="11" height="13">
<path d="M10.9203 24.2305C10.9203 22.2805 9.94024 18.8105 9.21024 17.9305C8.48024 17.0505 6.87024 16.2705 5.65024 16.4405C4.43024 16.6105 3.99025 18.0205 3.06025 17.9805C2.14025 17.9405 1.30023 17.7405 1.11023 19.4905C0.910233 21.2505 0.520254 21.3905 0.350254 22.5205C0.180254 23.6405 -0.209738 24.6005 1.89026 25.4405C3.99026 26.2805 4.51024 28.8205 6.37024 28.2605C8.24024 27.7005 7.99024 26.6305 9.31024 26.1405C10.6302 25.6505 10.9203 24.9705 10.9203 24.2405V24.2305Z" fill="white"/>
</mask>
<g mask="url(#mask0_230_705)">
<path opacity="0.75" d="M13.0417 23.9701C13.0417 23.9701 9.26172 24.5601 9.26172 22.1701C9.26172 19.3901 12.9617 19.9901 12.9617 19.9901L13.0417 23.9701Z" fill="#E62C2F" stroke="#E62C2F" stroke-width="0.5" stroke-linecap="round" stroke-linejoin="round"/>
</g>
</svg>
