<svg width="10" height="27" viewBox="0 0 10 27" fill="none" xmlns="http://www.w3.org/2000/svg">
<path d="M0.996094 17.8498C1.01609 16.2298 1.3361 13.3398 1.9761 9.24984C2.1461 8.13984 2.5161 7.37984 2.8761 6.64984C3.3561 5.67984 3.80611 4.75984 3.63611 3.18984C3.52611 2.14984 3.63611 1.34984 3.94611 1.00984C4.04611 0.899844 4.16608 0.839844 4.29608 0.839844C4.65608 0.839844 5.09608 1.25984 5.48608 1.98984C6.65608 4.16984 7.1561 6.83984 6.9061 9.49984C6.6261 12.4298 7.2361 14.2298 8.8161 17.8598H0.996094V17.8498Z" fill="#F4DE9C"/>
<path d="M4.29794 0.919531C4.62794 0.919531 5.04797 1.33953 5.41797 2.02953C6.57797 4.19953 7.07794 6.84953 6.82794 9.49953C6.54794 12.4195 7.14797 14.2195 8.69797 17.7895H1.06796C1.09796 16.1495 1.41796 13.2895 2.03796 9.26953C2.20796 8.16953 2.57796 7.41953 2.93796 6.68953C3.41796 5.70953 3.87795 4.77953 3.70795 3.18953C3.59795 2.16953 3.70796 1.38953 3.99796 1.06953C4.08796 0.96953 4.17796 0.929531 4.28796 0.929531M4.29794 0.769531C3.75794 0.769531 3.39796 1.60953 3.56796 3.19953C3.85796 5.88953 2.30795 6.60953 1.89795 9.23953C1.48795 11.8695 0.927969 15.7995 0.917969 17.9295H8.92795C7.28795 14.1595 6.69797 12.4295 6.97797 9.50953C7.25797 6.57953 6.60794 3.93953 5.54794 1.95953C5.11794 1.15953 4.65796 0.769531 4.28796 0.769531H4.29794Z" fill="#5E5E5A"/>
<path d="M5.17119 26.2394C4.37119 26.2394 3.73119 25.9594 3.45119 25.4794C3.14119 24.9494 2.72118 24.5694 2.31118 24.1994C1.83118 23.7694 1.37117 23.3594 1.21117 22.7594C0.90117 21.5794 0.601171 17.2894 1.18117 16.8794C1.41117 16.7194 1.71118 16.6994 2.00118 16.6994H2.42119C2.77119 16.6994 3.16118 16.6794 3.44118 16.3794L3.55117 16.2594C3.98117 15.7794 4.79117 14.8994 5.49117 14.8994C5.73117 14.8994 5.94117 14.9994 6.12117 15.2094C6.43117 15.5594 6.66118 15.8694 6.85118 16.1294C7.23118 16.6494 7.48118 16.9994 8.00118 17.1094C8.36118 17.1894 8.65117 17.4794 8.87117 17.9794C9.68117 19.8094 9.28118 23.8594 9.03118 24.2994C8.79118 24.6994 8.27119 24.8594 7.76119 25.0194C7.26119 25.1694 6.80119 25.3094 6.67119 25.6794C6.56119 25.9894 5.90119 26.2294 5.17119 26.2294V26.2394Z" fill="white"/>
<path d="M5.49121 14.9898C5.71121 14.9898 5.90123 15.0798 6.07123 15.2698C6.38123 15.6198 6.60123 15.9198 6.79123 16.1898C7.17123 16.7098 7.44121 17.0798 7.99121 17.1998C8.32121 17.2698 8.60122 17.5498 8.81122 18.0298C9.61122 19.8498 9.22122 23.8498 8.97122 24.2798C8.75122 24.6598 8.24121 24.8098 7.74121 24.9598C7.23121 25.1198 6.74123 25.2698 6.60123 25.6698C6.51123 25.9098 5.94123 26.1698 5.17123 26.1698C4.40123 26.1698 3.78123 25.8998 3.51123 25.4498C3.19123 24.9098 2.77123 24.5198 2.35123 24.1598C1.85123 23.7198 1.43122 23.3398 1.28122 22.7598C0.951219 21.4998 0.721221 17.3098 1.22122 16.9598C1.43122 16.8098 1.72122 16.7898 2.00122 16.7898H2.21121H2.42123C2.81123 16.7898 3.21122 16.7498 3.50122 16.4398L3.61121 16.3198C4.03121 15.8498 4.82122 14.9798 5.50122 14.9798M5.49121 14.8398C4.69121 14.8398 3.80123 15.8998 3.38123 16.3498C3.14123 16.6098 2.79123 16.6498 2.42123 16.6498C2.28123 16.6498 2.14122 16.6498 2.00122 16.6498C1.69122 16.6498 1.38123 16.6798 1.14123 16.8398C0.511235 17.2798 0.851235 21.6698 1.14123 22.7998C1.43123 23.9198 2.70123 24.3598 3.39123 25.5298C3.72123 26.0998 4.47121 26.3198 5.18121 26.3198C5.92121 26.3198 6.62122 26.0698 6.75122 25.7198C6.99122 25.0398 8.62121 25.1798 9.11121 24.3498C9.46121 23.7498 10.0012 17.4598 8.03122 17.0498C7.28122 16.8898 7.11122 16.1998 6.19122 15.1698C5.98122 14.9298 5.74122 14.8398 5.50122 14.8398H5.49121Z" fill="#5E5E5A"/>
<mask id="mask0_230_356" style="mask-type:luminance" maskUnits="userSpaceOnUse" x="0" y="14" width="10" height="13">
<path d="M9.08951 24.3493C8.59951 25.1793 6.97952 25.0293 6.72952 25.7193C6.48952 26.3993 4.05952 26.6993 3.37952 25.5193C2.69952 24.3493 1.42952 23.9093 1.12952 22.7893C0.839516 21.6693 0.499516 17.2693 1.12952 16.8293C1.75952 16.3893 2.82951 16.9293 3.36951 16.3393C3.90951 15.7493 5.24952 14.1393 6.16952 15.1693C7.08952 16.1993 7.24952 16.9293 8.00952 17.0493C9.67952 17.3093 9.43951 23.7493 9.08951 24.3493Z" fill="white"/>
</mask>
<g mask="url(#mask0_230_356)">
<path opacity="0.75" d="M12.198 22.8293C12.198 22.8293 8.13803 23.7693 8.03803 21.3493C7.90803 18.2393 12.238 19.0693 12.238 19.0693L12.198 22.8293Z" fill="#E62C2F" stroke="#E62C2F" stroke-width="0.2" stroke-linecap="round" stroke-linejoin="round"/>
</g>
</svg>
