<svg width="13" height="28" viewBox="0 0 13 28" fill="none" xmlns="http://www.w3.org/2000/svg">
<path d="M4.53809 2.21013C4.76809 -0.0698659 6.16807 0.520135 6.26807 2.43014C6.36807 4.34014 7.22809 8.12014 8.37809 11.8701L4.35807 12.3601C3.99807 10.9801 4.29809 4.49013 4.53809 2.21013Z" fill="#F4DE9C" stroke="#5E5E5A" stroke-width="0.15" stroke-miterlimit="10"/>
<path d="M11.3991 17.9906C10.3291 15.6406 9.82914 15.8306 10.3191 13.5806C10.8091 11.3306 11.7591 8.82061 10.2691 5.05061C8.77912 1.28061 6.49915 -0.469384 6.91915 2.20062C7.33915 4.87062 7.99912 7.71061 7.26912 9.74061C6.53912 11.7706 4.87914 12.2506 4.34914 9.92062C3.81914 7.59062 3.78914 5.89061 3.75914 4.38061C3.72914 2.88061 3.48913 -0.199385 2.30913 1.80062C1.13913 3.80062 0.299135 6.96062 0.719135 11.0406C0.719135 11.0406 1.67912 16.2106 0.799122 18.0006H11.3991V17.9906Z" fill="#F4DE9C" stroke="#5E5E5A" stroke-width="0.15" stroke-linecap="round" stroke-linejoin="round"/>
<path d="M4.17865 27.2702C3.07865 27.2702 1.73867 26.3502 1.25867 24.2902C0.538669 21.2402 0.468648 18.7602 0.768648 17.9902C0.838648 17.8102 0.968651 17.7302 1.20865 17.7302C1.38865 17.7302 1.58867 17.7702 1.81867 17.8102C2.08867 17.8602 2.39865 17.9202 2.70865 17.9202C3.19865 17.9202 3.58867 17.7702 3.91867 17.4802C4.50867 16.9402 5.27866 16.6602 6.15866 16.6602C6.80866 16.6602 7.48867 16.8102 8.13867 17.1102C8.36867 17.2102 8.59867 17.2702 8.84867 17.2702C9.12867 17.2702 9.37865 17.2002 9.61865 17.1402C9.82865 17.0802 10.0187 17.0302 10.2087 17.0302C10.5187 17.0302 10.8987 17.1502 11.3787 18.0302C12.1287 19.3902 12.4287 24.7002 11.8187 25.6002C11.4887 26.0802 10.8187 26.3802 10.0887 26.3802C9.58866 26.3802 9.15866 26.2302 8.90866 25.9802C8.70866 25.7802 8.52864 25.6902 8.35864 25.6902C8.12864 25.6902 7.94867 25.8602 7.75867 26.0402C7.61867 26.1702 7.47866 26.3002 7.30866 26.4002C7.18866 26.4702 7.05866 26.5002 6.90866 26.5002C6.79866 26.5002 6.69866 26.4902 6.58866 26.4702C6.47866 26.4502 6.35866 26.4402 6.24866 26.4402C5.94866 26.4402 5.70867 26.5402 5.47867 26.7702C5.12867 27.1102 4.67866 27.2902 4.18866 27.2902L4.17865 27.2702Z" fill="white"/>
<path d="M6.14934 16.7303C6.77934 16.7303 7.45935 16.8803 8.09935 17.1703C8.33935 17.2803 8.57934 17.3303 8.83934 17.3303C9.12934 17.3303 9.39935 17.2603 9.62935 17.2003C9.82935 17.1503 10.0194 17.1003 10.1994 17.1003C10.4894 17.1003 10.8393 17.2103 11.2993 18.0603C12.0393 19.4103 12.3493 24.6603 11.7393 25.5503C11.4293 26.0103 10.7694 26.3003 10.0694 26.3003C9.58936 26.3003 9.17935 26.1603 8.93935 25.9203C8.71935 25.7003 8.52934 25.6003 8.33934 25.6003C8.07934 25.6003 7.88935 25.7803 7.68935 25.9703C7.55935 26.1003 7.41935 26.2203 7.24935 26.3103C7.13935 26.3703 7.02936 26.4003 6.88936 26.4003C6.78936 26.4003 6.68934 26.3903 6.57934 26.3703C6.45934 26.3503 6.34936 26.3403 6.22936 26.3403C5.90936 26.3403 5.64935 26.4503 5.40935 26.6903C5.06935 27.0203 4.63936 27.1903 4.16936 27.1903C3.09936 27.1903 1.79936 26.2903 1.31936 24.2703C0.599356 21.2303 0.529335 18.7803 0.829335 18.0103C0.879335 17.8803 0.959361 17.8003 1.19936 17.8003C1.36936 17.8003 1.56936 17.8403 1.78936 17.8803C2.06936 17.9303 2.37936 17.9903 2.69936 17.9903C3.20936 17.9903 3.61934 17.8403 3.95934 17.5303C4.52934 17.0003 5.28934 16.7303 6.14934 16.7303ZM6.14934 16.5803C5.31934 16.5803 4.50933 16.8303 3.85933 17.4203C3.49933 17.7503 3.09936 17.8403 2.69936 17.8403C2.13936 17.8403 1.58936 17.6503 1.19936 17.6503C0.959361 17.6503 0.779351 17.7203 0.689351 17.9503C0.349351 18.8303 0.489342 21.4203 1.17934 24.3003C1.65934 26.3203 2.98934 27.3303 4.17934 27.3303C4.67934 27.3303 5.15935 27.1503 5.52935 26.7903C5.77935 26.5403 6.01935 26.4803 6.24935 26.4803C6.47935 26.4803 6.68935 26.5403 6.90935 26.5403C7.04935 26.5403 7.19934 26.5203 7.33934 26.4403C7.76934 26.2003 8.00933 25.7403 8.35933 25.7403C8.49933 25.7403 8.65933 25.8203 8.85933 26.0103C9.13933 26.3003 9.60935 26.4403 10.0994 26.4403C10.7794 26.4403 11.5194 26.1603 11.8894 25.6203C12.5194 24.6903 12.2193 19.3803 11.4593 17.9703C11.0093 17.1503 10.6193 16.9303 10.2193 16.9303C9.79935 16.9303 9.36933 17.1703 8.85933 17.1703C8.64933 17.1703 8.42934 17.1303 8.17934 17.0203C7.53934 16.7303 6.84936 16.5703 6.16936 16.5703L6.14934 16.5803Z" fill="#5E5E5A"/>
<mask id="mask0_230_383" style="mask-type:luminance" maskUnits="userSpaceOnUse" x="0" y="16" width="13" height="12">
<path d="M11.2909 17.9599C12.0609 19.3599 12.5109 24.7 11.8809 25.63C11.2509 26.56 9.54093 26.6999 8.85093 26.0199C8.16093 25.3399 7.95092 26.11 7.34092 26.45C6.73092 26.78 6.19093 26.16 5.53093 26.81C4.28093 28.03 1.87092 27.1999 1.18092 24.3199C0.500921 21.4399 0.350931 18.8499 0.690931 17.9699C1.03093 17.0899 2.69091 18.5099 3.86091 17.4299C5.03091 16.3599 6.74093 16.4 8.16093 17.04C9.58093 17.68 10.1609 15.9199 11.2809 17.9699L11.2909 17.9599Z" fill="white"/>
</mask>
<g mask="url(#mask0_230_383)">
<path opacity="0.75" d="M14.5808 23.5998C14.5808 23.5998 10.5508 25.0898 10.5508 21.9098C10.5508 19.0898 14.6008 20.1898 14.6008 20.1898L14.5808 23.5998Z" fill="#E62C2F" stroke="#E62C2F" stroke-width="0.2" stroke-linecap="round" stroke-linejoin="round"/>
</g>
</svg>
