<svg width="11" height="24" viewBox="0 0 11 24" fill="none" xmlns="http://www.w3.org/2000/svg">
<path d="M3.59073 10.8502C3.43073 9.51019 4.25075 4.0702 4.67075 2.1102C4.85075 1.2602 5.17075 0.950195 5.42075 0.950195C5.52075 0.950195 5.63073 1.00019 5.72073 1.10019C5.96073 1.36019 6.09074 1.85019 6.07074 2.43019C5.99074 4.07019 6.41073 7.34019 7.12073 10.7702L3.59073 10.8402V10.8502Z" fill="#F4DE9C"/>
<path d="M5.42001 1.02988C5.53001 1.02988 5.61001 1.09988 5.67001 1.15988C5.85001 1.34988 6.03 1.77988 6 2.43988C5.92 4.06988 6.33001 7.30988 7.04001 10.7099L3.67001 10.7799C3.54001 9.35988 4.35 4.00988 4.75 2.12988C4.92 1.31988 5.22001 1.02988 5.42001 1.02988ZM5.42001 0.879883C5.11001 0.879883 4.78001 1.23988 4.60001 2.09988C4.18001 4.05988 3.33 9.69988 3.53 10.9299L7.20999 10.8599C6.49999 7.48988 6.06001 4.11988 6.14001 2.44988C6.18001 1.49988 5.82 0.889883 5.41 0.889883L5.42001 0.879883Z" fill="#5E5E5A"/>
<path d="M0.818604 16.2595C1.1486 14.2995 1.13859 11.9795 1.11859 9.93953C1.10859 8.26953 1.0986 6.82953 1.2886 6.00953L1.41861 5.41953C1.83861 3.57953 2.3986 1.04953 3.4086 0.739531C3.4686 0.719531 3.51859 0.71953 3.55859 0.71953C3.66859 0.71953 3.75859 0.769531 3.83859 0.859531C4.34859 1.49953 4.0086 3.96953 3.5686 5.89953C3.2086 7.47953 3.31861 8.76953 3.88861 9.61953C4.29861 10.2195 4.9186 10.5995 5.7486 10.7295C5.8186 10.7395 5.8786 10.7495 5.9386 10.7495C6.1786 10.7495 6.37859 10.6695 6.52859 10.4995C7.10859 9.85953 6.93861 8.07953 6.75861 6.17953C6.63861 4.91953 6.50859 3.60953 6.58859 2.54953C6.69859 1.04953 7.15859 0.519531 7.51859 0.519531C7.64859 0.519531 7.7886 0.58953 7.9086 0.71953C8.1886 1.01953 8.31859 1.58953 8.26859 2.18953C8.16859 3.32953 8.75859 5.19953 9.27859 6.83953C9.65859 8.02953 10.0086 9.14953 9.9686 9.62953C9.9486 9.81953 9.92861 10.0395 9.88861 10.3095C9.70861 11.6895 9.4186 13.9895 10.1286 16.2695H0.808594L0.818604 16.2595Z" fill="#F4DE9C"/>
<path d="M7.52704 0.579687C7.66704 0.579687 7.78703 0.669687 7.85703 0.749687C8.05703 0.969687 8.25705 1.45969 8.19705 2.15969C8.09705 3.30969 8.68704 5.18969 9.21704 6.83969C9.58704 8.01969 9.94704 9.13969 9.90704 9.59969C9.88704 9.77969 9.85703 10.0097 9.82703 10.2697C9.64703 11.6397 9.35705 13.8997 10.037 16.1597H0.907043C1.22704 14.2097 1.20705 11.9297 1.19705 9.90969C1.18705 8.23969 1.17703 6.79969 1.36703 5.98969C1.40703 5.79969 1.45704 5.60969 1.49704 5.39969C1.88704 3.67969 2.46704 1.06969 3.43704 0.779688C3.48704 0.769688 3.52705 0.759687 3.56705 0.759687C3.65705 0.759687 3.72705 0.799688 3.78705 0.869688C4.18705 1.37969 4.07705 3.32969 3.50705 5.83969C3.13705 7.44969 3.24704 8.74969 3.83704 9.61969C4.25704 10.2397 4.89704 10.6297 5.74704 10.7597C5.81704 10.7697 5.88705 10.7797 5.94705 10.7797C6.20705 10.7797 6.42705 10.6897 6.59705 10.4997C7.19705 9.83969 7.03705 8.11969 6.84705 6.12969C6.72705 4.86969 6.59703 3.56969 6.67703 2.50969C6.77703 1.15969 7.18705 0.549686 7.53705 0.549686M7.52704 0.429688C7.09704 0.429688 6.63703 1.02969 6.51703 2.51969C6.28703 5.55969 7.74704 10.6497 5.93704 10.6497C5.87704 10.6497 5.81705 10.6497 5.75705 10.6297C3.67705 10.2897 3.05705 8.43969 3.63705 5.88969C4.18705 3.47969 4.50704 0.619688 3.55704 0.619688C3.50704 0.619688 3.44704 0.619687 3.37704 0.649687C2.21704 1.00969 1.62705 4.12969 1.19705 5.97969C0.767052 7.81969 1.34703 12.7497 0.707031 16.3297H10.217C9.32704 13.5897 9.92705 10.7697 10.037 9.62969C10.137 8.47969 8.15703 4.15969 8.32703 2.18969C8.41703 1.15969 7.97705 0.439688 7.50705 0.439688L7.52704 0.429688Z" fill="#5E5E5A"/>
<path d="M2.3396 23.2396C1.5996 23.2396 1.13962 22.6696 0.919618 21.4996C0.459618 19.0496 0.389597 15.9296 1.1796 14.9796C1.3396 14.7896 1.51959 14.6896 1.73959 14.6896C1.78959 14.6896 1.8396 14.6896 1.8996 14.7096C2.2496 14.7796 2.57962 14.8096 2.88962 14.8096C4.02962 14.8096 4.65962 14.3496 5.16962 13.9796C5.48962 13.7496 5.7396 13.5596 6.0296 13.5596C6.5296 13.5596 7.17962 14.1496 8.19962 15.5296C8.34962 15.7296 8.51959 15.8296 8.73959 15.8296C8.86959 15.8296 8.9996 15.7996 9.1196 15.7696C9.2396 15.7396 9.36962 15.7096 9.47962 15.7096C9.66962 15.7096 9.9296 15.7796 10.1796 16.3496C10.7496 17.6296 10.6496 20.6496 9.7796 21.9996C9.5096 22.4096 9.19961 22.6196 8.84961 22.6196C8.38961 22.6196 8.02962 22.5996 7.72962 22.5896C7.50962 22.5796 7.32962 22.5696 7.16962 22.5696C6.70962 22.5696 6.38961 22.6396 6.00961 23.0196C5.86961 23.1496 5.71959 23.2196 5.51959 23.2196C5.24959 23.2196 4.96961 23.0996 4.68961 22.9796C4.43961 22.8696 4.1996 22.7696 3.9996 22.7696H3.8996C3.7996 22.7896 3.67959 22.8396 3.51959 22.9096C3.20959 23.0396 2.77959 23.2196 2.35959 23.2196L2.3396 23.2396Z" fill="white"/>
<path d="M6.01886 13.65C6.49886 13.65 7.12886 14.23 8.11886 15.59C8.27886 15.81 8.47887 15.92 8.71887 15.92C8.85887 15.92 8.98886 15.89 9.11886 15.85C9.23886 15.82 9.35886 15.79 9.45886 15.79C9.62886 15.79 9.84887 15.86 10.0889 16.39C10.6489 17.65 10.5589 20.64 9.68887 21.97C9.43887 22.36 9.14886 22.55 8.82886 22.55C8.37886 22.55 8.00886 22.53 7.70886 22.52C7.48886 22.51 7.30888 22.5 7.13888 22.5C6.65888 22.5 6.32886 22.58 5.92886 22.98C5.80886 23.1 5.66887 23.16 5.49887 23.16C5.24887 23.16 4.96888 23.04 4.69888 22.93C4.43888 22.82 4.19888 22.72 3.97888 22.72C3.93888 22.72 3.89885 22.72 3.85885 22.73C3.75885 22.75 3.62886 22.81 3.45886 22.87C3.14886 23 2.72886 23.18 2.32886 23.18C1.62886 23.18 1.18888 22.63 0.97888 21.5C0.51888 19.07 0.448871 15.98 1.21887 15.04C1.35887 14.87 1.52887 14.78 1.71887 14.78C1.76887 14.78 1.80885 14.78 1.85885 14.79C2.20885 14.86 2.54885 14.89 2.85885 14.89C4.02885 14.89 4.68886 14.4 5.17886 14.05C5.48886 13.82 5.72887 13.65 5.99887 13.65M6.01886 13.5C5.21886 13.5 4.72887 14.75 2.87887 14.75C2.58887 14.75 2.26887 14.72 1.90887 14.65C1.84887 14.64 1.78886 14.63 1.73886 14.63C0.24886 14.63 0.318876 18.73 0.848875 21.52C1.11888 22.95 1.72888 23.32 2.34888 23.32C2.96888 23.32 3.62886 22.92 3.89886 22.86C3.92886 22.86 3.95886 22.86 3.98886 22.86C4.38886 22.86 4.97888 23.31 5.50888 23.31C5.69888 23.31 5.88886 23.25 6.04886 23.09C6.39886 22.74 6.68887 22.66 7.15887 22.66C7.54887 22.66 8.05888 22.72 8.84888 22.72C10.5689 22.72 11.0089 18.07 10.2489 16.35C10.0089 15.8 9.73888 15.66 9.47888 15.66C9.21888 15.66 8.97886 15.79 8.73886 15.79C8.56886 15.79 8.40888 15.73 8.25888 15.52C7.13888 13.99 6.52887 13.52 6.02887 13.52L6.01886 13.5Z" fill="#5E5E5A"/>
<mask id="mask0_230_317" style="mask-type:luminance" maskUnits="userSpaceOnUse" x="0" y="13" width="11" height="11">
<path d="M10.1704 16.3098C10.9404 18.0298 10.6004 22.6998 8.88036 22.6998C7.16036 22.6998 6.73035 22.4298 6.09035 23.0798C5.45035 23.7298 4.48036 22.7598 3.94036 22.8698C3.40036 22.9798 1.43037 24.4198 0.890368 21.5298C0.340368 18.6298 0.290345 14.3298 1.96035 14.6598C6.08034 15.4598 5.07034 11.1198 8.30034 15.5198C8.89034 16.3298 9.54035 14.8798 10.1803 16.3298L10.1704 16.3098Z" fill="white"/>
</mask>
<g mask="url(#mask0_230_317)">
<path opacity="0.75" d="M13.0091 20.2794C13.0091 20.2794 9.03906 22.1194 9.03906 18.9394C9.03906 16.1194 12.9791 17.6294 12.9791 17.6294L13.0091 20.2794Z" fill="#E62C2F" stroke="#E62C2F" stroke-width="0.2" stroke-linecap="round" stroke-linejoin="round"/>
</g>
</svg>
