<svg width="9" height="30" viewBox="0 0 9 30" fill="none" xmlns="http://www.w3.org/2000/svg">
<path d="M3.98999 29.6305C3.52999 29.6305 3.21001 28.7105 3.20001 27.4005C3.18001 25.2105 2.67001 23.3205 1.95001 20.7005L1.53 19.1705C1.11 17.5905 1.04001 16.2405 1.04001 13.2105C1.04001 10.3905 0.9 8.42047 0.75 7.48047L8.03 7.54047C7.3 9.52047 7.2 13.9605 7.16 18.3305C7.13 22.1405 6.33 24.5505 5.31 27.6005C4.7 29.4405 4.18999 29.6305 3.98999 29.6305Z" fill="#F4DE9C"/>
<path d="M0.851868 7.56015L7.93185 7.62016C7.22185 9.66016 7.13186 14.0301 7.09186 18.3401C7.06186 22.1401 6.26186 24.5401 5.25186 27.5901L5.22186 27.6802C4.76186 29.0702 4.29186 29.5702 4.00186 29.5702C3.65186 29.5702 3.30187 28.8302 3.29187 27.4102C3.27187 25.2102 2.76187 23.3201 2.04187 20.7001C1.91187 20.2201 1.77186 19.7102 1.62186 19.1602C1.20186 17.5802 1.13188 16.2902 1.14188 13.2202C1.14188 10.4702 1.01185 8.54015 0.861847 7.57015M0.671875 7.41016C0.801875 8.15016 0.991873 10.0502 0.981873 13.2202C0.981873 16.2802 1.04186 17.6101 1.47186 19.2001C2.41186 22.7201 3.12188 24.8302 3.14188 27.4102C3.15188 28.8302 3.51186 29.7102 4.00186 29.7102C4.40186 29.7102 4.90185 29.1102 5.36185 27.7202C6.39185 24.6302 7.21185 22.2001 7.24185 18.3401C7.28185 14.3101 7.35186 9.47015 8.15186 7.47015L0.681854 7.41016H0.671875Z" fill="#5E5E5A"/>
<path d="M4.7481 12.2103C3.9481 12.2103 1.7181 10.3503 1.0881 8.70031C0.368101 6.82031 0.208112 2.69031 0.568112 1.86031C0.948112 1.00031 3.29809 0.100312 4.04809 0.0703125C4.83809 0.0703125 8.05809 3.00031 8.26809 3.89031C8.46809 4.75031 8.3481 8.21031 7.0281 10.0803C6.3581 11.0303 5.51812 11.8503 4.88812 12.1903C4.85812 12.2103 4.80811 12.2203 4.75811 12.2203L4.7481 12.2103Z" fill="white"/>
<path d="M4.05994 -0.00976562V0.140236C4.78994 0.140236 7.99994 3.06024 8.18994 3.90024C8.38994 4.75024 8.26993 8.18024 6.95993 10.0302C6.29993 10.9702 5.46994 11.7802 4.83994 12.1102C4.81994 12.1202 4.77994 12.1302 4.74994 12.1302C4.03994 12.1302 1.81995 10.3902 1.15995 8.67023C0.439946 6.80023 0.279957 2.70024 0.639957 1.89024C0.979957 1.11024 3.24993 0.180236 4.04993 0.140236V-0.00976562M4.05994 -0.00976562C4.05994 -0.00976562 4.05993 -0.00976562 4.04993 -0.00976562C3.25993 0.0202344 0.889952 0.940238 0.509952 1.83024C0.129952 2.72024 0.329941 6.89024 1.02994 8.73024C1.67994 10.4302 3.93995 12.2902 4.75995 12.2902C4.81995 12.2902 4.87996 12.2802 4.91996 12.2502C5.53996 11.9202 6.39994 11.1102 7.08994 10.1202C8.40994 8.25024 8.54994 4.80024 8.33994 3.87024C8.12994 2.94024 4.87994 -0.00976562 4.05994 -0.00976562Z" fill="#5E5E5A"/>
<mask id="mask0_230_293" style="mask-type:luminance" maskUnits="userSpaceOnUse" x="0" y="-1" width="9" height="14">
<path d="M7.09048 10.1205C8.41048 8.25046 8.55048 4.80046 8.34048 3.87046C8.13048 2.94046 4.84047 -0.0395407 4.05047 -0.00954074C3.26047 0.0204593 0.89049 0.940463 0.51049 1.83046C0.12049 2.71046 0.330479 6.89046 1.03048 8.73046C1.73048 10.5705 4.30049 12.5805 4.92049 12.2605C5.54049 11.9305 6.40048 11.1205 7.09048 10.1305V10.1205Z" fill="white"/>
</mask>
<g mask="url(#mask0_230_293)">
<path opacity="0.75" d="M10.7902 7.21002C10.7902 7.21002 6.66016 9.04002 6.66016 5.88002C6.66016 3.08002 10.7502 4.58002 10.7502 4.58002L10.7802 7.21002H10.7902Z" fill="#E62C2F" stroke="#E62C2F" stroke-width="0.2" stroke-linecap="round" stroke-linejoin="round"/>
</g>
</svg>
