<svg width="11" height="25" viewBox="0 0 11 25" fill="none" xmlns="http://www.w3.org/2000/svg">
<path d="M7.67969 24.5197C7.45969 24.5197 7.00971 24.3397 6.13971 23.4697C4.02971 21.3497 3.91969 17.4997 3.83969 14.6897C3.75969 11.8897 3.0397 10.5497 2.3497 9.24969L2.17969 8.92969H10.0697C9.5297 11.5297 9.1197 13.7797 8.7597 15.7697L8.73969 15.8697C8.62969 16.4697 8.4197 17.1397 8.1897 17.8597C7.7397 19.2597 7.2797 20.7097 7.5997 21.6997C8.0497 23.0897 8.16971 24.0697 7.91971 24.4097C7.85971 24.4897 7.77969 24.5297 7.67969 24.5297V24.5197Z" fill="#F4DE9C"/>
<path d="M9.97861 8.99961C9.44861 11.5896 9.03859 13.8296 8.67859 15.8096V15.8496C8.55859 16.4396 8.34859 17.1196 8.11859 17.8296C7.66859 19.2396 7.19859 20.6996 7.52859 21.7096C7.96859 23.0496 8.08859 24.0396 7.86859 24.3496C7.82859 24.4096 7.7686 24.4396 7.6886 24.4396C7.5186 24.4396 7.09859 24.3096 6.20859 23.4096C4.11859 21.3096 4.00859 17.4696 3.92859 14.6796C3.84859 11.8596 3.11861 10.5096 2.41861 9.19961C2.37861 9.12961 2.34859 9.05961 2.30859 8.98961H9.97861M10.1586 8.84961H2.05859C2.79859 10.2696 3.68859 11.5896 3.76859 14.6896C3.85859 17.7896 4.0286 21.4496 6.0986 23.5296C6.8386 24.2696 7.3586 24.5996 7.6886 24.5996C8.3086 24.5996 8.23859 23.4196 7.67859 21.6696C7.20859 20.2096 8.4986 17.6596 8.8186 15.8796C9.1886 13.8096 9.6086 11.5296 10.1586 8.84961Z" fill="#5E5E5A"/>
<path d="M6.16823 12.14C4.78823 12.14 3.27823 10.7 3.00823 10.09C2.89823 9.84996 2.67823 9.54996 2.41823 9.20996C1.80823 8.40996 0.978223 7.31996 0.908223 5.93996C0.808223 3.92996 2.00821 2.51996 2.64821 2.24996C2.97821 2.10996 3.17821 1.92996 3.39821 1.74996C3.67821 1.50996 3.97823 1.25996 4.56823 1.02996C4.67823 0.989961 4.81821 0.959961 4.95821 0.959961C5.97821 0.959961 7.55822 1.97996 8.71822 2.71996L9.11821 2.97997C10.3282 3.74997 10.8882 5.64996 10.4482 7.50996C9.92823 9.71996 9.47823 10.03 8.66823 10.6C8.31823 10.84 7.92822 11.12 7.43822 11.6C7.07822 11.95 6.63821 12.14 6.14821 12.14H6.16823Z" fill="white"/>
<path d="M4.9681 1.03989C5.9681 1.03989 7.5381 2.04989 8.6881 2.78989L9.08809 3.04989C10.2681 3.79989 10.8181 5.66989 10.3881 7.49989C9.87811 9.67989 9.43811 9.98989 8.63811 10.5499C8.30811 10.7799 7.88809 11.0699 7.39809 11.5599C7.04809 11.8999 6.6281 12.0699 6.1581 12.0699C4.8181 12.0699 3.33811 10.6599 3.06811 10.0699C2.95811 9.81989 2.7281 9.51989 2.4681 9.17989C1.8681 8.38989 1.04811 7.29988 0.978109 5.94988C0.878109 3.97988 2.04811 2.59989 2.66811 2.32989C3.00811 2.18989 3.2181 2.00989 3.4381 1.81989C3.7181 1.57989 4.00809 1.33989 4.58809 1.10989C4.68809 1.06989 4.81809 1.04989 4.95809 1.04989M4.9681 0.889885C4.8181 0.889885 4.66809 0.909885 4.54809 0.959885C3.46809 1.37988 3.33809 1.87989 2.61809 2.18989C1.89809 2.49989 0.738094 3.96988 0.838094 5.94988C0.938094 7.92988 2.5881 9.32989 2.9381 10.1199C3.2081 10.7199 4.71811 12.2099 6.16811 12.2099C6.63811 12.2099 7.09811 12.0499 7.50811 11.6499C9.17811 10.0299 9.78811 10.6799 10.5381 7.51988C10.9581 5.72988 10.4981 3.73989 9.17809 2.90989C8.01809 2.16989 6.14811 0.879883 4.97811 0.879883L4.9681 0.889885Z" fill="#5E5E5A"/>
<mask id="mask0_230_233" style="mask-type:luminance" maskUnits="userSpaceOnUse" x="0" y="0" width="11" height="13">
<path d="M10.5398 7.52951C10.9598 5.73951 10.4998 3.74951 9.1798 2.91951C7.8598 2.08951 5.6398 0.539506 4.5598 0.959506C3.4798 1.37951 3.34981 1.87951 2.62981 2.18951C1.90981 2.49951 0.749813 3.9695 0.849813 5.9495C0.949813 7.9295 2.59982 9.32951 2.94982 10.1195C3.29982 10.9095 5.8498 13.2795 7.5198 11.6595C9.1898 10.0395 9.7998 10.6895 10.5498 7.52951H10.5398Z" fill="white"/>
</mask>
<g mask="url(#mask0_230_233)">
<path opacity="0.75" d="M13.0089 7.79987C13.0089 7.79987 8.87891 9.62986 8.87891 6.46986C8.87891 3.66986 12.9689 5.16986 12.9689 5.16986L12.9989 7.79987H13.0089Z" fill="#E62C2F" stroke="#E62C2F" stroke-width="0.2" stroke-linecap="round" stroke-linejoin="round"/>
</g>
</svg>
