<svg width="8" height="23" viewBox="0 0 8 23" fill="none" xmlns="http://www.w3.org/2000/svg">
<path d="M4.23889 22.9094C4.11889 22.9094 3.87891 22.7694 3.59891 21.7994C2.74891 18.8394 2.33891 14.7994 2.19891 13.1894C2.03891 11.3194 1.61891 10.0194 1.34891 9.14941C1.24891 8.83941 1.16891 8.59941 1.12891 8.39941L7.40891 8.42941L7.31891 8.88941C6.92891 10.8494 6.01891 15.4594 5.31891 19.9294C5.03891 21.6994 4.60889 22.8894 4.23889 22.8894V22.9094Z" fill="#F4DE9C"/>
<path d="M1.24078 8.48985L7.33078 8.51984L7.2608 8.86985C6.8708 10.8399 5.96079 15.4398 5.25079 19.9398C4.96079 21.8198 4.51078 22.8298 4.24078 22.8298C4.20078 22.8298 3.96081 22.7798 3.67081 21.7798C2.82081 18.8198 2.41079 14.7898 2.28079 13.1898C2.12079 11.3098 1.70079 9.99985 1.43079 9.13985C1.35079 8.87985 1.28078 8.66985 1.24078 8.48985ZM1.05078 8.33984C1.16078 9.03984 1.9108 10.5498 2.1308 13.1998C2.3608 15.8498 2.81079 19.3098 3.53079 21.8198C3.77079 22.6398 4.01078 22.9799 4.24078 22.9799C4.71078 22.9799 5.15079 21.5598 5.40079 19.9598C6.18079 14.9798 7.2208 9.83985 7.5108 8.36985L1.05078 8.33984Z" fill="#5E5E5A"/>
<path d="M4.401 10.8603C3.961 10.8603 3.551 10.6603 3.241 10.3003C2.981 10.0003 2.64101 9.78027 2.31101 9.56027C1.69101 9.16027 1.11102 8.77027 1.04102 7.93027C1.02102 7.69027 0.981023 7.34027 0.921023 6.92027C0.691023 5.00027 0.25101 1.42028 1.00101 0.900276C1.50101 0.560276 3.19101 0.280273 4.78101 0.280273C6.20101 0.280273 7.18102 0.500272 7.39102 0.880272C7.94102 1.86027 7.68102 6.99027 7.39102 8.64027C7.24102 9.46027 6.81102 9.62028 6.35102 9.79028C6.05102 9.90028 5.741 10.0103 5.521 10.3103C5.261 10.6603 4.841 10.8603 4.401 10.8603Z" fill="white"/>
<path d="M4.79024 0.200195V0.350197C6.16024 0.350197 7.14022 0.560202 7.33022 0.910202C7.88022 1.8802 7.61023 6.9802 7.31023 8.6302C7.17023 9.4102 6.77023 9.5602 6.31023 9.7202C6.00023 9.8302 5.68024 9.9502 5.45024 10.2602C5.20024 10.5902 4.81025 10.7802 4.39025 10.7802C3.97025 10.7802 3.58024 10.5902 3.29024 10.2502C3.03024 9.9402 2.68024 9.7202 2.35024 9.5002C1.75024 9.1102 1.18022 8.7302 1.11022 7.9202C1.09022 7.6802 1.05022 7.3302 0.990221 6.9102C0.770221 5.1402 0.320239 1.4502 1.04024 0.960197C1.52024 0.630197 3.20023 0.350197 4.78023 0.350197V0.200195M4.79024 0.200195C3.24024 0.200195 1.50023 0.4702 0.970232 0.8302C0.0102321 1.4902 0.850232 6.5702 0.970232 7.9302C1.09023 9.2902 2.47023 9.5102 3.19023 10.3502C3.54023 10.7502 3.98022 10.9302 4.40022 10.9302C4.86022 10.9302 5.30022 10.7202 5.58022 10.3502C6.12022 9.6302 7.21023 10.0602 7.47023 8.6502C7.76023 7.0202 8.04023 1.8402 7.47023 0.8302C7.21023 0.3802 6.07022 0.200195 4.80022 0.200195H4.79024Z" fill="#5E5E5A"/>
<mask id="mask0_230_497" style="mask-type:luminance" maskUnits="userSpaceOnUse" x="0" y="0" width="8" height="11">
<path d="M7.46068 8.65025C7.21068 10.0602 6.1107 9.63025 5.5707 10.3502C5.0307 11.0702 3.8907 11.1902 3.1707 10.3502C2.4507 9.51025 1.0707 9.29025 0.950701 7.93025C0.830701 6.57025 -0.00929913 1.50025 0.950701 0.830248C1.9107 0.170248 6.8807 -0.179752 7.4507 0.830248C8.0207 1.84025 7.7407 7.01025 7.4507 8.65025H7.46068Z" fill="white"/>
</mask>
<g mask="url(#mask0_230_497)">
<path opacity="0.75" d="M10.1125 6.69984C10.1125 6.69984 6.3125 8.40984 6.3125 5.45984C6.3125 2.83984 10.0825 4.23984 10.0825 4.23984L10.1125 6.69984Z" fill="#E62C2F" stroke="#E62C2F" stroke-width="0.2" stroke-linecap="round" stroke-linejoin="round"/>
</g>
</svg>
