<svg width="9" height="25" viewBox="0 0 9 25" fill="none" xmlns="http://www.w3.org/2000/svg">
<path d="M4.86954 24.4295C4.37954 24.4295 3.84954 22.9394 3.68954 21.0994C3.29954 16.6694 2.40953 12.9894 1.82953 10.5594C1.55953 9.42945 1.33953 8.51945 1.26953 7.93945H8.58954C8.52954 8.12945 8.44955 8.35945 8.34955 8.62945C7.96955 9.65945 7.39953 11.2195 7.20953 13.5095C7.05953 15.3095 6.59956 19.8395 5.63956 23.1795C5.32956 24.2695 5.01954 24.4395 4.86954 24.4395V24.4295Z" fill="#F4DE9C"/>
<path d="M8.47797 8.00938C8.41797 8.17938 8.34794 8.37937 8.26794 8.59937C7.88794 9.63937 7.31796 11.1994 7.12796 13.4994C6.97796 15.2994 6.51795 19.8294 5.55795 23.1494C5.23795 24.2594 4.94794 24.3494 4.85794 24.3494C4.46794 24.3494 3.91796 23.0094 3.74796 21.0894C3.35796 16.6494 2.46797 12.9794 1.88797 10.5394C1.62797 9.45938 1.41795 8.58938 1.33795 8.00938H8.46796M8.67795 7.85938H1.16797C1.35797 9.64937 3.01796 14.4994 3.59796 21.0994C3.75796 22.9094 4.28794 24.4994 4.85794 24.4994C5.13794 24.4994 5.42797 24.1194 5.69797 23.1894C6.50797 20.3694 7.01794 16.4894 7.26794 13.5094C7.51794 10.5294 8.41795 8.76938 8.67795 7.85938Z" fill="#5E5E5A"/>
<path d="M5.10879 11.65C5.04879 11.65 4.9888 11.64 4.9388 11.62C3.9788 11.2 1.65881 9.52004 1.50881 9.06004C0.92881 7.33004 0.688788 1.07004 2.04879 0.490036C2.20879 0.420036 2.37881 0.390038 2.56881 0.390038C2.95881 0.390038 3.35879 0.520038 3.70879 0.640038C3.99879 0.740038 4.24879 0.820038 4.45879 0.820038C4.56879 0.820038 4.65881 0.800038 4.72881 0.750038C4.98881 0.570038 5.9088 0.290039 6.6888 0.290039C7.1088 0.290039 7.6588 0.370036 7.9088 0.740036C8.4688 1.61004 9.1488 5.99004 8.6888 7.60004C8.2788 9.06004 6.13879 11.65 5.10879 11.65Z" fill="white"/>
<path d="M6.69041 0.369728C7.09041 0.369728 7.6204 0.439726 7.8404 0.789726C8.4004 1.64973 9.0604 5.98972 8.6204 7.58972C8.1904 9.11972 6.02039 11.5797 5.11039 11.5797C5.06039 11.5797 5.0104 11.5797 4.9704 11.5497C4.0404 11.1397 1.73039 9.46972 1.58039 9.02972C1.02039 7.35972 0.78039 1.10972 2.08039 0.559723C2.23039 0.499723 2.39041 0.469727 2.57041 0.469727C2.94041 0.469727 3.3404 0.599727 3.6804 0.719727C3.9804 0.819727 4.23042 0.909729 4.45042 0.909729C4.57042 0.909729 4.68041 0.879725 4.76041 0.819725C4.98041 0.669725 5.8504 0.379723 6.6804 0.379723M6.69041 0.219727C5.87041 0.219727 4.9504 0.499728 4.6804 0.689728C4.6204 0.729728 4.54042 0.749725 4.45042 0.749725C4.01042 0.749725 3.28041 0.309723 2.57041 0.309723C2.38041 0.309723 2.20039 0.339724 2.02039 0.419724C0.580392 1.02972 0.870406 7.37973 1.44041 9.07973C1.61041 9.58973 3.98041 11.2797 4.91041 11.6897C4.97041 11.7197 5.04039 11.7297 5.11039 11.7297C6.15039 11.7297 8.34041 9.13972 8.76041 7.62972C9.21041 6.01972 8.5604 1.61972 7.9704 0.709724C7.7304 0.349724 7.23041 0.219727 6.69041 0.219727Z" fill="#5E5E5A"/>
<mask id="mask0_230_534" style="mask-type:luminance" maskUnits="userSpaceOnUse" x="0" y="0" width="9" height="12">
<path d="M2.01867 0.420141C3.01867 -0.00985882 4.22867 1.00015 4.67867 0.690145C5.12867 0.380145 7.37868 -0.199858 7.96868 0.710142C8.55868 1.62014 9.21869 6.02014 8.75869 7.63014C8.30869 9.24014 5.82867 12.1001 4.89867 11.6901C3.96867 11.2801 1.59867 9.59014 1.42867 9.08014C0.858673 7.38014 0.56869 1.04014 2.00869 0.420141H2.01867Z" fill="white"/>
</mask>
<g mask="url(#mask0_230_534)">
<path opacity="0.75" d="M11.6495 4.07001C11.6495 4.07001 7.51953 2.24001 7.51953 5.40001C7.51953 8.20001 11.6095 6.70001 11.6095 6.70001L11.6396 4.07001H11.6495Z" fill="#E62C2F" stroke="#E62C2F" stroke-width="0.5" stroke-linecap="round" stroke-linejoin="round"/>
</g>
</svg>
