<svg width="9" height="30" viewBox="0 0 9 30" fill="none" xmlns="http://www.w3.org/2000/svg">
<path d="M5.1203 29.65C4.9303 29.65 4.41029 29.46 3.83029 27.71C2.79029 24.57 1.99032 22.16 1.95032 18.35C1.91032 13.97 1.81031 9.54 1.07031 7.56L8.35031 7.5C8.20031 8.43 8.0503 10.4 8.0603 13.23C8.0603 16.31 8.00031 17.61 7.57031 19.19L7.1503 20.73C6.4303 23.34 5.9203 25.22 5.9003 27.41C5.9003 28.72 5.57029 29.64 5.11029 29.64L5.1203 29.65Z" fill="#F4DE9C"/>
<path d="M8.25876 7.57993C8.10876 8.54993 7.96876 10.4899 7.97876 13.2299C7.97876 16.2999 7.91875 17.5899 7.49875 19.1699C7.34875 19.7099 7.20874 20.2199 7.07874 20.7099C6.35874 23.3299 5.83874 25.2199 5.82874 27.4199C5.81874 28.8399 5.45874 29.5799 5.11874 29.5799C4.82874 29.5799 4.35874 29.0799 3.89874 27.6899L3.86874 27.5999C2.85874 24.5499 2.05875 22.1499 2.02875 18.3499C1.98875 14.0399 1.88875 9.66992 1.18875 7.62992L8.26874 7.56992M8.43875 7.41992L0.96875 7.47993C1.76875 9.47993 1.83875 14.3199 1.87875 18.3499C1.90875 22.2099 2.72876 24.6399 3.75876 27.7299C4.21876 29.1199 4.71874 29.7199 5.11874 29.7199C5.60874 29.7199 5.96876 28.8299 5.97876 27.4199C5.99876 24.8399 6.69874 22.7299 7.64874 19.2099C8.07874 17.6199 8.14876 16.2899 8.13876 13.2299C8.13876 10.0699 8.31876 8.16992 8.44876 7.41992H8.43875Z" fill="#5E5E5A"/>
<path d="M4.35998 12.2203C4.30998 12.2203 4.26001 12.2203 4.23001 12.1903C3.59001 11.8603 2.74999 11.0303 2.08999 10.0803C0.769994 8.21031 0.650004 4.75031 0.850004 3.89031C1.06 3.00031 4.28 0.0703125 5.06 0.0703125C5.82 0.100312 8.16999 1.00031 8.54999 1.86031C8.90999 2.68031 8.75 6.82031 8.03 8.70031C7.4 10.3503 5.17999 12.2103 4.36999 12.2103L4.35998 12.2203Z" fill="white"/>
<path d="M5.0507 0.150002C5.8607 0.180002 8.13071 1.11 8.47071 1.9C8.83071 2.72 8.66072 6.81 7.95072 8.68C7.29072 10.41 5.07069 12.14 4.36069 12.14C4.32069 12.14 4.2907 12.14 4.2707 12.12C3.6407 11.79 2.8107 10.97 2.1507 10.04C0.850703 8.19 0.730723 4.76 0.920723 3.91C1.11072 3.07 4.3207 0.150002 5.0507 0.150002ZM5.0507 0C4.2307 0 0.980699 2.95 0.770699 3.88C0.560699 4.81 0.700698 8.26 2.0207 10.13C2.7207 11.12 3.57071 11.93 4.19071 12.26C4.24071 12.28 4.29072 12.3 4.35072 12.3C5.17072 12.3 7.4307 10.44 8.0807 8.74C8.7807 6.9 8.99072 2.73 8.60072 1.84C8.21072 0.949996 5.85071 0.04 5.06071 0C5.06071 0 5.0607 0 5.0507 0Z" fill="#5E5E5A"/>
<mask id="mask0_230_582" style="mask-type:luminance" maskUnits="userSpaceOnUse" x="0" y="0" width="9" height="13">
<path d="M2.0207 10.1302C0.700698 8.26022 0.560699 4.81022 0.770699 3.88022C0.980699 2.95022 4.27071 -0.0297751 5.06071 0.000224883C5.85071 0.0302249 8.22072 0.950221 8.60072 1.84022C8.99072 2.72022 8.7807 6.90022 8.0807 8.74022C7.3807 10.5802 4.81071 12.5902 4.19071 12.2702C3.57071 11.9402 2.7107 11.1302 2.0207 10.1402V10.1302Z" fill="white"/>
</mask>
<g mask="url(#mask0_230_582)">
<path opacity="0.75" d="M11.3995 4.90009C11.3995 4.90009 7.26953 3.07009 7.26953 6.23009C7.26953 9.03009 11.3595 7.53008 11.3595 7.53008L11.3896 4.90009H11.3995Z" fill="#E62C2F" stroke="#E62C2F" stroke-width="0.2" stroke-linecap="round" stroke-linejoin="round"/>
</g>
</svg>
