<svg width="9" height="25" viewBox="0 0 9 25" fill="none" xmlns="http://www.w3.org/2000/svg">
<path d="M3.76669 24.5397C3.70669 24.5397 3.65669 24.5097 3.60669 24.4597C3.28669 24.1197 3.16671 22.7897 3.28671 20.9897C3.47671 18.2197 3.0267 16.6097 2.5867 15.0597L2.3967 14.3697C1.8667 12.3897 1.43672 10.4297 0.886719 7.71973H7.94672C7.90672 7.86973 7.8467 8.03973 7.7767 8.22973C7.4467 9.22973 6.9367 10.7497 6.8667 13.2797C6.7867 16.1797 6.17672 20.5697 4.72672 23.3697C4.20672 24.3797 3.90669 24.5297 3.76669 24.5297V24.5397Z" fill="#F4DE9C"/>
<path d="M7.84689 7.80941C7.80689 7.93941 7.75688 8.07942 7.70688 8.22942C7.37688 9.23942 6.86688 10.7594 6.79688 13.2994C6.71688 16.1894 6.10689 20.5694 4.65689 23.3594C4.11689 24.3994 3.83688 24.4794 3.76688 24.4794C3.74688 24.4794 3.7069 24.4794 3.6669 24.4194C3.3669 24.0994 3.24688 22.7594 3.36688 21.0094C3.55688 18.2294 3.1069 16.6094 2.6669 15.0494C2.6069 14.8194 2.5369 14.5994 2.4769 14.3694C1.9569 12.4094 1.52688 10.4694 0.986877 7.81941H7.84689M8.04688 7.65942H0.796875C1.34688 10.3494 1.78687 12.3694 2.32687 14.3994C2.78687 16.1494 3.42688 17.8194 3.20688 20.9894C3.07688 22.9094 3.20688 24.6194 3.76688 24.6194C4.01688 24.6194 4.3569 24.2694 4.7869 23.4194C6.1869 20.7194 6.84689 16.3994 6.93689 13.2894C7.02689 10.1894 7.7769 8.58941 8.0369 7.64941L8.04688 7.65942Z" fill="#5E5E5A"/>
<path d="M4.65912 11.0997C4.52912 11.0997 4.40913 11.0797 4.28913 11.0497C3.44913 10.7997 2.49911 9.76968 1.86911 9.08968C1.71911 8.92968 1.58911 8.78969 1.48911 8.67969C0.659108 7.84969 0.199128 5.33969 0.259128 4.03969C0.309128 2.93969 0.629123 2.69969 1.37912 2.11969C1.53912 1.99969 1.72911 1.84969 1.92911 1.68969C2.81911 0.95969 3.84912 0.179688 4.71912 0.179688C4.96912 0.179688 5.19911 0.249684 5.39911 0.379684C6.10911 0.849684 6.75912 1.12968 7.27912 1.33968C8.69912 1.93968 9.28911 2.18968 8.45911 5.19968C8.23911 5.98968 8.12913 6.65969 8.03913 7.24969C7.87913 8.24969 7.75913 8.95969 7.22913 9.47969C6.47913 10.2097 5.55912 11.0997 4.65912 11.0997Z" fill="white"/>
<path d="M4.7201 0.109612V0.259613C4.9601 0.259613 5.17008 0.319608 5.36008 0.449608C6.08008 0.929608 6.7301 1.19961 7.2501 1.41961C8.6301 1.99961 9.20011 2.23961 8.39011 5.18961C8.17011 5.97961 8.0601 6.64961 7.9701 7.24961C7.8101 8.22961 7.70009 8.93961 7.18009 9.44961C6.45009 10.1596 5.55011 11.0396 4.67011 11.0396C4.55011 11.0396 4.43011 11.0196 4.32011 10.9896C3.50011 10.7396 2.55009 9.72961 1.93009 9.04961C1.78009 8.88961 1.65011 8.74961 1.54011 8.63961C0.790106 7.88961 0.260094 5.51961 0.340094 4.05961C0.390094 2.98961 0.70009 2.75961 1.43009 2.19961C1.59009 2.06961 1.78011 1.92961 1.98011 1.76961C2.86011 1.04961 3.8801 0.269608 4.7201 0.269608V0.119614M4.7201 0.109612C3.8201 0.109612 2.77011 0.91961 1.89011 1.63961C0.760112 2.56961 0.2601 2.65961 0.1901 4.03961C0.1201 5.41961 0.6201 7.90961 1.4401 8.73961C2.0001 9.29961 3.2101 10.7996 4.2801 11.1196C4.4101 11.1596 4.54009 11.1796 4.68009 11.1796C5.62009 11.1796 6.55009 10.2696 7.30009 9.52961C8.16009 8.68961 7.96009 7.34961 8.55009 5.21961C9.71009 1.00961 8.07009 2.05961 5.46009 0.319611C5.23009 0.169611 4.99011 0.0996094 4.73011 0.0996094L4.7201 0.109612Z" fill="#5E5E5A"/>
<mask id="mask0_230_594" style="mask-type:luminance" maskUnits="userSpaceOnUse" x="0" y="0" width="9" height="12">
<path d="M1.42838 8.73932C0.608381 7.91932 0.108381 5.42932 0.178381 4.03932C0.248381 2.65932 0.748394 2.56932 1.87839 1.63932C3.00839 0.709318 4.41839 -0.360682 5.43839 0.319318C8.04839 2.05932 9.68839 1.00932 8.52839 5.21932C7.93839 7.34932 8.13839 8.68932 7.27839 9.52932C6.41839 10.3693 5.3284 11.4393 4.2584 11.1193C3.1884 10.7993 1.9784 9.28932 1.4184 8.73932H1.42838Z" fill="white"/>
</mask>
<g mask="url(#mask0_230_594)">
<path opacity="0.75" d="M10.9777 4.89911C10.9777 4.89911 6.84766 3.06911 6.84766 6.22911C6.84766 9.02911 10.9377 7.52911 10.9377 7.52911L10.9677 4.89911H10.9777Z" fill="#E62C2F" stroke="#E62C2F" stroke-width="0.2" stroke-linecap="round" stroke-linejoin="round"/>
</g>
</svg>
