<svg width="11" height="25" viewBox="0 0 11 25" fill="none" xmlns="http://www.w3.org/2000/svg">
<path d="M3.42514 24.5404C3.32514 24.5404 3.24515 24.5004 3.18515 24.4204C2.94515 24.0904 3.06516 23.1004 3.50516 21.7104C3.82516 20.7204 3.36516 19.2704 2.91516 17.8704C2.68516 17.1504 2.47514 16.4804 2.36514 15.8804C1.99514 13.8504 1.58516 11.5804 1.03516 8.94043H8.92514L8.75516 9.26043C8.05516 10.5604 7.33516 11.9004 7.25516 14.7104C7.17516 17.5204 7.06514 21.3704 4.95514 23.5004C4.09514 24.3704 3.64514 24.5504 3.42514 24.5504V24.5404Z" fill="#F4DE9C"/>
<path d="M8.80704 9.02011C8.76704 9.09011 8.73705 9.16012 8.69705 9.23012C7.99705 10.5401 7.27704 11.8901 7.18704 14.7101C7.10704 17.5101 6.99704 21.3401 4.90704 23.4401C4.01704 24.3301 3.59703 24.4701 3.42703 24.4701C3.34703 24.4701 3.28704 24.4401 3.24704 24.3801C3.01704 24.0701 3.14703 23.0801 3.57703 21.7401C3.90703 20.7301 3.43703 19.2701 2.98703 17.8601C2.75703 17.1501 2.54704 16.4701 2.43704 15.8801V15.8401C2.06704 13.8601 1.66704 11.6201 1.12704 9.03011H8.79703M9.05704 8.87012H0.957031C1.50703 11.5501 1.92703 13.8301 2.29703 15.9001C2.61703 17.6801 3.91704 20.2301 3.43704 21.6901C2.86704 23.4401 2.80703 24.6201 3.42703 24.6201C3.75703 24.6201 4.27703 24.2901 5.01703 23.5501C7.08703 21.4701 7.25705 17.8101 7.34705 14.7101C7.43705 11.6101 8.31704 10.2901 9.05704 8.87012Z" fill="#5E5E5A"/>
<path d="M4.94134 12.1507C4.45134 12.1507 4.02133 11.9707 3.65133 11.6107C3.16133 11.1307 2.76135 10.8507 2.42135 10.6107C1.61135 10.0407 1.17135 9.7307 0.64135 7.5207C0.20135 5.6607 0.761336 3.7607 1.97134 2.9907L2.37133 2.73071C3.53133 1.99071 5.11134 0.970703 6.13134 0.970703C6.28134 0.970703 6.41132 0.990703 6.52132 1.0407C7.12132 1.2707 7.41134 1.5207 7.69134 1.7607C7.91134 1.9507 8.12134 2.1207 8.44134 2.2607C9.07134 2.5307 10.2813 3.9407 10.1813 5.9507C10.1113 7.3307 9.28135 8.4207 8.67135 9.2207C8.41135 9.5607 8.19132 9.8507 8.08132 10.1007C7.81132 10.7107 6.30135 12.1507 4.92135 12.1507H4.94134Z" fill="white"/>
<path d="M6.14033 1.05039C6.28033 1.05039 6.40032 1.07039 6.51032 1.11039C7.10032 1.34039 7.38032 1.58039 7.66032 1.82039C7.88032 2.01039 8.10031 2.19039 8.43031 2.33039C9.05031 2.60039 10.2203 3.97039 10.1203 5.95039C10.0503 7.30039 9.23032 8.39039 8.63032 9.18039C8.37032 9.52039 8.14031 9.82039 8.03031 10.0704C7.77031 10.6604 6.29031 12.0704 4.94031 12.0704C4.47031 12.0704 4.05032 11.9004 3.70032 11.5604C3.20032 11.0804 2.7903 10.7904 2.4603 10.5504C1.6703 9.99039 1.2303 9.68039 0.710304 7.50039C0.280304 5.67039 0.820322 3.80039 2.01032 3.05039L2.41032 2.79039C3.56032 2.05039 5.13032 1.04039 6.13032 1.04039M6.14033 0.900391C4.97033 0.900391 3.10031 2.19039 1.94031 2.93039C0.620315 3.76039 0.160299 5.75039 0.580299 7.54039C1.3303 10.7004 1.9403 10.0404 3.6103 11.6704C4.0203 12.0704 4.48032 12.2304 4.95032 12.2304C6.39032 12.2304 7.9103 10.7304 8.18031 10.1404C8.5303 9.35039 10.1803 7.95039 10.2803 5.97039C10.3803 3.99039 9.22031 2.52039 8.50031 2.21039C7.78031 1.90039 7.66032 1.41039 6.57032 0.980392C6.44032 0.930392 6.30031 0.910393 6.15031 0.910393L6.14033 0.900391Z" fill="#5E5E5A"/>
<mask id="mask0_230_522" style="mask-type:luminance" maskUnits="userSpaceOnUse" x="0" y="0" width="11" height="13">
<path d="M0.568585 7.54025C0.148585 5.75025 0.60857 3.76025 1.92857 2.93025C3.24857 2.10025 5.46857 0.550248 6.54857 0.970248C7.62857 1.39025 7.75859 1.89024 8.47859 2.20024C9.19859 2.51024 10.3586 3.98025 10.2586 5.96025C10.1586 7.94025 8.50858 9.34024 8.15858 10.1302C7.80858 10.9202 5.25857 13.2902 3.58857 11.6702C1.91857 10.0502 1.30857 10.7002 0.558575 7.54025H0.568585Z" fill="white"/>
</mask>
<g mask="url(#mask0_230_522)">
<path opacity="0.75" d="M12.9894 5.31024C12.9894 5.31024 8.85938 3.48024 8.85938 6.64025C8.85938 9.44025 12.9494 7.94025 12.9494 7.94025L12.9794 5.31024H12.9894Z" fill="#E62C2F" stroke="#E62C2F" stroke-width="0.2" stroke-linecap="round" stroke-linejoin="round"/>
</g>
</svg>
