<svg width="14" height="25" viewBox="0 0 14 25" fill="none" xmlns="http://www.w3.org/2000/svg">
<path d="M8.06172 24.1993C7.97172 24.1993 7.89172 24.1693 7.84172 24.0993C7.57172 23.7793 7.73172 22.7693 7.89172 21.7893C8.01172 21.0193 8.14172 20.2293 8.06172 19.7493L7.96173 19.0893C7.72173 17.5193 7.32172 14.8993 6.89172 14.3693C6.70172 14.1393 6.51173 14.0193 6.33173 14.0193C5.87173 14.0193 5.54172 14.7793 5.37172 16.2693C5.12172 18.3893 4.56173 19.8193 4.02173 21.1993L3.81172 21.7393C3.30172 23.0693 2.61173 23.9693 2.10173 23.9693C1.98173 23.9693 1.87173 23.9193 1.77173 23.8293C1.20173 23.3193 1.55173 19.8093 1.85173 17.8093C2.05173 16.4993 2.00173 13.8393 1.88173 12.5193L1.86172 12.2493C1.76172 11.1593 1.71172 10.5393 1.26172 9.28926L12.4917 8.98926C12.0517 10.3593 12.3717 13.7793 12.4917 14.8093C12.7217 16.9393 11.8317 18.9093 11.2317 20.2093C10.1417 22.5993 9.09172 23.9693 8.18172 24.1693C8.14172 24.1693 8.10172 24.1793 8.06172 24.1793V24.1993Z" fill="#F4DE9C"/>
<path d="M12.3806 9.07969C11.9806 10.5297 12.2906 13.8197 12.4106 14.8297C12.6406 16.9397 11.7506 18.8997 11.1606 20.1897C10.0806 22.5597 9.05063 23.9097 8.16063 24.1097C8.12063 24.1097 8.09062 24.1197 8.06062 24.1197C7.99062 24.1197 7.94062 24.0997 7.90062 24.0497C7.65062 23.7597 7.82063 22.7197 7.97063 21.7997C8.10063 20.9897 8.22062 20.2297 8.14062 19.7297C8.11063 19.5497 8.08062 19.3197 8.04062 19.0597C7.72062 16.9297 7.36062 14.8097 6.95062 14.3097C6.75062 14.0597 6.54063 13.9397 6.33063 13.9397C5.81063 13.9397 5.48062 14.6997 5.29062 16.2597C5.04062 18.3697 4.49062 19.7897 3.95062 21.1697C3.88062 21.3497 3.81063 21.5297 3.74063 21.7097C3.24063 23.0197 2.58063 23.8897 2.10063 23.8897C2.00063 23.8897 1.91063 23.8497 1.82063 23.7697C1.36063 23.3597 1.53062 20.4697 1.92062 17.8197C2.12062 16.4997 2.07062 13.8397 1.95062 12.5097L1.93062 12.2297C1.84062 11.1997 1.78063 10.5497 1.36063 9.34969L12.3906 9.05968M12.5906 8.92969L1.14062 9.22969C1.66062 10.6397 1.68063 11.2597 1.80063 12.5397C1.92063 13.8197 1.97063 16.4697 1.77063 17.8197C1.57063 19.1597 1.05063 23.3097 1.72063 23.8997C1.84063 24.0097 1.97063 24.0597 2.10063 24.0597C2.70063 24.0597 3.40063 23.0197 3.88063 21.7797C4.46063 20.2697 5.16063 18.7097 5.44063 16.2897C5.63063 14.6597 5.97063 14.1097 6.33063 14.1097C6.50063 14.1097 6.67063 14.2397 6.83063 14.4297C7.32063 15.0297 7.78063 18.4797 7.99063 19.7797C8.19063 21.0297 7.02062 24.2897 8.06062 24.2897C8.10062 24.2897 8.15062 24.2897 8.20062 24.2697C9.48062 23.9897 10.6906 21.6097 11.3006 20.2697C11.9106 18.9297 12.8006 16.9497 12.5606 14.8297C12.3306 12.7097 12.1906 9.97969 12.5906 8.93969V8.92969Z" fill="#5E5E5A"/>
<path d="M6.47161 10.0993C6.14161 10.0993 5.84161 10.0593 5.55161 9.96926C4.94161 9.78926 4.2416 9.76926 3.5616 9.74926C2.3916 9.71926 1.2916 9.68926 0.981603 8.79926C0.431603 7.21926 -0.178397 3.91926 1.4816 2.78926C3.2216 1.59926 4.57161 1.04926 5.71161 1.04926C6.16161 1.04926 6.5216 1.12926 6.8716 1.19926C7.1716 1.25926 7.4616 1.32926 7.7616 1.32926C7.8916 1.32926 8.0116 1.31926 8.1516 1.28926L8.27161 1.26926C8.87161 1.15926 9.78161 0.989258 10.6916 0.989258C11.6616 0.989258 12.4416 1.18926 13.0016 1.57926C14.3716 2.52926 13.9916 6.73926 13.1916 8.08926C12.4616 9.32926 11.5216 9.49926 10.6216 9.49926C10.4616 9.49926 10.2916 9.49926 10.1216 9.47926H9.97161C9.48161 9.47926 8.95161 9.61926 8.39161 9.76926C7.78161 9.93926 7.1416 10.1093 6.4816 10.1093L6.47161 10.0993Z" fill="white"/>
<path d="M10.6809 1.04965C11.6409 1.04965 12.4009 1.23965 12.9509 1.61965C14.2909 2.54965 13.9009 6.69965 13.1209 8.02965C12.4109 9.22965 11.4909 9.39965 10.6109 9.39965C10.4509 9.39965 10.2809 9.39965 10.1109 9.37965C10.0609 9.37965 10.0109 9.37965 9.95089 9.37965C9.45089 9.37965 8.92089 9.52965 8.35089 9.67965C7.74089 9.84965 7.1109 10.0196 6.4609 10.0196C6.1409 10.0196 5.85089 9.97965 5.56089 9.88965C4.94089 9.69965 4.23089 9.67965 3.55089 9.65965C2.36089 9.62965 1.34088 9.59965 1.04088 8.75965C0.490882 7.18965 -0.109117 3.93965 1.51088 2.83965C3.78088 1.28965 4.99089 1.10965 5.70089 1.10965C6.14089 1.10965 6.49089 1.18965 6.84089 1.25965C7.15089 1.32965 7.44089 1.38965 7.75089 1.38965C7.89089 1.38965 8.02088 1.37965 8.15088 1.34965L8.27089 1.32965C8.87089 1.21965 9.77089 1.04965 10.6709 1.04965M10.6809 0.899651C9.70088 0.899651 8.74089 1.08965 8.13089 1.20965C8.00089 1.22965 7.88088 1.23965 7.76088 1.23965C7.12088 1.23965 6.56089 0.959648 5.72089 0.959648C4.79089 0.959648 3.52089 1.29965 1.44089 2.70965C-0.179109 3.81965 0.270892 6.94965 0.910892 8.80965C1.42089 10.2696 3.85089 9.52965 5.53089 10.0296C5.85089 10.1296 6.16089 10.1597 6.47089 10.1597C7.74089 10.1597 8.93089 9.51965 9.95089 9.51965C10.0009 9.51965 10.0509 9.51965 10.1009 9.51965C10.2709 9.52965 10.4409 9.53965 10.6109 9.53965C11.6809 9.53965 12.5609 9.25965 13.2509 8.09965C14.0509 6.75965 14.4709 2.47965 13.0409 1.48965C12.3809 1.02965 11.5309 0.889648 10.6909 0.889648L10.6809 0.899651Z" fill="#5E5E5A"/>
<mask id="mask0_230_570" style="mask-type:luminance" maskUnits="userSpaceOnUse" x="0" y="0" width="14" height="11">
<path d="M0.910578 8.81938C0.260578 6.95938 -0.189424 3.82938 1.44058 2.71938C5.76058 -0.230623 6.59058 1.49937 8.13058 1.20937C9.28058 0.999375 11.6106 0.509376 13.0406 1.49938C14.4706 2.48938 14.0506 6.76938 13.2506 8.10938C12.4506 9.44938 11.4106 9.61938 10.1106 9.53938C8.81057 9.45938 7.22057 10.5494 5.54057 10.0394C3.86057 9.53938 1.43057 10.2794 0.920572 8.81938H0.910578Z" fill="white"/>
</mask>
<g mask="url(#mask0_230_570)">
<path opacity="0.75" d="M16.2808 4.15936C16.2808 4.15936 12.4208 2.62936 12.3908 5.78936C12.3608 8.58936 16.3008 7.43936 16.3008 7.43936V4.15936H16.2808Z" fill="#E62C2F" stroke="#E62C2F" stroke-width="0.2" stroke-linecap="round" stroke-linejoin="round"/>
</g>
</svg>
