<svg width="12" height="24" viewBox="0 0 12 24" fill="none" xmlns="http://www.w3.org/2000/svg">
<path d="M7.23703 23.5098C7.17703 23.5098 7.11703 23.4798 7.06703 23.4098C6.49703 22.6598 7.09703 18.4098 7.29703 17.6998C7.46703 17.0898 7.28703 14.5398 6.62703 13.6698C6.47703 13.4698 6.29702 13.3698 6.11702 13.3698C5.44702 13.3698 4.18703 16.2798 4.18703 18.8598C4.18703 21.1898 3.66703 23.2398 3.07703 23.2398C2.99703 23.2398 2.91703 23.1998 2.82703 23.1298C2.14703 22.5198 1.37703 19.0598 0.937027 16.2898C0.777027 15.3198 1.03702 14.3498 1.25702 13.4898C1.39702 12.9398 1.53702 12.4198 1.53702 11.9898C1.53702 10.9098 0.817031 8.58977 0.457031 7.75977H11.517C11.107 9.17977 10.437 12.0598 10.307 13.0098C10.237 13.5398 10.237 14.5098 10.237 15.6198C10.237 16.5398 10.237 17.5698 10.187 18.4698C10.097 20.4398 8.39703 23.1498 7.31703 23.4998H7.23703V23.5098Z" fill="#F4DE9C"/>
<path d="M11.4081 7.82993C10.9981 9.27993 10.3481 12.0699 10.2281 12.9899C10.1581 13.5299 10.1581 14.4899 10.1581 15.6099C10.1581 16.5199 10.1581 17.5599 10.1081 18.4599C10.0181 20.3699 8.31812 23.0899 7.28812 23.4199C7.26812 23.4199 7.24813 23.4199 7.23813 23.4199C7.20813 23.4199 7.17813 23.4199 7.12813 23.3499C6.57813 22.6299 7.17812 18.3799 7.36812 17.6999C7.53812 17.0799 7.34812 14.4899 6.67812 13.5999C6.50812 13.3799 6.31812 13.2699 6.10812 13.2699C5.33812 13.2699 4.10812 16.3099 4.10812 18.8399C4.10812 21.3699 3.54812 23.1399 3.07812 23.1399C3.01813 23.1399 2.95813 23.1099 2.87813 23.0399C2.20813 22.4399 1.45812 19.0099 1.00812 16.2399C0.858118 15.2899 1.10813 14.3199 1.32812 13.4699C1.46813 12.9099 1.60812 12.3899 1.60812 11.9499C1.60812 10.9099 0.93813 8.70993 0.56813 7.79993H11.4181M11.6081 7.67992H0.328125C0.678125 8.40992 1.45812 10.8999 1.44812 11.9799C1.44812 13.0599 0.588129 14.6899 0.848129 16.2999C1.10813 17.9099 1.92813 22.4399 2.76813 23.1799C2.86813 23.2699 2.96813 23.3099 3.06813 23.3099C3.75813 23.3099 4.24812 21.0899 4.24812 18.8599C4.24812 16.3099 5.50813 13.4399 6.09813 13.4399C7.09813 13.4399 7.40813 16.9799 7.20813 17.6799C7.01813 18.3599 6.24812 23.5799 7.21812 23.5799C7.24812 23.5799 7.28813 23.5799 7.31813 23.5599C8.43813 23.1999 10.1481 20.4199 10.2481 18.4599C10.3381 16.4999 10.2381 13.9799 10.3681 12.9999C10.4981 12.0199 11.1981 9.02992 11.5981 7.66992L11.6081 7.67992Z" fill="#5E5E5A"/>
<path d="M6.18833 10.1002C5.02833 10.1002 4.31833 9.49024 3.73833 9.00024C3.32833 8.65024 2.96833 8.34023 2.55833 8.34023C2.04833 8.38023 1.73833 8.62023 1.48833 8.81023C1.32833 8.93023 1.19834 9.03024 1.09834 9.03024C1.03834 9.03024 0.938332 9.00024 0.798332 8.72024C-0.151668 6.74024 -0.391668 3.30024 1.68833 2.25024C2.35833 1.91024 3.03833 1.75024 3.82833 1.75024C4.20833 1.75024 4.56832 1.79024 4.89832 1.82024C5.18832 1.85024 5.45833 1.88023 5.71833 1.88023C6.11833 1.88023 6.41833 1.81024 6.66833 1.65024C7.17833 1.33024 8.14833 0.990234 9.08833 0.990234C10.0283 0.990234 11.1383 1.30024 11.4983 2.78024C12.1283 5.36024 11.6583 7.58024 11.3183 8.40024C11.1883 8.72024 10.9183 8.87024 10.4883 8.87024C10.1883 8.87024 9.83832 8.80024 9.50832 8.73024L9.33833 8.69024C9.33833 8.69024 9.24833 8.68024 9.19833 8.68024C8.75833 8.68024 8.18833 9.05024 7.63833 9.41024C7.12833 9.75024 6.59833 10.1002 6.21833 10.1002H6.18833Z" fill="white"/>
<path d="M9.08938 1.05039C9.95938 1.05039 11.0794 1.35039 11.4294 2.78039C12.0494 5.34039 11.5894 7.55039 11.2594 8.35039C11.1394 8.65039 10.8994 8.78039 10.4994 8.78039C10.1994 8.78039 9.85938 8.71039 9.52938 8.64039L9.35938 8.60039C9.35938 8.60039 9.25939 8.59039 9.20939 8.59039C8.74939 8.59039 8.19938 8.95039 7.60938 9.34039C7.10938 9.67039 6.57938 10.0104 6.19938 10.0204C5.06938 10.0204 4.39939 9.44039 3.79939 8.94039C3.37939 8.58039 3.00939 8.27039 2.56939 8.27039C2.53939 8.27039 2.50939 8.27039 2.48939 8.27039C2.02939 8.31039 1.69939 8.56039 1.45939 8.75039C1.31939 8.86039 1.18938 8.95039 1.10938 8.95039C1.01938 8.95039 0.929387 8.78039 0.879387 8.68039C0.0993872 7.07039 -0.470622 3.43039 1.72938 2.31039C2.38938 1.97039 3.05938 1.82039 3.82938 1.82039C4.20938 1.82039 4.55938 1.86039 4.88938 1.89039C5.17938 1.92039 5.45938 1.95039 5.71938 1.95039C6.12938 1.95039 6.44939 1.87039 6.70939 1.71039C7.20939 1.40039 8.16939 1.06039 9.09939 1.06039M9.08938 0.900391C8.11938 0.900391 7.12938 1.25039 6.61938 1.57039C6.34938 1.74039 6.04939 1.79039 5.70939 1.79039C5.16939 1.79039 4.53939 1.66039 3.81939 1.66039C3.16939 1.66039 2.43938 1.77039 1.64938 2.17039C-0.580624 3.30039 -0.160622 6.91039 0.729378 8.74039C0.859378 9.00039 0.969379 9.10039 1.08938 9.10039C1.39938 9.10039 1.76938 8.48039 2.47938 8.42039C2.49938 8.42039 2.52939 8.42039 2.54939 8.42039C3.49939 8.42039 4.18938 10.1804 6.17938 10.1804C6.18938 10.1804 6.19939 10.1804 6.20939 10.1804C7.00939 10.1804 8.35937 8.76039 9.17937 8.76039C9.21937 8.76039 9.25939 8.76039 9.29939 8.77039C9.68939 8.85039 10.0994 8.95039 10.4694 8.95039C10.8694 8.95039 11.2094 8.83039 11.3694 8.43039C11.6794 7.67039 12.1994 5.44039 11.5494 2.76039C11.2094 1.35039 10.1494 0.910393 9.06939 0.910393L9.08938 0.900391Z" fill="#5E5E5A"/>
<mask id="mask0_230_558" style="mask-type:luminance" maskUnits="userSpaceOnUse" x="0" y="0" width="12" height="11">
<path d="M0.77888 8.76014C-0.10112 6.93014 -0.581125 3.31014 1.64887 2.17014C3.87887 1.03014 5.54888 2.24014 6.61888 1.57014C7.68888 0.900137 10.9089 0.0701373 11.5689 2.75014C12.2189 5.43014 11.6989 7.65014 11.3889 8.42014C11.0789 9.18014 10.1289 8.93014 9.31889 8.76014C8.50889 8.60014 7.05888 10.1601 6.21888 10.1701C4.14888 10.1901 3.46888 8.33014 2.47888 8.42014C1.48888 8.51014 1.21889 9.69014 0.768885 8.76014H0.77888Z" fill="white"/>
</mask>
<g mask="url(#mask0_230_558)">
<path opacity="0.75" d="M14.6886 4.27997C14.6886 4.27997 10.5586 2.44997 10.5586 5.60997C10.5586 8.40997 14.6486 6.90997 14.6486 6.90997L14.6786 4.27997H14.6886Z" fill="#E62C2F" stroke="#E62C2F" stroke-width="0.2" stroke-linecap="round" stroke-linejoin="round"/>
</g>
</svg>
