<svg width="12" height="22" viewBox="0 0 12 22" fill="none" xmlns="http://www.w3.org/2000/svg">
<path d="M2.62985 21.1207C2.24985 21.1207 1.76985 20.5807 1.51985 19.8707C1.44985 19.6807 1.37984 19.4907 1.30984 19.3107C0.919845 18.2907 0.549844 17.3307 0.449844 14.6907C0.369844 12.6907 0.599854 12.1907 0.819854 11.7107C0.939854 11.4407 1.05984 11.1807 1.11984 10.6707C1.16984 10.2107 1.30985 9.7507 1.43985 9.3207C1.68985 8.4907 1.92985 7.7107 1.54985 6.9707H10.6599C10.5499 7.3107 10.4399 7.6207 10.3199 7.9307C10.1399 8.4107 9.95984 8.9007 9.80984 9.5207L9.76985 9.6707C9.52985 10.6707 9.27985 11.7007 9.49985 14.1207C9.70985 16.4607 8.51984 17.7407 6.86984 19.5007L6.51985 19.8707C5.65985 20.7907 5.21985 20.9907 4.99985 20.9907C4.90985 20.9907 4.83984 20.9607 4.78984 20.9007C4.63984 20.7207 4.62985 20.3007 4.73985 19.7307C4.84985 19.1707 5.12984 18.4207 5.42984 17.6207C5.78984 16.6407 6.16984 15.6207 6.25984 14.8907C6.37984 13.9607 6.07984 13.4207 5.75984 12.8407C5.61984 12.5907 5.47985 12.3207 5.35985 12.0207C5.21985 11.6307 5.01985 11.4407 4.77985 11.4407C4.39985 11.4407 3.94985 11.9407 3.45985 12.9407C3.01985 13.8107 3.12984 15.5207 3.22984 17.1707C3.29984 18.3207 3.36985 19.4107 3.24985 20.1507C3.14985 20.7907 2.91984 21.1407 2.61984 21.1407L2.62985 21.1207Z" fill="#F4DE9C"/>
<path d="M10.5606 7.03086C10.4606 7.34086 10.3606 7.62086 10.2506 7.90086C10.0706 8.38086 9.89057 8.88086 9.74057 9.50086L9.70057 9.65086C9.46057 10.6509 9.20056 11.6909 9.43056 14.1209C9.64056 16.4309 8.46058 17.6909 6.82058 19.4509L6.47057 19.8209C5.58057 20.7709 5.17057 20.9209 5.00057 20.9209C4.93057 20.9209 4.89057 20.9009 4.85057 20.8509C4.72057 20.6909 4.71058 20.2809 4.82058 19.7409C4.93058 19.1909 5.21057 18.4309 5.50057 17.6409C5.86057 16.6509 6.24057 15.6309 6.34057 14.9009C6.46057 13.9509 6.16057 13.3909 5.83057 12.8009C5.69057 12.5509 5.55057 12.2909 5.44057 11.9909C5.28057 11.5709 5.07056 11.3609 4.79056 11.3609C4.37056 11.3609 3.92056 11.8609 3.40056 12.9009C2.95056 13.7909 3.06057 15.5009 3.16057 17.1609C3.23057 18.3109 3.30056 19.4009 3.18056 20.1209C3.08056 20.7209 2.89057 21.0509 2.63057 21.0509C2.29057 21.0509 1.83056 20.5209 1.59056 19.8509C1.52056 19.6609 1.45057 19.4709 1.38057 19.2909C0.990574 18.2809 0.620573 17.3309 0.520573 14.6909C0.450573 12.7009 0.670574 12.2109 0.880574 11.7409C1.00057 11.4709 1.13057 11.2009 1.19057 10.6809C1.24057 10.2209 1.38056 9.77086 1.51056 9.34086C1.76056 8.54086 1.99057 7.77086 1.67057 7.04086H10.5606M10.7606 6.88086H1.42057C2.10057 8.00086 1.20056 9.26086 1.04056 10.6509C0.880562 12.0409 0.250564 11.5409 0.370564 14.6909C0.490564 17.8309 1.00057 18.6409 1.45057 19.9009C1.71057 20.6309 2.21057 21.2009 2.63057 21.2009C2.94057 21.2009 3.21057 20.9009 3.33057 20.1509C3.62057 18.3509 2.80057 14.4209 3.53057 12.9709C3.99057 12.0409 4.43056 11.5109 4.79056 11.5109C4.99056 11.5109 5.16057 11.6809 5.30057 12.0409C5.67057 13.0409 6.36057 13.5709 6.19057 14.8809C6.02057 16.1909 4.93057 18.4609 4.67057 19.7209C4.52057 20.4509 4.57057 21.0709 5.00057 21.0709C5.31057 21.0709 5.81057 20.7509 6.58057 19.9309C8.42057 17.9509 9.81057 16.6509 9.58057 14.1209C9.35057 11.5909 9.63057 10.5909 9.89057 9.54086C10.1406 8.49086 10.4906 7.82086 10.7706 6.89086L10.7606 6.88086Z" fill="#5E5E5A"/>
<path d="M3.31855 8.7507C2.91855 8.7507 2.53854 8.6207 2.15854 8.3507C1.08854 7.5907 0.218546 5.69071 0.598546 3.5507C0.848546 2.1707 1.36854 1.9707 1.90854 1.9707H2.27854C2.34854 1.9707 2.41854 1.9707 2.47854 1.9707C2.64854 1.9407 2.85855 1.8307 3.09855 1.7007C3.54855 1.4607 4.09854 1.1707 4.79854 1.1707C4.95854 1.1707 5.12854 1.1907 5.29854 1.2207C5.78854 1.3207 6.17854 1.3607 6.54854 1.3607C7.11854 1.3607 7.57853 1.2507 8.28853 1.0907L8.53853 1.0307C8.70853 0.990701 8.86854 0.970703 9.02854 0.970703C10.0085 0.970703 11.0285 1.7107 11.0685 3.3507C11.1185 5.1007 11.0885 6.73071 10.2585 7.41071C10.0585 7.58071 9.71854 7.66071 9.24854 7.66071C8.75854 7.66071 8.20854 7.5807 7.66854 7.5007C7.20854 7.4307 6.77854 7.3707 6.44854 7.3707C6.31854 7.3707 6.20854 7.3807 6.11854 7.4007C5.86854 7.4607 5.57854 7.6607 5.24854 7.9007C4.71854 8.2807 4.04855 8.7507 3.31855 8.7507Z" fill="white"/>
<path d="M9.02909 1.05039C9.97909 1.05039 10.9491 1.76039 10.9891 3.36039C11.0391 5.09039 11.0091 6.70039 10.2091 7.36039C10.0191 7.52039 9.6991 7.59039 9.2391 7.59039C8.7791 7.59039 8.20909 7.51039 7.66909 7.43039C7.20909 7.36039 6.76909 7.30039 6.43909 7.30039C6.29909 7.30039 6.1891 7.31039 6.0991 7.33039C5.8391 7.39039 5.5491 7.60039 5.2091 7.84039C4.6891 8.21039 4.0291 8.68039 3.3191 8.68039C2.9391 8.68039 2.5691 8.55039 2.2091 8.29039C1.1591 7.54039 0.299083 5.67039 0.679083 3.56039C0.929083 2.16039 1.44909 2.05039 1.90909 2.05039C1.97909 2.05039 2.0391 2.05039 2.0991 2.05039C2.1591 2.05039 2.21909 2.05039 2.27909 2.05039C2.35909 2.05039 2.4291 2.05039 2.4891 2.03039C2.6791 2.00039 2.8891 1.88039 3.1291 1.76039C3.5691 1.53039 4.11909 1.24039 4.79909 1.24039C4.95909 1.24039 5.11909 1.26039 5.27909 1.29039C5.76909 1.39039 6.16908 1.44039 6.53908 1.44039C7.11908 1.44039 7.60908 1.33039 8.28908 1.17039L8.53908 1.11039C8.69908 1.07039 8.85909 1.06039 9.01909 1.06039M9.02909 0.900391C8.85909 0.900391 8.68909 0.920388 8.51909 0.960388C7.68909 1.15039 7.16909 1.28039 6.54909 1.28039C6.19909 1.28039 5.8091 1.24039 5.3191 1.14039C5.1391 1.10039 4.96909 1.09039 4.80909 1.09039C3.70909 1.09039 2.94909 1.80039 2.47909 1.89039C2.41909 1.90039 2.35908 1.90039 2.28908 1.90039C2.17908 1.90039 2.04909 1.90039 1.91909 1.90039C1.39909 1.90039 0.799083 2.05039 0.539083 3.54039C0.169083 5.62039 0.989095 7.59039 2.1291 8.42039C2.5491 8.72039 2.94909 8.84039 3.32909 8.84039C4.53909 8.84039 5.50908 7.64039 6.14908 7.49039C6.23908 7.47039 6.3391 7.46039 6.4591 7.46039C7.1491 7.46039 8.32908 7.75039 9.25908 7.75039C9.69908 7.75039 10.0791 7.68039 10.3191 7.48039C11.1491 6.79039 11.1991 5.23039 11.1491 3.36039C11.1091 1.74039 10.1391 0.900391 9.03908 0.900391H9.02909Z" fill="#5E5E5A"/>
<mask id="mask0_230_546" style="mask-type:luminance" maskUnits="userSpaceOnUse" x="0" y="0" width="12" height="9">
<path d="M2.12196 8.41086C0.971958 7.59086 0.161962 5.62085 0.531962 3.53085C0.901962 1.45085 1.93196 1.99085 2.47196 1.89085C3.01196 1.79085 3.94196 0.870854 5.31196 1.14085C6.69196 1.42085 7.21196 1.25085 8.51196 0.960854C9.81196 0.660854 11.092 1.50086 11.132 3.36086C11.182 5.22086 11.132 6.79086 10.302 7.48086C9.47197 8.17086 6.96197 7.28086 6.13197 7.48086C5.30197 7.68086 3.88196 9.68086 2.11196 8.41086H2.12196Z" fill="white"/>
</mask>
<g mask="url(#mask0_230_546)">
<path opacity="0.75" d="M12.9405 3.51129C12.9405 3.51129 9.73047 1.96129 9.73047 4.64129C9.73047 7.01129 12.9205 5.74129 12.9205 5.74129L12.9505 3.51129H12.9405Z" fill="#E62C2F" stroke="#E62C2F" stroke-width="0.2" stroke-linecap="round" stroke-linejoin="round"/>
</g>
</svg>
