<svg width="8" height="20" viewBox="0 0 8 20" fill="none" xmlns="http://www.w3.org/2000/svg">
<path d="M1.03125 13.9504C1.97125 10.5904 2.71125 6.75035 2.69125 1.64035C2.69125 1.17035 2.85125 0.700351 3.19125 0.360351C3.60125 -0.0396491 3.94125 0.15035 4.19125 1.07035C4.81125 6.33035 5.44125 9.57035 6.08125 13.5503V13.9504H1.03125Z" fill="#F4DE9C" stroke="#5E5E5A" stroke-width="0.15" stroke-linecap="round" stroke-linejoin="round"/>
<path d="M6.09156 13.5603C6.26156 13.7803 6.40157 14.0203 6.50157 14.2803C7.48157 16.6403 8.02157 18.7203 6.10157 19.2903C4.26157 19.3503 2.42157 19.4103 1.51157 19.0703C0.331569 18.2003 0.141568 16.8203 0.541568 15.1503C0.641568 14.7303 0.811568 14.3203 1.04157 13.9603C1.50157 13.2303 2.21157 12.6803 3.07157 12.4803C3.45157 12.3903 3.83156 12.3703 4.20156 12.4203C4.96156 12.5303 5.63156 12.9603 6.09156 13.5603Z" fill="white" stroke="#5E5E5A" stroke-width="0.15" stroke-linecap="round" stroke-linejoin="round"/>
<mask id="mask0_230_194" style="mask-type:luminance" maskUnits="userSpaceOnUse" x="0" y="12" width="8" height="8">
<path d="M6.09156 13.5603C6.26156 13.7803 6.40157 14.0203 6.50157 14.2803C7.48157 16.6403 8.02157 18.7203 6.10157 19.2903C4.26157 19.3503 2.42157 19.4103 1.51157 19.0703C0.331569 18.2003 0.141568 16.8203 0.541568 15.1503C0.641568 14.7303 0.811568 14.3203 1.04157 13.9603C1.50157 13.2303 2.21157 12.6803 3.07157 12.4803C3.45157 12.3903 3.83156 12.3703 4.20156 12.4203C4.96156 12.5303 5.63156 12.9603 6.09156 13.5603Z" fill="white"/>
</mask>
<g mask="url(#mask0_230_194)">
<path opacity="0.75" d="M8.15203 16.8902C8.15203 16.8902 6.08203 17.9602 6.08203 16.1102C6.08203 14.2602 8.13203 15.3502 8.13203 15.3502L8.15203 16.8902Z" fill="#E62C2F" stroke="#E62C2F" stroke-width="0.2" stroke-linecap="round" stroke-linejoin="round"/>
</g>
</svg>
