<svg width="11" height="20" viewBox="0 0 11 20" fill="none" xmlns="http://www.w3.org/2000/svg">
<path d="M3.23094 8.61994C3.80094 6.72994 3.90094 4.31994 3.76094 1.65994C3.75094 1.37994 3.80094 1.08994 3.97094 0.859942C4.18094 0.549942 4.41094 0.549941 4.64094 0.879941C4.79094 1.09994 4.87094 1.36994 4.89094 1.63994C5.11094 4.12994 5.73094 6.59994 6.78094 9.03994L6.76094 10.9999L3.21094 10.9699L3.23094 8.62994V8.61994Z" fill="#F4DE9C" stroke="#5E5E5A" stroke-width="0.15" stroke-linecap="round" stroke-linejoin="round"/>
<path d="M2.43922 13.9797C0.839217 10.5597 0.379219 6.64971 0.199219 2.21971C0.199219 2.03971 0.19922 1.85971 0.23922 1.68971C0.38922 0.929712 1.09922 0.749711 1.43922 1.57971C1.47922 1.67971 1.50922 1.79971 1.52922 1.90971C1.87922 4.44971 2.40922 6.76971 3.26922 8.63971C3.32922 8.76971 3.36922 8.90971 3.45922 9.02971C3.87922 9.59971 4.52922 9.77971 5.18922 9.76971C5.81922 9.75971 6.39922 9.46971 6.82922 9.02971C7.05922 8.78971 7.24922 8.50971 7.37922 8.18971C8.08922 6.48971 8.22922 4.51971 8.53922 2.44971C8.61922 1.92971 8.74922 1.39971 9.09922 1.00971C9.74922 0.289712 10.2792 0.649712 10.3392 1.92971C10.5592 6.62971 9.30922 11.1697 7.70922 13.9997H2.44922L2.43922 13.9797Z" fill="#F4DE9C" stroke="#5E5E5A" stroke-width="0.15" stroke-linecap="round" stroke-linejoin="round"/>
<path d="M7.70781 13.4996C7.91781 13.7196 8.12781 13.9796 8.32781 14.2596C8.98781 15.1196 9.39781 16.2196 9.36781 17.7296C9.31781 18.5996 8.96781 19.0096 8.38781 19.0996C7.98781 19.1596 7.56781 19.0396 7.24781 18.7896C6.91781 18.5296 6.56781 18.6196 6.20781 18.8796C5.84781 19.1396 5.43781 19.3096 4.99781 19.3096C4.17781 19.3096 3.38781 19.2096 2.59781 19.0196C1.96781 18.9496 1.57781 18.5196 1.55781 17.5896C1.37781 16.5596 1.52781 15.5396 2.01781 14.5196C2.10781 14.3396 2.22781 14.1696 2.36781 14.0196C2.38781 13.9996 2.39781 13.9796 2.41781 13.9696C4.23781 12.0096 6.00781 11.6896 7.68781 13.4896L7.70781 13.4996Z" fill="white" stroke="#5E5E5A" stroke-width="0.15" stroke-linecap="round" stroke-linejoin="round"/>
<mask id="mask0_230_169" style="mask-type:luminance" maskUnits="userSpaceOnUse" x="1" y="12" width="9" height="8">
<path d="M7.70781 13.4996C7.91781 13.7196 8.12781 13.9796 8.32781 14.2596C8.98781 15.1196 9.39781 16.2196 9.36781 17.7296C9.31781 18.5996 8.96781 19.0096 8.38781 19.0996C7.98781 19.1596 7.56781 19.0396 7.24781 18.7896C6.91781 18.5296 6.56781 18.6196 6.20781 18.8796C5.84781 19.1396 5.43781 19.3096 4.99781 19.3096C4.17781 19.3096 3.38781 19.2096 2.59781 19.0196C1.96781 18.9496 1.57781 18.5196 1.55781 17.5896C1.37781 16.5596 1.52781 15.5396 2.01781 14.5196C2.10781 14.3396 2.22781 14.1696 2.36781 14.0196C2.38781 13.9996 2.39781 13.9796 2.41781 13.9696C4.23781 12.0096 6.00781 11.6896 7.68781 13.4896L7.70781 13.4996Z" fill="white"/>
</mask>
<g mask="url(#mask0_230_169)">
<path opacity="0.75" d="M10.7583 17.1591C10.7583 17.1591 7.98828 18.4991 7.98828 16.1891C7.98828 14.1491 10.7283 15.2391 10.7283 15.2391L10.7483 17.1591H10.7583Z" fill="#E62C2F" stroke="#E62C2F" stroke-width="0.2" stroke-linecap="round" stroke-linejoin="round"/>
</g>
</svg>
