<svg width="14" height="20" viewBox="0 0 14 20" fill="none" xmlns="http://www.w3.org/2000/svg">
<path d="M5.65625 8.26965C6.29625 6.72965 6.36625 4.28965 6.23625 1.53965C6.21625 1.17965 6.30625 0.799653 6.53625 0.519653C6.86625 0.109653 7.21625 0.219653 7.58625 0.679653C7.71625 0.839653 7.77625 1.03965 7.78625 1.23965C7.88625 3.47965 8.66625 6.00965 9.70625 8.65965V10.6297H5.65625V8.26965Z" fill="#F4DE9C" stroke="#5E5E5A" stroke-width="0.15" stroke-linecap="round" stroke-linejoin="round"/>
<path d="M5.05812 13.4801C3.19812 10.3301 1.71812 6.3501 0.588122 2.2401C0.468122 1.7801 0.548123 1.27011 0.868123 0.920105C1.18812 0.560105 1.52812 0.610104 1.88812 1.2201C2.77812 4.0001 3.97812 6.42011 5.65812 8.26011C7.10812 9.53011 8.50812 9.7001 9.83812 8.7401C9.87812 8.7101 9.90812 8.6801 9.94812 8.6501C11.1981 6.9901 11.3481 4.5001 11.1381 1.7301C11.1081 1.3001 11.1981 0.860105 11.4681 0.520105C11.7581 0.150105 12.0581 0.170105 12.3681 0.580105C12.5381 0.820105 12.6481 1.1001 12.6981 1.3901C13.5281 5.9201 13.4481 10.0201 12.0481 13.4601H5.05812V13.4801Z" fill="#F4DE9C" stroke="#5E5E5A" stroke-width="0.15" stroke-linecap="round" stroke-linejoin="round"/>
<path d="M12.0496 13.4799C12.1796 13.6299 12.3096 13.7799 12.4396 13.9499C13.5496 15.5699 14.2096 17.1099 12.8396 18.3299C11.8896 19.0599 10.4996 19.2599 8.95961 19.2799C8.68961 19.2799 8.45961 19.1299 8.31961 18.9099C8.03961 18.4799 7.50961 18.6799 6.87961 19.1099C6.68961 19.2399 6.46961 19.3199 6.23961 19.3299C5.69961 19.3599 5.23961 19.2499 4.81961 19.0199C3.88961 18.5199 3.38961 17.4799 3.45961 16.4299C3.47961 16.0199 3.54961 15.6199 3.64961 15.2299C3.83961 14.4299 4.30961 13.7299 4.96961 13.2399C7.65961 11.2799 10.0396 11.2399 12.0496 13.4899V13.4799Z" fill="white" stroke="#5E5E5A" stroke-width="0.15" stroke-linecap="round" stroke-linejoin="round"/>
<mask id="mask0_230_160" style="mask-type:luminance" maskUnits="userSpaceOnUse" x="3" y="11" width="11" height="9">
<path d="M12.0496 13.4799C12.1796 13.6299 12.3096 13.7799 12.4396 13.9499C13.5496 15.5699 14.2096 17.1099 12.8396 18.3299C11.8896 19.0599 10.4996 19.2599 8.95961 19.2799C8.68961 19.2799 8.45961 19.1299 8.31961 18.9099C8.03961 18.4799 7.50961 18.6799 6.87961 19.1099C6.68961 19.2399 6.46961 19.3199 6.23961 19.3299C5.69961 19.3599 5.23961 19.2499 4.81961 19.0199C3.88961 18.5199 3.38961 17.4799 3.45961 16.4299C3.47961 16.0199 3.54961 15.6199 3.64961 15.2299C3.83961 14.4299 4.30961 13.7299 4.96961 13.2399C7.65961 11.2799 10.0396 11.2399 12.0496 13.4899V13.4799Z" fill="white"/>
</mask>
<g mask="url(#mask0_230_160)">
<path opacity="0.75" d="M14.8998 16.3898C14.8998 16.3898 11.8398 17.8698 11.8398 15.3198C11.8398 13.0598 14.8698 14.2698 14.8698 14.2698L14.8998 16.3898Z" fill="#E62C2F" stroke="#E62C2F" stroke-width="0.2" stroke-linecap="round" stroke-linejoin="round"/>
</g>
</svg>
