<svg width="14" height="20" viewBox="0 0 14 20" fill="none" xmlns="http://www.w3.org/2000/svg">
<path d="M8.28827 8.25989C7.64827 6.71989 7.57828 4.27989 7.70828 1.52989C7.72828 1.16989 7.63828 0.789887 7.40828 0.509887C7.07828 0.0998874 6.72828 0.209887 6.35828 0.669887C6.22828 0.829887 6.16828 1.02989 6.15828 1.22989C6.05828 3.46989 5.27828 5.99989 4.23828 8.64989V10.6199H8.28827V8.25989Z" fill="#F4DE9C" stroke="#5E5E5A" stroke-width="0.15" stroke-linecap="round" stroke-linejoin="round"/>
<path d="M8.87701 13.4703C10.737 10.3203 12.217 6.34034 13.347 2.23034C13.467 1.77034 13.387 1.26034 13.067 0.910339C12.747 0.550339 12.407 0.600339 12.047 1.21034C11.157 3.99034 9.957 6.41034 8.277 8.25034C6.827 9.52034 5.42701 9.69034 4.09701 8.73034C4.05701 8.70034 4.02701 8.67034 3.98701 8.64034C2.73701 6.98034 2.58701 4.49034 2.79701 1.72034C2.82701 1.29034 2.73701 0.85034 2.46701 0.51034C2.17701 0.14034 1.87701 0.160339 1.56701 0.570339C1.39701 0.810339 1.28701 1.09034 1.23701 1.38034C0.407011 5.91034 0.487005 10.0103 1.887 13.4503H8.87701V13.4703Z" fill="#F4DE9C" stroke="#5E5E5A" stroke-width="0.15" stroke-linecap="round" stroke-linejoin="round"/>
<path d="M7.70969 19.2404C7.48969 19.2404 7.28968 19.1604 7.10968 19.0404C6.65968 18.7304 6.32968 18.5904 6.05968 18.5904C5.84968 18.5904 5.67968 18.6803 5.55968 18.8703C5.41968 19.0803 5.20968 19.2104 4.97968 19.2104C3.12968 19.1804 1.94968 18.9004 1.13968 18.2704C-0.24032 17.0404 0.519684 15.4904 1.54968 13.9904C1.67968 13.8304 1.79967 13.6803 1.92967 13.5303C2.91967 12.4203 4.03969 11.8604 5.23969 11.8604C6.35969 11.8604 7.58969 12.3404 8.90969 13.3004C9.54969 13.7704 10.0097 14.4604 10.1997 15.2404C10.2997 15.6504 10.3597 16.0504 10.3797 16.4304C10.4497 17.4904 9.93968 18.4804 9.05968 18.9504C8.68968 19.1504 8.27968 19.2504 7.83968 19.2504H7.68968L7.70969 19.2404Z" fill="white"/>
<path d="M5.25884 11.9205C6.35884 11.9205 7.57885 12.4005 8.87885 13.3505C8.87885 13.3505 8.87884 13.3505 8.88884 13.3505C9.50884 13.8105 9.95884 14.4805 10.1388 15.2405C10.2388 15.6405 10.2988 16.0405 10.3188 16.4205C10.3888 17.4505 9.88884 18.4105 9.03884 18.8605C8.66884 19.0605 8.28885 19.1505 7.84885 19.1505C7.79885 19.1505 7.74884 19.1505 7.69884 19.1505C7.49884 19.1505 7.29884 19.0705 7.13884 18.9605C6.67884 18.6405 6.32884 18.4905 6.04884 18.4905C5.81884 18.4905 5.61885 18.6005 5.48885 18.8005C5.36885 18.9905 5.17884 19.1005 4.96884 19.1005C3.13884 19.0705 1.96884 18.7905 1.18884 18.1905C0.108844 17.2305 0.228848 16.0205 1.59885 14.0205C1.72885 13.8605 1.84884 13.7005 1.97884 13.5605C2.95884 12.4705 4.04885 11.9105 5.23885 11.9105M5.25884 11.7705C4.03884 11.7705 2.91884 12.3205 1.88884 13.4705C1.75884 13.6205 1.62884 13.7705 1.49884 13.9405C0.388842 15.5605 -0.271152 17.1005 1.09885 18.3205C2.04885 19.0505 3.43884 19.2505 4.97884 19.2705C5.23884 19.2705 5.47884 19.1205 5.61884 18.9005C5.72884 18.7305 5.87884 18.6605 6.04884 18.6605C6.32884 18.6605 6.66884 18.8405 7.04884 19.1005C7.23884 19.2305 7.45884 19.3105 7.68884 19.3205C7.73884 19.3205 7.78885 19.3205 7.84885 19.3205C8.31885 19.3205 8.73884 19.2105 9.10884 19.0105C10.0388 18.5105 10.5388 17.4705 10.4688 16.4205C10.4488 16.0105 10.3788 15.6105 10.2788 15.2205C10.0888 14.4205 9.61885 13.7205 8.95885 13.2305C7.64885 12.2805 6.40884 11.7805 5.24884 11.7805L5.25884 11.7705Z" fill="#5E5E5A"/>
<mask id="mask0_230_115" style="mask-type:luminance" maskUnits="userSpaceOnUse" x="0" y="11" width="11" height="9">
<path d="M1.88884 13.4701C1.75884 13.6201 1.62884 13.7701 1.49884 13.9401C0.388842 15.5601 -0.271152 17.1001 1.09885 18.3201C2.04885 19.0501 3.43884 19.2501 4.97884 19.2701C5.24884 19.2701 5.47884 19.1201 5.61884 18.9001C5.89884 18.4701 6.42884 18.6701 7.05884 19.1001C7.24884 19.2301 7.46884 19.3101 7.69884 19.3201C8.23884 19.3501 8.69884 19.2401 9.11884 19.0101C10.0488 18.5101 10.5488 17.4701 10.4788 16.4201C10.4588 16.0101 10.3888 15.6101 10.2888 15.2201C10.0988 14.4201 9.62884 13.7201 8.96884 13.2301C6.27884 11.2701 3.89884 11.2301 1.88884 13.4801V13.4701Z" fill="white"/>
</mask>
<g mask="url(#mask0_230_115)">
<path opacity="0.75" d="M12.0092 15.0004C12.0092 15.0004 8.94922 13.5204 8.94922 16.0704C8.94922 18.3304 11.9792 17.1204 11.9792 17.1204L12.0092 15.0004Z" fill="#E62C2F" stroke="#E62C2F" stroke-width="0.2" stroke-linecap="round" stroke-linejoin="round"/>
</g>
</svg>
