<svg width="6" height="19" viewBox="0 0 6 19" fill="none" xmlns="http://www.w3.org/2000/svg">
<path d="M1.86719 7.62988H4.66718C4.66718 7.62988 4.66718 7.81989 4.66718 7.82989C4.27718 11.0599 4.21718 14.1199 4.66718 16.9199C4.83718 18.1899 4.53719 18.3599 3.96719 17.8399C3.56719 17.4799 3.26718 17.0099 3.09718 16.4899C2.36718 14.2699 2.01718 11.1799 1.87718 7.62988" fill="#F4DE9C"/>
<path d="M1.86719 7.62988H4.66718C4.66718 7.62988 4.66718 7.81989 4.66718 7.82989C4.27718 11.0599 4.21718 14.1199 4.66718 16.9199C4.83718 18.1899 4.53719 18.3599 3.96719 17.8399C3.56719 17.4799 3.26718 17.0099 3.09718 16.4899C2.36718 14.2699 2.01718 11.1799 1.87718 7.62988" stroke="#5E5E5A" stroke-width="0.15" stroke-linecap="round" stroke-linejoin="round"/>
<path d="M4.65906 7.82021C4.86906 7.42021 4.96906 6.97021 4.98906 6.52021L5.11906 3.05021C5.16906 2.25021 4.83906 1.85021 4.36906 1.55021C3.65906 1.04021 2.63906 0.810212 1.77906 0.860212C1.17906 1.05021 1.15906 0.910214 1.07906 1.44021C1.03906 1.69021 1.02906 1.94021 1.04906 2.19021C1.15906 3.79021 1.31906 5.26021 1.47906 6.63021C1.51906 7.00021 1.65906 7.34021 1.87906 7.64021C1.89906 7.67021 1.92906 7.70021 1.94906 7.74021C2.97906 9.01021 3.83906 9.11021 4.52906 8.07021C4.57906 8.00021 4.62906 7.92021 4.66906 7.84021" fill="white"/>
<path d="M4.65906 7.82021C4.86906 7.42021 4.96906 6.97021 4.98906 6.52021L5.11906 3.05021C5.16906 2.25021 4.83906 1.85021 4.36906 1.55021C3.65906 1.04021 2.63906 0.810212 1.77906 0.860212C1.17906 1.05021 1.15906 0.910214 1.07906 1.44021C1.03906 1.69021 1.02906 1.94021 1.04906 2.19021C1.15906 3.79021 1.31906 5.26021 1.47906 6.63021C1.51906 7.00021 1.65906 7.34021 1.87906 7.64021C1.89906 7.67021 1.92906 7.70021 1.94906 7.74021C2.97906 9.01021 3.83906 9.11021 4.52906 8.07021C4.57906 8.00021 4.62906 7.92021 4.66906 7.84021" stroke="#5E5E5A" stroke-width="0.15" stroke-linecap="round" stroke-linejoin="round"/>
<mask id="mask0_230_67" style="mask-type:luminance" maskUnits="userSpaceOnUse" x="1" y="0" width="5" height="9">
<path d="M4.65906 7.82021C4.86906 7.42021 4.96906 6.97021 4.98906 6.52021L5.11906 3.05021C5.16906 2.25021 4.83906 1.85021 4.36906 1.55021C3.65906 1.04021 2.63906 0.810212 1.77906 0.860212C1.17906 1.05021 1.15906 0.910214 1.07906 1.44021C1.03906 1.69021 1.02906 1.94021 1.04906 2.19021C1.15906 3.79021 1.31906 5.26021 1.47906 6.63021C1.51906 7.00021 1.65906 7.34021 1.87906 7.64021C1.89906 7.67021 1.92906 7.70021 1.94906 7.74021C2.97906 9.01021 3.83906 9.11021 4.52906 8.07021C4.57906 8.00021 4.62906 7.92021 4.66906 7.84021" fill="white"/>
</mask>
<g mask="url(#mask0_230_67)">
<path opacity="0.75" d="M6.2275 4.12977C6.2275 4.12977 4.1875 3.13977 4.1875 4.84977C4.1875 6.35977 6.2175 5.54978 6.2175 5.54978L6.2375 4.12977H6.2275Z" fill="#E62C2F" stroke="#E62C2F" stroke-width="0.2" stroke-linecap="round" stroke-linejoin="round"/>
</g>
</svg>
