<svg width="7" height="23" viewBox="0 0 7 23" fill="none" xmlns="http://www.w3.org/2000/svg">
<path d="M5.22156 8.7102C4.56156 12.9602 4.18156 17.1102 4.13156 21.1502C4.13156 21.4302 4.07155 21.7202 3.93155 21.9702C3.71155 22.3602 3.42155 22.4202 3.06155 22.1502C2.72155 21.9002 2.51155 21.5202 2.43155 21.1102C1.60155 17.1802 1.20156 13.0302 1.10156 8.7002H5.22156V8.7102Z" fill="#F4DE9C" stroke="#5E5E5A" stroke-width="0.15" stroke-linecap="round" stroke-linejoin="round"/>
<path d="M5.22075 8.7101C5.97075 7.7801 6.32076 6.5001 6.32076 4.9301C6.32076 4.4001 6.17075 3.8801 5.91075 3.4201C3.97075 0.120099 2.18075 -0.1499 0.58075 3.3901C0.11075 5.4901 0.270749 7.2701 1.11075 8.7001C1.16075 8.7901 1.22075 8.8801 1.27075 8.9601C2.62075 11.0801 3.94074 11.1001 5.23074 8.7001L5.22075 8.7101Z" fill="white" stroke="#5E5E5A" stroke-width="0.15" stroke-linecap="round" stroke-linejoin="round"/>
<mask id="mask0_230_51" style="mask-type:luminance" maskUnits="userSpaceOnUse" x="0" y="0" width="7" height="11">
<path d="M5.22075 8.7101C5.97075 7.7801 6.32076 6.5001 6.32076 4.9301C6.32076 4.4001 6.17075 3.8801 5.91075 3.4201C3.97075 0.120099 2.18075 -0.1499 0.58075 3.3901C0.11075 5.4901 0.270749 7.2701 1.11075 8.7001C1.16075 8.7901 1.22075 8.8801 1.27075 8.9601C2.62075 11.0801 3.94074 11.1001 5.23074 8.7001L5.22075 8.7101Z" fill="white"/>
</mask>
<g mask="url(#mask0_230_51)">
<path opacity="0.75" d="M7.54155 5.05049C7.54155 5.05049 5.10156 3.67049 5.10156 5.83049C5.10156 7.74049 7.52156 6.84048 7.52156 6.84048L7.54155 5.04049V5.05049Z" fill="#E62C2F" stroke="#E62C2F" stroke-width="0.2" stroke-linecap="round" stroke-linejoin="round"/>
</g>
</svg>
