<svg width="7" height="23" viewBox="0 0 7 23" fill="none" xmlns="http://www.w3.org/2000/svg">
<path d="M1.64062 8.7102C2.30063 12.9602 2.68063 17.1102 2.73063 21.1502C2.73063 21.4302 2.79063 21.7202 2.93063 21.9702C3.15063 22.3602 3.44062 22.4202 3.80062 22.1502C4.14062 21.9002 4.35063 21.5202 4.43063 21.1102C5.26063 17.1802 5.66062 13.0302 5.76062 8.7002H1.64062V8.7102Z" fill="#F4DE9C" stroke="#5E5E5A" stroke-width="0.15" stroke-linecap="round" stroke-linejoin="round"/>
<path d="M1.63906 8.7101C0.889061 7.7801 0.539062 6.5001 0.539062 4.9301C0.539062 4.4001 0.689062 3.8801 0.949062 3.4201C2.88906 0.120099 4.67906 -0.1499 6.27906 3.3901C6.74906 5.4901 6.58906 7.2701 5.74906 8.7001C5.69906 8.7901 5.63906 8.8801 5.58906 8.9601C4.23906 11.0801 2.91906 11.1001 1.62906 8.7001L1.63906 8.7101Z" fill="white" stroke="#5E5E5A" stroke-width="0.15" stroke-linecap="round" stroke-linejoin="round"/>
<mask id="mask0_231_709" style="mask-type:luminance" maskUnits="userSpaceOnUse" x="0" y="0" width="7" height="11">
<path d="M1.63906 8.7101C0.889061 7.7801 0.539062 6.5001 0.539062 4.9301C0.539062 4.4001 0.689062 3.8801 0.949062 3.4201C2.88906 0.120099 4.67906 -0.1499 6.27906 3.3901C6.74906 5.4901 6.58906 7.2701 5.74906 8.7001C5.69906 8.7901 5.63906 8.8801 5.58906 8.9601C4.23906 11.0801 2.91906 11.1001 1.62906 8.7001L1.63906 8.7101Z" fill="white"/>
</mask>
<g mask="url(#mask0_231_709)">
<path opacity="0.75" d="M7.37031 6.82974C7.37031 6.82974 5.32031 7.31974 5.32031 5.52974C5.32031 3.93974 7.36031 4.33974 7.36031 4.33974L7.38031 6.83974L7.37031 6.82974Z" fill="#E62C2F" stroke="#E62C2F" stroke-width="0.2" stroke-linecap="round" stroke-linejoin="round"/>
</g>
</svg>
