<svg width="13" height="20" viewBox="0 0 13 20" fill="none" xmlns="http://www.w3.org/2000/svg">
<path d="M3.50047 8.25024C1.67047 10.8802 0.730469 14.4502 0.730469 18.1802C0.790469 19.2702 1.13047 19.5102 1.69047 19.0402C2.03047 18.7602 2.25047 18.3502 2.34047 17.9202C2.89047 15.4902 3.66047 13.4602 4.80047 12.0702C6.13047 10.7302 7.27047 10.8002 8.27047 11.8502C9.55047 13.0102 10.2205 14.8702 10.5705 17.0802C10.6205 17.4102 10.7305 17.7402 10.9205 18.0202C11.3005 18.5902 11.6905 18.6302 12.0905 18.0902C12.2905 17.8202 12.4005 17.5002 12.4505 17.1702C12.8605 14.0902 12.3205 11.1602 10.8705 8.37024C10.8505 8.33024 10.8305 8.29023 10.8005 8.24023H3.50047V8.25024Z" fill="#F4DE9C" stroke="#5E5E5A" stroke-width="0.15" stroke-linecap="round" stroke-linejoin="round"/>
<path d="M3.41015 8.58012C2.96015 8.34012 2.58015 7.98012 2.37015 7.51012C2.20015 7.16012 2.10015 6.79011 2.07015 6.40012C1.89015 5.30011 1.92015 4.17011 2.10015 3.03011C2.17015 2.62011 2.35015 2.24012 2.64015 1.94012C3.11015 1.46012 3.58015 1.14011 4.07015 1.07011C4.81015 0.820113 5.52015 0.910113 6.22015 1.28011H6.29015C6.78015 1.51011 7.25015 1.50011 7.72015 1.28011C9.27015 0.790112 10.7202 0.690112 11.9802 1.35011C12.3302 1.60011 12.5802 2.12012 12.7202 2.98012C12.8502 4.74012 12.2802 6.40011 11.2102 7.97011C11.1102 8.12011 11.0002 8.25012 10.8702 8.37012C10.6902 8.54012 10.4802 8.68011 10.2502 8.79011C7.88015 9.87011 5.61015 9.77012 3.41015 8.58012Z" fill="white" stroke="#5E5E5A" stroke-width="0.15" stroke-linecap="round" stroke-linejoin="round"/>
<mask id="mask0_231_711" style="mask-type:luminance" maskUnits="userSpaceOnUse" x="1" y="0" width="12" height="10">
<path d="M3.41015 8.58012C2.96015 8.34012 2.58015 7.98012 2.37015 7.51012C2.20015 7.16012 2.10015 6.79011 2.07015 6.40012C1.89015 5.30011 1.92015 4.17011 2.10015 3.03011C2.17015 2.62011 2.35015 2.24012 2.64015 1.94012C3.11015 1.46012 3.58015 1.14011 4.07015 1.07011C4.81015 0.820113 5.52015 0.910113 6.22015 1.28011H6.29015C6.78015 1.51011 7.25015 1.50011 7.72015 1.28011C9.27015 0.790112 10.7202 0.690112 11.9802 1.35011C12.3302 1.60011 12.5802 2.12012 12.7202 2.98012C12.8502 4.74012 12.2802 6.40011 11.2102 7.97011C11.1102 8.12011 11.0002 8.25012 10.8702 8.37012C10.6902 8.54012 10.4802 8.68011 10.2502 8.79011C7.88015 9.87011 5.61015 9.77012 3.41015 8.58012Z" fill="white"/>
</mask>
<g mask="url(#mask0_231_711)">
<path opacity="0.75" d="M14.1003 6.22011C14.1003 6.22011 11.0703 7.69011 11.0703 5.15011C11.0703 2.91011 14.0803 4.11011 14.0803 4.11011L14.1103 6.22011H14.1003Z" fill="#E62C2F" stroke="#E62C2F" stroke-width="0.2" stroke-linecap="round" stroke-linejoin="round"/>
</g>
</svg>
