<svg width="11" height="29" viewBox="0 0 11 29" fill="none" xmlns="http://www.w3.org/2000/svg">
<mask id="mask0_254_12991" style="mask-type:luminance" maskUnits="userSpaceOnUse" x="0" y="16" width="11" height="13">
<path d="M0.226562 24.187C0.226562 22.227 0.816564 19.177 1.94656 17.857C2.69656 16.987 4.29658 16.187 5.52658 16.357C6.75658 16.527 7.19656 17.947 8.12656 17.907C9.05656 17.867 9.89658 17.657 10.0866 19.427C10.2866 21.197 10.6866 21.337 10.8466 22.467C11.0166 23.597 11.4066 24.557 9.29657 25.397C7.18657 26.237 6.66657 28.787 4.79657 28.227C2.92657 27.667 3.16656 26.587 1.84656 26.097C0.526558 25.607 0.226562 24.917 0.226562 24.187Z" fill="white"/>
</mask>
<g mask="url(#mask0_254_12991)">
<path d="M5.30688 28.1872C5.14688 28.1872 4.98686 28.1572 4.81686 28.1072C3.80686 27.7972 3.42686 27.3472 3.06686 26.9072C2.76686 26.5472 2.48688 26.1972 1.86688 25.9772C0.486882 25.4672 0.296875 24.7572 0.296875 24.1372C0.296875 24.0072 0.296875 23.8772 0.296875 23.7372C0.506875 24.0372 0.946876 24.2972 1.76688 24.5972C2.33688 24.8072 2.60688 25.1372 2.89688 25.4872C3.25688 25.9172 3.66689 26.4172 4.71689 26.7272C4.89689 26.7872 5.08687 26.8072 5.25687 26.8072C6.06687 26.8072 6.60687 26.2072 7.22687 25.5172C7.76687 24.9172 8.37688 24.2472 9.26688 23.8872C9.54688 23.7772 9.78688 23.6872 9.98688 23.6172C10.4169 23.4672 10.7069 23.3672 10.8669 23.1572C10.9669 23.9872 10.8069 24.6472 9.24689 25.2672C8.32689 25.6372 7.70688 26.3272 7.14688 26.9372C6.54688 27.5972 6.02687 28.1772 5.28687 28.1772L5.30688 28.1872Z" fill="#DDDDDD"/>
<path d="M10.8266 23.347C10.8766 24.067 10.6466 24.657 9.23657 25.217C8.29657 25.587 7.66658 26.287 7.11658 26.907C6.52658 27.557 6.01658 28.117 5.30658 28.117C5.15658 28.117 4.99658 28.097 4.83658 28.047C3.84658 27.747 3.47658 27.307 3.11658 26.877C2.82658 26.517 2.51657 26.157 1.88657 25.917C0.546566 25.417 0.366577 24.747 0.366577 24.147C0.366577 24.087 0.366577 24.017 0.366577 23.947C0.616577 24.197 1.04657 24.427 1.73657 24.677C2.28657 24.887 2.54658 25.187 2.83658 25.547C3.20658 25.987 3.61656 26.487 4.69656 26.817C4.88656 26.877 5.07656 26.907 5.25656 26.907C6.09656 26.907 6.67656 26.267 7.28656 25.597C7.81656 25.007 8.42657 24.337 9.29657 23.987C9.57657 23.877 9.81657 23.797 10.0166 23.727C10.3666 23.607 10.6266 23.517 10.8166 23.357M10.9266 22.917C10.7866 23.407 10.3166 23.407 9.25656 23.827C7.35656 24.587 6.74657 26.737 5.26657 26.737C5.10657 26.737 4.93656 26.707 4.75656 26.657C2.88656 26.097 3.12658 25.017 1.80658 24.527C0.68658 24.107 0.316561 23.797 0.256561 23.397C0.236561 23.657 0.226562 23.907 0.226562 24.137C0.226562 24.877 0.516558 25.557 1.84656 26.047C3.16656 26.537 2.92657 27.617 4.79657 28.177C4.97657 28.237 5.14658 28.257 5.30658 28.257C6.78658 28.257 7.38657 26.107 9.29657 25.347C11.0866 24.627 11.0766 23.827 10.9266 22.917Z" fill="#999993"/>
</g>
</svg>
