<svg width="10" height="27" viewBox="0 0 10 27" fill="none" xmlns="http://www.w3.org/2000/svg">
<mask id="mask0_254_12981" style="mask-type:luminance" maskUnits="userSpaceOnUse" x="0" y="14" width="10" height="13">
<path d="M1.05893 24.3364C1.54893 25.1664 3.17894 25.0264 3.42894 25.7064C3.67894 26.3964 6.10894 26.6864 6.79894 25.5064C7.48894 24.3264 8.75893 23.8864 9.05893 22.7564C9.34893 21.6264 9.69893 17.2164 9.05893 16.7764C8.41893 16.3364 7.34893 16.8764 6.80893 16.2864C6.26893 15.6964 4.91893 14.0764 3.99893 15.1064C3.07893 16.1364 2.90894 16.8364 2.14894 16.9964C0.178942 17.4064 0.71894 23.7264 1.06894 24.3264L1.05893 24.3364Z" fill="white"/>
</mask>
<g mask="url(#mask0_254_12981)">
<path d="M5.00984 26.2866C4.27984 26.2866 3.61984 26.0466 3.50984 25.7366C3.37984 25.3666 2.90984 25.2266 2.40984 25.0666C1.89984 24.9066 1.36984 24.7466 1.12984 24.3466C1.02984 24.1766 0.899844 23.4366 0.839844 22.5066C0.879844 22.6766 0.929843 22.8066 0.979843 22.8966C1.24984 23.3466 1.82984 23.5266 2.33984 23.6866C2.79984 23.8266 3.23984 23.9566 3.33984 24.2566C3.48984 24.6866 4.27984 24.9066 4.98984 24.9066C5.84984 24.9066 6.53984 24.5966 6.84984 24.0766C7.15984 23.5366 7.59983 23.2666 8.02983 22.9966C8.50983 22.6966 8.96984 22.4066 9.12984 21.7766C9.14984 21.6966 9.16983 21.5866 9.19983 21.4766C9.13983 22.0366 9.05984 22.5166 8.98984 22.7966C8.82984 23.3966 8.36983 23.8066 7.88983 24.2466C7.47983 24.6166 7.05984 24.9966 6.73984 25.5266C6.45984 26.0066 5.81984 26.2866 5.00984 26.2866Z" fill="#DDDDDD"/>
<path d="M9.01844 22.2363C8.97844 22.4663 8.94844 22.6563 8.90844 22.7863C8.75844 23.3663 8.32844 23.7463 7.82844 24.1963C7.41844 24.5663 6.98844 24.9463 6.66844 25.4963C6.40844 25.9463 5.77845 26.2163 5.00845 26.2163C4.23845 26.2163 3.65844 25.9563 3.57844 25.7163C3.43844 25.3163 2.94845 25.1663 2.42845 25.0063C1.92845 24.8563 1.41844 24.6963 1.19844 24.3163C1.12844 24.1963 1.02845 23.6963 0.958446 22.9963C1.24845 23.4363 1.81844 23.6063 2.32844 23.7663C2.76844 23.9063 3.18844 24.0263 3.27844 24.2963C3.43844 24.7563 4.26844 24.9963 4.99844 24.9963C5.88844 24.9963 6.59844 24.6663 6.91844 24.1263C7.21844 23.6063 7.65845 23.3363 8.06845 23.0663C8.43845 22.8363 8.78844 22.6063 9.01844 22.2363ZM9.39845 18.4463C9.35845 19.7663 9.19844 21.1863 9.04844 21.7663C8.75844 22.8963 7.46844 22.8663 6.77844 24.0463C6.44844 24.6163 5.69844 24.8463 4.98844 24.8463C4.23844 24.8463 3.53844 24.5963 3.40844 24.2463C3.15844 23.5563 1.52845 23.7063 1.03845 22.8763C0.908448 22.6463 0.758441 22.0563 0.718441 20.8163C0.668441 22.4763 0.878443 24.1163 1.04844 24.4063C1.53844 25.2363 3.16844 25.0963 3.41844 25.7763C3.54844 26.1263 4.24844 26.3763 4.99844 26.3763C5.74844 26.3763 6.45845 26.1563 6.78845 25.5763C7.47845 24.3963 8.74844 23.9563 9.04844 22.8263C9.23844 22.0863 9.44845 19.9663 9.39845 18.4463Z" fill="#999993"/>
</g>
</svg>
