<svg width="13" height="28" viewBox="0 0 13 28" fill="none" xmlns="http://www.w3.org/2000/svg">
<mask id="mask0_254_12970" style="mask-type:luminance" maskUnits="userSpaceOnUse" x="0" y="16" width="13" height="12">
<path d="M1.70792 17.9374C0.937917 19.3474 0.637909 24.6874 1.27791 25.6174C1.91791 26.5474 3.62792 26.6974 4.31792 26.0074C5.00792 25.3174 5.22792 26.0974 5.83792 26.4374C6.44792 26.7674 6.98792 26.1474 7.64792 26.7974C8.89792 28.0274 11.3279 27.1874 12.0079 24.2974C12.6979 21.4074 12.8379 18.8074 12.4979 17.9274C12.1579 17.0474 10.4879 18.4674 9.30791 17.3874C8.12791 16.3074 6.41791 16.3574 4.99791 16.9974C3.57791 17.6374 2.83792 15.8874 1.70792 17.9474V17.9374Z" fill="white"/>
</mask>
<g mask="url(#mask0_254_12970)">
<path d="M9.00563 27.268C8.50563 27.268 8.05563 27.088 7.70563 26.738C7.47563 26.508 7.23562 26.408 6.93562 26.408C6.81562 26.408 6.70563 26.418 6.59563 26.438C6.48563 26.448 6.38562 26.468 6.27562 26.468C6.12562 26.468 5.99563 26.438 5.87563 26.368C5.69563 26.268 5.55563 26.138 5.42563 26.008C5.23563 25.828 5.05562 25.658 4.82562 25.658C4.65562 25.658 4.47562 25.748 4.27562 25.958C4.01562 26.218 3.58563 26.368 3.08563 26.368C2.35563 26.368 1.67563 26.058 1.34563 25.578C1.16563 25.308 1.04562 24.578 1.01562 23.598C1.06563 23.708 1.12562 23.798 1.19562 23.908C1.54562 24.428 2.27562 24.758 3.05562 24.758C3.59562 24.758 4.06562 24.598 4.35562 24.308C4.52562 24.138 4.67562 24.058 4.80562 24.058C4.97562 24.058 5.12562 24.198 5.30562 24.368C5.44562 24.498 5.59563 24.648 5.78563 24.748C5.92563 24.828 6.07563 24.858 6.25563 24.858C6.36563 24.858 6.47563 24.848 6.59563 24.828C6.70563 24.818 6.80562 24.798 6.91562 24.798C7.08562 24.798 7.32563 24.828 7.58563 25.088C8.05563 25.548 8.69563 25.808 9.33563 25.808C10.3656 25.808 11.6256 25.108 12.0956 23.138C12.2756 22.388 12.4156 21.638 12.5256 20.918C12.4256 21.948 12.2256 23.118 11.9456 24.278C11.4556 26.348 10.1156 27.268 9.00563 27.268Z" fill="#DDDDDD"/>
<path d="M11.9864 23.7376C11.9464 23.9076 11.9064 24.0876 11.8664 24.2576C11.3864 26.2876 10.0864 27.1876 9.00643 27.1876C8.52643 27.1876 8.09643 27.0176 7.75643 26.6876C7.50643 26.4476 7.24642 26.3376 6.93642 26.3376C6.81642 26.3376 6.70643 26.3476 6.58643 26.3676C6.48643 26.3776 6.38642 26.3976 6.27642 26.3976C6.13642 26.3976 6.01642 26.3676 5.91642 26.3076C5.74642 26.2176 5.61643 26.0876 5.47643 25.9576C5.27643 25.7676 5.08643 25.5876 4.81643 25.5876C4.61643 25.5876 4.42642 25.6876 4.21642 25.9076C3.97642 26.1476 3.55642 26.2876 3.07642 26.2876C2.37642 26.2876 1.71642 25.9876 1.40642 25.5376C1.24642 25.3076 1.14642 24.7176 1.10642 23.8976C1.11642 23.9176 1.12642 23.9276 1.13642 23.9476C1.50642 24.4876 2.25642 24.8376 3.05642 24.8376C3.61642 24.8376 4.10642 24.6676 4.40642 24.3676C4.55642 24.2176 4.68642 24.1376 4.79642 24.1376C4.93642 24.1376 5.07642 24.2676 5.24642 24.4276C5.38642 24.5576 5.54642 24.7076 5.74642 24.8176C5.90642 24.8976 6.06643 24.9376 6.25643 24.9376C6.37643 24.9376 6.48642 24.9276 6.60642 24.9076C6.70642 24.8976 6.81642 24.8776 6.91642 24.8776C7.08642 24.8776 7.28642 24.9076 7.52642 25.1476C8.00642 25.6176 8.66642 25.8876 9.32642 25.8876C10.2764 25.8876 11.4164 25.3076 11.9864 23.7476M12.6564 18.8076C12.5964 19.9876 12.3964 21.4976 12.0064 23.1176C11.5664 24.9576 10.4164 25.7276 9.31643 25.7276C8.68643 25.7276 8.07643 25.4776 7.61643 25.0276C7.36643 24.7776 7.12643 24.7176 6.89643 24.7176C6.66643 24.7176 6.45642 24.7776 6.23642 24.7776C6.09643 24.7776 5.94642 24.7576 5.79642 24.6676C5.35642 24.4276 5.12642 23.9676 4.77642 23.9676C4.63642 23.9676 4.47642 24.0476 4.27642 24.2376C3.98642 24.5276 3.52643 24.6676 3.03643 24.6676C2.34643 24.6676 1.60642 24.3876 1.23642 23.8476C1.03642 23.5576 0.956427 23.4276 0.926427 22.5376C0.886427 23.9376 0.986424 25.1976 1.26642 25.6076C1.63642 26.1476 2.37643 26.4276 3.06643 26.4276C3.55643 26.4276 4.02642 26.2876 4.30642 25.9976C4.50642 25.7976 4.66642 25.7276 4.80642 25.7276C5.15642 25.7276 5.39642 26.1876 5.82642 26.4276C5.97642 26.5076 6.11642 26.5376 6.26642 26.5376C6.48642 26.5376 6.70643 26.4776 6.92643 26.4776C7.15643 26.4776 7.39643 26.5376 7.64643 26.7876C8.01643 27.1476 8.49642 27.3376 8.99642 27.3376C10.1864 27.3376 11.5264 26.3176 12.0064 24.2876C12.5364 22.0776 12.7364 20.0376 12.6564 18.8076Z" fill="#999993"/>
</g>
</svg>
