<svg width="13" height="26" viewBox="0 0 13 26" fill="none" xmlns="http://www.w3.org/2000/svg">
<mask id="mask0_254_12959" style="mask-type:luminance" maskUnits="userSpaceOnUse" x="0" y="14" width="13" height="12">
<path d="M1.37868 16.5874C-0.0313182 18.7974 -0.141321 22.4174 1.57868 23.4074C3.29868 24.3874 4.27868 23.4074 5.10868 23.6574C5.93868 23.9074 8.30868 26.4474 10.1587 24.7374C12.1587 22.8874 13.0487 17.4874 12.1687 16.2574C10.2787 13.6274 8.59868 16.6574 5.95868 15.1374C5.09868 14.6374 2.78868 14.3874 1.37868 16.5974V16.5874Z" fill="white"/>
</mask>
<g mask="url(#mask0_254_12959)">
<path d="M8.70891 25.2374C7.72891 25.2374 6.73891 24.5674 6.00891 24.0874C5.63891 23.8374 5.33891 23.6374 5.12891 23.5774C5.02891 23.5474 4.9189 23.5374 4.8089 23.5374C4.5889 23.5374 4.3589 23.5874 4.1089 23.6474C3.8189 23.7074 3.49891 23.7874 3.12891 23.7874C2.61891 23.7874 2.1289 23.6474 1.6089 23.3474C0.828902 22.8974 0.388906 21.8474 0.378906 20.4574C0.538906 20.9174 0.838901 21.0774 1.2489 21.2974L1.5289 21.4574C2.0689 21.7674 2.58891 21.9174 3.11891 21.9174C3.49891 21.9174 3.82891 21.8474 4.12891 21.7774C4.36891 21.7274 4.5889 21.6774 4.7989 21.6774C4.8989 21.6774 4.9989 21.6874 5.0789 21.7174C5.2689 21.7774 5.5689 21.9774 5.9189 22.2074C6.6589 22.7074 7.6789 23.3874 8.6989 23.3874C9.2589 23.3874 9.7589 23.1774 10.1989 22.7774C11.2989 21.7574 12.0689 20.2674 12.3989 18.5674C12.2589 20.6074 11.4689 23.4174 10.0989 24.6874C9.67891 25.0674 9.2289 25.2574 8.6989 25.2574L8.70891 25.2374Z" fill="#DDDDDD"/>
<path d="M12.2089 19.6572C11.8889 21.5672 11.0989 23.6572 10.0689 24.6172C9.66887 24.9872 9.22886 25.1672 8.71886 25.1672C7.75886 25.1672 6.77886 24.5072 6.05886 24.0272C5.67886 23.7772 5.37887 23.5772 5.15887 23.5072C5.04887 23.4772 4.93887 23.4572 4.81887 23.4572C4.58887 23.4572 4.35886 23.5072 4.10886 23.5672C3.80886 23.6372 3.49887 23.6972 3.14887 23.6972C2.65887 23.6972 2.16886 23.5572 1.66886 23.2672C0.98886 22.8772 0.568868 21.9672 0.488868 20.7872C0.668868 21.0472 0.928868 21.1872 1.23887 21.3572C1.32887 21.4072 1.41887 21.4572 1.51887 21.5072C2.06887 21.8172 2.59887 21.9772 3.14887 21.9772C3.53887 21.9772 3.87887 21.9072 4.17887 21.8372C4.41887 21.7872 4.62886 21.7372 4.82886 21.7372C4.92886 21.7372 5.00887 21.7472 5.08887 21.7672C5.26887 21.8172 5.56887 22.0172 5.90887 22.2472C6.65887 22.7472 7.68887 23.4372 8.73887 23.4372C9.31887 23.4372 9.83887 23.2272 10.2889 22.8072C11.1589 22.0072 11.8189 20.9072 12.2289 19.6472M12.4889 17.3672C12.3489 19.4772 11.5089 21.4472 10.1689 22.6972C9.70886 23.1272 9.20886 23.2872 8.71886 23.2872C7.22886 23.2872 5.73887 21.8072 5.11887 21.6172C5.01887 21.5872 4.91887 21.5772 4.81887 21.5772C4.34887 21.5772 3.81886 21.8172 3.13886 21.8172C2.69886 21.8172 2.18887 21.7172 1.58887 21.3672C0.848874 20.9472 0.448868 20.8872 0.348868 19.8072C0.218868 21.3672 0.598874 22.8172 1.58887 23.3872C2.18887 23.7272 2.69886 23.8372 3.13886 23.8372C3.81886 23.8372 4.34887 23.5972 4.81887 23.5972C4.91887 23.5972 5.01887 23.6072 5.11887 23.6372C5.74887 23.8172 7.23886 25.3072 8.71886 25.3072C9.20886 25.3072 9.70886 25.1472 10.1689 24.7172C11.7789 23.2272 12.6689 19.4272 12.4889 17.3672Z" fill="#999993"/>
</g>
</svg>
