<svg width="11" height="24" viewBox="0 0 11 24" fill="none" xmlns="http://www.w3.org/2000/svg">
<mask id="mask0_254_12948" style="mask-type:luminance" maskUnits="userSpaceOnUse" x="0" y="13" width="11" height="11">
<path d="M0.917617 16.2571C0.147617 17.9871 0.597626 22.6571 2.31763 22.6571C4.03763 22.6571 4.47762 22.3871 5.12762 23.0371C5.77762 23.6871 6.74763 22.7171 7.28763 22.8171C7.82763 22.9271 9.80762 24.3771 10.3576 21.4671C10.9076 18.5571 10.9576 14.2371 9.28763 14.5671C5.15763 15.3671 6.16762 11.0071 2.91762 15.4271C2.32762 16.2371 1.56762 14.7971 0.917617 16.2571Z" fill="white"/>
</mask>
<g mask="url(#mask0_254_12948)">
<path d="M8.83844 23.1971C8.41844 23.1971 7.98844 23.0171 7.67844 22.8871C7.51844 22.8171 7.38843 22.7671 7.29843 22.7471H7.19843C6.99843 22.7471 6.75844 22.8471 6.50844 22.9571C6.22844 23.0771 5.93844 23.1971 5.67844 23.1971C5.48844 23.1971 5.32843 23.1271 5.18843 22.9971C4.80843 22.6171 4.48843 22.5371 4.02843 22.5371C3.86843 22.5371 3.67843 22.5371 3.46843 22.5571C3.16843 22.5771 2.79844 22.5871 2.33844 22.5871C2.07844 22.5871 1.82843 22.4671 1.60843 22.2271C0.988429 21.5571 0.678437 20.0871 0.648438 18.7471C0.898438 19.8871 1.45844 20.4471 2.33844 20.4471C2.79844 20.4471 3.16844 20.4271 3.47844 20.4071C3.68844 20.3971 3.87844 20.3871 4.03844 20.3871C4.46844 20.3871 4.74843 20.4471 5.09843 20.7971C5.26843 20.9671 5.45843 21.0471 5.69843 21.0471C5.99843 21.0471 6.29844 20.9171 6.58844 20.7971C6.82844 20.6971 7.04843 20.5971 7.21843 20.5971C7.38843 20.6271 7.53844 20.7071 7.72844 20.7971C8.10844 20.9971 8.62843 21.2671 9.12843 21.2671C9.84843 21.2671 10.3184 20.6971 10.5384 19.5671C10.5584 19.4671 10.5784 19.3671 10.5884 19.2771C10.5284 19.9971 10.4384 20.7471 10.2984 21.4471C10.0784 22.6171 9.60844 23.1971 8.86844 23.1971H8.83844Z" fill="#DDDDDD"/>
<path d="M0.738756 19.3668C1.04876 20.1368 1.56876 20.5168 2.31876 20.5168C2.77876 20.5168 3.15876 20.4968 3.45876 20.4768C3.66876 20.4668 3.84876 20.4568 4.00876 20.4568C4.42876 20.4568 4.67875 20.5168 5.01875 20.8468C5.19875 21.0268 5.41875 21.1168 5.66875 21.1168C5.97875 21.1168 6.30876 20.9768 6.58876 20.8568C6.81876 20.7568 7.03875 20.6668 7.18875 20.6668C7.20875 20.6668 7.22875 20.6668 7.24875 20.6668C7.32875 20.6868 7.48875 20.7668 7.65875 20.8568C8.04875 21.0568 8.57876 21.3368 9.09876 21.3368C9.67876 21.3368 10.1088 20.9868 10.3788 20.3068C10.3288 20.6868 10.2687 21.0668 10.1987 21.4268C9.98875 22.5568 9.53876 23.1168 8.83876 23.1168C8.43876 23.1168 8.00876 22.9368 7.70876 22.8068C7.54876 22.7368 7.41875 22.6868 7.30875 22.6568C7.26875 22.6568 7.22875 22.6468 7.18875 22.6468C6.96875 22.6468 6.72875 22.7468 6.46875 22.8568C6.19875 22.9768 5.91875 23.0868 5.66875 23.0868C5.49875 23.0868 5.35876 23.0268 5.22876 22.9068C4.82876 22.5068 4.48876 22.4268 4.00876 22.4268C3.84876 22.4268 3.65875 22.4268 3.43875 22.4468C3.13875 22.4668 2.76876 22.4768 2.31876 22.4768C2.07876 22.4768 1.84876 22.3668 1.64876 22.1468C1.13876 21.5968 0.838751 20.4768 0.748751 19.3368M10.6687 17.2168C10.6287 18.1768 10.5888 18.6868 10.4288 19.5568C10.1888 20.8268 9.65876 21.1968 9.09876 21.1968C8.36876 21.1968 7.58875 20.5868 7.27875 20.5268C7.24875 20.5268 7.21875 20.5268 7.18875 20.5268C6.78875 20.5268 6.18875 20.9768 5.66875 20.9768C5.47875 20.9768 5.28876 20.9168 5.12876 20.7568C4.77876 20.4068 4.48875 20.3268 4.01875 20.3268C3.62876 20.3268 3.10875 20.3868 2.32875 20.3868C1.28875 20.3868 0.718762 19.5668 0.588762 17.8368C0.428762 19.8968 0.998753 22.6768 2.32875 22.6768C3.10875 22.6768 3.62876 22.6168 4.01875 22.6168C4.48875 22.6168 4.77876 22.6968 5.12876 23.0468C5.28876 23.2068 5.47875 23.2668 5.66875 23.2668C6.19875 23.2668 6.78875 22.8168 7.18875 22.8168C7.21875 22.8168 7.24875 22.8168 7.27875 22.8168C7.54875 22.8668 8.19876 23.2768 8.83876 23.2768C9.47876 23.2768 10.0688 22.8968 10.3388 21.4668C10.5888 20.1468 10.7287 18.5468 10.6687 17.2168Z" fill="#999993"/>
</g>
</svg>
