<svg width="11" height="29" viewBox="0 0 11 29" fill="none" xmlns="http://www.w3.org/2000/svg">
<mask id="mask0_254_12883" style="mask-type:luminance" maskUnits="userSpaceOnUse" x="0" y="16" width="11" height="13">
<path d="M11.0011 24.1469C11.0011 22.1869 10.4111 19.1369 9.28112 17.8169C8.53112 16.9469 6.9311 16.1469 5.7011 16.3169C4.4711 16.4869 4.0311 17.9069 3.10109 17.8669C2.17109 17.8269 1.3311 17.6169 1.1411 19.3869C0.941103 21.1569 0.541094 21.2969 0.381094 22.4269C0.211094 23.5569 -0.178888 24.5169 1.93111 25.3569C4.04111 26.1969 4.56111 28.7469 6.43111 28.1869C8.30111 27.6269 8.06109 26.5469 9.38109 26.0569C10.7011 25.5669 11.0011 24.8769 11.0011 24.1469Z" fill="white"/>
</mask>
<g mask="url(#mask0_254_12883)">
<path d="M5.92002 28.147C5.18002 28.147 4.66003 27.577 4.06003 26.907C3.51003 26.297 2.88003 25.607 1.96003 25.237C0.400028 24.617 0.240032 23.957 0.340032 23.127C0.500032 23.347 0.790037 23.437 1.22004 23.587C1.42004 23.657 1.66004 23.737 1.94004 23.857C2.83004 24.217 3.44002 24.887 3.98002 25.487C4.61002 26.177 5.15002 26.777 5.95002 26.777C6.12002 26.777 6.30003 26.747 6.49003 26.697C7.55003 26.377 7.95003 25.887 8.31003 25.457C8.60003 25.107 8.87004 24.777 9.44004 24.567C10.25 24.267 10.7 24.007 10.91 23.707C10.91 23.847 10.91 23.977 10.91 24.107C10.91 24.727 10.72 25.437 9.34003 25.947C8.73003 26.177 8.45002 26.517 8.14002 26.877C7.78002 27.317 7.40002 27.767 6.39002 28.077C6.22002 28.127 6.06003 28.157 5.90003 28.157L5.92002 28.147Z" fill="#DDDDDD"/>
<path d="M0.399379 23.3067C0.579379 23.4567 0.849366 23.5467 1.19937 23.6767C1.39937 23.7467 1.63937 23.8267 1.91937 23.9367C2.78937 24.2867 3.39938 24.9567 3.92938 25.5467C4.53938 26.2167 5.11938 26.8567 5.95938 26.8567C6.13938 26.8567 6.32937 26.8267 6.51937 26.7667C7.59937 26.4467 8.00936 25.9367 8.37936 25.4967C8.66936 25.1467 8.92937 24.8367 9.47937 24.6267C10.1694 24.3767 10.5994 24.1467 10.8494 23.8967C10.8494 23.9667 10.8494 24.0267 10.8494 24.0967C10.8494 24.6967 10.6694 25.3767 9.32937 25.8667C8.69937 26.0967 8.39936 26.4667 8.09936 26.8267C7.73936 27.2567 7.37936 27.6967 6.37936 27.9967C6.20936 28.0467 6.05939 28.0667 5.90939 28.0667C5.19939 28.0667 4.68936 27.5067 4.09936 26.8567C3.53936 26.2467 2.90937 25.5467 1.97937 25.1667C0.569365 24.6067 0.339369 24.0167 0.389369 23.2967M0.299372 22.8867C0.149372 23.8067 0.139377 24.6067 1.92938 25.3167C3.82938 26.0767 4.43937 28.2267 5.91937 28.2267C6.07937 28.2267 6.24938 28.1967 6.42938 28.1467C8.29938 27.5867 8.05936 26.5067 9.37936 26.0167C10.6994 25.5267 10.9994 24.8367 10.9994 24.1067C10.9994 23.8767 10.9994 23.6267 10.9694 23.3667C10.9094 23.7667 10.5394 24.0867 9.41937 24.4967C8.09937 24.9867 8.33939 26.0667 6.46939 26.6267C6.28939 26.6867 6.11938 26.7067 5.95938 26.7067C4.47938 26.7067 3.87939 24.5567 1.96939 23.7967C0.909386 23.3767 0.439372 23.3667 0.299372 22.8867Z" fill="#999993"/>
</g>
</svg>
