<svg width="10" height="27" viewBox="0 0 10 27" fill="none" xmlns="http://www.w3.org/2000/svg">
<mask id="mask0_254_12873" style="mask-type:luminance" maskUnits="userSpaceOnUse" x="0" y="14" width="10" height="13">
<path d="M9.17284 24.2974C8.68284 25.1274 7.05284 24.9874 6.80284 25.6674C6.55284 26.3574 4.12285 26.6474 3.43285 25.4674C2.74285 24.2874 1.47284 23.8474 1.17284 22.7174C0.88284 21.5874 0.53284 17.1774 1.17284 16.7374C1.81284 16.2974 2.88284 16.8374 3.42284 16.2474C3.96284 15.6574 5.31284 14.0374 6.23284 15.0674C7.15284 16.0974 7.32284 16.7974 8.08284 16.9574C10.0528 17.3674 9.51286 23.6874 9.16286 24.2874L9.17284 24.2974Z" fill="white"/>
</mask>
<g mask="url(#mask0_254_12873)">
<path d="M5.23297 26.2573C4.43297 26.2573 3.78299 25.9773 3.50299 25.4973C3.19299 24.9573 2.76297 24.5773 2.35297 24.2173C1.86297 23.7873 1.41299 23.3773 1.25299 22.7673C1.18299 22.4773 1.10297 22.0073 1.04297 21.4473C1.06297 21.5573 1.08298 21.6573 1.11298 21.7473C1.27298 22.3773 1.73298 22.6573 2.21298 22.9673C2.64298 23.2373 3.08297 23.5173 3.39297 24.0473C3.69297 24.5673 4.39299 24.8773 5.25299 24.8773C5.95299 24.8773 6.74298 24.6573 6.90298 24.2273C7.01298 23.9273 7.44298 23.7973 7.90298 23.6573C8.41298 23.4973 8.99297 23.3273 9.26297 22.8673C9.31297 22.7773 9.36298 22.6473 9.40298 22.4773C9.34298 23.4073 9.21298 24.1473 9.11298 24.3173C8.87298 24.7173 8.35298 24.8773 7.83298 25.0373C7.33298 25.1873 6.86297 25.3373 6.73297 25.7073C6.62297 26.0173 5.96297 26.2573 5.23297 26.2573Z" fill="#DDDDDD"/>
<path d="M1.21171 22.1972C1.44171 22.5672 1.79172 22.7872 2.16172 23.0272C2.58172 23.2872 3.01171 23.5672 3.31171 24.0872C3.63171 24.6372 4.35169 24.9572 5.23169 24.9572C5.96169 24.9572 6.7817 24.7172 6.9517 24.2572C7.0417 23.9972 7.46171 23.8672 7.90171 23.7272C8.41171 23.5772 8.9817 23.3972 9.2717 22.9572C9.2017 23.6572 9.10171 24.1572 9.03171 24.2772C8.81171 24.6572 8.2917 24.8172 7.8017 24.9672C7.2817 25.1272 6.80171 25.2772 6.65171 25.6772C6.56171 25.9172 5.99172 26.1772 5.22172 26.1772C4.45172 26.1772 3.82171 25.9072 3.56171 25.4572C3.24171 24.9072 2.81171 24.5272 2.40171 24.1572C1.90171 23.7172 1.47169 23.3272 1.32169 22.7472C1.29169 22.6172 1.25171 22.4272 1.21171 22.1972ZM0.831701 18.4072C0.781701 19.9272 0.991707 22.0472 1.18171 22.7872C1.47171 23.9172 2.75172 24.3572 3.44172 25.5372C3.77172 26.1072 4.52169 26.3372 5.23169 26.3372C5.98169 26.3372 6.68171 26.0872 6.81171 25.7372C7.06171 25.0472 8.69171 25.1972 9.18171 24.3672C9.35171 24.0772 9.56169 22.4372 9.51169 20.7772C9.47169 22.0172 9.33172 22.6172 9.19172 22.8372C8.70172 23.6672 7.07169 23.5272 6.82169 24.2072C6.69169 24.5572 5.9917 24.8072 5.2417 24.8072C4.4917 24.8072 3.7817 24.5872 3.4517 24.0072C2.7617 22.8272 1.47171 22.8572 1.18171 21.7272C1.03171 21.1572 0.871701 19.7272 0.831701 18.4072Z" fill="#999993"/>
</g>
</svg>
