<svg width="13" height="28" viewBox="0 0 13 28" fill="none" xmlns="http://www.w3.org/2000/svg">
<mask id="mask0_254_12862" style="mask-type:luminance" maskUnits="userSpaceOnUse" x="0" y="16" width="13" height="12">
<path d="M11.5223 17.8973C12.2923 19.3073 12.5923 24.6473 11.9523 25.5773C11.3123 26.5073 9.60233 26.6573 8.91233 25.9673C8.22233 25.2773 8.00232 26.0573 7.39232 26.3973C6.78232 26.7273 6.24232 26.1073 5.58232 26.7573C4.33232 27.9873 1.90233 27.1473 1.22233 24.2573C0.532332 21.3673 0.392312 18.7673 0.732312 17.8873C1.07231 17.0073 2.74231 18.4273 3.92231 17.3473C5.10231 16.2673 6.81231 16.3173 8.23231 16.9573C9.65231 17.5973 10.3923 15.8473 11.5223 17.9073V17.8973Z" fill="white"/>
</mask>
<g mask="url(#mask0_254_12862)">
<path d="M4.22314 27.227C3.11314 27.227 1.77314 26.307 1.28314 24.237C1.01314 23.077 0.813125 21.917 0.703125 20.877C0.813125 21.597 0.953118 22.347 1.13312 23.097C1.60312 25.067 2.86313 25.767 3.89313 25.767C4.54313 25.767 5.17313 25.507 5.64313 25.047C5.90313 24.787 6.13314 24.757 6.31314 24.757C6.42314 24.757 6.53312 24.767 6.63312 24.787C6.74312 24.797 6.85314 24.817 6.97314 24.817C7.15314 24.817 7.30315 24.777 7.44315 24.707C7.63315 24.607 7.79313 24.457 7.92313 24.327C8.10313 24.157 8.25313 24.017 8.42313 24.017C8.55313 24.017 8.70314 24.097 8.87314 24.267C9.16314 24.557 9.63313 24.717 10.1731 24.717C10.9431 24.717 11.6731 24.387 12.0331 23.867C12.1131 23.757 12.1631 23.667 12.2131 23.557C12.1831 24.547 12.0731 25.267 11.8831 25.537C11.5531 26.017 10.8731 26.327 10.1431 26.327C9.64313 26.327 9.21313 26.177 8.95312 25.917C8.75313 25.717 8.57314 25.617 8.40314 25.617C8.17314 25.617 7.99313 25.787 7.80313 25.967C7.66313 26.097 7.52312 26.227 7.35312 26.327C7.23312 26.397 7.10313 26.427 6.95312 26.427C6.84312 26.427 6.74312 26.417 6.63312 26.397C6.52312 26.387 6.40312 26.367 6.29312 26.367C5.99312 26.367 5.75313 26.467 5.52313 26.697C5.17313 27.037 4.72314 27.227 4.22314 27.227Z" fill="#DDDDDD"/>
<path d="M1.2417 23.6973C1.8117 25.2673 2.9517 25.8373 3.9017 25.8373C4.5717 25.8373 5.22169 25.5673 5.70169 25.0973C5.94169 24.8573 6.15171 24.8273 6.31171 24.8273C6.42171 24.8273 6.5217 24.8373 6.6217 24.8573C6.7417 24.8773 6.85171 24.8873 6.97171 24.8873C7.16171 24.8873 7.32169 24.8473 7.48169 24.7673C7.68169 24.6573 7.84169 24.5073 7.98169 24.3773C8.15169 24.2173 8.2917 24.0873 8.4317 24.0873C8.5417 24.0873 8.67169 24.1673 8.82169 24.3173C9.12169 24.6173 9.61169 24.7873 10.1717 24.7873C10.9717 24.7873 11.7217 24.4373 12.0917 23.8973C12.1017 23.8773 12.1117 23.8673 12.1217 23.8473C12.0817 24.6673 11.9817 25.2573 11.8217 25.4873C11.5117 25.9473 10.8517 26.2373 10.1517 26.2373C9.6717 26.2373 9.26169 26.0973 9.01169 25.8573C8.79169 25.6373 8.60171 25.5373 8.41171 25.5373C8.15171 25.5373 7.96171 25.7173 7.75171 25.9073C7.62171 26.0373 7.48171 26.1673 7.31171 26.2573C7.20171 26.3173 7.08169 26.3473 6.95169 26.3473C6.85169 26.3473 6.75169 26.3373 6.64169 26.3173C6.52169 26.2973 6.41169 26.2873 6.29169 26.2873C5.97169 26.2873 5.71171 26.3973 5.47171 26.6373C5.13171 26.9673 4.70171 27.1373 4.22171 27.1373C3.14171 27.1373 1.84169 26.2273 1.36169 24.2073C1.32169 24.0373 1.2817 23.8573 1.2417 23.6873M0.571686 18.7773C0.491686 20.0073 0.69171 22.0473 1.22171 24.2573C1.70171 26.2873 3.04169 27.3073 4.23169 27.3073C4.73169 27.3073 5.2117 27.1273 5.5817 26.7573C5.8317 26.5073 6.0717 26.4473 6.3017 26.4473C6.5317 26.4473 6.7417 26.5073 6.9617 26.5073C7.1017 26.5073 7.2517 26.4873 7.4017 26.3973C7.8417 26.1573 8.07169 25.6973 8.42169 25.6973C8.56169 25.6973 8.72169 25.7773 8.92169 25.9673C9.21169 26.2573 9.67171 26.3973 10.1617 26.3973C10.8517 26.3973 11.5917 26.1173 11.9617 25.5773C12.2417 25.1673 12.3417 23.9073 12.3017 22.5073C12.2717 23.3973 12.1817 23.5273 11.9917 23.8173C11.6217 24.3573 10.8817 24.6373 10.1917 24.6373C9.70171 24.6373 9.23169 24.4973 8.95169 24.2073C8.75169 24.0073 8.59169 23.9373 8.45169 23.9373C8.10169 23.9373 7.8617 24.3973 7.4317 24.6373C7.2817 24.7173 7.1417 24.7473 6.9917 24.7473C6.7717 24.7473 6.5517 24.6873 6.3317 24.6873C6.1117 24.6873 5.86169 24.7473 5.61169 24.9973C5.15169 25.4473 4.54171 25.6973 3.91171 25.6973C2.81171 25.6973 1.66171 24.9273 1.22171 23.0873C0.84171 21.4773 0.631686 19.9673 0.571686 18.7773Z" fill="#999993"/>
</g>
</svg>
