<svg width="13" height="26" viewBox="0 0 13 26" fill="none" xmlns="http://www.w3.org/2000/svg">
<mask id="mask0_254_12851" style="mask-type:luminance" maskUnits="userSpaceOnUse" x="0" y="14" width="13" height="12">
<path d="M11.8517 16.5473C13.2617 18.7573 13.3717 22.3773 11.6517 23.3673C9.93171 24.3473 8.95171 23.3673 8.12171 23.6173C7.29171 23.8673 4.92169 26.4073 3.07169 24.6973C1.07169 22.8473 0.181712 17.4473 1.06171 16.2173C2.95171 13.5873 4.6317 16.6173 7.2717 15.0973C8.1317 14.5973 10.4417 14.3473 11.8517 16.5573V16.5473Z" fill="white"/>
</mask>
<g mask="url(#mask0_254_12851)">
<path d="M4.52032 25.1968C3.99032 25.1968 3.54033 25.0068 3.12033 24.6268C1.75033 23.3568 0.960313 20.5468 0.820312 18.5068C1.15031 20.1968 1.92032 21.6968 3.02032 22.7168C3.46032 23.1268 3.96032 23.3268 4.52032 23.3268C5.54032 23.3268 6.56032 22.6468 7.30032 22.1468C7.65032 21.9168 7.95032 21.7168 8.14032 21.6568C8.23032 21.6268 8.32032 21.6168 8.42032 21.6168C8.62032 21.6168 8.85033 21.6668 9.09033 21.7168C9.38033 21.7768 9.72031 21.8568 10.1003 21.8568C10.6303 21.8568 11.1503 21.7068 11.6903 21.3968L11.9703 21.2468C12.3903 21.0268 12.6803 20.8668 12.8403 20.4068C12.8403 21.7868 12.3903 22.8468 11.6103 23.2968C11.1003 23.5868 10.6003 23.7368 10.0903 23.7368C9.73033 23.7368 9.40032 23.6668 9.11032 23.5968C8.86032 23.5468 8.63034 23.4868 8.41034 23.4868C8.29034 23.4868 8.19033 23.4968 8.09033 23.5268C7.87033 23.5868 7.58033 23.7868 7.21033 24.0368C6.48033 24.5268 5.49031 25.1868 4.51031 25.1868L4.52032 25.1968Z" fill="#DDDDDD"/>
<path d="M1.03168 19.6169C1.44168 20.8769 2.10168 21.9669 2.97168 22.7769C3.42168 23.1969 3.94167 23.4069 4.52167 23.4069C5.57167 23.4069 6.60166 22.7169 7.35166 22.2169C7.69166 21.9869 7.99167 21.7869 8.17167 21.7369C8.25167 21.7169 8.33168 21.7069 8.43168 21.7069C8.63168 21.7069 8.84167 21.7569 9.08167 21.8069C9.38167 21.8769 9.72167 21.9469 10.1117 21.9469C10.6617 21.9469 11.1917 21.7969 11.7417 21.4769C11.8417 21.4169 11.9317 21.3669 12.0217 21.3269C12.3317 21.1569 12.5917 21.0169 12.7717 20.7569C12.6917 21.9369 12.2717 22.8469 11.5917 23.2369C11.0917 23.5269 10.6117 23.6669 10.1117 23.6669C9.76167 23.6669 9.45168 23.5969 9.15168 23.5369C8.90168 23.4769 8.66168 23.4269 8.44169 23.4269C8.32169 23.4269 8.20166 23.4469 8.10166 23.4769C7.87166 23.5469 7.58166 23.7469 7.20166 23.9969C6.48166 24.4769 5.50166 25.1369 4.54166 25.1369C4.03166 25.1369 3.59169 24.9569 3.19168 24.5869C2.15168 23.6269 1.36167 21.5369 1.05167 19.6269M0.741673 17.3369C0.561673 19.3969 1.45168 23.1969 3.06168 24.6869C3.52168 25.1169 4.02166 25.2769 4.51166 25.2769C6.00166 25.2769 7.49167 23.7969 8.11167 23.6069C8.21167 23.5769 8.31169 23.5669 8.41169 23.5669C8.88169 23.5669 9.41168 23.8069 10.0917 23.8069C10.5317 23.8069 11.0417 23.7069 11.6417 23.3569C12.6317 22.7869 13.0117 21.3269 12.8817 19.7769C12.7817 20.8569 12.3817 20.9169 11.6417 21.3369C11.0417 21.6769 10.5317 21.7869 10.0917 21.7869C9.41168 21.7869 8.88169 21.5469 8.41169 21.5469C8.31169 21.5469 8.21167 21.5569 8.11167 21.5869C7.48167 21.7669 5.99166 23.2569 4.51166 23.2569C4.02166 23.2569 3.52168 23.0969 3.06168 22.6669C1.72168 21.4169 0.881673 19.4469 0.741673 17.3369Z" fill="#999993"/>
</g>
</svg>
