<svg width="11" height="24" viewBox="0 0 11 24" fill="none" xmlns="http://www.w3.org/2000/svg">
<mask id="mask0_254_12840" style="mask-type:luminance" maskUnits="userSpaceOnUse" x="0" y="13" width="11" height="11">
<path d="M10.3225 16.2171C11.0925 17.9471 10.6426 22.6171 8.92255 22.6171C7.20255 22.6171 6.76256 22.3471 6.11256 22.9971C5.46256 23.6471 4.49255 22.6771 3.95255 22.7771C3.41255 22.8871 1.43255 24.3371 0.882546 21.4271C0.332546 18.5171 0.282553 14.1971 1.95255 14.5271C6.08255 15.3271 5.07255 10.9671 8.32255 15.3871C8.91255 16.1971 9.67255 14.7571 10.3225 16.2171Z" fill="white"/>
</mask>
<g mask="url(#mask0_254_12840)">
<path d="M2.39578 23.167C1.65578 23.167 1.18579 22.597 0.96579 21.417C0.83579 20.707 0.735781 19.967 0.675781 19.237C0.695781 19.337 0.7058 19.427 0.7258 19.537C0.9358 20.667 1.41577 21.237 2.13577 21.237C2.63577 21.237 3.1558 20.967 3.5358 20.767C3.7158 20.667 3.87579 20.587 3.96579 20.567C3.96579 20.567 3.98579 20.567 3.99579 20.567C4.23579 20.567 4.44578 20.657 4.67578 20.757C4.96578 20.877 5.2658 21.007 5.5658 21.007C5.8058 21.007 5.9958 20.927 6.1658 20.757C6.5158 20.407 6.7958 20.347 7.2258 20.347C7.3858 20.347 7.5658 20.347 7.7858 20.367C8.0958 20.387 8.45578 20.407 8.92578 20.407C9.80578 20.407 10.3658 19.847 10.6158 18.707C10.5858 20.047 10.2758 21.517 9.65579 22.187C9.43579 22.427 9.19578 22.547 8.92578 22.547C8.46578 22.547 8.09578 22.527 7.79578 22.517C7.57578 22.507 7.39578 22.497 7.23578 22.497C6.77578 22.497 6.4558 22.567 6.0658 22.957C5.9258 23.097 5.76578 23.157 5.57578 23.157C5.30578 23.157 5.02579 23.037 4.74579 22.917C4.49579 22.807 4.25579 22.707 4.05579 22.707H3.95578C3.85578 22.727 3.73578 22.777 3.57578 22.847C3.26578 22.977 2.8358 23.157 2.4158 23.157L2.39578 23.167Z" fill="#DDDDDD"/>
<path d="M10.4941 19.3268C10.3941 20.4568 10.1041 21.5768 9.5941 22.1368C9.3941 22.3568 9.16408 22.4668 8.92408 22.4668C8.46408 22.4668 8.09409 22.4468 7.80409 22.4368C7.58409 22.4268 7.40408 22.4168 7.23408 22.4168C6.75408 22.4168 6.41408 22.4968 6.01408 22.8968C5.89408 23.0168 5.75408 23.0768 5.57408 23.0768C5.32408 23.0768 5.04409 22.9568 4.77409 22.8468C4.51409 22.7368 4.27409 22.6368 4.05409 22.6368C4.01409 22.6368 3.97409 22.6368 3.93409 22.6468C3.83409 22.6668 3.7041 22.7268 3.5341 22.7968C3.2241 22.9268 2.80409 23.1068 2.40409 23.1068C1.70409 23.1068 1.26408 22.5568 1.04408 21.4168C0.974079 21.0468 0.914086 20.6768 0.864086 20.2968C1.13409 20.9768 1.56408 21.3268 2.14408 21.3268C2.66408 21.3268 3.19409 21.0468 3.58409 20.8468C3.75409 20.7568 3.91409 20.6768 3.99409 20.6568C4.01409 20.6568 4.03409 20.6568 4.05409 20.6568C4.21409 20.6568 4.42409 20.7468 4.65409 20.8468C4.94409 20.9668 5.26408 21.1068 5.57408 21.1068C5.82408 21.1068 6.0441 21.0168 6.2241 20.8368C6.5541 20.5068 6.81408 20.4468 7.23408 20.4468C7.39408 20.4468 7.5741 20.4468 7.7841 20.4668C8.0841 20.4868 8.46408 20.5068 8.92408 20.5068C9.67408 20.5068 10.1941 20.1268 10.5041 19.3568M0.564098 17.1768C0.494098 18.5068 0.644085 20.1068 0.894085 21.4268C1.16408 22.8568 1.78408 23.2368 2.39408 23.2368C3.00408 23.2368 3.68408 22.8368 3.95408 22.7768C3.98408 22.7768 4.01408 22.7768 4.04408 22.7768C4.44408 22.7768 5.0441 23.2268 5.5641 23.2268C5.7541 23.2268 5.94408 23.1668 6.10408 23.0068C6.45408 22.6568 6.74409 22.5768 7.21409 22.5768C7.60409 22.5768 8.12409 22.6368 8.90409 22.6368C10.2341 22.6368 10.8041 19.8668 10.6441 17.7968C10.5141 19.5168 9.94409 20.3468 8.90409 20.3468C8.12409 20.3468 7.60409 20.2868 7.21409 20.2868C6.74409 20.2868 6.45408 20.3668 6.10408 20.7168C5.94408 20.8768 5.7541 20.9368 5.5641 20.9368C5.0341 20.9368 4.44408 20.4868 4.04408 20.4868C4.01408 20.4868 3.98408 20.4868 3.95408 20.4868C3.65408 20.5468 2.86408 21.1568 2.13408 21.1568C1.57407 21.1568 1.04409 20.7868 0.804088 19.5168C0.644088 18.6468 0.604098 18.1368 0.564098 17.1768Z" fill="#999993"/>
</g>
</svg>
