<svg width="10" height="26" viewBox="0 0 10 26" fill="none" xmlns="http://www.w3.org/2000/svg">
<mask id="mask0_254_12830" style="mask-type:luminance" maskUnits="userSpaceOnUse" x="0" y="0" width="10" height="13">
<path d="M7.88849 9.55663C8.7185 8.72663 9.2185 6.21663 9.1485 4.81663C9.0785 3.41663 8.5785 3.32663 7.4285 2.38663C6.2885 1.44663 4.8685 0.366631 3.8285 1.05663C1.1985 2.80663 -0.461488 1.75663 0.718512 6.00663C1.31851 8.15663 1.10849 9.50663 1.97849 10.3566C2.84849 11.2066 3.94851 12.2766 5.02851 11.9566C6.10851 11.6366 7.3285 10.1166 7.88849 9.55663Z" fill="white"/>
</mask>
<g mask="url(#mask0_254_12830)">
<path d="M9.04957 5.61723C8.92957 5.38723 8.73957 5.35723 8.50957 5.31723C8.23957 5.27723 7.90959 5.21722 7.46959 4.85722C6.54959 4.09722 5.48958 3.29723 4.55959 3.29723C4.26959 3.29723 4.00959 3.37723 3.77959 3.52723C2.92959 4.09723 2.18956 4.14723 1.59956 4.18723C1.10956 4.21723 0.699589 4.24723 0.469589 4.59723C0.199589 2.84723 0.809568 2.58722 1.97957 2.08722C2.49957 1.86722 3.14957 1.58723 3.85957 1.11723C4.05957 0.977226 4.29958 0.907227 4.54958 0.907227C5.42958 0.907227 6.45957 1.69723 7.35957 2.43723C7.56957 2.60723 7.74957 2.74722 7.91957 2.87722C8.67957 3.45722 8.99957 3.69723 9.04957 4.81723C9.05958 5.04723 9.04957 5.32723 9.03957 5.61723H9.04957Z" fill="#DDDDDD"/>
<path d="M4.55908 0.996918C5.40908 0.996918 6.42907 1.77692 7.32907 2.50692C7.53907 2.67692 7.71907 2.81691 7.88907 2.94691C8.62907 3.51691 8.93907 3.74692 8.98907 4.82692C8.98907 5.00692 8.98907 5.20691 8.98907 5.42691C8.85907 5.31691 8.69907 5.28692 8.51907 5.25692C8.25907 5.21692 7.93907 5.15692 7.51907 4.80692C6.58907 4.04692 5.50908 3.22692 4.55908 3.22692C4.25908 3.22692 3.97907 3.30692 3.73907 3.46692C2.89907 4.02692 2.17906 4.07692 1.59906 4.11692C1.16906 4.14692 0.78908 4.17691 0.52908 4.42691C0.32908 2.88691 0.88907 2.64692 2.01907 2.16692C2.53907 1.94692 3.19906 1.66692 3.91906 1.18692C4.10906 1.05692 4.32906 0.996918 4.56906 0.996918M4.55908 0.846916C4.29908 0.846916 4.04907 0.916917 3.82907 1.06692C1.47907 2.63692 -0.0909162 1.96692 0.439084 4.84692C0.809084 3.82692 2.10907 4.74692 3.82907 3.59692C4.05907 3.44692 4.29908 3.37691 4.55908 3.37691C5.46908 3.37691 6.52906 4.18691 7.41906 4.92691C8.41906 5.74691 8.92908 5.05692 9.08908 6.00692C9.13908 5.57692 9.15907 5.16692 9.13907 4.81692C9.06907 3.41692 8.56906 3.32692 7.41906 2.38692C6.52906 1.65692 5.46908 0.836914 4.55908 0.836914V0.846916Z" fill="#999993"/>
</g>
</svg>
