<svg width="11" height="25" viewBox="0 0 11 25" fill="none" xmlns="http://www.w3.org/2000/svg">
<mask id="mask0_254_12820" style="mask-type:luminance" maskUnits="userSpaceOnUse" x="0" y="0" width="11" height="13">
<path d="M10.6398 7.41725C11.0698 5.60725 10.5998 3.60725 9.26978 2.76725C7.93978 1.92725 5.69976 0.367247 4.59976 0.787247C3.49976 1.21725 3.37978 1.70725 2.64978 2.02725C1.91978 2.33725 0.749764 3.81725 0.849764 5.82725C0.949764 7.83725 2.61979 9.23725 2.96979 10.0373C3.31979 10.8373 5.88978 13.2272 7.57978 11.5872C9.25978 9.94725 9.87977 10.6172 10.6398 7.41725Z" fill="white"/>
</mask>
<g mask="url(#mask0_254_12820)">
<path d="M10.6899 6.54688C10.5099 5.99687 10.1699 5.80688 9.70991 5.54688C9.57991 5.47687 9.4499 5.39687 9.2999 5.30687L8.8899 5.04688C7.7099 4.28688 6.08989 3.24688 5.00989 3.24688C4.83989 3.24688 4.68991 3.27687 4.55991 3.32687C3.92991 3.56687 3.6099 3.84687 3.3299 4.07687C3.1199 4.25687 2.9199 4.42687 2.6099 4.55687L2.37989 4.64687C1.85989 4.84687 1.22992 5.08687 0.939916 6.07687C0.929916 5.99687 0.919897 5.90687 0.919897 5.82687C0.819897 3.79687 2.0299 2.37687 2.6699 2.10687C2.9999 1.96687 3.20991 1.78687 3.42991 1.59687C3.71991 1.35687 4.00991 1.10687 4.61991 0.866875C4.72991 0.826875 4.8699 0.796875 5.0199 0.796875C6.0499 0.796875 7.64991 1.82687 8.80991 2.57687L9.21992 2.83687C10.2499 3.48687 10.8099 4.94687 10.6799 6.55687L10.6899 6.54688Z" fill="#DDDDDD"/>
<path d="M5.02979 0.866798C6.03979 0.866798 7.62977 1.8868 8.78977 2.6368L9.18979 2.8968C10.1298 3.4968 10.6698 4.7868 10.6398 6.2368C10.4298 5.8668 10.1298 5.6968 9.75977 5.4868C9.63977 5.4168 9.49976 5.3368 9.34976 5.2468L8.94977 4.9868C7.75977 4.2168 6.12979 3.1768 5.02979 3.1768C4.84979 3.1768 4.68978 3.2068 4.54978 3.2568C3.90978 3.5068 3.58978 3.7768 3.29978 4.0268C3.07978 4.2068 2.88976 4.3668 2.59976 4.4968C2.52976 4.5268 2.44978 4.5568 2.36978 4.5868C1.91978 4.7568 1.33979 4.9768 0.999789 5.7468C0.939789 3.7968 2.09978 2.4368 2.70978 2.1768C3.04978 2.0268 3.25978 1.8468 3.48978 1.6568C3.76978 1.4168 4.05978 1.1668 4.64978 0.936798C4.75978 0.896798 4.87978 0.876797 5.01978 0.876797M5.02979 0.716797C4.86979 0.716797 4.72976 0.736797 4.59976 0.786797C3.49976 1.2168 3.37978 1.7068 2.64978 2.0268C1.91978 2.3368 0.749764 3.8168 0.849764 5.8268C0.859764 6.0368 0.899791 6.2368 0.939791 6.4368C1.20979 5.0168 2.06978 4.8768 2.64978 4.6268C3.37978 4.3168 3.49976 3.8168 4.59976 3.3868C4.72976 3.3368 4.86979 3.3168 5.02979 3.3168C6.20979 3.3168 8.09978 4.6168 9.26978 5.3668C10.0698 5.8668 10.5498 5.9268 10.7198 6.9768C10.9798 5.2968 10.4898 3.5368 9.26978 2.7668C8.09978 2.0268 6.20979 0.716797 5.02979 0.716797Z" fill="#999993"/>
</g>
</svg>
