<svg width="14" height="25" viewBox="0 0 14 25" fill="none" xmlns="http://www.w3.org/2000/svg">
<mask id="mask0_254_12810" style="mask-type:luminance" maskUnits="userSpaceOnUse" x="0" y="0" width="14" height="11">
<path d="M13.3178 8.80729C13.9778 6.93729 14.4278 3.76729 12.7878 2.64729C8.42775 -0.332708 7.58777 1.41729 6.02777 1.12729C4.86777 0.907292 2.50775 0.427291 1.06775 1.42729C-0.372247 2.42729 0.0477613 6.74729 0.857761 8.1073C1.65776 9.46729 2.71775 9.62729 4.03775 9.54729C5.34775 9.46729 6.95778 10.5673 8.65778 10.0573C10.3478 9.54729 12.8078 10.2973 13.3278 8.81729L13.3178 8.80729Z" fill="white"/>
</mask>
<g mask="url(#mask0_254_12810)">
<path d="M13.8264 5.72746C13.6964 5.38746 13.4864 5.25746 13.1764 5.06746C13.0764 5.00746 12.9564 4.93746 12.8264 4.84746C11.0464 3.62746 9.65638 3.06746 8.46638 3.06746C8.00638 3.06746 7.61637 3.14746 7.26637 3.22746C6.96637 3.28746 6.68638 3.34746 6.39638 3.34746C6.27638 3.34746 6.15636 3.34746 6.03636 3.31746L5.91636 3.29746C5.30636 3.17746 4.37636 3.00746 3.44636 3.00746C2.43636 3.00746 1.61638 3.21746 1.02638 3.62746C0.546381 3.95746 0.356363 4.28746 0.196363 4.75746C0.146363 3.13746 0.476367 1.92746 1.10637 1.48746C1.67637 1.09746 2.45636 0.897461 3.44636 0.897461C4.36636 0.897461 5.27637 1.06746 5.88637 1.18746L6.00636 1.20746C6.13636 1.22746 6.26638 1.24746 6.39638 1.24746C6.70638 1.24746 6.98637 1.18746 7.29637 1.11746C7.64637 1.03746 8.01638 0.967461 8.46638 0.967461C9.62638 0.967461 10.9864 1.52746 12.7464 2.72746C13.6664 3.35746 13.8664 4.62746 13.8364 5.74746L13.8264 5.72746Z" fill="#DDDDDD"/>
<path d="M3.44812 0.807617V0.957619C4.35812 0.957619 5.26811 1.12762 5.87811 1.24762L5.99814 1.26762C6.12814 1.28762 6.26813 1.30762 6.39813 1.30762C6.70813 1.30762 7.00811 1.24762 7.31811 1.17762C7.66811 1.10762 8.02814 1.02762 8.46814 1.02762C9.18814 1.02762 10.4081 1.20762 12.7081 2.76762C13.5281 3.32762 13.7581 4.40762 13.7681 5.43762C13.6381 5.25762 13.4581 5.14762 13.2281 5.00762C13.1281 4.94762 13.0081 4.87762 12.8781 4.78762C11.0781 3.55762 9.67812 2.98762 8.47812 2.98762C8.00812 2.98762 7.60813 3.06762 7.26813 3.14762C6.97813 3.20762 6.69812 3.26762 6.41812 3.26762C6.29812 3.26762 6.18811 3.25762 6.06811 3.23762L5.94812 3.21762C5.33812 3.09762 4.40814 2.92762 3.46814 2.92762C2.43814 2.92762 1.60812 3.13762 1.00812 3.55762C0.648116 3.80762 0.438125 4.05762 0.298125 4.36762C0.308125 3.18762 0.54813 1.98762 1.17813 1.54762C1.72813 1.15762 2.50814 0.967617 3.46814 0.967617V0.817619M3.44812 0.807617C2.59812 0.807617 1.73811 0.947618 1.06811 1.41762C0.248114 1.98762 0.0381311 3.61762 0.148131 5.16762C0.358131 4.44762 0.498114 4.07762 1.06811 3.67762C1.73811 3.21762 2.59812 3.06762 3.44812 3.06762C4.43812 3.06762 5.40814 3.25762 6.02814 3.37762C6.15814 3.39762 6.27814 3.40762 6.40814 3.40762C7.04814 3.40762 7.61812 3.12762 8.47812 3.12762C9.41812 3.12762 10.6981 3.46762 12.7981 4.89762C13.4881 5.36762 13.7981 5.33762 13.8781 6.28762C14.0181 4.81762 13.8081 3.32762 12.7981 2.63762C10.6981 1.20762 9.41812 0.867619 8.47812 0.867619C7.62812 0.867619 7.05814 1.14762 6.40814 1.14762C6.28814 1.14762 6.15814 1.13762 6.02814 1.11762C5.40814 0.997619 4.43812 0.807617 3.44812 0.807617Z" fill="#999993"/>
</g>
</svg>
