<svg width="13" height="24" viewBox="0 0 13 24" fill="none" xmlns="http://www.w3.org/2000/svg">
<mask id="mask0_254_12800" style="mask-type:luminance" maskUnits="userSpaceOnUse" x="0" y="0" width="13" height="11">
<path d="M11.4377 8.70718C12.3277 6.85718 12.7577 3.21718 10.5077 2.07718C8.25767 0.937183 6.57768 2.15718 5.48768 1.46718C4.40768 0.787182 1.14769 -0.0428157 0.49769 2.65718C-0.15231 5.35718 0.357682 7.60718 0.677682 8.37718C0.997682 9.14718 1.94768 8.88718 2.76768 8.72718C3.58768 8.56718 5.04768 10.1472 5.89768 10.1472C7.98768 10.1672 8.66767 8.28718 9.66767 8.37718C10.6677 8.46718 10.9877 9.63718 11.4377 8.70718Z" fill="white"/>
</mask>
<g mask="url(#mask0_254_12800)">
<path d="M12.0385 6.04719C11.7485 5.31719 11.3685 5.12719 10.5285 4.69719C9.82853 4.33719 9.11851 4.17719 8.29851 4.17719C7.90851 4.17719 7.53851 4.21719 7.19851 4.24719C6.90851 4.27719 6.63851 4.30719 6.38851 4.30719C6.00851 4.30719 5.73851 4.24719 5.50851 4.09719C4.90851 3.71719 3.78853 3.30719 2.77853 3.30719C1.88853 3.30719 0.748501 3.62719 0.378501 5.12719C0.378501 5.12719 0.248517 5.62719 0.238517 5.66719C0.198517 4.66719 0.308514 3.66719 0.548514 2.67719C0.908514 1.18719 2.06851 0.867188 2.97851 0.867188C3.88851 0.867188 4.91852 1.21719 5.42852 1.53719C5.67852 1.69719 5.98851 1.76719 6.38851 1.76719C6.63851 1.76719 6.91852 1.73719 7.20852 1.70719C7.54852 1.67719 7.9085 1.63719 8.2885 1.63719C9.0785 1.63719 9.76851 1.79719 10.4485 2.14719C12.0385 2.95719 12.1185 4.94719 12.0285 6.05719L12.0385 6.04719Z" fill="#DDDDDD"/>
<path d="M2.98909 0.937111C3.92909 0.937111 4.89909 1.27711 5.39909 1.58711C5.65909 1.75711 5.97909 1.82711 6.39909 1.82711C6.65909 1.82711 6.93908 1.79711 7.22908 1.76711C7.56908 1.72711 7.91909 1.69711 8.30909 1.69711C9.08909 1.69711 9.75909 1.85711 10.4291 2.19711C11.8491 2.91711 12.0291 4.62711 11.9891 5.73711C11.6991 5.18711 11.2991 4.98711 10.5691 4.61711C9.85907 4.25711 9.13909 4.08711 8.30909 4.08711C7.90909 4.08711 7.53908 4.12711 7.19908 4.15711C6.90908 4.18711 6.63909 4.21711 6.39909 4.21711C6.03909 4.21711 5.77909 4.15711 5.55909 4.01711C4.94909 3.63711 3.81908 3.21711 2.78908 3.21711C1.86908 3.21711 0.709074 3.53711 0.319074 5.06711C0.329074 4.26711 0.439071 3.46711 0.629071 2.67711C0.979071 1.22711 2.10909 0.927109 2.98909 0.927109M2.98909 0.787109C1.89909 0.787109 0.829087 1.22711 0.489087 2.65711C0.159087 4.00711 0.129089 5.23711 0.209089 6.22711C0.309089 5.65711 0.309089 5.74711 0.459089 5.13711C0.789089 3.79711 1.75908 3.37711 2.78908 3.37711C3.82908 3.37711 4.93908 3.80711 5.47908 4.15711C5.74908 4.32711 6.05909 4.37711 6.39909 4.37711C6.93909 4.37711 7.57909 4.24711 8.30909 4.24711C8.96909 4.24711 9.6991 4.35711 10.4991 4.76711C11.4591 5.25711 11.7891 5.43711 12.0891 6.39711C12.3091 4.69711 11.9891 2.84711 10.4991 2.08711C9.6991 1.67711 8.96909 1.56711 8.30909 1.56711C7.57909 1.56711 6.94909 1.69711 6.39909 1.69711C6.05909 1.69711 5.74908 1.64711 5.47908 1.47711C4.96908 1.15711 3.96909 0.797112 2.98909 0.797112V0.787109Z" fill="#999993"/>
</g>
</svg>
