<svg width="12" height="22" viewBox="0 0 12 22" fill="none" xmlns="http://www.w3.org/2000/svg">
<mask id="mask0_254_12790" style="mask-type:luminance" maskUnits="userSpaceOnUse" x="0" y="0" width="12" height="9">
<path d="M9.9885 8.38683C11.1485 7.55683 11.9685 5.56682 11.5985 3.46682C11.2285 1.36682 10.1885 1.90682 9.63849 1.80682C9.09849 1.70682 8.1585 0.776823 6.7685 1.05682C5.3785 1.33682 4.84849 1.17682 3.53849 0.876823C2.22849 0.576823 0.938494 1.41682 0.888494 3.29682C0.838494 5.17683 0.888491 6.75682 1.72849 7.45682C2.56849 8.14682 5.09851 7.25682 5.93851 7.45682C6.77851 7.65682 8.2085 9.67683 9.9885 8.39683V8.38683Z" fill="white"/>
</mask>
<g mask="url(#mask0_254_12790)">
<path d="M11.5992 4.85672C11.2892 4.28672 10.5992 4.24672 10.0792 4.22672C9.91922 4.22672 9.77924 4.20672 9.65924 4.18672C9.50924 4.15672 9.30922 4.05672 9.07922 3.93672C8.63922 3.70672 8.03922 3.38672 7.28922 3.38672C7.11922 3.38672 6.93922 3.40672 6.75922 3.43672C6.27922 3.53672 5.88924 3.57672 5.52924 3.57672C4.96924 3.57672 4.50923 3.46672 3.80923 3.30672L3.55923 3.24672C3.09923 3.14672 2.73922 3.09672 2.41922 3.09672C1.65922 3.09672 1.16922 3.40672 0.949219 4.03672C0.949219 3.79672 0.949229 3.54672 0.959229 3.29672C0.999229 1.63672 2.02923 0.886719 3.01923 0.886719C3.18923 0.886719 3.34923 0.906716 3.51923 0.946716L3.77924 1.00672C4.48924 1.16672 4.95924 1.27672 5.52924 1.27672C5.89924 1.27672 6.29922 1.22672 6.78922 1.12672C6.95922 1.08672 7.12922 1.07672 7.28922 1.07672C7.99922 1.07672 8.55922 1.37672 9.00922 1.61672C9.24922 1.74672 9.45921 1.85672 9.62921 1.88672C9.68921 1.89672 9.75922 1.90672 9.82922 1.90672H10.1992C10.7392 1.90672 11.2692 2.08672 11.5192 3.48672C11.5992 3.92672 11.6192 4.39672 11.5892 4.86672L11.5992 4.85672Z" fill="#DDDDDD"/>
<path d="M3.02827 0.956642C3.18827 0.956642 3.34825 0.97664 3.50825 1.01664L3.75825 1.07664C4.44825 1.23664 4.94827 1.34664 5.52827 1.34664C5.89827 1.34664 6.30826 1.29664 6.79826 1.19664C6.95826 1.16664 7.12825 1.14664 7.28825 1.14664C7.97825 1.14664 8.52827 1.43664 8.96827 1.67664C9.21827 1.80664 9.42826 1.91664 9.60826 1.95664C9.67826 1.96664 9.74825 1.97664 9.81825 1.97664C9.87825 1.97664 9.93827 1.97664 9.99827 1.97664C10.0583 1.97664 10.1283 1.97664 10.1883 1.97664C10.6583 1.97664 11.1883 2.09664 11.4383 3.50664C11.5083 3.87664 11.5283 4.25664 11.5183 4.64664C11.1583 4.22664 10.5382 4.18664 10.0682 4.16664C9.91825 4.16664 9.76828 4.14664 9.65828 4.12664C9.51828 4.09664 9.32825 3.99664 9.09825 3.87664C8.64825 3.63664 8.03827 3.31664 7.27827 3.31664C7.09827 3.31664 6.91825 3.33664 6.72825 3.36664C6.24825 3.46664 5.86826 3.50664 5.51826 3.50664C4.96826 3.50664 4.50825 3.39664 3.81825 3.23664L3.56825 3.17664C3.09825 3.06664 2.73825 3.01664 2.41825 3.01664C1.75825 3.01664 1.29827 3.23664 1.02827 3.67664C1.02827 3.55664 1.02827 3.42664 1.02827 3.28664C1.06827 1.67664 2.05825 0.956642 3.00825 0.956642M3.02827 0.806641C1.90827 0.806641 0.938266 1.65664 0.898266 3.28664C0.888266 3.83664 0.878266 4.36664 0.898266 4.84664C0.938266 3.53664 1.58826 3.16664 2.42826 3.16664C2.77826 3.16664 3.15826 3.22664 3.54826 3.31664C4.38826 3.50664 4.90825 3.64664 5.53825 3.64664C5.88825 3.64664 6.27827 3.60664 6.77827 3.50664C6.95827 3.46664 7.12826 3.45664 7.29826 3.45664C8.40826 3.45664 9.17827 4.17664 9.64827 4.26664C10.1883 4.36664 11.2883 4.17664 11.6083 5.05664C11.6383 5.13664 11.6283 5.21664 11.6383 5.29664C11.7183 4.71664 11.7283 4.10664 11.6083 3.47664C11.3383 1.97664 10.7383 1.82664 10.2083 1.82664C10.0783 1.82664 9.94827 1.82664 9.83827 1.82664C9.76827 1.82664 9.70827 1.82664 9.64827 1.81664C9.17827 1.72664 8.40826 1.00664 7.29826 1.00664C7.13826 1.00664 6.95827 1.02664 6.77827 1.05664C6.27827 1.15664 5.88825 1.19664 5.53825 1.19664C4.90825 1.19664 4.38826 1.05664 3.54826 0.866642C3.37826 0.826642 3.19827 0.806641 3.02827 0.806641Z" fill="#999993"/>
</g>
</svg>
