<svg width="9" height="26" viewBox="0 0 9 26" fill="none" xmlns="http://www.w3.org/2000/svg">
<mask id="mask0_254_12938" style="mask-type:luminance" maskUnits="userSpaceOnUse" x="0" y="0" width="9" height="13">
<path d="M1.27823 9.56737C0.448232 8.73737 -0.0517773 6.22737 0.0182227 4.82737C0.0882227 3.42737 0.588224 3.33737 1.73822 2.39737C2.87822 1.45737 4.29823 0.377374 5.33823 1.06737C7.96823 2.81737 9.62822 1.76737 8.44822 6.01737C7.84822 8.16737 8.05824 9.51737 7.18824 10.3674C6.31824 11.2174 5.21822 12.2874 4.13822 11.9674C3.05822 11.6474 1.83823 10.1274 1.27823 9.56737Z" fill="white"/>
</mask>
<g mask="url(#mask0_254_12938)">
<path d="M0.110752 5.62699C0.090752 5.33699 0.0807423 5.06699 0.100742 4.82699C0.150742 3.71699 0.470747 3.47699 1.23075 2.88699C1.40075 2.75699 1.58074 2.61699 1.79074 2.44699C2.69074 1.70699 3.73074 0.916992 4.60074 0.916992C4.86074 0.916992 5.09074 0.986991 5.29074 1.12699C6.00074 1.60699 6.65075 1.87699 7.17075 2.09699C8.34075 2.59699 8.95076 2.85699 8.68076 4.60699C8.45076 4.25699 8.04075 4.23699 7.55075 4.19699C6.96075 4.15699 6.22076 4.10699 5.37076 3.53699C5.14076 3.38699 4.88076 3.30699 4.59076 3.30699C3.66076 3.30699 2.60076 4.11699 1.68076 4.86699C1.24076 5.22699 0.910751 5.28699 0.640751 5.32699C0.410751 5.36699 0.220742 5.39699 0.100742 5.62699H0.110752Z" fill="#DDDDDD"/>
<path d="M4.59937 1.00742C4.83937 1.00742 5.0594 1.06742 5.2494 1.19742C5.9694 1.67742 6.61939 1.95742 7.14939 2.17742C8.27939 2.65742 8.83938 2.89742 8.63938 4.43742C8.37938 4.18742 7.98937 4.15742 7.56937 4.12742C6.98937 4.08742 6.25939 4.03742 5.42939 3.47742C5.18939 3.31742 4.90938 3.23742 4.60938 3.23742C3.65938 3.23742 2.58939 4.05742 1.64939 4.81742C1.22939 5.16742 0.90939 5.21742 0.64939 5.26742C0.46939 5.29742 0.309389 5.32742 0.179389 5.43742C0.169389 5.21742 0.169389 5.01742 0.179389 4.83742C0.229389 3.75742 0.539395 3.52742 1.27939 2.95742C1.44939 2.82742 1.62939 2.68742 1.83939 2.51742C2.72939 1.78742 3.74938 1.00742 4.60938 1.00742M4.59937 0.857422C3.68937 0.857422 2.62939 1.66742 1.73939 2.40742C0.599386 3.34742 0.0893848 3.43742 0.0193848 4.83742C-0.000615157 5.17742 0.0193726 5.58742 0.0693726 6.02742C0.229373 5.06742 0.739386 5.75742 1.73939 4.94742C2.62939 4.21742 3.68937 3.39742 4.59937 3.39742C4.85937 3.39742 5.10938 3.46742 5.32938 3.61742C7.04938 4.76742 8.3494 3.84742 8.7194 4.86742C9.2494 1.98742 7.67938 2.65742 5.32938 1.08742C5.09938 0.937421 4.85937 0.867424 4.59937 0.867424V0.857422Z" fill="#999993"/>
</g>
</svg>
