<svg width="11" height="25" viewBox="0 0 11 25" fill="none" xmlns="http://www.w3.org/2000/svg">
<mask id="mask0_254_12928" style="mask-type:luminance" maskUnits="userSpaceOnUse" x="0" y="0" width="11" height="13">
<path d="M0.529632 7.42701C0.0996315 5.61701 0.569642 3.61701 1.89964 2.77701C3.22964 1.93701 5.46964 0.377012 6.56964 0.797012C7.66964 1.22701 7.78964 1.71701 8.51964 2.03701C9.24964 2.34701 10.4196 3.82701 10.3196 5.83701C10.2196 7.83701 8.54963 9.24701 8.19963 10.047C7.84963 10.847 5.27964 13.237 3.58964 11.597C1.90964 9.95701 1.28963 10.627 0.529632 7.42701Z" fill="white"/>
</mask>
<g mask="url(#mask0_254_12928)">
<path d="M0.471683 6.55687C0.341683 4.94687 0.901689 3.48687 1.93169 2.83687L2.33168 2.57687C3.50168 1.82687 5.10169 0.796875 6.13169 0.796875C6.28169 0.796875 6.41168 0.816875 6.53168 0.866875C7.14168 1.09687 7.43168 1.35687 7.72168 1.59687C7.94168 1.78687 8.15169 1.96687 8.48169 2.10687C9.12169 2.38687 10.3417 3.79687 10.2317 5.82687C10.2317 5.91687 10.2217 5.99687 10.2117 6.07687C9.91169 5.08687 9.28169 4.84687 8.77169 4.64687L8.54169 4.55687C8.23169 4.42687 8.03169 4.25687 7.82169 4.07687C7.54169 3.83687 7.22169 3.56687 6.59169 3.32687C6.46169 3.27687 6.31168 3.24688 6.14168 3.24688C5.07168 3.24688 3.45169 4.28688 2.26169 5.04688L1.86168 5.30687C1.71168 5.39687 1.58168 5.47687 1.45168 5.54688C0.991678 5.80688 0.661683 5.99687 0.471683 6.54688V6.55687Z" fill="#DDDDDD"/>
<path d="M6.14052 0.87656C6.28052 0.87656 6.41053 0.896562 6.51053 0.936562C7.10053 1.16656 7.39052 1.41656 7.67052 1.65656C7.90052 1.84656 8.11052 2.02656 8.45052 2.17656C9.07052 2.44656 10.2305 3.79656 10.1605 5.74656C9.82052 4.98656 9.24053 4.75656 8.79053 4.58656C8.71053 4.55656 8.64052 4.52656 8.56052 4.49656C8.26052 4.36656 8.07052 4.20656 7.86052 4.02656C7.57052 3.78656 7.25052 3.50656 6.61052 3.25656C6.47052 3.20656 6.31052 3.17656 6.13052 3.17656C5.03052 3.17656 3.40053 4.22656 2.21053 4.98656L1.81052 5.24656C1.66052 5.33656 1.53053 5.41656 1.40053 5.48656C1.03053 5.69656 0.730523 5.87656 0.520523 6.23656C0.480523 4.78656 1.03052 3.49656 1.97052 2.89656L2.37053 2.63656C3.53053 1.88656 5.12052 0.866562 6.13052 0.866562M6.14052 0.726562C4.96052 0.726562 3.07053 2.02656 1.90053 2.77656C0.680528 3.54656 0.190516 5.30656 0.450516 6.98656C0.620516 5.93656 1.10053 5.87656 1.90053 5.37656C3.07053 4.63656 4.96052 3.32656 6.14052 3.32656C6.30052 3.32656 6.44053 3.34656 6.57053 3.39656C7.67053 3.82656 7.79052 4.31656 8.52052 4.63656C9.10052 4.88656 9.96053 5.02656 10.2305 6.44656C10.2705 6.24656 10.3105 6.04656 10.3205 5.83656C10.4205 3.83656 9.25052 2.35656 8.52052 2.03656C7.79052 1.72656 7.67053 1.22656 6.57053 0.796562C6.44053 0.746562 6.30052 0.726562 6.14052 0.726562Z" fill="#999993"/>
</g>
</svg>
