<svg width="15" height="25" viewBox="0 0 15 25" fill="none" xmlns="http://www.w3.org/2000/svg">
<mask id="mask0_254_12918" style="mask-type:luminance" maskUnits="userSpaceOnUse" x="0" y="0" width="15" height="11">
<path d="M0.847763 8.80729C0.187763 6.93729 -0.262239 3.76729 1.37776 2.64729C5.73776 -0.332708 6.57776 1.41729 8.13776 1.12729C9.29776 0.907292 11.6578 0.427291 13.0978 1.42729C14.5378 2.42729 14.1178 6.74729 13.3078 8.1073C12.5078 9.46729 11.4478 9.62729 10.1278 9.54729C8.81776 9.46729 7.20777 10.5673 5.50777 10.0573C3.81777 9.54729 1.35777 10.2973 0.837768 8.81729L0.847763 8.80729Z" fill="white"/>
</mask>
<g mask="url(#mask0_254_12918)">
<path d="M0.330936 5.73769C0.300936 4.61769 0.500933 3.34769 1.42093 2.71769C3.18093 1.51769 4.54093 0.957695 5.70093 0.957695C6.15093 0.957695 6.51094 1.03769 6.87094 1.10769C7.17095 1.17769 7.46094 1.23769 7.77094 1.23769C7.90094 1.23769 8.03094 1.22769 8.16094 1.19769L8.28093 1.17769C8.89093 1.06769 9.80094 0.887695 10.7209 0.887695C11.7009 0.887695 12.4909 1.0877 13.0609 1.4777C13.6909 1.9177 14.0309 3.1277 13.9709 4.7477C13.8109 4.2777 13.6209 3.95769 13.1409 3.61769C12.5509 3.20769 11.7309 2.9977 10.7209 2.9977C9.79094 2.9977 8.86093 3.16769 8.25093 3.28769L8.13094 3.30769C8.01094 3.32769 7.88094 3.33769 7.77094 3.33769C7.48094 3.33769 7.20094 3.27769 6.90094 3.21769C6.56094 3.14769 6.17093 3.05769 5.70093 3.05769C4.51093 3.05769 3.12095 3.62769 1.34095 4.83769C1.21095 4.92769 1.09094 4.99769 0.99094 5.05769C0.68094 5.24769 0.460946 5.37769 0.340946 5.71769L0.330936 5.73769Z" fill="#DDDDDD"/>
<path d="M10.7195 0.967381C11.6895 0.967381 12.4595 1.16738 13.0095 1.54738C13.6495 1.98738 13.8795 3.18738 13.8895 4.36738C13.7395 4.06738 13.5395 3.81738 13.1795 3.55738C12.5695 3.13738 11.7495 2.92738 10.7195 2.92738C9.77953 2.92738 8.84953 3.09738 8.23953 3.21738L8.11954 3.23738C7.99954 3.25738 7.88953 3.26738 7.76953 3.26738C7.48953 3.26738 7.20952 3.20738 6.91952 3.14738C6.56952 3.07738 6.17953 2.98738 5.70953 2.98738C4.49953 2.98738 3.09952 3.55738 1.30952 4.78738C1.17952 4.87738 1.05953 4.94738 0.959533 5.00738C0.729533 5.14738 0.549524 5.25738 0.419524 5.43738C0.419524 4.41738 0.659537 3.32738 1.47954 2.76738C3.76954 1.20738 4.99953 1.02738 5.71953 1.02738C6.15953 1.02738 6.51954 1.10738 6.86954 1.17738C7.17954 1.24738 7.46953 1.30738 7.78953 1.30738C7.92953 1.30738 8.05953 1.29738 8.18953 1.26738L8.30952 1.24738C8.90952 1.13738 9.82953 0.957382 10.7395 0.957382M10.7195 0.817383C9.72953 0.817383 8.75953 1.00738 8.13953 1.12738C8.00953 1.14738 7.88954 1.15738 7.75954 1.15738C7.11954 1.15738 6.54953 0.87738 5.68953 0.87738C4.74953 0.87738 3.46954 1.21738 1.36954 2.64738C0.349537 3.33738 0.139535 4.82738 0.289535 6.29738C0.379535 5.34738 0.689537 5.37738 1.36954 4.90738C3.46954 3.47738 4.74953 3.13738 5.68953 3.13738C6.53953 3.13738 7.10954 3.41738 7.75954 3.41738C7.87954 3.41738 8.00953 3.40738 8.13953 3.38738C8.75953 3.26738 9.72953 3.07738 10.7195 3.07738C11.5695 3.07738 12.4295 3.21738 13.0995 3.68738C13.6695 4.08738 13.8095 4.45738 14.0195 5.17738C14.1295 3.62738 13.9095 1.99738 13.0995 1.42738C12.4295 0.96738 11.5695 0.817383 10.7195 0.817383Z" fill="#999993"/>
</g>
</svg>
