<svg width="12" height="24" viewBox="0 0 12 24" fill="none" xmlns="http://www.w3.org/2000/svg">
<mask id="mask0_254_12908" style="mask-type:luminance" maskUnits="userSpaceOnUse" x="-1" y="0" width="13" height="11">
<path d="M0.716201 8.70718C-0.173799 6.85718 -0.603791 3.21718 1.64621 2.07718C3.89621 0.937183 5.5762 2.15718 6.6662 1.46718C7.7462 0.787182 11.0062 -0.0428157 11.6562 2.65718C12.3062 5.35718 11.7962 7.60718 11.4762 8.37718C11.1562 9.14718 10.2062 8.88718 9.3862 8.72718C8.5662 8.56718 7.10621 10.1472 6.25621 10.1472C4.16621 10.1672 3.48621 8.28718 2.48621 8.37718C1.48621 8.46718 1.1662 9.63718 0.716201 8.70718Z" fill="white"/>
</mask>
<g mask="url(#mask0_254_12908)">
<path d="M0.114503 6.05719C0.0245033 4.95719 0.10449 2.95719 1.69449 2.14719C2.37449 1.79719 3.06449 1.63719 3.85449 1.63719C4.24449 1.63719 4.6045 1.67719 4.9345 1.70719C5.2245 1.73719 5.5045 1.76719 5.7545 1.76719C6.1545 1.76719 6.46449 1.69719 6.71449 1.53719C7.22449 1.21719 8.21449 0.867188 9.16449 0.867188C10.1145 0.867188 11.2345 1.17719 11.5945 2.67719C11.8345 3.65719 11.9345 4.65719 11.9045 5.65719C11.9045 5.62719 11.7645 5.11719 11.7645 5.11719C11.3945 3.61719 10.2545 3.29719 9.3645 3.29719C8.3445 3.29719 7.23449 3.70718 6.63449 4.08718C6.40449 4.22719 6.1345 4.29719 5.7545 4.29719C5.5045 4.29719 5.23449 4.26719 4.94449 4.23719C4.60449 4.19719 4.2345 4.16719 3.8445 4.16719C3.0245 4.16719 2.3245 4.33719 1.6145 4.68719C0.794503 5.10719 0.404494 5.30719 0.104494 6.03719L0.114503 6.05719Z" fill="#DDDDDD"/>
<path d="M9.17464 0.947109C10.0546 0.947109 11.1846 1.24711 11.5346 2.69711C11.7246 3.48711 11.8346 4.28711 11.8446 5.08711C11.4646 3.55711 10.2946 3.23711 9.37464 3.23711C8.34464 3.23711 7.21463 3.64711 6.60463 4.03711C6.38463 4.17711 6.12464 4.23711 5.76464 4.23711C5.52464 4.23711 5.24463 4.20711 4.96463 4.17711C4.63463 4.14711 4.25463 4.10711 3.85463 4.10711C3.02463 4.10711 2.30464 4.27711 1.59464 4.63711C0.864639 5.00711 0.464641 5.20711 0.174641 5.75711C0.124641 4.64711 0.314638 2.93711 1.73464 2.21711C2.40464 1.87711 3.07463 1.71711 3.85463 1.71711C4.23463 1.71711 4.58464 1.75711 4.93464 1.78711C5.22464 1.81711 5.50464 1.84711 5.76464 1.84711C6.18464 1.84711 6.49464 1.76711 6.76464 1.60711C7.26464 1.28711 8.23464 0.957111 9.17464 0.957111M9.17464 0.797112C8.19464 0.797112 7.19464 1.15711 6.68464 1.47711C6.41464 1.64711 6.10464 1.69711 5.76464 1.69711C5.22464 1.69711 4.58463 1.56711 3.85463 1.56711C3.19463 1.56711 2.46463 1.67711 1.66463 2.08711C0.174631 2.84711 -0.135365 4.69711 0.0746345 6.39711C0.374635 5.43711 0.704631 5.25711 1.66463 4.76711C2.46463 4.35711 3.19463 4.24711 3.85463 4.24711C4.58463 4.24711 5.21464 4.37711 5.76464 4.37711C6.10464 4.37711 6.41464 4.32711 6.68464 4.15711C7.23464 3.81711 8.33464 3.37711 9.37464 3.37711C10.4146 3.37711 11.3746 3.79711 11.7046 5.13711C11.8546 5.74711 11.8546 5.65711 11.9546 6.22711C12.0446 5.23711 12.0046 3.99711 11.6746 2.65711C11.3246 1.23711 10.2646 0.787109 9.17464 0.787109V0.797112Z" fill="#999993"/>
</g>
</svg>
