<svg width="12" height="22" viewBox="0 0 12 22" fill="none" xmlns="http://www.w3.org/2000/svg">
<mask id="mask0_254_12898" style="mask-type:luminance" maskUnits="userSpaceOnUse" x="0" y="0" width="12" height="9">
<path d="M2.16853 8.38683C1.00853 7.55683 0.188525 5.56682 0.558525 3.46682C0.928525 1.36682 1.96853 1.90682 2.51853 1.80682C3.05853 1.70682 3.99853 0.776823 5.38853 1.05682C6.77853 1.33682 7.30854 1.17682 8.61854 0.876823C9.92854 0.576823 11.2185 1.41682 11.2685 3.29682C11.3185 5.17683 11.2685 6.75682 10.4285 7.45682C9.58854 8.14682 7.05853 7.25682 6.21853 7.45682C5.37853 7.65682 3.94853 9.67683 2.16853 8.39683V8.38683Z" fill="white"/>
</mask>
<g mask="url(#mask0_254_12898)">
<path d="M0.570786 4.86649C0.540786 4.39649 0.570778 3.92648 0.640778 3.48648C0.890778 2.08648 1.42078 1.89648 1.96078 1.89648H2.33078C2.40078 1.89648 2.47078 1.89648 2.53078 1.89648C2.71078 1.86648 2.91079 1.75648 3.15079 1.62648C3.60079 1.38648 4.16079 1.08648 4.87079 1.08648C5.03079 1.08648 5.20079 1.10649 5.37079 1.13649C5.86079 1.23649 6.26078 1.28648 6.63078 1.28648C7.20078 1.28648 7.67078 1.17648 8.38078 1.01648L8.63078 0.956486C8.80078 0.916486 8.96078 0.896484 9.13078 0.896484C10.1208 0.896484 11.1508 1.63648 11.1908 3.30648C11.1908 3.55648 11.2008 3.80649 11.2008 4.04649C10.9808 3.41649 10.4908 3.10648 9.73079 3.10648C9.42079 3.10648 9.06079 3.15649 8.59079 3.25648L8.34079 3.31649C7.64079 3.47649 7.17079 3.58648 6.62079 3.58648C6.26079 3.58648 5.87078 3.54648 5.39078 3.44648C5.20078 3.40648 5.03078 3.39648 4.86078 3.39648C4.12078 3.39648 3.51079 3.71648 3.07079 3.94648C2.84079 4.06648 2.64078 4.17648 2.49078 4.19648C2.37078 4.21648 2.23079 4.22648 2.07079 4.23648C1.55079 4.26648 0.860781 4.30649 0.550781 4.86649H0.570786Z" fill="#DDDDDD"/>
<path d="M9.13935 0.966404C10.0994 0.966404 11.0794 1.68641 11.1194 3.29641C11.1194 3.43641 11.1194 3.55641 11.1194 3.68641C10.8494 3.24641 10.3894 3.02641 9.72937 3.02641C9.40937 3.02641 9.04936 3.07641 8.57936 3.18641L8.32936 3.24641C7.62936 3.40641 7.16936 3.5164 6.62936 3.5164C6.27936 3.5164 5.88935 3.4764 5.41935 3.3764C5.23935 3.3364 5.04936 3.3264 4.86936 3.3264C4.10936 3.3264 3.48936 3.64641 3.04936 3.88641C2.82936 4.00641 2.62936 4.10641 2.48936 4.13641C2.37936 4.15641 2.22936 4.1664 2.07936 4.1764C1.60936 4.2064 0.989359 4.23641 0.629359 4.65641C0.619359 4.26641 0.639361 3.8864 0.709361 3.5164C0.959361 2.1064 1.48936 1.9864 1.95936 1.9864C2.02936 1.9864 2.08936 1.9864 2.14936 1.9864C2.20936 1.9864 2.26936 1.9864 2.32936 1.9864C2.40936 1.9864 2.47936 1.9864 2.53936 1.9664C2.72936 1.9364 2.93936 1.81641 3.17936 1.68641C3.61936 1.44641 4.17935 1.15641 4.85935 1.15641C5.01935 1.15641 5.18936 1.17641 5.34936 1.20641C5.84936 1.30641 6.24936 1.3564 6.61936 1.3564C7.19936 1.3564 7.69935 1.2464 8.38935 1.0864L8.63935 1.02641C8.79935 0.986405 8.95936 0.966404 9.11936 0.966404M9.13935 0.816406C8.96935 0.816406 8.79937 0.836404 8.61936 0.876404C7.77936 1.0664 7.25936 1.20641 6.62936 1.20641C6.27936 1.20641 5.88935 1.16641 5.38935 1.06641C5.20935 1.02641 5.03936 1.0164 4.86936 1.0164C3.75936 1.0164 2.98936 1.7364 2.51936 1.8264C2.45936 1.8364 2.39936 1.8364 2.32936 1.8364C2.21936 1.8364 2.08936 1.8364 1.95936 1.8364C1.43936 1.8364 0.829352 1.9864 0.559352 3.4864C0.449352 4.1164 0.449353 4.7264 0.529353 5.3064C0.539353 5.2264 0.529352 5.14641 0.559352 5.06641C0.869352 4.18641 1.96936 4.37641 2.51936 4.27641C2.98936 4.18641 3.75936 3.4664 4.86936 3.4664C5.02936 3.4664 5.20935 3.4864 5.38935 3.5164C5.88935 3.6164 6.27936 3.65641 6.62936 3.65641C7.25936 3.65641 7.77936 3.5164 8.61936 3.3264C9.00937 3.2364 9.38936 3.1764 9.73936 3.1764C10.5794 3.1764 11.2194 3.5464 11.2694 4.8564C11.2894 4.3664 11.2894 3.84641 11.2694 3.29641C11.2294 1.66641 10.2494 0.816406 9.13935 0.816406Z" fill="#999993"/>
</g>
</svg>
