<svg width="11" height="20" viewBox="0 0 11 20" fill="none" xmlns="http://www.w3.org/2000/svg">
<mask id="mask0_254_13045" style="mask-type:luminance" maskUnits="userSpaceOnUse" x="1" y="12" width="9" height="8">
<path d="M7.62922 13.3873C7.83922 13.6073 8.04922 13.8673 8.24922 14.1473C8.90922 15.0073 9.31922 16.1073 9.28922 17.6073C9.23922 18.4773 8.88922 18.8873 8.31922 18.9773C7.91922 19.0373 7.49922 18.9173 7.17922 18.6673C6.84922 18.4073 6.49922 18.4973 6.13922 18.7573C5.77922 19.0173 5.36922 19.1873 4.92922 19.1873C4.10922 19.1873 3.31922 19.0873 2.53922 18.8973C1.90922 18.8273 1.51922 18.3973 1.49922 17.4673C1.31922 16.4373 1.46922 15.4173 1.95922 14.4073C2.04922 14.2273 2.16922 14.0573 2.30922 13.9073C2.32922 13.8873 2.33922 13.8673 2.35922 13.8573C4.17922 11.8973 5.94922 11.5773 7.62922 13.3773V13.3873Z" fill="white"/>
</mask>
<g mask="url(#mask0_254_13045)">
<path d="M4.89609 19.1377C4.12609 19.1377 3.33609 19.0377 2.54609 18.8477C1.90609 18.7777 1.58609 18.3277 1.56609 17.4877C1.52609 17.2677 1.50609 17.0577 1.49609 16.8477C1.64609 17.3877 1.98609 17.6877 2.52609 17.7477C3.31609 17.9377 4.11609 18.0377 4.90609 18.0377C5.35609 18.0377 5.78609 17.8877 6.18609 17.5877C6.39609 17.4277 6.58609 17.3577 6.75609 17.3577C6.88609 17.3577 7.0161 17.3977 7.1361 17.4977C7.4261 17.7177 7.76609 17.8377 8.11609 17.8377C8.18609 17.8377 8.26609 17.8377 8.33609 17.8177C8.75609 17.7577 9.04609 17.5177 9.21609 17.1077C9.2261 17.2777 9.23609 17.4477 9.22609 17.6177C9.18609 18.4077 8.88609 18.8277 8.31609 18.9177C8.24609 18.9277 8.18609 18.9377 8.11609 18.9377C7.80609 18.9377 7.48609 18.8277 7.23609 18.6277C7.08609 18.5177 6.93609 18.4577 6.76609 18.4577C6.56609 18.4577 6.34609 18.5477 6.10609 18.7177C5.73609 18.9877 5.32609 19.1377 4.93609 19.1377H4.90609H4.89609Z" fill="#DDDDDD"/>
<path d="M1.61781 17.3073C1.80781 17.6073 2.10781 17.7773 2.49781 17.8173C3.29781 18.0073 4.10781 18.1073 4.92781 18.1073C5.36781 18.1073 5.81781 17.9473 6.22781 17.6473C6.42781 17.4973 6.59781 17.4273 6.75781 17.4273C6.87781 17.4273 6.97781 17.4673 7.08781 17.5473C7.38781 17.7773 7.74781 17.9073 8.10781 17.9073C8.18781 17.9073 8.25781 17.9073 8.33781 17.8873C8.68781 17.8373 8.95781 17.6673 9.13781 17.3873C9.13781 17.4673 9.13781 17.5373 9.13781 17.6073C9.08781 18.6073 8.62781 18.7873 8.28781 18.8373C8.22781 18.8373 8.16781 18.8473 8.09781 18.8473C7.80781 18.8473 7.50781 18.7473 7.25781 18.5573C7.09781 18.4373 6.92781 18.3773 6.74781 18.3773C6.52781 18.3773 6.29781 18.4673 6.04781 18.6573C5.68781 18.9173 5.29781 19.0573 4.89781 19.0573C4.12781 19.0573 3.33781 18.9573 2.54781 18.7673C2.16781 18.7273 1.66781 18.5473 1.63781 17.4573C1.63781 17.4073 1.61781 17.3473 1.60781 17.2973M1.46781 15.9873C1.39781 16.4873 1.40781 16.9873 1.49781 17.4973C1.52781 18.4273 1.90781 18.8573 2.53781 18.9273C3.30781 19.1173 4.09781 19.2173 4.90781 19.2173H4.92781C5.36781 19.2173 5.78781 19.0473 6.13781 18.7873C6.34781 18.6373 6.54781 18.5373 6.75781 18.5373C6.89781 18.5373 7.03781 18.5873 7.17781 18.6873C7.44781 18.8973 7.77781 19.0073 8.10781 19.0073C8.17781 19.0073 8.24781 19.0073 8.31781 18.9873C8.88781 18.8973 9.24781 18.4873 9.29781 17.6173C9.29781 17.2873 9.27781 16.9873 9.24781 16.6973C9.13781 17.3373 8.81781 17.6673 8.32781 17.7473C8.25781 17.7573 8.18781 17.7673 8.11781 17.7673C7.78781 17.7673 7.45781 17.6473 7.18781 17.4473C7.04781 17.3373 6.90781 17.2973 6.76781 17.2973C6.56781 17.2973 6.35781 17.3873 6.14781 17.5473C5.78781 17.8073 5.37781 17.9773 4.93781 17.9773H4.91781C4.10781 17.9773 3.31781 17.8773 2.54781 17.6873C1.91781 17.6173 1.52781 17.1873 1.50781 16.2573C1.48781 16.1673 1.49781 16.0873 1.47781 15.9973L1.46781 15.9873Z" fill="#999993"/>
</g>
</svg>
