<svg width="14" height="20" viewBox="0 0 14 20" fill="none" xmlns="http://www.w3.org/2000/svg">
<mask id="mask0_254_13032" style="mask-type:luminance" maskUnits="userSpaceOnUse" x="3" y="11" width="11" height="9">
<path d="M11.9693 13.3678C12.0993 13.5178 12.2293 13.6678 12.3593 13.8378C13.4693 15.4578 14.1193 16.9978 12.7593 18.2078C11.8093 18.9378 10.4193 19.1378 8.87929 19.1578C8.61929 19.1578 8.37929 19.0078 8.23929 18.7878C7.95929 18.3578 7.42929 18.5578 6.79929 18.9878C6.60929 19.1178 6.38929 19.1978 6.15929 19.2078C5.61929 19.2378 5.15929 19.1278 4.74929 18.8978C3.81929 18.3978 3.31929 17.3578 3.38929 16.3078C3.40929 15.8978 3.47929 15.4978 3.57929 15.1078C3.76929 14.3078 4.23929 13.6078 4.89929 13.1278C7.58929 11.1678 9.96929 11.1278 11.9693 13.3678Z" fill="white"/>
</mask>
<g mask="url(#mask0_254_13032)">
<path d="M6.01112 19.1383C5.56112 19.1383 5.16112 19.0383 4.79112 18.8383C3.92112 18.3683 3.40112 17.3883 3.47112 16.3283C3.47112 16.2983 3.47112 16.2783 3.47112 16.2483C3.67112 16.7683 4.07112 17.1783 4.74112 17.5283C5.13112 17.7383 5.57112 17.8483 6.03112 17.8483H6.19112C6.43112 17.8383 6.67112 17.7583 6.87112 17.6183C7.29112 17.3283 7.60112 17.1883 7.83112 17.1883C7.99112 17.1883 8.11112 17.2583 8.20112 17.3983C8.36112 17.6483 8.63112 17.8083 8.90112 17.8083C10.7911 17.7783 12.0011 17.4883 12.8311 16.8383L12.9811 16.7083C13.1811 16.5383 13.3211 16.4183 13.4211 16.2383C13.5411 16.9983 13.3111 17.6383 12.7111 18.1683C11.9111 18.7883 10.7311 19.0783 8.88112 19.0983C8.65112 19.0983 8.44112 18.9683 8.30112 18.7583C8.18112 18.5783 8.02112 18.4783 7.81112 18.4783C7.55112 18.4783 7.21112 18.6183 6.76112 18.9283C6.58112 19.0483 6.37112 19.1283 6.16112 19.1283H6.01112V19.1383Z" fill="#DDDDDD"/>
<path d="M13.3693 16.4282C13.4293 17.0782 13.1993 17.6182 12.6693 18.0882C11.8793 18.6982 10.7093 18.9882 8.87929 19.0082C8.67929 19.0082 8.48929 18.8982 8.36929 18.7082C8.23929 18.5082 8.04929 18.3982 7.80929 18.3982C7.52929 18.3982 7.17929 18.5482 6.71929 18.8682C6.55929 18.9782 6.35929 19.0482 6.15929 19.0582C6.10929 19.0582 6.05929 19.0582 6.00929 19.0582C5.57929 19.0582 5.18929 18.9582 4.81929 18.7682C4.03929 18.3482 3.54929 17.4982 3.53929 16.5582C3.76929 16.9682 4.14929 17.2982 4.70929 17.5982C5.10929 17.8182 5.55929 17.9282 6.03929 17.9282C6.08929 17.9282 6.14929 17.9282 6.19929 17.9282C6.45929 17.9182 6.70929 17.8282 6.91929 17.6882C7.31929 17.4082 7.62929 17.2782 7.83929 17.2782C7.96929 17.2782 8.06929 17.3282 8.14929 17.4482C8.32929 17.7282 8.60929 17.8882 8.91929 17.8882C10.8193 17.8582 12.0393 17.5582 12.8893 16.8982L13.0393 16.7682C13.1693 16.6482 13.2893 16.5582 13.3793 16.4482M3.43929 15.8682C3.41929 16.0182 3.39929 16.1682 3.38929 16.3182C3.31929 17.3682 3.81929 18.4082 4.74929 18.9082C5.11929 19.1082 5.53929 19.2182 6.00929 19.2182C6.05929 19.2182 6.10929 19.2182 6.16929 19.2182C6.39929 19.2182 6.61929 19.1282 6.80929 18.9982C7.18929 18.7382 7.53929 18.5582 7.80929 18.5582C7.98929 18.5582 8.12929 18.6282 8.23929 18.7982C8.37929 19.0182 8.61929 19.1682 8.87929 19.1682C10.4193 19.1482 11.8093 18.9482 12.7593 18.2182C13.5093 17.5582 13.6493 16.7982 13.4493 15.9782C13.3393 16.3382 13.1493 16.4582 12.7893 16.7782C11.8393 17.5082 10.4493 17.7082 8.90929 17.7282C8.64929 17.7282 8.41929 17.5782 8.26929 17.3582C8.15929 17.1882 8.00929 17.1182 7.83929 17.1182C7.55929 17.1182 7.21929 17.2982 6.83929 17.5582C6.64929 17.6882 6.42929 17.7682 6.19929 17.7782C6.14929 17.7782 6.09929 17.7782 6.03929 17.7782C5.56929 17.7782 5.14929 17.6682 4.77929 17.4682C4.07929 17.0982 3.59929 16.6382 3.44929 15.8682H3.43929Z" fill="#999993"/>
</g>
</svg>
