<svg width="11" height="20" viewBox="0 0 11 20" fill="none" xmlns="http://www.w3.org/2000/svg">
<mask id="mask0_254_13019" style="mask-type:luminance" maskUnits="userSpaceOnUse" x="1" y="12" width="9" height="8">
<path d="M3.13809 13.4566C2.92809 13.6766 2.7181 13.9366 2.5181 14.2166C1.8581 15.0766 1.4481 16.1766 1.4781 17.6766C1.5281 18.5466 1.87809 18.9566 2.44809 19.0466C2.84809 19.1066 3.2681 18.9866 3.5881 18.7366C3.9181 18.4766 4.2681 18.5666 4.6281 18.8266C4.9881 19.0866 5.3981 19.2566 5.8381 19.2566C6.6581 19.2566 7.4481 19.1566 8.2281 18.9666C8.8581 18.8966 9.2481 18.4666 9.2681 17.5366C9.4481 16.5066 9.29809 15.4866 8.80809 14.4766C8.71809 14.2966 8.5981 14.1266 8.4581 13.9766C8.4381 13.9566 8.4281 13.9366 8.4081 13.9266C6.5881 11.9666 4.81809 11.6466 3.13809 13.4466V13.4566Z" fill="white"/>
</mask>
<g mask="url(#mask0_254_13019)">
<path d="M5.83688 19.197C5.44688 19.197 5.03687 19.057 4.66687 18.777C4.42687 18.597 4.20688 18.517 4.00688 18.517C3.84688 18.517 3.68688 18.577 3.53688 18.687C3.27688 18.887 2.96688 18.997 2.65688 18.997C2.58688 18.997 2.52688 18.997 2.45688 18.987C1.88688 18.897 1.58687 18.477 1.54688 17.687C1.54688 17.507 1.54687 17.337 1.55687 17.177C1.72687 17.587 2.01687 17.827 2.43687 17.887C2.50687 17.897 2.58688 17.907 2.65688 17.907C2.99688 17.907 3.34687 17.787 3.63687 17.567C3.75687 17.477 3.87688 17.427 4.01688 17.427C4.18688 17.427 4.37688 17.507 4.58688 17.657C4.98688 17.947 5.41688 18.107 5.84688 18.107C6.65688 18.107 7.45688 18.007 8.25688 17.817C8.78688 17.757 9.12687 17.457 9.27687 16.917C9.27687 17.127 9.24688 17.337 9.20688 17.557C9.18688 18.407 8.86688 18.857 8.22688 18.927C7.43688 19.117 6.63688 19.217 5.86688 19.217H5.84688L5.83688 19.197Z" fill="#DDDDDD"/>
<path d="M9.14852 17.3671C9.14852 17.4271 9.12852 17.4871 9.11852 17.5471C9.08852 18.6071 8.58852 18.7871 8.18852 18.8371C7.40852 19.0271 6.62852 19.1271 5.82852 19.1271C5.44852 19.1271 5.05852 18.9871 4.70852 18.7271C4.45852 18.5371 4.22852 18.4471 4.00852 18.4471C3.82852 18.4471 3.65851 18.5071 3.49851 18.6271C3.24851 18.8171 2.95852 18.9171 2.65852 18.9171C2.59852 18.9171 2.53852 18.9171 2.47852 18.9071C2.13852 18.8571 1.68852 18.6671 1.62852 17.6771C1.62852 17.5971 1.62852 17.5271 1.62852 17.4471C1.80852 17.7271 2.07852 17.8971 2.42852 17.9471C2.50852 17.9571 2.57852 17.9671 2.65852 17.9671C3.01852 17.9671 3.37852 17.8371 3.67852 17.6071C3.78852 17.5271 3.88852 17.4871 4.00852 17.4871C4.16852 17.4871 4.33852 17.5571 4.53852 17.7071C4.94852 18.0071 5.39852 18.1671 5.86852 18.1671C6.65852 18.1671 7.46852 18.0671 8.25852 17.8771C8.66852 17.8271 8.96852 17.6571 9.15852 17.3571M9.29852 16.0471C9.28852 16.1371 9.29852 16.2171 9.26852 16.3071C9.23852 17.2371 8.85852 17.6671 8.22852 17.7371C7.45852 17.9271 6.66851 18.0271 5.85851 18.0271H5.83853C5.39853 18.0271 4.97852 17.8571 4.62852 17.5971C4.41852 17.4471 4.21852 17.3471 4.00852 17.3471C3.86852 17.3471 3.72853 17.3971 3.58853 17.4971C3.31853 17.7071 2.98852 17.8171 2.65852 17.8171C2.58852 17.8171 2.51851 17.8171 2.44851 17.7971C1.95851 17.7171 1.63851 17.3871 1.52851 16.7471C1.49851 17.0371 1.46852 17.3371 1.47852 17.6671C1.52852 18.5371 1.87852 18.9471 2.45852 19.0371C2.52852 19.0471 2.59851 19.0571 2.66851 19.0571C2.99851 19.0571 3.32852 18.9371 3.59852 18.7371C3.73852 18.6271 3.87852 18.5871 4.01852 18.5871C4.21852 18.5871 4.42851 18.6771 4.63851 18.8371C4.99851 19.0971 5.40852 19.2671 5.84852 19.2671H5.86852C6.67852 19.2671 7.46852 19.1671 8.23852 18.9771C8.86852 18.9071 9.25851 18.4771 9.27851 17.5471C9.36851 17.0371 9.37851 16.5371 9.30851 16.0371L9.29852 16.0471Z" fill="#999993"/>
</g>
</svg>
