<svg width="14" height="20" viewBox="0 0 14 20" fill="none" xmlns="http://www.w3.org/2000/svg">
<mask id="mask0_254_13006" style="mask-type:luminance" maskUnits="userSpaceOnUse" x="0" y="11" width="11" height="9">
<path d="M1.80249 13.4371C1.67249 13.5871 1.54249 13.7371 1.41249 13.9071C0.30249 15.5271 -0.347504 17.0671 1.0125 18.2771C1.9625 19.0071 3.35249 19.2071 4.89249 19.2271C5.15249 19.2271 5.39249 19.0771 5.53249 18.8571C5.81249 18.4271 6.34249 18.6271 6.97249 19.0571C7.16249 19.1871 7.38249 19.2671 7.61249 19.2771C8.15249 19.3071 8.61249 19.1971 9.02249 18.9671C9.95249 18.4671 10.4525 17.4271 10.3825 16.3771C10.3625 15.9671 10.2925 15.5671 10.1925 15.1771C10.0025 14.3771 9.5325 13.6771 8.8725 13.1971C6.1825 11.2371 3.80249 11.1971 1.80249 13.4371Z" fill="white"/>
</mask>
<g mask="url(#mask0_254_13006)">
<path d="M7.61279 19.1969C7.40279 19.1969 7.1828 19.1169 7.0128 18.9969C6.5628 18.6869 6.23279 18.5469 5.96279 18.5469C5.75279 18.5469 5.58279 18.6369 5.47279 18.8269C5.33279 19.0369 5.1228 19.1669 4.9028 19.1669C3.0528 19.1469 1.87279 18.8569 1.07279 18.2269C0.472795 17.6969 0.242788 17.0669 0.362788 16.2969C0.462788 16.4769 0.60279 16.5969 0.80279 16.7669L0.952784 16.8969C1.78278 17.5469 2.9928 17.8469 4.8728 17.8669C5.1528 17.8669 5.41279 17.7169 5.58279 17.4569C5.67279 17.3169 5.79278 17.2469 5.95278 17.2469C6.18278 17.2469 6.49279 17.3869 6.91279 17.6769C7.11279 17.8169 7.3528 17.8969 7.5928 17.9069H7.75279C8.21279 17.9069 8.6528 17.8069 9.0428 17.5869C9.7028 17.2369 10.1028 16.8269 10.3128 16.3069C10.3128 16.3269 10.3128 16.3569 10.3128 16.3869C10.3828 17.4469 9.87279 18.4369 8.99279 18.9069C8.61279 19.1069 8.21279 19.2069 7.77279 19.2069H7.6228L7.61279 19.1969Z" fill="#DDDDDD"/>
<path d="M0.402354 16.4968C0.492354 16.6068 0.60235 16.7068 0.74235 16.8168L0.902354 16.9568C1.74235 17.6068 2.97236 17.9168 4.87236 17.9368C5.17236 17.9368 5.46235 17.7668 5.63235 17.4968C5.71235 17.3768 5.80235 17.3268 5.94235 17.3268C6.15235 17.3268 6.45235 17.4668 6.86235 17.7368C7.07235 17.8868 7.32235 17.9668 7.58235 17.9768C7.64235 17.9768 7.69235 17.9768 7.74235 17.9768C8.22235 17.9768 8.67235 17.8668 9.07235 17.6468C9.63235 17.3468 10.0024 17.0168 10.2424 16.6068C10.2324 17.5468 9.74235 18.4068 8.96235 18.8168C8.59235 19.0168 8.21235 19.1068 7.77235 19.1068C7.72235 19.1068 7.67236 19.1068 7.62236 19.1068C7.42236 19.1068 7.22234 19.0268 7.06234 18.9168C6.60234 18.5968 6.25235 18.4468 5.97235 18.4468C5.74235 18.4468 5.54235 18.5568 5.41235 18.7568C5.29235 18.9468 5.10235 19.0568 4.90235 19.0568C3.07235 19.0268 1.90236 18.7468 1.12236 18.1468C0.582355 17.6668 0.352349 17.1368 0.412349 16.4768M10.3323 15.9268C10.1823 16.6868 9.70234 17.1468 9.00235 17.5268C8.63235 17.7268 8.21235 17.8368 7.74235 17.8368C7.69235 17.8368 7.64235 17.8368 7.58235 17.8368C7.35235 17.8368 7.13235 17.7468 6.94235 17.6168C6.56235 17.3568 6.21235 17.1768 5.94235 17.1768C5.76235 17.1768 5.62235 17.2468 5.51235 17.4168C5.37235 17.6368 5.13236 17.7868 4.87236 17.7868C3.33236 17.7668 1.94235 17.5668 0.99235 16.8368C0.63235 16.5168 0.442347 16.3968 0.332347 16.0368C0.132347 16.8568 0.272349 17.6168 1.02235 18.2768C1.97235 19.0068 3.36235 19.2068 4.90235 19.2268C5.16235 19.2268 5.39235 19.0768 5.54235 18.8568C5.65235 18.6868 5.80235 18.6168 5.97235 18.6168C6.25235 18.6168 6.59235 18.7968 6.97235 19.0568C7.16235 19.1868 7.38235 19.2668 7.61235 19.2768C7.66235 19.2768 7.71235 19.2768 7.77235 19.2768C8.24235 19.2768 8.66234 19.1668 9.03234 18.9668C9.96234 18.4668 10.4623 17.4268 10.3923 16.3768C10.3923 16.2268 10.3624 16.0768 10.3424 15.9268H10.3323Z" fill="#999993"/>
</g>
</svg>
