<svg width="12" height="18" viewBox="0 0 12 18" fill="none" xmlns="http://www.w3.org/2000/svg">
<path d="M10.5214 3.89652C10.4114 3.53652 10.2314 3.22652 10.0014 2.97652C9.61137 2.56652 9.14138 2.35652 8.60138 2.35652C8.17138 2.35652 7.68138 2.48652 7.15138 2.74652C6.94138 2.91652 6.72137 2.99652 6.47137 2.99652C6.10137 2.99652 5.67138 2.81652 5.18138 2.45652C4.66138 2.24652 4.17138 2.14652 3.73138 2.14652C3.10138 2.14652 2.53137 2.34652 2.03137 2.74652C1.82137 2.99652 1.67137 3.27652 1.56137 3.58652C1.40137 2.52652 1.60137 1.65652 2.14137 0.986523C2.60137 0.626523 3.14138 0.436523 3.73138 0.436523C4.16138 0.436523 4.62137 0.536524 5.11137 0.726524C5.62137 1.09652 6.07137 1.28652 6.47137 1.28652C6.75137 1.28652 7.01138 1.19652 7.23138 1.00652C7.73138 0.766523 8.19138 0.636524 8.60138 0.636524C9.11138 0.636524 9.53138 0.826524 9.90138 1.20652C10.2414 1.56652 10.4614 2.07652 10.5114 2.64652C10.5514 3.06652 10.5514 3.48652 10.5414 3.87652L10.5214 3.89652Z" fill="#DDDDDD"/>
<path d="M3.72089 0.526955C4.13089 0.526955 4.58088 0.616955 5.06088 0.796955C5.59088 1.17696 6.05089 1.36695 6.47089 1.36695C6.77089 1.36695 7.04089 1.26695 7.25089 1.08695C7.75089 0.836952 8.21089 0.716953 8.60089 0.716953C9.09089 0.716953 9.4909 0.896953 9.8409 1.26695C10.1709 1.61695 10.3809 2.11695 10.4309 2.66695C10.4509 2.95695 10.4709 3.23695 10.4709 3.51695C10.3609 3.29695 10.2309 3.09695 10.0709 2.92695C9.67089 2.49695 9.18089 2.28695 8.61089 2.28695C8.17089 2.28695 7.6709 2.41695 7.0909 2.70695C6.9109 2.85696 6.71089 2.93695 6.47089 2.93695C6.12089 2.93695 5.70089 2.75695 5.22089 2.41695C5.21089 2.41695 5.20089 2.40695 5.19089 2.39695C4.67089 2.19695 4.1809 2.09695 3.7309 2.09695C3.0809 2.09695 2.50089 2.30696 1.96089 2.72696C1.82089 2.90696 1.69089 3.09695 1.60089 3.30695C1.52089 2.39695 1.72088 1.64695 2.17088 1.07695C2.63088 0.716954 3.1509 0.526955 3.7309 0.526955M3.72089 0.376953C3.10089 0.376953 2.55089 0.566955 2.07089 0.956955C1.46089 1.71695 1.28088 2.70695 1.53088 3.92695C1.63088 3.51695 1.81089 3.14696 2.07089 2.81696C2.56089 2.42696 3.11089 2.23695 3.72089 2.23695C4.16089 2.23695 4.63089 2.33695 5.13089 2.52695C5.61089 2.86695 6.06089 3.07695 6.47089 3.07695C6.73089 3.07695 6.97089 2.99696 7.18089 2.81696C7.69089 2.56696 8.17089 2.42695 8.60089 2.42695C9.11089 2.42695 9.57088 2.61695 9.95088 3.02695C10.3109 3.40695 10.5009 3.90695 10.5609 4.41695C10.6209 3.85695 10.6309 3.26696 10.5709 2.65696C10.5209 2.10696 10.3209 1.56695 9.94089 1.16695C9.56089 0.756954 9.1009 0.566956 8.5909 0.566956C8.1609 0.566956 7.68088 0.696955 7.17088 0.956955C6.95088 1.13695 6.72089 1.21695 6.46089 1.21695C6.05089 1.21695 5.6009 1.00695 5.1209 0.666954C4.6209 0.476954 4.15089 0.376953 3.71089 0.376953H3.72089Z" fill="#999993"/>
</svg>
