<svg width="13" height="19" viewBox="0 0 13 19" fill="none" xmlns="http://www.w3.org/2000/svg">
<path d="M10.7402 4.46703C10.6702 4.04703 10.4802 3.65703 10.1802 3.34703C9.66016 2.80703 9.17016 2.51703 8.71016 2.45703C8.44016 2.36703 8.15016 2.31703 7.87016 2.31703C7.42016 2.31703 6.97016 2.43703 6.52016 2.66703C6.22016 2.77703 5.99016 2.82703 5.76016 2.82703C5.53016 2.82703 5.31015 2.77703 5.08015 2.66703C4.23015 2.39703 3.48016 2.26703 2.79016 2.26703C2.05016 2.26703 1.36016 2.42703 0.760162 2.73703C0.510162 2.92703 0.310155 3.23703 0.160155 3.69703C0.110155 3.27703 0.100157 2.87703 0.130157 2.48703C0.260157 1.68703 0.490154 1.15703 0.830154 0.907032C1.41015 0.607032 2.06016 0.457031 2.79016 0.457031C3.47016 0.457031 4.20015 0.587031 5.03015 0.847031C5.27015 0.957031 5.52016 1.01703 5.77016 1.01703C6.02016 1.01703 6.27016 0.957029 6.52016 0.837029C7.02016 0.617029 7.45016 0.497032 7.88016 0.497032C8.15016 0.497032 8.42015 0.547032 8.69015 0.637032C9.14015 0.697032 9.59016 0.97703 10.0902 1.48703C10.3702 1.77703 10.5502 2.13703 10.6102 2.52703C10.7202 3.18703 10.7602 3.82703 10.7602 4.45703L10.7402 4.46703Z" fill="#DDDDDD"/>
<path d="M2.77912 0.527187C3.44912 0.527187 4.16912 0.657188 4.96912 0.907188C5.22912 1.02719 5.48912 1.08718 5.74912 1.08718C6.00912 1.08718 6.24912 1.02719 6.49912 0.917187H6.53913C6.53913 0.917187 6.58912 0.917186 6.60912 0.897186C7.02912 0.677186 7.44912 0.567188 7.85912 0.567188C8.11912 0.567188 8.37912 0.607188 8.66912 0.707188C9.08912 0.767188 9.52913 1.03719 10.0091 1.53719C10.2791 1.81719 10.4491 2.15719 10.5091 2.53719C10.5891 3.00719 10.6291 3.46719 10.6491 3.91719C10.5491 3.68719 10.3991 3.46719 10.2291 3.28719C9.68913 2.73719 9.19913 2.43719 8.73913 2.37719C8.44913 2.27719 8.14912 2.22719 7.85912 2.22719C7.40912 2.22719 6.95913 2.34719 6.50913 2.57719H6.46912C6.46912 2.57719 6.42912 2.57718 6.40912 2.58718C6.18912 2.68718 5.96913 2.74719 5.75913 2.74719C5.54913 2.74719 5.32913 2.69718 5.08913 2.58718C4.23913 2.31718 3.47913 2.18719 2.78913 2.18719C2.02913 2.18719 1.33912 2.34719 0.699118 2.67719C0.499118 2.82719 0.329118 3.04719 0.199118 3.35719C0.179118 3.06719 0.179118 2.77719 0.199118 2.49719C0.319118 1.71719 0.549121 1.19719 0.859121 0.977188C1.43912 0.677188 2.06913 0.527187 2.78913 0.527187M2.77912 0.377186C2.07912 0.377186 1.40912 0.517187 0.77912 0.847187C0.42912 1.09719 0.179129 1.61719 0.0391294 2.47719C-0.00087063 3.01719 0.0391312 3.54719 0.119131 4.06719C0.269131 3.42719 0.48912 3.01719 0.77912 2.80719C1.40912 2.48719 2.07912 2.33718 2.77912 2.33718C3.49912 2.33718 4.25913 2.48719 5.03913 2.73719C5.27913 2.84719 5.50912 2.90719 5.74912 2.90719C5.98912 2.90719 6.22912 2.84719 6.46912 2.73719H6.53913C6.96913 2.50719 7.40912 2.38719 7.85912 2.38719C8.13912 2.38719 8.40912 2.43719 8.68912 2.52719C9.17912 2.59719 9.64913 2.91719 10.1191 3.39719C10.4091 3.69719 10.5991 4.07719 10.6591 4.47719C10.6991 4.74719 10.7391 5.01719 10.7591 5.28719C10.8491 4.37719 10.8091 3.44719 10.6591 2.50719C10.5891 2.09719 10.4091 1.71719 10.1191 1.42719C9.64913 0.947185 9.17912 0.627186 8.68912 0.557186C8.40912 0.467186 8.12912 0.417187 7.85912 0.417187C7.40912 0.417187 6.97913 0.537185 6.53913 0.767185H6.46912C6.22912 0.877185 5.98912 0.937187 5.74912 0.937187C5.50912 0.937187 5.26913 0.877185 5.03913 0.767185C4.25913 0.517185 3.49912 0.367188 2.77912 0.367188V0.377186Z" fill="#999993"/>
</svg>
