<svg width="12" height="18" viewBox="0 0 12 18" fill="none" xmlns="http://www.w3.org/2000/svg">
<path d="M1.19946 3.8968C1.17946 3.5068 1.19946 3.0868 1.22946 2.6668C1.27946 2.0968 1.48946 1.5868 1.82946 1.2268C2.18946 0.836799 2.61946 0.656799 3.12946 0.656799C3.53946 0.656799 4.00946 0.786797 4.51946 1.0368C4.72946 1.2168 4.97946 1.3068 5.26946 1.3068C5.66946 1.3068 6.12946 1.1268 6.64946 0.746799C7.11946 0.566799 7.58946 0.466797 8.00946 0.466797C8.60946 0.466797 9.14946 0.656798 9.60946 1.0268C10.1395 1.6868 10.3295 2.5568 10.1795 3.6068C10.0695 3.2968 9.90946 3.0168 9.71946 2.7768C9.20946 2.3668 8.63946 2.1668 8.00946 2.1668C7.56946 2.1668 7.07946 2.2668 6.56946 2.4668C6.05946 2.8268 5.61946 3.0068 5.25946 3.0068C5.00946 3.0068 4.78946 2.9268 4.59946 2.7668C4.04946 2.4968 3.55946 2.3668 3.12946 2.3668C2.58946 2.3668 2.10946 2.5768 1.72946 2.9868C1.48946 3.2368 1.31946 3.5468 1.20946 3.9068L1.19946 3.8968Z" fill="#DDDDDD"/>
<path d="M7.9979 0.526955C8.5779 0.526955 9.0979 0.706955 9.5279 1.04696C10.0079 1.63696 10.2079 2.39696 10.1279 3.29696C10.0279 3.07696 9.8979 2.87695 9.7379 2.68695C9.2279 2.27695 8.6379 2.07695 7.9979 2.07695C7.5479 2.07695 7.0479 2.17695 6.5379 2.37695C6.5279 2.37695 6.5179 2.38695 6.5079 2.39695C6.0279 2.74695 5.6079 2.91695 5.2579 2.91695C5.0279 2.91695 4.8279 2.84695 4.6079 2.66695C4.0679 2.39695 3.5679 2.26695 3.1179 2.26695C2.5479 2.26695 2.0579 2.48696 1.6579 2.90696C1.4979 3.07696 1.3579 3.27696 1.2579 3.49696C1.2579 3.21696 1.2679 2.93695 1.2979 2.64695C1.3479 2.09695 1.5479 1.59696 1.8879 1.24696C2.2379 0.876956 2.6379 0.696953 3.1279 0.696953C3.5279 0.696953 3.9779 0.816955 4.4479 1.04696C4.6879 1.24696 4.9579 1.34695 5.2579 1.34695C5.6779 1.34695 6.1379 1.15695 6.6679 0.776955C7.1479 0.596955 7.5979 0.506954 8.0079 0.506954M7.9979 0.376953C7.5579 0.376953 7.0879 0.476954 6.5879 0.666954C6.1079 1.00695 5.6579 1.21695 5.2479 1.21695C4.9879 1.21695 4.7479 1.13695 4.5379 0.956955C4.0279 0.706955 3.5479 0.566956 3.1179 0.566956C2.6079 0.566956 2.1479 0.756954 1.7679 1.16695C1.3879 1.56695 1.1879 2.10696 1.1379 2.65696C1.0879 3.26696 1.0879 3.85695 1.1479 4.41695C1.2079 3.89695 1.3979 3.39695 1.7579 3.02695C2.1379 2.61695 2.5979 2.42695 3.1079 2.42695C3.5379 2.42695 4.0179 2.55696 4.5279 2.81696C4.7479 2.99696 4.9779 3.07695 5.2379 3.07695C5.6479 3.07695 6.0979 2.86695 6.5779 2.52695C7.0779 2.33695 7.5479 2.23695 7.9879 2.23695C8.6079 2.23695 9.1579 2.42696 9.6379 2.81696C9.8979 3.13696 10.0779 3.51695 10.1779 3.92695C10.4279 2.70695 10.2479 1.71695 9.6379 0.956955C9.1479 0.566955 8.5979 0.376953 7.9879 0.376953H7.9979Z" fill="#999993"/>
</svg>
