<svg width="13" height="19" viewBox="0 0 13 19" fill="none" xmlns="http://www.w3.org/2000/svg">
<path d="M1.98047 4.46727C1.98047 3.83727 2.02047 3.19727 2.13047 2.53727C2.19047 2.13727 2.37047 1.77727 2.65047 1.49727C3.15047 0.987269 3.60047 0.707266 4.04047 0.647266C4.32047 0.557266 4.59047 0.507267 4.86047 0.507267C5.28047 0.507267 5.71047 0.617267 6.14047 0.847267C6.15047 0.847267 6.24047 0.847267 6.25047 0.847267C6.47047 0.957267 6.72047 1.01727 6.97047 1.01727C7.22047 1.01727 7.47047 0.957265 7.72047 0.837265C8.54047 0.577265 9.27047 0.447266 9.95047 0.447266C10.6805 0.447266 11.3205 0.597269 11.9205 0.907269C12.2505 1.14727 12.4905 1.67727 12.6205 2.48727C12.6505 2.87727 12.6405 3.27727 12.5905 3.69727C12.4505 3.24727 12.2505 2.92727 12.0005 2.74727C11.3805 2.42727 10.7005 2.26727 9.96047 2.26727C9.27047 2.26727 8.52047 2.39727 7.68047 2.66727C7.44047 2.77727 7.22047 2.83727 6.99047 2.83727C6.76047 2.83727 6.53047 2.78727 6.31047 2.67727C6.30047 2.67727 6.22047 2.67727 6.20047 2.67727C5.78047 2.44727 5.33047 2.33727 4.88047 2.33727C4.59047 2.33727 4.31047 2.38727 4.02047 2.47727C3.57047 2.53727 3.08047 2.82727 2.56047 3.36727C2.26047 3.67727 2.07047 4.05727 2.00047 4.48727L1.98047 4.46727Z" fill="#DDDDDD"/>
<path d="M9.94166 0.526955C10.6617 0.526955 11.2917 0.676953 11.8517 0.966953C12.1717 1.20695 12.4017 1.71695 12.5217 2.48695C12.5417 2.77695 12.5417 3.06695 12.5217 3.35695C12.3817 3.04695 12.2117 2.82695 12.0017 2.66695C11.3817 2.34695 10.6917 2.18695 9.93166 2.18695C9.23166 2.18695 8.48166 2.31695 7.61166 2.59695C7.39166 2.69695 7.18166 2.75695 6.96166 2.75695C6.74166 2.75695 6.53166 2.70695 6.31166 2.59695C6.29166 2.59695 6.27166 2.58695 6.25166 2.58695H6.21166C5.76166 2.35695 5.31166 2.23695 4.86166 2.23695C4.57166 2.23695 4.27166 2.28695 4.01166 2.37695C3.53166 2.44695 3.03166 2.74696 2.49166 3.29696C2.31166 3.48696 2.17166 3.69695 2.07166 3.92695C2.09166 3.47695 2.13166 3.01696 2.21166 2.54696C2.27166 2.16696 2.44166 1.81696 2.71166 1.54696C3.20166 1.04696 3.64166 0.776953 4.08166 0.716953C4.34166 0.626953 4.60166 0.586952 4.87166 0.586952C5.28166 0.586952 5.70166 0.696954 6.12166 0.916954C6.14166 0.926954 6.17166 0.936954 6.19166 0.936954H6.23166C6.48166 1.04695 6.73166 1.10695 6.98166 1.10695C7.23166 1.10695 7.50166 1.04695 7.74166 0.926952C8.56166 0.666952 9.29166 0.536953 9.95166 0.536953M9.94166 0.376953C9.22166 0.376953 8.46166 0.526955 7.68166 0.776955C7.44166 0.886955 7.21166 0.946953 6.97166 0.946953C6.73166 0.946953 6.50166 0.886955 6.25166 0.776955H6.18166C5.75166 0.546955 5.31166 0.426952 4.86166 0.426952C4.58166 0.426952 4.31166 0.476956 4.03166 0.566956C3.54166 0.636956 3.07166 0.956954 2.60166 1.43695C2.31166 1.73695 2.12166 2.11695 2.06166 2.51695C1.91166 3.45695 1.87166 4.37696 1.96166 5.29696C1.99166 5.02696 2.02166 4.75695 2.06166 4.48695C2.13166 4.07695 2.31166 3.69696 2.60166 3.40696C3.07166 2.92696 3.54166 2.60695 4.03166 2.53695C4.31166 2.44695 4.59166 2.39695 4.86166 2.39695C5.31166 2.39695 5.74166 2.51696 6.18166 2.74696H6.25166C6.49166 2.85696 6.73166 2.91695 6.97166 2.91695C7.21166 2.91695 7.45166 2.85696 7.68166 2.74696C8.46166 2.49696 9.22166 2.34695 9.94166 2.34695C10.6617 2.34695 11.3117 2.48696 11.9417 2.81696C12.2317 3.02696 12.4517 3.44695 12.6017 4.07695C12.6917 3.55695 12.7217 3.02695 12.6817 2.48695C12.5417 1.62695 12.2917 1.10695 11.9417 0.856953C11.3117 0.536953 10.6417 0.386955 9.94166 0.386955V0.376953Z" fill="#999993"/>
</svg>
