<svg width="13" height="29" viewBox="0 0 13 29" fill="none" xmlns="http://www.w3.org/2000/svg">
<path opacity="0.65" d="M12.6239 2.56681C12.3139 1.71681 11.3239 1.37681 11.1739 1.32681C10.0739 0.966806 9.72394 1.47681 8.17394 1.43681C6.69394 1.39681 6.54393 0.926805 5.41393 1.08681C5.17393 1.12681 3.53392 1.35681 3.11392 2.63681C2.79392 3.59681 3.29393 4.80681 4.05393 5.14681C4.69393 5.42681 5.02393 4.86681 5.90393 5.01681C7.23393 5.23681 7.30393 6.60681 8.41393 6.72681C9.17393 6.81681 9.11393 6.15681 11.4739 4.77681C11.8939 4.52681 12.4239 4.24681 12.6339 3.64681C12.8139 3.13681 12.6639 2.66681 12.6339 2.56681H12.6239Z" fill="#E62C2F" stroke="#E62C2F" stroke-width="0.2" stroke-linecap="round" stroke-linejoin="round"/>
</svg>
