<svg width="13" height="26" viewBox="0 0 13 26" fill="none" xmlns="http://www.w3.org/2000/svg">
<path opacity="0.65" d="M12.4677 1.95645C12.1577 1.10645 11.1677 0.766454 11.0177 0.716454C9.91767 0.356454 9.56767 0.866453 8.01767 0.826453C6.53767 0.786453 6.38766 0.316454 5.25766 0.476454C5.01766 0.516454 3.37768 0.746454 2.95768 2.02645C2.63768 2.98645 3.13766 4.19645 3.89766 4.53645C4.53766 4.81645 4.86767 4.25645 5.74767 4.40645C7.07767 4.62645 7.14766 5.99645 8.25766 6.11645C9.01766 6.20645 8.95768 5.54645 11.3177 4.16645C11.7377 3.91645 12.2677 3.63645 12.4777 3.03645C12.6577 2.52645 12.5077 2.05645 12.4777 1.95645H12.4677Z" fill="#E62C2F" stroke="#E62C2F" stroke-width="0.2" stroke-linecap="round" stroke-linejoin="round"/>
</svg>
