<svg width="11" height="25" viewBox="0 0 11 25" fill="none" xmlns="http://www.w3.org/2000/svg">
<path opacity="0.65" d="M10.3349 2.16641C10.0249 1.31641 9.03486 0.976415 8.88486 0.926415C7.78486 0.566415 7.43486 1.07641 5.88486 1.03641C4.40486 0.996414 4.25487 0.526415 3.12487 0.686415C2.88487 0.726415 1.24486 0.956415 0.824862 2.23642C0.504862 3.19642 1.00486 4.40641 1.76486 4.74641C2.40486 5.02641 2.73486 4.46641 3.61486 4.61641C4.94486 4.83641 5.01487 6.20641 6.12487 6.32641C6.88487 6.41641 6.82486 5.75641 9.18486 4.37641C9.60486 4.12641 10.1349 3.84641 10.3449 3.24641C10.5249 2.73641 10.3749 2.26641 10.3449 2.16641H10.3349Z" fill="#E62C2F" stroke="#E62C2F" stroke-width="0.2" stroke-linecap="round" stroke-linejoin="round"/>
</svg>
