<svg width="13" height="29" viewBox="0 0 13 29" fill="none" xmlns="http://www.w3.org/2000/svg">
<path opacity="0.65" d="M0.425198 2.38712C0.735198 1.53712 1.72521 1.19712 1.87521 1.14712C2.97521 0.787118 3.32521 1.29712 4.87521 1.25712C6.35521 1.21712 6.50522 0.747118 7.63522 0.907118C7.87522 0.947118 9.51521 1.17712 9.93521 2.45712C10.2552 3.41712 9.75521 4.62712 8.9952 4.96712C8.3552 5.24712 8.0252 4.68712 7.1452 4.83712C5.8152 5.05712 5.74522 6.42712 4.63522 6.54712C3.87522 6.63712 3.93519 5.97712 1.57519 4.59712C1.15519 4.34712 0.625219 4.06712 0.415219 3.46712C0.235219 2.95712 0.385219 2.48712 0.415219 2.38712H0.425198Z" fill="#E62C2F" stroke="#E62C2F" stroke-width="0.2" stroke-linecap="round" stroke-linejoin="round"/>
</svg>
