<svg width="13" height="26" viewBox="0 0 13 26" fill="none" xmlns="http://www.w3.org/2000/svg">
<path opacity="0.65" d="M0.593197 1.77677C0.903197 0.926767 1.89318 0.586766 2.04318 0.536766C3.14318 0.176766 3.49318 0.686767 5.04318 0.646767C6.52318 0.606767 6.67319 0.136766 7.80319 0.296766C8.04319 0.336766 9.68321 0.566767 10.1032 1.84677C10.4232 2.80677 9.9232 4.01677 9.1632 4.35677C8.5232 4.63677 8.1932 4.07677 7.3132 4.22677C5.9832 4.44677 5.91319 5.81677 4.80319 5.93677C4.04319 6.02677 4.10319 5.36677 1.74319 3.98677C1.32319 3.73677 0.793187 3.45677 0.583187 2.85677C0.403187 2.34677 0.553187 1.87677 0.583187 1.77677H0.593197Z" fill="#E62C2F" stroke="#E62C2F" stroke-width="0.2" stroke-linecap="round" stroke-linejoin="round"/>
</svg>
