<svg width="11" height="25" viewBox="0 0 11 25" fill="none" xmlns="http://www.w3.org/2000/svg">
<path opacity="0.65" d="M0.72601 1.98673C1.03601 1.13673 2.02599 0.796727 2.17599 0.746727C3.27599 0.386727 3.62599 0.896728 5.17599 0.856728C6.65599 0.816728 6.806 0.346727 7.936 0.506727C8.176 0.546727 9.81599 0.776728 10.236 2.05673C10.556 3.01673 10.056 4.22673 9.29599 4.56673C8.65599 4.84673 8.32601 4.28673 7.44601 4.43673C6.11601 4.65673 6.046 6.02673 4.936 6.14673C4.176 6.23673 4.236 5.57673 1.876 4.19673C1.456 3.94673 0.926 3.66673 0.716 3.06673C0.536 2.55673 0.686 2.08673 0.716 1.98673H0.72601Z" fill="#E62C2F" stroke="#E62C2F" stroke-width="0.2" stroke-linecap="round" stroke-linejoin="round"/>
</svg>
