<svg width="14" height="26" viewBox="0 0 14 26" fill="none" xmlns="http://www.w3.org/2000/svg">
<path opacity="0.65" d="M13.663 23.3963C13.503 23.7463 13.213 23.9163 11.263 24.6163C10.283 24.9663 9.783 25.1463 9.343 25.2463C9.083 25.3063 8.093 25.5463 7.223 25.5663C5.813 25.5963 3.17301 25.0563 2.63301 23.3163C2.30301 22.2463 2.843 20.8063 3.723 20.4063C4.393 20.1063 4.71299 20.5963 5.86299 20.5563C7.45299 20.4963 7.59298 19.5363 9.01298 19.4663C9.93298 19.4263 10.733 19.8863 12.323 20.8263C13.103 21.2863 13.493 21.6163 13.673 22.1363C13.733 22.3063 13.903 22.8663 13.673 23.3963H13.663Z" fill="#E62C2F" stroke="#E62C2F" stroke-width="0.2" stroke-linecap="round" stroke-linejoin="round"/>
</svg>
