<svg width="14" height="26" viewBox="0 0 14 26" fill="none" xmlns="http://www.w3.org/2000/svg">
<path opacity="0.65" d="M0.466743 23.3963C0.626743 23.7463 0.916737 23.9163 2.86674 24.6163C3.84674 24.9663 4.34675 25.1463 4.78675 25.2463C5.04675 25.3063 6.03675 25.5463 6.90675 25.5663C8.31675 25.5963 10.9567 25.0563 11.4967 23.3163C11.8267 22.2463 11.2867 20.8063 10.4067 20.4063C9.73675 20.1063 9.41675 20.5963 8.26675 20.5563C6.67675 20.4963 6.53674 19.5363 5.11674 19.4663C4.19674 19.4263 3.39674 19.8863 1.80674 20.8263C1.02674 21.2863 0.636749 21.6163 0.456749 22.1363C0.396749 22.3063 0.226749 22.8663 0.456749 23.3963H0.466743Z" fill="#E62C2F" stroke="#E62C2F" stroke-width="0.2" stroke-linecap="round" stroke-linejoin="round"/>
</svg>
