<svg width="11" height="30" viewBox="0 0 11 30" fill="none" xmlns="http://www.w3.org/2000/svg">
<path opacity="0.65" d="M6.07135 0.999847C4.51135 0.719847 2.91135 2.27985 3.10135 3.37985C3.27135 4.35985 4.83133 4.75985 4.96133 4.78985C6.03133 5.04985 7.70133 4.84985 8.08133 3.81985C8.47133 2.77985 7.41135 1.22985 6.07135 0.989846V0.999847Z" fill="#E62C2F" stroke="#E62C2F" stroke-width="0.2" stroke-linecap="round" stroke-linejoin="round"/>
<path d="M9.92096 22.5798C9.67096 20.0298 9.10093 17.4298 8.86093 14.8498C8.62093 12.2698 7.65094 10.1898 7.09094 6.26983C6.53094 2.35983 5.17094 2.17983 4.34094 4.19983C3.51094 6.21983 2.30094 11.6698 2.56094 14.6698C2.83094 17.6698 1.98094 21.1498 1.46094 22.5798H9.91095H9.92096Z" fill="#F4DE9C" stroke="#5E5E5A" stroke-width="0.15" stroke-linecap="round" stroke-linejoin="round"/>
<path d="M1.98095 29.2298C2.21095 29.2798 3.23094 29.8598 4.69094 29.7198C5.60094 29.6298 6.73094 29.9998 7.84094 29.5898C8.40094 29.3798 9.05093 29.3498 9.68093 29.1398C10.3709 28.9098 10.4209 26.1898 10.1909 23.6498C9.96094 21.1098 9.45094 21.7598 8.62094 20.3298C5.00094 14.0998 4.58095 19.6898 2.79095 19.8198C1.65095 19.8998 -0.269047 28.7098 1.98095 29.2198V29.2298Z" fill="white" stroke="#5E5E5A" stroke-width="0.15" stroke-linecap="round" stroke-linejoin="round"/>
</svg>
