<svg width="9" height="29" viewBox="0 0 9 29" fill="none" xmlns="http://www.w3.org/2000/svg">
<path opacity="0.65" d="M3.82916 0.860198C2.26916 0.580198 0.669161 2.1402 0.859161 3.2402C1.02916 4.2202 2.58918 4.6202 2.71918 4.6502C3.78918 4.9102 5.45917 4.7102 5.83917 3.6802C6.22917 2.6402 5.16916 1.0902 3.82916 0.850198V0.860198Z" fill="#E62C2F" stroke="#E62C2F" stroke-width="0.2" stroke-linecap="round" stroke-linejoin="round"/>
<path d="M8.03986 21.7202C7.96986 18.0602 7.08984 13.8302 6.54984 11.9702C6.00984 10.1102 5.62984 6.83022 4.29984 4.05022C2.96984 1.27022 2.30985 3.78022 2.43985 4.98022C2.56985 6.18022 1.82984 10.9802 1.36984 12.9302C0.909843 14.8802 1.25984 18.3402 0.589844 21.7202H8.03986Z" fill="#F4DE9C" stroke="#5E5E5A" stroke-width="0.15" stroke-linecap="round" stroke-linejoin="round"/>
<path d="M1.43843 27.8006C0.418431 27.2106 0.598417 24.1706 0.548417 22.4106C0.458417 18.9906 4.32843 15.2606 6.99843 19.1606C7.84843 20.4106 8.25844 20.7706 8.25844 23.9406C8.25844 27.1106 7.48843 29.7006 5.52843 28.4806C3.57843 27.2606 3.61842 29.0606 1.42842 27.8006H1.43843Z" fill="white" stroke="#5E5E5A" stroke-width="0.15" stroke-linecap="round" stroke-linejoin="round"/>
</svg>
