<svg width="10" height="33" viewBox="0 0 10 33" fill="none" xmlns="http://www.w3.org/2000/svg">
<path opacity="0.65" d="M4.39166 0.129729C2.83166 -0.150271 1.23166 1.40973 1.42166 2.50973C1.59166 3.48973 3.15165 3.88973 3.28165 3.91973C4.35165 4.17973 6.02164 3.97973 6.40164 2.94973C6.79164 1.90973 5.73166 0.359729 4.39166 0.119729V0.129729Z" fill="#E62C2F" stroke="#E62C2F" stroke-width="0.2" stroke-linecap="round" stroke-linejoin="round"/>
<path d="M6.88312 10.1095C6.11312 7.7595 5.09312 5.8195 4.79312 3.3995C4.49312 0.979504 3.4931 1.0195 2.9631 2.3495C2.4331 3.6795 1.91311 9.5595 1.75311 13.3795C1.59311 17.1995 1.87313 20.7995 1.20312 23.1095H7.89313C6.98313 19.8295 7.66312 12.4595 6.88312 10.1095Z" fill="#F4DE9C" stroke="#5E5E5A" stroke-width="0.15" stroke-linecap="round" stroke-linejoin="round"/>
<path d="M0.211639 29.3197C-0.278361 27.2697 0.901641 24.5397 1.15164 23.2897C1.39164 22.0397 3.29163 20.4097 4.61163 20.4997C5.93163 20.5997 7.64163 21.6497 7.86163 22.4897C9.00163 26.8497 10.2416 29.1197 8.18164 31.5197C6.86164 33.0497 4.81165 33.1997 3.35165 31.9497C1.89165 30.6997 0.761658 31.5697 0.231658 29.3197H0.211639Z" fill="white" stroke="#5E5E5A" stroke-width="0.15" stroke-linecap="round" stroke-linejoin="round"/>
</svg>
