<svg width="12" height="30" viewBox="0 0 12 30" fill="none" xmlns="http://www.w3.org/2000/svg">
<path opacity="0.65" d="M6.94278 0.829646C4.95278 0.479646 2.91279 2.46965 3.14279 3.86965C3.35279 5.11965 5.35279 5.62965 5.51279 5.66965C6.88279 5.99965 9.00277 5.74965 9.49277 4.43965C9.99277 3.10965 8.63277 1.13965 6.93277 0.829646H6.94278Z" fill="#E62C2F" stroke="#E62C2F" stroke-width="0.2" stroke-linecap="round" stroke-linejoin="round"/>
<path d="M7.01994 7.37945C6.81994 4.56945 6.62994 2.43945 7.10994 2.43945C8.78994 2.43945 9.76994 8.55945 9.82994 9.27945C9.93994 10.7095 9.95995 12.5495 9.99995 13.8095C10.13 17.6795 10.39 20.3895 10.39 20.3895C9.04997 17.3095 8.50994 14.7295 8.26994 12.9495C8.15994 12.1595 7.67994 9.88945 7.01994 7.36945V7.37945Z" fill="#EDD091" stroke="#5E5E5A" stroke-width="0.15" stroke-linecap="round" stroke-linejoin="round"/>
<path d="M10.3919 20.3994L6.67188 20.3594L10.3919 20.3994Z" fill="#EDD091" stroke="#5E5E5A" stroke-width="0.15" stroke-linecap="round" stroke-linejoin="round"/>
<path d="M10.3908 20.3995L1.80078 20.2895C1.80078 20.2895 3.7908 12.3295 3.9408 4.07945C3.9408 3.68945 4.2608 2.43945 4.8508 2.43945C5.5508 2.43945 5.90079 3.45945 6.03079 3.87945C7.16079 7.48945 8.11078 11.8095 8.27078 12.9595C8.51078 14.7395 9.05081 17.3195 10.3908 20.3995Z" fill="#F4DE9C" stroke="#5E5E5A" stroke-width="0.15" stroke-linecap="round" stroke-linejoin="round"/>
<path d="M0.671875 25.6794C0.671875 23.7294 1.26187 20.6894 2.38187 19.3794C3.12187 18.5094 4.72186 17.7194 5.94186 17.8894C7.16186 18.0594 7.60186 19.4694 8.53186 19.4294C9.45186 19.3894 10.2919 19.1894 10.4819 20.9394C10.6819 22.6994 11.0719 22.8394 11.2419 23.9694C11.4119 25.0894 11.8019 26.0494 9.70187 26.8894C7.60187 27.7294 7.08186 30.2694 5.22186 29.7094C3.35186 29.1494 3.60186 28.0794 2.28186 27.5894C0.96186 27.0994 0.671875 26.4194 0.671875 25.6894V25.6794Z" fill="white" stroke="#5E5E5A" stroke-width="0.15" stroke-linecap="round" stroke-linejoin="round"/>
</svg>
