<svg width="9" height="28" viewBox="0 0 9 28" fill="none" xmlns="http://www.w3.org/2000/svg">
<path opacity="0.65" d="M5.77057 1.02035C4.21057 0.740354 2.61057 2.30035 2.80057 3.40035C2.97057 4.38035 4.53057 4.78035 4.66057 4.81035C5.73057 5.07035 7.40056 4.87035 7.78056 3.84035C8.17056 2.80035 7.11057 1.25035 5.77057 1.01035V1.02035Z" fill="#E62C2F" stroke="#E62C2F" stroke-width="0.2" stroke-linecap="round" stroke-linejoin="round"/>
<path d="M8.66063 19.4002C8.66063 17.2702 8.09062 13.3402 7.68062 10.7102C7.27062 8.08017 5.72062 7.35017 6.01062 4.67017C6.30062 1.99017 5.08063 1.45017 4.02063 3.43017C2.96063 5.41017 2.31062 8.05017 2.59062 10.9802C2.87062 13.9102 2.28062 15.6302 0.640625 19.4102H8.65062L8.66063 19.4002Z" fill="#F4DE9C" stroke="#5E5E5A" stroke-width="0.15" stroke-linecap="round" stroke-linejoin="round"/>
<path d="M0.499313 25.8308C0.989313 26.6608 2.60931 26.5108 2.85931 27.2008C3.09931 27.8808 5.52932 28.1808 6.20932 27.0008C6.88932 25.8308 8.15932 25.3908 8.45932 24.2708C8.74932 23.1508 9.08932 18.7508 8.45932 18.3108C7.82932 17.8708 6.75931 18.4108 6.21931 17.8208C5.67931 17.2308 4.33931 15.6208 3.41931 16.6508C2.49931 17.6808 2.32931 18.3708 1.57931 18.5308C-0.380685 18.9408 0.149313 25.2308 0.499313 25.8308Z" fill="white" stroke="#5E5E5A" stroke-width="0.15" stroke-linecap="round" stroke-linejoin="round"/>
</svg>
