<svg width="13" height="28" viewBox="0 0 13 28" fill="none" xmlns="http://www.w3.org/2000/svg">
<path opacity="0.65" d="M12.1591 1.64005C11.8491 0.790048 10.8591 0.450048 10.7091 0.400048C9.60909 0.0400479 9.25909 0.550048 7.70909 0.510048C6.22909 0.470048 6.07908 4.76688e-05 4.94908 0.160048C4.70908 0.200048 3.06908 0.430048 2.64908 1.71005C2.32908 2.67005 2.82908 3.88005 3.58908 4.22005C4.22908 4.50005 4.55909 3.94005 5.43909 4.09005C6.76909 4.31005 6.83908 5.68005 7.94908 5.80005C8.70908 5.89005 8.64908 5.23005 11.0091 3.85005C11.4291 3.60005 11.9591 3.32005 12.1691 2.72005C12.3491 2.21005 12.1991 1.74005 12.1691 1.64005H12.1591Z" fill="#E62C2F" stroke="#E62C2F" stroke-width="0.2" stroke-linecap="round" stroke-linejoin="round"/>
<path d="M8.05093 2.6701C7.82093 0.390095 6.42094 0.980096 6.32094 2.8901C6.22094 4.8001 5.36094 8.5801 4.21094 12.3301L8.23093 12.8201C8.59093 11.4401 8.29093 4.9501 8.05093 2.6701Z" fill="#F4DE9C" stroke="#5E5E5A" stroke-width="0.15" stroke-linecap="round" stroke-linejoin="round"/>
<path d="M1.19141 18.4398C2.26141 16.0898 2.76141 16.2798 2.27141 14.0298C1.78141 11.7798 0.831411 9.26983 2.32141 5.49983C3.81141 1.72983 6.0914 -0.020166 5.6714 2.64983C5.2514 5.31983 4.59141 8.15983 5.32141 10.1898C6.05141 12.2198 7.71141 12.6998 8.24141 10.3698C8.77141 8.03983 8.80141 6.33983 8.83141 4.82983C8.86141 3.32983 9.1014 0.249834 10.2814 2.24983C11.4514 4.24983 12.2914 7.40983 11.8714 11.4898C11.8714 11.4898 10.9114 16.6598 11.7914 18.4498H1.19141V18.4398Z" fill="#F4DE9C" stroke="#5E5E5A" stroke-width="0.15" stroke-linecap="round" stroke-linejoin="round"/>
<path d="M1.14931 18.4301C0.379313 19.8301 0.0793199 25.1501 0.71932 26.0801C1.34932 27.0101 3.05932 27.1501 3.74932 26.4701C4.43932 25.7901 4.64931 26.5601 5.25931 26.9001C5.86931 27.2301 6.40933 26.6101 7.06933 27.2601C8.31933 28.4801 10.7293 27.6501 11.4193 24.7701C12.0993 21.8901 12.2493 19.3001 11.9093 18.4201C11.5693 17.5401 9.90932 18.9601 8.73932 17.8801C7.56932 16.8101 5.85932 16.8501 4.43932 17.4901C3.01932 18.1301 2.28932 16.3901 1.15932 18.4401L1.14931 18.4301Z" fill="white" stroke="#5E5E5A" stroke-width="0.15" stroke-linecap="round" stroke-linejoin="round"/>
</svg>
