<svg width="14" height="26" viewBox="0 0 14 26" fill="none" xmlns="http://www.w3.org/2000/svg">
<path opacity="0.65" d="M13.0028 2.0297C12.6928 1.1797 11.7028 0.839696 11.5528 0.789696C10.4528 0.429696 10.1028 0.939696 8.55283 0.899696C7.07283 0.859696 6.92282 0.389696 5.79282 0.549696C5.55282 0.589696 3.91283 0.819696 3.49283 2.0997C3.17283 3.0597 3.67282 4.2697 4.43282 4.6097C5.07282 4.8897 5.40283 4.3297 6.28283 4.4797C7.61283 4.6997 7.68282 6.0697 8.79282 6.1897C9.55282 6.2797 9.49283 5.6197 11.8528 4.2397C12.2728 3.9897 12.8028 3.7097 13.0128 3.1097C13.1928 2.5997 13.0428 2.1297 13.0128 2.0297H13.0028Z" fill="#E62C2F" stroke="#E62C2F" stroke-width="0.2" stroke-linecap="round" stroke-linejoin="round"/>
<path d="M9.23093 3.62984C9.14093 1.62984 7.84092 2.04984 7.65092 3.71984C7.45092 5.37984 6.47094 8.62984 5.21094 11.8398L8.83093 12.5198C9.23093 11.3398 9.31093 5.63984 9.23093 3.62984Z" fill="#F4DE9C" stroke="#5E5E5A" stroke-width="0.15" stroke-linecap="round" stroke-linejoin="round"/>
<path d="M12.8397 10.4402C12.4997 8.44016 12.6197 5.57016 11.6397 2.90016C10.6597 0.230158 9.88969 2.08016 10.1397 3.31016C10.3897 4.55016 9.8897 6.96016 9.2197 8.33016C8.5497 9.70016 7.75969 12.4402 6.33969 11.3402C4.91969 10.2402 5.70969 6.55016 6.50969 3.79016C7.30969 1.03016 5.70969 1.72016 5.11969 2.97016C4.53969 4.22016 2.3697 7.44016 2.4097 10.9302C2.4497 14.4202 2.72969 15.6802 1.67969 17.5602L12.8297 17.7202C13.1797 14.8602 13.1897 12.4502 12.8397 10.4502V10.4402Z" fill="#F4DE9C" stroke="#5E5E5A" stroke-width="0.15" stroke-linecap="round" stroke-linejoin="round"/>
<path d="M1.9414 17.0994C0.531396 19.2994 0.431393 22.9094 2.14139 23.8894C3.85139 24.8694 4.8314 23.8894 5.6614 24.1294C6.4914 24.3694 8.8414 26.9094 10.6914 25.1994C12.6814 23.3594 13.5714 17.9794 12.6914 16.7594C10.8014 14.1394 9.13139 17.1594 6.51139 15.6494C5.65139 15.1494 3.36139 14.9094 1.95139 17.1094L1.9414 17.0994Z" fill="white" stroke="#5E5E5A" stroke-width="0.15" stroke-linecap="round" stroke-linejoin="round"/>
</svg>
