<svg width="12" height="25" viewBox="0 0 12 25" fill="none" xmlns="http://www.w3.org/2000/svg">
<path opacity="0.65" d="M10.87 2.23966C10.56 1.38966 9.57002 1.04966 9.42002 0.999657C8.32002 0.639657 7.97002 1.14966 6.42002 1.10966C4.94002 1.06966 4.79002 0.599657 3.66002 0.759657C3.42002 0.799657 1.78002 1.02966 1.36002 2.30966C1.04002 3.26966 1.54002 4.47966 2.30002 4.81966C2.94002 5.09966 3.27001 4.53966 4.15001 4.68966C5.48001 4.90966 5.55002 6.27966 6.66002 6.39966C7.42002 6.48966 7.36002 5.82966 9.72002 4.44966C10.14 4.19966 10.67 3.91966 10.88 3.31966C11.06 2.80966 10.91 2.33966 10.88 2.23966H10.87Z" fill="#E62C2F" stroke="#E62C2F" stroke-width="0.2" stroke-linecap="round" stroke-linejoin="round"/>
<path d="M6.9911 3.5696C6.5711 1.6096 5.3611 2.2396 5.4411 3.9096C5.5211 5.5796 5.08109 8.9496 4.37109 12.3196L8.0511 12.3896C8.2511 11.1596 7.40109 5.5196 6.98109 3.5596L6.9911 3.5696Z" fill="#F4DE9C" stroke="#5E5E5A" stroke-width="0.15" stroke-linecap="round" stroke-linejoin="round"/>
<path d="M10.862 17.8095C10.232 14.2295 10.802 9.29946 10.372 7.45946C9.94202 5.61946 9.36203 2.48946 8.19203 2.12946C7.03203 1.76946 7.35202 4.82946 7.93202 7.36946C8.52202 9.90946 7.90203 11.7695 5.81203 12.1095C3.73203 12.4495 5.29203 7.13946 5.05203 3.99946C4.81203 0.859457 3.05203 1.67946 3.22203 3.65946C3.40203 5.63946 1.41202 9.95946 1.51202 11.0995C1.61202 12.2495 2.21203 15.0595 1.33203 17.7995H10.842L10.862 17.8095Z" fill="#F4DE9C" stroke="#5E5E5A" stroke-width="0.15" stroke-linecap="round" stroke-linejoin="round"/>
<path d="M1.35121 17.7995C0.581214 19.5195 1.03121 24.1695 2.75121 24.1695C4.47121 24.1695 4.9012 23.8995 5.5412 24.5495C6.1812 25.1995 7.15121 24.2295 7.69121 24.3395C8.23121 24.4495 10.2012 25.8895 10.7412 22.9995C11.2912 20.0995 11.3412 15.7995 9.67121 16.1295C5.55121 16.9295 6.56121 12.5895 3.33121 16.9895C2.74121 17.7995 1.9912 16.3695 1.3412 17.8195L1.35121 17.7995Z" fill="white" stroke="#5E5E5A" stroke-width="0.15" stroke-linecap="round" stroke-linejoin="round"/>
</svg>
