<svg width="11" height="30" viewBox="0 0 11 30" fill="none" xmlns="http://www.w3.org/2000/svg">
<path opacity="0.65" d="M5.06054 0.820159C6.62054 0.540159 8.22054 2.10016 8.03054 3.20016C7.86054 4.18016 6.30055 4.58016 6.17055 4.61016C5.10055 4.87016 3.43053 4.67016 3.05053 3.64016C2.66053 2.60016 3.72054 1.05016 5.06054 0.810159V0.820159Z" fill="#E62C2F" stroke="#E62C2F" stroke-width="0.2" stroke-linecap="round" stroke-linejoin="round"/>
<path d="M1.21094 22.4001C1.46094 19.8501 2.03094 17.2501 2.27094 14.6701C2.51094 12.0901 3.48095 10.0101 4.04095 6.09014C4.60095 2.18014 5.96095 2.00014 6.79095 4.02014C7.62095 6.04014 8.83095 11.4901 8.57095 14.4901C8.30095 17.4901 9.15096 20.9701 9.67096 22.4001H1.22095H1.21094Z" fill="#F4DE9C" stroke="#5E5E5A" stroke-width="0.15" stroke-linecap="round" stroke-linejoin="round"/>
<path d="M9.14975 29.0502C8.91975 29.1002 7.89976 29.6802 6.43976 29.5402C5.52976 29.4502 4.39976 29.8202 3.28976 29.4102C2.72976 29.2002 2.07977 29.1702 1.44977 28.9602C0.759768 28.7302 0.709758 26.0102 0.939758 23.4702C1.16976 20.9302 1.67977 21.5802 2.50977 20.1502C6.12977 13.9202 6.54975 19.5102 8.33975 19.6402C9.47975 19.7202 11.3997 28.5302 9.14975 29.0402V29.0502Z" fill="white" stroke="#5E5E5A" stroke-width="0.15" stroke-linecap="round" stroke-linejoin="round"/>
</svg>
