<svg width="9" height="29" viewBox="0 0 9 29" fill="none" xmlns="http://www.w3.org/2000/svg">
<path opacity="0.65" d="M5.3027 0.669768C6.8627 0.389768 8.4627 1.94977 8.2727 3.04977C8.1027 4.02977 6.54271 4.42977 6.41271 4.45977C5.34271 4.71977 3.67272 4.51977 3.29272 3.48977C2.90272 2.44977 3.9627 0.899768 5.3027 0.659768V0.669768Z" fill="#E62C2F" stroke="#E62C2F" stroke-width="0.2" stroke-linecap="round" stroke-linejoin="round"/>
<path d="M1.08984 21.5298C1.15984 17.8698 2.03983 13.6398 2.57983 11.7798C3.11983 9.91979 3.49983 6.63979 4.82983 3.85979C6.15983 1.07979 6.81985 3.58979 6.68985 4.78979C6.55985 5.98979 7.29986 10.7898 7.75986 12.7398C8.21986 14.6898 7.86986 18.1498 8.53986 21.5298H1.08984Z" fill="#F4DE9C" stroke="#5E5E5A" stroke-width="0.15" stroke-linecap="round" stroke-linejoin="round"/>
<path d="M7.6911 27.6199C8.7111 27.0299 8.53109 23.9899 8.58109 22.2299C8.67109 18.8099 4.8011 15.0799 2.1311 18.9799C1.2811 20.2299 0.871094 20.5899 0.871094 23.7599C0.871094 26.9299 1.6411 29.5199 3.6011 28.2999C5.5511 27.0799 5.51111 28.8799 7.70111 27.6199H7.6911Z" fill="white" stroke="#5E5E5A" stroke-width="0.15" stroke-linecap="round" stroke-linejoin="round"/>
</svg>
