<svg width="11" height="34" viewBox="0 0 11 34" fill="none" xmlns="http://www.w3.org/2000/svg">
<path opacity="0.65" d="M5.7402 0.940276C7.3002 0.660276 8.9002 2.22028 8.7102 3.32028C8.5402 4.30028 6.98021 4.70028 6.85021 4.73028C5.78021 4.99028 4.11022 4.79028 3.73022 3.76028C3.34022 2.72028 4.4002 1.17028 5.7402 0.930276V0.940276Z" fill="#E62C2F" stroke="#E62C2F" stroke-width="0.2" stroke-linecap="round" stroke-linejoin="round"/>
<path d="M3.24829 10.9298C4.01829 8.57982 5.03829 6.63982 5.33829 4.21982C5.63829 1.79982 6.6383 1.83982 7.1683 3.16982C7.6983 4.49982 8.2183 10.3798 8.3783 14.1998C8.5383 18.0198 8.25828 21.6198 8.92828 23.9298H2.23828C3.14828 20.6498 2.46829 13.2798 3.24829 10.9298Z" fill="#F4DE9C" stroke="#5E5E5A" stroke-width="0.15" stroke-linecap="round" stroke-linejoin="round"/>
<path d="M9.91986 30.14C10.4099 28.09 9.22985 25.36 8.97985 24.11C8.73985 22.86 6.83983 21.23 5.51983 21.32C4.19983 21.42 2.48983 22.47 2.26983 23.31C1.12983 27.67 -0.110144 29.94 1.94986 32.34C3.26986 33.87 5.31984 34.02 6.77984 32.77C8.23984 31.52 9.36984 32.39 9.89984 30.14H9.91986Z" fill="white" stroke="#5E5E5A" stroke-width="0.15" stroke-linecap="round" stroke-linejoin="round"/>
</svg>
