<svg width="12" height="30" viewBox="0 0 12 30" fill="none" xmlns="http://www.w3.org/2000/svg">
<path opacity="0.65" d="M5.18998 0.640193C7.17998 0.290193 9.21997 2.28019 8.98997 3.68019C8.77997 4.93019 6.77998 5.44019 6.61998 5.48019C5.24998 5.81019 3.13 5.56019 2.64 4.25019C2.14 2.92019 3.49999 0.950193 5.19999 0.640193H5.18998Z" fill="#E62C2F" stroke="#E62C2F" stroke-width="0.2" stroke-linecap="round" stroke-linejoin="round"/>
<path d="M5.10046 7.19977C5.30046 4.38977 5.49047 2.25977 5.01047 2.25977C3.33047 2.25977 2.35047 8.37977 2.29047 9.09977C2.18047 10.5298 2.16045 12.3698 2.12045 13.6298C1.99045 17.4998 1.73047 20.2098 1.73047 20.2098C3.07047 17.1298 3.61046 14.5498 3.85046 12.7698C3.96046 11.9798 4.44046 9.70976 5.10046 7.18976V7.19977Z" fill="#EDD091" stroke="#5E5E5A" stroke-width="0.15" stroke-linecap="round" stroke-linejoin="round"/>
<path d="M1.74219 20.2197L5.45221 20.1797L1.74219 20.2197Z" fill="#EDD091" stroke="#5E5E5A" stroke-width="0.15" stroke-linecap="round" stroke-linejoin="round"/>
<path d="M1.74219 20.2198L10.3322 20.1098C10.3322 20.1098 8.3422 12.1498 8.1922 3.89977C8.1922 3.50977 7.8722 2.25977 7.2822 2.25977C6.5822 2.25977 6.2322 3.27977 6.1022 3.69977C4.9722 7.30977 4.02218 11.6298 3.86218 12.7798C3.62218 14.5598 3.08219 17.1398 1.74219 20.2198Z" fill="#F4DE9C" stroke="#5E5E5A" stroke-width="0.15" stroke-linecap="round" stroke-linejoin="round"/>
<path d="M11.4593 25.4998C11.4593 23.5498 10.8693 20.5098 9.74931 19.1998C9.00931 18.3298 7.40931 17.5398 6.18931 17.7098C4.96931 17.8798 4.52932 19.2898 3.59932 19.2498C2.67932 19.2098 1.8393 19.0098 1.6493 20.7598C1.4493 22.5198 1.05932 22.6598 0.889324 23.7898C0.719324 24.9098 0.329303 25.8698 2.4293 26.7098C4.5293 27.5498 5.04931 30.0898 6.90931 29.5298C8.77931 28.9698 8.52932 27.8998 9.84932 27.4098C11.1693 26.9198 11.4593 26.2398 11.4593 25.5098V25.4998Z" fill="white" stroke="#5E5E5A" stroke-width="0.15" stroke-linecap="round" stroke-linejoin="round"/>
</svg>
