<svg width="10" height="28" viewBox="0 0 10 28" fill="none" xmlns="http://www.w3.org/2000/svg">
<path opacity="0.65" d="M3.3496 0.829925C4.9096 0.549925 6.5096 2.10992 6.3196 3.20992C6.1496 4.18992 4.58959 4.58992 4.45959 4.61992C3.38959 4.87992 1.71959 4.67992 1.33959 3.64992C0.94959 2.60992 2.0096 1.05992 3.3496 0.819925V0.829925Z" fill="#E62C2F" stroke="#E62C2F" stroke-width="0.2" stroke-linecap="round" stroke-linejoin="round"/>
<path d="M0.457031 19.2195C0.457031 17.0895 1.02704 13.1595 1.43704 10.5295C1.84704 7.89951 3.39703 7.16951 3.10703 4.48951C2.81703 1.80951 4.03705 1.26951 5.09705 3.24951C6.15705 5.22951 6.80704 7.86951 6.52704 10.7995C6.24704 13.7295 6.83705 15.4495 8.47705 19.2295H0.467041L0.457031 19.2195Z" fill="#F4DE9C" stroke="#5E5E5A" stroke-width="0.15" stroke-linecap="round" stroke-linejoin="round"/>
<path d="M8.62857 25.6403C8.13857 26.4703 6.51855 26.3203 6.26855 27.0103C6.02855 27.6903 3.59858 27.9903 2.91858 26.8103C2.23858 25.6403 0.968579 25.2003 0.668579 24.0803C0.378579 22.9603 0.0385785 18.5603 0.668579 18.1203C1.29858 17.6803 2.36857 18.2203 2.90857 17.6303C3.44857 17.0403 4.78856 15.4303 5.70856 16.4603C6.62856 17.4903 6.79855 18.1803 7.54855 18.3403C9.50855 18.7503 8.97857 25.0403 8.62857 25.6403Z" fill="white" stroke="#5E5E5A" stroke-width="0.15" stroke-linecap="round" stroke-linejoin="round"/>
</svg>
