<svg width="13" height="29" viewBox="0 0 13 29" fill="none" xmlns="http://www.w3.org/2000/svg">
<path opacity="0.65" d="M0.960354 2.46036C1.27035 1.61036 2.26037 1.27036 2.41037 1.22036C3.51037 0.86036 3.86037 1.37036 5.41037 1.33036C6.89037 1.29036 7.04038 0.82036 8.17038 0.98036C8.41038 1.02036 10.0504 1.25036 10.4704 2.53036C10.7904 3.49036 10.2904 4.70036 9.53036 5.04036C8.89036 5.32036 8.56036 4.76036 7.68036 4.91036C6.35036 5.13036 6.28038 6.50036 5.17038 6.62036C4.41038 6.71036 4.47035 6.05036 2.11035 4.67036C1.69035 4.42036 1.16037 4.14036 0.950375 3.54036C0.770375 3.03036 0.920375 2.56036 0.950375 2.46036H0.960354Z" fill="#E62C2F" stroke="#E62C2F" stroke-width="0.2" stroke-linecap="round" stroke-linejoin="round"/>
<path d="M5.06932 3.48064C5.29932 1.20064 6.6993 1.79064 6.7993 3.70064C6.8993 5.61064 7.75931 9.39064 8.90931 13.1406L4.88932 13.6306C4.52932 12.2506 4.82932 5.76064 5.06932 3.48064Z" fill="#F4DE9C" stroke="#5E5E5A" stroke-width="0.15" stroke-linecap="round" stroke-linejoin="round"/>
<path d="M11.9304 19.2601C10.8604 16.9101 10.3604 17.1001 10.8504 14.8501C11.3404 12.6001 12.2904 10.0901 10.8004 6.32015C9.31037 2.55015 7.0304 0.800147 7.4504 3.47015C7.8704 6.14015 8.53037 8.98015 7.80037 11.0101C7.07037 13.0401 5.41039 13.5201 4.88039 11.1901C4.35039 8.86015 4.32039 7.16015 4.29039 5.65015C4.26039 4.15015 4.02038 1.07015 2.84038 3.07015C1.67038 5.07015 0.830385 8.23015 1.25039 12.3101C1.25039 12.3101 2.21037 17.4801 1.33037 19.2701H11.9304V19.2601Z" fill="#F4DE9C" stroke="#5E5E5A" stroke-width="0.15" stroke-linecap="round" stroke-linejoin="round"/>
<path d="M11.9822 19.2407C12.7522 20.6407 13.0522 25.9607 12.4122 26.8907C11.7822 27.8207 10.0722 27.9607 9.38218 27.2807C8.69218 26.6007 8.48217 27.3707 7.87217 27.7107C7.26217 28.0407 6.72218 27.4207 6.06218 28.0707C4.81218 29.2907 2.40217 28.4607 1.71217 25.5807C1.03217 22.7007 0.882181 20.1107 1.22218 19.2307C1.56218 18.3507 3.22219 19.7707 4.39219 18.6907C5.56219 17.6207 7.27218 17.6607 8.69218 18.3007C10.1122 18.9407 10.8422 17.2007 11.9722 19.2507L11.9822 19.2407Z" fill="white" stroke="#5E5E5A" stroke-width="0.15" stroke-linecap="round" stroke-linejoin="round"/>
</svg>
