<svg width="14" height="26" viewBox="0 0 14 26" fill="none" xmlns="http://www.w3.org/2000/svg">
<path opacity="0.65" d="M1.12835 1.85001C1.43835 1.00001 2.42833 0.660008 2.57833 0.610008C3.67833 0.250008 4.02833 0.760009 5.57833 0.720009C7.05833 0.680009 7.20834 0.210009 8.33834 0.370009C8.57834 0.410009 10.2184 0.640009 10.6384 1.92001C10.9584 2.88001 10.4584 4.09001 9.69836 4.43001C9.05836 4.71001 8.72835 4.15001 7.84835 4.30001C6.51835 4.52001 6.44834 5.89001 5.33834 6.01001C4.57834 6.10001 4.63835 5.44001 2.27835 4.06001C1.85835 3.81001 1.32834 3.53001 1.11834 2.93001C0.938344 2.42001 1.08834 1.95001 1.11834 1.85001H1.12835Z" fill="#E62C2F" stroke="#E62C2F" stroke-width="0.2" stroke-linecap="round" stroke-linejoin="round"/>
<path d="M4.89897 3.45015C4.98897 1.45015 6.28899 1.87015 6.47899 3.54015C6.67899 5.20015 7.65899 8.45015 8.91899 11.6602L5.29897 12.3402C4.89897 11.1602 4.81897 5.46015 4.89897 3.45015Z" fill="#F4DE9C" stroke="#5E5E5A" stroke-width="0.15" stroke-linecap="round" stroke-linejoin="round"/>
<path d="M1.28881 10.2605C1.62881 8.26047 1.5088 5.39047 2.4888 2.72047C3.4688 0.0504711 4.2388 1.90047 3.9888 3.13047C3.7388 4.37047 4.23881 6.78047 4.90881 8.15047C5.57881 9.52047 6.36881 12.2605 7.78881 11.1605C9.20881 10.0605 8.4188 6.37047 7.6188 3.61047C6.8188 0.850471 8.41881 1.54047 9.00881 2.79047C9.58881 4.04047 11.7588 7.26047 11.7188 10.7505C11.6788 14.2405 11.3988 15.5005 12.4488 17.3805L1.29879 17.5405C0.948793 14.6805 0.938814 12.2705 1.28881 10.2705V10.2605Z" fill="#F4DE9C" stroke="#5E5E5A" stroke-width="0.15" stroke-linecap="round" stroke-linejoin="round"/>
<path d="M12.1869 16.9197C13.5969 19.1197 13.6969 22.7297 11.9869 23.7097C10.2769 24.6897 9.29689 23.7097 8.46689 23.9497C7.63689 24.1897 5.28689 26.7297 3.43689 25.0197C1.44689 23.1797 0.556887 17.7997 1.43689 16.5797C3.32689 13.9597 4.99688 16.9797 7.61688 15.4697C8.47688 14.9697 10.7669 14.7297 12.1769 16.9297L12.1869 16.9197Z" fill="white" stroke="#5E5E5A" stroke-width="0.15" stroke-linecap="round" stroke-linejoin="round"/>
</svg>
