<svg width="12" height="25" viewBox="0 0 12 25" fill="none" xmlns="http://www.w3.org/2000/svg">
<path opacity="0.65" d="M1.26117 2.05997C1.57117 1.20997 2.56115 0.869969 2.71115 0.819969C3.81115 0.459969 4.16115 0.96997 5.71115 0.92997C7.19115 0.88997 7.34116 0.41997 8.47116 0.57997C8.71116 0.61997 10.3511 0.84997 10.7711 2.12997C11.0911 3.08997 10.5911 4.29997 9.83114 4.63997C9.19114 4.91997 8.86117 4.35997 7.98117 4.50997C6.65117 4.72997 6.58116 6.09997 5.47116 6.21997C4.71116 6.30997 4.77116 5.64997 2.41116 4.26997C1.99116 4.01997 1.46116 3.73997 1.25116 3.13997C1.07116 2.62997 1.22116 2.15997 1.25116 2.05997H1.26117Z" fill="#E62C2F" stroke="#E62C2F" stroke-width="0.2" stroke-linecap="round" stroke-linejoin="round"/>
<path d="M5.12906 3.38991C5.54906 1.42991 6.75905 2.05991 6.67905 3.72991C6.59905 5.39991 7.03905 8.76991 7.74905 12.1399L4.06906 12.2099C3.86906 10.9799 4.71907 5.33991 5.13907 3.37991L5.12906 3.38991Z" fill="#F4DE9C" stroke="#5E5E5A" stroke-width="0.15" stroke-linecap="round" stroke-linejoin="round"/>
<path d="M1.26953 17.6298C1.89953 14.0498 1.32955 9.11977 1.75955 7.27977C2.18955 5.43977 2.76954 2.30977 3.93954 1.94977C5.09954 1.58977 4.77955 4.64977 4.19955 7.18977C3.60955 9.72977 4.22955 11.5898 6.31955 11.9298C8.39955 12.2698 6.83953 6.95977 7.07953 3.81977C7.31953 0.679769 9.07955 1.49977 8.90955 3.47977C8.72955 5.45977 10.7195 9.77977 10.6195 10.9198C10.5195 12.0698 9.91953 14.8798 10.7995 17.6198H1.28955L1.26953 17.6298Z" fill="#F4DE9C" stroke="#5E5E5A" stroke-width="0.15" stroke-linecap="round" stroke-linejoin="round"/>
<path d="M10.7804 17.6199C11.5504 19.3399 11.1004 23.9899 9.38036 23.9899C7.66036 23.9899 7.23035 23.7199 6.59035 24.3699C5.95035 25.0199 4.98036 24.0499 4.44036 24.1599C3.90036 24.2699 1.93037 25.7099 1.39037 22.8199C0.840368 19.9199 0.790345 15.6199 2.46035 15.9499C6.58034 16.7499 5.57034 12.4099 8.80034 16.8099C9.39034 17.6199 10.1404 16.1899 10.7904 17.6399L10.7804 17.6199Z" fill="white" stroke="#5E5E5A" stroke-width="0.15" stroke-linecap="round" stroke-linejoin="round"/>
</svg>
