<svg width="9" height="26" viewBox="0 0 9 26" fill="none" xmlns="http://www.w3.org/2000/svg">
<path opacity="0.65" d="M4.1816 21.3495C5.7416 21.0695 7.3416 22.6295 7.1516 23.7295C6.9816 24.7095 5.42162 25.1095 5.29162 25.1395C4.22162 25.3995 2.55162 25.1995 2.17162 24.1695C1.78162 23.1295 2.8416 21.5795 4.1816 21.3395V21.3495Z" fill="#E62C2F" stroke="#E62C2F" stroke-width="0.2" stroke-linecap="round" stroke-linejoin="round"/>
<path d="M7.85843 8.65989C7.56843 10.1299 6.52844 15.2699 5.74844 20.2499C5.37844 22.6299 4.59845 24.6199 3.87845 22.1099C3.15845 19.5999 2.70845 16.1399 2.47845 13.4899C2.24845 10.8399 1.50844 9.31988 1.39844 8.62988L7.85843 8.65989Z" fill="#F4DE9C" stroke="#5E5E5A" stroke-width="0.15" stroke-linecap="round" stroke-linejoin="round"/>
<path d="M7.82009 8.62974C7.57009 10.0397 6.47007 9.60974 5.93007 10.3297C5.39007 11.0497 4.25008 11.1697 3.53008 10.3297C2.81008 9.48974 1.43008 9.26974 1.31008 7.90974C1.19008 6.54974 0.350076 1.47974 1.31008 0.809741C2.27008 0.149741 7.24008 -0.200259 7.81008 0.809741C8.38008 1.81974 8.10008 6.98974 7.81008 8.62974H7.82009Z" fill="white" stroke="#5E5E5A" stroke-width="0.15" stroke-linecap="round" stroke-linejoin="round"/>
</svg>
