<svg width="9" height="26" viewBox="0 0 9 26" fill="none" xmlns="http://www.w3.org/2000/svg">
<path opacity="0.65" d="M4.24804 21.7606C5.80804 21.4806 7.40804 23.0406 7.21804 24.1406C7.04804 25.1206 5.48802 25.5206 5.35802 25.5506C4.28802 25.8106 2.61803 25.6106 2.23803 24.5806C1.84803 23.5406 2.90804 21.9906 4.24804 21.7506V21.7606Z" fill="#E62C2F" stroke="#E62C2F" stroke-width="0.2" stroke-linecap="round" stroke-linejoin="round"/>
<path d="M8.46704 7.83008C8.27704 9.62008 6.61705 14.4701 6.03705 21.0701C5.79705 23.7601 4.74704 25.9801 3.93704 23.1601C3.12704 20.3401 2.61703 16.4601 2.36703 13.4801C2.11703 10.5001 1.21703 8.74008 0.957031 7.83008H8.46704Z" fill="#F4DE9C" stroke="#5E5E5A" stroke-width="0.15" stroke-linecap="round" stroke-linejoin="round"/>
<path d="M7.62856 0.380106C6.62856 -0.0498941 5.41855 0.960106 4.96855 0.650106C4.51855 0.340106 2.26854 -0.239897 1.67854 0.670103C1.08854 1.5801 0.428566 5.9801 0.888566 7.5901C1.33857 9.2001 3.81855 12.0601 4.74855 11.6501C5.67855 11.2401 8.04855 9.55011 8.21855 9.04011C8.78855 7.34011 9.07857 1.00011 7.63857 0.380106H7.62856Z" fill="white" stroke="#5E5E5A" stroke-width="0.15" stroke-linecap="round" stroke-linejoin="round"/>
</svg>
