<svg width="10" height="32" viewBox="0 0 10 32" fill="none" xmlns="http://www.w3.org/2000/svg">
<path opacity="0.65" d="M4.2402 27.5301C5.8002 27.2501 7.4002 28.8101 7.2102 29.9101C7.0402 30.8901 5.48021 31.2901 5.35021 31.3201C4.28021 31.5801 2.61022 31.3801 2.23022 30.3501C1.84022 29.3101 2.9002 27.7601 4.2402 27.5201V27.5301Z" fill="#E62C2F" stroke="#E62C2F" stroke-width="0.2" stroke-linecap="round" stroke-linejoin="round"/>
<path d="M1.20142 7.59961L8.67142 7.65961C7.87142 9.65961 7.80141 14.4996 7.76141 18.5296C7.73141 22.3896 6.91141 24.8196 5.88141 27.9096C4.85141 30.9996 3.67141 30.1796 3.66141 27.5996C3.64141 25.0196 2.94139 22.9096 1.99139 19.3896C1.56139 17.7996 1.4914 16.4696 1.5014 13.4096C1.5114 10.3496 1.32141 8.34961 1.19141 7.59961H1.20142Z" fill="#F4DE9C" stroke="#5E5E5A" stroke-width="0.15" stroke-linecap="round" stroke-linejoin="round"/>
<path d="M7.62956 10.3099C8.94956 8.43991 9.08956 4.98991 8.87956 4.05991C8.66956 3.12991 5.37955 0.149912 4.58955 0.179912C3.79955 0.209912 1.42954 1.12991 1.04954 2.01991C0.659544 2.89991 0.869564 7.07991 1.56956 8.91991C2.26956 10.7599 4.83955 12.7699 5.45955 12.4499C6.07955 12.1199 6.93956 11.3099 7.62956 10.3199V10.3099Z" fill="white" stroke="#5E5E5A" stroke-width="0.15" stroke-linecap="round" stroke-linejoin="round"/>
</svg>
