<svg width="10" height="27" viewBox="0 0 10 27" fill="none" xmlns="http://www.w3.org/2000/svg">
<path opacity="0.65" d="M5.33788 22.1795C6.89788 21.8995 8.49788 23.4595 8.30788 24.5595C8.13788 25.5395 6.5779 25.9395 6.4479 25.9695C5.3779 26.2295 3.70787 26.0295 3.32787 24.9995C2.93787 23.9595 3.99788 22.4095 5.33788 22.1695V22.1795Z" fill="#E62C2F" stroke="#E62C2F" stroke-width="0.2" stroke-linecap="round" stroke-linejoin="round"/>
<path d="M8.8494 7.72973C8.2994 10.4197 7.8594 12.4397 7.3194 14.4697C6.8594 16.2197 6.21939 17.8897 6.43939 21.0597C6.62939 23.8597 6.25937 26.1897 4.85938 23.4897C3.45938 20.7897 2.79938 16.4697 2.70938 13.3597C2.61938 10.2597 1.86937 8.65973 1.60938 7.71973H8.85938L8.8494 7.72973Z" fill="#F4DE9C" stroke="#5E5E5A" stroke-width="0.15" stroke-linecap="round" stroke-linejoin="round"/>
<path d="M8.20908 8.80963C9.02908 7.98963 9.52908 5.49963 9.45908 4.10963C9.38908 2.72963 8.8891 2.63963 7.7591 1.70963C6.6291 0.77963 5.2191 -0.290369 4.1991 0.389631C1.5891 2.12963 -0.0509228 1.07963 1.10908 5.28963C1.69908 7.41963 1.49908 8.75963 2.35908 9.59963C3.21908 10.4396 4.3091 11.5096 5.3791 11.1896C6.4491 10.8696 7.65909 9.35963 8.21909 8.80963H8.20908Z" fill="white" stroke="#5E5E5A" stroke-width="0.15" stroke-linecap="round" stroke-linejoin="round"/>
</svg>
