<svg width="11" height="26" viewBox="0 0 11 26" fill="none" xmlns="http://www.w3.org/2000/svg">
<path opacity="0.65" d="M6.71285 21.62C8.27285 21.34 9.87285 22.9 9.68285 24C9.51285 24.98 7.95287 25.38 7.82287 25.41C6.75287 25.67 5.08287 25.47 4.70287 24.44C4.31287 23.4 5.37285 21.85 6.71285 21.61V21.62Z" fill="#E62C2F" stroke="#E62C2F" stroke-width="0.2" stroke-linecap="round" stroke-linejoin="round"/>
<path d="M9.70157 8.13965C9.15157 10.8196 8.73154 13.0996 8.36154 15.1696C8.04154 16.9496 6.74156 19.4996 7.22156 20.9596C8.08156 23.6296 7.79157 24.9696 5.64157 22.8196C3.57157 20.7396 3.40155 17.0797 3.31155 13.9797C3.22155 10.8797 2.34156 9.55965 1.60156 8.13965H9.70157Z" fill="#F4DE9C" stroke="#5E5E5A" stroke-width="0.15" stroke-linecap="round" stroke-linejoin="round"/>
<path d="M10.0711 6.81954C10.4911 5.02954 10.0311 3.03954 8.71105 2.20954C7.39105 1.37954 5.17105 -0.170455 4.09105 0.249545C3.01105 0.669545 2.88106 1.16954 2.16106 1.47954C1.44106 1.78954 0.281063 3.25955 0.381063 5.23955C0.481063 7.21955 2.13107 8.61955 2.48107 9.40955C2.83107 10.1995 5.38105 12.5695 7.05105 10.9495C8.72105 9.32954 9.33105 9.97954 10.081 6.81954H10.0711Z" fill="white" stroke="#5E5E5A" stroke-width="0.15" stroke-linecap="round" stroke-linejoin="round"/>
</svg>
