<svg width="15" height="26" viewBox="0 0 15 26" fill="none" xmlns="http://www.w3.org/2000/svg">
<path opacity="0.65" d="M14.1982 23.4695C14.0382 23.8195 13.7481 23.9895 11.7981 24.6895C10.8181 25.0395 10.3182 25.2195 9.87815 25.3195C9.61815 25.3795 8.62816 25.6195 7.75816 25.6395C6.34816 25.6695 3.70816 25.1295 3.16816 23.3895C2.83816 22.3195 3.37816 20.8795 4.25816 20.4795C4.92816 20.1795 5.24814 20.6695 6.39814 20.6295C7.98814 20.5695 8.12814 19.6095 9.54814 19.5395C10.4681 19.4995 11.2681 19.9595 12.8581 20.8995C13.6381 21.3595 14.0281 21.6895 14.2081 22.2095C14.2681 22.3795 14.4381 22.9395 14.2081 23.4695H14.1982Z" fill="#E62C2F" stroke="#E62C2F" stroke-width="0.2" stroke-linecap="round" stroke-linejoin="round"/>
<path d="M2.0587 8.19922L13.5087 8.49922C12.9887 9.90922 12.9687 10.5292 12.8487 11.8092C12.7287 13.0892 12.6787 15.7392 12.8787 17.0892C13.0787 18.4292 13.5987 22.5792 12.9287 23.1692C12.2587 23.7692 11.3587 22.5592 10.7787 21.0492C10.1987 19.5392 9.4987 17.9792 9.2187 15.5592C8.9387 13.1392 8.31869 13.0992 7.82869 13.6992C7.33869 14.2992 6.87871 17.7492 6.66871 19.0492C6.45871 20.3492 7.73869 23.8192 6.45869 23.5392C5.17869 23.2592 3.96869 20.8792 3.35869 19.5392C2.74869 18.1992 1.85871 16.2192 2.09871 14.0992C2.32871 11.9792 2.46871 9.24922 2.06871 8.20922L2.0587 8.19922Z" fill="#F4DE9C" stroke="#5E5E5A" stroke-width="0.15" stroke-linecap="round" stroke-linejoin="round"/>
<path d="M13.7293 8.09965C14.3793 6.23965 14.8293 3.10965 13.1993 1.99965C8.87934 -0.950351 8.04934 0.77965 6.50934 0.48965C5.35934 0.27965 3.02933 -0.210353 1.59933 0.779647C0.169331 1.76965 0.58934 6.04965 1.38934 7.38965C2.18934 8.72965 3.22932 8.89965 4.52932 8.81965C5.82932 8.73965 7.41933 9.82965 9.09933 9.31965C10.7793 8.81965 13.2093 9.55965 13.7193 8.09965H13.7293Z" fill="white" stroke="#5E5E5A" stroke-width="0.15" stroke-linecap="round" stroke-linejoin="round"/>
</svg>
