<svg width="13" height="25" viewBox="0 0 13 25" fill="none" xmlns="http://www.w3.org/2000/svg">
<path opacity="0.65" d="M12.1786 22.6808C11.9186 23.2608 11.1986 23.3008 10.1086 23.7308C7.98864 24.5608 6.90865 24.5408 6.61865 24.5508C5.12865 24.6308 3.13866 24.1508 2.66866 22.6108C2.38866 21.6908 2.84864 20.4508 3.60864 20.1008C4.17864 19.8408 4.45864 20.2708 5.45864 20.2308C6.82864 20.1808 6.94866 19.3508 8.16866 19.2908C8.95866 19.2508 9.64864 19.6508 11.0186 20.4608C11.6886 20.8508 12.0186 21.1408 12.1786 21.5908C12.2286 21.7308 12.3786 22.2208 12.1786 22.6708V22.6808Z" fill="#E62C2F" stroke="#E62C2F" stroke-width="0.2" stroke-linecap="round" stroke-linejoin="round"/>
<path d="M8.18906 6.96019H12.3091C11.9591 7.69019 11.1791 10.1802 11.1891 11.2602C11.1891 12.3402 12.0491 13.9702 11.7891 15.5802C11.5291 17.1902 10.709 21.7202 9.86905 22.4602C9.03905 23.2102 8.38907 20.6902 8.38907 18.1402C8.38907 15.5902 7.12906 12.7202 6.53906 12.7202C5.53906 12.7202 5.22905 16.2602 5.42905 16.9602C5.62905 17.6602 6.43906 23.2102 5.31906 22.8402C4.19906 22.4802 2.48907 19.7002 2.38907 17.7402C2.29907 15.7802 2.39904 13.2602 2.26904 12.2802C2.13904 11.3002 1.43906 8.3102 1.03906 6.9502H8.18906V6.96019Z" fill="#F4DE9C" stroke="#5E5E5A" stroke-width="0.15" stroke-linecap="round" stroke-linejoin="round"/>
<path d="M11.9095 8.02041C12.7895 6.19041 13.2195 2.58041 10.9895 1.45041C8.75949 0.320413 7.08949 1.52041 6.01949 0.850411C4.94949 0.180411 1.72951 -0.649589 1.06951 2.03041C0.419507 4.71041 0.9395 6.93041 1.2495 7.70041C1.5595 8.46041 2.50951 8.21041 3.31951 8.04041C4.12951 7.88041 5.57951 9.44041 6.41951 9.45041C8.48951 9.47041 9.1695 7.61041 10.1595 7.70041C11.1495 7.79041 11.4695 8.95041 11.9195 8.03041L11.9095 8.02041Z" fill="white" stroke="#5E5E5A" stroke-width="0.15" stroke-linecap="round" stroke-linejoin="round"/>
</svg>
