<svg width="13" height="22" viewBox="0 0 13 22" fill="none" xmlns="http://www.w3.org/2000/svg">
<path opacity="0.65" d="M11.9404 19.7101C11.6804 20.2901 10.9604 20.3301 9.87038 20.7601C7.75038 21.5901 6.67039 21.5701 6.38039 21.5801C4.89039 21.6601 2.90038 21.1801 2.43038 19.6401C2.15038 18.7201 2.61038 17.4801 3.37038 17.1301C3.94038 16.8701 4.22039 17.3001 5.22039 17.2601C6.59039 17.2101 6.71038 16.3801 7.93038 16.3201C8.72038 16.2801 9.41039 16.6801 10.7804 17.4901C11.4504 17.8801 11.7804 18.1701 11.9404 18.6201C11.9904 18.7601 12.1404 19.2501 11.9404 19.7001V19.7101Z" fill="#E62C2F" stroke="#E62C2F" stroke-width="0.2" stroke-linecap="round" stroke-linejoin="round"/>
<path d="M0.890625 6.16016H10.2306C9.55062 7.28016 10.4506 8.54016 10.6106 9.93016C10.7706 11.3202 11.4006 10.8202 11.2806 13.9702C11.1606 17.1102 10.6506 17.9202 10.2006 19.1702C9.75062 20.4302 8.61062 21.2202 8.32062 19.4202C8.03062 17.6202 8.85061 13.6902 8.12061 12.2402C7.39061 10.7902 6.7306 10.3102 6.3606 11.3202C5.9906 12.3302 5.30061 12.8502 5.47061 14.1602C5.64061 15.4702 6.7306 17.7402 6.9906 19.0002C7.2506 20.2602 6.9206 21.1902 5.0806 19.2102C3.2406 17.2302 1.8506 15.9302 2.0806 13.4002C2.3106 10.8702 2.0306 9.87016 1.7706 8.82016C1.5106 7.77016 1.17063 7.10015 0.890625 6.17015V6.16016Z" fill="#F4DE9C" stroke="#5E5E5A" stroke-width="0.15" stroke-linecap="round" stroke-linejoin="round"/>
<path d="M9.51961 7.69015C10.6696 6.87015 11.4796 4.90015 11.1096 2.81015C10.7396 0.730151 9.70963 1.27015 9.16963 1.17015C8.62963 1.07015 7.69961 0.150147 6.32961 0.420147C4.94961 0.700147 4.42963 0.530151 3.12963 0.240151C1.82963 -0.0598491 0.549631 0.780149 0.509631 2.64015C0.459631 4.50015 0.509617 6.07015 1.33962 6.76015C2.16962 7.45015 4.67963 6.56015 5.50963 6.76015C6.33963 6.96015 7.75962 8.96015 9.52962 7.69015H9.51961Z" fill="white" stroke="#5E5E5A" stroke-width="0.15" stroke-linecap="round" stroke-linejoin="round"/>
</svg>
