<svg width="9" height="26" viewBox="0 0 9 26" fill="none" xmlns="http://www.w3.org/2000/svg">
<path opacity="0.65" d="M5.00885 21.66C3.44885 21.38 1.84885 22.94 2.03885 24.04C2.20885 25.02 3.76883 25.42 3.89883 25.45C4.96883 25.71 6.63883 25.51 7.01883 24.48C7.40883 23.44 6.34885 21.89 5.00885 21.65V21.66Z" fill="#E62C2F" stroke="#E62C2F" stroke-width="0.2" stroke-linecap="round" stroke-linejoin="round"/>
<path d="M1.32812 8.9802C1.61812 10.4502 2.65814 15.5902 3.43814 20.5702C3.80814 22.9502 4.58814 24.9402 5.30814 22.4302C6.02814 19.9202 6.47813 16.4602 6.70813 13.8102C6.93813 11.1602 7.67815 9.6402 7.78815 8.9502L1.32812 8.9802Z" fill="#F4DE9C" stroke="#5E5E5A" stroke-width="0.15" stroke-linecap="round" stroke-linejoin="round"/>
<path d="M1.37922 8.94029C1.62922 10.3503 2.72921 9.92029 3.26921 10.6403C3.80921 11.3603 4.94923 11.4803 5.66923 10.6403C6.38923 9.80029 7.76923 9.58029 7.88923 8.22029C8.00923 6.86029 8.84923 1.79029 7.88923 1.12029C6.92923 0.460288 1.95923 0.110288 1.38923 1.12029C0.819234 2.13029 1.09923 7.30029 1.38923 8.94029H1.37922Z" fill="white" stroke="#5E5E5A" stroke-width="0.15" stroke-linecap="round" stroke-linejoin="round"/>
</svg>
