<svg width="9" height="26" viewBox="0 0 9 26" fill="none" xmlns="http://www.w3.org/2000/svg">
<path opacity="0.65" d="M4.93854 21.7606C3.37854 21.4806 1.77854 23.0406 1.96854 24.1406C2.13854 25.1206 3.69852 25.5206 3.82852 25.5506C4.89852 25.8106 6.56855 25.6106 6.94855 24.5806C7.33855 23.5406 6.27854 21.9906 4.93854 21.7506V21.7606Z" fill="#E62C2F" stroke="#E62C2F" stroke-width="0.2" stroke-linecap="round" stroke-linejoin="round"/>
<path d="M0.730469 7.83008C0.920469 9.62008 2.58046 14.4701 3.16046 21.0701C3.40046 23.7601 4.45047 25.9801 5.26047 23.1601C6.07047 20.3401 6.58044 16.4601 6.83044 13.4801C7.08044 10.5001 7.98045 8.74008 8.24045 7.83008H0.730469Z" fill="#F4DE9C" stroke="#5E5E5A" stroke-width="0.15" stroke-linecap="round" stroke-linejoin="round"/>
<path d="M1.56946 0.380106C2.56946 -0.0498941 3.77947 0.960106 4.22947 0.650106C4.67947 0.340106 6.92945 -0.239897 7.51945 0.670103C8.10945 1.5801 8.76945 5.9801 8.30945 7.5901C7.85945 9.2001 5.37947 12.0601 4.44947 11.6501C3.51947 11.2401 1.14947 9.55011 0.979468 9.04011C0.409468 7.34011 0.119455 1.00011 1.55945 0.380106H1.56946Z" fill="white" stroke="#5E5E5A" stroke-width="0.15" stroke-linecap="round" stroke-linejoin="round"/>
</svg>
