<svg width="9" height="32" viewBox="0 0 9 32" fill="none" xmlns="http://www.w3.org/2000/svg">
<path opacity="0.65" d="M4.96197 27.5301C3.40197 27.2501 1.80197 28.8101 1.99197 29.9101C2.16197 30.8901 3.72199 31.2901 3.85199 31.3201C4.92199 31.5801 6.59198 31.3801 6.97198 30.3501C7.36198 29.3101 6.30197 27.7601 4.96197 27.5201V27.5301Z" fill="#E62C2F" stroke="#E62C2F" stroke-width="0.2" stroke-linecap="round" stroke-linejoin="round"/>
<path d="M7.98953 7.59961L0.519531 7.65961C1.31953 9.65961 1.38953 14.4996 1.42953 18.5296C1.45953 22.3896 2.27954 24.8196 3.30954 27.9096C4.33954 30.9996 5.51954 30.1796 5.52954 27.5996C5.54954 25.0196 6.24955 22.9096 7.19955 19.3896C7.62955 17.7996 7.69954 16.4696 7.68954 13.4096C7.67954 10.3496 7.86954 8.34961 7.99954 7.59961H7.98953Z" fill="#F4DE9C" stroke="#5E5E5A" stroke-width="0.15" stroke-linecap="round" stroke-linejoin="round"/>
<path d="M1.57148 10.3099C0.25148 8.43991 0.11148 4.98991 0.32148 4.05991C0.53148 3.12991 3.82146 0.149912 4.61146 0.179912C5.40146 0.209912 7.77147 1.12991 8.15147 2.01991C8.54147 2.89991 8.33148 7.07991 7.63148 8.91991C6.93148 10.7599 4.36146 12.7699 3.74146 12.4499C3.12146 12.1199 2.26148 11.3099 1.57148 10.3199V10.3099Z" fill="white" stroke="#5E5E5A" stroke-width="0.15" stroke-linecap="round" stroke-linejoin="round"/>
</svg>
