<svg width="10" height="27" viewBox="0 0 10 27" fill="none" xmlns="http://www.w3.org/2000/svg">
<path opacity="0.65" d="M4.86038 22.1795C3.30038 21.8995 1.70041 23.4595 1.89041 24.5595C2.06041 25.5395 3.6204 25.9395 3.7504 25.9695C4.8204 26.2295 6.49039 26.0295 6.87039 24.9995C7.26039 23.9595 6.20038 22.4095 4.86038 22.1695V22.1795Z" fill="#E62C2F" stroke="#E62C2F" stroke-width="0.2" stroke-linecap="round" stroke-linejoin="round"/>
<path d="M1.34985 7.72973C1.89985 10.4197 2.33985 12.4397 2.87985 14.4697C3.33985 16.2197 3.97986 17.8897 3.75986 21.0597C3.56986 23.8597 3.93984 26.1897 5.33984 23.4897C6.73984 20.7897 7.39984 16.4697 7.48984 13.3597C7.57984 10.2597 8.32984 8.65973 8.58984 7.71973H1.33984L1.34985 7.72973Z" fill="#F4DE9C" stroke="#5E5E5A" stroke-width="0.15" stroke-linecap="round" stroke-linejoin="round"/>
<path d="M1.97916 8.80963C1.15916 7.98963 0.659163 5.49963 0.729163 4.10963C0.799163 2.72963 1.29914 2.63963 2.42914 1.70963C3.55914 0.77963 4.96914 -0.290369 5.98914 0.389631C8.59914 2.12963 10.2391 1.07963 9.07914 5.28963C8.48914 7.41963 8.68914 8.75963 7.82914 9.59963C6.96914 10.4396 5.87915 11.5096 4.80915 11.1896C3.73915 10.8696 2.52915 9.35963 1.96915 8.80963H1.97916Z" fill="white" stroke="#5E5E5A" stroke-width="0.15" stroke-linecap="round" stroke-linejoin="round"/>
</svg>
