<svg width="11" height="26" viewBox="0 0 11 26" fill="none" xmlns="http://www.w3.org/2000/svg">
<path opacity="0.65" d="M4.48932 21.62C2.92932 21.34 1.32932 22.9 1.51932 24C1.68932 24.98 3.24932 25.38 3.37932 25.41C4.44932 25.67 6.11931 25.47 6.49931 24.44C6.88931 23.4 5.82932 21.85 4.48932 21.61V21.62Z" fill="#E62C2F" stroke="#E62C2F" stroke-width="0.2" stroke-linecap="round" stroke-linejoin="round"/>
<path d="M1.5 8.13965C2.05 10.8196 2.47 13.0996 2.84 15.1696C3.16 16.9496 4.46 19.4996 3.98 20.9596C3.12 23.6296 3.41 24.9696 5.56 22.8196C7.63 20.7396 7.8 17.0797 7.89 13.9797C7.98 10.8797 8.86001 9.55965 9.60001 8.13965H1.5Z" fill="#F4DE9C" stroke="#5E5E5A" stroke-width="0.15" stroke-linecap="round" stroke-linejoin="round"/>
<path d="M1.11936 6.81954C0.699364 5.02954 1.15936 3.03954 2.47936 2.20954C3.79936 1.37954 6.01937 -0.170455 7.09937 0.249545C8.17937 0.669545 8.30937 1.16954 9.02937 1.47954C9.74937 1.78954 10.9094 3.25955 10.8094 5.23955C10.7094 7.21955 9.05938 8.61955 8.70938 9.40955C8.35938 10.1995 5.80937 12.5695 4.13937 10.9495C2.46937 9.32954 1.85937 9.97954 1.10937 6.81954H1.11936Z" fill="white" stroke="#5E5E5A" stroke-width="0.15" stroke-linecap="round" stroke-linejoin="round"/>
</svg>
