<svg width="15" height="26" viewBox="0 0 15 26" fill="none" xmlns="http://www.w3.org/2000/svg">
<path opacity="0.65" d="M1.0019 23.4695C1.1619 23.8195 1.45189 23.9895 3.40189 24.6895C4.38189 25.0395 4.88191 25.2195 5.32191 25.3195C5.58191 25.3795 6.5719 25.6195 7.4419 25.6395C8.8519 25.6695 11.4919 25.1295 12.0319 23.3895C12.3619 22.3195 11.8219 20.8795 10.9419 20.4795C10.2719 20.1795 9.9519 20.6695 8.8019 20.6295C7.2119 20.5695 7.07189 19.6095 5.65189 19.5395C4.73189 19.4995 3.9319 19.9595 2.3419 20.8995C1.5619 21.3595 1.17191 21.6895 0.991905 22.2095C0.931905 22.3795 0.761905 22.9395 0.991905 23.4695H1.0019Z" fill="#E62C2F" stroke="#E62C2F" stroke-width="0.2" stroke-linecap="round" stroke-linejoin="round"/>
<path d="M13.1414 8.19922L1.69141 8.49922C2.21141 9.90922 2.23141 10.5292 2.35141 11.8092C2.47141 13.0892 2.52141 15.7392 2.32141 17.0892C2.12141 18.4292 1.60141 22.5792 2.27141 23.1692C2.94141 23.7692 3.8414 22.5592 4.4214 21.0492C5.0014 19.5392 5.7014 17.9792 5.9814 15.5592C6.2614 13.1392 6.8814 13.0992 7.3714 13.6992C7.8614 14.2992 8.3214 17.7492 8.5314 19.0492C8.7414 20.3492 7.46141 23.8192 8.74141 23.5392C10.0214 23.2592 11.2314 20.8792 11.8414 19.5392C12.4514 18.1992 13.3414 16.2192 13.1014 14.0992C12.8714 11.9792 12.7314 9.24922 13.1314 8.20922L13.1414 8.19922Z" fill="#F4DE9C" stroke="#5E5E5A" stroke-width="0.15" stroke-linecap="round" stroke-linejoin="round"/>
<path d="M1.46136 8.09965C0.811359 6.23965 0.361358 3.10965 1.99136 1.99965C6.31136 -0.950351 7.14134 0.77965 8.68134 0.48965C9.83134 0.27965 12.1613 -0.210353 13.5913 0.779647C15.0213 1.76965 14.6014 6.04965 13.8014 7.38965C13.0014 8.72965 11.9614 8.89965 10.6614 8.81965C9.36136 8.73965 7.77135 9.82965 6.09135 9.31965C4.41135 8.81965 1.98135 9.55965 1.47135 8.09965H1.46136Z" fill="white" stroke="#5E5E5A" stroke-width="0.15" stroke-linecap="round" stroke-linejoin="round"/>
</svg>
