<svg width="13" height="25" viewBox="0 0 13 25" fill="none" xmlns="http://www.w3.org/2000/svg">
<path opacity="0.65" d="M1.01123 22.6798C1.27123 23.2598 1.99124 23.2998 3.08124 23.7298C5.20124 24.5598 6.28125 24.5398 6.57125 24.5498C8.06125 24.6298 10.0512 24.1498 10.5212 22.6098C10.8012 21.6898 10.3412 20.4498 9.58124 20.0998C9.01124 19.8398 8.73123 20.2698 7.73123 20.2298C6.36123 20.1798 6.24124 19.3498 5.02124 19.2898C4.23124 19.2498 3.54124 19.6498 2.17124 20.4598C1.50124 20.8498 1.17123 21.1398 1.01123 21.5898C0.961233 21.7298 0.811233 22.2198 1.01123 22.6698V22.6798Z" fill="#E62C2F" stroke="#E62C2F" stroke-width="0.2" stroke-linecap="round" stroke-linejoin="round"/>
<path d="M5.01062 6.96019H0.890625C1.24062 7.69019 2.02062 10.1802 2.01062 11.2602C2.01062 12.3402 1.15063 13.9702 1.41063 15.5802C1.67063 17.1902 2.49063 21.7202 3.33063 22.4602C4.16063 23.2102 4.81062 20.6902 4.81062 18.1402C4.81062 15.5902 6.07063 12.7202 6.66063 12.7202C7.66063 12.7202 7.97063 16.2602 7.77063 16.9602C7.57063 17.6602 6.76063 23.2102 7.88063 22.8402C9.00063 22.4802 10.7106 19.7002 10.8106 17.7402C10.9006 15.7802 10.8006 13.2602 10.9306 12.2802C11.0606 11.3002 11.7606 8.3102 12.1606 6.9502H5.01062V6.96019Z" fill="#F4DE9C" stroke="#5E5E5A" stroke-width="0.15" stroke-linecap="round" stroke-linejoin="round"/>
<path d="M1.28004 8.02041C0.400036 6.19041 -0.029966 2.58041 2.20003 1.45041C4.43003 0.320413 6.10004 1.52041 7.17004 0.850411C8.24004 0.180411 11.46 -0.649589 12.12 2.03041C12.77 4.71041 12.25 6.93041 11.94 7.70041C11.63 8.46041 10.68 8.21041 9.87003 8.04041C9.06003 7.88041 7.61004 9.44041 6.77004 9.45041C4.70004 9.47041 4.02004 7.61041 3.03004 7.70041C2.04004 7.79041 1.72004 8.95041 1.27004 8.03041L1.28004 8.02041Z" fill="white" stroke="#5E5E5A" stroke-width="0.15" stroke-linecap="round" stroke-linejoin="round"/>
</svg>
