<svg width="12" height="22" viewBox="0 0 12 22" fill="none" xmlns="http://www.w3.org/2000/svg">
<path opacity="0.65" d="M0.249514 19.7101C0.509514 20.2901 1.22952 20.3301 2.31952 20.7601C4.43952 21.5901 5.51951 21.5701 5.80951 21.5801C7.29951 21.6601 9.28951 21.1801 9.75951 19.6401C10.0395 18.7201 9.57952 17.4801 8.81952 17.1301C8.24952 16.8701 7.96952 17.3001 6.96952 17.2601C5.59952 17.2101 5.47951 16.3801 4.25951 16.3201C3.46951 16.2801 2.77952 16.6801 1.40952 17.4901C0.739518 17.8801 0.409514 18.1701 0.249514 18.6201C0.199514 18.7601 0.0495142 19.2501 0.249514 19.7001V19.7101Z" fill="#E62C2F" stroke="#E62C2F" stroke-width="0.2" stroke-linecap="round" stroke-linejoin="round"/>
<path d="M11.3113 6.16016H1.97135C2.65135 7.28016 1.75134 8.54016 1.59134 9.93016C1.43134 11.3202 0.801345 10.8202 0.921345 13.9702C1.04135 17.1102 1.55135 17.9202 2.00135 19.1702C2.45135 20.4302 3.59135 21.2202 3.88135 19.4202C4.17135 17.6202 3.35135 13.6902 4.08135 12.2402C4.81135 10.7902 5.47134 10.3102 5.84134 11.3202C6.21134 12.3302 6.90134 12.8502 6.73134 14.1602C6.56134 15.4702 5.47135 17.7402 5.21135 19.0002C4.95135 20.2602 5.28134 21.1902 7.12134 19.2102C8.96134 17.2302 10.3513 15.9302 10.1213 13.4002C9.89134 10.8702 10.1713 9.87016 10.4313 8.82016C10.6913 7.77016 11.0313 7.10015 11.3113 6.17015V6.16016Z" fill="#F4DE9C" stroke="#5E5E5A" stroke-width="0.15" stroke-linecap="round" stroke-linejoin="round"/>
<path d="M2.68055 7.69015C1.53055 6.87015 0.720556 4.90015 1.09056 2.81015C1.46056 0.730151 2.49056 1.27015 3.03056 1.17015C3.57056 1.07015 4.50055 0.150147 5.87055 0.420147C7.25055 0.700147 7.77057 0.530151 9.07057 0.240151C10.3706 -0.0598491 11.6506 0.780149 11.6906 2.64015C11.7406 4.50015 11.6906 6.07015 10.8606 6.76015C10.0306 7.45015 7.52056 6.56015 6.69056 6.76015C5.86056 6.96015 4.44056 8.96015 2.67056 7.69015H2.68055Z" fill="white" stroke="#5E5E5A" stroke-width="0.15" stroke-linecap="round" stroke-linejoin="round"/>
</svg>
