<svg width="8" height="22" viewBox="0 0 8 22" fill="none" xmlns="http://www.w3.org/2000/svg">
<path opacity="0.65" d="M4.11939 0.650041C2.83939 0.420041 1.50938 1.71004 1.66938 2.61004C1.80938 3.42004 3.09938 3.75004 3.19938 3.78004C4.08938 3.99004 5.45939 3.83004 5.77939 2.98004C6.09939 2.12004 5.21939 0.850041 4.11939 0.650041Z" fill="#E62C2F" stroke="#E62C2F" stroke-width="0.2" stroke-linecap="round" stroke-linejoin="round"/>
<path d="M1.33984 16.2004C2.27984 12.8404 3.01985 9.00035 2.99985 3.89035C2.99985 3.42035 3.15985 2.95035 3.49985 2.61035C3.90985 2.21035 4.24985 2.40035 4.49985 3.32035C5.11985 8.58035 5.74985 11.8204 6.38985 15.8004V16.2004H1.33984Z" fill="#F4DE9C" stroke="#5E5E5A" stroke-width="0.15" stroke-linecap="round" stroke-linejoin="round"/>
<path d="M6.40016 15.8006C6.57016 16.0206 6.71016 16.2606 6.81016 16.5206C7.79016 18.8806 8.33017 20.9606 6.41017 21.5306C4.57017 21.5906 2.73016 21.6506 1.82016 21.3106C0.640163 20.4406 0.450161 19.0606 0.850161 17.3906C0.950161 16.9706 1.12016 16.5606 1.35016 16.2006C1.81016 15.4706 2.52016 14.9206 3.38016 14.7206C3.76016 14.6306 4.14017 14.6106 4.51017 14.6606C5.27017 14.7706 5.94016 15.2006 6.40016 15.8006Z" fill="white" stroke="#5E5E5A" stroke-width="0.15" stroke-linecap="round" stroke-linejoin="round"/>
</svg>
