<svg width="6" height="20" viewBox="0 0 6 20" fill="none" xmlns="http://www.w3.org/2000/svg">
<path opacity="0.65" d="M3.34985 0.140276C2.06985 -0.0897243 0.739854 1.20028 0.899854 2.10028C1.03985 2.91028 2.32985 3.24028 2.42985 3.27028C3.31985 3.48028 4.68985 3.32027 5.00985 2.47027C5.32985 1.61027 4.44985 0.340276 3.34985 0.140276Z" fill="#E62C2F" stroke="#E62C2F" stroke-width="0.2" stroke-linecap="round" stroke-linejoin="round"/>
<path d="M1.20141 14.1604C2.08141 10.6904 2.26141 7.51036 2.25141 3.57036C2.25141 3.04036 2.41141 2.51036 2.74141 2.09036C3.17141 1.55036 3.51141 1.64036 3.77141 2.19036C3.94141 2.55036 3.94141 2.95036 3.97141 3.35036C4.39141 8.34036 4.56141 10.3604 4.68141 14.1604H1.19141H1.20141Z" fill="#F4DE9C" stroke="#5E5E5A" stroke-width="0.15" stroke-linecap="round" stroke-linejoin="round"/>
<path d="M2.79861 19.4903C2.27861 19.4903 1.84861 19.4603 1.50861 19.3903C0.998609 19.2803 0.578609 18.8903 0.458609 18.4003C0.0586094 16.8103 0.318609 15.3903 1.25861 14.0703C1.83861 13.5803 2.42861 13.3203 3.00861 13.3203C3.31861 13.3203 3.62861 13.3903 3.93861 13.5403C4.16861 13.6503 4.37861 13.8003 4.54861 14.0003C4.73861 14.2103 4.87861 14.4703 4.96861 14.7503C5.30861 15.8103 5.52861 16.9303 5.62861 18.0703C5.69861 18.4703 5.73861 18.9103 5.52861 19.1703C5.38861 19.3403 5.14861 19.4203 4.79861 19.4203L4.43861 19.4403C3.87861 19.4703 3.31861 19.5103 2.79861 19.5103V19.4903Z" fill="white"/>
<path d="M3.00967 13.3902C3.30967 13.3902 3.60967 13.4602 3.89967 13.6002C4.11967 13.7102 4.31967 13.8502 4.47967 14.0402C4.65967 14.2502 4.79967 14.4902 4.88967 14.7602C5.22967 15.8202 5.44967 16.9302 5.54967 18.0802C5.61967 18.4602 5.65967 18.8802 5.45967 19.1102C5.33967 19.2602 5.10967 19.3302 4.77967 19.3302L4.42967 19.3502C3.87967 19.3802 3.30967 19.4202 2.78967 19.4202C2.26967 19.4202 1.84967 19.3902 1.50967 19.3202C1.01967 19.2202 0.629671 18.8502 0.519671 18.3802C0.119671 16.8102 0.379671 15.4202 1.28967 14.1402C1.86967 13.6402 2.44967 13.3902 3.00967 13.3902ZM3.00967 13.2402C2.40967 13.2402 1.79967 13.5002 1.18967 14.0202C0.199669 15.4102 -0.0103287 16.8802 0.379671 18.4102C0.509671 18.9402 0.949672 19.3502 1.48967 19.4602C1.87967 19.5402 2.31967 19.5702 2.79967 19.5702C3.42967 19.5702 4.11967 19.5202 4.79967 19.4802C5.83967 19.4802 5.82967 18.7602 5.70967 18.0502C5.60967 16.9102 5.38967 15.8002 5.03967 14.7202C4.94967 14.4302 4.79967 14.1702 4.59967 13.9402C4.42967 13.7402 4.20967 13.5802 3.96967 13.4602C3.64967 13.3102 3.32967 13.2402 3.00967 13.2402Z" fill="#5E5E5A"/>
</svg>
