<svg width="7" height="23" viewBox="0 0 7 23" fill="none" xmlns="http://www.w3.org/2000/svg">
<path opacity="0.65" d="M4.3772 0.470354C3.0972 0.240354 1.7672 1.53035 1.9272 2.43035C2.0672 3.24035 3.3572 3.57035 3.4572 3.60035C4.3472 3.81035 5.7172 3.65035 6.0372 2.80035C6.3572 1.94035 5.4772 0.670354 4.3772 0.470354Z" fill="#E62C2F" stroke="#E62C2F" stroke-width="0.2" stroke-linecap="round" stroke-linejoin="round"/>
<path d="M1.62891 15.8107C2.42891 12.4407 2.79891 8.49069 2.98891 3.14069C3.00891 2.58069 3.29891 2.05069 3.80891 1.81069C4.18891 1.63069 4.49891 1.69069 4.73891 2.00069C4.90891 2.22069 4.97891 2.51069 4.96891 2.80069C4.72891 7.61069 5.02891 11.6907 5.89891 15.8207H1.62891V15.8107Z" fill="#F4DE9C" stroke="#5E5E5A" stroke-width="0.15" stroke-linecap="round" stroke-linejoin="round"/>
<path d="M3.2894 22.4913C3.0994 22.4913 2.9294 22.4612 2.7794 22.4112C1.0394 21.8212 0.4894 20.0312 1.1594 17.1112C1.2594 16.6512 1.4394 16.2212 1.6994 15.8412C1.9194 15.5112 2.1894 15.2212 2.4994 15.0112C2.9494 14.6912 3.3994 14.5312 3.8494 14.5312C4.4794 14.5312 5.1294 14.8612 5.7594 15.5212C6.5794 16.8612 6.8594 18.0612 6.6094 19.1812C6.2694 20.3112 5.6394 21.2612 4.6894 22.1012C4.3894 22.3612 3.9994 22.5012 3.5794 22.5012H3.3094L3.2894 22.4913Z" fill="white"/>
<path d="M3.83867 14.6009C4.44867 14.6009 5.07867 14.9209 5.67867 15.5409C6.49867 16.8709 6.77867 18.0509 6.52867 19.1409C6.19867 20.2609 5.56867 21.2009 4.62867 22.0309C4.33867 22.2809 3.96867 22.4109 3.56867 22.4109H3.29867C3.11867 22.4109 2.94867 22.3809 2.80867 22.3409C1.08867 21.7509 0.568668 20.0509 1.23867 17.1309C1.33867 16.6709 1.51867 16.2609 1.76867 15.8909C1.98867 15.5609 2.24867 15.2909 2.54867 15.0809C2.98867 14.7709 3.42867 14.6109 3.84866 14.6109M3.84866 14.4609C3.37867 14.4609 2.91867 14.6309 2.45867 14.9609C2.12867 15.1909 1.85867 15.4809 1.63867 15.8109C1.37867 16.2009 1.18867 16.6409 1.08867 17.1009C0.428667 20.0309 0.938665 21.8709 2.75866 22.4909C2.92866 22.5509 3.11867 22.5709 3.29867 22.5709H3.56867C3.98867 22.5709 4.40867 22.4309 4.71867 22.1509C5.61867 21.3609 6.30866 20.4009 6.66866 19.1909C6.94866 17.9509 6.56867 16.7109 5.79867 15.4709C5.13867 14.7909 4.47867 14.4609 3.83867 14.4609H3.84866Z" fill="#5E5E5A"/>
</svg>
