<svg width="15" height="21" viewBox="0 0 15 21" fill="none" xmlns="http://www.w3.org/2000/svg">
<path opacity="0.65" d="M1.33144 0.990311C2.24144 0.0503109 3.57144 0.840312 6.87144 0.890312C10.7114 0.950312 12.1914 -0.0696886 13.2414 1.01031C14.0114 1.79031 14.1514 3.28031 13.5514 4.02031C12.8914 4.84031 11.6114 4.40031 9.00144 4.25031C3.94144 3.94031 1.95144 5.17031 1.05144 3.90031C0.471439 3.09031 0.66144 1.69031 1.34144 0.990311H1.33144Z" fill="#E62C2F" stroke="#E62C2F" stroke-width="0.2" stroke-linecap="round" stroke-linejoin="round"/>
<path d="M5.55125 9.86994C6.12125 7.97994 6.22125 5.56994 6.08125 2.90994C6.07125 2.62994 6.12125 2.33994 6.29125 2.10994C6.50125 1.79994 6.73125 1.79994 6.96125 2.12994C7.11125 2.34994 7.19125 2.61994 7.21125 2.88994C7.43125 5.37994 8.05125 7.84994 9.10125 10.2899L9.08125 12.2499L5.53125 12.2199L5.55125 9.87994V9.86994Z" fill="#F4DE9C" stroke="#5E5E5A" stroke-width="0.15" stroke-linecap="round" stroke-linejoin="round"/>
<path d="M4.75172 15.2297C3.15172 11.8097 2.69172 7.89971 2.51172 3.46971C2.51172 3.28971 2.51172 3.10971 2.55172 2.93971C2.70172 2.17971 3.41172 1.99971 3.75172 2.82971C3.79172 2.92971 3.82172 3.04971 3.84172 3.15971C4.19172 5.69971 4.72172 8.01971 5.58172 9.88971C5.64172 10.0197 5.68172 10.1597 5.77172 10.2797C6.19172 10.8497 6.84172 11.0297 7.50172 11.0197C8.13172 11.0097 8.71172 10.7197 9.14172 10.2797C9.37172 10.0397 9.56172 9.75971 9.69172 9.43971C10.4017 7.73971 10.5417 5.76971 10.8517 3.69971C10.9317 3.17971 11.0617 2.64971 11.4117 2.25971C12.0617 1.53971 12.5917 1.89971 12.6517 3.17971C12.8717 7.87971 11.6217 12.4197 10.0217 15.2497H4.76172L4.75172 15.2297Z" fill="#F4DE9C" stroke="#5E5E5A" stroke-width="0.15" stroke-linecap="round" stroke-linejoin="round"/>
<path d="M7.30187 20.4901C6.52187 20.4901 5.73187 20.3901 4.95187 20.2001C4.31187 20.1301 3.99187 19.6801 3.97187 18.8401C3.79187 17.8101 3.94187 16.8001 4.43187 15.8101C4.52187 15.6401 4.63187 15.4701 4.77187 15.3201C5.83187 14.1801 6.81187 13.6201 7.73187 13.6201C8.50187 13.6201 9.26187 14.0101 9.98187 14.7801C10.1919 15.0001 10.3919 15.2501 10.6019 15.5401C11.3119 16.4801 11.6519 17.6001 11.6319 18.9601C11.5919 19.7501 11.2919 20.1701 10.7219 20.2601C10.6519 20.2701 10.5919 20.2701 10.5219 20.2701C10.2119 20.2701 9.89187 20.1601 9.63187 19.9601C9.48187 19.8501 9.33187 19.7901 9.16187 19.7901C8.95187 19.7901 8.74187 19.8801 8.50187 20.0501C8.13187 20.3201 7.73187 20.4701 7.33187 20.4701H7.31187L7.30187 20.4901Z" fill="white"/>
<path d="M7.71238 13.71C8.46238 13.71 9.20238 14.09 9.91238 14.85C10.1224 15.08 10.3324 15.33 10.5224 15.6C11.2224 16.52 11.5524 17.63 11.5324 18.97C11.4824 19.97 11.0224 20.15 10.6824 20.2C10.6224 20.2 10.5624 20.21 10.4924 20.21C10.2024 20.21 9.90238 20.11 9.65238 19.92C9.49238 19.8 9.32238 19.74 9.14238 19.74C8.92238 19.74 8.69238 19.83 8.44238 20.02C8.08238 20.28 7.69238 20.42 7.29238 20.42C6.52238 20.42 5.73238 20.32 4.93238 20.13C4.55238 20.09 4.05238 19.91 4.02238 18.82C3.84238 17.82 3.99238 16.82 4.47238 15.85C4.56238 15.68 4.67238 15.52 4.79238 15.38L4.84238 15.32C5.84238 14.25 6.80238 13.7 7.69238 13.7M7.69238 13.55C6.72238 13.55 5.73238 14.13 4.73238 15.22C4.71238 15.24 4.70238 15.26 4.68238 15.27C4.54238 15.42 4.42238 15.59 4.33238 15.77C3.83238 16.79 3.68238 17.81 3.87238 18.84C3.89238 19.77 4.28238 20.2 4.91238 20.27C5.68238 20.46 6.47238 20.56 7.28238 20.56H7.30238C7.74238 20.56 8.16238 20.39 8.51238 20.13C8.72238 19.98 8.92238 19.88 9.13238 19.88C9.27238 19.88 9.41238 19.93 9.55238 20.03C9.82238 20.24 10.1524 20.35 10.4824 20.35C10.5524 20.35 10.6224 20.35 10.6924 20.33C11.2624 20.24 11.6224 19.83 11.6724 18.96C11.7024 17.45 11.2924 16.36 10.6324 15.49C10.4224 15.2 10.2224 14.95 10.0124 14.73C9.26238 13.93 8.49238 13.54 7.70238 13.54L7.69238 13.55Z" fill="#5E5E5A"/>
</svg>
