<svg width="15" height="21" viewBox="0 0 15 21" fill="none" xmlns="http://www.w3.org/2000/svg">
<path opacity="0.65" d="M0.929075 0.729939C1.90908 -0.280061 3.32908 0.56994 6.86908 0.62994C10.9991 0.69994 12.5791 -0.40006 13.7091 0.74994C14.5291 1.58994 14.6891 3.18994 14.0391 3.97994C13.3291 4.85994 11.9591 4.38994 9.14907 4.21994C3.71907 3.88994 1.57908 5.19994 0.619075 3.84994C-0.000924647 2.98994 0.199075 1.48994 0.929075 0.729939Z" fill="#E62C2F" stroke="#E62C2F" stroke-width="0.2" stroke-linecap="round" stroke-linejoin="round"/>
<path d="M5.96875 9.51965C6.60875 7.97965 6.67875 5.53965 6.54875 2.78965C6.52875 2.42965 6.61875 2.04965 6.84875 1.76965C7.17875 1.35965 7.52875 1.46965 7.89875 1.92965C8.02875 2.08965 8.08875 2.28965 8.09875 2.48965C8.19875 4.72965 8.97875 7.25965 10.0188 9.90965V11.8797H5.96875V9.51965Z" fill="#F4DE9C" stroke="#5E5E5A" stroke-width="0.15" stroke-linecap="round" stroke-linejoin="round"/>
<path d="M5.37062 14.7301C3.51062 11.5801 2.03062 7.6001 0.900622 3.4901C0.780622 3.0301 0.860622 2.52011 1.18062 2.17011C1.50062 1.81011 1.84062 1.86011 2.20062 2.47011C3.09062 5.25011 4.29062 7.67011 5.97062 9.51011C7.42062 10.7801 8.82062 10.9501 10.1506 9.9901C10.1906 9.9601 10.2206 9.9301 10.2606 9.9001C11.5106 8.2401 11.6606 5.7501 11.4506 2.9801C11.4206 2.5501 11.5106 2.11011 11.7806 1.77011C12.0706 1.40011 12.3706 1.4201 12.6806 1.8301C12.8506 2.0701 12.9606 2.35011 13.0106 2.64011C13.8406 7.17011 13.7606 11.2701 12.3606 14.7101H5.37062V14.7301Z" fill="#F4DE9C" stroke="#5E5E5A" stroke-width="0.15" stroke-linecap="round" stroke-linejoin="round"/>
<path d="M6.39003 20.4906C5.94003 20.4906 5.54003 20.3906 5.17003 20.1906C4.30003 19.7206 3.78003 18.7406 3.85003 17.6706C3.87003 17.2906 3.93003 16.8906 4.03003 16.4806C4.22003 15.6906 4.68003 15.0006 5.32003 14.5406C6.64003 13.5806 7.87003 13.1006 8.99003 13.1006C10.19 13.1006 11.31 13.6606 12.3 14.7706C12.43 14.9206 12.56 15.0706 12.68 15.2306C13.71 16.7206 14.47 18.2706 13.09 19.5006C12.29 20.1206 11.11 20.4106 9.26003 20.4306C9.03003 20.4306 8.82003 20.3006 8.68003 20.0906C8.56003 19.9106 8.40003 19.8106 8.18003 19.8106C7.92003 19.8106 7.58003 19.9506 7.13003 20.2606C6.95003 20.3806 6.74003 20.4606 6.53003 20.4606H6.38003L6.39003 20.4906Z" fill="white"/>
<path d="M9.00164 13.1805C10.1816 13.1805 11.2816 13.7405 12.2616 14.8305C12.3916 14.9705 12.5116 15.1305 12.6416 15.2805C14.0216 17.2905 14.1416 18.5005 13.0716 19.4505C12.2816 20.0605 11.1116 20.3505 9.28164 20.3705C9.08164 20.3705 8.89164 20.2605 8.77164 20.0705C8.64164 19.8705 8.45164 19.7605 8.21164 19.7605C7.93164 19.7605 7.58164 19.9105 7.12164 20.2305C6.96164 20.3405 6.76164 20.4105 6.56164 20.4205C6.51164 20.4205 6.46164 20.4205 6.41164 20.4205C5.98164 20.4205 5.59164 20.3205 5.22164 20.1305C4.37164 19.6805 3.87164 18.7205 3.94164 17.6805C3.96164 17.3005 4.02164 16.9005 4.12164 16.5005C4.31164 15.7405 4.75164 15.0705 5.37164 14.6105C5.37164 14.6105 5.38164 14.6105 5.39164 14.6105C6.69164 13.6605 7.91164 13.1805 9.01164 13.1805M9.01164 13.0305C7.85164 13.0305 6.61164 13.5305 5.30164 14.4805C4.64164 14.9605 4.17164 15.6705 3.98164 16.4705C3.88164 16.8705 3.82164 17.2705 3.79164 17.6705C3.72164 18.7205 4.22164 19.7605 5.15164 20.2605C5.52164 20.4605 5.94164 20.5705 6.41164 20.5705C6.46164 20.5705 6.51164 20.5705 6.57164 20.5705C6.80164 20.5705 7.02164 20.4805 7.21164 20.3505C7.59164 20.0905 7.94164 19.9105 8.21164 19.9105C8.39164 19.9105 8.53164 19.9805 8.64164 20.1505C8.78164 20.3705 9.02164 20.5205 9.28164 20.5205C10.8216 20.5005 12.2116 20.3005 13.1616 19.5705C14.5316 18.3505 13.8816 16.8105 12.7616 15.1905C12.6316 15.0205 12.5016 14.8705 12.3716 14.7205C11.3416 13.5705 10.2216 13.0205 9.00164 13.0205L9.01164 13.0305Z" fill="#5E5E5A"/>
</svg>
