<svg width="9" height="22" viewBox="0 0 9 22" fill="none" xmlns="http://www.w3.org/2000/svg">
<path opacity="0.65" d="M4.5195 0.69008C5.7995 0.46008 7.12951 1.75008 6.96951 2.65008C6.82951 3.46008 5.53951 3.79008 5.43951 3.82008C4.54951 4.03008 3.17951 3.87008 2.85951 3.02008C2.53951 2.16008 3.4195 0.89008 4.5195 0.69008Z" fill="#E62C2F" stroke="#E62C2F" stroke-width="0.2" stroke-linecap="round" stroke-linejoin="round"/>
<path d="M7.3 16.2404C6.36 12.8804 5.62 9.04039 5.64 3.93039C5.64 3.46039 5.48 2.99039 5.14 2.65039C4.73 2.25039 4.39 2.44039 4.14 3.36039C3.52 8.62039 2.89 11.8604 2.25 15.8404V16.2404H7.3Z" fill="#F4DE9C" stroke="#5E5E5A" stroke-width="0.15" stroke-linecap="round" stroke-linejoin="round"/>
<path d="M2.23953 15.8406C2.06953 16.0606 1.92954 16.3006 1.82954 16.5606C0.849536 18.9206 0.309537 21.0006 2.22954 21.5706C4.06954 21.6306 5.90953 21.6906 6.81953 21.3506C7.99953 20.4806 8.18953 19.1006 7.78953 17.4306C7.68953 17.0106 7.51953 16.6006 7.28953 16.2406C6.82953 15.5106 6.11954 14.9606 5.25954 14.7606C4.87954 14.6706 4.49953 14.6506 4.12953 14.7006C3.36953 14.8106 2.69953 15.2406 2.23953 15.8406Z" fill="white" stroke="#5E5E5A" stroke-width="0.15" stroke-linecap="round" stroke-linejoin="round"/>
</svg>
