<svg width="7" height="20" viewBox="0 0 7 20" fill="none" xmlns="http://www.w3.org/2000/svg">
<path opacity="0.65" d="M3.29295 0.180315C4.57295 -0.0496852 5.90294 1.24031 5.74294 2.14031C5.60294 2.95031 4.31294 3.28031 4.21294 3.31031C3.32294 3.52031 1.95294 3.36031 1.63294 2.51031C1.31294 1.65031 2.19295 0.380315 3.29295 0.180315Z" fill="#E62C2F" stroke="#E62C2F" stroke-width="0.2" stroke-linecap="round" stroke-linejoin="round"/>
<path d="M5.45265 14.2004C4.57265 10.7304 4.39266 7.5504 4.40266 3.6104C4.40266 3.0804 4.24266 2.5504 3.91266 2.1304C3.48266 1.5904 3.14265 1.6804 2.88265 2.2304C2.71265 2.5904 2.71266 2.9904 2.68266 3.3904C2.26266 8.3804 2.09266 10.4004 1.97266 14.2004H5.46265H5.45265Z" fill="#F4DE9C" stroke="#5E5E5A" stroke-width="0.15" stroke-linecap="round" stroke-linejoin="round"/>
<path d="M3.85052 19.5296C3.33052 19.5296 2.76051 19.4996 2.20051 19.4596L1.85052 19.4396C1.50052 19.4396 1.26052 19.3596 1.12052 19.1896C0.90052 18.9296 0.950514 18.4896 1.02051 18.0996C1.12051 16.9496 1.35052 15.8396 1.68052 14.7796C1.77052 14.4996 1.91052 14.2396 2.10052 14.0296C2.27052 13.8396 2.47052 13.6796 2.71052 13.5696C3.02052 13.4296 3.33052 13.3496 3.64052 13.3496C4.22052 13.3496 4.81052 13.6096 5.41052 14.1196C6.34052 15.4296 6.60051 16.8396 6.20051 18.4296C6.08051 18.9296 5.66052 19.3196 5.15052 19.4196C4.81052 19.4896 4.38052 19.5196 3.86052 19.5196L3.85052 19.5296Z" fill="white"/>
<path d="M3.63167 13.43C4.19167 13.43 4.77167 13.68 5.32167 14.15C6.25167 15.45 6.51167 16.85 6.11167 18.42C5.99167 18.89 5.60167 19.26 5.12167 19.36C4.78167 19.43 4.36167 19.46 3.84167 19.46C3.32167 19.46 2.75167 19.43 2.20167 19.39L1.84167 19.37C1.52167 19.37 1.29167 19.29 1.17167 19.15C0.971669 18.92 1.02167 18.5 1.09167 18.11C1.19167 16.98 1.41167 15.87 1.75167 14.81C1.84167 14.54 1.97167 14.29 2.16167 14.09C2.32167 13.9 2.52167 13.76 2.74167 13.65C3.04167 13.51 3.34167 13.44 3.63167 13.44M3.63167 13.29C3.31167 13.29 2.99167 13.36 2.67167 13.51C2.43167 13.63 2.21167 13.79 2.04167 13.99C1.84167 14.21 1.69167 14.48 1.60167 14.77C1.26167 15.85 1.04167 16.96 0.931671 18.1C0.801671 18.81 0.791667 19.53 1.84167 19.53C2.52167 19.57 3.21167 19.62 3.84167 19.62C4.32167 19.62 4.76167 19.59 5.15167 19.51C5.69167 19.4 6.13167 18.99 6.26167 18.46C6.65167 16.93 6.44167 15.46 5.45167 14.07C4.84167 13.55 4.24167 13.29 3.63167 13.29Z" fill="#5E5E5A"/>
</svg>
