<svg width="7" height="23" viewBox="0 0 7 23" fill="none" xmlns="http://www.w3.org/2000/svg">
<path opacity="0.65" d="M3.26168 0.510393C4.54168 0.280393 5.87169 1.57039 5.71169 2.47039C5.57169 3.28039 4.28168 3.61039 4.18168 3.64039C3.29168 3.85039 1.92169 3.69039 1.60169 2.84039C1.28169 1.98039 2.16168 0.710393 3.26168 0.510393Z" fill="#E62C2F" stroke="#E62C2F" stroke-width="0.2" stroke-linecap="round" stroke-linejoin="round"/>
<path d="M6.01218 15.8507C5.21218 12.4807 4.84218 8.53073 4.65218 3.18073C4.63218 2.62073 4.34218 2.09073 3.83218 1.85073C3.45218 1.67073 3.14218 1.73073 2.90218 2.04073C2.73218 2.26073 2.66218 2.55073 2.67218 2.84073C2.91218 7.65073 2.61219 11.7307 1.74219 15.8607H6.01218V15.8507Z" fill="#F4DE9C" stroke="#5E5E5A" stroke-width="0.15" stroke-linecap="round" stroke-linejoin="round"/>
<path d="M4.07893 22.5303C3.66893 22.5303 3.26893 22.3903 2.96893 22.1303C2.00893 21.2903 1.37892 20.3403 1.03892 19.2003C0.778924 18.0903 1.05892 16.8903 1.89892 15.5403C2.51892 14.9003 3.16893 14.5703 3.79893 14.5703C4.23893 14.5703 4.69892 14.7303 5.14892 15.0503C5.45892 15.2703 5.72893 15.5503 5.94893 15.8803C6.19893 16.2603 6.37894 16.6803 6.48894 17.1503C7.14894 20.0703 6.60893 21.8603 4.86893 22.4503C4.71893 22.5003 4.54893 22.5303 4.35893 22.5303H4.08893H4.07893Z" fill="white"/>
<path d="M3.80076 14.6405C4.23076 14.6405 4.67076 14.8005 5.10076 15.1105C5.40076 15.3205 5.66076 15.6005 5.88076 15.9205C6.13076 16.2905 6.31076 16.7105 6.41076 17.1605C7.07076 20.0805 6.56076 21.7905 4.83076 22.3705C4.69076 22.4205 4.52075 22.4405 4.34075 22.4405H4.07076C3.67076 22.4405 3.30075 22.3005 3.01075 22.0605C2.06075 21.2305 1.44076 20.2905 1.11076 19.1805C0.860758 18.0805 1.14076 16.9005 1.94076 15.5905C2.56076 14.9505 3.18076 14.6305 3.80076 14.6305M3.80076 14.4805C3.15076 14.4805 2.50075 14.8105 1.84075 15.4905C1.07075 16.7305 0.690759 17.9805 0.970759 19.2105C1.33076 20.4205 2.01076 21.3805 2.92076 22.1705C3.24076 22.4505 3.65076 22.5905 4.07076 22.5905H4.34075C4.52075 22.5905 4.71076 22.5705 4.88076 22.5105C6.70076 21.8905 7.22076 20.0505 6.55076 17.1205C6.45076 16.6605 6.26076 16.2205 6.00076 15.8305C5.78076 15.5005 5.51075 15.2105 5.18075 14.9805C4.72075 14.6505 4.26075 14.4805 3.79075 14.4805H3.80076Z" fill="#5E5E5A"/>
</svg>
