<svg width="15" height="21" viewBox="0 0 15 21" fill="none" xmlns="http://www.w3.org/2000/svg">
<path opacity="0.65" d="M13.3113 1.03035C12.4013 0.09035 11.0713 0.880351 7.77131 0.930351C3.93131 0.990351 2.4513 -0.0296496 1.4013 1.05035C0.631295 1.83035 0.491298 3.32035 1.0913 4.06035C1.7513 4.88035 3.0313 4.44035 5.6413 4.29035C10.7013 3.98035 12.6913 5.21035 13.5913 3.94035C14.1713 3.13035 13.9813 1.73035 13.3013 1.03035H13.3113Z" fill="#E62C2F" stroke="#E62C2F" stroke-width="0.2" stroke-linecap="round" stroke-linejoin="round"/>
<path d="M9.10078 9.90998C8.53078 8.01998 8.43079 5.60998 8.57079 2.94998C8.58079 2.66998 8.53078 2.37998 8.36078 2.14998C8.15078 1.83998 7.92078 1.83998 7.69078 2.16998C7.54078 2.38998 7.46078 2.65998 7.44078 2.92998C7.22078 5.41998 6.60078 7.88998 5.55078 10.33L5.57079 12.29L9.12077 12.26L9.10078 9.91998V9.90998Z" fill="#F4DE9C" stroke="#5E5E5A" stroke-width="0.15" stroke-linecap="round" stroke-linejoin="round"/>
<path d="M9.89002 15.2698C11.49 11.8498 11.95 7.93975 12.13 3.50975C12.13 3.32975 12.13 3.14975 12.09 2.97975C11.94 2.21975 11.23 2.03975 10.89 2.86975C10.85 2.96975 10.82 3.08975 10.8 3.19975C10.45 5.73975 9.92002 8.05975 9.06002 9.92975C9.00002 10.0598 8.96002 10.1998 8.87002 10.3198C8.45002 10.8898 7.80002 11.0698 7.14002 11.0598C6.51002 11.0498 5.93002 10.7598 5.50002 10.3198C5.27002 10.0798 5.08002 9.79975 4.95002 9.47975C4.24002 7.77975 4.10002 5.80975 3.79002 3.73975C3.71002 3.21975 3.58002 2.68975 3.23002 2.29975C2.58002 1.57975 2.05003 1.93975 1.99003 3.21975C1.77003 7.91975 3.02002 12.4598 4.62002 15.2898H9.88003L9.89002 15.2698Z" fill="#F4DE9C" stroke="#5E5E5A" stroke-width="0.15" stroke-linecap="round" stroke-linejoin="round"/>
<path d="M7.31821 20.5297C6.92821 20.5297 6.5182 20.3897 6.1482 20.1097C5.9082 19.9297 5.69821 19.8497 5.48821 19.8497C5.32821 19.8497 5.16821 19.9097 5.01821 20.0197C4.75821 20.2197 4.4482 20.3297 4.1382 20.3297C4.0682 20.3297 4.0082 20.3297 3.9382 20.3197C3.3682 20.2297 3.0682 19.8097 3.0282 19.0197C3.0082 17.6597 3.3382 16.5397 4.0582 15.5997C4.2582 15.3097 4.46819 15.0597 4.67819 14.8397C5.39819 14.0697 6.15819 13.6797 6.92819 13.6797C7.84819 13.6797 8.8282 14.2297 9.8382 15.3197C10.0182 15.5197 10.1382 15.6797 10.2282 15.8597C10.7082 16.8497 10.8682 17.8597 10.6882 18.8797C10.6682 19.7297 10.3482 20.1797 9.70821 20.2497C8.91821 20.4397 8.11821 20.5397 7.34821 20.5397H7.3282L7.31821 20.5297Z" fill="white"/>
<path d="M6.9281 13.7496C7.8281 13.7496 8.78811 14.2896 9.80811 15.3896L9.8381 15.4196C9.9681 15.5596 10.0781 15.7196 10.1681 15.8896C10.6481 16.8596 10.7981 17.8596 10.6181 18.8896C10.5881 19.9496 10.0881 20.1296 9.68811 20.1796C8.90811 20.3696 8.11811 20.4696 7.32811 20.4696C6.94811 20.4696 6.55812 20.3296 6.20812 20.0696C5.95812 19.8796 5.7281 19.7896 5.5081 19.7896C5.3281 19.7896 5.15811 19.8496 4.99811 19.9696C4.74811 20.1596 4.44811 20.2596 4.15811 20.2596C4.09811 20.2596 4.0381 20.2596 3.9781 20.2496C3.6381 20.1996 3.18811 20.0096 3.12811 19.0196C3.10811 17.6696 3.43811 16.5696 4.13811 15.6396C4.32811 15.3696 4.53811 15.1196 4.74811 14.8896C5.45811 14.1296 6.19811 13.7496 6.94811 13.7496M6.94811 13.5996C6.16811 13.5996 5.39811 13.9796 4.63811 14.7896C4.42811 15.0096 4.21811 15.2696 4.01811 15.5496C3.35811 16.4096 2.9481 17.5096 2.9781 19.0196C3.0281 19.8896 3.37812 20.2996 3.95812 20.3896C4.02812 20.3996 4.09811 20.4096 4.16811 20.4096C4.49811 20.4096 4.82811 20.2896 5.09811 20.0896C5.23811 19.9796 5.37811 19.9396 5.51811 19.9396C5.71811 19.9396 5.92811 20.0296 6.13811 20.1896C6.49811 20.4496 6.90811 20.6196 7.34811 20.6196H7.3681C8.1781 20.6196 8.96811 20.5196 9.73811 20.3296C10.3681 20.2596 10.7581 19.8296 10.7781 18.8996C10.9581 17.8696 10.8081 16.8496 10.3181 15.8296C10.2281 15.6496 10.1081 15.4796 9.96811 15.3296C9.94811 15.3096 9.93811 15.2896 9.91811 15.2796C8.90811 14.1896 7.91812 13.6096 6.95812 13.6096L6.94811 13.5996Z" fill="#5E5E5A"/>
</svg>
