<svg width="15" height="21" viewBox="0 0 15 21" fill="none" xmlns="http://www.w3.org/2000/svg">
<path opacity="0.65" d="M13.7107 0.769979C12.7307 -0.240021 11.3107 0.609979 7.7707 0.669979C3.6407 0.739979 2.06069 -0.360021 0.930687 0.789979C0.110687 1.62998 -0.0492994 3.22998 0.600701 4.01998C1.3107 4.89998 2.6807 4.42998 5.4907 4.25998C10.9207 3.92998 13.0607 5.23998 14.0207 3.88998C14.6407 3.01998 14.4407 1.51998 13.7107 0.759979V0.769979Z" fill="#E62C2F" stroke="#E62C2F" stroke-width="0.2" stroke-linecap="round" stroke-linejoin="round"/>
<path d="M8.6711 9.55969C8.0311 8.01969 7.96109 5.57969 8.09109 2.82969C8.11109 2.46969 8.02109 2.08969 7.79109 1.80969C7.46109 1.39969 7.1111 1.50969 6.7411 1.96969C6.6111 2.12969 6.55109 2.32969 6.54109 2.52969C6.44109 4.76969 5.66109 7.29969 4.62109 9.94969V11.9197H8.6711V9.55969Z" fill="#F4DE9C" stroke="#5E5E5A" stroke-width="0.15" stroke-linecap="round" stroke-linejoin="round"/>
<path d="M9.27154 14.7701C11.1315 11.6201 12.6115 7.64014 13.7415 3.53014C13.8615 3.07014 13.7815 2.56014 13.4615 2.21014C13.1415 1.85014 12.8015 1.90014 12.4415 2.51014C11.5515 5.29014 10.3515 7.71014 8.67154 9.55014C7.22153 10.8201 5.82154 10.9901 4.49154 10.0301C4.45154 10.0001 4.42154 9.97014 4.38154 9.94014C3.13154 8.28014 2.98154 5.79014 3.19154 3.02014C3.22154 2.59014 3.13154 2.15014 2.86154 1.81014C2.57154 1.44014 2.27154 1.46014 1.96154 1.87014C1.79154 2.11014 1.68154 2.39014 1.63154 2.68014C0.801542 7.21014 0.881536 11.3101 2.28154 14.7501H9.27154V14.7701Z" fill="#F4DE9C" stroke="#5E5E5A" stroke-width="0.15" stroke-linecap="round" stroke-linejoin="round"/>
<path d="M8.10031 20.5306C7.89031 20.5306 7.67031 20.4506 7.50031 20.3306C7.05031 20.0206 6.7203 19.8806 6.4503 19.8806C6.2403 19.8806 6.0703 19.9706 5.9503 20.1606C5.8203 20.3706 5.6003 20.5006 5.3703 20.5006C3.5203 20.4806 2.34031 20.1906 1.53031 19.5606C0.150305 18.3306 0.910309 16.7806 1.94031 15.2806C2.06031 15.1206 2.19031 14.9706 2.32031 14.8206C3.31031 13.7106 4.43031 13.1406 5.63031 13.1406C6.75031 13.1406 7.98031 13.6206 9.30031 14.5806C9.94031 15.0506 10.4003 15.7406 10.5903 16.5206C10.6903 16.9206 10.7503 17.3206 10.7703 17.7106C10.8403 18.7706 10.3303 19.7606 9.4503 20.2306C9.0703 20.4306 8.6703 20.5306 8.2303 20.5306H8.08031H8.10031Z" fill="white"/>
<path d="M5.64212 13.2205C6.74212 13.2205 7.96212 13.7005 9.26212 14.6505C9.26212 14.6505 9.26213 14.6505 9.27213 14.6505C9.89213 15.1105 10.3421 15.7805 10.5221 16.5405C10.6221 16.9405 10.6821 17.3405 10.7021 17.7205C10.7721 18.7505 10.2721 19.7105 9.42212 20.1605C9.05212 20.3605 8.67212 20.4505 8.23212 20.4505C8.18212 20.4505 8.13212 20.4505 8.08212 20.4505C7.88212 20.4505 7.68213 20.3705 7.52213 20.2605C7.06213 19.9405 6.71212 19.7905 6.43212 19.7905C6.20212 19.7905 6.00212 19.9005 5.87212 20.1005C5.75212 20.2905 5.56213 20.4005 5.35213 20.4005C3.52213 20.3705 2.35213 20.0905 1.57213 19.4905C0.49213 18.5305 0.612118 17.3205 1.98212 15.3205C2.11212 15.1605 2.23212 15.0005 2.36212 14.8605C3.34212 13.7705 4.43212 13.2105 5.62212 13.2105M5.62212 13.0605C4.40212 13.0605 3.28212 13.6105 2.25212 14.7605C2.12212 14.9105 1.99212 15.0605 1.86212 15.2305C0.752123 16.8505 0.0921292 18.3905 1.46213 19.6105C2.41213 20.3405 3.80212 20.5405 5.34212 20.5605C5.60212 20.5605 5.84212 20.4105 5.98212 20.1905C6.09212 20.0205 6.24213 19.9505 6.41213 19.9505C6.69213 19.9505 7.03213 20.1305 7.41213 20.3905C7.60213 20.5205 7.82213 20.6005 8.05213 20.6105C8.10213 20.6105 8.15213 20.6105 8.21213 20.6105C8.68213 20.6105 9.10212 20.5005 9.47212 20.3005C10.4021 19.8005 10.9021 18.7605 10.8321 17.7105C10.8121 17.3005 10.7421 16.9005 10.6421 16.5105C10.4521 15.7105 9.98213 15.0105 9.32213 14.5205C8.01213 13.5705 6.77212 13.0705 5.61212 13.0705L5.62212 13.0605Z" fill="#5E5E5A"/>
</svg>
