<svg width="6" height="19" viewBox="0 0 6 19" fill="none" xmlns="http://www.w3.org/2000/svg">
<path opacity="0.65" d="M2.97263 15.1998C4.25263 14.9698 5.58263 16.2599 5.42263 17.1599C5.28263 17.9699 3.99263 18.2999 3.89263 18.3299C3.00263 18.5399 1.63263 18.3798 1.31263 17.5298C0.99263 16.6698 1.87263 15.3998 2.97263 15.1998Z" fill="#E62C2F" stroke="#E62C2F" stroke-width="0.2" stroke-linecap="round" stroke-linejoin="round"/>
<path d="M1.25 6.91992H4.05C4.05 6.91992 4.05 7.10993 4.05 7.11993C3.66 10.3499 3.6 13.4099 4.05 16.2099C4.22 17.4799 3.92 17.6499 3.35 17.1299C2.95 16.7699 2.65 16.2999 2.48 15.7799C1.75 13.5599 1.4 10.4699 1.26 6.91992" fill="#F4DE9C"/>
<path d="M1.25 6.91992H4.05C4.05 6.91992 4.05 7.10993 4.05 7.11993C3.66 10.3499 3.6 13.4099 4.05 16.2099C4.22 17.4799 3.92 17.6499 3.35 17.1299C2.95 16.7699 2.65 16.2999 2.48 15.7799C1.75 13.5599 1.4 10.4699 1.26 6.91992" stroke="#5E5E5A" stroke-width="0.15" stroke-linecap="round" stroke-linejoin="round"/>
<path d="M4.04188 7.12002C4.25188 6.72002 4.35188 6.27002 4.37188 5.82002L4.50187 2.35002C4.55187 1.55002 4.22187 1.15002 3.75187 0.850015C3.04187 0.340015 2.02188 0.110017 1.16188 0.160017C0.561879 0.350017 0.541874 0.210019 0.461874 0.740019C0.421874 0.990019 0.411875 1.24002 0.431875 1.49002C0.541875 3.09002 0.701876 4.56002 0.861876 5.93002C0.901876 6.30002 1.04188 6.64002 1.26188 6.94002C1.28188 6.97002 1.31188 7.00002 1.33188 7.04002C2.36188 8.31002 3.22188 8.41002 3.91188 7.37002C3.96188 7.30002 4.01188 7.22002 4.05188 7.14002" fill="white"/>
<path d="M4.04188 7.12002C4.25188 6.72002 4.35188 6.27002 4.37188 5.82002L4.50187 2.35002C4.55187 1.55002 4.22187 1.15002 3.75187 0.850015C3.04187 0.340015 2.02188 0.110017 1.16188 0.160017C0.561879 0.350017 0.541874 0.210019 0.461874 0.740019C0.421874 0.990019 0.411875 1.24002 0.431875 1.49002C0.541875 3.09002 0.701876 4.56002 0.861876 5.93002C0.901876 6.30002 1.04188 6.64002 1.26188 6.94002C1.28188 6.97002 1.31188 7.00002 1.33188 7.04002C2.36188 8.31002 3.22188 8.41002 3.91188 7.37002C3.96188 7.30002 4.01188 7.22002 4.05188 7.14002" stroke="#5E5E5A" stroke-width="0.15" stroke-linecap="round" stroke-linejoin="round"/>
</svg>
