<svg width="6" height="20" viewBox="0 0 6 20" fill="none" xmlns="http://www.w3.org/2000/svg">
<path opacity="0.65" d="M3.16013 16.1198C4.44013 15.8898 5.77013 17.1798 5.61013 18.0798C5.47013 18.8898 4.18013 19.2198 4.08013 19.2498C3.19013 19.4598 1.82013 19.2998 1.50013 18.4498C1.18013 17.5898 2.06013 16.3198 3.16013 16.1198Z" fill="#E62C2F" stroke="#E62C2F" stroke-width="0.2" stroke-linecap="round" stroke-linejoin="round"/>
<path d="M4.52328 6.5V6.99C3.97328 10.44 3.78328 13.72 4.12328 16.77C4.24328 18.07 3.95328 18.4 3.34328 17.99C2.89328 17.69 2.58328 17.21 2.42328 16.69C1.57328 13.96 1.10328 10.46 0.863281 6.5H4.52328Z" fill="#F4DE9C" stroke="#5E5E5A" stroke-width="0.15" stroke-linecap="round" stroke-linejoin="round"/>
<path d="M0.851629 6.49989C0.951629 6.71989 1.09163 6.92989 1.26163 7.09989C1.97163 7.80989 2.68163 8.04989 3.41163 7.84989C3.89163 7.71989 4.27163 7.39989 4.51163 6.98989C4.67163 6.71989 4.77163 6.40989 4.79163 6.08989L5.09163 2.49989C5.04163 1.95989 4.91163 1.48989 4.69163 1.08989C4.45163 0.65989 3.99163 0.379888 3.49163 0.349888L1.02163 0.189889C0.391627 0.159889 0.191632 0.319889 0.221632 1.09989C0.221632 1.29989 0.241634 1.49989 0.231634 1.69989C0.191634 3.28989 0.311629 4.69989 0.671629 5.82989C0.691629 6.05989 0.751629 6.28989 0.851629 6.49989Z" fill="white" stroke="#5E5E5A" stroke-width="0.15" stroke-linecap="round" stroke-linejoin="round"/>
</svg>
