<svg width="7" height="23" viewBox="0 0 7 23" fill="none" xmlns="http://www.w3.org/2000/svg">
<path opacity="0.65" d="M3.49216 19.2799C4.77216 19.0499 6.10216 20.3399 5.94216 21.2399C5.80216 22.0499 4.51216 22.3799 4.41216 22.4099C3.52216 22.6199 2.15216 22.4599 1.83216 21.6099C1.51216 20.7499 2.39216 19.4799 3.49216 19.2799Z" fill="#E62C2F" stroke="#E62C2F" stroke-width="0.2" stroke-linecap="round" stroke-linejoin="round"/>
<path d="M5.61218 7.99926C4.95218 12.2493 4.57219 16.3993 4.52219 20.4393C4.52219 20.7193 4.46219 21.0093 4.32219 21.2593C4.10219 21.6493 3.81218 21.7093 3.45218 21.4393C3.11218 21.1893 2.90219 20.8093 2.82219 20.3993C1.99219 16.4693 1.59219 12.3193 1.49219 7.98926H5.61218V7.99926Z" fill="#F4DE9C" stroke="#5E5E5A" stroke-width="0.15" stroke-linecap="round" stroke-linejoin="round"/>
<path d="M3.60319 9.74996C3.00319 9.74996 2.36319 9.22996 1.71319 8.21996C1.65319 8.13996 1.60318 8.04996 1.55318 7.95996C0.743184 6.57996 0.56318 4.80996 1.03318 2.69996C1.78318 1.04996 2.59318 0.209961 3.44318 0.209961C4.29318 0.209961 5.23318 1.06996 6.23318 2.74996C6.49318 3.19996 6.63319 3.69996 6.63319 4.21996C6.63319 5.79996 6.26318 7.05996 5.55318 7.94996C4.91318 9.14996 4.26319 9.74996 3.60319 9.74996Z" fill="white"/>
<path d="M3.44185 0.28965C4.27185 0.28965 5.18185 1.12965 6.16185 2.79965C6.42185 3.23965 6.55185 3.72965 6.55185 4.22965C6.55185 5.79965 6.19185 7.03965 5.47185 7.93965C4.85185 9.09965 4.22185 9.68965 3.60185 9.68965C3.02185 9.68965 2.41185 9.18965 1.77185 8.18965C1.71185 8.10965 1.66185 8.01965 1.61185 7.93965C0.811847 6.56965 0.631843 4.81965 1.09184 2.76965C1.83184 1.13965 2.62184 0.30965 3.43184 0.30965M3.43184 0.159649C2.56184 0.159649 1.73184 0.979648 0.951844 2.70965C0.481844 4.80965 0.641842 6.58965 1.48184 8.01965C1.53184 8.10965 1.59185 8.19965 1.64185 8.27965C2.30185 9.30965 2.95184 9.83965 3.59184 9.83965C4.27184 9.83965 4.94185 9.24965 5.60185 8.00965C6.35185 7.07965 6.70184 5.79965 6.70184 4.22965C6.70184 3.69965 6.55184 3.17965 6.29184 2.71965C5.30184 1.02965 4.34185 0.139648 3.44185 0.139648L3.43184 0.159649Z" fill="#5E5E5A"/>
</svg>
