<svg width="14" height="19" viewBox="0 0 14 19" fill="none" xmlns="http://www.w3.org/2000/svg">
<path opacity="0.65" d="M2.07029 13.7301C3.35029 13.5001 4.68029 14.7901 4.52029 15.6901C4.38029 16.5001 3.09029 16.8301 2.99029 16.8601C2.10029 17.0701 0.730286 16.9101 0.410286 16.0601C0.0902862 15.2001 0.97029 13.9301 2.07029 13.7301Z" fill="#E62C2F" stroke="#E62C2F" stroke-width="0.2" stroke-linecap="round" stroke-linejoin="round"/>
<path opacity="0.65" d="M11.1797 15.3502C12.4597 15.1202 13.7897 16.4102 13.6297 17.3102C13.4897 18.1202 12.1997 18.4502 12.0997 18.4802C11.2097 18.6902 9.83966 18.5302 9.51966 17.6802C9.19966 16.8202 10.0797 15.5502 11.1797 15.3502Z" fill="#E62C2F" stroke="#E62C2F" stroke-width="0.2" stroke-linecap="round" stroke-linejoin="round"/>
<path d="M10.8793 6.94984C11.8793 10.1198 12.6393 13.1198 12.5693 15.5798C12.5593 16.0798 12.4493 16.5798 12.2293 17.0298C11.9293 17.6198 11.6093 17.7098 11.2593 17.2298C11.0993 16.9998 10.9893 16.7298 10.9393 16.4498L10.0993 12.5098C9.8993 11.5998 9.3693 10.7698 8.5693 10.2898C8.0493 9.97984 7.5093 9.85984 6.9593 9.94984C6.3093 10.0598 5.7493 10.4598 5.3793 10.9998C4.5993 12.0998 2.91929 15.2998 2.91929 15.2998C2.13929 16.4198 1.6793 16.3598 1.5793 15.0098C1.5293 13.3298 3.08929 9.64984 4.55929 6.83984L10.9093 6.94984H10.8793Z" fill="#F4DE9C" stroke="#5E5E5A" stroke-width="0.15" stroke-linecap="round" stroke-linejoin="round"/>
<path d="M7.63976 8.27019C6.88976 8.27019 6.15976 8.0302 5.44976 7.5402C5.12976 7.3302 4.83977 7.07019 4.57977 6.78019C4.10977 6.26019 3.73977 5.65019 3.45977 4.94019C2.75977 3.13019 2.80977 1.73019 3.59977 0.750195C4.05977 0.390195 4.59977 0.200195 5.18977 0.200195C5.61977 0.200195 6.07977 0.300196 6.56977 0.490196C7.07977 0.860196 7.52977 1.05019 7.93977 1.05019C8.21977 1.05019 8.47976 0.960195 8.69976 0.770195C9.19976 0.530195 9.65977 0.400196 10.0698 0.400196C10.5798 0.400196 10.9998 0.590196 11.3698 0.970196C11.7098 1.3302 11.9298 1.85019 11.9798 2.41019C12.0898 3.74019 11.9498 4.86019 11.5498 5.84019C11.3898 6.23019 11.1398 6.58019 10.8298 6.89019C10.6998 7.02019 10.5498 7.14019 10.3998 7.25019C9.44976 7.92019 8.52976 8.27019 7.64976 8.27019H7.63976Z" fill="white"/>
<path d="M5.19159 0.289883C5.60159 0.289883 6.05159 0.379883 6.53159 0.559883C7.06159 0.939883 7.52159 1.12988 7.94159 1.12988C8.24159 1.12988 8.51159 1.02988 8.72159 0.84988C9.22159 0.59988 9.6816 0.479881 10.0716 0.479881C10.5616 0.479881 10.9616 0.659881 11.3116 1.02988C11.6416 1.37988 11.8516 1.87988 11.9016 2.42988C12.0116 3.74988 11.8716 4.84988 11.4716 5.81988C11.3116 6.19988 11.0816 6.53988 10.7716 6.84988C10.6416 6.97988 10.5016 7.09988 10.3516 7.19988C9.4216 7.85988 8.50159 8.19988 7.64159 8.19988C6.91159 8.19988 6.1916 7.95988 5.4916 7.48988C5.1816 7.27988 4.8916 7.02988 4.6316 6.73988C4.1716 6.22988 3.80159 5.61988 3.53159 4.92988C2.84159 3.14988 2.8816 1.76988 3.6316 0.839882C4.0916 0.479882 4.61159 0.289883 5.19159 0.289883ZM5.19159 0.139881C4.57159 0.139881 4.02158 0.329883 3.54158 0.719883C2.72158 1.72988 2.68159 3.14988 3.39159 4.97988C3.66159 5.66988 4.0316 6.30988 4.5216 6.83988C4.7816 7.12988 5.08159 7.38988 5.41159 7.60988C6.14159 8.09988 6.88159 8.34988 7.64159 8.34988C8.55159 8.34988 9.48159 7.99988 10.4416 7.31988C10.6016 7.20988 10.7416 7.08988 10.8816 6.94988C11.1916 6.63988 11.4516 6.27988 11.6216 5.86988C12.0516 4.82988 12.1716 3.66988 12.0616 2.40988C12.0116 1.85988 11.8116 1.31988 11.4316 0.91988C11.0516 0.50988 10.5916 0.319881 10.0816 0.319881C9.65159 0.319881 9.17159 0.449881 8.66159 0.709881C8.44159 0.889881 8.20159 0.969883 7.95159 0.969883C7.54159 0.969883 7.09159 0.75988 6.61159 0.41988C6.11159 0.22988 5.64159 0.129883 5.20159 0.129883L5.19159 0.139881Z" fill="#5E5E5A"/>
</svg>
