<svg width="15" height="20" viewBox="0 0 15 20" fill="none" xmlns="http://www.w3.org/2000/svg">
<path opacity="0.65" d="M2.3281 15.3502C3.6081 15.1202 4.9381 16.4102 4.7781 17.3102C4.6381 18.1202 3.3481 18.4502 3.2481 18.4802C2.3581 18.6902 0.988099 18.5302 0.668099 17.6802C0.348099 16.8202 1.2281 15.5502 2.3281 15.3502Z" fill="#E62C2F" stroke="#E62C2F" stroke-width="0.2" stroke-linecap="round" stroke-linejoin="round"/>
<path opacity="0.65" d="M11.9492 16.0397C13.2292 15.8097 14.5592 17.0997 14.3992 17.9997C14.2592 18.8097 12.9692 19.1397 12.8692 19.1697C11.9792 19.3797 10.6092 19.2197 10.2892 18.3697C9.96919 17.5097 10.8492 16.2397 11.9492 16.0397Z" fill="#E62C2F" stroke="#E62C2F" stroke-width="0.2" stroke-linecap="round" stroke-linejoin="round"/>
<path d="M10.7472 7.55004C12.5772 10.18 13.5172 13.75 13.5172 17.48C13.4572 18.57 13.1172 18.81 12.5572 18.34C12.2172 18.06 11.9972 17.65 11.9072 17.22C11.3572 14.79 10.5872 12.76 9.44717 11.37C8.11717 10.03 6.97717 10.1 5.97717 11.15C4.69717 12.31 4.02717 14.17 3.67717 16.38C3.62717 16.71 3.51718 17.04 3.32718 17.32C2.94718 17.89 2.55718 17.93 2.15718 17.39C1.95718 17.12 1.84718 16.8 1.79718 16.47C1.38718 13.39 1.92718 10.46 3.37718 7.67004C3.39718 7.63004 3.41717 7.59004 3.44717 7.54004H10.7472V7.55004Z" fill="#F4DE9C" stroke="#5E5E5A" stroke-width="0.15" stroke-linecap="round" stroke-linejoin="round"/>
<path d="M7.24636 8.76C6.19636 8.76 5.10636 8.51 4.02636 8.02C3.80636 7.92 3.60635 7.78 3.42635 7.62C3.29635 7.5 3.18636 7.37 3.09636 7.23C1.96636 5.56 1.47636 3.94 1.60636 2.28C1.73636 1.48 1.96635 0.950001 2.30635 0.700001C2.88635 0.400001 3.53636 0.25 4.26636 0.25C4.93636 0.25 5.67635 0.379999 6.50635 0.639999C6.74635 0.749999 6.99636 0.810001 7.24636 0.810001C7.49636 0.810001 7.74636 0.750001 7.99636 0.630001C8.49636 0.400001 8.93636 0.290001 9.35636 0.290001C9.62636 0.290001 9.89636 0.34 10.1664 0.43C10.6164 0.49 11.0664 0.769999 11.5664 1.28C11.8464 1.57 12.0264 1.93 12.0864 2.32C12.2764 3.53 12.2964 4.62 12.1164 5.67C12.0764 6.07 11.9764 6.43 11.8164 6.76C11.6164 7.18 11.2664 7.54 10.8064 7.79C9.63635 8.42 8.43636 8.74 7.24636 8.74V8.76Z" fill="white"/>
<path d="M4.26781 0.330158C4.93781 0.330158 5.65781 0.460155 6.46781 0.710155C6.72781 0.830155 6.98781 0.890156 7.24781 0.890156C7.50781 0.890156 7.74781 0.830158 7.99781 0.720158H8.0378C8.0378 0.720158 8.08781 0.720157 8.10781 0.700157C8.52781 0.480157 8.94781 0.370155 9.35781 0.370155C9.61781 0.370155 9.88781 0.410155 10.1678 0.510155C10.5878 0.570155 11.0278 0.840157 11.5078 1.34016C11.7778 1.62016 11.9478 1.96016 12.0078 2.34016C12.1978 3.54016 12.2078 4.63015 12.0378 5.67015C11.9978 6.05015 11.9078 6.41016 11.7478 6.73016C11.5578 7.14016 11.2178 7.48016 10.7678 7.73016C9.60781 8.36016 8.42781 8.67015 7.24781 8.67015C6.20781 8.67015 5.12782 8.42016 4.06782 7.93016C3.85782 7.83016 3.65781 7.70016 3.48781 7.54016C3.36781 7.43016 3.25781 7.30015 3.16781 7.17015C2.04781 5.51015 1.56781 3.91016 1.68781 2.28016C1.80781 1.50016 2.03781 0.980155 2.34781 0.760155C2.92781 0.460155 3.55781 0.310158 4.27781 0.310158M4.27781 0.160156C3.56781 0.160156 2.89781 0.300157 2.27781 0.630157C1.92781 0.880157 1.6778 1.40015 1.5378 2.26015C1.4078 4.02015 1.97781 5.68016 3.04781 7.25016C3.14781 7.40016 3.25781 7.53016 3.38781 7.65016C3.56781 7.82016 3.7778 7.96016 4.0078 8.07016C5.1078 8.57016 6.1878 8.82016 7.2578 8.82016C8.4778 8.82016 9.67781 8.49016 10.8578 7.86016C11.3078 7.62016 11.6878 7.26016 11.8978 6.79016C12.0678 6.44016 12.1678 6.07016 12.1978 5.68016C12.3778 4.58016 12.3478 3.45016 12.1678 2.31016C12.0978 1.90016 11.9178 1.52016 11.6278 1.22016C11.1578 0.740158 10.6878 0.420155 10.1978 0.350155C9.91781 0.260155 9.6378 0.210155 9.3678 0.210155C8.9178 0.210155 8.47781 0.330158 8.04781 0.560158H7.9778C7.7378 0.670158 7.4978 0.730156 7.2578 0.730156C7.0178 0.730156 6.77781 0.670158 6.54781 0.560158C5.76781 0.310158 5.0078 0.160156 4.2878 0.160156H4.27781Z" fill="#5E5E5A"/>
</svg>
