<svg width="6" height="19" viewBox="0 0 6 19" fill="none" xmlns="http://www.w3.org/2000/svg">
<path opacity="0.65" d="M2.72095 15.2497C1.44095 15.0197 0.110947 16.3096 0.270947 17.2096C0.410947 18.0196 1.70095 18.3496 1.80095 18.3796C2.69095 18.5896 4.06095 18.4297 4.38095 17.5797C4.70095 16.7197 3.82095 15.4497 2.72095 15.2497Z" fill="#E62C2F" stroke="#E62C2F" stroke-width="0.2" stroke-linecap="round" stroke-linejoin="round"/>
<path d="M4.45284 6.96973H1.65284C1.65284 6.96973 1.65284 7.15972 1.65284 7.16972C2.04284 10.3997 2.10284 13.4597 1.65284 16.2597C1.48284 17.5297 1.78284 17.6997 2.35284 17.1797C2.75284 16.8197 3.05284 16.3497 3.22284 15.8297C3.95284 13.6097 4.30284 10.5197 4.44284 6.96973" fill="#F4DE9C"/>
<path d="M4.45284 6.96973H1.65284C1.65284 6.96973 1.65284 7.15972 1.65284 7.16972C2.04284 10.3997 2.10284 13.4597 1.65284 16.2597C1.48284 17.5297 1.78284 17.6997 2.35284 17.1797C2.75284 16.8197 3.05284 16.3497 3.22284 15.8297C3.95284 13.6097 4.30284 10.5197 4.44284 6.96973" stroke="#5E5E5A" stroke-width="0.15" stroke-linecap="round" stroke-linejoin="round"/>
<path d="M1.66032 7.16006C1.45032 6.76006 1.35032 6.31006 1.33032 5.86006L1.20032 2.39005C1.15032 1.59005 1.48032 1.19005 1.95032 0.890054C2.66032 0.380054 3.68032 0.150056 4.54032 0.200056C5.14032 0.390056 5.16032 0.250054 5.24032 0.780054C5.28032 1.03005 5.29032 1.28005 5.27032 1.53005C5.16032 3.13005 5.00032 4.60006 4.84032 5.97006C4.80032 6.34006 4.66032 6.68005 4.44032 6.98005C4.42032 7.01005 4.39032 7.04006 4.37032 7.08006C3.34032 8.35006 2.48032 8.45006 1.79032 7.41006C1.74032 7.34006 1.69032 7.26006 1.65032 7.18006" fill="white"/>
<path d="M1.66032 7.16006C1.45032 6.76006 1.35032 6.31006 1.33032 5.86006L1.20032 2.39005C1.15032 1.59005 1.48032 1.19005 1.95032 0.890054C2.66032 0.380054 3.68032 0.150056 4.54032 0.200056C5.14032 0.390056 5.16032 0.250054 5.24032 0.780054C5.28032 1.03005 5.29032 1.28005 5.27032 1.53005C5.16032 3.13005 5.00032 4.60006 4.84032 5.97006C4.80032 6.34006 4.66032 6.68005 4.44032 6.98005C4.42032 7.01005 4.39032 7.04006 4.37032 7.08006C3.34032 8.35006 2.48032 8.45006 1.79032 7.41006C1.74032 7.34006 1.69032 7.26006 1.65032 7.18006" stroke="#5E5E5A" stroke-width="0.15" stroke-linecap="round" stroke-linejoin="round"/>
</svg>
