<svg width="7" height="20" viewBox="0 0 7 20" fill="none" xmlns="http://www.w3.org/2000/svg">
<path opacity="0.65" d="M3.52954 16.1696C2.24954 15.9396 0.919541 17.2296 1.07954 18.1296C1.21954 18.9396 2.50954 19.2696 2.60954 19.2996C3.49954 19.5096 4.86954 19.3496 5.18954 18.4996C5.50954 17.6396 4.62954 16.3696 3.52954 16.1696Z" fill="#E62C2F" stroke="#E62C2F" stroke-width="0.2" stroke-linecap="round" stroke-linejoin="round"/>
<path d="M2.17969 6.54004V7.03004C2.72969 10.48 2.91969 13.76 2.57969 16.81C2.45969 18.11 2.74969 18.44 3.35969 18.03C3.80969 17.73 4.11969 17.25 4.27969 16.73C5.12969 14 5.59969 10.5 5.83969 6.54004H2.17969Z" fill="#F4DE9C" stroke="#5E5E5A" stroke-width="0.15" stroke-linecap="round" stroke-linejoin="round"/>
<path d="M5.83766 6.53993C5.73766 6.75993 5.59766 6.96993 5.42766 7.13993C4.71766 7.84993 4.00766 8.08993 3.27766 7.88993C2.79766 7.75993 2.41766 7.43993 2.17766 7.02993C2.01766 6.75993 1.91766 6.44993 1.89766 6.12993L1.59766 2.53993C1.64766 1.99993 1.77766 1.52993 1.99766 1.12993C2.23766 0.699929 2.69766 0.419928 3.19766 0.389928L5.66766 0.229928C6.29766 0.199928 6.49766 0.359928 6.46766 1.13993C6.46766 1.33993 6.44766 1.53993 6.45766 1.73993C6.49766 3.32993 6.37765 4.73993 6.01765 5.86993C5.99765 6.09993 5.93766 6.32993 5.83766 6.53993Z" fill="white" stroke="#5E5E5A" stroke-width="0.15" stroke-linecap="round" stroke-linejoin="round"/>
</svg>
