<svg width="7" height="23" viewBox="0 0 7 23" fill="none" xmlns="http://www.w3.org/2000/svg">
<path opacity="0.65" d="M4.20923 19.32C2.92923 19.09 1.59923 20.38 1.75923 21.28C1.89923 22.09 3.18923 22.42 3.28923 22.45C4.17923 22.66 5.54923 22.5 5.86923 21.65C6.18923 20.79 5.30923 19.52 4.20923 19.32Z" fill="#E62C2F" stroke="#E62C2F" stroke-width="0.2" stroke-linecap="round" stroke-linejoin="round"/>
<path d="M2.08984 8.0393C2.74984 12.2893 3.12984 16.4393 3.17984 20.4793C3.17984 20.7593 3.23984 21.0493 3.37984 21.2993C3.59984 21.6893 3.88984 21.7493 4.24984 21.4793C4.58984 21.2293 4.79984 20.8493 4.87984 20.4393C5.70984 16.5093 6.10984 12.3593 6.20984 8.0293H2.08984V8.0393Z" fill="#F4DE9C" stroke="#5E5E5A" stroke-width="0.15" stroke-linecap="round" stroke-linejoin="round"/>
<path d="M4.08859 9.79C3.43859 9.79 2.77859 9.19 2.14859 8C1.42859 7.1 1.05859 5.84 1.05859 4.26C1.05859 3.75 1.19859 3.24 1.45859 2.79C2.44859 1.1 3.38859 0.25 4.24859 0.25C5.10859 0.25 5.90859 1.09 6.65859 2.75C7.11859 4.84 6.94859 6.61 6.12859 7.99C6.07859 8.08 6.02859 8.16 5.96859 8.25C5.31859 9.27 4.68859 9.78 4.07859 9.78L4.08859 9.79Z" fill="white"/>
<path d="M4.25828 0.179688V0.329689C5.07828 0.329689 5.85828 1.15969 6.58828 2.75969C7.04828 4.84969 6.87828 6.59969 6.07828 7.95969C6.02828 8.04969 5.97828 8.12969 5.91828 8.21969C5.28828 9.20969 4.66828 9.71969 4.09828 9.71969C3.47828 9.71969 2.84828 9.12968 2.20828 7.94968C1.49828 7.06968 1.14828 5.82969 1.13828 4.26969C1.13828 3.76969 1.27828 3.27969 1.52828 2.83969C2.50828 1.17969 3.42828 0.329689 4.24828 0.329689V0.179688M4.24828 0.179688C3.33828 0.179688 2.38828 1.06969 1.39828 2.75969C1.12828 3.21969 0.988281 3.73969 0.988281 4.26969C0.988281 5.83969 1.33828 7.10969 2.08828 8.04969C2.74828 9.27969 3.41828 9.87968 4.09828 9.87968C4.73828 9.87968 5.38828 9.34969 6.04828 8.31969C6.10828 8.23969 6.15828 8.14968 6.20828 8.05968C7.04828 6.62968 7.20828 4.84969 6.73828 2.74969C5.95828 1.01969 5.12828 0.199688 4.25828 0.199688L4.24828 0.179688Z" fill="#5E5E5A"/>
</svg>
