<svg width="15" height="19" viewBox="0 0 15 19" fill="none" xmlns="http://www.w3.org/2000/svg">
<path opacity="0.65" d="M12.6311 13.7702C11.3511 13.5402 10.0211 14.8302 10.1811 15.7302C10.3211 16.5402 11.6111 16.8702 11.7111 16.9002C12.6011 17.1102 13.9711 16.9502 14.2911 16.1002C14.6111 15.2402 13.7311 13.9702 12.6311 13.7702Z" fill="#E62C2F" stroke="#E62C2F" stroke-width="0.2" stroke-linecap="round" stroke-linejoin="round"/>
<path opacity="0.65" d="M3.52173 15.3893C2.24173 15.1593 0.911729 16.4493 1.07173 17.3493C1.21173 18.1593 2.50173 18.4893 2.60173 18.5193C3.49173 18.7293 4.86173 18.5693 5.18173 17.7193C5.50173 16.8593 4.62173 15.5893 3.52173 15.3893Z" fill="#E62C2F" stroke="#E62C2F" stroke-width="0.2" stroke-linecap="round" stroke-linejoin="round"/>
<path d="M3.82338 6.99965C2.82338 10.1696 2.06338 13.1696 2.13338 15.6296C2.14338 16.1296 2.25338 16.6297 2.47338 17.0797C2.77338 17.6697 3.09338 17.7596 3.44338 17.2796C3.60338 17.0496 3.71338 16.7796 3.76338 16.4996L4.60338 12.5596C4.80338 11.6496 5.33338 10.8196 6.13338 10.3396C6.65338 10.0296 7.19338 9.90965 7.74338 9.99965C8.39338 10.1096 8.95338 10.5097 9.32338 11.0497C10.1034 12.1497 11.7834 15.3496 11.7834 15.3496C12.5634 16.4696 13.0234 16.4096 13.1234 15.0596C13.1734 13.3796 11.6134 9.69965 10.1434 6.88965L3.79338 6.99965H3.82338Z" fill="#F4DE9C" stroke="#5E5E5A" stroke-width="0.15" stroke-linecap="round" stroke-linejoin="round"/>
<path d="M7.06163 8.31977C6.18163 8.31977 5.25163 7.97977 4.31163 7.29977C4.16163 7.18977 4.02163 7.06977 3.88163 6.93977C3.56163 6.62977 3.32163 6.26977 3.16163 5.88977C2.76163 4.90977 2.61163 3.78977 2.73163 2.45977C2.78163 1.88977 2.99163 1.37977 3.34163 1.01977C3.70163 0.629768 4.13163 0.449768 4.63163 0.449768C5.04163 0.449768 5.51163 0.579769 6.02163 0.829769C6.23163 1.00977 6.48163 1.09977 6.77163 1.09977C7.17163 1.09977 7.63163 0.919768 8.15163 0.539768C8.62163 0.359768 9.09163 0.259766 9.52163 0.259766C10.1216 0.259766 10.6616 0.449767 11.1316 0.819767C11.9116 1.77977 11.9616 3.18977 11.2616 4.99977C10.9916 5.70977 10.6116 6.31977 10.1416 6.83977C9.88163 7.12977 9.59163 7.37977 9.27163 7.59977C8.56163 8.07977 7.83163 8.31977 7.08163 8.31977H7.06163Z" fill="white"/>
<path d="M9.50296 0.329689C10.083 0.329689 10.603 0.509686 11.043 0.849686C11.813 1.79969 11.863 3.18969 11.173 4.96969C10.903 5.66969 10.533 6.27969 10.073 6.77969C9.81296 7.06969 9.52296 7.31969 9.21296 7.52969C8.52296 7.99969 7.79296 8.23969 7.06296 8.23969C6.19296 8.23969 5.28296 7.89969 4.35296 7.23969C4.20296 7.12969 4.06296 7.01969 3.93296 6.88969C3.62296 6.58969 3.38296 6.23969 3.23296 5.85969C2.83296 4.88969 2.69296 3.77969 2.80296 2.46969C2.85296 1.91969 3.05296 1.41969 3.39296 1.06969C3.74296 0.699687 4.14296 0.519688 4.63296 0.519688C5.03296 0.519688 5.48296 0.639686 5.95296 0.869686C6.19296 1.06969 6.46296 1.16969 6.76296 1.16969C7.18296 1.16969 7.64296 0.979686 8.17296 0.599686C8.65296 0.419686 9.10296 0.329689 9.51296 0.329689M9.51296 0.179688C9.07296 0.179688 8.60296 0.279688 8.10296 0.469688C7.62296 0.809688 7.17296 1.01969 6.76296 1.01969C6.50296 1.01969 6.26296 0.939686 6.05296 0.759686C5.54296 0.509686 5.06296 0.369686 4.63296 0.369686C4.12296 0.369686 3.66296 0.559688 3.28296 0.969688C2.90296 1.36969 2.70296 1.90969 2.65296 2.45969C2.54296 3.71969 2.65296 4.87969 3.09296 5.91969C3.26296 6.32969 3.51296 6.68969 3.83296 6.99969C3.97296 7.12969 4.11296 7.25969 4.27296 7.36969C5.23296 8.04969 6.16296 8.39969 7.07296 8.39969C7.83296 8.39969 8.58296 8.15969 9.30296 7.65969C9.63296 7.43969 9.92296 7.17969 10.193 6.88969C10.683 6.34969 11.063 5.70969 11.323 5.02969C12.033 3.19969 11.993 1.76969 11.173 0.769688C10.683 0.379688 10.133 0.189686 9.52296 0.189686L9.51296 0.179688Z" fill="#5E5E5A"/>
</svg>
