<svg width="15" height="20" viewBox="0 0 15 20" fill="none" xmlns="http://www.w3.org/2000/svg">
<path opacity="0.65" d="M12.3694 15.3903C11.0894 15.1603 9.75938 16.4503 9.91938 17.3503C10.0594 18.1603 11.3494 18.4903 11.4494 18.5203C12.3394 18.7303 13.7094 18.5703 14.0294 17.7203C14.3494 16.8603 13.4694 15.5903 12.3694 15.3903Z" fill="#E62C2F" stroke="#E62C2F" stroke-width="0.2" stroke-linecap="round" stroke-linejoin="round"/>
<path opacity="0.65" d="M2.74829 16.0905C1.46829 15.8605 0.138291 17.1505 0.298291 18.0505C0.438291 18.8605 1.72829 19.1905 1.82829 19.2205C2.71829 19.4305 4.08829 19.2705 4.40829 18.4205C4.72829 17.5605 3.84829 16.2905 2.74829 16.0905Z" fill="#E62C2F" stroke="#E62C2F" stroke-width="0.2" stroke-linecap="round" stroke-linejoin="round"/>
<path d="M3.93797 7.59007C2.10797 10.2201 1.16797 13.7901 1.16797 17.5201C1.22797 18.6101 1.56797 18.8501 2.12797 18.3801C2.46797 18.1001 2.68797 17.6901 2.77797 17.2601C3.32797 14.8301 4.09797 12.8001 5.23797 11.4101C6.56797 10.0701 7.70797 10.1401 8.70797 11.1901C9.98797 12.3501 10.658 14.2101 11.008 16.4201C11.058 16.7501 11.168 17.0801 11.358 17.3601C11.738 17.9301 12.128 17.9701 12.528 17.4301C12.728 17.1601 12.838 16.8401 12.888 16.5101C13.298 13.4301 12.758 10.5001 11.308 7.71008C11.288 7.67008 11.268 7.63008 11.238 7.58008H3.93797V7.59007Z" fill="#F4DE9C" stroke="#5E5E5A" stroke-width="0.15" stroke-linecap="round" stroke-linejoin="round"/>
<path d="M7.44641 8.8098C6.25641 8.8098 5.05642 8.48981 3.88642 7.85981C3.41642 7.60981 3.06642 7.24981 2.87642 6.82981C2.71642 6.49981 2.61642 6.13981 2.57642 5.73981C2.40642 4.68981 2.41642 3.5898 2.61642 2.3898C2.67642 1.9898 2.85642 1.6298 3.13642 1.3498C3.63642 0.839804 4.08642 0.559805 4.52642 0.499805C4.80642 0.409805 5.07642 0.359806 5.34642 0.359806C5.76642 0.359806 6.19642 0.469806 6.62642 0.699806C6.63642 0.699806 6.72641 0.699806 6.73641 0.699806C6.95641 0.809806 7.20642 0.869804 7.45642 0.869804C7.70642 0.869804 7.95642 0.809804 8.20642 0.689804C9.02642 0.429804 9.75641 0.299805 10.4364 0.299805C11.1664 0.299805 11.8064 0.449804 12.4064 0.759804C12.7364 0.999804 12.9764 1.53981 13.1064 2.33981C13.2264 3.98981 12.7364 5.6098 11.6164 7.2798C11.5264 7.4198 11.4164 7.5498 11.2864 7.6698C11.1064 7.8398 10.9064 7.96981 10.6864 8.06981C9.60641 8.55981 8.52642 8.8098 7.47642 8.8098H7.44641Z" fill="white"/>
<path d="M10.4178 0.370232C11.1378 0.370232 11.7678 0.520234 12.3278 0.810234C12.6478 1.05023 12.8778 1.56023 12.9978 2.33023C13.1178 3.97023 12.6378 5.57024 11.5178 7.23024C11.4278 7.37024 11.3178 7.49023 11.1978 7.60023C11.0278 7.76023 10.8378 7.89023 10.6178 7.99023C9.54779 8.48023 8.47779 8.73024 7.43779 8.73024C6.25779 8.73024 5.06779 8.41023 3.91779 7.79023C3.46779 7.55023 3.12779 7.20023 2.93779 6.79023C2.78779 6.47023 2.68779 6.11023 2.64779 5.72023C2.47779 4.68023 2.48779 3.59023 2.67779 2.40023C2.73779 2.02023 2.90779 1.67023 3.17779 1.40023C3.66779 0.900234 4.10779 0.630232 4.54779 0.570232C4.80779 0.480232 5.06779 0.440231 5.33779 0.440231C5.74779 0.440231 6.16779 0.550233 6.58779 0.770233C6.60779 0.780233 6.63779 0.790234 6.65779 0.790234H6.69779C6.94779 0.900234 7.19779 0.960232 7.44779 0.960232C7.69779 0.960232 7.96779 0.900231 8.20779 0.780231C9.02779 0.520231 9.7578 0.390232 10.4178 0.390232M10.4178 0.240234C9.6978 0.240234 8.93779 0.390232 8.15779 0.640232C7.91779 0.750232 7.68779 0.810234 7.44779 0.810234C7.20779 0.810234 6.96779 0.750232 6.72779 0.640232H6.65779C6.22779 0.410232 5.78779 0.290234 5.33779 0.290234C5.05779 0.290234 4.78779 0.340233 4.50779 0.430233C4.01779 0.500233 3.54779 0.820232 3.07779 1.30023C2.78779 1.60023 2.59779 1.98023 2.53779 2.39023C2.35779 3.53023 2.31779 4.66023 2.50779 5.76023C2.54779 6.15023 2.64779 6.52023 2.80779 6.87023C3.02779 7.33023 3.40779 7.69024 3.84779 7.94024C5.02779 8.58024 6.21779 8.90023 7.44779 8.90023C8.50779 8.90023 9.59779 8.65023 10.6978 8.15023C10.9278 8.05023 11.1378 7.90024 11.3178 7.73024C11.4478 7.61024 11.5578 7.48023 11.6578 7.33023C12.7278 5.75023 13.2978 4.10023 13.1678 2.34023C13.0278 1.48023 12.7778 0.960232 12.4278 0.710232C11.7978 0.390232 11.1278 0.240234 10.4278 0.240234H10.4178Z" fill="#5E5E5A"/>
</svg>
