<svg width="18" height="28" viewBox="0 0 18 28" fill="none" xmlns="http://www.w3.org/2000/svg">
<path d="M12.9209 20.1374C12.6709 17.5874 12.1009 14.9874 11.8609 12.4074C11.6209 9.82745 10.6509 7.74745 10.0909 3.82745C9.53094 -0.0825541 8.17094 -0.262554 7.34094 1.75745C6.51094 3.77745 5.30094 9.22745 5.56094 12.2274C5.83094 15.2274 4.98094 18.7074 4.46094 20.1374H12.9109H12.9209Z" fill="#F4DE9C" stroke="#5E5E5A" stroke-width="0.15" stroke-linecap="round" stroke-linejoin="round"/>
<path d="M17.3199 15.1973H3.16983C1.87983 15.1973 0.839844 16.2373 0.839844 17.5273C0.839844 18.8173 1.87983 19.8573 3.16983 19.8573H17.3199" fill="#FFE4E3"/>
<path d="M17.3199 15.1973H3.16983C1.87983 15.1973 0.839844 16.2373 0.839844 17.5273C0.839844 18.8173 1.87983 19.8573 3.16983 19.8573H17.3199" stroke="#5E5E5A" stroke-width="0.15" stroke-miterlimit="10"/>
<path d="M4.98095 26.7875C5.21095 26.8375 6.23098 27.4175 7.69098 27.2775C8.60098 27.1875 9.73097 27.5575 10.841 27.1475C11.401 26.9375 12.051 26.9075 12.681 26.6975C13.371 26.4675 13.421 23.7475 13.191 21.2075C12.961 18.6675 12.451 19.3175 11.621 17.8875C8.00097 11.6575 7.58095 17.2475 5.79095 17.3775C4.65095 17.4575 2.73095 26.2675 4.98095 26.7775V26.7875Z" fill="white" stroke="#5E5E5A" stroke-width="0.15" stroke-linecap="round" stroke-linejoin="round"/>
</svg>
