<svg width="18" height="27" viewBox="0 0 18 27" fill="none" xmlns="http://www.w3.org/2000/svg">
<path d="M12.0398 19.2671C11.9698 15.6071 11.0898 11.3771 10.5498 9.51709C10.0098 7.65709 9.62984 4.37709 8.29984 1.59709C6.96984 -1.18291 6.30985 1.32709 6.43985 2.52709C6.56985 3.72709 5.82984 8.52709 5.36984 10.4771C4.90984 12.4271 5.25984 15.8871 4.58984 19.2671H12.0398Z" fill="#F4DE9C" stroke="#5E5E5A" stroke-width="0.15" stroke-linecap="round" stroke-linejoin="round"/>
<path d="M17.2806 14.1973H2.97064C1.68064 14.1973 0.640625 15.2373 0.640625 16.5273C0.640625 17.8173 1.68064 18.8573 2.97064 18.8573H17.2806" fill="#FFE4E3"/>
<path d="M17.2806 14.1973H2.97064C1.68064 14.1973 0.640625 15.2373 0.640625 16.5273C0.640625 17.8173 1.68064 18.8573 2.97064 18.8573H17.2806" stroke="#5E5E5A" stroke-width="0.15" stroke-miterlimit="10"/>
<path d="M5.45012 25.3572C4.43012 24.7672 4.61014 21.7272 4.56014 19.9672C4.47014 16.5472 8.34012 12.8172 11.0101 16.7172C11.8601 17.9672 12.2701 18.3272 12.2701 21.4972C12.2701 24.6672 11.5001 27.2572 9.54012 26.0372C7.59012 24.8172 7.63014 26.6172 5.44014 25.3572H5.45012Z" fill="white" stroke="#5E5E5A" stroke-width="0.15" stroke-linecap="round" stroke-linejoin="round"/>
</svg>
