<svg width="18" height="33" viewBox="0 0 18 33" fill="none" xmlns="http://www.w3.org/2000/svg">
<path d="M9.89093 9.66712C9.12093 7.31712 8.10093 5.37712 7.80093 2.95712C7.50093 0.537121 6.50095 0.577122 5.97095 1.90712C5.44095 3.23712 4.92093 9.11712 4.76093 12.9371C4.60093 16.7571 4.88094 20.3571 4.21094 22.6671H10.9009C9.99094 19.3871 10.6709 12.0171 9.89093 9.66712Z" fill="#F4DE9C" stroke="#5E5E5A" stroke-width="0.15" stroke-linecap="round" stroke-linejoin="round"/>
<path d="M17.0887 20.1973H2.54874C1.25874 20.1973 0.21875 21.2373 0.21875 22.5273C0.21875 23.8173 1.25874 24.8573 2.54874 24.8573H17.0887" fill="#FFE4E3"/>
<path d="M17.0887 20.1973H2.54874C1.25874 20.1973 0.21875 21.2373 0.21875 22.5273C0.21875 23.8173 1.25874 24.8573 2.54874 24.8573H17.0887" stroke="#5E5E5A" stroke-width="0.15" stroke-miterlimit="10"/>
<path d="M3.21945 28.8773C2.72945 26.8273 3.90945 24.0973 4.15945 22.8473C4.39945 21.5973 6.29945 19.9673 7.61945 20.0573C8.93945 20.1573 10.6494 21.2073 10.8694 22.0473C12.0094 26.4073 13.2495 28.6773 11.1895 31.0773C9.86945 32.6073 7.81944 32.7573 6.35944 31.5073C4.89944 30.2573 3.76944 31.1273 3.23944 28.8773H3.21945Z" fill="white" stroke="#5E5E5A" stroke-width="0.15" stroke-linecap="round" stroke-linejoin="round"/>
</svg>
