<svg width="17" height="29" viewBox="0 0 17 29" fill="none" xmlns="http://www.w3.org/2000/svg">
<path d="M9.02776 5.93707C8.82776 3.12707 8.63775 0.99707 9.11775 0.99707C10.7978 0.99707 11.7778 7.11707 11.8378 7.83707C11.9478 9.26707 11.9677 11.1071 12.0077 12.3671C12.1377 16.2371 12.3978 18.9471 12.3978 18.9471C11.0578 15.8671 10.5178 13.2871 10.2778 11.5071C10.1678 10.7171 9.68776 8.44707 9.02776 5.92707V5.93707Z" fill="#EDD091" stroke="#5E5E5A" stroke-width="0.15" stroke-linecap="round" stroke-linejoin="round"/>
<path d="M12.3897 18.957L8.67969 18.917L12.3897 18.957Z" fill="#EDD091" stroke="#5E5E5A" stroke-width="0.15" stroke-linecap="round" stroke-linejoin="round"/>
<path d="M12.3908 18.9571L3.80078 18.8471C3.80078 18.8471 5.7908 10.8871 5.9408 2.63707C5.9408 2.24707 6.2608 0.99707 6.8508 0.99707C7.5508 0.99707 7.90079 2.01707 8.03079 2.43707C9.16079 6.04707 10.1108 10.3671 10.2708 11.5171C10.5108 13.2971 11.0508 15.8771 12.3908 18.9571Z" fill="#F4DE9C" stroke="#5E5E5A" stroke-width="0.15" stroke-linecap="round" stroke-linejoin="round"/>
<path d="M16.898 16.1973H2.74799C1.45799 16.1973 0.417969 17.2373 0.417969 18.5273C0.417969 19.8173 1.45799 20.8573 2.74799 20.8573H16.898" fill="#FFE4E3"/>
<path d="M16.898 16.1973H2.74799C1.45799 16.1973 0.417969 17.2373 0.417969 18.5273C0.417969 19.8173 1.45799 20.8573 2.74799 20.8573H16.898" stroke="#5E5E5A" stroke-width="0.15" stroke-miterlimit="10"/>
<path d="M2.66797 24.2371C2.66797 22.2871 3.25799 19.2471 4.37799 17.9371C5.11799 17.0671 6.71799 16.2771 7.93799 16.4471C9.15799 16.6171 9.59798 18.0271 10.528 17.9871C11.448 17.9471 12.288 17.7471 12.478 19.4971C12.678 21.2571 13.068 21.3971 13.238 22.5271C13.408 23.6471 13.798 24.6071 11.698 25.4471C9.59797 26.2871 9.07799 28.8271 7.21799 28.2671C5.34799 27.7071 5.59798 26.6371 4.27798 26.1471C2.95798 25.6571 2.66797 24.9771 2.66797 24.2471V24.2371Z" fill="white" stroke="#5E5E5A" stroke-width="0.15" stroke-linecap="round" stroke-linejoin="round"/>
</svg>
