<svg width="18" height="27" viewBox="0 0 18 27" fill="none" xmlns="http://www.w3.org/2000/svg">
<path d="M12.6684 17.9578C12.6684 15.8278 12.0984 11.8978 11.6884 9.26779C11.2784 6.63779 9.72843 5.90779 10.0184 3.22779C10.3084 0.54779 9.08844 0.00778997 8.02844 1.98779C6.96844 3.96779 6.31843 6.60779 6.59843 9.53779C6.87843 12.4678 6.28844 14.1878 4.64844 17.9678H12.6584L12.6684 17.9578Z" fill="#F4DE9C" stroke="#5E5E5A" stroke-width="0.15" stroke-linecap="round" stroke-linejoin="round"/>
<path d="M17.7208 14.1973H3.38078C2.09078 14.1973 1.05078 15.2373 1.05078 16.5273C1.05078 17.8173 2.09078 18.8573 3.38078 18.8573H17.7208" fill="#FFE4E3"/>
<path d="M17.7208 14.1973H3.38078C2.09078 14.1973 1.05078 15.2373 1.05078 16.5273C1.05078 17.8173 2.09078 18.8573 3.38078 18.8573H17.7208" stroke="#5E5E5A" stroke-width="0.15" stroke-miterlimit="10"/>
<path d="M4.49932 24.3776C4.98932 25.2076 6.6093 25.0576 6.8593 25.7476C7.0993 26.4276 9.52931 26.7276 10.2093 25.5476C10.8893 24.3776 12.1593 23.9376 12.4593 22.8176C12.7493 21.6976 13.0893 17.2976 12.4593 16.8576C11.8293 16.4176 10.7593 16.9576 10.2193 16.3676C9.67931 15.7776 8.33932 14.1676 7.41932 15.1976C6.49932 16.2276 6.32931 16.9176 5.57931 17.0776C3.61931 17.4876 4.14932 23.7776 4.49932 24.3776Z" fill="white" stroke="#5E5E5A" stroke-width="0.15" stroke-linecap="round" stroke-linejoin="round"/>
</svg>
