<svg width="18" height="28" viewBox="0 0 18 28" fill="none" xmlns="http://www.w3.org/2000/svg">
<path d="M10.0588 2.21697C9.82876 -0.0630295 8.42875 0.526971 8.32875 2.43697C8.22875 4.34697 7.36875 8.12697 6.21875 11.877L10.2388 12.367C10.5988 10.987 10.2988 4.49697 10.0588 2.21697Z" fill="#F4DE9C" stroke="#5E5E5A" stroke-width="0.15" stroke-linecap="round" stroke-linejoin="round"/>
<path d="M3.19922 17.9975C4.26922 15.6475 4.76922 15.8375 4.27922 13.5875C3.78922 11.3375 2.83921 8.82745 4.32921 5.05745C5.81921 1.28745 8.09921 -0.462549 7.67921 2.20745C7.25921 4.87745 6.59921 7.71745 7.32921 9.74745C8.05921 11.7775 9.71922 12.2575 10.2492 9.92745C10.7792 7.59745 10.8092 5.89745 10.8392 4.38745C10.8692 2.88745 11.1092 -0.192549 12.2892 1.80745C13.4592 3.80745 14.2992 6.96745 13.8792 11.0475C13.8792 11.0475 12.9192 16.2175 13.7992 18.0075H3.19922V17.9975Z" fill="#F4DE9C" stroke="#5E5E5A" stroke-width="0.15" stroke-linecap="round" stroke-linejoin="round"/>
<path d="M17.5316 15.1973H3.18156C1.89156 15.1973 0.851562 16.2373 0.851562 17.5273C0.851562 18.8173 1.89156 19.8573 3.18156 19.8573H17.5316" fill="#FFE4E3"/>
<path d="M17.5316 15.1973H3.18156C1.89156 15.1973 0.851562 16.2373 0.851562 17.5273C0.851562 18.8173 1.89156 19.8573 3.18156 19.8573H17.5316" stroke="#5E5E5A" stroke-width="0.15" stroke-miterlimit="10"/>
<path d="M3.16103 17.977C2.39103 19.377 2.09104 24.697 2.73104 25.627C3.36104 26.557 5.07104 26.697 5.76104 26.017C6.45104 25.337 6.66103 26.107 7.27103 26.447C7.88103 26.777 8.42103 26.157 9.08103 26.807C10.331 28.027 12.741 27.197 13.431 24.317C14.111 21.437 14.261 18.847 13.921 17.967C13.581 17.087 11.921 18.507 10.751 17.427C9.58104 16.357 7.87104 16.397 6.45104 17.037C5.03104 17.677 4.30104 15.937 3.17104 17.987L3.16103 17.977Z" fill="white" stroke="#5E5E5A" stroke-width="0.15" stroke-linecap="round" stroke-linejoin="round"/>
</svg>
