<svg width="18" height="25" viewBox="0 0 18 25" fill="none" xmlns="http://www.w3.org/2000/svg">
<path d="M10.2309 2.18746C10.1409 0.187455 8.84094 0.607455 8.65094 2.27746C8.45094 3.93746 7.47094 7.18746 6.21094 10.3975L9.83093 11.0775C10.2309 9.89746 10.3109 4.19746 10.2309 2.18746Z" fill="#F4DE9C" stroke="#5E5E5A" stroke-width="0.15" stroke-linecap="round" stroke-linejoin="round"/>
<path d="M13.8514 8.99778C13.5114 6.99778 13.6314 4.12778 12.6514 1.45778C11.6714 -1.21222 10.9014 0.637776 11.1514 1.86778C11.4014 3.10778 10.9014 5.51777 10.2314 6.88777C9.56141 8.25777 8.77141 10.9978 7.35141 9.89778C5.93141 8.79778 6.72141 5.10778 7.52141 2.34778C8.32141 -0.412225 6.72141 0.277776 6.13141 1.52778C5.55141 2.77778 3.38142 5.99778 3.42142 9.48778C3.46142 12.9778 3.74141 14.2378 2.69141 16.1178L13.8414 16.2778C14.1914 13.4178 14.2014 11.0078 13.8514 9.00778V8.99778Z" fill="#F4DE9C" stroke="#5E5E5A" stroke-width="0.15" stroke-linecap="round" stroke-linejoin="round"/>
<path d="M17.3409 12.1973H3.04094C1.75094 12.1973 0.710938 13.2373 0.710938 14.5273C0.710938 15.8173 1.75094 16.8573 3.04094 16.8573H17.3409" fill="#FFE4E3"/>
<path d="M17.3409 12.1973H3.04094C1.75094 12.1973 0.710938 13.2373 0.710938 14.5273C0.710938 15.8173 1.75094 16.8573 3.04094 16.8573H17.3409" stroke="#5E5E5A" stroke-width="0.15" stroke-miterlimit="10"/>
<path d="M2.94139 15.657C1.53139 17.857 1.4314 21.467 3.1414 22.447C4.8514 23.427 5.83139 22.447 6.66139 22.687C7.49139 22.927 9.84139 25.467 11.6914 23.757C13.6814 21.917 14.5714 16.537 13.6914 15.317C11.8014 12.697 10.1314 15.717 7.5114 14.207C6.6514 13.707 4.3614 13.467 2.9514 15.667L2.94139 15.657Z" fill="white" stroke="#5E5E5A" stroke-width="0.15" stroke-linecap="round" stroke-linejoin="round"/>
</svg>
