<svg width="18" height="24" viewBox="0 0 18 24" fill="none" xmlns="http://www.w3.org/2000/svg">
<path d="M8.99892 2.12722C8.57892 0.167216 7.36891 0.797216 7.44891 2.46722C7.52891 4.13722 7.08891 7.50722 6.37891 10.8772L10.0589 10.9472C10.2589 9.71722 9.40891 4.07722 8.98891 2.11722L8.99892 2.12722Z" fill="#F4DE9C" stroke="#5E5E5A" stroke-width="0.15" stroke-linecap="round" stroke-linejoin="round"/>
<path d="M12.8698 16.3671C12.2398 12.7871 12.8098 7.85708 12.3798 6.01708C11.9498 4.17708 11.3698 1.04707 10.1998 0.687074C9.03984 0.327074 9.35983 3.38707 9.93983 5.92707C10.5298 8.46707 9.90984 10.3271 7.81984 10.6671C5.73984 11.0071 7.29984 5.69707 7.05984 2.55707C6.81984 -0.582926 5.05984 0.237074 5.22984 2.21707C5.40984 4.19707 3.41984 8.51707 3.51984 9.65707C3.61984 10.8071 4.21984 13.6171 3.33984 16.3571H12.8498L12.8698 16.3671Z" fill="#F4DE9C" stroke="#5E5E5A" stroke-width="0.15" stroke-linecap="round" stroke-linejoin="round"/>
<path d="M17.1609 11.1973H2.79094C1.50094 11.1973 0.460938 12.2373 0.460938 13.5273C0.460938 14.8173 1.50094 15.8573 2.79094 15.8573H17.1609" fill="#FFE4E3"/>
<path d="M17.1609 11.1973H2.79094C1.50094 11.1973 0.460938 12.2373 0.460938 13.5273C0.460938 14.8173 1.50094 15.8573 2.79094 15.8573H17.1609" stroke="#5E5E5A" stroke-width="0.15" stroke-miterlimit="10"/>
<path d="M3.35902 16.3572C2.58902 18.0772 3.03903 22.7272 4.75903 22.7272C6.47903 22.7272 6.90903 22.4572 7.54903 23.1072C8.18903 23.7572 9.15903 22.7872 9.69903 22.8972C10.239 23.0072 12.209 24.4472 12.749 21.5572C13.299 18.6572 13.349 14.3572 11.679 14.6872C7.55903 15.4872 8.56903 11.1472 5.33903 15.5472C4.74903 16.3572 3.99903 14.9272 3.34903 16.3772L3.35902 16.3572Z" fill="white" stroke="#5E5E5A" stroke-width="0.15" stroke-linecap="round" stroke-linejoin="round"/>
</svg>
