<svg width="18" height="28" viewBox="0 0 18 28" fill="none" xmlns="http://www.w3.org/2000/svg">
<path d="M4.21094 20.1374C4.46094 17.5874 5.03094 14.9874 5.27094 12.4074C5.51094 9.82745 6.48092 7.74745 7.04092 3.82745C7.60092 -0.0825541 8.96092 -0.262554 9.79092 1.75745C10.6209 3.77745 11.831 9.22745 11.571 12.2274C11.301 15.2274 12.1509 18.7074 12.6709 20.1374H4.22095H4.21094Z" fill="#F4DE9C" stroke="#5E5E5A" stroke-width="0.15" stroke-linecap="round" stroke-linejoin="round"/>
<path d="M17.6509 15.1973H3.29092C2.00092 15.1973 0.960938 16.2373 0.960938 17.5273C0.960938 18.8173 2.00092 19.8573 3.29092 19.8573H17.6509" fill="#FFE4E3"/>
<path d="M17.6509 15.1973H3.29092C2.00092 15.1973 0.960938 16.2373 0.960938 17.5273C0.960938 18.8173 2.00092 19.8573 3.29092 19.8573H17.6509" stroke="#5E5E5A" stroke-width="0.15" stroke-miterlimit="10"/>
<path d="M12.1498 26.7875C11.9198 26.8375 10.8998 27.4175 9.43977 27.2775C8.52977 27.1875 7.39974 27.5575 6.28974 27.1475C5.72974 26.9375 5.07975 26.9075 4.44975 26.6975C3.75975 26.4675 3.70977 23.7475 3.93977 21.2075C4.16977 18.6675 4.67974 19.3175 5.50974 17.8875C9.12974 11.6575 9.54976 17.2475 11.3398 17.3775C12.4798 17.4575 14.3998 26.2675 12.1498 26.7775V26.7875Z" fill="white" stroke="#5E5E5A" stroke-width="0.15" stroke-linecap="round" stroke-linejoin="round"/>
</svg>
