<svg width="17" height="27" viewBox="0 0 17 27" fill="none" xmlns="http://www.w3.org/2000/svg">
<path d="M4.08984 19.2671C4.15984 15.6071 5.03983 11.3771 5.57983 9.51709C6.11983 7.65709 6.49983 4.37709 7.82983 1.59709C9.15983 -1.18291 9.81985 1.32709 9.68985 2.52709C9.55985 3.72709 10.2998 8.52709 10.7598 10.4771C11.2198 12.4271 10.8698 15.8871 11.5398 19.2671H4.08984Z" fill="#F4DE9C" stroke="#5E5E5A" stroke-width="0.15" stroke-linecap="round" stroke-linejoin="round"/>
<path d="M16.8405 14.1973H2.56049C1.27049 14.1973 0.230469 15.2373 0.230469 16.5273C0.230469 17.8173 1.27049 18.8573 2.56049 18.8573H16.8405" fill="#FFE4E3"/>
<path d="M16.8405 14.1973H2.56049C1.27049 14.1973 0.230469 15.2373 0.230469 16.5273C0.230469 17.8173 1.27049 18.8573 2.56049 18.8573H16.8405" stroke="#5E5E5A" stroke-width="0.15" stroke-miterlimit="10"/>
<path d="M10.6911 25.3572C11.7111 24.7672 11.5311 21.7272 11.5811 19.9672C11.6711 16.5472 7.8011 12.8172 5.1311 16.7172C4.2811 17.9672 3.87109 18.3272 3.87109 21.4972C3.87109 24.6672 4.6411 27.2572 6.6011 26.0372C8.5511 24.8172 8.51108 26.6172 10.7011 25.3572H10.6911Z" fill="white" stroke="#5E5E5A" stroke-width="0.15" stroke-linecap="round" stroke-linejoin="round"/>
</svg>
