<svg width="18" height="33" viewBox="0 0 18 33" fill="none" xmlns="http://www.w3.org/2000/svg">
<path d="M6.24829 9.66712C7.01829 7.31712 8.03829 5.37712 8.33829 2.95712C8.63829 0.537121 9.63827 0.577122 10.1683 1.90712C10.6983 3.23712 11.2183 9.11712 11.3783 12.9371C11.5383 16.7571 11.2583 20.3571 11.9283 22.6671H5.23828C6.14828 19.3871 5.46829 12.0171 6.24829 9.66712Z" fill="#F4DE9C" stroke="#5E5E5A" stroke-width="0.15" stroke-linecap="round" stroke-linejoin="round"/>
<path d="M17.0297 20.1973H2.75967C1.46967 20.1973 0.429688 21.2373 0.429688 22.5273C0.429688 23.8173 1.46967 24.8573 2.75967 24.8573H17.0297" fill="#FFE4E3"/>
<path d="M17.0297 20.1973H2.75967C1.46967 20.1973 0.429688 21.2373 0.429688 22.5273C0.429688 23.8173 1.46967 24.8573 2.75967 24.8573H17.0297" stroke="#5E5E5A" stroke-width="0.15" stroke-miterlimit="10"/>
<path d="M12.9198 28.8773C13.4098 26.8273 12.2298 24.0973 11.9798 22.8473C11.7398 21.5973 9.83985 19.9673 8.51985 20.0573C7.19985 20.1573 5.48985 21.2073 5.26985 22.0473C4.12985 26.4073 2.88985 28.6773 4.94985 31.0773C6.26985 32.6073 8.31986 32.7573 9.77986 31.5073C11.2399 30.2573 12.3699 31.1273 12.8999 28.8773H12.9198Z" fill="white" stroke="#5E5E5A" stroke-width="0.15" stroke-linecap="round" stroke-linejoin="round"/>
</svg>
