<svg width="18" height="29" viewBox="0 0 18 29" fill="none" xmlns="http://www.w3.org/2000/svg">
<path d="M7.10828 5.93707C7.30828 3.12707 7.49828 0.99707 7.01828 0.99707C5.33828 0.99707 4.35828 7.11707 4.29828 7.83707C4.18828 9.26707 4.1683 11.1071 4.1283 12.3671C3.9983 16.2371 3.73828 18.9471 3.73828 18.9471C5.07828 15.8671 5.61828 13.2871 5.85828 11.5071C5.96828 10.7171 6.44828 8.44707 7.10828 5.92707V5.93707Z" fill="#EDD091" stroke="#5E5E5A" stroke-width="0.15" stroke-linecap="round" stroke-linejoin="round"/>
<path d="M3.73828 18.957L7.45828 18.917L3.73828 18.957Z" fill="#EDD091" stroke="#5E5E5A" stroke-width="0.15" stroke-linecap="round" stroke-linejoin="round"/>
<path d="M3.73828 18.9571L12.3283 18.8471C12.3283 18.8471 10.3383 10.8871 10.1883 2.63707C10.1883 2.24707 9.86829 0.99707 9.27829 0.99707C8.57829 0.99707 8.2283 2.01707 8.0983 2.43707C6.9683 6.04707 6.01828 10.3671 5.85828 11.5171C5.61828 13.2971 5.07828 15.8771 3.73828 18.9571Z" fill="#F4DE9C" stroke="#5E5E5A" stroke-width="0.15" stroke-linecap="round" stroke-linejoin="round"/>
<path d="M17.2092 16.1973H3.02924C1.73924 16.1973 0.699219 17.2373 0.699219 18.5273C0.699219 19.8173 1.73924 20.8573 3.02924 20.8573H17.2092" fill="#FFE4E3"/>
<path d="M17.2092 16.1973H3.02924C1.73924 16.1973 0.699219 17.2373 0.699219 18.5273C0.699219 19.8173 1.73924 20.8573 3.02924 20.8573H17.2092" stroke="#5E5E5A" stroke-width="0.15" stroke-miterlimit="10"/>
<path d="M13.4593 24.2371C13.4593 22.2871 12.8693 19.2471 11.7493 17.9371C11.0093 17.0671 9.40933 16.2771 8.18933 16.4471C6.96933 16.6171 6.52934 18.0271 5.59934 17.9871C4.67934 17.9471 3.83933 17.7471 3.64933 19.4971C3.44933 21.2571 3.05932 21.3971 2.88932 22.5271C2.71932 23.6471 2.32932 24.6071 4.42932 25.4471C6.52932 26.2871 7.04934 28.8271 8.90934 28.2671C10.7793 27.7071 10.5293 26.6371 11.8493 26.1471C13.1693 25.6571 13.4593 24.9771 13.4593 24.2471V24.2371Z" fill="white" stroke="#5E5E5A" stroke-width="0.15" stroke-linecap="round" stroke-linejoin="round"/>
</svg>
