<svg width="15" height="27" viewBox="0 0 15 27" fill="none" xmlns="http://www.w3.org/2000/svg">
<path d="M3.92969 17.7274C3.92969 15.6186 4.42718 11.7277 4.78503 9.1239C5.14289 6.52008 6.49577 5.79735 6.24265 3.14402C5.98954 0.490699 7.05437 -0.043926 7.97955 1.91637C8.90474 3.87666 9.47207 6.49038 9.22768 9.39121C8.98329 12.2921 9.49826 13.9949 10.9297 17.7373H3.9384L3.92969 17.7274Z" fill="#F4DE9C" stroke="#5E5E5A" stroke-width="0.15" stroke-linecap="round" stroke-linejoin="round"/>
<path d="M14.9297 13.7373H2.89832C1.8084 13.7373 0.929688 14.8532 0.929688 16.2373C0.929688 17.6214 1.8084 18.7373 2.89832 18.7373H14.9297" fill="#FFE4E3"/>
<path d="M14.9297 13.7373H2.89832C1.8084 13.7373 0.929688 14.8532 0.929688 16.2373C0.929688 17.6214 1.8084 18.7373 2.89832 18.7373H14.9297" stroke="#5E5E5A" stroke-width="0.15" stroke-miterlimit="10"/>
<path d="M11.6162 24.6809C11.1633 25.5482 9.66595 25.3915 9.43487 26.1124C9.21304 26.823 6.967 27.1365 6.33848 25.9035C5.70995 24.6809 4.5361 24.2212 4.25881 23.0509C3.99076 21.8806 3.6765 17.283 4.25881 16.8232C4.84112 16.3635 5.8301 16.9277 6.32922 16.3112C6.82834 15.6947 8.06692 14.0125 8.91727 15.0887C9.76762 16.165 9.92475 16.8859 10.618 17.0531C12.4296 17.4815 11.9397 24.054 11.6162 24.6809Z" fill="white" stroke="#5E5E5A" stroke-width="0.15" stroke-linecap="round" stroke-linejoin="round"/>
</svg>
