<svg width="18" height="28" viewBox="0 0 18 28" fill="none" xmlns="http://www.w3.org/2000/svg">
<path d="M7.08104 2.21697C7.31104 -0.0630295 8.71105 0.526971 8.81105 2.43697C8.91105 4.34697 9.77103 8.12697 10.921 11.877L6.90104 12.367C6.54104 10.987 6.84104 4.49697 7.08104 2.21697Z" fill="#F4DE9C" stroke="#5E5E5A" stroke-width="0.15" stroke-linecap="round" stroke-linejoin="round"/>
<path d="M13.9382 17.9975C12.8682 15.6475 12.3682 15.8375 12.8582 13.5875C13.3482 11.3375 14.2982 8.82745 12.8082 5.05745C11.3182 1.28745 9.03821 -0.462549 9.45821 2.20745C9.87821 4.87745 10.5382 7.71745 9.80821 9.74745C9.07821 11.7775 7.4182 12.2575 6.8882 9.92745C6.3582 7.59745 6.3282 5.89745 6.2982 4.38745C6.2682 2.88745 6.02822 -0.192549 4.84822 1.80745C3.67822 3.80745 2.8382 6.96745 3.2582 11.0475C3.2582 11.0475 4.21821 16.2175 3.33821 18.0075H13.9382V17.9975Z" fill="#F4DE9C" stroke="#5E5E5A" stroke-width="0.15" stroke-linecap="round" stroke-linejoin="round"/>
<path d="M17.5912 15.1973H3.36124C2.07124 15.1973 1.03125 16.2373 1.03125 17.5273C1.03125 18.8173 2.07124 19.8573 3.36124 19.8573H17.5912" fill="#FFE4E3"/>
<path d="M17.5912 15.1973H3.36124C2.07124 15.1973 1.03125 16.2373 1.03125 17.5273C1.03125 18.8173 2.07124 19.8573 3.36124 19.8573H17.5912" stroke="#5E5E5A" stroke-width="0.15" stroke-miterlimit="10"/>
<path d="M13.9783 17.977C14.7483 19.377 15.0483 24.697 14.4083 25.627C13.7783 26.557 12.0683 26.697 11.3783 26.017C10.6883 25.337 10.4783 26.107 9.86827 26.447C9.25827 26.777 8.71827 26.157 8.05827 26.807C6.80827 28.027 4.39826 27.197 3.70826 24.317C3.02826 21.437 2.87827 18.847 3.21827 17.967C3.55827 17.087 5.21826 18.507 6.38826 17.427C7.55826 16.357 9.26828 16.397 10.6883 17.037C12.1083 17.677 12.8383 15.937 13.9683 17.987L13.9783 17.977Z" fill="white" stroke="#5E5E5A" stroke-width="0.15" stroke-linecap="round" stroke-linejoin="round"/>
</svg>
