<svg width="17" height="25" viewBox="0 0 17 25" fill="none" xmlns="http://www.w3.org/2000/svg">
<path d="M5.89897 2.18746C5.98897 0.187455 7.28896 0.607455 7.47896 2.27746C7.67896 3.93746 8.65896 7.18746 9.91896 10.3975L6.29897 11.0775C5.89897 9.89746 5.81897 4.19746 5.89897 2.18746Z" fill="#F4DE9C" stroke="#5E5E5A" stroke-width="0.15" stroke-linecap="round" stroke-linejoin="round"/>
<path d="M2.2888 8.99778C2.6288 6.99778 2.50881 4.12778 3.48881 1.45778C4.46881 -1.21222 5.23881 0.637776 4.98881 1.86778C4.73881 3.10778 5.23882 5.51777 5.90882 6.88777C6.57882 8.25777 7.3688 10.9978 8.7888 9.89778C10.2088 8.79778 9.41882 5.10778 8.61882 2.34778C7.81882 -0.412225 9.4188 0.277776 10.0088 1.52778C10.5888 2.77778 12.7588 5.99778 12.7188 9.48778C12.6788 12.9778 12.3988 14.2378 13.4488 16.1178L2.29881 16.2778C1.94881 13.4178 1.9388 11.0078 2.2888 9.00778V8.99778Z" fill="#F4DE9C" stroke="#5E5E5A" stroke-width="0.15" stroke-linecap="round" stroke-linejoin="round"/>
<path d="M16.7209 12.1973H2.54092C1.25092 12.1973 0.210938 13.2373 0.210938 14.5273C0.210938 15.8173 1.25092 16.8573 2.54092 16.8573H16.7209" fill="#FFE4E3"/>
<path d="M16.7209 12.1973H2.54092C1.25092 12.1973 0.210938 13.2373 0.210938 14.5273C0.210938 15.8173 1.25092 16.8573 2.54092 16.8573H16.7209" stroke="#5E5E5A" stroke-width="0.15" stroke-miterlimit="10"/>
<path d="M13.1908 15.657C14.6008 17.857 14.7008 21.467 12.9908 22.447C11.2808 23.427 10.3008 22.447 9.47079 22.687C8.64079 22.927 6.29079 25.467 4.44079 23.757C2.45079 21.917 1.56079 16.537 2.44079 15.317C4.33079 12.697 6.00079 15.717 8.62079 14.207C9.48079 13.707 11.7708 13.467 13.1808 15.667L13.1908 15.657Z" fill="white" stroke="#5E5E5A" stroke-width="0.15" stroke-linecap="round" stroke-linejoin="round"/>
</svg>
