<svg width="18" height="24" viewBox="0 0 18 24" fill="none" xmlns="http://www.w3.org/2000/svg">
<path d="M11.8701 8.39719C11.5801 9.86719 10.5401 15.0072 9.76013 19.9872C9.39013 22.3672 8.61014 24.3572 7.89014 21.8472C7.17014 19.3372 6.72014 15.8772 6.49014 13.2272C6.26014 10.5772 5.52016 9.05719 5.41016 8.36719L11.8701 8.39719Z" fill="#F4DE9C" stroke="#5E5E5A" stroke-width="0.15" stroke-linecap="round" stroke-linejoin="round"/>
<path d="M17.6491 7.00684H3.36908C2.07908 7.00684 1.03906 8.04684 1.03906 9.33684C1.03906 10.6268 2.07908 11.6668 3.36908 11.6668H17.6491" fill="#FFE4E3"/>
<path d="M17.6491 7.00684H3.36908C2.07908 7.00684 1.03906 8.04684 1.03906 9.33684C1.03906 10.6268 2.07908 11.6668 3.36908 11.6668H17.6491" stroke="#5E5E5A" stroke-width="0.15" stroke-miterlimit="10"/>
<path d="M11.8201 8.6776C11.5701 10.0876 10.4701 9.65759 9.93007 10.3776C9.39007 11.0976 8.25008 11.2176 7.53008 10.3776C6.81008 9.53759 5.43008 9.31759 5.31008 7.95759C5.19008 6.59759 4.35008 1.52759 5.31008 0.857592C6.27008 0.197592 11.2401 -0.152408 11.8101 0.857592C12.3801 1.86759 12.1001 7.0376 11.8101 8.6776H11.8201Z" fill="white" stroke="#5E5E5A" stroke-width="0.15" stroke-linecap="round" stroke-linejoin="round"/>
</svg>
