<svg width="17" height="25" viewBox="0 0 17 25" fill="none" xmlns="http://www.w3.org/2000/svg">
<path d="M11.4709 7.87695C11.2809 9.66695 9.62092 14.517 9.04092 21.117C8.80092 23.807 7.75095 26.027 6.94095 23.207C6.13095 20.387 5.62094 16.507 5.37094 13.527C5.12094 10.547 4.22094 8.78695 3.96094 7.87695H11.4709Z" fill="#F4DE9C" stroke="#5E5E5A" stroke-width="0.15" stroke-linecap="round" stroke-linejoin="round"/>
<path d="M16.8405 7.00684H2.56049C1.27049 7.00684 0.230469 8.04684 0.230469 9.33684C0.230469 10.6268 1.27049 11.6668 2.56049 11.6668H16.8405" fill="#FFE4E3"/>
<path d="M16.8405 7.00684H2.56049C1.27049 7.00684 0.230469 8.04684 0.230469 9.33684C0.230469 10.6268 1.27049 11.6668 2.56049 11.6668H16.8405" stroke="#5E5E5A" stroke-width="0.15" stroke-miterlimit="10"/>
<path d="M10.6286 0.426978C9.62858 -0.00302154 8.41858 1.00698 7.96858 0.696979C7.51858 0.386979 5.26857 -0.193021 4.67857 0.716979C4.08857 1.62698 3.42856 6.02698 3.88856 7.63698C4.33856 9.24698 6.81858 12.107 7.74858 11.697C8.67858 11.287 11.0486 9.59698 11.2186 9.08698C11.7886 7.38698 12.0786 1.04698 10.6386 0.426978H10.6286Z" fill="white" stroke="#5E5E5A" stroke-width="0.15" stroke-linecap="round" stroke-linejoin="round"/>
</svg>
