<svg width="17" height="30" viewBox="0 0 17 30" fill="none" xmlns="http://www.w3.org/2000/svg">
<path d="M4.20923 7.53711L11.6792 7.59711C10.8792 9.59711 10.8092 14.4371 10.7692 18.4671C10.7392 22.3271 9.91922 24.7571 8.88922 27.8471C7.85922 30.9371 6.67922 30.1171 6.66922 27.5371C6.64922 24.9571 5.94924 22.8471 4.99924 19.3271C4.56924 17.7371 4.49922 16.4071 4.50922 13.3471C4.51922 10.2871 4.32922 8.28711 4.19922 7.53711H4.20923Z" fill="#F4DE9C" stroke="#5E5E5A" stroke-width="0.15" stroke-linecap="round" stroke-linejoin="round"/>
<path d="M16.9811 7.00684H2.70108C1.41108 7.00684 0.371094 8.04684 0.371094 9.33684C0.371094 10.6268 1.41108 11.6668 2.70108 11.6668H16.9811" fill="#FFE4E3"/>
<path d="M16.9811 7.00684H2.70108C1.41108 7.00684 0.371094 8.04684 0.371094 9.33684C0.371094 10.6268 1.41108 11.6668 2.70108 11.6668H16.9811" stroke="#5E5E5A" stroke-width="0.15" stroke-miterlimit="10"/>
<path d="M10.6296 10.2474C11.9496 8.37741 12.0896 4.92741 11.8796 3.99741C11.6696 3.06741 8.37955 0.0874124 7.58955 0.117412C6.79955 0.147412 4.42954 1.06741 4.04954 1.95741C3.65954 2.83741 3.86956 7.01741 4.56956 8.85741C5.26956 10.6974 7.83955 12.7074 8.45955 12.3874C9.07955 12.0574 9.93956 11.2474 10.6296 10.2574V10.2474Z" fill="white" stroke="#5E5E5A" stroke-width="0.15" stroke-linecap="round" stroke-linejoin="round"/>
</svg>
