<svg width="18" height="25" viewBox="0 0 18 25" fill="none" xmlns="http://www.w3.org/2000/svg">
<path d="M11.8494 7.66723C11.2994 10.3572 10.8594 12.3772 10.3194 14.4072C9.8594 16.1572 9.21939 17.8272 9.43939 20.9972C9.62939 23.7972 9.25937 26.1272 7.85938 23.4272C6.45938 20.7272 5.79938 16.4072 5.70938 13.2972C5.61938 10.1972 4.86937 8.59723 4.60938 7.65723H11.8594L11.8494 7.66723Z" fill="#F4DE9C" stroke="#5E5E5A" stroke-width="0.15" stroke-linecap="round" stroke-linejoin="round"/>
<path d="M17.1781 7.00684H2.90814C1.61814 7.00684 0.578125 8.04684 0.578125 9.33684C0.578125 10.6268 1.61814 11.6668 2.90814 11.6668H17.1781" fill="#FFE4E3"/>
<path d="M17.1781 7.00684H2.90814C1.61814 7.00684 0.578125 8.04684 0.578125 9.33684C0.578125 10.6268 1.61814 11.6668 2.90814 11.6668H17.1781" stroke="#5E5E5A" stroke-width="0.15" stroke-miterlimit="10"/>
<path d="M11.2208 8.74713C12.0408 7.92713 12.5408 5.43713 12.4708 4.04713C12.4008 2.66713 11.9008 2.57713 10.7708 1.64713C9.64079 0.71713 8.2308 -0.352869 7.2108 0.327131C4.6008 2.06713 2.9608 1.01713 4.1208 5.22713C4.7108 7.35713 4.5108 8.69713 5.3708 9.53713C6.2308 10.3771 7.32079 11.4471 8.39079 11.1271C9.46079 10.8071 10.6708 9.29713 11.2308 8.74713H11.2208Z" fill="white" stroke="#5E5E5A" stroke-width="0.15" stroke-linecap="round" stroke-linejoin="round"/>
</svg>
