<svg width="18" height="25" viewBox="0 0 18 25" fill="none" xmlns="http://www.w3.org/2000/svg">
<path d="M12.7015 8.87695C12.1515 11.557 11.7315 13.837 11.3615 15.907C11.0415 17.687 9.74156 20.237 10.2216 21.697C11.0816 24.367 10.7915 25.707 8.64154 23.557C6.57154 21.477 6.40155 17.817 6.31155 14.717C6.22155 11.617 5.34156 10.297 4.60156 8.87695H12.7015Z" fill="#F4DE9C" stroke="#5E5E5A" stroke-width="0.15" stroke-linecap="round" stroke-linejoin="round"/>
<path d="M17.3891 8.00684H3.11908C1.82908 8.00684 0.789062 9.04684 0.789062 10.3368C0.789062 11.6268 1.82908 12.6668 3.11908 12.6668H17.3891" fill="#FFE4E3"/>
<path d="M17.3891 8.00684H3.11908C1.82908 8.00684 0.789062 9.04684 0.789062 10.3368C0.789062 11.6268 1.82908 12.6668 3.11908 12.6668H17.3891" stroke="#5E5E5A" stroke-width="0.15" stroke-miterlimit="10"/>
<path d="M13.0789 7.55685C13.4989 5.76685 13.0389 3.77685 11.7189 2.94685C10.3989 2.11685 8.1789 0.56685 7.0989 0.98685C6.0189 1.40685 5.88887 1.90685 5.16887 2.21685C4.44887 2.52685 3.28888 3.99685 3.38888 5.97685C3.48888 7.95685 5.13888 9.35685 5.48888 10.1469C5.83888 10.9369 8.38889 13.3068 10.0589 11.6868C11.7289 10.0668 12.3389 10.7168 13.0889 7.55685H13.0789Z" fill="white" stroke="#5E5E5A" stroke-width="0.15" stroke-linecap="round" stroke-linejoin="round"/>
</svg>
