<svg width="18" height="25" viewBox="0 0 18 25" fill="none" xmlns="http://www.w3.org/2000/svg">
<path d="M3.0587 8.9375L14.5087 9.2375C13.9887 10.6475 13.9687 11.2675 13.8487 12.5475C13.7287 13.8275 13.6787 16.4775 13.8787 17.8275C14.0787 19.1675 14.5987 23.3175 13.9287 23.9075C13.2587 24.5075 12.3587 23.2975 11.7787 21.7875C11.1987 20.2775 10.4987 18.7175 10.2187 16.2975C9.9387 13.8775 9.31869 13.8375 8.82869 14.4375C8.33869 15.0375 7.87868 18.4875 7.66868 19.7875C7.45868 21.0875 8.73869 24.5575 7.45869 24.2775C6.17869 23.9975 4.96869 21.6175 4.35869 20.2775C3.74869 18.9375 2.85871 16.9575 3.09871 14.8375C3.32871 12.7175 3.46871 9.9875 3.06871 8.9475L3.0587 8.9375Z" fill="#F4DE9C" stroke="#5E5E5A" stroke-width="0.15" stroke-linecap="round" stroke-linejoin="round"/>
<path d="M17.5883 8.00684H3.3183C2.0283 8.00684 0.988281 9.04684 0.988281 10.3368C0.988281 11.6268 2.0283 12.6668 3.3183 12.6668H17.5883" fill="#FFE4E3"/>
<path d="M17.5883 8.00684H3.3183C2.0283 8.00684 0.988281 9.04684 0.988281 10.3368C0.988281 11.6268 2.0283 12.6668 3.3183 12.6668H17.5883" stroke="#5E5E5A" stroke-width="0.15" stroke-miterlimit="10"/>
<path d="M14.7411 8.83695C15.3911 6.97695 15.8411 3.84695 14.2111 2.73695C9.89106 -0.213047 9.06105 1.51696 7.52105 1.22696C6.37105 1.01696 4.04105 0.526952 2.61105 1.51695C1.18105 2.50695 1.60106 6.78695 2.40106 8.12695C3.20106 9.46695 4.24104 9.63695 5.54104 9.55695C6.84104 9.47695 8.43105 10.567 10.111 10.057C11.791 9.55695 14.221 10.297 14.731 8.83695H14.7411Z" fill="white" stroke="#5E5E5A" stroke-width="0.15" stroke-linecap="round" stroke-linejoin="round"/>
</svg>
