<svg width="17" height="24" viewBox="0 0 17 24" fill="none" xmlns="http://www.w3.org/2000/svg">
<path d="M9.18909 7.6975H13.3091C12.9591 8.4275 12.1791 10.9175 12.1891 11.9975C12.1891 13.0775 13.0491 14.7075 12.7891 16.3175C12.5291 17.9275 11.7091 22.4575 10.8691 23.1975C10.0391 23.9475 9.38907 21.4275 9.38907 18.8775C9.38907 16.3275 8.12906 13.4575 7.53906 13.4575C6.53906 13.4575 6.22908 16.9975 6.42908 17.6975C6.62908 18.3975 7.43909 23.9475 6.31909 23.5775C5.19909 23.2175 3.48907 20.4375 3.38907 18.4775C3.29907 16.5175 3.39907 13.9975 3.26907 13.0175C3.13907 12.0375 2.43906 9.0475 2.03906 7.6875H9.18909V7.6975Z" fill="#F4DE9C" stroke="#5E5E5A" stroke-width="0.15" stroke-linecap="round" stroke-linejoin="round"/>
<path d="M16.8188 8.00684H2.54874C1.25874 8.00684 0.21875 9.04684 0.21875 10.3368C0.21875 11.6268 1.25874 12.6668 2.54874 12.6668H16.8188" fill="#FFE4E3"/>
<path d="M16.8188 8.00684H2.54874C1.25874 8.00684 0.21875 9.04684 0.21875 10.3368C0.21875 11.6268 1.25874 12.6668 2.54874 12.6668H16.8188" stroke="#5E5E5A" stroke-width="0.15" stroke-miterlimit="10"/>
<path d="M12.9178 8.75771C13.7978 6.92771 14.2279 3.31772 11.9979 2.18772C9.76786 1.05772 8.09786 2.25772 7.02786 1.58772C5.95786 0.917715 2.73785 0.0877154 2.07785 2.76772C1.41785 5.44772 1.94784 7.66771 2.25784 8.43771C2.56784 9.19771 3.51785 8.94772 4.32785 8.77772C5.13785 8.61772 6.58786 10.1777 7.42786 10.1877C9.49786 10.2077 10.1778 8.34771 11.1678 8.43771C12.1578 8.52771 12.4779 9.68772 12.9279 8.76772L12.9178 8.75771Z" fill="white" stroke="#5E5E5A" stroke-width="0.15" stroke-linecap="round" stroke-linejoin="round"/>
</svg>
