<svg width="18" height="22" viewBox="0 0 18 22" fill="none" xmlns="http://www.w3.org/2000/svg">
<path d="M4.89062 6.89746H14.2306C13.5506 8.01746 14.4506 9.27746 14.6106 10.6675C14.7706 12.0575 15.4006 11.5575 15.2806 14.7075C15.1606 17.8475 14.6506 18.6575 14.2006 19.9075C13.7506 21.1675 12.6106 21.9575 12.3206 20.1575C12.0306 18.3575 12.8506 14.4275 12.1206 12.9775C11.3906 11.5275 10.7306 11.0475 10.3606 12.0575C9.99063 13.0675 9.30064 13.5875 9.47064 14.8975C9.64064 16.2075 10.7306 18.4775 10.9906 19.7375C11.2506 20.9975 10.9206 21.9275 9.08063 19.9475C7.24063 17.9675 5.85063 16.6675 6.08063 14.1375C6.31063 11.6075 6.03063 10.6075 5.77063 9.55746C5.51063 8.50746 5.17063 7.83746 4.89062 6.90746V6.89746Z" fill="#F4DE9C" stroke="#5E5E5A" stroke-width="0.15" stroke-linecap="round" stroke-linejoin="round"/>
<path d="M0.800781 8.00684H15.1008C16.3508 8.00684 17.3708 9.04684 17.3708 10.3368C17.3708 11.6268 16.3508 12.6668 15.1008 12.6668H0.800781" fill="#FFE4E3"/>
<path d="M0.800781 8.00684H15.1008C16.3508 8.00684 17.3708 9.04684 17.3708 10.3368C17.3708 11.6268 16.3508 12.6668 15.1008 12.6668H0.800781" stroke="#5E5E5A" stroke-width="0.15" stroke-miterlimit="10"/>
<path d="M13.5314 8.42746C14.6814 7.60746 15.4914 5.63746 15.1214 3.54746C14.7514 1.46746 13.7214 2.00745 13.1814 1.90745C12.6414 1.80745 11.7114 0.887452 10.3414 1.15745C8.96135 1.43745 8.44134 1.26746 7.14134 0.977456C5.84134 0.677456 4.56135 1.51745 4.52135 3.37745C4.47135 5.23745 4.52136 6.80745 5.35136 7.49745C6.18136 8.18745 8.69135 7.29745 9.52135 7.49745C10.3513 7.69745 11.7713 9.69746 13.5413 8.42746H13.5314Z" fill="white" stroke="#5E5E5A" stroke-width="0.15" stroke-linecap="round" stroke-linejoin="round"/>
</svg>
