<svg width="18" height="24" viewBox="0 0 18 24" fill="none" xmlns="http://www.w3.org/2000/svg">
<path d="M5.33984 8.39719C5.62984 9.86719 6.66983 15.0072 7.44983 19.9872C7.81983 22.3672 8.59985 24.3572 9.31985 21.8472C10.0399 19.3372 10.4898 15.8772 10.7198 13.2272C10.9498 10.5772 11.6898 9.05719 11.7998 8.36719L5.33984 8.39719Z" fill="#F4DE9C" stroke="#5E5E5A" stroke-width="0.15" stroke-linecap="round" stroke-linejoin="round"/>
<path d="M17.4498 7.00684H3.16983C1.87983 7.00684 0.839844 8.04684 0.839844 9.33684C0.839844 10.6268 1.87983 11.6668 3.16983 11.6668H17.4498" fill="#FFE4E3"/>
<path d="M17.4498 7.00684H3.16983C1.87983 7.00684 0.839844 8.04684 0.839844 9.33684C0.839844 10.6268 1.87983 11.6668 3.16983 11.6668H17.4498" stroke="#5E5E5A" stroke-width="0.15" stroke-miterlimit="10"/>
<path d="M5.39094 8.6776C5.64094 10.0876 6.74096 9.65759 7.28096 10.3776C7.82096 11.0976 8.96095 11.2176 9.68095 10.3776C10.401 9.53759 11.781 9.31759 11.901 7.95759C12.021 6.59759 12.861 1.52759 11.901 0.857592C10.941 0.197592 5.97095 -0.152408 5.40095 0.857592C4.83095 1.86759 5.11095 7.0376 5.40095 8.6776H5.39094Z" fill="white" stroke="#5E5E5A" stroke-width="0.15" stroke-linecap="round" stroke-linejoin="round"/>
</svg>
