<svg width="18" height="25" viewBox="0 0 18 25" fill="none" xmlns="http://www.w3.org/2000/svg">
<path d="M4.73047 7.87695C4.92047 9.66695 6.58049 14.517 7.16049 21.117C7.40049 23.807 8.45047 26.027 9.26047 23.207C10.0705 20.387 10.5805 16.507 10.8305 13.527C11.0805 10.547 11.9805 8.78695 12.2405 7.87695H4.73047Z" fill="#F4DE9C" stroke="#5E5E5A" stroke-width="0.15" stroke-linecap="round" stroke-linejoin="round"/>
<path d="M17.2606 7.00684H2.97064C1.68064 7.00684 0.640625 8.04684 0.640625 9.33684C0.640625 10.6268 1.68064 11.6668 2.97064 11.6668H17.2606" fill="#FFE4E3"/>
<path d="M17.2606 7.00684H2.97064C1.68064 7.00684 0.640625 8.04684 0.640625 9.33684C0.640625 10.6268 1.68064 11.6668 2.97064 11.6668H17.2606" stroke="#5E5E5A" stroke-width="0.15" stroke-miterlimit="10"/>
<path d="M5.56948 0.426978C6.56948 -0.00302154 7.77945 1.00698 8.22945 0.696979C8.67945 0.386979 10.9295 -0.193021 11.5195 0.716979C12.1095 1.62698 12.7695 6.02698 12.3095 7.63698C11.8595 9.24698 9.37946 12.107 8.44946 11.697C7.51946 11.287 5.14945 9.59698 4.97945 9.08698C4.40945 7.38698 4.11947 1.04698 5.55947 0.426978H5.56948Z" fill="white" stroke="#5E5E5A" stroke-width="0.15" stroke-linecap="round" stroke-linejoin="round"/>
</svg>
