<svg width="18" height="30" viewBox="0 0 18 30" fill="none" xmlns="http://www.w3.org/2000/svg">
<path d="M12.0013 7.53711L4.53125 7.59711C5.33125 9.59711 5.40125 14.4371 5.44125 18.4671C5.47125 22.3271 6.29126 24.7571 7.32126 27.8471C8.35126 30.9371 9.53123 30.1171 9.54123 27.5371C9.56123 24.9571 10.2612 22.8471 11.2112 19.3271C11.6412 17.7371 11.7112 16.4071 11.7012 13.3471C11.6912 10.2871 11.8812 8.28711 12.0112 7.53711H12.0013Z" fill="#F4DE9C" stroke="#5E5E5A" stroke-width="0.15" stroke-linecap="round" stroke-linejoin="round"/>
<path d="M17.0614 7.00684H2.77139C1.48139 7.00684 0.441406 8.04684 0.441406 9.33684C0.441406 10.6268 1.48139 11.6668 2.77139 11.6668H17.0614" fill="#FFE4E3"/>
<path d="M17.0614 7.00684H2.77139C1.48139 7.00684 0.441406 8.04684 0.441406 9.33684C0.441406 10.6268 1.48139 11.6668 2.77139 11.6668H17.0614" stroke="#5E5E5A" stroke-width="0.15" stroke-miterlimit="10"/>
<path d="M5.57929 10.2474C4.25929 8.37741 4.11929 4.92741 4.32929 3.99741C4.53929 3.06741 7.8293 0.0874124 8.6193 0.117412C9.4093 0.147412 11.7793 1.06741 12.1593 1.95741C12.5493 2.83741 12.3393 7.01741 11.6393 8.85741C10.9393 10.6974 8.36931 12.7074 7.74931 12.3874C7.12931 12.0574 6.26929 11.2474 5.57929 10.2574V10.2474Z" fill="white" stroke="#5E5E5A" stroke-width="0.15" stroke-linecap="round" stroke-linejoin="round"/>
</svg>
