<svg width="17" height="25" viewBox="0 0 17 25" fill="none" xmlns="http://www.w3.org/2000/svg">
<path d="M4.36154 7.66723C4.91154 10.3572 5.35154 12.3772 5.89154 14.4072C6.35154 16.1572 6.99155 17.8272 6.77155 20.9972C6.58155 23.7972 6.95156 26.1272 8.35156 23.4272C9.75156 20.7272 10.4116 16.4072 10.5016 13.2972C10.5916 10.1972 11.3416 8.59723 11.6016 7.65723H4.35156L4.36154 7.66723Z" fill="#F4DE9C" stroke="#5E5E5A" stroke-width="0.15" stroke-linecap="round" stroke-linejoin="round"/>
<path d="M16.87 7.00684H2.57999C1.28999 7.00684 0.25 8.04684 0.25 9.33684C0.25 10.6268 1.28999 11.6668 2.57999 11.6668H16.87" fill="#FFE4E3"/>
<path d="M16.87 7.00684H2.57999C1.28999 7.00684 0.25 8.04684 0.25 9.33684C0.25 10.6268 1.28999 11.6668 2.57999 11.6668H16.87" stroke="#5E5E5A" stroke-width="0.15" stroke-miterlimit="10"/>
<path d="M4.99088 8.74713C4.17088 7.92713 3.67088 5.43713 3.74088 4.04713C3.81088 2.66713 4.31089 2.57713 5.44089 1.64713C6.57089 0.71713 7.98089 -0.352869 9.00089 0.327131C11.6109 2.06713 13.2509 1.01713 12.0909 5.22713C11.5009 7.35713 11.7009 8.69713 10.8409 9.53713C9.98089 10.3771 8.8909 11.4471 7.8209 11.1271C6.7509 10.8071 5.54087 9.29713 4.98087 8.74713H4.99088Z" fill="white" stroke="#5E5E5A" stroke-width="0.15" stroke-linecap="round" stroke-linejoin="round"/>
</svg>
