<svg width="18" height="25" viewBox="0 0 18 25" fill="none" xmlns="http://www.w3.org/2000/svg">
<path d="M4.50781 8.87695C5.05781 11.557 5.47781 13.837 5.84781 15.907C6.16781 17.687 7.46781 20.237 6.98781 21.697C6.12781 24.367 6.41781 25.707 8.56781 23.557C10.6378 21.477 10.8078 17.817 10.8978 14.717C10.9878 11.617 11.8678 10.297 12.6078 8.87695H4.50781Z" fill="#F4DE9C" stroke="#5E5E5A" stroke-width="0.15" stroke-linecap="round" stroke-linejoin="round"/>
<path d="M17.6508 8.00684H3.38078C2.09078 8.00684 1.05078 9.04684 1.05078 10.3368C1.05078 11.6268 2.09078 12.6668 3.38078 12.6668H17.6508" fill="#FFE4E3"/>
<path d="M17.6508 8.00684H3.38078C2.09078 8.00684 1.05078 9.04684 1.05078 10.3368C1.05078 11.6268 2.09078 12.6668 3.38078 12.6668H17.6508" stroke="#5E5E5A" stroke-width="0.15" stroke-miterlimit="10"/>
<path d="M4.13108 7.55685C3.71108 5.76685 4.17108 3.77685 5.49108 2.94685C6.81108 2.11685 9.03108 0.56685 10.1111 0.98685C11.1911 1.40685 11.3211 1.90685 12.0411 2.21685C12.7611 2.52685 13.9211 3.99685 13.8211 5.97685C13.7211 7.95685 12.0711 9.35685 11.7211 10.1469C11.3711 10.9369 8.82109 13.3068 7.15109 11.6868C5.48109 10.0668 4.87109 10.7168 4.12109 7.55685H4.13108Z" fill="white" stroke="#5E5E5A" stroke-width="0.15" stroke-linecap="round" stroke-linejoin="round"/>
</svg>
