<svg width="18" height="25" viewBox="0 0 18 25" fill="none" xmlns="http://www.w3.org/2000/svg">
<path d="M14.1492 8.9375L2.69922 9.2375C3.21922 10.6475 3.23921 11.2675 3.35921 12.5475C3.47921 13.8275 3.52921 16.4775 3.32921 17.8275C3.12921 19.1675 2.60922 23.3175 3.27922 23.9075C3.94922 24.5075 4.84921 23.2975 5.42921 21.7875C6.00921 20.2775 6.70921 18.7175 6.98921 16.2975C7.26921 13.8775 7.88921 13.8375 8.37921 14.4375C8.86921 15.0375 9.32922 18.4875 9.53922 19.7875C9.74922 21.0875 8.46922 24.5575 9.74922 24.2775C11.0292 23.9975 12.2392 21.6175 12.8492 20.2775C13.4592 18.9375 14.3492 16.9575 14.1092 14.8375C13.8792 12.7175 13.7392 9.9875 14.1392 8.9475L14.1492 8.9375Z" fill="#F4DE9C" stroke="#5E5E5A" stroke-width="0.15" stroke-linecap="round" stroke-linejoin="round"/>
<path d="M17.4816 8.00684H3.18156C1.89156 8.00684 0.851562 9.04684 0.851562 10.3368C0.851562 11.6268 1.89156 12.6668 3.18156 12.6668H17.4816" fill="#FFE4E3"/>
<path d="M17.4816 8.00684H3.18156C1.89156 8.00684 0.851562 9.04684 0.851562 10.3368C0.851562 11.6268 1.89156 12.6668 3.18156 12.6668H17.4816" stroke="#5E5E5A" stroke-width="0.15" stroke-miterlimit="10"/>
<path d="M2.46916 8.83695C1.81916 6.97695 1.36918 3.84695 2.99918 2.73695C7.31918 -0.213047 8.14917 1.51696 9.68917 1.22696C10.8392 1.01696 13.1692 0.526952 14.5992 1.51695C16.0292 2.50695 15.6092 6.78695 14.8092 8.12695C14.0092 9.46695 12.9692 9.63695 11.6692 9.55695C10.3692 9.47695 8.77917 10.567 7.09917 10.057C5.41917 9.55695 2.98917 10.297 2.47917 8.83695H2.46916Z" fill="white" stroke="#5E5E5A" stroke-width="0.15" stroke-linecap="round" stroke-linejoin="round"/>
</svg>
