<svg width="18" height="24" viewBox="0 0 18 24" fill="none" xmlns="http://www.w3.org/2000/svg">
<path d="M7.01843 7.6975H2.89844C3.24844 8.4275 4.02843 10.9175 4.01843 11.9975C4.01843 13.0775 3.15844 14.7075 3.41844 16.3175C3.67844 17.9275 4.49844 22.4575 5.33844 23.1975C6.16844 23.9475 6.81844 21.4275 6.81844 18.8775C6.81844 16.3275 8.07844 13.4575 8.66844 13.4575C9.66844 13.4575 9.97844 16.9975 9.77844 17.6975C9.57844 18.3975 8.76844 23.9475 9.88844 23.5775C11.0084 23.2175 12.7184 20.4375 12.8184 18.4775C12.9084 16.5175 12.8084 13.9975 12.9384 13.0175C13.0684 12.0375 13.7684 9.0475 14.1684 7.6875H7.01843V7.6975Z" fill="#F4DE9C" stroke="#5E5E5A" stroke-width="0.15" stroke-linecap="round" stroke-linejoin="round"/>
<path d="M17.2784 8.00684H2.97844C1.68844 8.00684 0.648438 9.04684 0.648438 10.3368C0.648438 11.6268 1.68844 12.6668 2.97844 12.6668H17.2784" fill="#FFE4E3"/>
<path d="M17.2784 8.00684H2.97844C1.68844 8.00684 0.648438 9.04684 0.648438 10.3368C0.648438 11.6268 1.68844 12.6668 2.97844 12.6668H17.2784" stroke="#5E5E5A" stroke-width="0.15" stroke-miterlimit="10"/>
<path d="M3.28785 8.75771C2.40785 6.92771 1.97785 3.31772 4.20785 2.18772C6.43785 1.05772 8.10785 2.25772 9.17785 1.58772C10.2478 0.917715 13.4678 0.0877154 14.1278 2.76772C14.7878 5.44772 14.2579 7.66771 13.9479 8.43771C13.6379 9.19771 12.6878 8.94772 11.8778 8.77772C11.0678 8.61772 9.61785 10.1777 8.77785 10.1877C6.70785 10.2077 6.02785 8.34771 5.03785 8.43771C4.04785 8.52771 3.72785 9.68772 3.27785 8.76772L3.28785 8.75771Z" fill="white" stroke="#5E5E5A" stroke-width="0.15" stroke-linecap="round" stroke-linejoin="round"/>
</svg>
