<svg width="17" height="22" viewBox="0 0 17 22" fill="none" xmlns="http://www.w3.org/2000/svg">
<path d="M13.3192 6.89746H3.97916C4.65916 8.01746 3.75916 9.27746 3.59916 10.6675C3.43916 12.0575 2.80916 11.5575 2.92916 14.7075C3.04916 17.8475 3.55916 18.6575 4.00916 19.9075C4.45916 21.1675 5.59916 21.9575 5.88916 20.1575C6.17916 18.3575 5.35916 14.4275 6.08916 12.9775C6.81916 11.5275 7.47916 11.0475 7.84916 12.0575C8.21916 13.0675 8.90916 13.5875 8.73916 14.8975C8.56916 16.2075 7.47915 18.4775 7.21915 19.7375C6.95915 20.9975 7.28915 21.9275 9.12915 19.9475C10.9692 17.9675 12.3592 16.6675 12.1292 14.1375C11.8992 11.6075 12.1792 10.6075 12.4392 9.55746C12.6992 8.50746 13.0392 7.83746 13.3192 6.90746V6.89746Z" fill="#F4DE9C" stroke="#5E5E5A" stroke-width="0.15" stroke-linecap="round" stroke-linejoin="round"/>
<path d="M16.9216 8.00684H2.68156C1.39156 8.00684 0.351562 9.04684 0.351562 10.3368C0.351562 11.6268 1.39156 12.6668 2.68156 12.6668H16.9216" fill="#FFE4E3"/>
<path d="M16.9216 8.00684H2.68156C1.39156 8.00684 0.351562 9.04684 0.351562 10.3368C0.351562 11.6268 1.39156 12.6668 2.68156 12.6668H16.9216" stroke="#5E5E5A" stroke-width="0.15" stroke-miterlimit="10"/>
<path d="M4.68055 8.42746C3.53055 7.60746 2.72056 5.63746 3.09056 3.54746C3.46056 1.46746 4.49056 2.00745 5.03056 1.90745C5.57056 1.80745 6.50055 0.887452 7.87055 1.15745C9.25055 1.43745 9.77055 1.26746 11.0706 0.977456C12.3706 0.677456 13.6505 1.51745 13.6905 3.37745C13.7405 5.23745 13.6905 6.80745 12.8605 7.49745C12.0305 8.18745 9.52055 7.29745 8.69055 7.49745C7.86055 7.69745 6.44056 9.69746 4.67056 8.42746H4.68055Z" fill="white" stroke="#5E5E5A" stroke-width="0.15" stroke-linecap="round" stroke-linejoin="round"/>
</svg>
