<svg width="18" height="20" viewBox="0 0 18 20" fill="none" xmlns="http://www.w3.org/2000/svg">
<path d="M5.44141 13.9777C6.38141 10.6177 7.1214 6.7777 7.1014 1.6677C7.1014 1.1977 7.2614 0.727694 7.6014 0.387694C8.0114 -0.0123056 8.3514 0.177694 8.6014 1.09769C9.2214 6.35769 9.8514 9.59769 10.4914 13.5777V13.9777H5.44141Z" fill="#F4DE9C" stroke="#5E5E5A" stroke-width="0.15" stroke-linecap="round" stroke-linejoin="round"/>
<path d="M17.3708 14.9372H2.94078C1.76078 14.9372 0.800781 13.9772 0.800781 12.7972C0.800781 11.6172 1.76078 10.6572 2.94078 10.6572H17.3708" fill="#FFE4E3"/>
<path d="M17.3708 14.9372H2.94078C1.76078 14.9372 0.800781 13.9772 0.800781 12.7972C0.800781 11.6172 1.76078 10.6572 2.94078 10.6572H17.3708" stroke="#5E5E5A" stroke-width="0.15" stroke-miterlimit="10"/>
<path d="M10.49 13.5769C10.66 13.7969 10.8 14.0369 10.9 14.2969C11.88 16.6569 12.42 18.7369 10.5 19.3069C8.66 19.3669 6.82001 19.4269 5.91001 19.0869C4.73001 18.2169 4.54001 16.8369 4.94001 15.1669C5.04001 14.7469 5.21001 14.3369 5.44001 13.9769C5.90001 13.2469 6.61 12.6969 7.47 12.4969C7.85 12.4069 8.23 12.3869 8.6 12.4369C9.36 12.5469 10.03 12.9769 10.49 13.5769Z" fill="white" stroke="#5E5E5A" stroke-width="0.15" stroke-linecap="round" stroke-linejoin="round"/>
</svg>
