<svg width="18" height="19" viewBox="0 0 18 19" fill="none" xmlns="http://www.w3.org/2000/svg">
<path d="M6.29125 12.9475C7.17125 9.47747 7.35125 6.29747 7.34125 2.35747C7.34125 1.82747 7.50125 1.29747 7.83125 0.877466C8.26125 0.337466 8.60125 0.427466 8.86125 0.977466C9.03125 1.33747 9.03125 1.73747 9.06125 2.13747C9.48125 7.12747 9.65125 9.14747 9.77125 12.9475H6.28125H6.29125Z" fill="#F4DE9C" stroke="#5E5E5A" stroke-width="0.15" stroke-linecap="round" stroke-linejoin="round"/>
<path d="M17.1716 13.9372H2.74157C1.56157 13.9372 0.601562 12.9772 0.601562 11.7972C0.601562 10.6172 1.56157 9.65723 2.74157 9.65723H17.1716" fill="#FFE4E3"/>
<path d="M17.1716 13.9372H2.74157C1.56157 13.9372 0.601562 12.9772 0.601562 11.7972C0.601562 10.6172 1.56157 9.65723 2.74157 9.65723H17.1716" stroke="#5E5E5A" stroke-width="0.15" stroke-miterlimit="10"/>
<path d="M7.88845 18.2774C7.36845 18.2774 6.93845 18.2474 6.59845 18.1774C6.08845 18.0674 5.66845 17.6774 5.54845 17.1874C5.14845 15.5974 5.40845 14.1774 6.34845 12.8574C6.92845 12.3674 7.52845 12.1074 8.09845 12.1074C8.40845 12.1074 8.71845 12.1774 9.02845 12.3274C9.25845 12.4374 9.46846 12.5874 9.62846 12.7874C9.81846 12.9974 9.95846 13.2574 10.0485 13.5374C10.3885 14.5974 10.6085 15.7174 10.7085 16.8574C10.7785 17.2574 10.8185 17.6974 10.6085 17.9574C10.4685 18.1274 10.2285 18.2074 9.87846 18.2074L9.51845 18.2274C8.95845 18.2574 8.39845 18.2974 7.87845 18.2974L7.88845 18.2774Z" fill="white"/>
<path d="M8.09951 12.1676C8.39951 12.1676 8.69952 12.2376 8.98952 12.3776C9.20952 12.4876 9.40951 12.6276 9.56951 12.8176C9.74951 13.0276 9.88952 13.2676 9.97952 13.5376C10.3195 14.5976 10.5395 15.7076 10.6395 16.8576C10.7095 17.2376 10.7495 17.6576 10.5495 17.8876C10.4295 18.0376 10.1995 18.1076 9.86951 18.1076L9.51951 18.1276C8.96951 18.1576 8.39951 18.1976 7.87951 18.1976C7.35951 18.1976 6.93951 18.1676 6.59951 18.0976C6.10951 17.9976 5.71951 17.6276 5.60951 17.1576C5.20951 15.5876 5.46951 14.1976 6.37951 12.9176C6.95951 12.4176 7.53951 12.1676 8.09951 12.1676ZM8.09951 12.0176C7.49951 12.0176 6.88951 12.2776 6.27951 12.7976C5.28951 14.1876 5.07952 15.6576 5.46951 17.1876C5.59951 17.7176 6.03952 18.1276 6.57952 18.2376C6.96952 18.3176 7.40951 18.3476 7.88951 18.3476C8.51951 18.3476 9.20951 18.2976 9.88951 18.2576C10.9295 18.2576 10.9195 17.5376 10.7995 16.8276C10.6995 15.6876 10.4795 14.5776 10.1295 13.4976C10.0395 13.2076 9.88951 12.9476 9.68951 12.7176C9.51951 12.5176 9.29952 12.3576 9.05952 12.2376C8.73952 12.0876 8.41951 12.0176 8.09951 12.0176Z" fill="#5E5E5A"/>
</svg>
