<svg width="17" height="22" viewBox="0 0 17 22" fill="none" xmlns="http://www.w3.org/2000/svg">
<path d="M5.71875 14.5871C6.51875 11.2171 6.88875 7.26706 7.07875 1.91706C7.09875 1.35706 7.38875 0.827057 7.89875 0.587057C8.27875 0.407057 8.58875 0.467057 8.82875 0.777057C8.99875 0.997057 9.06875 1.28706 9.05875 1.57706C8.81875 6.38706 9.11875 10.4671 9.98875 14.5971H5.71875V14.5871Z" fill="#F4DE9C" stroke="#5E5E5A" stroke-width="0.15" stroke-linecap="round" stroke-linejoin="round"/>
<path d="M16.9684 16.9372H2.53844C1.35844 16.9372 0.398438 15.9772 0.398438 14.7972C0.398438 13.6172 1.35844 12.6572 2.53844 12.6572H16.9684" fill="#FFE4E3"/>
<path d="M16.9684 16.9372H2.53844C1.35844 16.9372 0.398438 15.9772 0.398438 14.7972C0.398438 13.6172 1.35844 12.6572 2.53844 12.6572H16.9684" stroke="#5E5E5A" stroke-width="0.15" stroke-miterlimit="10"/>
<path d="M7.37752 21.2774C7.18752 21.2774 7.01752 21.2474 6.85752 21.1974C5.11752 20.6074 4.56753 18.8174 5.23753 15.8974C5.33753 15.4374 5.51752 15.0074 5.77752 14.6274C5.99752 14.2974 6.26753 14.0074 6.57753 13.7974C7.02753 13.4774 7.47752 13.3174 7.92752 13.3174C8.55752 13.3174 9.20752 13.6474 9.83752 14.3074C10.6575 15.6474 10.9375 16.8474 10.6875 17.9674C10.3475 19.0974 9.71753 20.0474 8.75753 20.8874C8.45753 21.1474 8.06752 21.2874 7.65752 21.2874H7.38752L7.37752 21.2774Z" fill="white"/>
<path d="M7.92851 13.3871C8.53851 13.3871 9.16851 13.7071 9.76851 14.3271C10.5885 15.6571 10.8685 16.8371 10.6185 17.9271C10.2885 19.0471 9.65851 19.9871 8.71851 20.8171C8.42851 21.0671 8.05851 21.1971 7.65851 21.1971H7.38851C7.20851 21.1971 7.03851 21.1671 6.89851 21.1271C5.17851 20.5371 4.65851 18.8371 5.32851 15.9171C5.42851 15.4571 5.60851 15.0471 5.85851 14.6771C6.07851 14.3471 6.33851 14.0771 6.63851 13.8671C7.07851 13.5571 7.51851 13.3971 7.93851 13.3971M7.93851 13.2471C7.46851 13.2471 7.00851 13.4171 6.54851 13.7471C6.21851 13.9771 5.94851 14.2671 5.72851 14.5971C5.46851 14.9871 5.27851 15.4271 5.17851 15.8871C4.51851 18.8171 5.02851 20.6571 6.84851 21.2771C7.01851 21.3371 7.20851 21.3571 7.38851 21.3571H7.65851C8.07851 21.3571 8.49851 21.2171 8.80851 20.9371C9.70851 20.1471 10.3985 19.1871 10.7585 17.9771C11.0385 16.7371 10.6585 15.4971 9.88851 14.2571C9.22851 13.5771 8.56851 13.2471 7.92851 13.2471H7.93851Z" fill="#5E5E5A"/>
</svg>
