<svg width="17" height="20" viewBox="0 0 17 20" fill="none" xmlns="http://www.w3.org/2000/svg">
<path d="M5.64109 8.64728C6.21109 6.75728 6.31109 4.34729 6.17109 1.68729C6.16109 1.40729 6.21109 1.11728 6.38109 0.887285C6.59109 0.577285 6.82109 0.577285 7.05109 0.907285C7.20109 1.12729 7.28109 1.39729 7.30109 1.66729C7.52109 4.15729 8.14109 6.62729 9.19109 9.06729L9.17109 11.0273L5.62109 10.9973L5.64109 8.65729V8.64728Z" fill="#F4DE9C" stroke="#5E5E5A" stroke-width="0.15" stroke-linecap="round" stroke-linejoin="round"/>
<path d="M4.84156 14.0071C3.24156 10.5871 2.78156 6.67706 2.60156 2.24706C2.60156 2.06706 2.60156 1.88705 2.64156 1.71705C2.79156 0.957055 3.50156 0.777055 3.84156 1.60706C3.88156 1.70706 3.91156 1.82706 3.93156 1.93706C4.28156 4.47706 4.81156 6.79706 5.67156 8.66706C5.73156 8.79706 5.77156 8.93706 5.86156 9.05706C6.28156 9.62706 6.93156 9.80706 7.59156 9.79706C8.22156 9.78706 8.80156 9.49706 9.23156 9.05706C9.46156 8.81706 9.65156 8.53705 9.78156 8.21705C10.4916 6.51705 10.6316 4.54706 10.9416 2.47706C11.0216 1.95706 11.1516 1.42706 11.5016 1.03706C12.1516 0.317056 12.6816 0.677055 12.7416 1.95705C12.9616 6.65705 11.7116 11.1971 10.1116 14.0271H4.85156L4.84156 14.0071Z" fill="#F4DE9C" stroke="#5E5E5A" stroke-width="0.15" stroke-linecap="round" stroke-linejoin="round"/>
<path d="M16.7809 14.9372H2.35094C1.17094 14.9372 0.210938 13.9772 0.210938 12.7972C0.210938 11.6172 1.17094 10.6572 2.35094 10.6572H16.7809" fill="#FFE4E3"/>
<path d="M16.7809 14.9372H2.35094C1.17094 14.9372 0.210938 13.9772 0.210938 12.7972C0.210938 11.6172 1.17094 10.6572 2.35094 10.6572H16.7809" stroke="#5E5E5A" stroke-width="0.15" stroke-miterlimit="10"/>
<path d="M7.38781 19.2672C6.60781 19.2672 5.81781 19.1672 5.03781 18.9772C4.39781 18.9072 4.07781 18.4572 4.05781 17.6172C3.87781 16.5872 4.02781 15.5772 4.51781 14.5872C4.60781 14.4172 4.71781 14.2472 4.85781 14.0972C5.91781 12.9572 6.89781 12.4072 7.81781 12.4072C8.58781 12.4072 9.34781 12.7972 10.0678 13.5672C10.2778 13.7872 10.4778 14.0372 10.6878 14.3272C11.3978 15.2672 11.7378 16.3872 11.7178 17.7472C11.6778 18.5372 11.3778 18.9572 10.8078 19.0472C10.7378 19.0572 10.6778 19.0672 10.6078 19.0672C10.2978 19.0672 9.97781 18.9572 9.71781 18.7572C9.56781 18.6472 9.41781 18.5872 9.24781 18.5872C9.04781 18.5872 8.82781 18.6772 8.58781 18.8472C8.21781 19.1172 7.80781 19.2672 7.41781 19.2672H7.39781H7.38781Z" fill="white"/>
<path d="M7.79832 12.4874C8.54832 12.4874 9.28832 12.8674 9.99832 13.6274C10.2083 13.8574 10.4183 14.1074 10.6083 14.3774C11.3083 15.2974 11.6383 16.4074 11.6183 17.7474C11.5683 18.7474 11.1083 18.9274 10.7683 18.9774C10.7083 18.9774 10.6483 18.9874 10.5783 18.9874C10.2883 18.9874 9.98832 18.8874 9.73832 18.6974C9.57832 18.5774 9.40832 18.5174 9.22832 18.5174C9.00832 18.5174 8.77832 18.6074 8.52832 18.7974C8.16832 19.0574 7.77832 19.1974 7.37832 19.1974C6.60832 19.1974 5.81832 19.0974 5.01832 18.9074C4.63832 18.8674 4.13832 18.6874 4.10832 17.5974C3.92832 16.5974 4.07832 15.5974 4.55832 14.6274C4.64832 14.4574 4.75832 14.2974 4.87832 14.1574L4.92832 14.0974C5.92832 13.0274 6.88832 12.4774 7.77832 12.4774M7.77832 12.3274C6.80832 12.3274 5.81832 12.9074 4.81832 13.9974C4.79832 14.0174 4.78832 14.0374 4.76832 14.0474C4.62832 14.1974 4.50832 14.3674 4.41832 14.5474C3.91832 15.5674 3.76832 16.5874 3.95832 17.6174C3.97832 18.5474 4.36832 18.9774 4.99832 19.0474C5.76832 19.2374 6.55832 19.3374 7.36832 19.3374H7.38832C7.82832 19.3374 8.24832 19.1674 8.59832 18.9074C8.80832 18.7574 9.00832 18.6574 9.21832 18.6574C9.35832 18.6574 9.49832 18.7074 9.63832 18.8074C9.90832 19.0174 10.2383 19.1274 10.5683 19.1274C10.6383 19.1274 10.7083 19.1274 10.7783 19.1074C11.3483 19.0174 11.7083 18.6074 11.7583 17.7374C11.7783 16.2274 11.3783 15.1374 10.7183 14.2674C10.5083 13.9774 10.3083 13.7274 10.0983 13.5074C9.34832 12.7074 8.57832 12.3174 7.78832 12.3174L7.77832 12.3274Z" fill="#5E5E5A"/>
</svg>
