<svg width="18" height="20" viewBox="0 0 18 20" fill="none" xmlns="http://www.w3.org/2000/svg">
<path d="M6.91016 8.30774C7.55016 6.76774 7.62016 4.32774 7.49016 1.57774C7.47016 1.21774 7.56016 0.837739 7.79016 0.557739C8.12016 0.147739 8.47016 0.257739 8.84016 0.717739C8.97016 0.877739 9.03016 1.07774 9.04016 1.27774C9.14016 3.51774 9.92016 6.04774 10.9602 8.69774V10.6677H6.91016V8.30774Z" fill="#F4DE9C" stroke="#5E5E5A" stroke-width="0.15" stroke-linecap="round" stroke-linejoin="round"/>
<path d="M6.31984 13.5172C4.45984 10.3672 2.97984 6.38722 1.84984 2.27722C1.72984 1.81722 1.80984 1.30721 2.12984 0.957215C2.44984 0.597215 2.78984 0.647215 3.14984 1.25722C4.03984 4.03722 5.23984 6.45721 6.91984 8.29721C8.36984 9.56721 9.76984 9.73722 11.0998 8.77722C11.1398 8.74722 11.1698 8.71722 11.2098 8.68722C12.4598 7.02722 12.6098 4.53722 12.3998 1.76722C12.3698 1.33722 12.4598 0.897214 12.7298 0.557214C13.0198 0.187214 13.3198 0.207215 13.6298 0.617215C13.7998 0.857215 13.9098 1.13721 13.9598 1.42721C14.7898 5.95721 14.7098 10.0572 13.3098 13.4972H6.31984V13.5172Z" fill="#F4DE9C" stroke="#5E5E5A" stroke-width="0.15" stroke-linecap="round" stroke-linejoin="round"/>
<path d="M17.58 14.9372H3.14C1.96 14.9372 1 13.9772 1 12.7972C1 11.6172 1.96 10.6572 3.14 10.6572H17.57" fill="#FFE4E3"/>
<path d="M17.58 14.9372H3.14C1.96 14.9372 1 13.9772 1 12.7972C1 11.6172 1.96 10.6572 3.14 10.6572H17.57" stroke="#5E5E5A" stroke-width="0.15" stroke-miterlimit="10"/>
<path d="M7.33925 19.2777C6.88925 19.2777 6.48925 19.1777 6.11925 18.9777C5.24925 18.5077 4.72925 17.5277 4.79925 16.4577C4.81925 16.0677 4.88925 15.6677 4.97925 15.2677C5.16925 14.4777 5.62925 13.7877 6.26925 13.3277C7.58925 12.3677 8.81925 11.8877 9.93925 11.8877C11.1392 11.8877 12.2592 12.4477 13.2492 13.5577C13.3792 13.7077 13.5092 13.8577 13.6292 14.0177C14.6592 15.5077 15.4192 17.0677 14.0392 18.2877C13.2392 18.9077 12.0592 19.1977 10.2092 19.2177C9.97925 19.2177 9.76925 19.0877 9.62925 18.8777C9.50925 18.6977 9.34925 18.5977 9.13925 18.5977C8.86925 18.5977 8.53925 18.7377 8.08925 19.0477C7.90925 19.1677 7.69925 19.2477 7.48925 19.2477H7.33925V19.2777Z" fill="white"/>
<path d="M9.93914 11.9676C11.1191 11.9676 12.2191 12.5276 13.1991 13.6176C13.3291 13.7576 13.4491 13.9176 13.5791 14.0676C14.9591 16.0776 15.0791 17.2876 14.0091 18.2376C13.2191 18.8476 12.0491 19.1376 10.2191 19.1576C10.0191 19.1576 9.82914 19.0476 9.70914 18.8576C9.57914 18.6576 9.38914 18.5476 9.14914 18.5476C8.86914 18.5476 8.51914 18.6976 8.05914 19.0176C7.89914 19.1276 7.69914 19.1976 7.49914 19.2076C7.44914 19.2076 7.39914 19.2076 7.34914 19.2076C6.91914 19.2076 6.52914 19.1076 6.15914 18.9176C5.30914 18.4676 4.80914 17.5076 4.87914 16.4676C4.89914 16.0876 4.95914 15.6876 5.05914 15.2876C5.24914 14.5276 5.68914 13.8576 6.30914 13.3976C6.30914 13.3976 6.31914 13.3976 6.32914 13.3976C7.62914 12.4476 8.84914 11.9676 9.94914 11.9676M9.94914 11.8176C8.78914 11.8176 7.54914 12.3176 6.23914 13.2676C5.57914 13.7476 5.10914 14.4576 4.91914 15.2576C4.81914 15.6576 4.75914 16.0576 4.72914 16.4576C4.65914 17.5076 5.15914 18.5476 6.08914 19.0476C6.45914 19.2476 6.87914 19.3576 7.34914 19.3576C7.39914 19.3576 7.44914 19.3576 7.50914 19.3576C7.73914 19.3576 7.95914 19.2676 8.14914 19.1376C8.52914 18.8776 8.87914 18.6976 9.14914 18.6976C9.32914 18.6976 9.46914 18.7676 9.57914 18.9376C9.71914 19.1576 9.95914 19.3076 10.2191 19.3076C11.7591 19.2876 13.1491 19.0876 14.0991 18.3576C15.4691 17.1376 14.8191 15.5976 13.6991 13.9776C13.5691 13.8076 13.4391 13.6576 13.3091 13.5076C12.2791 12.3576 11.1591 11.8076 9.93914 11.8076L9.94914 11.8176Z" fill="#5E5E5A"/>
</svg>
