<svg width="18" height="20" viewBox="0 0 18 20" fill="none" xmlns="http://www.w3.org/2000/svg">
<path d="M11.3 13.9777C10.36 10.6177 9.62 6.7777 9.64 1.6677C9.64 1.1977 9.48 0.727694 9.14 0.387694C8.73 -0.0123056 8.39 0.177694 8.14 1.09769C7.52 6.35769 6.89 9.59769 6.25 13.5777V13.9777H11.3Z" fill="#F4DE9C" stroke="#5E5E5A" stroke-width="0.15" stroke-linecap="round" stroke-linejoin="round"/>
<path d="M17.57 14.9372H3.14C1.96 14.9372 1 13.9772 1 12.7972C1 11.6172 1.96 10.6572 3.14 10.6572H17.57" fill="#FFE4E3"/>
<path d="M17.57 14.9372H3.14C1.96 14.9372 1 13.9772 1 12.7972C1 11.6172 1.96 10.6572 3.14 10.6572H17.57" stroke="#5E5E5A" stroke-width="0.15" stroke-miterlimit="10"/>
<path d="M6.25125 13.5769C6.08125 13.7969 5.94126 14.0369 5.84126 14.2969C4.86126 16.6569 4.32125 18.7369 6.24125 19.3069C8.08125 19.3669 9.92126 19.4269 10.8313 19.0869C12.0113 18.2169 12.2013 16.8369 11.8013 15.1669C11.7013 14.7469 11.5313 14.3369 11.3013 13.9769C10.8413 13.2469 10.1313 12.6969 9.27125 12.4969C8.89125 12.4069 8.51125 12.3869 8.14125 12.4369C7.38125 12.5469 6.71125 12.9769 6.25125 13.5769Z" fill="white" stroke="#5E5E5A" stroke-width="0.15" stroke-linecap="round" stroke-linejoin="round"/>
</svg>
