<svg width="17" height="19" viewBox="0 0 17 19" fill="none" xmlns="http://www.w3.org/2000/svg">
<path d="M9.44875 12.9377C8.56875 9.4677 8.38875 6.2877 8.39875 2.3477C8.39875 1.8177 8.23875 1.2877 7.90875 0.8677C7.47875 0.3277 7.13875 0.417701 6.87875 0.967701C6.70875 1.3277 6.70875 1.7277 6.67875 2.1277C6.25875 7.1177 6.08875 9.1377 5.96875 12.9377H9.45875H9.44875Z" fill="#F4DE9C" stroke="#5E5E5A" stroke-width="0.15" stroke-linecap="round" stroke-linejoin="round"/>
<path d="M16.7692 13.9372H2.33923C1.15923 13.9372 0.199219 12.9772 0.199219 11.7972C0.199219 10.6172 1.15923 9.65723 2.33923 9.65723H16.7692" fill="#FFE4E3"/>
<path d="M16.7692 13.9372H2.33923C1.15923 13.9372 0.199219 12.9772 0.199219 11.7972C0.199219 10.6172 1.15923 9.65723 2.33923 9.65723H16.7692" stroke="#5E5E5A" stroke-width="0.15" stroke-miterlimit="10"/>
<path d="M7.8488 18.2669C7.3188 18.2669 6.75879 18.2369 6.19879 18.1969L5.8488 18.1769C5.4988 18.1769 5.2588 18.0969 5.1088 17.9269C4.8888 17.6669 4.9388 17.2269 5.0088 16.8369C5.1088 15.6869 5.33879 14.5769 5.66879 13.5169C5.75879 13.2369 5.8988 12.9769 6.0888 12.7669C6.2588 12.5769 6.45879 12.4169 6.69879 12.3069C7.00879 12.1669 7.31879 12.0869 7.62879 12.0869C8.20879 12.0869 8.7988 12.3469 9.3988 12.8569C10.3288 14.1669 10.5888 15.5769 10.1888 17.1669C10.0688 17.6669 9.6488 18.0569 9.1388 18.1569C8.7988 18.2269 8.3688 18.2569 7.8488 18.2569V18.2669Z" fill="white"/>
<path d="M7.63948 12.1673C8.19948 12.1673 8.77948 12.4173 9.32948 12.8873C10.2595 14.1873 10.5195 15.5873 10.1195 17.1573C9.99948 17.6273 9.60948 17.9973 9.12948 18.0973C8.78948 18.1673 8.36948 18.1973 7.84948 18.1973C7.32948 18.1973 6.75948 18.1673 6.20948 18.1273L5.84948 18.1073C5.52948 18.1073 5.29948 18.0273 5.17948 17.8873C4.97948 17.6573 5.02948 17.2373 5.09948 16.8473C5.19948 15.7173 5.41948 14.6073 5.75948 13.5473C5.84948 13.2773 5.97948 13.0273 6.16948 12.8273C6.32948 12.6373 6.52948 12.4973 6.74948 12.3873C7.04948 12.2473 7.34948 12.1773 7.63948 12.1773M7.63948 12.0273C7.31948 12.0273 6.99948 12.0973 6.67948 12.2473C6.43948 12.3673 6.21948 12.5273 6.04948 12.7273C5.84948 12.9473 5.69948 13.2173 5.60948 13.5073C5.26948 14.5873 5.04948 15.6973 4.93948 16.8373C4.80948 17.5473 4.79948 18.2673 5.84948 18.2673C6.52948 18.3073 7.21948 18.3573 7.84948 18.3573C8.32948 18.3573 8.76948 18.3273 9.15948 18.2473C9.69948 18.1373 10.1395 17.7273 10.2695 17.1973C10.6595 15.6673 10.4495 14.1973 9.45948 12.8073C8.84948 12.2873 8.24948 12.0273 7.63948 12.0273Z" fill="#5E5E5A"/>
</svg>
