<svg width="17" height="22" viewBox="0 0 17 22" fill="none" xmlns="http://www.w3.org/2000/svg">
<path d="M10.02 14.5871C9.21999 11.2171 8.84999 7.26706 8.65999 1.91706C8.63999 1.35706 8.35 0.827057 7.84 0.587057C7.46 0.407057 7.14999 0.467057 6.90999 0.777057C6.73999 0.997057 6.66999 1.28706 6.67999 1.57706C6.91999 6.38706 6.62 10.4671 5.75 14.5971H10.02V14.5871Z" fill="#F4DE9C" stroke="#5E5E5A" stroke-width="0.15" stroke-linecap="round" stroke-linejoin="round"/>
<path d="M16.9606 16.9372H2.53063C1.35063 16.9372 0.390625 15.9772 0.390625 14.7972C0.390625 13.6172 1.35063 12.6572 2.53063 12.6572H16.9606" fill="#FFE4E3"/>
<path d="M16.9606 16.9372H2.53063C1.35063 16.9372 0.390625 15.9772 0.390625 14.7972C0.390625 13.6172 1.35063 12.6572 2.53063 12.6572H16.9606" stroke="#5E5E5A" stroke-width="0.15" stroke-miterlimit="10"/>
<path d="M8.07912 21.2676C7.66912 21.2676 7.26913 21.1276 6.97913 20.8676C6.01913 20.0276 5.38912 19.0776 5.04912 17.9376C4.79912 16.8276 5.07912 15.6276 5.90912 14.2776C6.52912 13.6376 7.17913 13.3076 7.80913 13.3076C8.24913 13.3076 8.70912 13.4676 9.15912 13.7876C9.46912 14.0076 9.73912 14.2876 9.95912 14.6176C10.2091 14.9976 10.3891 15.4176 10.4991 15.8876C11.1591 18.8076 10.6191 20.5976 8.87912 21.1876C8.72912 21.2376 8.55912 21.2676 8.35912 21.2676H8.08913H8.07912Z" fill="white"/>
<path d="M7.80857 13.3778C8.23857 13.3778 8.67856 13.5378 9.10856 13.8478C9.40856 14.0578 9.66858 14.3378 9.88858 14.6578C10.1386 15.0278 10.3186 15.4478 10.4186 15.8978C11.0786 18.8178 10.5686 20.5278 8.83857 21.1078C8.69857 21.1578 8.52857 21.1778 8.34857 21.1778H8.07856C7.67856 21.1778 7.30856 21.0378 7.01856 20.7978C6.06856 19.9678 5.44857 19.0278 5.11857 17.9178C4.86857 16.8178 5.14857 15.6378 5.94857 14.3278C6.56857 13.6878 7.18857 13.3678 7.80857 13.3678M7.80857 13.2178C7.15857 13.2178 6.50857 13.5478 5.84857 14.2278C5.07857 15.4678 4.69857 16.7178 4.97857 17.9478C5.33857 19.1578 6.01857 20.1178 6.92857 20.9078C7.24857 21.1878 7.65856 21.3278 8.07856 21.3278H8.34857C8.52857 21.3278 8.71858 21.3078 8.88858 21.2478C10.7086 20.6278 11.2286 18.7878 10.5586 15.8578C10.4586 15.3978 10.2686 14.9578 10.0086 14.5678C9.78857 14.2378 9.51856 13.9478 9.18856 13.7178C8.72856 13.3878 8.26856 13.2178 7.79856 13.2178H7.80857Z" fill="#5E5E5A"/>
</svg>
