<svg width="18" height="20" viewBox="0 0 18 20" fill="none" xmlns="http://www.w3.org/2000/svg">
<path d="M10.1008 8.64728C9.53078 6.75728 9.43079 4.34729 9.57079 1.68729C9.58079 1.40729 9.53078 1.11728 9.36078 0.887285C9.15078 0.577285 8.92078 0.577285 8.69078 0.907285C8.54078 1.12729 8.46078 1.39729 8.44078 1.66729C8.22078 4.15729 7.60078 6.62729 6.55078 9.06729L6.57079 11.0273L10.1208 10.9973L10.1008 8.65729V8.64728Z" fill="#F4DE9C" stroke="#5E5E5A" stroke-width="0.15" stroke-linecap="round" stroke-linejoin="round"/>
<path d="M10.8978 14.0071C12.4978 10.5871 12.9578 6.67706 13.1378 2.24706C13.1378 2.06706 13.1378 1.88705 13.0978 1.71705C12.9478 0.957055 12.2378 0.777055 11.8978 1.60706C11.8578 1.70706 11.8278 1.82706 11.8078 1.93706C11.4578 4.47706 10.9278 6.79706 10.0678 8.66706C10.0078 8.79706 9.96783 8.93706 9.87783 9.05706C9.45783 9.62706 8.80783 9.80706 8.14783 9.79706C7.51783 9.78706 6.93784 9.49706 6.50784 9.05706C6.27784 8.81706 6.08783 8.53705 5.95783 8.21705C5.24783 6.51705 5.10783 4.54706 4.79783 2.47706C4.71783 1.95706 4.58783 1.42706 4.23783 1.03706C3.58783 0.317056 3.05784 0.677055 2.99784 1.95705C2.77784 6.65705 4.02783 11.1971 5.62783 14.0271H10.8878L10.8978 14.0071Z" fill="#F4DE9C" stroke="#5E5E5A" stroke-width="0.15" stroke-linecap="round" stroke-linejoin="round"/>
<path d="M17.1598 14.9372H2.72984C1.54984 14.9372 0.589844 13.9772 0.589844 12.7972C0.589844 11.6172 1.54984 10.6572 2.72984 10.6572H17.1598" fill="#FFE4E3"/>
<path d="M17.1598 14.9372H2.72984C1.54984 14.9372 0.589844 13.9772 0.589844 12.7972C0.589844 11.6172 1.54984 10.6572 2.72984 10.6572H17.1598" stroke="#5E5E5A" stroke-width="0.15" stroke-miterlimit="10"/>
<path d="M8.32991 19.2672C7.93991 19.2672 7.52991 19.1272 7.15991 18.8472C6.91991 18.6672 6.69993 18.5872 6.49993 18.5872C6.33993 18.5872 6.17992 18.6472 6.02992 18.7572C5.76992 18.9572 5.45992 19.0672 5.14992 19.0672C5.07992 19.0672 5.01992 19.0672 4.94992 19.0472C4.37992 18.9572 4.07992 18.5372 4.03992 17.7472C4.01992 16.3872 4.34992 15.2672 5.06992 14.3272C5.27992 14.0372 5.47991 13.7872 5.68991 13.5672C6.40991 12.7972 7.16991 12.4072 7.93991 12.4072C8.85991 12.4072 9.83992 12.9572 10.8499 14.0472C11.0299 14.2472 11.1499 14.4072 11.2399 14.5872C11.7199 15.5672 11.8799 16.5872 11.6999 17.6072C11.6799 18.4572 11.3599 18.9072 10.7199 18.9772C9.91991 19.1672 9.12991 19.2672 8.35991 19.2672H8.33992H8.32991Z" fill="white"/>
<path d="M7.93982 12.4869C8.83982 12.4869 9.79982 13.0269 10.8198 14.1269L10.8498 14.1569C10.9798 14.2969 11.0898 14.4569 11.1798 14.6269C11.6598 15.5969 11.8098 16.5969 11.6298 17.6269C11.5998 18.6869 11.0998 18.8669 10.6998 18.9169C9.91983 19.1069 9.12983 19.2069 8.33983 19.2069C7.95983 19.2069 7.56982 19.0669 7.21982 18.8069C6.96982 18.6169 6.73982 18.5269 6.51982 18.5269C6.33982 18.5269 6.16983 18.5869 6.00983 18.7069C5.75983 18.8969 5.45983 18.9969 5.16983 18.9969C5.10983 18.9969 5.04982 18.9969 4.98982 18.9869C4.64982 18.9369 4.19983 18.7469 4.13983 17.7569C4.11983 16.4069 4.44983 15.3069 5.14983 14.3769C5.33983 14.1069 5.54983 13.8569 5.75983 13.6269C6.46983 12.8669 7.20982 12.4869 7.95982 12.4869M7.95982 12.3369C7.17982 12.3369 6.40983 12.7169 5.64983 13.5269C5.43983 13.7469 5.22983 14.0069 5.02983 14.2869C4.36983 15.1469 3.95982 16.2469 3.98982 17.7569C4.03982 18.6269 4.38982 19.0369 4.96982 19.1269C5.03982 19.1369 5.10983 19.1469 5.17983 19.1469C5.50983 19.1469 5.83982 19.0269 6.10982 18.8269C6.24982 18.7169 6.38983 18.6769 6.52983 18.6769C6.72983 18.6769 6.93983 18.7669 7.14983 18.9269C7.50983 19.1869 7.91982 19.3569 8.35982 19.3569H8.37982C9.18982 19.3569 9.97983 19.2569 10.7498 19.0669C11.3798 18.9969 11.7698 18.5669 11.7898 17.6369C11.9698 16.6069 11.8198 15.5869 11.3298 14.5669C11.2398 14.3869 11.1198 14.2169 10.9798 14.0669C10.9598 14.0469 10.9498 14.0269 10.9298 14.0169C9.91983 12.9269 8.92982 12.3469 7.96982 12.3469L7.95982 12.3369Z" fill="#5E5E5A"/>
</svg>
