<svg width="17" height="20" viewBox="0 0 17 20" fill="none" xmlns="http://www.w3.org/2000/svg">
<path d="M10.6711 8.297C10.0311 6.757 9.96109 4.317 10.0911 1.567C10.1111 1.207 10.0211 0.826997 9.79109 0.546997C9.46109 0.136997 9.11109 0.246997 8.74109 0.706997C8.61109 0.866997 8.55109 1.067 8.54109 1.267C8.44109 3.507 7.66109 6.037 6.62109 8.687V10.657H10.6711V8.297Z" fill="#F4DE9C" stroke="#5E5E5A" stroke-width="0.15" stroke-linecap="round" stroke-linejoin="round"/>
<path d="M11.2715 13.5074C13.1315 10.3574 14.6115 6.37745 15.7415 2.26745C15.8615 1.80745 15.7815 1.29745 15.4615 0.947449C15.1415 0.587449 14.8015 0.637449 14.4415 1.24745C13.5515 4.02745 12.3515 6.44745 10.6715 8.28745C9.22154 9.55745 7.82154 9.72745 6.49154 8.76745C6.45154 8.73745 6.42154 8.70745 6.38154 8.67745C5.13154 7.01745 4.98153 4.52745 5.19153 1.75745C5.22153 1.32745 5.13153 0.887449 4.86153 0.547449C4.57153 0.177449 4.27154 0.197449 3.96154 0.607449C3.79154 0.847449 3.68154 1.12745 3.63154 1.41745C2.80154 5.94745 2.88155 10.0474 4.28155 13.4874H11.2715V13.5074Z" fill="#F4DE9C" stroke="#5E5E5A" stroke-width="0.15" stroke-linecap="round" stroke-linejoin="round"/>
<path d="M0.160156 10.6572H14.5902C15.7702 10.6572 16.7302 11.6172 16.7302 12.7972C16.7302 13.9772 15.7702 14.9372 14.5902 14.9372H0.160156" fill="#FFE4E3"/>
<path d="M0.160156 10.6572H14.5902C15.7702 10.6572 16.7302 11.6172 16.7302 12.7972C16.7302 13.9772 15.7702 14.9372 14.5902 14.9372H0.160156" stroke="#5E5E5A" stroke-width="0.15" stroke-miterlimit="10"/>
<path d="M10.0981 19.2667C9.88812 19.2667 9.66812 19.1867 9.49812 19.0667C9.04812 18.7567 8.71812 18.6167 8.44812 18.6167C8.23812 18.6167 8.06812 18.7067 7.95812 18.8967C7.81812 19.1067 7.60811 19.2367 7.37811 19.2367C5.52811 19.2167 4.34812 18.9267 3.53812 18.2967C2.15812 17.0667 2.91812 15.5167 3.94812 14.0167C4.06812 13.8567 4.19811 13.7067 4.32811 13.5567C5.31811 12.4467 6.43812 11.8867 7.63812 11.8867C8.75812 11.8867 9.98812 12.3667 11.3081 13.3267C11.9481 13.7967 12.4081 14.4867 12.5981 15.2667C12.6981 15.6667 12.7581 16.0767 12.7781 16.4567C12.8481 17.5167 12.3281 18.5067 11.4581 18.9767C11.0781 19.1767 10.6781 19.2767 10.2381 19.2767H10.0881L10.0981 19.2667Z" fill="white"/>
<path d="M7.64994 11.9569C8.74994 11.9569 9.96994 12.4369 11.2699 13.3869C11.2699 13.3869 11.2699 13.3869 11.2799 13.3869C11.8999 13.8469 12.3499 14.5169 12.5299 15.2769C12.6299 15.6769 12.6899 16.0769 12.7099 16.4569C12.7799 17.4869 12.2799 18.4469 11.4299 18.8969C11.0599 19.0969 10.6799 19.1869 10.2399 19.1869C10.1899 19.1869 10.1399 19.1869 10.0899 19.1869C9.88995 19.1869 9.68995 19.1069 9.52995 18.9969C9.06995 18.6769 8.71994 18.5269 8.43994 18.5269C8.20994 18.5269 8.00994 18.6369 7.87994 18.8369C7.75994 19.0269 7.56994 19.1369 7.35994 19.1369C5.52994 19.1069 4.35994 18.8269 3.57994 18.2269C2.49994 17.2669 2.61994 16.0569 3.98994 14.0569C4.11994 13.8969 4.23995 13.7369 4.36995 13.5969C5.34995 12.5069 6.43994 11.9469 7.62994 11.9469M7.62994 11.7969C6.40994 11.7969 5.28994 12.3469 4.25994 13.4969C4.12994 13.6469 3.99995 13.7969 3.86995 13.9669C2.75995 15.5869 2.09994 17.1269 3.46994 18.3469C4.41994 19.0769 5.80994 19.2769 7.34994 19.2969C7.60994 19.2969 7.84994 19.1469 7.98994 18.9269C8.09994 18.7569 8.24995 18.6869 8.41995 18.6869C8.69995 18.6869 9.03995 18.8669 9.41995 19.1269C9.60995 19.2569 9.82995 19.3369 10.0599 19.3469C10.1099 19.3469 10.1599 19.3469 10.2199 19.3469C10.6899 19.3469 11.1099 19.2369 11.4799 19.0369C12.4099 18.5369 12.9099 17.4969 12.8399 16.4469C12.8199 16.0369 12.7499 15.6369 12.6499 15.2469C12.4599 14.4469 11.9899 13.7469 11.3299 13.2569C10.0199 12.3069 8.77995 11.8069 7.61995 11.8069L7.62994 11.7969Z" fill="#5E5E5A"/>
</svg>
