<svg width="18" height="19" viewBox="0 0 18 19" fill="none" xmlns="http://www.w3.org/2000/svg">
<path d="M7.25 7.65723H10.05C10.05 7.65723 10.05 7.84723 10.05 7.85723C9.66 11.0872 9.6 14.1472 10.05 16.9472C10.22 18.2172 9.92 18.3872 9.35 17.8672C8.95 17.5072 8.65 17.0372 8.48 16.5172C7.75 14.2972 7.4 11.2072 7.26 7.65723" fill="#F4DE9C"/>
<path d="M7.25 7.65723H10.05C10.05 7.65723 10.05 7.84723 10.05 7.85723C9.66 11.0872 9.6 14.1472 10.05 16.9472C10.22 18.2172 9.92 18.3872 9.35 17.8672C8.95 17.5072 8.65 17.0372 8.48 16.5172C7.75 14.2972 7.4 11.2072 7.26 7.65723" stroke="#5E5E5A" stroke-width="0.15" stroke-linecap="round" stroke-linejoin="round"/>
<path d="M17.57 10.6872H3.14C1.96 10.6872 1 9.72723 1 8.54723C1 7.36723 1.96 6.40723 3.14 6.40723H17.57" fill="#FFE4E3"/>
<path d="M17.57 10.6872H3.14C1.96 10.6872 1 9.72723 1 8.54723C1 7.36723 1.96 6.40723 3.14 6.40723H17.57" stroke="#5E5E5A" stroke-width="0.15" stroke-miterlimit="10"/>
<path d="M10.0497 7.85732C10.2597 7.45732 10.3597 7.00732 10.3797 6.55732L10.5097 3.08732C10.5597 2.28732 10.2297 1.88732 9.75969 1.58732C9.04969 1.07732 8.02968 0.847321 7.16968 0.897321C6.56968 1.08732 6.54969 0.947323 6.46969 1.47732C6.42969 1.72732 6.41969 1.97732 6.43969 2.22732C6.54969 3.82732 6.70969 5.29732 6.86969 6.66732C6.90969 7.03732 7.04968 7.37732 7.26968 7.67732C7.28968 7.70732 7.31969 7.73732 7.33969 7.77732C8.36969 9.04732 9.22968 9.14732 9.91968 8.10732C9.96968 8.03732 10.0197 7.95732 10.0597 7.87732" fill="white"/>
<path d="M10.0497 7.85732C10.2597 7.45732 10.3597 7.00732 10.3797 6.55732L10.5097 3.08732C10.5597 2.28732 10.2297 1.88732 9.75969 1.58732C9.04969 1.07732 8.02968 0.847321 7.16968 0.897321C6.56968 1.08732 6.54969 0.947323 6.46969 1.47732C6.42969 1.72732 6.41969 1.97732 6.43969 2.22732C6.54969 3.82732 6.70969 5.29732 6.86969 6.66732C6.90969 7.03732 7.04968 7.37732 7.26968 7.67732C7.28968 7.70732 7.31969 7.73732 7.33969 7.77732C8.36969 9.04732 9.22968 9.14732 9.91968 8.10732C9.96968 8.03732 10.0197 7.95732 10.0597 7.87732" stroke="#5E5E5A" stroke-width="0.15" stroke-linecap="round" stroke-linejoin="round"/>
</svg>
