<svg width="17" height="19" viewBox="0 0 17 19" fill="none" xmlns="http://www.w3.org/2000/svg">
<path d="M9.51937 7.2373V7.72731C8.96937 11.1773 8.77938 14.4573 9.11938 17.5073C9.23938 18.8073 8.94938 19.1373 8.33938 18.7273C7.88938 18.4273 7.57937 17.9473 7.41937 17.4273C6.56937 14.6973 6.09937 11.1973 5.85938 7.2373H9.51937Z" fill="#F4DE9C" stroke="#5E5E5A" stroke-width="0.15" stroke-linecap="round" stroke-linejoin="round"/>
<path d="M16.7692 10.6872H2.33923C1.15923 10.6872 0.199219 9.72723 0.199219 8.54723C0.199219 7.36723 1.15923 6.40723 2.33923 6.40723H16.7692" fill="#FFE4E3"/>
<path d="M16.7692 10.6872H2.33923C1.15923 10.6872 0.199219 9.72723 0.199219 8.54723C0.199219 7.36723 1.15923 6.40723 2.33923 6.40723H16.7692" stroke="#5E5E5A" stroke-width="0.15" stroke-miterlimit="10"/>
<path d="M5.85944 7.23719C5.95944 7.45719 6.09944 7.66719 6.26944 7.83719C6.97944 8.54719 7.68944 8.78719 8.41944 8.58719C8.89944 8.45719 9.27944 8.1372 9.51944 7.7272C9.67944 7.4572 9.77944 7.14719 9.79944 6.82719L10.0994 3.23719C10.0494 2.69719 9.91944 2.22719 9.69944 1.82719C9.45944 1.39719 8.99944 1.11719 8.49944 1.08719L6.02944 0.927193C5.39944 0.897193 5.19944 1.05719 5.22944 1.83719C5.22944 2.03719 5.24944 2.2372 5.23944 2.4372C5.19944 4.0272 5.31944 5.4372 5.67944 6.5672C5.69944 6.7972 5.75944 7.02719 5.85944 7.23719Z" fill="white" stroke="#5E5E5A" stroke-width="0.15" stroke-linecap="round" stroke-linejoin="round"/>
</svg>
