<svg width="17" height="23" viewBox="0 0 17 23" fill="none" xmlns="http://www.w3.org/2000/svg">
<path d="M9.60828 8.73754C8.94828 12.9875 8.56828 17.1375 8.51828 21.1775C8.51828 21.4575 8.45828 21.7475 8.31828 21.9975C8.09828 22.3875 7.80829 22.4475 7.44829 22.1775C7.10829 21.9275 6.89828 21.5475 6.81828 21.1375C5.98828 17.2075 5.58828 13.0575 5.48828 8.72754H9.60828V8.73754Z" fill="#F4DE9C" stroke="#5E5E5A" stroke-width="0.15" stroke-linecap="round" stroke-linejoin="round"/>
<path d="M16.9606 10.6872H2.53063C1.35063 10.6872 0.390625 9.72723 0.390625 8.54723C0.390625 7.36723 1.35063 6.40723 2.53063 6.40723H16.9606" fill="#FFE4E3"/>
<path d="M16.9606 10.6872H2.53063C1.35063 10.6872 0.390625 9.72723 0.390625 8.54723C0.390625 7.36723 1.35063 6.40723 2.53063 6.40723H16.9606" stroke="#5E5E5A" stroke-width="0.15" stroke-miterlimit="10"/>
<path d="M7.60708 10.4873C7.00708 10.4873 6.36708 9.96727 5.71708 8.95727C5.65708 8.87727 5.60709 8.78727 5.55709 8.69727C4.74709 7.31727 4.56709 5.54727 5.03709 3.43727C5.78709 1.78727 6.59709 0.947266 7.44709 0.947266C8.29709 0.947266 9.23708 1.80727 10.2371 3.48727C10.4971 3.93727 10.6371 4.44727 10.6371 4.95727C10.6371 6.53727 10.2671 7.79726 9.55709 8.68726C8.91709 9.88726 8.26708 10.4873 7.60708 10.4873Z" fill="white"/>
<path d="M7.43793 1.02695C8.26793 1.02695 9.17793 1.86695 10.1579 3.53695C10.4179 3.97695 10.5479 4.46695 10.5479 4.96695C10.5479 6.53695 10.1879 7.77696 9.46793 8.67696C8.84793 9.83696 8.21793 10.427 7.59793 10.427C7.01793 10.427 6.40793 9.92696 5.76793 8.92696C5.70793 8.84696 5.65793 8.75696 5.60793 8.67696C4.80793 7.30696 4.62794 5.55695 5.08794 3.50695C5.82794 1.87695 6.61793 1.04696 7.42793 1.04696M7.42793 0.896954C6.55793 0.896954 5.72794 1.71695 4.94794 3.44695C4.47794 5.54695 4.63794 7.32695 5.47794 8.75695C5.52794 8.84695 5.58794 8.93695 5.63794 9.01695C6.29794 10.047 6.94794 10.577 7.58794 10.577C8.26794 10.577 8.93793 9.98696 9.59793 8.74696C10.3479 7.81696 10.6979 6.53695 10.6979 4.96695C10.6979 4.43695 10.5479 3.91695 10.2879 3.45695C9.29793 1.76695 8.33793 0.876953 7.43793 0.876953L7.42793 0.896954Z" fill="#5E5E5A"/>
</svg>
