<svg width="18" height="19" viewBox="0 0 18 19" fill="none" xmlns="http://www.w3.org/2000/svg">
<path d="M11.8793 7.68715C12.8793 10.8571 13.6393 13.8572 13.5693 16.3172C13.5593 16.8172 13.4493 17.3171 13.2293 17.7671C12.9293 18.3571 12.6093 18.4472 12.2593 17.9672C12.0993 17.7372 11.9893 17.4671 11.9393 17.1871L11.0993 13.2472C10.8993 12.3372 10.3693 11.5071 9.5693 11.0271C9.0493 10.7171 8.5093 10.5971 7.9593 10.6871C7.3093 10.7971 6.7493 11.1971 6.3793 11.7371C5.5993 12.8371 3.91931 16.0372 3.91931 16.0372C3.13931 17.1572 2.6793 17.0972 2.5793 15.7472C2.5293 14.0672 4.08931 10.3871 5.55931 7.57715L11.9093 7.68715H11.8793Z" fill="#F4DE9C" stroke="#5E5E5A" stroke-width="0.15" stroke-linecap="round" stroke-linejoin="round"/>
<path d="M17.1598 10.6872H2.72984C1.54984 10.6872 0.589844 9.72723 0.589844 8.54723C0.589844 7.36723 1.54984 6.40723 2.72984 6.40723H17.1598" fill="#FFE4E3"/>
<path d="M17.1598 10.6872H2.72984C1.54984 10.6872 0.589844 9.72723 0.589844 8.54723C0.589844 7.36723 1.54984 6.40723 2.72984 6.40723H17.1598" stroke="#5E5E5A" stroke-width="0.15" stroke-miterlimit="10"/>
<path d="M8.63978 9.00726C7.88978 9.00726 7.15978 8.76727 6.44978 8.28727C6.12978 8.07727 5.83977 7.81727 5.57977 7.52727C5.10977 7.00727 4.73977 6.39727 4.45977 5.68727C3.75977 3.87727 3.80977 2.47726 4.59977 1.49726C5.05977 1.13726 5.59977 0.947266 6.18977 0.947266C6.61977 0.947266 7.07977 1.04727 7.56977 1.23727C8.07977 1.60727 8.52977 1.79727 8.93977 1.79727C9.21977 1.79727 9.47978 1.70727 9.69978 1.51727C10.1998 1.27727 10.6598 1.14727 11.0698 1.14727C11.5798 1.14727 11.9998 1.33727 12.3698 1.71727C12.7098 2.07727 12.9298 2.58726 12.9798 3.15726C13.0898 4.48726 12.9498 5.60726 12.5498 6.58727C12.3898 6.97727 12.1498 7.32727 11.8298 7.63727C11.6898 7.76727 11.5498 7.88727 11.3998 7.99727C10.4498 8.66727 9.52978 9.01727 8.63978 9.01727V9.00726Z" fill="white"/>
<path d="M6.19941 1.02719C6.60941 1.02719 7.0594 1.11719 7.5394 1.29719C8.0694 1.67719 8.52941 1.86719 8.94941 1.86719C9.24941 1.86719 9.5194 1.76718 9.7294 1.58718C10.2294 1.33718 10.6894 1.21719 11.0794 1.21719C11.5694 1.21719 11.9694 1.39719 12.3194 1.76719C12.6494 2.11719 12.8594 2.61719 12.9094 3.16719C13.0194 4.48719 12.8794 5.58719 12.4794 6.55719C12.3194 6.93719 12.0894 7.27718 11.7794 7.58718C11.6494 7.71718 11.5094 7.83718 11.3594 7.93718C10.4294 8.59718 9.5094 8.93718 8.6494 8.93718C7.9194 8.93718 7.19941 8.69718 6.49941 8.22718C6.18941 8.01718 5.89941 7.76719 5.63941 7.47719C5.17941 6.96719 4.8094 6.35719 4.5394 5.66719C3.8494 3.88719 3.88941 2.50719 4.63941 1.57719C5.09941 1.21719 5.61941 1.02719 6.19941 1.02719ZM6.19941 0.877186C5.57941 0.877186 5.0294 1.06719 4.5494 1.45719C3.7294 2.46719 3.6894 3.88719 4.3994 5.71719C4.6694 6.40719 5.03941 7.04719 5.52941 7.57719C5.78941 7.86719 6.08941 8.12719 6.41941 8.34719C7.14941 8.83719 7.8894 9.08718 8.6494 9.08718C9.5594 9.08718 10.4894 8.73719 11.4494 8.05719C11.6094 7.94719 11.7494 7.82719 11.8894 7.68719C12.1994 7.37719 12.4594 7.01719 12.6294 6.60719C13.0594 5.56719 13.1794 4.40719 13.0694 3.14719C13.0194 2.59719 12.8194 2.05718 12.4394 1.65718C12.0594 1.24718 11.5994 1.05719 11.0894 1.05719C10.6594 1.05719 10.1794 1.18719 9.66941 1.44719C9.44941 1.62719 9.2094 1.70719 8.9594 1.70719C8.5494 1.70719 8.0994 1.49718 7.6194 1.15718C7.1194 0.967185 6.6494 0.867188 6.2094 0.867188L6.19941 0.877186Z" fill="#5E5E5A"/>
</svg>
