<svg width="17" height="20" viewBox="0 0 17 20" fill="none" xmlns="http://www.w3.org/2000/svg">
<path d="M12.7589 8.28735C14.5889 10.9173 15.5289 14.4873 15.5289 18.2173C15.4689 19.3073 15.1289 19.5473 14.5689 19.0773C14.2289 18.7973 14.0089 18.3873 13.9189 17.9573C13.3689 15.5273 12.5989 13.4973 11.4589 12.1073C10.1289 10.7673 8.98889 10.8373 7.98889 11.8873C6.70889 13.0473 6.03889 14.9073 5.68889 17.1173C5.63889 17.4473 5.5289 17.7773 5.3389 18.0573C4.9589 18.6273 4.5689 18.6673 4.1689 18.1273C3.9689 17.8573 3.8589 17.5373 3.8089 17.2073C3.3989 14.1273 3.9389 11.1973 5.3889 8.40734C5.4089 8.36734 5.42889 8.32734 5.45889 8.27734H12.7589V8.28735Z" fill="#F4DE9C" stroke="#5E5E5A" stroke-width="0.15" stroke-linecap="round" stroke-linejoin="round"/>
<path d="M0.160156 6.40723H14.5902C15.7702 6.40723 16.7302 7.36723 16.7302 8.54723C16.7302 9.72723 15.7702 10.6872 14.5902 10.6872H0.160156" fill="#FFE4E3"/>
<path d="M0.160156 6.40723H14.5902C15.7702 6.40723 16.7302 7.36723 16.7302 8.54723C16.7302 9.72723 15.7702 10.6872 14.5902 10.6872H0.160156" stroke="#5E5E5A" stroke-width="0.15" stroke-miterlimit="10"/>
<path d="M9.25808 9.49731C8.19808 9.49731 7.11808 9.2473 6.03808 8.7573C5.81808 8.6573 5.61807 8.51731 5.43807 8.35731C5.30807 8.23731 5.19807 8.10731 5.10807 7.96731C3.97807 6.29731 3.48808 4.6773 3.61808 3.0173C3.74808 2.2173 3.97807 1.68731 4.32807 1.43731C4.90807 1.13731 5.55808 0.987305 6.28808 0.987305C6.96808 0.987305 7.69808 1.1173 8.52808 1.3773C8.76808 1.4873 9.01807 1.54731 9.26807 1.54731C9.51807 1.54731 9.76807 1.48731 10.0181 1.36731C10.5181 1.13731 10.9581 1.02731 11.3781 1.02731C11.6481 1.02731 11.9181 1.0773 12.1881 1.1673C12.6381 1.2273 13.0881 1.5073 13.5881 2.0173C13.8681 2.3073 14.0481 2.6673 14.1081 3.0573C14.2981 4.2673 14.3181 5.3573 14.1381 6.4073C14.0981 6.8073 13.9981 7.1673 13.8381 7.4973C13.6381 7.9173 13.2881 8.27731 12.8281 8.52731C11.6581 9.15731 10.4581 9.4773 9.26807 9.4773L9.25808 9.49731Z" fill="white"/>
<path d="M6.27781 1.06746C6.94781 1.06746 7.6678 1.19746 8.4778 1.44746C8.7378 1.56746 8.9978 1.62746 9.2578 1.62746C9.5178 1.62746 9.7578 1.56746 10.0078 1.45746H10.0478C10.0478 1.45746 10.0978 1.45746 10.1178 1.43746C10.5378 1.21746 10.9578 1.10746 11.3678 1.10746C11.6278 1.10746 11.8978 1.14746 12.1778 1.24746C12.5978 1.30746 13.0378 1.57746 13.5178 2.07746C13.7878 2.35746 13.9578 2.69746 14.0178 3.07746C14.2078 4.27746 14.2178 5.36746 14.0478 6.40746C14.0078 6.78746 13.9078 7.14746 13.7578 7.46746C13.5678 7.87746 13.2278 8.21746 12.7778 8.46746C11.6178 9.09746 10.4378 9.40746 9.2578 9.40746C8.2178 9.40746 7.1378 9.15746 6.0678 8.66746C5.8578 8.56746 5.6578 8.43746 5.4878 8.27746C5.3678 8.16746 5.25781 8.03746 5.16781 7.90746C4.04781 6.24746 3.5678 4.64746 3.6878 3.01746C3.8078 2.23746 4.0378 1.71746 4.3478 1.49746C4.9278 1.19746 5.55781 1.04746 6.27781 1.04746M6.27781 0.897461C5.56781 0.897461 4.89781 1.03746 4.27781 1.36746C3.92781 1.61746 3.6778 2.13746 3.5378 2.99746C3.4078 4.75746 3.9778 6.41746 5.0478 7.98746C5.1478 8.13746 5.25781 8.26746 5.38781 8.38746C5.56781 8.55746 5.7778 8.69746 6.0078 8.80746C7.1078 9.30746 8.1878 9.55746 9.2578 9.55746C10.4778 9.55746 11.6778 9.22746 12.8578 8.59746C13.3078 8.35746 13.6878 7.99746 13.8978 7.52746C14.0678 7.17746 14.1678 6.80746 14.1978 6.41746C14.3778 5.31746 14.3478 4.18746 14.1678 3.04746C14.0978 2.63746 13.9178 2.25746 13.6278 1.95746C13.1578 1.47746 12.6878 1.15746 12.1978 1.08746C11.9178 0.99746 11.6378 0.94746 11.3678 0.94746C10.9178 0.94746 10.4778 1.06746 10.0478 1.29746H9.9778C9.7378 1.40746 9.4978 1.46746 9.2578 1.46746C9.0178 1.46746 8.7778 1.40746 8.5478 1.29746C7.7678 1.04746 7.0078 0.897461 6.2878 0.897461H6.27781Z" fill="#5E5E5A"/>
</svg>
