<svg width="18" height="19" viewBox="0 0 18 19" fill="none" xmlns="http://www.w3.org/2000/svg">
<path d="M9.44113 7.74707H6.64112C6.64112 7.74707 6.64112 7.93707 6.64112 7.94707C7.03112 11.1771 7.09112 14.2371 6.64112 17.0371C6.47112 18.3071 6.77113 18.4771 7.34113 17.9571C7.74113 17.5971 8.04112 17.1271 8.21112 16.6071C8.94112 14.3871 9.29112 11.2971 9.43112 7.74707" fill="#F4DE9C"/>
<path d="M9.44113 7.74707H6.64112C6.64112 7.74707 6.64112 7.93707 6.64112 7.94707C7.03112 11.1771 7.09112 14.2371 6.64112 17.0371C6.47112 18.3071 6.77113 18.4771 7.34113 17.9571C7.74113 17.5971 8.04112 17.1271 8.21112 16.6071C8.94112 14.3871 9.29112 11.2971 9.43112 7.74707" stroke="#5E5E5A" stroke-width="0.15" stroke-linecap="round" stroke-linejoin="round"/>
<path d="M17.3708 10.6872H2.94078C1.76078 10.6872 0.800781 9.72723 0.800781 8.54723C0.800781 7.36723 1.76078 6.40723 2.94078 6.40723H17.3708" fill="#FFE4E3"/>
<path d="M17.3708 10.6872H2.94078C1.76078 10.6872 0.800781 9.72723 0.800781 8.54723C0.800781 7.36723 1.76078 6.40723 2.94078 6.40723H17.3708" stroke="#5E5E5A" stroke-width="0.15" stroke-miterlimit="10"/>
<path d="M6.6486 7.93739C6.4386 7.53739 6.3386 7.0874 6.3186 6.6374L6.1886 3.1674C6.1386 2.3674 6.4686 1.9674 6.9386 1.6674C7.6486 1.1574 8.66859 0.9274 9.52859 0.9774C10.1286 1.1674 10.1486 1.0274 10.2286 1.5574C10.2686 1.8074 10.2786 2.0574 10.2586 2.3074C10.1486 3.9074 9.9886 5.3774 9.8286 6.7474C9.7886 7.1174 9.6486 7.45739 9.4286 7.75739C9.4086 7.78739 9.3786 7.8174 9.3586 7.8574C8.3286 9.1274 7.46859 9.22739 6.77859 8.18739C6.72859 8.11739 6.6786 8.0374 6.6386 7.9574" fill="white"/>
<path d="M6.6486 7.93739C6.4386 7.53739 6.3386 7.0874 6.3186 6.6374L6.1886 3.1674C6.1386 2.3674 6.4686 1.9674 6.9386 1.6674C7.6486 1.1574 8.66859 0.9274 9.52859 0.9774C10.1286 1.1674 10.1486 1.0274 10.2286 1.5574C10.2686 1.8074 10.2786 2.0574 10.2586 2.3074C10.1486 3.9074 9.9886 5.3774 9.8286 6.7474C9.7886 7.1174 9.6486 7.45739 9.4286 7.75739C9.4086 7.78739 9.3786 7.8174 9.3586 7.8574C8.3286 9.1274 7.46859 9.22739 6.77859 8.18739C6.72859 8.11739 6.6786 8.0374 6.6386 7.9574" stroke="#5E5E5A" stroke-width="0.15" stroke-linecap="round" stroke-linejoin="round"/>
</svg>
