<svg width="18" height="19" viewBox="0 0 18 19" fill="none" xmlns="http://www.w3.org/2000/svg">
<path d="M6.16797 7.27734V7.76734C6.71797 11.2173 6.90797 14.4973 6.56797 17.5473C6.44797 18.8473 6.73797 19.1773 7.34797 18.7673C7.79797 18.4673 8.10797 17.9873 8.26797 17.4673C9.11797 14.7373 9.58797 11.2373 9.82797 7.27734H6.16797Z" fill="#F4DE9C" stroke="#5E5E5A" stroke-width="0.15" stroke-linecap="round" stroke-linejoin="round"/>
<path d="M17.1716 10.6872H2.74157C1.56157 10.6872 0.601562 9.72723 0.601562 8.54723C0.601562 7.36723 1.56157 6.40723 2.74157 6.40723H17.1716" fill="#FFE4E3"/>
<path d="M17.1716 10.6872H2.74157C1.56157 10.6872 0.601562 9.72723 0.601562 8.54723C0.601562 7.36723 1.56157 6.40723 2.74157 6.40723H17.1716" stroke="#5E5E5A" stroke-width="0.15" stroke-miterlimit="10"/>
<path d="M9.84156 7.27723C9.74156 7.49723 9.60156 7.70723 9.43156 7.87723C8.72156 8.58723 8.01156 8.82723 7.28156 8.62723C6.80156 8.49723 6.42156 8.17723 6.18156 7.76723C6.02156 7.49723 5.92157 7.18723 5.90157 6.86723L5.60156 3.27723C5.65156 2.73723 5.78156 2.26723 6.00156 1.86723C6.24156 1.43723 6.70156 1.15723 7.20156 1.12723L9.67157 0.967232C10.3016 0.937232 10.5016 1.09723 10.4716 1.87723C10.4716 2.07723 10.4516 2.27723 10.4616 2.47723C10.5016 4.06723 10.3816 5.47723 10.0216 6.60723C10.0016 6.83723 9.94156 7.06723 9.84156 7.27723Z" fill="white" stroke="#5E5E5A" stroke-width="0.15" stroke-linecap="round" stroke-linejoin="round"/>
</svg>
