<svg width="17" height="23" viewBox="0 0 17 23" fill="none" xmlns="http://www.w3.org/2000/svg">
<path d="M6.07812 8.77758C6.73813 13.0276 7.11813 17.1776 7.16813 21.2176C7.16813 21.4976 7.22812 21.7876 7.36812 22.0376C7.58812 22.4276 7.87812 22.4876 8.23812 22.2176C8.57812 21.9676 8.78812 21.5876 8.86812 21.1776C9.69812 17.2476 10.0981 13.0976 10.1981 8.76758H6.07812V8.77758Z" fill="#F4DE9C" stroke="#5E5E5A" stroke-width="0.15" stroke-linecap="round" stroke-linejoin="round"/>
<path d="M16.9684 10.6872H2.53844C1.35844 10.6872 0.398438 9.72723 0.398438 8.54723C0.398438 7.36723 1.35844 6.40723 2.53844 6.40723H16.9684" fill="#FFE4E3"/>
<path d="M16.9684 10.6872H2.53844C1.35844 10.6872 0.398438 9.72723 0.398438 8.54723C0.398438 7.36723 1.35844 6.40723 2.53844 6.40723H16.9684" stroke="#5E5E5A" stroke-width="0.15" stroke-miterlimit="10"/>
<path d="M8.08859 10.5273C7.43859 10.5273 6.77859 9.9273 6.14859 8.7373C5.42859 7.8373 5.05859 6.5773 5.05859 4.9973C5.05859 4.4873 5.19859 3.97731 5.45859 3.52731C6.44859 1.83731 7.38859 0.987305 8.24859 0.987305C9.10859 0.987305 9.90859 1.8273 10.6586 3.4873C11.1186 5.5773 10.9486 7.3473 10.1286 8.7273C10.0786 8.8173 10.0286 8.8973 9.96859 8.9873C9.31859 10.0073 8.68859 10.5173 8.07859 10.5173L8.08859 10.5273Z" fill="white"/>
<path d="M8.25047 1.06699C9.07047 1.06699 9.85047 1.89699 10.5805 3.49699C11.0405 5.58699 10.8705 7.33699 10.0705 8.69699C10.0205 8.78699 9.97047 8.86699 9.91047 8.95699C9.28047 9.94699 8.66047 10.457 8.09047 10.457C7.47047 10.457 6.84047 9.86699 6.20047 8.68699C5.49047 7.80699 5.14047 6.56699 5.13047 5.00699C5.13047 4.50699 5.27047 4.01699 5.52047 3.57699C6.50047 1.91699 7.42047 1.06699 8.24047 1.06699M8.24047 0.916992C7.33047 0.916992 6.38047 1.80699 5.39047 3.49699C5.12047 3.95699 4.98047 4.47699 4.98047 5.00699C4.98047 6.57699 5.33047 7.84699 6.08047 8.78699C6.74047 10.017 7.41047 10.617 8.09047 10.617C8.73047 10.617 9.38047 10.087 10.0405 9.05699C10.1005 8.97699 10.1505 8.88699 10.2005 8.79699C11.0405 7.36699 11.2005 5.58699 10.7305 3.48699C9.95047 1.75699 9.12047 0.936993 8.25047 0.936993L8.24047 0.916992Z" fill="#5E5E5A"/>
</svg>
