<svg width="17" height="19" viewBox="0 0 17 19" fill="none" xmlns="http://www.w3.org/2000/svg">
<path d="M3.80775 7.73695C2.80775 10.907 2.04775 13.907 2.11775 16.367C2.12775 16.867 2.23775 17.367 2.45775 17.817C2.75775 18.407 3.07775 18.497 3.42775 18.017C3.58775 17.787 3.69775 17.517 3.74775 17.237L4.58775 13.297C4.78775 12.387 5.31775 11.557 6.11775 11.077C6.63775 10.767 7.17775 10.647 7.72775 10.737C8.37775 10.847 8.93775 11.247 9.30775 11.787C10.0878 12.887 11.7678 16.087 11.7678 16.087C12.5478 17.207 13.0078 17.147 13.1078 15.797C13.1578 14.117 11.5978 10.437 10.1278 7.62695L3.77775 7.73695H3.80775Z" fill="#F4DE9C" stroke="#5E5E5A" stroke-width="0.15" stroke-linecap="round" stroke-linejoin="round"/>
<path d="M16.7809 10.6872H2.35094C1.17094 10.6872 0.210938 9.72723 0.210938 8.54723C0.210938 7.36723 1.17094 6.40723 2.35094 6.40723H16.7809" fill="#FFE4E3"/>
<path d="M16.7809 10.6872H2.35094C1.17094 10.6872 0.210938 9.72723 0.210938 8.54723C0.210938 7.36723 1.17094 6.40723 2.35094 6.40723H16.7809" stroke="#5E5E5A" stroke-width="0.15" stroke-miterlimit="10"/>
<path d="M7.04819 9.05707C6.16819 9.05707 5.23819 8.71708 4.28819 8.03708C4.13819 7.92708 3.99819 7.80707 3.85819 7.67707C3.53819 7.36707 3.29819 7.01707 3.13819 6.62707C2.73819 5.64707 2.58819 4.52707 2.70819 3.19707C2.75819 2.62707 2.96819 2.11707 3.31819 1.75707C3.67819 1.36707 4.10819 1.18707 4.61819 1.18707C5.02819 1.18707 5.49819 1.31707 6.00819 1.56707C6.21819 1.74707 6.46819 1.83707 6.75819 1.83707C7.15819 1.83707 7.61819 1.65707 8.13819 1.27707C8.60819 1.09707 9.07819 0.99707 9.49819 0.99707C10.0982 0.99707 10.6382 1.18707 11.1082 1.55707C11.8882 2.51707 11.9382 3.92707 11.2382 5.73707C10.9682 6.43707 10.5882 7.05707 10.1182 7.57707C9.85819 7.86707 9.55819 8.11707 9.24819 8.33707C8.53819 8.81707 7.80819 9.06707 7.05819 9.06707L7.04819 9.05707Z" fill="white"/>
<path d="M9.49905 1.06699C10.0791 1.06699 10.5991 1.24699 11.0391 1.58699C11.8091 2.53699 11.8591 3.92699 11.1691 5.70699C10.8991 6.40699 10.529 7.01699 10.069 7.51699C9.80905 7.80699 9.51905 8.05699 9.20905 8.26699C8.51905 8.73699 7.78905 8.97699 7.05905 8.97699C6.18905 8.97699 5.27905 8.63699 4.34905 7.97699C4.19905 7.86699 4.05905 7.75699 3.92905 7.62699C3.61905 7.32699 3.37905 6.97699 3.22905 6.59699C2.82905 5.62699 2.68905 4.51699 2.79905 3.20699C2.84905 2.65699 3.04905 2.15699 3.38905 1.80699C3.73905 1.43699 4.13905 1.25699 4.62905 1.25699C5.02905 1.25699 5.47905 1.37699 5.94905 1.60699C6.18905 1.80699 6.45905 1.90699 6.75905 1.90699C7.17905 1.90699 7.63905 1.71699 8.16905 1.33699C8.64905 1.15699 9.09905 1.06699 9.50905 1.06699M9.50905 0.916992C9.06905 0.916992 8.59905 1.01699 8.09905 1.20699C7.61905 1.54699 7.16905 1.75699 6.75905 1.75699C6.49905 1.75699 6.25905 1.67699 6.04905 1.49699C5.53905 1.24699 5.05905 1.10699 4.62905 1.10699C4.11905 1.10699 3.65905 1.29699 3.27905 1.70699C2.89905 2.10699 2.69905 2.64699 2.64905 3.19699C2.53905 4.45699 2.64905 5.61699 3.08905 6.65699C3.25905 7.06699 3.50905 7.42699 3.82905 7.73699C3.96905 7.86699 4.10905 7.99699 4.26905 8.10699C5.22905 8.78699 6.15905 9.13699 7.06905 9.13699C7.82905 9.13699 8.57905 8.897 9.29905 8.397C9.62905 8.177 9.91905 7.91699 10.1891 7.62699C10.6791 7.08699 11.059 6.44699 11.319 5.76699C12.029 3.93699 11.9891 2.50699 11.1691 1.50699C10.6791 1.11699 10.1291 0.926991 9.51905 0.926991L9.50905 0.916992Z" fill="#5E5E5A"/>
</svg>
