<svg width="18" height="20" viewBox="0 0 18 20" fill="none" xmlns="http://www.w3.org/2000/svg">
<path d="M4.93797 8.32738C3.10797 10.9574 2.16797 14.5274 2.16797 18.2574C2.22797 19.3474 2.56797 19.5874 3.12797 19.1174C3.46797 18.8374 3.68797 18.4274 3.77797 17.9974C4.32797 15.5674 5.09797 13.5374 6.23797 12.1474C7.56797 10.8074 8.70797 10.8774 9.70797 11.9274C10.988 13.0874 11.658 14.9474 12.008 17.1574C12.058 17.4874 12.168 17.8174 12.358 18.0974C12.738 18.6674 13.128 18.7074 13.528 18.1674C13.728 17.8974 13.838 17.5774 13.888 17.2474C14.298 14.1674 13.758 11.2374 12.308 8.44738C12.288 8.40738 12.268 8.36738 12.238 8.31738H4.93797V8.32738Z" fill="#F4DE9C" stroke="#5E5E5A" stroke-width="0.15" stroke-linecap="round" stroke-linejoin="round"/>
<path d="M17.58 10.6872H3.14C1.96 10.6872 1 9.72723 1 8.54723H1.01C1.01 7.36723 1.97 6.40723 3.15 6.40723H17.58" fill="#FFE4E3"/>
<path d="M17.58 10.6872H3.14C1.96 10.6872 1 9.72723 1 8.54723H1.01C1.01 7.36723 1.97 6.40723 3.15 6.40723H17.58" stroke="#5E5E5A" stroke-width="0.15" stroke-miterlimit="10"/>
<path d="M8.43964 9.54711C7.24964 9.54711 6.04964 9.22711 4.87964 8.59711C4.40964 8.34711 4.05964 7.98711 3.86964 7.56711C3.70964 7.23711 3.60964 6.86711 3.56964 6.47711C3.39964 5.42711 3.40964 4.32711 3.59964 3.12711C3.65964 2.72711 3.83964 2.36711 4.11964 2.08711C4.61964 1.57711 5.06964 1.29711 5.50964 1.23711C5.78964 1.14711 6.05964 1.09711 6.32964 1.09711C6.74964 1.09711 7.17964 1.20711 7.60964 1.43711C7.61964 1.43711 7.70964 1.43711 7.71964 1.43711C7.93964 1.54711 8.18964 1.60711 8.43964 1.60711C8.68964 1.60711 8.93964 1.54711 9.18964 1.42711C10.0096 1.16711 10.7396 1.03711 11.4196 1.03711C12.1496 1.03711 12.7896 1.18711 13.3896 1.49711C13.7196 1.73711 13.9596 2.27711 14.0896 3.07711C14.2096 4.72711 13.7296 6.34711 12.5996 8.01711C12.5096 8.15711 12.3896 8.28711 12.2696 8.40711C12.0896 8.57711 11.8896 8.70711 11.6696 8.80711C10.5896 9.29711 9.50964 9.54711 8.44964 9.54711H8.43964Z" fill="white"/>
<path d="M11.4178 1.10754C12.1378 1.10754 12.7678 1.25754 13.3278 1.54754C13.6478 1.78754 13.8778 2.29754 13.9978 3.06754C14.1178 4.70754 13.6378 6.30754 12.5178 7.96754C12.4278 8.10754 12.3178 8.22754 12.1978 8.33754C12.0278 8.49754 11.8378 8.62754 11.6178 8.72754C10.5478 9.21754 9.4778 9.46754 8.4378 9.46754C7.2578 9.46754 6.06779 9.14754 4.91779 8.52754C4.46779 8.28754 4.12779 7.93754 3.93779 7.52754C3.78779 7.20754 3.68779 6.84754 3.64779 6.45754C3.47779 5.41754 3.48779 4.33754 3.67779 3.13754C3.73779 2.75754 3.90779 2.40754 4.17779 2.13754C4.66779 1.63754 5.10779 1.36754 5.54779 1.30754C5.80779 1.21754 6.06779 1.17754 6.33779 1.17754C6.74779 1.17754 7.16779 1.28754 7.58779 1.50754C7.60779 1.51754 7.63779 1.52754 7.65779 1.52754H7.69779C7.94779 1.63754 8.19779 1.69754 8.44779 1.69754C8.69779 1.69754 8.96779 1.63754 9.20779 1.51754C10.0278 1.25754 10.7578 1.12754 11.4178 1.12754M11.4178 0.977539C10.6978 0.977539 9.93779 1.12754 9.15779 1.37754C8.91779 1.48754 8.68779 1.54754 8.44779 1.54754C8.20779 1.54754 7.9678 1.48754 7.7278 1.37754H7.65779C7.22779 1.14754 6.78779 1.02754 6.33779 1.02754C6.05779 1.02754 5.78779 1.07754 5.50779 1.16754C5.01779 1.23754 4.54779 1.55754 4.07779 2.03754C3.78779 2.33754 3.59779 2.71754 3.53779 3.12754C3.35779 4.26754 3.31779 5.39754 3.50779 6.49754C3.54779 6.88754 3.64779 7.25754 3.80779 7.60754C4.02779 8.06754 4.40779 8.42754 4.84779 8.67754C6.02779 9.31754 7.21779 9.63754 8.44779 9.63754C9.50779 9.63754 10.5978 9.38754 11.6978 8.88754C11.9278 8.78754 12.1378 8.63754 12.3178 8.46754C12.4478 8.34754 12.5578 8.21754 12.6578 8.06754C13.7278 6.48754 14.2978 4.83754 14.1678 3.07754C14.0278 2.21754 13.7778 1.69754 13.4278 1.44754C12.7978 1.12754 12.1278 0.977539 11.4278 0.977539H11.4178Z" fill="#5E5E5A"/>
</svg>
