<svg width="11" height="28" viewBox="0 0 11 28" fill="none" xmlns="http://www.w3.org/2000/svg">
<path d="M1.62329 20.2996C2.20329 18.6496 2.94329 15.2896 2.68329 12.4596C2.42329 9.58957 3.58331 4.14957 4.45331 2.02957C4.77331 1.24957 5.17328 0.80957 5.55328 0.80957C6.20328 0.80957 6.76328 2.02957 7.05328 4.08957C7.33328 6.07957 7.7333 7.59957 8.0733 8.93957C8.4133 10.2596 8.7033 11.3996 8.8233 12.6596C8.9433 13.9896 9.16328 15.3396 9.36328 16.6496C9.55328 17.8496 9.75329 19.0996 9.87329 20.3096H1.61328L1.62329 20.2996Z" fill="#F4DE9C"/>
<path d="M5.56171 0.869727C6.03171 0.869727 6.6517 1.70973 6.9917 4.07973C7.2717 6.06973 7.67172 7.59973 8.01172 8.93973C8.35172 10.2497 8.64172 11.3897 8.76172 12.6497C8.88172 13.9797 9.1017 15.3397 9.3017 16.6497C9.4917 17.8197 9.6817 19.0397 9.8017 20.2197H1.72171C2.29171 18.5297 3.00171 15.2297 2.75171 12.4497C2.50171 9.58973 3.6517 4.16973 4.5217 2.04973C4.8317 1.29973 5.20171 0.869727 5.56171 0.869727ZM5.56171 0.719727C5.14171 0.719727 4.72172 1.17973 4.39172 1.98973C3.56172 4.00973 2.35169 9.45973 2.61169 12.4597C2.88169 15.4597 2.03172 18.9397 1.51172 20.3697H9.9617C9.7117 17.8197 9.1417 15.2197 8.9017 12.6397C8.6617 10.0597 7.69171 7.97973 7.13171 4.05973C6.80171 1.71973 6.1817 0.719727 5.5517 0.719727H5.56171Z" fill="#5E5E5A"/>
<path d="M6.65273 27.5093C6.36273 27.5093 6.08273 27.4893 5.81273 27.4693C5.55273 27.4493 5.30273 27.4293 5.06273 27.4293C4.95273 27.4293 4.84274 27.4293 4.73274 27.4493C4.57274 27.4693 4.42272 27.4693 4.27272 27.4693C3.34272 27.4693 2.64272 27.1893 2.27272 27.0393C2.17272 26.9993 2.09274 26.9693 2.04274 26.9593C1.28274 26.7893 0.932729 25.4793 1.09273 23.3893C1.30273 20.5593 2.27273 17.7493 2.84273 17.7093C3.43273 17.6693 3.88273 17.0693 4.31273 16.4893C4.75273 15.8893 5.21273 15.2793 5.81273 15.2793C6.56273 15.2793 7.47274 16.2293 8.60274 18.1793C8.88274 18.6693 9.12273 18.9093 9.34273 19.1293C9.74273 19.5393 10.0127 19.8093 10.1627 21.4693C10.4327 24.4693 10.2527 26.6993 9.70274 26.8793C9.40274 26.9793 9.09274 27.0393 8.79274 27.0993C8.46274 27.1693 8.15272 27.2293 7.86272 27.3393C7.50272 27.4693 7.12273 27.5293 6.65273 27.5293V27.5093Z" fill="white"/>
<path d="M5.81173 15.3397C6.53173 15.3397 7.42174 16.2797 8.54174 18.2097C8.83174 18.7097 9.08174 18.9697 9.29174 19.1797C9.68174 19.5797 9.94173 19.8397 10.0917 21.4697C10.3917 24.7797 10.1117 26.6597 9.68173 26.7997C9.38173 26.8997 9.08173 26.9597 8.78173 27.0197C8.45173 27.0897 8.14173 27.1497 7.84173 27.2597C7.49173 27.3897 7.12174 27.4497 6.66174 27.4497C6.38174 27.4497 6.09174 27.4297 5.82174 27.4097C5.56174 27.3897 5.31174 27.3697 5.07174 27.3697C4.95174 27.3697 4.84175 27.3697 4.73175 27.3897C4.57175 27.4097 4.42173 27.4097 4.28173 27.4097C3.36173 27.4097 2.68173 27.1397 2.31173 26.9897C2.20173 26.9497 2.12174 26.9097 2.07174 26.8997C1.35174 26.7297 1.02173 25.4597 1.18173 23.4097C1.40173 20.5597 2.38172 17.8297 2.86172 17.7897C3.49172 17.7397 3.94174 17.1297 4.38174 16.5397C4.81174 15.9597 5.26174 15.3597 5.82174 15.3597M5.81173 15.1897C4.57173 15.1897 3.99173 17.5397 2.84173 17.6197C1.70173 17.6997 -0.218265 26.5097 2.03173 27.0197C2.24173 27.0697 3.06172 27.5297 4.27172 27.5297C4.42172 27.5297 4.58173 27.5297 4.74173 27.5097C4.84173 27.4997 4.95173 27.4997 5.06173 27.4997C5.55173 27.4997 6.09173 27.5797 6.65173 27.5797C7.06173 27.5797 7.47175 27.5397 7.89175 27.3797C8.45175 27.1697 9.10175 27.1397 9.73175 26.9297C10.4217 26.6997 10.4717 23.9797 10.2417 21.4397C10.0117 18.8997 9.50175 19.5497 8.67175 18.1197C7.38175 15.8997 6.50173 15.1797 5.81173 15.1797V15.1897Z" fill="#5E5E5A"/>
<mask id="mask0_229_1198" style="mask-type:luminance" maskUnits="userSpaceOnUse" x="1" y="15" width="10" height="13">
<path d="M2.02249 27.0297C2.25249 27.0897 3.27251 27.6597 4.73251 27.5197C5.64251 27.4297 6.7725 27.7997 7.8825 27.3897C8.4425 27.1797 9.0925 27.1497 9.7225 26.9397C10.4125 26.7097 10.4625 23.9897 10.2325 21.4497C10.0025 18.9097 9.4925 19.5597 8.6625 18.1297C5.0425 11.8997 4.62248 17.4897 2.83248 17.6197C1.69248 17.6997 0.162486 26.5797 2.02249 27.0197V27.0297Z" fill="white"/>
</mask>
<g mask="url(#mask0_229_1198)">
<path opacity="0.75" d="M7.34233 29.0393C7.34233 29.0393 8.14233 25.7793 5.87233 25.7793C3.13233 25.7793 4.00233 29.0793 4.00233 29.0793L7.35234 29.0393H7.34233Z" fill="#E62C2F" stroke="#E62C2F" stroke-width="0.5" stroke-linecap="round" stroke-linejoin="round"/>
</g>
</svg>
