<svg width="9" height="27" viewBox="0 0 9 27" fill="none" xmlns="http://www.w3.org/2000/svg">
<path d="M0.730469 19.4304C1.08047 17.6204 1.15047 15.7904 1.20047 14.1804C1.25047 12.8004 1.29046 11.6204 1.50046 10.7304C1.97046 8.72039 2.70047 3.93039 2.57047 2.75039C2.50047 2.12039 2.66045 1.16039 2.99045 0.79039C3.08045 0.69039 3.17047 0.650391 3.26047 0.650391C3.46047 0.650391 3.81047 0.86039 4.29047 1.87039C5.20047 3.79039 5.67047 5.96039 6.04047 7.71039C6.21047 8.51039 6.36046 9.21039 6.53046 9.78039C7.09046 11.6904 7.94047 15.8204 8.01047 19.4304H0.730469Z" fill="#F4DE9C"/>
<path d="M3.26062 0.730078C3.38062 0.730078 3.71061 0.840078 4.22061 1.90008C5.13061 3.81008 5.59061 5.98008 5.97061 7.72008C6.14061 8.52008 6.2906 9.22008 6.4606 9.80008C7.0106 11.6901 7.85061 15.7701 7.94061 19.3601H0.830597C1.1706 17.5701 1.23061 15.7801 1.28061 14.1901C1.33061 12.8201 1.37062 11.6301 1.57062 10.7601C2.05062 8.75008 2.77062 3.94008 2.64062 2.76008C2.57062 2.15008 2.73062 1.20008 3.04062 0.860078C3.11062 0.780078 3.18062 0.740078 3.26062 0.740078M3.26062 0.580078C2.68062 0.580078 2.4106 1.97008 2.4906 2.77008C2.6206 3.97008 1.88062 8.77008 1.42062 10.7201C0.960624 12.6701 1.31063 16.1301 0.640625 19.5101H8.09061C8.02061 15.8501 7.14062 11.6201 6.60062 9.76008C6.06062 7.90008 5.68062 4.62008 4.35062 1.84008C3.91062 0.920078 3.55062 0.580078 3.26062 0.580078Z" fill="#5E5E5A"/>
<path d="M6.50164 26.5103C6.24164 26.5103 5.95164 26.4104 5.63164 26.2104C5.13164 25.9004 4.71165 25.7504 4.32165 25.7504C4.07165 25.7504 3.85164 25.8103 3.63164 25.8703C3.42164 25.9303 3.19163 25.9904 2.93163 25.9904C2.52163 25.9904 2.07164 25.8403 1.53164 25.5303C0.721637 25.0603 0.701641 22.8004 0.691641 21.1504C0.691641 20.8104 0.691631 20.4904 0.681631 20.2004C0.641631 18.8704 1.22163 17.4404 2.18163 16.4504C2.86163 15.7504 3.67164 15.3604 4.44164 15.3604C5.38164 15.3604 6.27164 15.9204 7.00164 16.9904L7.16164 17.2204C7.91164 18.3004 8.25164 18.7904 8.25164 21.7404C8.25164 23.9204 7.89163 25.5403 7.24163 26.1903C7.03163 26.4103 6.78164 26.5204 6.50164 26.5204V26.5103Z" fill="white"/>
<path d="M4.44131 15.44C5.36131 15.44 6.22131 15.99 6.94131 17.04L7.10131 17.27C7.84131 18.33 8.1713 18.82 8.1813 21.74C8.1813 23.9 7.83131 25.5 7.19131 26.14C6.99131 26.34 6.76131 26.44 6.51131 26.44C6.26131 26.44 5.9813 26.34 5.6813 26.15C5.1713 25.83 4.74129 25.68 4.33129 25.68C4.06129 25.68 3.8413 25.74 3.6213 25.8C3.4013 25.86 3.19131 25.92 2.94131 25.92C2.54131 25.92 2.11131 25.78 1.57131 25.47C0.791312 25.02 0.781293 22.79 0.771293 21.15C0.771293 20.81 0.771314 20.49 0.761314 20.2C0.721314 18.89 1.29129 17.48 2.24129 16.51C2.91129 15.82 3.69132 15.44 4.45132 15.44M4.44131 15.29C2.40131 15.29 0.54129 17.82 0.61129 20.2C0.66129 21.96 0.481304 25 1.5013 25.59C2.1313 25.96 2.58131 26.06 2.94131 26.06C3.48131 26.06 3.83129 25.82 4.33129 25.82C4.66129 25.82 5.05131 25.92 5.60131 26.27C5.94131 26.48 6.24131 26.58 6.51131 26.58C7.80131 26.58 8.33129 24.36 8.33129 21.73C8.33129 18.56 7.92131 18.19 7.07131 16.95C6.26131 15.77 5.34132 15.29 4.45132 15.29H4.44131Z" fill="#5E5E5A"/>
<mask id="mask0_229_1126" style="mask-type:luminance" maskUnits="userSpaceOnUse" x="0" y="15" width="9" height="12">
<path d="M1.45036 25.5501C0.430356 24.9601 0.720357 21.9401 0.670357 20.1801C0.580357 16.7601 4.34033 13.0101 7.02033 16.9101C7.87033 18.1601 8.28034 18.5201 8.28034 21.6901C8.28034 24.8601 7.51033 27.4501 5.55033 26.2301C3.60033 25.0101 3.64036 26.8101 1.45036 25.5501Z" fill="white"/>
</mask>
<g mask="url(#mask0_229_1126)">
<path opacity="0.75" d="M6.13923 27.6203C6.13923 27.6203 6.93922 24.3604 4.66922 24.3604C1.92922 24.3604 2.7992 27.6604 2.7992 27.6604L6.1492 27.6203H6.13923Z" fill="#E62C2F" stroke="#E62C2F" stroke-width="0.5" stroke-linecap="round" stroke-linejoin="round"/>
</g>
</svg>
