<svg width="10" height="32" viewBox="0 0 10 32" fill="none" xmlns="http://www.w3.org/2000/svg">
<path d="M1.34985 21.8203C1.78985 20.2403 1.79984 18.1103 1.80984 15.6703C1.80984 14.5503 1.81984 13.3703 1.86984 12.1803C2.02984 8.43031 2.52985 2.53031 3.06985 1.18031C3.28985 0.640313 3.57983 0.320312 3.85983 0.320312C4.27983 0.320312 4.60986 1.03031 4.75986 2.21031C4.96986 3.90031 5.51985 5.34031 6.09985 6.87031C6.34985 7.54031 6.60985 8.21031 6.84985 8.93031C7.21985 10.0503 7.25984 12.3503 7.29984 14.7803C7.33984 17.4003 7.38983 20.1203 7.82983 21.8303H1.33984L1.34985 21.8203Z" fill="#F4DE9C"/>
<path d="M3.87 0.380469C4.16 0.380469 4.53001 0.860469 4.70001 2.21047C4.91001 3.91047 5.45999 5.36047 6.04999 6.89047C6.29999 7.55047 6.55999 8.23047 6.79999 8.95047C7.16999 10.0605 7.19999 12.3505 7.23999 14.7705C7.27999 17.3505 7.32 20.0205 7.75 21.7505H1.45001C1.86001 20.1705 1.88001 18.0805 1.89001 15.6705C1.89001 14.5405 1.90001 13.3705 1.95001 12.1805C2.10001 8.53047 2.61999 2.53047 3.14999 1.20047C3.34999 0.700469 3.63 0.380469 3.87 0.380469ZM3.87 0.230469C3.56 0.230469 3.24001 0.560469 3.01001 1.14047C2.48001 2.47047 1.95999 8.35047 1.79999 12.1705C1.63999 15.9905 1.92 19.5905 1.25 21.9005H7.94C7.03 18.6205 7.70999 11.2505 6.92999 8.90047C6.15999 6.55047 5.14 4.61047 4.84 2.19047C4.67 0.810469 4.27 0.230469 3.87 0.230469Z" fill="#5E5E5A"/>
<path d="M5.59031 31.5099C4.81031 31.5099 4.06031 31.2299 3.43031 30.6899C2.87031 30.2099 2.36032 30.0399 1.91032 29.8899C1.18032 29.6399 0.650305 29.4599 0.330305 28.0999C-0.0296953 26.5899 0.530321 24.6899 0.940321 23.3099C1.08032 22.8399 1.20033 22.4299 1.26033 22.1099C1.50033 20.8799 3.30032 19.3799 4.53032 19.3799H4.64033C5.91033 19.4799 7.61033 20.4999 7.82033 21.3199C8.02033 22.0799 8.22032 22.7699 8.41032 23.4199C9.30032 26.4799 9.84032 28.3299 8.16032 30.2899C7.47032 31.0899 6.56031 31.5299 5.59031 31.5299V31.5099Z" fill="white"/>
<path d="M4.54 19.44C4.54 19.44 4.61001 19.44 4.64001 19.44C5.89001 19.53 7.54999 20.53 7.74999 21.32C7.94999 22.08 8.14999 22.76 8.33999 23.42C9.21999 26.46 9.75 28.29 8.1 30.21C7.43 30.99 6.52998 31.43 5.57998 31.43C4.81998 31.43 4.09 31.15 3.47 30.63C2.9 30.14 2.37999 29.97 1.92999 29.81C1.21999 29.57 0.709988 29.4 0.399988 28.07C0.0399878 26.58 0.600004 24.69 1.01 23.31C1.15 22.83 1.26999 22.42 1.33999 22.1C1.55999 21 3.25 19.43 4.54 19.43M4.54 19.29C3.23 19.29 1.43 20.87 1.19 22.08C0.949996 23.33 -0.240006 26.05 0.249994 28.11C0.789994 30.36 1.90999 29.5 3.36999 30.74C4.02999 31.3 4.8 31.58 5.57 31.58C6.52 31.58 7.47001 31.16 8.20001 30.31C10.26 27.91 9.03 25.64 7.88 21.28C7.66 20.44 5.95 19.39 4.63 19.29C4.59 19.29 4.55998 19.29 4.51998 19.29H4.54Z" fill="#5E5E5A"/>
<mask id="mask0_229_1114" style="mask-type:luminance" maskUnits="userSpaceOnUse" x="0" y="19" width="10" height="13">
<path d="M0.259859 28.1107C-0.230141 26.0607 1.03986 23.3207 1.28986 22.0707C1.52986 20.8207 3.33985 19.2007 4.65985 19.2907C5.97985 19.3907 7.68985 20.4407 7.90985 21.2807C9.04985 25.6407 10.2899 27.9107 8.22986 30.3107C6.90986 31.8407 4.85984 31.9907 3.39984 30.7407C1.93984 29.4907 0.809848 30.3607 0.279848 28.1107H0.259859Z" fill="white"/>
</mask>
<g mask="url(#mask0_229_1114)">
<path opacity="0.75" d="M6.24156 33.4005C6.29156 32.9605 7.21157 29.7705 4.72157 29.7705C1.96157 29.7705 2.88158 33.3505 2.88158 33.3505L6.24156 33.3905V33.4005Z" fill="#E62C2F" stroke="#E62C2F" stroke-width="0.5" stroke-linecap="round" stroke-linejoin="round"/>
</g>
</svg>
