<svg width="12" height="28" viewBox="0 0 12 28" fill="none" xmlns="http://www.w3.org/2000/svg">
<path d="M7.01994 5.19977C6.81994 2.38977 6.62994 0.259766 7.10994 0.259766C8.78994 0.259766 9.76994 6.37977 9.82994 7.09977C9.93994 8.52977 9.95995 10.3698 9.99995 11.6298C10.13 15.4998 10.39 18.2098 10.39 18.2098C9.04997 15.1298 8.50994 12.5498 8.26994 10.7698C8.15994 9.97977 7.67994 7.70976 7.01994 5.18976V5.19977Z" fill="#EDD091" stroke="#5E5E5A" stroke-width="0.15" stroke-linecap="round" stroke-linejoin="round"/>
<path d="M10.3919 18.2197L6.67188 18.1797L10.3919 18.2197Z" fill="#EDD091" stroke="#5E5E5A" stroke-width="0.15" stroke-linecap="round" stroke-linejoin="round"/>
<path d="M10.3908 18.2198L1.80078 18.1098C1.80078 18.1098 3.7908 10.1498 3.9408 1.89977C3.9408 1.50977 4.2608 0.259766 4.8508 0.259766C5.5508 0.259766 5.90079 1.27977 6.03079 1.69977C7.16079 5.30977 8.11078 9.62977 8.27078 10.7798C8.51078 12.5598 9.05081 15.1398 10.3908 18.2198Z" fill="#F4DE9C" stroke="#5E5E5A" stroke-width="0.15" stroke-linecap="round" stroke-linejoin="round"/>
<path d="M0.660156 23.4998C0.660156 21.5498 1.25015 18.5098 2.37015 17.1998C3.11015 16.3298 4.71015 15.5398 5.93015 15.7098C7.15015 15.8798 7.59014 17.2898 8.52014 17.2498C9.44014 17.2098 10.2802 17.0098 10.4702 18.7598C10.6702 20.5198 11.0602 20.6598 11.2302 21.7898C11.4002 22.9098 11.7902 23.8698 9.69016 24.7098C7.59016 25.5498 7.07014 28.0898 5.21014 27.5298C3.34014 26.9698 3.59014 25.8998 2.27014 25.4098C0.950142 24.9198 0.660156 24.2398 0.660156 23.5098V23.4998Z" fill="white" stroke="#5E5E5A" stroke-width="0.15" stroke-linecap="round" stroke-linejoin="round"/>
<mask id="mask0_229_1402" style="mask-type:luminance" maskUnits="userSpaceOnUse" x="0" y="15" width="12" height="13">
<path d="M0.71875 23.5C0.71875 21.55 1.69874 18.08 2.42874 17.2C3.15874 16.32 4.76874 15.54 5.98874 15.71C7.20874 15.88 7.64874 17.29 8.57874 17.25C9.49874 17.21 10.3387 17.01 10.5287 18.76C10.7287 20.52 11.1188 20.66 11.2888 21.79C11.4588 22.91 11.8487 23.87 9.74875 24.71C7.64875 25.55 7.12874 28.09 5.26874 27.53C3.39874 26.97 3.64874 25.9 2.32874 25.41C1.00874 24.92 0.71875 24.24 0.71875 23.51V23.5Z" fill="white"/>
</mask>
<g mask="url(#mask0_229_1402)">
<path opacity="0.75" d="M7.5189 29.4001C7.5189 29.4001 8.10891 25.6201 5.71891 25.6201C2.93891 25.6201 3.53892 29.3201 3.53892 29.3201L7.5189 29.4001Z" fill="#E62C2F" stroke="#E62C2F" stroke-width="0.5" stroke-linecap="round" stroke-linejoin="round"/>
</g>
</svg>
