<svg width="9" height="26" viewBox="0 0 9 26" fill="none" xmlns="http://www.w3.org/2000/svg">
<path d="M0.820312 17.1304C2.40031 13.5004 3.0103 11.7004 2.7303 8.77035C2.4803 6.11035 2.9803 3.44035 4.1503 1.26035C4.5403 0.530352 4.9803 0.110352 5.3403 0.110352C5.4703 0.110352 5.59031 0.170352 5.69031 0.280352C6.00031 0.620352 6.11031 1.42035 6.00031 2.46035C5.83031 4.02035 6.2803 4.94035 6.7603 5.92035C7.1203 6.65035 7.4903 7.41035 7.6703 8.52035C8.3003 12.6004 8.6303 15.5004 8.6403 17.1204H0.820312V17.1304Z" fill="#F4DE9C"/>
<path d="M5.33922 0.180274C5.44922 0.180274 5.54923 0.230273 5.62923 0.320273C5.91923 0.650273 6.02922 1.42027 5.91922 2.44027C5.74922 4.02027 6.20922 4.95027 6.68922 5.94027C7.04922 6.67027 7.41922 7.42027 7.58922 8.52027C8.20922 12.5403 8.53922 15.4003 8.55922 17.0403H0.929214C2.47921 13.4703 3.07922 11.6803 2.79922 8.75027C2.54922 6.10027 3.04923 3.45027 4.20923 1.28027C4.57923 0.580273 4.99922 0.170274 5.32922 0.170274M5.33922 0.0302734C4.96922 0.0302734 4.50922 0.420274 4.07922 1.22027C3.01922 3.20027 2.36922 5.84027 2.64922 8.77027C2.92922 11.7003 2.33922 13.4203 0.699219 17.2003H8.70923C8.70923 15.0703 8.13922 11.1403 7.72922 8.51027C7.31922 5.88027 5.76922 5.15027 6.05922 2.47027C6.22922 0.870274 5.86922 0.0402737 5.32922 0.0402737L5.33922 0.0302734Z" fill="#5E5E5A"/>
<path d="M4.46753 25.5107C3.73753 25.5107 3.07753 25.2707 2.96753 24.9607C2.83753 24.5907 2.36753 24.4507 1.87753 24.3007C1.36753 24.1407 0.847525 23.9807 0.607525 23.5807C0.357525 23.1507 -0.042471 19.1007 0.767529 17.2607C0.987529 16.7607 1.28752 16.4607 1.63752 16.3907C2.15752 16.2807 2.40752 15.9307 2.78752 15.4107C2.97752 15.1507 3.20753 14.8407 3.51753 14.4907C3.70753 14.2807 3.90752 14.1807 4.14752 14.1807C4.85752 14.1807 5.65752 15.0707 6.08752 15.5407L6.19752 15.6607C6.47752 15.9607 6.86753 15.9807 7.21753 15.9807H7.63752C7.92752 15.9807 8.22753 16.0007 8.45753 16.1507C9.03753 16.5507 8.73752 20.8407 8.42752 22.0307C8.26752 22.6307 7.81753 23.0407 7.32753 23.4707C6.91753 23.8307 6.49753 24.2107 6.18753 24.7507C5.90753 25.2207 5.26753 25.5107 4.46753 25.5107Z" fill="white"/>
<path d="M4.14838 14.2604C4.81838 14.2604 5.60838 15.1304 6.03838 15.6004L6.14838 15.7204C6.42838 16.0304 6.82838 16.0704 7.22838 16.0704H7.43838H7.64838C7.92838 16.0704 8.21838 16.0904 8.42838 16.2404C8.92838 16.5904 8.69838 20.7804 8.36838 22.0404C8.21838 22.6204 7.78839 23.0004 7.29839 23.4404C6.88839 23.8104 6.45838 24.1904 6.13838 24.7304C5.87838 25.1804 5.25838 25.4504 4.47838 25.4504C3.69838 25.4504 3.13839 25.1904 3.04839 24.9504C2.90839 24.5504 2.41839 24.4004 1.90839 24.2404C1.41839 24.0904 0.898375 23.9304 0.678375 23.5604C0.428375 23.1304 0.0383786 19.1304 0.838379 17.3104C1.04838 16.8304 1.32839 16.5504 1.65839 16.4804C2.20839 16.3604 2.47838 15.9904 2.85838 15.4704C3.04838 15.2004 3.26838 14.9004 3.57838 14.5504C3.74838 14.3604 3.93839 14.2704 4.15839 14.2704M4.14838 14.1104C3.90838 14.1104 3.66839 14.2104 3.45839 14.4404C2.53839 15.4704 2.36838 16.1604 1.61838 16.3204C-0.341623 16.7304 0.188376 23.0204 0.538376 23.6204C1.02838 24.4504 2.64838 24.3004 2.89838 24.9904C3.02838 25.3404 3.72838 25.5904 4.46838 25.5904C5.20838 25.5904 5.91838 25.3704 6.25838 24.8004C6.93838 23.6304 8.20838 23.1904 8.50838 22.0704C8.79838 20.9504 9.13838 16.5504 8.50838 16.1104C8.26838 15.9404 7.95838 15.9204 7.64838 15.9204C7.50838 15.9204 7.36838 15.9204 7.22838 15.9204C6.85838 15.9204 6.50839 15.8804 6.26839 15.6204C5.85839 15.1704 4.96839 14.1104 4.15839 14.1104H4.14838Z" fill="#5E5E5A"/>
<mask id="mask0_229_1138" style="mask-type:luminance" maskUnits="userSpaceOnUse" x="0" y="14" width="9" height="12">
<path d="M0.549492 23.6198C1.03949 24.4498 2.65949 24.2998 2.90949 24.9898C3.14949 25.6698 5.57948 25.9698 6.25948 24.7898C6.93948 23.6198 8.20948 23.1798 8.50948 22.0598C8.79948 20.9398 9.13948 16.5398 8.50948 16.0998C7.87948 15.6598 6.80949 16.1998 6.26949 15.6098C5.72949 15.0198 4.38949 13.4098 3.46949 14.4398C2.54949 15.4698 2.38949 16.1998 1.62949 16.3198C-0.0405058 16.5798 0.199492 23.0198 0.549492 23.6198Z" fill="white"/>
</mask>
<g mask="url(#mask0_229_1138)">
<path opacity="0.75" d="M6.36833 27.7C6.36833 27.7 7.30833 23.64 4.88833 23.54C1.77833 23.41 2.60833 27.74 2.60833 27.74L6.36833 27.7Z" fill="#E62C2F" stroke="#E62C2F" stroke-width="0.2" stroke-linecap="round" stroke-linejoin="round"/>
</g>
</svg>
