<svg width="13" height="28" viewBox="0 0 13 28" fill="none" xmlns="http://www.w3.org/2000/svg">
<path d="M8.10173 2.47967C7.87173 0.199666 6.47172 0.789666 6.37172 2.69967C6.27172 4.60967 5.41172 8.38967 4.26172 12.1397L8.28172 12.6297C8.64172 11.2497 8.34173 4.75967 8.10173 2.47967Z" fill="#F4DE9C" stroke="#5E5E5A" stroke-width="0.15" stroke-miterlimit="10"/>
<path d="M1.23828 18.2601C2.30828 15.9101 2.80828 16.1001 2.31828 13.8501C1.82828 11.6001 0.878271 9.09015 2.36827 5.32015C3.85827 1.55015 6.13828 -0.199853 5.71828 2.47015C5.29828 5.14015 4.63827 7.98015 5.36827 10.0101C6.09827 12.0401 7.75827 12.5201 8.28827 10.1901C8.81827 7.86015 8.84828 6.16015 8.87828 4.65015C8.90828 3.15015 9.14828 0.0701462 10.3283 2.07015C11.4983 4.07015 12.3383 7.23015 11.9183 11.3101C11.9183 11.3101 10.9583 16.4801 11.8383 18.2701H1.23828V18.2601Z" fill="#F4DE9C" stroke="#5E5E5A" stroke-width="0.15" stroke-linecap="round" stroke-linejoin="round"/>
<path d="M8.45935 27.5294C7.95935 27.5294 7.50935 27.3494 7.15935 27.0094C6.92935 26.7794 6.68935 26.6794 6.38935 26.6794C6.27935 26.6794 6.15935 26.6894 6.04935 26.7094C5.93935 26.7194 5.83934 26.7394 5.72934 26.7394C5.57934 26.7394 5.44935 26.7094 5.32935 26.6394C5.15935 26.5394 5.00935 26.4094 4.87935 26.2794C4.68935 26.0994 4.50935 25.9294 4.27935 25.9294C4.10935 25.9294 3.92934 26.0294 3.72934 26.2194C3.46934 26.4794 3.03935 26.6194 2.54935 26.6194C1.82935 26.6194 1.14936 26.3094 0.819355 25.8394C0.199355 24.9394 0.509343 19.6294 1.25934 18.2694C1.73934 17.3894 2.11934 17.2694 2.42934 17.2694C2.61934 17.2694 2.80935 17.3194 3.01935 17.3794C3.25935 17.4394 3.50934 17.5094 3.78934 17.5094C4.02934 17.5094 4.26935 17.4594 4.49935 17.3494C5.14935 17.0594 5.82934 16.8994 6.47934 16.8994C7.35934 16.8994 8.12935 17.1794 8.71935 17.7194C9.04935 18.0194 9.43934 18.1594 9.92934 18.1594C10.2393 18.1594 10.5494 18.0994 10.8194 18.0494C11.0494 18.0094 11.2493 17.9694 11.4293 17.9694C11.6693 17.9694 11.7993 18.0494 11.8693 18.2294C12.1693 19.0094 12.0994 21.4794 11.3794 24.5294C10.8894 26.5894 9.55935 27.5094 8.45935 27.5094V27.5294Z" fill="white"/>
<path d="M6.4901 16.9996C7.3501 16.9996 8.10009 17.2796 8.68009 17.7996C9.02009 18.1096 9.4301 18.2596 9.9401 18.2596C10.2601 18.2596 10.5701 18.1996 10.8501 18.1496C11.0701 18.1096 11.2801 18.0696 11.4401 18.0696C11.6801 18.0696 11.7701 18.1496 11.8101 18.2796C12.1101 19.0496 12.0401 21.4996 11.3201 24.5396C10.8401 26.5596 9.5401 27.4596 8.4701 27.4596C7.9901 27.4596 7.56009 27.2896 7.23009 26.9596C6.98009 26.7196 6.7201 26.6096 6.4101 26.6096C6.2901 26.6096 6.18009 26.6196 6.06009 26.6396C5.96009 26.6496 5.8601 26.6696 5.7501 26.6696C5.6101 26.6696 5.5001 26.6396 5.3901 26.5796C5.2201 26.4896 5.09009 26.3596 4.95009 26.2396C4.75009 26.0496 4.5601 25.8696 4.3001 25.8696C4.1101 25.8696 3.91009 25.9696 3.70009 26.1896C3.46009 26.4296 3.0501 26.5696 2.5701 26.5696C1.8701 26.5696 1.22009 26.2796 0.900091 25.8196C0.290091 24.9296 0.600093 19.6796 1.34009 18.3296C1.80009 17.4896 2.1601 17.3696 2.4401 17.3696C2.6201 17.3696 2.81009 17.4196 3.01009 17.4696C3.24009 17.5296 3.5101 17.5996 3.8001 17.5996C4.0501 17.5996 4.30009 17.5496 4.54009 17.4396C5.18009 17.1496 5.8501 16.9996 6.4901 16.9996ZM6.4901 16.8496C5.8101 16.8496 5.12009 17.0196 4.48009 17.2996C4.24009 17.4096 4.0101 17.4496 3.8001 17.4496C3.2801 17.4496 2.8601 17.2096 2.4401 17.2096C2.0401 17.2096 1.65009 17.4196 1.20009 18.2496C0.430094 19.6496 0.130101 24.9696 0.770101 25.8996C1.1401 26.4396 1.88009 26.7196 2.56009 26.7196C3.05009 26.7196 3.5101 26.5796 3.8001 26.2896C4.0001 26.0896 4.1601 26.0196 4.3001 26.0196C4.6501 26.0196 4.8801 26.4796 5.3201 26.7196C5.4701 26.7996 5.6101 26.8196 5.7501 26.8196C5.9701 26.8196 6.1801 26.7596 6.4101 26.7596C6.6401 26.7596 6.8701 26.8196 7.1301 27.0696C7.5001 27.4296 7.98009 27.6096 8.48009 27.6096C9.66009 27.6096 11.0001 26.5996 11.4801 24.5796C12.1601 21.6996 12.3101 19.1096 11.9701 18.2296C11.8801 17.9996 11.7001 17.9296 11.4601 17.9296C11.0701 17.9296 10.5201 18.1196 9.9601 18.1196C9.5601 18.1196 9.1601 18.0196 8.8001 17.6996C8.1501 17.1096 7.35009 16.8596 6.51009 16.8596L6.4901 16.8496Z" fill="#5E5E5A"/>
<mask id="mask0_229_1180" style="mask-type:luminance" maskUnits="userSpaceOnUse" x="0" y="16" width="13" height="12">
<path d="M1.34912 18.2295C0.579122 19.6295 0.129111 24.9695 0.759111 25.8995C1.38911 26.8295 3.09911 26.9695 3.78911 26.2895C4.47911 25.6095 4.68912 26.3795 5.29912 26.7195C5.90912 27.0495 6.44912 26.4295 7.10912 27.0795C8.35912 28.2995 10.7691 27.4695 11.4591 24.5895C12.1391 21.7095 12.2891 19.1195 11.9491 18.2395C11.6091 17.3595 9.94911 18.7795 8.77911 17.6995C7.60911 16.6295 5.89911 16.6695 4.47911 17.3095C3.05911 17.9495 2.47912 16.1895 1.35912 18.2395L1.34912 18.2295Z" fill="white"/>
</mask>
<g mask="url(#mask0_229_1180)">
<path opacity="0.75" d="M7.1486 28.6394C7.1486 28.6394 8.63861 24.6094 5.45861 24.6094C2.63861 24.6094 3.73861 28.6594 3.73861 28.6594L7.1486 28.6394Z" fill="#E62C2F" stroke="#E62C2F" stroke-width="0.2" stroke-linecap="round" stroke-linejoin="round"/>
</g>
</svg>
