<svg width="14" height="25" viewBox="0 0 14 25" fill="none" xmlns="http://www.w3.org/2000/svg">
<path d="M5.32031 10.5802C6.59031 7.31016 7.5403 4.15016 7.7303 2.52016C7.8303 1.67016 8.2303 1.16016 8.5603 1.16016C8.8203 1.16016 9.12031 1.49016 9.16031 2.43016C9.25031 4.43016 9.1703 9.93016 8.7903 11.2302L5.32031 10.5802Z" fill="#F4DE9C"/>
<path d="M8.56093 1.23008C8.78093 1.23008 9.05093 1.54008 9.09093 2.43008C9.17093 4.34008 9.09094 9.75008 8.74094 11.1401L5.43092 10.5201C6.69092 7.27008 7.62093 4.15008 7.81093 2.53008C7.91093 1.72008 8.27094 1.24008 8.57094 1.24008M8.56093 1.08008C8.18093 1.08008 7.76092 1.62008 7.65092 2.51008C7.45092 4.17008 6.47094 7.42008 5.21094 10.6301L8.83093 11.3101C9.23093 10.1301 9.31093 4.43008 9.23093 2.42008C9.19093 1.49008 8.89093 1.08008 8.55093 1.08008H8.56093Z" fill="#5E5E5A"/>
<path d="M1.80859 16.2699C2.60859 14.7799 2.5786 13.6399 2.5186 11.4299C2.5086 10.9199 2.48859 10.3599 2.47859 9.71992C2.44859 6.87992 3.8786 4.22992 4.7386 2.64992C4.9186 2.30992 5.0786 2.01992 5.1886 1.79992C5.4586 1.21992 5.9686 0.749922 6.3186 0.749922C6.4086 0.749922 6.48859 0.789921 6.53859 0.859921C6.64859 0.999921 6.7686 1.40992 6.4386 2.56992C5.2186 6.75992 5.1686 9.32992 6.2986 10.1999C6.5286 10.3799 6.75859 10.4699 6.97859 10.4699C7.84859 10.4699 8.42859 9.13992 8.92859 7.95992C9.04859 7.66992 9.16859 7.39992 9.28859 7.16992C9.93859 5.83992 10.4786 3.39992 10.2186 2.10992C10.1086 1.53992 10.2186 0.839922 10.4586 0.549922C10.5286 0.469922 10.5986 0.419922 10.6786 0.419922C10.8086 0.419922 11.1486 0.549922 11.5786 1.73992C12.2386 3.52992 12.3986 5.41992 12.5386 7.07992C12.6086 7.86992 12.6686 8.61992 12.7786 9.26992C13.1186 11.2499 13.1186 13.5999 12.7786 16.4499L1.8186 16.2899L1.80859 16.2699Z" fill="#F4DE9C"/>
<path d="M10.6775 0.480078C10.8575 0.480078 11.1675 0.810078 11.5075 1.75008C12.1575 3.53008 12.3175 5.41008 12.4575 7.07008C12.5275 7.86008 12.5875 8.62008 12.6975 9.27008C13.0375 11.2301 13.0375 13.5501 12.6975 16.3601L1.92749 16.2001C2.67749 14.7401 2.6475 13.6001 2.5975 11.4301C2.5875 10.9201 2.5675 10.3601 2.5575 9.72008C2.5275 6.90008 3.9575 4.26008 4.8075 2.68008C4.9875 2.34008 5.14749 2.05008 5.25749 1.82008C5.53749 1.22008 6.0375 0.810079 6.3175 0.810079C6.3875 0.810079 6.43749 0.840079 6.47749 0.890079C6.55749 1.00008 6.70749 1.37008 6.36749 2.53008C5.11749 6.82008 5.0875 9.34008 6.2475 10.2401C6.4875 10.4301 6.73749 10.5201 6.97749 10.5201C7.89749 10.5201 8.4875 9.16008 8.9975 7.96008C9.1175 7.67008 9.2375 7.40008 9.3575 7.17008C10.0175 5.83008 10.5475 3.36008 10.2875 2.06008C10.1775 1.52008 10.2875 0.840079 10.5075 0.560079C10.5575 0.490079 10.6175 0.460078 10.6675 0.460078M10.6775 0.330078C10.2375 0.330078 9.98749 1.34008 10.1475 2.11008C10.3975 3.35008 9.89749 5.76008 9.22749 7.13008C8.66749 8.28008 8.0175 10.3901 6.9875 10.3901C6.7875 10.3901 6.5775 10.3101 6.3475 10.1401C4.9275 9.04008 5.7175 5.35008 6.5175 2.59008C6.9275 1.19008 6.7075 0.670078 6.3275 0.670078C5.9575 0.670078 5.4175 1.15008 5.1275 1.76008C4.5475 3.01008 2.3775 6.23008 2.4175 9.72008C2.4575 13.2101 2.7375 14.4701 1.6875 16.3501L12.8375 16.5101C13.1875 13.6501 13.1975 11.2401 12.8475 9.24008C12.4975 7.24008 12.6275 4.37008 11.6475 1.70008C11.2775 0.700078 10.9375 0.330078 10.6775 0.330078Z" fill="#5E5E5A"/>
<path d="M9.25098 24.5097C8.28098 24.5097 7.28098 23.8497 6.56098 23.3597C6.19098 23.1097 5.90097 22.9197 5.68097 22.8497C5.58097 22.8197 5.47098 22.8097 5.36098 22.8097C5.14098 22.8097 4.91098 22.8597 4.67098 22.9097C4.38098 22.9697 4.06098 23.0497 3.70098 23.0497C3.20098 23.0497 2.70098 22.9097 2.19098 22.6197C1.67098 22.3297 1.30098 21.7497 1.11098 20.9697C0.730983 19.4397 1.11098 17.3697 2.03098 15.9397C3.01098 14.4097 4.36098 14.1797 5.08098 14.1797C5.61098 14.1797 6.14099 14.2997 6.49099 14.5097C7.03099 14.8197 7.57098 14.9697 8.15098 14.9697C8.69098 14.9697 9.18098 14.8497 9.65098 14.7297C10.071 14.6197 10.471 14.5197 10.861 14.5197C11.551 14.5197 12.101 14.8497 12.651 15.5997C13.491 16.7597 12.621 22.1297 10.661 23.9397C10.251 24.3197 9.79099 24.5097 9.27099 24.5097H9.25098Z" fill="white"/>
<path d="M5.05921 14.2498C5.57921 14.2498 6.08921 14.3698 6.43921 14.5698C6.98921 14.8898 7.53921 15.0398 8.13921 15.0398C8.68921 15.0398 9.17921 14.9098 9.65921 14.7898C10.0792 14.6798 10.4692 14.5798 10.8492 14.5798C11.5192 14.5798 12.0492 14.9098 12.5692 15.6298C13.3892 16.7798 12.5292 22.0798 10.5892 23.8798C10.1892 24.2498 9.74921 24.4298 9.24921 24.4298C8.29921 24.4298 7.31922 23.7698 6.59922 23.2898C6.21922 23.0398 5.92921 22.8398 5.69921 22.7698C5.58921 22.7398 5.47921 22.7198 5.35921 22.7198C5.12921 22.7198 4.89921 22.7698 4.64921 22.8298C4.34921 22.8998 4.04921 22.9598 3.68921 22.9598C3.19921 22.9598 2.71921 22.8198 2.21921 22.5398C1.71921 22.2498 1.35921 21.6998 1.16921 20.9398C0.79921 19.4298 1.16921 17.3798 2.07921 15.9598C3.03921 14.4598 4.35921 14.2398 5.05921 14.2398M5.05921 14.0998C4.04921 14.0998 2.82921 14.5198 1.94921 15.8898C0.539209 18.0898 0.439205 21.6998 2.14921 22.6798C2.74921 23.0198 3.24921 23.1198 3.69921 23.1198C4.37921 23.1198 4.89921 22.8798 5.36921 22.8798C5.46921 22.8798 5.56921 22.8898 5.66921 22.9198C6.28921 23.0998 7.77921 24.5798 9.25921 24.5798C9.74921 24.5798 10.2392 24.4198 10.6992 23.9898C12.6892 22.1498 13.5792 16.7698 12.6992 15.5498C12.0792 14.6798 11.4692 14.4298 10.8492 14.4298C10.0092 14.4298 9.13921 14.8798 8.13921 14.8798C7.63921 14.8798 7.09922 14.7698 6.51922 14.4298C6.19922 14.2398 5.66922 14.0898 5.06922 14.0898L5.05921 14.0998Z" fill="#5E5E5A"/>
<mask id="mask0_229_1165" style="mask-type:luminance" maskUnits="userSpaceOnUse" x="0" y="14" width="14" height="11">
<path d="M1.68923 16.3498C0.639231 18.6398 0.519222 21.6798 2.14922 22.6798C3.77922 23.6798 4.83923 22.6798 5.66923 22.9198C6.49923 23.1598 8.92922 25.7698 10.8992 23.6898C12.5692 21.9298 13.5792 16.7598 12.6992 15.5398C10.8092 12.9198 9.16923 15.9098 6.51923 14.4298C5.36923 13.7898 2.72922 14.0898 1.69923 16.3398L1.68923 16.3498Z" fill="white"/>
</mask>
<g mask="url(#mask0_229_1165)">
<path opacity="0.75" d="M7.68768 25.6198C7.68768 25.6198 9.17767 21.5898 5.99767 21.5898C3.17767 21.5898 4.27767 25.6398 4.27767 25.6398L7.68768 25.6198Z" fill="#E62C2F" stroke="#E62C2F" stroke-width="0.2" stroke-linecap="round" stroke-linejoin="round"/>
</g>
</svg>
