<svg width="11" height="24" viewBox="0 0 11 24" fill="none" xmlns="http://www.w3.org/2000/svg">
<path d="M3.51953 11.0505C4.23953 7.61047 4.64953 4.34047 4.56953 2.71047C4.53953 2.13047 4.66953 1.64047 4.91953 1.38047C5.00953 1.28047 5.11953 1.23047 5.21953 1.23047C5.45953 1.23047 5.78953 1.53047 5.96953 2.39047C6.38953 4.35047 7.20953 9.79047 7.04953 11.1305L3.51953 11.0605V11.0505Z" fill="#F4DE9C"/>
<path d="M5.21797 1.30062C5.41797 1.30062 5.71797 1.59062 5.88797 2.40062C6.28797 4.27062 7.09797 9.62062 6.96797 11.0506L3.59798 10.9806C4.30798 7.57062 4.70797 4.34062 4.63797 2.71062C4.60797 2.05062 4.78797 1.62062 4.96797 1.43062C5.02797 1.37062 5.10797 1.30062 5.21797 1.30062ZM5.21797 1.15062C4.81797 1.15062 4.44798 1.76062 4.48798 2.71062C4.56798 4.38062 4.12797 7.75063 3.41797 11.1206L7.09798 11.1906C7.29798 9.96063 6.44797 4.32062 6.02797 2.36062C5.84797 1.51062 5.51798 1.14062 5.20798 1.14062L5.21797 1.15062Z" fill="#5E5E5A"/>
<path d="M0.498276 16.5303C1.20828 14.2503 0.908281 11.9503 0.738281 10.5703C0.708281 10.3103 0.678279 10.0803 0.658279 9.89027C0.618279 9.41027 0.958282 8.34027 1.34828 7.10027C1.86828 5.45027 2.46828 3.58027 2.35828 2.45027C2.30828 1.84027 2.43828 1.28027 2.71828 0.980273C2.83828 0.850273 2.96828 0.780273 3.10828 0.780273C3.46828 0.780273 3.92827 1.31027 4.03827 2.81027C4.11827 3.87027 3.99827 5.18027 3.86827 6.44027C3.68827 8.33027 3.51828 10.1203 4.09828 10.7603C4.24828 10.9303 4.44828 11.0103 4.68828 11.0103C4.74828 11.0103 4.80828 11.0103 4.87828 10.9903C5.70828 10.8603 6.33828 10.4803 6.73828 9.88027C7.30828 9.03027 7.41827 7.74027 7.05827 6.16027C6.61827 4.24027 6.27827 1.76027 6.78827 1.12027C6.86827 1.02027 6.95828 0.980273 7.06828 0.980273C7.11828 0.980273 7.16828 0.980274 7.21828 1.00027C8.21828 1.31027 8.78828 3.83027 9.20828 5.68027L9.33827 6.27027C9.52827 7.09027 9.51827 8.53027 9.50827 10.2003C9.49827 12.2503 9.47827 14.5603 9.80827 16.5203H0.488281L0.498276 16.5303Z" fill="#F4DE9C"/>
<path d="M3.10844 0.85043C3.45844 0.85043 3.85844 1.45043 3.96844 2.81043C4.04844 3.86043 3.92845 5.17043 3.79845 6.42043C3.60845 8.41043 3.43845 10.1304 4.04845 10.7904C4.21845 10.9704 4.43844 11.0704 4.69844 11.0704C4.75844 11.0704 4.82844 11.0704 4.89844 11.0504C5.74844 10.9104 6.38844 10.5304 6.80844 9.91043C7.38844 9.04043 7.50844 7.74043 7.13844 6.13043C6.55844 3.62043 6.44844 1.67043 6.85844 1.16043C6.91844 1.08043 6.98845 1.05043 7.07845 1.05043C7.11845 1.05043 7.15845 1.05043 7.20845 1.07043C8.16845 1.37043 8.75844 3.97043 9.14844 5.69043C9.19844 5.90043 9.23844 6.10043 9.27844 6.28043C9.46844 7.09043 9.45844 8.53043 9.44844 10.2004C9.42844 12.2204 9.41845 14.5004 9.73845 16.4504H0.608444C1.28844 14.1904 0.998451 11.9204 0.818451 10.5604C0.788451 10.3004 0.758449 10.0704 0.738449 9.89043C0.698449 9.42043 1.04844 8.31043 1.42844 7.13043C1.94844 5.48043 2.54844 3.60043 2.44844 2.45043C2.38844 1.75043 2.57844 1.26043 2.78844 1.04043C2.85844 0.96043 2.97844 0.87043 3.11844 0.87043M3.10844 0.70043C2.63844 0.70043 2.19844 1.42043 2.28844 2.45043C2.46844 4.43043 0.478445 8.75043 0.578445 9.89043C0.678445 11.0404 1.27844 13.8504 0.398438 16.5904H9.90845C9.27845 13.0104 9.84844 8.08043 9.41844 6.24043C8.98844 4.40043 8.40845 1.27043 7.23845 0.91043C7.17845 0.89043 7.11844 0.88043 7.05844 0.88043C6.10844 0.88043 6.41844 3.74043 6.97844 6.15043C7.56844 8.69043 6.94844 10.5504 4.85844 10.8904C4.79844 10.9004 4.73844 10.9104 4.67844 10.9104C2.86844 10.9104 4.32845 5.82043 4.09845 2.78043C3.98845 1.28043 3.51844 0.69043 3.08844 0.69043L3.10844 0.70043Z" fill="#5E5E5A"/>
<path d="M8.29654 23.5106C7.87654 23.5106 7.44654 23.3306 7.13654 23.2006C6.97654 23.1306 6.84654 23.0806 6.75654 23.0606H6.65655C6.45655 23.0606 6.21654 23.1606 5.96654 23.2706C5.68654 23.3906 5.40654 23.5106 5.13654 23.5106C4.94654 23.5106 4.78654 23.4406 4.64654 23.3106C4.26654 22.9306 3.94655 22.8606 3.48655 22.8606C3.32655 22.8606 3.13653 22.8606 2.92653 22.8806C2.62653 22.9006 2.25654 22.9106 1.80654 22.9106C1.45654 22.9106 1.14655 22.7006 0.876546 22.2906C-0.00345379 20.9406 -0.0934629 17.9206 0.476537 16.6406C0.726537 16.0706 0.986534 16.0006 1.17653 16.0006C1.29653 16.0006 1.41653 16.0306 1.53653 16.0606C1.65653 16.0906 1.78654 16.1206 1.91654 16.1206C2.13654 16.1206 2.30655 16.0306 2.45655 15.8206C3.46655 14.4406 4.11655 13.8506 4.62655 13.8506C4.91655 13.8506 5.16655 14.0306 5.48655 14.2706C5.98655 14.6406 6.61655 15.1006 7.76655 15.1006C8.07655 15.1006 8.40654 15.0706 8.75654 15.0006C8.80654 15.0006 8.86654 14.9806 8.91654 14.9806C9.13654 14.9806 9.31654 15.0706 9.47654 15.2706C10.2665 16.2206 10.1965 19.3406 9.73655 21.7906C9.51655 22.9606 9.04654 23.5306 8.30654 23.5306L8.29654 23.5106Z" fill="white"/>
<path d="M4.61809 13.9102C4.88809 13.9102 5.12809 14.0902 5.43809 14.3102C5.92809 14.6702 6.58809 15.1502 7.75809 15.1502C8.06809 15.1502 8.40809 15.1202 8.75809 15.0502C8.80809 15.0502 8.85809 15.0402 8.89809 15.0402C9.08809 15.0402 9.25809 15.1202 9.39809 15.3002C10.1681 16.2302 10.0981 19.3202 9.63809 21.7502C9.42809 22.8802 8.98808 23.4302 8.28808 23.4302C7.88808 23.4302 7.4681 23.2502 7.1581 23.1202C6.9981 23.0502 6.86809 23.0002 6.75809 22.9802C6.71809 22.9802 6.67809 22.9702 6.63809 22.9702C6.41809 22.9702 6.17809 23.0702 5.91809 23.1802C5.64809 23.2902 5.36809 23.4102 5.11809 23.4102C4.94809 23.4102 4.80809 23.3502 4.68809 23.2302C4.28809 22.8302 3.95809 22.7502 3.47809 22.7502C3.31809 22.7502 3.1281 22.7502 2.9081 22.7702C2.6081 22.7902 2.23808 22.8002 1.78808 22.8002C1.46808 22.8002 1.17808 22.6002 0.928084 22.2202C0.0680843 20.8902 -0.0319096 17.9002 0.52809 16.6402C0.76809 16.1102 0.988095 16.0402 1.1581 16.0402C1.2681 16.0402 1.37809 16.0702 1.49809 16.1002C1.62809 16.1302 1.75809 16.1702 1.89809 16.1702C2.13809 16.1702 2.33809 16.0602 2.49809 15.8402C3.49809 14.4802 4.1281 13.9002 4.5981 13.9002M4.61809 13.7602C4.12809 13.7602 3.51809 14.2302 2.38809 15.7602C2.23809 15.9602 2.0781 16.0302 1.9081 16.0302C1.6681 16.0302 1.41809 15.9002 1.16809 15.9002C0.90809 15.9002 0.648086 16.0402 0.398086 16.5902C-0.371914 18.3102 0.0780946 22.9602 1.79809 22.9602C2.57809 22.9602 3.0981 22.9002 3.4881 22.9002C3.9581 22.9002 4.2481 22.9802 4.5981 23.3302C4.7581 23.4902 4.94809 23.5502 5.13809 23.5502C5.66809 23.5502 6.2581 23.1002 6.6581 23.1002C6.6881 23.1002 6.71809 23.1002 6.74809 23.1002C7.01809 23.1502 7.66809 23.5602 8.29809 23.5602C8.92809 23.5602 9.52809 23.1902 9.79809 21.7602C10.3281 18.9602 10.3981 14.8702 8.9081 14.8702C8.8481 14.8702 8.7981 14.8702 8.7381 14.8902C8.3781 14.9602 8.0581 14.9902 7.7681 14.9902C5.9181 14.9902 5.4281 13.7402 4.6281 13.7402L4.61809 13.7602Z" fill="#5E5E5A"/>
<mask id="mask0_229_1150" style="mask-type:luminance" maskUnits="userSpaceOnUse" x="0" y="13" width="11" height="11">
<path d="M0.468127 16.5706C-0.301873 18.2906 0.03812 22.9606 1.75812 22.9606C3.47812 22.9606 3.90813 22.6906 4.54813 23.3406C5.18813 23.9906 6.15812 23.0206 6.69812 23.1306C7.23812 23.2406 9.20813 24.6806 9.74813 21.7906C10.2981 18.8906 10.3481 14.5906 8.67812 14.9206C4.55812 15.7206 5.56812 11.3806 2.33812 15.7806C1.74812 16.5906 1.09813 15.1406 0.458132 16.5906L0.468127 16.5706Z" fill="white"/>
</mask>
<g mask="url(#mask0_229_1150)">
<path opacity="0.75" d="M6.34678 25.5706C6.34678 25.5706 8.18677 21.6006 5.00677 21.6006C2.18677 21.6006 3.69677 25.5406 3.69677 25.5406L6.34678 25.5706Z" fill="#E62C2F" stroke="#E62C2F" stroke-width="0.2" stroke-linecap="round" stroke-linejoin="round"/>
</g>
</svg>
