<svg width="11" height="28" viewBox="0 0 11 28" fill="none" xmlns="http://www.w3.org/2000/svg">
<path d="M1.29126 20.3203C1.41126 19.1103 1.61124 17.8603 1.80124 16.6603C2.01124 15.3503 2.22125 14.0003 2.34125 12.6703C2.46125 11.4003 2.75125 10.2703 3.09125 8.95031C3.43125 7.61031 3.83124 6.09031 4.11124 4.10031C4.40124 2.05031 4.96124 0.820312 5.61124 0.820312C5.99124 0.820312 6.40124 1.27031 6.71124 2.04031C7.58124 4.16031 8.74126 9.60031 8.48126 12.4703C8.23126 15.3003 8.97126 18.6603 9.54126 20.3103H1.28125L1.29126 20.3203Z" fill="#F4DE9C"/>
<path d="M5.62094 0.9C5.97094 0.9 6.35095 1.33 6.66095 2.08C7.53095 4.2 8.68094 9.62 8.43094 12.48C8.18094 15.26 8.89094 18.56 9.46094 20.25H1.38095C1.50095 19.07 1.69095 17.86 1.88095 16.68C2.09095 15.37 2.30096 14.01 2.42096 12.68C2.54096 11.42 2.83096 10.29 3.17096 8.97C3.52096 7.63 3.91095 6.1 4.19095 4.11C4.53095 1.74 5.15094 0.9 5.62094 0.9ZM5.62094 0.75C5.00094 0.75 4.38095 1.75 4.04095 4.09C3.48095 8 2.51094 10.09 2.27094 12.67C2.03094 15.25 1.46094 17.85 1.21094 20.4H9.66095C9.14095 18.97 8.30094 15.49 8.56094 12.49C8.83094 9.49 7.61094 4.04 6.78094 2.02C6.45094 1.21 6.03093 0.75 5.61093 0.75H5.62094Z" fill="#5E5E5A"/>
<path d="M4.5185 27.53C4.0485 27.53 3.66851 27.47 3.30851 27.34C3.01851 27.23 2.70851 27.17 2.37851 27.11C2.07851 27.05 1.76851 26.99 1.46851 26.89C0.928509 26.71 0.738517 24.49 1.00852 21.48C1.15852 19.82 1.42849 19.55 1.82849 19.14C2.03849 18.92 2.28851 18.68 2.56851 18.19C3.69851 16.24 4.61849 15.29 5.35849 15.29C5.95849 15.29 6.41849 15.91 6.85849 16.5C7.28849 17.08 7.73849 17.68 8.32849 17.72C8.87849 17.76 9.86849 20.64 10.0785 23.41C10.2385 25.5 9.88851 26.8 9.12851 26.97C9.07851 26.98 9.0085 27.01 8.8985 27.05C8.5285 27.2 7.8385 27.48 6.8985 27.48C6.7485 27.48 6.59851 27.48 6.43851 27.46C6.32851 27.45 6.21849 27.44 6.10849 27.44C5.86849 27.44 5.61849 27.46 5.35849 27.48C5.08849 27.5 4.79852 27.52 4.50852 27.52L4.5185 27.53Z" fill="white"/>
<path d="M5.36975 15.36C5.92975 15.36 6.37975 15.96 6.80975 16.54C7.24975 17.13 7.70974 17.74 8.32974 17.79C8.79974 17.83 9.78976 20.56 10.0098 23.41C10.1698 25.46 9.83975 26.73 9.11975 26.9C9.06975 26.91 8.98976 26.94 8.87976 26.99C8.50976 27.14 7.82976 27.41 6.90976 27.41C6.75976 27.41 6.60975 27.41 6.45975 27.39C6.34975 27.38 6.23975 27.37 6.11975 27.37C5.87975 27.37 5.62975 27.39 5.36975 27.41C5.09975 27.43 4.81975 27.45 4.52975 27.45C4.06975 27.45 3.68976 27.39 3.34976 27.26C3.04976 27.15 2.73976 27.09 2.40976 27.02C2.10976 26.96 1.80977 26.9 1.50977 26.8C1.07977 26.66 0.799761 24.78 1.09976 21.47C1.24976 19.84 1.50975 19.58 1.89975 19.18C2.10975 18.97 2.35975 18.71 2.64975 18.21C3.76975 16.28 4.65976 15.34 5.37976 15.34M5.36975 15.21C4.68975 15.21 3.79977 15.93 2.50977 18.15C1.67977 19.58 1.16976 18.93 0.939758 21.47C0.709758 24.01 0.759768 26.73 1.44977 26.96C2.07977 27.17 2.71976 27.21 3.28976 27.41C3.69976 27.56 4.11975 27.61 4.52975 27.61C5.08975 27.61 5.62975 27.53 6.11975 27.53C6.22975 27.53 6.33976 27.53 6.43976 27.54C6.59976 27.56 6.75976 27.56 6.90976 27.56C8.10976 27.56 8.93975 27.1 9.14975 27.05C11.3997 26.53 9.47975 17.73 8.33975 17.65C7.18975 17.56 6.59975 15.22 5.36975 15.22V15.21Z" fill="#5E5E5A"/>
<mask id="mask0_229_1102" style="mask-type:luminance" maskUnits="userSpaceOnUse" x="0" y="15" width="11" height="13">
<path d="M9.16148 27.0502C8.93148 27.1102 7.91148 27.6802 6.45148 27.5402C5.54148 27.4502 4.41146 27.8202 3.30146 27.4102C2.74146 27.2002 2.09146 27.1702 1.46146 26.9602C0.771464 26.7302 0.721485 24.0102 0.951485 21.4702C1.18148 18.9302 1.69146 19.5802 2.52146 18.1502C6.14146 11.9202 6.56148 17.5102 8.35148 17.6402C9.49148 17.7202 11.0215 26.6002 9.16148 27.0402V27.0502Z" fill="white"/>
</mask>
<g mask="url(#mask0_229_1102)">
<path opacity="0.75" d="M3.83987 29.0598C3.83987 29.0598 3.03987 25.7998 5.30987 25.7998C8.04987 25.7998 7.17986 29.0998 7.17986 29.0998L3.82986 29.0598H3.83987Z" fill="#E62C2F" stroke="#E62C2F" stroke-width="0.5" stroke-linecap="round" stroke-linejoin="round"/>
</g>
</svg>
