<svg width="9" height="27" viewBox="0 0 9 27" fill="none" xmlns="http://www.w3.org/2000/svg">
<path d="M1.16797 19.4607C1.24797 15.8507 2.09795 11.7207 2.64795 9.81066C2.81795 9.23066 2.96797 8.54066 3.13797 7.74066C3.51797 5.99066 3.97797 3.82066 4.88797 1.90066C5.36797 0.890664 5.70797 0.680664 5.91797 0.680664C6.01797 0.680664 6.10796 0.730664 6.18796 0.820664C6.51796 1.19066 6.67794 2.15066 6.60794 2.78066C6.47794 3.96066 7.20795 8.75066 7.67795 10.7607C7.88795 11.6407 7.92797 12.8307 7.97797 14.2107C8.02797 15.8207 8.09797 17.6507 8.44797 19.4607H1.16797Z" fill="#F4DE9C"/>
<path d="M5.91986 0.760352C5.98986 0.760352 6.06986 0.800352 6.13986 0.880352C6.44986 1.22035 6.60986 2.17035 6.53986 2.78035C6.40986 3.97035 7.13983 8.77035 7.60983 10.7804C7.81983 11.6504 7.85984 12.8404 7.89984 14.2104C7.94984 15.8004 8.00985 17.5904 8.34985 19.3804H1.23984C1.32984 15.7904 2.16985 11.7104 2.71985 9.82035C2.88985 9.24035 3.03984 8.55035 3.20984 7.74035C3.57984 6.00035 4.04984 3.83035 4.95984 1.92035C5.45984 0.860352 5.79986 0.750351 5.91986 0.750351M5.91986 0.610352C5.62986 0.610352 5.25983 0.950351 4.82983 1.87035C3.50983 4.65035 3.12983 7.93035 2.57983 9.79035C2.03983 11.6504 1.15984 15.8804 1.08984 19.5404H8.53986C7.85986 16.1604 8.21986 12.7004 7.75986 10.7504C7.29986 8.80035 6.55985 3.99035 6.68985 2.80035C6.77985 2.00035 6.49986 0.610352 5.91986 0.610352Z" fill="#5E5E5A"/>
<path d="M2.66797 26.5301C2.39797 26.5301 2.14795 26.4201 1.92795 26.2001C1.28795 25.5501 0.917969 23.9301 0.917969 21.7501C0.917969 18.8001 1.26797 18.3101 2.00797 17.2301L2.16797 17.0001C2.89797 15.9301 3.78797 15.3701 4.72797 15.3701C5.50797 15.3701 6.30795 15.7601 6.98795 16.4601C7.94795 17.4501 8.51795 18.8801 8.48795 20.2101C8.48795 20.5001 8.48797 20.8201 8.47797 21.1601C8.47797 22.8101 8.45797 25.0701 7.63797 25.5401C7.08797 25.8601 6.63795 26.0001 6.23795 26.0001C5.97795 26.0001 5.74796 25.9401 5.53796 25.8801C5.32796 25.8201 5.10796 25.7601 4.84796 25.7601C4.45796 25.7601 4.03796 25.9101 3.53796 26.2201C3.22796 26.4201 2.92797 26.5201 2.66797 26.5201V26.5301Z" fill="white"/>
<path d="M4.73938 15.4605C5.49938 15.4605 6.2794 15.8405 6.9494 16.5305C7.8994 17.5005 8.45938 18.9205 8.42938 20.2205C8.42938 20.5105 8.4294 20.8305 8.4194 21.1705C8.4194 22.8005 8.39938 25.0405 7.61938 25.4905C7.07938 25.8005 6.64939 25.9405 6.24939 25.9405C5.99939 25.9405 5.7894 25.8805 5.5694 25.8205C5.3494 25.7605 5.12938 25.7005 4.85938 25.7005C4.44938 25.7005 4.0194 25.8505 3.5094 26.1705C3.2094 26.3605 2.92938 26.4605 2.67938 26.4605C2.42938 26.4605 2.19939 26.3605 1.99939 26.1605C1.36939 25.5305 1.0094 23.9305 1.0094 21.7605C1.0094 18.8305 1.34939 18.3505 2.08939 17.2905L2.24939 17.0605C2.96939 16.0205 3.82939 15.4605 4.74939 15.4605M4.73938 15.3105C3.84938 15.3105 2.92938 15.7905 2.11938 16.9705C1.26938 18.2205 0.859375 18.5805 0.859375 21.7505C0.859375 24.3705 1.38938 26.6005 2.67938 26.6005C2.94938 26.6005 3.24939 26.5005 3.58939 26.2905C4.13939 25.9505 4.52937 25.8405 4.85938 25.8405C5.35938 25.8405 5.70939 26.0805 6.24939 26.0805C6.60939 26.0805 7.05939 25.9705 7.68939 25.6105C8.70939 25.0205 8.52938 21.9805 8.57938 20.2205C8.64938 17.8405 6.78939 15.3105 4.74939 15.3105H4.73938Z" fill="#5E5E5A"/>
<mask id="mask0_229_835" style="mask-type:luminance" maskUnits="userSpaceOnUse" x="0" y="15" width="9" height="12">
<path d="M7.72845 25.5706C8.74845 24.9806 8.45845 21.9606 8.50845 20.2006C8.59845 16.7806 4.83845 13.0306 2.15845 16.9306C1.30845 18.1806 0.898438 18.5406 0.898438 21.7106C0.898438 24.8806 1.66845 27.4706 3.62845 26.2506C5.57845 25.0306 5.53845 26.8306 7.72845 25.5706Z" fill="white"/>
</mask>
<g mask="url(#mask0_229_835)">
<path opacity="0.75" d="M3.03909 27.6409C3.03909 27.6409 2.23909 24.3809 4.50909 24.3809C7.24909 24.3809 6.37908 27.6809 6.37908 27.6809L3.02908 27.6409H3.03909Z" fill="#E62C2F" stroke="#E62C2F" stroke-width="0.5" stroke-linecap="round" stroke-linejoin="round"/>
</g>
</svg>
