<svg width="11" height="32" viewBox="0 0 11 32" fill="none" xmlns="http://www.w3.org/2000/svg">
<path d="M2.33813 21.8498C2.78813 20.1398 2.82813 17.4198 2.86813 14.7998C2.90813 12.3698 2.94815 10.0698 3.31815 8.94984C3.55815 8.22984 3.81815 7.54984 4.06815 6.88984C4.64815 5.35984 5.19814 3.91984 5.40814 2.22984C5.55814 1.04984 5.88814 0.339844 6.30814 0.339844C6.58814 0.339844 6.87814 0.659844 7.09814 1.19984C7.63814 2.54984 8.13813 8.44984 8.29813 12.1998C8.34813 13.3998 8.35812 14.5698 8.35812 15.6898C8.36812 18.1398 8.38815 20.2598 8.81815 21.8398H2.32812L2.33813 21.8498Z" fill="#F4DE9C"/>
<path d="M6.30829 0.409766C6.54829 0.409766 6.82829 0.719766 7.02829 1.22977C7.55829 2.54977 8.0683 8.55977 8.2283 12.2098C8.2783 13.4098 8.2883 14.5698 8.2883 15.6998C8.2983 18.1098 8.3183 20.1998 8.7283 21.7798H2.42828C2.85828 20.0498 2.89829 17.3898 2.93829 14.7998C2.97829 12.3798 3.0183 10.0898 3.3783 8.97976C3.6183 8.26976 3.8783 7.57977 4.1283 6.91977C4.7183 5.38977 5.2683 3.93977 5.4783 2.23977C5.6483 0.889765 6.01829 0.409766 6.30829 0.409766ZM6.30829 0.259766C5.89829 0.259766 5.49829 0.839765 5.33829 2.21977C5.03829 4.63977 4.02829 6.57977 3.24829 8.92977C2.47829 11.2798 3.14828 18.6498 2.23828 21.9298H8.92828C8.25828 19.6198 8.5383 16.0198 8.3783 12.1998C8.2183 8.37977 7.7083 2.50977 7.1683 1.16977C6.9383 0.589766 6.61829 0.259766 6.30829 0.259766Z" fill="#5E5E5A"/>
<path d="M4.59147 31.5296C3.62147 31.5296 2.71146 31.0896 2.02146 30.2896C0.341465 28.3396 0.881465 26.4896 1.77146 23.4196C1.96146 22.7796 2.16146 22.0796 2.36146 21.3196C2.57146 20.5096 4.27148 19.4796 5.54148 19.3896H5.65147C6.88147 19.3896 8.68149 20.8896 8.92149 22.1196C8.98149 22.4396 9.10147 22.8496 9.24147 23.3196C9.65147 24.6996 10.2115 26.5996 9.85148 28.1196C9.52148 29.4896 9.00146 29.6596 8.27146 29.9096C7.82146 30.0596 7.31148 30.2396 6.75148 30.7096C6.12148 31.2496 5.37147 31.5296 4.59147 31.5296Z" fill="white"/>
<path d="M5.62985 19.4693C6.91985 19.4693 8.60983 21.0393 8.82983 22.1393C8.88983 22.4593 9.00985 22.8693 9.15985 23.3493C9.56985 24.7293 10.1298 26.6093 9.76983 28.1093C9.44983 29.4393 8.93983 29.6093 8.23983 29.8493C7.78983 29.9993 7.26986 30.1793 6.69986 30.6693C6.07986 31.1893 5.34984 31.4693 4.58984 31.4693C3.63984 31.4693 2.74985 31.0393 2.06985 30.2493C0.419851 28.3293 0.949831 26.4893 1.82983 23.4593C2.01983 22.7993 2.21986 22.1193 2.41986 21.3593C2.62986 20.5693 4.27984 19.5693 5.52984 19.4793C5.55984 19.4793 5.59985 19.4793 5.62985 19.4793M5.62985 19.3193C5.62985 19.3193 5.54983 19.3193 5.51983 19.3193C4.19983 19.4193 2.48983 20.4693 2.26983 21.3093C1.12983 25.6693 -0.110144 27.9393 1.94986 30.3393C2.67986 31.1893 3.62983 31.6093 4.57983 31.6093C5.34983 31.6093 6.12984 31.3293 6.77984 30.7693C8.23984 29.5193 9.36984 30.3893 9.89984 28.1393C10.3898 26.0893 9.20984 23.3593 8.95984 22.1093C8.71984 20.8993 6.92983 19.3193 5.60983 19.3193H5.62985Z" fill="#5E5E5A"/>
<mask id="mask0_229_823" style="mask-type:luminance" maskUnits="userSpaceOnUse" x="0" y="19" width="11" height="13">
<path d="M9.91986 28.14C10.4099 26.09 9.13986 23.35 8.88986 22.1C8.64986 20.85 6.83983 19.23 5.51983 19.32C4.19983 19.42 2.48983 20.47 2.26983 21.31C1.12983 25.67 -0.110144 27.94 1.94986 30.34C3.26986 31.87 5.31984 32.02 6.77984 30.77C8.23984 29.52 9.36984 30.39 9.89984 28.14H9.91986Z" fill="white"/>
</mask>
<g mask="url(#mask0_229_823)">
<path opacity="0.75" d="M3.92948 33.42C3.87948 32.98 2.9595 29.79 5.4495 29.79C8.2095 29.79 7.2895 33.37 7.2895 33.37L3.92948 33.41V33.42Z" fill="#E62C2F" stroke="#E62C2F" stroke-width="0.5" stroke-linecap="round" stroke-linejoin="round"/>
</g>
</svg>
