<svg width="12" height="28" viewBox="0 0 12 28" fill="none" xmlns="http://www.w3.org/2000/svg">
<path d="M5.10046 5.19977C5.30046 2.38977 5.49047 0.259766 5.01047 0.259766C3.33047 0.259766 2.35047 6.37977 2.29047 7.09977C2.18047 8.52977 2.16045 10.3698 2.12045 11.6298C1.99045 15.4998 1.73047 18.2098 1.73047 18.2098C3.07047 15.1298 3.61046 12.5498 3.85046 10.7698C3.96046 9.97977 4.44046 7.70976 5.10046 5.18976V5.19977Z" fill="#EDD091" stroke="#5E5E5A" stroke-width="0.15" stroke-linecap="round" stroke-linejoin="round"/>
<path d="M1.74219 18.2197L5.45221 18.1797L1.74219 18.2197Z" fill="#EDD091" stroke="#5E5E5A" stroke-width="0.15" stroke-linecap="round" stroke-linejoin="round"/>
<path d="M1.74219 18.2198L10.3322 18.1098C10.3322 18.1098 8.3422 10.1498 8.1922 1.89977C8.1922 1.50977 7.8722 0.259766 7.2822 0.259766C6.5822 0.259766 6.2322 1.27977 6.1022 1.69977C4.9722 5.30977 4.02218 9.62977 3.86218 10.7798C3.62218 12.5598 3.08219 15.1398 1.74219 18.2198Z" fill="#F4DE9C" stroke="#5E5E5A" stroke-width="0.15" stroke-linecap="round" stroke-linejoin="round"/>
<path d="M11.4593 23.53C11.4593 21.58 10.8693 18.54 9.74931 17.23C9.00931 16.36 7.40931 15.57 6.18931 15.74C4.96931 15.91 4.52932 17.32 3.59932 17.28C2.67932 17.24 1.8393 17.04 1.6493 18.79C1.4493 20.55 1.05932 20.69 0.889324 21.82C0.719324 22.94 0.329303 23.9 2.4293 24.74C4.5293 25.58 5.04931 28.12 6.90931 27.56C8.77931 27 8.52932 25.93 9.84932 25.44C11.1693 24.95 11.4593 24.27 11.4593 23.54V23.53Z" fill="white" stroke="#5E5E5A" stroke-width="0.15" stroke-linecap="round" stroke-linejoin="round"/>
<mask id="mask0_229_1401" style="mask-type:luminance" maskUnits="userSpaceOnUse" x="0" y="15" width="12" height="13">
<path d="M11.4593 23.5303C11.4593 21.5803 10.4793 18.1103 9.74931 17.2303C9.01931 16.3503 7.40931 15.5703 6.18931 15.7403C4.96931 15.9103 4.52932 17.3203 3.59932 17.2803C2.67932 17.2403 1.8393 17.0403 1.6493 18.7903C1.4493 20.5503 1.05932 20.6903 0.889324 21.8203C0.719324 22.9403 0.329303 23.9003 2.4293 24.7403C4.5293 25.5803 5.04931 28.1203 6.90931 27.5603C8.77931 27.0003 8.52932 25.9303 9.84932 25.4403C11.1693 24.9503 11.4593 24.2703 11.4593 23.5403V23.5303Z" fill="white"/>
</mask>
<g mask="url(#mask0_229_1401)">
<path opacity="0.75" d="M4.65039 29.4304C4.65039 29.4304 4.06041 25.6504 6.45041 25.6504C9.23041 25.6504 8.6304 29.3504 8.6304 29.3504L4.65039 29.4304Z" fill="#E62C2F" stroke="#E62C2F" stroke-width="0.5" stroke-linecap="round" stroke-linejoin="round"/>
</g>
</svg>
