<svg width="9" height="26" viewBox="0 0 9 26" fill="none" xmlns="http://www.w3.org/2000/svg">
<path d="M0.535156 17.1496C0.555156 15.5296 0.875137 12.6396 1.51514 8.54965C1.68514 7.43965 2.05516 6.67965 2.41516 5.94965C2.89516 4.97965 3.34514 4.05965 3.17514 2.48965C3.06514 1.44965 3.17514 0.649649 3.48514 0.309649C3.58514 0.199649 3.70514 0.139648 3.83514 0.139648C4.19514 0.139648 4.63515 0.559648 5.02515 1.28965C6.19515 3.46965 6.69516 6.13965 6.44516 8.79965C6.16516 11.7296 6.77513 13.5296 8.35513 17.1596H0.535156V17.1496Z" fill="#F4DE9C"/>
<path d="M3.83704 0.20957C4.16704 0.20957 4.58703 0.62957 4.95703 1.31957C6.11703 3.48957 6.61703 6.13957 6.36703 8.78957C6.08703 11.7096 6.68703 13.5096 8.23703 17.0796H0.607025C0.637025 15.4396 0.957026 12.5796 1.57703 8.55957C1.74703 7.45957 2.11705 6.70957 2.47705 5.97957C2.95705 4.99957 3.41704 4.06957 3.24704 2.47957C3.13704 1.45957 3.24705 0.67957 3.53705 0.35957C3.62705 0.25957 3.71703 0.21957 3.82703 0.21957M3.83704 0.0595703C3.29704 0.0595703 2.93703 0.89957 3.10703 2.48957C3.39703 5.17957 1.84704 5.89957 1.43704 8.52957C1.02704 11.1596 0.467031 15.0896 0.457031 17.2196H8.46704C6.82704 13.4496 6.23703 11.7196 6.51703 8.79957C6.79703 5.86957 6.14704 3.22957 5.08704 1.24957C4.65704 0.44957 4.19703 0.0595703 3.82703 0.0595703H3.83704Z" fill="#5E5E5A"/>
<path d="M4.69854 25.5295C3.89854 25.5295 3.25853 25.2495 2.97853 24.7695C2.66853 24.2395 2.24852 23.8595 1.83852 23.4895C1.35852 23.0595 0.898514 22.6495 0.738514 22.0495C0.428514 20.8695 0.128515 16.5795 0.708515 16.1695C0.938515 16.0095 1.23852 15.9895 1.52852 15.9895H1.94854C2.29854 15.9895 2.68852 15.9695 2.96852 15.6695L3.07851 15.5495C3.50851 15.0695 4.31851 14.1895 5.01851 14.1895C5.25851 14.1895 5.46852 14.2895 5.64852 14.4995C5.95852 14.8495 6.18853 15.1595 6.37853 15.4195C6.75853 15.9395 7.00852 16.2895 7.52852 16.3995C7.88852 16.4795 8.17852 16.7695 8.39852 17.2695C9.20852 19.0995 8.80852 23.1495 8.55852 23.5895C8.31852 23.9895 7.79853 24.1495 7.28853 24.3095C6.78853 24.4595 6.32854 24.5995 6.19854 24.9695C6.08854 25.2795 5.42854 25.5195 4.69854 25.5195V25.5295Z" fill="white"/>
<path d="M5.01855 14.2799C5.23855 14.2799 5.42857 14.3699 5.59857 14.5599C5.90857 14.9099 6.12857 15.2099 6.31857 15.4799C6.69857 15.9999 6.96855 16.3699 7.51855 16.4899C7.84855 16.5599 8.12856 16.8399 8.33856 17.3199C9.13856 19.1399 8.74856 23.1399 8.49856 23.5699C8.27856 23.9499 7.76855 24.0999 7.26855 24.2499C6.75855 24.4099 6.26857 24.5599 6.12857 24.9599C6.03857 25.1999 5.46858 25.4599 4.69858 25.4599C3.92858 25.4599 3.30857 25.1899 3.03857 24.7399C2.71857 24.1999 2.29857 23.8099 1.87857 23.4499C1.37857 23.0099 0.958563 22.6299 0.808563 22.0499C0.478563 20.7899 0.248565 16.5999 0.748565 16.2499C0.958565 16.0999 1.24856 16.0799 1.52856 16.0799H1.73856H1.94858C2.33858 16.0799 2.73856 16.0399 3.02856 15.7299L3.13858 15.6099C3.55858 15.1399 4.34856 14.2699 5.02856 14.2699M5.01855 14.1299C4.21855 14.1299 3.32857 15.1899 2.90857 15.6399C2.66857 15.8999 2.31858 15.9399 1.94858 15.9399C1.80858 15.9399 1.66856 15.9399 1.52856 15.9399C1.21856 15.9399 0.908579 15.9699 0.668579 16.1299C0.0385785 16.5699 0.378579 20.9599 0.668579 22.0899C0.958579 23.2099 2.22858 23.6499 2.91858 24.8199C3.24858 25.3899 3.99856 25.6099 4.70856 25.6099C5.44856 25.6099 6.14856 25.3599 6.27856 25.0099C6.51856 24.3299 8.14858 24.4699 8.63858 23.6399C8.98858 23.0399 9.52856 16.7499 7.55856 16.3399C6.80856 16.1799 6.63857 15.4899 5.71857 14.4599C5.50857 14.2199 5.26856 14.1299 5.02856 14.1299H5.01855Z" fill="#5E5E5A"/>
<mask id="mask0_229_847" style="mask-type:luminance" maskUnits="userSpaceOnUse" x="0" y="14" width="9" height="12">
<path d="M8.62857 23.6393C8.13857 24.4693 6.51855 24.3193 6.26855 25.0093C6.02855 25.6893 3.59858 25.9893 2.91858 24.8093C2.23858 23.6393 0.968579 23.1993 0.668579 22.0793C0.378579 20.9593 0.0385785 16.5593 0.668579 16.1193C1.29858 15.6793 2.36857 16.2193 2.90857 15.6293C3.44857 15.0393 4.78856 13.4293 5.70856 14.4593C6.62856 15.4893 6.78855 16.2193 7.54855 16.3393C9.21855 16.5993 8.97857 23.0393 8.62857 23.6393Z" fill="white"/>
</mask>
<g mask="url(#mask0_229_847)">
<path opacity="0.75" d="M2.79687 27.7195C2.79687 27.7195 1.85688 23.6595 4.27688 23.5595C7.38688 23.4295 6.55688 27.7595 6.55688 27.7595L2.79687 27.7195Z" fill="#E62C2F" stroke="#E62C2F" stroke-width="0.2" stroke-linecap="round" stroke-linejoin="round"/>
</g>
</svg>
