<svg width="12" height="28" viewBox="0 0 12 28" fill="none" xmlns="http://www.w3.org/2000/svg">
<path d="M4.06932 2.50994C4.29932 0.22994 5.6993 0.819939 5.7993 2.72994C5.8993 4.63994 6.75931 8.41994 7.90931 12.1699L3.88932 12.6599C3.52932 11.2799 3.82932 4.78994 4.06932 2.50994Z" fill="#F4DE9C" stroke="#5E5E5A" stroke-width="0.15" stroke-miterlimit="10"/>
<path d="M10.9265 18.2797C9.85647 15.9297 9.35649 16.1197 9.84649 13.8697C10.3365 11.6197 11.2865 9.10968 9.79647 5.33968C8.30647 1.56968 6.02649 -0.180322 6.44649 2.48968C6.86649 5.15968 7.52647 7.99968 6.79647 10.0297C6.06647 12.0597 4.40648 12.5397 3.87648 10.2097C3.34648 7.87968 3.31649 6.17968 3.28649 4.66968C3.25649 3.16968 3.01648 0.0896782 1.83648 2.08968C0.666475 4.08968 -0.173521 7.24968 0.246479 11.3297C0.246479 11.3297 1.20647 16.4997 0.326466 18.2897H10.9265V18.2797Z" fill="#F4DE9C" stroke="#5E5E5A" stroke-width="0.15" stroke-linecap="round" stroke-linejoin="round"/>
<path d="M3.7099 27.5602C2.6099 27.5602 1.26992 26.6402 0.789919 24.5802C0.069919 21.5302 -0.000101715 19.0502 0.299898 18.2802C0.369898 18.1002 0.499901 18.0202 0.739901 18.0202C0.919901 18.0202 1.11992 18.0602 1.34992 18.1002C1.61992 18.1502 1.9299 18.2102 2.2399 18.2102C2.7299 18.2102 3.11992 18.0602 3.44992 17.7702C4.03992 17.2302 4.80991 16.9502 5.68991 16.9502C6.32991 16.9502 7.01992 17.1002 7.66992 17.3902C7.89992 17.4902 8.12992 17.5502 8.37992 17.5502C8.65992 17.5502 8.9099 17.4802 9.1499 17.4202C9.3599 17.3602 9.5499 17.3102 9.7399 17.3102C10.0499 17.3102 10.4299 17.4302 10.9099 18.3102C11.6599 19.6702 11.9599 24.9802 11.3499 25.8802C11.0199 26.3602 10.3499 26.6602 9.61991 26.6602C9.11991 26.6602 8.68991 26.5102 8.43991 26.2602C8.23991 26.0602 8.05993 25.9702 7.88993 25.9702C7.65992 25.9702 7.47992 26.1402 7.28992 26.3202C7.14992 26.4502 7.00991 26.5802 6.83991 26.6802C6.71991 26.7502 6.58991 26.7802 6.43991 26.7802C6.32991 26.7802 6.22991 26.7702 6.11991 26.7502C6.00991 26.7402 5.88991 26.7202 5.77991 26.7202C5.47991 26.7202 5.23992 26.8202 5.00992 27.0502C4.65992 27.3902 4.20991 27.5702 3.71991 27.5702L3.7099 27.5602Z" fill="white"/>
<path d="M5.68841 17.0204C6.31841 17.0204 6.99842 17.1704 7.63842 17.4604C7.87842 17.5704 8.11841 17.6204 8.37841 17.6204C8.66841 17.6204 8.93842 17.5504 9.16842 17.4904C9.36842 17.4404 9.55839 17.3904 9.73839 17.3904C10.0284 17.3904 10.3784 17.5004 10.8384 18.3504C11.5784 19.7004 11.8884 24.9504 11.2784 25.8404C10.9684 26.3004 10.3084 26.5904 9.60839 26.5904C9.12839 26.5904 8.71841 26.4504 8.47841 26.2104C8.25841 25.9904 8.06841 25.8904 7.87841 25.8904C7.61841 25.8904 7.42841 26.0703 7.22841 26.2603C7.09841 26.3903 6.95841 26.5103 6.78841 26.6003C6.67841 26.6603 6.5684 26.6903 6.4284 26.6903C6.3284 26.6903 6.2284 26.6804 6.1184 26.6604C5.9984 26.6404 5.88839 26.6304 5.76839 26.6304C5.44839 26.6304 5.18841 26.7404 4.94841 26.9804C4.60841 27.3104 4.17839 27.4804 3.70839 27.4804C2.63839 27.4804 1.33839 26.5804 0.858388 24.5604C0.138388 21.5204 0.0683979 19.0704 0.368398 18.3004C0.418398 18.1704 0.498393 18.0904 0.738393 18.0904C0.908393 18.0904 1.10839 18.1304 1.32839 18.1704C1.60839 18.2204 1.91839 18.2804 2.23839 18.2804C2.74839 18.2804 3.1584 18.1304 3.4984 17.8204C4.0684 17.2904 4.82841 17.0204 5.68841 17.0204ZM5.68841 16.8704C4.85841 16.8704 4.0484 17.1204 3.3984 17.7104C3.0384 18.0404 2.63839 18.1304 2.23839 18.1304C1.67839 18.1304 1.12839 17.9404 0.738393 17.9404C0.498393 17.9404 0.318414 18.0104 0.228414 18.2404C-0.111586 19.1204 0.0284041 21.7104 0.718404 24.5904C1.1984 26.6104 2.5284 27.6203 3.7184 27.6203C4.2184 27.6203 4.69841 27.4404 5.06841 27.0804C5.31841 26.8304 5.55841 26.7704 5.78841 26.7704C6.01841 26.7704 6.22841 26.8304 6.44841 26.8304C6.58841 26.8304 6.73841 26.8104 6.87841 26.7304C7.30841 26.4904 7.5484 26.0303 7.8984 26.0303C8.0384 26.0303 8.1984 26.1104 8.3984 26.3004C8.6784 26.5804 9.14842 26.7304 9.63842 26.7304C10.3184 26.7304 11.0584 26.4504 11.4284 25.9104C12.0584 24.9804 11.7584 19.6704 10.9984 18.2604C10.5484 17.4404 10.1584 17.2204 9.75841 17.2204C9.33841 17.2204 8.9084 17.4604 8.3984 17.4604C8.1884 17.4604 7.9684 17.4204 7.7184 17.3104C7.0784 17.0204 6.38839 16.8604 5.70839 16.8604L5.68841 16.8704Z" fill="#5E5E5A"/>
<mask id="mask0_229_1084" style="mask-type:luminance" maskUnits="userSpaceOnUse" x="0" y="16" width="12" height="12">
<path d="M10.8183 18.25C11.5883 19.65 12.0383 24.99 11.4083 25.92C10.7783 26.85 9.06828 26.99 8.37828 26.31C7.68828 25.63 7.47827 26.4 6.86827 26.74C6.25827 27.07 5.71827 26.45 5.05827 27.1C3.80827 28.32 1.39826 27.49 0.708265 24.61C0.0282645 21.73 -0.121726 19.14 0.218274 18.26C0.558274 17.38 2.21829 18.8 3.38829 17.72C4.55829 16.65 6.26828 16.69 7.68828 17.33C9.10828 17.97 9.68827 16.21 10.8083 18.26L10.8183 18.25Z" fill="white"/>
</mask>
<g mask="url(#mask0_229_1084)">
<path opacity="0.75" d="M5.02839 28.6599C5.02839 28.6599 3.53839 24.6299 6.71839 24.6299C9.53839 24.6299 8.43839 28.6799 8.43839 28.6799L5.02839 28.6599Z" fill="#E62C2F" stroke="#E62C2F" stroke-width="0.2" stroke-linecap="round" stroke-linejoin="round"/>
</g>
</svg>
