<svg width="13" height="25" viewBox="0 0 13 25" fill="none" xmlns="http://www.w3.org/2000/svg">
<path d="M4.38019 11.2497C4.00019 9.94969 3.92019 4.45969 4.01019 2.44969C4.05019 1.51969 4.35017 1.17969 4.61017 1.17969C4.94017 1.17969 5.34019 1.68969 5.44019 2.53969C5.63019 4.16969 6.57019 7.31969 7.85019 10.5997L4.38019 11.2497Z" fill="#F4DE9C"/>
<path d="M4.61038 1.25938C4.91038 1.25938 5.27039 1.73938 5.37039 2.54938C5.56039 4.16938 6.4904 7.29938 7.7504 10.5394L4.4404 11.1594C4.0804 9.77938 4.00039 4.36938 4.09039 2.44938C4.13039 1.56938 4.40039 1.24938 4.62039 1.24938M4.61038 1.10938C4.28038 1.10938 3.97039 1.51938 3.93039 2.44938C3.84039 4.44938 3.93038 10.1494 4.33038 11.3394L7.95041 10.6594C6.70041 7.44938 5.71041 4.19938 5.51041 2.53938C5.40041 1.64938 4.9904 1.10938 4.6004 1.10938H4.61038Z" fill="#5E5E5A"/>
<path d="M0.403295 16.4597C0.0632948 13.6097 0.0532948 11.2597 0.403295 9.27969C0.513295 8.62969 0.573316 7.87969 0.643316 7.08969C0.783316 5.42969 0.943307 3.54969 1.60331 1.74969C2.04331 0.559687 2.3833 0.429688 2.5033 0.429688C2.5833 0.429688 2.6533 0.469688 2.7233 0.559688C2.9633 0.859688 3.07329 1.55969 2.96329 2.11969C2.70329 3.40969 3.24332 5.85969 3.89332 7.17969C4.00332 7.40969 4.1233 7.68969 4.2533 7.96969C4.7633 9.14969 5.33329 10.4797 6.21329 10.4797C6.43329 10.4797 6.66332 10.3897 6.89332 10.2097C8.01332 9.33969 7.9733 6.76969 6.7533 2.57969C6.4133 1.41969 6.5433 1.00969 6.6533 0.869687C6.7133 0.799687 6.7833 0.759687 6.8733 0.759687C7.2233 0.759687 7.7333 1.22969 8.0033 1.80969C8.1133 2.02969 8.26331 2.31969 8.45331 2.65969C9.31331 4.23969 10.7433 6.88969 10.7133 9.72969C10.7133 10.3697 10.6933 10.9297 10.6733 11.4397C10.6133 13.6497 10.5833 14.7897 11.3833 16.2797L0.423314 16.4397L0.403295 16.4597Z" fill="#F4DE9C"/>
<path d="M2.5019 0.499609C2.5519 0.499609 2.6119 0.529609 2.6619 0.599609C2.8919 0.879609 2.9919 1.56961 2.8819 2.09961C2.6219 3.40961 3.16189 5.87961 3.81189 7.20961C3.92189 7.43961 4.04191 7.71961 4.17191 7.99961C4.69191 9.19961 5.2719 10.5596 6.1919 10.5596C6.4319 10.5596 6.67191 10.4596 6.92191 10.2796C8.09191 9.37961 8.05189 6.84961 6.80189 2.56961C6.46189 1.39961 6.6119 1.02961 6.6919 0.929609C6.7319 0.879609 6.7819 0.849609 6.8519 0.849609C7.1319 0.849609 7.6319 1.24961 7.9119 1.85961C8.0219 2.08961 8.17188 2.37961 8.36188 2.71961C9.21188 4.29961 10.6419 6.92961 10.6119 9.75961C10.6119 10.3996 10.5919 10.9596 10.5719 11.4696C10.5119 13.6396 10.4819 14.7796 11.2319 16.2396L0.461889 16.3996C0.121889 13.5896 0.131889 11.2696 0.461889 9.30961C0.571889 8.64961 0.641909 7.89961 0.701909 7.10961C0.841909 5.45961 1.00189 3.57961 1.65189 1.78961C1.99189 0.849609 2.30191 0.519609 2.48191 0.519609M2.5019 0.349609C2.2319 0.349609 1.9019 0.719609 1.5319 1.71961C0.551896 4.38961 0.671884 7.25961 0.331884 9.25961C-0.00811625 11.2596 -0.00810647 13.6696 0.341894 16.5296L11.4919 16.3696C10.4419 14.4996 10.7219 13.2296 10.7619 9.73961C10.8019 6.24961 8.63189 3.02961 8.05189 1.77961C7.76189 1.16961 7.2319 0.689609 6.8519 0.689609C6.4719 0.689609 6.2519 1.19961 6.6619 2.60961C7.4619 5.36961 8.25188 9.06961 6.83188 10.1596C6.60188 10.3396 6.3919 10.4096 6.1919 10.4096C5.1619 10.4096 4.51191 8.28961 3.95191 7.14961C3.28191 5.77961 2.7819 3.36961 3.0319 2.12961C3.1919 1.35961 2.9419 0.349609 2.5019 0.349609Z" fill="#5E5E5A"/>
<path d="M3.93371 24.5302C3.41371 24.5302 2.95373 24.3402 2.54373 23.9602C0.583727 22.1502 -0.286294 16.7802 0.553706 15.6202C1.09371 14.8702 1.64371 14.5402 2.34371 14.5402C2.73371 14.5402 3.13371 14.6402 3.55371 14.7502C4.02371 14.8702 4.51371 14.9902 5.05371 14.9902C5.63371 14.9902 6.17371 14.8402 6.71371 14.5302C7.07371 14.3202 7.59372 14.2002 8.13372 14.2002C8.85372 14.2002 10.2037 14.4302 11.1837 15.9602C12.1037 17.3902 12.4737 19.4602 12.1037 20.9902C11.9137 21.7702 11.5337 22.3402 11.0237 22.6402C10.5137 22.9302 10.0237 23.0702 9.51373 23.0702C9.15373 23.0702 8.82373 23.0002 8.54373 22.9302C8.29373 22.8802 8.06372 22.8302 7.85372 22.8302C7.73372 22.8302 7.63372 22.8402 7.53372 22.8702C7.32372 22.9302 7.02371 23.1302 6.65371 23.3802C5.93371 23.8602 4.93371 24.5302 3.96371 24.5302H3.93371Z" fill="white"/>
<path d="M8.1231 14.2799C8.8231 14.2799 10.1431 14.4999 11.1031 15.9999C12.0131 17.4199 12.3831 19.4599 12.0131 20.9799C11.8231 21.7399 11.4631 22.2999 10.9631 22.5799C10.4631 22.8699 9.9831 22.9999 9.4931 22.9999C9.1431 22.9999 8.8331 22.9299 8.5331 22.8699C8.2831 22.8199 8.05311 22.7599 7.82311 22.7599C7.70311 22.7599 7.58312 22.7799 7.48312 22.8099C7.25312 22.8799 6.96309 23.0799 6.58309 23.3299C5.86309 23.8099 4.8831 24.4699 3.9331 24.4699C3.4331 24.4699 2.9931 24.2899 2.5931 23.9199C0.653101 22.1199 -0.20691 16.8199 0.61309 15.6699C1.13309 14.9399 1.67309 14.6199 2.33309 14.6199C2.71309 14.6199 3.10309 14.7199 3.52309 14.8299C4.00309 14.9499 4.49311 15.0799 5.04311 15.0799C5.64311 15.0799 6.19309 14.9299 6.74309 14.6099C7.08309 14.4099 7.6031 14.2899 8.1231 14.2899M8.1231 14.1299C7.5231 14.1299 6.99312 14.2799 6.67312 14.4699C6.09312 14.8099 5.55309 14.9199 5.05309 14.9199C4.04309 14.9199 3.1731 14.4699 2.3431 14.4699C1.7231 14.4699 1.1231 14.7199 0.493095 15.5899C-0.386905 16.8099 0.493095 22.1899 2.49309 24.0299C2.95309 24.4599 3.4431 24.6199 3.9331 24.6199C5.4131 24.6199 6.89309 23.1399 7.52309 22.9599C7.62309 22.9299 7.72311 22.9199 7.82311 22.9199C8.29311 22.9199 8.8131 23.1599 9.4931 23.1599C9.9331 23.1599 10.4431 23.0599 11.0431 22.7199C12.7531 21.7399 12.6431 18.1299 11.2431 15.9299C10.3631 14.5599 9.14311 14.1399 8.13311 14.1399L8.1231 14.1299Z" fill="#5E5E5A"/>
<mask id="mask0_229_1069" style="mask-type:luminance" maskUnits="userSpaceOnUse" x="0" y="14" width="13" height="11">
<path d="M11.4911 16.3694C12.5411 18.6594 12.6612 21.6994 11.0312 22.6994C9.36115 23.7294 8.34116 22.6994 7.51116 22.9394C6.68116 23.1794 4.25115 25.7894 2.28115 23.7094C0.61115 21.9494 -0.398837 16.7794 0.481163 15.5594C2.37116 12.9394 4.01116 15.9294 6.66116 14.4494C7.81116 13.8094 10.4512 14.1094 11.4812 16.3594L11.4911 16.3694Z" fill="white"/>
</mask>
<g mask="url(#mask0_229_1069)">
<path opacity="0.75" d="M5.48152 25.6394C5.48152 25.6394 3.99152 21.6094 7.17152 21.6094C9.99152 21.6094 8.89152 25.6594 8.89152 25.6594L5.48152 25.6394Z" fill="#E62C2F" stroke="#E62C2F" stroke-width="0.2" stroke-linecap="round" stroke-linejoin="round"/>
</g>
</svg>
