<svg width="11" height="24" viewBox="0 0 11 24" fill="none" xmlns="http://www.w3.org/2000/svg">
<path d="M3.12979 11.1412C2.96979 9.80121 3.78978 4.36121 4.20978 2.40121C4.38978 1.55121 4.70978 1.24121 4.95978 1.24121C5.05978 1.24121 5.1698 1.29121 5.2598 1.39121C5.4998 1.64121 5.62977 2.14121 5.60977 2.72121C5.52977 4.36121 5.94979 7.63121 6.65979 11.0612L3.12979 11.1312V11.1412Z" fill="#F4DE9C"/>
<path d="M4.95126 1.3209C5.06126 1.3209 5.14126 1.3909 5.20126 1.4509C5.38126 1.6409 5.56125 2.0709 5.53125 2.7309C5.45125 4.3609 5.86126 7.6009 6.57126 11.0009L3.20126 11.0709C3.07126 9.6509 3.88125 4.3009 4.28125 2.4209C4.45125 1.6109 4.75126 1.3209 4.95126 1.3209ZM4.95126 1.1709C4.64126 1.1709 4.31126 1.5309 4.13126 2.3909C3.71126 4.3509 2.86125 9.9909 3.06125 11.2209L6.74124 11.1509C6.03124 7.7809 5.59126 4.4109 5.67126 2.7409C5.71126 1.7909 5.35125 1.1809 4.94125 1.1809L4.95126 1.1709Z" fill="#5E5E5A"/>
<path d="M0.349854 16.5505C0.679854 14.5905 0.669841 12.2705 0.649841 10.2305C0.639841 8.56055 0.629855 7.12055 0.819855 6.30055L0.94986 5.71055C1.36986 3.87055 1.92985 1.34055 2.93985 1.03055C2.99985 1.01055 3.04984 1.01055 3.08984 1.01055C3.19984 1.01055 3.28984 1.06055 3.36984 1.15055C3.87984 1.79055 3.53985 4.26055 3.09985 6.19055C2.73985 7.77055 2.84986 9.06055 3.41986 9.91055C3.82986 10.5105 4.44985 10.8905 5.27985 11.0205C5.34985 11.0305 5.40985 11.0405 5.46985 11.0405C5.70985 11.0405 5.90984 10.9605 6.05984 10.7905C6.63984 10.1505 6.46986 8.37055 6.28986 6.47055C6.16986 5.21055 6.03984 3.90055 6.11984 2.84055C6.22984 1.34055 6.68984 0.810547 7.04984 0.810547C7.17984 0.810547 7.31985 0.880547 7.43985 1.01055C7.71985 1.31055 7.84984 1.88055 7.79984 2.48055C7.69984 3.62055 8.28984 5.49055 8.80984 7.13055C9.18984 8.32055 9.53985 9.44055 9.49985 9.92055C9.47985 10.1105 9.45986 10.3305 9.41986 10.6005C9.23986 11.9805 8.94985 14.2805 9.65985 16.5605H0.339844L0.349854 16.5505Z" fill="#F4DE9C"/>
<path d="M7.07001 0.880469C7.21001 0.880469 7.32999 0.970469 7.39999 1.05047C7.59999 1.27047 7.79999 1.76047 7.73999 2.46047C7.63999 3.61047 8.23001 5.49047 8.76001 7.14047C9.13001 8.32047 9.49001 9.44047 9.45001 9.90047C9.43001 10.0805 9.4 10.3105 9.37 10.5705C9.19 11.9405 8.89999 14.2005 9.57999 16.4605H0.450012C0.770012 14.5105 0.74999 12.2305 0.73999 10.2105C0.72999 8.54047 0.720004 7.10047 0.910004 6.29047C0.950004 6.10047 1.00001 5.91047 1.04001 5.70047C1.43001 3.98047 2.01001 1.37047 2.98001 1.08047C3.03001 1.07047 3.06999 1.06047 3.10999 1.06047C3.19999 1.06047 3.26999 1.10047 3.32999 1.17047C3.72999 1.68047 3.61999 3.63047 3.04999 6.14047C2.67999 7.75047 2.79 9.05047 3.38 9.92047C3.8 10.5405 4.44001 10.9305 5.29001 11.0605C5.36001 11.0705 5.42999 11.0805 5.48999 11.0805C5.74999 11.0805 5.97001 10.9905 6.14001 10.8005C6.74001 10.1405 6.58001 8.42047 6.39001 6.43047C6.27001 5.17047 6.14 3.87047 6.22 2.81047C6.32 1.46047 6.72999 0.85047 7.07999 0.85047M7.07001 0.730469C6.64001 0.730469 6.18 1.33047 6.06 2.82047C5.83 5.86047 7.29001 10.9505 5.48001 10.9505C5.42001 10.9505 5.35999 10.9505 5.29999 10.9305C3.21999 10.5905 2.59999 8.74047 3.17999 6.19047C3.72999 3.78047 4.05001 0.920469 3.10001 0.920469C3.05001 0.920469 2.99001 0.920469 2.92001 0.950469C1.76001 1.31047 1.16999 4.43047 0.73999 6.28047C0.30999 8.12047 0.89 13.0505 0.25 16.6305H9.76001C8.87001 13.8905 9.46999 11.0705 9.57999 9.93047C9.67999 8.78047 7.7 4.46047 7.87 2.49047C7.96 1.46047 7.51999 0.740469 7.04999 0.740469L7.07001 0.730469Z" fill="#5E5E5A"/>
<path d="M1.88259 23.5296C1.14259 23.5296 0.682573 22.9596 0.462573 21.7896C0.00257328 19.3396 -0.067417 16.2196 0.722583 15.2696C0.882583 15.0796 1.06258 14.9796 1.28258 14.9796C1.33258 14.9796 1.38258 14.9796 1.44258 14.9996C1.79258 15.0696 2.12257 15.0996 2.43257 15.0996C3.57257 15.0996 4.20257 14.6396 4.71257 14.2696C5.03257 14.0396 5.28259 13.8496 5.57259 13.8496C6.07259 13.8496 6.72257 14.4396 7.74257 15.8196C7.89257 16.0196 8.06258 16.1196 8.28258 16.1196C8.41258 16.1196 8.54259 16.0896 8.66259 16.0596C8.78259 16.0296 8.91257 15.9996 9.02257 15.9996C9.21257 15.9996 9.47258 16.0696 9.72258 16.6396C10.2926 17.9196 10.1926 20.9396 9.32259 22.2896C9.05259 22.6996 8.7426 22.9096 8.3926 22.9096C7.9326 22.9096 7.57257 22.8896 7.27257 22.8796C7.05257 22.8696 6.87257 22.8596 6.71257 22.8596C6.25257 22.8596 5.93257 22.9296 5.55257 23.3096C5.41257 23.4396 5.26258 23.5096 5.06258 23.5096C4.79258 23.5096 4.51259 23.3896 4.23259 23.2696C3.98259 23.1596 3.74259 23.0596 3.54259 23.0596H3.44258C3.34258 23.0796 3.22258 23.1296 3.06258 23.1996C2.75258 23.3296 2.32258 23.5096 1.90258 23.5096L1.88259 23.5296Z" fill="white"/>
<path d="M5.56183 13.94C6.04183 13.94 6.67183 14.52 7.66183 15.88C7.82183 16.1 8.02184 16.21 8.26184 16.21C8.40184 16.21 8.53183 16.18 8.66183 16.14C8.78183 16.11 8.90183 16.08 9.00183 16.08C9.17183 16.08 9.39183 16.15 9.63183 16.68C10.1918 17.94 10.1018 20.93 9.23184 22.26C8.98184 22.65 8.69182 22.84 8.37182 22.84C7.92182 22.84 7.55183 22.82 7.25183 22.81C7.03183 22.8 6.85182 22.79 6.68182 22.79C6.20182 22.79 5.87183 22.87 5.47183 23.27C5.35183 23.39 5.21184 23.45 5.04184 23.45C4.79184 23.45 4.51182 23.33 4.24182 23.22C3.98182 23.11 3.74182 23.01 3.52182 23.01C3.48182 23.01 3.44182 23.01 3.40182 23.02C3.30182 23.04 3.17183 23.1 3.00183 23.16C2.69183 23.29 2.27182 23.47 1.87182 23.47C1.17182 23.47 0.731819 22.92 0.521819 21.79C0.0618186 19.36 -0.00816059 16.27 0.761839 15.33C0.901839 15.16 1.07184 15.07 1.26184 15.07C1.31184 15.07 1.35182 15.07 1.40182 15.08C1.75182 15.15 2.09182 15.18 2.40182 15.18C3.57182 15.18 4.23183 14.69 4.72183 14.34C5.03183 14.11 5.27184 13.94 5.54184 13.94M5.56183 13.79C4.76183 13.79 4.27184 15.04 2.42184 15.04C2.13184 15.04 1.81184 15.01 1.45184 14.94C1.39184 14.93 1.33183 14.92 1.28183 14.92C-0.208172 14.92 -0.138156 19.02 0.391844 21.81C0.661844 23.24 1.27184 23.61 1.89184 23.61C2.51184 23.61 3.17183 23.21 3.44183 23.15C3.47183 23.15 3.50183 23.15 3.53183 23.15C3.93183 23.15 4.52182 23.6 5.05182 23.6C5.24182 23.6 5.43183 23.54 5.59183 23.38C5.94183 23.03 6.23184 22.95 6.70184 22.95C7.09184 22.95 7.60184 23.01 8.39184 23.01C10.1118 23.01 10.5518 18.36 9.79184 16.64C9.55184 16.09 9.28182 15.95 9.02182 15.95C8.76182 15.95 8.52183 16.08 8.28183 16.08C8.11183 16.08 7.95182 16.02 7.80182 15.81C6.68182 14.28 6.07184 13.81 5.57184 13.81L5.56183 13.79Z" fill="#5E5E5A"/>
<mask id="mask0_229_1054" style="mask-type:luminance" maskUnits="userSpaceOnUse" x="0" y="13" width="11" height="11">
<path d="M9.71333 16.6008C10.4833 18.3208 10.1433 22.9908 8.42335 22.9908C6.70335 22.9908 6.27334 22.7208 5.63334 23.3708C4.99334 24.0208 4.02335 23.0508 3.48335 23.1608C2.94335 23.2708 0.973327 24.7108 0.433327 21.8208C-0.116673 18.9208 -0.166665 14.6208 1.50333 14.9508C5.62333 15.7508 4.61333 11.4108 7.84333 15.8108C8.43333 16.6208 9.08334 15.1708 9.72334 16.6208L9.71333 16.6008Z" fill="white"/>
</mask>
<g mask="url(#mask0_229_1054)">
<path opacity="0.75" d="M3.83417 25.5911C3.83417 25.5911 1.9942 21.6211 5.1742 21.6211C7.9942 21.6211 6.4842 25.5611 6.4842 25.5611L3.83417 25.5911Z" fill="#E62C2F" stroke="#E62C2F" stroke-width="0.2" stroke-linecap="round" stroke-linejoin="round"/>
</g>
</svg>
