<svg width="9" height="24" viewBox="0 0 9 24" fill="none" xmlns="http://www.w3.org/2000/svg">
<path d="M4.58655 23.2002C4.46655 23.2002 4.22656 23.0602 3.94656 22.0902C3.09656 19.1302 2.68654 15.0902 2.54654 13.4802C2.38654 11.6002 1.96656 10.3002 1.69656 9.4402C1.59656 9.1402 1.52656 8.8902 1.47656 8.7002L7.75656 8.7302L7.66656 9.1902C7.27656 11.1502 6.36656 15.7602 5.66656 20.2302C5.38656 22.0002 4.95655 23.1902 4.58655 23.1902V23.2002Z" fill="#F4DE9C"/>
<path d="M1.58844 8.77988L7.67844 8.80988L7.60843 9.15989C7.21843 11.1299 6.30845 15.7299 5.59845 20.2299C5.30845 22.1099 4.85844 23.1199 4.58844 23.1199C4.54844 23.1199 4.30843 23.0699 4.01843 22.0699C3.16843 19.1099 2.75845 15.0799 2.62845 13.4799C2.46845 11.5999 2.04844 10.2899 1.77844 9.42989C1.69844 9.16989 1.62844 8.95988 1.58844 8.77988ZM1.39844 8.62988C1.50844 9.32988 2.25845 10.8399 2.47845 13.4899C2.70845 16.1399 3.15845 19.5999 3.87845 22.1099C4.11845 22.9299 4.35844 23.2699 4.58844 23.2699C5.05844 23.2699 5.49844 21.8499 5.74844 20.2499C6.52844 15.2699 7.56843 10.1299 7.85843 8.65989L1.39844 8.62988Z" fill="#5E5E5A"/>
<path d="M4.75173 11.1503C4.31173 11.1503 3.90173 10.9503 3.59173 10.5903C3.33173 10.2903 2.99174 10.0703 2.66174 9.85031C2.04174 9.45031 1.46175 9.06031 1.39175 8.22031C1.37175 7.98031 1.33172 7.64031 1.27172 7.22031C1.03172 5.30031 0.601739 1.72031 1.35174 1.19031C1.85174 0.850311 3.54174 0.570312 5.13174 0.570312C6.55174 0.570312 7.53172 0.790311 7.74172 1.17031C8.29172 2.15031 8.03172 7.28032 7.74172 8.94032C7.59172 9.76032 7.16175 9.92031 6.70175 10.0903C6.40175 10.2003 6.10173 10.3103 5.87173 10.6103C5.61173 10.9603 5.19173 11.1603 4.75173 11.1603V11.1503Z" fill="white"/>
<path d="M5.1418 0.490234V0.640232C6.5118 0.640232 7.49178 0.850233 7.68178 1.20023C8.23178 2.17023 7.96179 7.27023 7.66179 8.92023C7.52179 9.70023 7.12179 9.85023 6.66179 10.0102C6.35179 10.1202 6.03177 10.2402 5.80177 10.5502C5.55177 10.8802 5.16178 11.0702 4.74178 11.0702C4.32178 11.0702 3.9318 10.8802 3.6418 10.5402C3.3818 10.2302 3.0318 10.0102 2.7018 9.79023C2.1018 9.40023 1.53178 9.02023 1.46178 8.21023C1.44178 7.97023 1.40178 7.62023 1.34178 7.20023C1.12178 5.43023 0.671802 1.74023 1.3918 1.25023C1.8718 0.920233 3.55179 0.640232 5.13179 0.640232V0.490234M5.1418 0.490234C3.5918 0.490234 1.85179 0.760232 1.32179 1.12023C0.361795 1.78023 1.20179 6.86023 1.32179 8.22023C1.44179 9.58023 2.8218 9.80023 3.5418 10.6402C3.8918 11.0402 4.33179 11.2202 4.75179 11.2202C5.21179 11.2202 5.65178 11.0102 5.93178 10.6402C6.47178 9.92023 7.56179 10.3502 7.82179 8.94024C8.11179 7.31024 8.39179 2.13023 7.82179 1.12023C7.56179 0.670232 6.42178 0.490234 5.15178 0.490234H5.1418Z" fill="#5E5E5A"/>
<mask id="mask0_229_945" style="mask-type:luminance" maskUnits="userSpaceOnUse" x="0" y="0" width="9" height="12">
<path d="M7.82009 8.94029C7.57009 10.3503 6.47007 9.92029 5.93007 10.6403C5.39007 11.3603 4.25008 11.4803 3.53008 10.6403C2.81008 9.80029 1.43008 9.58029 1.31008 8.22029C1.19008 6.86029 0.350076 1.79029 1.31008 1.12029C2.27008 0.460288 7.24008 0.110288 7.81008 1.12029C8.38008 2.13029 8.10008 7.30029 7.81008 8.94029H7.82009Z" fill="white"/>
</mask>
<g mask="url(#mask0_229_945)">
<path opacity="0.75" d="M5.68128 -1.63965C5.68128 -1.63965 7.39129 2.16035 4.44129 2.16035C1.82129 2.16035 3.22129 -1.60965 3.22129 -1.60965L5.68128 -1.63965Z" fill="#E62C2F" stroke="#E62C2F" stroke-width="0.2" stroke-linecap="round" stroke-linejoin="round"/>
</g>
</svg>
