<svg width="9" height="25" viewBox="0 0 9 25" fill="none" xmlns="http://www.w3.org/2000/svg">
<path d="M4.77859 24.7109C4.62859 24.7109 4.32861 24.5509 4.00861 23.4509C3.04861 20.1209 2.5886 15.5809 2.4386 13.7809C2.2386 11.4909 1.67858 9.94094 1.29858 8.90094C1.19858 8.63094 1.11859 8.40094 1.05859 8.21094H8.3786C8.3086 8.80094 8.0886 9.70094 7.8186 10.8309C7.2386 13.2609 6.34859 16.9409 5.95859 21.3709C5.79859 23.2109 5.26859 24.7009 4.77859 24.7009V24.7109Z" fill="#F4DE9C"/>
<path d="M8.29703 8.29063C8.21703 8.87063 8.00704 9.75063 7.74704 10.8206C7.15704 13.2506 6.27705 16.9306 5.88705 21.3706C5.71705 23.2906 5.16704 24.6306 4.77704 24.6306C4.69704 24.6306 4.39703 24.5406 4.07703 23.4306C3.12703 20.1106 2.66705 15.5706 2.50705 13.7806C2.30705 11.4806 1.73703 9.92062 1.36703 8.88062C1.28703 8.66062 1.21704 8.46063 1.15704 8.29063H8.28705M8.46704 8.14062H0.957031C1.20703 9.05063 2.10703 10.8106 2.36703 13.7906C2.61703 16.7706 3.12704 20.6506 3.93704 23.4706C4.20704 24.4006 4.49704 24.7806 4.77704 24.7806C5.34704 24.7806 5.87705 23.1906 6.03705 21.3806C6.61705 14.7806 8.28704 9.92062 8.46704 8.14062Z" fill="#5E5E5A"/>
<path d="M4.54024 11.9205C3.51024 11.9205 1.37022 9.34055 0.960222 7.87055C0.510222 6.26055 1.18022 1.88054 1.74022 1.01054C1.98022 0.630544 2.54022 0.560547 2.96022 0.560547C3.74022 0.560547 4.66022 0.830546 4.93022 1.02055C5.00022 1.07055 5.09024 1.09055 5.20024 1.09055C5.41024 1.09055 5.66024 1.01055 5.95024 0.910545C6.30024 0.790545 6.70023 0.660545 7.09023 0.660545C7.28023 0.660545 7.46022 0.690544 7.61022 0.760544C8.97022 1.34054 8.73022 7.59055 8.15022 9.33055C8.00022 9.79055 5.68023 11.4705 4.72023 11.8905C4.67023 11.9105 4.61022 11.9205 4.55022 11.9205H4.54024Z" fill="white"/>
<path d="M2.95854 0.640232C3.78854 0.640232 4.65856 0.930235 4.87856 1.08023C4.95856 1.14023 5.06855 1.17023 5.18855 1.17023C5.40855 1.17023 5.65854 1.08023 5.95854 0.980232C6.30854 0.860232 6.69856 0.730232 7.06856 0.730232C7.24856 0.730232 7.40855 0.760232 7.55855 0.820232C8.84855 1.37023 8.60855 7.62023 8.05855 9.29023C7.90855 9.73023 5.59857 11.4002 4.66857 11.8102C4.62857 11.8302 4.57855 11.8402 4.52855 11.8402C3.61855 11.8402 1.44854 9.38023 1.01854 7.85023C0.568541 6.25023 1.23854 1.91023 1.79854 1.05023C2.02854 0.700232 2.54856 0.630234 2.94856 0.630234M2.95854 0.490234C2.41854 0.490234 1.91854 0.620232 1.67854 0.980232C1.08854 1.89023 0.428566 6.29023 0.888566 7.90023C1.30857 9.41023 3.49854 12.0002 4.54854 12.0002C4.61854 12.0002 4.68855 11.9902 4.74855 11.9602C5.67855 11.5502 8.04855 9.86023 8.21855 9.35023C8.78855 7.65023 9.07857 1.31023 7.63857 0.690231C7.45857 0.610231 7.26855 0.580235 7.08855 0.580235C6.37855 0.580235 5.63854 1.02023 5.20854 1.02023C5.11854 1.02023 5.04856 1.00023 4.97856 0.960232C4.70856 0.770232 3.78855 0.490234 2.96855 0.490234H2.95854Z" fill="#5E5E5A"/>
<mask id="mask0_229_873" style="mask-type:luminance" maskUnits="userSpaceOnUse" x="0" y="0" width="9" height="12">
<path d="M7.62856 0.69065C6.62856 0.26065 5.41855 1.27065 4.96855 0.960651C4.51855 0.650651 2.26854 0.0706512 1.67854 0.980651C1.08854 1.89065 0.428566 6.29065 0.888566 7.90065C1.33857 9.51065 3.81855 12.3707 4.74855 11.9607C5.67855 11.5507 8.04855 9.86065 8.21855 9.35065C8.78855 7.65065 9.07857 1.31065 7.63857 0.69065H7.62856Z" fill="white"/>
</mask>
<g mask="url(#mask0_229_873)">
<path opacity="0.75" d="M6.22663 -1.56934C6.22663 -1.56934 8.05661 2.56067 4.89661 2.56067C2.09661 2.56067 3.59663 -1.52934 3.59663 -1.52934L6.22663 -1.55934V-1.56934Z" fill="#E62C2F" stroke="#E62C2F" stroke-width="0.5" stroke-linecap="round" stroke-linejoin="round"/>
</g>
</svg>
