<svg width="9" height="30" viewBox="0 0 9 30" fill="none" xmlns="http://www.w3.org/2000/svg">
<path d="M4.52905 29.9293C4.07905 29.9293 3.74904 29.0093 3.73904 27.6993C3.71904 25.5093 3.20904 23.6193 2.48904 20.9993L2.06906 19.4693C1.64906 17.8893 1.57904 16.5293 1.57904 13.5093C1.57904 10.6893 1.43906 8.7193 1.28906 7.7793L8.56906 7.83929C7.83906 9.81929 7.73907 14.2593 7.69907 18.6293C7.66907 22.4393 6.86906 24.8493 5.84906 27.8993C5.23906 29.7393 4.71905 29.9293 4.52905 29.9293Z" fill="#F4DE9C"/>
<path d="M1.38095 7.84922L8.46094 7.90923C7.75094 9.94923 7.66094 14.3192 7.62094 18.6292C7.59094 22.4292 6.79094 24.8292 5.78094 27.8792L5.75095 27.9692C5.29095 29.3592 4.82094 29.8592 4.53094 29.8592C4.18094 29.8592 3.83095 29.1192 3.82095 27.6992C3.80095 25.4992 3.29095 23.6092 2.57095 20.9892C2.44095 20.5092 2.30094 19.9992 2.15094 19.4492C1.73094 17.8692 1.66096 16.5792 1.67096 13.5092C1.67096 10.7592 1.54096 8.82922 1.39096 7.85922M1.21094 7.69922C1.34094 8.43922 1.53094 10.3392 1.52094 13.5092C1.52094 16.5692 1.58096 17.8992 2.01096 19.4892C2.95096 23.0092 3.66094 25.1192 3.68094 27.6992C3.69094 29.1192 4.05095 29.9992 4.54095 29.9992C4.94095 29.9992 5.44094 29.3992 5.90094 28.0092C6.93094 24.9192 7.75094 22.4892 7.78094 18.6292C7.82094 14.5992 7.89095 9.75922 8.69095 7.75922L1.22095 7.69922H1.21094Z" fill="#5E5E5A"/>
<path d="M5.28719 12.4994C4.48719 12.4994 2.25719 10.6394 1.62719 8.98937C0.907185 7.10937 0.747166 2.97938 1.10717 2.14938C1.48717 1.28938 3.83718 0.389375 4.58718 0.359375C5.37718 0.359375 8.59718 3.28937 8.80718 4.17937C9.00718 5.03937 8.88719 8.49938 7.56719 10.3694C6.89719 11.3194 6.05717 12.1394 5.42717 12.4794C5.39717 12.4994 5.34717 12.5094 5.29717 12.5094L5.28719 12.4994Z" fill="white"/>
<path d="M4.59902 0.279297V0.429298C5.32902 0.429298 8.53903 3.3493 8.72903 4.1893C8.92903 5.0393 8.80902 8.4693 7.49902 10.3193C6.83902 11.2593 6.00902 12.0693 5.37902 12.3993C5.35902 12.4093 5.31903 12.4193 5.28903 12.4193C4.57903 12.4193 2.35903 10.6793 1.69903 8.9593C0.979031 7.0893 0.819011 2.9893 1.17901 2.1793C1.51901 1.3993 3.78901 0.469298 4.58901 0.429298V0.279297M4.59902 0.279297C4.59902 0.279297 4.59901 0.279297 4.58901 0.279297C3.79901 0.309297 1.42901 1.2293 1.04901 2.1193C0.669006 3.0093 0.869026 7.17929 1.56903 9.01929C2.21903 10.7193 4.47901 12.5793 5.29901 12.5793C5.35901 12.5793 5.41901 12.5693 5.45901 12.5393C6.07901 12.2093 6.93902 11.3993 7.62902 10.4093C8.94902 8.5393 9.08902 5.0893 8.87902 4.1593C8.66902 3.2293 5.41902 0.279297 4.59902 0.279297Z" fill="#5E5E5A"/>
<mask id="mask0_229_921" style="mask-type:luminance" maskUnits="userSpaceOnUse" x="0" y="0" width="9" height="13">
<path d="M7.62956 10.4095C8.94956 8.53953 9.08956 5.08952 8.87956 4.15952C8.66956 3.22952 5.37955 0.249522 4.58955 0.279522C3.79955 0.309522 1.42954 1.22952 1.04954 2.11952C0.659544 2.99952 0.869564 7.17952 1.56956 9.01952C2.26956 10.8595 4.83955 12.8695 5.45955 12.5495C6.07955 12.2195 6.93956 11.4095 7.62956 10.4195V10.4095Z" fill="white"/>
</mask>
<g mask="url(#mask0_229_921)">
<path opacity="0.75" d="M5.80865 -1.78027C5.80865 -1.78027 7.63866 2.34972 4.47866 2.34972C1.67866 2.34972 3.17864 -1.74028 3.17864 -1.74028L5.80865 -1.77028V-1.78027Z" fill="#E62C2F" stroke="#E62C2F" stroke-width="0.2" stroke-linecap="round" stroke-linejoin="round"/>
</g>
</svg>
