<svg width="10" height="25" viewBox="0 0 10 25" fill="none" xmlns="http://www.w3.org/2000/svg">
<path d="M5.86969 24.8195C5.73969 24.8195 5.4297 24.6695 4.9097 23.6595C3.4597 20.8595 2.8497 16.4695 2.7597 13.5695C2.6897 11.0495 2.1797 9.52953 1.8497 8.52953C1.7897 8.33953 1.72969 8.16953 1.67969 8.01953H8.73969C8.17969 10.7295 7.74971 12.6995 7.22971 14.6695L7.0397 15.3495C6.6097 16.8995 6.15969 18.5095 6.33969 21.2895C6.45969 23.0895 6.33968 24.4195 6.01968 24.7595C5.96968 24.8095 5.91968 24.8395 5.85968 24.8395L5.86969 24.8195Z" fill="#F4DE9C"/>
<path d="M8.66156 8.07969C8.11156 10.7297 7.69157 12.6697 7.17157 14.6297C7.11157 14.8597 7.05157 15.0797 6.98157 15.3097C6.54157 16.8697 6.09156 18.4797 6.28156 21.2697C6.40156 23.0197 6.28157 24.3597 5.98157 24.6797C5.93157 24.7297 5.90156 24.7397 5.88156 24.7397C5.81156 24.7397 5.53155 24.6597 4.99155 23.6197C3.55155 20.8197 2.94156 16.4497 2.85156 13.5597C2.78156 11.0297 2.27156 9.49969 1.94156 8.48969C1.89156 8.33969 1.84154 8.19969 1.80154 8.06969H8.66156M8.85156 7.92969H1.60156C1.86156 8.86969 2.61157 10.4597 2.70157 13.5697C2.79157 16.6697 3.46156 20.9897 4.85156 23.6997C5.29156 24.5497 5.62155 24.8997 5.87155 24.8997C6.42155 24.8997 6.56155 23.1997 6.43155 21.2697C6.22155 18.0997 6.85155 16.4297 7.31155 14.6797C7.85155 12.6497 8.29155 10.6297 8.84155 7.93969L8.85156 7.92969Z" fill="#5E5E5A"/>
<path d="M4.98092 11.3797C4.08092 11.3797 3.16092 10.4897 2.42092 9.76972C1.88092 9.23972 1.76091 8.51972 1.60091 7.52972C1.50091 6.93972 1.4009 6.26972 1.1809 5.47972C0.350898 2.46972 0.94089 2.21973 2.36089 1.62973C2.88089 1.40973 3.5309 1.13972 4.2409 0.669724C4.4409 0.539724 4.67092 0.469727 4.92092 0.469727C5.79092 0.469727 6.8109 1.24972 7.7109 1.97972C7.9109 2.14972 8.10091 2.28973 8.26091 2.40973C9.01091 2.98973 9.33091 3.22973 9.38091 4.32973C9.44091 5.61973 8.9909 8.13973 8.1509 8.96973C8.0409 9.07973 7.91089 9.21972 7.77089 9.37972C7.14089 10.0597 6.19091 11.0897 5.35091 11.3397C5.23091 11.3797 5.10092 11.3897 4.98092 11.3897V11.3797Z" fill="white"/>
<path d="M4.92128 0.529881C5.76128 0.529881 6.78127 1.29988 7.66127 2.02988C7.86127 2.19988 8.05125 2.33988 8.21125 2.45988C8.95125 3.01988 9.25125 3.25988 9.30125 4.31988C9.37125 5.77988 8.85127 8.14988 8.10127 8.89988C7.99127 9.00988 7.86125 9.14988 7.71125 9.30988C7.09125 9.97988 6.15127 10.9999 5.32127 11.2499C5.21127 11.2799 5.09126 11.2999 4.97126 11.2999C4.10126 11.2999 3.19127 10.4199 2.45127 9.69988C1.94127 9.19988 1.83128 8.49988 1.67128 7.51988C1.57128 6.92988 1.46126 6.24988 1.25126 5.45988C0.441262 2.50988 1.01128 2.26988 2.39128 1.68988C2.91128 1.46988 3.56126 1.19988 4.28126 0.719883C4.47126 0.589883 4.68128 0.529881 4.92128 0.529881ZM4.92128 0.379883C4.66128 0.379883 4.42126 0.44988 4.19126 0.59988C1.58126 2.33988 -0.0587314 1.28988 1.10127 5.49988C1.69127 7.62988 1.49127 8.96988 2.35127 9.80988C3.11127 10.5499 4.04126 11.4599 4.97126 11.4599C5.10126 11.4599 5.23126 11.4399 5.37126 11.3999C6.44126 11.0799 7.65125 9.56988 8.21125 9.01988C9.03125 8.19988 9.53125 5.70988 9.46125 4.31988C9.39125 2.93988 8.89127 2.84988 7.76127 1.91988C6.88127 1.19988 5.83125 0.389881 4.93125 0.389881L4.92128 0.379883Z" fill="#5E5E5A"/>
<mask id="mask0_229_933" style="mask-type:luminance" maskUnits="userSpaceOnUse" x="0" y="0" width="10" height="12">
<path d="M8.21299 9.00983C9.03299 8.18983 9.53299 5.69983 9.46299 4.30983C9.39299 2.92983 8.89301 2.83983 7.76301 1.90983C6.63301 0.979826 5.22301 -0.090174 4.20301 0.589826C1.59301 2.32983 -0.0470166 1.27983 1.11298 5.48983C1.70298 7.61983 1.50298 8.95983 2.36298 9.79983C3.22298 10.6398 4.313 11.7098 5.383 11.3898C6.453 11.0698 7.663 9.55983 8.223 9.00983H8.21299Z" fill="white"/>
</mask>
<g mask="url(#mask0_229_933)">
<path opacity="0.75" d="M6.30473 -1.67969C6.30473 -1.67969 8.13474 2.45031 4.97474 2.45031C2.17474 2.45031 3.67475 -1.63969 3.67475 -1.63969L6.30473 -1.66969V-1.67969Z" fill="#E62C2F" stroke="#E62C2F" stroke-width="0.2" stroke-linecap="round" stroke-linejoin="round"/>
</g>
</svg>
