<svg width="11" height="24" viewBox="0 0 11 24" fill="none" xmlns="http://www.w3.org/2000/svg">
<path d="M7.22095 23.81C7.00095 23.81 6.55094 23.63 5.68094 22.76C3.57094 20.64 3.46095 16.79 3.38095 13.97C3.30095 11.17 2.58095 9.81996 1.88095 8.52996L1.71094 8.20996H9.60095C9.06095 10.81 8.65095 13.06 8.29095 15.05L8.27094 15.15C8.16094 15.75 7.95095 16.42 7.72095 17.14C7.27095 18.54 6.81095 19.99 7.13095 20.98C7.58095 22.37 7.70096 23.35 7.45096 23.69C7.39096 23.77 7.31094 23.81 7.21094 23.81H7.22095Z" fill="#F4DE9C"/>
<path d="M9.51157 8.28965C8.98157 10.8796 8.57155 13.1196 8.21155 15.0996V15.1396C8.09155 15.7296 7.88155 16.4097 7.65155 17.1197C7.20155 18.5297 6.73155 19.9896 7.06155 20.9996C7.50155 22.3396 7.62155 23.3296 7.40155 23.6396C7.36155 23.6996 7.30156 23.7297 7.22156 23.7297C7.05156 23.7297 6.63155 23.5996 5.74155 22.6996C3.65155 20.5996 3.54155 16.7597 3.46155 13.9697C3.38155 11.1497 2.65157 9.79965 1.95157 8.48965C1.91157 8.41965 1.88155 8.34965 1.84155 8.27965H9.51157M9.70157 8.13965H1.60156C2.34156 9.55965 3.23155 10.8797 3.31155 13.9797C3.40155 17.0797 3.57157 20.7396 5.64157 22.8196C6.38157 23.5596 6.90157 23.8896 7.23157 23.8896C7.85157 23.8896 7.78156 22.7096 7.22156 20.9596C6.75156 19.4996 8.04154 16.9496 8.36154 15.1696C8.73154 13.0996 9.15157 10.8196 9.70157 8.13965Z" fill="#5E5E5A"/>
<path d="M5.69948 11.43C4.31948 11.43 2.80948 9.99 2.53948 9.38C2.42948 9.14 2.20948 8.84 1.94948 8.5C1.33948 7.7 0.509473 6.61 0.439473 5.23C0.339473 3.22 1.53946 1.81 2.17946 1.54C2.50946 1.4 2.70946 1.22 2.92946 1.04C3.20946 0.800001 3.50948 0.55 4.09948 0.32C4.20948 0.28 4.34946 0.25 4.48946 0.25C5.50946 0.25 7.09947 1.27 8.24947 2.01L8.64946 2.26C9.85946 3.03 10.4195 4.93 9.97948 6.79C9.45948 9 9.00948 9.31 8.19948 9.88C7.84948 10.12 7.45947 10.4 6.96947 10.88C6.60947 11.24 6.16946 11.42 5.67946 11.42L5.69948 11.43Z" fill="white"/>
<path d="M4.51107 0.329926C5.51107 0.329926 7.08107 1.33993 8.23107 2.07993L8.63106 2.33992C9.81106 3.08992 10.3611 4.95992 9.93105 6.78992C9.42105 8.96992 8.98105 9.27992 8.18105 9.83992C7.85105 10.0699 7.43106 10.3599 6.94106 10.8499C6.59106 11.1899 6.17107 11.3599 5.70107 11.3599C4.36107 11.3599 2.88104 9.94992 2.61104 9.35992C2.50104 9.10992 2.27107 8.80992 2.01107 8.46992C1.41107 7.67992 0.591047 6.58993 0.521047 5.23993C0.421047 3.26993 1.59105 1.88992 2.21105 1.61992C2.55105 1.47992 2.76107 1.29992 2.98107 1.10992C3.26107 0.869924 3.55106 0.629925 4.13106 0.399925C4.23106 0.359925 4.36106 0.339924 4.50106 0.339924M4.51107 0.179924C4.36107 0.179924 4.21105 0.199924 4.09105 0.249924C3.01105 0.669924 2.88106 1.16992 2.16106 1.47992C1.44106 1.78992 0.281063 3.25993 0.381063 5.23993C0.481063 7.21993 2.13107 8.61993 2.48107 9.40993C2.75107 10.0099 4.26105 11.4999 5.71105 11.4999C6.18105 11.4999 6.64105 11.3399 7.05105 10.9399C8.72105 9.31993 9.33105 9.96993 10.081 6.80993C10.501 5.01993 10.0411 3.02992 8.72106 2.19992C7.56106 1.45992 5.69105 0.169922 4.52105 0.169922L4.51107 0.179924Z" fill="#5E5E5A"/>
<mask id="mask0_229_861" style="mask-type:luminance" maskUnits="userSpaceOnUse" x="0" y="0" width="11" height="12">
<path d="M10.0711 6.81954C10.4911 5.02954 10.0311 3.03954 8.71105 2.20954C7.39105 1.37954 5.17105 -0.170455 4.09105 0.249545C3.01105 0.669545 2.88106 1.16954 2.16106 1.47954C1.44106 1.78954 0.281063 3.25955 0.381063 5.23955C0.481063 7.21955 2.13107 8.61955 2.48107 9.40955C2.83107 10.1995 5.38105 12.5695 7.05105 10.9495C8.72105 9.32954 9.33105 9.97954 10.081 6.81954H10.0711Z" fill="white"/>
</mask>
<g mask="url(#mask0_229_861)">
<path opacity="0.75" d="M6.07038 -1.88086C6.07038 -1.88086 7.90036 2.24914 4.74036 2.24914C1.94036 2.24914 3.44038 -1.84086 3.44038 -1.84086L6.07038 -1.87086V-1.88086Z" fill="#E62C2F" stroke="#E62C2F" stroke-width="0.2" stroke-linecap="round" stroke-linejoin="round"/>
</g>
</svg>
