<svg width="15" height="24" viewBox="0 0 15 24" fill="none" xmlns="http://www.w3.org/2000/svg">
<path d="M6.59179 23.4791C6.59179 23.4791 6.5118 23.4791 6.4718 23.4691C5.5618 23.2691 4.51181 21.8991 3.42181 19.5091C2.83181 18.1991 1.9318 16.2291 2.1618 14.1091C2.2718 13.0691 2.6018 9.65906 2.1618 8.28906L13.3918 8.57906C12.9418 9.82906 12.8918 10.4391 12.7918 11.5391L12.7718 11.8091C12.6518 13.1291 12.6018 15.7891 12.8018 17.0991C13.1018 19.0891 13.4518 22.5991 12.8818 23.1191C12.7818 23.2091 12.6718 23.2591 12.5518 23.2591C12.0418 23.2591 11.3618 22.3591 10.8418 21.0291L10.6318 20.4891C10.0918 19.1091 9.53179 17.6791 9.28179 15.5591C9.11179 14.0691 8.7818 13.3091 8.3218 13.3091C8.1418 13.3091 7.9518 13.4291 7.7618 13.6591C7.3218 14.1891 6.92179 16.8191 6.68179 18.3891L6.58178 19.0491C6.50178 19.5391 6.63179 20.3291 6.75179 21.0891C6.91179 22.0691 7.07178 23.0791 6.80178 23.3991C6.75178 23.4591 6.67178 23.4991 6.58178 23.4991L6.59179 23.4791Z" fill="#F4DE9C"/>
<path d="M2.26091 8.35945L13.2909 8.64945C12.8709 9.84945 12.8109 10.4894 12.7209 11.5294L12.7009 11.8094C12.5809 13.1394 12.5309 15.7995 12.7309 17.1195C13.1309 19.7695 13.2909 22.6595 12.8309 23.0695C12.7409 23.1495 12.6509 23.1895 12.5509 23.1895C12.0709 23.1895 11.4209 22.3095 10.9109 21.0095C10.8409 20.8295 10.7709 20.6495 10.7009 20.4695C10.1609 19.0995 9.60088 17.6694 9.36088 15.5594C9.18088 13.9994 8.8409 13.2394 8.3209 13.2394C8.1209 13.2394 7.91091 13.3695 7.70091 13.6095C7.29091 14.1095 6.94088 16.2295 6.61088 18.3595C6.57088 18.6195 6.54091 18.8394 6.51091 19.0194C6.43091 19.5194 6.55089 20.2794 6.68089 21.0894C6.83089 22.0094 6.9909 23.0494 6.7509 23.3394C6.7109 23.3894 6.66089 23.4095 6.59089 23.4095C6.56089 23.4095 6.52089 23.4095 6.49089 23.3995C5.61089 23.2095 4.57089 21.8495 3.49089 19.4795C2.90089 18.1795 2.01089 16.2195 2.24089 14.1195C2.35089 13.0995 2.67089 9.80945 2.27089 8.36945M2.0609 8.19945C2.4609 9.24945 2.33089 11.9694 2.09089 14.0894C1.85089 16.2094 2.7409 18.1994 3.3509 19.5294C3.9609 20.8694 5.18091 23.2494 6.45091 23.5294C6.50091 23.5394 6.54089 23.5495 6.59089 23.5495C7.63089 23.5495 6.4609 20.2895 6.6609 19.0395C6.8709 17.7395 7.3309 14.2895 7.8209 13.6895C7.9809 13.4995 8.1509 13.3695 8.3209 13.3695C8.6709 13.3695 9.02089 13.9195 9.21089 15.5495C9.49089 17.9695 10.1909 19.5295 10.7709 21.0395C11.2509 22.2795 11.9409 23.3195 12.5509 23.3195C12.6809 23.3195 12.8109 23.2695 12.9309 23.1595C13.6009 22.5595 13.0809 18.4195 12.8809 17.0795C12.6809 15.7395 12.7309 13.0895 12.8509 11.7995C12.9709 10.5095 12.9909 9.89945 13.5109 8.48945L2.0609 8.18945V8.19945Z" fill="#5E5E5A"/>
<path d="M8.1725 9.38C7.5125 9.38 6.8825 9.21 6.2625 9.04C5.7025 8.89 5.18248 8.74 4.68248 8.74H4.53249C4.36249 8.76 4.19249 8.76 4.03249 8.76C3.13249 8.76 2.19248 8.59 1.46248 7.35C0.662482 6 0.282485 1.79 1.65248 0.84C2.21248 0.45 2.99248 0.25 3.96248 0.25C4.87248 0.25 5.7825 0.419999 6.3825 0.529999L6.50249 0.549999C6.63249 0.579999 6.76251 0.59 6.89251 0.59C7.19251 0.59 7.48249 0.529999 7.78249 0.459999C8.13249 0.379999 8.49248 0.310001 8.93248 0.310001C10.0825 0.310001 11.4225 0.859999 13.1625 2.05C14.8225 3.18 14.2125 6.48 13.6625 8.06C13.3525 8.95 12.2525 8.98 11.0825 9.01C10.4025 9.03 9.70248 9.05 9.08248 9.23C8.79248 9.32 8.49249 9.36 8.16249 9.36L8.1725 9.38Z" fill="white"/>
<path d="M3.96106 0.329689C4.86106 0.329689 5.76105 0.499688 6.36105 0.609688L6.48108 0.629688C6.61108 0.649688 6.74107 0.669685 6.88107 0.669685C7.19107 0.669685 7.48107 0.609688 7.79107 0.539688C8.14107 0.469688 8.49106 0.389687 8.93106 0.389687C9.64106 0.389687 10.8511 0.569686 13.1211 2.11969C14.7411 3.22969 14.1411 6.47969 13.5911 8.03969C13.3011 8.87969 12.2711 8.90969 11.0811 8.93969C10.4011 8.95969 9.69107 8.97969 9.07107 9.16969C8.79107 9.25969 8.49108 9.29969 8.17108 9.29969C7.52108 9.29969 6.89106 9.12969 6.28106 8.95969C5.72106 8.80969 5.19106 8.65969 4.68106 8.65969C4.63106 8.65969 4.58105 8.65969 4.52105 8.65969C4.35105 8.66969 4.18105 8.67969 4.02105 8.67969C3.14105 8.67969 2.23107 8.50968 1.51107 7.30968C0.721074 5.97968 0.341057 1.82969 1.68106 0.899689C2.23106 0.519689 2.99108 0.329689 3.95108 0.329689M3.96106 0.179688C3.12106 0.179688 2.27105 0.319686 1.61105 0.779686C0.18105 1.76969 0.601059 6.04969 1.40106 7.38969C2.09106 8.54969 2.97107 8.82969 4.04107 8.82969C4.20107 8.82969 4.37105 8.82968 4.55105 8.80968C4.60105 8.80968 4.65108 8.80968 4.70108 8.80968C5.72108 8.80968 6.92106 9.44968 8.18106 9.44968C8.49106 9.44968 8.80106 9.40969 9.12106 9.31969C10.8011 8.81969 13.2311 9.55969 13.7411 8.09969C14.3911 6.23969 14.8411 3.10969 13.2111 1.99969C11.1311 0.579687 9.86106 0.249687 8.93106 0.249687C8.09106 0.249687 7.52108 0.529686 6.89108 0.529686C6.77108 0.529686 6.65105 0.519687 6.52105 0.499687C5.90105 0.389687 4.95107 0.189686 3.97107 0.189686L3.96106 0.179688Z" fill="#5E5E5A"/>
<mask id="mask0_229_909" style="mask-type:luminance" maskUnits="userSpaceOnUse" x="0" y="0" width="15" height="10">
<path d="M13.7293 8.09965C14.3793 6.23965 14.8293 3.10965 13.1993 1.99965C8.87934 -0.950351 8.04934 0.77965 6.50934 0.48965C5.35934 0.27965 3.02933 -0.210353 1.59933 0.779647C0.169331 1.76965 0.58934 6.04965 1.38934 7.38965C2.18934 8.72965 3.22932 8.89965 4.52932 8.81965C5.82932 8.73965 7.41933 9.82965 9.09933 9.31965C10.7793 8.81965 13.2093 9.55965 13.7193 8.09965H13.7293Z" fill="white"/>
</mask>
<g mask="url(#mask0_229_909)">
<path opacity="0.75" d="M9.06858 -1.75051C9.06858 -1.75051 10.5986 2.10949 7.43857 2.13949C4.63857 2.16949 5.78858 -1.77051 5.78858 -1.77051H9.06858V-1.75051Z" fill="#E62C2F" stroke="#E62C2F" stroke-width="0.2" stroke-linecap="round" stroke-linejoin="round"/>
</g>
</svg>
