<svg width="13" height="23" viewBox="0 0 13 23" fill="none" xmlns="http://www.w3.org/2000/svg">
<path d="M5.41281 22.79C5.41281 22.79 5.36279 22.79 5.33279 22.78C4.25279 22.43 2.5528 19.72 2.4628 17.75C2.4228 16.85 2.42281 15.81 2.41281 14.9C2.41281 13.78 2.4128 12.82 2.3428 12.29C2.2228 11.35 1.54281 8.47004 1.13281 7.04004H12.1928C11.8328 7.87004 11.1128 10.19 11.1128 11.27C11.1128 11.7 11.2528 12.22 11.3928 12.77C11.6128 13.63 11.8728 14.61 11.7128 15.57C11.2628 18.34 10.5028 21.8 9.82281 22.41C9.74281 22.49 9.65281 22.52 9.57281 22.52C8.98281 22.52 8.4628 20.47 8.4628 18.14C8.4628 15.56 7.20281 12.65 6.53281 12.65C6.34281 12.65 6.1728 12.75 6.0228 12.95C5.3628 13.82 5.18281 16.37 5.35281 16.98C5.55281 17.69 6.15279 21.94 5.58279 22.69C5.53279 22.75 5.48281 22.79 5.41281 22.79Z" fill="#F4DE9C"/>
<path d="M12.0812 7.10996C11.7112 8.01996 11.0313 10.22 11.0413 11.26C11.0413 11.7 11.1813 12.23 11.3213 12.78C11.5413 13.63 11.7913 14.6 11.6413 15.55C11.1913 18.31 10.4312 21.75 9.77124 22.35C9.70124 22.41 9.63126 22.45 9.57126 22.45C9.09126 22.45 8.54126 20.57 8.54126 18.15C8.54126 15.73 7.31126 12.58 6.54126 12.58C6.33126 12.58 6.14125 12.69 5.97125 12.91C5.30125 13.79 5.11125 16.39 5.28125 17.01C5.47125 17.69 6.06124 21.94 5.52124 22.66C5.48124 22.72 5.44125 22.73 5.41125 22.73C5.39125 22.73 5.38124 22.73 5.36124 22.73C4.32124 22.39 2.63126 19.67 2.54126 17.77C2.50126 16.87 2.50124 15.84 2.49124 14.92C2.49124 13.8 2.49126 12.84 2.42126 12.3C2.30126 11.38 1.65124 8.58996 1.24124 7.13996H12.0912M12.3112 6.95996H1.03125C1.43125 8.31996 2.14126 11.31 2.26126 12.29C2.39126 13.27 2.28126 15.79 2.38126 17.75C2.47126 19.71 4.19125 22.48 5.31125 22.85C5.35125 22.86 5.38125 22.87 5.41125 22.87C6.38125 22.87 5.61126 17.65 5.42126 16.97C5.22126 16.27 5.53125 12.73 6.53125 12.73C7.13125 12.73 8.38126 15.6 8.38126 18.15C8.38126 20.39 8.88125 22.6 9.56125 22.6C9.66125 22.6 9.75124 22.56 9.86124 22.47C10.6912 21.72 11.5213 17.2 11.7812 15.59C12.0412 13.98 11.1812 12.36 11.1812 11.27C11.1812 10.19 11.9612 7.69996 12.3012 6.96996L12.3112 6.95996Z" fill="#5E5E5A"/>
<path d="M6.41772 9.37C6.04772 9.37 5.50771 9.02 4.99771 8.68C4.44771 8.32 3.87771 7.95 3.43771 7.95C3.38771 7.95 3.34769 7.95 3.29769 7.96L3.12771 7.99C2.79771 8.06 2.4477 8.13 2.1477 8.13C1.7077 8.13 1.44771 7.98 1.31771 7.66C0.977714 6.84 0.517722 4.62 1.13772 2.04C1.49772 0.560001 2.64769 0.25 3.54769 0.25C4.49769 0.25 5.46772 0.59 5.97772 0.91C6.22772 1.07 6.5277 1.14 6.9277 1.14C7.1777 1.14 7.45771 1.11 7.74771 1.08C8.07771 1.05 8.43771 1.01 8.81771 1.01C9.59771 1.01 10.2777 1.17 10.9577 1.51C13.0277 2.56 12.7977 6 11.8477 7.98C11.7077 8.26 11.6177 8.29 11.5477 8.29C11.4377 8.29 11.3077 8.19 11.1577 8.07C10.9077 7.88 10.6077 7.65 10.1677 7.61C9.67772 7.61 9.32772 7.91 8.91772 8.26C8.33772 8.75 7.62771 9.36 6.46771 9.36H6.43771L6.41772 9.37Z" fill="white"/>
<path d="M3.54949 0.329926C4.47949 0.329926 5.4395 0.669923 5.9395 0.979923C6.1995 1.14992 6.51949 1.21992 6.92949 1.21992C7.18949 1.21992 7.4595 1.18992 7.7495 1.15992C8.0895 1.12992 8.43951 1.08992 8.81951 1.08992C9.58951 1.08992 10.2595 1.24993 10.9195 1.57993C13.1195 2.69993 12.5495 6.33992 11.7695 7.94992C11.7195 8.04992 11.6295 8.21992 11.5395 8.21992C11.4595 8.21992 11.3295 8.11992 11.1895 8.01992C10.9495 7.83992 10.6195 7.57992 10.1595 7.53992C10.1295 7.53992 10.0995 7.53992 10.0795 7.53992C9.63949 7.53992 9.26951 7.84992 8.84951 8.20992C8.24951 8.71992 7.57951 9.28992 6.41951 9.28992C6.06951 9.28992 5.54951 8.93992 5.03951 8.60992C4.45951 8.22992 3.9095 7.85992 3.4395 7.85992C3.3895 7.85992 3.33951 7.85993 3.28951 7.86993L3.11949 7.90993C2.78949 7.97993 2.4495 8.04993 2.1595 8.04993C1.7495 8.04993 1.51949 7.91993 1.39949 7.61993C1.06949 6.80993 0.599511 4.60992 1.22951 2.04992C1.57951 0.619923 2.68951 0.319923 3.56951 0.319923M3.54949 0.179924C2.46949 0.179924 1.40951 0.619923 1.06951 2.02992C0.419507 4.70992 0.9395 6.92992 1.2495 7.69992C1.4095 8.09992 1.74949 8.21992 2.14949 8.21992C2.50949 8.21992 2.92951 8.11992 3.31951 8.03992C3.35951 8.03992 3.3995 8.02992 3.4395 8.02992C4.2695 8.02992 5.6095 9.43992 6.4095 9.44992C6.4195 9.44992 6.4295 9.44992 6.4395 9.44992C8.4395 9.44992 9.12951 7.68993 10.0695 7.68993C10.0895 7.68993 10.1195 7.68993 10.1395 7.68993C10.8495 7.74993 11.2195 8.36993 11.5295 8.36993C11.6495 8.36993 11.7695 8.27993 11.8895 8.00993C12.7695 6.17993 13.1995 2.56992 10.9695 1.43992C10.1695 1.03992 9.44949 0.929924 8.79949 0.929924C8.07949 0.929924 7.4495 1.05993 6.9095 1.05993C6.5695 1.05993 6.2695 1.00992 5.9995 0.839924C5.4895 0.519924 4.4995 0.169922 3.5295 0.169922L3.54949 0.179924Z" fill="#5E5E5A"/>
<mask id="mask0_229_897" style="mask-type:luminance" maskUnits="userSpaceOnUse" x="0" y="0" width="13" height="10">
<path d="M11.86 8.03944C12.74 6.20944 13.22 2.58944 10.99 1.44944C8.76002 0.309436 7.09002 1.51943 6.02002 0.849434C4.95002 0.179434 1.73004 -0.650566 1.07004 2.02943C0.410037 4.70943 0.94003 6.92943 1.25003 7.69943C1.56003 8.45943 2.51004 8.20944 3.32004 8.03944C4.13004 7.87944 5.58004 9.43943 6.42004 9.44943C8.49004 9.46943 9.17003 7.60943 10.16 7.69943C11.15 7.78943 11.42 8.96944 11.87 8.03944H11.86Z" fill="white"/>
</mask>
<g mask="url(#mask0_229_897)">
<path opacity="0.75" d="M7.92974 -1.48047C7.92974 -1.48047 9.75975 2.64953 6.59975 2.64953C3.79975 2.64953 5.29974 -1.44047 5.29974 -1.44047L7.92974 -1.47047V-1.48047Z" fill="#E62C2F" stroke="#E62C2F" stroke-width="0.2" stroke-linecap="round" stroke-linejoin="round"/>
</g>
</svg>
