<svg width="12" height="21" viewBox="0 0 12 21" fill="none" xmlns="http://www.w3.org/2000/svg">
<path d="M9.01828 20.3997C8.71828 20.3997 8.49831 20.0497 8.38831 19.4097C8.26831 18.6697 8.33829 17.5797 8.40829 16.4297C8.50829 14.7797 8.61828 13.0797 8.17828 12.2097C7.67828 11.2197 7.23828 10.7097 6.85828 10.7097C6.61828 10.7097 6.41829 10.9097 6.27829 11.2897C6.16829 11.5997 6.0183 11.8597 5.8783 12.1097C5.5583 12.6897 5.2583 13.2297 5.3783 14.1597C5.4683 14.8897 5.84828 15.9097 6.20828 16.8897C6.49828 17.6897 6.77828 18.4497 6.89828 18.9997C7.00828 19.5597 6.9983 19.9897 6.8483 20.1697C6.7983 20.2297 6.72831 20.2597 6.63831 20.2597C6.41831 20.2597 5.97829 20.0697 5.11829 19.1397L4.77829 18.7697C3.12829 16.9997 1.92828 15.7297 2.14828 13.3897C2.36828 10.9697 2.1183 9.93973 1.8783 8.93973L1.83829 8.77972C1.68829 8.15972 1.50828 7.66973 1.32828 7.18973C1.20828 6.87973 1.09828 6.56973 0.988281 6.21973H10.0983C9.7183 6.95973 9.95828 7.73973 10.2083 8.56973C10.3383 9.00973 10.4783 9.45972 10.5383 9.91972C10.5983 10.4297 10.7083 10.6897 10.8383 10.9597C11.0583 11.4397 11.2783 11.9397 11.2083 13.9397C11.1083 16.5897 10.7383 17.5497 10.3483 18.5697C10.2783 18.7497 10.2083 18.9297 10.1383 19.1297C9.87831 19.8497 9.40829 20.3797 9.02829 20.3797L9.01828 20.3997Z" fill="#F4DE9C"/>
<path d="M9.97891 6.31016C9.65891 7.04016 9.88892 7.80016 10.1389 8.61016C10.2689 9.04016 10.4089 9.49015 10.4589 9.95015C10.5189 10.4702 10.6389 10.7502 10.7689 11.0102C10.9789 11.4802 11.2089 11.9702 11.1289 13.9602C11.0289 16.6002 10.6589 17.5502 10.2689 18.5602C10.1989 18.7402 10.1289 18.9302 10.0589 19.1202C9.8189 19.8002 9.35889 20.3202 9.01889 20.3202C8.75889 20.3202 8.5589 19.9902 8.4689 19.3902C8.3489 18.6602 8.41889 17.5802 8.48889 16.4302C8.58889 14.7702 8.6989 13.0602 8.2489 12.1702C7.7289 11.1402 7.27889 10.6302 6.85889 10.6302C6.57889 10.6302 6.36889 10.8402 6.20889 11.2602C6.09889 11.5602 5.94891 11.8202 5.81891 12.0702C5.49891 12.6602 5.1889 13.2202 5.3089 14.1702C5.4089 14.9102 5.7789 15.9302 6.1489 16.9102C6.4389 17.7102 6.71889 18.4602 6.82889 19.0102C6.93889 19.5402 6.92889 19.9602 6.79889 20.1202C6.75889 20.1702 6.7189 20.1902 6.6489 20.1902C6.4789 20.1902 6.06889 20.0502 5.17889 19.0902L4.82889 18.7202C3.18889 16.9702 1.9989 15.7002 2.2189 13.3902C2.4389 10.9602 2.18891 9.92015 1.94891 8.92015L1.90891 8.77015C1.75891 8.15015 1.5689 7.65015 1.3989 7.17015C1.2989 6.89015 1.1889 6.61016 1.0889 6.30016H9.97891M10.2189 6.16016H0.878906C1.15891 7.09016 1.50891 7.76015 1.75891 8.81015C2.00891 9.86015 2.29891 10.8602 2.06891 13.3902C1.83891 15.9202 3.22891 17.2302 5.06891 19.2002C5.83891 20.0202 6.3389 20.3402 6.6489 20.3402C7.0789 20.3402 7.12891 19.7202 6.97891 18.9902C6.71891 17.7302 5.62889 15.4602 5.45889 14.1502C5.28889 12.8402 5.97891 12.3202 6.34891 11.3102C6.48891 10.9502 6.65889 10.7802 6.85889 10.7802C7.20889 10.7802 7.6489 11.3102 8.1189 12.2402C8.8489 13.6902 8.02891 17.6202 8.31891 19.4202C8.43891 20.1702 8.70889 20.4702 9.01889 20.4702C9.44889 20.4702 9.93891 19.9002 10.1989 19.1702C10.6489 17.9102 11.1589 17.1102 11.2789 13.9702C11.3989 10.8302 10.7689 11.3202 10.6089 9.93016C10.4489 8.54016 9.53891 7.29016 10.2289 6.16016H10.2189Z" fill="#5E5E5A"/>
<path d="M8.31776 8.03C7.57776 8.03 6.91777 7.56 6.38777 7.18C6.05777 6.94 5.76774 6.74 5.51774 6.68C5.42774 6.66 5.31776 6.65 5.18776 6.65C4.85776 6.65 4.42776 6.71 3.96776 6.78C3.42776 6.86 2.87777 6.94 2.38777 6.94C1.89777 6.94 1.57775 6.86 1.36775 6.69C0.54775 6.01 0.517753 4.38 0.557753 2.63C0.597753 0.980001 1.61776 0.25 2.59776 0.25C2.75776 0.25 2.92775 0.270001 3.08775 0.310001L3.33775 0.369999C4.03775 0.529999 4.50774 0.639999 5.07774 0.639999C5.43774 0.639999 5.83774 0.59 6.32774 0.5C6.49774 0.47 6.66774 0.450001 6.82774 0.450001C7.52774 0.450001 8.08775 0.74 8.52775 0.98C8.76775 1.11 8.96775 1.21 9.14775 1.25C9.20775 1.26 9.27776 1.26 9.34776 1.26H9.71776C10.2478 1.26 10.7778 1.44 11.0278 2.83C11.4078 4.97 10.5278 6.87 9.46776 7.63C9.08776 7.9 8.70776 8.03 8.31776 8.03Z" fill="white"/>
<path d="M2.61962 0.329689C2.77962 0.329689 2.93963 0.349688 3.09963 0.379688L3.34963 0.439686C4.02963 0.599686 4.52961 0.709686 5.10961 0.709686C5.47961 0.709686 5.87962 0.659689 6.36962 0.559689C6.52962 0.529689 6.68963 0.509686 6.84963 0.509686C7.52963 0.509686 8.07961 0.799686 8.51961 1.02969C8.75961 1.15969 8.96962 1.26969 9.15962 1.29969C9.21962 1.30969 9.29962 1.31969 9.36962 1.31969C9.42962 1.31969 9.48961 1.31969 9.54961 1.31969C9.60961 1.31969 9.67961 1.31969 9.73961 1.31969C10.2096 1.31969 10.7296 1.43969 10.9696 2.82969C11.3396 4.93969 10.4796 6.80968 9.43962 7.55968C9.06962 7.81968 8.70961 7.94968 8.32961 7.94968C7.61961 7.94968 6.95962 7.48969 6.43962 7.10969C6.09962 6.86969 5.80961 6.65969 5.54961 6.59969C5.45961 6.57969 5.33961 6.56969 5.20961 6.56969C4.87961 6.56969 4.43963 6.62969 3.97963 6.69969C3.44963 6.77969 2.88962 6.85969 2.40962 6.85969C1.92962 6.85969 1.62962 6.77969 1.43962 6.62969C0.639623 5.96969 0.619625 4.35969 0.659625 2.62969C0.699625 1.02969 1.67962 0.319687 2.61962 0.319687M2.61962 0.179688C1.50962 0.179688 0.549631 1.01969 0.509631 2.63969C0.459631 4.49969 0.509617 6.06969 1.33962 6.75969C1.57962 6.95969 1.95961 7.02969 2.39961 7.02969C3.31961 7.02969 4.49963 6.73969 5.19963 6.73969C5.31963 6.73969 5.41963 6.73969 5.50963 6.76969C6.13963 6.91969 7.11961 8.11969 8.32961 8.11969C8.70961 8.11969 9.10962 7.99968 9.52962 7.69968C10.6796 6.87968 11.4896 4.90969 11.1196 2.81969C10.8596 1.32969 10.2596 1.17969 9.73961 1.17969C9.60961 1.17969 9.47962 1.17969 9.36962 1.17969C9.29962 1.17969 9.23961 1.17969 9.17961 1.16969C8.70961 1.07969 7.94963 0.369686 6.84963 0.369686C6.68963 0.369686 6.51962 0.389685 6.33962 0.419685C5.83962 0.519685 5.45961 0.559689 5.10961 0.559689C4.48961 0.559689 3.96964 0.419689 3.13964 0.239689C2.96964 0.199689 2.79963 0.179688 2.62963 0.179688H2.61962Z" fill="#5E5E5A"/>
<mask id="mask0_229_885" style="mask-type:luminance" maskUnits="userSpaceOnUse" x="0" y="0" width="12" height="9">
<path d="M9.51961 7.69015C10.6696 6.87015 11.4796 4.90015 11.1096 2.81015C10.7396 0.730151 9.70963 1.27015 9.16963 1.17015C8.62963 1.07015 7.69961 0.150147 6.32961 0.420147C4.94961 0.700147 4.42963 0.530151 3.12963 0.240151C1.82963 -0.0598491 0.549631 0.780149 0.509631 2.64015C0.459631 4.50015 0.509617 6.07015 1.33962 6.76015C2.16962 7.45015 4.67963 6.56015 5.50963 6.76015C6.33963 6.96015 7.75962 8.96015 9.52962 7.69015H9.51961Z" fill="white"/>
</mask>
<g mask="url(#mask0_229_885)">
<path opacity="0.75" d="M6.90972 -1.42945C6.90972 -1.42945 8.45971 1.78054 5.77971 1.78054C3.40971 1.78054 4.67971 -1.40945 4.67971 -1.40945L6.90972 -1.43945V-1.42945Z" fill="#E62C2F" stroke="#E62C2F" stroke-width="0.2" stroke-linecap="round" stroke-linejoin="round"/>
</g>
</svg>
