<svg width="8" height="24" viewBox="0 0 8 24" fill="none" xmlns="http://www.w3.org/2000/svg">
<path d="M3.60361 23.1602C3.23361 23.1602 2.79359 21.9701 2.52359 20.2001C1.82359 15.7201 0.91359 11.1202 0.52359 9.15015L0.433594 8.69016L6.71359 8.66016C6.67359 8.85016 6.59359 9.10016 6.49359 9.41016C6.21359 10.2702 5.80362 11.5701 5.64362 13.4501C5.50362 15.0501 5.09359 19.0902 4.24359 22.0502C3.96359 23.0102 3.72361 23.1602 3.60361 23.1602Z" fill="#F4DE9C"/>
<path d="M6.61203 8.73985C6.57203 8.90985 6.50206 9.12985 6.42206 9.38985C6.14206 10.2498 5.73205 11.5598 5.57205 13.4398C5.43205 15.0398 5.03204 19.0698 4.18204 22.0298C3.89204 23.0298 3.66203 23.0798 3.61203 23.0798C3.34203 23.0798 2.90205 22.0698 2.60205 20.1898C1.89205 15.6898 0.982041 11.0899 0.592041 9.11985L0.522034 8.76984L6.61203 8.73985ZM6.79205 8.58984L0.332031 8.61985C0.622031 10.0899 1.66205 15.2298 2.44205 20.2098C2.69205 21.8098 3.12205 23.2299 3.60205 23.2299C3.83205 23.2299 4.07204 22.8898 4.31204 22.0698C5.03204 19.5598 5.48204 16.0998 5.71204 13.4498C5.94204 10.7998 6.68205 9.27984 6.79205 8.58984Z" fill="#5E5E5A"/>
<path d="M3.4524 11.1105C3.0124 11.1105 2.59237 10.9005 2.33237 10.5605C2.11237 10.2605 1.80238 10.1505 1.50238 10.0405C1.04238 9.87051 0.602375 9.71051 0.462375 8.89051C0.162375 7.24051 -0.0976246 2.10051 0.462375 1.12051C0.672375 0.750506 1.65239 0.520508 3.07239 0.520508C4.66239 0.520508 6.35239 0.800507 6.85239 1.14051C7.60239 1.66051 7.17238 5.24051 6.93238 7.16051C6.88238 7.58051 6.84238 7.93051 6.81238 8.17051C6.74238 9.02051 6.15239 9.40051 5.54239 9.80051C5.21239 10.0205 4.87237 10.2405 4.61237 10.5405C4.30237 10.9005 3.8924 11.1005 3.4524 11.1005V11.1105Z" fill="white"/>
<path d="M3.0514 0.600193C4.6314 0.600193 6.30143 0.870194 6.79143 1.21019C7.51143 1.71019 7.06141 5.3902 6.84141 7.1602C6.79141 7.5802 6.75142 7.93019 6.72142 8.17019C6.65142 8.98019 6.08143 9.35019 5.48143 9.75019C5.15143 9.97019 4.80143 10.2002 4.54143 10.5002C4.25143 10.8402 3.85142 11.0302 3.44142 11.0302C3.03142 11.0302 2.63142 10.8302 2.38142 10.5102C2.15142 10.2002 1.83141 10.0802 1.52141 9.9702C1.06141 9.8002 0.661406 9.66019 0.521406 8.88019C0.221406 7.24019 -0.0385834 2.13019 0.501417 1.16019C0.691417 0.820194 1.67143 0.600193 3.04143 0.600193M3.0514 0.450195C1.7814 0.450195 0.631422 0.630196 0.381422 1.0802C-0.188578 2.0902 0.0914215 7.2602 0.381422 8.9002C0.631422 10.3102 1.73141 9.88019 2.27141 10.6002C2.55141 10.9702 2.99143 11.1802 3.45143 11.1802C3.88143 11.1802 4.32142 11.0002 4.66142 10.6002C5.38142 9.76019 6.76142 9.54019 6.88142 8.18019C7.00142 6.82019 7.84142 1.7502 6.88142 1.0802C6.35142 0.710196 4.61141 0.450195 3.06141 0.450195H3.0514Z" fill="#5E5E5A"/>
<mask id="mask0_229_1042" style="mask-type:luminance" maskUnits="userSpaceOnUse" x="0" y="0" width="8" height="12">
<path d="M0.383131 8.90025C0.633131 10.3102 1.73311 9.88025 2.27311 10.6002C2.81311 11.3202 3.95314 11.4402 4.67314 10.6002C5.39314 9.76025 6.77314 9.54025 6.89314 8.18025C7.01314 6.82025 7.85314 1.75025 6.89314 1.08025C5.93314 0.420248 0.96314 0.0702485 0.39314 1.08025C-0.17686 2.09025 0.10314 7.26025 0.39314 8.90025H0.383131Z" fill="white"/>
</mask>
<g mask="url(#mask0_229_1042)">
<path opacity="0.75" d="M2.52415 -1.67969C2.52415 -1.67969 0.814171 2.12031 3.76417 2.12031C6.38417 2.12031 4.98417 -1.64969 4.98417 -1.64969L2.52415 -1.67969Z" fill="#E62C2F" stroke="#E62C2F" stroke-width="0.2" stroke-linecap="round" stroke-linejoin="round"/>
</g>
</svg>
