<svg width="9" height="25" viewBox="0 0 9 25" fill="none" xmlns="http://www.w3.org/2000/svg">
<path d="M4.42032 24.6707C3.93032 24.6707 3.4003 23.1807 3.2403 21.3407C2.8503 16.9107 1.96031 13.2407 1.38031 10.8007C1.11031 9.67067 0.890313 8.76066 0.820312 8.18066H8.14032C8.08032 8.37066 8.0003 8.60067 7.9003 8.87067C7.5203 9.90067 6.95031 11.4607 6.76031 13.7507C6.61031 15.5507 6.15031 20.0807 5.19031 23.4207C4.88031 24.5107 4.57032 24.6807 4.42032 24.6807V24.6707Z" fill="#F4DE9C"/>
<path d="M8.02875 8.25059C7.96875 8.42059 7.89876 8.62058 7.81876 8.84058C7.43876 9.88058 6.86874 11.4406 6.67874 13.7406C6.52874 15.5306 6.06873 20.0706 5.10873 23.3906C4.78873 24.5006 4.49875 24.5906 4.40875 24.5906C4.01875 24.5906 3.46874 23.2506 3.29874 21.3306C2.90874 16.8906 2.01875 13.2206 1.43875 10.7806C1.17875 9.70059 0.968763 8.83059 0.888763 8.25059H8.01874M8.22876 8.10059H0.71875C0.90875 9.89059 2.56874 14.7406 3.14874 21.3406C3.30874 23.1506 3.82875 24.7406 4.40875 24.7406C4.68875 24.7406 4.97875 24.3606 5.24875 23.4306C6.05875 20.6106 6.56876 16.7306 6.81876 13.7506C7.06876 10.7706 7.96876 9.01059 8.22876 8.10059Z" fill="#5E5E5A"/>
<path d="M4.65958 11.8805C4.59958 11.8805 4.53957 11.8705 4.48957 11.8505C3.52957 11.4305 1.20958 9.75051 1.05958 9.29051C0.479577 7.56051 0.239586 1.30051 1.59959 0.720509C1.75959 0.650509 1.92957 0.620506 2.11957 0.620506C2.50957 0.620506 2.90959 0.750506 3.25959 0.870506C3.54959 0.970506 3.79959 1.05051 4.00959 1.05051C4.11959 1.05051 4.20958 1.03051 4.27958 0.980507C4.53958 0.800507 5.45957 0.520508 6.23957 0.520508C6.65957 0.520508 7.20957 0.600509 7.45957 0.970509C8.01957 1.84051 8.69957 6.22051 8.23957 7.83051C7.82957 9.29051 5.68958 11.8805 4.65958 11.8805Z" fill="white"/>
<path d="M6.24117 0.600193C6.64117 0.600193 7.1712 0.670195 7.3912 1.0202C7.9512 1.8802 8.6212 6.22019 8.1712 7.82019C7.7412 9.35019 5.57119 11.8102 4.66119 11.8102C4.61119 11.8102 4.56117 11.8102 4.52117 11.7802C3.59117 11.3702 1.28119 9.7002 1.13119 9.2602C0.571188 7.5902 0.331188 1.3402 1.63119 0.790195C1.78119 0.730195 1.94118 0.700195 2.12118 0.700195C2.49118 0.700195 2.89119 0.830195 3.23119 0.950195C3.53119 1.0502 3.78118 1.14019 4.00118 1.14019C4.12118 1.14019 4.23118 1.11019 4.31118 1.05019C4.53118 0.900194 5.40119 0.610195 6.23119 0.610195M6.24117 0.450195C5.42117 0.450195 4.50119 0.730193 4.23119 0.920193C4.17119 0.960193 4.09118 0.980194 4.00118 0.980194C3.56118 0.980194 2.83118 0.540195 2.12118 0.540195C1.93118 0.540195 1.75119 0.570196 1.57119 0.650196C0.13119 1.2602 0.421173 7.61019 0.991173 9.31019C1.16117 9.82019 3.53117 11.5102 4.46117 11.9202C4.52117 11.9502 4.59119 11.9602 4.66119 11.9602C5.70119 11.9602 7.89118 9.3702 8.31118 7.8602C8.76118 6.2502 8.11117 1.85019 7.52117 0.940193C7.28117 0.580193 6.78117 0.450195 6.24117 0.450195Z" fill="#5E5E5A"/>
<mask id="mask0_229_970" style="mask-type:luminance" maskUnits="userSpaceOnUse" x="0" y="0" width="9" height="12">
<path d="M1.56946 0.650615C2.56946 0.220615 3.77947 1.23061 4.22947 0.920612C4.67947 0.610612 6.92945 0.0306122 7.51945 0.940612C8.10945 1.85061 8.76945 6.25061 8.30945 7.86061C7.85945 9.47061 5.37947 12.3306 4.44947 11.9206C3.51947 11.5106 1.14947 9.82061 0.979468 9.31061C0.409468 7.61061 0.119455 1.27062 1.55945 0.650615H1.56946Z" fill="white"/>
</mask>
<g mask="url(#mask0_229_970)">
<path opacity="0.75" d="M2.96063 -1.60938C2.96063 -1.60938 1.13064 2.52063 4.29064 2.52063C7.09064 2.52063 5.59063 -1.56937 5.59063 -1.56937L2.96063 -1.59937V-1.60938Z" fill="#E62C2F" stroke="#E62C2F" stroke-width="0.5" stroke-linecap="round" stroke-linejoin="round"/>
</g>
</svg>
