<svg width="9" height="30" viewBox="0 0 9 30" fill="none" xmlns="http://www.w3.org/2000/svg">
<path d="M4.67111 29.8902C4.48111 29.8902 3.9611 29.7002 3.3811 27.9502C2.3411 24.8102 1.5411 22.4002 1.5011 18.5902C1.4611 14.2102 1.36109 9.78024 0.621094 7.80024L7.90109 7.74023C7.75109 8.67023 7.60108 10.6402 7.61108 13.4702C7.61108 16.5502 7.55109 17.8502 7.12109 19.4302L6.70111 20.9702C5.98111 23.5802 5.47111 25.4602 5.45111 27.6502C5.45111 28.9602 5.1211 29.8802 4.6611 29.8802L4.67111 29.8902Z" fill="#F4DE9C"/>
<path d="M7.80954 7.81015C7.65954 8.78015 7.51954 10.7202 7.52954 13.4602C7.52954 16.5302 7.46953 17.8202 7.04953 19.4002C6.89953 19.9402 6.75955 20.4502 6.62955 20.9402C5.90955 23.5602 5.38955 25.4502 5.37955 27.6502C5.36955 29.0702 5.00956 29.8102 4.66956 29.8102C4.37956 29.8102 3.90955 29.3102 3.44955 27.9202L3.41956 27.8302C2.40956 24.7802 1.60953 22.3802 1.57953 18.5802C1.53953 14.2702 1.43953 9.90015 0.739532 7.86015L7.81955 7.80016M7.98953 7.66016L0.519531 7.72015C1.31953 9.72015 1.38953 14.5601 1.42953 18.5901C1.45953 22.4501 2.27954 24.8802 3.30954 27.9702C3.76954 29.3602 4.26956 29.9602 4.66956 29.9602C5.15956 29.9602 5.51954 29.0702 5.52954 27.6602C5.54954 25.0802 6.24955 22.9701 7.19955 19.4501C7.62955 17.8601 7.69954 16.5302 7.68954 13.4702C7.68954 10.3102 7.86954 8.41016 7.99954 7.66016H7.98953Z" fill="#5E5E5A"/>
<path d="M3.91079 12.4605C3.86079 12.4605 3.81079 12.4605 3.78079 12.4305C3.14079 12.1005 2.3008 11.2705 1.6408 10.3205C0.320801 8.45055 0.200781 4.99055 0.400781 4.13055C0.610781 3.24055 3.83077 0.310547 4.61077 0.310547C5.37077 0.340547 7.72079 1.24054 8.10079 2.10054C8.46079 2.92054 8.30077 7.06055 7.58077 8.94055C6.95077 10.5905 4.7308 12.4505 3.9208 12.4505L3.91079 12.4605Z" fill="white"/>
<path d="M4.60148 0.390232C5.41148 0.420232 7.68146 1.35023 8.02146 2.14023C8.38146 2.96023 8.21147 7.05023 7.50147 8.92023C6.84147 10.6502 4.62148 12.3802 3.91148 12.3802C3.87148 12.3802 3.84148 12.3802 3.82148 12.3602C3.19148 12.0302 2.36148 11.2102 1.70148 10.2802C0.401485 8.43023 0.281474 5.00023 0.471474 4.15023C0.661474 3.31023 3.87148 0.390232 4.60148 0.390232ZM4.60148 0.240234C3.78148 0.240234 0.53148 3.19023 0.32148 4.12023C0.11148 5.05023 0.25148 8.50024 1.57148 10.3702C2.27148 11.3602 3.12146 12.1702 3.74146 12.5002C3.79146 12.5202 3.84147 12.5402 3.90147 12.5402C4.72147 12.5402 6.98148 10.6802 7.63148 8.98024C8.33148 7.14024 8.54147 2.97023 8.15147 2.08023C7.76147 1.20023 5.40146 0.280234 4.61146 0.240234C4.61146 0.240234 4.61148 0.240234 4.60148 0.240234Z" fill="#5E5E5A"/>
<mask id="mask0_229_1018" style="mask-type:luminance" maskUnits="userSpaceOnUse" x="0" y="0" width="9" height="13">
<path d="M1.57148 10.3705C0.25148 8.50046 0.11148 5.05046 0.32148 4.12046C0.53148 3.19046 3.82146 0.210459 4.61146 0.240459C5.40146 0.270459 7.77147 1.19046 8.15147 2.08046C8.54147 2.96046 8.33148 7.14046 7.63148 8.98046C6.93148 10.8205 4.36146 12.8305 3.74146 12.5105C3.12146 12.1805 2.26148 11.3705 1.57148 10.3805V10.3705Z" fill="white"/>
</mask>
<g mask="url(#mask0_229_1018)">
<path opacity="0.75" d="M3.39033 -1.81934C3.39033 -1.81934 1.56032 2.31067 4.72032 2.31067C7.52032 2.31067 6.0203 -1.77934 6.0203 -1.77934L3.39033 -1.80934V-1.81934Z" fill="#E62C2F" stroke="#E62C2F" stroke-width="0.2" stroke-linecap="round" stroke-linejoin="round"/>
</g>
</svg>
