<svg width="10" height="25" viewBox="0 0 10 25" fill="none" xmlns="http://www.w3.org/2000/svg">
<path d="M4.3175 24.78C4.2575 24.78 4.2075 24.75 4.1575 24.7C3.8375 24.36 3.71749 23.03 3.83749 21.23C4.02749 18.46 3.57751 16.85 3.13751 15.3L2.94751 14.61C2.41751 12.63 1.9875 10.67 1.4375 7.95996H8.4975C8.4575 8.10996 8.39748 8.27996 8.32748 8.46996C7.99748 9.46996 7.48751 10.99 7.41751 13.52C7.33751 16.42 6.7275 20.81 5.2775 23.61C4.7575 24.62 4.4575 24.77 4.3175 24.77V24.78Z" fill="#F4DE9C"/>
<path d="M8.39764 8.03989C8.35764 8.16989 8.30766 8.30988 8.25766 8.45988C7.92766 9.46988 7.41766 10.9899 7.34766 13.5299C7.26766 16.4199 6.65764 20.7999 5.20764 23.5899C4.66764 24.6299 4.38766 24.7099 4.31766 24.7099C4.29766 24.7099 4.25765 24.7099 4.21765 24.6499C3.91765 24.3299 3.79766 22.9899 3.91766 21.2399C4.10766 18.4599 3.65765 16.8399 3.21765 15.2799C3.15765 15.0499 3.08765 14.8299 3.02765 14.5999C2.50765 12.6399 2.07766 10.6999 1.53766 8.04989H8.39764M8.59766 7.88988H1.34766C1.89766 10.5799 2.33766 12.5999 2.87766 14.6299C3.33766 16.3799 3.97766 18.0499 3.75766 21.2199C3.62766 23.1399 3.75766 24.8499 4.31766 24.8499C4.56766 24.8499 4.90765 24.4999 5.33765 23.6499C6.73765 20.9499 7.39764 16.6299 7.48764 13.5199C7.57764 10.4199 8.32765 8.81988 8.58765 7.87988L8.59766 7.88988Z" fill="#5E5E5A"/>
<path d="M5.21991 11.3399C5.08991 11.3399 4.96991 11.3199 4.83991 11.2899C3.99991 11.0399 3.04992 10.0099 2.41992 9.32993C2.26992 9.16993 2.13992 9.02992 2.03992 8.91992C1.20992 8.08992 0.749909 5.57992 0.809909 4.27992C0.859909 3.17992 1.1799 2.93992 1.9299 2.35992C2.0899 2.23992 2.27992 2.08992 2.47992 1.92992C3.36992 1.19992 4.3999 0.419922 5.2699 0.419922C5.5299 0.419922 5.7499 0.489923 5.9599 0.619923C6.6699 1.08992 7.31991 1.36993 7.83991 1.57993C9.25991 2.17993 9.8499 2.41992 9.0199 5.43992C8.7999 6.22992 8.68992 6.89992 8.59992 7.48992C8.43992 8.47992 8.31992 9.19992 7.78992 9.71992C7.03992 10.4499 6.11991 11.3399 5.21991 11.3399Z" fill="white"/>
<path d="M5.27088 0.340076V0.490078C5.51088 0.490078 5.72089 0.550077 5.91089 0.680077C6.63089 1.16008 7.28088 1.43008 7.80088 1.65008C9.18088 2.23008 9.75089 2.47007 8.94089 5.42007C8.72089 6.21007 8.61088 6.88008 8.52088 7.48008C8.36088 8.46008 8.25089 9.17008 7.72089 9.68008C6.99089 10.3901 6.09089 11.2701 5.22089 11.2701C5.10089 11.2701 4.98089 11.2501 4.87089 11.2201C4.05089 10.9701 3.1009 9.96008 2.4809 9.28008C2.3309 9.12008 2.20089 8.98008 2.09089 8.87008C1.34089 8.12008 0.810906 5.75008 0.890906 4.29008C0.940906 3.22008 1.2509 2.99008 1.9809 2.43008C2.1409 2.30008 2.33089 2.16008 2.53089 2.00008C3.41089 1.28008 4.43088 0.500076 5.27088 0.500076V0.350075M5.27088 0.340076C4.37088 0.340076 3.32089 1.15008 2.44089 1.87008C1.31089 2.80008 0.810881 2.89008 0.740881 4.27008C0.670881 5.65008 1.17088 8.14008 1.99088 8.97008C2.55088 9.53008 3.76088 11.0301 4.83088 11.3501C4.96088 11.3901 5.0909 11.4101 5.2309 11.4101C6.1709 11.4101 7.1009 10.5001 7.8509 9.76008C8.7109 8.92008 8.5109 7.58008 9.1009 5.45008C10.2609 1.24008 8.6209 2.29008 6.0109 0.550076C5.7809 0.400076 5.54089 0.330078 5.28089 0.330078L5.27088 0.340076Z" fill="#5E5E5A"/>
<mask id="mask0_229_1030" style="mask-type:luminance" maskUnits="userSpaceOnUse" x="0" y="0" width="10" height="12">
<path d="M1.97916 8.96979C1.15916 8.14979 0.659163 5.65979 0.729163 4.26979C0.799163 2.88979 1.29914 2.79979 2.42914 1.86979C3.55914 0.939787 4.96914 -0.130213 5.98914 0.549787C8.59914 2.28979 10.2391 1.23979 9.07914 5.44979C8.48914 7.57979 8.68914 8.91979 7.82914 9.75979C6.96914 10.5998 5.87915 11.6698 4.80915 11.3498C3.73915 11.0298 2.52915 9.51979 1.96915 8.96979H1.97916Z" fill="white"/>
</mask>
<g mask="url(#mask0_229_1030)">
<path opacity="0.75" d="M3.89813 -1.7207C3.89813 -1.7207 2.06814 2.4093 5.22814 2.4093C8.02814 2.4093 6.52813 -1.6807 6.52813 -1.6807L3.89813 -1.7107V-1.7207Z" fill="#E62C2F" stroke="#E62C2F" stroke-width="0.2" stroke-linecap="round" stroke-linejoin="round"/>
</g>
</svg>
