<svg width="11" height="24" viewBox="0 0 11 24" fill="none" xmlns="http://www.w3.org/2000/svg">
<path d="M3.97594 23.7709C3.87594 23.7709 3.79595 23.7309 3.73595 23.6509C3.49595 23.3209 3.61594 22.3309 4.05594 20.9409C4.37594 19.9509 3.91594 18.5009 3.46594 17.1009C3.23594 16.3809 3.02594 15.7109 2.91594 15.1109C2.54594 13.0709 2.13594 10.8009 1.58594 8.1709H9.47594L9.30594 8.4809C8.60594 9.7809 7.88594 11.1209 7.80594 13.9309C7.72594 16.7409 7.61594 20.5909 5.50594 22.7209C4.64594 23.5909 4.19594 23.7709 3.97594 23.7709Z" fill="#F4DE9C"/>
<path d="M9.35782 8.25059C9.31782 8.32059 9.28782 8.39059 9.24782 8.46059C8.54782 9.77059 7.82782 11.1206 7.73782 13.9406C7.65782 16.7406 7.54782 20.5706 5.45782 22.6706C4.56782 23.5606 4.14781 23.7006 3.97781 23.7006C3.89781 23.7006 3.83782 23.6706 3.79782 23.6106C3.56782 23.3006 3.69782 22.3106 4.13782 20.9706C4.46782 19.9606 3.99782 18.5006 3.54782 17.0906C3.31782 16.3806 3.10782 15.7006 2.99782 15.1106V15.0706C2.62782 13.0906 2.22782 10.8506 1.68782 8.26059H9.35782M9.60782 8.10059H1.50781C2.05781 10.7806 2.47782 13.0606 2.84782 15.1306C3.16782 16.9106 4.46782 19.4606 3.98782 20.9206C3.41782 22.6706 3.35781 23.8506 3.97781 23.8506C4.30781 23.8506 4.82783 23.5206 5.56783 22.7806C7.63783 20.7006 7.80781 17.0406 7.89781 13.9406C7.98781 10.8406 8.86782 9.52059 9.60782 8.10059Z" fill="#5E5E5A"/>
<path d="M5.49213 11.3909C5.00213 11.3909 4.57212 11.2109 4.20212 10.8509C3.71212 10.3709 3.31213 10.0909 2.97213 9.85094C2.16213 9.28094 1.72213 8.97094 1.19213 6.76094C0.752129 4.90094 1.31213 3.00094 2.52213 2.23094L2.92212 1.97094C4.08212 1.23094 5.66212 0.210938 6.68212 0.210938C6.83212 0.210938 6.96213 0.230937 7.07213 0.280937C7.67213 0.510937 7.96213 0.760938 8.24213 1.00094C8.46213 1.19094 8.67213 1.36094 8.99213 1.50094C9.62213 1.77094 10.8321 3.18094 10.7321 5.19094C10.6621 6.56094 9.83213 7.66094 9.22213 8.46094C8.96213 8.80094 8.74213 9.09093 8.63213 9.34093C8.36213 9.95093 6.85213 11.3909 5.47213 11.3909H5.49213Z" fill="white"/>
<path d="M6.69108 0.290627C6.83108 0.290627 6.95108 0.310624 7.06108 0.350624C7.65108 0.580624 7.93108 0.820627 8.21108 1.06063C8.43108 1.25063 8.65107 1.43063 8.98107 1.57063C9.60107 1.84063 10.7711 3.21062 10.6711 5.19062C10.6011 6.54062 9.78107 7.63062 9.18107 8.42062C8.92107 8.76062 8.69108 9.06062 8.58108 9.31062C8.32108 9.90062 6.84108 11.3106 5.49108 11.3106C5.02108 11.3106 4.60108 11.1406 4.25108 10.8006C3.75108 10.3206 3.34107 10.0306 3.01107 9.79063C2.22107 9.23063 1.78107 8.92063 1.26107 6.74063C0.831072 4.91063 1.37108 3.04063 2.56108 2.29063L2.96108 2.03062C4.11108 1.29062 5.68107 0.280624 6.68107 0.280624M6.69108 0.140625C5.52108 0.140625 3.65108 1.43062 2.49108 2.17062C1.17108 3.00062 0.711082 4.99062 1.13108 6.78062C1.88108 9.94062 2.49108 9.28063 4.16108 10.9106C4.57108 11.3106 5.03108 11.4706 5.50108 11.4706C6.94108 11.4706 8.46107 9.97062 8.73107 9.38062C9.08107 8.59062 10.7311 7.19062 10.8311 5.21062C10.9311 3.23062 9.77108 1.76063 9.05108 1.45063C8.33108 1.14063 8.21107 0.650627 7.12107 0.220627C6.99107 0.170627 6.85107 0.150627 6.70107 0.150627L6.69108 0.140625Z" fill="#5E5E5A"/>
<mask id="mask0_229_958" style="mask-type:luminance" maskUnits="userSpaceOnUse" x="0" y="0" width="11" height="12">
<path d="M1.11936 6.78048C0.699364 4.99048 1.15936 3.00048 2.47936 2.17048C3.79936 1.34048 6.01937 -0.209517 7.09937 0.210483C8.17937 0.630483 8.30937 1.13048 9.02937 1.44048C9.74937 1.75048 10.9094 3.22048 10.8094 5.20048C10.7094 7.18048 9.05938 8.58049 8.70938 9.37049C8.35938 10.1605 5.80937 12.5305 4.13937 10.9105C2.46937 9.29049 1.85937 9.94048 1.10937 6.78048H1.11936Z" fill="white"/>
</mask>
<g mask="url(#mask0_229_958)">
<path opacity="0.75" d="M5.12079 -1.91992C5.12079 -1.91992 3.29079 2.21008 6.45079 2.21008C9.25079 2.21008 7.7508 -1.87992 7.7508 -1.87992L5.12079 -1.90992V-1.91992Z" fill="#E62C2F" stroke="#E62C2F" stroke-width="0.2" stroke-linecap="round" stroke-linejoin="round"/>
</g>
</svg>
