<svg width="15" height="24" viewBox="0 0 15 24" fill="none" xmlns="http://www.w3.org/2000/svg">
<path d="M8.6125 23.4405C8.5225 23.4405 8.4425 23.4105 8.3925 23.3405C8.1225 23.0205 8.2825 22.0105 8.4425 21.0305C8.5625 20.2605 8.6925 19.4705 8.6125 18.9905L8.5125 18.3305C8.2725 16.7605 7.8725 14.1405 7.4425 13.6105C7.2525 13.3805 7.06251 13.2605 6.88251 13.2605C6.42251 13.2605 6.0925 14.0205 5.9225 15.5105C5.6725 17.6305 5.11251 19.0605 4.57251 20.4405L4.3625 20.9805C3.8525 22.3105 3.1625 23.2105 2.6525 23.2105C2.5325 23.2105 2.42251 23.1605 2.32251 23.0705C1.75251 22.5605 2.1025 19.0505 2.4025 17.0505C2.6025 15.7405 2.5525 13.0805 2.4325 11.7605L2.41251 11.4905C2.31251 10.4005 2.2625 9.78046 1.8125 8.53046L13.0425 8.23047C12.6025 9.60047 12.9225 13.0205 13.0425 14.0505C13.2725 16.1805 12.3825 18.1505 11.7825 19.4505C10.6925 21.8405 9.6425 23.2105 8.7325 23.4105C8.6925 23.4105 8.6525 23.4205 8.6125 23.4205V23.4405Z" fill="#F4DE9C"/>
<path d="M12.9314 8.32015C12.5314 9.77015 12.8414 13.0602 12.9614 14.0702C13.1914 16.1802 12.3014 18.1402 11.7114 19.4302C10.6314 21.8002 9.60141 23.1502 8.71141 23.3502C8.67141 23.3502 8.6414 23.3602 8.6114 23.3602C8.5414 23.3602 8.4914 23.3402 8.4514 23.2902C8.2014 23.0002 8.37141 21.9602 8.52141 21.0402C8.65141 20.2302 8.77141 19.4702 8.69141 18.9702C8.66141 18.7902 8.6314 18.5602 8.5914 18.3102C8.2714 16.1802 7.9114 14.0602 7.5014 13.5602C7.3014 13.3102 7.09141 13.1902 6.88141 13.1902C6.36141 13.1902 6.0314 13.9502 5.8414 15.5102C5.5914 17.6202 5.0414 19.0402 4.5014 20.4202C4.4314 20.6002 4.3614 20.7802 4.2914 20.9602C3.7914 22.2702 3.1314 23.1402 2.6514 23.1402C2.5514 23.1402 2.4614 23.1001 2.3714 23.0201C1.9114 22.6101 2.08141 19.7202 2.47141 17.0702C2.67141 15.7502 2.6214 13.0902 2.5014 11.7602L2.4814 11.4802C2.3914 10.4502 2.33141 9.80015 1.91141 8.60015L12.9414 8.31015M13.1414 8.16016L1.69141 8.46015C2.21141 9.87015 2.23141 10.4901 2.35141 11.7701C2.47141 13.0501 2.52141 15.7002 2.32141 17.0502C2.12141 18.4002 1.60141 22.5401 2.27141 23.1301C2.39141 23.2401 2.5214 23.2902 2.6514 23.2902C3.2514 23.2902 3.9514 22.2502 4.4314 21.0102C5.0114 19.5002 5.71141 17.9401 5.99141 15.5201C6.18141 13.8901 6.52141 13.3401 6.88141 13.3401C7.05141 13.3401 7.22141 13.4702 7.38141 13.6602C7.87141 14.2602 8.3314 17.7102 8.5414 19.0102C8.7414 20.2602 7.5714 23.5201 8.6114 23.5201C8.6514 23.5201 8.7014 23.5202 8.7514 23.5002C10.0314 23.2202 11.2414 20.8402 11.8514 19.5002C12.4614 18.1602 13.3514 16.1802 13.1114 14.0602C12.8814 11.9402 12.7414 9.21015 13.1414 8.17015V8.16016Z" fill="#5E5E5A"/>
<path d="M7.02239 9.33949C6.69239 9.33949 6.39239 9.29949 6.10239 9.20949C5.49239 9.02949 4.79239 9.00949 4.11239 8.98949C2.94239 8.95949 1.84238 8.92949 1.53238 8.03949C0.982384 6.45949 0.372384 3.15949 2.03238 2.02949C3.77238 0.839491 5.12238 0.289494 6.26238 0.289494C6.70238 0.289494 7.07239 0.369491 7.41239 0.439491C7.71239 0.499491 8.00239 0.569492 8.30239 0.569492C8.43239 0.569492 8.55239 0.559491 8.69239 0.529491L8.81238 0.509491C9.41238 0.399491 10.3224 0.229492 11.2324 0.229492C12.2024 0.229492 12.9824 0.429492 13.5424 0.819492C14.9124 1.76949 14.5324 5.97949 13.7324 7.32949C13.0024 8.56949 12.0624 8.73949 11.1624 8.73949C11.0024 8.73949 10.8324 8.73949 10.6624 8.71949H10.5124C10.0224 8.71949 9.49239 8.85949 8.94239 9.00949C8.32239 9.17949 7.69238 9.34949 7.03238 9.34949L7.02239 9.33949Z" fill="white"/>
<path d="M11.2317 0.289883C12.1917 0.289883 12.9517 0.479882 13.5017 0.859882C14.8417 1.78988 14.4517 5.93988 13.6717 7.26988C12.9617 8.46988 12.0417 8.63988 11.1617 8.63988C11.0017 8.63988 10.8317 8.63988 10.6617 8.61988C10.6117 8.61988 10.5617 8.61988 10.5017 8.61988C10.0017 8.61988 9.47166 8.76988 8.90166 8.91988C8.29166 9.08988 7.66166 9.25988 7.01166 9.25988C6.69166 9.25988 6.40167 9.21988 6.11167 9.12988C5.49167 8.93988 4.78167 8.91988 4.10167 8.89988C2.91167 8.86988 1.89166 8.83988 1.59166 7.99988C1.04166 6.42988 0.441664 3.17988 2.06166 2.07988C4.33166 0.529884 5.54167 0.34988 6.25167 0.34988C6.69167 0.34988 7.04167 0.429882 7.39167 0.499882C7.70167 0.569882 7.99167 0.629883 8.30167 0.629883C8.44167 0.629883 8.57166 0.619882 8.70166 0.589882L8.82167 0.569881C9.42167 0.459881 10.3217 0.289883 11.2217 0.289883M11.2317 0.139881C10.2517 0.139881 9.29166 0.329883 8.68166 0.449883C8.55166 0.469883 8.43166 0.479881 8.31166 0.479881C7.67166 0.479881 7.11167 0.199883 6.27167 0.199883C5.34167 0.199883 4.07167 0.539883 1.99167 1.94988C0.371672 3.05988 0.821674 6.18988 1.46167 8.04988C1.97167 9.50988 4.40167 8.76988 6.08167 9.26988C6.40167 9.36988 6.71167 9.39988 7.02167 9.39988C8.29167 9.39988 9.48167 8.75988 10.5017 8.75988C10.5517 8.75988 10.6017 8.75988 10.6517 8.75988C10.8217 8.76988 10.9917 8.77988 11.1617 8.77988C12.2317 8.77988 13.1117 8.49988 13.8017 7.33988C14.6017 5.99988 15.0217 1.71988 13.5917 0.729881C12.9317 0.269881 12.0817 0.129883 11.2417 0.129883L11.2317 0.139881Z" fill="#5E5E5A"/>
<mask id="mask0_229_1006" style="mask-type:luminance" maskUnits="userSpaceOnUse" x="0" y="0" width="15" height="10">
<path d="M1.46136 8.04985C0.811359 6.18985 0.361358 3.05985 1.99136 1.94985C6.31136 -1.00015 7.14134 0.729844 8.68134 0.439844C9.83134 0.229844 12.1613 -0.260156 13.5913 0.729844C15.0213 1.71984 14.6014 5.99984 13.8014 7.33984C13.0014 8.67984 11.9614 8.84984 10.6614 8.76984C9.36136 8.68984 7.77135 9.77984 6.09135 9.26984C4.41135 8.76984 1.98135 9.50985 1.47135 8.04985H1.46136Z" fill="white"/>
</mask>
<g mask="url(#mask0_229_1006)">
<path opacity="0.75" d="M6.13202 -1.79055C6.13202 -1.79055 4.60201 2.06945 7.76201 2.09945C10.562 2.12945 9.41202 -1.81055 9.41202 -1.81055H6.13202V-1.79055Z" fill="#E62C2F" stroke="#E62C2F" stroke-width="0.2" stroke-linecap="round" stroke-linejoin="round"/>
</g>
</svg>
