<svg width="13" height="23" viewBox="0 0 13 23" fill="none" xmlns="http://www.w3.org/2000/svg">
<path d="M7.78781 22.749C7.72781 22.749 7.66781 22.719 7.61781 22.649C7.04781 21.899 7.64782 17.649 7.84782 16.939C8.01782 16.329 7.83781 13.779 7.17781 12.909C7.02781 12.709 6.84782 12.609 6.66782 12.609C5.99782 12.609 4.73782 15.519 4.73782 18.099C4.73782 20.429 4.21782 22.479 3.62782 22.479C3.54782 22.479 3.46782 22.439 3.37782 22.369C2.69782 21.759 1.92782 18.299 1.48782 15.529C1.32782 14.559 1.58782 13.589 1.80782 12.729C1.94782 12.179 2.08781 11.659 2.08781 11.229C2.08781 10.149 1.36781 7.82902 1.00781 6.99902H12.0678C11.6578 8.41902 10.9878 11.299 10.8578 12.249C10.7878 12.779 10.7878 13.749 10.7878 14.859C10.7878 15.779 10.7878 16.809 10.7378 17.709C10.6478 19.679 8.94781 22.389 7.86781 22.739H7.78781V22.749Z" fill="#F4DE9C"/>
<path d="M11.9589 7.05941C11.5489 8.50941 10.8989 11.2994 10.7789 12.2194C10.7089 12.7594 10.7089 13.7194 10.7089 14.8394C10.7089 15.7494 10.7089 16.7894 10.6589 17.6894C10.5689 19.5994 8.8689 22.3194 7.8389 22.6494C7.8189 22.6494 7.79889 22.6494 7.78889 22.6494C7.75889 22.6494 7.72889 22.6494 7.67889 22.5794C7.12889 21.8594 7.7289 17.6094 7.9189 16.9294C8.0889 16.3094 7.8989 13.7194 7.2289 12.8294C7.0589 12.6094 6.86891 12.4994 6.65891 12.4994C5.88891 12.4994 4.65891 15.5394 4.65891 18.0694C4.65891 20.5994 4.09891 22.3694 3.62891 22.3694C3.56891 22.3694 3.50889 22.3394 3.42889 22.2694C2.75889 21.6694 2.0089 18.2394 1.5589 15.4694C1.4089 14.5194 1.65891 13.5494 1.87891 12.6994C2.01891 12.1394 2.15891 11.6194 2.15891 11.1794C2.15891 10.1394 1.4889 7.93941 1.1189 7.02941H11.9689M12.1589 6.90941H0.878906C1.22891 7.63941 2.0089 10.1294 1.9989 11.2094C1.9989 12.2894 1.1389 13.9194 1.3989 15.5294C1.6589 17.1394 2.47891 21.6694 3.31891 22.4094C3.41891 22.4994 3.5189 22.5394 3.6189 22.5394C4.3089 22.5394 4.7989 20.3194 4.7989 18.0894C4.7989 15.5394 6.0589 12.6694 6.6489 12.6694C7.6489 12.6694 7.9589 16.2094 7.7589 16.9094C7.5689 17.5894 6.79891 22.8094 7.76891 22.8094C7.79891 22.8094 7.8389 22.8094 7.8689 22.7894C8.9889 22.4294 10.6989 19.6494 10.7989 17.6894C10.8889 15.7294 10.7889 13.2094 10.9189 12.2294C11.0489 11.2494 11.7489 8.25941 12.1489 6.89941L12.1589 6.90941Z" fill="#5E5E5A"/>
<path d="M6.73911 9.32973C5.57911 9.32973 4.8691 8.71973 4.2891 8.22973C3.8791 7.87973 3.51911 7.56973 3.10911 7.56973C2.59911 7.60973 2.2891 7.84973 2.0391 8.03973C1.8891 8.15973 1.7491 8.25973 1.6491 8.25973C1.5891 8.25973 1.48911 8.22972 1.34911 7.94972C0.399113 5.96972 0.159113 2.52972 2.23911 1.47972C2.90911 1.13972 3.58911 0.979725 4.37911 0.979725C4.75911 0.979725 5.1191 1.01972 5.4491 1.04972C5.7391 1.07972 6.00911 1.10973 6.26911 1.10973C6.66911 1.10973 6.96911 1.03973 7.21911 0.879726C7.72911 0.559726 8.69911 0.219727 9.63911 0.219727C10.5791 0.219727 11.6891 0.529724 12.0491 2.00972C12.6791 4.58972 12.2091 6.80972 11.8691 7.62972C11.7391 7.94972 11.4691 8.09972 11.0391 8.09972C10.7391 8.09972 10.3891 8.02972 10.0591 7.95972L9.88911 7.91972C9.88911 7.91972 9.79911 7.90973 9.74911 7.90973C9.30911 7.90973 8.73911 8.27972 8.18911 8.63972C7.67911 8.97972 7.14911 9.32973 6.76911 9.32973H6.73911Z" fill="white"/>
<path d="M9.64016 0.28965C10.5102 0.28965 11.6302 0.58965 11.9802 2.01965C12.6002 4.57965 12.1402 6.78965 11.8102 7.58965C11.6902 7.88965 11.4502 8.01965 11.0502 8.01965C10.7502 8.01965 10.4102 7.94965 10.0802 7.87965L9.91016 7.83965C9.91016 7.83965 9.81015 7.82965 9.76015 7.82965C9.30015 7.82965 8.75016 8.18965 8.16016 8.57965C7.66016 8.90965 7.13016 9.24965 6.75016 9.25965C5.62016 9.25965 4.95017 8.67965 4.35017 8.17965C3.93017 7.81965 3.56016 7.50965 3.12016 7.50965C3.09016 7.50965 3.07015 7.50965 3.04015 7.50965C2.58015 7.54965 2.25015 7.79965 2.01015 7.98965C1.87015 8.09965 1.74016 8.18965 1.66016 8.18965C1.57016 8.18965 1.48015 8.01965 1.43015 7.91965C0.650153 6.30965 0.0801592 2.66965 2.28016 1.54965C2.94016 1.20965 3.61017 1.05965 4.38017 1.05965C4.76017 1.05965 5.11016 1.09965 5.44016 1.12965C5.73016 1.15965 6.01016 1.18965 6.26016 1.18965C6.67016 1.18965 6.99016 1.10965 7.25016 0.94965C7.75016 0.63965 8.71016 0.299648 9.64016 0.299648M9.64016 0.139648C8.67016 0.139648 7.68016 0.48965 7.17016 0.80965C6.90016 0.97965 6.60016 1.02965 6.26016 1.02965C5.72016 1.02965 5.09016 0.899651 4.37016 0.899651C3.72016 0.899651 2.99016 1.00965 2.20016 1.40965C-0.0298426 2.53965 0.390159 6.14965 1.28016 7.97965C1.41016 8.23965 1.52016 8.33965 1.64016 8.33965C1.95016 8.33965 2.32016 7.71965 3.03016 7.65965C3.05016 7.65965 3.08017 7.65965 3.10017 7.65965C4.05017 7.65965 4.74016 9.41965 6.73016 9.41965C6.74016 9.41965 6.75016 9.41965 6.76016 9.41965C7.56016 9.41965 8.91016 7.99965 9.73016 7.99965C9.77016 7.99965 9.81017 7.99965 9.85017 8.00965C10.2402 8.08965 10.6502 8.18965 11.0202 8.18965C11.4202 8.18965 11.7602 8.06965 11.9202 7.66965C12.2302 6.90965 12.7502 4.67965 12.1002 1.99965C11.7602 0.589649 10.7002 0.149651 9.62016 0.149651L9.64016 0.139648Z" fill="#5E5E5A"/>
<mask id="mask0_229_994" style="mask-type:luminance" maskUnits="userSpaceOnUse" x="0" y="0" width="13" height="10">
<path d="M1.32966 7.99939C0.449661 6.16939 -0.0303439 2.54939 2.19966 1.40939C4.42966 0.269393 6.09966 1.47939 7.16966 0.809395C8.23966 0.139395 11.4597 -0.690605 12.1197 1.9894C12.7697 4.6694 12.2497 6.8894 11.9397 7.6594C11.6297 8.4194 10.6797 8.16939 9.86965 7.99939C9.05965 7.83939 7.60966 9.3994 6.76966 9.4094C4.69966 9.4294 4.01966 7.5694 3.02966 7.6594C2.03966 7.7494 1.76967 8.92939 1.31967 7.99939H1.32966Z" fill="white"/>
</mask>
<g mask="url(#mask0_229_994)">
<path opacity="0.75" d="M5.26923 -1.52051C5.26923 -1.52051 3.43923 2.60949 6.59923 2.60949C9.39923 2.60949 7.89922 -1.48051 7.89922 -1.48051L5.26923 -1.51051V-1.52051Z" fill="#E62C2F" stroke="#E62C2F" stroke-width="0.2" stroke-linecap="round" stroke-linejoin="round"/>
</g>
</svg>
