<svg width="12" height="21" viewBox="0 0 12 21" fill="none" xmlns="http://www.w3.org/2000/svg">
<path d="M3.18062 20.3602C2.80062 20.3602 2.32063 19.8202 2.07063 19.1102C2.00063 18.9202 1.93063 18.7302 1.86063 18.5502C1.47063 17.5302 1.10063 16.5702 1.00063 13.9302C0.920626 11.9302 1.15062 11.4302 1.37062 10.9402C1.49062 10.6702 1.61062 10.4102 1.67062 9.9002C1.72062 9.4402 1.86063 8.9802 1.99063 8.5502C2.24063 7.7202 2.48063 6.9402 2.10063 6.2002H11.2106C11.1006 6.5402 10.9906 6.8502 10.8706 7.1602C10.6906 7.6402 10.5106 8.13019 10.3606 8.75019L10.3206 8.9002C10.0806 9.9002 9.83063 10.9302 10.0506 13.3502C10.2606 15.6902 9.07062 16.9702 7.42062 18.7302L7.08063 19.1002C6.22063 20.0202 5.78062 20.2202 5.56062 20.2202C5.47062 20.2202 5.40063 20.1902 5.35063 20.1302C5.20063 19.9502 5.19063 19.5302 5.30063 18.9602C5.41063 18.4002 5.69063 17.6502 5.99063 16.8502C6.35063 15.8702 6.73063 14.8502 6.82063 14.1202C6.94063 13.1902 6.64063 12.6502 6.32063 12.0702C6.18063 11.8202 6.04062 11.5502 5.92062 11.2502C5.78062 10.8602 5.58062 10.6702 5.34062 10.6702C4.96062 10.6702 4.52063 11.1702 4.02063 12.1702C3.58063 13.0402 3.69062 14.7502 3.79062 16.4002C3.86062 17.5502 3.93062 18.6402 3.81062 19.3802C3.71062 20.0202 3.48062 20.3702 3.18062 20.3702V20.3602Z" fill="#F4DE9C"/>
<path d="M11.1113 6.27012C11.0113 6.58012 10.9113 6.86012 10.8013 7.14012C10.6213 7.62012 10.4413 8.12012 10.2913 8.74012L10.2513 8.89012C10.0113 9.89012 9.75134 10.9301 9.98134 13.3601C10.1913 15.6701 9.01134 16.9301 7.37134 18.6901L7.02135 19.0601C6.13135 20.0101 5.72135 20.1601 5.55135 20.1601C5.48135 20.1601 5.44134 20.1401 5.40134 20.0901C5.27134 19.9301 5.26134 19.5201 5.37134 18.9801C5.48134 18.4301 5.76135 17.6701 6.05135 16.8801C6.41135 15.8901 6.79135 14.8701 6.89135 14.1401C7.01135 13.1901 6.71135 12.6301 6.38135 12.0401C6.24135 11.7901 6.10135 11.5301 5.99135 11.2301C5.83135 10.8101 5.62134 10.6001 5.34134 10.6001C4.92134 10.6001 4.47134 11.1001 3.95134 12.1401C3.50134 13.0301 3.61135 14.7401 3.71135 16.4001C3.78135 17.5501 3.85134 18.6401 3.73134 19.3601C3.63134 19.9601 3.44134 20.2901 3.18134 20.2901C2.84134 20.2901 2.38135 19.7601 2.14135 19.0901C2.07135 18.9001 2.00134 18.7101 1.93134 18.5301C1.54134 17.5201 1.17135 16.5701 1.07135 13.9301C1.00135 11.9401 1.22134 11.4501 1.43134 10.9801C1.55134 10.7101 1.68135 10.4401 1.74135 9.92012C1.79135 9.46012 1.93134 9.01012 2.06134 8.58012C2.31134 7.78012 2.54135 7.01012 2.22135 6.28012H11.1113M11.3113 6.12012H1.97135C2.65135 7.24012 1.75134 8.50012 1.59134 9.89012C1.43134 11.2801 0.801345 10.7801 0.921345 13.9301C1.04135 17.0701 1.55135 17.8801 2.00135 19.1301C2.26135 19.8601 2.76134 20.4301 3.18134 20.4301C3.49134 20.4301 3.76135 20.1301 3.88135 19.3801C4.17135 17.5801 3.35135 13.6501 4.08135 12.2001C4.54135 11.2701 4.98134 10.7401 5.34134 10.7401C5.54134 10.7401 5.71135 10.9101 5.85135 11.2701C6.22135 12.2701 6.91135 12.8001 6.74135 14.1101C6.57135 15.4201 5.48135 17.6901 5.22135 18.9501C5.07135 19.6801 5.12135 20.3001 5.55135 20.3001C5.86135 20.3001 6.36135 19.9801 7.13135 19.1601C8.97135 17.1801 10.3614 15.8801 10.1314 13.3501C9.90135 10.8201 10.1813 9.82011 10.4413 8.77011C10.6913 7.72011 11.0414 7.05012 11.3214 6.12012H11.3113Z" fill="#5E5E5A"/>
<path d="M3.86933 7.99094C3.46933 7.99094 3.08934 7.86093 2.70934 7.59093C1.63934 6.82093 0.769326 4.93094 1.14933 2.79094C1.39933 1.41094 1.91934 1.21094 2.45934 1.21094H2.82933C2.89933 1.21094 2.96933 1.21094 3.02933 1.21094C3.19933 1.18094 3.40933 1.07094 3.64933 0.940937C4.09933 0.700937 4.64934 0.410938 5.34934 0.410938C5.50934 0.410938 5.66934 0.430938 5.84934 0.460938C6.33934 0.560938 6.72934 0.600937 7.09934 0.600937C7.66934 0.600937 8.12933 0.49094 8.83933 0.33094L9.08933 0.270939C9.25933 0.230939 9.41933 0.210938 9.57933 0.210938C10.5593 0.210938 11.5793 0.950939 11.6193 2.59094C11.6693 4.34094 11.6393 5.97094 10.8093 6.65094C10.6093 6.82094 10.2693 6.90094 9.79934 6.90094C9.32934 6.90094 8.75933 6.82094 8.21933 6.74094C7.75933 6.67094 7.32933 6.61094 6.99933 6.61094C6.86933 6.61094 6.75933 6.62094 6.66933 6.64094C6.41933 6.70094 6.12934 6.90094 5.79934 7.14094C5.26934 7.52094 4.59933 7.99094 3.86933 7.99094Z" fill="white"/>
<path d="M9.57987 0.290627C10.5299 0.290627 11.4999 1.00062 11.5399 2.60062C11.5899 4.33062 11.5599 5.94062 10.7599 6.60062C10.5699 6.76062 10.2499 6.83063 9.78986 6.83063C9.32986 6.83063 8.75987 6.75062 8.21987 6.67062C7.75987 6.60062 7.31987 6.54063 6.98987 6.54063C6.84987 6.54063 6.73986 6.55063 6.64986 6.57063C6.38986 6.63063 6.09986 6.84063 5.75986 7.08063C5.23986 7.45063 4.57986 7.92062 3.86986 7.92062C3.48986 7.92062 3.11986 7.79062 2.75986 7.53062C1.70986 6.78062 0.849865 4.91062 1.22987 2.80062C1.47987 1.40062 1.99988 1.29063 2.45988 1.29063C2.52988 1.29063 2.58986 1.29063 2.64986 1.29063C2.70986 1.29063 2.76987 1.29063 2.82987 1.29063C2.90987 1.29063 2.97986 1.29063 3.03986 1.27063C3.22986 1.24063 3.43986 1.12063 3.67986 1.00063C4.11986 0.770626 4.66988 0.480625 5.34988 0.480625C5.50988 0.480625 5.66987 0.500624 5.82987 0.530624C6.31987 0.630624 6.71987 0.680626 7.08987 0.680626C7.66987 0.680626 8.15987 0.570625 8.83987 0.410625L9.08987 0.350624C9.24987 0.310624 9.40988 0.300625 9.56988 0.300625M9.57987 0.140625C9.40987 0.140625 9.23988 0.160626 9.06988 0.200626C8.23988 0.390626 7.71988 0.520626 7.09988 0.520626C6.74988 0.520626 6.35986 0.480627 5.86986 0.380627C5.68986 0.340627 5.51987 0.330627 5.35987 0.330627C4.25987 0.330627 3.49987 1.04063 3.02987 1.13063C2.96987 1.14063 2.90987 1.14062 2.83987 1.14062C2.72987 1.14062 2.59987 1.14062 2.46987 1.14062C1.94987 1.14062 1.34987 1.29062 1.08987 2.78062C0.719866 4.86062 1.53986 6.83063 2.67986 7.66063C3.09986 7.96063 3.49987 8.08063 3.87987 8.08063C5.08987 8.08063 6.05987 6.88063 6.69987 6.73063C6.78987 6.71063 6.88986 6.70063 7.00986 6.70063C7.69986 6.70063 8.87987 6.99063 9.80987 6.99063C10.2499 6.99063 10.6299 6.92063 10.8699 6.72063C11.6999 6.03063 11.7499 4.47062 11.6999 2.60062C11.6599 0.980624 10.6899 0.140625 9.58987 0.140625H9.57987Z" fill="#5E5E5A"/>
<mask id="mask0_229_982" style="mask-type:luminance" maskUnits="userSpaceOnUse" x="1" y="0" width="11" height="9">
<path d="M2.68055 7.64035C1.53055 6.82035 0.720556 4.85035 1.09056 2.76035C1.46056 0.680346 2.49056 1.22035 3.03056 1.12035C3.57056 1.02035 4.50055 0.100346 5.87055 0.370346C7.25055 0.650346 7.77057 0.480346 9.07057 0.190346C10.3706 -0.109654 11.6506 0.730348 11.6906 2.59035C11.7406 4.45035 11.6906 6.02035 10.8606 6.71035C10.0306 7.40035 7.52056 6.51035 6.69056 6.71035C5.86056 6.91035 4.44056 8.91035 2.67056 7.64035H2.68055Z" fill="white"/>
</mask>
<g mask="url(#mask0_229_982)">
<path opacity="0.75" d="M5.28961 -1.46949C5.28961 -1.46949 3.73961 1.74051 6.41961 1.74051C8.78961 1.74051 7.51962 -1.44949 7.51962 -1.44949L5.28961 -1.47949V-1.46949Z" fill="#E62C2F" stroke="#E62C2F" stroke-width="0.2" stroke-linecap="round" stroke-linejoin="round"/>
</g>
</svg>
