<svg width="8" height="20" viewBox="0 0 8 20" fill="none" xmlns="http://www.w3.org/2000/svg">
<path d="M1.42188 14.2492C2.36187 10.8892 3.10188 7.04918 3.08188 1.93918C3.08188 1.46918 3.24188 0.999179 3.58188 0.659179C3.99188 0.259179 4.33188 0.449179 4.58188 1.36918C5.20188 6.62918 5.83188 9.86918 6.47188 13.8492V14.2492H1.42188Z" fill="#F4DE9C" stroke="#5E5E5A" stroke-width="0.15" stroke-linecap="round" stroke-linejoin="round"/>
<path d="M6.47048 13.8494C6.64048 14.0694 6.78047 14.3094 6.88047 14.5694C7.86047 16.9294 8.40048 19.0094 6.48048 19.5794C4.64048 19.6394 2.80048 19.6994 1.89048 19.3594C0.710475 18.4894 0.520474 17.1094 0.920474 15.4394C1.02047 15.0194 1.19047 14.6094 1.42047 14.2494C1.88047 13.5194 2.59047 12.9694 3.45047 12.7694C3.83047 12.6794 4.21048 12.6594 4.58048 12.7094C5.34048 12.8194 6.01048 13.2494 6.47048 13.8494Z" fill="white" stroke="#5E5E5A" stroke-width="0.15" stroke-linecap="round" stroke-linejoin="round"/>
<mask id="mask0_229_1393" style="mask-type:luminance" maskUnits="userSpaceOnUse" x="0" y="12" width="8" height="8">
<path d="M6.47048 13.8494C6.64048 14.0694 6.78047 14.3094 6.88047 14.5694C7.86047 16.9294 8.40048 19.0094 6.48048 19.5794C4.64048 19.6394 2.80048 19.6994 1.89048 19.3594C0.710475 18.4894 0.520474 17.1094 0.920474 15.4394C1.02047 15.0194 1.19047 14.6094 1.42047 14.2494C1.88047 13.5194 2.59047 12.9694 3.45047 12.7694C3.83047 12.6794 4.21048 12.6594 4.58048 12.7094C5.34048 12.8194 6.01048 13.2494 6.47048 13.8494Z" fill="white"/>
</mask>
<g mask="url(#mask0_229_1393)">
<path opacity="0.75" d="M3.6203 20.1891C3.6203 20.1891 2.5503 18.1191 4.4003 18.1191C6.0403 18.1191 5.1603 20.1691 5.1603 20.1691L3.6203 20.1891Z" fill="#E62C2F" stroke="#E62C2F" stroke-width="0.2" stroke-linecap="round" stroke-linejoin="round"/>
</g>
</svg>
