<svg width="6" height="19" viewBox="0 0 6 19" fill="none" xmlns="http://www.w3.org/2000/svg">
<path d="M1.27172 13.2092C2.15172 9.73918 2.33172 6.55919 2.32172 2.61919C2.32172 2.08919 2.48172 1.55918 2.81172 1.13918C3.24172 0.599185 3.58172 0.689185 3.84172 1.23918C4.01172 1.59918 4.01172 1.99918 4.04172 2.39918C4.46172 7.38918 4.63172 9.40918 4.75172 13.2092H1.26172H1.27172Z" fill="#F4DE9C" stroke="#5E5E5A" stroke-width="0.15" stroke-linecap="round" stroke-linejoin="round"/>
<path d="M2.86892 18.5391C2.33892 18.5391 1.91892 18.5091 1.57892 18.4391C1.06892 18.3291 0.648921 17.9391 0.528921 17.4491C0.128921 15.8591 0.388924 14.4391 1.32892 13.1191C1.90892 12.6191 2.49892 12.3691 3.07892 12.3691C3.38892 12.3691 3.69892 12.4391 4.00892 12.5891C4.23892 12.6991 4.44892 12.8491 4.61892 13.0491C4.80892 13.2591 4.94892 13.5191 5.03892 13.7991C5.37892 14.8591 5.59892 15.9791 5.69892 17.1191C5.76892 17.5191 5.80892 17.9591 5.59892 18.2191C5.45892 18.3891 5.21892 18.4691 4.86892 18.4691L4.51892 18.4891C3.95892 18.5191 3.39892 18.5591 2.86892 18.5591V18.5391Z" fill="white"/>
<path d="M3.07998 12.4391C3.37998 12.4391 3.67998 12.5091 3.96998 12.6491C4.18998 12.7591 4.38998 12.8991 4.54998 13.0891C4.72998 13.2991 4.86998 13.5391 4.95998 13.8091C5.29998 14.8691 5.51999 15.9791 5.61999 17.1291C5.68999 17.5091 5.72998 17.9291 5.52998 18.1591C5.40998 18.3091 5.17998 18.3791 4.84998 18.3791L4.49998 18.3991C3.94998 18.4291 3.37998 18.4691 2.85998 18.4691C2.33998 18.4691 1.91998 18.4391 1.57998 18.3691C1.08998 18.2691 0.699983 17.8991 0.589983 17.4291C0.189983 15.8591 0.449984 14.4691 1.35998 13.1891C1.93998 12.6891 2.51998 12.4391 3.07998 12.4391ZM3.07998 12.2891C2.47998 12.2891 1.86998 12.5491 1.25998 13.0691C0.269981 14.4591 0.0599838 15.9291 0.449984 17.4591C0.579984 17.9891 1.01998 18.3991 1.55998 18.5091C1.94998 18.5891 2.38998 18.6191 2.86998 18.6191C3.49998 18.6191 4.18998 18.5691 4.86998 18.5291C5.90998 18.5291 5.89998 17.8091 5.77998 17.0991C5.67998 15.9591 5.45998 14.8491 5.10998 13.7691C5.01998 13.4791 4.86998 13.2191 4.66998 12.9891C4.49998 12.7891 4.27998 12.6291 4.03998 12.5091C3.71998 12.3591 3.39998 12.2891 3.07998 12.2891Z" fill="#5E5E5A"/>
<mask id="mask0_229_1383" style="mask-type:luminance" maskUnits="userSpaceOnUse" x="0" y="12" width="6" height="7">
<path d="M1.2717 13.0692C0.281703 14.4592 0.0717016 15.9292 0.461702 17.4592C0.591702 17.9892 1.0317 18.3992 1.5717 18.5092C2.4717 18.6892 3.6917 18.5992 4.8817 18.5292C5.9217 18.5292 5.9117 17.8092 5.7917 17.0992C5.6917 15.9592 5.47171 14.8492 5.12171 13.7692C5.03171 13.4792 4.8817 13.2192 4.6817 12.9892C4.5117 12.7892 4.2917 12.6292 4.0517 12.5092C3.1317 12.0792 2.2117 12.2692 1.2817 13.0692H1.2717Z" fill="white"/>
</mask>
<g mask="url(#mask0_229_1383)">
<path opacity="0.75" d="M2.43203 19.4694C2.43203 19.4694 1.43203 17.3994 3.16203 17.3994C4.69203 17.3994 3.87203 19.4494 3.87203 19.4494L2.44203 19.4694H2.43203Z" fill="#E62C2F" stroke="#E62C2F" stroke-width="0.2" stroke-linecap="round" stroke-linejoin="round"/>
</g>
</svg>
