<svg width="7" height="22" viewBox="0 0 7 22" fill="none" xmlns="http://www.w3.org/2000/svg">
<path d="M1.69531 14.8595C2.49531 11.4895 2.86531 7.53952 3.05531 2.18952C3.07531 1.62952 3.36531 1.09952 3.87531 0.859518C4.25531 0.679518 4.56531 0.739518 4.80531 1.04952C4.97531 1.26952 5.04531 1.55952 5.03531 1.84952C4.79531 6.65952 5.09531 10.7395 5.96531 14.8695H1.69531V14.8595Z" fill="#F4DE9C" stroke="#5E5E5A" stroke-width="0.15" stroke-linecap="round" stroke-linejoin="round"/>
<path d="M3.36581 21.5401C3.17581 21.5401 3.00581 21.5101 2.84581 21.4601C1.10581 20.8701 0.555806 19.0801 1.22581 16.1601C1.32581 15.7001 1.51581 15.2701 1.76581 14.8901C1.98581 14.5501 2.25581 14.2701 2.56581 14.0601C3.01581 13.7401 3.46581 13.5801 3.91581 13.5801C4.54581 13.5801 5.19581 13.9101 5.82581 14.5701C6.64581 15.9101 6.92581 17.1101 6.67581 18.2301C6.34581 19.3601 5.71581 20.3101 4.75581 21.1501C4.45581 21.4101 4.06581 21.5501 3.64581 21.5501H3.37581L3.36581 21.5401Z" fill="white"/>
<path d="M3.90726 13.65C4.51726 13.65 5.14726 13.97 5.74726 14.59C6.56726 15.92 6.84726 17.1 6.59726 18.19C6.26726 19.31 5.63726 20.25 4.69726 21.08C4.40726 21.33 4.03726 21.46 3.63726 21.46H3.36726C3.18726 21.46 3.01726 21.43 2.87726 21.39C1.15726 20.8 0.63726 19.1 1.30726 16.18C1.40726 15.72 1.58726 15.31 1.83726 14.94C2.05726 14.61 2.31726 14.34 2.61726 14.13C3.05726 13.82 3.49726 13.66 3.91726 13.66M3.90726 13.5C3.43726 13.5 2.97726 13.67 2.51726 14C2.18726 14.23 1.91726 14.52 1.69726 14.85C1.43726 15.24 1.24726 15.68 1.14726 16.14C0.48726 19.07 0.997259 20.91 2.81726 21.53C2.98726 21.59 3.17726 21.61 3.35726 21.61H3.62726C4.04726 21.61 4.46726 21.47 4.77726 21.19C5.67726 20.4 6.36726 19.44 6.72726 18.23C7.00726 16.99 6.62726 15.75 5.85726 14.51C5.19726 13.83 4.53726 13.5 3.89726 13.5H3.90726Z" fill="#5E5E5A"/>
<mask id="mask0_229_1373" style="mask-type:luminance" maskUnits="userSpaceOnUse" x="0" y="13" width="7" height="9">
<path d="M1.69551 14.8495C1.91551 14.5195 2.18551 14.2295 2.51551 13.9995C3.60551 13.2195 4.72551 13.3295 5.86551 14.5095C6.63551 15.7495 7.01551 16.9995 6.73551 18.2295C6.37551 19.4395 5.69551 20.3995 4.78551 21.1895C4.46551 21.4695 4.05551 21.6095 3.63551 21.6095H3.36551C3.18551 21.6095 2.99551 21.5895 2.82551 21.5295C1.00551 20.9095 0.485512 19.0695 1.15551 16.1395C1.25551 15.6795 1.44551 15.2395 1.70551 14.8495H1.69551Z" fill="white"/>
</mask>
<g mask="url(#mask0_229_1373)">
<path opacity="0.75" d="M2.80746 22.3996C2.80746 22.3996 1.69745 20.0996 3.61745 20.0996C5.31745 20.0996 4.40746 22.3796 4.40746 22.3796L2.80746 22.3996Z" fill="#E62C2F" stroke="#E62C2F" stroke-width="0.2" stroke-linecap="round" stroke-linejoin="round"/>
</g>
</svg>
