<svg width="11" height="20" viewBox="0 0 11 20" fill="none" xmlns="http://www.w3.org/2000/svg">
<path d="M3.61766 8.91975C4.18766 7.02975 4.28766 4.61975 4.14766 1.95975C4.13766 1.67975 4.18766 1.38975 4.35766 1.15975C4.56766 0.849746 4.79766 0.849746 5.02766 1.17975C5.17766 1.39975 5.25766 1.66975 5.27766 1.93975C5.49766 4.42975 6.11766 6.89975 7.16766 9.33975L7.14766 11.2997L3.59766 11.2697L3.61766 8.92975V8.91975Z" fill="#F4DE9C" stroke="#5E5E5A" stroke-width="0.15" stroke-linecap="round" stroke-linejoin="round"/>
<path d="M2.81812 14.2795C1.21812 10.8595 0.758125 6.94952 0.578125 2.51952C0.578125 2.33952 0.578126 2.15952 0.618126 1.98952C0.768126 1.22952 1.47812 1.04952 1.81812 1.87952C1.85812 1.97952 1.88812 2.09952 1.90812 2.20952C2.25812 4.74952 2.78812 7.06952 3.64812 8.93952C3.70812 9.06952 3.74813 9.20952 3.83813 9.32952C4.25813 9.89952 4.90812 10.0795 5.56812 10.0695C6.19812 10.0595 6.77812 9.76952 7.20812 9.32952C7.43812 9.08952 7.62813 8.80952 7.75813 8.48952C8.46813 6.78952 8.60813 4.81952 8.91813 2.74952C8.99813 2.22952 9.12812 1.69952 9.47812 1.30952C10.1281 0.589516 10.6581 0.949516 10.7181 2.22952C10.9381 6.92952 9.68813 11.4695 8.08813 14.2995H2.82812L2.81812 14.2795Z" fill="#F4DE9C" stroke="#5E5E5A" stroke-width="0.15" stroke-linecap="round" stroke-linejoin="round"/>
<path d="M5.36828 19.5399C4.58828 19.5399 3.79828 19.4399 3.01828 19.2499C2.37828 19.1799 2.05828 18.7299 2.03828 17.8899C1.85828 16.8599 2.00828 15.8399 2.49828 14.8599C2.58828 14.6899 2.69828 14.5199 2.83828 14.3699C3.89828 13.2299 4.87828 12.6699 5.79828 12.6699C6.56828 12.6699 7.32828 13.0599 8.04828 13.8299C8.25828 14.0499 8.46828 14.2999 8.66828 14.5899C9.37828 15.5299 9.71828 16.6499 9.69828 18.0099C9.65828 18.7999 9.35828 19.2199 8.78828 19.3099C8.71828 19.3099 8.65828 19.3199 8.58828 19.3199C8.27828 19.3199 7.96828 19.2099 7.70828 19.0099C7.55828 18.8999 7.40828 18.8399 7.23828 18.8399C7.02828 18.8399 6.81828 18.9199 6.57828 19.0999C6.20828 19.3699 5.79828 19.5199 5.40828 19.5199H5.38828L5.36828 19.5399Z" fill="white"/>
<path d="M5.77832 12.7596C6.52832 12.7596 7.26832 13.1396 7.97832 13.8996C8.18832 14.1296 8.39832 14.3796 8.58832 14.6496C9.28832 15.5696 9.61832 16.6796 9.59832 18.0196C9.54832 19.0196 9.08832 19.1996 8.74832 19.2496C8.68832 19.2496 8.62832 19.2596 8.55832 19.2596C8.26832 19.2596 7.96832 19.1596 7.71832 18.9696C7.55832 18.8496 7.38832 18.7896 7.20832 18.7896C6.98832 18.7896 6.75832 18.8796 6.50832 19.0696C6.14832 19.3296 5.75832 19.4696 5.35832 19.4696C4.58832 19.4696 3.79832 19.3696 2.99832 19.1796C2.61832 19.1396 2.11832 18.9596 2.08832 17.8696C1.90832 16.8696 2.05832 15.8696 2.53832 14.8996C2.62832 14.7296 2.73832 14.5696 2.85832 14.4296L2.90832 14.3696C3.90832 13.2996 4.86832 12.7496 5.75832 12.7496M5.77832 12.6096C4.80832 12.6096 3.81832 13.1896 2.81832 14.2796C2.79832 14.2996 2.78832 14.3196 2.76832 14.3296C2.62832 14.4796 2.50832 14.6496 2.41832 14.8296C1.91832 15.8496 1.76832 16.8696 1.95832 17.8996C1.97832 18.8296 2.36832 19.2596 2.99832 19.3296C3.76832 19.5196 4.55832 19.6196 5.36832 19.6196H5.38832C5.82832 19.6196 6.24832 19.4496 6.59832 19.1896C6.80832 19.0396 7.00832 18.9396 7.21832 18.9396C7.35832 18.9396 7.49832 18.9896 7.63832 19.0896C7.90832 19.2996 8.23832 19.4096 8.56832 19.4096C8.63832 19.4096 8.70832 19.4096 8.77832 19.3896C9.34832 19.2996 9.70832 18.8896 9.75832 18.0196C9.77832 16.5096 9.37832 15.4196 8.71832 14.5496C8.50832 14.2596 8.30832 14.0096 8.09832 13.7896C7.34832 12.9896 6.57832 12.5996 5.78832 12.5996L5.77832 12.6096Z" fill="#5E5E5A"/>
<mask id="mask0_229_1362" style="mask-type:luminance" maskUnits="userSpaceOnUse" x="1" y="12" width="9" height="8">
<path d="M8.08672 13.7994C8.29672 14.0194 8.50671 14.2794 8.70671 14.5594C9.36671 15.4194 9.77672 16.5194 9.74672 18.0294C9.69672 18.8994 9.34672 19.3094 8.76672 19.3994C8.36672 19.4594 7.94671 19.3394 7.62671 19.0894C7.29671 18.8294 6.94672 18.9194 6.58672 19.1794C6.22672 19.4394 5.81671 19.6094 5.37671 19.6094C4.55671 19.6094 3.76672 19.5094 2.97672 19.3194C2.34672 19.2494 1.95672 18.8194 1.93672 17.8894C1.75672 16.8594 1.90672 15.8394 2.39672 14.8194C2.48672 14.6394 2.60672 14.4694 2.74672 14.3194C2.76672 14.2994 2.77671 14.2794 2.79671 14.2694C4.61671 12.3094 6.38672 11.9894 8.06672 13.7894L8.08672 13.7994Z" fill="white"/>
</mask>
<g mask="url(#mask0_229_1362)">
<path opacity="0.75" d="M4.90605 20.7798C4.90605 20.7798 3.56605 18.0098 5.87605 18.0098C7.91605 18.0098 6.82605 20.7498 6.82605 20.7498L4.90605 20.7698V20.7798Z" fill="#E62C2F" stroke="#E62C2F" stroke-width="0.2" stroke-linecap="round" stroke-linejoin="round"/>
</g>
</svg>
