<svg width="14" height="20" viewBox="0 0 14 20" fill="none" xmlns="http://www.w3.org/2000/svg">
<path d="M6.03906 8.56946C6.67906 7.02946 6.74906 4.58946 6.61906 1.83946C6.59906 1.47946 6.68906 1.09946 6.91906 0.819458C7.24906 0.409458 7.59906 0.519458 7.96906 0.979458C8.09906 1.13946 8.15906 1.33946 8.16906 1.53946C8.26906 3.77946 9.04906 6.30946 10.0891 8.95946V10.9295H6.03906V8.56946Z" fill="#F4DE9C" stroke="#5E5E5A" stroke-width="0.15" stroke-linecap="round" stroke-linejoin="round"/>
<path d="M5.44875 13.7799C3.58875 10.6299 2.10875 6.64991 0.978747 2.53991C0.858747 2.07991 0.938747 1.56991 1.25875 1.21991C1.57875 0.85991 1.91875 0.90991 2.27875 1.51991C3.16875 4.29991 4.36875 6.71991 6.04875 8.55991C7.49875 9.82991 8.89875 9.99991 10.2287 9.03991C10.2687 9.00991 10.2987 8.97991 10.3387 8.94991C11.5887 7.28991 11.7387 4.79991 11.5287 2.02991C11.4987 1.59991 11.5887 1.15991 11.8587 0.81991C12.1487 0.44991 12.4487 0.46991 12.7587 0.87991C12.9287 1.11991 13.0387 1.39991 13.0887 1.68991C13.9187 6.21991 13.8387 10.3199 12.4387 13.7599H5.44875V13.7799Z" fill="#F4DE9C" stroke="#5E5E5A" stroke-width="0.15" stroke-linecap="round" stroke-linejoin="round"/>
<path d="M6.46034 19.5404C6.02034 19.5404 5.61034 19.4404 5.24034 19.2404C4.37034 18.7804 3.85034 17.7904 3.92034 16.7204C3.94034 16.3404 4.01034 15.9404 4.10034 15.5304C4.29034 14.7404 4.75034 14.0504 5.39034 13.5904C6.71034 12.6304 7.94034 12.1504 9.06034 12.1504C10.2603 12.1504 11.3803 12.7104 12.3703 13.8204C12.5003 13.9704 12.6303 14.1204 12.7503 14.2804C13.7803 15.7704 14.5403 17.3304 13.1603 18.5604C12.3603 19.1804 11.1803 19.4704 9.33034 19.4904C9.10034 19.4904 8.89034 19.3604 8.75034 19.1504C8.63034 18.9704 8.47034 18.8704 8.25034 18.8704C7.98034 18.8704 7.65034 19.0104 7.20034 19.3204C7.02034 19.4404 6.81034 19.5104 6.60034 19.5204H6.45034L6.46034 19.5404Z" fill="white"/>
<path d="M9.07023 12.0803V12.2303C10.2502 12.2303 11.3502 12.7903 12.3302 13.8803C12.4602 14.0203 12.5802 14.1803 12.7102 14.3303C14.0902 16.3403 14.2102 17.5503 13.1402 18.5003C12.3502 19.1103 11.1802 19.4003 9.35023 19.4203C9.15023 19.4203 8.96023 19.3103 8.84023 19.1203C8.71023 18.9203 8.52023 18.8103 8.28023 18.8103C8.00023 18.8103 7.65023 18.9603 7.19023 19.2803C7.02023 19.3903 6.83023 19.4603 6.63023 19.4703C6.58023 19.4703 6.53023 19.4703 6.48023 19.4703C6.05023 19.4703 5.66023 19.3703 5.29023 19.1803C4.44023 18.7303 3.94023 17.7703 4.01023 16.7303C4.03023 16.3503 4.09023 15.9503 4.19023 15.5503C4.38023 14.7903 4.82023 14.1203 5.44023 13.6603C5.44023 13.6603 5.45023 13.6603 5.46023 13.6603C6.76023 12.7103 7.98023 12.2303 9.08023 12.2303V12.0803M9.07023 12.0803C7.91023 12.0803 6.67023 12.5803 5.36023 13.5303C4.70023 14.0103 4.23023 14.7203 4.04023 15.5203C3.94023 15.9203 3.88023 16.3203 3.85023 16.7203C3.78023 17.7703 4.28023 18.8103 5.21023 19.3103C5.58023 19.5103 6.00023 19.6203 6.47023 19.6203C6.52023 19.6203 6.57023 19.6203 6.63023 19.6203C6.86023 19.6203 7.08023 19.5303 7.27023 19.4003C7.65023 19.1403 8.00023 18.9603 8.27023 18.9603C8.45023 18.9603 8.59023 19.0303 8.70023 19.2003C8.84023 19.4203 9.08023 19.5703 9.34023 19.5703C10.8802 19.5503 12.2702 19.3503 13.2202 18.6203C14.5902 17.4003 13.9402 15.8603 12.8202 14.2403C12.6902 14.0703 12.5602 13.9203 12.4302 13.7703C11.4002 12.6203 10.2802 12.0703 9.06023 12.0703L9.07023 12.0803Z" fill="#5E5E5A"/>
<mask id="mask0_229_1351" style="mask-type:luminance" maskUnits="userSpaceOnUse" x="3" y="12" width="11" height="8">
<path d="M12.4402 13.7797C12.5702 13.9297 12.7002 14.0797 12.8302 14.2497C13.9402 15.8697 14.6002 17.4097 13.2302 18.6297C12.2802 19.3597 10.8902 19.5597 9.35023 19.5797C9.08023 19.5797 8.85023 19.4297 8.71023 19.2097C8.43023 18.7797 7.90023 18.9797 7.27023 19.4097C7.08023 19.5397 6.86023 19.6197 6.63023 19.6297C6.09023 19.6597 5.63023 19.5497 5.21023 19.3197C4.28023 18.8197 3.78023 17.7797 3.85023 16.7297C3.87023 16.3197 3.94023 15.9197 4.04023 15.5297C4.23023 14.7297 4.70023 14.0297 5.36023 13.5397C8.05023 11.5797 10.4302 11.5397 12.4402 13.7897V13.7797Z" fill="white"/>
</mask>
<g mask="url(#mask0_229_1351)">
<path opacity="0.75" d="M7.36852 20.7895C7.36852 20.7895 5.88852 17.7295 8.43852 17.7295C10.6985 17.7295 9.48852 20.7595 9.48852 20.7595L7.36852 20.7895Z" fill="#E62C2F" stroke="#E62C2F" stroke-width="0.2" stroke-linecap="round" stroke-linejoin="round"/>
</g>
</svg>
