<svg width="9" height="20" viewBox="0 0 9 20" fill="none" xmlns="http://www.w3.org/2000/svg">
<path d="M7.3 14.2394C6.36 10.8794 5.62 7.03941 5.64 1.92941C5.64 1.45941 5.48 0.989413 5.14 0.649413C4.73 0.249413 4.39 0.439413 4.14 1.35941C3.52 6.61941 2.89 9.85941 2.25 13.8394V14.2394H7.3Z" fill="#F4DE9C" stroke="#5E5E5A" stroke-width="0.15" stroke-linecap="round" stroke-linejoin="round"/>
<path d="M2.23953 13.8396C2.06953 14.0596 1.92954 14.2996 1.82954 14.5596C0.849536 16.9196 0.309537 18.9996 2.22954 19.5696C4.06954 19.6296 5.90953 19.6896 6.81953 19.3496C7.99953 18.4796 8.18953 17.0996 7.78953 15.4296C7.68953 15.0096 7.51953 14.5996 7.28953 14.2396C6.82953 13.5096 6.11954 12.9596 5.25954 12.7596C4.87954 12.6696 4.49953 12.6496 4.12953 12.6996C3.36953 12.8096 2.69953 13.2396 2.23953 13.8396Z" fill="white" stroke="#5E5E5A" stroke-width="0.15" stroke-linecap="round" stroke-linejoin="round"/>
<mask id="mask0_229_1324" style="mask-type:luminance" maskUnits="userSpaceOnUse" x="0" y="12" width="8" height="8">
<path d="M2.23953 13.8396C2.06953 14.0596 1.92954 14.2996 1.82954 14.5596C0.849536 16.9196 0.309537 18.9996 2.22954 19.5696C4.06954 19.6296 5.90953 19.6896 6.81953 19.3496C7.99953 18.4796 8.18953 17.0996 7.78953 15.4296C7.68953 15.0096 7.51953 14.5996 7.28953 14.2396C6.82953 13.5096 6.11954 12.9596 5.25954 12.7596C4.87954 12.6696 4.49953 12.6496 4.12953 12.6996C3.36953 12.8096 2.69953 13.2396 2.23953 13.8396Z" fill="white"/>
</mask>
<g mask="url(#mask0_229_1324)">
<path opacity="0.75" d="M5.0883 20.1901C5.0883 20.1901 6.1583 18.1201 4.3083 18.1201C2.6683 18.1201 3.54831 20.1701 3.54831 20.1701L5.0883 20.1901Z" fill="#E62C2F" stroke="#E62C2F" stroke-width="0.2" stroke-linecap="round" stroke-linejoin="round"/>
</g>
</svg>
