<svg width="7" height="19" viewBox="0 0 7 19" fill="none" xmlns="http://www.w3.org/2000/svg">
<path d="M5.44875 13.1994C4.56875 9.72942 4.38875 6.54942 4.39875 2.60942C4.39875 2.07942 4.23875 1.54942 3.90875 1.12942C3.47875 0.589419 3.13875 0.679419 2.87875 1.22942C2.70875 1.58942 2.70875 1.98942 2.67875 2.38942C2.25875 7.37942 2.08875 9.39942 1.96875 13.1994H5.45875H5.44875Z" fill="#F4DE9C" stroke="#5E5E5A" stroke-width="0.15" stroke-linecap="round" stroke-linejoin="round"/>
<path d="M3.84661 18.5289C3.32661 18.5289 2.76661 18.4989 2.21661 18.4589L1.84661 18.4389C1.49661 18.4389 1.25661 18.3589 1.11661 18.1889C0.896614 17.9289 0.946608 17.4889 1.01661 17.0989C1.11661 15.9489 1.34661 14.8389 1.67661 13.7689C1.76661 13.4889 1.90661 13.2289 2.09661 13.0189C2.26661 12.8289 2.46661 12.6689 2.70661 12.5589C3.01661 12.4189 3.32661 12.3389 3.63661 12.3389C4.21661 12.3389 4.80662 12.5989 5.40662 13.0989C6.33662 14.4089 6.59661 15.8189 6.19661 17.4189C6.07661 17.9189 5.65661 18.3089 5.14661 18.4089C4.80661 18.4789 4.37661 18.5089 3.85661 18.5089L3.84661 18.5289Z" fill="white"/>
<path d="M3.62776 12.2793V12.4293C4.18776 12.4293 4.76776 12.6793 5.31776 13.1493C6.24776 14.4493 6.50776 15.8493 6.10776 17.4193C5.98776 17.8893 5.59777 18.2593 5.11777 18.3593C4.77777 18.4293 4.35776 18.4593 3.83776 18.4593C3.31776 18.4593 2.74776 18.4293 2.19776 18.3893L1.83776 18.3693C1.51776 18.3693 1.28776 18.2893 1.16776 18.1493C0.967762 17.9193 1.01776 17.4993 1.08776 17.1093C1.18776 15.9793 1.40776 14.8693 1.74776 13.8093C1.83776 13.5393 1.96777 13.2893 2.15777 13.0893C2.31777 12.8993 2.51776 12.7593 2.73776 12.6493C3.03776 12.5093 3.33776 12.4393 3.62776 12.4393V12.2893M3.62776 12.2793C3.30776 12.2793 2.98776 12.3493 2.66776 12.4993C2.42776 12.6193 2.20777 12.7793 2.03777 12.9793C1.83777 13.1993 1.68776 13.4693 1.59776 13.7593C1.25776 14.8393 1.03776 15.9493 0.927764 17.0893C0.797764 17.7993 0.78776 18.5193 1.83776 18.5193C2.51776 18.5593 3.20776 18.6093 3.83776 18.6093C4.31776 18.6093 4.75777 18.5793 5.14777 18.4993C5.68777 18.3893 6.12777 17.9793 6.25777 17.4493C6.64777 15.9193 6.43776 14.4493 5.44776 13.0593C4.83776 12.5393 4.23776 12.2793 3.62776 12.2793Z" fill="#5E5E5A"/>
<mask id="mask0_229_1314" style="mask-type:luminance" maskUnits="userSpaceOnUse" x="0" y="12" width="7" height="7">
<path d="M5.44586 13.0595C6.43586 14.4495 6.64587 15.9195 6.25587 17.4495C6.12587 17.9795 5.68587 18.3895 5.14587 18.4995C4.24587 18.6795 3.02586 18.5895 1.83586 18.5195C0.795862 18.5195 0.805866 17.7995 0.925866 17.0895C1.02587 15.9495 1.24586 14.8395 1.59586 13.7595C1.68586 13.4695 1.83587 13.2095 2.03587 12.9795C2.20587 12.7795 2.42586 12.6195 2.66586 12.4995C3.58586 12.0695 4.50587 12.2595 5.43587 13.0595H5.44586Z" fill="white"/>
</mask>
<g mask="url(#mask0_229_1314)">
<path opacity="0.75" d="M4.28448 19.4596C4.28448 19.4596 5.28447 17.3896 3.55447 17.3896C2.02447 17.3896 2.84447 19.4396 2.84447 19.4396L4.27447 19.4596H4.28448Z" fill="#E62C2F" stroke="#E62C2F" stroke-width="0.2" stroke-linecap="round" stroke-linejoin="round"/>
</g>
</svg>
