<svg width="7" height="22" viewBox="0 0 7 22" fill="none" xmlns="http://www.w3.org/2000/svg">
<path d="M6.01218 14.8498C5.21218 11.4798 4.84218 7.52975 4.65218 2.17975C4.63218 1.61975 4.34218 1.08975 3.83218 0.849752C3.45218 0.669752 3.14218 0.729752 2.90218 1.03975C2.73218 1.25975 2.66218 1.54975 2.67218 1.83975C2.91218 6.64975 2.61219 10.7298 1.74219 14.8598H6.01218V14.8498Z" fill="#F4DE9C" stroke="#5E5E5A" stroke-width="0.15" stroke-linecap="round" stroke-linejoin="round"/>
<path d="M4.07893 21.5303C3.66893 21.5303 3.26893 21.3903 2.96893 21.1303C2.00893 20.2903 1.37892 19.3403 1.03892 18.2003C0.778924 17.0903 1.05892 15.8903 1.89892 14.5403C2.51892 13.9003 3.16893 13.5703 3.79893 13.5703C4.23893 13.5703 4.69892 13.7303 5.14892 14.0503C5.45892 14.2703 5.72893 14.5503 5.94893 14.8803C6.19893 15.2603 6.37894 15.6803 6.48894 16.1503C7.14894 19.0703 6.60893 20.8603 4.86893 21.4503C4.71893 21.5003 4.53893 21.5303 4.35893 21.5303H4.08893H4.07893Z" fill="white"/>
<path d="M3.80076 13.6402C4.23076 13.6402 4.67076 13.8002 5.10076 14.1102C5.40076 14.3202 5.66076 14.6002 5.88076 14.9202C6.13076 15.2902 6.31076 15.7102 6.41076 16.1602C7.07076 19.0802 6.56076 20.7902 4.83076 21.3702C4.69076 21.4202 4.52075 21.4402 4.34075 21.4402H4.07076C3.67076 21.4402 3.30075 21.3002 3.01075 21.0602C2.06075 20.2302 1.44076 19.2902 1.11076 18.1802C0.860758 17.0802 1.14076 15.9002 1.94076 14.5902C2.56076 13.9502 3.18076 13.6302 3.80076 13.6302M3.80076 13.4902C3.15076 13.4902 2.50075 13.8202 1.84075 14.5002C1.07075 15.7402 0.690759 16.9902 0.970759 18.2202C1.33076 19.4302 2.01076 20.3902 2.92076 21.1802C3.24076 21.4602 3.65076 21.6002 4.07076 21.6002H4.34075C4.52075 21.6002 4.71076 21.5802 4.88076 21.5202C6.70076 20.9002 7.22076 19.0602 6.55076 16.1302C6.45076 15.6702 6.26076 15.2302 6.00076 14.8402C5.78076 14.5102 5.51075 14.2202 5.18075 13.9902C4.72075 13.6602 4.26075 13.4902 3.79075 13.4902H3.80076Z" fill="#5E5E5A"/>
<mask id="mask0_229_1304" style="mask-type:luminance" maskUnits="userSpaceOnUse" x="0" y="13" width="7" height="9">
<path d="M6.01075 14.8397C5.79075 14.5097 5.52076 14.2197 5.19076 13.9897C4.10076 13.2097 2.98075 13.3197 1.84075 14.4997C1.07075 15.7397 0.690759 16.9897 0.970759 18.2197C1.33076 19.4297 2.01076 20.3897 2.92076 21.1797C3.24076 21.4597 3.65076 21.5997 4.07076 21.5997H4.34075C4.52075 21.5997 4.71076 21.5797 4.88076 21.5197C6.70076 20.8997 7.22076 19.0597 6.55076 16.1297C6.45076 15.6697 6.26076 15.2297 6.00076 14.8397H6.01075Z" fill="white"/>
</mask>
<g mask="url(#mask0_229_1304)">
<path opacity="0.75" d="M4.90968 22.3996C4.90968 22.3996 6.01969 20.0996 4.09969 20.0996C2.39969 20.0996 3.30968 22.3796 3.30968 22.3796L4.90968 22.3996Z" fill="#E62C2F" stroke="#E62C2F" stroke-width="0.2" stroke-linecap="round" stroke-linejoin="round"/>
</g>
</svg>
