<svg width="12" height="20" viewBox="0 0 12 20" fill="none" xmlns="http://www.w3.org/2000/svg">
<path d="M8.10078 8.90998C7.53078 7.01998 7.43079 4.60998 7.57079 1.94998C7.58079 1.66998 7.53078 1.37998 7.36078 1.14998C7.15078 0.83998 6.92078 0.839981 6.69078 1.16998C6.54078 1.38998 6.46078 1.65998 6.44078 1.92998C6.22078 4.41998 5.60078 6.88998 4.55078 9.32998L4.57079 11.29L8.12077 11.26L8.10078 8.91998V8.90998Z" fill="#F4DE9C" stroke="#5E5E5A" stroke-width="0.15" stroke-linecap="round" stroke-linejoin="round"/>
<path d="M8.89002 14.2698C10.49 10.8498 10.95 6.93975 11.13 2.50975C11.13 2.32975 11.13 2.14975 11.09 1.97975C10.94 1.21975 10.23 1.03975 9.89002 1.86975C9.85002 1.96975 9.82003 2.08975 9.80003 2.19975C9.45003 4.73975 8.92002 7.05975 8.06002 8.92975C8.00002 9.05975 7.96002 9.19975 7.87002 9.31975C7.45002 9.88975 6.80002 10.0698 6.14002 10.0598C5.51002 10.0498 4.93002 9.75975 4.50002 9.31975C4.27002 9.07975 4.08002 8.79975 3.95002 8.47975C3.24002 6.77975 3.10002 4.80975 2.79002 2.73975C2.71002 2.21975 2.58002 1.68975 2.23002 1.29975C1.58002 0.579751 1.05003 0.93975 0.990028 2.21975C0.770028 6.91975 2.02002 11.4598 3.62002 14.2898H8.88003L8.89002 14.2698Z" fill="#F4DE9C" stroke="#5E5E5A" stroke-width="0.15" stroke-linecap="round" stroke-linejoin="round"/>
<path d="M6.31821 19.5297C5.92821 19.5297 5.5182 19.3897 5.1482 19.1097C4.9082 18.9297 4.69821 18.8497 4.48821 18.8497C4.32821 18.8497 4.16821 18.9097 4.01821 19.0197C3.75821 19.2197 3.4482 19.3297 3.1382 19.3297C3.0682 19.3297 3.0082 19.3297 2.9382 19.3197C2.3682 19.2297 2.0682 18.8097 2.0282 18.0197C2.0082 16.6597 2.3382 15.5397 3.0582 14.5997C3.2582 14.3097 3.46819 14.0597 3.67819 13.8397C4.39819 13.0697 5.15819 12.6797 5.92819 12.6797C6.84819 12.6797 7.8282 13.2297 8.8382 14.3197C9.0182 14.5197 9.1282 14.6797 9.2282 14.8597C9.7082 15.8497 9.8682 16.8597 9.6882 17.8797C9.6682 18.7297 9.34821 19.1797 8.70821 19.2497C7.90821 19.4397 7.1182 19.5397 6.3282 19.5397H6.31821V19.5297Z" fill="white"/>
<path d="M5.92856 12.7496C6.82856 12.7496 7.78856 13.2896 8.80856 14.3896L8.83856 14.4196C8.96856 14.5596 9.07856 14.7196 9.16856 14.8896C9.64856 15.8596 9.79856 16.8596 9.61856 17.8896C9.58856 18.9496 9.08857 19.1296 8.68857 19.1796C7.90857 19.3696 7.11857 19.4696 6.32857 19.4696C5.94857 19.4696 5.55857 19.3296 5.20857 19.0696C4.95857 18.8796 4.72856 18.7896 4.50856 18.7896C4.32856 18.7896 4.15857 18.8496 3.99857 18.9696C3.74857 19.1596 3.44857 19.2596 3.15857 19.2596C3.09857 19.2596 3.03856 19.2596 2.97856 19.2496C2.63856 19.1996 2.18857 19.0096 2.12857 18.0196C2.10857 16.6696 2.43857 15.5696 3.13857 14.6396C3.32857 14.3696 3.53857 14.1196 3.74857 13.8896C4.45857 13.1296 5.19856 12.7496 5.94856 12.7496M5.92856 12.5996C5.14856 12.5996 4.37856 12.9796 3.61856 13.7896C3.40856 14.0096 3.19857 14.2696 2.99857 14.5496C2.33857 15.4096 1.92857 16.5096 1.95857 18.0196C2.00857 18.8896 2.35857 19.2996 2.93857 19.3896C3.00857 19.3996 3.07856 19.4096 3.14856 19.4096C3.47856 19.4096 3.80857 19.2896 4.07857 19.0896C4.21857 18.9796 4.35857 18.9396 4.49857 18.9396C4.69857 18.9396 4.90856 19.0296 5.11856 19.1896C5.47856 19.4496 5.88857 19.6196 6.32857 19.6196H6.34857C7.15857 19.6196 7.94857 19.5196 8.71857 19.3296C9.34857 19.2596 9.73856 18.8296 9.75856 17.8996C9.93856 16.8696 9.78857 15.8496 9.29857 14.8296C9.20857 14.6496 9.08856 14.4796 8.94856 14.3296C8.92856 14.3096 8.91856 14.2896 8.89856 14.2796C7.88856 13.1896 6.89857 12.6096 5.93857 12.6096L5.92856 12.5996Z" fill="#5E5E5A"/>
<mask id="mask0_229_1293" style="mask-type:luminance" maskUnits="userSpaceOnUse" x="1" y="12" width="9" height="8">
<path d="M3.61856 13.7896C3.40856 14.0096 3.19857 14.2696 2.99857 14.5496C2.33857 15.4096 1.92857 16.5096 1.95857 18.0196C2.00857 18.8896 2.35857 19.2996 2.93857 19.3896C3.33857 19.4496 3.75857 19.3296 4.07857 19.0796C4.40857 18.8196 4.75856 18.9096 5.11856 19.1696C5.47856 19.4296 5.88857 19.5996 6.32857 19.5996C7.14857 19.5996 7.93856 19.4996 8.72856 19.3096C9.35856 19.2396 9.74857 18.8096 9.76857 17.8796C9.94857 16.8496 9.79856 15.8296 9.30856 14.8096C9.21856 14.6296 9.09857 14.4596 8.95857 14.3096C8.93857 14.2896 8.92857 14.2696 8.90857 14.2596C7.08857 12.2996 5.31857 11.9796 3.63857 13.7796L3.61856 13.7896Z" fill="white"/>
</mask>
<g mask="url(#mask0_229_1293)">
<path opacity="0.75" d="M6.80854 20.77C6.80854 20.77 8.14854 18 5.83854 18C3.79854 18 4.88854 20.74 4.88854 20.74L6.80854 20.76V20.77Z" fill="#E62C2F" stroke="#E62C2F" stroke-width="0.2" stroke-linecap="round" stroke-linejoin="round"/>
</g>
</svg>
