<svg width="14" height="20" viewBox="0 0 14 20" fill="none" xmlns="http://www.w3.org/2000/svg">
<path d="M8.66719 8.55969C8.02719 7.01969 7.95719 4.57969 8.08719 1.82969C8.10719 1.46969 8.01719 1.08969 7.78719 0.809692C7.45719 0.399692 7.1072 0.509692 6.7372 0.969692C6.6072 1.12969 6.54719 1.32969 6.53719 1.52969C6.43719 3.76969 5.65719 6.29969 4.61719 8.94969V10.9197H8.66719V8.55969Z" fill="#F4DE9C" stroke="#5E5E5A" stroke-width="0.15" stroke-linecap="round" stroke-linejoin="round"/>
<path d="M9.26764 13.7701C11.1276 10.6201 12.6076 6.64014 13.7376 2.53014C13.8576 2.07014 13.7776 1.56014 13.4576 1.21014C13.1376 0.850144 12.7976 0.900144 12.4376 1.51014C11.5476 4.29014 10.3476 6.71014 8.66763 8.55014C7.21763 9.82014 5.81764 9.99014 4.48764 9.03014C4.44764 9.00014 4.41764 8.97014 4.37764 8.94014C3.12764 7.28014 2.97763 4.79014 3.18763 2.02014C3.21763 1.59014 3.12763 1.15014 2.85763 0.810144C2.56763 0.440144 2.26764 0.460144 1.95764 0.870144C1.78764 1.11014 1.67764 1.39014 1.62764 1.68014C0.797636 6.21014 0.87763 10.3101 2.27763 13.7501H9.26764V13.7701Z" fill="#F4DE9C" stroke="#5E5E5A" stroke-width="0.15" stroke-linecap="round" stroke-linejoin="round"/>
<path d="M8.09641 19.5302C7.88641 19.5302 7.6664 19.4502 7.4964 19.3302C7.0464 19.0202 6.7164 18.8802 6.4464 18.8802C6.2364 18.8802 6.0664 18.9702 5.9464 19.1602C5.8164 19.3702 5.5964 19.5002 5.3664 19.5002C3.5164 19.4802 2.3364 19.1902 1.5264 18.5602C0.146399 17.3302 0.906403 15.7802 1.9364 14.2902C2.0564 14.1302 2.18641 13.9702 2.31641 13.8302C3.30641 12.7202 4.42641 12.1602 5.62641 12.1602C6.74641 12.1602 7.9764 12.6402 9.2964 13.6002C9.9364 14.0702 10.3964 14.7602 10.5864 15.5402C10.6864 15.9402 10.7464 16.3402 10.7664 16.7302C10.8364 17.7902 10.3264 18.7802 9.4464 19.2502C9.0664 19.4502 8.6664 19.5502 8.2264 19.5502H8.0764L8.09641 19.5302Z" fill="white"/>
<path d="M5.63775 12.2203C6.73775 12.2203 7.95775 12.7003 9.25775 13.6503C9.25775 13.6503 9.25776 13.6503 9.26776 13.6503C9.88776 14.1103 10.3378 14.7803 10.5178 15.5403C10.6178 15.9403 10.6778 16.3403 10.6978 16.7203C10.7678 17.7503 10.2678 18.7103 9.41775 19.1603C9.04775 19.3603 8.66775 19.4503 8.22775 19.4503C8.17775 19.4503 8.12775 19.4503 8.07775 19.4503C7.87775 19.4503 7.67776 19.3703 7.51776 19.2603C7.05776 18.9403 6.70775 18.7903 6.42775 18.7903C6.19775 18.7903 5.99775 18.9003 5.86775 19.1003C5.74775 19.2903 5.55776 19.4003 5.34776 19.4003C3.51776 19.3703 2.34776 19.0903 1.56776 18.4903C0.48776 17.5303 0.607749 16.3203 1.97775 14.3203C2.10775 14.1603 2.22775 14.0003 2.35775 13.8603C3.33775 12.7703 4.42775 12.2103 5.61775 12.2103M5.63775 12.0703C4.41775 12.0703 3.29776 12.6203 2.26776 13.7703C2.13776 13.9203 2.00776 14.0703 1.87776 14.2403C0.767758 15.8603 0.107749 17.4003 1.47775 18.6203C2.42775 19.3503 3.81775 19.5503 5.35775 19.5703C5.61775 19.5703 5.85775 19.4203 5.99775 19.2003C6.10775 19.0303 6.25775 18.9603 6.42775 18.9603C6.70775 18.9603 7.04775 19.1403 7.42775 19.4003C7.61775 19.5303 7.83776 19.6103 8.06776 19.6203C8.11776 19.6203 8.16775 19.6203 8.22775 19.6203C8.69775 19.6203 9.11776 19.5103 9.48776 19.3103C10.4178 18.8103 10.9178 17.7703 10.8478 16.7203C10.8278 16.3103 10.7578 15.9103 10.6578 15.5203C10.4678 14.7203 9.99775 14.0203 9.33775 13.5303C8.02775 12.5803 6.78776 12.0803 5.62776 12.0803L5.63775 12.0703Z" fill="#5E5E5A"/>
<mask id="mask0_229_1282" style="mask-type:luminance" maskUnits="userSpaceOnUse" x="0" y="12" width="11" height="8">
<path d="M2.27947 13.7699C2.14947 13.9199 2.01947 14.0699 1.88947 14.2399C0.779467 15.8599 0.119473 17.3999 1.48947 18.6199C2.43947 19.3499 3.82946 19.5499 5.36946 19.5699C5.63946 19.5699 5.86946 19.4199 6.00946 19.1999C6.28946 18.7699 6.81946 18.9699 7.44946 19.3999C7.63946 19.5299 7.85946 19.6099 8.08946 19.6199C8.62946 19.6499 9.08946 19.5399 9.50946 19.3099C10.4395 18.8099 10.9395 17.7699 10.8695 16.7199C10.8495 16.3099 10.7795 15.9099 10.6795 15.5199C10.4895 14.7199 10.0195 14.0199 9.35947 13.5299C6.66947 11.5699 4.28947 11.5299 2.27947 13.7799V13.7699Z" fill="white"/>
</mask>
<g mask="url(#mask0_229_1282)">
<path opacity="0.75" d="M7.33806 20.7797C7.33806 20.7797 8.81807 17.7197 6.26807 17.7197C4.00807 17.7197 5.21807 20.7497 5.21807 20.7497L7.33806 20.7797Z" fill="#E62C2F" stroke="#E62C2F" stroke-width="0.2" stroke-linecap="round" stroke-linejoin="round"/>
</g>
</svg>
