<svg width="7" height="22" viewBox="0 0 7 22" fill="none" xmlns="http://www.w3.org/2000/svg">
<path d="M5.60828 8.00024C4.94828 12.2502 4.56828 16.4002 4.51828 20.4402C4.51828 20.7202 4.45828 21.0102 4.31828 21.2602C4.09828 21.6502 3.80827 21.7102 3.44827 21.4402C3.10827 21.1902 2.89828 20.8102 2.81828 20.4002C1.98828 16.4702 1.58828 12.3202 1.48828 7.99023H5.60828V8.00024Z" fill="#F4DE9C" stroke="#5E5E5A" stroke-width="0.15" stroke-linecap="round" stroke-linejoin="round"/>
<path d="M3.59928 9.74996C2.98928 9.74996 2.35928 9.23996 1.70928 8.21996C1.64928 8.12996 1.59928 8.04996 1.54928 7.95996C0.739278 6.57996 0.559274 4.80996 1.02927 2.69996C1.77927 1.04996 2.58928 0.209961 3.43928 0.209961C4.28928 0.209961 5.22927 1.06996 6.22927 2.74996C6.48927 3.19996 6.62928 3.69996 6.62928 4.21996C6.62928 5.79996 6.25928 7.05996 5.54928 7.94996C4.90928 9.14996 4.25928 9.74996 3.59928 9.74996Z" fill="white"/>
<path d="M3.43965 0.290119C4.26965 0.290119 5.17965 1.13012 6.15965 2.80012C6.41965 3.24012 6.54965 3.73012 6.54965 4.23012C6.54965 5.80012 6.18965 7.04012 5.46965 7.94012C4.84965 9.10012 4.21966 9.69012 3.59966 9.69012C3.01966 9.69012 2.40965 9.19012 1.76965 8.19012C1.70965 8.11012 1.65965 8.02012 1.60965 7.94012C0.80965 6.57012 0.629646 4.82012 1.08965 2.77012C1.82965 1.14012 2.61964 0.31012 3.42964 0.31012M3.43965 0.140118C2.56965 0.140118 1.73966 0.960117 0.959656 2.69012C0.489656 4.79012 0.649655 6.57012 1.48965 8.00012C1.53965 8.09012 1.59964 8.18012 1.64964 8.26012C2.30964 9.29012 2.95966 9.82012 3.59966 9.82012C4.27966 9.82012 4.94965 9.23012 5.60965 7.99012C6.35965 7.06012 6.70966 5.78012 6.70966 4.21012C6.70966 3.68012 6.55965 3.16012 6.29965 2.70012C5.30965 1.01012 4.34965 0.120117 3.44965 0.120117L3.43965 0.140118Z" fill="#5E5E5A"/>
<mask id="mask0_229_1235" style="mask-type:luminance" maskUnits="userSpaceOnUse" x="0" y="0" width="7" height="10">
<path d="M5.61137 8.00014C6.36137 7.07014 6.71138 5.79014 6.71138 4.22014C6.71138 3.69014 6.56138 3.17014 6.30138 2.71014C4.36138 -0.589862 2.57137 -0.859861 0.971375 2.68014C0.501375 4.78014 0.661374 6.56014 1.50137 7.99014C1.55137 8.08014 1.61138 8.17014 1.66138 8.25014C3.01138 10.3701 4.33137 10.3901 5.62137 7.99014L5.61137 8.00014Z" fill="white"/>
</mask>
<g mask="url(#mask0_229_1235)">
<path opacity="0.75" d="M2.91216 -0.259766C2.91216 -0.259766 1.87216 1.89023 3.67216 1.89023C5.26216 1.89023 4.41216 -0.239769 4.41216 -0.239769L2.91216 -0.259766Z" fill="#E62C2F" stroke="#E62C2F" stroke-width="0.2" stroke-linecap="round" stroke-linejoin="round"/>
</g>
</svg>
