<svg width="13" height="18" viewBox="0 0 13 18" fill="none" xmlns="http://www.w3.org/2000/svg">
<path d="M10.3012 6.82973C11.3012 9.99973 12.0612 12.9997 11.9912 15.4597C11.9812 15.9597 11.8712 16.4597 11.6512 16.9097C11.3512 17.4997 11.0312 17.5897 10.6812 17.1097C10.5212 16.8797 10.4112 16.6097 10.3612 16.3297L9.52118 12.3897C9.32118 11.4797 8.79118 10.6497 7.99118 10.1697C7.47118 9.85972 6.93118 9.73973 6.38118 9.82973C5.73118 9.93973 5.17117 10.3397 4.80117 10.8797C4.02117 11.9797 2.34118 15.1797 2.34118 15.1797C1.56118 16.2997 1.10117 16.2397 1.00117 14.8897C0.951171 13.2097 2.51118 9.52973 3.98118 6.71973L10.3312 6.82973H10.3012Z" fill="#F4DE9C" stroke="#5E5E5A" stroke-width="0.15" stroke-linecap="round" stroke-linejoin="round"/>
<path d="M7.06165 8.14985C6.31165 8.14985 5.58165 7.90985 4.87165 7.42985C4.56165 7.21985 4.26164 6.95985 4.00164 6.66985C3.53164 6.15985 3.16165 5.53985 2.88165 4.82985C2.18165 3.02985 2.23165 1.61985 3.02165 0.639847C3.48165 0.279847 4.02164 0.0898438 4.61164 0.0898438C5.04164 0.0898438 5.50165 0.189845 5.99165 0.379845C6.50165 0.749845 6.95164 0.939842 7.36164 0.939842C7.64164 0.939842 7.90165 0.849843 8.12165 0.659843C8.62165 0.419843 9.08165 0.289848 9.49165 0.289848C10.0016 0.289848 10.4216 0.479848 10.7916 0.859848C11.1316 1.21985 11.3517 1.72984 11.4017 2.29984C11.5117 3.62984 11.3716 4.74984 10.9716 5.72984C10.8116 6.11984 10.5616 6.46985 10.2516 6.77985C10.1216 6.90985 9.97165 7.02985 9.82165 7.13985C8.87165 7.80985 7.95165 8.15984 7.06165 8.15984V8.14985Z" fill="white"/>
<path d="M4.62128 0.159996C5.03128 0.159996 5.48128 0.25 5.96128 0.43C6.49128 0.81 6.95128 1 7.37128 1C7.67128 1 7.94128 0.900001 8.15128 0.720001C8.65128 0.470001 9.11127 0.349998 9.50127 0.349998C9.99127 0.349998 10.3913 0.530002 10.7413 0.900002C11.0713 1.25 11.2813 1.75 11.3313 2.3C11.4413 3.62 11.3013 4.71999 10.9013 5.68999C10.7413 6.06999 10.5113 6.41 10.2013 6.72C10.0713 6.85 9.93128 6.97 9.78128 7.07C8.85128 7.73 7.93128 8.07 7.07128 8.07C6.34128 8.07 5.62128 7.83 4.92128 7.36C4.61128 7.15 4.32128 6.9 4.06128 6.61C3.60128 6.1 3.23128 5.49 2.96128 4.8C2.27128 3.02 2.31128 1.64 3.06128 0.709999C3.52128 0.349999 4.04128 0.159996 4.62128 0.159996ZM4.62128 0.00999451C4.00128 0.00999451 3.45127 0.199996 2.97127 0.589996C2.15127 1.6 2.11128 3.02 2.82128 4.85C3.09128 5.54 3.46128 6.18 3.95128 6.71C4.21128 7 4.51128 7.26 4.84128 7.48C5.57128 7.97 6.31128 8.22 7.07128 8.22C7.98128 8.22 8.91128 7.86999 9.87128 7.18999C10.0313 7.07999 10.1713 6.96 10.3113 6.82C10.6213 6.51 10.8813 6.15 11.0513 5.74C11.4813 4.7 11.6013 3.54 11.4913 2.28C11.4413 1.73 11.2413 1.19 10.8613 0.790001C10.4813 0.380001 10.0213 0.189995 9.51128 0.189995C9.08128 0.189995 8.60128 0.320002 8.09128 0.580002C7.87128 0.760002 7.63128 0.839996 7.38128 0.839996C6.97128 0.839996 6.52128 0.630001 6.04128 0.290001C5.54128 0.100001 5.07128 0 4.63128 0L4.62128 0.00999451Z" fill="#5E5E5A"/>
<mask id="mask0_229_1423" style="mask-type:luminance" maskUnits="userSpaceOnUse" x="2" y="0" width="10" height="9">
<path d="M10.3013 6.83016C10.6113 6.52016 10.8713 6.16016 11.0413 5.75016C11.4713 4.71016 11.5913 3.55016 11.4813 2.29016C11.4313 1.74016 11.2313 1.20015 10.8513 0.800151C10.1413 0.0501512 9.20127 0.0401521 8.08127 0.590152C7.52127 1.06015 6.81128 0.860151 6.03128 0.300151C4.82128 -0.169849 3.80127 -0.0698479 2.97127 0.590152C2.15127 1.60015 2.11128 3.02015 2.82128 4.85015C3.09128 5.54015 3.46128 6.18016 3.95128 6.71016C4.21128 7.00016 4.51128 7.26015 4.84128 7.48015C6.43128 8.56015 8.11128 8.45015 9.87128 7.19015C10.0313 7.08015 10.1713 6.96016 10.3113 6.82016L10.3013 6.83016Z" fill="white"/>
</mask>
<g mask="url(#mask0_229_1423)">
<path opacity="0.75" d="M6.26254 -0.759766C6.26254 -0.759766 4.90253 2.05023 7.25253 2.05023C9.33253 2.05023 8.22253 -0.739769 8.22253 -0.739769L6.27253 -0.759766H6.26254Z" fill="#E62C2F" stroke="#E62C2F" stroke-width="0.2" stroke-linecap="round" stroke-linejoin="round"/>
</g>
</svg>
