<svg width="13" height="19" viewBox="0 0 13 19" fill="none" xmlns="http://www.w3.org/2000/svg">
<path d="M9.75108 7.55004C11.5811 10.18 12.5211 13.75 12.5211 17.48C12.4611 18.57 12.1211 18.81 11.5611 18.34C11.2211 18.06 11.0011 17.65 10.9111 17.22C10.3611 14.79 9.59108 12.76 8.45108 11.37C7.12108 10.03 5.98108 10.1 4.98108 11.15C3.70108 12.31 3.03107 14.17 2.68107 16.38C2.63107 16.71 2.52108 17.04 2.33108 17.32C1.95108 17.89 1.56108 17.93 1.16108 17.39C0.961084 17.12 0.851084 16.8 0.801084 16.47C0.391084 13.39 0.931086 10.46 2.38109 7.67004C2.40109 7.63004 2.42108 7.59004 2.45108 7.54004H9.75108V7.55004Z" fill="#F4DE9C" stroke="#5E5E5A" stroke-width="0.15" stroke-linecap="round" stroke-linejoin="round"/>
<path d="M6.25026 8.76C5.19026 8.76 4.11026 8.51 3.03026 8.02C2.81026 7.92 2.61026 7.78 2.43026 7.62C2.30026 7.51 2.19027 7.38 2.10027 7.23C0.97027 5.56 0.480264 3.94 0.610264 2.28C0.740264 1.48 0.970261 0.950001 1.31026 0.700001C1.89026 0.400001 2.54027 0.25 3.27027 0.25C3.95027 0.25 4.68026 0.379999 5.51026 0.639999C5.75026 0.749999 6.00026 0.810001 6.25026 0.810001C6.50026 0.810001 6.75026 0.750001 7.00026 0.630001C7.50026 0.410001 7.94026 0.290001 8.36026 0.290001C8.63026 0.290001 8.90026 0.34 9.17026 0.43C9.62026 0.49 10.0703 0.769999 10.5703 1.28C10.8503 1.57 11.0303 1.93 11.0903 2.32C11.2803 3.53 11.3003 4.62 11.1203 5.67C11.0803 6.06 10.9803 6.43 10.8203 6.76C10.6203 7.18 10.2703 7.54 9.81026 7.79C8.64026 8.42 7.44026 8.74 6.25026 8.74V8.76Z" fill="white"/>
<path d="M3.26999 0.329689C3.93999 0.329689 4.65999 0.459686 5.46999 0.709686C5.72999 0.829686 5.98999 0.889687 6.24999 0.889687C6.50999 0.889687 6.74999 0.829688 6.99999 0.719688H7.03998C7.03998 0.719688 7.08999 0.719688 7.10999 0.699688C7.52999 0.479688 7.94999 0.369686 8.35999 0.369686C8.61999 0.369686 8.88999 0.409686 9.16999 0.509686C9.58999 0.569686 10.03 0.839687 10.51 1.33969C10.78 1.61969 10.95 1.95969 11.01 2.33969C11.2 3.53969 11.21 4.62969 11.04 5.66969C11 6.04969 10.9 6.40969 10.75 6.72969C10.56 7.13969 10.22 7.47969 9.76999 7.72969C8.60999 8.35969 7.42999 8.66969 6.24999 8.66969C5.20999 8.66969 4.13 8.41969 3.07 7.92969C2.86 7.82969 2.66 7.69969 2.49 7.53969C2.37 7.42969 2.25999 7.29969 2.16999 7.16969C1.04999 5.50969 0.569993 3.90969 0.689993 2.27969C0.809993 1.49969 1.04 0.979686 1.35 0.759686C1.93 0.459686 2.55999 0.309689 3.27999 0.309689M3.26999 0.179688C2.55999 0.179688 1.88999 0.319689 1.26999 0.649689C0.919995 0.899689 0.669989 1.41969 0.529989 2.27969C0.399989 4.03969 0.969984 5.69968 2.03998 7.26968C2.13998 7.41968 2.25 7.54969 2.38 7.66969C2.56 7.83969 2.76999 7.97968 2.99999 8.08968C4.09999 8.58968 5.17999 8.83968 6.24999 8.83968C7.46999 8.83968 8.67 8.50968 9.85 7.87968C10.3 7.63968 10.68 7.27969 10.89 6.80969C11.06 6.45969 11.16 6.08969 11.19 5.69969C11.37 4.59969 11.34 3.46969 11.16 2.32969C11.09 1.91969 10.91 1.53969 10.62 1.23969C10.15 0.759689 9.67999 0.439686 9.18999 0.369686C8.90999 0.279686 8.62999 0.229687 8.35999 0.229687C7.90999 0.229687 7.46998 0.349689 7.03998 0.579689H6.96999C6.72999 0.689689 6.48999 0.749687 6.24999 0.749687C6.00999 0.749687 5.76998 0.689689 5.53998 0.579689C4.75998 0.329689 3.99999 0.179688 3.27999 0.179688H3.26999Z" fill="#5E5E5A"/>
<mask id="mask0_229_1210" style="mask-type:luminance" maskUnits="userSpaceOnUse" x="0" y="0" width="12" height="9">
<path d="M9.85172 7.87991C10.3017 7.63991 10.6817 7.27992 10.8917 6.80992C11.0617 6.45992 11.1617 6.08992 11.1917 5.69992C11.3717 4.59992 11.3417 3.46992 11.1617 2.32992C11.0917 1.91992 10.9117 1.53992 10.6217 1.23992C10.1517 0.759917 9.68172 0.439914 9.19172 0.369914C8.45172 0.119914 7.74171 0.209917 7.04171 0.579917H6.97172C6.48172 0.809917 6.01171 0.799917 5.54171 0.579917C3.99171 0.0899172 2.54171 -0.0100831 1.28171 0.649917C0.931713 0.899917 0.681708 1.41991 0.541708 2.27991C0.411708 4.03991 0.981717 5.69991 2.05172 7.26991C2.15172 7.41991 2.26171 7.54991 2.39171 7.66991C2.57171 7.83991 2.78171 7.97991 3.01171 8.08991C5.38171 9.16991 7.65172 9.06991 9.85172 7.87991Z" fill="white"/>
</mask>
<g mask="url(#mask0_229_1210)">
<path opacity="0.75" d="M4.96217 -0.97047C4.96217 -0.97047 3.49217 2.05953 6.03217 2.05953C8.27217 2.05953 7.07218 -0.95047 7.07218 -0.95047L4.96217 -0.980469V-0.97047Z" fill="#E62C2F" stroke="#E62C2F" stroke-width="0.2" stroke-linecap="round" stroke-linejoin="round"/>
</g>
</svg>
