<svg width="5" height="18" viewBox="0 0 5 18" fill="none" xmlns="http://www.w3.org/2000/svg">
<path d="M3.42941 7.00977H0.629405C0.629405 7.00977 0.629405 7.19976 0.629405 7.20976C1.0194 10.4398 1.0794 13.4998 0.629405 16.2998C0.459405 17.5698 0.759409 17.7398 1.32941 17.2198C1.72941 16.8598 2.0294 16.3898 2.1994 15.8698C2.9294 13.6498 3.27941 10.5598 3.41941 7.00977" fill="#F4DE9C"/>
<path d="M3.42941 7.00977H0.629405C0.629405 7.00977 0.629405 7.19976 0.629405 7.20976C1.0194 10.4398 1.0794 13.4998 0.629405 16.2998C0.459405 17.5698 0.759409 17.7398 1.32941 17.2198C1.72941 16.8598 2.0294 16.3898 2.1994 15.8698C2.9294 13.6498 3.27941 10.5598 3.41941 7.00977" stroke="#5E5E5A" stroke-width="0.15" stroke-linecap="round" stroke-linejoin="round"/>
<path d="M0.640785 7.20009C0.430785 6.80009 0.330783 6.35009 0.310783 5.90009L0.180786 2.43009C0.130786 1.63009 0.460786 1.23009 0.930786 0.930094C1.64079 0.420094 2.66078 0.190095 3.52078 0.240095C4.12078 0.430095 4.14079 0.290093 4.22079 0.820093C4.26079 1.07009 4.27079 1.32009 4.25079 1.57009C4.14079 3.17009 3.98079 4.64009 3.82079 6.01009C3.78079 6.38009 3.64078 6.72009 3.42078 7.02009C3.40078 7.05009 3.37078 7.0801 3.35078 7.1201C2.32078 8.3901 1.46078 8.49009 0.770782 7.45009C0.720782 7.38009 0.670783 7.30009 0.630783 7.22009" fill="white"/>
<path d="M0.640785 7.20009C0.430785 6.80009 0.330783 6.35009 0.310783 5.90009L0.180786 2.43009C0.130786 1.63009 0.460786 1.23009 0.930786 0.930094C1.64079 0.420094 2.66078 0.190095 3.52078 0.240095C4.12078 0.430095 4.14079 0.290093 4.22079 0.820093C4.26079 1.07009 4.27079 1.32009 4.25079 1.57009C4.14079 3.17009 3.98079 4.64009 3.82079 6.01009C3.78079 6.38009 3.64078 6.72009 3.42078 7.02009C3.40078 7.05009 3.37078 7.0801 3.35078 7.1201C2.32078 8.3901 1.46078 8.49009 0.770782 7.45009C0.720782 7.38009 0.670783 7.30009 0.630783 7.22009" stroke="#5E5E5A" stroke-width="0.15" stroke-linecap="round" stroke-linejoin="round"/>
<mask id="mask0_229_1272" style="mask-type:luminance" maskUnits="userSpaceOnUse" x="0" y="0" width="5" height="9">
<path d="M0.640785 7.20009C0.430785 6.80009 0.330783 6.35009 0.310783 5.90009L0.180786 2.43009C0.130786 1.63009 0.460786 1.23009 0.930786 0.930094C1.64079 0.420094 2.66078 0.190095 3.52078 0.240095C4.12078 0.430095 4.14079 0.290093 4.22079 0.820093C4.26079 1.07009 4.27079 1.32009 4.25079 1.57009C4.14079 3.17009 3.98079 4.64009 3.82079 6.01009C3.78079 6.38009 3.64078 6.72009 3.42078 7.02009C3.40078 7.05009 3.37078 7.0801 3.35078 7.1201C2.32078 8.3901 1.46078 8.49009 0.770782 7.45009C0.720782 7.38009 0.670783 7.30009 0.630783 7.22009" fill="white"/>
</mask>
<g mask="url(#mask0_229_1272)">
<path opacity="0.75" d="M2.90261 -0.219494C2.90261 -0.219494 3.89261 1.82051 2.18261 1.82051C0.672607 1.82051 1.48261 -0.209492 1.48261 -0.209492L2.90261 -0.229492V-0.219494Z" fill="#E62C2F" stroke="#E62C2F" stroke-width="0.2" stroke-linecap="round" stroke-linejoin="round"/>
</g>
</svg>
