<svg width="6" height="19" viewBox="0 0 6 19" fill="none" xmlns="http://www.w3.org/2000/svg">
<path d="M1.16797 6.54004V7.03004C1.71797 10.48 1.90797 13.76 1.56797 16.81C1.44797 18.11 1.73797 18.44 2.34797 18.03C2.79797 17.73 3.10797 17.25 3.26797 16.73C4.11797 14 4.58797 10.5 4.82797 6.54004H1.16797Z" fill="#F4DE9C" stroke="#5E5E5A" stroke-width="0.15" stroke-linecap="round" stroke-linejoin="round"/>
<path d="M4.82985 6.53993C4.72985 6.75993 4.58984 6.96993 4.41984 7.13993C3.70984 7.84993 2.99984 8.08993 2.26984 7.88993C1.78984 7.75993 1.40984 7.43993 1.16984 7.02993C1.00984 6.75993 0.909843 6.44993 0.889843 6.12993L0.589844 2.53993C0.639844 1.99993 0.769845 1.52993 0.989845 1.12993C1.22985 0.699929 1.68984 0.419928 2.18984 0.389928L4.65984 0.229928C5.28984 0.199928 5.48984 0.359928 5.45984 1.13993C5.45984 1.33993 5.43984 1.53993 5.44984 1.73993C5.48984 3.32993 5.36985 4.73993 5.00985 5.86993C4.98985 6.09993 4.92985 6.32993 4.82985 6.53993Z" fill="white" stroke="#5E5E5A" stroke-width="0.15" stroke-linecap="round" stroke-linejoin="round"/>
<mask id="mask0_229_1332" style="mask-type:luminance" maskUnits="userSpaceOnUse" x="0" y="0" width="6" height="8">
<path d="M4.82985 6.53993C4.72985 6.75993 4.58984 6.96993 4.41984 7.13993C3.70984 7.84993 2.99984 8.08993 2.26984 7.88993C1.78984 7.75993 1.40984 7.43993 1.16984 7.02993C1.00984 6.75993 0.909843 6.44993 0.889843 6.12993L0.589844 2.53993C0.639844 1.99993 0.769845 1.52993 0.989845 1.12993C1.22985 0.699929 1.68984 0.419928 2.18984 0.389928L4.65984 0.229928C5.28984 0.199928 5.48984 0.359928 5.45984 1.13993C5.45984 1.33993 5.43984 1.53993 5.44984 1.73993C5.48984 3.32993 5.36985 4.73993 5.00985 5.86993C4.98985 6.09993 4.92985 6.32993 4.82985 6.53993Z" fill="white"/>
</mask>
<g mask="url(#mask0_229_1332)">
<path opacity="0.75" d="M3.81963 -0.280037C3.81963 -0.280037 4.81963 1.78996 3.08963 1.78996C1.55963 1.78996 2.37963 -0.270039 2.37963 -0.270039L3.81963 -0.290039V-0.280037Z" fill="#E62C2F" stroke="#E62C2F" stroke-width="0.2" stroke-linecap="round" stroke-linejoin="round"/>
</g>
</svg>
