<svg width="7" height="22" viewBox="0 0 7 22" fill="none" xmlns="http://www.w3.org/2000/svg">
<path d="M2.08203 8.00024C2.74203 12.2502 3.12203 16.4002 3.17203 20.4402C3.17203 20.7202 3.23203 21.0102 3.37203 21.2602C3.59203 21.6502 3.88203 21.7102 4.24203 21.4402C4.58203 21.1902 4.79203 20.8102 4.87203 20.4002C5.70203 16.4702 6.10203 12.3202 6.20203 7.99023H2.08203V8.00024Z" fill="#F4DE9C" stroke="#5E5E5A" stroke-width="0.15" stroke-linecap="round" stroke-linejoin="round"/>
<path d="M4.08078 9.75094C3.43078 9.75094 2.77078 9.15094 2.14078 7.96094C1.42078 7.06094 1.05078 5.80094 1.05078 4.22094C1.05078 3.71094 1.19078 3.20094 1.45078 2.75094C2.44078 1.06094 3.38078 0.210938 4.24078 0.210938C5.10078 0.210938 5.90078 1.05094 6.65078 2.71094C7.11078 4.80094 6.94078 6.57094 6.12078 7.95094C6.07078 8.04094 6.02078 8.12094 5.96078 8.21094C5.31078 9.23094 4.68078 9.74094 4.07078 9.74094L4.08078 9.75094Z" fill="white"/>
<path d="M4.25219 0.290627C5.07219 0.290627 5.85219 1.12063 6.58219 2.72063C7.04219 4.81063 6.87219 6.56062 6.07219 7.92062C6.02219 8.01062 5.97219 8.09063 5.91219 8.18063C5.28219 9.17063 4.66219 9.68063 4.09219 9.68063C3.47219 9.68063 2.84219 9.09063 2.20219 7.91063C1.49219 7.03063 1.14219 5.79063 1.13219 4.23063C1.13219 3.73063 1.27219 3.24062 1.52219 2.80062C2.50219 1.14062 3.42219 0.290627 4.24219 0.290627M4.25219 0.140625C3.34219 0.140625 2.39219 1.03063 1.40219 2.72063C1.13219 3.18063 0.992188 3.70063 0.992188 4.23063C0.992188 5.80063 1.34219 7.07063 2.09219 8.01063C2.75219 9.24063 3.42218 9.84062 4.10218 9.84062C4.74218 9.84062 5.39219 9.31062 6.05219 8.28062C6.11219 8.20062 6.16218 8.11062 6.21218 8.02062C7.05218 6.59062 7.21219 4.81062 6.74219 2.71062C5.96219 0.980625 5.13218 0.160625 4.26218 0.160625L4.25219 0.140625Z" fill="#5E5E5A"/>
<mask id="mask0_229_1245" style="mask-type:luminance" maskUnits="userSpaceOnUse" x="0" y="0" width="7" height="10">
<path d="M2.08047 8.00014C1.33047 7.07014 0.980469 5.79014 0.980469 4.22014C0.980469 3.69014 1.13047 3.17014 1.39047 2.71014C3.33047 -0.589862 5.12047 -0.859861 6.72047 2.68014C7.19047 4.78014 7.03047 6.56014 6.19047 7.99014C6.14047 8.08014 6.08047 8.17014 6.03047 8.25014C4.68047 10.3701 3.36047 10.3901 2.07047 7.99014L2.08047 8.00014Z" fill="white"/>
</mask>
<g mask="url(#mask0_229_1245)">
<path opacity="0.75" d="M4.76992 -0.259766C4.76992 -0.259766 5.80991 1.89023 4.00991 1.89023C2.41991 1.89023 3.26992 -0.239769 3.26992 -0.239769L4.76992 -0.259766Z" fill="#E62C2F" stroke="#E62C2F" stroke-width="0.2" stroke-linecap="round" stroke-linejoin="round"/>
</g>
</svg>
