<svg width="12" height="18" viewBox="0 0 12 18" fill="none" xmlns="http://www.w3.org/2000/svg">
<path d="M1.81166 6.99965C0.811659 10.1696 0.0516605 13.1696 0.12166 15.6296C0.13166 16.1296 0.241659 16.6297 0.461659 17.0797C0.761659 17.6697 1.08166 17.7596 1.43166 17.2796C1.59166 17.0496 1.70166 16.7796 1.75166 16.4996L2.59166 12.5596C2.79166 11.6496 3.32166 10.8196 4.12166 10.3396C4.64166 10.0296 5.18166 9.90965 5.73166 9.99965C6.38166 10.1096 6.94166 10.5097 7.31166 11.0497C8.09166 12.1497 9.77166 15.3496 9.77166 15.3496C10.5517 16.4696 11.0117 16.4096 11.1117 15.0596C11.1617 13.3796 9.60166 9.69965 8.13166 6.88965L1.78166 6.99965H1.81166Z" fill="#F4DE9C" stroke="#5E5E5A" stroke-width="0.15" stroke-linecap="round" stroke-linejoin="round"/>
<path d="M5.05329 8.31977C4.17329 8.31977 3.24329 7.97977 2.29329 7.29977C2.14329 7.18977 2.00329 7.06977 1.86329 6.93977C1.54329 6.62977 1.30329 6.27977 1.14329 5.88977C0.733292 4.90977 0.593291 3.78977 0.713291 2.45977C0.763291 1.88977 0.973292 1.37977 1.32329 1.01977C1.68329 0.629768 2.11329 0.449768 2.62329 0.449768C3.03329 0.449768 3.50329 0.579769 4.01329 0.829769C4.22329 1.00977 4.47329 1.09977 4.76329 1.09977C5.16329 1.09977 5.62329 0.919768 6.14329 0.539768C6.61329 0.359768 7.08329 0.259766 7.51329 0.259766C8.11329 0.259766 8.65329 0.449767 9.12329 0.819767C9.90329 1.77977 9.95329 3.18977 9.25329 4.99977C8.98329 5.69977 8.60329 6.31977 8.13329 6.83977C7.87329 7.12977 7.57329 7.37977 7.26329 7.59977C6.55329 8.07977 5.82329 8.32977 5.07329 8.32977L5.05329 8.31977Z" fill="white"/>
<path d="M7.49343 0.329689C8.07343 0.329689 8.59343 0.509686 9.03343 0.849686C9.80343 1.79969 9.85343 3.18969 9.16343 4.96969C8.89343 5.66969 8.52343 6.27969 8.06343 6.77969C7.80343 7.06969 7.51343 7.31969 7.20343 7.52969C6.51343 7.99969 5.78342 8.23969 5.05342 8.23969C4.18342 8.23969 3.27343 7.89969 2.34343 7.23969C2.19343 7.12969 2.05343 7.01969 1.92343 6.88969C1.61343 6.58969 1.37342 6.23969 1.22342 5.85969C0.823425 4.88969 0.683426 3.77969 0.793426 2.46969C0.843426 1.91969 1.04342 1.41969 1.38342 1.06969C1.73342 0.699687 2.13343 0.519688 2.62343 0.519688C3.02343 0.519688 3.47343 0.639686 3.94343 0.869686C4.18343 1.06969 4.45343 1.16969 4.75343 1.16969C5.17343 1.16969 5.63343 0.979686 6.16343 0.599686C6.64343 0.419686 7.09343 0.329689 7.50343 0.329689M7.49343 0.179688C7.05343 0.179688 6.58343 0.279688 6.08343 0.469688C5.60343 0.809688 5.15343 1.01969 4.74343 1.01969C4.48343 1.01969 4.24343 0.939686 4.03343 0.759686C3.52343 0.509686 3.04343 0.369686 2.61343 0.369686C2.10343 0.369686 1.64343 0.559688 1.26343 0.969688C0.883426 1.36969 0.683425 1.90969 0.633425 2.45969C0.523425 3.71969 0.633425 4.87969 1.07343 5.91969C1.24343 6.32969 1.49343 6.68969 1.81343 6.99969C1.95343 7.12969 2.09343 7.25969 2.25343 7.36969C3.21343 8.04969 4.14342 8.39969 5.05342 8.39969C5.81342 8.39969 6.56343 8.15969 7.28343 7.65969C7.61343 7.43969 7.90343 7.17969 8.17343 6.88969C8.66343 6.34969 9.04342 5.70969 9.30342 5.02969C10.0134 3.19969 9.97343 1.76969 9.15343 0.769688C8.66343 0.379688 8.11343 0.189686 7.50343 0.189686L7.49343 0.179688Z" fill="#5E5E5A"/>
<mask id="mask0_229_1340" style="mask-type:luminance" maskUnits="userSpaceOnUse" x="0" y="0" width="10" height="9">
<path d="M1.81218 7.00007C1.50218 6.69007 1.24218 6.33007 1.07218 5.92007C0.642176 4.88007 0.522176 3.72007 0.632176 2.46007C0.682176 1.91007 0.882177 1.37007 1.26218 0.970075C1.97218 0.220075 2.91218 0.210072 4.03218 0.760072C4.59218 1.23007 5.30218 1.03007 6.08218 0.470075C7.29218 7.45356e-05 8.31218 0.100072 9.14218 0.760072C9.96218 1.77007 10.0022 3.19007 9.29218 5.02007C9.02218 5.71007 8.65218 6.35007 8.16218 6.88007C7.90218 7.17007 7.60218 7.43007 7.27218 7.65007C5.68218 8.73008 4.00218 8.62007 2.24218 7.36007C2.08218 7.25007 1.94218 7.13008 1.80218 6.99008L1.81218 7.00007Z" fill="white"/>
</mask>
<g mask="url(#mask0_229_1340)">
<path opacity="0.75" d="M5.85352 -0.599609C5.85352 -0.599609 7.21352 2.21039 4.86352 2.21039C2.78352 2.21039 3.89352 -0.579613 3.89352 -0.579613L5.84352 -0.599609H5.85352Z" fill="#E62C2F" stroke="#E62C2F" stroke-width="0.2" stroke-linecap="round" stroke-linejoin="round"/>
</g>
</svg>
