<svg width="13" height="19" viewBox="0 0 13 19" fill="none" xmlns="http://www.w3.org/2000/svg">
<path d="M2.93016 7.59007C1.10016 10.2201 0.160156 13.7901 0.160156 17.5201C0.220156 18.6101 0.560156 18.8501 1.12016 18.3801C1.46016 18.1001 1.68016 17.6901 1.77016 17.2601C2.32016 14.8301 3.09016 12.8001 4.23016 11.4101C5.56016 10.0701 6.70016 10.1401 7.70016 11.1901C8.98016 12.3501 9.65016 14.2101 10.0002 16.4201C10.0502 16.7501 10.1602 17.0801 10.3502 17.3601C10.7302 17.9301 11.1202 17.9701 11.5202 17.4301C11.7202 17.1601 11.8302 16.8401 11.8802 16.5101C12.2902 13.4301 11.7502 10.5001 10.3002 7.71008C10.2802 7.67008 10.2602 7.63008 10.2302 7.58008H2.93016V7.59007Z" fill="#F4DE9C" stroke="#5E5E5A" stroke-width="0.15" stroke-linecap="round" stroke-linejoin="round"/>
<path d="M6.43182 8.8098C5.24182 8.8098 4.04182 8.48981 2.87182 7.85981C2.40182 7.60981 2.05182 7.24981 1.86182 6.82981C1.70182 6.49981 1.60182 6.12981 1.56182 5.73981C1.39182 4.68981 1.40182 3.5898 1.59182 2.3898C1.65182 1.9898 1.83182 1.6298 2.11182 1.3498C2.61182 0.839804 3.06182 0.559805 3.50182 0.499805C3.78182 0.409805 4.05182 0.359806 4.32182 0.359806C4.74182 0.359806 5.17182 0.469806 5.60182 0.699806C5.61182 0.699806 5.70182 0.699806 5.71182 0.699806C5.93182 0.809806 6.18182 0.869804 6.43182 0.869804C6.68182 0.869804 6.93182 0.809804 7.18182 0.689804C8.00182 0.429804 8.73182 0.299805 9.41182 0.299805C10.1418 0.299805 10.7818 0.449804 11.3818 0.759804C11.7118 0.999804 11.9518 1.53981 12.0818 2.33981C12.2018 3.98981 11.7218 5.6098 10.5918 7.2798C10.5018 7.4198 10.3818 7.5498 10.2618 7.6698C10.0818 7.8398 9.88182 7.96981 9.66182 8.06981C8.58182 8.55981 7.50182 8.8098 6.44182 8.8098H6.43182Z" fill="white"/>
<path d="M9.40998 0.369724C10.13 0.369724 10.76 0.519727 11.32 0.809727C11.64 1.04973 11.87 1.55973 11.99 2.32973C12.11 3.96973 11.63 5.56973 10.51 7.22973C10.42 7.36973 10.31 7.48972 10.19 7.59972C10.02 7.75972 9.82998 7.88972 9.60998 7.98972C8.53998 8.47972 7.46998 8.72973 6.42998 8.72973C5.24998 8.72973 4.05998 8.40973 2.90998 7.78973C2.45998 7.54973 2.11998 7.19973 1.92998 6.78973C1.77998 6.46973 1.67998 6.10973 1.63998 5.71973C1.46998 4.67973 1.47998 3.59973 1.66998 2.39973C1.72998 2.01973 1.89998 1.66973 2.16998 1.39973C2.65998 0.899727 3.09998 0.629725 3.53998 0.569725C3.79998 0.479725 4.05998 0.439724 4.32998 0.439724C4.73998 0.439724 5.15998 0.549726 5.57998 0.769726C5.59998 0.779726 5.62998 0.789726 5.64998 0.789726H5.68998C5.93998 0.899726 6.18998 0.959724 6.43998 0.959724C6.68998 0.959724 6.95998 0.899724 7.19998 0.779724C8.01998 0.519724 8.74998 0.389725 9.40998 0.389725M9.40998 0.219727C8.68998 0.219727 7.92998 0.369724 7.14998 0.619724C6.90998 0.729724 6.67998 0.789726 6.43998 0.789726C6.19998 0.789726 5.95998 0.729724 5.71998 0.619724H5.64998C5.21998 0.389724 4.77998 0.269726 4.32998 0.269726C4.04998 0.269726 3.77998 0.319725 3.49998 0.409725C3.00998 0.479725 2.53998 0.799724 2.06998 1.27972C1.77998 1.57972 1.58998 1.95972 1.52998 2.36972C1.34998 3.50972 1.30998 4.63973 1.49998 5.73973C1.53998 6.12973 1.63998 6.49972 1.79998 6.84972C2.01998 7.30972 2.39998 7.66972 2.83998 7.91972C4.01998 8.55972 5.20998 8.87972 6.43998 8.87972C7.49998 8.87972 8.58998 8.62972 9.68998 8.12972C9.91998 8.02972 10.13 7.87972 10.31 7.70972C10.44 7.58972 10.55 7.45972 10.65 7.30972C11.72 5.72972 12.29 4.07973 12.16 2.31973C12.02 1.45973 11.77 0.939724 11.42 0.689724C10.79 0.369724 10.12 0.219727 9.41998 0.219727H9.40998Z" fill="#5E5E5A"/>
<mask id="mask0_229_1220" style="mask-type:luminance" maskUnits="userSpaceOnUse" x="1" y="0" width="12" height="9">
<path d="M2.83984 7.91996C2.38984 7.67996 2.00984 7.31996 1.79984 6.84996C1.62984 6.49996 1.52984 6.12996 1.49984 5.73996C1.31984 4.63996 1.34984 3.50996 1.52984 2.36996C1.59984 1.95996 1.77984 1.57996 2.06984 1.27996C2.53984 0.799956 3.00984 0.479957 3.49984 0.409957C4.23984 0.159957 4.94984 0.249956 5.64984 0.619956H5.71984C6.20984 0.849956 6.67984 0.839956 7.14984 0.619956C8.69984 0.129956 10.1498 0.0299559 11.4098 0.689956C11.7598 0.939956 12.0098 1.45996 12.1498 2.31996C12.2798 4.07996 11.7098 5.73995 10.6398 7.30995C10.5398 7.45995 10.4298 7.58996 10.2998 7.70996C10.1198 7.87996 9.90984 8.01995 9.67984 8.12995C7.30984 9.20995 5.03984 9.10996 2.83984 7.91996Z" fill="white"/>
</mask>
<g mask="url(#mask0_229_1220)">
<path opacity="0.75" d="M7.72792 -0.919685C7.72792 -0.919685 9.19792 2.11031 6.65792 2.11031C4.41792 2.11031 5.61792 -0.899689 5.61792 -0.899689L7.72792 -0.929688V-0.919685Z" fill="#E62C2F" stroke="#E62C2F" stroke-width="0.2" stroke-linecap="round" stroke-linejoin="round"/>
</g>
</svg>
