<svg width="11" height="28" viewBox="0 0 11 28" fill="none" xmlns="http://www.w3.org/2000/svg">
<mask id="mask0_289_10321" style="mask-type:luminance" maskUnits="userSpaceOnUse" x="1" y="14" width="10" height="14">
<path d="M1.99514 26.4994C2.22514 26.5594 3.24513 27.1294 4.70513 26.9894C5.61513 26.8994 6.74516 27.2694 7.85516 26.8594C8.41516 26.6494 9.06515 26.6194 9.69515 26.4094C10.3852 26.1794 10.4351 23.4594 10.2051 20.9194C9.97513 18.3794 9.46516 19.0294 8.63516 17.5994C5.01516 11.3694 4.59514 16.9594 2.80514 17.0894C1.66514 17.1694 0.135142 26.0494 1.99514 26.4894V26.4994Z" fill="white"/>
</mask>
<g mask="url(#mask0_289_10321)">
<path opacity="0.75" d="M-0.663116 23.3296C-0.663116 23.3296 2.59689 24.1296 2.59689 21.8596C2.59689 19.1196 -0.703125 19.9896 -0.703125 19.9896L-0.663116 23.3396V23.3296Z" fill="#3A3A3A" stroke="#E62C2F" stroke-width="0.5" stroke-linecap="round" stroke-linejoin="round"/>
</g>
</svg>
