<svg width="10" height="33" viewBox="0 0 10 33" fill="none" xmlns="http://www.w3.org/2000/svg">
<mask id="mask0_289_10246" style="mask-type:luminance" maskUnits="userSpaceOnUse" x="0" y="19" width="10" height="14">
<path d="M0.224703 28.5902C-0.265297 26.5402 1.0047 23.8002 1.2547 22.5502C1.4947 21.3002 3.3047 19.6802 4.6247 19.7702C5.9447 19.8702 7.6547 20.9202 7.8747 21.7602C9.0147 26.1202 10.2547 28.3902 8.1947 30.7902C6.8747 32.3202 4.82469 32.4702 3.36469 31.2202C1.90469 29.9702 0.774692 30.8402 0.244692 28.5902H0.224703Z" fill="white"/>
</mask>
<g mask="url(#mask0_289_10246)">
<path opacity="0.75" d="M-1.98438 27.5101C-1.54438 27.5601 1.64563 28.4801 1.64563 25.9901C1.64563 23.2301 -1.93436 24.1501 -1.93436 24.1501L-1.97437 27.5101H-1.98438Z" fill="#3A3A3A" stroke="#E62C2F" stroke-width="0.5" stroke-linecap="round" stroke-linejoin="round"/>
</g>
</svg>
