<svg width="12" height="29" viewBox="0 0 12 29" fill="none" xmlns="http://www.w3.org/2000/svg">
<mask id="mask0_289_10308" style="mask-type:luminance" maskUnits="userSpaceOnUse" x="0" y="16" width="12" height="13">
<path d="M0.683594 23.9795C0.683594 22.0295 1.66359 18.5595 2.39359 17.6795C3.12359 16.7995 4.73358 16.0195 5.95358 16.1895C7.17358 16.3595 7.61358 17.7695 8.54358 17.7295C9.46358 17.6895 10.3036 17.4895 10.4936 19.2395C10.6936 20.9995 11.0836 21.1395 11.2536 22.2695C11.4236 23.3895 11.8136 24.3495 9.71359 25.1895C7.61359 26.0295 7.09358 28.5695 5.23358 28.0095C3.36358 27.4495 3.61358 26.3795 2.29358 25.8895C0.973579 25.3995 0.683594 24.7195 0.683594 23.9895V23.9795Z" fill="white"/>
</mask>
<g mask="url(#mask0_289_10308)">
<path opacity="0.75" d="M-1.20703 23.2592C-1.20703 23.2592 2.57297 23.8492 2.57297 21.4592C2.57297 18.6792 -1.12701 19.2792 -1.12701 19.2792L-1.20703 23.2592Z" fill="#3A3A3A" stroke="#E62C2F" stroke-width="0.5" stroke-linecap="round" stroke-linejoin="round"/>
</g>
</svg>
