<svg width="9" height="27" viewBox="0 0 9 27" fill="none" xmlns="http://www.w3.org/2000/svg">
<mask id="mask0_289_10270" style="mask-type:luminance" maskUnits="userSpaceOnUse" x="0" y="14" width="9" height="13">
<path d="M0.514331 24.0993C1.00433 24.9293 2.62435 24.7793 2.87435 25.4693C3.11435 26.1493 5.54435 26.4493 6.22435 25.2693C6.90435 24.0993 8.17435 23.6593 8.47435 22.5393C8.76435 21.4193 9.10435 17.0193 8.47435 16.5793C7.84435 16.1393 6.77433 16.6793 6.23433 16.0893C5.69433 15.4993 4.35434 13.8893 3.43434 14.9193C2.51434 15.9493 2.35435 16.6793 1.59435 16.7993C-0.0756518 17.0593 0.164331 23.4993 0.514331 24.0993Z" fill="white"/>
</mask>
<g mask="url(#mask0_289_10270)">
<path opacity="0.75" d="M-2.53423 22.1896C-2.53423 22.1896 1.52578 23.1296 1.62578 20.7096C1.75578 17.5996 -2.57422 18.4296 -2.57422 18.4296L-2.53423 22.1896Z" fill="#3A3A3A" stroke="#E62C2F" stroke-width="0.5" stroke-linecap="round" stroke-linejoin="round"/>
</g>
</svg>
