<svg width="13" height="28" viewBox="0 0 13 28" fill="none" xmlns="http://www.w3.org/2000/svg">
<mask id="mask0_289_10297" style="mask-type:luminance" maskUnits="userSpaceOnUse" x="0" y="16" width="13" height="12">
<path d="M1.32567 17.6992C0.555673 19.0992 0.105677 24.4392 0.735677 25.3692C1.36568 26.2992 3.07568 26.4392 3.76568 25.7592C4.45568 25.0792 4.66567 25.8492 5.27567 26.1892C5.88567 26.5192 6.42567 25.8992 7.08567 26.5492C8.33567 27.7692 10.7457 26.9392 11.4357 24.0592C12.1157 21.1792 12.2657 18.5892 11.9257 17.7092C11.5857 16.8292 9.92567 18.2492 8.75567 17.1692C7.58567 16.0992 5.87568 16.1392 4.45568 16.7792C3.03568 17.4192 2.45567 15.6592 1.33567 17.7092L1.32567 17.6992Z" fill="white"/>
</mask>
<g mask="url(#mask0_289_10297)">
<path opacity="0.75" d="M-1.92531 22.759C-1.92531 22.759 2.10469 24.249 2.10469 21.069C2.10469 18.249 -1.94531 19.349 -1.94531 19.349L-1.92531 22.759Z" fill="#3A3A3A" stroke="#E62C2F" stroke-width="0.5" stroke-linecap="round" stroke-linejoin="round"/>
</g>
</svg>
