<svg width="14" height="26" viewBox="0 0 14 26" fill="none" xmlns="http://www.w3.org/2000/svg">
<mask id="mask0_289_10282" style="mask-type:luminance" maskUnits="userSpaceOnUse" x="0" y="14" width="13" height="11">
<path d="M1.65407 16.8196C0.604074 19.1096 0.484066 22.1496 2.11407 23.1496C3.78407 24.1796 4.80407 23.1496 5.63407 23.3896C6.46407 23.6296 8.89407 26.2396 10.8641 24.1596C12.5341 22.3996 13.5441 17.2296 12.6641 16.0096C10.7741 13.3896 9.13408 16.3796 6.48408 14.8996C5.33408 14.2596 2.69407 14.5596 1.66407 16.8096L1.65407 16.8196Z" fill="white"/>
</mask>
<g mask="url(#mask0_289_10282)">
<path opacity="0.75" d="M-1.60501 20.6095C-1.60501 20.6095 2.425 22.0995 2.425 18.9195C2.425 16.0995 -1.625 17.1995 -1.625 17.1995L-1.60501 20.6095Z" fill="#3A3A3A" stroke="#E62C2F" stroke-width="0.5" stroke-linecap="round" stroke-linejoin="round"/>
</g>
</svg>
