<svg width="11" height="24" viewBox="0 0 11 24" fill="none" xmlns="http://www.w3.org/2000/svg">
<mask id="mask0_289_10231" style="mask-type:luminance" maskUnits="userSpaceOnUse" x="0" y="13" width="11" height="11">
<path d="M0.43297 16.05C-0.337029 17.77 0.00296378 22.44 1.72296 22.44C3.44296 22.44 3.87297 22.17 4.51297 22.82C5.15297 23.47 6.12297 22.5001 6.66297 22.6101C7.20297 22.7201 9.17297 24.1601 9.71297 21.2701C10.263 18.37 10.313 14.0701 8.64296 14.4001C4.52296 15.2001 5.53297 10.8601 2.30297 15.2601C1.71297 16.0701 1.06298 14.62 0.422976 16.07L0.43297 16.05Z" fill="white"/>
</mask>
<g mask="url(#mask0_289_10231)">
<path opacity="0.75" d="M-2.62891 20.2999C-2.62891 20.2999 1.34109 22.1399 1.34109 18.9599C1.34109 16.1399 -2.59891 17.6499 -2.59891 17.6499L-2.62891 20.2999Z" fill="#3A3A3A" stroke="#E62C2F" stroke-width="0.5" stroke-linecap="round" stroke-linejoin="round"/>
</g>
</svg>
