<svg width="11" height="28" viewBox="0 0 11 28" fill="none" xmlns="http://www.w3.org/2000/svg">
<mask id="mask0_289_10219" style="mask-type:luminance" maskUnits="userSpaceOnUse" x="0" y="14" width="10" height="14">
<path d="M9.08725 26.5297C8.85725 26.5897 7.83726 27.1597 6.37726 27.0197C5.46726 26.9297 4.33726 27.2997 3.22726 26.8897C2.66726 26.6797 2.01727 26.6497 1.38727 26.4397C0.697268 26.2097 0.647258 23.4897 0.877258 20.9497C1.10726 18.4097 1.61727 19.0597 2.44727 17.6297C6.06727 11.3997 6.48725 16.9897 8.27725 17.1197C9.41725 17.1997 10.9472 26.0797 9.08725 26.5197V26.5297Z" fill="white"/>
</mask>
<g mask="url(#mask0_289_10219)">
<path opacity="0.75" d="M-1.19437 21C-1.19437 21 2.06564 20.2 2.06564 22.47C2.06564 25.21 -1.23438 24.34 -1.23438 24.34L-1.19437 20.99V21Z" fill="#3A3A3A" stroke="#E62C2F" stroke-width="0.5" stroke-linecap="round" stroke-linejoin="round"/>
</g>
</svg>
