<svg width="12" height="29" viewBox="0 0 12 29" fill="none" xmlns="http://www.w3.org/2000/svg">
<mask id="mask0_289_10206" style="mask-type:luminance" maskUnits="userSpaceOnUse" x="0" y="16" width="12" height="13">
<path d="M11.3851 24C11.3851 22.05 10.4051 18.58 9.67508 17.7C8.94508 16.82 7.33509 16.04 6.11509 16.21C4.89509 16.38 4.45509 17.79 3.52509 17.75C2.60509 17.71 1.76508 17.51 1.57508 19.26C1.37508 21.02 0.985097 21.16 0.815097 22.29C0.645097 23.41 0.255106 24.37 2.35511 25.21C4.45511 26.05 4.97509 28.59 6.83509 28.03C8.70509 27.47 8.45509 26.4 9.77509 25.91C11.0951 25.42 11.3851 24.74 11.3851 24.01V24Z" fill="white"/>
</mask>
<g mask="url(#mask0_289_10206)">
<path opacity="0.75" d="M-1.21484 19.0898C-1.21484 19.0898 2.56516 18.4998 2.56516 20.8898C2.56516 23.6698 -1.13486 23.0698 -1.13486 23.0698L-1.21484 19.0898Z" fill="#3A3A3A" stroke="#E62C2F" stroke-width="0.5" stroke-linecap="round" stroke-linejoin="round"/>
</g>
</svg>
