<svg width="9" height="27" viewBox="0 0 9 27" fill="none" xmlns="http://www.w3.org/2000/svg">
<mask id="mask0_289_10168" style="mask-type:luminance" maskUnits="userSpaceOnUse" x="0" y="14" width="9" height="13">
<path d="M8.55435 24.1188C8.06435 24.9488 6.44437 24.7988 6.19437 25.4888C5.95437 26.1688 3.52436 26.4688 2.84436 25.2888C2.16436 24.1188 0.89436 23.6788 0.59436 22.5588C0.30436 21.4388 -0.0356402 17.0388 0.59436 16.5988C1.22436 16.1588 2.29435 16.6988 2.83435 16.1088C3.37435 15.5188 4.71437 13.9088 5.63437 14.9388C6.55437 15.9688 6.71436 16.6988 7.47436 16.8188C9.14436 17.0788 8.90435 23.5188 8.55435 24.1188Z" fill="white"/>
</mask>
<g mask="url(#mask0_289_10168)">
<path opacity="0.75" d="M-2.34671 18.8887C-2.34671 18.8887 1.71329 17.9487 1.81329 20.3687C1.94329 23.4787 -2.38672 22.6487 -2.38672 22.6487L-2.34671 18.8887Z" fill="#3A3A3A" stroke="#E62C2F" stroke-width="0.5" stroke-linecap="round" stroke-linejoin="round"/>
</g>
</svg>
