<svg width="13" height="28" viewBox="0 0 13 28" fill="none" xmlns="http://www.w3.org/2000/svg">
<mask id="mask0_289_10195" style="mask-type:luminance" maskUnits="userSpaceOnUse" x="0" y="16" width="13" height="12">
<path d="M11.7558 17.7295C12.5258 19.1295 12.9758 24.4695 12.3458 25.3995C11.7158 26.3295 10.0058 26.4695 9.31578 25.7895C8.62578 25.1095 8.41577 25.8795 7.80577 26.2195C7.19577 26.5495 6.65577 25.9295 5.99577 26.5795C4.74577 27.7995 2.33576 26.9695 1.64576 24.0895C0.965765 21.2095 0.815774 18.6195 1.15577 17.7395C1.49577 16.8595 3.15576 18.2795 4.32576 17.1995C5.49576 16.1295 7.20578 16.1695 8.62578 16.8095C10.0458 17.4495 10.6258 15.6895 11.7458 17.7395L11.7558 17.7295Z" fill="white"/>
</mask>
<g mask="url(#mask0_289_10195)">
<path opacity="0.75" d="M-1.24561 20.5997C-1.24561 20.5997 2.78439 19.1097 2.78439 22.2897C2.78439 25.1097 -1.26562 24.0097 -1.26562 24.0097L-1.24561 20.5997Z" fill="#3A3A3A" stroke="#E62C2F" stroke-width="0.5" stroke-linecap="round" stroke-linejoin="round"/>
</g>
</svg>
