<svg width="12" height="24" viewBox="0 0 12 24" fill="none" xmlns="http://www.w3.org/2000/svg">
<mask id="mask0_289_10129" style="mask-type:luminance" maskUnits="userSpaceOnUse" x="1" y="13" width="11" height="11">
<path d="M10.6352 16.0793C11.4052 17.7993 11.0652 22.4693 9.3452 22.4693C7.6252 22.4693 7.19519 22.1993 6.55519 22.8493C5.91519 23.4993 4.9452 22.5293 4.4052 22.6393C3.8652 22.7493 1.89521 24.1893 1.35521 21.2993C0.805212 18.3993 0.755189 14.0993 2.42519 14.4293C6.54519 15.2293 5.53518 10.8893 8.76518 15.2893C9.35518 16.0993 10.0052 14.6493 10.6452 16.0993L10.6352 16.0793Z" fill="white"/>
</mask>
<g mask="url(#mask0_289_10129)">
<path opacity="0.75" d="M-1.31641 17.5295C-1.31641 17.5295 2.65359 15.6895 2.65359 18.8695C2.65359 21.6895 -1.28641 20.1795 -1.28641 20.1795L-1.31641 17.5295Z" fill="#3A3A3A" stroke="#E62C2F" stroke-width="0.5" stroke-linecap="round" stroke-linejoin="round"/>
</g>
</svg>
