<svg width="9" height="24" viewBox="0 0 9 24" fill="none" xmlns="http://www.w3.org/2000/svg">
<mask id="mask0_289_10429" style="mask-type:luminance" maskUnits="userSpaceOnUse" x="0" y="0" width="9" height="12">
<path d="M7.74587 9.37974C7.49587 10.7897 6.39588 10.3597 5.85588 11.0797C5.31588 11.7997 4.17586 11.9197 3.45586 11.0797C2.73586 10.2397 1.35586 10.0197 1.23586 8.65974C1.11586 7.29974 0.275857 2.22974 1.23586 1.55974C2.19586 0.899741 7.16586 0.549741 7.73586 1.55974C8.30586 2.56974 8.02586 7.73974 7.73586 9.37974H7.74587Z" fill="white"/>
</mask>
<g mask="url(#mask0_289_10429)">
<path opacity="0.75" d="M-1.42578 5.11987C-1.42578 5.11987 2.37424 3.40986 2.37424 6.35986C2.37424 8.97986 -1.39575 7.57987 -1.39575 7.57987L-1.42578 5.11987Z" fill="#3A3A3A" stroke="#E62C2F" stroke-width="0.5" stroke-linecap="round" stroke-linejoin="round"/>
</g>
</svg>
