<svg width="9" height="26" viewBox="0 0 9 26" fill="none" xmlns="http://www.w3.org/2000/svg">
<mask id="mask0_289_10057" style="mask-type:luminance" maskUnits="userSpaceOnUse" x="0" y="0" width="9" height="13">
<path d="M7.55433 1.17014C6.55433 0.740144 5.34433 1.75014 4.89433 1.44014C4.44433 1.13014 2.19435 0.550145 1.60435 1.46014C1.01435 2.37014 0.354343 6.77014 0.814343 8.38014C1.26434 9.99014 3.74433 12.8501 4.67433 12.4401C5.60433 12.0301 7.97433 10.3401 8.14433 9.83014C8.71433 8.13014 9.00434 1.79014 7.56434 1.17014H7.55433Z" fill="white"/>
</mask>
<g mask="url(#mask0_289_10057)">
<path opacity="0.75" d="M-2.07422 4.82001C-2.07422 4.82001 2.05579 2.99001 2.05579 6.15001C2.05579 8.95001 -2.03421 7.45001 -2.03421 7.45001L-2.06421 4.82001H-2.07422Z" fill="#3A3A3A" stroke="#E62C2F" stroke-width="0.5" stroke-linecap="round" stroke-linejoin="round"/>
</g>
</svg>
