<svg width="10" height="26" viewBox="0 0 10 26" fill="none" xmlns="http://www.w3.org/2000/svg">
<mask id="mask0_289_10117" style="mask-type:luminance" maskUnits="userSpaceOnUse" x="0" y="0" width="10" height="12">
<path d="M8.14658 9.48932C8.96658 8.66932 9.46658 6.17931 9.39658 4.78931C9.32658 3.40931 8.8266 3.31932 7.6966 2.38932C6.5666 1.45932 5.1566 0.389318 4.1366 1.06932C1.5266 2.80932 -0.113423 1.75931 1.04658 5.96931C1.63658 8.09931 1.43658 9.43932 2.29658 10.2793C3.15658 11.1193 4.2466 12.1893 5.3166 11.8693C6.3866 11.5493 7.59659 10.0393 8.15659 9.48932H8.14658Z" fill="white"/>
</mask>
<g mask="url(#mask0_289_10117)">
<path opacity="0.75" d="M-1.40234 5.64911C-1.40234 5.64911 2.72766 3.81911 2.72766 6.97911C2.72766 9.77911 -1.36234 8.27912 -1.36234 8.27912L-1.39233 5.64911H-1.40234Z" fill="#3A3A3A" stroke="#E62C2F" stroke-width="0.5" stroke-linecap="round" stroke-linejoin="round"/>
</g>
</svg>
