<svg width="9" height="24" viewBox="0 0 9 24" fill="none" xmlns="http://www.w3.org/2000/svg">
<mask id="mask0_289_10417" style="mask-type:luminance" maskUnits="userSpaceOnUse" x="0" y="0" width="9" height="12">
<path d="M1.30501 9.41978C1.55501 10.8298 2.65502 10.3998 3.19502 11.1198C3.73502 11.8398 4.87501 11.9598 5.59501 11.1198C6.31501 10.2798 7.69502 10.0598 7.81502 8.69978C7.93502 7.33978 8.77502 2.26978 7.81502 1.59978C6.85502 0.93978 1.88502 0.58978 1.31502 1.59978C0.745015 2.60978 1.02502 7.77978 1.31502 9.41978H1.30501Z" fill="white"/>
</mask>
<g mask="url(#mask0_289_10417)">
<path opacity="0.75" d="M-1.33594 7.46937C-1.33594 7.46937 2.46405 9.17938 2.46405 6.22938C2.46405 3.60938 -1.30594 5.00937 -1.30594 5.00937L-1.33594 7.46937Z" fill="#3A3A3A" stroke="#E62C2F" stroke-width="0.5" stroke-linecap="round" stroke-linejoin="round"/>
</g>
</svg>
