<svg width="9" height="26" viewBox="0 0 9 26" fill="none" xmlns="http://www.w3.org/2000/svg">
<mask id="mask0_289_10345" style="mask-type:luminance" maskUnits="userSpaceOnUse" x="0" y="0" width="9" height="13">
<path d="M1.49525 1.17014C2.49525 0.740144 3.70525 1.75014 4.15525 1.44014C4.60525 1.13014 6.85526 0.550145 7.44526 1.46014C8.03526 2.37014 8.69524 6.77014 8.23524 8.38014C7.78524 9.99014 5.30525 12.8501 4.37525 12.4401C3.44525 12.0301 1.07525 10.3401 0.905249 9.83014C0.335249 8.13014 0.0452359 1.79014 1.48524 1.17014H1.49525Z" fill="white"/>
</mask>
<g mask="url(#mask0_289_10345)">
<path opacity="0.75" d="M-2.25391 7.5899C-2.25391 7.5899 1.8761 9.4199 1.8761 6.2599C1.8761 3.4599 -2.2139 4.9599 -2.2139 4.9599L-2.2439 7.5899H-2.25391Z" fill="#3A3A3A" stroke="#E62C2F" stroke-width="0.5" stroke-linecap="round" stroke-linejoin="round"/>
</g>
</svg>
