<svg width="9" height="31" viewBox="0 0 9 31" fill="none" xmlns="http://www.w3.org/2000/svg">
<mask id="mask0_289_10393" style="mask-type:luminance" maskUnits="userSpaceOnUse" x="0" y="0" width="9" height="14">
<path d="M1.49335 10.89C0.173355 9.02 0.0333548 5.57 0.243355 4.64C0.453355 3.71 3.74336 0.729991 4.53336 0.759991C5.32336 0.789991 7.69334 1.70999 8.07334 2.59999C8.46334 3.47999 8.25335 7.66 7.55335 9.5C6.85335 11.34 4.28337 13.35 3.66337 13.03C3.04337 12.7 2.18335 11.89 1.49335 10.9V10.89Z" fill="white"/>
</mask>
<g mask="url(#mask0_289_10393)">
<path opacity="0.75" d="M-2.47656 8.3399C-2.47656 8.3399 1.65344 10.1699 1.65344 7.0099C1.65344 4.2099 -2.43655 5.7099 -2.43655 5.7099L-2.46655 8.3399H-2.47656Z" fill="#3A3A3A" stroke="#E62C2F" stroke-width="0.5" stroke-linecap="round" stroke-linejoin="round"/>
</g>
</svg>
