<svg width="10" height="26" viewBox="0 0 10 26" fill="none" xmlns="http://www.w3.org/2000/svg">
<mask id="mask0_289_10405" style="mask-type:luminance" maskUnits="userSpaceOnUse" x="0" y="0" width="10" height="12">
<path d="M1.91666 9.48932C1.09666 8.66932 0.596663 6.17931 0.666663 4.78931C0.736663 3.40931 1.23664 3.31932 2.36664 2.38932C3.49664 1.45932 4.90664 0.389318 5.92664 1.06932C8.53664 2.80932 10.1766 1.75931 9.01664 5.96931C8.42664 8.09931 8.62664 9.43932 7.76664 10.2793C6.90664 11.1193 5.81665 12.1893 4.74665 11.8693C3.67665 11.5493 2.46665 10.0393 1.90665 9.48932H1.91666Z" fill="white"/>
</mask>
<g mask="url(#mask0_289_10405)">
<path opacity="0.75" d="M-2.11328 7.5694C-2.11328 7.5694 2.01669 9.3994 2.01669 6.2394C2.01669 3.4394 -2.0733 4.93939 -2.0733 4.93939L-2.1033 7.5694H-2.11328Z" fill="#3A3A3A" stroke="#E62C2F" stroke-width="0.5" stroke-linecap="round" stroke-linejoin="round"/>
</g>
</svg>
