<svg width="11" height="25" viewBox="0 0 11 25" fill="none" xmlns="http://www.w3.org/2000/svg">
<mask id="mask0_289_10333" style="mask-type:luminance" maskUnits="userSpaceOnUse" x="0" y="0" width="11" height="12">
<path d="M1.05296 7.30001C0.632955 5.51001 1.09297 3.52001 2.41297 2.69001C3.73297 1.86001 5.95297 0.310014 7.03297 0.730014C8.11297 1.15001 8.24296 1.65002 8.96296 1.96002C9.68296 2.27002 10.843 3.74001 10.743 5.72001C10.643 7.70001 8.99295 9.10002 8.64295 9.89002C8.29295 10.68 5.74294 13.05 4.07294 11.43C2.40294 9.81002 1.79295 10.46 1.04295 7.30001H1.05296Z" fill="white"/>
</mask>
<g mask="url(#mask0_289_10333)">
<path opacity="0.75" d="M-1.60547 7.71978C-1.60547 7.71978 2.52454 9.54979 2.52454 6.38979C2.52454 3.58979 -1.56546 5.08978 -1.56546 5.08978L-1.59546 7.71978H-1.60547Z" fill="#3A3A3A" stroke="#E62C2F" stroke-width="0.5" stroke-linecap="round" stroke-linejoin="round"/>
</g>
</svg>
