<svg width="15" height="25" viewBox="0 0 15 25" fill="none" xmlns="http://www.w3.org/2000/svg">
<mask id="mask0_289_10381" style="mask-type:luminance" maskUnits="userSpaceOnUse" x="0" y="0" width="15" height="10">
<path d="M1.39495 8.56938C0.744945 6.70938 0.294959 3.57937 1.92496 2.46937C6.24496 -0.480631 7.07495 1.24937 8.61495 0.959375C9.76495 0.749375 12.095 0.259376 13.525 1.24938C14.9549 2.23938 14.535 6.51937 13.735 7.85937C12.935 9.19937 11.895 9.36937 10.595 9.28937C9.29496 9.20937 7.70495 10.2994 6.02495 9.78937C4.34495 9.28937 1.91495 10.0294 1.40495 8.56938H1.39495Z" fill="white"/>
</mask>
<g mask="url(#mask0_289_10381)">
<path opacity="0.75" d="M-1.57375 7.1594C-1.57375 7.1594 2.28625 8.6894 2.31625 5.5294C2.34625 2.7294 -1.59375 3.8794 -1.59375 3.8794V7.1594H-1.57375Z" fill="#3A3A3A" stroke="#E62C2F" stroke-width="0.5" stroke-linecap="round" stroke-linejoin="round"/>
</g>
</svg>
