<svg width="13" height="24" viewBox="0 0 13 24" fill="none" xmlns="http://www.w3.org/2000/svg">
<mask id="mask0_289_10369" style="mask-type:luminance" maskUnits="userSpaceOnUse" x="0" y="0" width="13" height="10">
<path d="M1.26325 8.50916C0.383255 6.67916 -0.0967501 3.05916 2.13325 1.91916C4.36325 0.789159 6.03325 1.98916 7.10325 1.31916C8.17325 0.649161 11.3932 -0.180839 12.0532 2.49916C12.7032 5.17916 12.1833 7.39916 11.8733 8.16916C11.5633 8.92916 10.6132 8.67916 9.80325 8.50916C8.99325 8.34916 7.54326 9.90916 6.70326 9.91916C4.63326 9.93916 3.95325 8.07916 2.96325 8.16916C1.97325 8.25916 1.70324 9.43916 1.25324 8.50916H1.26325Z" fill="white"/>
</mask>
<g mask="url(#mask0_289_10369)">
<path opacity="0.75" d="M-2.31641 6.90924C-2.31641 6.90924 1.8136 8.73924 1.8136 5.57924C1.8136 2.77924 -2.27641 4.27924 -2.27641 4.27924L-2.30641 6.90924H-2.31641Z" fill="#3A3A3A" stroke="#E62C2F" stroke-width="0.5" stroke-linecap="round" stroke-linejoin="round"/>
</g>
</svg>
