<svg width="12" height="21" viewBox="0 0 12 21" fill="none" xmlns="http://www.w3.org/2000/svg">
<mask id="mask0_289_10357" style="mask-type:luminance" maskUnits="userSpaceOnUse" x="0" y="0" width="12" height="9">
<path d="M2.60243 8.15987C1.45243 7.33987 0.642431 5.36988 1.01243 3.27988C1.38243 1.19988 2.41243 1.73988 2.95243 1.63988C3.49243 1.53988 4.42243 0.619878 5.79243 0.889878C7.17243 1.16988 7.69243 0.999878 8.99243 0.709878C10.2924 0.409878 11.5724 1.24987 11.6124 3.10987C11.6624 4.96987 11.6124 6.53987 10.7824 7.22987C9.95244 7.91987 7.44242 7.02987 6.61242 7.22987C5.78242 7.42987 4.36243 9.42987 2.59243 8.15987H2.60243Z" fill="white"/>
</mask>
<g mask="url(#mask0_289_10357)">
<path opacity="0.75" d="M-0.986084 6.18998C-0.986084 6.18998 2.22391 7.73998 2.22391 5.05998C2.22391 2.68998 -0.96608 3.95998 -0.96608 3.95998L-0.996094 6.18998H-0.986084Z" fill="#3A3A3A" stroke="#E62C2F" stroke-width="0.5" stroke-linecap="round" stroke-linejoin="round"/>
</g>
</svg>
