<svg width="6" height="19" viewBox="0 0 6 19" fill="none" xmlns="http://www.w3.org/2000/svg">
<mask id="mask0_289_10467" style="mask-type:luminance" maskUnits="userSpaceOnUse" x="0" y="11" width="6" height="8">
<path d="M1.34592 12.5497C0.355919 13.9397 0.145921 15.4097 0.535921 16.9397C0.665921 17.4697 1.10592 17.8797 1.64592 17.9897C2.54592 18.1697 3.76592 18.0797 4.95592 18.0097C5.99592 18.0097 5.98592 17.2897 5.86592 16.5797C5.76592 15.4397 5.54592 14.3297 5.19592 13.2497C5.10592 12.9597 4.95592 12.6997 4.75592 12.4697C4.58592 12.2697 4.36593 12.1097 4.12593 11.9897C3.20593 11.5597 2.28592 11.7497 1.35592 12.5497H1.34592Z" fill="white"/>
</mask>
<g mask="url(#mask0_289_10467)">
<path opacity="0.75" d="M-0.855469 14.4994C-0.855469 14.4994 1.21453 13.4994 1.21453 15.2294C1.21453 16.7594 -0.835472 15.9394 -0.835472 15.9394L-0.855469 14.5094V14.4994Z" fill="#3A3A3A" stroke="#E62C2F" stroke-width="0.5" stroke-linecap="round" stroke-linejoin="round"/>
</g>
</svg>
