<svg width="14" height="20" viewBox="0 0 14 20" fill="none" xmlns="http://www.w3.org/2000/svg">
<mask id="mask0_289_10441" style="mask-type:luminance" maskUnits="userSpaceOnUse" x="2" y="11" width="12" height="9">
<path d="M11.5144 13.2494C11.6444 13.3994 11.7745 13.5494 11.9045 13.7194C13.0145 15.3394 13.6745 16.8794 12.3045 18.0994C11.3545 18.8294 9.96445 19.0294 8.42445 19.0494C8.15445 19.0494 7.92445 18.8994 7.78445 18.6794C7.50445 18.2494 6.97445 18.4494 6.34445 18.8794C6.15445 19.0094 5.93445 19.0894 5.70445 19.0994C5.16445 19.1294 4.70445 19.0194 4.28445 18.7894C3.35445 18.2894 2.85445 17.2494 2.92445 16.1994C2.94445 15.7894 3.01445 15.3894 3.11445 14.9994C3.30445 14.1994 3.77445 13.4994 4.43445 13.0094C7.12445 11.0494 9.50445 11.0094 11.5144 13.2594V13.2494Z" fill="white"/>
</mask>
<g mask="url(#mask0_289_10441)">
<path opacity="0.75" d="M1.00391 14.9994C1.00391 14.9994 4.06391 13.5194 4.06391 16.0694C4.06391 18.3294 1.03391 17.1194 1.03391 17.1194L1.00391 14.9994Z" fill="#3A3A3A" stroke="#E62C2F" stroke-width="0.5" stroke-linecap="round" stroke-linejoin="round"/>
</g>
</svg>
