<svg width="8" height="21" viewBox="0 0 8 21" fill="none" xmlns="http://www.w3.org/2000/svg">
<mask id="mask0_289_10037" style="mask-type:luminance" maskUnits="userSpaceOnUse" x="0" y="13" width="8" height="8">
<path d="M1.32548 14.3191C1.15548 14.5391 1.01547 14.7791 0.915473 15.0391C-0.064527 17.3991 -0.604525 19.4791 1.31547 20.0491C3.15547 20.1091 4.99548 20.1691 5.90548 19.8291C7.08548 18.9591 7.27548 17.5791 6.87548 15.9091C6.77548 15.4891 6.60548 15.0791 6.37548 14.7191C5.91548 13.9891 5.20547 13.4391 4.34547 13.2391C3.96547 13.1491 3.58548 13.1291 3.21548 13.1791C2.45548 13.2891 1.78548 13.7191 1.32548 14.3191Z" fill="white"/>
</mask>
<g mask="url(#mask0_289_10037)">
<path opacity="0.75" d="M-0.746094 17.559C-0.746094 17.559 1.32391 18.629 1.32391 16.779C1.32391 15.139 -0.726097 16.019 -0.726097 16.019L-0.746094 17.559Z" fill="#3A3A3A" stroke="#E62C2F" stroke-width="0.5" stroke-linecap="round" stroke-linejoin="round"/>
</g>
</svg>
