<svg width="7" height="19" viewBox="0 0 7 19" fill="none" xmlns="http://www.w3.org/2000/svg">
<mask id="mask0_289_10029" style="mask-type:luminance" maskUnits="userSpaceOnUse" x="0" y="11" width="7" height="8">
<path d="M5.52399 12.5399C6.51399 13.9299 6.72399 15.3999 6.33399 16.9299C6.20399 17.4599 5.76399 17.8699 5.22399 17.9799C4.32399 18.1599 3.10399 18.0699 1.91399 17.9999C0.873994 17.9999 0.88399 17.2799 1.00399 16.5699C1.10399 15.4299 1.324 14.3199 1.674 13.2399C1.764 12.9499 1.91399 12.6899 2.11399 12.4599C2.28399 12.2599 2.504 12.0999 2.744 11.9799C3.664 11.5499 4.584 11.7399 5.514 12.5399H5.52399Z" fill="white"/>
</mask>
<g mask="url(#mask0_289_10029)">
<path opacity="0.75" d="M-0.0859375 15.8896C-0.0859375 15.8896 1.95406 16.9396 1.99406 15.2096C2.03406 13.6796 -0.0359344 14.4496 -0.0359344 14.4496L-0.0859375 15.8796V15.8896Z" fill="#3A3A3A" stroke="#E62C2F" stroke-width="0.5" stroke-linecap="round" stroke-linejoin="round"/>
</g>
</svg>
