<svg width="11" height="20" viewBox="0 0 11 20" fill="none" xmlns="http://www.w3.org/2000/svg">
<mask id="mask0_289_10012" style="mask-type:luminance" maskUnits="userSpaceOnUse" x="1" y="12" width="8" height="8">
<path d="M2.70451 13.2594C2.49451 13.4794 2.2845 13.7394 2.0845 14.0194C1.4245 14.8794 1.01451 15.9794 1.04451 17.4894C1.09451 18.3594 1.44451 18.7694 2.02451 18.8594C2.42451 18.9194 2.84451 18.7994 3.16451 18.5494C3.49451 18.2894 3.84451 18.3794 4.20451 18.6394C4.56451 18.8994 4.97451 19.0694 5.41451 19.0694C6.23451 19.0694 7.02451 18.9694 7.81451 18.7794C8.44451 18.7094 8.83451 18.2794 8.85451 17.3494C9.03451 16.3194 8.8845 15.2994 8.3945 14.2794C8.3045 14.0994 8.18451 13.9294 8.04451 13.7794C8.02451 13.7594 8.01451 13.7394 7.99451 13.7294C6.17451 11.7694 4.4045 11.4494 2.7245 13.2494L2.70451 13.2594Z" fill="white"/>
</mask>
<g mask="url(#mask0_289_10012)">
<path opacity="0.75" d="M-0.484375 16.6894C-0.484375 16.6894 2.28563 18.0294 2.28563 15.7194C2.28563 13.6794 -0.454376 14.7694 -0.454376 14.7694L-0.47438 16.6894H-0.484375Z" fill="#3A3A3A" stroke="#E62C2F" stroke-width="0.5" stroke-linecap="round" stroke-linejoin="round"/>
</g>
</svg>
