<svg width="14" height="20" viewBox="0 0 14 20" fill="none" xmlns="http://www.w3.org/2000/svg">
<mask id="mask0_289_10003" style="mask-type:luminance" maskUnits="userSpaceOnUse" x="0" y="11" width="11" height="9">
<path d="M2.35368 13.2397C2.22368 13.3897 2.09369 13.5397 1.96369 13.7097C0.853685 15.3297 0.193692 16.8697 1.56369 18.0897C2.51369 18.8197 3.90368 19.0197 5.44368 19.0397C5.71368 19.0397 5.94368 18.8897 6.08368 18.6697C6.36368 18.2397 6.89368 18.4397 7.52368 18.8697C7.71368 18.9997 7.93368 19.0797 8.16368 19.0897C8.70368 19.1197 9.16368 19.0097 9.58368 18.7797C10.5137 18.2797 11.0137 17.2397 10.9437 16.1897C10.9237 15.7797 10.8537 15.3797 10.7537 14.9897C10.5637 14.1897 10.0937 13.4897 9.43369 12.9997C6.74369 11.0397 4.36368 10.9997 2.35368 13.2497V13.2397Z" fill="white"/>
</mask>
<g mask="url(#mask0_289_10003)">
<path opacity="0.75" d="M-1.01562 16.59C-1.01562 16.59 2.04437 18.07 2.04437 15.52C2.04437 13.26 -0.985626 14.47 -0.985626 14.47L-1.01562 16.59Z" fill="#3A3A3A" stroke="#E62C2F" stroke-width="0.5" stroke-linecap="round" stroke-linejoin="round"/>
</g>
</svg>
