<svg width="5" height="18" viewBox="0 0 5 18" fill="none" xmlns="http://www.w3.org/2000/svg">
<mask id="mask0_289_9953" style="mask-type:luminance" maskUnits="userSpaceOnUse" x="0" y="0" width="5" height="9">
<path d="M4.12391 7.58974C4.33391 7.18974 4.4339 6.73974 4.4539 6.28974L4.58391 2.81975C4.63391 2.01975 4.30391 1.61975 3.83391 1.31975C3.12391 0.809746 2.1039 0.579743 1.2439 0.629743C0.643902 0.819743 0.623905 0.679745 0.543905 1.20975C0.503905 1.45975 0.493907 1.70975 0.513907 1.95975C0.623907 3.55975 0.783907 5.02974 0.943907 6.39974C0.983907 6.76974 1.1239 7.10974 1.3439 7.40974C1.3639 7.43974 1.3939 7.46974 1.4139 7.50974C2.4439 8.77974 3.3039 8.87974 3.9939 7.83974C4.0439 7.76974 4.0939 7.68974 4.1339 7.60974" fill="white"/>
</mask>
<g mask="url(#mask0_289_9953)">
<path opacity="0.75" d="M-0.525154 5.19948C-0.525154 5.19948 1.51485 6.18948 1.51485 4.47948C1.51485 2.96948 -0.51516 3.77948 -0.51516 3.77948L-0.535156 5.19948H-0.525154Z" fill="#3A3A3A" stroke="#E62C2F" stroke-width="0.5" stroke-linecap="round" stroke-linejoin="round"/>
</g>
</svg>
