<svg width="5" height="18" viewBox="0 0 5 18" fill="none" xmlns="http://www.w3.org/2000/svg">
<mask id="mask0_289_9994" style="mask-type:luminance" maskUnits="userSpaceOnUse" x="0" y="0" width="5" height="9">
<path d="M0.675941 7.58974C0.465941 7.18974 0.36594 6.73974 0.34594 6.28974L0.215942 2.81975C0.165942 2.01975 0.495942 1.61975 0.965942 1.31975C1.67594 0.809746 2.69594 0.579743 3.55594 0.629743C4.15594 0.819743 4.17594 0.679745 4.25594 1.20975C4.29594 1.45975 4.30594 1.70975 4.28594 1.95975C4.17594 3.55975 4.01594 5.02974 3.85594 6.39974C3.81594 6.76974 3.67594 7.10974 3.45594 7.40974C3.43594 7.43974 3.40594 7.46974 3.38594 7.50974C2.35594 8.77974 1.49594 8.87974 0.805939 7.83974C0.755939 7.76974 0.705939 7.68974 0.665939 7.60974" fill="white"/>
</mask>
<g mask="url(#mask0_289_9994)">
<path opacity="0.75" d="M-0.923592 4.1493C-0.923592 4.1493 1.11641 3.1593 1.11641 4.8693C1.11641 6.3793 -0.913589 5.56931 -0.913589 5.56931L-0.933594 4.1493H-0.923592Z" fill="#3A3A3A" stroke="#E62C2F" stroke-width="0.5" stroke-linecap="round" stroke-linejoin="round"/>
</g>
</svg>
