<svg width="6" height="19" viewBox="0 0 6 19" fill="none" xmlns="http://www.w3.org/2000/svg">
<mask id="mask0_289_9986" style="mask-type:luminance" maskUnits="userSpaceOnUse" x="0" y="0" width="6" height="9">
<path d="M4.865 6.97938C4.765 7.19938 4.62499 7.40938 4.45499 7.57938C3.74499 8.28938 3.03499 8.52938 2.30499 8.32938C1.82499 8.19938 1.44499 7.87938 1.20499 7.46938C1.04499 7.19938 0.944995 6.88938 0.924995 6.56938L0.625 2.97938C0.675 2.43938 0.804994 1.96938 1.02499 1.56938C1.26499 1.13938 1.725 0.859377 2.225 0.829377L4.695 0.669381C5.325 0.639381 5.525 0.799377 5.495 1.57938C5.495 1.77938 5.47499 1.97938 5.48499 2.17938C5.52499 3.76938 5.405 5.17938 5.045 6.30938C5.025 6.53938 4.965 6.76938 4.865 6.97938Z" fill="white"/>
</mask>
<g mask="url(#mask0_289_9986)">
<path opacity="0.75" d="M-0.415779 4.13907C-0.415779 4.13907 1.65422 3.13906 1.65422 4.86906C1.65422 6.39906 -0.405785 5.57906 -0.405785 5.57906L-0.425781 4.13907H-0.415779Z" fill="#3A3A3A" stroke="#E62C2F" stroke-width="0.5" stroke-linecap="round" stroke-linejoin="round"/>
</g>
</svg>
