<svg width="6" height="23" viewBox="0 0 6 23" fill="none" xmlns="http://www.w3.org/2000/svg">
<mask id="mask0_289_9978" style="mask-type:luminance" maskUnits="userSpaceOnUse" x="0" y="0" width="7" height="11">
<path d="M1.1039 8.47963C0.353905 7.54963 0.00390625 6.26963 0.00390625 4.69963C0.00390625 4.16963 0.153906 3.64963 0.413906 3.18963C2.35391 -0.11037 4.1439 -0.380368 5.7439 3.15963C6.2139 5.25963 6.05391 7.03963 5.21391 8.46963C5.16391 8.55963 5.10391 8.64963 5.05391 8.72963C3.70391 10.8496 2.38391 10.8696 1.09391 8.46963L1.1039 8.47963Z" fill="white"/>
</mask>
<g mask="url(#mask0_289_9978)">
<path opacity="0.75" d="M-1.24609 4.75005C-1.24609 4.75005 0.903904 3.71005 0.903904 5.51005C0.903904 7.10005 -1.22609 6.25005 -1.22609 6.25005L-1.24609 4.75005Z" fill="#3A3A3A" stroke="#E62C2F" stroke-width="0.5" stroke-linecap="round" stroke-linejoin="round"/>
</g>
</svg>
