<svg width="12" height="19" viewBox="0 0 12 19" fill="none" xmlns="http://www.w3.org/2000/svg">
<mask id="mask0_289_9970" style="mask-type:luminance" maskUnits="userSpaceOnUse" x="0" y="0" width="10" height="9">
<path d="M1.84343 7.42977C1.53343 7.11977 1.27342 6.75977 1.10342 6.34977C0.673424 5.30977 0.553426 4.14977 0.663426 2.88977C0.713426 2.33977 0.913427 1.79976 1.29343 1.39976C2.00343 0.649761 2.94342 0.639762 4.06342 1.18976C4.62342 1.65976 5.33343 1.45976 6.11343 0.899761C7.32343 0.429761 8.34342 0.529761 9.17342 1.18976C9.99342 2.19976 10.0334 3.61976 9.32343 5.44976C9.05343 6.13976 8.68342 6.77976 8.19342 7.30976C7.93342 7.59976 7.63343 7.85976 7.30343 8.07976C5.71343 9.15976 4.03343 9.04976 2.27343 7.78976C2.11343 7.67976 1.97342 7.55976 1.83342 7.41976L1.84343 7.42977Z" fill="white"/>
</mask>
<g mask="url(#mask0_289_9970)">
<path opacity="0.75" d="M-1.09766 3.78987C-1.09766 3.78987 1.71235 2.42988 1.71235 4.77988C1.71235 6.85988 -1.07766 5.74988 -1.07766 5.74988L-1.09766 3.79987V3.78987Z" fill="#3A3A3A" stroke="#E62C2F" stroke-width="0.5" stroke-linecap="round" stroke-linejoin="round"/>
</g>
</svg>
