<svg width="10" height="28" viewBox="0 0 10 28" fill="none" xmlns="http://www.w3.org/2000/svg">
<path opacity="0.4" d="M5.24905 22.8302C5.91732 22.8302 6.45905 22.2884 6.45905 21.6202C6.45905 20.9519 5.91732 20.4102 5.24905 20.4102C4.58079 20.4102 4.03906 20.9519 4.03906 21.6202C4.03906 22.2884 4.58079 22.8302 5.24905 22.8302Z" fill="#E62C2F" stroke="#E62C2F" stroke-width="0.2" stroke-linecap="round" stroke-linejoin="round"/>
<path opacity="0.4" d="M5.24905 22.8302C5.91732 22.8302 6.45905 22.2884 6.45905 21.6202C6.45905 20.9519 5.91732 20.4102 5.24905 20.4102C4.58079 20.4102 4.03906 20.9519 4.03906 21.6202C4.03906 22.2884 4.58079 22.8302 5.24905 22.8302Z" stroke="#E62C2F" stroke-width="0.2" stroke-linecap="round" stroke-linejoin="round"/>
<path opacity="0.7" d="M5.24719 22.5002C5.7332 22.5002 6.1272 22.1062 6.1272 21.6202C6.1272 21.1342 5.7332 20.7402 5.24719 20.7402C4.76118 20.7402 4.36719 21.1342 4.36719 21.6202C4.36719 22.1062 4.76118 22.5002 5.24719 22.5002Z" fill="#E62C2F" stroke="#E62C2F" stroke-width="0.2" stroke-linecap="round" stroke-linejoin="round"/>
<path opacity="0.8" d="M5.24719 22.5002C5.7332 22.5002 6.1272 22.1062 6.1272 21.6202C6.1272 21.1342 5.7332 20.7402 5.24719 20.7402C4.76118 20.7402 4.36719 21.1342 4.36719 21.6202C4.36719 22.1062 4.76118 22.5002 5.24719 22.5002Z" stroke="#E62C2F" stroke-width="0.2" stroke-linecap="round" stroke-linejoin="round"/>
</svg>
