<svg width="11" height="29" viewBox="0 0 11 29" fill="none" xmlns="http://www.w3.org/2000/svg">
<path opacity="0.4" d="M5.17874 23.9395C5.84701 23.9395 6.38876 23.3978 6.38876 22.7295C6.38876 22.0613 5.84701 21.5195 5.17874 21.5195C4.51048 21.5195 3.96875 22.0613 3.96875 22.7295C3.96875 23.3978 4.51048 23.9395 5.17874 23.9395Z" fill="#E62C2F" stroke="#E62C2F" stroke-width="0.2" stroke-linecap="round" stroke-linejoin="round"/>
<path opacity="0.4" d="M5.17874 23.9395C5.84701 23.9395 6.38876 23.3978 6.38876 22.7295C6.38876 22.0613 5.84701 21.5195 5.17874 21.5195C4.51048 21.5195 3.96875 22.0613 3.96875 22.7295C3.96875 23.3978 4.51048 23.9395 5.17874 23.9395Z" stroke="#E62C2F" stroke-width="0.2" stroke-linecap="round" stroke-linejoin="round"/>
<path opacity="0.7" d="M5.17688 23.6096C5.66289 23.6096 6.05688 23.2156 6.05688 22.7296C6.05688 22.2436 5.66289 21.8496 5.17688 21.8496C4.69087 21.8496 4.29688 22.2436 4.29688 22.7296C4.29688 23.2156 4.69087 23.6096 5.17688 23.6096Z" fill="#E62C2F" stroke="#E62C2F" stroke-width="0.2" stroke-linecap="round" stroke-linejoin="round"/>
<path opacity="0.8" d="M5.17688 23.6096C5.66289 23.6096 6.05688 23.2156 6.05688 22.7296C6.05688 22.2436 5.66289 21.8496 5.17688 21.8496C4.69087 21.8496 4.29688 22.2436 4.29688 22.7296C4.29688 23.2156 4.69087 23.6096 5.17688 23.6096Z" stroke="#E62C2F" stroke-width="0.2" stroke-linecap="round" stroke-linejoin="round"/>
</svg>
