<svg width="10" height="28" viewBox="0 0 10 28" fill="none" xmlns="http://www.w3.org/2000/svg">
<path opacity="0.4" d="M4.9014 23.2803C5.56966 23.2803 6.11139 22.7386 6.11139 22.0704C6.11139 21.4021 5.56966 20.8604 4.9014 20.8604C4.23313 20.8604 3.69141 21.4021 3.69141 22.0704C3.69141 22.7386 4.23313 23.2803 4.9014 23.2803Z" fill="#E62C2F" stroke="#E62C2F" stroke-width="0.2" stroke-linecap="round" stroke-linejoin="round"/>
<path opacity="0.4" d="M4.9014 23.2803C5.56966 23.2803 6.11139 22.7386 6.11139 22.0704C6.11139 21.4021 5.56966 20.8604 4.9014 20.8604C4.23313 20.8604 3.69141 21.4021 3.69141 22.0704C3.69141 22.7386 4.23313 23.2803 4.9014 23.2803Z" stroke="#E62C2F" stroke-width="0.2" stroke-linecap="round" stroke-linejoin="round"/>
<path opacity="0.7" d="M4.89954 22.9504C5.38555 22.9504 5.77954 22.5564 5.77954 22.0704C5.77954 21.5844 5.38555 21.1904 4.89954 21.1904C4.41353 21.1904 4.01953 21.5844 4.01953 22.0704C4.01953 22.5564 4.41353 22.9504 4.89954 22.9504Z" fill="#E62C2F" stroke="#E62C2F" stroke-width="0.2" stroke-linecap="round" stroke-linejoin="round"/>
<path opacity="0.8" d="M4.89954 22.9504C5.38555 22.9504 5.77954 22.5564 5.77954 22.0704C5.77954 21.5844 5.38555 21.1904 4.89954 21.1904C4.41353 21.1904 4.01953 21.5844 4.01953 22.0704C4.01953 22.5564 4.41353 22.9504 4.89954 22.9504Z" stroke="#E62C2F" stroke-width="0.2" stroke-linecap="round" stroke-linejoin="round"/>
</svg>
