<svg width="9" height="27" viewBox="0 0 9 27" fill="none" xmlns="http://www.w3.org/2000/svg">
<path opacity="0.4" d="M4.17096 22.0597C4.83922 22.0597 5.38095 21.5179 5.38095 20.8496C5.38095 20.1814 4.83922 19.6396 4.17096 19.6396C3.50269 19.6396 2.96094 20.1814 2.96094 20.8496C2.96094 21.5179 3.50269 22.0597 4.17096 22.0597Z" fill="#E62C2F" stroke="#E62C2F" stroke-width="0.2" stroke-linecap="round" stroke-linejoin="round"/>
<path opacity="0.4" d="M4.17096 22.0597C4.83922 22.0597 5.38095 21.5179 5.38095 20.8496C5.38095 20.1814 4.83922 19.6396 4.17096 19.6396C3.50269 19.6396 2.96094 20.1814 2.96094 20.8496C2.96094 21.5179 3.50269 22.0597 4.17096 22.0597Z" stroke="#E62C2F" stroke-width="0.2" stroke-linecap="round" stroke-linejoin="round"/>
<path opacity="0.7" d="M4.16907 21.7297C4.65508 21.7297 5.04904 21.3357 5.04904 20.8497C5.04904 20.3637 4.65508 19.9697 4.16907 19.9697C3.68306 19.9697 3.28906 20.3637 3.28906 20.8497C3.28906 21.3357 3.68306 21.7297 4.16907 21.7297Z" fill="#E62C2F" stroke="#E62C2F" stroke-width="0.2" stroke-linecap="round" stroke-linejoin="round"/>
<path opacity="0.8" d="M4.16907 21.7297C4.65508 21.7297 5.04904 21.3357 5.04904 20.8497C5.04904 20.3637 4.65508 19.9697 4.16907 19.9697C3.68306 19.9697 3.28906 20.3637 3.28906 20.8497C3.28906 21.3357 3.68306 21.7297 4.16907 21.7297Z" stroke="#E62C2F" stroke-width="0.2" stroke-linecap="round" stroke-linejoin="round"/>
</svg>
