<svg width="10" height="33" viewBox="0 0 10 33" fill="none" xmlns="http://www.w3.org/2000/svg">
<path opacity="0.4" d="M4.97955 27.67C5.64782 27.67 6.18954 27.1283 6.18954 26.46C6.18954 25.7917 5.64782 25.25 4.97955 25.25C4.31129 25.25 3.76953 25.7917 3.76953 26.46C3.76953 27.1283 4.31129 27.67 4.97955 27.67Z" fill="#E62C2F" stroke="#E62C2F" stroke-width="0.2" stroke-linecap="round" stroke-linejoin="round"/>
<path opacity="0.4" d="M4.97955 27.67C5.64782 27.67 6.18954 27.1283 6.18954 26.46C6.18954 25.7917 5.64782 25.25 4.97955 25.25C4.31129 25.25 3.76953 25.7917 3.76953 26.46C3.76953 27.1283 4.31129 27.67 4.97955 27.67Z" stroke="#E62C2F" stroke-width="0.2" stroke-linecap="round" stroke-linejoin="round"/>
<path opacity="0.7" d="M4.97766 27.3401C5.46367 27.3401 5.85764 26.9461 5.85764 26.4601C5.85764 25.9741 5.46367 25.5801 4.97766 25.5801C4.49165 25.5801 4.09766 25.9741 4.09766 26.4601C4.09766 26.9461 4.49165 27.3401 4.97766 27.3401Z" fill="#E62C2F" stroke="#E62C2F" stroke-width="0.2" stroke-linecap="round" stroke-linejoin="round"/>
<path opacity="0.8" d="M4.97766 27.3401C5.46367 27.3401 5.85764 26.9461 5.85764 26.4601C5.85764 25.9741 5.46367 25.5801 4.97766 25.5801C4.49165 25.5801 4.09766 25.9741 4.09766 26.4601C4.09766 26.9461 4.49165 27.3401 4.97766 27.3401Z" stroke="#E62C2F" stroke-width="0.2" stroke-linecap="round" stroke-linejoin="round"/>
</svg>
