<svg width="13" height="28" viewBox="0 0 13 28" fill="none" xmlns="http://www.w3.org/2000/svg">
<path opacity="0.4" d="M6.28815 22.7901C6.95641 22.7901 7.49814 22.2484 7.49814 21.5801C7.49814 20.9119 6.95641 20.3701 6.28815 20.3701C5.61988 20.3701 5.07812 20.9119 5.07812 21.5801C5.07812 22.2484 5.61988 22.7901 6.28815 22.7901Z" fill="#E62C2F" stroke="#E62C2F" stroke-width="0.2" stroke-linecap="round" stroke-linejoin="round"/>
<path opacity="0.4" d="M6.28815 22.7901C6.95641 22.7901 7.49814 22.2484 7.49814 21.5801C7.49814 20.9119 6.95641 20.3701 6.28815 20.3701C5.61988 20.3701 5.07812 20.9119 5.07812 21.5801C5.07812 22.2484 5.61988 22.7901 6.28815 22.7901Z" stroke="#E62C2F" stroke-width="0.2" stroke-linecap="round" stroke-linejoin="round"/>
<path opacity="0.7" d="M6.28625 22.4602C6.77227 22.4602 7.16626 22.0662 7.16626 21.5802C7.16626 21.0942 6.77227 20.7002 6.28625 20.7002C5.80024 20.7002 5.40625 21.0942 5.40625 21.5802C5.40625 22.0662 5.80024 22.4602 6.28625 22.4602Z" fill="#E62C2F" stroke="#E62C2F" stroke-width="0.2" stroke-linecap="round" stroke-linejoin="round"/>
<path opacity="0.8" d="M6.28625 22.4602C6.77227 22.4602 7.16626 22.0662 7.16626 21.5802C7.16626 21.0942 6.77227 20.7002 6.28625 20.7002C5.80024 20.7002 5.40625 21.0942 5.40625 21.5802C5.40625 22.0662 5.80024 22.4602 6.28625 22.4602Z" stroke="#E62C2F" stroke-width="0.2" stroke-linecap="round" stroke-linejoin="round"/>
</svg>
