<svg width="13" height="25" viewBox="0 0 13 25" fill="none" xmlns="http://www.w3.org/2000/svg">
<path opacity="0.4" d="M6.38971 19.7901C7.05797 19.7901 7.5997 19.2484 7.5997 18.5801C7.5997 17.9119 7.05797 17.3701 6.38971 17.3701C5.72144 17.3701 5.17969 17.9119 5.17969 18.5801C5.17969 19.2484 5.72144 19.7901 6.38971 19.7901Z" fill="#E62C2F" stroke="#E62C2F" stroke-width="0.2" stroke-linecap="round" stroke-linejoin="round"/>
<path opacity="0.4" d="M6.38971 19.7901C7.05797 19.7901 7.5997 19.2484 7.5997 18.5801C7.5997 17.9119 7.05797 17.3701 6.38971 17.3701C5.72144 17.3701 5.17969 17.9119 5.17969 18.5801C5.17969 19.2484 5.72144 19.7901 6.38971 19.7901Z" stroke="#E62C2F" stroke-width="0.2" stroke-linecap="round" stroke-linejoin="round"/>
<path opacity="0.7" d="M6.38782 19.4602C6.87383 19.4602 7.26779 19.0662 7.26779 18.5802C7.26779 18.0942 6.87383 17.7002 6.38782 17.7002C5.90181 17.7002 5.50781 18.0942 5.50781 18.5802C5.50781 19.0662 5.90181 19.4602 6.38782 19.4602Z" fill="#E62C2F" stroke="#E62C2F" stroke-width="0.2" stroke-linecap="round" stroke-linejoin="round"/>
<path opacity="0.8" d="M6.38782 19.4602C6.87383 19.4602 7.26779 19.0662 7.26779 18.5802C7.26779 18.0942 6.87383 17.7002 6.38782 17.7002C5.90181 17.7002 5.50781 18.0942 5.50781 18.5802C5.50781 19.0662 5.90181 19.4602 6.38782 19.4602Z" stroke="#E62C2F" stroke-width="0.2" stroke-linecap="round" stroke-linejoin="round"/>
</svg>
