<svg width="8" height="23" viewBox="0 0 8 23" fill="none" xmlns="http://www.w3.org/2000/svg">
<path opacity="0.4" d="M4.10062 6.40047C4.76888 6.40047 5.31061 5.85873 5.31061 5.19047C5.31061 4.5222 4.76888 3.98047 4.10062 3.98047C3.43235 3.98047 2.89062 4.5222 2.89062 5.19047C2.89062 5.85873 3.43235 6.40047 4.10062 6.40047Z" fill="#E62C2F" stroke="#E62C2F" stroke-width="0.2" stroke-linecap="round" stroke-linejoin="round"/>
<path opacity="0.4" d="M4.10062 6.40047C4.76888 6.40047 5.31061 5.85873 5.31061 5.19047C5.31061 4.5222 4.76888 3.98047 4.10062 3.98047C3.43235 3.98047 2.89062 4.5222 2.89062 5.19047C2.89062 5.85873 3.43235 6.40047 4.10062 6.40047Z" stroke="#E62C2F" stroke-width="0.2" stroke-linecap="round" stroke-linejoin="round"/>
<path opacity="0.7" d="M4.09875 6.07055C4.58477 6.07055 4.97876 5.67656 4.97876 5.19055C4.97876 4.70454 4.58477 4.31055 4.09875 4.31055C3.61274 4.31055 3.21875 4.70454 3.21875 5.19055C3.21875 5.67656 3.61274 6.07055 4.09875 6.07055Z" fill="#E62C2F" stroke="#E62C2F" stroke-width="0.2" stroke-linecap="round" stroke-linejoin="round"/>
<path opacity="0.8" d="M4.09875 6.07055C4.58477 6.07055 4.97876 5.67656 4.97876 5.19055C4.97876 4.70454 4.58477 4.31055 4.09875 4.31055C3.61274 4.31055 3.21875 4.70454 3.21875 5.19055C3.21875 5.67656 3.61274 6.07055 4.09875 6.07055Z" stroke="#E62C2F" stroke-width="0.2" stroke-linecap="round" stroke-linejoin="round"/>
</svg>
