<svg width="9" height="25" viewBox="0 0 9 25" fill="none" xmlns="http://www.w3.org/2000/svg">
<path opacity="0.4" d="M4.17096 6.78035C4.83922 6.78035 5.38095 6.23862 5.38095 5.57035C5.38095 4.90209 4.83922 4.36035 4.17096 4.36035C3.50269 4.36035 2.96094 4.90209 2.96094 5.57035C2.96094 6.23862 3.50269 6.78035 4.17096 6.78035Z" fill="#E62C2F" stroke="#E62C2F" stroke-width="0.2" stroke-linecap="round" stroke-linejoin="round"/>
<path opacity="0.4" d="M4.17096 6.78035C4.83922 6.78035 5.38095 6.23862 5.38095 5.57035C5.38095 4.90209 4.83922 4.36035 4.17096 4.36035C3.50269 4.36035 2.96094 4.90209 2.96094 5.57035C2.96094 6.23862 3.50269 6.78035 4.17096 6.78035Z" stroke="#E62C2F" stroke-width="0.2" stroke-linecap="round" stroke-linejoin="round"/>
<path opacity="0.7" d="M4.16907 6.45042C4.65508 6.45042 5.04904 6.05644 5.04904 5.57043C5.04904 5.08442 4.65508 4.69043 4.16907 4.69043C3.68306 4.69043 3.28906 5.08442 3.28906 5.57043C3.28906 6.05644 3.68306 6.45042 4.16907 6.45042Z" fill="#E62C2F" stroke="#E62C2F" stroke-width="0.2" stroke-linecap="round" stroke-linejoin="round"/>
<path opacity="0.8" d="M4.16907 6.45042C4.65508 6.45042 5.04904 6.05644 5.04904 5.57043C5.04904 5.08442 4.65508 4.69043 4.16907 4.69043C3.68306 4.69043 3.28906 5.08442 3.28906 5.57043C3.28906 6.05644 3.68306 6.45042 4.16907 6.45042Z" stroke="#E62C2F" stroke-width="0.2" stroke-linecap="round" stroke-linejoin="round"/>
</svg>
