<svg width="9" height="30" viewBox="0 0 9 30" fill="none" xmlns="http://www.w3.org/2000/svg">
<path opacity="0.4" d="M4.37015 7.07039C5.03841 7.07039 5.58014 6.52865 5.58014 5.86039C5.58014 5.19213 5.03841 4.65039 4.37015 4.65039C3.70188 4.65039 3.16016 5.19213 3.16016 5.86039C3.16016 6.52865 3.70188 7.07039 4.37015 7.07039Z" fill="#E62C2F" stroke="#E62C2F" stroke-width="0.2" stroke-linecap="round" stroke-linejoin="round"/>
<path opacity="0.4" d="M4.37015 7.07039C5.03841 7.07039 5.58014 6.52865 5.58014 5.86039C5.58014 5.19213 5.03841 4.65039 4.37015 4.65039C3.70188 4.65039 3.16016 5.19213 3.16016 5.86039C3.16016 6.52865 3.70188 7.07039 4.37015 7.07039Z" stroke="#E62C2F" stroke-width="0.2" stroke-linecap="round" stroke-linejoin="round"/>
<path opacity="0.7" d="M4.36829 6.74046C4.8543 6.74046 5.24829 6.34648 5.24829 5.86047C5.24829 5.37446 4.8543 4.98047 4.36829 4.98047C3.88228 4.98047 3.48828 5.37446 3.48828 5.86047C3.48828 6.34648 3.88228 6.74046 4.36829 6.74046Z" fill="#E62C2F" stroke="#E62C2F" stroke-width="0.2" stroke-linecap="round" stroke-linejoin="round"/>
<path opacity="0.8" d="M4.36829 6.74046C4.8543 6.74046 5.24829 6.34648 5.24829 5.86047C5.24829 5.37446 4.8543 4.98047 4.36829 4.98047C3.88228 4.98047 3.48828 5.37446 3.48828 5.86047C3.48828 6.34648 3.88228 6.74046 4.36829 6.74046Z" stroke="#E62C2F" stroke-width="0.2" stroke-linecap="round" stroke-linejoin="round"/>
</svg>
