<svg width="9" height="25" viewBox="0 0 9 25" fill="none" xmlns="http://www.w3.org/2000/svg">
<path opacity="0.4" d="M4.56155 6.43954C5.22982 6.43954 5.77155 5.8978 5.77155 5.22954C5.77155 4.56127 5.22982 4.01953 4.56155 4.01953C3.89329 4.01953 3.35156 4.56127 3.35156 5.22954C3.35156 5.8978 3.89329 6.43954 4.56155 6.43954Z" fill="#E62C2F" stroke="#E62C2F" stroke-width="0.2" stroke-linecap="round" stroke-linejoin="round"/>
<path opacity="0.4" d="M4.56155 6.43954C5.22982 6.43954 5.77155 5.8978 5.77155 5.22954C5.77155 4.56127 5.22982 4.01953 4.56155 4.01953C3.89329 4.01953 3.35156 4.56127 3.35156 5.22954C3.35156 5.8978 3.89329 6.43954 4.56155 6.43954Z" stroke="#E62C2F" stroke-width="0.2" stroke-linecap="round" stroke-linejoin="round"/>
<path opacity="0.7" d="M4.55969 6.10961C5.0457 6.10961 5.4397 5.71562 5.4397 5.22961C5.4397 4.7436 5.0457 4.34961 4.55969 4.34961C4.07368 4.34961 3.67969 4.7436 3.67969 5.22961C3.67969 5.71562 4.07368 6.10961 4.55969 6.10961Z" fill="#E62C2F" stroke="#E62C2F" stroke-width="0.2" stroke-linecap="round" stroke-linejoin="round"/>
<path opacity="0.8" d="M4.55969 6.10961C5.0457 6.10961 5.4397 5.71562 5.4397 5.22961C5.4397 4.7436 5.0457 4.34961 4.55969 4.34961C4.07368 4.34961 3.67969 4.7436 3.67969 5.22961C3.67969 5.71562 4.07368 6.10961 4.55969 6.10961Z" stroke="#E62C2F" stroke-width="0.2" stroke-linecap="round" stroke-linejoin="round"/>
</svg>
