<svg width="9" height="25" viewBox="0 0 9 25" fill="none" xmlns="http://www.w3.org/2000/svg">
<path opacity="0.4" d="M4.44046 6.62996C5.10872 6.62996 5.65045 6.08822 5.65045 5.41996C5.65045 4.7517 5.10872 4.20996 4.44046 4.20996C3.7722 4.20996 3.23047 4.7517 3.23047 5.41996C3.23047 6.08822 3.7722 6.62996 4.44046 6.62996Z" fill="#E62C2F" stroke="#E62C2F" stroke-width="0.2" stroke-linecap="round" stroke-linejoin="round"/>
<path opacity="0.4" d="M4.44046 6.62996C5.10872 6.62996 5.65045 6.08822 5.65045 5.41996C5.65045 4.7517 5.10872 4.20996 4.44046 4.20996C3.7722 4.20996 3.23047 4.7517 3.23047 5.41996C3.23047 6.08822 3.7722 6.62996 4.44046 6.62996Z" stroke="#E62C2F" stroke-width="0.2" stroke-linecap="round" stroke-linejoin="round"/>
<path opacity="0.7" d="M4.4386 6.30004C4.92461 6.30004 5.3186 5.90605 5.3186 5.42004C5.3186 4.93403 4.92461 4.54004 4.4386 4.54004C3.95259 4.54004 3.55859 4.93403 3.55859 5.42004C3.55859 5.90605 3.95259 6.30004 4.4386 6.30004Z" fill="#E62C2F" stroke="#E62C2F" stroke-width="0.2" stroke-linecap="round" stroke-linejoin="round"/>
<path opacity="0.8" d="M4.4386 6.30004C4.92461 6.30004 5.3186 5.90605 5.3186 5.42004C5.3186 4.93403 4.92461 4.54004 4.4386 4.54004C3.95259 4.54004 3.55859 4.93403 3.55859 5.42004C3.55859 5.90605 3.95259 6.30004 4.4386 6.30004Z" stroke="#E62C2F" stroke-width="0.2" stroke-linecap="round" stroke-linejoin="round"/>
</svg>
