<svg width="11" height="25" viewBox="0 0 11 25" fill="none" xmlns="http://www.w3.org/2000/svg">
<path opacity="0.4" d="M4.99905 7.75985C5.66732 7.75985 6.20905 7.21812 6.20905 6.54985C6.20905 5.88159 5.66732 5.33984 4.99905 5.33984C4.33079 5.33984 3.78906 5.88159 3.78906 6.54985C3.78906 7.21812 4.33079 7.75985 4.99905 7.75985Z" fill="#E62C2F" stroke="#E62C2F" stroke-width="0.2" stroke-linecap="round" stroke-linejoin="round"/>
<path opacity="0.4" d="M4.99905 7.75985C5.66732 7.75985 6.20905 7.21812 6.20905 6.54985C6.20905 5.88159 5.66732 5.33984 4.99905 5.33984C4.33079 5.33984 3.78906 5.88159 3.78906 6.54985C3.78906 7.21812 4.33079 7.75985 4.99905 7.75985Z" stroke="#E62C2F" stroke-width="0.2" stroke-linecap="round" stroke-linejoin="round"/>
<path opacity="0.7" d="M4.99719 7.42992C5.4832 7.42992 5.8772 7.03594 5.8772 6.54993C5.8772 6.06392 5.4832 5.66992 4.99719 5.66992C4.51118 5.66992 4.11719 6.06392 4.11719 6.54993C4.11719 7.03594 4.51118 7.42992 4.99719 7.42992Z" fill="#E62C2F" stroke="#E62C2F" stroke-width="0.2" stroke-linecap="round" stroke-linejoin="round"/>
<path opacity="0.8" d="M4.99719 7.42992C5.4832 7.42992 5.8772 7.03594 5.8772 6.54993C5.8772 6.06392 5.4832 5.66992 4.99719 5.66992C4.51118 5.66992 4.11719 6.06392 4.11719 6.54993C4.11719 7.03594 4.51118 7.42992 4.99719 7.42992Z" stroke="#E62C2F" stroke-width="0.2" stroke-linecap="round" stroke-linejoin="round"/>
</svg>
