<svg width="12" height="22" viewBox="0 0 12 22" fill="none" xmlns="http://www.w3.org/2000/svg">
<path opacity="0.4" d="M5.79985 5.84969C6.46812 5.84969 7.00984 5.30795 7.00984 4.63969C7.00984 3.97142 6.46812 3.42969 5.79985 3.42969C5.13159 3.42969 4.58984 3.97142 4.58984 4.63969C4.58984 5.30795 5.13159 5.84969 5.79985 5.84969Z" fill="#E62C2F" stroke="#E62C2F" stroke-width="0.2" stroke-linecap="round" stroke-linejoin="round"/>
<path opacity="0.4" d="M5.79985 5.84969C6.46812 5.84969 7.00984 5.30795 7.00984 4.63969C7.00984 3.97142 6.46812 3.42969 5.79985 3.42969C5.13159 3.42969 4.58984 3.97142 4.58984 4.63969C4.58984 5.30795 5.13159 5.84969 5.79985 5.84969Z" stroke="#E62C2F" stroke-width="0.2" stroke-linecap="round" stroke-linejoin="round"/>
<path opacity="0.7" d="M5.79797 5.51976C6.28398 5.51976 6.67796 5.12577 6.67796 4.63976C6.67796 4.15375 6.28398 3.75977 5.79797 3.75977C5.31196 3.75977 4.91797 4.15375 4.91797 4.63976C4.91797 5.12577 5.31196 5.51976 5.79797 5.51976Z" fill="#E62C2F" stroke="#E62C2F" stroke-width="0.2" stroke-linecap="round" stroke-linejoin="round"/>
<path opacity="0.8" d="M5.79797 5.51976C6.28398 5.51976 6.67796 5.12577 6.67796 4.63976C6.67796 4.15375 6.28398 3.75977 5.79797 3.75977C5.31196 3.75977 4.91797 4.15375 4.91797 4.63976C4.91797 5.12577 5.31196 5.51976 5.79797 5.51976Z" stroke="#E62C2F" stroke-width="0.2" stroke-linecap="round" stroke-linejoin="round"/>
</svg>
