<svg width="8" height="20" viewBox="0 0 8 20" fill="none" xmlns="http://www.w3.org/2000/svg">
<path opacity="0.4" d="M3.73 16.8799C4.13317 16.8799 4.46 16.5531 4.46 16.1499C4.46 15.7468 4.13317 15.4199 3.73 15.4199C3.32684 15.4199 3 15.7468 3 16.1499C3 16.5531 3.32684 16.8799 3.73 16.8799Z" fill="#E62C2F" stroke="#E62C2F" stroke-width="0.15" stroke-linecap="round" stroke-linejoin="round"/>
<path opacity="0.4" d="M3.73 16.8799C4.13317 16.8799 4.46 16.5531 4.46 16.1499C4.46 15.7468 4.13317 15.4199 3.73 15.4199C3.32684 15.4199 3 15.7468 3 16.1499C3 16.5531 3.32684 16.8799 3.73 16.8799Z" stroke="#E62C2F" stroke-width="0.15" stroke-linecap="round" stroke-linejoin="round"/>
<path opacity="0.7" d="M3.72923 16.6801C4.02194 16.6801 4.25922 16.4428 4.25922 16.1501C4.25922 15.8574 4.02194 15.6201 3.72923 15.6201C3.43651 15.6201 3.19922 15.8574 3.19922 16.1501C3.19922 16.4428 3.43651 16.6801 3.72923 16.6801Z" fill="#E62C2F" stroke="#E62C2F" stroke-width="0.15" stroke-linecap="round" stroke-linejoin="round"/>
<path opacity="0.8" d="M3.72923 16.6801C4.02194 16.6801 4.25922 16.4428 4.25922 16.1501C4.25922 15.8574 4.02194 15.6201 3.72923 15.6201C3.43651 15.6201 3.19922 15.8574 3.19922 16.1501C3.19922 16.4428 3.43651 16.6801 3.72923 16.6801Z" stroke="#E62C2F" stroke-width="0.15" stroke-linecap="round" stroke-linejoin="round"/>
</svg>
