<svg width="7" height="19" viewBox="0 0 7 19" fill="none" xmlns="http://www.w3.org/2000/svg">
<path opacity="0.4" d="M3.62843 16.0801C4.0316 16.0801 4.35844 15.7533 4.35844 15.3501C4.35844 14.9469 4.0316 14.6201 3.62843 14.6201C3.22527 14.6201 2.89844 14.9469 2.89844 15.3501C2.89844 15.7533 3.22527 16.0801 3.62843 16.0801Z" fill="#E62C2F" stroke="#E62C2F" stroke-width="0.15" stroke-linecap="round" stroke-linejoin="round"/>
<path opacity="0.4" d="M3.62843 16.0801C4.0316 16.0801 4.35844 15.7533 4.35844 15.3501C4.35844 14.9469 4.0316 14.6201 3.62843 14.6201C3.22527 14.6201 2.89844 14.9469 2.89844 15.3501C2.89844 15.7533 3.22527 16.0801 3.62843 16.0801Z" stroke="#E62C2F" stroke-width="0.15" stroke-linecap="round" stroke-linejoin="round"/>
<path opacity="0.7" d="M3.62766 15.8803C3.92037 15.8803 4.15766 15.643 4.15766 15.3503C4.15766 15.0576 3.92037 14.8203 3.62766 14.8203C3.33494 14.8203 3.09766 15.0576 3.09766 15.3503C3.09766 15.643 3.33494 15.8803 3.62766 15.8803Z" fill="#E62C2F" stroke="#E62C2F" stroke-width="0.15" stroke-linecap="round" stroke-linejoin="round"/>
<path opacity="0.8" d="M3.62766 15.8803C3.92037 15.8803 4.15766 15.643 4.15766 15.3503C4.15766 15.0576 3.92037 14.8203 3.62766 14.8203C3.33494 14.8203 3.09766 15.0576 3.09766 15.3503C3.09766 15.643 3.33494 15.8803 3.62766 15.8803Z" stroke="#E62C2F" stroke-width="0.15" stroke-linecap="round" stroke-linejoin="round"/>
</svg>
