<svg width="7" height="22" viewBox="0 0 7 22" fill="none" xmlns="http://www.w3.org/2000/svg">
<path opacity="0.4" d="M3.44875 18.1504C3.85192 18.1504 4.17875 17.8236 4.17875 17.4204C4.17875 17.0173 3.85192 16.6904 3.44875 16.6904C3.04558 16.6904 2.71875 17.0173 2.71875 17.4204C2.71875 17.8236 3.04558 18.1504 3.44875 18.1504Z" fill="#E62C2F" stroke="#E62C2F" stroke-width="0.15" stroke-linecap="round" stroke-linejoin="round"/>
<path opacity="0.4" d="M3.44875 18.1504C3.85192 18.1504 4.17875 17.8236 4.17875 17.4204C4.17875 17.0173 3.85192 16.6904 3.44875 16.6904C3.04558 16.6904 2.71875 17.0173 2.71875 17.4204C2.71875 17.8236 3.04558 18.1504 3.44875 18.1504Z" stroke="#E62C2F" stroke-width="0.15" stroke-linecap="round" stroke-linejoin="round"/>
<path opacity="0.7" d="M3.44797 17.9506C3.74068 17.9506 3.97797 17.7133 3.97797 17.4206C3.97797 17.1279 3.74068 16.8906 3.44797 16.8906C3.15526 16.8906 2.91797 17.1279 2.91797 17.4206C2.91797 17.7133 3.15526 17.9506 3.44797 17.9506Z" fill="#E62C2F" stroke="#E62C2F" stroke-width="0.15" stroke-linecap="round" stroke-linejoin="round"/>
<path opacity="0.8" d="M3.44797 17.9506C3.74068 17.9506 3.97797 17.7133 3.97797 17.4206C3.97797 17.1279 3.74068 16.8906 3.44797 16.8906C3.15526 16.8906 2.91797 17.1279 2.91797 17.4206C2.91797 17.7133 3.15526 17.9506 3.44797 17.9506Z" stroke="#E62C2F" stroke-width="0.15" stroke-linecap="round" stroke-linejoin="round"/>
</svg>
