<svg width="5" height="19" viewBox="0 0 5 19" fill="none" xmlns="http://www.w3.org/2000/svg">
<path opacity="0.4" d="M2.15188 5.37016C2.55505 5.37016 2.88187 5.04332 2.88187 4.64015C2.88187 4.23698 2.55505 3.91016 2.15188 3.91016C1.74871 3.91016 1.42188 4.23698 1.42188 4.64015C1.42188 5.04332 1.74871 5.37016 2.15188 5.37016Z" fill="#E62C2F" stroke="#E62C2F" stroke-width="0.15" stroke-linecap="round" stroke-linejoin="round"/>
<path opacity="0.4" d="M2.15188 5.37016C2.55505 5.37016 2.88187 5.04332 2.88187 4.64015C2.88187 4.23698 2.55505 3.91016 2.15188 3.91016C1.74871 3.91016 1.42188 4.23698 1.42188 4.64015C1.42188 5.04332 1.74871 5.37016 2.15188 5.37016Z" stroke="#E62C2F" stroke-width="0.15" stroke-linecap="round" stroke-linejoin="round"/>
<path opacity="0.7" d="M2.15109 5.17035C2.4438 5.17035 2.68109 4.93306 2.68109 4.64035C2.68109 4.34764 2.4438 4.11035 2.15109 4.11035C1.85838 4.11035 1.62109 4.34764 1.62109 4.64035C1.62109 4.93306 1.85838 5.17035 2.15109 5.17035Z" fill="#E62C2F" stroke="#E62C2F" stroke-width="0.15" stroke-linecap="round" stroke-linejoin="round"/>
<path opacity="0.8" d="M2.15109 5.17035C2.4438 5.17035 2.68109 4.93306 2.68109 4.64035C2.68109 4.34764 2.4438 4.11035 2.15109 4.11035C1.85838 4.11035 1.62109 4.34764 1.62109 4.64035C1.62109 4.93306 1.85838 5.17035 2.15109 5.17035Z" stroke="#E62C2F" stroke-width="0.15" stroke-linecap="round" stroke-linejoin="round"/>
</svg>
