<svg width="6" height="19" viewBox="0 0 6 19" fill="none" xmlns="http://www.w3.org/2000/svg">
<path opacity="0.4" d="M3.28078 5.37016C3.68394 5.37016 4.01077 5.04332 4.01077 4.64015C4.01077 4.23698 3.68394 3.91016 3.28078 3.91016C2.87761 3.91016 2.55078 4.23698 2.55078 4.64015C2.55078 5.04332 2.87761 5.37016 3.28078 5.37016Z" fill="#E62C2F" stroke="#E62C2F" stroke-width="0.15" stroke-linecap="round" stroke-linejoin="round"/>
<path opacity="0.4" d="M3.28078 5.37016C3.68394 5.37016 4.01077 5.04332 4.01077 4.64015C4.01077 4.23698 3.68394 3.91016 3.28078 3.91016C2.87761 3.91016 2.55078 4.23698 2.55078 4.64015C2.55078 5.04332 2.87761 5.37016 3.28078 5.37016Z" stroke="#E62C2F" stroke-width="0.15" stroke-linecap="round" stroke-linejoin="round"/>
<path opacity="0.7" d="M3.28 5.17035C3.57271 5.17035 3.81 4.93306 3.81 4.64035C3.81 4.34764 3.57271 4.11035 3.28 4.11035C2.98729 4.11035 2.75 4.34764 2.75 4.64035C2.75 4.93306 2.98729 5.17035 3.28 5.17035Z" fill="#E62C2F" stroke="#E62C2F" stroke-width="0.15" stroke-linecap="round" stroke-linejoin="round"/>
<path opacity="0.8" d="M3.28 5.17035C3.57271 5.17035 3.81 4.93306 3.81 4.64035C3.81 4.34764 3.57271 4.11035 3.28 4.11035C2.98729 4.11035 2.75 4.34764 2.75 4.64035C2.75 4.93306 2.98729 5.17035 3.28 5.17035Z" stroke="#E62C2F" stroke-width="0.15" stroke-linecap="round" stroke-linejoin="round"/>
</svg>
