<svg width="7" height="23" viewBox="0 0 7 23" fill="none" xmlns="http://www.w3.org/2000/svg">
<path opacity="0.4" d="M3.1714 6.41996C3.57457 6.41996 3.9014 6.09313 3.9014 5.68996C3.9014 5.2868 3.57457 4.95996 3.1714 4.95996C2.76823 4.95996 2.44141 5.2868 2.44141 5.68996C2.44141 6.09313 2.76823 6.41996 3.1714 6.41996Z" fill="#E62C2F" stroke="#E62C2F" stroke-width="0.15" stroke-linecap="round" stroke-linejoin="round"/>
<path opacity="0.4" d="M3.1714 6.41996C3.57457 6.41996 3.9014 6.09313 3.9014 5.68996C3.9014 5.2868 3.57457 4.95996 3.1714 4.95996C2.76823 4.95996 2.44141 5.2868 2.44141 5.68996C2.44141 6.09313 2.76823 6.41996 3.1714 6.41996Z" stroke="#E62C2F" stroke-width="0.15" stroke-linecap="round" stroke-linejoin="round"/>
<path opacity="0.7" d="M3.17062 6.22015C3.46333 6.22015 3.70062 5.98287 3.70062 5.69016C3.70062 5.39744 3.46333 5.16016 3.17062 5.16016C2.87791 5.16016 2.64062 5.39744 2.64062 5.69016C2.64062 5.98287 2.87791 6.22015 3.17062 6.22015Z" fill="#E62C2F" stroke="#E62C2F" stroke-width="0.15" stroke-linecap="round" stroke-linejoin="round"/>
<path opacity="0.8" d="M3.17062 6.22015C3.46333 6.22015 3.70062 5.98287 3.70062 5.69016C3.70062 5.39744 3.46333 5.16016 3.17062 5.16016C2.87791 5.16016 2.64062 5.39744 2.64062 5.69016C2.64062 5.98287 2.87791 6.22015 3.17062 6.22015Z" stroke="#E62C2F" stroke-width="0.15" stroke-linecap="round" stroke-linejoin="round"/>
</svg>
