<svg width="12" height="19" viewBox="0 0 12 19" fill="none" xmlns="http://www.w3.org/2000/svg">
<path opacity="0.4" d="M6.11172 6.04961C6.71924 6.04961 7.21173 5.55712 7.21173 4.94961C7.21173 4.34209 6.71924 3.84961 6.11172 3.84961C5.50421 3.84961 5.01172 4.34209 5.01172 4.94961C5.01172 5.55712 5.50421 6.04961 6.11172 6.04961Z" fill="#E62C2F" stroke="#E62C2F" stroke-width="0.15" stroke-linecap="round" stroke-linejoin="round"/>
<path opacity="0.4" d="M6.11172 6.04961C6.71924 6.04961 7.21173 5.55712 7.21173 4.94961C7.21173 4.34209 6.71924 3.84961 6.11172 3.84961C5.50421 3.84961 5.01172 4.34209 5.01172 4.94961C5.01172 5.55712 5.50421 6.04961 6.11172 6.04961Z" stroke="#E62C2F" stroke-width="0.15" stroke-linecap="round" stroke-linejoin="round"/>
<path opacity="0.7" d="M6.11031 5.73917C6.54661 5.73917 6.9003 5.38548 6.9003 4.94917C6.9003 4.51287 6.54661 4.15918 6.11031 4.15918C5.674 4.15918 5.32031 4.51287 5.32031 4.94917C5.32031 5.38548 5.674 5.73917 6.11031 5.73917Z" fill="#E62C2F" stroke="#E62C2F" stroke-width="0.15" stroke-linecap="round" stroke-linejoin="round"/>
<path opacity="0.8" d="M6.11031 5.73917C6.54661 5.73917 6.9003 5.38548 6.9003 4.94917C6.9003 4.51287 6.54661 4.15918 6.11031 4.15918C5.674 4.15918 5.32031 4.51287 5.32031 4.94917C5.32031 5.38548 5.674 5.73917 6.11031 5.73917Z" stroke="#E62C2F" stroke-width="0.15" stroke-linecap="round" stroke-linejoin="round"/>
</svg>
