<svg width="7" height="23" viewBox="0 0 7 23" fill="none" xmlns="http://www.w3.org/2000/svg">
<path opacity="0.4" d="M3.53078 6.37992C3.93395 6.37992 4.26078 6.05309 4.26078 5.64993C4.26078 5.24676 3.93395 4.91992 3.53078 4.91992C3.12761 4.91992 2.80078 5.24676 2.80078 5.64993C2.80078 6.05309 3.12761 6.37992 3.53078 6.37992Z" fill="#E62C2F" stroke="#E62C2F" stroke-width="0.15" stroke-linecap="round" stroke-linejoin="round"/>
<path opacity="0.4" d="M3.53078 6.37992C3.93395 6.37992 4.26078 6.05309 4.26078 5.64993C4.26078 5.24676 3.93395 4.91992 3.53078 4.91992C3.12761 4.91992 2.80078 5.24676 2.80078 5.64993C2.80078 6.05309 3.12761 6.37992 3.53078 6.37992Z" stroke="#E62C2F" stroke-width="0.15" stroke-linecap="round" stroke-linejoin="round"/>
<path opacity="0.7" d="M3.53 6.18011C3.82271 6.18011 4.06 5.94283 4.06 5.65012C4.06 5.35741 3.82271 5.12012 3.53 5.12012C3.23729 5.12012 3 5.35741 3 5.65012C3 5.94283 3.23729 6.18011 3.53 6.18011Z" fill="#E62C2F" stroke="#E62C2F" stroke-width="0.15" stroke-linecap="round" stroke-linejoin="round"/>
<path opacity="0.8" d="M3.53 6.18011C3.82271 6.18011 4.06 5.94283 4.06 5.65012C4.06 5.35741 3.82271 5.12012 3.53 5.12012C3.23729 5.12012 3 5.35741 3 5.65012C3 5.94283 3.23729 6.18011 3.53 6.18011Z" stroke="#E62C2F" stroke-width="0.15" stroke-linecap="round" stroke-linejoin="round"/>
</svg>
