<svg width="81" height="77" viewBox="0 0 81 77" fill="none" xmlns="http://www.w3.org/2000/svg">
<path fill-rule="evenodd" clip-rule="evenodd" d="M42.8201 9.38397C44.3222 9.37657 45.5357 8.15197 45.5246 6.64988C45.5172 5.1478 44.2926 3.93429 42.7905 3.94539C41.2884 3.95279 40.0749 5.17739 40.086 6.67948C40.0934 8.18157 41.318 9.39137 42.8201 9.38397Z" fill="#1A264E"/>
<path fill-rule="evenodd" clip-rule="evenodd" d="M16.2258 28.4413C13.0996 31.8229 11.0203 36.1553 10.4617 40.9316C9.74763 47.025 11.5716 52.8336 15.0974 57.2917C18.6233 61.7536 23.851 64.8688 29.9444 65.5828C34.9242 66.1674 39.793 65.039 43.8849 62.6045C47.7104 60.3255 50.8552 56.9033 52.7753 52.6597L46.8743 50.9985C45.461 53.7104 43.3411 55.9118 40.8068 57.4175C37.8322 59.1897 34.2842 60.0036 30.6436 59.5782C26.2077 59.0602 22.4007 56.7886 19.8331 53.5439C17.2655 50.2956 15.9373 46.0705 16.4589 41.6308C16.8696 38.1272 18.3754 34.9676 20.6396 32.5184C22.9075 30.0655 25.9413 28.3119 29.3931 27.6348L28.2314 21.7227C23.5069 22.6587 19.3447 25.0672 16.2258 28.4413Z" fill="#1A264E"/>
<path fill-rule="evenodd" clip-rule="evenodd" d="M46.3902 66.2241C41.477 69.1469 35.624 70.4973 29.6305 69.7943C22.3087 68.936 16.0303 65.1919 11.7978 59.8347C7.56167 54.4775 5.37143 47.5035 6.22977 40.1818C6.90682 34.4102 9.39673 29.1973 13.1334 25.1572C16.8776 21.106 21.8759 18.2129 27.5697 17.0918L26.408 11.1797C19.4415 12.5523 13.311 16.1003 8.71598 21.069C4.10983 26.0452 1.05016 32.4346 0.225125 39.4751C-0.825595 48.4506 1.8604 57.0044 7.0548 63.5788C12.2492 70.1532 19.952 74.7408 28.9275 75.7953C36.2641 76.6536 43.4378 74.9961 49.4684 71.4074C55.4619 67.8409 60.3159 62.369 63.0722 55.5615L57.2193 53.9114C54.9366 59.1835 51.0925 63.4234 46.3902 66.2241Z" fill="#1A264E"/>
<path fill-rule="evenodd" clip-rule="evenodd" d="M80.3921 27.9181C80.3736 27.8367 80.3366 27.759 80.2885 27.6887L75.7563 21.6804C76.6442 17.0002 76.8884 15.5314 74.75 11.0622C72.9482 6.7002 68.3495 1.68708 56.7102 2.06075C56.4327 0.876845 55.3672 -0.0036881 54.0982 1.16153e-05C52.6257 0.00741105 51.4344 1.20982 51.4418 2.68231C51.4492 4.1548 52.6516 5.3461 54.1241 5.33871C54.6642 5.33501 55.1637 5.17222 55.5817 4.89474C56.5437 5.67538 57.5574 7.04427 58.4527 8.87193C58.1161 9.13832 57.8571 9.50089 57.7091 9.91526C56.0294 9.83756 54.5495 9.88936 53.4914 9.93005C53.4248 9.93375 53.3582 9.93375 53.2916 9.93746C53.0437 9.17161 52.3334 8.61296 51.4825 8.61666C50.4354 8.62035 49.5919 9.47499 49.5956 10.522C49.5993 11.569 50.4539 12.4126 51.501 12.4089C52.3334 12.4052 53.0289 11.8613 53.2805 11.114C53.3619 11.1103 53.4396 11.1103 53.5321 11.1066C54.5532 11.0696 55.985 11.0178 57.6129 11.0918C57.7017 11.5727 57.9385 12.0019 58.2788 12.3312C56.2329 13.6039 54.5347 15.1467 53.3101 16.8448C52.8736 16.5415 52.3445 16.3602 51.771 16.3639C50.2986 16.3713 49.1072 17.5737 49.1146 19.0462C49.122 20.4151 50.1543 21.5324 51.4825 21.6841C51.5269 25.3986 54.5273 29.9714 58.8042 34.4666C57.3391 38.0627 55.0527 41.7883 51.5602 45.3068C51.1754 44.9701 50.6722 44.7666 50.121 44.7703C48.9149 44.7777 47.9455 45.7581 47.9492 46.9642C47.9566 48.1703 48.9371 49.1397 50.1432 49.136C50.6685 49.1323 51.1495 48.9436 51.5232 48.6365L61.5087 51.2818C61.5198 52.4842 62.5002 53.4498 63.7026 53.4461C64.9087 53.4387 65.8781 52.4583 65.8744 51.2522C65.8707 50.3902 65.3638 49.6465 64.635 49.2988C64.6609 47.5969 65.0937 46.1799 65.9188 45.1921C66.6846 44.2708 67.776 43.7677 68.9932 43.7677C69.0006 43.7677 69.008 43.7677 69.0154 43.7677H69.1634C71.8124 43.7862 74.5539 43.7973 75.8118 42.1213C76.5259 41.1742 76.659 39.8386 76.2151 38.0479C76.9994 37.6853 77.5137 37.1304 77.6543 36.4681C77.7431 36.0501 77.7135 35.4581 77.2325 34.7811L78.1537 34.4666C78.3424 34.4037 78.4867 34.2483 78.5348 34.0559C78.7938 33.0533 78.6606 32.0507 78.1722 31.1997C79.3265 30.6781 80.7953 29.7457 80.3921 27.9181ZM72.3785 9.16421C71.4905 9.00883 70.5508 8.93853 69.5778 8.94593C69.3003 8.23558 68.6122 7.72872 67.8056 7.73242C67.4541 7.73612 67.1323 7.83601 66.8511 8.0062C64.3871 5.97136 61.2497 4.35088 57.5056 3.22247C64.524 3.14107 69.5889 5.16852 72.3785 9.16421ZM69.4446 30.8298C68.3162 33.0274 66.84 35.1473 65.0678 37.1082C64.8199 36.9898 64.5425 36.9195 64.2465 36.9195C63.9061 36.9195 63.5916 37.0194 63.3179 37.1785C62.2227 36.1833 61.1794 35.1732 60.199 34.1632C61.6678 30.2933 62.2375 26.5899 62.3707 23.4451C62.3818 23.4451 62.3929 23.4451 62.404 23.4451C62.9738 23.4414 63.4991 23.2601 63.932 22.9531C65.9928 24.3923 67.8019 26.1755 69.3447 28.0772C69.0043 28.4212 68.7934 28.8985 68.7971 29.4202C68.8008 29.9862 69.0561 30.482 69.4446 30.8298ZM64.7201 22.0799C64.9383 21.6915 65.0641 21.2438 65.0604 20.7665C65.053 19.294 63.8506 18.1027 62.3781 18.1101C62.3189 18.1101 62.2597 18.1175 62.2005 18.1212C61.9897 16.2048 61.6197 14.3364 61.1202 12.605C61.4421 12.3978 61.7085 12.1166 61.8935 11.7799C61.9823 11.7429 62.0747 11.7096 62.1672 11.6726C66.1518 12.5643 70.1734 14.6842 71.8864 19.5641C71.9123 19.8342 71.9308 20.108 71.9419 20.3855C72.0418 22.7644 71.6533 25.1766 70.8542 27.537C70.7987 27.5333 70.7432 27.5222 70.6877 27.5222C70.5952 27.5222 70.5064 27.537 70.4176 27.5518C68.8008 25.5281 66.8992 23.6227 64.7201 22.0799ZM64.1614 10.9734C64.8162 10.781 65.4748 10.6182 66.1333 10.4924C66.4515 11.1066 67.0842 11.5283 67.8241 11.5246C68.1016 11.5246 68.3606 11.4617 68.5974 11.3544C69.5963 12.5939 70.3843 13.9479 70.943 15.4093C69.1264 13.1266 66.6883 11.7725 64.1614 10.9734ZM56.5622 4.17329C60.4358 5.26101 63.6323 6.83709 66.0926 8.84604C66.0261 8.99403 65.978 9.15311 65.9484 9.3196C64.6868 9.56378 63.4141 9.93005 62.1635 10.4073C62.0341 9.25671 61.0536 8.36507 59.8697 8.37247C59.7587 8.37247 59.6477 8.38357 59.5441 8.39837C58.671 6.59661 57.6499 5.12782 56.5622 4.17329ZM59.5293 12.9379C59.6477 12.9564 59.7698 12.9675 59.8919 12.9675C59.9289 12.9675 59.9696 12.9638 60.0066 12.9601C60.4839 14.625 60.8501 16.4749 61.0536 18.469C60.6134 18.728 60.2508 19.1054 60.0177 19.5641C58.2714 18.9167 56.3994 18.5282 54.4089 18.4727C54.3534 18.2063 54.2572 17.9584 54.1278 17.7291C55.4412 15.8015 57.3465 14.181 59.5293 12.9379ZM52.6738 21.5509C53.5247 21.2549 54.1796 20.5408 54.3904 19.6529C56.2847 19.7047 58.068 20.0858 59.7291 20.711C59.7291 20.7369 59.7254 20.7665 59.7254 20.7924C59.7291 21.8357 60.3322 22.7311 61.2053 23.1676C61.1017 26.1089 60.5986 29.5719 59.2963 33.2087C55.3265 28.9318 52.6553 24.7326 52.6738 21.5509ZM59.7069 35.3804C60.6023 36.2831 61.542 37.1785 62.5187 38.0627C62.4188 38.2958 62.3596 38.5548 62.3596 38.8249C62.3596 39.1097 62.4299 39.3761 62.5446 39.6203C59.6847 42.1879 56.2958 44.3744 52.548 45.9838C55.9369 42.5394 58.2085 38.9099 59.7069 35.3804ZM65.0197 44.4299C64.0541 45.5879 63.5324 47.1899 63.4732 49.0879C62.774 49.1619 62.1746 49.5651 61.8306 50.1423L52.2298 47.5969C52.252 47.5229 52.2705 47.4489 52.2853 47.3749C56.4512 45.6878 60.2101 43.3015 63.3512 40.4712C63.6249 40.6229 63.9357 40.7154 64.2724 40.7154C64.6313 40.7117 64.9605 40.6081 65.2454 40.4305C66.1666 41.1964 67.099 41.9474 68.0424 42.6726C66.8585 42.8834 65.8078 43.4865 65.0197 44.4299ZM74.8721 41.4073C74.0581 42.4913 71.9937 42.5838 69.8664 42.5838C68.5567 41.6033 67.2655 40.5785 66.015 39.5315C66.1074 39.3095 66.1555 39.0653 66.1555 38.8064C66.1555 38.4808 66.063 38.1774 65.9151 37.9073C67.7797 35.8429 69.3336 33.6119 70.5175 31.2922C70.5804 31.2996 70.6433 31.3107 70.7062 31.3107C71.0059 31.3107 71.2834 31.233 71.5349 31.1072C73.0999 33.5306 74.2468 35.9317 74.9461 37.8629C75.4307 39.5056 75.4048 40.6969 74.8721 41.4073ZM77.0438 30.3821C76.8625 30.4524 76.7293 30.6078 76.6849 30.7965C76.6405 30.9852 76.6923 31.1849 76.8218 31.3255C77.3583 31.9175 77.5803 32.6648 77.4582 33.4492L75.9968 33.9449C75.797 34.0115 75.649 34.1817 75.6083 34.3889C75.5676 34.5961 75.6416 34.807 75.8007 34.9475C76.3298 35.4063 76.5813 35.8577 76.5037 36.2129C76.4482 36.4718 76.2114 36.716 75.8451 36.9084C75.0867 34.9549 73.9249 32.613 72.3822 30.2637C72.5117 30.0047 72.5931 29.7162 72.5931 29.4054C72.5894 28.8356 72.3304 28.3325 71.9308 27.9847C72.8002 25.4615 73.2257 22.8791 73.1184 20.3337C73.1036 20.0155 73.0814 19.7047 73.0518 19.3939C73.0518 19.3717 73.0481 19.3532 73.0444 19.331C72.7188 16.0494 71.4868 13.1044 69.4372 10.596C69.5223 10.4517 69.5889 10.2963 69.6333 10.1298C70.9097 10.1224 72.1232 10.2593 73.2183 10.5627C73.3811 10.8809 73.5365 11.2065 73.6734 11.5468C75.6786 15.746 75.4677 16.8744 74.565 21.6286L74.5465 21.7248C74.5169 21.8875 74.5539 22.0577 74.6538 22.1872L79.2599 28.2955C79.3931 29.1464 78.7901 29.7051 77.0438 30.3821Z" fill="#1A264E"/>
<path fill-rule="evenodd" clip-rule="evenodd" d="M50.9517 36.1744C52.3132 36.167 53.4083 35.057 53.4009 33.6993C53.3935 32.3378 52.2836 31.2426 50.9258 31.25C49.5643 31.2574 48.4692 32.3674 48.4766 33.7251C48.484 35.0829 49.5939 36.1818 50.9517 36.1744Z" fill="#1A264E"/>
<path fill-rule="evenodd" clip-rule="evenodd" d="M45.1289 40.8072C45.1363 42.0133 46.1168 42.9827 47.3229 42.979C48.529 42.9716 49.4983 41.9911 49.4946 40.785C49.4872 39.5789 48.5068 38.6096 47.3007 38.6133C46.0946 38.6207 45.1215 39.6011 45.1289 40.8072Z" fill="#1A264E"/>
<path fill-rule="evenodd" clip-rule="evenodd" d="M43.4739 26.918C41.9718 26.9254 40.7583 28.15 40.7657 29.6558C40.7731 31.1579 41.9977 32.3714 43.5034 32.364C45.0055 32.3566 46.219 31.132 46.2116 29.6262C46.2005 28.1241 44.9759 26.9106 43.4739 26.918Z" fill="#1A264E"/>
<path fill-rule="evenodd" clip-rule="evenodd" d="M37.3459 23.9705C37.3385 22.4352 36.088 21.1958 34.5526 21.2032C33.0172 21.2106 31.7778 22.4611 31.7852 23.9964C31.7926 25.5318 33.0431 26.7712 34.5785 26.7638C36.1139 26.7564 37.3533 25.5059 37.3459 23.9705Z" fill="#1A264E"/>
<path fill-rule="evenodd" clip-rule="evenodd" d="M42.368 21.9874C43.822 21.98 44.9948 20.7961 44.9874 19.3421C44.98 17.8881 43.7961 16.7153 42.3421 16.7227C40.8881 16.7301 39.7153 17.914 39.7227 19.368C39.7301 20.822 40.914 21.9948 42.368 21.9874Z" fill="#1A264E"/>
<path d="M33.5948 17.0569C35.7096 17.0569 37.424 15.3425 37.424 13.2276C37.424 11.1128 35.7096 9.39844 33.5948 9.39844C31.48 9.39844 29.7656 11.1128 29.7656 13.2276C29.7656 15.3425 31.48 17.0569 33.5948 17.0569Z" fill="#1A264E"/>
<path d="M32.9295 49.691C36.5257 49.691 39.441 46.7757 39.441 43.1795C39.441 39.5833 36.5257 36.668 32.9295 36.668C29.3333 36.668 26.418 39.5833 26.418 43.1795C26.418 46.7757 29.3333 49.691 32.9295 49.691Z" fill="#1A264E"/>
</svg>
