<svg width="11" height="20" viewBox="0 0 11 20" fill="none" xmlns="http://www.w3.org/2000/svg">
<path d="M1.52344 15.9462C1.64344 15.5662 1.78344 15.1662 1.96344 14.7962C2.05344 14.6262 2.16344 14.4562 2.30344 14.3062C3.36344 13.1662 4.34344 12.6162 5.26344 12.6162C6.03344 12.6162 6.79344 13.0062 7.51344 13.7762C7.72344 13.9962 7.93344 14.2462 8.13344 14.5362C8.84344 15.4762 9.18344 16.5962 9.16344 17.9562C9.12344 18.7462 8.82344 19.1662 8.25344 19.2562C8.18344 19.2562 8.12344 19.2662 8.05344 19.2662C7.74344 19.2662 7.43344 19.1562 7.17344 18.9562C7.02344 18.8462 6.87344 18.7862 6.70344 18.7862C6.49344 18.7862 6.28344 18.8762 6.04344 19.0462C5.91344 19.1462 5.76344 19.2262 5.60344 19.2962L1.53344 15.9362L1.52344 15.9462Z" fill="white"/>
</svg>
