<svg width="11" height="20" viewBox="0 0 11 20" fill="none" xmlns="http://www.w3.org/2000/svg">
<path d="M5.06478 19.2962C4.90478 19.2262 4.75477 19.1362 4.62477 19.0462C4.38477 18.8662 4.16477 18.7862 3.96477 18.7862C3.80477 18.7862 3.64477 18.8462 3.49477 18.9562C3.23477 19.1562 2.92476 19.2662 2.61476 19.2662C2.54476 19.2662 2.48477 19.2662 2.41477 19.2562C1.84477 19.1662 1.54476 18.7462 1.50476 17.9562C1.48476 16.5962 1.81478 15.4762 2.53478 14.5362C2.73478 14.2462 2.94477 13.9962 3.15477 13.7762C3.87477 13.0062 4.63477 12.6162 5.40477 12.6162C6.32477 12.6162 7.30478 13.1662 8.31478 14.2562C8.49478 14.4562 8.61477 14.6162 8.70477 14.7962C8.88477 15.1762 9.02477 15.5762 9.12477 16.0262L5.07477 19.3062L5.06478 19.2962Z" fill="white"/>
</svg>
