<svg width="21" height="28" viewBox="0 0 21 28" fill="none" xmlns="http://www.w3.org/2000/svg">
<path d="M20.9275 23.0205C18.9075 22.7205 16.8475 22.5705 14.8075 22.5705H14.5275C12.5775 22.5805 10.6175 22.7405 8.6875 23.0205V22.1805C10.5775 21.9505 12.5675 21.7905 14.5375 21.7705H14.8175C16.8775 21.7705 18.9575 21.9305 21.0075 22.2505L20.9475 23.0105L20.9275 23.0205Z" fill="#D3D3D3"/>
<path d="M14.8094 21.8502C16.8294 21.8502 18.8594 22.0102 20.8594 22.3102V22.9302C18.8594 22.6402 16.8294 22.4902 14.8094 22.4902H14.5294C12.6094 22.5002 10.6694 22.6502 8.7594 22.9302V22.3102C10.6594 22.0202 12.6094 21.8602 14.5294 21.8502H14.8094ZM14.8094 21.7002C14.7194 21.7002 14.6294 21.7002 14.5294 21.7002C12.3094 21.7202 10.3194 21.9202 8.60938 22.1802V23.1002C10.3294 22.8402 12.3194 22.6502 14.5294 22.6402C14.6194 22.6402 14.7194 22.6402 14.8094 22.6402C17.1394 22.6402 19.2294 22.8402 21.0094 23.1002V22.1802C19.2394 21.9002 17.1494 21.7002 14.8094 21.7002Z" fill="#5E5E5A"/>
<path d="M6.60024 27.53C6.31024 27.53 6.03023 27.51 5.75023 27.49C5.49023 27.47 5.24023 27.45 5.00023 27.45C4.89023 27.45 4.78024 27.45 4.67024 27.47C4.51024 27.49 4.36022 27.49 4.21022 27.49C3.28022 27.49 2.59022 27.21 2.21022 27.06C2.11022 27.02 2.03024 26.99 1.98024 26.98C1.22024 26.81 0.870229 25.51 1.03023 23.41C1.24023 20.58 2.21023 17.76 2.78023 17.72C3.37023 17.68 3.82023 17.08 4.25023 16.5C4.69023 15.9 5.15023 15.29 5.75023 15.29C6.50023 15.29 7.41024 16.24 8.54024 18.19C8.82024 18.68 9.07023 18.92 9.28023 19.14C9.68023 19.55 9.95024 19.82 10.1002 21.48C10.3702 24.48 10.1802 26.71 9.64024 26.89C9.34024 26.99 9.03024 27.05 8.73024 27.11C8.40024 27.17 8.09022 27.24 7.80022 27.34C7.45022 27.47 7.06023 27.53 6.59023 27.53H6.60024Z" fill="#D3D3D3"/>
<path d="M5.75879 15.3597C6.47879 15.3597 7.36877 16.2997 8.48877 18.2297C8.77877 18.7297 9.02877 18.9897 9.23877 19.1997C9.62877 19.5997 9.88878 19.8597 10.0388 21.4897C10.3388 24.7997 10.0588 26.6797 9.62878 26.8197C9.32878 26.9197 9.02879 26.9797 8.72879 27.0397C8.39879 27.1097 8.08878 27.1697 7.78878 27.2797C7.43878 27.4097 7.06876 27.4697 6.60876 27.4697C6.32876 27.4697 6.03876 27.4497 5.76876 27.4297C5.50876 27.4097 5.25876 27.3897 5.01876 27.3897C4.89876 27.3897 4.78877 27.3897 4.67877 27.4097C4.51877 27.4297 4.36879 27.4297 4.22879 27.4297C3.30879 27.4297 2.62879 27.1597 2.25879 27.0097C2.14879 26.9697 2.06876 26.9297 2.01876 26.9197C1.29876 26.7497 0.96878 25.4797 1.12878 23.4297C1.34878 20.5797 2.32877 17.8497 2.80877 17.8097C3.43877 17.7597 3.88876 17.1497 4.32876 16.5597C4.75876 15.9797 5.20876 15.3797 5.76876 15.3797M5.76876 15.2297C4.52876 15.2297 3.94876 17.5797 2.79876 17.6597C1.65876 17.7397 -0.261234 26.5497 1.98877 27.0597C2.19877 27.1097 3.01879 27.5697 4.22879 27.5697C4.37879 27.5697 4.53879 27.5697 4.69879 27.5497C4.79879 27.5397 4.90876 27.5397 5.01876 27.5397C5.50876 27.5397 6.04876 27.6197 6.60876 27.6197C7.01876 27.6197 7.42878 27.5797 7.84878 27.4197C8.40878 27.2097 9.05878 27.1797 9.68878 26.9697C10.3788 26.7397 10.4288 24.0197 10.1988 21.4797C9.96879 18.9397 9.45878 19.5897 8.62878 18.1597C7.33878 15.9397 6.45876 15.2197 5.76876 15.2197V15.2297Z" fill="#5E5E5A"/>
</svg>
