<svg width="20" height="27" viewBox="0 0 20 27" fill="none" xmlns="http://www.w3.org/2000/svg">
<path d="M19.5096 22.0205C17.4896 21.7205 15.4296 21.5705 13.3896 21.5705H13.1095C11.1595 21.5805 9.18953 21.7405 7.26953 22.0205V21.1805C9.15953 20.9505 11.1395 20.7905 13.1195 20.7705H13.3995C15.4595 20.7705 17.5395 20.9305 19.5895 21.2505L19.5295 22.0105L19.5096 22.0205Z" fill="#D3D3D3"/>
<path d="M13.3797 20.8502C15.3997 20.8502 17.4297 21.0102 19.4297 21.3102V21.9302C17.4297 21.6402 15.3997 21.4902 13.3797 21.4902H13.0997C11.1797 21.5002 9.23968 21.6502 7.32968 21.9302V21.3102C9.22968 21.0202 11.1797 20.8602 13.0997 20.8502H13.3797ZM13.3797 20.7002C13.2897 20.7002 13.1997 20.7002 13.0997 20.7002C10.8797 20.7202 8.88969 20.9202 7.17969 21.1802V22.1002C8.89969 21.8402 10.8897 21.6502 13.0997 21.6402C13.1897 21.6402 13.2897 21.6402 13.3797 21.6402C15.7097 21.6402 17.7997 21.8402 19.5797 22.1002V21.1802C17.8097 20.9002 15.7197 20.7002 13.3797 20.7002Z" fill="#5E5E5A"/>
<path d="M6.44695 26.5296C6.18695 26.5296 5.88693 26.4296 5.57693 26.2296C5.07693 25.9196 4.65693 25.7696 4.26693 25.7696C4.01693 25.7696 3.79693 25.8296 3.57693 25.8896C3.36693 25.9496 3.13694 26.0096 2.87694 26.0096C2.46694 26.0096 2.01695 25.8596 1.47695 25.5496C0.65695 25.0796 0.646953 22.8196 0.636953 21.1696C0.636953 20.8296 0.636944 20.5096 0.626944 20.2296C0.586944 18.9096 1.16694 17.4696 2.12694 16.4796C2.80694 15.7796 3.61695 15.3896 4.38695 15.3896C5.32695 15.3896 6.21695 15.9496 6.94695 17.0196L7.10692 17.2496C7.85692 18.3296 8.19695 18.8196 8.19695 21.7696C8.19695 23.9496 7.83694 25.5697 7.18694 26.2197C6.97694 26.4397 6.72695 26.5396 6.44695 26.5396V26.5296Z" fill="#D3D3D3"/>
<path d="M4.38833 15.4596C5.30833 15.4596 6.16833 16.0096 6.88833 17.0596L7.0483 17.2896C7.7883 18.3496 8.11832 18.8396 8.12832 21.7596C8.12832 23.9196 7.77833 25.5196 7.13833 26.1596C6.93833 26.3596 6.7083 26.4596 6.4583 26.4596C6.2083 26.4596 5.92832 26.3596 5.62832 26.1696C5.11832 25.8496 4.68831 25.6996 4.27831 25.6996C4.00831 25.6996 3.78832 25.7596 3.56832 25.8196C3.34832 25.8796 3.13833 25.9396 2.88833 25.9396C2.48833 25.9396 2.0583 25.7996 1.5183 25.4896C0.738303 25.0396 0.728315 22.8096 0.718315 21.1696C0.718315 20.8296 0.718305 20.5096 0.708305 20.2196C0.668305 18.9096 1.23832 17.4996 2.18832 16.5296C2.85832 15.8396 3.63831 15.4596 4.39831 15.4596M4.39831 15.3096C2.35831 15.3096 0.498321 17.8396 0.568321 20.2196C0.618321 21.9796 0.438305 25.0196 1.45831 25.6096C2.08831 25.9796 2.53831 26.0796 2.89831 26.0796C3.43831 26.0796 3.78832 25.8396 4.28832 25.8396C4.61832 25.8396 5.00831 25.9396 5.55831 26.2896C5.89831 26.4996 6.19831 26.5996 6.46831 26.5996C7.75831 26.5996 8.28832 24.3796 8.28832 21.7496C8.28832 18.5796 7.87831 18.2096 7.02831 16.9696C6.21831 15.7896 5.29832 15.3096 4.40832 15.3096H4.39831Z" fill="#5E5E5A"/>
</svg>
