<svg width="21" height="32" viewBox="0 0 21 32" fill="none" xmlns="http://www.w3.org/2000/svg">
<path d="M20.0798 27.0205C18.0598 26.7205 15.9998 26.5705 13.9598 26.5705H13.6798C11.7298 26.5805 9.76984 26.7405 7.83984 27.0205V26.1805C9.72984 25.9505 11.7098 25.7905 13.6898 25.7705H13.9698C16.0298 25.7705 18.1099 25.9305 20.1599 26.2505L20.0999 27.0105L20.0798 27.0205Z" fill="#D3D3D3"/>
<path d="M13.95 25.8502C15.97 25.8502 18 26.0102 20 26.3102V26.9302C18 26.6402 15.97 26.4902 13.95 26.4902H13.67C11.75 26.5002 9.80999 26.6502 7.89999 26.9302V26.3102C9.79999 26.0202 11.75 25.8602 13.67 25.8502H13.95ZM13.95 25.7002C13.86 25.7002 13.77 25.7002 13.67 25.7002C11.45 25.7202 9.46 25.9202 7.75 26.1802V27.1002C9.47 26.8402 11.46 26.6502 13.67 26.6402C13.76 26.6402 13.86 26.6402 13.95 26.6402C16.28 26.6402 18.37 26.8402 20.15 27.1002V26.1802C18.38 25.9002 16.29 25.7002 13.95 25.7002Z" fill="#5E5E5A"/>
<path d="M5.53953 31.5294C4.75953 31.5294 4.01953 31.2494 3.37953 30.7094C2.81953 30.2294 2.30951 30.0594 1.85951 29.9094C1.12951 29.6594 0.599523 29.4794 0.279523 28.1194C-0.0804766 26.6094 0.479539 24.7094 0.889539 23.3294C1.02954 22.8594 1.14952 22.4494 1.20952 22.1294C1.42952 20.9994 3.15954 19.3994 4.47954 19.3994H4.58952C5.85952 19.4994 7.55951 20.5294 7.76951 21.3394C7.96951 22.0994 8.16951 22.7994 8.35951 23.4394C9.24951 26.4994 9.77951 28.3494 8.10951 30.2994C7.41951 31.0994 6.50953 31.5394 5.53953 31.5394V31.5294Z" fill="#D3D3D3"/>
<path d="M4.48919 19.4696C4.48919 19.4696 4.5592 19.4696 4.5892 19.4696C5.8392 19.5596 7.49921 20.5596 7.69921 21.3496C7.89921 22.1096 8.09921 22.7896 8.28921 23.4496C9.16921 26.4896 9.69919 28.3196 8.04919 30.2396C7.37919 31.0196 6.4792 31.4596 5.5292 31.4596C4.7692 31.4596 4.03921 31.1796 3.41921 30.6596C2.84921 30.1696 2.32921 29.9996 1.87921 29.8396C1.16921 29.5996 0.659207 29.4296 0.349207 28.0996C-0.0107935 26.6096 0.549192 24.7196 0.959192 23.3396C1.09919 22.8596 1.21921 22.4496 1.28921 22.1296C1.50921 21.0296 3.19919 19.4596 4.48919 19.4596M4.48919 19.3096C3.17919 19.3096 1.37922 20.8896 1.13922 22.0996C0.899215 23.3496 -0.290787 26.0696 0.199213 28.1296C0.739213 30.3796 1.85921 29.5196 3.31921 30.7596C3.97921 31.3196 4.74919 31.5996 5.51919 31.5996C6.46919 31.5996 7.41919 31.1796 8.14919 30.3296C10.2092 27.9296 8.97919 25.6596 7.82919 21.2996C7.60919 20.4596 5.89919 19.4096 4.57919 19.3096C4.53919 19.3096 4.5092 19.3096 4.4692 19.3096H4.48919Z" fill="#5E5E5A"/>
</svg>
