<svg width="23" height="28" viewBox="0 0 23 28" fill="none" xmlns="http://www.w3.org/2000/svg">
<path d="M22.658 23.0205C20.638 22.7205 18.578 22.5705 16.538 22.5705H16.258C14.308 22.5805 12.338 22.7405 10.418 23.0205V22.1805C12.308 21.9505 14.2879 21.7905 16.2679 21.7705H16.5479C18.6079 21.7705 20.6879 21.9305 22.7379 22.2505L22.6779 23.0105L22.658 23.0205Z" fill="#D3D3D3"/>
<path d="M16.5281 21.8502C18.5481 21.8502 20.5781 22.0102 22.5781 22.3102V22.9302C20.5781 22.6402 18.5481 22.4902 16.5281 22.4902H16.2481C14.3281 22.5002 12.3881 22.6502 10.4781 22.9302V22.3102C12.3781 22.0202 14.3281 21.8602 16.2481 21.8502H16.5281ZM16.5281 21.7002C16.4381 21.7002 16.3481 21.7002 16.2481 21.7002C14.0281 21.7202 12.0381 21.9202 10.3281 22.1802V23.1002C12.0481 22.8402 14.0381 22.6502 16.2481 22.6402C16.3381 22.6402 16.4381 22.6402 16.5281 22.6402C18.8581 22.6402 20.9481 22.8402 22.7281 23.1002V22.1802C20.9581 21.9002 18.8681 21.7002 16.5281 21.7002Z" fill="#5E5E5A"/>
<path d="M5.7283 27.5307C5.5683 27.5307 5.40828 27.5007 5.23828 27.4507C4.22828 27.1507 3.85828 26.6907 3.48828 26.2607C3.18828 25.9007 2.90828 25.5607 2.29828 25.3307C0.918279 24.8207 0.738281 24.1207 0.738281 23.5007C0.738281 21.4007 1.36828 18.4907 2.42828 17.2507C3.04828 16.5207 4.40829 15.7607 5.58829 15.7607C5.70829 15.7607 5.81828 15.7607 5.92828 15.7807C6.52828 15.8607 6.92829 16.2507 7.30829 16.6307C7.67829 16.9807 8.0183 17.3207 8.4783 17.3207H8.73828C8.87828 17.3007 9.01828 17.2907 9.14828 17.2907C9.69828 17.2907 10.2483 17.4007 10.3983 18.7707C10.5083 19.7907 10.6983 20.2807 10.8583 20.7107C10.9783 21.0307 11.0883 21.3307 11.1583 21.8007L11.2083 22.1107C11.3783 23.1107 11.5083 23.9007 9.6683 24.6407C8.7483 25.0107 8.12828 25.6907 7.57828 26.3007C6.97828 26.9607 6.4583 27.5307 5.7283 27.5307Z" fill="#D3D3D3"/>
<path d="M5.59015 15.6904V15.8404C5.70015 15.8404 5.81017 15.8404 5.92017 15.8604C6.49017 15.9404 6.88016 16.3204 7.26016 16.6904C7.64016 17.0604 7.99016 17.4004 8.48016 17.4004H8.53015L8.75015 17.3904C8.89015 17.3904 9.03016 17.3704 9.16016 17.3704C9.70016 17.3704 10.1901 17.4804 10.3301 18.7804C10.4401 19.8104 10.6302 20.3004 10.7902 20.7404C10.9102 21.0504 11.0201 21.3504 11.0901 21.8104C11.1101 21.9204 11.1202 22.0204 11.1402 22.1204C11.3002 23.0804 11.4302 23.8504 9.64017 24.5604C8.71017 24.9304 8.08014 25.6304 7.52014 26.2404C6.93014 26.8904 6.42015 27.4504 5.72015 27.4504C5.57015 27.4504 5.42015 27.4304 5.25015 27.3804C4.26015 27.0804 3.90016 26.6404 3.54016 26.2104C3.25016 25.8604 2.94016 25.4904 2.32016 25.2604C0.99016 24.7704 0.81015 24.0904 0.81015 23.5004C0.81015 21.4204 1.44016 18.5304 2.48016 17.3004C3.09016 16.5804 4.42014 15.8404 5.58014 15.8404V15.6904M5.58014 15.6904C4.42014 15.6904 3.04015 16.4204 2.37015 17.2104C1.25015 18.5204 0.660156 21.5504 0.660156 23.5104C0.660156 24.2404 0.950142 24.9304 2.27014 25.4104C3.59014 25.9004 3.34014 26.9704 5.21014 27.5304C5.39014 27.5804 5.56015 27.6104 5.72015 27.6104C7.19015 27.6104 7.80016 25.4704 9.69016 24.7104C11.7902 23.8704 11.4002 22.9104 11.2302 21.7904C11.0602 20.6704 10.6602 20.5204 10.4702 18.7604C10.3202 17.4204 9.80015 17.2204 9.15015 17.2204C8.95015 17.2204 8.74014 17.2404 8.52014 17.2504C8.51014 17.2504 8.49016 17.2504 8.48016 17.2504C7.58016 17.2504 7.14015 15.8804 5.93015 15.7104C5.82015 15.6904 5.70014 15.6904 5.58014 15.6904Z" fill="#5E5E5A"/>
</svg>
