<svg width="20" height="26" viewBox="0 0 20 26" fill="none" xmlns="http://www.w3.org/2000/svg">
<path d="M19.2283 21.0205C17.2083 20.7205 15.1483 20.5705 13.1083 20.5705H12.8283C10.8783 20.5805 8.91828 20.7405 6.98828 21.0205V20.1805C8.87828 19.9505 10.8583 19.7905 12.8383 19.7705H13.1183C15.1783 19.7705 17.2583 19.9305 19.3083 20.2505L19.2483 21.0105L19.2283 21.0205Z" fill="#D3D3D3"/>
<path d="M13.0984 19.8502C15.1184 19.8502 17.1484 20.0102 19.1484 20.3102V20.9302C17.1484 20.6402 15.1184 20.4902 13.0984 20.4902H12.8185C10.8985 20.5002 8.95845 20.6502 7.04845 20.9302V20.3102C8.94845 20.0202 10.8985 19.8602 12.8185 19.8502H13.0984ZM13.0984 19.7002C13.0084 19.7002 12.9185 19.7002 12.8185 19.7002C10.5985 19.7202 8.60844 19.9202 6.89844 20.1802V21.1002C8.61844 20.8402 10.6085 20.6502 12.8185 20.6402C12.9085 20.6402 13.0084 20.6402 13.0984 20.6402C15.4284 20.6402 17.5184 20.8402 19.2984 21.1002V20.1802C17.5284 19.9002 15.4384 19.7002 13.0984 19.7002Z" fill="#5E5E5A"/>
<path d="M4.42065 25.5292C3.69065 25.5292 3.03065 25.2892 2.92065 24.9792C2.79065 24.6092 2.32065 24.4692 1.83065 24.3192C1.32065 24.1592 0.80065 23.9992 0.56065 23.5992C0.31065 23.1692 -0.089346 19.1192 0.720654 17.2792C0.940654 16.7792 1.24065 16.4792 1.59065 16.4092C2.11065 16.2992 2.36066 15.9492 2.74066 15.4292C2.93066 15.1692 3.16065 14.8592 3.47065 14.5092C3.66065 14.2992 3.86066 14.1992 4.10066 14.1992C4.81066 14.1992 5.61065 15.0892 6.04065 15.5592L6.15065 15.6792C6.43065 15.9792 6.82065 15.9992 7.17065 15.9992H7.59065C7.88065 15.9992 8.18066 16.0192 8.41066 16.1692C8.99066 16.5692 8.69066 20.8592 8.38066 22.0492C8.22066 22.6492 7.77065 23.0592 7.28065 23.4892C6.87065 23.8592 6.45065 24.2292 6.14065 24.7692C5.86065 25.2392 5.22065 25.5292 4.42065 25.5292Z" fill="#D3D3D3"/>
<path d="M4.09932 14.2796C4.76932 14.2796 5.55932 15.1496 5.98932 15.6196L6.09932 15.7396C6.37932 16.0496 6.77931 16.0896 7.17931 16.0896H7.38931H7.59932C7.87932 16.0896 8.15932 16.1096 8.37932 16.2596C8.87932 16.6096 8.64932 20.7996 8.31932 22.0596C8.16932 22.6396 7.73931 23.0196 7.24931 23.4596C6.83931 23.8296 6.40931 24.2096 6.08931 24.7496C5.82931 25.1996 5.20931 25.4697 4.42931 25.4697C3.64931 25.4697 3.08931 25.2097 2.99931 24.9697C2.85931 24.5697 2.36931 24.4196 1.85931 24.2596C1.36931 24.1096 0.849318 23.9496 0.629318 23.5796C0.379318 23.1496 -0.0106937 19.1496 0.789306 17.3296C0.999306 16.8496 1.27931 16.5696 1.60931 16.4996C2.15931 16.3796 2.42931 16.0096 2.80931 15.4896C2.99931 15.2196 3.21931 14.9196 3.52931 14.5696C3.69931 14.3796 3.88931 14.2896 4.10931 14.2896M4.10931 14.1396C3.86931 14.1396 3.62931 14.2396 3.41931 14.4696C2.49931 15.4996 2.32931 16.1896 1.57931 16.3496C-0.380685 16.7596 0.149313 23.0496 0.499313 23.6496C0.989313 24.4796 2.60931 24.3296 2.85931 25.0196C2.98931 25.3696 3.67931 25.6196 4.42931 25.6196C5.17931 25.6196 5.87931 25.3997 6.21931 24.8297C6.89931 23.6597 8.16931 23.2196 8.46931 22.0996C8.75931 20.9796 9.09931 16.5796 8.46931 16.1396C8.22931 15.9696 7.91931 15.9496 7.60931 15.9496C7.46931 15.9496 7.32932 15.9496 7.18932 15.9496C6.81932 15.9496 6.46931 15.9096 6.22931 15.6496C5.81931 15.1996 4.92931 14.1396 4.11931 14.1396H4.10931Z" fill="#5E5E5A"/>
</svg>
