<svg width="22" height="27" viewBox="0 0 22 27" fill="none" xmlns="http://www.w3.org/2000/svg">
<path d="M21.7986 22.0205C19.7786 21.7205 17.7186 21.5705 15.6786 21.5705H15.3986C13.4486 21.5805 11.4786 21.7405 9.55859 22.0205V21.1805C11.4486 20.9505 13.4386 20.7905 15.4086 20.7705H15.6886C17.7486 20.7705 19.8286 20.9305 21.8786 21.2505L21.8186 22.0105L21.7986 22.0205Z" fill="#D3D3D3"/>
<path d="M15.6687 20.8502C17.6887 20.8502 19.7188 21.0102 21.7188 21.3102V21.9302C19.7188 21.6402 17.6887 21.4902 15.6687 21.4902H15.3887C13.4687 21.5002 11.5287 21.6502 9.61874 21.9302V21.3102C11.5187 21.0202 13.4687 20.8602 15.3887 20.8502H15.6687ZM15.6687 20.7002C15.5787 20.7002 15.4887 20.7002 15.3887 20.7002C13.1687 20.7202 11.1788 20.9202 9.46875 21.1802V22.1002C11.1888 21.8402 13.1787 21.6502 15.3887 21.6402C15.4787 21.6402 15.5787 21.6402 15.6687 21.6402C17.9987 21.6402 20.0887 21.8402 21.8687 22.1002V21.1802C20.0987 20.9002 18.0087 20.7002 15.6687 20.7002Z" fill="#5E5E5A"/>
<path d="M8.40857 26.5292C7.90857 26.5292 7.45857 26.3492 7.10857 26.0092C6.87857 25.7792 6.63856 25.6792 6.33856 25.6792C6.21856 25.6792 6.10857 25.6892 5.99857 25.7092C5.88857 25.7192 5.78856 25.7392 5.67856 25.7392C5.52856 25.7392 5.39856 25.7092 5.27856 25.6392C5.10856 25.5492 4.95857 25.4092 4.82857 25.2792C4.63857 25.0992 4.45856 24.9292 4.22856 24.9292C4.05856 24.9292 3.87856 25.0292 3.67856 25.2192C3.41856 25.4792 2.98857 25.6192 2.49857 25.6192C1.77857 25.6192 1.09857 25.3092 0.768569 24.8392C0.148569 23.9392 0.458572 18.6292 1.20857 17.2692C1.68857 16.3892 2.06857 16.2692 2.37857 16.2692C2.56857 16.2692 2.75857 16.3192 2.96857 16.3792C3.20857 16.4392 3.45857 16.5092 3.73857 16.5092C3.97857 16.5092 4.20856 16.4592 4.44856 16.3592C5.09856 16.0692 5.77856 15.9092 6.42856 15.9092C7.30856 15.9092 8.07856 16.1892 8.66856 16.7292C8.99856 17.0292 9.38857 17.1692 9.87857 17.1692C10.1886 17.1692 10.4986 17.1092 10.7686 17.0592C10.9986 17.0192 11.1986 16.9792 11.3786 16.9792C11.6186 16.9792 11.7486 17.0592 11.8186 17.2392C12.1186 18.0192 12.0486 20.4892 11.3286 23.5392C10.8386 25.5992 9.50857 26.5192 8.40857 26.5192V26.5292Z" fill="#D3D3D3"/>
<path d="M6.43932 15.9996C7.29932 15.9996 8.04932 16.2796 8.62932 16.7996C8.96932 17.1096 9.37932 17.2596 9.88932 17.2596C10.2093 17.2596 10.5193 17.1996 10.7993 17.1496C11.0193 17.1096 11.2293 17.0696 11.3893 17.0696C11.6293 17.0696 11.7193 17.1496 11.7593 17.2796C12.0593 18.0496 11.9893 20.4996 11.2693 23.5396C10.7893 25.5596 9.48932 26.4596 8.41932 26.4596C7.93932 26.4596 7.50931 26.2896 7.17931 25.9596C6.93931 25.7196 6.66932 25.6096 6.35932 25.6096C6.23932 25.6096 6.12931 25.6196 6.00931 25.6396C5.90931 25.6496 5.80932 25.6696 5.69932 25.6696C5.55932 25.6696 5.44931 25.6396 5.33931 25.5796C5.16931 25.4896 5.03931 25.3596 4.89931 25.2396C4.69931 25.0496 4.50932 24.8696 4.24932 24.8696C4.05932 24.8696 3.85931 24.9696 3.64931 25.1896C3.40931 25.4296 2.99932 25.5696 2.51932 25.5696C1.81932 25.5696 1.16932 25.2796 0.849325 24.8196C0.239325 23.9296 0.549312 18.6796 1.28931 17.3296C1.74931 16.4896 2.10932 16.3696 2.38932 16.3696C2.56932 16.3696 2.75933 16.4196 2.95933 16.4696C3.18933 16.5296 3.45932 16.5996 3.74932 16.5996C3.99932 16.5996 4.24932 16.5496 4.48932 16.4396C5.12932 16.1496 5.79932 15.9996 6.43932 15.9996ZM6.43932 15.8496C5.75932 15.8496 5.06931 16.0196 4.42931 16.2996C4.18931 16.4096 3.95932 16.4496 3.74932 16.4496C3.22932 16.4496 2.80932 16.2096 2.38932 16.2096C1.98932 16.2096 1.59931 16.4196 1.14931 17.2496C0.379313 18.6496 0.0793199 23.9696 0.71932 24.8996C1.08932 25.4396 1.82931 25.7196 2.50931 25.7196C2.99931 25.7196 3.45932 25.5796 3.74932 25.2896C3.94932 25.0896 4.10932 25.0196 4.24932 25.0196C4.59932 25.0196 4.82932 25.4796 5.26932 25.7196C5.41932 25.7996 5.55932 25.8196 5.69932 25.8196C5.91932 25.8196 6.12932 25.7596 6.35932 25.7596C6.58932 25.7596 6.81932 25.8196 7.07932 26.0696C7.44932 26.4296 7.92931 26.6096 8.42931 26.6096C9.60931 26.6096 10.9493 25.5996 11.4293 23.5796C12.1093 20.6996 12.2593 18.1096 11.9193 17.2296C11.8293 16.9996 11.6493 16.9296 11.4093 16.9296C11.0193 16.9296 10.4693 17.1196 9.90932 17.1196C9.50932 17.1196 9.10932 17.0196 8.74932 16.6996C8.09932 16.1096 7.29933 15.8596 6.45933 15.8596L6.43932 15.8496Z" fill="#5E5E5A"/>
</svg>
