<svg width="23" height="25" viewBox="0 0 23 25" fill="none" xmlns="http://www.w3.org/2000/svg">
<path d="M22.3806 20.0205C20.3606 19.7205 18.3006 19.5705 16.2606 19.5705H15.9806C14.0306 19.5805 12.0606 19.7405 10.1406 20.0205V19.1805C12.0306 18.9505 14.0106 18.7905 15.9906 18.7705H16.2706C18.3306 18.7705 20.4106 18.9305 22.4606 19.2505L22.4006 20.0105L22.3806 20.0205Z" fill="#D3D3D3"/>
<path d="M16.2508 18.8502C18.2708 18.8502 20.3008 19.0102 22.3008 19.3102V19.9302C20.3008 19.6402 18.2708 19.4902 16.2508 19.4902H15.9708C14.0508 19.5002 12.1108 19.6502 10.2008 19.9302V19.3102C12.1008 19.0202 14.0508 18.8602 15.9708 18.8502H16.2508ZM16.2508 18.7002C16.1608 18.7002 16.0708 18.7002 15.9708 18.7002C13.7508 18.7202 11.7608 18.9202 10.0508 19.1802V20.1002C11.7708 19.8402 13.7608 19.6502 15.9708 19.6402C16.0608 19.6402 16.1608 19.6402 16.2508 19.6402C18.5808 19.6402 20.6708 19.8402 22.4508 20.1002V19.1802C20.6808 18.9002 18.5908 18.7002 16.2508 18.7002Z" fill="#5E5E5A"/>
<path d="M9.24317 24.5302C8.27317 24.5302 7.27317 23.8702 6.55317 23.3802C6.18317 23.1302 5.89316 22.9402 5.67316 22.8702C5.57316 22.8402 5.46317 22.8302 5.35317 22.8302C5.13317 22.8302 4.90317 22.8802 4.66317 22.9302C4.37317 22.9902 4.05317 23.0702 3.69317 23.0702C3.19317 23.0702 2.69316 22.9302 2.18316 22.6402C1.66316 22.3402 1.29317 21.7702 1.10317 20.9902C0.72317 19.4602 1.10317 17.3902 2.02317 15.9602C3.00317 14.4302 4.35317 14.2002 5.07317 14.2002C5.60317 14.2002 6.13316 14.3202 6.48316 14.5302C7.02316 14.8402 7.56316 14.9902 8.14316 14.9902C8.68316 14.9902 9.17316 14.8702 9.64316 14.7502C10.0632 14.6402 10.4632 14.5402 10.8532 14.5402C11.5432 14.5402 12.0932 14.8702 12.6432 15.6202C13.4832 16.7802 12.6132 22.1502 10.6532 23.9602C10.2432 24.3402 9.78316 24.5302 9.26316 24.5302H9.24317Z" fill="#D3D3D3"/>
<path d="M5.0514 14.2804C5.5714 14.2804 6.08139 14.4004 6.43139 14.6004C6.98139 14.9204 7.5314 15.0704 8.1314 15.0704C8.6814 15.0704 9.17139 14.9404 9.65139 14.8204C10.0714 14.7104 10.4614 14.6104 10.8414 14.6104C11.5114 14.6104 12.0414 14.9404 12.5614 15.6604C13.3814 16.8104 12.5214 22.1104 10.5814 23.9104C10.1814 24.2804 9.7414 24.4604 9.2414 24.4604C8.2914 24.4604 7.31139 23.8004 6.59139 23.3204C6.21139 23.0704 5.9214 22.8704 5.6914 22.8004C5.5814 22.7704 5.4714 22.7504 5.3514 22.7504C5.1214 22.7504 4.89139 22.8004 4.64139 22.8604C4.34139 22.9304 4.04139 22.9904 3.68139 22.9904C3.19139 22.9904 2.7114 22.8504 2.2114 22.5704C1.7114 22.2804 1.3514 21.7304 1.1614 20.9704C0.791397 19.4604 1.1614 17.4104 2.0714 15.9904C3.0314 14.4904 4.3514 14.2704 5.0514 14.2704M5.0514 14.1204C4.0414 14.1204 2.8214 14.5404 1.9414 15.9104C0.531396 18.1104 0.431393 21.7204 2.14139 22.7004C2.74139 23.0404 3.2414 23.1404 3.6914 23.1404C4.3714 23.1404 4.89139 22.9004 5.36139 22.9004C5.46139 22.9004 5.5614 22.9104 5.6614 22.9404C6.2814 23.1204 7.77139 24.6003 9.25139 24.6003C9.74139 24.6003 10.2314 24.4403 10.6914 24.0103C12.6814 22.1703 13.5714 16.7904 12.6914 15.5704C12.0714 14.7004 11.4614 14.4504 10.8414 14.4504C10.0014 14.4504 9.1314 14.9004 8.1314 14.9004C7.6314 14.9004 7.09139 14.7904 6.51139 14.4504C6.19139 14.2604 5.66139 14.1104 5.06139 14.1104L5.0514 14.1204Z" fill="#5E5E5A"/>
</svg>
