<svg width="21" height="28" viewBox="0 0 21 28" fill="none" xmlns="http://www.w3.org/2000/svg">
<path d="M20.3611 23.0205C18.3411 22.7205 16.2811 22.5705 14.2411 22.5705H13.9611C12.0111 22.5805 10.0411 22.7405 8.12109 23.0205V22.1805C10.0111 21.9505 11.9911 21.7905 13.9711 21.7705H14.2511C16.3111 21.7705 18.3911 21.9305 20.4411 22.2505L20.3811 23.0105L20.3611 23.0205Z" fill="#D3D3D3"/>
<path d="M14.2313 21.8502C16.2513 21.8502 18.2812 22.0102 20.2812 22.3102V22.9302C18.2812 22.6402 16.2513 22.4902 14.2313 22.4902H13.9513C12.0313 22.5002 10.0912 22.6502 8.18124 22.9302V22.3102C10.0812 22.0202 12.0313 21.8602 13.9513 21.8502H14.2313ZM14.2313 21.7002C14.1413 21.7002 14.0513 21.7002 13.9513 21.7002C11.7313 21.7202 9.74125 21.9202 8.03125 22.1802V23.1002C9.75125 22.8402 11.7413 22.6502 13.9513 22.6402C14.0413 22.6402 14.1413 22.6402 14.2313 22.6402C16.5613 22.6402 18.6512 22.8402 20.4312 23.1002V22.1802C18.6612 21.9002 16.5713 21.7002 14.2313 21.7002Z" fill="#5E5E5A"/>
<path d="M4.5224 27.53C4.0524 27.53 3.67241 27.47 3.31241 27.34C3.02241 27.23 2.70242 27.17 2.38242 27.11C2.08242 27.05 1.77242 26.99 1.47242 26.89C0.932415 26.71 0.742424 24.49 1.01242 21.48C1.16242 19.82 1.4324 19.55 1.8324 19.14C2.0424 18.92 2.29242 18.68 2.57242 18.19C3.70242 16.24 4.6224 15.29 5.3624 15.29C5.9624 15.29 6.4224 15.91 6.8624 16.5C7.2924 17.08 7.7424 17.68 8.3324 17.72C8.9024 17.76 9.8624 20.58 10.0824 23.41C10.2424 25.5 9.89242 26.8 9.13242 26.98C9.08242 26.99 9.01241 27.02 8.90241 27.06C8.53241 27.21 7.84241 27.49 6.90241 27.49C6.75241 27.49 6.60242 27.49 6.44242 27.47C6.33242 27.46 6.2224 27.45 6.1124 27.45C5.8724 27.45 5.6224 27.47 5.3624 27.49C5.0924 27.51 4.80242 27.53 4.51242 27.53H4.5224Z" fill="#D3D3D3"/>
<path d="M5.37147 15.3604C5.93147 15.3604 6.38147 15.9604 6.81147 16.5404C7.25147 17.1304 7.71146 17.7404 8.33146 17.7904C8.80146 17.8304 9.79148 20.5604 10.0115 23.4104C10.1715 25.4604 9.84147 26.7304 9.12147 26.9004C9.07147 26.9104 8.99148 26.9404 8.88148 26.9904C8.51148 27.1404 7.83148 27.4104 6.91148 27.4104C6.76148 27.4104 6.61146 27.4104 6.46146 27.3904C6.35146 27.3804 6.24147 27.3704 6.12147 27.3704C5.88147 27.3704 5.63147 27.3904 5.37147 27.4104C5.10147 27.4304 4.82147 27.4504 4.53147 27.4504C4.07147 27.4504 3.69148 27.3904 3.35148 27.2604C3.05148 27.1504 2.74148 27.0904 2.41148 27.0204C2.11148 26.9604 1.81148 26.9004 1.51148 26.8004C1.08148 26.6604 0.801479 24.7804 1.10148 21.4704C1.25148 19.8404 1.51147 19.5804 1.90147 19.1804C2.11147 18.9704 2.36147 18.7104 2.65147 18.2104C3.77147 16.2804 4.66148 15.3404 5.38148 15.3404M5.38148 15.1904C4.70148 15.1904 3.81146 15.9104 2.52146 18.1304C1.69146 19.5604 1.18148 18.9104 0.951485 21.4504C0.721485 23.9904 0.771464 26.7104 1.46146 26.9404C2.09146 27.1504 2.73146 27.1904 3.30146 27.3904C3.71146 27.5404 4.13148 27.5904 4.54148 27.5904C5.10148 27.5904 5.64148 27.5104 6.13148 27.5104C6.24148 27.5104 6.35148 27.5104 6.45148 27.5204C6.61148 27.5404 6.77149 27.5404 6.92149 27.5404C8.12149 27.5404 8.95148 27.0804 9.16148 27.0304C11.4115 26.5104 9.49148 17.7104 8.35148 17.6304C7.20148 17.5404 6.61148 15.2004 5.38148 15.2004V15.1904Z" fill="#5E5E5A"/>
</svg>
