<svg width="20" height="27" viewBox="0 0 20 27" fill="none" xmlns="http://www.w3.org/2000/svg">
<path d="M19.7908 22.0205C17.7708 21.7205 15.7108 21.5705 13.6708 21.5705H13.3908C11.4408 21.5805 9.48078 21.7405 7.55078 22.0205V21.1805C9.44078 20.9505 11.4308 20.7905 13.4008 20.7705H13.6808C15.7408 20.7705 17.8208 20.9305 19.8708 21.2505L19.8108 22.0105L19.7908 22.0205Z" fill="#D3D3D3"/>
<path d="M13.6609 20.8502C15.6809 20.8502 17.7109 21.0102 19.7109 21.3102V21.9302C17.7109 21.6402 15.6809 21.4902 13.6609 21.4902H13.381C11.461 21.5002 9.52093 21.6502 7.61093 21.9302V21.3102C9.51093 21.0202 11.461 20.8602 13.381 20.8502H13.6609ZM13.6609 20.7002C13.5709 20.7002 13.481 20.7002 13.381 20.7002C11.161 20.7202 9.17094 20.9202 7.46094 21.1802V22.1002C9.18094 21.8402 11.171 21.6502 13.381 21.6402C13.471 21.6402 13.5709 21.6402 13.6609 21.6402C15.9909 21.6402 18.0809 21.8402 19.8609 22.1002V21.1802C18.0909 20.9002 16.0009 20.7002 13.6609 20.7002Z" fill="#5E5E5A"/>
<path d="M2.67188 26.5291C2.40187 26.5291 2.15185 26.4191 1.93185 26.1991C1.29185 25.5491 0.921875 23.9291 0.921875 21.7491C0.921875 18.7991 1.27187 18.3091 2.01187 17.2291L2.17188 16.9991C2.90188 15.9291 3.79187 15.3691 4.73187 15.3691C5.51187 15.3691 6.31185 15.7591 6.99185 16.4591C7.95185 17.4491 8.52185 18.8791 8.49185 20.2091C8.49185 20.4991 8.49187 20.8191 8.48187 21.1591C8.48187 22.8091 8.46188 25.0691 7.64188 25.5391C7.09188 25.8591 6.64185 25.9991 6.24185 25.9991C5.98185 25.9991 5.75187 25.9391 5.54187 25.8791C5.33187 25.8191 5.11187 25.7591 4.85187 25.7591C4.46187 25.7591 4.04187 25.9091 3.54187 26.2191C3.23187 26.4191 2.93187 26.5191 2.67188 26.5191V26.5291Z" fill="#D3D3D3"/>
<path d="M4.74109 15.4596C5.50109 15.4596 6.28111 15.8396 6.95111 16.5296C7.90111 17.4996 8.46109 18.9196 8.43109 20.2196C8.43109 20.5096 8.43111 20.8296 8.42111 21.1696C8.42111 22.7996 8.40109 25.0396 7.62109 25.4896C7.08109 25.7996 6.6511 25.9396 6.2511 25.9396C6.0011 25.9396 5.79111 25.8796 5.57111 25.8196C5.35111 25.7596 5.13108 25.6996 4.86108 25.6996C4.45108 25.6996 4.02111 25.8496 3.51111 26.1696C3.21111 26.3596 2.93109 26.4596 2.68109 26.4596C2.43109 26.4596 2.2011 26.3596 2.0011 26.1596C1.3711 25.5296 1.01111 23.9296 1.01111 21.7596C1.01111 18.8296 1.35109 18.3496 2.09109 17.2896L2.2511 17.0596C2.9711 16.0196 3.8311 15.4596 4.7511 15.4596M4.7511 15.3096C3.8611 15.3096 2.9411 15.7896 2.1311 16.9696C1.2811 18.2196 0.871094 18.5796 0.871094 21.7496C0.871094 24.3696 1.4011 26.5996 2.6911 26.5996C2.9611 26.5996 3.2611 26.4996 3.6011 26.2896C4.1511 25.9496 4.54109 25.8396 4.87109 25.8396C5.37109 25.8396 5.72111 26.0796 6.26111 26.0796C6.62111 26.0796 7.07111 25.9696 7.70111 25.6096C8.72111 25.0196 8.54109 21.9796 8.59109 20.2196C8.66109 17.8396 6.80111 15.3096 4.76111 15.3096H4.7511Z" fill="#5E5E5A"/>
</svg>
