<svg width="21" height="32" viewBox="0 0 21 32" fill="none" xmlns="http://www.w3.org/2000/svg">
<path d="M20.2087 27.0205C18.1887 26.7205 16.1287 26.5705 14.0887 26.5705H13.8087C11.8587 26.5805 9.89875 26.7405 7.96875 27.0205V26.1805C9.85875 25.9505 11.8388 25.7905 13.8188 25.7705H14.0988C16.1588 25.7705 18.2388 25.9305 20.2888 26.2505L20.2288 27.0105L20.2087 27.0205Z" fill="#D3D3D3"/>
<path d="M14.0789 25.8502C16.0989 25.8502 18.1289 26.0102 20.1289 26.3102V26.9302C18.1289 26.6402 16.0989 26.4902 14.0789 26.4902H13.7989C11.8789 26.5002 9.9389 26.6502 8.0289 26.9302V26.3102C9.9289 26.0202 11.8789 25.8602 13.7989 25.8502H14.0789ZM14.0789 25.7002C13.9889 25.7002 13.8989 25.7002 13.7989 25.7002C11.5789 25.7202 9.58891 25.9202 7.87891 26.1802V27.1002C9.59891 26.8402 11.5889 26.6502 13.7989 26.6402C13.8889 26.6402 13.9889 26.6402 14.0789 26.6402C16.4089 26.6402 18.4989 26.8402 20.2789 27.1002V26.1802C18.5089 25.9002 16.4189 25.7002 14.0789 25.7002Z" fill="#5E5E5A"/>
<path d="M4.59147 31.5304C3.62147 31.5304 2.71146 31.0904 2.02146 30.2904C0.341465 28.3404 0.881465 26.4904 1.77146 23.4304C1.96146 22.7904 2.16146 22.0904 2.36146 21.3304C2.57146 20.5204 4.27148 19.4904 5.54148 19.4004H5.65147C6.97147 19.4004 8.70149 21.0004 8.92149 22.1304C8.98149 22.4504 9.10147 22.8604 9.24147 23.3304C9.65147 24.7104 10.2115 26.6104 9.85148 28.1204C9.52148 29.4904 9.00146 29.6704 8.27146 29.9104C7.82146 30.0604 7.31148 30.2304 6.75148 30.7104C6.12148 31.2504 5.37147 31.5304 4.59147 31.5304Z" fill="#D3D3D3"/>
<path d="M5.62985 19.4701C6.91985 19.4701 8.60983 21.0401 8.82983 22.1401C8.88983 22.4601 9.00985 22.8701 9.15985 23.3501C9.56985 24.7301 10.1298 26.6101 9.76983 28.1101C9.44983 29.4401 8.93983 29.6101 8.23983 29.8501C7.78983 30.0001 7.26986 30.1801 6.69986 30.6701C6.07986 31.1901 5.34984 31.4701 4.58984 31.4701C3.63984 31.4701 2.74985 31.0401 2.06985 30.2501C0.419851 28.3301 0.949831 26.4901 1.82983 23.4601C2.01983 22.8001 2.21986 22.1201 2.41986 21.3601C2.62986 20.5701 4.27984 19.5701 5.52984 19.4801C5.55984 19.4801 5.59985 19.4801 5.62985 19.4801M5.62985 19.3301C5.62985 19.3301 5.54983 19.3301 5.51983 19.3301C4.19983 19.4301 2.48983 20.4801 2.26983 21.3201C1.12983 25.6801 -0.110144 27.9501 1.94986 30.3501C2.67986 31.2001 3.62983 31.6201 4.57983 31.6201C5.34983 31.6201 6.12984 31.3401 6.77984 30.7801C8.23984 29.5301 9.36984 30.4001 9.89984 28.1501C10.3898 26.1001 9.20984 23.3701 8.95984 22.1201C8.71984 20.9101 6.92983 19.3301 5.60983 19.3301H5.62985Z" fill="#5E5E5A"/>
</svg>
