<svg width="22" height="28" viewBox="0 0 22 28" fill="none" xmlns="http://www.w3.org/2000/svg">
<path d="M21.6385 23.0205C19.6185 22.7205 17.5584 22.5705 15.5184 22.5705H15.2384C13.2884 22.5805 11.3184 22.7405 9.39844 23.0205V22.1805C11.2884 21.9505 13.2684 21.7905 15.2484 21.7705H15.5284C17.5884 21.7705 19.6684 21.9305 21.7184 22.2505L21.6584 23.0105L21.6385 23.0205Z" fill="#D3D3D3"/>
<path d="M15.5086 21.8502C17.5286 21.8502 19.5586 22.0102 21.5586 22.3102V22.9302C19.5586 22.6402 17.5286 22.4902 15.5086 22.4902H15.2286C13.3086 22.5002 11.3686 22.6502 9.45859 22.9302V22.3102C11.3586 22.0202 13.3086 21.8602 15.2286 21.8502H15.5086ZM15.5086 21.7002C15.4186 21.7002 15.3286 21.7002 15.2286 21.7002C13.0086 21.7202 11.0186 21.9202 9.30859 22.1802V23.1002C11.0286 22.8402 13.0186 22.6502 15.2286 22.6402C15.3186 22.6402 15.4186 22.6402 15.5086 22.6402C17.8386 22.6402 19.9286 22.8402 21.7086 23.1002V22.1802C19.9386 21.9002 17.8486 21.7002 15.5086 21.7002Z" fill="#5E5E5A"/>
<path d="M6.39118 27.5307C5.65118 27.5307 5.13117 26.9607 4.53117 26.3007C3.98117 25.6907 3.36117 25.0107 2.44117 24.6407C0.59117 23.9007 0.731182 23.1107 0.891182 22.1107L0.94117 21.8007C1.01117 21.3307 1.12116 21.0307 1.24116 20.7107C1.40116 20.2807 1.59118 19.7907 1.70118 18.7707C1.85118 17.4107 2.40118 17.2907 2.95118 17.2907C3.08118 17.2907 3.22115 17.2907 3.36115 17.3107L3.58115 17.3207C4.09115 17.3207 4.43118 16.9907 4.79118 16.6307C5.18118 16.2507 5.58118 15.8607 6.17118 15.7807C6.28118 15.7607 6.39118 15.7607 6.51118 15.7607C7.69118 15.7607 9.04118 16.5207 9.67118 17.2507C10.7312 18.4907 11.3612 21.4007 11.3612 23.5007C11.3612 24.1207 11.1712 24.8207 9.80116 25.3307C9.19116 25.5607 8.91115 25.9007 8.61115 26.2607C8.25115 26.7007 7.88116 27.1507 6.87116 27.4507C6.70116 27.5007 6.54117 27.5307 6.38117 27.5307H6.39118Z" fill="#D3D3D3"/>
<path d="M6.54151 15.8404C7.70151 15.8404 9.03151 16.5804 9.64151 17.3004C10.6915 18.5304 11.3115 21.4204 11.3115 23.5004C11.3115 24.0904 11.1315 24.7704 9.80149 25.2604C9.17149 25.4904 8.87149 25.8604 8.58149 26.2104C8.23149 26.6404 7.86149 27.0804 6.87149 27.3804C6.70149 27.4304 6.55149 27.4504 6.40149 27.4504C5.70149 27.4504 5.1915 26.8904 4.6015 26.2404C4.0515 25.6304 3.42151 24.9404 2.48151 24.5604C0.69151 23.8404 0.82151 23.0804 0.98151 22.1204C1.00151 22.0204 1.0215 21.9104 1.0315 21.8104C1.1015 21.3504 1.21149 21.0504 1.33149 20.7404C1.49149 20.3004 1.68151 19.8104 1.79151 18.7804C1.93151 17.4804 2.43149 17.3704 2.96149 17.3704C3.09149 17.3704 3.23149 17.3704 3.37149 17.3904H3.5915L3.64151 17.4004C4.13151 17.4004 4.49148 17.0504 4.86148 16.6904C5.24148 16.3204 5.63151 15.9404 6.20151 15.8604C6.31151 15.8404 6.4215 15.8404 6.5315 15.8404M6.5315 15.6904C6.4115 15.6904 6.29149 15.6904 6.18149 15.7104C4.98149 15.8804 4.5315 17.2504 3.6315 17.2504C3.6215 17.2504 3.6015 17.2504 3.5915 17.2504C3.3715 17.2404 3.16149 17.2204 2.96149 17.2204C2.31149 17.2204 1.79151 17.4204 1.64151 18.7604C1.44151 20.5204 1.0515 20.6604 0.881504 21.7904C0.711504 22.9104 0.321512 23.8704 2.42151 24.7104C4.32151 25.4704 4.92151 27.6104 6.39151 27.6104C6.55151 27.6104 6.72149 27.5804 6.90149 27.5304C8.77149 26.9704 8.52149 25.9004 9.84149 25.4104C11.1615 24.9204 11.4515 24.2404 11.4515 23.5104C11.4515 21.5604 10.8615 18.5204 9.74149 17.2104C9.07149 16.4204 7.6915 15.6904 6.5315 15.6904Z" fill="#5E5E5A"/>
</svg>
