<svg width="21" height="26" viewBox="0 0 21 26" fill="none" xmlns="http://www.w3.org/2000/svg">
<path d="M20.0681 21.0205C18.0481 20.7205 15.9882 20.5705 13.9482 20.5705H13.6682C11.7182 20.5805 9.75812 20.7405 7.82812 21.0205V20.1805C9.71812 19.9505 11.6981 19.7905 13.6781 19.7705H13.9581C16.0181 19.7705 18.0981 19.9305 20.1481 20.2505L20.0881 21.0105L20.0681 21.0205Z" fill="#D3D3D3"/>
<path d="M13.9383 19.8502C15.9583 19.8502 17.9883 20.0102 19.9883 20.3102V20.9302C17.9883 20.6402 15.9583 20.4902 13.9383 20.4902H13.6583C11.7383 20.5002 9.79831 20.6502 7.88831 20.9302V20.3102C9.78831 20.0202 11.7383 19.8602 13.6583 19.8502H13.9383ZM13.9383 19.7002C13.8483 19.7002 13.7583 19.7002 13.6583 19.7002C11.4383 19.7202 9.44828 19.9202 7.73828 20.1802V21.1002C9.45828 20.8402 11.4483 20.6502 13.6583 20.6402C13.7483 20.6402 13.8483 20.6402 13.9383 20.6402C16.2683 20.6402 18.3583 20.8402 20.1383 21.1002V20.1802C18.3683 19.9002 16.2783 19.7002 13.9383 19.7002Z" fill="#5E5E5A"/>
<path d="M4.69854 25.5304C3.89854 25.5304 3.25853 25.2504 2.97853 24.7704C2.66853 24.2404 2.24852 23.8604 1.83852 23.4904C1.35852 23.0604 0.898514 22.6504 0.738514 22.0504C0.428514 20.8704 0.128515 16.5804 0.708515 16.1704C0.938515 16.0104 1.23852 15.9904 1.52852 15.9904H1.94854C2.29854 15.9904 2.69852 15.9704 2.96852 15.6704L3.07851 15.5504C3.50851 15.0704 4.31851 14.1904 5.01851 14.1904C5.25851 14.1904 5.46852 14.2904 5.64852 14.5004C5.95852 14.8504 6.18853 15.1604 6.37853 15.4204C6.75853 15.9404 7.00852 16.2904 7.52852 16.4004C7.88852 16.4704 8.17852 16.7704 8.39852 17.2704C9.22852 19.1504 8.81852 23.1404 8.55852 23.5904C8.31852 23.9904 7.79853 24.1504 7.28853 24.3104C6.78853 24.4604 6.32854 24.6004 6.19854 24.9704C6.08854 25.2804 5.42854 25.5204 4.69854 25.5204V25.5304Z" fill="#D3D3D3"/>
<path d="M5.02029 14.1301V14.2801C5.24029 14.2801 5.43031 14.3701 5.60031 14.5601C5.91031 14.9101 6.13031 15.2101 6.32031 15.4801C6.70031 16.0001 6.97029 16.3701 7.52029 16.4901C7.85029 16.5601 8.1303 16.8401 8.3403 17.3201C9.1403 19.1401 8.7503 23.1401 8.5003 23.5701C8.2803 23.9501 7.77029 24.1001 7.27029 24.2501C6.76029 24.4101 6.27031 24.5601 6.13031 24.9601C6.04031 25.2001 5.47032 25.4601 4.70032 25.4601C3.93032 25.4601 3.31031 25.1901 3.04031 24.7401C2.72031 24.2001 2.30031 23.8101 1.88031 23.4501C1.38031 23.0101 0.960302 22.6301 0.810302 22.0501C0.480302 20.7901 0.250305 16.6001 0.750305 16.2501C0.960305 16.1001 1.2503 16.0801 1.5303 16.0801H1.74029H1.95032C2.34032 16.0801 2.7403 16.0401 3.0303 15.7301L3.14032 15.6101C3.56032 15.1401 4.3503 14.2701 5.0303 14.2701V14.1201M5.0303 14.1201C4.2303 14.1201 3.34032 15.1801 2.92032 15.6301C2.68032 15.8901 2.3303 15.9301 1.9603 15.9301C1.8203 15.9301 1.68031 15.9301 1.54031 15.9301C1.23031 15.9301 0.920297 15.9601 0.680297 16.1201C0.0502973 16.5601 0.390297 20.9501 0.680297 22.0801C0.970297 23.2001 2.2403 23.6401 2.9303 24.8101C3.2603 25.3801 4.01031 25.6001 4.72031 25.6001C5.46031 25.6001 6.16031 25.3501 6.29031 25.0001C6.53031 24.3201 8.1603 24.4601 8.6503 23.6301C9.0003 23.0301 9.54031 16.7401 7.57031 16.3301C6.82031 16.1701 6.65032 15.4801 5.73032 14.4501C5.52032 14.2101 5.28031 14.1201 5.04031 14.1201H5.0303Z" fill="#5E5E5A"/>
</svg>
