<svg width="22" height="27" viewBox="0 0 22 27" fill="none" xmlns="http://www.w3.org/2000/svg">
<path d="M21.49 22.0205C19.47 21.7205 17.41 21.5705 15.37 21.5705H15.09C13.14 21.5805 11.17 21.7405 9.25 22.0205V21.1805C11.14 20.9505 13.12 20.7905 15.1 20.7705H15.38C17.44 20.7705 19.52 20.9305 21.57 21.2505L21.51 22.0105L21.49 22.0205Z" fill="#D3D3D3"/>
<path d="M15.3601 20.8502C17.3801 20.8502 19.4102 21.0102 21.4102 21.3102V21.9302C19.4102 21.6402 17.3801 21.4902 15.3601 21.4902H15.0801C13.1601 21.5002 11.2202 21.6502 9.31015 21.9302V21.3102C11.2102 21.0202 13.1601 20.8602 15.0801 20.8502H15.3601ZM15.3601 20.7002C15.2701 20.7002 15.1801 20.7002 15.0801 20.7002C12.8601 20.7202 10.8702 20.9202 9.16016 21.1802V22.1002C10.8802 21.8402 12.8701 21.6502 15.0801 21.6402C15.1701 21.6402 15.2701 21.6402 15.3601 21.6402C17.6901 21.6402 19.7802 21.8402 21.5602 22.1002V21.1802C19.7902 20.9002 17.7001 20.7002 15.3601 20.7002Z" fill="#5E5E5A"/>
<path d="M3.7099 26.5299C2.6099 26.5299 1.26992 25.6099 0.789919 23.5499C0.069919 20.4999 -0.000101715 18.0199 0.299898 17.2499C0.369898 17.0699 0.499901 16.9899 0.739901 16.9899C0.919901 16.9899 1.11992 17.0299 1.34992 17.0699C1.61992 17.1199 1.9299 17.1799 2.2399 17.1799C2.7299 17.1799 3.11992 17.0299 3.44992 16.7399C4.03992 16.1999 4.80991 15.9199 5.68991 15.9199C6.33991 15.9199 7.01992 16.0699 7.66992 16.3699C7.89992 16.4699 8.12992 16.5199 8.37992 16.5199C8.65992 16.5199 8.9099 16.4499 9.1499 16.3899C9.3599 16.3299 9.5499 16.2799 9.7399 16.2799C10.0499 16.2799 10.4299 16.3999 10.9099 17.2799C11.6599 18.6399 11.9599 23.9499 11.3499 24.8499C11.0199 25.3299 10.3499 25.6299 9.61991 25.6299C9.11991 25.6299 8.68991 25.4799 8.43991 25.2299C8.23991 25.0299 8.05993 24.9399 7.88993 24.9399C7.65992 24.9399 7.47992 25.1099 7.28992 25.2899C7.14992 25.4199 7.00991 25.5499 6.83991 25.6499C6.71991 25.7199 6.58991 25.7499 6.43991 25.7499C6.32991 25.7499 6.22991 25.7399 6.11991 25.7199C6.00991 25.7099 5.88991 25.6899 5.77991 25.6899C5.47991 25.6899 5.23992 25.7899 5.00992 26.0199C4.65992 26.3599 4.20991 26.5399 3.71991 26.5399L3.7099 26.5299Z" fill="#D3D3D3"/>
<path d="M5.68841 15.9998C6.31841 15.9998 6.99842 16.1498 7.63842 16.4398C7.87842 16.5498 8.11841 16.5998 8.37841 16.5998C8.66841 16.5998 8.93842 16.5298 9.16842 16.4698C9.36842 16.4198 9.55839 16.3698 9.73839 16.3698C10.0284 16.3698 10.3784 16.4798 10.8384 17.3298C11.5784 18.6798 11.8884 23.9298 11.2784 24.8198C10.9684 25.2798 10.3084 25.5698 9.60839 25.5698C9.12839 25.5698 8.71841 25.4298 8.47841 25.1898C8.25841 24.9698 8.06841 24.8698 7.87841 24.8698C7.61841 24.8698 7.42841 25.0498 7.22841 25.2398C7.09841 25.3698 6.95841 25.4898 6.78841 25.5798C6.67841 25.6398 6.5684 25.6698 6.4284 25.6698C6.3284 25.6698 6.2284 25.6598 6.1184 25.6398C5.9984 25.6198 5.88839 25.6098 5.76839 25.6098C5.44839 25.6098 5.18841 25.7198 4.94841 25.9598C4.60841 26.2898 4.17839 26.4598 3.70839 26.4598C2.63839 26.4598 1.33839 25.5598 0.858388 23.5398C0.138388 20.4998 0.0683979 18.0498 0.368398 17.2798C0.418398 17.1498 0.498393 17.0698 0.738393 17.0698C0.908393 17.0698 1.10839 17.1098 1.32839 17.1498C1.60839 17.1998 1.91839 17.2598 2.23839 17.2598C2.74839 17.2598 3.1584 17.1098 3.4984 16.7998C4.0684 16.2698 4.82841 15.9998 5.68841 15.9998ZM5.68841 15.8498C4.85841 15.8498 4.0484 16.0998 3.3984 16.6898C3.0384 17.0198 2.63839 17.1098 2.23839 17.1098C1.67839 17.1098 1.12839 16.9198 0.738393 16.9198C0.498393 16.9198 0.318414 16.9898 0.228414 17.2198C-0.111586 18.0998 0.0284041 20.6898 0.718404 23.5698C1.1984 25.5898 2.5284 26.5998 3.7184 26.5998C4.2184 26.5998 4.69841 26.4198 5.06841 26.0598C5.31841 25.8098 5.55841 25.7498 5.78841 25.7498C6.00841 25.7498 6.22841 25.8098 6.44841 25.8098C6.58841 25.8098 6.73841 25.7898 6.87841 25.7098C7.30841 25.4698 7.5484 25.0098 7.8984 25.0098C8.0384 25.0098 8.1984 25.0898 8.3984 25.2798C8.6884 25.5598 9.14842 25.7098 9.63842 25.7098C10.3184 25.7098 11.0584 25.4298 11.4284 24.8898C12.0584 23.9598 11.7684 18.6498 10.9984 17.2398C10.5484 16.4198 10.1584 16.1998 9.75841 16.1998C9.33841 16.1998 8.9084 16.4398 8.3984 16.4398C8.1884 16.4398 7.9684 16.3998 7.7184 16.2898C7.0784 15.9998 6.38839 15.8398 5.70839 15.8398L5.68841 15.8498Z" fill="#5E5E5A"/>
</svg>
