<svg width="21" height="25" viewBox="0 0 21 25" fill="none" xmlns="http://www.w3.org/2000/svg">
<path d="M20.9197 20.0205C18.8997 19.7205 16.8397 19.5705 14.7997 19.5705H14.5197C12.5697 19.5805 10.6097 19.7405 8.67969 20.0205V19.1805C10.5697 18.9505 12.5497 18.7905 14.5297 18.7705H14.8097C16.8697 18.7705 18.9497 18.9305 20.9997 19.2505L20.9397 20.0105L20.9197 20.0205Z" fill="#D3D3D3"/>
<path d="M14.7899 18.8502C16.8099 18.8502 18.8398 19.0102 20.8398 19.3102V19.9302C18.8398 19.6402 16.8099 19.4902 14.7899 19.4902H14.5099C12.5899 19.5002 10.6498 19.6502 8.73984 19.9302V19.3102C10.6398 19.0202 12.5899 18.8602 14.5099 18.8502H14.7899ZM14.7899 18.7002C14.6999 18.7002 14.6099 18.7002 14.5099 18.7002C12.2899 18.7202 10.2998 18.9202 8.58984 19.1802V20.1002C10.3098 19.8402 12.2999 19.6502 14.5099 19.6402C14.5999 19.6402 14.6999 19.6402 14.7899 19.6402C17.1199 19.6402 19.2098 19.8402 20.9898 20.1002V19.1802C19.2198 18.9002 17.1299 18.7002 14.7899 18.7002Z" fill="#5E5E5A"/>
<path d="M3.89075 24.5302C3.37075 24.5302 2.91073 24.3402 2.50073 23.9602C0.540733 22.1502 -0.329257 16.7802 0.510743 15.6202C1.05074 14.8702 1.60072 14.5402 2.30072 14.5402C2.69072 14.5402 3.09074 14.6402 3.51074 14.7502C3.98074 14.8702 4.48074 14.9902 5.01074 14.9902C5.59074 14.9902 6.13075 14.8402 6.67075 14.5302C7.03075 14.3202 7.55073 14.2002 8.09073 14.2002C8.81073 14.2002 10.1607 14.4302 11.1407 15.9602C12.0607 17.3902 12.4307 19.4602 12.0607 20.9902C11.8707 21.7702 11.4907 22.3402 10.9807 22.6402C10.4707 22.9302 9.98073 23.0702 9.47073 23.0702C9.11073 23.0702 8.78073 23.0002 8.50073 22.9302C8.25073 22.8802 8.02073 22.8302 7.81073 22.8302C7.69073 22.8302 7.59072 22.8402 7.49072 22.8702C7.28072 22.9302 6.98072 23.1302 6.61072 23.3802C5.89072 23.8602 4.89075 24.5302 3.92075 24.5302H3.89075Z" fill="#D3D3D3"/>
<path d="M8.0801 14.1299V14.2799C8.7801 14.2799 10.1001 14.4999 11.0601 15.9999C11.9701 17.4199 12.3401 19.4599 11.9701 20.9799C11.7801 21.7399 11.4201 22.2999 10.9201 22.5799C10.4201 22.8699 9.94013 22.9999 9.45013 22.9999C9.10013 22.9999 8.7901 22.9299 8.4901 22.8699C8.2401 22.8199 8.01011 22.7599 7.78011 22.7599C7.66011 22.7599 7.54012 22.7799 7.44012 22.8099C7.21012 22.8799 6.92012 23.0799 6.54012 23.3299C5.82012 23.8099 4.84013 24.4699 3.89013 24.4699C3.39013 24.4699 2.9501 24.2899 2.5501 23.9199C0.610102 22.1199 -0.249879 16.8199 0.570121 15.6699C1.09012 14.9399 1.63012 14.6199 2.29012 14.6199C2.67012 14.6199 3.06012 14.7199 3.48012 14.8299C3.96012 14.9499 4.45011 15.0799 5.00011 15.0799C5.60011 15.0799 6.15013 14.9299 6.70013 14.6099C7.04013 14.4099 7.5601 14.2899 8.0801 14.2899V14.1399M8.0801 14.1399C7.4801 14.1399 6.95012 14.2899 6.63012 14.4799C6.05012 14.8199 5.51012 14.9299 5.01012 14.9299C4.00012 14.9299 3.1301 14.4799 2.3001 14.4799C1.6801 14.4799 1.08013 14.7299 0.450126 15.5999C-0.429874 16.8199 0.450126 22.1999 2.45013 24.0399C2.91013 24.4699 3.40013 24.6299 3.89013 24.6299C5.37013 24.6299 6.85012 23.1499 7.48012 22.9699C7.58012 22.9399 7.68011 22.9299 7.78011 22.9299C8.25011 22.9299 8.77013 23.1699 9.45013 23.1699C9.89013 23.1699 10.4001 23.0699 11.0001 22.7299C12.7101 21.7499 12.6001 18.1399 11.2001 15.9399C10.3201 14.5699 9.10011 14.1499 8.09011 14.1499L8.0801 14.1399Z" fill="#5E5E5A"/>
</svg>
