<svg width="11" height="24" viewBox="0 0 11 24" fill="none" xmlns="http://www.w3.org/2000/svg">
<path d="M1.87695 23.5296C1.13695 23.5296 0.676962 22.9596 0.446962 21.7896C-0.0130382 19.3396 -0.083059 16.2196 0.706941 15.2696C0.866941 15.0796 1.04694 14.9796 1.26694 14.9796C1.31694 14.9796 1.36694 14.9796 1.42694 14.9996C1.77694 15.0696 2.10696 15.0996 2.41696 15.0996C3.55696 15.0996 4.18696 14.6396 4.69696 14.2696C5.01696 14.0396 5.26695 13.8496 5.55695 13.8496C6.05695 13.8496 6.70696 14.4396 7.72696 15.8196C7.87696 16.0196 8.04694 16.1196 8.26694 16.1196C8.39694 16.1196 8.52694 16.0896 8.64694 16.0596C8.76694 16.0296 8.88696 15.9996 9.00696 15.9996C9.19696 15.9996 9.45694 16.0696 9.70694 16.6396C10.2769 17.9196 10.1769 20.9396 9.30695 22.2896C9.03695 22.6996 8.72695 22.9096 8.37695 22.9096C7.91695 22.9096 7.55696 22.8896 7.25696 22.8796C7.03696 22.8696 6.85696 22.8596 6.69696 22.8596C6.23696 22.8596 5.91696 22.9296 5.53696 23.3096C5.39696 23.4496 5.24694 23.5096 5.04694 23.5096C4.77694 23.5096 4.49695 23.3896 4.21695 23.2696C3.96695 23.1596 3.72695 23.0596 3.52695 23.0596H3.42694C3.32694 23.0796 3.20694 23.1296 3.04694 23.1996C2.73694 23.3296 2.30696 23.5096 1.88696 23.5096L1.87695 23.5296Z" fill="#D3D3D3"/>
<path d="M5.5584 13.94C6.0384 13.94 6.6684 14.52 7.6584 15.88C7.8184 16.1 8.01841 16.21 8.25841 16.21C8.39841 16.21 8.52841 16.18 8.65841 16.14C8.77841 16.11 8.8984 16.08 8.9984 16.08C9.1684 16.08 9.38841 16.15 9.62841 16.68C10.1884 17.94 10.0984 20.93 9.22841 22.26C8.97841 22.65 8.6884 22.84 8.3684 22.84C7.9184 22.84 7.5484 22.82 7.2484 22.81C7.0284 22.8 6.84839 22.79 6.67839 22.79C6.19839 22.79 5.8684 22.87 5.4684 23.27C5.3484 23.39 5.20841 23.45 5.03841 23.45C4.78841 23.45 4.50839 23.33 4.23839 23.22C3.97839 23.11 3.73839 23.01 3.51839 23.01C3.47839 23.01 3.4384 23.01 3.3984 23.02C3.2984 23.04 3.1684 23.1 2.9984 23.16C2.6884 23.29 2.2684 23.47 1.8684 23.47C1.1684 23.47 0.72839 22.92 0.51839 21.79C0.0583902 19.36 -0.011589 16.27 0.758411 15.33C0.898411 15.16 1.06841 15.07 1.25841 15.07C1.30841 15.07 1.3484 15.07 1.3984 15.08C1.7484 15.15 2.0884 15.18 2.3984 15.18C3.5684 15.18 4.2284 14.69 4.7184 14.34C5.0284 14.11 5.26841 13.94 5.53841 13.94M5.53841 13.79C4.73841 13.79 4.2484 15.04 2.3984 15.04C2.1084 15.04 1.78839 15.01 1.42839 14.94C1.36839 14.93 1.30841 14.92 1.25841 14.92C-0.231589 14.92 -0.161604 19.02 0.368396 21.81C0.638396 23.24 1.2484 23.61 1.8684 23.61C2.4884 23.61 3.14841 23.21 3.41841 23.15C3.44841 23.15 3.47841 23.15 3.50841 23.15C3.90841 23.15 4.4984 23.6 5.0284 23.6C5.2184 23.6 5.40841 23.54 5.56841 23.38C5.91841 23.03 6.20839 22.95 6.67839 22.95C7.06839 22.95 7.5784 23.01 8.3684 23.01C10.0884 23.01 10.5284 18.36 9.76839 16.64C9.52839 16.09 9.2584 15.95 8.9984 15.95C8.7384 15.95 8.49841 16.08 8.25841 16.08C8.08841 16.08 7.9284 16.02 7.7784 15.81C6.6584 14.28 6.04839 13.81 5.54839 13.81L5.53841 13.79Z" fill="#5E5E5A"/>
</svg>
