<svg width="20" height="24" viewBox="0 0 20 24" fill="none" xmlns="http://www.w3.org/2000/svg">
<path d="M13.4908 6.00953C11.4308 6.00953 9.35078 5.84953 7.30078 5.52953L7.36078 4.76953C9.38078 5.06953 11.4508 5.21953 13.4908 5.21953H13.7708C15.7208 5.20953 17.6908 5.04953 19.6108 4.76953V5.60953C17.7208 5.83953 15.7408 5.99953 13.7608 6.01953H13.4808L13.4908 6.00953Z" fill="#D3D3D3"/>
<path d="M7.44907 4.84969C9.44907 5.13969 11.4791 5.28969 13.4991 5.28969H13.7791C15.6991 5.27969 17.639 5.12969 19.549 4.84969V5.46969C17.649 5.75969 15.6991 5.91969 13.7791 5.92969H13.4991C11.4791 5.92969 9.44907 5.77969 7.44907 5.46969V4.84969ZM19.6891 4.67969C17.9691 4.93969 15.979 5.12969 13.769 5.13969C13.679 5.13969 13.579 5.13969 13.489 5.13969C11.159 5.13969 9.06906 4.93969 7.28906 4.67969V5.59969C9.05906 5.87969 11.149 6.07969 13.489 6.07969C13.579 6.07969 13.669 6.07969 13.769 6.07969C15.989 6.05969 17.9791 5.85969 19.6891 5.59969V4.67969Z" fill="#5E5E5A"/>
<path d="M4.75173 11.1503C4.31173 11.1503 3.90173 10.9503 3.59173 10.5903C3.33173 10.2903 2.99174 10.0703 2.66174 9.85031C2.04174 9.45031 1.46175 9.06031 1.39175 8.22031C1.37175 7.98031 1.33172 7.63031 1.27172 7.22031C1.03172 5.30031 0.601739 1.72031 1.35174 1.19031C1.85174 0.850311 3.54174 0.570312 5.13174 0.570312C6.55174 0.570312 7.53172 0.790311 7.74172 1.17031C8.29172 2.15031 8.03172 7.28032 7.74172 8.94032C7.59172 9.76032 7.16175 9.92031 6.70175 10.0903C6.40175 10.2003 6.10173 10.3103 5.87173 10.6103C5.61173 10.9603 5.19173 11.1603 4.75173 11.1603V11.1503Z" fill="#D3D3D3"/>
<path d="M5.14009 0.490234V0.640232C6.51009 0.640232 7.49007 0.850233 7.68007 1.20023C8.23007 2.17023 7.96008 7.27023 7.66008 8.92023C7.52008 9.70023 7.12008 9.85023 6.66008 10.0102C6.35008 10.1202 6.03007 10.2402 5.80007 10.5502C5.55007 10.8802 5.16007 11.0702 4.74007 11.0702C4.32007 11.0702 3.93009 10.8802 3.64009 10.5402C3.38009 10.2302 3.03009 10.0102 2.70009 9.79023C2.10009 9.40023 1.53007 9.02023 1.46007 8.21023C1.44007 7.97023 1.40007 7.62023 1.34007 7.20023C1.12007 5.43023 0.670093 1.74023 1.39009 1.25023C1.87009 0.920233 3.55008 0.640232 5.13008 0.640232V0.490234M5.13008 0.490234C3.58008 0.490234 1.84008 0.760232 1.31008 1.12023C0.350076 1.78023 1.19008 6.86023 1.31008 8.22023C1.43008 9.58023 2.81008 9.80023 3.53008 10.6402C3.88008 11.0402 4.32007 11.2202 4.74007 11.2202C5.20007 11.2202 5.64009 11.0102 5.92009 10.6402C6.46009 9.92023 7.55008 10.3502 7.81008 8.94024C8.10008 7.31024 8.38008 2.13023 7.81008 1.12023C7.55008 0.670232 6.41009 0.490234 5.14009 0.490234H5.13008Z" fill="#5E5E5A"/>
</svg>
