<svg width="21" height="25" viewBox="0 0 21 25" fill="none" xmlns="http://www.w3.org/2000/svg">
<path d="M13.9283 6.00953C11.8683 6.00953 9.78828 5.84953 7.73828 5.52953L7.79828 4.76953C9.81828 5.06953 11.8883 5.21953 13.9283 5.21953H14.2083C16.1583 5.20953 18.1283 5.04953 20.0483 4.76953V5.60953C18.1583 5.83953 16.1783 5.99953 14.1983 6.01953H13.9183L13.9283 6.00953Z" fill="#D3D3D3"/>
<path d="M7.87875 4.84969C9.87875 5.13969 11.9087 5.28969 13.9287 5.28969H14.2087C16.1287 5.27969 18.0688 5.12969 19.9788 4.84969V5.46969C18.0788 5.75969 16.1287 5.91969 14.2087 5.92969H13.9287C11.9087 5.92969 9.87875 5.77969 7.87875 5.46969V4.84969ZM20.1187 4.67969C18.3987 4.93969 16.4088 5.12969 14.1988 5.13969C14.1088 5.13969 14.0088 5.13969 13.9188 5.13969C11.5888 5.13969 9.49875 4.93969 7.71875 4.67969V5.59969C9.48875 5.87969 11.5788 6.07969 13.9188 6.07969C14.0088 6.07969 14.0988 6.07969 14.1988 6.07969C16.4188 6.05969 18.4087 5.85969 20.1187 5.59969V4.67969Z" fill="#5E5E5A"/>
<path d="M4.54024 11.9205C3.51024 11.9205 1.37022 9.34055 0.960222 7.87055C0.510222 6.26055 1.18022 1.88054 1.74022 1.01054C1.98022 0.630544 2.54022 0.560547 2.96022 0.560547C3.74022 0.560547 4.66022 0.830546 4.93022 1.02055C5.00022 1.07055 5.09024 1.09055 5.20024 1.09055C5.41024 1.09055 5.66024 1.01055 5.95024 0.910545C6.30024 0.790545 6.70023 0.660545 7.09023 0.660545C7.28023 0.660545 7.45022 0.690544 7.61022 0.760544C8.97022 1.34054 8.73022 7.60055 8.15022 9.33055C8.00022 9.79055 5.68023 11.4705 4.72023 11.8905C4.67023 11.9105 4.61022 11.9205 4.55022 11.9205H4.54024Z" fill="#D3D3D3"/>
<path d="M2.96074 0.640469C3.79074 0.640469 4.66075 0.930471 4.88075 1.08047C4.96075 1.14047 5.07075 1.17047 5.19075 1.17047C5.41075 1.17047 5.66074 1.08047 5.96074 0.980469C6.31074 0.860469 6.70075 0.730469 7.07075 0.730469C7.25075 0.730469 7.41074 0.760469 7.56074 0.820469C8.85074 1.37047 8.61074 7.62047 8.06074 9.29047C7.91074 9.73047 5.60076 11.4005 4.67076 11.8105C4.63076 11.8305 4.58074 11.8405 4.53074 11.8405C3.62074 11.8405 1.45073 9.38047 1.02073 7.85047C0.570734 6.25047 1.24073 1.91047 1.80073 1.05047C2.03073 0.700468 2.55076 0.63047 2.95076 0.63047M2.95076 0.480469C2.41076 0.480469 1.91076 0.61047 1.67076 0.97047C1.08076 1.88047 0.420749 6.28047 0.880749 7.89047C1.30075 9.40047 3.49074 11.9905 4.53074 11.9905C4.60074 11.9905 4.67076 11.9805 4.73076 11.9505C5.66076 11.5405 8.03076 9.85047 8.20076 9.34047C8.77076 7.64047 9.06074 1.30047 7.62074 0.68047C7.44074 0.60047 7.25075 0.570469 7.07075 0.570469C6.36075 0.570469 5.62075 1.01047 5.19075 1.01047C5.10075 1.01047 5.03074 0.99047 4.96074 0.95047C4.69074 0.76047 3.77076 0.480469 2.95076 0.480469Z" fill="#5E5E5A"/>
</svg>
