<svg width="21" height="31" viewBox="0 0 21 31" fill="none" xmlns="http://www.w3.org/2000/svg">
<path d="M14.3579 6.00953C12.2979 6.00953 10.218 5.84953 8.16797 5.52953L8.22797 4.76953C10.248 5.06953 12.3179 5.21953 14.3579 5.21953H14.638C16.588 5.20953 18.548 5.04953 20.478 4.76953V5.60953C18.588 5.83953 16.598 5.99953 14.628 6.01953H14.348L14.3579 6.00953Z" fill="#D3D3D3"/>
<path d="M8.30844 4.84969C10.3084 5.13969 12.3384 5.28969 14.3584 5.28969H14.6385C16.5585 5.27969 18.4984 5.12969 20.4084 4.84969V5.46969C18.5084 5.75969 16.5585 5.91969 14.6385 5.92969H14.3584C12.3384 5.92969 10.3084 5.77969 8.30844 5.46969V4.84969ZM20.5484 4.67969C18.8284 4.93969 16.8384 5.12969 14.6284 5.13969C14.5384 5.13969 14.4384 5.13969 14.3484 5.13969C12.0184 5.13969 9.92844 4.93969 8.14844 4.67969V5.59969C9.91844 5.87969 12.0084 6.07969 14.3484 6.07969C14.4384 6.07969 14.5284 6.07969 14.6284 6.07969C16.8484 6.05969 18.8384 5.85969 20.5484 5.59969V4.67969Z" fill="#5E5E5A"/>
<path d="M5.2911 12.6C4.4911 12.6 2.26109 10.74 1.63109 9.08996C0.911092 7.20996 0.751072 3.07996 1.11107 2.24996C1.49107 1.38996 3.84108 0.489961 4.59108 0.459961C5.38108 0.459961 8.60108 3.38996 8.81108 4.27996C9.01108 5.13996 8.89109 8.59996 7.57109 10.47C6.90109 11.41 6.06108 12.24 5.43108 12.58C5.40108 12.6 5.35107 12.61 5.30107 12.61L5.2911 12.6Z" fill="#D3D3D3"/>
<path d="M4.60174 0.379883V0.529881C5.33174 0.529881 8.54174 3.44988 8.73174 4.28988C8.93174 5.13988 8.81173 8.56988 7.50173 10.4199C6.84173 11.3599 6.01174 12.1699 5.38174 12.4999C5.36174 12.5099 5.32174 12.5199 5.29174 12.5199C4.58174 12.5199 2.36174 10.7799 1.70174 9.05988C0.981743 7.18988 0.821724 3.08988 1.18172 2.27988C1.52172 1.49988 3.79173 0.569881 4.59173 0.529881V0.379883M4.59173 0.379883C4.59173 0.379883 4.59172 0.379883 4.58172 0.379883C3.79172 0.409883 1.42174 1.32988 1.04174 2.21988C0.65174 3.09988 0.861729 7.27988 1.56173 9.11988C2.21173 10.8199 4.47174 12.6799 5.29174 12.6799C5.35174 12.6799 5.41174 12.6699 5.45174 12.6399C6.07174 12.3099 6.93173 11.4999 7.62173 10.5099C8.94173 8.63988 9.08173 5.18988 8.87173 4.25988C8.66173 3.32988 5.41173 0.379883 4.59173 0.379883Z" fill="#5E5E5A"/>
</svg>
