<svg width="20" height="25" viewBox="0 0 20 25" fill="none" xmlns="http://www.w3.org/2000/svg">
<path d="M13.7916 6.00953C11.7316 6.00953 9.65156 5.84953 7.60156 5.52953L7.66156 4.76953C9.68156 5.06953 11.7516 5.21953 13.7916 5.21953H14.0716C16.0216 5.20953 17.9916 5.04953 19.9116 4.76953V5.60953C18.0216 5.83953 16.0416 5.99953 14.0616 6.01953H13.7816L13.7916 6.00953Z" fill="#D3D3D3"/>
<path d="M7.74985 4.84969C9.74985 5.13969 11.7798 5.28969 13.7998 5.28969H14.0798C15.9998 5.27969 17.9399 5.12969 19.8499 4.84969V5.46969C17.9499 5.75969 15.9998 5.91969 14.0798 5.92969H13.7998C11.7798 5.92969 9.74985 5.77969 7.74985 5.46969V4.84969ZM19.9898 4.67969C18.2698 4.93969 16.2799 5.12969 14.0699 5.13969C13.9799 5.13969 13.8799 5.13969 13.7899 5.13969C11.4599 5.13969 9.36984 4.93969 7.58984 4.67969V5.59969C9.35984 5.87969 11.4499 6.07969 13.7899 6.07969C13.8799 6.07969 13.9699 6.07969 14.0699 6.07969C16.2899 6.05969 18.2798 5.85969 19.9898 5.59969V4.67969Z" fill="#5E5E5A"/>
<path d="M4.98092 11.3797C4.08092 11.3797 3.16092 10.4897 2.42092 9.76972C1.88092 9.23972 1.76091 8.52972 1.60091 7.52972C1.50091 6.93972 1.4009 6.26972 1.1809 5.47972C0.350898 2.46972 0.94089 2.21973 2.36089 1.62973C2.88089 1.40973 3.5309 1.13972 4.2409 0.669724C4.4409 0.539724 4.67092 0.469727 4.92092 0.469727C5.79092 0.469727 6.8109 1.24972 7.7109 1.97972C7.9109 2.14972 8.10091 2.28973 8.26091 2.40973C9.01091 2.98973 9.33091 3.22973 9.38091 4.32973C9.44091 5.61973 8.9909 8.13973 8.1509 8.96973C8.0409 9.07973 7.91089 9.21972 7.77089 9.37972C7.14089 10.0597 6.19091 11.0897 5.35091 11.3397C5.23091 11.3797 5.10091 11.3897 4.97091 11.3897L4.98092 11.3797Z" fill="#D3D3D3"/>
<path d="M4.92128 0.529881C5.76128 0.529881 6.78127 1.29988 7.66127 2.02988C7.86127 2.19988 8.05125 2.33988 8.21125 2.45988C8.95125 3.01988 9.25125 3.25988 9.30125 4.31988C9.37125 5.77988 8.85127 8.14988 8.10127 8.89988C7.99127 9.00988 7.86125 9.14988 7.71125 9.30988C7.09125 9.97988 6.15127 10.9999 5.32127 11.2499C5.21127 11.2799 5.09126 11.2999 4.97126 11.2999C4.10126 11.2999 3.19127 10.4199 2.45127 9.69988C1.94127 9.19988 1.83128 8.49988 1.67128 7.51988C1.57128 6.92988 1.46126 6.24988 1.25126 5.45988C0.441262 2.50988 1.01128 2.26988 2.39128 1.68988C2.91128 1.46988 3.56126 1.19988 4.28126 0.719883C4.47126 0.589883 4.68128 0.529881 4.92128 0.529881ZM4.92128 0.379883C4.66128 0.379883 4.42126 0.44988 4.19126 0.59988C1.58126 2.33988 -0.0587314 1.28988 1.10127 5.49988C1.69127 7.62988 1.49127 8.96988 2.35127 9.80988C3.11127 10.5499 4.04126 11.4599 4.97126 11.4599C5.10126 11.4599 5.23126 11.4399 5.37126 11.3999C6.44126 11.0799 7.65125 9.56988 8.21125 9.01988C9.03125 8.19988 9.53125 5.70988 9.46125 4.31988C9.39125 2.93988 8.89127 2.84988 7.76127 1.91988C6.88127 1.19988 5.83125 0.389881 4.93125 0.389881L4.92128 0.379883Z" fill="#5E5E5A"/>
</svg>
