<svg width="20" height="24" viewBox="0 0 20 24" fill="none" xmlns="http://www.w3.org/2000/svg">
<path d="M13.2291 6.00953C11.1691 6.00953 9.08906 5.84953 7.03906 5.52953L7.09906 4.76953C9.11906 5.06953 11.1891 5.21953 13.2291 5.21953H13.5091C15.4591 5.20953 17.4291 5.04953 19.3491 4.76953V5.60953C17.4591 5.83953 15.4791 5.99953 13.4991 6.01953H13.2191L13.2291 6.00953Z" fill="#D3D3D3"/>
<path d="M7.17953 4.84969C9.17953 5.13969 11.2096 5.28969 13.2296 5.28969H13.5096C15.4296 5.27969 17.3695 5.12969 19.2795 4.84969V5.46969C17.3795 5.75969 15.4296 5.91969 13.5096 5.92969H13.2296C11.2096 5.92969 9.17953 5.77969 7.17953 5.46969V4.84969ZM19.4196 4.67969C17.6996 4.93969 15.7095 5.12969 13.4995 5.13969C13.4095 5.13969 13.3095 5.13969 13.2195 5.13969C10.8895 5.13969 8.79953 4.93969 7.01953 4.67969V5.59969C8.78953 5.87969 10.8795 6.07969 13.2195 6.07969C13.3095 6.07969 13.3995 6.07969 13.4995 6.07969C15.7195 6.05969 17.7096 5.85969 19.4196 5.59969V4.67969Z" fill="#5E5E5A"/>
<path d="M5.70119 11.43C4.33119 11.43 2.81119 9.99 2.54119 9.38C2.43119 9.14 2.21119 8.84 1.95119 8.5C1.34119 7.7 0.511192 6.61 0.451192 5.23C0.351192 3.22 1.55118 1.81 2.19118 1.54C2.52118 1.4 2.72118 1.22 2.94118 1.04C3.22118 0.800001 3.52117 0.55 4.11117 0.32C4.22117 0.28 4.36118 0.25 4.50118 0.25C5.52118 0.25 7.11119 1.27 8.26119 2.01L8.66118 2.26C9.87118 3.03 10.4312 4.93 9.99117 6.79C9.47117 9 9.02117 9.31 8.21117 9.88C7.86117 10.12 7.47119 10.4 6.98119 10.88C6.62119 11.23 6.18118 11.42 5.69118 11.42L5.70119 11.43Z" fill="#D3D3D3"/>
<path d="M4.50936 0.329689C5.50936 0.329689 7.07936 1.33969 8.22936 2.07969L8.62935 2.33969C9.80935 3.08969 10.3593 4.95969 9.92934 6.78969C9.41934 8.96969 8.97934 9.27968 8.17934 9.83968C7.84934 10.0697 7.42935 10.3597 6.93935 10.8497C6.58935 11.1897 6.16936 11.3597 5.69936 11.3597C4.35936 11.3597 2.87933 9.94969 2.60933 9.35969C2.49933 9.10969 2.26936 8.80969 2.00936 8.46969C1.40936 7.67969 0.589338 6.58969 0.519338 5.23969C0.419338 3.26969 1.58934 1.88969 2.20934 1.61969C2.54934 1.47969 2.75936 1.29969 2.97936 1.10969C3.25936 0.869688 3.54935 0.629689 4.12935 0.399689C4.22935 0.359689 4.35935 0.339687 4.49935 0.339687M4.49935 0.189686C4.34935 0.189686 4.19934 0.209686 4.07934 0.259686C2.99934 0.679686 2.86934 1.17969 2.14934 1.48969C1.42934 1.79969 0.269344 3.26969 0.369344 5.24969C0.469344 7.22969 2.11935 8.62969 2.46935 9.41969C2.73935 10.0197 4.24936 11.5097 5.69936 11.5097C6.16936 11.5097 6.62936 11.3497 7.03936 10.9497C8.70936 9.32968 9.31936 9.97969 10.0694 6.81969C10.4894 5.02969 10.0293 3.03969 8.70934 2.20969C7.54934 1.46969 5.67936 0.179688 4.50936 0.179688L4.49935 0.189686Z" fill="#5E5E5A"/>
</svg>
