<svg width="24" height="24" viewBox="0 0 24 24" fill="none" xmlns="http://www.w3.org/2000/svg">
<path d="M17.6627 6.00953C15.6027 6.00953 13.5227 5.84953 11.4727 5.52953L11.5327 4.76953C13.5527 5.06953 15.6227 5.21953 17.6627 5.21953H17.9427C19.8927 5.20953 21.8627 5.04953 23.7827 4.76953V5.60953C21.8927 5.83953 19.9126 5.99953 17.9326 6.01953H17.6526L17.6627 6.00953Z" fill="#D3D3D3"/>
<path d="M11.6209 4.84969C13.6209 5.13969 15.651 5.28969 17.671 5.28969H17.951C19.871 5.27969 21.8109 5.12969 23.7209 4.84969V5.46969C21.8209 5.75969 19.871 5.91969 17.951 5.92969H17.671C15.651 5.92969 13.6209 5.77969 11.6209 5.46969V4.84969ZM23.8609 4.67969C22.1409 4.93969 20.1509 5.12969 17.9409 5.13969C17.8509 5.13969 17.7509 5.13969 17.6609 5.13969C15.3309 5.13969 13.2409 4.93969 11.4609 4.67969V5.59969C13.2309 5.87969 15.3209 6.07969 17.6609 6.07969C17.7509 6.07969 17.8409 6.07969 17.9409 6.07969C20.1609 6.05969 22.1509 5.85969 23.8609 5.59969V4.67969Z" fill="#5E5E5A"/>
<path d="M8.1686 9.38C7.5086 9.38 6.87859 9.21 6.25859 9.04C5.69859 8.89 5.17858 8.74 4.67858 8.74H4.52858C4.35858 8.76 4.18858 8.76 4.02858 8.76C3.12858 8.76 2.18858 8.59 1.45858 7.35C0.658576 6 0.278578 1.79 1.64858 0.84C2.20858 0.45 2.98858 0.25 3.95858 0.25C4.86858 0.25 5.77859 0.419999 6.37859 0.529999L6.49858 0.549999C6.62858 0.569999 6.7586 0.59 6.8886 0.59C7.1886 0.59 7.47858 0.529999 7.77858 0.459999C8.12858 0.389999 8.48858 0.310001 8.92858 0.310001C10.0786 0.310001 11.4186 0.859999 13.1586 2.05C14.8186 3.18 14.2086 6.48 13.6586 8.06C13.3486 8.95 12.2486 8.98 11.0786 9.01C10.3986 9.03 9.69858 9.05 9.08858 9.23C8.79858 9.32 8.4986 9.36 8.1686 9.36V9.38Z" fill="#D3D3D3"/>
<path d="M3.95932 0.179688V0.329689C4.85932 0.329689 5.75931 0.499688 6.35931 0.609688L6.47934 0.629688C6.60934 0.649688 6.73933 0.669685 6.87933 0.669685C7.18933 0.669685 7.47933 0.609688 7.78933 0.539688C8.13933 0.469688 8.48932 0.389687 8.92932 0.389687C9.63932 0.389687 10.8493 0.569686 13.1193 2.11969C14.7393 3.22969 14.1393 6.47969 13.5893 8.03969C13.2993 8.87969 12.2693 8.90969 11.0793 8.93969C10.3993 8.95969 9.68933 8.97969 9.06933 9.16969C8.78933 9.25969 8.48934 9.29969 8.16934 9.29969C7.51934 9.29969 6.88932 9.12969 6.27932 8.95969C5.71932 8.80969 5.18932 8.65969 4.67932 8.65969C4.62932 8.65969 4.57931 8.65969 4.51931 8.65969C4.34931 8.66969 4.17931 8.67969 4.01931 8.67969C3.13931 8.67969 2.22933 8.50968 1.50933 7.30968C0.719335 5.97968 0.339318 1.82969 1.67932 0.899689C2.22932 0.519689 2.98934 0.329689 3.94934 0.329689V0.179688M3.94934 0.179688C3.10934 0.179688 2.25933 0.319686 1.59933 0.779686C0.169331 1.76969 0.58934 6.04969 1.38934 7.38969C2.07934 8.54969 2.95932 8.82969 4.02932 8.82969C4.18932 8.82969 4.35933 8.82968 4.53933 8.80968C4.58933 8.80968 4.63933 8.80968 4.68933 8.80968C5.70933 8.80968 6.90934 9.44968 8.16934 9.44968C8.47934 9.44968 8.78931 9.40969 9.10931 9.31969C10.7893 8.81969 13.2193 9.55969 13.7293 8.09969C14.3793 6.23969 14.8293 3.10969 13.1993 1.99969C11.1193 0.579687 9.84934 0.249687 8.91934 0.249687C8.07934 0.249687 7.50933 0.529686 6.87933 0.529686C6.75933 0.529686 6.63934 0.519687 6.50934 0.499687C5.88934 0.389687 4.93932 0.189686 3.95932 0.189686L3.94934 0.179688Z" fill="#5E5E5A"/>
</svg>
