<svg width="23" height="23" viewBox="0 0 23 23" fill="none" xmlns="http://www.w3.org/2000/svg">
<path d="M16.1002 6.00953C14.0402 6.00953 11.9602 5.84953 9.91016 5.52953L9.97015 4.76953C11.9902 5.06953 14.0602 5.21953 16.1002 5.21953H16.3802C18.3302 5.20953 20.3002 5.04953 22.2202 4.76953V5.60953C20.3302 5.83953 18.3401 5.99953 16.3701 6.01953H16.0901L16.1002 6.00953Z" fill="#D3D3D3"/>
<path d="M10.0506 4.84969C12.0506 5.13969 14.0806 5.28969 16.1006 5.28969H16.3806C18.3006 5.27969 20.2406 5.12969 22.1506 4.84969V5.46969C20.2506 5.75969 18.3006 5.91969 16.3806 5.92969H16.1006C14.0806 5.92969 12.0506 5.77969 10.0506 5.46969V4.84969ZM22.2906 4.67969C20.5706 4.93969 18.5806 5.12969 16.3706 5.13969C16.2806 5.13969 16.1806 5.13969 16.0906 5.13969C13.7606 5.13969 11.6706 4.93969 9.89062 4.67969V5.59969C11.6606 5.87969 13.7506 6.07969 16.0906 6.07969C16.1806 6.07969 16.2706 6.07969 16.3706 6.07969C18.5906 6.05969 20.5806 5.85969 22.2906 5.59969V4.67969Z" fill="#5E5E5A"/>
<path d="M6.42215 9.36977C6.05215 9.36977 5.51213 9.01977 5.00213 8.67977C4.45213 8.31977 3.88214 7.94976 3.44214 7.94976C3.39214 7.94976 3.35212 7.94977 3.30212 7.95977L3.13214 7.99977C2.80214 8.06977 2.45213 8.13977 2.15213 8.13977C1.71213 8.13977 1.45214 7.98977 1.32214 7.66977C0.982141 6.85977 0.512148 4.62977 1.14215 2.04977C1.50215 0.569767 2.65212 0.259766 3.55212 0.259766C4.50212 0.259766 5.47214 0.599765 5.98214 0.919765C6.23214 1.07977 6.53213 1.14977 6.93213 1.14977C7.18213 1.14977 7.46213 1.11977 7.75213 1.08977C8.08213 1.05977 8.44214 1.01977 8.82214 1.01977C9.60214 1.01977 10.2821 1.17977 10.9621 1.51977C13.0321 2.56977 12.8021 6.00977 11.8521 7.98977C11.7121 8.26977 11.6221 8.29977 11.5521 8.29977C11.4421 8.29977 11.3121 8.19977 11.1621 8.07977C10.9121 7.88977 10.6121 7.65977 10.1721 7.61977C9.68215 7.61977 9.33215 7.91976 8.92215 8.26976C8.34215 8.75976 7.63213 9.36977 6.47213 9.36977H6.44214H6.42215Z" fill="#D3D3D3"/>
<path d="M3.55122 0.330158C4.48122 0.330158 5.44123 0.670156 5.94123 0.980156C6.20123 1.15016 6.52122 1.22016 6.93122 1.22016C7.19122 1.22016 7.46123 1.19016 7.75123 1.16016C8.09123 1.13016 8.44123 1.09016 8.81123 1.09016C9.58123 1.09016 10.2512 1.25016 10.9112 1.58016C13.1112 2.70016 12.5412 6.34015 11.7612 7.95015C11.7112 8.05015 11.6212 8.22016 11.5312 8.22016C11.4512 8.22016 11.3212 8.12015 11.1812 8.02015C10.9412 7.84015 10.6112 7.58016 10.1512 7.54016C10.1212 7.54016 10.0912 7.54016 10.0712 7.54016C9.63124 7.54016 9.26123 7.85016 8.84123 8.21016C8.24123 8.72016 7.57123 9.29016 6.41123 9.29016C6.06123 9.29016 5.54123 8.94016 5.03123 8.61016C4.45123 8.23016 3.90122 7.86016 3.43122 7.86016C3.38122 7.86016 3.33123 7.86016 3.28123 7.87016L3.11122 7.91016C2.78122 7.98016 2.44122 8.05016 2.15122 8.05016C1.74122 8.05016 1.51125 7.92016 1.39125 7.62016C1.06125 6.81016 0.591232 4.61016 1.22123 2.05016C1.57123 0.620156 2.68123 0.320156 3.56123 0.320156M3.56123 0.170155C2.48123 0.170155 1.42122 0.610157 1.08122 2.02016C0.431217 4.70016 0.95124 6.92016 1.26124 7.69016C1.42124 8.09016 1.76123 8.21016 2.16123 8.21016C2.52123 8.21016 2.94122 8.11016 3.33122 8.03016C3.37122 8.03016 3.41124 8.02015 3.45124 8.02015C4.28124 8.02015 5.62124 9.43016 6.42124 9.44016C6.43124 9.44016 6.44124 9.44016 6.45124 9.44016C8.45124 9.44016 9.14122 7.68016 10.0812 7.68016C10.1012 7.68016 10.1312 7.68016 10.1512 7.68016C10.8612 7.74016 11.2312 8.36016 11.5412 8.36016C11.6612 8.36016 11.7812 8.27016 11.9012 8.00016C12.7812 6.17016 13.2112 2.56016 10.9812 1.43016C10.1812 1.03016 9.46123 0.920155 8.81123 0.920155C8.09123 0.920155 7.46124 1.05016 6.92124 1.05016C6.58124 1.05016 6.28124 1.00016 6.01124 0.830158C5.50124 0.510158 4.51124 0.160156 3.54124 0.160156L3.56123 0.170155Z" fill="#5E5E5A"/>
</svg>
