<svg width="12" height="21" viewBox="0 0 12 21" fill="none" xmlns="http://www.w3.org/2000/svg">
<path d="M8.31947 8.03C7.57947 8.03 6.91948 7.56 6.38948 7.18C6.05948 6.94 5.76945 6.74 5.51945 6.68C5.42945 6.66 5.31947 6.65 5.18947 6.65C4.85947 6.65 4.42947 6.71 3.96947 6.78C3.42947 6.86 2.87948 6.94 2.38948 6.94C1.89948 6.94 1.57947 6.86 1.37947 6.69C0.559469 6.01 0.529472 4.38 0.569472 2.63C0.609472 0.980001 1.62945 0.25 2.60945 0.25C2.76945 0.25 2.93947 0.270001 3.09947 0.310001L3.34947 0.369999C4.05947 0.529999 4.51946 0.639999 5.08946 0.639999C5.44946 0.639999 5.84946 0.59 6.33946 0.5C6.50946 0.46 6.67946 0.450001 6.83946 0.450001C7.53946 0.450001 8.09947 0.74 8.53947 0.98C8.77947 1.11 8.97947 1.21 9.15947 1.25C9.21947 1.26 9.28945 1.26 9.35945 1.26H9.72948C10.2695 1.26 10.7895 1.44 11.0395 2.83C11.4195 4.97 10.5395 6.87 9.47948 7.63C9.09948 7.9 8.71945 8.03 8.32945 8.03H8.31947Z" fill="#D3D3D3"/>
<path d="M2.61962 0.329926C2.77962 0.329926 2.93963 0.349925 3.09963 0.379925L3.34963 0.439922C4.02963 0.599922 4.52961 0.709923 5.10961 0.709923C5.47961 0.709923 5.87962 0.659925 6.36962 0.559925C6.52962 0.529925 6.68963 0.509922 6.84963 0.509922C7.52963 0.509922 8.07961 0.799922 8.51961 1.02992C8.75961 1.15992 8.96962 1.26992 9.15962 1.29992C9.21962 1.30992 9.29962 1.31992 9.36962 1.31992C9.42962 1.31992 9.48961 1.31992 9.54961 1.31992C9.60961 1.31992 9.67961 1.31992 9.73961 1.31992C10.2096 1.31992 10.7296 1.43993 10.9696 2.82993C11.3396 4.93993 10.4796 6.80992 9.43962 7.55992C9.06962 7.81992 8.70961 7.94992 8.32961 7.94992C7.61961 7.94992 6.95962 7.48992 6.43962 7.10992C6.09962 6.86992 5.80961 6.65992 5.54961 6.59992C5.45961 6.57992 5.33961 6.56992 5.20961 6.56992C4.87961 6.56992 4.43963 6.62992 3.97963 6.69992C3.44963 6.77992 2.88962 6.85992 2.40962 6.85992C1.92962 6.85992 1.62962 6.77992 1.43962 6.62992C0.639623 5.96992 0.619625 4.35992 0.659625 2.62992C0.699625 1.02992 1.67962 0.319923 2.61962 0.319923M2.61962 0.169922C1.50962 0.169922 0.549631 1.00992 0.509631 2.62992C0.459631 4.48992 0.509617 6.05992 1.33962 6.74992C1.57962 6.94992 1.95961 7.01992 2.39961 7.01992C3.31961 7.01992 4.49963 6.72992 5.19963 6.72992C5.31963 6.72992 5.41963 6.72992 5.50963 6.75992C6.13963 6.90992 7.11961 8.10992 8.32961 8.10992C8.70961 8.10992 9.10962 7.98993 9.52962 7.68993C10.6796 6.86993 11.4896 4.89992 11.1196 2.80993C10.8596 1.31993 10.2596 1.16992 9.73961 1.16992C9.60961 1.16992 9.47962 1.16992 9.36962 1.16992C9.29962 1.16992 9.23961 1.16992 9.17961 1.15992C8.70961 1.06992 7.94963 0.359924 6.84963 0.359924C6.68963 0.359924 6.51962 0.379924 6.33962 0.409924C5.83962 0.509924 5.45961 0.549923 5.10961 0.549923C4.48961 0.549923 3.96964 0.419923 3.13964 0.229923C2.96964 0.189923 2.79963 0.169922 2.62963 0.169922H2.61962Z" fill="#5E5E5A"/>
</svg>
