<svg width="19" height="24" viewBox="0 0 19 24" fill="none" xmlns="http://www.w3.org/2000/svg">
<path d="M12.0611 6.00953C10.0011 6.00953 7.92109 5.84953 5.87109 5.52953L5.93109 4.76953C7.95109 5.06953 10.0211 5.21953 12.0611 5.21953H12.3411C14.2911 5.20953 16.2611 5.04953 18.1811 4.76953V5.60953C16.2911 5.83953 14.3111 5.99953 12.3311 6.01953H12.0511L12.0611 6.00953Z" fill="#D3D3D3"/>
<path d="M6.01157 4.84969C8.01157 5.13969 10.0416 5.28969 12.0616 5.28969H12.3416C14.2616 5.27969 16.2015 5.12969 18.1115 4.84969V5.46969C16.2115 5.75969 14.2616 5.91969 12.3416 5.92969H12.0616C10.0416 5.92969 8.01157 5.77969 6.01157 5.46969V4.84969ZM18.2516 4.67969C16.5316 4.93969 14.5415 5.12969 12.3315 5.13969C12.2415 5.13969 12.1415 5.13969 12.0515 5.13969C9.72154 5.13969 7.63156 4.93969 5.85156 4.67969V5.59969C7.62156 5.87969 9.71154 6.07969 12.0515 6.07969C12.1415 6.07969 12.2315 6.07969 12.3315 6.07969C14.5515 6.05969 16.5416 5.85969 18.2516 5.59969V4.67969Z" fill="#5E5E5A"/>
<path d="M3.44849 11.1505C3.00849 11.1505 2.58846 10.9405 2.32846 10.6005C2.10846 10.3005 1.79848 10.1905 1.49848 10.0805C1.03848 9.91055 0.598469 9.75055 0.458469 8.93055C0.158469 7.28055 -0.101531 2.14055 0.458469 1.16055C0.668469 0.790545 1.64849 0.560547 3.06849 0.560547C4.65849 0.560547 6.34848 0.840546 6.84848 1.18055C7.59848 1.70055 7.16847 5.28054 6.92847 7.20054C6.87847 7.62054 6.83848 7.97054 6.80848 8.21054C6.73848 9.06054 6.14849 9.44054 5.53849 9.84054C5.20849 10.0605 4.86846 10.2805 4.60846 10.5805C4.29846 10.9405 3.88849 11.1405 3.44849 11.1405V11.1505Z" fill="#D3D3D3"/>
<path d="M3.0497 0.640232C4.6297 0.640232 6.29972 0.910233 6.78972 1.25023C7.50972 1.75023 7.0597 5.43023 6.8397 7.20023C6.7897 7.62023 6.74971 7.97023 6.71971 8.21023C6.64971 9.02023 6.07972 9.39023 5.47972 9.79023C5.14972 10.0102 4.79972 10.2402 4.53972 10.5402C4.24972 10.8802 3.84971 11.0702 3.43971 11.0702C3.02971 11.0702 2.62971 10.8702 2.37971 10.5502C2.13971 10.2402 1.8297 10.1202 1.5197 10.0102C1.0597 9.84023 0.659697 9.70023 0.519697 8.92023C0.219697 7.28023 -0.0402924 2.17023 0.499708 1.20023C0.689708 0.860233 1.66972 0.640232 3.03972 0.640232M3.03972 0.490234C1.76972 0.490234 0.619703 0.670232 0.369703 1.12023C-0.200297 2.13023 0.0797028 7.30024 0.369703 8.94024C0.619703 10.3502 1.71972 9.92023 2.25972 10.6402C2.53972 11.0102 2.97971 11.2202 3.43971 11.2202C3.86971 11.2202 4.3097 11.0402 4.6497 10.6402C5.3697 9.80023 6.7497 9.58023 6.8697 8.22023C6.9897 6.86023 7.8297 1.79023 6.8697 1.12023C6.3397 0.750232 4.5997 0.490234 3.0497 0.490234H3.03972Z" fill="#5E5E5A"/>
</svg>
