<svg width="20" height="25" viewBox="0 0 20 25" fill="none" xmlns="http://www.w3.org/2000/svg">
<path d="M13.6314 6.00953C11.5714 6.00953 9.49141 5.84953 7.44141 5.52953L7.5014 4.76953C9.5214 5.06953 11.5914 5.21953 13.6314 5.21953H13.9114C15.8614 5.20953 17.8314 5.04953 19.7514 4.76953V5.60953C17.8614 5.83953 15.8714 5.99953 13.9014 6.01953H13.6214L13.6314 6.00953Z" fill="#D3D3D3"/>
<path d="M7.58185 4.84969C9.58185 5.13969 11.6119 5.28969 13.6319 5.28969H13.9119C15.8319 5.27969 17.7719 5.12969 19.6819 4.84969V5.46969C17.7819 5.75969 15.8319 5.91969 13.9119 5.92969H13.6319C11.6119 5.92969 9.58185 5.77969 7.58185 5.46969V4.84969ZM19.8219 4.67969C18.1019 4.93969 16.1119 5.12969 13.9019 5.13969C13.8119 5.13969 13.7119 5.13969 13.6219 5.13969C11.2919 5.13969 9.20187 4.93969 7.42188 4.67969V5.59969C9.19187 5.87969 11.2819 6.07969 13.6219 6.07969C13.7119 6.07969 13.8019 6.07969 13.9019 6.07969C16.1219 6.05969 18.1119 5.85969 19.8219 5.59969V4.67969Z" fill="#5E5E5A"/>
<path d="M4.65958 11.9196C4.59958 11.9196 4.53957 11.9096 4.48957 11.8896C3.52957 11.4696 1.20958 9.78957 1.05958 9.32957C0.479577 7.59957 0.239586 1.33957 1.59959 0.759567C1.75959 0.689567 1.92957 0.659569 2.11957 0.659569C2.50957 0.659569 2.90959 0.789569 3.25959 0.909569C3.54959 1.00957 3.79959 1.08957 4.00959 1.08957C4.11959 1.08957 4.20958 1.06957 4.27958 1.01957C4.53958 0.839569 5.45957 0.55957 6.23957 0.55957C6.65957 0.55957 7.20957 0.639567 7.45957 1.00957C8.01957 1.87957 8.69957 6.25957 8.23957 7.86957C7.83957 9.29957 5.65958 11.9196 4.65958 11.9196Z" fill="#D3D3D3"/>
<path d="M6.23945 0.639999C6.63945 0.639999 7.16947 0.710001 7.38947 1.06C7.94947 1.92 8.60947 6.26 8.16947 7.86C7.73947 9.39 5.56946 11.85 4.65946 11.85C4.60946 11.85 4.55945 11.85 4.51945 11.82C3.58945 11.41 1.27946 9.74 1.12946 9.3C0.569462 7.63 0.329462 1.38 1.62946 0.830002C1.77946 0.770002 1.93945 0.740002 2.11945 0.740002C2.48945 0.740002 2.88947 0.870002 3.22947 0.990002C3.52947 1.09 3.77946 1.18 3.99946 1.18C4.12946 1.18 4.22945 1.15 4.30945 1.09C4.52945 0.94 5.39947 0.650002 6.22947 0.650002M6.22947 0.5C5.40947 0.5 4.48946 0.780001 4.21946 0.970001C4.15946 1.01 4.07945 1.03 3.98945 1.03C3.54945 1.03 2.81944 0.59 2.10944 0.59C1.91944 0.59 1.73945 0.620001 1.55945 0.700001C0.119455 1.31 0.409468 7.66 0.979468 9.36C1.14947 9.87 3.51947 11.56 4.44947 11.97C4.50947 12 4.57945 12.01 4.64945 12.01C5.68945 12.01 7.87945 9.42 8.29945 7.91C8.74945 6.3 8.09947 1.9 7.50947 0.990002C7.26947 0.630002 6.76947 0.5 6.22947 0.5Z" fill="#5E5E5A"/>
</svg>
