<svg width="20" height="31" viewBox="0 0 20 31" fill="none" xmlns="http://www.w3.org/2000/svg">
<path d="M13.19 6.00953C11.13 6.00953 9.05 5.84953 7 5.52953L7.06 4.76953C9.08 5.06953 11.15 5.21953 13.19 5.21953H13.47C15.42 5.20953 17.39 5.04953 19.31 4.76953V5.60953C17.42 5.83953 15.44 5.99953 13.46 6.01953H13.18L13.19 6.00953Z" fill="#D3D3D3"/>
<path d="M7.14047 4.84969C9.14047 5.13969 11.1705 5.28969 13.1905 5.28969H13.4705C15.3905 5.27969 17.3304 5.12969 19.2404 4.84969V5.46969C17.3404 5.75969 15.3905 5.91969 13.4705 5.92969H13.1905C11.1705 5.92969 9.14047 5.77969 7.14047 5.46969V4.84969ZM19.3805 4.67969C17.6605 4.93969 15.6704 5.12969 13.4604 5.13969C13.3704 5.13969 13.2705 5.13969 13.1805 5.13969C10.8505 5.13969 8.76047 4.93969 6.98047 4.67969V5.59969C8.75047 5.87969 10.8405 6.07969 13.1805 6.07969C13.2705 6.07969 13.3604 6.07969 13.4604 6.07969C15.6804 6.05969 17.6705 5.85969 19.3805 5.59969V4.67969Z" fill="#5E5E5A"/>
<path d="M3.91079 12.6002C3.86079 12.6002 3.81079 12.6002 3.78079 12.5702C3.14079 12.2402 2.3008 11.4102 1.6408 10.4602C0.320801 8.59019 0.200781 5.1302 0.400781 4.2702C0.610781 3.3802 3.83077 0.450195 4.61077 0.450195C5.37077 0.480195 7.72079 1.3802 8.10079 2.2402C8.46079 3.0602 8.30077 7.2002 7.58077 9.0802C6.95077 10.7302 4.7308 12.5902 3.9208 12.5902L3.91079 12.6002Z" fill="#D3D3D3"/>
<path d="M4.60148 0.529881C5.41148 0.559881 7.68146 1.48988 8.02146 2.27988C8.38146 3.09988 8.21147 7.18988 7.50147 9.05988C6.84147 10.7899 4.62148 12.5199 3.91148 12.5199C3.87148 12.5199 3.84148 12.5199 3.82148 12.4999C3.19148 12.1699 2.36148 11.3499 1.70148 10.4199C0.401485 8.56988 0.281474 5.13988 0.471474 4.28988C0.661474 3.44988 3.87148 0.529881 4.60148 0.529881ZM4.60148 0.379883C3.78148 0.379883 0.53148 3.32988 0.32148 4.25988C0.11148 5.18988 0.25148 8.63988 1.57148 10.5099C2.27148 11.4999 3.12146 12.3099 3.74146 12.6399C3.79146 12.6599 3.84147 12.6799 3.90147 12.6799C4.72147 12.6799 6.98148 10.8199 7.63148 9.11988C8.33148 7.27988 8.54147 3.10988 8.15147 2.21988C7.76147 1.33988 5.40146 0.419883 4.61146 0.379883C4.61146 0.379883 4.61148 0.379883 4.60148 0.379883Z" fill="#5E5E5A"/>
</svg>
