<svg width="20" height="25" viewBox="0 0 20 25" fill="none" xmlns="http://www.w3.org/2000/svg">
<path d="M13.7603 6.00953C11.7003 6.00953 9.62031 5.84953 7.57031 5.52953L7.63031 4.76953C9.65031 5.06953 11.7203 5.21953 13.7603 5.21953H14.0403C15.9903 5.20953 17.9603 5.04953 19.8803 4.76953V5.60953C17.9903 5.83953 16.0103 5.99953 14.0303 6.01953H13.7503L13.7603 6.00953Z" fill="#D3D3D3"/>
<path d="M7.71078 4.84969C9.71078 5.13969 11.7408 5.28969 13.7608 5.28969H14.0408C15.9608 5.27969 17.9008 5.12969 19.8108 4.84969V5.46969C17.9108 5.75969 15.9608 5.91969 14.0408 5.92969H13.7608C11.7408 5.92969 9.71078 5.77969 7.71078 5.46969V4.84969ZM19.9508 4.67969C18.2308 4.93969 16.2408 5.12969 14.0308 5.13969C13.9408 5.13969 13.8408 5.13969 13.7508 5.13969C11.4208 5.13969 9.33078 4.93969 7.55078 4.67969V5.59969C9.32078 5.87969 11.4108 6.07969 13.7508 6.07969C13.8408 6.07969 13.9308 6.07969 14.0308 6.07969C16.2508 6.05969 18.2408 5.85969 19.9508 5.59969V4.67969Z" fill="#5E5E5A"/>
<path d="M5.21991 11.38C5.08991 11.38 4.96991 11.36 4.83991 11.33C3.99991 11.08 3.04992 10.05 2.41992 9.36996C2.26992 9.20996 2.13992 9.06996 2.03992 8.95996C1.20992 8.12996 0.749909 5.61996 0.809909 4.31996C0.859909 3.21996 1.1799 2.97996 1.9299 2.39996C2.0899 2.27996 2.27992 2.12996 2.47992 1.96996C3.36992 1.23996 4.3999 0.459961 5.2699 0.459961C5.5199 0.459961 5.7499 0.529962 5.9599 0.659962C6.6699 1.12996 7.31991 1.39996 7.83991 1.61996C9.25991 2.21996 9.8499 2.46996 9.0199 5.46996C8.7999 6.25996 8.68992 6.92996 8.59992 7.51996C8.43992 8.50996 8.31992 9.22996 7.78992 9.74996C7.03992 10.48 6.11991 11.37 5.21991 11.37V11.38Z" fill="#D3D3D3"/>
<path d="M5.27088 0.529881C5.51088 0.529881 5.72089 0.589883 5.91089 0.719883C6.63089 1.19988 7.28088 1.46988 7.80088 1.68988C9.18088 2.26988 9.75089 2.50988 8.94089 5.45988C8.72089 6.24988 8.61088 6.91988 8.52088 7.51988C8.36088 8.49988 8.25089 9.20988 7.72089 9.71988C6.99089 10.4299 6.09089 11.3099 5.22089 11.3099C5.10089 11.3099 4.98089 11.2899 4.87089 11.2599C4.05089 11.0099 3.1009 9.99988 2.4809 9.31988C2.3309 9.15988 2.20089 9.01989 2.09089 8.90989C1.34089 8.15989 0.810906 5.78988 0.890906 4.32988C0.940906 3.25988 1.2509 3.02988 1.9809 2.46988C2.1409 2.33988 2.33089 2.19988 2.53089 2.03988C3.41089 1.31988 4.43088 0.539883 5.27088 0.539883M5.27088 0.389881C4.37088 0.389881 3.32089 1.19988 2.44089 1.91988C1.31089 2.84988 0.810881 2.93988 0.740881 4.31988C0.670881 5.69988 1.17088 8.18988 1.99088 9.01988C2.55088 9.57988 3.76088 11.0799 4.83088 11.3999C4.96088 11.4399 5.0909 11.4599 5.2309 11.4599C6.1709 11.4599 7.1009 10.5499 7.8509 9.80988C8.7109 8.96988 8.5109 7.62988 9.1009 5.49988C10.2609 1.28988 8.6209 2.33988 6.0109 0.59988C5.7809 0.44988 5.54089 0.379883 5.28089 0.379883L5.27088 0.389881Z" fill="#5E5E5A"/>
</svg>
