<svg width="22" height="24" viewBox="0 0 22 24" fill="none" xmlns="http://www.w3.org/2000/svg">
<path d="M15.3228 6.00953C13.2628 6.00953 11.1828 5.84953 9.13281 5.52953L9.19281 4.76953C11.2128 5.06953 13.2828 5.21953 15.3228 5.21953H15.6028C17.5528 5.20953 19.5228 5.04953 21.4428 4.76953V5.60953C19.5528 5.83953 17.5728 5.99953 15.5928 6.01953H15.3128L15.3228 6.00953Z" fill="#D3D3D3"/>
<path d="M9.2811 4.84969C11.2811 5.13969 13.3111 5.28969 15.3311 5.28969H15.6111C17.5311 5.27969 19.4711 5.12969 21.3811 4.84969V5.46969C19.4811 5.75969 17.5311 5.91969 15.6111 5.92969H15.3311C13.3111 5.92969 11.2811 5.77969 9.2811 5.46969V4.84969ZM21.5211 4.67969C19.8011 4.93969 17.8111 5.12969 15.6011 5.13969C15.5111 5.13969 15.4111 5.13969 15.3211 5.13969C12.9911 5.13969 10.9011 4.93969 9.12109 4.67969V5.59969C10.8911 5.87969 12.9811 6.07969 15.3211 6.07969C15.4111 6.07969 15.5011 6.07969 15.6011 6.07969C17.8211 6.05969 19.8111 5.85969 21.5211 5.59969V4.67969Z" fill="#5E5E5A"/>
<path d="M5.48823 11.43C4.99823 11.43 4.56822 11.25 4.19822 10.89C3.70822 10.41 3.30822 10.13 2.96822 9.89C2.15822 9.32 1.71822 9.01 1.18822 6.8C0.748223 4.94 1.30822 3.04 2.51822 2.27L2.91822 2.01C4.07822 1.27 5.65821 0.25 6.67821 0.25C6.82821 0.25 6.95823 0.27 7.06823 0.32C7.66823 0.55 7.95823 0.800001 8.23823 1.04C8.45823 1.23 8.66823 1.4 8.98823 1.54C9.61823 1.81 10.8282 3.22 10.7282 5.23C10.6582 6.6 9.82822 7.7 9.21822 8.5C8.95822 8.84 8.73822 9.13 8.62822 9.38C8.35822 9.99 6.84822 11.43 5.46822 11.43H5.48823Z" fill="#D3D3D3"/>
<path d="M6.68937 0.329926C6.82937 0.329926 6.94937 0.349923 7.05937 0.389923C7.64937 0.619923 7.92938 0.859922 8.20938 1.09992C8.42938 1.28992 8.64936 1.46992 8.97936 1.60992C9.59936 1.87992 10.7694 3.24992 10.6694 5.22992C10.5994 6.57992 9.77936 7.66992 9.17936 8.45992C8.91936 8.79992 8.68937 9.09992 8.57937 9.34992C8.31937 9.93992 6.83937 11.3499 5.48937 11.3499C5.01937 11.3499 4.59937 11.1799 4.24937 10.8399C3.74937 10.3599 3.33936 10.0699 3.00936 9.82993C2.21936 9.26993 1.77936 8.95992 1.25936 6.77992C0.829363 4.94992 1.36937 3.07993 2.55937 2.32993L2.95938 2.06992C4.10938 1.32992 5.67936 0.319923 6.67936 0.319923M6.67936 0.169922C5.50936 0.169922 3.63936 1.45992 2.47936 2.19992C1.15936 3.02992 0.699364 5.01993 1.11936 6.80993C1.86936 9.96993 2.47936 9.30993 4.14936 10.9399C4.55936 11.3399 5.01937 11.4999 5.48937 11.4999C6.92937 11.4999 8.44937 9.99993 8.71937 9.40993C9.06937 8.61993 10.7194 7.21993 10.8194 5.23993C10.9194 3.25993 9.75936 1.78992 9.03936 1.47992C8.31936 1.16992 8.19937 0.679924 7.10937 0.249924C6.97937 0.199924 6.83937 0.179924 6.68937 0.179924L6.67936 0.169922Z" fill="#5E5E5A"/>
</svg>
