<svg width="24" height="24" viewBox="0 0 24 24" fill="none" xmlns="http://www.w3.org/2000/svg">
<path d="M16.8892 6.00953C14.8292 6.00953 12.7492 5.84953 10.6992 5.52953L10.7592 4.76953C12.7792 5.06953 14.8492 5.21953 16.8892 5.21953H17.1692C19.1192 5.20953 21.0892 5.04953 23.0092 4.76953V5.60953C21.1192 5.83953 19.1292 5.99953 17.1592 6.01953H16.8792L16.8892 6.00953Z" fill="#D3D3D3"/>
<path d="M10.8397 4.84969C12.8397 5.13969 14.8697 5.28969 16.8897 5.28969H17.1697C19.0897 5.27969 21.0297 5.12969 22.9397 4.84969V5.46969C21.0397 5.75969 19.0897 5.91969 17.1697 5.92969H16.8897C14.8697 5.92969 12.8397 5.77969 10.8397 5.46969V4.84969ZM23.0797 4.67969C21.3597 4.93969 19.3697 5.12969 17.1597 5.13969C17.0697 5.13969 16.9697 5.13969 16.8797 5.13969C14.5497 5.13969 12.4597 4.93969 10.6797 4.67969V5.59969C12.4497 5.87969 14.5397 6.07969 16.8797 6.07969C16.9697 6.07969 17.0597 6.07969 17.1597 6.07969C19.3797 6.05969 21.3697 5.85969 23.0797 5.59969V4.67969Z" fill="#5E5E5A"/>
<path d="M7.02067 9.37953C6.69067 9.37953 6.39067 9.33953 6.10067 9.24953C5.49067 9.06953 4.79067 9.04953 4.10067 9.02953C2.93067 8.99953 1.83067 8.96953 1.52067 8.07953C0.970665 6.49953 0.360665 3.19953 2.02067 2.06953C3.76067 0.87953 5.11066 0.329533 6.25066 0.329533C6.69066 0.329533 7.05065 0.40953 7.40065 0.47953C7.70065 0.53953 7.99065 0.609531 8.29065 0.609531C8.41065 0.609531 8.54065 0.59953 8.68065 0.56953L8.80066 0.54953C9.40066 0.43953 10.3107 0.269531 11.2207 0.269531C12.1907 0.269531 12.9707 0.469531 13.5307 0.859531C14.9007 1.80953 14.5207 6.01953 13.7207 7.36953C13.1307 8.36953 12.3807 8.77953 11.1507 8.77953C10.9907 8.77953 10.8207 8.77953 10.6507 8.75953H10.5007C10.0107 8.75953 9.48065 8.89953 8.93065 9.04953C8.32065 9.21953 7.68067 9.38953 7.02067 9.38953V9.37953Z" fill="#D3D3D3"/>
<path d="M11.23 0.329926C12.19 0.329926 12.95 0.519925 13.5 0.899925C14.84 1.82993 14.45 5.97992 13.67 7.30992C12.96 8.50992 12.04 8.67992 11.16 8.67992C11 8.67992 10.83 8.67993 10.66 8.65993C10.61 8.65993 10.56 8.65993 10.5 8.65993C9.99996 8.65993 9.46995 8.80992 8.89995 8.95992C8.28995 9.12992 7.65995 9.29993 7.00995 9.29993C6.68995 9.29993 6.39996 9.25992 6.10996 9.16992C5.48996 8.97992 4.77996 8.95993 4.09996 8.93993C2.90996 8.90993 1.88995 8.87992 1.58995 8.03992C1.03995 6.46992 0.439955 3.21992 2.05996 2.11992C4.32996 0.569923 5.53996 0.389923 6.24996 0.389923C6.68996 0.389923 7.03996 0.469925 7.38996 0.539925C7.69996 0.609925 7.98996 0.669922 8.29996 0.669922C8.43996 0.669922 8.56995 0.659925 8.69995 0.629925L8.81997 0.609924C9.41997 0.499924 10.32 0.329926 11.22 0.329926M11.22 0.179924C10.24 0.179924 9.27996 0.369925 8.66996 0.489925C8.53996 0.509925 8.41996 0.519924 8.29996 0.519924C7.65996 0.519924 7.09995 0.239925 6.25995 0.239925C5.32995 0.239925 4.05995 0.579925 1.97995 1.98993C0.359954 3.09993 0.809955 6.22992 1.44995 8.08992C1.95995 9.54992 4.38997 8.80992 6.06997 9.30992C6.38997 9.40992 6.69995 9.43993 7.00995 9.43993C8.27995 9.43993 9.46996 8.79993 10.49 8.79993C10.54 8.79993 10.59 8.79993 10.64 8.79993C10.81 8.80993 10.98 8.81992 11.15 8.81992C12.22 8.81992 13.1 8.53992 13.79 7.37992C14.59 6.03992 15.01 1.75992 13.58 0.769924C12.92 0.309924 12.07 0.169922 11.23 0.169922L11.22 0.179924Z" fill="#5E5E5A"/>
</svg>
