<svg width="22" height="23" viewBox="0 0 22 23" fill="none" xmlns="http://www.w3.org/2000/svg">
<path d="M15.4595 6.00953C13.3995 6.00953 11.3195 5.84953 9.26953 5.52953L9.32953 4.76953C11.3495 5.06953 13.4195 5.21953 15.4595 5.21953H15.7395C17.6895 5.20953 19.6595 5.04953 21.5795 4.76953V5.60953C19.6895 5.83953 17.7095 5.99953 15.7295 6.01953H15.4495L15.4595 6.00953Z" fill="#D3D3D3"/>
<path d="M9.41 4.84969C11.41 5.13969 13.44 5.28969 15.46 5.28969H15.74C17.66 5.27969 19.6 5.12969 21.51 4.84969V5.46969C19.61 5.75969 17.66 5.91969 15.74 5.92969H15.46C13.44 5.92969 11.41 5.77969 9.41 5.46969V4.84969ZM21.65 4.67969C19.93 4.93969 17.94 5.12969 15.73 5.13969C15.64 5.13969 15.54 5.13969 15.45 5.13969C13.12 5.13969 11.03 4.93969 9.25 4.67969V5.59969C11.02 5.87969 13.11 6.07969 15.45 6.07969C15.54 6.07969 15.63 6.07969 15.73 6.07969C17.95 6.05969 19.94 5.85969 21.65 5.59969V4.67969Z" fill="#5E5E5A"/>
<path d="M6.74302 9.37075C5.58302 9.37075 4.87301 8.76074 4.29301 8.27074C3.88301 7.92074 3.52301 7.61074 3.11301 7.61074C2.60301 7.65074 2.29301 7.89075 2.04301 8.08075C1.89301 8.20075 1.75301 8.30075 1.65301 8.30075C1.59301 8.30075 1.49302 8.27074 1.35302 7.99074C0.40302 6.01074 0.163019 2.57074 2.24302 1.52074C2.91302 1.18074 3.59302 1.02074 4.38302 1.02074C4.76302 1.02074 5.12301 1.06074 5.45301 1.09074C5.74301 1.12074 6.01302 1.15075 6.27302 1.15075C6.67302 1.15075 6.97301 1.08074 7.22301 0.920742C7.73301 0.600742 8.70301 0.260742 9.64301 0.260742C10.583 0.260742 11.693 0.570743 12.053 2.05074C12.683 4.63074 12.213 6.85074 11.873 7.67074C11.743 7.99074 11.473 8.14074 11.043 8.14074C10.743 8.14074 10.393 8.07074 10.063 8.00074L9.89301 7.96074C9.89301 7.96074 9.80301 7.95074 9.75301 7.95074C9.31301 7.95074 8.74302 8.32074 8.19302 8.68074C7.68302 9.02074 7.15302 9.37075 6.77302 9.37075H6.74302Z" fill="#D3D3D3"/>
<path d="M9.64188 0.330433C10.5119 0.330433 11.6319 0.630432 11.9819 2.06043C12.6019 4.62043 12.1419 6.83043 11.8119 7.63043C11.6919 7.93043 11.4519 8.06043 11.0519 8.06043C10.7519 8.06043 10.4119 7.99043 10.0919 7.92043L9.92188 7.88043C9.92188 7.88043 9.82188 7.87043 9.77188 7.87043C9.31188 7.87043 8.76188 8.23043 8.17188 8.62043C7.67188 8.95043 7.14187 9.29043 6.76187 9.30043C5.63187 9.30043 4.96188 8.72043 4.36188 8.22043C3.94188 7.86043 3.57188 7.55043 3.13188 7.55043C3.10188 7.55043 3.07188 7.55043 3.05188 7.55043C2.59188 7.59043 2.26188 7.84043 2.02188 8.03043C1.88188 8.14043 1.75188 8.23043 1.67188 8.23043C1.58188 8.23043 1.49188 8.06043 1.44188 7.96043C0.66188 6.35043 0.0918713 2.71043 2.29187 1.59043C2.95187 1.25043 3.62188 1.10043 4.39188 1.10043C4.77188 1.10043 5.12188 1.14043 5.45188 1.17043C5.74188 1.20043 6.02188 1.23043 6.27188 1.23043C6.68188 1.23043 7.00187 1.15043 7.26187 0.990433C7.76187 0.680433 8.72187 0.340431 9.65187 0.340431M9.65187 0.19043C8.68187 0.19043 7.69187 0.540432 7.18187 0.860432C6.91187 1.03043 6.61188 1.08043 6.27188 1.08043C5.73188 1.08043 5.10188 0.950432 4.38188 0.950432C3.73188 0.950432 3.00188 1.06043 2.21188 1.46043C-0.0181153 2.59043 0.401871 6.20043 1.29187 8.03043C1.42187 8.29043 1.53187 8.39043 1.65187 8.39043C1.96187 8.39043 2.33187 7.77043 3.04187 7.71043C3.06187 7.71043 3.09188 7.71043 3.11188 7.71043C4.06188 7.71043 4.75188 9.47043 6.74188 9.47043C6.75188 9.47043 6.76188 9.47043 6.77188 9.47043C7.57188 9.47043 8.92188 8.05043 9.74188 8.05043C9.78188 8.05043 9.82188 8.05043 9.86188 8.06043C10.2519 8.14043 10.6619 8.24043 11.0319 8.24043C11.4319 8.24043 11.7719 8.12043 11.9319 7.72043C12.2419 6.96043 12.7619 4.73043 12.1119 2.05043C11.7719 0.64043 10.7119 0.200432 9.63188 0.200432L9.65187 0.19043Z" fill="#5E5E5A"/>
</svg>
