<svg width="22" height="21" viewBox="0 0 22 21" fill="none" xmlns="http://www.w3.org/2000/svg">
<path d="M15.022 6.00953C12.962 6.00953 10.882 5.84953 8.83203 5.52953L8.89203 4.76953C10.912 5.06953 12.982 5.21953 15.022 5.21953H15.302C17.252 5.20953 19.222 5.04953 21.142 4.76953V5.60953C19.252 5.83953 17.272 5.99953 15.292 6.01953H15.012L15.022 6.00953Z" fill="#D3D3D3"/>
<path d="M8.9803 4.84969C10.9803 5.13969 13.0103 5.28969 15.0303 5.28969H15.3103C17.2303 5.27969 19.1703 5.12969 21.0803 4.84969V5.46969C19.1803 5.75969 17.2303 5.91969 15.3103 5.92969H15.0303C13.0103 5.92969 10.9803 5.77969 8.9803 5.46969V4.84969ZM21.2203 4.67969C19.5003 4.93969 17.5103 5.12969 15.3003 5.13969C15.2103 5.13969 15.1103 5.13969 15.0203 5.13969C12.6903 5.13969 10.6003 4.93969 8.82031 4.67969V5.59969C10.5903 5.87969 12.6803 6.07969 15.0203 6.07969C15.1103 6.07969 15.2003 6.07969 15.3003 6.07969C17.5203 6.05969 19.5103 5.85969 21.2203 5.59969V4.67969Z" fill="#5E5E5A"/>
<path d="M3.87037 8.03C3.47037 8.03 3.09038 7.9 2.72038 7.63C1.66038 6.87 0.780382 4.97 1.16038 2.83C1.41038 1.45 1.93038 1.25 2.47038 1.25H2.84037C2.91037 1.25 2.98037 1.25 3.04037 1.25C3.21037 1.22 3.42038 1.11 3.66038 0.98C4.11038 0.74 4.66038 0.450001 5.36038 0.450001C5.52038 0.450001 5.68038 0.47 5.86038 0.5C6.35038 0.6 6.74038 0.639999 7.11038 0.639999C7.68038 0.639999 8.14038 0.529999 8.85038 0.369999L9.10038 0.310001C9.27038 0.270001 9.43037 0.25 9.59037 0.25C10.5704 0.25 11.5904 0.990001 11.6304 2.63C11.6804 4.38 11.6504 6.01 10.8204 6.69C10.6204 6.86 10.2904 6.94 9.81038 6.94C9.33038 6.94 8.77037 6.86 8.23037 6.78C7.77037 6.71 7.34037 6.65 7.01037 6.65C6.88037 6.65 6.77037 6.65 6.68037 6.68C6.43037 6.74 6.14038 6.94 5.81038 7.18C5.28038 7.56 4.61038 8.03 3.88038 8.03H3.87037Z" fill="#D3D3D3"/>
<path d="M9.57987 0.330433C10.5299 0.330433 11.4999 1.04043 11.5399 2.64043C11.5899 4.37043 11.5599 5.98043 10.7599 6.64043C10.5699 6.80043 10.2499 6.87043 9.78986 6.87043C9.32986 6.87043 8.75987 6.79043 8.21987 6.71043C7.75987 6.64043 7.31987 6.58043 6.98987 6.58043C6.84987 6.58043 6.73986 6.59043 6.64986 6.61043C6.38986 6.67043 6.09986 6.88043 5.75986 7.12043C5.23986 7.49043 4.57986 7.96043 3.86986 7.96043C3.48986 7.96043 3.11986 7.83043 2.75986 7.57043C1.70986 6.82043 0.849865 4.95043 1.22987 2.84043C1.47987 1.44043 1.99988 1.33043 2.45988 1.33043C2.52988 1.33043 2.58986 1.33043 2.64986 1.33043C2.70986 1.33043 2.76987 1.33043 2.82987 1.33043C2.90987 1.33043 2.97986 1.33043 3.03986 1.31043C3.22986 1.28043 3.43986 1.16043 3.67986 1.04043C4.11986 0.810432 4.66988 0.520432 5.34988 0.520432C5.50988 0.520432 5.66987 0.540431 5.82987 0.570431C6.31987 0.670431 6.71987 0.720432 7.08987 0.720432C7.66987 0.720432 8.15988 0.610432 8.84988 0.450432L9.09988 0.39043C9.25988 0.35043 9.41987 0.340431 9.57987 0.340431M9.57987 0.19043C9.40987 0.19043 9.23988 0.210431 9.06988 0.250431C8.23988 0.440431 7.71988 0.570431 7.09988 0.570431C6.74988 0.570431 6.35986 0.530431 5.86986 0.430431C5.68986 0.390431 5.51987 0.380432 5.35987 0.380432C4.25987 0.380432 3.49987 1.09043 3.02987 1.18043C2.96987 1.19043 2.90987 1.19043 2.83987 1.19043C2.72987 1.19043 2.59987 1.19043 2.46987 1.19043C1.94987 1.19043 1.34987 1.34043 1.08987 2.83043C0.719866 4.91043 1.53986 6.88043 2.67986 7.71043C3.09986 8.01043 3.49987 8.13043 3.87987 8.13043C5.08987 8.13043 6.05987 6.93043 6.69987 6.78043C6.78987 6.76043 6.88986 6.75043 7.00986 6.75043C7.69986 6.75043 8.87987 7.04043 9.80987 7.04043C10.2499 7.04043 10.6299 6.97043 10.8699 6.77043C11.6999 6.08043 11.7499 4.52043 11.6999 2.65043C11.6599 1.03043 10.6899 0.19043 9.58987 0.19043H9.57987Z" fill="#5E5E5A"/>
</svg>
