<svg width="21" height="20" viewBox="0 0 21 20" fill="none" xmlns="http://www.w3.org/2000/svg">
<path d="M20.8192 16.9393C18.4292 16.3793 15.9692 16.0993 13.4992 16.0993H13.1792C10.8292 16.1293 8.47922 16.4093 6.19922 16.9293V16.0993C8.43922 15.5793 10.7992 15.2693 13.1792 15.2393H13.5092C15.9992 15.2393 18.4792 15.5493 20.8792 16.1693L20.8292 16.9293L20.8192 16.9393Z" fill="#D3D3D3"/>
<path d="M13.4994 15.3297C15.9394 15.3297 18.3694 15.6297 20.7294 16.2297V16.8497C18.3594 16.3097 15.9294 16.0297 13.4994 16.0297H13.1694C10.8494 16.0597 8.51938 16.3297 6.25938 16.8497V16.2297C8.50938 15.6597 10.8294 15.3597 13.1594 15.3297H13.4894M13.4894 15.1797C13.3794 15.1797 13.2694 15.1797 13.1594 15.1797C10.2894 15.2097 7.87937 15.6497 6.10938 16.1097V17.0297C7.93938 16.5997 10.3394 16.2097 13.1694 16.1797C13.2794 16.1797 13.3894 16.1797 13.4994 16.1797C16.4894 16.1797 18.9994 16.5897 20.8794 17.0297V16.1097C19.0594 15.6397 16.5294 15.1797 13.4994 15.1797H13.4894Z" fill="#5E5E5A"/>
<path d="M6.47829 13.8396C6.64829 14.0596 6.78829 14.2996 6.88829 14.5596C7.86829 16.9196 8.40828 18.9996 6.48828 19.5696C4.64828 19.6296 2.80829 19.6896 1.89829 19.3496C0.718288 18.4796 0.528286 17.0996 0.928286 15.4296C1.02829 15.0096 1.19829 14.5996 1.42829 14.2396C1.88829 13.5096 2.59829 12.9596 3.45829 12.7596C3.83829 12.6696 4.21828 12.6496 4.58828 12.6996C5.34828 12.8096 6.01829 13.2396 6.47829 13.8396Z" fill="#D3D3D3" stroke="#5E5E5A" stroke-width="0.15" stroke-linecap="round" stroke-linejoin="round"/>
</svg>
