<svg width="19" height="19" viewBox="0 0 19 19" fill="none" xmlns="http://www.w3.org/2000/svg">
<path d="M18.6473 15.9393C16.2573 15.3793 13.7973 15.0993 11.3273 15.0993H11.0073C8.65735 15.1293 6.30734 15.4093 4.02734 15.9293V15.0993C6.26734 14.5793 8.62735 14.2693 11.0073 14.2393H11.3373C13.8273 14.2393 16.3073 14.5493 18.7073 15.1693L18.6573 15.9293L18.6473 15.9393Z" fill="#D3D3D3"/>
<path d="M11.3392 14.3297C13.7792 14.3297 16.2092 14.6297 18.5692 15.2297V15.8497C16.1992 15.3097 13.7692 15.0297 11.3392 15.0297H11.0092C8.68922 15.0597 6.35922 15.3297 4.09922 15.8497V15.2297C6.34922 14.6597 8.66922 14.3597 10.9992 14.3297H11.3292M11.3292 14.1797C11.2192 14.1797 11.1092 14.1797 10.9992 14.1797C8.12922 14.2097 5.71922 14.6497 3.94922 15.1097V16.0297C5.77922 15.5997 8.17922 15.2097 11.0092 15.1797C11.1192 15.1797 11.2292 15.1797 11.3392 15.1797C14.3292 15.1797 16.8392 15.5897 18.7192 16.0297V15.1097C16.8992 14.6397 14.3692 14.1797 11.3392 14.1797H11.3292Z" fill="#5E5E5A"/>
<path d="M2.88064 18.5401C2.36064 18.5401 1.93064 18.5101 1.59064 18.4401C1.08064 18.3301 0.660641 17.9401 0.540641 17.4501C0.140641 15.8601 0.40064 14.4401 1.34064 13.1201C1.92064 12.6301 2.52064 12.3701 3.09064 12.3701C3.40064 12.3701 3.71064 12.4401 4.02064 12.5901C4.25064 12.7001 4.46064 12.8501 4.62064 13.0501C4.81064 13.2601 4.95064 13.5201 5.04064 13.8001C5.38064 14.8601 5.60064 15.9801 5.70064 17.1201C5.77064 17.5201 5.82064 17.9601 5.60064 18.2201C5.46064 18.3901 5.22064 18.4701 4.87064 18.4701L4.52064 18.4901C3.96064 18.5201 3.39064 18.5601 2.87064 18.5601L2.88064 18.5401Z" fill="#D3D3D3"/>
<path d="M3.09951 12.4303C3.39951 12.4303 3.69952 12.5003 3.98952 12.6403C4.20952 12.7503 4.40951 12.8903 4.56951 13.0803C4.74951 13.2903 4.88951 13.5303 4.97951 13.8003C5.31951 14.8603 5.53951 15.9703 5.63951 17.1203C5.70951 17.5003 5.74952 17.9203 5.54952 18.1503C5.42952 18.3003 5.19951 18.3703 4.86951 18.3703L4.51951 18.3903C3.96951 18.4203 3.39951 18.4603 2.87951 18.4603C2.35951 18.4603 1.93951 18.4303 1.59951 18.3603C1.10951 18.2603 0.719514 17.8903 0.609514 17.4203C0.209514 15.8503 0.469515 14.4603 1.37951 13.1803C1.95951 12.6803 2.53951 12.4303 3.09951 12.4303ZM3.09951 12.2803C2.49951 12.2803 1.88951 12.5403 1.27951 13.0603C0.289513 14.4503 0.079515 15.9203 0.469515 17.4503C0.599515 17.9803 1.03952 18.3903 1.57952 18.5003C1.96952 18.5803 2.40951 18.6103 2.88951 18.6103C3.51951 18.6103 4.20951 18.5603 4.88951 18.5203C5.92951 18.5203 5.91952 17.8003 5.79952 17.0903C5.69952 15.9503 5.47951 14.8403 5.12951 13.7603C5.03951 13.4703 4.88951 13.2103 4.68951 12.9803C4.51951 12.7803 4.29952 12.6203 4.05952 12.5003C3.73952 12.3503 3.41951 12.2803 3.09951 12.2803Z" fill="#5E5E5A"/>
</svg>
