<svg width="21" height="22" viewBox="0 0 21 22" fill="none" xmlns="http://www.w3.org/2000/svg">
<path d="M20.4872 18.9393C18.0972 18.3793 15.6372 18.0993 13.1672 18.0993H12.8472C10.4972 18.1293 8.14719 18.4093 5.86719 18.9293V18.0993C8.10719 17.5793 10.4672 17.2693 12.8472 17.2393H13.1772C15.6672 17.2393 18.1472 17.5493 20.5472 18.1693L20.4972 18.9293L20.4872 18.9393Z" fill="#D3D3D3"/>
<path d="M13.1791 17.3297C15.6191 17.3297 18.0491 17.6297 20.4091 18.2297V18.8497C18.0391 18.3097 15.6091 18.0297 13.1791 18.0297H12.8491C10.5291 18.0597 8.19906 18.3297 5.93906 18.8497V18.2297C8.18906 17.6597 10.5091 17.3597 12.8391 17.3297H13.1691M13.1691 17.1797C13.0591 17.1797 12.9491 17.1797 12.8391 17.1797C9.96906 17.2097 7.55906 17.6497 5.78906 18.1097V19.0297C7.61906 18.5997 10.0191 18.2097 12.8491 18.1797C12.9591 18.1797 13.0691 18.1797 13.1791 18.1797C16.1691 18.1797 18.6791 18.5897 20.5591 19.0297V18.1097C18.7391 17.6397 16.2091 17.1797 13.1791 17.1797H13.1691Z" fill="#5E5E5A"/>
<path d="M3.37752 21.5401C3.18752 21.5401 3.01752 21.5101 2.85752 21.4601C1.11752 20.8701 0.567525 19.0801 1.23753 16.1601C1.33753 15.6901 1.52752 15.2701 1.77752 14.8901C1.99752 14.5501 2.26753 14.2701 2.57753 14.0601C3.02753 13.7401 3.47752 13.5801 3.92752 13.5801C4.55752 13.5801 5.20752 13.9101 5.83752 14.5701C6.65752 15.9101 6.93752 17.1101 6.68752 18.2301C6.34752 19.3601 5.71752 20.3101 4.75752 21.1501C4.45752 21.4101 4.06752 21.5501 3.65752 21.5501H3.38752L3.37752 21.5401Z" fill="#D3D3D3"/>
<path d="M3.92851 13.6498C4.53851 13.6498 5.16851 13.9698 5.76851 14.5898C6.58851 15.9198 6.86851 17.0998 6.61851 18.1898C6.28851 19.3098 5.65851 20.2498 4.71851 21.0798C4.42851 21.3298 4.05851 21.4598 3.65851 21.4598H3.38851C3.20851 21.4598 3.03851 21.4298 2.89851 21.3898C1.17851 20.7998 0.658512 19.0998 1.32851 16.1798C1.42851 15.7198 1.60851 15.3098 1.85851 14.9398C2.07851 14.6098 2.33851 14.3398 2.63851 14.1298C3.07851 13.8198 3.51851 13.6598 3.93851 13.6598M3.93851 13.5098C3.46851 13.5098 3.00851 13.6798 2.54851 14.0098C2.21851 14.2398 1.94851 14.5298 1.72851 14.8598C1.46851 15.2498 1.27851 15.6898 1.17851 16.1498C0.51851 19.0798 1.02851 20.9198 2.84851 21.5398C3.01851 21.5998 3.20851 21.6198 3.38851 21.6198H3.65851C4.07851 21.6198 4.49851 21.4798 4.80851 21.1998C5.70851 20.4098 6.39851 19.4498 6.75851 18.2398C7.03851 16.9998 6.65851 15.7598 5.88851 14.5198C5.22851 13.8398 4.56851 13.5098 3.92851 13.5098H3.93851Z" fill="#5E5E5A"/>
</svg>
