<svg width="23" height="20" viewBox="0 0 23 20" fill="none" xmlns="http://www.w3.org/2000/svg">
<path d="M22.3309 16.9393C19.9409 16.3793 17.4809 16.0993 15.0109 16.0993H14.6909C12.3409 16.1293 9.99094 16.4093 7.71094 16.9293V16.0993C9.95094 15.5793 12.3109 15.2693 14.6909 15.2393H15.0209C17.5109 15.2393 19.9909 15.5493 22.3909 16.1693L22.3409 16.9293L22.3309 16.9393Z" fill="#D3D3D3"/>
<path d="M15.0111 15.3297C17.4511 15.3297 19.8811 15.6297 22.2411 16.2297V16.8497C19.8711 16.3097 17.4411 16.0297 15.0111 16.0297H14.6811C12.3611 16.0597 10.0311 16.3297 7.77109 16.8497V16.2297C10.0211 15.6597 12.3411 15.3597 14.6711 15.3297H15.0011M15.0011 15.1797C14.8911 15.1797 14.7811 15.1797 14.6711 15.1797C11.8011 15.2097 9.39109 15.6497 7.62109 16.1097V17.0297C9.45109 16.5997 11.8511 16.2097 14.6811 16.1797C14.7911 16.1797 14.9011 16.1797 15.0111 16.1797C18.0011 16.1797 20.5111 16.5897 22.3911 17.0297V16.1097C20.5711 15.6397 18.0411 15.1797 15.0111 15.1797H15.0011Z" fill="#5E5E5A"/>
<path d="M5.38 19.5302C4.6 19.5302 3.81 19.4302 3.03 19.2402C2.39 19.1702 2.07 18.7202 2.05 17.8802C1.87 16.8502 2.02 15.8402 2.51 14.8502C2.6 14.6802 2.71 14.5102 2.85 14.3602C3.91 13.2202 4.89 12.6602 5.81 12.6602C6.58 12.6602 7.34 13.0502 8.06 13.8202C8.27 14.0402 8.47 14.2902 8.68 14.5802C9.39 15.5202 9.73 16.6402 9.71 18.0002C9.67 18.7902 9.37 19.2102 8.8 19.3002C8.73 19.3102 8.67 19.3102 8.6 19.3102C8.29 19.3102 7.97 19.2002 7.71 19.0002C7.56 18.8902 7.41 18.8302 7.24 18.8302C7.03 18.8302 6.82 18.9202 6.58 19.0902C6.21 19.3602 5.8 19.5102 5.41 19.5102H5.39L5.38 19.5302Z" fill="#D3D3D3"/>
<path d="M5.79832 12.7501C6.54832 12.7501 7.28832 13.1301 7.99832 13.8901C8.20832 14.1201 8.41832 14.3701 8.60832 14.6401C9.30832 15.5601 9.63832 16.6701 9.61832 18.0101C9.56832 19.0101 9.10832 19.1901 8.76832 19.2401C8.70832 19.2401 8.64832 19.2501 8.57832 19.2501C8.28832 19.2501 7.98832 19.1501 7.73832 18.9601C7.57832 18.8401 7.40832 18.7801 7.22832 18.7801C7.00832 18.7801 6.77832 18.8701 6.52832 19.0601C6.16832 19.3201 5.77832 19.4601 5.37832 19.4601C4.60832 19.4601 3.81832 19.3601 3.01832 19.1701C2.63832 19.1301 2.13832 18.9501 2.10832 17.8601C1.92832 16.8601 2.07832 15.8601 2.55832 14.8901C2.64832 14.7201 2.75832 14.5601 2.87832 14.4201L2.92832 14.3601C3.92832 13.2901 4.88832 12.7401 5.77832 12.7401M5.77832 12.5901C4.80832 12.5901 3.81832 13.1701 2.81832 14.2601C2.79832 14.2801 2.78832 14.3001 2.76832 14.3101C2.62832 14.4601 2.50832 14.6301 2.41832 14.8101C1.91832 15.8301 1.76832 16.8501 1.95832 17.8801C1.97832 18.8101 2.36832 19.2401 2.99832 19.3101C3.76832 19.5001 4.55832 19.6001 5.36832 19.6001H5.38832C5.82832 19.6001 6.24832 19.4301 6.59832 19.1701C6.80832 19.0201 7.00832 18.9201 7.21832 18.9201C7.35832 18.9201 7.49832 18.9701 7.63832 19.0701C7.90832 19.2801 8.23832 19.3901 8.56832 19.3901C8.63832 19.3901 8.70832 19.3901 8.77832 19.3701C9.34832 19.2801 9.70832 18.8701 9.75832 18.0001C9.77832 16.4901 9.37832 15.4001 8.71832 14.5301C8.50832 14.2401 8.30832 13.9901 8.09832 13.7701C7.34832 12.9701 6.57832 12.5801 5.78832 12.5801L5.77832 12.5901Z" fill="#5E5E5A"/>
</svg>
