<svg width="26" height="20" viewBox="0 0 26 20" fill="none" xmlns="http://www.w3.org/2000/svg">
<path d="M25.1591 16.9393C22.7691 16.3793 20.3091 16.0993 17.8391 16.0993H17.5191C15.1691 16.1293 12.8191 16.4093 10.5391 16.9293V16.0993C12.7791 15.5793 15.1391 15.2693 17.5191 15.2393H17.8491C20.3391 15.2393 22.8191 15.5493 25.2191 16.1693L25.1691 16.9293L25.1591 16.9393Z" fill="#D3D3D3"/>
<path d="M17.8509 15.3297C20.2909 15.3297 22.7209 15.6297 25.0809 16.2297V16.8497C22.7109 16.3097 20.2809 16.0297 17.8509 16.0297H17.5209C15.2009 16.0597 12.8709 16.3297 10.6109 16.8497V16.2297C12.8609 15.6597 15.1809 15.3597 17.5109 15.3297H17.8409M17.8409 15.1797C17.7309 15.1797 17.6209 15.1797 17.5109 15.1797C14.6409 15.2097 12.2309 15.6497 10.4609 16.1097V17.0297C12.2909 16.5997 14.6909 16.2097 17.5209 16.1797C17.6309 16.1797 17.7409 16.1797 17.8509 16.1797C20.8409 16.1797 23.3509 16.5897 25.2309 17.0297V16.1097C23.4109 15.6397 20.8809 15.1797 17.8509 15.1797H17.8409Z" fill="#5E5E5A"/>
<path d="M6.33144 19.5404C5.88144 19.5404 5.48144 19.4404 5.11144 19.2404C4.24144 18.7704 3.72144 17.7904 3.79144 16.7204C3.81144 16.3404 3.88144 15.9404 3.97144 15.5304C4.16144 14.7404 4.62144 14.0504 5.26144 13.5904C6.57144 12.6304 7.81144 12.1504 8.93144 12.1504C10.1414 12.1504 11.2514 12.7104 12.2414 13.8204C12.3714 13.9704 12.5014 14.1204 12.6314 14.2804C13.6614 15.7704 14.4214 17.3304 13.0314 18.5504C12.2314 19.1704 11.0514 19.4604 9.20144 19.4804C8.97144 19.4804 8.76144 19.3504 8.62144 19.1404C8.50144 18.9604 8.34144 18.8604 8.13144 18.8604C7.86144 18.8604 7.53144 19.0004 7.08144 19.3104C6.90144 19.4304 6.69144 19.5104 6.48144 19.5104H6.33144V19.5404Z" fill="#D3D3D3"/>
<path d="M8.93132 12.2303C10.1113 12.2303 11.2113 12.7903 12.1913 13.8803C12.3213 14.0203 12.4413 14.1803 12.5713 14.3303C13.9513 16.3403 14.0713 17.5503 13.0013 18.5003C12.2113 19.1103 11.0413 19.4003 9.21132 19.4203C9.01132 19.4203 8.82132 19.3103 8.70132 19.1203C8.57132 18.9203 8.38132 18.8103 8.14132 18.8103C7.86132 18.8103 7.51132 18.9603 7.05132 19.2803C6.89132 19.3903 6.69132 19.4603 6.49132 19.4703C6.44132 19.4703 6.39132 19.4703 6.34132 19.4703C5.91132 19.4703 5.52132 19.3703 5.15132 19.1803C4.30132 18.7303 3.80132 17.7703 3.87132 16.7303C3.89132 16.3503 3.95132 15.9503 4.05132 15.5503C4.24132 14.7903 4.68132 14.1203 5.30132 13.6603C5.30132 13.6603 5.31132 13.6603 5.32132 13.6603C6.62132 12.7103 7.84132 12.2303 8.94132 12.2303M8.94132 12.0803C7.78132 12.0803 6.54132 12.5803 5.23132 13.5303C4.57132 14.0103 4.10132 14.7203 3.91132 15.5203C3.81132 15.9203 3.75132 16.3203 3.72132 16.7203C3.65132 17.7703 4.15132 18.8103 5.08132 19.3103C5.45132 19.5103 5.87132 19.6203 6.34132 19.6203C6.39132 19.6203 6.44132 19.6203 6.50132 19.6203C6.73132 19.6203 6.95132 19.5303 7.14132 19.4003C7.52132 19.1403 7.87132 18.9603 8.14132 18.9603C8.32132 18.9603 8.46132 19.0303 8.57132 19.2003C8.71132 19.4203 8.95132 19.5703 9.21132 19.5703C10.7513 19.5503 12.1413 19.3503 13.0913 18.6203C14.4613 17.4003 13.8113 15.8603 12.6913 14.2403C12.5613 14.0703 12.4313 13.9203 12.3013 13.7703C11.2713 12.6203 10.1513 12.0703 8.93132 12.0703L8.94132 12.0803Z" fill="#5E5E5A"/>
</svg>
