<svg width="23" height="20" viewBox="0 0 23 20" fill="none" xmlns="http://www.w3.org/2000/svg">
<path d="M21.9794 16.9393C19.5894 16.3793 17.1294 16.0993 14.6594 16.0993H14.3394C11.9894 16.1293 9.63937 16.4093 7.35938 16.9293V16.0993C9.59938 15.5793 11.9594 15.2693 14.3394 15.2393H14.6694C17.1594 15.2393 19.6394 15.5493 22.0394 16.1693L21.9894 16.9293L21.9794 16.9393Z" fill="#D3D3D3"/>
<path d="M14.6712 15.3297C17.1112 15.3297 19.5413 15.6297 21.9013 16.2297V16.8497C19.5313 16.3097 17.1012 16.0297 14.6712 16.0297H14.3412C12.0212 16.0597 9.69125 16.3297 7.43125 16.8497V16.2297C9.68125 15.6597 12.0013 15.3597 14.3313 15.3297H14.6613M14.6613 15.1797C14.5513 15.1797 14.4413 15.1797 14.3313 15.1797C11.4613 15.2097 9.05125 15.6497 7.28125 16.1097V17.0297C9.11125 16.5997 11.5112 16.2097 14.3412 16.1797C14.4512 16.1797 14.5612 16.1797 14.6712 16.1797C17.6612 16.1797 20.1713 16.5897 22.0513 17.0297V16.1097C20.2313 15.6397 17.7012 15.1797 14.6712 15.1797H14.6613Z" fill="#5E5E5A"/>
<path d="M2.23953 13.8396C2.06953 14.0596 1.92954 14.2996 1.82954 14.5596C0.849536 16.9196 0.309537 18.9996 2.22954 19.5696C4.06954 19.6296 5.90953 19.6896 6.81953 19.3496C7.99953 18.4796 8.18953 17.0996 7.78953 15.4296C7.68953 15.0096 7.51953 14.5996 7.28953 14.2396C6.82953 13.5096 6.11954 12.9596 5.25954 12.7596C4.87954 12.6696 4.49953 12.6496 4.12953 12.6996C3.36953 12.8096 2.69953 13.2396 2.23953 13.8396Z" fill="#D3D3D3" stroke="#5E5E5A" stroke-width="0.15" stroke-linecap="round" stroke-linejoin="round"/>
</svg>
