<svg width="21" height="19" viewBox="0 0 21 19" fill="none" xmlns="http://www.w3.org/2000/svg">
<path d="M20.1395 15.9393C17.7495 15.3793 15.2895 15.0993 12.8195 15.0993H12.4995C10.1495 15.1293 7.79953 15.4093 5.51953 15.9293V15.0993C7.75953 14.5793 10.1195 14.2693 12.4995 14.2393H12.8295C15.3195 14.2393 17.7995 14.5493 20.1995 15.1693L20.1495 15.9293L20.1395 15.9393Z" fill="#D3D3D3"/>
<path d="M12.8314 14.3297C15.2714 14.3297 17.7014 14.6297 20.0614 15.2297V15.8497C17.6914 15.3097 15.2614 15.0297 12.8314 15.0297H12.5014C10.1814 15.0597 7.8514 15.3297 5.5914 15.8497V15.2297C7.8414 14.6597 10.1614 14.3597 12.4914 14.3297H12.8214M12.8214 14.1797C12.7114 14.1797 12.6014 14.1797 12.4914 14.1797C9.6214 14.2097 7.21141 14.6497 5.44141 15.1097V16.0297C7.27141 15.5997 9.6714 15.2097 12.5014 15.1797C12.6114 15.1797 12.7214 15.1797 12.8314 15.1797C15.8214 15.1797 18.3314 15.5897 20.2114 16.0297V15.1097C18.3914 14.6397 15.8614 14.1797 12.8314 14.1797H12.8214Z" fill="#5E5E5A"/>
<path d="M3.8527 18.5296C3.3327 18.5296 2.7627 18.4996 2.2027 18.4596L1.8527 18.4396C1.5027 18.4396 1.2627 18.3596 1.1127 18.1896C0.892704 17.9296 0.942705 17.4896 1.01271 17.0996C1.11271 15.9496 1.3427 14.8396 1.6727 13.7796C1.7627 13.4996 1.9027 13.2396 2.0927 13.0296C2.2627 12.8396 2.4627 12.6796 2.7027 12.5696C3.0127 12.4296 3.3227 12.3496 3.6327 12.3496C4.2127 12.3496 4.8027 12.6096 5.4027 13.1196C6.3327 14.4296 6.59271 15.8396 6.19271 17.4296C6.07271 17.9296 5.6527 18.3196 5.1427 18.4196C4.8027 18.4896 4.3727 18.5196 3.8527 18.5196V18.5296Z" fill="#D3D3D3"/>
<path d="M3.63167 12.43C4.19167 12.43 4.77167 12.68 5.32167 13.15C6.25167 14.45 6.51167 15.85 6.11167 17.42C5.99167 17.89 5.60167 18.26 5.12167 18.36C4.78167 18.43 4.36167 18.46 3.84167 18.46C3.32167 18.46 2.75167 18.43 2.20167 18.39L1.84167 18.37C1.52167 18.37 1.29167 18.29 1.17167 18.15C0.971669 17.92 1.02167 17.5 1.09167 17.11C1.19167 15.98 1.41167 14.87 1.75167 13.81C1.84167 13.54 1.97167 13.29 2.16167 13.09C2.32167 12.9 2.52167 12.76 2.74167 12.65C3.04167 12.51 3.34167 12.44 3.63167 12.44M3.63167 12.29C3.31167 12.29 2.99167 12.36 2.67167 12.51C2.43167 12.63 2.21167 12.79 2.04167 12.99C1.84167 13.21 1.69167 13.48 1.60167 13.77C1.26167 14.85 1.04167 15.96 0.931671 17.1C0.801671 17.81 0.791667 18.53 1.84167 18.53C2.52167 18.57 3.21167 18.62 3.84167 18.62C4.32167 18.62 4.76167 18.59 5.15167 18.51C5.69167 18.4 6.13167 17.99 6.26167 17.46C6.65167 15.93 6.44167 14.46 5.45167 13.07C4.84167 12.55 4.24167 12.29 3.63167 12.29Z" fill="#5E5E5A"/>
</svg>
