<svg width="20" height="22" viewBox="0 0 20 22" fill="none" xmlns="http://www.w3.org/2000/svg">
<path d="M19.3114 18.9393C16.9214 18.3793 14.4614 18.0993 11.9914 18.0993H11.6714C9.3214 18.1293 6.97141 18.4093 4.69141 18.9293V18.0993C6.93141 17.5793 9.2914 17.2693 11.6714 17.2393H12.0014C14.4914 17.2393 16.9714 17.5493 19.3714 18.1693L19.3214 18.9293L19.3114 18.9393Z" fill="#D3D3D3"/>
<path d="M11.9916 17.3297C14.4316 17.3297 16.8616 17.6297 19.2216 18.2297V18.8497C16.8516 18.3097 14.4216 18.0297 11.9916 18.0297H11.6616C9.34156 18.0597 7.01156 18.3297 4.75156 18.8497V18.2297C7.00156 17.6597 9.32155 17.3597 11.6516 17.3297H11.9816M11.9816 17.1797C11.8716 17.1797 11.7616 17.1797 11.6516 17.1797C8.78155 17.2097 6.37156 17.6497 4.60156 18.1097V19.0297C6.43156 18.5997 8.83156 18.2097 11.6616 18.1797C11.7716 18.1797 11.8816 18.1797 11.9916 18.1797C14.9816 18.1797 17.4916 18.5897 19.3716 19.0297V18.1097C17.5516 17.6397 15.0216 17.1797 11.9916 17.1797H11.9816Z" fill="#5E5E5A"/>
<path d="M4.07912 21.5303C3.66912 21.5303 3.26911 21.3903 2.97911 21.1303C2.01911 20.2903 1.38912 19.3403 1.04912 18.2003C0.79912 17.0903 1.07912 15.8903 1.90912 14.5403C2.52912 13.9003 3.17911 13.5703 3.80911 13.5703C4.24911 13.5703 4.70912 13.7303 5.15912 14.0503C5.46912 14.2703 5.73912 14.5503 5.95912 14.8803C6.20912 15.2603 6.38912 15.6803 6.49912 16.1503C7.15912 19.0703 6.61912 20.8603 4.87912 21.4503C4.72912 21.5003 4.55912 21.5303 4.35912 21.5303H4.08911H4.07912Z" fill="#D3D3D3"/>
<path d="M3.80076 13.6405C4.23076 13.6405 4.67076 13.8005 5.10076 14.1105C5.40076 14.3205 5.66076 14.6005 5.88076 14.9205C6.13076 15.2905 6.31076 15.7105 6.41076 16.1605C7.07076 19.0805 6.56076 20.7905 4.83076 21.3705C4.69076 21.4205 4.52075 21.4405 4.34075 21.4405H4.07076C3.67076 21.4405 3.30075 21.3005 3.01075 21.0605C2.06075 20.2305 1.44076 19.2905 1.11076 18.1805C0.860758 17.0805 1.14076 15.9005 1.94076 14.5905C2.56076 13.9505 3.18076 13.6305 3.80076 13.6305M3.80076 13.4805C3.15076 13.4805 2.50075 13.8105 1.84075 14.4905C1.07075 15.7305 0.690759 16.9805 0.970759 18.2105C1.33076 19.4205 2.01076 20.3805 2.92076 21.1705C3.24076 21.4505 3.65076 21.5905 4.07076 21.5905H4.34075C4.52075 21.5905 4.71076 21.5705 4.88076 21.5105C6.70076 20.8905 7.22076 19.0505 6.55076 16.1205C6.45076 15.6605 6.26076 15.2205 6.00076 14.8305C5.78076 14.5005 5.51075 14.2105 5.18075 13.9805C4.72075 13.6505 4.26075 13.4805 3.79075 13.4805H3.80076Z" fill="#5E5E5A"/>
</svg>
