<svg width="22" height="20" viewBox="0 0 22 20" fill="none" xmlns="http://www.w3.org/2000/svg">
<path d="M21.5497 16.9393C19.1597 16.3793 16.6997 16.0993 14.2297 16.0993H13.9097C11.5597 16.1293 9.20969 16.4093 6.92969 16.9293V16.0993C9.16969 15.5793 11.5297 15.2693 13.9097 15.2393H14.2397C16.7297 15.2393 19.2097 15.5493 21.6097 16.1693L21.5597 16.9293L21.5497 16.9393Z" fill="#D3D3D3"/>
<path d="M14.2416 15.3297C16.6816 15.3297 19.1116 15.6297 21.4716 16.2297V16.8497C19.1016 16.3097 16.6716 16.0297 14.2416 16.0297H13.9116C11.5916 16.0597 9.26156 16.3297 7.00156 16.8497V16.2297C9.25156 15.6597 11.5716 15.3597 13.9016 15.3297H14.2316M14.2316 15.1797C14.1216 15.1797 14.0116 15.1797 13.9016 15.1797C11.0316 15.2097 8.62156 15.6497 6.85156 16.1097V17.0297C8.68156 16.5997 11.0816 16.2097 13.9116 16.1797C14.0216 16.1797 14.1316 16.1797 14.2416 16.1797C17.2316 16.1797 19.7416 16.5897 21.6216 17.0297V16.1097C19.8016 15.6397 17.2716 15.1797 14.2416 15.1797H14.2316Z" fill="#5E5E5A"/>
<path d="M6.31648 19.5297C5.92648 19.5297 5.51647 19.3897 5.14647 19.1097C4.90647 18.9297 4.68648 18.8497 4.48648 18.8497C4.32648 18.8497 4.16648 18.9097 4.01648 19.0197C3.75648 19.2197 3.44648 19.3297 3.12648 19.3297C3.05648 19.3297 2.99647 19.3297 2.92647 19.3197C2.35647 19.2297 2.05648 18.8097 2.01648 18.0197C1.99648 16.6597 2.32648 15.5397 3.04648 14.5997C3.25648 14.3097 3.45648 14.0597 3.66648 13.8397C4.38648 13.0697 5.14648 12.6797 5.91648 12.6797C6.83648 12.6797 7.81648 13.2297 8.82648 14.3197C9.00648 14.5197 9.12648 14.6897 9.21648 14.8597C9.69648 15.8397 9.85647 16.8597 9.67647 17.8797C9.65647 18.7297 9.33647 19.1797 8.69647 19.2497C7.90647 19.4397 7.10647 19.5397 6.33647 19.5397H6.31648V19.5297Z" fill="#D3D3D3"/>
<path d="M5.9281 12.7496C6.8281 12.7496 7.78811 13.2896 8.80811 14.3896L8.8381 14.4196C8.9681 14.5596 9.07811 14.7196 9.16811 14.8896C9.64811 15.8596 9.7981 16.8596 9.6181 17.8896C9.5881 18.9496 9.08811 19.1296 8.68811 19.1796C7.90811 19.3696 7.11811 19.4696 6.32811 19.4696C5.94811 19.4696 5.55812 19.3296 5.20812 19.0696C4.95812 18.8796 4.7281 18.7896 4.5081 18.7896C4.3281 18.7896 4.15811 18.8496 3.99811 18.9696C3.74811 19.1596 3.44811 19.2596 3.15811 19.2596C3.09811 19.2596 3.0381 19.2596 2.9781 19.2496C2.6381 19.1996 2.18811 19.0096 2.12811 18.0196C2.10811 16.6696 2.43811 15.5696 3.13811 14.6396C3.32811 14.3696 3.53811 14.1196 3.74811 13.8896C4.45811 13.1296 5.19811 12.7496 5.94811 12.7496M5.94811 12.5996C5.16811 12.5996 4.39811 12.9796 3.63811 13.7896C3.42811 14.0096 3.21811 14.2696 3.01811 14.5496C2.35811 15.4096 1.9481 16.5096 1.9781 18.0196C2.0281 18.8896 2.37812 19.2996 2.95812 19.3896C3.02812 19.3996 3.09811 19.4096 3.16811 19.4096C3.49811 19.4096 3.82811 19.2896 4.09811 19.0896C4.23811 18.9796 4.37811 18.9396 4.51811 18.9396C4.71811 18.9396 4.92811 19.0296 5.13811 19.1896C5.49811 19.4496 5.90811 19.6196 6.34811 19.6196H6.3681C7.1781 19.6196 7.96811 19.5196 8.73811 19.3296C9.36811 19.2596 9.75811 18.8296 9.77811 17.8996C9.95811 16.8696 9.80812 15.8496 9.31812 14.8296C9.22812 14.6496 9.10811 14.4796 8.96811 14.3296C8.94811 14.3096 8.93811 14.2896 8.91811 14.2796C7.90811 13.1896 6.91812 12.6096 5.95812 12.6096L5.94811 12.5996Z" fill="#5E5E5A"/>
</svg>
