<svg width="14" height="20" viewBox="0 0 14 20" fill="none" xmlns="http://www.w3.org/2000/svg">
<path d="M8.09641 19.5296C7.88641 19.5296 7.6664 19.4497 7.4964 19.3297C7.0464 19.0197 6.7164 18.8797 6.4464 18.8797C6.2364 18.8797 6.0664 18.9696 5.9464 19.1596C5.8064 19.3696 5.5964 19.4996 5.3664 19.4996C3.5164 19.4796 2.3364 19.1897 1.5264 18.5597C0.146399 17.3297 0.906403 15.7796 1.9364 14.2796C2.0564 14.1196 2.18641 13.9696 2.31641 13.8196C3.30641 12.7096 4.42641 12.1396 5.62641 12.1396C6.74641 12.1396 7.9764 12.6196 9.2964 13.5796C9.9364 14.0496 10.3964 14.7396 10.5864 15.5196C10.6864 15.9296 10.7464 16.3196 10.7664 16.7096C10.8364 17.7696 10.3264 18.7596 9.4464 19.2296C9.0664 19.4296 8.6664 19.5296 8.2264 19.5296H8.0764H8.09641Z" fill="#D3D3D3"/>
<path d="M5.63822 12.2196C6.73822 12.2196 7.95821 12.6996 9.25821 13.6496C9.25821 13.6496 9.25822 13.6496 9.26822 13.6496C9.88822 14.1096 10.3382 14.7796 10.5182 15.5396C10.6182 15.9396 10.6782 16.3396 10.6982 16.7196C10.7682 17.7496 10.2682 18.7096 9.41821 19.1596C9.04821 19.3596 8.66821 19.4496 8.22821 19.4496C8.17821 19.4496 8.12822 19.4496 8.07822 19.4496C7.87822 19.4496 7.67822 19.3696 7.51822 19.2596C7.05822 18.9396 6.70821 18.7896 6.42821 18.7896C6.19821 18.7896 5.99821 18.8996 5.86821 19.0996C5.74821 19.2896 5.55822 19.3996 5.34822 19.3996C3.51822 19.3696 2.34822 19.0896 1.56822 18.4896C0.488223 17.5296 0.608212 16.3196 1.97821 14.3196C2.10821 14.1596 2.22822 13.9996 2.35822 13.8596C3.33822 12.7696 4.42821 12.2096 5.61821 12.2096M5.61821 12.0596C4.39821 12.0596 3.27822 12.6096 2.24822 13.7596C2.11822 13.9096 1.98822 14.0596 1.85822 14.2296C0.748217 15.8496 0.0882229 17.3896 1.45822 18.6096C2.40822 19.3396 3.79821 19.5396 5.33821 19.5596C5.59821 19.5596 5.83821 19.4096 5.97821 19.1896C6.08821 19.0196 6.23822 18.9496 6.40822 18.9496C6.68822 18.9496 7.02822 19.1296 7.40822 19.3896C7.59822 19.5196 7.81822 19.5996 8.04822 19.6096C8.09822 19.6096 8.14822 19.6096 8.20822 19.6096C8.67822 19.6096 9.09822 19.4996 9.46822 19.2996C10.3982 18.7996 10.8982 17.7596 10.8282 16.7096C10.8082 16.2996 10.7382 15.8996 10.6382 15.5096C10.4482 14.7096 9.97822 14.0096 9.31822 13.5196C8.00822 12.5696 6.76822 12.0696 5.60822 12.0696L5.61821 12.0596Z" fill="#5E5E5A"/>
</svg>
