<svg width="19" height="18" viewBox="0 0 19 18" fill="none" xmlns="http://www.w3.org/2000/svg">
<path d="M11.4716 5.28961C8.98157 5.28961 6.50156 4.97961 4.10156 4.35961L4.15157 3.59961C6.54157 4.14961 9.00156 4.43961 11.4616 4.43961H11.7916C14.1416 4.40961 16.4916 4.12961 18.7716 3.60961V4.43961C16.5316 4.95961 14.1716 5.26961 11.7916 5.29961H11.4616L11.4716 5.28961Z" fill="#D3D3D3"/>
<path d="M4.24156 3.69C6.61156 4.23 9.04157 4.51 11.4716 4.51H11.8016C14.1216 4.48 16.4516 4.21 18.7116 3.69V4.31C16.4616 4.88 14.1416 5.18 11.8116 5.21H11.4816C9.04157 5.21 6.61156 4.91 4.25156 4.31V3.69M18.8716 3.5C17.0416 3.93 14.6416 4.32 11.8116 4.35C11.7016 4.35 11.5916 4.35 11.4816 4.35C8.49157 4.35 5.98156 3.94 4.10156 3.5V4.42C5.92156 4.89 8.45157 5.35 11.4816 5.35C11.5916 5.35 11.7016 5.35 11.8116 5.35C14.6816 5.32 17.0916 4.88 18.8616 4.42V3.5H18.8716Z" fill="#5E5E5A"/>
<path d="M4.04188 7.12002C4.25188 6.72002 4.35188 6.27002 4.37188 5.82002L4.50187 2.35002C4.55187 1.55002 4.22187 1.15002 3.75187 0.850015C3.04187 0.340015 2.02188 0.110017 1.16188 0.160017C0.561879 0.350017 0.541874 0.210019 0.461874 0.740019C0.421874 0.990019 0.411875 1.24002 0.431875 1.49002C0.541875 3.09002 0.701876 4.56002 0.861876 5.93002C0.901876 6.30002 1.04188 6.64002 1.26188 6.94002C1.28188 6.97002 1.31188 7.00002 1.33188 7.04002C2.36188 8.31002 3.22188 8.41002 3.91188 7.37002C3.96188 7.30002 4.01188 7.22002 4.05188 7.14002" fill="#D3D3D3"/>
<path d="M4.04188 7.12002C4.25188 6.72002 4.35188 6.27002 4.37188 5.82002L4.50187 2.35002C4.55187 1.55002 4.22187 1.15002 3.75187 0.850015C3.04187 0.340015 2.02188 0.110017 1.16188 0.160017C0.561879 0.350017 0.541874 0.210019 0.461874 0.740019C0.421874 0.990019 0.411875 1.24002 0.431875 1.49002C0.541875 3.09002 0.701876 4.56002 0.861876 5.93002C0.901876 6.30002 1.04188 6.64002 1.26188 6.94002C1.28188 6.97002 1.31188 7.00002 1.33188 7.04002C2.36188 8.31002 3.22188 8.41002 3.91188 7.37002C3.96188 7.30002 4.01188 7.22002 4.05188 7.14002" stroke="#5E5E5A" stroke-width="0.15" stroke-linecap="round" stroke-linejoin="round"/>
</svg>
