<svg width="19" height="19" viewBox="0 0 19 19" fill="none" xmlns="http://www.w3.org/2000/svg">
<path d="M11.423 5.28961C9.10297 5.28961 6.78297 4.97961 4.54297 4.35961L4.59296 3.59961C6.82296 4.14961 9.12297 4.42961 11.423 4.42961H11.733C13.923 4.39961 16.123 4.12961 18.253 3.59961V4.42961C16.163 4.94961 13.953 5.25961 11.743 5.28961H11.433H11.423Z" fill="#D3D3D3"/>
<path d="M4.67125 3.69977C6.88125 4.23977 9.15125 4.50977 11.4212 4.50977H11.7313C13.9013 4.48977 16.0612 4.20977 18.1712 3.69977V4.31977C16.0712 4.88977 13.9013 5.18977 11.7313 5.21977H11.4212C9.14125 5.21977 6.87125 4.91977 4.67125 4.31977V3.69977ZM18.3213 3.50977C16.6113 3.93977 14.3713 4.32977 11.7313 4.35977C11.6313 4.35977 11.5313 4.35977 11.4313 4.35977C8.64125 4.35977 6.29125 3.94977 4.53125 3.50977V4.42977C6.23125 4.89977 8.59125 5.35977 11.4313 5.35977C11.5313 5.35977 11.6312 5.35977 11.7412 5.35977C14.4212 5.32977 16.6713 4.88977 18.3313 4.42977V3.50977H18.3213Z" fill="#5E5E5A"/>
<path d="M0.851629 6.49989C0.951629 6.71989 1.09163 6.92989 1.26163 7.09989C1.97163 7.80989 2.68163 8.04989 3.41163 7.84989C3.89163 7.71989 4.27163 7.39989 4.51163 6.98989C4.67163 6.71989 4.77163 6.40989 4.79163 6.08989L5.09163 2.49989C5.04163 1.95989 4.91163 1.48989 4.69163 1.08989C4.45163 0.65989 3.99163 0.379888 3.49163 0.349888L1.02163 0.189889C0.391627 0.159889 0.191632 0.319889 0.221632 1.09989C0.221632 1.29989 0.241634 1.49989 0.231634 1.69989C0.191634 3.28989 0.311629 4.69989 0.671629 5.82989C0.691629 6.05989 0.751629 6.28989 0.851629 6.49989Z" fill="#D3D3D3" stroke="#5E5E5A" stroke-width="0.15" stroke-linecap="round" stroke-linejoin="round"/>
</svg>
