<svg width="19" height="22" viewBox="0 0 19 22" fill="none" xmlns="http://www.w3.org/2000/svg">
<path d="M11.9034 5.28961C9.58343 5.28961 7.26344 4.97961 5.02344 4.35961L5.07344 3.59961C7.30344 4.14961 9.60343 4.42961 11.9034 4.42961H12.2134C14.4034 4.39961 16.6034 4.12961 18.7334 3.59961V4.42961C16.6434 4.94961 14.4334 5.25961 12.2234 5.28961H11.9134H11.9034Z" fill="#D3D3D3"/>
<path d="M5.15172 3.69977C7.36172 4.23977 9.63172 4.50977 11.9017 4.50977H12.2117C14.3817 4.48977 16.5417 4.20977 18.6517 3.69977V4.31977C16.5517 4.88977 14.3817 5.18977 12.2117 5.21977H11.9017C9.62172 5.21977 7.35172 4.91977 5.15172 4.31977V3.69977ZM18.8017 3.50977C17.0917 3.93977 14.8517 4.32977 12.2117 4.35977C12.1117 4.35977 12.0117 4.35977 11.9117 4.35977C9.12173 4.35977 6.77172 3.94977 5.01172 3.50977V4.42977C6.71172 4.89977 9.07173 5.35977 11.9117 5.35977C12.0117 5.35977 12.1117 5.35977 12.2217 5.35977C14.9017 5.32977 17.1517 4.88977 18.8117 4.42977V3.50977H18.8017Z" fill="#5E5E5A"/>
<path d="M3.60319 9.74996C3.00319 9.74996 2.36319 9.22996 1.71319 8.21996C1.65319 8.13996 1.60318 8.04996 1.55318 7.95996C0.743184 6.57996 0.56318 4.80996 1.03318 2.69996C1.78318 1.04996 2.59318 0.209961 3.44318 0.209961C4.29318 0.209961 5.24318 1.06996 6.23318 2.74996C6.49318 3.19996 6.63319 3.69996 6.63319 4.21996C6.63319 5.79996 6.26318 7.05996 5.55318 7.94996C4.91318 9.14996 4.26319 9.74996 3.60319 9.74996Z" fill="#D3D3D3"/>
<path d="M3.44185 0.28965C4.27185 0.28965 5.18185 1.12965 6.16185 2.79965C6.42185 3.23965 6.55185 3.72965 6.55185 4.22965C6.55185 5.79965 6.19185 7.03965 5.47185 7.93965C4.85185 9.09965 4.22185 9.68965 3.60185 9.68965C3.02185 9.68965 2.41185 9.18965 1.77185 8.18965C1.71185 8.10965 1.66185 8.01965 1.61185 7.93965C0.811847 6.56965 0.631843 4.81965 1.09184 2.76965C1.83184 1.13965 2.62184 0.30965 3.43184 0.30965M3.43184 0.159649C2.56184 0.159649 1.73184 0.979648 0.951844 2.70965C0.481844 4.80965 0.641842 6.58965 1.48184 8.01965C1.53184 8.10965 1.59185 8.19965 1.64185 8.27965C2.30185 9.30965 2.95184 9.83965 3.59184 9.83965C4.27184 9.83965 4.94185 9.24965 5.60185 8.00965C6.35185 7.07965 6.70184 5.79965 6.70184 4.22965C6.70184 3.69965 6.55184 3.17965 6.29184 2.71965C5.30184 1.02965 4.34185 0.139648 3.44185 0.139648L3.43184 0.159649Z" fill="#5E5E5A"/>
</svg>
