<svg width="22" height="18" viewBox="0 0 22 18" fill="none" xmlns="http://www.w3.org/2000/svg">
<path d="M15.0323 5.28961C12.7123 5.28961 10.3923 4.97961 8.15234 4.35961L8.20235 3.59961C10.4323 4.14961 12.7323 4.42961 15.0323 4.42961H15.3423C17.5323 4.39961 19.7324 4.12961 21.8624 3.59961V4.42961C19.7724 4.94961 17.5623 5.25961 15.3423 5.28961H15.0323Z" fill="#D3D3D3"/>
<path d="M8.28062 3.69977C10.4906 4.23977 12.7606 4.50977 15.0306 4.50977H15.3406C17.5106 4.48977 19.6706 4.20977 21.7806 3.69977V4.31977C19.6806 4.88977 17.5106 5.18977 15.3406 5.21977H15.0306C12.7506 5.21977 10.4806 4.91977 8.28062 4.31977V3.69977ZM21.9306 3.50977C20.2206 3.93977 17.9806 4.32977 15.3406 4.35977C15.2406 4.35977 15.1406 4.35977 15.0406 4.35977C12.2506 4.35977 9.90062 3.94977 8.14062 3.50977V4.42977C9.84063 4.89977 12.2006 5.35977 15.0406 5.35977C15.1406 5.35977 15.2406 5.35977 15.3506 5.35977C18.0306 5.32977 20.2806 4.88977 21.9406 4.42977V3.50977H21.9306Z" fill="#5E5E5A"/>
<path d="M6.63976 8.27019C5.88976 8.27019 5.15976 8.0302 4.44976 7.5402C4.12976 7.3302 3.83977 7.07019 3.57977 6.78019C3.10977 6.27019 2.73977 5.65019 2.45977 4.94019C1.75977 3.13019 1.80977 1.72019 2.59977 0.750195C3.05977 0.390195 3.59977 0.200195 4.18977 0.200195C4.61977 0.200195 5.07977 0.300196 5.56977 0.490196C6.07977 0.860196 6.52977 1.05019 6.93977 1.05019C7.21977 1.05019 7.47976 0.960195 7.69976 0.770195C8.19976 0.530195 8.65977 0.400196 9.06977 0.400196C9.57977 0.400196 9.99976 0.590196 10.3698 0.970196C10.7098 1.3302 10.9298 1.84019 10.9798 2.41019C11.0898 3.74019 10.9498 4.86019 10.5498 5.84019C10.3898 6.23019 10.1498 6.58019 9.82977 6.89019C9.68977 7.02019 9.54976 7.14019 9.39976 7.25019C8.44976 7.92019 7.52976 8.27019 6.63976 8.27019Z" fill="#D3D3D3"/>
<path d="M4.19159 0.289883C4.60159 0.289883 5.05159 0.379883 5.53159 0.559883C6.06159 0.939883 6.52159 1.12988 6.94159 1.12988C7.24159 1.12988 7.51159 1.02988 7.72159 0.84988C8.22159 0.59988 8.6816 0.479881 9.0716 0.479881C9.5616 0.479881 9.96159 0.659881 10.3116 1.02988C10.6416 1.37988 10.8516 1.87988 10.9016 2.42988C11.0116 3.74988 10.8716 4.84988 10.4716 5.81988C10.3116 6.19988 10.0816 6.53988 9.7716 6.84988C9.6416 6.97988 9.5016 7.09988 9.3516 7.19988C8.4216 7.85988 7.50159 8.19988 6.64159 8.19988C5.91159 8.19988 5.1916 7.95988 4.4916 7.48988C4.1816 7.27988 3.8916 7.02988 3.6316 6.73988C3.1716 6.22988 2.80159 5.61988 2.53159 4.92988C1.84159 3.14988 1.8816 1.76988 2.6316 0.839882C3.0916 0.479882 3.61159 0.289883 4.19159 0.289883ZM4.19159 0.139881C3.57159 0.139881 3.02158 0.329883 2.54158 0.719883C1.72158 1.72988 1.68159 3.14988 2.39159 4.97988C2.66159 5.66988 3.0316 6.30988 3.5216 6.83988C3.7816 7.12988 4.08159 7.38988 4.41159 7.60988C5.14159 8.09988 5.88159 8.34988 6.64159 8.34988C7.55159 8.34988 8.48159 7.99988 9.44159 7.31988C9.60159 7.20988 9.7416 7.08988 9.8816 6.94988C10.1916 6.63988 10.4516 6.27988 10.6216 5.86988C11.0516 4.82988 11.1716 3.66988 11.0616 2.40988C11.0116 1.85988 10.8116 1.31988 10.4316 0.91988C10.0516 0.50988 9.59159 0.319881 9.08159 0.319881C8.65159 0.319881 8.17159 0.449881 7.66159 0.709881C7.44159 0.889881 7.20159 0.969883 6.95159 0.969883C6.54159 0.969883 6.09159 0.75988 5.61159 0.41988C5.11159 0.22988 4.64159 0.129883 4.20159 0.129883L4.19159 0.139881Z" fill="#5E5E5A"/>
</svg>
