<svg width="13" height="19" viewBox="0 0 13 19" fill="none" xmlns="http://www.w3.org/2000/svg">
<path d="M6.25026 8.76C5.19026 8.76 4.11026 8.51 3.03026 8.02C2.81026 7.92 2.61026 7.78 2.43026 7.62C2.30026 7.5 2.19027 7.37 2.10027 7.23C0.97027 5.56 0.480264 3.94 0.610264 2.28C0.740264 1.48 0.970271 0.950001 1.32027 0.700001C1.90027 0.400001 2.55026 0.25 3.28026 0.25C3.95026 0.25 4.69027 0.379999 5.52027 0.639999C5.76027 0.749999 6.01026 0.810001 6.26026 0.810001C6.51026 0.810001 6.76026 0.750001 7.01026 0.630001C7.51026 0.400001 7.95026 0.290001 8.37026 0.290001C8.64026 0.290001 8.91026 0.34 9.18026 0.43C9.63026 0.49 10.0803 0.769999 10.5803 1.28C10.8603 1.57 11.0403 1.93 11.1003 2.32C11.2903 3.53 11.3103 4.62 11.1303 5.67C11.0903 6.07 10.9903 6.43 10.8303 6.76C10.6303 7.18 10.2803 7.54 9.82027 7.79C8.65027 8.42 7.45026 8.74 6.26026 8.74L6.25026 8.76Z" fill="#D3D3D3"/>
<path d="M3.26999 0.330158C3.93999 0.330158 4.65999 0.460155 5.46999 0.710155C5.72999 0.830155 5.98999 0.890156 6.24999 0.890156C6.50999 0.890156 6.74999 0.830158 6.99999 0.720158H7.03998C7.03998 0.720158 7.08999 0.720157 7.10999 0.700157C7.52999 0.480157 7.94999 0.370155 8.35999 0.370155C8.61999 0.370155 8.88999 0.410155 9.16999 0.510155C9.58999 0.570155 10.03 0.840157 10.51 1.34016C10.78 1.62016 10.95 1.96016 11.01 2.34016C11.2 3.54016 11.21 4.63015 11.04 5.67015C11 6.05015 10.91 6.41016 10.75 6.73016C10.56 7.14016 10.22 7.48016 9.76999 7.73016C8.60999 8.36016 7.42999 8.67015 6.24999 8.67015C5.20999 8.67015 4.12999 8.42016 3.05999 7.93016C2.84999 7.83016 2.64999 7.70016 2.47999 7.54016C2.35999 7.43016 2.24999 7.30015 2.15999 7.17015C1.03999 5.51015 0.559983 3.91016 0.679983 2.28016C0.799983 1.50016 1.02999 0.980155 1.33999 0.760155C1.91999 0.460155 2.54999 0.310158 3.26999 0.310158M3.26999 0.160156C2.55999 0.160156 1.88999 0.300157 1.26999 0.630157C0.919995 0.880157 0.669989 1.40015 0.529989 2.26015C0.399989 4.02015 0.969984 5.68016 2.03998 7.25016C2.13998 7.40016 2.25 7.53016 2.38 7.65016C2.56 7.82016 2.76999 7.96016 2.99999 8.07016C4.09999 8.57016 5.17999 8.82016 6.24999 8.82016C7.46999 8.82016 8.67 8.49016 9.85 7.86016C10.3 7.62016 10.68 7.26016 10.89 6.79016C11.06 6.44016 11.16 6.07016 11.19 5.68016C11.37 4.58016 11.34 3.45016 11.16 2.31016C11.09 1.90016 10.91 1.52016 10.62 1.22016C10.15 0.740158 9.67999 0.420155 9.18999 0.350155C8.90999 0.260155 8.62999 0.210155 8.35999 0.210155C7.90999 0.210155 7.46998 0.330158 7.03998 0.560158H6.96999C6.72999 0.670158 6.48999 0.730156 6.24999 0.730156C6.00999 0.730156 5.76998 0.670158 5.53998 0.560158C4.75998 0.310158 3.99999 0.160156 3.27999 0.160156H3.26999Z" fill="#5E5E5A"/>
</svg>
