<svg width="19" height="18" viewBox="0 0 19 18" fill="none" xmlns="http://www.w3.org/2000/svg">
<path d="M11.37 5.28961C8.88 5.28961 6.4 4.97961 4 4.35961L4.05 3.59961C6.44 4.14961 8.9 4.43961 11.36 4.43961H11.69C14.04 4.40961 16.39 4.12961 18.67 3.60961V4.43961C16.43 4.95961 14.07 5.26961 11.69 5.29961H11.36L11.37 5.28961Z" fill="#D3D3D3"/>
<path d="M4.12828 3.69C6.49828 4.23 8.92828 4.51 11.3583 4.51H11.6883C14.0083 4.48 16.3383 4.21 18.5983 3.69V4.31C16.3483 4.88 14.0283 5.18 11.6983 5.21H11.3683C8.92829 5.21 6.49828 4.91 4.13828 4.31V3.69M18.7583 3.5C16.9283 3.93 14.5283 4.32 11.6983 4.35C11.5883 4.35 11.4783 4.35 11.3683 4.35C8.37829 4.35 5.86828 3.94 3.98828 3.5V4.42C5.80828 4.89 8.33829 5.35 11.3683 5.35C11.4783 5.35 11.5883 5.35 11.6983 5.35C14.5683 5.32 16.9783 4.88 18.7483 4.42V3.5H18.7583Z" fill="#5E5E5A"/>
<path d="M0.640785 7.20009C0.430785 6.80009 0.330783 6.35009 0.310783 5.90009L0.180786 2.43009C0.130786 1.63009 0.460786 1.23009 0.930786 0.930094C1.64079 0.420094 2.66078 0.190095 3.52078 0.240095C4.12078 0.430095 4.14079 0.290093 4.22079 0.820093C4.26079 1.07009 4.27079 1.32009 4.25079 1.57009C4.14079 3.17009 3.98079 4.64009 3.82079 6.01009C3.78079 6.38009 3.64078 6.72009 3.42078 7.02009C3.40078 7.05009 3.37078 7.0801 3.35078 7.1201C2.32078 8.3901 1.46078 8.49009 0.770782 7.45009C0.720782 7.38009 0.670783 7.30009 0.630783 7.22009" fill="#D3D3D3"/>
<path d="M0.640785 7.20009C0.430785 6.80009 0.330783 6.35009 0.310783 5.90009L0.180786 2.43009C0.130786 1.63009 0.460786 1.23009 0.930786 0.930094C1.64079 0.420094 2.66078 0.190095 3.52078 0.240095C4.12078 0.430095 4.14079 0.290093 4.22079 0.820093C4.26079 1.07009 4.27079 1.32009 4.25079 1.57009C4.14079 3.17009 3.98079 4.64009 3.82079 6.01009C3.78079 6.38009 3.64078 6.72009 3.42078 7.02009C3.40078 7.05009 3.37078 7.0801 3.35078 7.1201C2.32078 8.3901 1.46078 8.49009 0.770782 7.45009C0.720782 7.38009 0.670783 7.30009 0.630783 7.22009" stroke="#5E5E5A" stroke-width="0.15" stroke-linecap="round" stroke-linejoin="round"/>
</svg>
