<svg width="20" height="19" viewBox="0 0 20 19" fill="none" xmlns="http://www.w3.org/2000/svg">
<path d="M12.1708 5.28961C9.68078 5.28961 7.20078 4.97961 4.80078 4.35961L4.85078 3.59961C7.24078 4.14961 9.70079 4.43961 12.1608 4.43961H12.4908C14.8408 4.40961 17.1908 4.12961 19.4708 3.60961V4.43961C17.2308 4.95961 14.8708 5.26961 12.4908 5.29961H12.1608L12.1708 5.28961Z" fill="#D3D3D3"/>
<path d="M4.92906 3.69C7.29906 4.23 9.72907 4.51 12.1591 4.51H12.4891C14.8091 4.48 17.1391 4.21 19.3991 3.69V4.31C17.1491 4.88 14.8291 5.18 12.4991 5.21H12.1691C9.72906 5.21 7.29906 4.91 4.93906 4.31V3.69M19.5591 3.5C17.7291 3.93 15.3291 4.32 12.4991 4.35C12.3891 4.35 12.2791 4.35 12.1691 4.35C9.17906 4.35 6.66906 3.94 4.78906 3.5V4.42C6.60906 4.89 9.13906 5.35 12.1691 5.35C12.2791 5.35 12.3891 5.35 12.4991 5.35C15.3691 5.32 17.7791 4.88 19.5491 4.42V3.5H19.5591Z" fill="#5E5E5A"/>
<path d="M4.82985 6.53993C4.72985 6.75993 4.58984 6.96993 4.41984 7.13993C3.70984 7.84993 2.99984 8.08993 2.26984 7.88993C1.78984 7.75993 1.40984 7.43993 1.16984 7.02993C1.00984 6.75993 0.909843 6.44993 0.889843 6.12993L0.589844 2.53993C0.639844 1.99993 0.769845 1.52993 0.989845 1.12993C1.22985 0.699929 1.68984 0.419928 2.18984 0.389928L4.65984 0.229928C5.28984 0.199928 5.48984 0.359928 5.45984 1.13993C5.45984 1.33993 5.43984 1.53993 5.44984 1.73993C5.48984 3.32993 5.36985 4.73993 5.00985 5.86993C4.98985 6.09993 4.92985 6.32993 4.82985 6.53993Z" fill="#D3D3D3" stroke="#5E5E5A" stroke-width="0.15" stroke-linecap="round" stroke-linejoin="round"/>
</svg>
