<svg width="21" height="22" viewBox="0 0 21 22" fill="none" xmlns="http://www.w3.org/2000/svg">
<path d="M12.9716 5.41949C10.4816 5.41949 8.01156 5.10949 5.60156 4.48949L5.65157 3.72949C8.04157 4.27949 10.5016 4.56949 12.9616 4.56949H13.2916C15.6416 4.53949 17.9916 4.25949 20.2716 3.73949V4.56949C18.0316 5.08949 15.6716 5.39949 13.2916 5.42949H12.9616L12.9716 5.41949Z" fill="#D3D3D3"/>
<path d="M5.74157 3.82965C8.11157 4.36965 10.5416 4.64965 12.9716 4.64965H13.3016C15.6216 4.61965 17.9516 4.34965 20.2116 3.82965V4.44965C17.9616 5.01965 15.6416 5.31965 13.3116 5.34965H12.9816C10.5416 5.34965 8.11156 5.04965 5.75156 4.44965V3.82965M20.3716 3.63965C18.5416 4.06965 16.1416 4.45965 13.3116 4.48965C13.2016 4.48965 13.0916 4.48965 12.9816 4.48965C9.99156 4.48965 7.48156 4.07965 5.60156 3.63965V4.55965C7.42156 5.02965 9.95156 5.48965 12.9816 5.48965C13.0916 5.48965 13.2016 5.48965 13.3116 5.48965C16.1816 5.45965 18.5916 5.01965 20.3616 4.55965V3.63965H20.3716Z" fill="#5E5E5A"/>
<path d="M4.08078 9.79C3.43078 9.79 2.77078 9.19 2.14078 8C1.42078 7.1 1.05078 5.84 1.05078 4.26C1.05078 3.75 1.19078 3.24 1.45078 2.79C2.44078 1.1 3.38078 0.25 4.24078 0.25C5.10078 0.25 5.90078 1.09 6.65078 2.75C7.11078 4.84 6.94078 6.61 6.12078 7.99C6.07078 8.08 6.02078 8.16 5.96078 8.25C5.31078 9.27 4.68078 9.78 4.07078 9.78L4.08078 9.79Z" fill="#D3D3D3"/>
<path d="M4.25047 0.179688V0.329689C5.07047 0.329689 5.85047 1.15969 6.58047 2.75969C7.04047 4.84969 6.87047 6.59969 6.07047 7.95969C6.02047 8.04969 5.97047 8.12969 5.91047 8.21969C5.28047 9.20969 4.66047 9.71969 4.09047 9.71969C3.47047 9.71969 2.84047 9.12968 2.20047 7.94968C1.49047 7.06968 1.14047 5.82969 1.13047 4.26969C1.13047 3.76969 1.27047 3.27969 1.52047 2.83969C2.50047 1.17969 3.42047 0.329689 4.24047 0.329689V0.179688M4.24047 0.179688C3.33047 0.179688 2.38047 1.06969 1.39047 2.75969C1.12047 3.21969 0.980469 3.73969 0.980469 4.26969C0.980469 5.83969 1.33047 7.10969 2.08047 8.04969C2.74047 9.27969 3.41047 9.87968 4.09047 9.87968C4.73047 9.87968 5.38047 9.34969 6.04047 8.31969C6.10047 8.23969 6.15047 8.14968 6.20047 8.05968C7.04047 6.62968 7.20047 4.84969 6.73047 2.74969C5.95047 1.01969 5.12047 0.199688 4.25047 0.199688L4.24047 0.179688Z" fill="#5E5E5A"/>
</svg>
