<svg width="23" height="18" viewBox="0 0 23 18" fill="none" xmlns="http://www.w3.org/2000/svg">
<path d="M14.7684 5.56012C12.2784 5.56012 9.80844 5.25012 7.39844 4.63012L7.44844 3.87012C9.83844 4.43012 12.2984 4.71012 14.7584 4.71012H15.0884C17.4384 4.68012 19.7884 4.40012 22.0684 3.88012V4.71012C19.8284 5.23012 17.4684 5.54012 15.0884 5.57012H14.7584L14.7684 5.56012Z" fill="#D3D3D3"/>
<path d="M7.53844 3.97028C9.90844 4.51028 12.3384 4.79028 14.7684 4.79028H15.0984C17.4184 4.76028 19.7484 4.49028 22.0084 3.97028V4.59027C19.7584 5.16027 17.4384 5.46028 15.1084 5.49028H14.7784C12.3384 5.49028 9.90844 5.19027 7.54844 4.59027V3.97028M22.1684 3.78027C20.3384 4.21027 17.9384 4.60028 15.1084 4.63028C14.9984 4.63028 14.8884 4.63028 14.7784 4.63028C11.7884 4.63028 9.27844 4.22027 7.39844 3.78027V4.70028C9.21844 5.17028 11.7484 5.63028 14.7784 5.63028C14.8884 5.63028 14.9984 5.63028 15.1084 5.63028C17.9784 5.60028 20.3884 5.16028 22.1584 4.70028V3.78027H22.1684Z" fill="#5E5E5A"/>
<path d="M5.0521 8.31977C4.1721 8.31977 3.2421 7.97977 2.2921 7.29977C2.1421 7.18977 2.0021 7.06977 1.8621 6.93977C1.5421 6.62977 1.3021 6.27977 1.1421 5.88977C0.742097 4.90977 0.592097 3.78977 0.712097 2.45977C0.762097 1.88977 0.972098 1.37977 1.3221 1.01977C1.6821 0.629768 2.1121 0.449768 2.6221 0.449768C3.0321 0.449768 3.5021 0.579769 4.0121 0.829769C4.2221 1.00977 4.4721 1.09977 4.7621 1.09977C5.1621 1.09977 5.6221 0.919768 6.1421 0.539768C6.6121 0.359768 7.0821 0.259766 7.5021 0.259766C8.1021 0.259766 8.6421 0.449767 9.1121 0.819767C9.8921 1.77977 9.9421 3.18977 9.2421 4.99977C8.9721 5.69977 8.5921 6.31977 8.1221 6.83977C7.8621 7.12977 7.5621 7.37977 7.2521 7.59977C6.5421 8.07977 5.8121 8.31977 5.0621 8.31977H5.0521Z" fill="#D3D3D3"/>
<path d="M7.49124 0.329689C8.07124 0.329689 8.59124 0.509686 9.03124 0.849686C9.80124 1.79969 9.85124 3.18969 9.16124 4.96969C8.89124 5.66969 8.52124 6.27969 8.06124 6.77969C7.80124 7.06969 7.51124 7.31969 7.20124 7.52969C6.51124 7.99969 5.78124 8.23969 5.05124 8.23969C4.18124 8.23969 3.27124 7.89969 2.34124 7.23969C2.19124 7.12969 2.05124 7.01969 1.92124 6.88969C1.61124 6.58969 1.37124 6.23969 1.22124 5.85969C0.821237 4.88969 0.681239 3.77969 0.791239 2.46969C0.841239 1.91969 1.04124 1.41969 1.38124 1.06969C1.73124 0.699687 2.13124 0.519688 2.62124 0.519688C3.02124 0.519688 3.47124 0.639686 3.94124 0.869686C4.18124 1.06969 4.45124 1.16969 4.75124 1.16969C5.17124 1.16969 5.63124 0.979686 6.16124 0.599686C6.64124 0.419686 7.09124 0.329689 7.50124 0.329689M7.50124 0.179688C7.06124 0.179688 6.59124 0.279688 6.09124 0.469688C5.61124 0.809688 5.16124 1.01969 4.75124 1.01969C4.49124 1.01969 4.25124 0.939686 4.04124 0.759686C3.53124 0.509686 3.05124 0.369686 2.62124 0.369686C2.11124 0.369686 1.65124 0.559688 1.27124 0.969688C0.891238 1.36969 0.691237 1.90969 0.641237 2.45969C0.531237 3.71969 0.641238 4.87969 1.08124 5.91969C1.25124 6.32969 1.50124 6.68969 1.82124 6.99969C1.96124 7.12969 2.10124 7.25969 2.26124 7.36969C3.22124 8.04969 4.15124 8.39969 5.06124 8.39969C5.82124 8.39969 6.57124 8.15969 7.29124 7.65969C7.62124 7.43969 7.91124 7.17969 8.18124 6.88969C8.67124 6.34969 9.05124 5.70969 9.31124 5.02969C10.0212 3.19969 9.98124 1.76969 9.16124 0.769688C8.67124 0.379688 8.12124 0.189686 7.51124 0.189686L7.50124 0.179688Z" fill="#5E5E5A"/>
</svg>
