<svg width="23" height="19" viewBox="0 0 23 19" fill="none" xmlns="http://www.w3.org/2000/svg">
<path d="M15.5809 5.69977C13.0909 5.69977 10.6109 5.38977 8.21094 4.76977L8.26094 4.00977C10.6509 4.55977 13.1109 4.84977 15.5809 4.84977H15.9009C18.2509 4.81977 20.6009 4.53977 22.8809 4.01977V4.84977C20.6509 5.36977 18.2809 5.67977 15.9009 5.70977H15.5709L15.5809 5.69977Z" fill="#D3D3D3"/>
<path d="M8.33922 4.10015C10.7092 4.64015 13.1392 4.92015 15.5692 4.92015H15.8992C18.2192 4.89015 20.5492 4.62015 22.8092 4.10015V4.72016C20.5592 5.29016 18.2392 5.59016 15.9092 5.62016H15.5792C13.1392 5.62016 10.7092 5.32016 8.34922 4.72016V4.10015M22.9692 3.91016C21.1392 4.34016 18.7392 4.73015 15.9092 4.76015C15.7992 4.76015 15.6892 4.76015 15.5792 4.76015C12.5892 4.76015 10.0792 4.35016 8.19922 3.91016V4.83016C10.0192 5.30016 12.5492 5.76015 15.5792 5.76015C15.6892 5.76015 15.7992 5.76015 15.9092 5.76015C18.7792 5.73015 21.1892 5.29016 22.9592 4.83016V3.91016H22.9692Z" fill="#5E5E5A"/>
<path d="M6.43182 8.8098C5.24182 8.8098 4.04182 8.48981 2.87182 7.85981C2.41182 7.60981 2.06182 7.24981 1.86182 6.82981C1.70182 6.49981 1.60182 6.13981 1.56182 5.73981C1.39182 4.68981 1.40182 3.5898 1.59182 2.3898C1.65182 1.9898 1.83182 1.6298 2.11182 1.3498C2.61182 0.839804 3.06182 0.559805 3.50182 0.499805C3.78182 0.409805 4.05182 0.359806 4.32182 0.359806C4.74182 0.359806 5.17182 0.469806 5.60182 0.699806C5.61182 0.699806 5.70182 0.699806 5.71182 0.699806C5.93182 0.809806 6.18182 0.869804 6.43182 0.869804C6.68182 0.869804 6.93182 0.809804 7.18182 0.689804C8.00182 0.429804 8.73182 0.299805 9.41182 0.299805C10.1418 0.299805 10.7818 0.449804 11.3818 0.759804C11.7118 0.999804 11.9518 1.53981 12.0818 2.33981C12.2018 3.98981 11.7218 5.6098 10.5918 7.2798C10.4918 7.4198 10.3818 7.5498 10.2618 7.6698C10.0818 7.8398 9.88182 7.96981 9.66182 8.06981C8.58182 8.55981 7.50182 8.8098 6.44182 8.8098H6.43182Z" fill="#D3D3D3"/>
<path d="M9.40998 0.370232C10.13 0.370232 10.76 0.520234 11.32 0.810234C11.64 1.05023 11.87 1.56023 11.99 2.33023C12.11 3.97023 11.63 5.57024 10.51 7.23024C10.42 7.37024 10.31 7.49023 10.19 7.60023C10.02 7.76023 9.82998 7.89023 9.60998 7.99023C8.53998 8.48023 7.46998 8.73024 6.42998 8.73024C5.24998 8.73024 4.05998 8.41023 2.90998 7.79023C2.45998 7.55023 2.11998 7.20023 1.92998 6.79023C1.77998 6.47023 1.67998 6.11023 1.63998 5.72023C1.46998 4.68023 1.47998 3.60023 1.66998 2.40023C1.72998 2.02023 1.89998 1.67023 2.16998 1.40023C2.65998 0.900234 3.09998 0.630232 3.53998 0.570232C3.79998 0.480232 4.05998 0.440231 4.32998 0.440231C4.73998 0.440231 5.15998 0.550233 5.57998 0.770233C5.59998 0.780233 5.62998 0.790234 5.64998 0.790234H5.68998C5.93998 0.900234 6.18998 0.960232 6.43998 0.960232C6.68998 0.960232 6.95998 0.900231 7.19998 0.780231C8.01998 0.520231 8.74998 0.390232 9.40998 0.390232M9.40998 0.240234C8.68998 0.240234 7.92998 0.390232 7.14998 0.640232C6.90998 0.750232 6.67998 0.810234 6.43998 0.810234C6.19998 0.810234 5.95998 0.750232 5.71998 0.640232H5.64998C5.21998 0.410232 4.77998 0.290234 4.32998 0.290234C4.04998 0.290234 3.77998 0.340233 3.49998 0.430233C3.00998 0.500233 2.53998 0.820232 2.06998 1.30023C1.77998 1.60023 1.58998 1.98023 1.52998 2.39023C1.34998 3.53023 1.30998 4.66023 1.49998 5.76023C1.53998 6.15023 1.63998 6.52023 1.79998 6.87023C2.01998 7.33023 2.39998 7.69024 2.83998 7.94024C4.01998 8.58024 5.20998 8.90023 6.43998 8.90023C7.49998 8.90023 8.58998 8.65023 9.68998 8.15023C9.91998 8.05023 10.13 7.90024 10.31 7.73024C10.44 7.61024 10.55 7.48023 10.65 7.33023C11.72 5.75023 12.29 4.10023 12.16 2.34023C12.02 1.48023 11.77 0.960232 11.42 0.710232C10.79 0.390232 10.12 0.240234 9.41998 0.240234H9.40998Z" fill="#5E5E5A"/>
</svg>
