<svg width="18" height="22" viewBox="0 0 18 22" fill="none" xmlns="http://www.w3.org/2000/svg">
<path d="M15.1092 7.91016H4.77921C3.49238 7.91016 2.44922 8.95333 2.44922 10.2402C2.44922 11.527 3.49238 12.5702 4.77921 12.5702H15.1092C16.396 12.5702 17.4392 11.527 17.4392 10.2402C17.4392 8.95333 16.396 7.91016 15.1092 7.91016Z" fill="#FFE4E3" stroke="#5E5E5A" stroke-width="0.15" stroke-miterlimit="10"/>
<path d="M0.871094 7.91016H15.1711C16.4211 7.91016 17.4411 8.95015 17.4411 10.2402C17.4411 11.5302 16.4211 12.5702 15.1711 12.5702H0.871094" fill="#FFE4E3"/>
<path d="M0.871094 7.91016H15.1711C16.4211 7.91016 17.4411 8.95015 17.4411 10.2402C17.4411 11.5302 16.4211 12.5702 15.1711 12.5702H0.871094" stroke="#5E5E5A" stroke-width="0.15" stroke-miterlimit="10"/>
</svg>
