<svg width="24" height="26" viewBox="0 0 24 26" fill="none" xmlns="http://www.w3.org/2000/svg">
<path d="M24 7.43749V7.43984L23.9835 8.55282L23.9764 8.70475L23.9174 9.81654H23.9162V9.8189L23.8183 10.8753V10.8777L23.6955 11.8482L23.5633 12.7173L23.4359 13.4911L23.3143 14.186L23.1951 14.8255L23.0688 15.4332L22.926 16.0327V16.0351L22.7537 16.6451H22.7526L22.5389 17.2811C22.5389 17.2811 22.5389 17.2835 22.5378 17.2835L22.2817 17.9466V17.9489L21.9831 18.6344H21.9819L21.6444 19.3292C21.6444 19.3304 21.6432 19.3304 21.6432 19.3304L21.2738 20.0135H21.2726L20.8784 20.6577C20.8784 20.6577 20.8773 20.6577 20.8773 20.6589L20.4748 21.2336H20.4736C20.4736 21.2336 20.4732 21.234 20.4725 21.2348L20.0854 21.7071C20.0854 21.7071 20.0842 21.7071 20.0842 21.7083C20.083 21.7083 20.083 21.7095 20.083 21.7106L19.867 21.9215L19.4717 22.2936C19.4717 22.2936 19.4693 22.2948 19.4681 22.296L19.4658 22.2983L19.1389 22.5268L18.7317 22.7953H18.7293C18.7293 22.7953 18.727 22.7977 18.7258 22.7977L18.347 22.9802H18.3446C18.3446 22.9802 18.3434 22.9814 18.3422 22.9814L17.9351 23.1239H17.9316C17.9316 23.1239 17.9304 23.1239 17.9292 23.1239L17.548 23.197C17.548 23.197 17.5433 23.1981 17.5397 23.1981L17.1562 23.1922H17.1515L16.8139 23.1498C16.8139 23.1498 16.8116 23.1487 16.8104 23.1487C16.8092 23.1487 16.8068 23.1487 16.8057 23.1475L16.467 23.0344C16.467 23.0344 16.4634 23.0321 16.4611 23.0309C16.4599 23.0297 16.4587 23.0309 16.4575 23.0297L16.1955 22.8719C16.1955 22.8719 16.1943 22.8695 16.1932 22.8695C16.1932 22.8684 16.192 22.8684 16.192 22.8684H16.1908L15.9276 22.6575C15.9276 22.6575 15.9229 22.6528 15.9217 22.6505C15.9205 22.6493 15.9194 22.6493 15.9182 22.6469L15.7258 22.356L15.5736 22.0981C15.5724 22.0958 15.5712 22.0934 15.5712 22.0922C15.5712 22.0922 15.5708 22.0914 15.57 22.0899L15.4721 21.7978V21.7954C15.4721 21.7954 15.4709 21.7931 15.4709 21.7919L15.3977 21.4244C15.3977 21.4244 15.3989 21.4221 15.3977 21.4209V21.4186L15.3859 21.2136L15.36 20.7131V20.706L15.38 20.0842V20.0818L15.4378 19.374L15.5122 18.612L15.5511 17.9878L15.0614 18.8876L14.6365 19.9099L14.2541 20.8191L13.9142 21.7024L13.5956 22.5515H13.5944L13.2876 23.3218H13.2864V23.3242L12.9087 24.2169V24.2192C12.9087 24.2192 12.9076 24.2192 12.9076 24.2204L12.6987 24.6409C12.6987 24.6421 12.6975 24.6421 12.6975 24.6421C12.6975 24.6432 12.6963 24.6444 12.6963 24.6456H12.6951L12.5181 24.907L12.3068 25.2109C12.3068 25.2109 12.3057 25.2121 12.3045 25.2133C12.3033 25.2144 12.3033 25.2156 12.3021 25.2168L12.0201 25.4959C12.0201 25.4959 12.0189 25.4971 12.0177 25.4971C12.0177 25.4971 12.0173 25.4979 12.0165 25.4995L11.8419 25.6337H11.8407L11.8383 25.6361L11.5079 25.8445H11.5055L11.4984 25.8481L11.1314 25.9658C11.1314 25.9658 11.1267 25.967 11.1255 25.967C11.1243 25.967 11.1231 25.9682 11.122 25.9682L10.926 25.9835H10.9131L10.7431 25.9976H10.7408L10.5448 26C10.5448 26 10.5389 26 10.5354 26L10.1696 25.9234C10.1696 25.9234 10.166 25.9211 10.1648 25.9211C10.1637 25.9211 10.1625 25.9211 10.1601 25.9199L9.93116 25.8174C9.93116 25.8174 9.92998 25.8151 9.9288 25.8151H9.92762L9.58065 25.6078C9.58065 25.6078 9.57829 25.6055 9.5771 25.6055C9.57592 25.6043 9.57474 25.6031 9.57356 25.6019L9.33989 25.3923L9.33753 25.3899L9.0118 25.0342C9.0118 25.0342 9.01062 25.0331 9.01062 25.0319C9.00944 25.0307 9.00826 25.0307 9.00826 25.0307L8.79937 24.7339H8.79819C8.79819 24.7339 8.79819 24.7316 8.79701 24.7316L8.48662 24.2263V24.224L8.48545 24.2228L8.32848 23.8918V23.8895L8.03934 23.2229C8.03934 23.2229 8.03934 23.2205 8.03816 23.2193H8.03698L7.78442 22.3937L7.55783 21.5917L7.42919 21.1477L7.39496 21.0275L7.33242 21.2254V21.2301L7.24862 21.4174C7.24862 21.4174 7.24744 21.4174 7.24744 21.4186C7.24744 21.4186 7.24705 21.4193 7.24626 21.4209L7.06216 21.7318C7.06216 21.7318 7.0598 21.7342 7.0598 21.7354C7.05862 21.7365 7.05744 21.7389 7.05507 21.7413L6.80606 21.9886C6.80606 21.9886 6.8037 21.9886 6.80252 21.9909C6.80252 21.9909 6.80016 21.9921 6.79898 21.9933L6.61605 22.1134H6.61369C6.61369 22.1134 6.61251 22.1146 6.61133 22.1158L6.28442 22.2807C6.28442 22.2807 6.28206 22.2818 6.2797 22.2818C6.27734 22.283 6.2738 22.2854 6.27144 22.2854L5.89496 22.3396H5.89024L5.62825 22.3478H5.62707C5.62707 22.3478 5.62352 22.3466 5.62116 22.3466L5.21046 22.2913C5.21046 22.2913 5.2081 22.2901 5.20692 22.2901H5.2022L4.90598 22.1876H4.9048L4.48348 22.0192C4.48348 22.0192 4.47994 22.0169 4.47758 22.0157C4.4764 22.0157 4.47522 22.0157 4.47404 22.0145L4.05625 21.7236L3.77419 21.5234L3.77065 21.5198C3.77065 21.5198 3.76829 21.5175 3.76711 21.5163L3.36821 21.0805H3.36703L3.14752 20.8356C3.14634 20.8344 3.14634 20.8332 3.14516 20.832C3.14398 20.8309 3.14398 20.8309 3.1428 20.8309L2.78403 20.2926C2.78403 20.2926 2.78403 20.2914 2.78285 20.2903H2.78167L2.44532 19.6637C2.44532 19.6637 2.44493 19.6637 2.44414 19.6637L2.35208 19.4635H2.3509L2.1491 18.9783H2.14792L2.07238 18.7945L2.0712 18.7922V18.7886L1.88474 18.2716H1.88356L1.88238 18.2657L1.82337 18.0997L1.63572 17.5685L1.41621 16.8795L1.22738 16.2141H1.2262L1.0657 15.5722H1.06452L0.926436 14.9468L0.802518 14.3297C0.802518 14.3297 0.801338 14.3297 0.801338 14.3285L0.692762 13.7055L0.594807 13.0565L0.500393 12.3664L0.40598 11.6197L0.309205 10.8L0.214792 9.88839L0.121558 8.88377L0.034225 7.79906H0.0306845V7.7967L0 6.68491L0.00354052 5.58842V5.58489L0.0743509 4.55789V4.55554L0.220692 3.66398C0.220692 3.6628 0.221873 3.66162 0.221873 3.66162V3.65691L0.426042 3.02682C0.426042 3.02682 0.428403 3.02328 0.429583 3.02093C0.430763 3.01857 0.430763 3.01622 0.431943 3.01504L0.699843 2.63109L0.880409 2.36257C0.880409 2.36257 0.882769 2.36139 0.88395 2.36021C0.88513 2.35785 0.88631 2.35668 0.88749 2.3555C0.88867 2.35432 0.88867 2.35432 0.88867 2.35314L1.34068 1.98097C1.34068 1.98097 1.34422 1.9798 1.3454 1.97862C1.34658 1.97744 1.34776 1.97626 1.34894 1.97626L1.61802 1.84318H1.6192L1.62038 1.842H1.62156L1.62274 1.84082L2.17978 1.60174C2.17978 1.60174 2.18332 1.60174 2.18568 1.60174C2.18686 1.60174 2.18804 1.60056 2.1904 1.59938L2.78993 1.49574H2.79229C2.79229 1.49574 2.79465 1.49456 2.79583 1.49456L3.17939 1.48043L3.81786 1.45452H3.8214L4.46695 1.47808L5.11133 1.50987L5.75216 1.5405L5.96578 1.53343L6.56058 1.45923L7.14241 1.34146L7.70181 1.20248L8.25295 1.03642L8.79819 0.840913L9.34579 0.631274L9.90401 0.421634H9.90637L10.4847 0.236728H10.4882L11.0842 0.103642C11.0854 0.103642 11.0854 0.10482 11.0865 0.103642H11.0877L11.4854 0.0447545H11.4878C11.4878 0.0447545 11.4878 0.0447545 11.4902 0.0447545C11.4902 0.0447545 11.4902 0.0435767 11.4913 0.0435767L12.0732 0H12.0779L12.642 0.023555L12.6444 0.0247327H12.6479L13.1707 0.123664C13.1707 0.123664 13.1719 0.123664 13.1719 0.124841C13.1731 0.124841 13.1731 0.123664 13.1743 0.124841L13.5826 0.23555C13.5826 0.23555 13.5826 0.236728 13.585 0.237905H13.5885L14.0535 0.446367H14.0547L14.4819 0.64894H14.4831C14.4831 0.64894 14.4843 0.650118 14.4843 0.651296H14.4866L14.928 0.904512L15.3718 1.16951L15.8025 1.40388L16.0055 1.50281L16.1589 1.56405L16.5862 1.67476L16.998 1.6724L17.4866 1.61823L17.6212 1.59232L17.9965 1.50634H17.9976L18.5641 1.38857H18.5677L19.1837 1.31555H19.1908L19.8399 1.34735H19.8423L20.3899 1.40623C20.3899 1.40623 20.3922 1.40741 20.3934 1.40741C20.3946 1.40859 20.3958 1.40741 20.3969 1.40859L21.0295 1.58407C21.0295 1.58407 21.033 1.58525 21.0342 1.58643C21.0366 1.58761 21.0378 1.58761 21.0401 1.58761L21.6302 1.92091L22.0586 2.15764C22.0586 2.15764 22.061 2.15999 22.0622 2.16117C22.0633 2.16235 22.0645 2.16235 22.0657 2.16353L22.5448 2.59812L22.546 2.59929C22.5472 2.60047 22.5484 2.60047 22.5484 2.60165L22.8552 2.95733C22.8552 2.95733 22.8564 2.95851 22.8564 2.95968L23.2034 3.39899C23.2034 3.39899 23.2046 3.40252 23.2057 3.4037C23.2069 3.4037 23.2081 3.4037 23.2081 3.40723L23.4111 3.81473L23.5586 4.05028C23.5586 4.05028 23.5598 4.05381 23.5598 4.05617C23.561 4.05735 23.5622 4.0597 23.5633 4.06206L23.7026 4.58262C23.7026 4.58262 23.7026 4.58498 23.7026 4.58616L23.8454 5.3882V5.39056L23.9516 6.3622V6.36456L23.9976 7.43631L24 7.43749Z" fill="white"/>
</svg>
