<svg width="10" height="28" viewBox="0 0 10 28" fill="none" xmlns="http://www.w3.org/2000/svg">
<mask id="mask0_254_16562" style="mask-type:luminance" maskUnits="userSpaceOnUse" x="0" y="15" width="10" height="13">
<path d="M1.48733 26.9564C1.71733 27.0164 2.73735 27.5864 4.19735 27.4464C5.10735 27.3564 6.23735 27.7264 7.34735 27.3164C7.90735 27.1064 8.55734 27.0764 9.18734 26.8664C9.87734 26.6364 9.92735 23.9164 9.69735 21.3764C9.46735 18.8364 8.95734 19.4864 8.12734 18.0564C4.50734 11.8264 4.08733 17.4164 2.29733 17.5464C1.15733 17.6264 -0.372671 26.5064 1.48733 26.9464V26.9564Z" fill="white"/>
</mask>
<g mask="url(#mask0_254_16562)">
<path opacity="0.75" d="M6.80717 28.9661C6.80717 28.9661 7.60717 25.7061 5.33717 25.7061C2.59717 25.7061 3.46718 29.0061 3.46718 29.0061L6.81718 28.9661H6.80717Z" fill="#E62C2F" stroke="#E62C2F" stroke-width="0.5" stroke-linecap="round" stroke-linejoin="round"/>
</g>
</svg>
