<svg width="11" height="28" viewBox="0 0 11 28" fill="none" xmlns="http://www.w3.org/2000/svg">
<mask id="mask0_254_16549" style="mask-type:luminance" maskUnits="userSpaceOnUse" x="0" y="15" width="11" height="13">
<path d="M0.183594 23.4267C0.183594 21.4767 1.16359 18.0067 1.89359 17.1267C2.62359 16.2467 4.23358 15.4667 5.45358 15.6367C6.67358 15.8067 7.11358 17.2167 8.04358 17.1767C8.96358 17.1367 9.80359 16.9367 9.99359 18.6867C10.1936 20.4467 10.5836 20.5867 10.7536 21.7167C10.9236 22.8367 11.3136 23.7967 9.21359 24.6367C7.11359 25.4767 6.59358 28.0167 4.73358 27.4567C2.86358 26.8967 3.11358 25.8267 1.79358 25.3367C0.473579 24.8467 0.183594 24.1667 0.183594 23.4367V23.4267Z" fill="white"/>
</mask>
<g mask="url(#mask0_254_16549)">
<path opacity="0.75" d="M6.98375 29.3269C6.98375 29.3269 7.57376 25.5469 5.18376 25.5469C2.40376 25.5469 3.00376 29.2469 3.00376 29.2469L6.98375 29.3269Z" fill="#E62C2F" stroke="#E62C2F" stroke-width="0.5" stroke-linecap="round" stroke-linejoin="round"/>
</g>
</svg>
