<svg width="10" height="27" viewBox="0 0 10 27" fill="none" xmlns="http://www.w3.org/2000/svg">
<mask id="mask0_254_16496" style="mask-type:luminance" maskUnits="userSpaceOnUse" x="0" y="15" width="10" height="12">
<path d="M1.01434 24.5466C1.50434 25.3766 3.12434 25.2266 3.37434 25.9166C3.61434 26.5966 6.04433 26.8966 6.72433 25.7166C7.40433 24.5466 8.67433 24.1066 8.97433 22.9866C9.26433 21.8666 9.60433 17.4666 8.97433 17.0266C8.34433 16.5866 7.27434 17.1266 6.73434 16.5366C6.19434 15.9466 4.85433 14.3366 3.93433 15.3666C3.01433 16.3966 2.85434 17.1266 2.09434 17.2466C0.424338 17.5066 0.664336 23.9466 1.01434 24.5466Z" fill="white"/>
</mask>
<g mask="url(#mask0_254_16496)">
<path opacity="0.75" d="M6.83317 28.6267C6.83317 28.6267 7.77318 24.5667 5.35318 24.4667C2.24318 24.3367 3.07318 28.6667 3.07318 28.6667L6.83317 28.6267Z" fill="#E62C2F" stroke="#E62C2F" stroke-width="0.2" stroke-linecap="round" stroke-linejoin="round"/>
</g>
</svg>
