<svg width="13" height="28" viewBox="0 0 13 28" fill="none" xmlns="http://www.w3.org/2000/svg">
<mask id="mask0_254_16538" style="mask-type:luminance" maskUnits="userSpaceOnUse" x="0" y="16" width="13" height="12">
<path d="M1.81397 18.1562C1.04397 19.5562 0.593954 24.8962 1.22395 25.8262C1.85395 26.7562 3.56395 26.8962 4.25395 26.2162C4.94395 25.5362 5.15396 26.3062 5.76396 26.6462C6.37396 26.9762 6.91396 26.3562 7.57396 27.0062C8.82396 28.2262 11.234 27.3962 11.924 24.5162C12.604 21.6362 12.754 19.0462 12.414 18.1662C12.074 17.2862 10.414 18.7062 9.24396 17.6262C8.07396 16.5562 6.36396 16.5962 4.94396 17.2362C3.52396 17.8762 2.94396 16.1162 1.82396 18.1662L1.81397 18.1562Z" fill="white"/>
</mask>
<g mask="url(#mask0_254_16538)">
<path opacity="0.75" d="M7.61344 28.5661C7.61344 28.5661 9.10345 24.5361 5.92345 24.5361C3.10345 24.5361 4.20345 28.5861 4.20345 28.5861L7.61344 28.5661Z" fill="#E62C2F" stroke="#E62C2F" stroke-width="0.2" stroke-linecap="round" stroke-linejoin="round"/>
</g>
</svg>
