<svg width="10" height="28" viewBox="0 0 10 28" fill="none" xmlns="http://www.w3.org/2000/svg">
<mask id="mask0_254_16460" style="mask-type:luminance" maskUnits="userSpaceOnUse" x="0" y="15" width="10" height="13">
<path d="M8.62632 26.9769C8.39632 27.0369 7.37633 27.6069 5.91633 27.4669C5.00633 27.3769 3.8763 27.7469 2.7663 27.3369C2.2063 27.1269 1.55631 27.0969 0.926308 26.8869C0.236308 26.6569 0.186328 23.9369 0.416328 21.3969C0.646328 18.8569 1.15631 19.5069 1.98631 18.0769C5.60631 11.8469 6.02632 17.4369 7.81632 17.5669C8.95632 17.6469 10.4863 26.5269 8.62632 26.9669V26.9769Z" fill="white"/>
</mask>
<g mask="url(#mask0_254_16460)">
<path opacity="0.75" d="M3.30471 28.9866C3.30471 28.9866 2.50471 25.7266 4.77471 25.7266C7.51471 25.7266 6.64471 29.0266 6.64471 29.0266L3.2947 28.9866H3.30471Z" fill="#E62C2F" stroke="#E62C2F" stroke-width="0.5" stroke-linecap="round" stroke-linejoin="round"/>
</g>
</svg>
