<svg width="13" height="28" viewBox="0 0 13 28" fill="none" xmlns="http://www.w3.org/2000/svg">
<mask id="mask0_254_16436" style="mask-type:luminance" maskUnits="userSpaceOnUse" x="0" y="16" width="13" height="12">
<path d="M11.2831 18.1767C12.0531 19.5767 12.5031 24.9167 11.8731 25.8467C11.2431 26.7767 9.53312 26.9167 8.84312 26.2367C8.15312 25.5567 7.94311 26.3267 7.33311 26.6667C6.72311 26.9967 6.18311 26.3767 5.52311 27.0267C4.27311 28.2467 1.86311 27.4167 1.17311 24.5367C0.493108 21.6567 0.343118 19.0667 0.683118 18.1867C1.02312 17.3067 2.68313 18.7267 3.85313 17.6467C5.02313 16.5767 6.73312 16.6167 8.15312 17.2567C9.57312 17.8967 10.1531 16.1367 11.2731 18.1867L11.2831 18.1767Z" fill="white"/>
</mask>
<g mask="url(#mask0_254_16436)">
<path opacity="0.75" d="M5.49323 28.5866C5.49323 28.5866 4.00324 24.5566 7.18324 24.5566C10.0032 24.5566 8.90324 28.6066 8.90324 28.6066L5.49323 28.5866Z" fill="#E62C2F" stroke="#E62C2F" stroke-width="0.2" stroke-linecap="round" stroke-linejoin="round"/>
</g>
</svg>
