<svg width="9" height="30" viewBox="0 0 9 30" fill="none" xmlns="http://www.w3.org/2000/svg">
<mask id="mask0_254_16274" style="mask-type:luminance" maskUnits="userSpaceOnUse" x="0" y="0" width="9" height="13">
<path d="M7.09441 10.3363C8.4144 8.46628 8.55441 5.01628 8.34441 4.08628C8.13441 3.15628 4.8444 0.17628 4.0544 0.20628C3.2644 0.23628 0.894388 1.15628 0.514388 2.04628C0.124388 2.92628 0.334408 7.10628 1.03441 8.94628C1.73441 10.7863 4.30439 12.7963 4.92439 12.4763C5.54439 12.1463 6.40441 11.3363 7.09441 10.3463V10.3363Z" fill="white"/>
</mask>
<g mask="url(#mask0_254_16274)">
<path opacity="0.75" d="M5.27349 -1.85352C5.27349 -1.85352 7.1035 2.27648 3.9435 2.27648C1.1435 2.27648 2.64349 -1.81352 2.64349 -1.81352L5.27349 -1.84352V-1.85352Z" fill="#E62C2F" stroke="#E62C2F" stroke-width="0.2" stroke-linecap="round" stroke-linejoin="round"/>
</g>
</svg>
