<svg width="9" height="25" viewBox="0 0 9 25" fill="none" xmlns="http://www.w3.org/2000/svg">
<mask id="mask0_254_16286" style="mask-type:luminance" maskUnits="userSpaceOnUse" x="0" y="0" width="9" height="12">
<path d="M7.67783 8.93659C8.49783 8.11659 8.99783 5.62659 8.92783 4.23658C8.85783 2.85659 8.35785 2.76658 7.22785 1.83658C6.09785 0.906583 4.68785 -0.163416 3.66785 0.516584C1.05785 2.25658 -0.582173 1.20659 0.577827 5.41659C1.16783 7.54659 0.967827 8.88659 1.82783 9.72659C2.68783 10.5666 3.77785 11.6366 4.84785 11.3166C5.91785 10.9966 7.12784 9.48659 7.68784 8.93659H7.67783Z" fill="white"/>
</mask>
<g mask="url(#mask0_254_16286)">
<path opacity="0.75" d="M5.76957 -1.75391C5.76957 -1.75391 7.59958 2.37609 4.43958 2.37609C1.63958 2.37609 3.1396 -1.71391 3.1396 -1.71391L5.76957 -1.7439V-1.75391Z" fill="#E62C2F" stroke="#E62C2F" stroke-width="0.2" stroke-linecap="round" stroke-linejoin="round"/>
</g>
</svg>
