<svg width="11" height="24" viewBox="0 0 11 24" fill="none" xmlns="http://www.w3.org/2000/svg">
<mask id="mask0_254_16214" style="mask-type:luminance" maskUnits="userSpaceOnUse" x="0" y="0" width="11" height="12">
<path d="M10.5359 6.7463C10.9559 4.9563 10.4959 2.9663 9.17589 2.1363C7.85589 1.3063 5.6359 -0.243697 4.5559 0.176303C3.4759 0.596303 3.34591 1.0963 2.62591 1.4063C1.90591 1.7163 0.745907 3.1863 0.845907 5.1663C0.945907 7.1463 2.59591 8.54631 2.94591 9.33631C3.29591 10.1263 5.84589 12.4963 7.51589 10.8763C9.18589 9.2563 9.79589 9.9063 10.5459 6.7463H10.5359Z" fill="white"/>
</mask>
<g mask="url(#mask0_254_16214)">
<path opacity="0.75" d="M6.53523 -1.9541C6.53523 -1.9541 8.36521 2.1759 5.20521 2.1759C2.40521 2.1759 3.90522 -1.9141 3.90522 -1.9141L6.53523 -1.9441V-1.9541Z" fill="#E62C2F" stroke="#E62C2F" stroke-width="0.2" stroke-linecap="round" stroke-linejoin="round"/>
</g>
</svg>
