<svg width="14" height="24" viewBox="0 0 14 24" fill="none" xmlns="http://www.w3.org/2000/svg">
<mask id="mask0_254_16262" style="mask-type:luminance" maskUnits="userSpaceOnUse" x="0" y="0" width="14" height="10">
<path d="M13.1942 8.0264C13.8442 6.1664 14.2942 3.03641 12.6642 1.92641C8.34418 -1.02359 7.51418 0.706408 5.97418 0.416408C4.82418 0.206408 2.49417 -0.283595 1.06418 0.706405C-0.365825 1.69641 0.0541835 5.97641 0.854184 7.31641C1.65418 8.65641 2.69417 8.82641 3.99417 8.74641C5.29417 8.66641 6.88417 9.75641 8.56417 9.24641C10.2442 8.74641 12.6742 9.4864 13.1842 8.0264H13.1942Z" fill="white"/>
</mask>
<g mask="url(#mask0_254_16262)">
<path opacity="0.75" d="M8.53342 -1.82375C8.53342 -1.82375 10.0634 2.03625 6.90342 2.06625C4.10342 2.09625 5.25342 -1.84375 5.25342 -1.84375H8.53342V-1.82375Z" fill="#E62C2F" stroke="#E62C2F" stroke-width="0.2" stroke-linecap="round" stroke-linejoin="round"/>
</g>
</svg>
