<svg width="12" height="21" viewBox="0 0 12 21" fill="none" xmlns="http://www.w3.org/2000/svg">
<mask id="mask0_254_16238" style="mask-type:luminance" maskUnits="userSpaceOnUse" x="0" y="0" width="12" height="9">
<path d="M9.98445 7.61691C11.1345 6.79691 11.9444 4.82691 11.5744 2.73691C11.2044 0.656909 10.1745 1.19691 9.63448 1.09691C9.09448 0.996905 8.16445 0.0769052 6.79445 0.346905C5.41445 0.626905 4.89447 0.456909 3.59447 0.166909C2.29447 -0.133091 1.01447 0.706906 0.974474 2.56691C0.924474 4.42691 0.974461 5.99691 1.80446 6.68691C2.63446 7.37691 5.14447 6.48691 5.97447 6.68691C6.80447 6.88691 8.22446 8.88691 9.99446 7.61691H9.98445Z" fill="white"/>
</mask>
<g mask="url(#mask0_254_16238)">
<path opacity="0.75" d="M7.37456 -1.5027C7.37456 -1.5027 8.92456 1.7073 6.24456 1.7073C3.87456 1.7073 5.14455 -1.4827 5.14455 -1.4827L7.37456 -1.5127V-1.5027Z" fill="#E62C2F" stroke="#E62C2F" stroke-width="0.2" stroke-linecap="round" stroke-linejoin="round"/>
</g>
</svg>
