<svg width="8" height="24" viewBox="0 0 8 24" fill="none" xmlns="http://www.w3.org/2000/svg">
<mask id="mask0_254_16394" style="mask-type:luminance" maskUnits="userSpaceOnUse" x="0" y="0" width="8" height="12">
<path d="M0.847974 8.82701C1.09797 10.237 2.19796 9.807 2.73796 10.527C3.27796 11.247 4.41798 11.367 5.13798 10.527C5.85798 9.687 7.23798 9.467 7.35798 8.107C7.47798 6.747 8.31798 1.67701 7.35798 1.00701C6.39798 0.347006 1.42798 -0.0029937 0.857984 1.00701C0.287984 2.01701 0.567984 7.18701 0.857984 8.82701H0.847974Z" fill="white"/>
</mask>
<g mask="url(#mask0_254_16394)">
<path opacity="0.75" d="M2.98899 -1.75293C2.98899 -1.75293 1.27902 2.04707 4.22902 2.04707C6.84902 2.04707 5.44902 -1.72293 5.44902 -1.72293L2.98899 -1.75293Z" fill="#E62C2F" stroke="#E62C2F" stroke-width="0.2" stroke-linecap="round" stroke-linejoin="round"/>
</g>
</svg>
