<svg width="9" height="25" viewBox="0 0 9 25" fill="none" xmlns="http://www.w3.org/2000/svg">
<mask id="mask0_254_16382" style="mask-type:luminance" maskUnits="userSpaceOnUse" x="0" y="0" width="9" height="12">
<path d="M1.44401 8.89655C0.624006 8.07655 0.124006 5.58655 0.194006 4.19655C0.264006 2.81655 0.763988 2.72654 1.89399 1.79654C3.02399 0.866544 4.43399 -0.203455 5.45399 0.476545C8.06399 2.21654 9.70398 1.16655 8.54398 5.37655C7.95398 7.50655 8.15398 8.84655 7.29398 9.68655C6.43398 10.5265 5.34399 11.5965 4.27399 11.2765C3.20399 10.9565 1.994 9.44655 1.434 8.89655H1.44401Z" fill="white"/>
</mask>
<g mask="url(#mask0_254_16382)">
<path opacity="0.75" d="M3.36297 -1.79297C3.36297 -1.79297 1.53299 2.33703 4.69299 2.33703C7.49299 2.33703 5.99297 -1.75297 5.99297 -1.75297L3.36297 -1.78297V-1.79297Z" fill="#E62C2F" stroke="#E62C2F" stroke-width="0.2" stroke-linecap="round" stroke-linejoin="round"/>
</g>
</svg>
