<svg width="14" height="24" viewBox="0 0 14 24" fill="none" xmlns="http://www.w3.org/2000/svg">
<mask id="mask0_254_16358" style="mask-type:luminance" maskUnits="userSpaceOnUse" x="0" y="0" width="14" height="10">
<path d="M0.926203 7.97661C0.276203 6.11661 -0.173799 2.9866 1.4562 1.8766C5.7762 -1.0734 6.60619 0.656601 8.14619 0.366601C9.29619 0.156601 11.6262 -0.333398 13.0562 0.656602C14.4862 1.6466 14.0662 5.9266 13.2662 7.2666C12.4662 8.6066 11.4262 8.7766 10.1262 8.6966C8.8262 8.6166 7.23619 9.7066 5.55619 9.1966C3.87619 8.6966 1.4462 9.43661 0.936197 7.97661H0.926203Z" fill="white"/>
</mask>
<g mask="url(#mask0_254_16358)">
<path opacity="0.75" d="M5.59687 -1.86379C5.59687 -1.86379 4.06686 1.99621 7.22686 2.02621C10.0269 2.05621 8.87687 -1.88379 8.87687 -1.88379H5.59687V-1.86379Z" fill="#E62C2F" stroke="#E62C2F" stroke-width="0.2" stroke-linecap="round" stroke-linejoin="round"/>
</g>
</svg>
