<svg width="12" height="21" viewBox="0 0 12 21" fill="none" xmlns="http://www.w3.org/2000/svg">
<mask id="mask0_254_16334" style="mask-type:luminance" maskUnits="userSpaceOnUse" x="0" y="0" width="12" height="8">
<path d="M2.1454 7.5671C0.995396 6.7471 0.1854 4.7771 0.5554 2.6871C0.9254 0.607104 1.9554 1.1471 2.4954 1.0471C3.0354 0.947104 3.9654 0.0271042 5.3354 0.297104C6.7154 0.577104 7.23541 0.407104 8.53541 0.117104C9.83541 -0.182896 11.1154 0.657105 11.1554 2.51711C11.2054 4.37711 11.1554 5.9471 10.3254 6.6371C9.4954 7.3271 6.98541 6.4371 6.15541 6.6371C5.32541 6.8371 3.9054 8.8371 2.1354 7.5671H2.1454Z" fill="white"/>
</mask>
<g mask="url(#mask0_254_16334)">
<path opacity="0.75" d="M4.75445 -1.54274C4.75445 -1.54274 3.20446 1.66727 5.88446 1.66727C8.25446 1.66727 6.98446 -1.52274 6.98446 -1.52274L4.75445 -1.55273V-1.54274Z" fill="#E62C2F" stroke="#E62C2F" stroke-width="0.2" stroke-linecap="round" stroke-linejoin="round"/>
</g>
</svg>
