<svg width="14" height="20" viewBox="0 0 14 20" fill="none" xmlns="http://www.w3.org/2000/svg">
<mask id="mask0_254_16708" style="mask-type:luminance" maskUnits="userSpaceOnUse" x="3" y="12" width="11" height="8">
<path d="M11.9051 13.7065C12.0351 13.8565 12.1651 14.0065 12.2951 14.1765C13.4051 15.7965 14.0651 17.3365 12.6951 18.5565C11.7451 19.2865 10.3551 19.4865 8.81507 19.5065C8.54507 19.5065 8.31507 19.3564 8.17507 19.1364C7.89507 18.7064 7.36507 18.9065 6.73507 19.3365C6.54507 19.4665 6.32507 19.5465 6.09507 19.5565C5.55507 19.5865 5.09507 19.4765 4.67507 19.2465C3.74507 18.7465 3.24507 17.7065 3.31507 16.6565C3.33507 16.2465 3.40507 15.8465 3.50507 15.4565C3.69507 14.6565 4.16507 13.9565 4.82507 13.4665C7.51507 11.5065 9.89507 11.4665 11.9051 13.7165V13.7065Z" fill="white"/>
</mask>
<g mask="url(#mask0_254_16708)">
<path opacity="0.75" d="M6.83336 20.7163C6.83336 20.7163 5.35336 17.6562 7.90336 17.6562C10.1634 17.6562 8.95336 20.6862 8.95336 20.6862L6.83336 20.7163Z" fill="#E62C2F" stroke="#E62C2F" stroke-width="0.2" stroke-linecap="round" stroke-linejoin="round"/>
</g>
</svg>
