<svg width="8" height="20" viewBox="0 0 8 20" fill="none" xmlns="http://www.w3.org/2000/svg">
<mask id="mask0_254_16682" style="mask-type:luminance" maskUnits="userSpaceOnUse" x="0" y="12" width="8" height="8">
<path d="M1.70438 13.7664C1.53438 13.9864 1.39438 14.2264 1.29438 14.4864C0.314379 16.8464 -0.225619 18.9264 1.69438 19.4964C3.53438 19.5564 5.37438 19.6164 6.28438 19.2764C7.46438 18.4064 7.65438 17.0264 7.25438 15.3564C7.15438 14.9364 6.98438 14.5264 6.75438 14.1664C6.29438 13.4364 5.58438 12.8864 4.72438 12.6864C4.34438 12.5964 3.96437 12.5764 3.59437 12.6264C2.83437 12.7364 2.16438 13.1664 1.70438 13.7664Z" fill="white"/>
</mask>
<g mask="url(#mask0_254_16682)">
<path opacity="0.75" d="M4.55314 20.1169C4.55314 20.1169 5.62314 18.0469 3.77314 18.0469C2.13314 18.0469 3.01315 20.0969 3.01315 20.0969L4.55314 20.1169Z" fill="#E62C2F" stroke="#E62C2F" stroke-width="0.2" stroke-linecap="round" stroke-linejoin="round"/>
</g>
</svg>
