<svg width="7" height="22" viewBox="0 0 7 22" fill="none" xmlns="http://www.w3.org/2000/svg">
<mask id="mask0_254_16662" style="mask-type:luminance" maskUnits="userSpaceOnUse" x="0" y="13" width="7" height="9">
<path d="M5.4756 14.7664C5.2556 14.4364 4.9856 14.1464 4.6556 13.9164C3.5656 13.1364 2.4456 13.2464 1.3056 14.4264C0.535598 15.6664 0.155602 16.9164 0.435602 18.1464C0.795602 19.3564 1.4756 20.3164 2.3856 21.1064C2.7056 21.3864 3.11561 21.5264 3.53561 21.5264H3.8056C3.9856 21.5264 4.17561 21.5064 4.34561 21.4464C6.16561 20.8264 6.6856 18.9864 6.0156 16.0564C5.9156 15.5964 5.7256 15.1564 5.4656 14.7664H5.4756Z" fill="white"/>
</mask>
<g mask="url(#mask0_254_16662)">
<path opacity="0.75" d="M4.37453 22.3264C4.37453 22.3264 5.48453 20.0264 3.56453 20.0264C1.86453 20.0264 2.77452 22.3064 2.77452 22.3064L4.37453 22.3264Z" fill="#E62C2F" stroke="#E62C2F" stroke-width="0.2" stroke-linecap="round" stroke-linejoin="round"/>
</g>
</svg>
