<svg width="5" height="18" viewBox="0 0 5 18" fill="none" xmlns="http://www.w3.org/2000/svg">
<mask id="mask0_254_16622" style="mask-type:luminance" maskUnits="userSpaceOnUse" x="0" y="0" width="5" height="9">
<path d="M4.50672 7.04678C4.71672 6.64678 4.81672 6.19677 4.83672 5.74677L4.96672 2.27677C5.01672 1.47677 4.68672 1.07677 4.21672 0.776773C3.50672 0.266773 2.48672 0.0367746 1.62672 0.0867746C1.02672 0.276775 1.00672 0.136776 0.926718 0.666776C0.886718 0.916776 0.876719 1.16678 0.896719 1.41678C1.00672 3.01678 1.16672 4.48677 1.32672 5.85677C1.36672 6.22677 1.50672 6.56677 1.72672 6.86677C1.74672 6.89677 1.77672 6.92678 1.79672 6.96678C2.82672 8.23678 3.68672 8.33678 4.37672 7.29678C4.42672 7.22678 4.47672 7.14677 4.51672 7.06677" fill="white"/>
</mask>
<g mask="url(#mask0_254_16622)">
<path opacity="0.75" d="M2.2577 -0.383556C2.2577 -0.383556 1.2677 1.65644 2.9777 1.65644C4.4877 1.65644 3.6777 -0.373554 3.6777 -0.373554L2.2577 -0.393555V-0.383556Z" fill="#E62C2F" stroke="#E62C2F" stroke-width="0.2" stroke-linecap="round" stroke-linejoin="round"/>
</g>
</svg>
