<svg width="5" height="18" viewBox="0 0 5 18" fill="none" xmlns="http://www.w3.org/2000/svg">
<mask id="mask0_254_16631" style="mask-type:luminance" maskUnits="userSpaceOnUse" x="0" y="0" width="5" height="9">
<path d="M1.10563 7.12685C0.895629 6.72685 0.795627 6.27685 0.775627 5.82685L0.64563 2.35685C0.59563 1.55685 0.92563 1.15685 1.39563 0.856851C2.10563 0.346851 3.12563 0.116853 3.98563 0.166853C4.58563 0.356853 4.60563 0.216851 4.68563 0.746851C4.72563 0.996851 4.73563 1.24685 4.71563 1.49685C4.60563 3.09685 4.44563 4.56685 4.28563 5.93685C4.24563 6.30685 4.10563 6.64685 3.88563 6.94685C3.86563 6.97685 3.83563 7.00685 3.81563 7.04685C2.78563 8.31685 1.92563 8.41685 1.23563 7.37685C1.18563 7.30685 1.13563 7.22685 1.09563 7.14685" fill="white"/>
</mask>
<g mask="url(#mask0_254_16631)">
<path opacity="0.75" d="M3.36745 -0.292736C3.36745 -0.292736 4.35745 1.74726 2.64745 1.74726C1.13745 1.74726 1.94745 -0.282734 1.94745 -0.282734L3.36745 -0.302734V-0.292736Z" fill="#E62C2F" stroke="#E62C2F" stroke-width="0.2" stroke-linecap="round" stroke-linejoin="round"/>
</g>
</svg>
