<svg width="5" height="19" viewBox="0 0 5 19" fill="none" xmlns="http://www.w3.org/2000/svg">
<mask id="mask0_254_16690" style="mask-type:luminance" maskUnits="userSpaceOnUse" x="0" y="0" width="5" height="8">
<path d="M4.29469 6.46669C4.19469 6.68669 4.05469 6.89669 3.88469 7.06669C3.17469 7.77669 2.46469 8.01669 1.73469 7.81669C1.25469 7.68669 0.874686 7.36668 0.634686 6.95668C0.474686 6.68668 0.374687 6.37669 0.354687 6.05669L0.0546875 2.46669C0.104688 1.92669 0.234689 1.45669 0.454689 1.05669C0.694689 0.626687 1.15469 0.346685 1.65469 0.316685L4.12469 0.156686C4.75469 0.126686 4.95469 0.286685 4.92469 1.06669C4.92469 1.26669 4.90468 1.46669 4.91468 1.66669C4.95468 3.25669 4.83469 4.66668 4.47469 5.79668C4.45469 6.02668 4.39469 6.25669 4.29469 6.46669Z" fill="white"/>
</mask>
<g mask="url(#mask0_254_16690)">
<path opacity="0.75" d="M3.28447 -0.353279C3.28447 -0.353279 4.28447 1.71672 2.55447 1.71672C1.02447 1.71672 1.84447 -0.343281 1.84447 -0.343281L3.28447 -0.363281V-0.353279Z" fill="#E62C2F" stroke="#E62C2F" stroke-width="0.2" stroke-linecap="round" stroke-linejoin="round"/>
</g>
</svg>
