<svg width="7" height="22" viewBox="0 0 7 22" fill="none" xmlns="http://www.w3.org/2000/svg">
<mask id="mask0_254_16604" style="mask-type:luminance" maskUnits="userSpaceOnUse" x="0" y="0" width="7" height="10">
<path d="M1.54531 7.9269C0.795315 6.9969 0.445312 5.7169 0.445312 4.1469C0.445312 3.6169 0.595312 3.0969 0.855312 2.6369C2.79531 -0.663104 4.58531 -0.933103 6.18531 2.6069C6.65531 4.7069 6.49531 6.4869 5.65531 7.91689C5.60531 8.0069 5.54531 8.0969 5.49531 8.1769C4.14531 10.2969 2.82531 10.3169 1.53531 7.91689L1.54531 7.9269Z" fill="white"/>
</mask>
<g mask="url(#mask0_254_16604)">
<path opacity="0.75" d="M4.23476 -0.333008C4.23476 -0.333008 5.27476 1.81699 3.47476 1.81699C1.88476 1.81699 2.73476 -0.313011 2.73476 -0.313011L4.23476 -0.333008Z" fill="#E62C2F" stroke="#E62C2F" stroke-width="0.2" stroke-linecap="round" stroke-linejoin="round"/>
</g>
</svg>
