<svg width="13" height="19" viewBox="0 0 13 19" fill="none" xmlns="http://www.w3.org/2000/svg">
<mask id="mask0_254_16584" style="mask-type:luminance" maskUnits="userSpaceOnUse" x="1" y="0" width="12" height="9">
<path d="M3.30468 7.84671C2.85468 7.60671 2.47468 7.24671 2.26468 6.77671C2.09468 6.42671 1.99468 6.05672 1.96468 5.66672C1.78468 4.56672 1.81468 3.43671 1.99468 2.29671C2.06468 1.88671 2.24468 1.50671 2.53468 1.20671C3.00468 0.726714 3.47468 0.406715 3.96468 0.336715C4.70468 0.086715 5.41468 0.176714 6.11468 0.546714H6.18468C6.67468 0.776714 7.14468 0.766714 7.61468 0.546714C9.16468 0.0567141 10.6147 -0.0432863 11.8747 0.616714C12.2247 0.866714 12.4747 1.38671 12.6147 2.24671C12.7447 4.00671 12.1747 5.66671 11.1047 7.23671C11.0047 7.38671 10.8947 7.51671 10.7647 7.63671C10.5847 7.80671 10.3747 7.94671 10.1447 8.05671C7.77468 9.13671 5.50468 9.03671 3.30468 7.84671Z" fill="white"/>
</mask>
<g mask="url(#mask0_254_16584)">
<path opacity="0.75" d="M8.19276 -0.992928C8.19276 -0.992928 9.66277 2.03707 7.12277 2.03707C4.88277 2.03707 6.08277 -0.972931 6.08277 -0.972931L8.19276 -1.00293V-0.992928Z" fill="#E62C2F" stroke="#E62C2F" stroke-width="0.2" stroke-linecap="round" stroke-linejoin="round"/>
</g>
</svg>
