<svg width="17" height="28" viewBox="0 0 17 28" fill="none" xmlns="http://www.w3.org/2000/svg">
<path d="M13.9209 20.1365C13.6709 17.5865 13.1009 14.9865 12.8609 12.4065C12.6209 9.82647 11.6509 7.74647 11.0909 3.82647C10.5309 -0.0835307 9.17094 -0.26353 8.34094 1.75647C7.51094 3.77647 6.30094 9.22647 6.56094 12.2265C6.83094 15.2265 5.98094 18.7065 5.46094 20.1365H13.9109H13.9209Z" fill="#F4DE9C" stroke="#5E5E5A" stroke-width="0.15" stroke-linecap="round" stroke-linejoin="round"/>
<path d="M0.25 19.8563H14.46C15.75 19.8563 16.79 18.8163 16.79 17.5263C16.79 16.2363 15.75 15.1963 14.46 15.1963H0.25" fill="#FFE4E3"/>
<path d="M0.25 19.8563H14.46C15.75 19.8563 16.79 18.8163 16.79 17.5263C16.79 16.2363 15.75 15.1963 14.46 15.1963H0.25" stroke="#5E5E5A" stroke-width="0.15" stroke-miterlimit="10"/>
<path d="M5.98095 26.7865C6.21095 26.8365 7.23098 27.4165 8.69098 27.2765C9.60098 27.1865 10.731 27.5565 11.841 27.1465C12.401 26.9365 13.051 26.9065 13.681 26.6965C14.371 26.4665 14.421 23.7465 14.191 21.2065C13.961 18.6665 13.451 19.3165 12.621 17.8865C9.00097 11.6565 8.58095 17.2465 6.79095 17.3765C5.65095 17.4565 3.73095 26.2665 5.98095 26.7765V26.7865Z" fill="white" stroke="#5E5E5A" stroke-width="0.15" stroke-linecap="round" stroke-linejoin="round"/>
</svg>
