<svg width="17" height="27" viewBox="0 0 17 27" fill="none" xmlns="http://www.w3.org/2000/svg">
<path d="M13.0398 19.2671C12.9698 15.6071 12.0898 11.3771 11.5498 9.51709C11.0098 7.65709 10.6298 4.37709 9.29984 1.59709C7.96984 -1.18291 7.30985 1.32709 7.43985 2.52709C7.56985 3.72709 6.82984 8.52709 6.36984 10.4771C5.90984 12.4271 6.25984 15.8871 5.58984 19.2671H13.0398Z" fill="#F4DE9C" stroke="#5E5E5A" stroke-width="0.15" stroke-linecap="round" stroke-linejoin="round"/>
<path d="M0.0507812 18.8563H14.2608C15.5508 18.8563 16.5908 17.8163 16.5908 16.5263C16.5908 15.2363 15.5508 14.1963 14.2608 14.1963H0.0507812" fill="#FFE4E3"/>
<path d="M0.0507812 18.8563H14.2608C15.5508 18.8563 16.5908 17.8163 16.5908 16.5263C16.5908 15.2363 15.5508 14.1963 14.2608 14.1963H0.0507812" stroke="#5E5E5A" stroke-width="0.15" stroke-miterlimit="10"/>
<path d="M6.45012 25.3562C5.43012 24.7662 5.61014 21.7262 5.56014 19.9662C5.47014 16.5462 9.34012 12.8162 12.0101 16.7162C12.8601 17.9662 13.2701 18.3262 13.2701 21.4962C13.2701 24.6662 12.5001 27.2562 10.5401 26.0362C8.59012 24.8162 8.63014 26.6162 6.44014 25.3562H6.45012Z" fill="white" stroke="#5E5E5A" stroke-width="0.15" stroke-linecap="round" stroke-linejoin="round"/>
</svg>
