<svg width="18" height="33" viewBox="0 0 18 33" fill="none" xmlns="http://www.w3.org/2000/svg">
<path d="M11.8909 9.66712C11.1209 7.31712 10.1009 5.37712 9.80093 2.95712C9.50093 0.537122 8.50095 0.577121 7.97095 1.90712C7.44095 3.23712 6.92093 9.11712 6.76093 12.9371C6.60093 16.7571 6.88094 20.3571 6.21094 22.6671H12.9009C11.9909 19.3871 12.6709 12.0171 11.8909 9.66712Z" fill="#F4DE9C" stroke="#5E5E5A" stroke-width="0.15" stroke-linecap="round" stroke-linejoin="round"/>
<path d="M0.859375 24.9863L14.8394 24.8563C16.1294 24.8563 17.1694 23.8163 17.1694 22.5263C17.1694 21.2363 16.1294 20.1963 14.8394 20.1963L0.859375 20.3263" fill="#FFE4E3"/>
<path d="M0.859375 24.9863L14.8394 24.8563C16.1294 24.8563 17.1694 23.8163 17.1694 22.5263C17.1694 21.2363 16.1294 20.1963 14.8394 20.1963L0.859375 20.3263" stroke="#5E5E5A" stroke-width="0.15" stroke-miterlimit="10"/>
<path d="M5.21945 28.8763C4.72945 26.8263 5.90945 24.0963 6.15945 22.8463C6.39945 21.5963 8.29945 19.9663 9.61945 20.0563C10.9394 20.1563 12.6494 21.2063 12.8694 22.0463C14.0094 26.4063 15.2495 28.6763 13.1895 31.0763C11.8695 32.6063 9.81944 32.7563 8.35944 31.5063C6.89944 30.2563 5.76944 31.1263 5.23944 28.8763H5.21945Z" fill="white" stroke="#5E5E5A" stroke-width="0.15" stroke-linecap="round" stroke-linejoin="round"/>
</svg>
