<svg width="18" height="29" viewBox="0 0 18 29" fill="none" xmlns="http://www.w3.org/2000/svg">
<path d="M11.0278 5.93707C10.8278 3.12707 10.6378 0.99707 11.1178 0.99707C12.7978 0.99707 13.7778 7.11707 13.8378 7.83707C13.9478 9.26707 13.9677 11.1071 14.0077 12.3671C14.1377 16.2371 14.3978 18.9471 14.3978 18.9471C13.0578 15.8671 12.5178 13.2871 12.2778 11.5071C12.1678 10.7171 11.6878 8.44707 11.0278 5.92707V5.93707Z" fill="#EDD091" stroke="#5E5E5A" stroke-width="0.15" stroke-linecap="round" stroke-linejoin="round"/>
<path d="M14.3897 18.957L10.6797 18.917L14.3897 18.957Z" fill="#EDD091" stroke="#5E5E5A" stroke-width="0.15" stroke-linecap="round" stroke-linejoin="round"/>
<path d="M14.3908 18.9571L5.80078 18.8471C5.80078 18.8471 7.7908 10.8871 7.9408 2.63707C7.9408 2.24707 8.2608 0.99707 8.8508 0.99707C9.5508 0.99707 9.90079 2.01707 10.0308 2.43707C11.1608 6.04707 12.1108 10.3671 12.2708 11.5171C12.5108 13.2971 13.0508 15.8771 14.3908 18.9571Z" fill="#F4DE9C" stroke="#5E5E5A" stroke-width="0.15" stroke-linecap="round" stroke-linejoin="round"/>
<path d="M0.667969 20.9165L15.048 20.8465C16.338 20.8465 17.378 19.8065 17.378 18.5165C17.378 17.2265 16.338 16.1865 15.048 16.1865L0.667969 16.2565" fill="#FFE4E3"/>
<path d="M0.667969 20.9165L15.048 20.8465C16.338 20.8465 17.378 19.8065 17.378 18.5165C17.378 17.2265 16.338 16.1865 15.048 16.1865L0.667969 16.2565" stroke="#5E5E5A" stroke-width="0.15" stroke-miterlimit="10"/>
<path d="M4.66797 24.2371C4.66797 22.2871 5.25799 19.2471 6.37799 17.9371C7.11799 17.0671 8.71799 16.2771 9.93799 16.4471C11.158 16.6171 11.598 18.0271 12.528 17.9871C13.448 17.9471 14.288 17.7471 14.478 19.4971C14.678 21.2571 15.068 21.3971 15.238 22.5271C15.408 23.6471 15.798 24.6071 13.698 25.4471C11.598 26.2871 11.078 28.8271 9.21799 28.2671C7.34799 27.7071 7.59798 26.6371 6.27798 26.1471C4.95798 25.6571 4.66797 24.9771 4.66797 24.2471V24.2371Z" fill="white" stroke="#5E5E5A" stroke-width="0.15" stroke-linecap="round" stroke-linejoin="round"/>
</svg>
