<svg width="18" height="27" viewBox="0 0 18 27" fill="none" xmlns="http://www.w3.org/2000/svg">
<path d="M13.6684 17.9568C13.6684 15.8268 13.0984 11.8968 12.6884 9.26681C12.2784 6.63681 10.7284 5.90681 11.0184 3.22681C11.3084 0.546813 10.0884 0.00681341 9.02844 1.98681C7.96844 3.96681 7.31843 6.60681 7.59843 9.53681C7.87843 12.4668 7.28844 14.1868 5.64844 17.9668H13.6584L13.6684 17.9568Z" fill="#F4DE9C" stroke="#5E5E5A" stroke-width="0.15" stroke-linecap="round" stroke-linejoin="round"/>
<path d="M0.480469 18.8563H14.6705C15.9605 18.8563 17.0005 17.8163 17.0005 16.5263C17.0005 15.2363 15.9605 14.1963 14.6705 14.1963H0.480469" fill="#FFE4E3"/>
<path d="M0.480469 18.8563H14.6705C15.9605 18.8563 17.0005 17.8163 17.0005 16.5263C17.0005 15.2363 15.9605 14.1963 14.6705 14.1963H0.480469" stroke="#5E5E5A" stroke-width="0.15" stroke-miterlimit="10"/>
<path d="M5.49932 24.3766C5.98932 25.2066 7.6093 25.0567 7.8593 25.7467C8.0993 26.4267 10.5293 26.7267 11.2093 25.5467C11.8893 24.3767 13.1593 23.9366 13.4593 22.8166C13.7493 21.6966 14.0893 17.2967 13.4593 16.8567C12.8293 16.4167 11.7593 16.9567 11.2193 16.3667C10.6793 15.7767 9.33932 14.1667 8.41932 15.1967C7.49932 16.2267 7.32931 16.9166 6.57931 17.0766C4.61931 17.4866 5.14932 23.7766 5.49932 24.3766Z" fill="white" stroke="#5E5E5A" stroke-width="0.15" stroke-linecap="round" stroke-linejoin="round"/>
</svg>
