<svg width="17" height="28" viewBox="0 0 17 28" fill="none" xmlns="http://www.w3.org/2000/svg">
<path d="M11.0588 2.21697C10.8288 -0.0630295 9.42875 0.526971 9.32875 2.43697C9.22875 4.34697 8.36875 8.12697 7.21875 11.877L11.2388 12.367C11.5988 10.987 11.2988 4.49697 11.0588 2.21697Z" fill="#F4DE9C" stroke="#5E5E5A" stroke-width="0.15" stroke-linecap="round" stroke-linejoin="round"/>
<path d="M4.19922 17.9965C5.26922 15.6465 5.76922 15.8365 5.27922 13.5865C4.78922 11.3365 3.83921 8.82648 5.32921 5.05648C6.81921 1.28648 9.09921 -0.463525 8.67921 2.20647C8.25921 4.87647 7.59921 7.71647 8.32921 9.74647C9.05921 11.7765 10.7192 12.2565 11.2492 9.92647C11.7792 7.59647 11.8092 5.89647 11.8392 4.38647C11.8692 2.88647 12.1092 -0.193525 13.2892 1.80648C14.4592 3.80648 15.2992 6.96648 14.8792 11.0465C14.8792 11.0465 13.9192 16.2165 14.7992 18.0065H4.19922V17.9965Z" fill="#F4DE9C" stroke="#5E5E5A" stroke-width="0.15" stroke-linecap="round" stroke-linejoin="round"/>
<path d="M0.28125 19.8563H14.4712C15.7612 19.8563 16.8012 18.8163 16.8012 17.5263C16.8012 16.2363 15.7612 15.1963 14.4712 15.1963H0.28125" fill="#FFE4E3"/>
<path d="M0.28125 19.8563H14.4712C15.7612 19.8563 16.8012 18.8163 16.8012 17.5263C16.8012 16.2363 15.7612 15.1963 14.4712 15.1963H0.28125" stroke="#5E5E5A" stroke-width="0.15" stroke-miterlimit="10"/>
<path d="M4.16103 17.977C3.39103 19.377 3.09104 24.697 3.73104 25.627C4.36104 26.557 6.07104 26.697 6.76104 26.017C7.45104 25.337 7.66103 26.107 8.27103 26.447C8.88103 26.777 9.42103 26.157 10.081 26.807C11.331 28.027 13.741 27.197 14.431 24.317C15.111 21.437 15.261 18.847 14.921 17.967C14.581 17.087 12.921 18.507 11.751 17.427C10.581 16.357 8.87104 16.397 7.45104 17.037C6.03104 17.677 5.30104 15.937 4.17104 17.987L4.16103 17.977Z" fill="white" stroke="#5E5E5A" stroke-width="0.15" stroke-linecap="round" stroke-linejoin="round"/>
</svg>
