<svg width="17" height="25" viewBox="0 0 17 25" fill="none" xmlns="http://www.w3.org/2000/svg">
<path d="M11.2309 2.18648C11.1409 0.186479 9.84094 0.606479 9.65094 2.27648C9.45094 3.93648 8.47094 7.18648 7.21094 10.3965L10.8309 11.0765C11.2309 9.89648 11.3109 4.19648 11.2309 2.18648Z" fill="#F4DE9C" stroke="#5E5E5A" stroke-width="0.15" stroke-linecap="round" stroke-linejoin="round"/>
<path d="M14.8514 8.9968C14.5114 6.9968 14.6314 4.1268 13.6514 1.4568C12.6714 -1.2132 11.9014 0.6368 12.1514 1.8668C12.4014 3.1068 11.9014 5.5168 11.2314 6.8868C10.5614 8.2568 9.77141 10.9968 8.35141 9.8968C6.93141 8.7968 7.72141 5.1068 8.52141 2.3468C9.32141 -0.413201 7.72141 0.2768 7.13141 1.5268C6.55141 2.7768 4.38142 5.9968 4.42142 9.4868C4.46142 12.9768 4.74141 14.2368 3.69141 16.1168L14.8414 16.2768C15.1914 13.4168 15.2014 11.0068 14.8514 9.0068V8.9968Z" fill="#F4DE9C" stroke="#5E5E5A" stroke-width="0.15" stroke-linecap="round" stroke-linejoin="round"/>
<path d="M0.0898438 16.8563H14.3298C15.6198 16.8563 16.6598 15.8163 16.6598 14.5263C16.6598 13.2363 15.6198 12.1963 14.3298 12.1963H0.0898438" fill="#FFE4E3"/>
<path d="M0.0898438 16.8563H14.3298C15.6198 16.8563 16.6598 15.8163 16.6598 14.5263C16.6598 13.2363 15.6198 12.1963 14.3298 12.1963H0.0898438" stroke="#5E5E5A" stroke-width="0.15" stroke-miterlimit="10"/>
<path d="M3.94139 15.657C2.53139 17.857 2.4314 21.467 4.1414 22.447C5.8514 23.427 6.83139 22.447 7.66139 22.687C8.49139 22.927 10.8414 25.467 12.6914 23.757C14.6814 21.917 15.5714 16.537 14.6914 15.317C12.8014 12.697 11.1314 15.717 8.5114 14.207C7.6514 13.707 5.3614 13.467 3.9514 15.667L3.94139 15.657Z" fill="white" stroke="#5E5E5A" stroke-width="0.15" stroke-linecap="round" stroke-linejoin="round"/>
</svg>
