<svg width="17" height="28" viewBox="0 0 17 28" fill="none" xmlns="http://www.w3.org/2000/svg">
<path d="M5.21094 20.1365C5.46094 17.5865 6.03094 14.9865 6.27094 12.4065C6.51094 9.82647 7.48092 7.74647 8.04092 3.82647C8.60092 -0.0835307 9.96092 -0.26353 10.7909 1.75647C11.6209 3.77647 12.831 9.22647 12.571 12.2265C12.301 15.2265 13.1509 18.7065 13.6709 20.1365H5.22095H5.21094Z" fill="#F4DE9C" stroke="#5E5E5A" stroke-width="0.15" stroke-linecap="round" stroke-linejoin="round"/>
<path d="M0.441406 19.8563H14.5914C15.8814 19.8563 16.9214 18.8163 16.9214 17.5263C16.9214 16.2363 15.8814 15.1963 14.5914 15.1963H0.441406" fill="#FFE4E3"/>
<path d="M0.441406 19.8563H14.5914C15.8814 19.8563 16.9214 18.8163 16.9214 17.5263C16.9214 16.2363 15.8814 15.1963 14.5914 15.1963H0.441406" stroke="#5E5E5A" stroke-width="0.15" stroke-miterlimit="10"/>
<path d="M13.1498 26.7865C12.9198 26.8365 11.8998 27.4165 10.4398 27.2765C9.52977 27.1865 8.39974 27.5565 7.28974 27.1465C6.72974 26.9365 6.07975 26.9065 5.44975 26.6965C4.75975 26.4665 4.70977 23.7465 4.93977 21.2065C5.16977 18.6665 5.67974 19.3165 6.50974 17.8865C10.1297 11.6565 10.5498 17.2465 12.3398 17.3765C13.4798 17.4565 15.3998 26.2665 13.1498 26.7765V26.7865Z" fill="white" stroke="#5E5E5A" stroke-width="0.15" stroke-linecap="round" stroke-linejoin="round"/>
</svg>
