<svg width="18" height="27" viewBox="0 0 18 27" fill="none" xmlns="http://www.w3.org/2000/svg">
<path d="M6.08984 19.2671C6.15984 15.6071 7.03983 11.3771 7.57983 9.51709C8.11983 7.65709 8.49983 4.37709 9.82983 1.59709C11.1598 -1.18291 11.8198 1.32709 11.6898 2.52709C11.5598 3.72709 12.2998 8.52709 12.7598 10.4771C13.2198 12.4271 12.8698 15.8871 13.5398 19.2671H6.08984Z" fill="#F4DE9C" stroke="#5E5E5A" stroke-width="0.15" stroke-linecap="round" stroke-linejoin="round"/>
<path d="M0.628906 18.8563H14.8489C16.1389 18.8563 17.1789 17.8163 17.1789 16.5263C17.1789 15.2363 16.1389 14.1963 14.8489 14.1963H0.628906" fill="#FFE4E3"/>
<path d="M0.628906 18.8563H14.8489C16.1389 18.8563 17.1789 17.8163 17.1789 16.5263C17.1789 15.2363 16.1389 14.1963 14.8489 14.1963H0.628906" stroke="#5E5E5A" stroke-width="0.15" stroke-miterlimit="10"/>
<path d="M12.6911 25.3562C13.7111 24.7662 13.5311 21.7262 13.5811 19.9662C13.6711 16.5462 9.8011 12.8162 7.1311 16.7162C6.2811 17.9662 5.87109 18.3262 5.87109 21.4962C5.87109 24.6662 6.6411 27.2562 8.6011 26.0362C10.5511 24.8162 10.5111 26.6162 12.7011 25.3562H12.6911Z" fill="white" stroke="#5E5E5A" stroke-width="0.15" stroke-linecap="round" stroke-linejoin="round"/>
</svg>
