<svg width="18" height="33" viewBox="0 0 18 33" fill="none" xmlns="http://www.w3.org/2000/svg">
<path d="M8.24829 9.66712C9.01829 7.31712 10.0383 5.37712 10.3383 2.95712C10.6383 0.537122 11.6383 0.577121 12.1683 1.90712C12.6983 3.23712 13.2183 9.11712 13.3783 12.9371C13.5383 16.7571 13.2583 20.3571 13.9283 22.6671H7.23828C8.14828 19.3871 7.46829 12.0171 8.24829 9.66712Z" fill="#F4DE9C" stroke="#5E5E5A" stroke-width="0.15" stroke-linecap="round" stroke-linejoin="round"/>
<path d="M0.820312 24.8563H15.0503C16.3403 24.8563 17.3803 23.8163 17.3803 22.5263C17.3803 21.2363 16.3403 20.1963 15.0503 20.1963H0.820312" fill="#FFE4E3"/>
<path d="M0.820312 24.8563H15.0503C16.3403 24.8563 17.3803 23.8163 17.3803 22.5263C17.3803 21.2363 16.3403 20.1963 15.0503 20.1963H0.820312" stroke="#5E5E5A" stroke-width="0.15" stroke-miterlimit="10"/>
<path d="M14.9198 28.8763C15.4098 26.8263 14.2298 24.0963 13.9798 22.8463C13.7398 21.5963 11.8399 19.9663 10.5199 20.0563C9.19985 20.1563 7.48985 21.2063 7.26985 22.0463C6.12985 26.4063 4.88985 28.6763 6.94985 31.0763C8.26985 32.6063 10.3199 32.7563 11.7799 31.5063C13.2399 30.2563 14.3699 31.1263 14.8999 28.8763H14.9198Z" fill="white" stroke="#5E5E5A" stroke-width="0.15" stroke-linecap="round" stroke-linejoin="round"/>
</svg>
