<svg width="17" height="29" viewBox="0 0 17 29" fill="none" xmlns="http://www.w3.org/2000/svg">
<path d="M8.10828 5.93707C8.30828 3.12707 8.49828 0.99707 8.01828 0.99707C6.33828 0.99707 5.35828 7.11707 5.29828 7.83707C5.18828 9.26707 5.1683 11.1071 5.1283 12.3671C4.9983 16.2371 4.73828 18.9471 4.73828 18.9471C6.07828 15.8671 6.61828 13.2871 6.85828 11.5071C6.96828 10.7171 7.44828 8.44707 8.10828 5.92707V5.93707Z" fill="#EDD091" stroke="#5E5E5A" stroke-width="0.15" stroke-linecap="round" stroke-linejoin="round"/>
<path d="M4.73828 18.957L8.45828 18.917L4.73828 18.957Z" fill="#EDD091" stroke="#5E5E5A" stroke-width="0.15" stroke-linecap="round" stroke-linejoin="round"/>
<path d="M4.73828 18.9571L13.3283 18.8471C13.3283 18.8471 11.3383 10.8871 11.1883 2.63707C11.1883 2.24707 10.8683 0.99707 10.2783 0.99707C9.57829 0.99707 9.2283 2.01707 9.0983 2.43707C7.9683 6.04707 7.01828 10.3671 6.85828 11.5171C6.61828 13.2971 6.07828 15.8771 4.73828 18.9571Z" fill="#F4DE9C" stroke="#5E5E5A" stroke-width="0.15" stroke-linecap="round" stroke-linejoin="round"/>
<path d="M0.0195312 20.8563H14.3295C15.6195 20.8563 16.6595 19.8163 16.6595 18.5263C16.6595 17.2363 15.6195 16.1963 14.3295 16.1963H0.0195312" fill="#FFE4E3"/>
<path d="M0.0195312 20.8563H14.3295C15.6195 20.8563 16.6595 19.8163 16.6595 18.5263C16.6595 17.2363 15.6195 16.1963 14.3295 16.1963H0.0195312" stroke="#5E5E5A" stroke-width="0.15" stroke-miterlimit="10"/>
<path d="M14.4593 24.2371C14.4593 22.2871 13.8693 19.2471 12.7493 17.9371C12.0093 17.0671 10.4093 16.2771 9.18933 16.4471C7.96933 16.6171 7.52934 18.0271 6.59934 17.9871C5.67934 17.9471 4.83933 17.7471 4.64933 19.4971C4.44933 21.2571 4.05932 21.3971 3.88932 22.5271C3.71932 23.6471 3.32932 24.6071 5.42932 25.4471C7.52932 26.2871 8.04934 28.8271 9.90934 28.2671C11.7793 27.7071 11.5293 26.6371 12.8493 26.1471C14.1693 25.6571 14.4593 24.9771 14.4593 24.2471V24.2371Z" fill="white" stroke="#5E5E5A" stroke-width="0.15" stroke-linecap="round" stroke-linejoin="round"/>
</svg>
