<svg width="17" height="27" viewBox="0 0 17 27" fill="none" xmlns="http://www.w3.org/2000/svg">
<path d="M5.46875 17.9568C5.46875 15.8268 6.03873 11.8968 6.44873 9.26681C6.85873 6.63681 8.40874 5.90681 8.11874 3.22681C7.82874 0.546813 9.04873 0.00681341 10.1087 1.98681C11.1687 3.96681 11.8187 6.60681 11.5387 9.53681C11.2587 12.4668 11.8487 14.1868 13.4887 17.9668H5.47873L5.46875 17.9568Z" fill="#F4DE9C" stroke="#5E5E5A" stroke-width="0.15" stroke-linecap="round" stroke-linejoin="round"/>
<path d="M0.210938 18.8563H14.4509C15.7409 18.8563 16.7809 17.8163 16.7809 16.5263C16.7809 15.2363 15.7409 14.1963 14.4509 14.1963H0.210938" fill="#FFE4E3"/>
<path d="M0.210938 18.8563H14.4509C15.7409 18.8563 16.7809 17.8163 16.7809 16.5263C16.7809 15.2363 15.7409 14.1963 14.4509 14.1963H0.210938" stroke="#5E5E5A" stroke-width="0.15" stroke-miterlimit="10"/>
<path d="M13.6403 24.3766C13.1503 25.2066 11.5303 25.0567 11.2803 25.7467C11.0403 26.4267 8.6103 26.7267 7.9303 25.5467C7.2503 24.3767 5.9803 23.9366 5.6803 22.8166C5.3903 21.6966 5.0503 17.2967 5.6803 16.8567C6.3103 16.4167 7.38029 16.9567 7.92029 16.3667C8.46029 15.7767 9.80031 14.1667 10.7203 15.1967C11.6403 16.2267 11.8103 16.9166 12.5603 17.0766C14.5203 17.4866 13.9903 23.7766 13.6403 24.3766Z" fill="white" stroke="#5E5E5A" stroke-width="0.15" stroke-linecap="round" stroke-linejoin="round"/>
</svg>
