<svg width="18" height="28" viewBox="0 0 18 28" fill="none" xmlns="http://www.w3.org/2000/svg">
<path d="M8.08104 2.21697C8.31104 -0.0630295 9.71105 0.526971 9.81105 2.43697C9.91105 4.34697 10.771 8.12697 11.921 11.877L7.90104 12.367C7.54104 10.987 7.84104 4.49697 8.08104 2.21697Z" fill="#F4DE9C" stroke="#5E5E5A" stroke-width="0.15" stroke-linecap="round" stroke-linejoin="round"/>
<path d="M14.9382 17.9965C13.8682 15.6465 13.3682 15.8365 13.8582 13.5865C14.3482 11.3365 15.2982 8.82648 13.8082 5.05648C12.3182 1.28648 10.0382 -0.463525 10.4582 2.20647C10.8782 4.87647 11.5382 7.71647 10.8082 9.74647C10.0782 11.7765 8.4182 12.2565 7.8882 9.92647C7.3582 7.59647 7.3282 5.89647 7.2982 4.38647C7.2682 2.88647 7.02822 -0.193525 5.84822 1.80648C4.67822 3.80648 3.8382 6.96648 4.2582 11.0465C4.2582 11.0465 5.21821 16.2165 4.33821 18.0065H14.9382V17.9965Z" fill="#F4DE9C" stroke="#5E5E5A" stroke-width="0.15" stroke-linecap="round" stroke-linejoin="round"/>
<path d="M0.398438 19.8563H14.6384C15.9284 19.8563 16.9684 18.8163 16.9684 17.5263C16.9684 16.2363 15.9284 15.1963 14.6384 15.1963H0.398438" fill="#FFE4E3"/>
<path d="M0.398438 19.8563H14.6384C15.9284 19.8563 16.9684 18.8163 16.9684 17.5263C16.9684 16.2363 15.9284 15.1963 14.6384 15.1963H0.398438" stroke="#5E5E5A" stroke-width="0.15" stroke-miterlimit="10"/>
<path d="M14.9783 17.977C15.7483 19.377 16.0483 24.697 15.4083 25.627C14.7783 26.557 13.0683 26.697 12.3783 26.017C11.6883 25.337 11.4783 26.107 10.8683 26.447C10.2583 26.777 9.71827 26.157 9.05827 26.807C7.80827 28.027 5.39826 27.197 4.70826 24.317C4.02826 21.437 3.87827 18.847 4.21827 17.967C4.55827 17.087 6.21826 18.507 7.38826 17.427C8.55826 16.357 10.2683 16.397 11.6883 17.037C13.1083 17.677 13.8383 15.937 14.9683 17.987L14.9783 17.977Z" fill="white" stroke="#5E5E5A" stroke-width="0.15" stroke-linecap="round" stroke-linejoin="round"/>
</svg>
