<svg width="18" height="25" viewBox="0 0 18 25" fill="none" xmlns="http://www.w3.org/2000/svg">
<path d="M7.89897 2.18648C7.98897 0.186479 9.28896 0.606479 9.47896 2.27648C9.67896 3.93648 10.659 7.18648 11.919 10.3965L8.29897 11.0765C7.89897 9.89648 7.81897 4.19648 7.89897 2.18648Z" fill="#F4DE9C" stroke="#5E5E5A" stroke-width="0.15" stroke-linecap="round" stroke-linejoin="round"/>
<path d="M4.2888 8.9968C4.6288 6.9968 4.50881 4.1268 5.48881 1.4568C6.46881 -1.2132 7.23881 0.6368 6.98881 1.8668C6.73881 3.1068 7.23882 5.5168 7.90882 6.8868C8.57882 8.2568 9.3688 10.9968 10.7888 9.8968C12.2088 8.7968 11.4188 5.1068 10.6188 2.3468C9.81882 -0.413201 11.4188 0.2768 12.0088 1.5268C12.5888 2.7768 14.7588 5.9968 14.7188 9.4868C14.6788 12.9768 14.3988 14.2368 15.4488 16.1168L4.29881 16.2768C3.94881 13.4168 3.9388 11.0068 4.2888 9.0068V8.9968Z" fill="#F4DE9C" stroke="#5E5E5A" stroke-width="0.15" stroke-linecap="round" stroke-linejoin="round"/>
<path d="M0.46875 16.8563H14.8287C16.1187 16.8563 17.1588 15.8163 17.1588 14.5263C17.1588 13.2363 16.1187 12.1963 14.8287 12.1963H0.46875" fill="#FFE4E3"/>
<path d="M0.46875 16.8563H14.8287C16.1187 16.8563 17.1588 15.8163 17.1588 14.5263C17.1588 13.2363 16.1187 12.1963 14.8287 12.1963H0.46875" stroke="#5E5E5A" stroke-width="0.15" stroke-miterlimit="10"/>
<path d="M15.1908 15.657C16.6008 17.857 16.7008 21.467 14.9908 22.447C13.2808 23.427 12.3008 22.447 11.4708 22.687C10.6408 22.927 8.29079 25.467 6.44079 23.757C4.45079 21.917 3.56079 16.537 4.44079 15.317C6.33079 12.697 8.00079 15.717 10.6208 14.207C11.4808 13.707 13.7708 13.467 15.1808 15.667L15.1908 15.657Z" fill="white" stroke="#5E5E5A" stroke-width="0.15" stroke-linecap="round" stroke-linejoin="round"/>
</svg>
