<svg width="18" height="24" viewBox="0 0 18 24" fill="none" xmlns="http://www.w3.org/2000/svg">
<path d="M9.14078 2.12624C9.56078 0.166239 10.7708 0.79624 10.6908 2.46624C10.6108 4.13624 11.0508 7.50624 11.7608 10.8762L8.08078 10.9462C7.88078 9.71624 8.73079 4.07624 9.15079 2.11624L9.14078 2.12624Z" fill="#F4DE9C" stroke="#5E5E5A" stroke-width="0.15" stroke-linecap="round" stroke-linejoin="round"/>
<path d="M5.26953 16.3671C5.89953 12.7871 5.32952 7.85707 5.75952 6.01707C6.18952 4.17707 6.76954 1.04707 7.93954 0.687074C9.09954 0.327074 8.77952 3.38707 8.19952 5.92707C7.60952 8.46707 8.22955 10.3271 10.3195 10.6671C12.3995 11.0071 10.8395 5.69707 11.0795 2.55707C11.3195 -0.582926 13.0795 0.237074 12.9095 2.21707C12.7295 4.19707 14.7195 8.51707 14.6195 9.65707C14.5195 10.8071 13.9195 13.6171 14.7995 16.3571H5.28952L5.26953 16.3671Z" fill="#F4DE9C" stroke="#5E5E5A" stroke-width="0.15" stroke-linecap="round" stroke-linejoin="round"/>
<path d="M0.78125 15.8563H15.0013C16.2913 15.8563 17.3312 14.8163 17.3312 13.5263C17.3312 12.2363 16.2913 11.1963 15.0013 11.1963H0.78125" fill="#FFE4E3"/>
<path d="M0.78125 15.8563H15.0013C16.2913 15.8563 17.3312 14.8163 17.3312 13.5263C17.3312 12.2363 16.2913 11.1963 15.0013 11.1963H0.78125" stroke="#5E5E5A" stroke-width="0.15" stroke-miterlimit="10"/>
<path d="M14.7804 16.3572C15.5504 18.0772 15.1004 22.7272 13.3804 22.7272C11.6604 22.7272 11.2304 22.4572 10.5904 23.1072C9.95037 23.7572 8.98038 22.7872 8.44038 22.8972C7.90038 23.0072 5.93036 24.4472 5.39036 21.5572C4.84036 18.6572 4.79037 14.3572 6.46037 14.6872C10.5804 15.4872 9.57036 11.1472 12.8004 15.5472C13.3904 16.3572 14.1404 14.9272 14.7904 16.3772L14.7804 16.3572Z" fill="white" stroke="#5E5E5A" stroke-width="0.15" stroke-linecap="round" stroke-linejoin="round"/>
</svg>
