<svg width="18" height="24" viewBox="0 0 18 24" fill="none" xmlns="http://www.w3.org/2000/svg">
<path d="M12.8701 8.39622C12.5801 9.86622 11.5401 15.0062 10.7601 19.9862C10.3901 22.3662 9.61014 24.3562 8.89014 21.8462C8.17014 19.3362 7.72014 15.8762 7.49014 13.2262C7.26014 10.5762 6.52016 9.05621 6.41016 8.36621L12.8701 8.39622Z" fill="#F4DE9C" stroke="#5E5E5A" stroke-width="0.15" stroke-linecap="round" stroke-linejoin="round"/>
<path d="M0.359375 11.6571H14.6394C15.9294 11.6571 16.9694 10.6171 16.9694 9.32707C16.9694 8.03707 15.9294 6.99707 14.6394 6.99707H0.359375" fill="#FFE4E3"/>
<path d="M0.359375 11.6571H14.6394C15.9294 11.6571 16.9694 10.6171 16.9694 9.32707C16.9694 8.03707 15.9294 6.99707 14.6394 6.99707H0.359375" stroke="#5E5E5A" stroke-width="0.15" stroke-miterlimit="10"/>
<path d="M12.8201 8.67662C12.5701 10.0866 11.4701 9.65662 10.9301 10.3766C10.3901 11.0966 9.25008 11.2166 8.53008 10.3766C7.81008 9.53662 6.43008 9.31662 6.31008 7.95662C6.19008 6.59662 5.35008 1.52662 6.31008 0.856616C7.27008 0.196616 12.2401 -0.153384 12.8101 0.856616C13.3801 1.86662 13.1001 7.03662 12.8101 8.67662H12.8201Z" fill="white" stroke="#5E5E5A" stroke-width="0.15" stroke-linecap="round" stroke-linejoin="round"/>
</svg>
