<svg width="18" height="25" viewBox="0 0 18 25" fill="none" xmlns="http://www.w3.org/2000/svg">
<path d="M13.4709 7.87695C13.2809 9.66695 11.6209 14.517 11.0409 21.117C10.8009 23.807 9.75095 26.027 8.94095 23.207C8.13095 20.387 7.62094 16.507 7.37094 13.527C7.12094 10.547 6.22094 8.78695 5.96094 7.87695H13.4709Z" fill="#F4DE9C" stroke="#5E5E5A" stroke-width="0.15" stroke-linecap="round" stroke-linejoin="round"/>
<path d="M0.558594 11.6571H14.8386C16.1286 11.6571 17.1686 10.6171 17.1686 9.32707C17.1686 8.03707 16.1286 6.99707 14.8386 6.99707H0.558594" fill="#FFE4E3"/>
<path d="M0.558594 11.6571H14.8386C16.1286 11.6571 17.1686 10.6171 17.1686 9.32707C17.1686 8.03707 16.1286 6.99707 14.8386 6.99707H0.558594" stroke="#5E5E5A" stroke-width="0.15" stroke-miterlimit="10"/>
<path d="M12.6286 0.426982C11.6286 -0.00301772 10.4186 1.00698 9.96858 0.696979C9.51858 0.386979 7.26857 -0.193021 6.67857 0.716979C6.08857 1.62698 5.42856 6.02698 5.88856 7.63698C6.33856 9.24698 8.81858 12.107 9.74858 11.697C10.6786 11.287 13.0486 9.59698 13.2186 9.08698C13.7886 7.38698 14.0786 1.04698 12.6386 0.426982H12.6286Z" fill="white" stroke="#5E5E5A" stroke-width="0.15" stroke-linecap="round" stroke-linejoin="round"/>
</svg>
