<svg width="18" height="30" viewBox="0 0 18 30" fill="none" xmlns="http://www.w3.org/2000/svg">
<path d="M6.20923 7.53711L13.6792 7.59711C12.8792 9.59711 12.8092 14.4371 12.7692 18.4671C12.7392 22.3271 11.9192 24.7571 10.8892 27.8471C9.85922 30.9371 8.67922 30.1171 8.66922 27.5371C8.64922 24.9571 7.94924 22.8471 6.99924 19.3271C6.56924 17.7371 6.49922 16.4071 6.50922 13.3471C6.51922 10.2871 6.32922 8.28711 6.19922 7.53711H6.20923Z" fill="#F4DE9C" stroke="#5E5E5A" stroke-width="0.15" stroke-linecap="round" stroke-linejoin="round"/>
<path d="M0.769531 11.6571H15.0495C16.3395 11.6571 17.3795 10.6171 17.3795 9.32707C17.3795 8.03707 16.3395 6.99707 15.0495 6.99707H0.769531" fill="#FFE4E3"/>
<path d="M0.769531 11.6571H15.0495C16.3395 11.6571 17.3795 10.6171 17.3795 9.32707C17.3795 8.03707 16.3395 6.99707 15.0495 6.99707H0.769531" stroke="#5E5E5A" stroke-width="0.15" stroke-miterlimit="10"/>
<path d="M12.6296 10.2464C13.9496 8.37644 14.0896 4.92644 13.8796 3.99644C13.6696 3.06644 10.3796 0.0864358 9.58955 0.116436C8.79955 0.146436 6.42954 1.06644 6.04954 1.95644C5.65954 2.83644 5.86956 7.01644 6.56956 8.85644C7.26956 10.6964 9.83955 12.7064 10.4595 12.3864C11.0795 12.0564 11.9396 11.2464 12.6296 10.2564V10.2464Z" fill="white" stroke="#5E5E5A" stroke-width="0.15" stroke-linecap="round" stroke-linejoin="round"/>
</svg>
