<svg width="18" height="25" viewBox="0 0 18 25" fill="none" xmlns="http://www.w3.org/2000/svg">
<path d="M13.8494 7.66625C13.2994 10.3563 12.8594 12.3763 12.3194 14.4062C11.8594 16.1562 11.2194 17.8263 11.4394 20.9963C11.6294 23.7963 11.2594 26.1263 9.85938 23.4263C8.45938 20.7263 7.79938 16.4062 7.70938 13.2962C7.61938 10.1962 6.86937 8.59625 6.60938 7.65625H13.8594L13.8494 7.66625Z" fill="#F4DE9C" stroke="#5E5E5A" stroke-width="0.15" stroke-linecap="round" stroke-linejoin="round"/>
<path d="M0.980469 11.6571H15.2505C16.5405 11.6571 17.5805 10.6171 17.5805 9.32707C17.5805 8.03707 16.5405 6.99707 15.2505 6.99707H0.980469" fill="#FFE4E3"/>
<path d="M0.980469 11.6571H15.2505C16.5405 11.6571 17.5805 10.6171 17.5805 9.32707C17.5805 8.03707 16.5405 6.99707 15.2505 6.99707H0.980469" stroke="#5E5E5A" stroke-width="0.15" stroke-miterlimit="10"/>
<path d="M13.2208 8.74713C14.0408 7.92713 14.5408 5.43713 14.4708 4.04713C14.4008 2.66713 13.9008 2.57713 12.7708 1.64713C11.6408 0.71713 10.2308 -0.352869 9.2108 0.327131C6.6008 2.06713 4.9608 1.01713 6.1208 5.22713C6.7108 7.35713 6.5108 8.69713 7.3708 9.53713C8.2308 10.3771 9.32079 11.4471 10.3908 11.1271C11.4608 10.8071 12.6708 9.29713 13.2308 8.74713H13.2208Z" fill="white" stroke="#5E5E5A" stroke-width="0.15" stroke-linecap="round" stroke-linejoin="round"/>
</svg>
