<svg width="17" height="25" viewBox="0 0 17 25" fill="none" xmlns="http://www.w3.org/2000/svg">
<path d="M13.7015 8.87695C13.1515 11.557 12.7315 13.837 12.3615 15.907C12.0415 17.687 10.7416 20.237 11.2216 21.697C12.0816 24.367 11.7915 25.707 9.64154 23.557C7.57154 21.477 7.40155 17.817 7.31155 14.717C7.22155 11.617 6.34156 10.297 5.60156 8.87695H13.7015Z" fill="#F4DE9C" stroke="#5E5E5A" stroke-width="0.15" stroke-linecap="round" stroke-linejoin="round"/>
<path d="M0.179688 12.6571H14.4497C15.7397 12.6571 16.7797 11.6171 16.7797 10.3271C16.7797 9.03707 15.7397 7.99707 14.4497 7.99707H0.179688" fill="#FFE4E3"/>
<path d="M0.179688 12.6571H14.4497C15.7397 12.6571 16.7797 11.6171 16.7797 10.3271C16.7797 9.03707 15.7397 7.99707 14.4497 7.99707H0.179688" stroke="#5E5E5A" stroke-width="0.15" stroke-miterlimit="10"/>
<path d="M14.0789 7.55685C14.4989 5.76685 14.0389 3.77685 12.7189 2.94685C11.3989 2.11685 9.1789 0.56685 8.0989 0.98685C7.0189 1.40685 6.88887 1.90685 6.16887 2.21685C5.44887 2.52685 4.28888 3.99685 4.38888 5.97685C4.48888 7.95685 6.13888 9.35685 6.48888 10.1469C6.83888 10.9369 9.38889 13.3068 11.0589 11.6868C12.7289 10.0668 13.3389 10.7168 14.0889 7.55685H14.0789Z" fill="white" stroke="#5E5E5A" stroke-width="0.15" stroke-linecap="round" stroke-linejoin="round"/>
</svg>
