<svg width="18" height="25" viewBox="0 0 18 25" fill="none" xmlns="http://www.w3.org/2000/svg">
<path d="M4.0587 8.93652L15.5087 9.23653C14.9887 10.6465 14.9687 11.2665 14.8487 12.5465C14.7287 13.8265 14.6787 16.4765 14.8787 17.8265C15.0787 19.1665 15.5987 23.3165 14.9287 23.9065C14.2587 24.5065 13.3587 23.2965 12.7787 21.7865C12.1987 20.2765 11.4987 18.7165 11.2187 16.2965C10.9387 13.8765 10.3187 13.8365 9.82869 14.4365C9.33869 15.0365 8.87868 18.4865 8.66868 19.7865C8.45868 21.0865 9.73869 24.5565 8.45869 24.2765C7.17869 23.9965 5.96869 21.6165 5.35869 20.2765C4.74869 18.9365 3.85871 16.9565 4.09871 14.8365C4.32871 12.7165 4.46871 9.98653 4.06871 8.94653L4.0587 8.93652Z" fill="#F4DE9C" stroke="#5E5E5A" stroke-width="0.15" stroke-linecap="round" stroke-linejoin="round"/>
<path d="M0.390625 12.6571H14.6606C15.9506 12.6571 16.9906 11.6171 16.9906 10.3271C16.9906 9.03707 15.9506 7.99707 14.6606 7.99707H0.390625" fill="#FFE4E3"/>
<path d="M0.390625 12.6571H14.6606C15.9506 12.6571 16.9906 11.6171 16.9906 10.3271C16.9906 9.03707 15.9506 7.99707 14.6606 7.99707H0.390625" stroke="#5E5E5A" stroke-width="0.15" stroke-miterlimit="10"/>
<path d="M15.7411 8.83695C16.3911 6.97695 16.8411 3.84695 15.2111 2.73695C10.8911 -0.213047 10.0611 1.51696 8.52105 1.22696C7.37105 1.01696 5.04105 0.526952 3.61105 1.51695C2.18105 2.50695 2.60106 6.78695 3.40106 8.12695C4.20106 9.46695 5.24104 9.63695 6.54104 9.55695C7.84104 9.47695 9.43105 10.567 11.111 10.057C12.791 9.55695 15.221 10.297 15.731 8.83695H15.7411Z" fill="white" stroke="#5E5E5A" stroke-width="0.15" stroke-linecap="round" stroke-linejoin="round"/>
</svg>
