<svg width="18" height="24" viewBox="0 0 18 24" fill="none" xmlns="http://www.w3.org/2000/svg">
<path d="M11.1891 7.69653H15.3091C14.9591 8.42653 14.1791 10.9165 14.1891 11.9965C14.1891 13.0765 15.0491 14.7065 14.7891 16.3165C14.5291 17.9265 13.7091 22.4565 12.8691 23.1965C12.0391 23.9465 11.3891 21.4265 11.3891 18.8765C11.3891 16.3265 10.1291 13.4565 9.53906 13.4565C8.53906 13.4565 8.22908 16.9965 8.42908 17.6965C8.62908 18.3965 9.43909 23.9465 8.31909 23.5765C7.19909 23.2165 5.48907 20.4365 5.38907 18.4765C5.29907 16.5165 5.39907 13.9965 5.26907 13.0165C5.13907 12.0365 4.43906 9.04652 4.03906 7.68652H11.1891V7.69653Z" fill="#F4DE9C" stroke="#5E5E5A" stroke-width="0.15" stroke-linecap="round" stroke-linejoin="round"/>
<path d="M0.589844 12.6571H14.8598C16.1498 12.6571 17.1898 11.6171 17.1898 10.3271C17.1898 9.03707 16.1498 7.99707 14.8598 7.99707H0.589844" fill="#FFE4E3"/>
<path d="M0.589844 12.6571H14.8598C16.1498 12.6571 17.1898 11.6171 17.1898 10.3271C17.1898 9.03707 16.1498 7.99707 14.8598 7.99707H0.589844" stroke="#5E5E5A" stroke-width="0.15" stroke-miterlimit="10"/>
<path d="M14.9178 8.75674C15.7978 6.92674 16.2279 3.31674 13.9979 2.18674C11.7679 1.05674 10.0979 2.25674 9.02786 1.58674C7.95786 0.91674 4.73785 0.0867368 4.07785 2.76674C3.41785 5.44674 3.94784 7.66674 4.25784 8.43674C4.56784 9.19674 5.51785 8.94674 6.32785 8.77674C7.13785 8.61674 8.58786 10.1767 9.42786 10.1867C11.4979 10.2067 12.1778 8.34674 13.1678 8.43674C14.1578 8.52674 14.4779 9.68674 14.9279 8.76674L14.9178 8.75674Z" fill="white" stroke="#5E5E5A" stroke-width="0.15" stroke-linecap="round" stroke-linejoin="round"/>
</svg>
