<svg width="18" height="22" viewBox="0 0 18 22" fill="none" xmlns="http://www.w3.org/2000/svg">
<path d="M4.89062 6.89648H14.2306C13.5506 8.01648 14.4506 9.27648 14.6106 10.6665C14.7706 12.0565 15.4006 11.5565 15.2806 14.7065C15.1606 17.8465 14.6506 18.6565 14.2006 19.9065C13.7506 21.1665 12.6106 21.9565 12.3206 20.1565C12.0306 18.3565 12.8506 14.4265 12.1206 12.9765C11.3906 11.5265 10.7306 11.0465 10.3606 12.0565C9.99063 13.0665 9.30064 13.5865 9.47064 14.8965C9.64064 16.2065 10.7306 18.4765 10.9906 19.7365C11.2506 20.9965 10.9206 21.9265 9.08063 19.9465C7.24063 17.9665 5.85063 16.6665 6.08063 14.1365C6.31063 11.6065 6.03063 10.6065 5.77063 9.55648C5.51063 8.50648 5.17063 7.83649 4.89062 6.90649V6.89648Z" fill="#F4DE9C" stroke="#5E5E5A" stroke-width="0.15" stroke-linecap="round" stroke-linejoin="round"/>
<path d="M15.0389 8.00684H4.70889C3.42207 8.00684 2.37891 9.05001 2.37891 10.3368C2.37891 11.6237 3.42207 12.6668 4.70889 12.6668H15.0389C16.3257 12.6668 17.3689 11.6237 17.3689 10.3368C17.3689 9.05001 16.3257 8.00684 15.0389 8.00684Z" fill="#FFE4E3" stroke="#5E5E5A" stroke-width="0.15" stroke-miterlimit="10"/>
<path d="M0.800781 8.00684H15.1008C16.3508 8.00684 17.3708 9.04683 17.3708 10.3368C17.3708 11.6268 16.3508 12.6668 15.1008 12.6668H0.800781" fill="#FFE4E3"/>
<path d="M0.800781 8.00684H15.1008C16.3508 8.00684 17.3708 9.04683 17.3708 10.3368C17.3708 11.6268 16.3508 12.6668 15.1008 12.6668H0.800781" stroke="#5E5E5A" stroke-width="0.15" stroke-miterlimit="10"/>
<path d="M13.5314 8.42648C14.6814 7.60648 15.4914 5.63648 15.1214 3.54648C14.7514 1.46648 13.7214 2.00648 13.1814 1.90648C12.6414 1.80648 11.7114 0.886479 10.3414 1.15648C8.96135 1.43648 8.44134 1.26648 7.14134 0.976479C5.84134 0.676479 4.56135 1.51648 4.52135 3.37648C4.47135 5.23648 4.52136 6.80648 5.35136 7.49648C6.18136 8.18648 8.69135 7.29648 9.52135 7.49648C10.3513 7.69648 11.7713 9.69648 13.5413 8.42648H13.5314Z" fill="white" stroke="#5E5E5A" stroke-width="0.15" stroke-linecap="round" stroke-linejoin="round"/>
</svg>
