<svg width="17" height="24" viewBox="0 0 17 24" fill="none" xmlns="http://www.w3.org/2000/svg">
<path d="M6.33984 8.39622C6.62984 9.86622 7.66983 15.0062 8.44983 19.9862C8.81983 22.3662 9.59985 24.3562 10.3199 21.8462C11.0399 19.3362 11.4898 15.8762 11.7198 13.2262C11.9498 10.5762 12.6898 9.05621 12.7998 8.36621L6.33984 8.39622Z" fill="#F4DE9C" stroke="#5E5E5A" stroke-width="0.15" stroke-linecap="round" stroke-linejoin="round"/>
<path d="M0.148438 11.6571H14.4284C15.7184 11.6571 16.7584 10.6171 16.7584 9.32707C16.7584 8.03707 15.7184 6.99707 14.4284 6.99707H0.148438" fill="#FFE4E3"/>
<path d="M0.148438 11.6571H14.4284C15.7184 11.6571 16.7584 10.6171 16.7584 9.32707C16.7584 8.03707 15.7184 6.99707 14.4284 6.99707H0.148438" stroke="#5E5E5A" stroke-width="0.15" stroke-miterlimit="10"/>
<path d="M6.39094 8.67662C6.64094 10.0866 7.74096 9.65662 8.28096 10.3766C8.82096 11.0966 9.96095 11.2166 10.681 10.3766C11.401 9.53662 12.781 9.31662 12.901 7.95662C13.021 6.59662 13.861 1.52662 12.901 0.856616C11.941 0.196616 6.97095 -0.153384 6.40095 0.856616C5.83095 1.86662 6.11095 7.03662 6.40095 8.67662H6.39094Z" fill="white" stroke="#5E5E5A" stroke-width="0.15" stroke-linecap="round" stroke-linejoin="round"/>
</svg>
