<svg width="18" height="25" viewBox="0 0 18 25" fill="none" xmlns="http://www.w3.org/2000/svg">
<path d="M6.73047 7.87695C6.92047 9.66695 8.58049 14.517 9.16049 21.117C9.40049 23.807 10.4505 26.027 11.2605 23.207C12.0705 20.387 12.5805 16.507 12.8305 13.527C13.0805 10.547 13.9805 8.78695 14.2405 7.87695H6.73047Z" fill="#F4DE9C" stroke="#5E5E5A" stroke-width="0.15" stroke-linecap="round" stroke-linejoin="round"/>
<path d="M0.949219 11.6571H15.2392C16.5292 11.6571 17.5692 10.6171 17.5692 9.32707C17.5692 8.03707 16.5292 6.99707 15.2392 6.99707H0.949219" fill="#FFE4E3"/>
<path d="M0.949219 11.6571H15.2392C16.5292 11.6571 17.5692 10.6171 17.5692 9.32707C17.5692 8.03707 16.5292 6.99707 15.2392 6.99707H0.949219" stroke="#5E5E5A" stroke-width="0.15" stroke-miterlimit="10"/>
<path d="M7.56948 0.426982C8.56948 -0.00301772 9.77945 1.00698 10.2295 0.696979C10.6795 0.386979 12.9295 -0.193021 13.5195 0.716979C14.1095 1.62698 14.7695 6.02698 14.3095 7.63698C13.8595 9.24698 11.3795 12.107 10.4495 11.697C9.51946 11.287 7.14945 9.59698 6.97945 9.08698C6.40945 7.38698 6.11947 1.04698 7.55947 0.426982H7.56948Z" fill="white" stroke="#5E5E5A" stroke-width="0.15" stroke-linecap="round" stroke-linejoin="round"/>
</svg>
