<svg width="18" height="30" viewBox="0 0 18 30" fill="none" xmlns="http://www.w3.org/2000/svg">
<path d="M14.0013 7.53711L6.53125 7.59711C7.33125 9.59711 7.40125 14.4371 7.44125 18.4671C7.47125 22.3271 8.29126 24.7571 9.32126 27.8471C10.3513 30.9371 11.5312 30.1171 11.5412 27.5371C11.5612 24.9571 12.2612 22.8471 13.2112 19.3271C13.6412 17.7371 13.7112 16.4071 13.7012 13.3471C13.6912 10.2871 13.8812 8.28711 14.0112 7.53711H14.0013Z" fill="#F4DE9C" stroke="#5E5E5A" stroke-width="0.15" stroke-linecap="round" stroke-linejoin="round"/>
<path d="M0.738281 11.6571H15.0283C16.3183 11.6571 17.3583 10.6171 17.3583 9.32707C17.3583 8.03707 16.3183 6.99707 15.0283 6.99707H0.738281" fill="#FFE4E3"/>
<path d="M0.738281 11.6571H15.0283C16.3183 11.6571 17.3583 10.6171 17.3583 9.32707C17.3583 8.03707 16.3183 6.99707 15.0283 6.99707H0.738281" stroke="#5E5E5A" stroke-width="0.15" stroke-miterlimit="10"/>
<path d="M7.57929 10.2464C6.25929 8.37644 6.11929 4.92644 6.32929 3.99644C6.53929 3.06644 9.8293 0.0864358 10.6193 0.116436C11.4093 0.146436 13.7793 1.06644 14.1593 1.95644C14.5493 2.83644 14.3393 7.01644 13.6393 8.85644C12.9393 10.6964 10.3693 12.7064 9.74931 12.3864C9.12931 12.0564 8.26929 11.2464 7.57929 10.2564V10.2464Z" fill="white" stroke="#5E5E5A" stroke-width="0.15" stroke-linecap="round" stroke-linejoin="round"/>
</svg>
