<svg width="18" height="25" viewBox="0 0 18 25" fill="none" xmlns="http://www.w3.org/2000/svg">
<path d="M6.36154 7.66625C6.91154 10.3563 7.35154 12.3763 7.89154 14.4062C8.35154 16.1562 8.99155 17.8263 8.77155 20.9963C8.58155 23.7963 8.95156 26.1263 10.3516 23.4263C11.7516 20.7263 12.4116 16.4062 12.5016 13.2962C12.5916 10.1962 13.3416 8.59625 13.6016 7.65625H6.35156L6.36154 7.66625Z" fill="#F4DE9C" stroke="#5E5E5A" stroke-width="0.15" stroke-linecap="round" stroke-linejoin="round"/>
<path d="M0.539062 11.6571H14.8291C16.1191 11.6571 17.1591 10.6171 17.1591 9.32707C17.1591 8.03707 16.1191 6.99707 14.8291 6.99707H0.539062" fill="#FFE4E3"/>
<path d="M0.539062 11.6571H14.8291C16.1191 11.6571 17.1591 10.6171 17.1591 9.32707C17.1591 8.03707 16.1191 6.99707 14.8291 6.99707H0.539062" stroke="#5E5E5A" stroke-width="0.15" stroke-miterlimit="10"/>
<path d="M6.99088 8.74713C6.17088 7.92713 5.67088 5.43713 5.74088 4.04713C5.81088 2.66713 6.31089 2.57713 7.44089 1.64713C8.57089 0.71713 9.98089 -0.352869 11.0009 0.327131C13.6109 2.06713 15.2509 1.01713 14.0909 5.22713C13.5009 7.35713 13.7009 8.69713 12.8409 9.53713C11.9809 10.3771 10.8909 11.4471 9.8209 11.1271C8.7509 10.8071 7.54087 9.29713 6.98087 8.74713H6.99088Z" fill="white" stroke="#5E5E5A" stroke-width="0.15" stroke-linecap="round" stroke-linejoin="round"/>
</svg>
