<svg width="17" height="25" viewBox="0 0 17 25" fill="none" xmlns="http://www.w3.org/2000/svg">
<path d="M5.50781 8.87695C6.05781 11.557 6.47781 13.837 6.84781 15.907C7.16781 17.687 8.46781 20.237 7.98781 21.697C7.12781 24.367 7.41781 25.707 9.56781 23.557C11.6378 21.477 11.8078 17.817 11.8978 14.717C11.9878 11.617 12.8678 10.297 13.6078 8.87695H5.50781Z" fill="#F4DE9C" stroke="#5E5E5A" stroke-width="0.15" stroke-linecap="round" stroke-linejoin="round"/>
<path d="M0.328125 12.6571H14.5981C15.8881 12.6571 16.9281 11.6171 16.9281 10.3271C16.9281 9.03707 15.8881 7.99707 14.5981 7.99707H0.328125" fill="#FFE4E3"/>
<path d="M0.328125 12.6571H14.5981C15.8881 12.6571 16.9281 11.6171 16.9281 10.3271C16.9281 9.03707 15.8881 7.99707 14.5981 7.99707H0.328125" stroke="#5E5E5A" stroke-width="0.15" stroke-miterlimit="10"/>
<path d="M5.13108 7.55685C4.71108 5.76685 5.17108 3.77685 6.49108 2.94685C7.81108 2.11685 10.0311 0.56685 11.1111 0.98685C12.1911 1.40685 12.3211 1.90685 13.0411 2.21685C13.7611 2.52685 14.9211 3.99685 14.8211 5.97685C14.7211 7.95685 13.0711 9.35685 12.7211 10.1469C12.3711 10.9369 9.82109 13.3068 8.15109 11.6868C6.48109 10.0668 5.87109 10.7168 5.12109 7.55685H5.13108Z" fill="white" stroke="#5E5E5A" stroke-width="0.15" stroke-linecap="round" stroke-linejoin="round"/>
</svg>
