<svg width="17" height="25" viewBox="0 0 17 25" fill="none" xmlns="http://www.w3.org/2000/svg">
<path d="M15.1492 8.93652L3.69922 9.23653C4.21922 10.6465 4.23921 11.2665 4.35921 12.5465C4.47921 13.8265 4.52921 16.4765 4.32921 17.8265C4.12921 19.1665 3.60922 23.3165 4.27922 23.9065C4.94922 24.5065 5.84921 23.2965 6.42921 21.7865C7.00921 20.2765 7.70921 18.7165 7.98921 16.2965C8.26921 13.8765 8.88921 13.8365 9.37921 14.4365C9.86921 15.0365 10.3292 18.4865 10.5392 19.7865C10.7492 21.0865 9.46922 24.5565 10.7492 24.2765C12.0292 23.9965 13.2392 21.6165 13.8492 20.2765C14.4592 18.9365 15.3492 16.9565 15.1092 14.8365C14.8792 12.7165 14.7392 9.98653 15.1392 8.94653L15.1492 8.93652Z" fill="#F4DE9C" stroke="#5E5E5A" stroke-width="0.15" stroke-linecap="round" stroke-linejoin="round"/>
<path d="M0.121094 12.6571H14.4211C15.7111 12.6571 16.7511 11.6171 16.7511 10.3271C16.7511 9.03707 15.7111 7.99707 14.4211 7.99707H0.121094" fill="#FFE4E3"/>
<path d="M0.121094 12.6571H14.4211C15.7111 12.6571 16.7511 11.6171 16.7511 10.3271C16.7511 9.03707 15.7111 7.99707 14.4211 7.99707H0.121094" stroke="#5E5E5A" stroke-width="0.15" stroke-miterlimit="10"/>
<path d="M3.46916 8.83695C2.81916 6.97695 2.36918 3.84695 3.99918 2.73695C8.31918 -0.213047 9.14917 1.51696 10.6892 1.22696C11.8392 1.01696 14.1692 0.526952 15.5992 1.51695C17.0292 2.50695 16.6092 6.78695 15.8092 8.12695C15.0092 9.46695 13.9692 9.63695 12.6692 9.55695C11.3692 9.47695 9.77917 10.567 8.09917 10.057C6.41917 9.55695 3.98917 10.297 3.47917 8.83695H3.46916Z" fill="white" stroke="#5E5E5A" stroke-width="0.15" stroke-linecap="round" stroke-linejoin="round"/>
</svg>
