<svg width="18" height="24" viewBox="0 0 18 24" fill="none" xmlns="http://www.w3.org/2000/svg">
<path d="M9.01843 7.69653H4.89844C5.24844 8.42653 6.02843 10.9165 6.01843 11.9965C6.01843 13.0765 5.15844 14.7065 5.41844 16.3165C5.67844 17.9265 6.49844 22.4565 7.33844 23.1965C8.16844 23.9465 8.81844 21.4265 8.81844 18.8765C8.81844 16.3265 10.0784 13.4565 10.6684 13.4565C11.6684 13.4565 11.9784 16.9965 11.7784 17.6965C11.5784 18.3965 10.7684 23.9465 11.8884 23.5765C13.0084 23.2165 14.7184 20.4365 14.8184 18.4765C14.9084 16.5165 14.8084 13.9965 14.9384 13.0165C15.0684 12.0365 15.7684 9.04652 16.1684 7.68652H9.01843V7.69653Z" fill="#F4DE9C" stroke="#5E5E5A" stroke-width="0.15" stroke-linecap="round" stroke-linejoin="round"/>
<path d="M0.917969 12.6571H15.218C16.508 12.6571 17.548 11.6171 17.548 10.3271C17.548 9.03707 16.508 7.99707 15.218 7.99707H0.917969" fill="#FFE4E3"/>
<path d="M0.917969 12.6571H15.218C16.508 12.6571 17.548 11.6171 17.548 10.3271C17.548 9.03707 16.508 7.99707 15.218 7.99707H0.917969" stroke="#5E5E5A" stroke-width="0.15" stroke-miterlimit="10"/>
<path d="M5.28785 8.75674C4.40785 6.92674 3.97785 3.31674 6.20785 2.18674C8.43785 1.05674 10.1078 2.25674 11.1778 1.58674C12.2478 0.91674 15.4678 0.0867368 16.1278 2.76674C16.7878 5.44674 16.2579 7.66674 15.9479 8.43674C15.6379 9.19674 14.6878 8.94674 13.8778 8.77674C13.0678 8.61674 11.6179 10.1767 10.7779 10.1867C8.70785 10.2067 8.02785 8.34674 7.03785 8.43674C6.04785 8.52674 5.72785 9.68674 5.27785 8.76674L5.28785 8.75674Z" fill="white" stroke="#5E5E5A" stroke-width="0.15" stroke-linecap="round" stroke-linejoin="round"/>
</svg>
