<svg width="17" height="22" viewBox="0 0 17 22" fill="none" xmlns="http://www.w3.org/2000/svg">
<path d="M13.3192 6.89648H3.97916C4.65916 8.01648 3.75916 9.27648 3.59916 10.6665C3.43916 12.0565 2.80916 11.5565 2.92916 14.7065C3.04916 17.8465 3.55916 18.6565 4.00916 19.9065C4.45916 21.1665 5.59916 21.9565 5.88916 20.1565C6.17916 18.3565 5.35916 14.4265 6.08916 12.9765C6.81916 11.5265 7.47916 11.0465 7.84916 12.0565C8.21916 13.0665 8.90916 13.5865 8.73916 14.8965C8.56916 16.2065 7.47915 18.4765 7.21915 19.7365C6.95915 20.9965 7.28915 21.9265 9.12915 19.9465C10.9692 17.9665 12.3592 16.6665 12.1292 14.1365C11.8992 11.6065 12.1792 10.6065 12.4392 9.55648C12.6992 8.50648 13.0392 7.83649 13.3192 6.90649V6.89648Z" fill="#F4DE9C" stroke="#5E5E5A" stroke-width="0.15" stroke-linecap="round" stroke-linejoin="round"/>
<path d="M16.9216 8.00684H2.68156C1.39156 8.00684 0.351562 9.04683 0.351562 10.3368C0.351562 11.6268 1.39156 12.6668 2.68156 12.6668H16.9216" fill="#FFE4E3"/>
<path d="M16.9216 8.00684H2.68156C1.39156 8.00684 0.351562 9.04683 0.351562 10.3368C0.351562 11.6268 1.39156 12.6668 2.68156 12.6668H16.9216" stroke="#5E5E5A" stroke-width="0.15" stroke-miterlimit="10"/>
<path d="M4.68055 8.42648C3.53055 7.60648 2.72056 5.63648 3.09056 3.54648C3.46056 1.46648 4.49056 2.00648 5.03056 1.90648C5.57056 1.80648 6.50055 0.886479 7.87055 1.15648C9.25055 1.43648 9.77055 1.26648 11.0706 0.976479C12.3706 0.676479 13.6505 1.51648 13.6905 3.37648C13.7405 5.23648 13.6905 6.80648 12.8605 7.49648C12.0305 8.18648 9.52055 7.29648 8.69055 7.49648C7.86055 7.69648 6.44056 9.69648 4.67056 8.42648H4.68055Z" fill="white" stroke="#5E5E5A" stroke-width="0.15" stroke-linecap="round" stroke-linejoin="round"/>
</svg>
