<svg width="17" height="20" viewBox="0 0 17 20" fill="none" xmlns="http://www.w3.org/2000/svg">
<path d="M6.44141 13.9767C7.38141 10.6167 8.1214 6.77672 8.1014 1.66672C8.1014 1.19672 8.2614 0.726718 8.6014 0.386718C9.0114 -0.0132822 9.3514 0.176718 9.6014 1.09672C10.2214 6.35672 10.8514 9.59672 11.4914 13.5767V13.9767H6.44141Z" fill="#F4DE9C" stroke="#5E5E5A" stroke-width="0.15" stroke-linecap="round" stroke-linejoin="round"/>
<path d="M0.167969 10.6562H14.598C15.778 10.6562 16.738 11.6163 16.738 12.7963C16.738 13.9763 15.778 14.9363 14.598 14.9363H0.167969" fill="#FFE4E3"/>
<path d="M0.167969 10.6562H14.598C15.778 10.6562 16.738 11.6163 16.738 12.7963C16.738 13.9763 15.778 14.9363 14.598 14.9363H0.167969" stroke="#5E5E5A" stroke-width="0.15" stroke-miterlimit="10"/>
<path d="M11.49 13.5769C11.66 13.7969 11.8 14.0369 11.9 14.2969C12.88 16.6569 13.42 18.7369 11.5 19.3069C9.66 19.3669 7.82001 19.4269 6.91001 19.0869C5.73001 18.2169 5.54001 16.8369 5.94001 15.1669C6.04001 14.7469 6.21001 14.3369 6.44001 13.9769C6.90001 13.2469 7.61 12.6969 8.47 12.4969C8.85 12.4069 9.23 12.3869 9.6 12.4369C10.36 12.5469 11.03 12.9769 11.49 13.5769Z" fill="white" stroke="#5E5E5A" stroke-width="0.15" stroke-linecap="round" stroke-linejoin="round"/>
</svg>
