<svg width="18" height="19" viewBox="0 0 18 19" fill="none" xmlns="http://www.w3.org/2000/svg">
<path d="M8.29125 12.9465C9.17125 9.47649 9.35125 6.29649 9.34125 2.35649C9.34125 1.82649 9.50125 1.29649 9.83125 0.87649C10.2613 0.33649 10.6013 0.426489 10.8613 0.976489C11.0313 1.33649 11.0313 1.73649 11.0613 2.13649C11.4813 7.12649 11.6513 9.14649 11.7713 12.9465H8.28125H8.29125Z" fill="#F4DE9C" stroke="#5E5E5A" stroke-width="0.15" stroke-linecap="round" stroke-linejoin="round"/>
<path d="M0.96875 9.65625H15.3988C16.5788 9.65625 17.5387 10.6163 17.5387 11.7963C17.5387 12.9763 16.5788 13.9363 15.3988 13.9363H0.96875" fill="#FFE4E3"/>
<path d="M0.96875 9.65625H15.3988C16.5788 9.65625 17.5387 10.6163 17.5387 11.7963C17.5387 12.9763 16.5788 13.9363 15.3988 13.9363H0.96875" stroke="#5E5E5A" stroke-width="0.15" stroke-miterlimit="10"/>
<path d="M9.88845 18.2764C9.36845 18.2764 8.93845 18.2464 8.59845 18.1764C8.08845 18.0664 7.66845 17.6764 7.54845 17.1864C7.14845 15.5964 7.40845 14.1764 8.34845 12.8564C8.92845 12.3664 9.52845 12.1064 10.0985 12.1064C10.4085 12.1064 10.7185 12.1764 11.0285 12.3264C11.2585 12.4364 11.4685 12.5864 11.6285 12.7864C11.8185 12.9964 11.9585 13.2564 12.0485 13.5364C12.3885 14.5964 12.6085 15.7164 12.7085 16.8564C12.7785 17.2564 12.8185 17.6964 12.6085 17.9564C12.4685 18.1264 12.2285 18.2064 11.8785 18.2064L11.5285 18.2264C10.9685 18.2564 10.3985 18.2964 9.87845 18.2964L9.88845 18.2764Z" fill="white"/>
<path d="M10.0995 12.1666C10.3995 12.1666 10.6995 12.2366 10.9895 12.3766C11.2095 12.4866 11.4095 12.6266 11.5695 12.8166C11.7495 13.0266 11.8895 13.2666 11.9795 13.5366C12.3195 14.5966 12.5395 15.7066 12.6395 16.8566C12.7095 17.2366 12.7495 17.6566 12.5495 17.8866C12.4295 18.0366 12.1995 18.1066 11.8695 18.1066L11.5195 18.1266C10.9695 18.1566 10.3995 18.1966 9.87951 18.1966C9.35951 18.1966 8.93951 18.1666 8.59951 18.0966C8.10951 17.9966 7.71951 17.6266 7.60951 17.1566C7.20951 15.5866 7.46951 14.1966 8.37951 12.9166C8.95951 12.4166 9.53951 12.1666 10.0995 12.1666ZM10.0995 12.0166C9.49951 12.0166 8.88951 12.2766 8.27951 12.7966C7.28951 14.1866 7.07952 15.6566 7.46951 17.1866C7.59951 17.7166 8.03952 18.1266 8.57952 18.2366C8.96952 18.3166 9.40951 18.3466 9.88951 18.3466C10.5195 18.3466 11.2095 18.2966 11.8895 18.2566C12.9295 18.2566 12.9195 17.5366 12.7995 16.8266C12.6995 15.6866 12.4795 14.5766 12.1295 13.4966C12.0395 13.2066 11.8895 12.9466 11.6895 12.7166C11.5195 12.5166 11.2995 12.3566 11.0595 12.2366C10.7395 12.0866 10.4195 12.0166 10.0995 12.0166Z" fill="#5E5E5A"/>
</svg>
