<svg width="18" height="22" viewBox="0 0 18 22" fill="none" xmlns="http://www.w3.org/2000/svg">
<path d="M7.71875 14.5871C8.51875 11.2171 8.88875 7.26706 9.07875 1.91706C9.09875 1.35706 9.38875 0.827057 9.89875 0.587057C10.2788 0.407057 10.5888 0.467057 10.8288 0.777057C10.9988 0.997057 11.0688 1.28706 11.0588 1.57706C10.8188 6.38706 11.1188 10.4671 11.9888 14.5971H7.71875V14.5871Z" fill="#F4DE9C" stroke="#5E5E5A" stroke-width="0.15" stroke-linecap="round" stroke-linejoin="round"/>
<path d="M0.78125 12.6562H15.2113C16.3913 12.6562 17.3512 13.6163 17.3512 14.7963C17.3512 15.9763 16.3913 16.9363 15.2113 16.9363H0.78125" fill="#FFE4E3"/>
<path d="M0.78125 12.6562H15.2113C16.3913 12.6562 17.3512 13.6163 17.3512 14.7963C17.3512 15.9763 16.3913 16.9363 15.2113 16.9363H0.78125" stroke="#5E5E5A" stroke-width="0.15" stroke-miterlimit="10"/>
<path d="M9.37752 21.2774C9.18752 21.2774 9.01752 21.2474 8.85752 21.1974C7.11752 20.6074 6.56753 18.8174 7.23753 15.8974C7.33753 15.4374 7.52752 15.0074 7.77752 14.6274C7.99752 14.2874 8.26753 14.0074 8.57753 13.7974C9.02753 13.4774 9.47752 13.3174 9.92752 13.3174C10.5575 13.3174 11.2075 13.6474 11.8375 14.3074C12.6575 15.6474 12.9375 16.8474 12.6875 17.9674C12.3475 19.0974 11.7175 20.0474 10.7575 20.8874C10.4575 21.1474 10.0675 21.2874 9.65752 21.2874H9.38752L9.37752 21.2774Z" fill="white"/>
<path d="M9.92851 13.3871C10.5385 13.3871 11.1685 13.7071 11.7685 14.3271C12.5885 15.6571 12.8685 16.8371 12.6185 17.9271C12.2885 19.0471 11.6585 19.9871 10.7185 20.8171C10.4285 21.0671 10.0585 21.1971 9.65851 21.1971H9.38851C9.20851 21.1971 9.03851 21.1671 8.89851 21.1271C7.17851 20.5371 6.65851 18.8371 7.32851 15.9171C7.42851 15.4571 7.60851 15.0471 7.85851 14.6771C8.07851 14.3471 8.33851 14.0771 8.63851 13.8671C9.07851 13.5571 9.51851 13.3971 9.93851 13.3971M9.93851 13.2471C9.46851 13.2471 9.00851 13.4171 8.54851 13.7471C8.21851 13.9771 7.94851 14.2671 7.72851 14.5971C7.46851 14.9871 7.27851 15.4271 7.17851 15.8871C6.51851 18.8171 7.02851 20.6571 8.84851 21.2771C9.01851 21.3371 9.20851 21.3571 9.38851 21.3571H9.65851C10.0785 21.3571 10.4985 21.2171 10.8085 20.9371C11.7085 20.1471 12.3985 19.1871 12.7585 17.9771C13.0385 16.7371 12.6585 15.4971 11.8885 14.2571C11.2285 13.5771 10.5685 13.2471 9.92851 13.2471H9.93851Z" fill="#5E5E5A"/>
</svg>
