<svg width="18" height="20" viewBox="0 0 18 20" fill="none" xmlns="http://www.w3.org/2000/svg">
<path d="M7.64109 8.64631C8.21109 6.75631 8.31109 4.34631 8.17109 1.68631C8.16109 1.40631 8.21109 1.11631 8.38109 0.886308C8.59109 0.576308 8.82109 0.576309 9.05109 0.906309C9.20109 1.12631 9.28109 1.39631 9.30109 1.66631C9.52109 4.15631 10.1411 6.62631 11.1911 9.06631L11.1711 11.0263L7.62109 10.9963L7.64109 8.65631V8.64631Z" fill="#F4DE9C" stroke="#5E5E5A" stroke-width="0.15" stroke-linecap="round" stroke-linejoin="round"/>
<path d="M6.84156 14.0071C5.24156 10.5871 4.78156 6.67705 4.60156 2.24706C4.60156 2.06706 4.60156 1.88706 4.64156 1.71706C4.79156 0.957056 5.50156 0.777056 5.84156 1.60706C5.88156 1.70706 5.91156 1.82706 5.93156 1.93706C6.28156 4.47706 6.81156 6.79706 7.67156 8.66706C7.73156 8.79706 7.77156 8.93705 7.86156 9.05705C8.28156 9.62705 8.93156 9.80706 9.59156 9.79706C10.2216 9.78706 10.8016 9.49705 11.2316 9.05705C11.4616 8.81705 11.6516 8.53706 11.7816 8.21706C12.4916 6.51706 12.6316 4.54705 12.9416 2.47705C13.0216 1.95705 13.1516 1.42706 13.5016 1.03706C14.1516 0.317055 14.6816 0.677056 14.7416 1.95706C14.9616 6.65706 13.7116 11.1971 12.1116 14.0271H6.85156L6.84156 14.0071Z" fill="#F4DE9C" stroke="#5E5E5A" stroke-width="0.15" stroke-linecap="round" stroke-linejoin="round"/>
<path d="M0.578125 10.6562H15.0081C16.1881 10.6562 17.1481 11.6163 17.1481 12.7963C17.1481 13.9763 16.1881 14.9363 15.0081 14.9363H0.578125" fill="#FFE4E3"/>
<path d="M0.578125 10.6562H15.0081C16.1881 10.6562 17.1481 11.6163 17.1481 12.7963C17.1481 13.9763 16.1881 14.9363 15.0081 14.9363H0.578125" stroke="#5E5E5A" stroke-width="0.15" stroke-miterlimit="10"/>
<path d="M9.38781 19.2665C8.60781 19.2665 7.81781 19.1665 7.03781 18.9765C6.39781 18.9065 6.07781 18.4565 6.05781 17.6165C5.87781 16.5865 6.02781 15.5765 6.51781 14.5865C6.60781 14.4165 6.71781 14.2465 6.85781 14.0965C7.91781 12.9565 8.89781 12.3965 9.81781 12.3965C10.5878 12.3965 11.3478 12.7865 12.0678 13.5565C12.2778 13.7765 12.4778 14.0265 12.6878 14.3165C13.3978 15.2565 13.7378 16.3765 13.7178 17.7365C13.6778 18.5265 13.3778 18.9465 12.8078 19.0365C12.7378 19.0465 12.6778 19.0465 12.6078 19.0465C12.2978 19.0465 11.9778 18.9365 11.7178 18.7365C11.5678 18.6265 11.4178 18.5665 11.2478 18.5665C11.0378 18.5665 10.8278 18.6565 10.5878 18.8265C10.2178 19.0965 9.80781 19.2465 9.41781 19.2465H9.39781L9.38781 19.2665Z" fill="white"/>
<path d="M9.79832 12.4864C10.5483 12.4864 11.2883 12.8664 11.9983 13.6264C12.2083 13.8564 12.4183 14.1064 12.6083 14.3764C13.3083 15.2964 13.6383 16.4064 13.6183 17.7464C13.5683 18.7464 13.1083 18.9264 12.7683 18.9764C12.7083 18.9764 12.6483 18.9864 12.5783 18.9864C12.2883 18.9864 11.9883 18.8864 11.7383 18.6964C11.5783 18.5764 11.4083 18.5164 11.2283 18.5164C11.0083 18.5164 10.7783 18.6064 10.5283 18.7964C10.1683 19.0564 9.77832 19.1964 9.37832 19.1964C8.60832 19.1964 7.81832 19.0964 7.01832 18.9064C6.63832 18.8664 6.13832 18.6864 6.10832 17.5964C5.92832 16.5964 6.07832 15.5964 6.55832 14.6264C6.64832 14.4564 6.75832 14.2964 6.87832 14.1564L6.92832 14.0964C7.92832 13.0264 8.88832 12.4764 9.77832 12.4764M9.77832 12.3264C8.80832 12.3264 7.81832 12.9064 6.81832 13.9964C6.79832 14.0164 6.78832 14.0364 6.76832 14.0464C6.62832 14.1964 6.50832 14.3664 6.41832 14.5464C5.91832 15.5664 5.76832 16.5864 5.95832 17.6164C5.97832 18.5464 6.36832 18.9764 6.99832 19.0464C7.76832 19.2364 8.55832 19.3364 9.36832 19.3364H9.38832C9.82832 19.3364 10.2483 19.1664 10.5983 18.9064C10.8083 18.7564 11.0083 18.6564 11.2183 18.6564C11.3583 18.6564 11.4983 18.7064 11.6383 18.8064C11.9083 19.0164 12.2383 19.1264 12.5683 19.1264C12.6383 19.1264 12.7083 19.1264 12.7783 19.1064C13.3483 19.0164 13.7083 18.6064 13.7583 17.7364C13.7783 16.2264 13.3783 15.1364 12.7183 14.2664C12.5083 13.9764 12.3083 13.7264 12.0983 13.5064C11.3483 12.7064 10.5783 12.3164 9.78832 12.3164L9.77832 12.3264Z" fill="#5E5E5A"/>
</svg>
