<svg width="18" height="20" viewBox="0 0 18 20" fill="none" xmlns="http://www.w3.org/2000/svg">
<path d="M6.91016 8.30676C7.55016 6.76676 7.62016 4.32676 7.49016 1.57676C7.47016 1.21676 7.56016 0.836762 7.79016 0.556762C8.12016 0.146762 8.47016 0.256762 8.84016 0.716762C8.97016 0.876762 9.03016 1.07676 9.04016 1.27676C9.14016 3.51676 9.92016 6.04676 10.9602 8.69676V10.6668H6.91016V8.30676Z" fill="#F4DE9C" stroke="#5E5E5A" stroke-width="0.15" stroke-linecap="round" stroke-linejoin="round"/>
<path d="M6.31984 13.5162C4.45984 10.3662 2.97984 6.38624 1.84984 2.27624C1.72984 1.81624 1.80984 1.30624 2.12984 0.956237C2.44984 0.596237 2.78984 0.646238 3.14984 1.25624C4.03984 4.03624 5.23984 6.45624 6.91984 8.29624C8.36984 9.56624 9.76984 9.73624 11.0998 8.77624C11.1398 8.74624 11.1698 8.71624 11.2098 8.68624C12.4598 7.02624 12.6098 4.53624 12.3998 1.76624C12.3698 1.33624 12.4598 0.896238 12.7298 0.556238C13.0198 0.186238 13.3198 0.206238 13.6298 0.616238C13.7998 0.856238 13.9098 1.13624 13.9598 1.42624C14.7898 5.95624 14.7098 10.0562 13.3098 13.4962H6.31984V13.5162Z" fill="#F4DE9C" stroke="#5E5E5A" stroke-width="0.15" stroke-linecap="round" stroke-linejoin="round"/>
<path d="M17.58 14.9363H3.14C1.96 14.9363 1 13.9763 1 12.7963C1 11.6163 1.96 10.6562 3.14 10.6562H17.57" fill="#FFE4E3"/>
<path d="M17.58 14.9363H3.14C1.96 14.9363 1 13.9763 1 12.7963C1 11.6163 1.96 10.6562 3.14 10.6562H17.57" stroke="#5E5E5A" stroke-width="0.15" stroke-miterlimit="10"/>
<path d="M7.33925 19.2767C6.88925 19.2767 6.48925 19.1767 6.11925 18.9767C5.24925 18.5067 4.72925 17.5267 4.79925 16.4567C4.81925 16.0667 4.88925 15.6667 4.97925 15.2667C5.16925 14.4767 5.62925 13.7867 6.26925 13.3267C7.58925 12.3667 8.81925 11.8867 9.93925 11.8867C11.1392 11.8867 12.2592 12.4467 13.2492 13.5567C13.3792 13.7067 13.5092 13.8567 13.6292 14.0167C14.6592 15.5067 15.4192 17.0567 14.0392 18.2867C13.2392 18.9067 12.0592 19.1967 10.2092 19.2167C9.97925 19.2167 9.76925 19.0867 9.62925 18.8767C9.50925 18.6967 9.34925 18.5967 9.13925 18.5967C8.86925 18.5967 8.53925 18.7367 8.08925 19.0467C7.90925 19.1667 7.69925 19.2467 7.48925 19.2467H7.33925V19.2767Z" fill="white"/>
<path d="M9.93914 11.9666C11.1191 11.9666 12.2191 12.5266 13.1991 13.6166C13.3291 13.7566 13.4491 13.9166 13.5791 14.0666C14.9591 16.0766 15.0791 17.2866 14.0091 18.2366C13.2191 18.8466 12.0491 19.1366 10.2191 19.1566C10.0191 19.1566 9.82914 19.0466 9.70914 18.8566C9.57914 18.6566 9.38914 18.5466 9.14914 18.5466C8.86914 18.5466 8.51914 18.6966 8.05914 19.0166C7.88914 19.1266 7.69914 19.1966 7.49914 19.2066C7.44914 19.2066 7.39914 19.2066 7.34914 19.2066C6.91914 19.2066 6.52914 19.1066 6.15914 18.9166C5.30914 18.4666 4.80914 17.5066 4.87914 16.4666C4.89914 16.0866 4.95914 15.6866 5.05914 15.2866C5.24914 14.5266 5.68914 13.8566 6.30914 13.3966C6.30914 13.3966 6.31914 13.3966 6.32914 13.3966C7.62914 12.4466 8.84914 11.9666 9.94914 11.9666M9.94914 11.8166C8.78914 11.8166 7.54914 12.3166 6.23914 13.2666C5.57914 13.7466 5.10914 14.4566 4.91914 15.2566C4.81914 15.6566 4.75914 16.0566 4.72914 16.4566C4.65914 17.5066 5.15914 18.5466 6.08914 19.0466C6.45914 19.2466 6.87914 19.3566 7.34914 19.3566C7.39914 19.3566 7.44914 19.3566 7.50914 19.3566C7.73914 19.3566 7.95914 19.2666 8.14914 19.1366C8.52914 18.8766 8.87914 18.6966 9.14914 18.6966C9.32914 18.6966 9.46914 18.7666 9.57914 18.9366C9.71914 19.1566 9.95914 19.3066 10.2191 19.3066C11.7591 19.2866 13.1491 19.0866 14.0991 18.3566C15.4691 17.1366 14.8191 15.5966 13.6991 13.9766C13.5691 13.8066 13.4391 13.6566 13.3091 13.5066C12.2791 12.3566 11.1591 11.8066 9.93914 11.8066L9.94914 11.8166Z" fill="#5E5E5A"/>
</svg>
