<svg width="18" height="20" viewBox="0 0 18 20" fill="none" xmlns="http://www.w3.org/2000/svg">
<path d="M12.3 13.9767C11.36 10.6167 10.62 6.77672 10.64 1.66672C10.64 1.19672 10.48 0.726718 10.14 0.386718C9.73 -0.0132822 9.39 0.176718 9.14 1.09672C8.52 6.35672 7.89 9.59672 7.25 13.5767V13.9767H12.3Z" fill="#F4DE9C" stroke="#5E5E5A" stroke-width="0.15" stroke-linecap="round" stroke-linejoin="round"/>
<path d="M0.371094 10.6562H14.8011C15.9811 10.6562 16.9411 11.6163 16.9411 12.7963C16.9411 13.9763 15.9811 14.9363 14.8011 14.9363H0.371094" fill="#FFE4E3"/>
<path d="M0.371094 10.6562H14.8011C15.9811 10.6562 16.9411 11.6163 16.9411 12.7963C16.9411 13.9763 15.9811 14.9363 14.8011 14.9363H0.371094" stroke="#5E5E5A" stroke-width="0.15" stroke-miterlimit="10"/>
<path d="M7.25125 13.5769C7.08125 13.7969 6.94126 14.0369 6.84126 14.2969C5.86126 16.6569 5.32125 18.7369 7.24125 19.3069C9.08125 19.3669 10.9213 19.4269 11.8313 19.0869C13.0113 18.2169 13.2013 16.8369 12.8013 15.1669C12.7013 14.7469 12.5313 14.3369 12.3013 13.9769C11.8413 13.2469 11.1313 12.6969 10.2713 12.4969C9.89125 12.4069 9.51125 12.3869 9.14125 12.4369C8.38125 12.5469 7.71125 12.9769 7.25125 13.5769Z" fill="white" stroke="#5E5E5A" stroke-width="0.15" stroke-linecap="round" stroke-linejoin="round"/>
</svg>
