<svg width="18" height="19" viewBox="0 0 18 19" fill="none" xmlns="http://www.w3.org/2000/svg">
<path d="M11.4487 12.9367C10.5687 9.46672 10.3888 6.28672 10.3988 2.34672C10.3988 1.81672 10.2388 1.28672 9.90875 0.866724C9.47875 0.326724 9.13875 0.416724 8.87875 0.966724C8.70875 1.32672 8.70875 1.72672 8.67875 2.12672C8.25875 7.11672 8.08875 9.13672 7.96875 12.9367H11.4587H11.4487Z" fill="#F4DE9C" stroke="#5E5E5A" stroke-width="0.15" stroke-linecap="round" stroke-linejoin="round"/>
<path d="M0.570312 9.65625H15.0003C16.1803 9.65625 17.1403 10.6163 17.1403 11.7963C17.1403 12.9763 16.1803 13.9363 15.0003 13.9363H0.570312" fill="#FFE4E3"/>
<path d="M0.570312 9.65625H15.0003C16.1803 9.65625 17.1403 10.6163 17.1403 11.7963C17.1403 12.9763 16.1803 13.9363 15.0003 13.9363H0.570312" stroke="#5E5E5A" stroke-width="0.15" stroke-miterlimit="10"/>
<path d="M9.8488 18.2659C9.3288 18.2659 8.75879 18.2359 8.19879 18.1959L7.8488 18.1759C7.4988 18.1759 7.2588 18.0959 7.1088 17.9259C6.8888 17.6659 6.9388 17.2259 7.0088 16.8359C7.1088 15.6859 7.33879 14.5759 7.66879 13.5159C7.75879 13.2359 7.8988 12.9759 8.0888 12.7659C8.2588 12.5759 8.45879 12.4159 8.69879 12.3059C9.00879 12.1659 9.31879 12.0859 9.62879 12.0859C10.2088 12.0859 10.7988 12.3459 11.3988 12.8559C12.3288 14.1659 12.5888 15.5759 12.1888 17.1659C12.0688 17.6659 11.6488 18.0559 11.1388 18.1559C10.7988 18.2259 10.3688 18.2559 9.8488 18.2559V18.2659Z" fill="white"/>
<path d="M9.63948 12.1664C10.1995 12.1664 10.7795 12.4164 11.3295 12.8864C12.2595 14.1864 12.5195 15.5864 12.1195 17.1564C11.9995 17.6264 11.6095 17.9964 11.1295 18.0964C10.7895 18.1664 10.3695 18.1964 9.84948 18.1964C9.32948 18.1964 8.75948 18.1664 8.20948 18.1264L7.84948 18.1064C7.52948 18.1064 7.29948 18.0264 7.17948 17.8864C6.97948 17.6564 7.02948 17.2364 7.09948 16.8464C7.19948 15.7164 7.41948 14.6064 7.75948 13.5464C7.84948 13.2764 7.97948 13.0264 8.16948 12.8264C8.32948 12.6364 8.52948 12.4964 8.74948 12.3864C9.04948 12.2464 9.34948 12.1764 9.63948 12.1764M9.63948 12.0264C9.31948 12.0264 8.99948 12.0964 8.67948 12.2464C8.43948 12.3664 8.21948 12.5264 8.04948 12.7264C7.84948 12.9464 7.69948 13.2164 7.60948 13.5064C7.26948 14.5864 7.04948 15.6964 6.93948 16.8364C6.80948 17.5464 6.79948 18.2664 7.84948 18.2664C8.52948 18.3064 9.21948 18.3564 9.84948 18.3564C10.3295 18.3564 10.7695 18.3264 11.1595 18.2464C11.6995 18.1364 12.1395 17.7264 12.2695 17.1964C12.6595 15.6664 12.4495 14.1964 11.4595 12.8064C10.8495 12.2864 10.2495 12.0264 9.63948 12.0264Z" fill="#5E5E5A"/>
</svg>
