<svg width="18" height="22" viewBox="0 0 18 22" fill="none" xmlns="http://www.w3.org/2000/svg">
<path d="M12.02 14.5871C11.22 11.2171 10.85 7.26706 10.66 1.91706C10.64 1.35706 10.35 0.827057 9.84 0.587057C9.46 0.407057 9.14999 0.467057 8.90999 0.777057C8.73999 0.997057 8.66999 1.28706 8.67999 1.57706C8.91999 6.38706 8.62 10.4671 7.75 14.5971H12.02V14.5871Z" fill="#F4DE9C" stroke="#5E5E5A" stroke-width="0.15" stroke-linecap="round" stroke-linejoin="round"/>
<path d="M0.769531 12.6562H15.1995C16.3795 12.6562 17.3395 13.6163 17.3395 14.7963C17.3395 15.9763 16.3795 16.9363 15.1995 16.9363H0.769531" fill="#FFE4E3"/>
<path d="M0.769531 12.6562H15.1995C16.3795 12.6562 17.3395 13.6163 17.3395 14.7963C17.3395 15.9763 16.3795 16.9363 15.1995 16.9363H0.769531" stroke="#5E5E5A" stroke-width="0.15" stroke-miterlimit="10"/>
<path d="M10.0791 21.2666C9.66912 21.2666 9.26913 21.1266 8.97913 20.8666C8.01913 20.0266 7.38912 19.0766 7.04912 17.9366C6.79912 16.8266 7.07912 15.6266 7.90912 14.2766C8.52912 13.6366 9.17913 13.3066 9.80913 13.3066C10.2491 13.3066 10.7091 13.4666 11.1591 13.7866C11.4691 14.0066 11.7391 14.2866 11.9591 14.6166C12.2091 14.9966 12.3891 15.4166 12.4991 15.8866C13.1591 18.8066 12.6191 20.5966 10.8791 21.1866C10.7291 21.2366 10.5591 21.2666 10.3591 21.2666H10.0891H10.0791Z" fill="white"/>
<path d="M9.80857 13.3768C10.2386 13.3768 10.6786 13.5368 11.1086 13.8468C11.4086 14.0568 11.6686 14.3368 11.8886 14.6568C12.1386 15.0268 12.3186 15.4468 12.4186 15.8968C13.0786 18.8168 12.5686 20.5268 10.8386 21.1068C10.6986 21.1568 10.5286 21.1768 10.3486 21.1768H10.0786C9.67856 21.1768 9.30856 21.0368 9.01856 20.7968C8.06856 19.9668 7.44857 19.0268 7.11857 17.9168C6.86857 16.8168 7.14857 15.6368 7.94857 14.3268C8.56857 13.6868 9.18857 13.3668 9.80857 13.3668M9.80857 13.2168C9.15857 13.2168 8.50857 13.5468 7.84857 14.2268C7.07857 15.4668 6.69857 16.7168 6.97857 17.9468C7.33857 19.1568 8.01857 20.1168 8.92857 20.9068C9.24857 21.1868 9.65856 21.3268 10.0786 21.3268H10.3486C10.5286 21.3268 10.7186 21.3068 10.8886 21.2468C12.7086 20.6268 13.2286 18.7868 12.5586 15.8568C12.4586 15.3968 12.2686 14.9568 12.0086 14.5668C11.7886 14.2368 11.5186 13.9468 11.1886 13.7168C10.7286 13.3868 10.2686 13.2168 9.79856 13.2168H9.80857Z" fill="#5E5E5A"/>
</svg>
