<svg width="18" height="20" viewBox="0 0 18 20" fill="none" xmlns="http://www.w3.org/2000/svg">
<path d="M12.1008 8.64631C11.5308 6.75631 11.4308 4.34631 11.5708 1.68631C11.5808 1.40631 11.5308 1.11631 11.3608 0.886308C11.1508 0.576308 10.9208 0.576309 10.6908 0.906309C10.5408 1.12631 10.4608 1.39631 10.4408 1.66631C10.2208 4.15631 9.60078 6.62631 8.55078 9.06631L8.57079 11.0263L12.1208 10.9963L12.1008 8.65631V8.64631Z" fill="#F4DE9C" stroke="#5E5E5A" stroke-width="0.15" stroke-linecap="round" stroke-linejoin="round"/>
<path d="M12.8978 14.0071C14.4978 10.5871 14.9578 6.67705 15.1378 2.24706C15.1378 2.06706 15.1378 1.88706 15.0978 1.71706C14.9478 0.957056 14.2378 0.777056 13.8978 1.60706C13.8578 1.70706 13.8278 1.82706 13.8078 1.93706C13.4578 4.47706 12.9278 6.79706 12.0678 8.66706C12.0078 8.79706 11.9678 8.93705 11.8778 9.05705C11.4578 9.62705 10.8078 9.80706 10.1478 9.79706C9.51783 9.78706 8.93784 9.49705 8.50784 9.05705C8.27784 8.81705 8.08783 8.53706 7.95783 8.21706C7.24783 6.51706 7.10783 4.54705 6.79783 2.47705C6.71783 1.95705 6.58783 1.42706 6.23783 1.03706C5.58783 0.317055 5.05784 0.677056 4.99784 1.95706C4.77784 6.65706 6.02783 11.1971 7.62783 14.0271H12.8878L12.8978 14.0071Z" fill="#F4DE9C" stroke="#5E5E5A" stroke-width="0.15" stroke-linecap="round" stroke-linejoin="round"/>
<path d="M0.960938 10.6562H15.3909C16.5709 10.6562 17.5309 11.6163 17.5309 12.7963C17.5309 13.9763 16.5709 14.9363 15.3909 14.9363H0.960938" fill="#FFE4E3"/>
<path d="M0.960938 10.6562H15.3909C16.5709 10.6562 17.5309 11.6163 17.5309 12.7963C17.5309 13.9763 16.5709 14.9363 15.3909 14.9363H0.960938" stroke="#5E5E5A" stroke-width="0.15" stroke-miterlimit="10"/>
<path d="M10.3282 19.267C9.93819 19.267 9.52819 19.127 9.15819 18.847C8.91819 18.667 8.7082 18.587 8.4982 18.587C8.3382 18.587 8.1782 18.647 8.0282 18.757C7.7682 18.957 7.4582 19.067 7.1382 19.067C7.0782 19.067 7.00819 19.067 6.93819 19.057C6.36819 18.967 6.0682 18.547 6.0282 17.757C6.0082 16.397 6.3382 15.277 7.0582 14.337C7.2682 14.047 7.46819 13.797 7.67819 13.577C8.39819 12.807 9.15819 12.417 9.92819 12.417C10.8482 12.417 11.8282 12.967 12.8382 14.057C13.0182 14.257 13.1382 14.417 13.2282 14.597C13.7082 15.577 13.8682 16.597 13.6882 17.617C13.6682 18.467 13.3482 18.917 12.7082 18.987C11.9182 19.177 11.1182 19.277 10.3482 19.277H10.3282V19.267Z" fill="white"/>
<path d="M9.93982 12.4869C10.8398 12.4869 11.7998 13.0269 12.8198 14.1269L12.8498 14.1569C12.9798 14.2969 13.0898 14.4569 13.1798 14.6269C13.6598 15.5969 13.8098 16.5969 13.6298 17.6269C13.5998 18.6869 13.0998 18.8669 12.6998 18.9169C11.9198 19.1069 11.1298 19.2069 10.3398 19.2069C9.95983 19.2069 9.56982 19.0669 9.21982 18.8069C8.96982 18.6169 8.73982 18.5269 8.51982 18.5269C8.33982 18.5269 8.16983 18.5869 8.00983 18.7069C7.75983 18.8969 7.46983 18.9969 7.16983 18.9969C7.10983 18.9969 7.04982 18.9969 6.98982 18.9869C6.64982 18.9369 6.19983 18.7469 6.13983 17.7569C6.11983 16.4069 6.44983 15.3069 7.14983 14.3769C7.33983 14.1069 7.54983 13.8569 7.75983 13.6269C8.46983 12.8669 9.20982 12.4869 9.95982 12.4869M9.95982 12.3369C9.17982 12.3369 8.40983 12.7169 7.64983 13.5269C7.43983 13.7469 7.22983 14.0069 7.02983 14.2869C6.36983 15.1469 5.95982 16.2469 5.98982 17.7569C6.03982 18.6269 6.38982 19.0369 6.96982 19.1269C7.03982 19.1369 7.10983 19.1469 7.17983 19.1469C7.50983 19.1469 7.83982 19.0269 8.10982 18.8269C8.24982 18.7169 8.38983 18.6769 8.52983 18.6769C8.72983 18.6769 8.93983 18.7669 9.14983 18.9269C9.50983 19.1869 9.91982 19.3569 10.3598 19.3569H10.3798C11.1898 19.3569 11.9798 19.2569 12.7498 19.0669C13.3798 18.9969 13.7698 18.5669 13.7898 17.6369C13.9698 16.6069 13.8198 15.5869 13.3298 14.5669C13.2398 14.3869 13.1198 14.2169 12.9798 14.0669C12.9598 14.0469 12.9498 14.0269 12.9298 14.0169C11.9198 12.9269 10.9298 12.3469 9.96982 12.3469L9.95982 12.3369Z" fill="#5E5E5A"/>
</svg>
