<svg width="18" height="19" viewBox="0 0 18 19" fill="none" xmlns="http://www.w3.org/2000/svg">
<path d="M8.25 7.65625H11.05C11.05 7.65625 11.05 7.84625 11.05 7.85625C10.66 11.0863 10.6 14.1463 11.05 16.9463C11.22 18.2163 10.92 18.3862 10.35 17.8662C9.95 17.5062 9.65 17.0363 9.48 16.5163C8.75 14.2963 8.4 11.2062 8.26 7.65625" fill="#F4DE9C"/>
<path d="M8.25 7.65625H11.05C11.05 7.65625 11.05 7.84625 11.05 7.85625C10.66 11.0863 10.6 14.1463 11.05 16.9463C11.22 18.2163 10.92 18.3862 10.35 17.8662C9.95 17.5062 9.65 17.0363 9.48 16.5163C8.75 14.2963 8.4 11.2062 8.26 7.65625" stroke="#5E5E5A" stroke-width="0.15" stroke-linecap="round" stroke-linejoin="round"/>
<path d="M0.371094 6.40625H14.8011C15.9811 6.40625 16.9411 7.36625 16.9411 8.54625C16.9411 9.72625 15.9811 10.6862 14.8011 10.6862H0.371094" fill="#FFE4E3"/>
<path d="M0.371094 6.40625H14.8011C15.9811 6.40625 16.9411 7.36625 16.9411 8.54625C16.9411 9.72625 15.9811 10.6862 14.8011 10.6862H0.371094" stroke="#5E5E5A" stroke-width="0.15" stroke-miterlimit="10"/>
<path d="M11.0497 7.84658C11.2597 7.44658 11.3597 6.99658 11.3797 6.54658L11.5097 3.07658C11.5597 2.27658 11.2297 1.87658 10.7597 1.57658C10.0497 1.06658 9.02968 0.836579 8.16968 0.886579C7.56968 1.07658 7.54969 0.936577 7.46969 1.46658C7.42969 1.71658 7.41969 1.96658 7.43969 2.21658C7.54969 3.81658 7.70969 5.28658 7.86969 6.65658C7.90969 7.02658 8.04968 7.36658 8.26968 7.66658C8.28968 7.69658 8.31969 7.72658 8.33969 7.76658C9.36969 9.03658 10.2297 9.13658 10.9197 8.09658C10.9697 8.02658 11.0197 7.94657 11.0597 7.86657" fill="white"/>
<path d="M11.0497 7.84658C11.2597 7.44658 11.3597 6.99658 11.3797 6.54658L11.5097 3.07658C11.5597 2.27658 11.2297 1.87658 10.7597 1.57658C10.0497 1.06658 9.02968 0.836579 8.16968 0.886579C7.56968 1.07658 7.54969 0.936577 7.46969 1.46658C7.42969 1.71658 7.41969 1.96658 7.43969 2.21658C7.54969 3.81658 7.70969 5.28658 7.86969 6.65658C7.90969 7.02658 8.04968 7.36658 8.26968 7.66658C8.28968 7.69658 8.31969 7.72658 8.33969 7.76658C9.36969 9.03658 10.2297 9.13658 10.9197 8.09658C10.9697 8.02658 11.0197 7.94657 11.0597 7.86657" stroke="#5E5E5A" stroke-width="0.15" stroke-linecap="round" stroke-linejoin="round"/>
</svg>
