<svg width="18" height="19" viewBox="0 0 18 19" fill="none" xmlns="http://www.w3.org/2000/svg">
<path d="M11.5194 7.23633V7.72633C10.9694 11.1763 10.7794 14.4563 11.1194 17.5063C11.2394 18.8063 10.9494 19.1363 10.3394 18.7263C9.88938 18.4263 9.57937 17.9463 9.41937 17.4263C8.56937 14.6963 8.09937 11.1963 7.85938 7.23633H11.5194Z" fill="#F4DE9C" stroke="#5E5E5A" stroke-width="0.15" stroke-linecap="round" stroke-linejoin="round"/>
<path d="M0.570312 6.40625H15.0003C16.1803 6.40625 17.1403 7.36625 17.1403 8.54625C17.1403 9.72625 16.1803 10.6862 15.0003 10.6862H0.570312" fill="#FFE4E3"/>
<path d="M0.570312 6.40625H15.0003C16.1803 6.40625 17.1403 7.36625 17.1403 8.54625C17.1403 9.72625 16.1803 10.6862 15.0003 10.6862H0.570312" stroke="#5E5E5A" stroke-width="0.15" stroke-miterlimit="10"/>
<path d="M7.85944 7.23621C7.95944 7.45621 8.09944 7.66621 8.26944 7.83621C8.97944 8.54621 9.68944 8.78621 10.4194 8.58621C10.8994 8.45621 11.2794 8.13621 11.5194 7.72621C11.6794 7.45621 11.7794 7.14621 11.7994 6.82621L12.0994 3.23621C12.0494 2.69621 11.9194 2.22621 11.6994 1.82621C11.4594 1.39621 10.9994 1.11622 10.4994 1.08622L8.02944 0.926217C7.39944 0.896217 7.19944 1.05622 7.22944 1.83622C7.22944 2.03622 7.24944 2.23622 7.23944 2.43622C7.19944 4.02622 7.31944 5.43622 7.67944 6.56622C7.69944 6.79622 7.75944 7.02621 7.85944 7.23621Z" fill="white" stroke="#5E5E5A" stroke-width="0.15" stroke-linecap="round" stroke-linejoin="round"/>
</svg>
