<svg width="18" height="23" viewBox="0 0 18 23" fill="none" xmlns="http://www.w3.org/2000/svg">
<path d="M11.6083 8.73656C10.9483 12.9866 10.5683 17.1366 10.5183 21.1766C10.5183 21.4566 10.4583 21.7466 10.3183 21.9966C10.0983 22.3866 9.80829 22.4466 9.44829 22.1766C9.10829 21.9266 8.89828 21.5466 8.81828 21.1366C7.98828 17.2066 7.58828 13.0566 7.48828 8.72656H11.6083V8.73656Z" fill="#F4DE9C" stroke="#5E5E5A" stroke-width="0.15" stroke-linecap="round" stroke-linejoin="round"/>
<path d="M0.769531 6.40625H15.1995C16.3795 6.40625 17.3395 7.36625 17.3395 8.54625C17.3395 9.72625 16.3795 10.6862 15.1995 10.6862H0.769531" fill="#FFE4E3"/>
<path d="M0.769531 6.40625H15.1995C16.3795 6.40625 17.3395 7.36625 17.3395 8.54625C17.3395 9.72625 16.3795 10.6862 15.1995 10.6862H0.769531" stroke="#5E5E5A" stroke-width="0.15" stroke-miterlimit="10"/>
<path d="M9.60708 10.4873C9.00708 10.4873 8.36708 9.96727 7.71708 8.95727C7.65708 8.87727 7.60709 8.78727 7.55709 8.69727C6.74709 7.31727 6.56709 5.54727 7.03709 3.43727C7.78709 1.78727 8.59709 0.947266 9.44709 0.947266C10.2971 0.947266 11.2371 1.80727 12.2371 3.48727C12.4971 3.93727 12.6371 4.44727 12.6371 4.95727C12.6371 6.53727 12.2671 7.79726 11.5571 8.68726C10.9171 9.88726 10.2671 10.4873 9.60708 10.4873Z" fill="white"/>
<path d="M9.43793 1.02695C10.2679 1.02695 11.1779 1.86695 12.1579 3.53695C12.4179 3.97695 12.5479 4.46695 12.5479 4.96695C12.5479 6.53695 12.1879 7.77696 11.4679 8.67696C10.8479 9.83696 10.2179 10.427 9.59793 10.427C9.01793 10.427 8.40793 9.92696 7.76793 8.92696C7.70793 8.84696 7.65793 8.75696 7.60793 8.67696C6.80793 7.30696 6.62794 5.55695 7.08794 3.50695C7.82794 1.87695 8.61793 1.04696 9.42793 1.04696M9.42793 0.896954C8.55793 0.896954 7.72794 1.71695 6.94794 3.44695C6.47794 5.54695 6.63794 7.32696 7.47794 8.75696C7.52794 8.84696 7.58794 8.93695 7.63794 9.01695C8.29794 10.047 8.94794 10.577 9.58794 10.577C10.2679 10.577 10.9379 9.98696 11.5979 8.74696C12.3479 7.81696 12.6979 6.53695 12.6979 4.96695C12.6979 4.43695 12.5479 3.91695 12.2879 3.45695C11.2979 1.76695 10.3379 0.876953 9.43793 0.876953L9.42793 0.896954Z" fill="#5E5E5A"/>
</svg>
