<svg width="18" height="19" viewBox="0 0 18 19" fill="none" xmlns="http://www.w3.org/2000/svg">
<path d="M13.8793 7.68714C14.8793 10.8571 15.6393 13.8571 15.5693 16.3171C15.5593 16.8171 15.4493 17.3171 15.2293 17.7671C14.9293 18.3571 14.6093 18.4471 14.2593 17.9671C14.0993 17.7371 13.9893 17.4671 13.9393 17.1871L13.0993 13.2471C12.8993 12.3371 12.3693 11.5071 11.5693 11.0271C11.0493 10.7171 10.5093 10.5971 9.9593 10.6871C9.3093 10.7971 8.7493 11.1971 8.3793 11.7371C7.5993 12.8371 5.91931 16.0371 5.91931 16.0371C5.13931 17.1571 4.6793 17.0971 4.5793 15.7471C4.5293 14.0671 6.08931 10.3871 7.55931 7.57715L13.9093 7.68714H13.8793Z" fill="#F4DE9C" stroke="#5E5E5A" stroke-width="0.15" stroke-linecap="round" stroke-linejoin="round"/>
<path d="M0.960938 6.40625H15.3909C16.5709 6.40625 17.5309 7.36625 17.5309 8.54625C17.5309 9.72625 16.5709 10.6862 15.3909 10.6862H0.960938" fill="#FFE4E3"/>
<path d="M0.960938 6.40625H15.3909C16.5709 6.40625 17.5309 7.36625 17.5309 8.54625C17.5309 9.72625 16.5709 10.6862 15.3909 10.6862H0.960938" stroke="#5E5E5A" stroke-width="0.15" stroke-miterlimit="10"/>
<path d="M10.6398 9.00653C9.88978 9.00653 9.15978 8.76652 8.44978 8.27652C8.12978 8.06652 7.83977 7.80652 7.57977 7.51652C7.10977 7.00652 6.73977 6.38653 6.45977 5.67653C5.75977 3.86653 5.80977 2.45652 6.59977 1.48652C7.05977 1.12652 7.59977 0.936523 8.18977 0.936523C8.61977 0.936523 9.07977 1.03652 9.56977 1.22652C10.0798 1.59652 10.5298 1.78652 10.9398 1.78652C11.2198 1.78652 11.4798 1.69652 11.6998 1.50652C12.1998 1.26652 12.6598 1.13652 13.0698 1.13652C13.5798 1.13652 13.9998 1.32652 14.3698 1.70652C14.7098 2.06652 14.9298 2.57652 14.9798 3.14652C15.0898 4.47652 14.9498 5.59652 14.5498 6.57652C14.3898 6.96652 14.1498 7.31652 13.8298 7.62652C13.6898 7.75652 13.5498 7.87652 13.3998 7.98652C12.4498 8.65652 11.5298 9.00653 10.6398 9.00653Z" fill="white"/>
<path d="M8.19941 1.02621C8.60941 1.02621 9.0594 1.11621 9.5394 1.29621C10.0694 1.67621 10.5294 1.86621 10.9494 1.86621C11.2494 1.86621 11.5194 1.76621 11.7294 1.58621C12.2294 1.33621 12.6894 1.21621 13.0794 1.21621C13.5694 1.21621 13.9694 1.39621 14.3194 1.76621C14.6494 2.11621 14.8594 2.61621 14.9094 3.16621C15.0194 4.48621 14.8794 5.58621 14.4794 6.55621C14.3194 6.93621 14.0894 7.27621 13.7794 7.58621C13.6494 7.71621 13.5094 7.83621 13.3594 7.93621C12.4294 8.59621 11.5094 8.93621 10.6494 8.93621C9.9194 8.93621 9.19941 8.69621 8.49941 8.22621C8.18941 8.01621 7.89941 7.76621 7.63941 7.47621C7.17941 6.96621 6.8094 6.35621 6.5394 5.66621C5.8494 3.88621 5.88941 2.50621 6.63941 1.57621C7.09941 1.21621 7.61941 1.02621 8.19941 1.02621ZM8.19941 0.876209C7.57941 0.876209 7.0294 1.06621 6.5494 1.45621C5.7294 2.46621 5.6894 3.88621 6.3994 5.71621C6.6694 6.40621 7.03941 7.04621 7.52941 7.57621C7.78941 7.86621 8.08941 8.12621 8.41941 8.34621C9.14941 8.83621 9.8894 9.08621 10.6494 9.08621C11.5594 9.08621 12.4894 8.73621 13.4494 8.05621C13.6094 7.94621 13.7494 7.82621 13.8894 7.68621C14.1994 7.37621 14.4594 7.01621 14.6294 6.60621C15.0594 5.56621 15.1794 4.40621 15.0694 3.14621C15.0194 2.59621 14.8194 2.05621 14.4394 1.65621C14.0594 1.24621 13.5994 1.05621 13.0894 1.05621C12.6594 1.05621 12.1794 1.18621 11.6694 1.44621C11.4494 1.62621 11.2094 1.70621 10.9594 1.70621C10.5494 1.70621 10.0994 1.49621 9.6194 1.15621C9.1194 0.966212 8.6494 0.866211 8.2094 0.866211L8.19941 0.876209Z" fill="#5E5E5A"/>
</svg>
