<svg width="17" height="20" viewBox="0 0 17 20" fill="none" xmlns="http://www.w3.org/2000/svg">
<path d="M12.7589 8.28637C14.5889 10.9164 15.5289 14.4864 15.5289 18.2164C15.4689 19.3064 15.1289 19.5464 14.5689 19.0764C14.2289 18.7964 14.0089 18.3864 13.9189 17.9564C13.3689 15.5264 12.5989 13.4964 11.4589 12.1064C10.1289 10.7664 8.98889 10.8364 7.98889 11.8864C6.70889 13.0464 6.03889 14.9064 5.68889 17.1164C5.63889 17.4464 5.5289 17.7764 5.3389 18.0564C4.9589 18.6264 4.5689 18.6664 4.1689 18.1264C3.9689 17.8564 3.8589 17.5364 3.8089 17.2064C3.3989 14.1264 3.9389 11.1964 5.3889 8.40636C5.4089 8.36636 5.42889 8.32637 5.45889 8.27637H12.7589V8.28637Z" fill="#F4DE9C" stroke="#5E5E5A" stroke-width="0.15" stroke-linecap="round" stroke-linejoin="round"/>
<path d="M0.160156 6.40625H14.5902C15.7702 6.40625 16.7302 7.36625 16.7302 8.54625C16.7302 9.72625 15.7702 10.6862 14.5902 10.6862H0.160156" fill="#FFE4E3"/>
<path d="M0.160156 6.40625H14.5902C15.7702 6.40625 16.7302 7.36625 16.7302 8.54625C16.7302 9.72625 15.7702 10.6862 14.5902 10.6862H0.160156" stroke="#5E5E5A" stroke-width="0.15" stroke-miterlimit="10"/>
<path d="M9.25808 9.49633C8.19808 9.49633 7.11808 9.24633 6.03808 8.75633C5.81808 8.65633 5.61807 8.51633 5.43807 8.35633C5.30807 8.23633 5.19807 8.10633 5.10807 7.96633C3.97807 6.29633 3.48808 4.67633 3.61808 3.01633C3.74808 2.21633 3.97807 1.68633 4.32807 1.43633C4.90807 1.13633 5.55808 0.986328 6.28808 0.986328C6.96808 0.986328 7.69808 1.11633 8.52808 1.37633C8.76808 1.48633 9.01807 1.54633 9.26807 1.54633C9.51807 1.54633 9.76807 1.48633 10.0181 1.36633C10.5181 1.13633 10.9581 1.02633 11.3781 1.02633C11.6481 1.02633 11.9181 1.07633 12.1881 1.16633C12.6381 1.22633 13.0881 1.50633 13.5881 2.01633C13.8681 2.30633 14.0481 2.66633 14.1081 3.05633C14.2981 4.26633 14.3181 5.35633 14.1381 6.40633C14.0981 6.80633 13.9981 7.16633 13.8381 7.49633C13.6381 7.91633 13.2881 8.27633 12.8281 8.52633C11.6581 9.15633 10.4581 9.47633 9.26807 9.47633L9.25808 9.49633Z" fill="white"/>
<path d="M6.27781 1.06649C6.94781 1.06649 7.6678 1.19648 8.4778 1.44648C8.7378 1.56648 8.9978 1.62648 9.2578 1.62648C9.5178 1.62648 9.7578 1.56649 10.0078 1.45649H10.0478C10.0478 1.45649 10.0978 1.45649 10.1178 1.43649C10.5378 1.21649 10.9578 1.10648 11.3678 1.10648C11.6278 1.10648 11.8978 1.14649 12.1778 1.24649C12.5978 1.30649 13.0378 1.57648 13.5178 2.07648C13.7878 2.35648 13.9578 2.69648 14.0178 3.07648C14.2078 4.27648 14.2178 5.36649 14.0478 6.40649C14.0078 6.78649 13.9078 7.14649 13.7578 7.46649C13.5678 7.87649 13.2278 8.21649 12.7778 8.46649C11.6178 9.09649 10.4378 9.40648 9.2578 9.40648C8.2178 9.40648 7.1378 9.15648 6.0678 8.66648C5.8578 8.56648 5.6578 8.43649 5.4878 8.27649C5.3678 8.16649 5.25781 8.03648 5.16781 7.90648C4.04781 6.24648 3.5678 4.64648 3.6878 3.01648C3.8078 2.23648 4.0378 1.71649 4.3478 1.49649C4.9278 1.19649 5.55781 1.04649 6.27781 1.04649M6.27781 0.896484C5.56781 0.896484 4.89781 1.03649 4.27781 1.36649C3.92781 1.61649 3.6778 2.13649 3.5378 2.99649C3.4078 4.75649 3.9778 6.41648 5.0478 7.98648C5.1478 8.13648 5.25781 8.26649 5.38781 8.38649C5.56781 8.55649 5.7778 8.69648 6.0078 8.80648C7.1078 9.30648 8.1878 9.55648 9.2578 9.55648C10.4778 9.55648 11.6778 9.22649 12.8578 8.59649C13.3078 8.35649 13.6878 7.99649 13.8978 7.52649C14.0678 7.17649 14.1678 6.80648 14.1978 6.41648C14.3778 5.31648 14.3478 4.18649 14.1678 3.04649C14.0978 2.63649 13.9178 2.25649 13.6278 1.95649C13.1578 1.47649 12.6878 1.15649 12.1978 1.08649C11.9178 0.996487 11.6378 0.946484 11.3678 0.946484C10.9178 0.946484 10.4778 1.06649 10.0478 1.29649H9.9778C9.7378 1.40649 9.4978 1.46648 9.2578 1.46648C9.0178 1.46648 8.7778 1.40649 8.5478 1.29649C7.7678 1.04649 7.0078 0.896484 6.2878 0.896484H6.27781Z" fill="#5E5E5A"/>
</svg>
