<svg width="17" height="19" viewBox="0 0 17 19" fill="none" xmlns="http://www.w3.org/2000/svg">
<path d="M10.4411 7.74707H7.64112C7.64112 7.74707 7.64112 7.93707 7.64112 7.94707C8.03112 11.1771 8.09112 14.2371 7.64112 17.0371C7.47112 18.3071 7.77113 18.4771 8.34113 17.9571C8.74113 17.5971 9.04112 17.1271 9.21112 16.6071C9.94112 14.3871 10.2911 11.2971 10.4311 7.74707" fill="#F4DE9C"/>
<path d="M10.4411 7.74707H7.64112C7.64112 7.74707 7.64112 7.93707 7.64112 7.94707C8.03112 11.1771 8.09112 14.2371 7.64112 17.0371C7.47112 18.3071 7.77113 18.4771 8.34113 17.9571C8.74113 17.5971 9.04112 17.1271 9.21112 16.6071C9.94112 14.3871 10.2911 11.2971 10.4311 7.74707" stroke="#5E5E5A" stroke-width="0.15" stroke-linecap="round" stroke-linejoin="round"/>
<path d="M0.167969 6.40625H14.598C15.778 6.40625 16.738 7.36625 16.738 8.54625C16.738 9.72625 15.778 10.6862 14.598 10.6862H0.167969" fill="#FFE4E3"/>
<path d="M0.167969 6.40625H14.598C15.778 6.40625 16.738 7.36625 16.738 8.54625C16.738 9.72625 15.778 10.6862 14.598 10.6862H0.167969" stroke="#5E5E5A" stroke-width="0.15" stroke-miterlimit="10"/>
<path d="M7.6486 7.93642C7.4386 7.53642 7.3386 7.08642 7.3186 6.63642L7.1886 3.16642C7.1386 2.36642 7.4686 1.96642 7.9386 1.66642C8.6486 1.15642 9.66859 0.926423 10.5286 0.976423C11.1286 1.16642 11.1486 1.02642 11.2286 1.55642C11.2686 1.80642 11.2786 2.05642 11.2586 2.30642C11.1486 3.90642 10.9886 5.37642 10.8286 6.74642C10.7886 7.11642 10.6486 7.45643 10.4286 7.75643C10.4086 7.78643 10.3786 7.81642 10.3586 7.85642C9.3286 9.12642 8.46859 9.22642 7.77859 8.18642C7.72859 8.11642 7.6786 8.03642 7.6386 7.95642" fill="white"/>
<path d="M7.6486 7.93642C7.4386 7.53642 7.3386 7.08642 7.3186 6.63642L7.1886 3.16642C7.1386 2.36642 7.4686 1.96642 7.9386 1.66642C8.6486 1.15642 9.66859 0.926423 10.5286 0.976423C11.1286 1.16642 11.1486 1.02642 11.2286 1.55642C11.2686 1.80642 11.2786 2.05642 11.2586 2.30642C11.1486 3.90642 10.9886 5.37642 10.8286 6.74642C10.7886 7.11642 10.6486 7.45643 10.4286 7.75643C10.4086 7.78643 10.3786 7.81642 10.3586 7.85642C9.3286 9.12642 8.46859 9.22642 7.77859 8.18642C7.72859 8.11642 7.6786 8.03642 7.6386 7.95642" stroke="#5E5E5A" stroke-width="0.15" stroke-linecap="round" stroke-linejoin="round"/>
</svg>
