<svg width="18" height="19" viewBox="0 0 18 19" fill="none" xmlns="http://www.w3.org/2000/svg">
<path d="M8.16797 7.27637V7.76637C8.71797 11.2164 8.90797 14.4964 8.56797 17.5464C8.44797 18.8464 8.73797 19.1764 9.34797 18.7664C9.79797 18.4664 10.108 17.9864 10.268 17.4664C11.118 14.7364 11.588 11.2364 11.828 7.27637H8.16797Z" fill="#F4DE9C" stroke="#5E5E5A" stroke-width="0.15" stroke-linecap="round" stroke-linejoin="round"/>
<path d="M0.96875 6.40625H15.3988C16.5788 6.40625 17.5387 7.36625 17.5387 8.54625C17.5387 9.72625 16.5788 10.6862 15.3988 10.6862H0.96875" fill="#FFE4E3"/>
<path d="M0.96875 6.40625H15.3988C16.5788 6.40625 17.5387 7.36625 17.5387 8.54625C17.5387 9.72625 16.5788 10.6862 15.3988 10.6862H0.96875" stroke="#5E5E5A" stroke-width="0.15" stroke-miterlimit="10"/>
<path d="M11.8416 7.27626C11.7416 7.49626 11.6016 7.70626 11.4316 7.87626C10.7216 8.58626 10.0116 8.82626 9.28156 8.62626C8.80156 8.49626 8.42156 8.17625 8.18156 7.76625C8.02156 7.49625 7.92157 7.18626 7.90157 6.86626L7.60156 3.27626C7.65156 2.73626 7.78156 2.26626 8.00156 1.86626C8.24156 1.43626 8.70156 1.15626 9.20156 1.12626L11.6716 0.966256C12.3016 0.936256 12.5016 1.09626 12.4716 1.87626C12.4716 2.07626 12.4516 2.27626 12.4616 2.47626C12.5016 4.06626 12.3816 5.47626 12.0216 6.60626C12.0016 6.83626 11.9416 7.06626 11.8416 7.27626Z" fill="white" stroke="#5E5E5A" stroke-width="0.15" stroke-linecap="round" stroke-linejoin="round"/>
</svg>
