<svg width="18" height="23" viewBox="0 0 18 23" fill="none" xmlns="http://www.w3.org/2000/svg">
<path d="M8.07812 8.7766C8.73813 13.0266 9.11813 17.1766 9.16813 21.2166C9.16813 21.4966 9.22812 21.7866 9.36812 22.0366C9.58812 22.4266 9.87812 22.4866 10.2381 22.2166C10.5781 21.9666 10.7881 21.5866 10.8681 21.1766C11.6981 17.2466 12.0981 13.0966 12.1981 8.7666H8.07812V8.7766Z" fill="#F4DE9C" stroke="#5E5E5A" stroke-width="0.15" stroke-linecap="round" stroke-linejoin="round"/>
<path d="M0.78125 6.40625H15.2113C16.3913 6.40625 17.3512 7.36625 17.3512 8.54625C17.3512 9.72625 16.3913 10.6862 15.2113 10.6862H0.78125" fill="#FFE4E3"/>
<path d="M0.78125 6.40625H15.2113C16.3913 6.40625 17.3512 7.36625 17.3512 8.54625C17.3512 9.72625 16.3913 10.6862 15.2113 10.6862H0.78125" stroke="#5E5E5A" stroke-width="0.15" stroke-miterlimit="10"/>
<path d="M10.0886 10.5273C9.43859 10.5273 8.77859 9.9273 8.14859 8.7373C7.42859 7.8373 7.05859 6.57731 7.05859 4.99731C7.05859 4.48731 7.19859 3.97731 7.45859 3.52731C8.44859 1.83731 9.38859 0.987305 10.2486 0.987305C11.1086 0.987305 11.9086 1.8273 12.6586 3.4873C13.1186 5.5773 12.9486 7.3473 12.1286 8.7273C12.0786 8.8173 12.0286 8.8973 11.9686 8.9873C11.3186 10.0073 10.6886 10.5173 10.0786 10.5173L10.0886 10.5273Z" fill="white"/>
<path d="M10.2505 0.916992V1.06699C11.0705 1.06699 11.8505 1.89699 12.5805 3.49699C13.0405 5.58699 12.8705 7.33699 12.0705 8.69699C12.0205 8.78699 11.9705 8.86699 11.9105 8.95699C11.2805 9.94699 10.6605 10.457 10.0905 10.457C9.47047 10.457 8.84047 9.86699 8.20047 8.68699C7.49047 7.80699 7.14047 6.56699 7.13047 5.00699C7.13047 4.50699 7.27047 4.01699 7.52047 3.57699C8.50047 1.91699 9.42047 1.06699 10.2405 1.06699V0.916992M10.2405 0.916992C9.33047 0.916992 8.38047 1.80699 7.39047 3.49699C7.12047 3.95699 6.98047 4.47699 6.98047 5.00699C6.98047 6.57699 7.33047 7.84699 8.08047 8.78699C8.74047 10.017 9.41047 10.617 10.0905 10.617C10.7305 10.617 11.3805 10.087 12.0405 9.05699C12.1005 8.97699 12.1505 8.88699 12.2005 8.79699C13.0405 7.36699 13.2005 5.58699 12.7305 3.48699C11.9505 1.75699 11.1205 0.936993 10.2505 0.936993L10.2405 0.916992Z" fill="#5E5E5A"/>
</svg>
