<svg width="18" height="19" viewBox="0 0 18 19" fill="none" xmlns="http://www.w3.org/2000/svg">
<path d="M5.80775 7.73695C4.80775 10.907 4.04775 13.907 4.11775 16.367C4.12775 16.867 4.23775 17.367 4.45775 17.817C4.75775 18.407 5.07775 18.497 5.42775 18.017C5.58775 17.787 5.69775 17.517 5.74775 17.237L6.58775 13.297C6.78775 12.387 7.31775 11.557 8.11775 11.077C8.63775 10.767 9.17775 10.647 9.72775 10.737C10.3778 10.847 10.9378 11.247 11.3078 11.787C12.0878 12.887 13.7678 16.087 13.7678 16.087C14.5478 17.207 15.0078 17.147 15.1078 15.797C15.1578 14.117 13.5978 10.437 12.1278 7.62695L5.77775 7.73695H5.80775Z" fill="#F4DE9C" stroke="#5E5E5A" stroke-width="0.15" stroke-linecap="round" stroke-linejoin="round"/>
<path d="M0.578125 6.40625H15.0081C16.1881 6.40625 17.1481 7.36625 17.1481 8.54625C17.1481 9.72625 16.1881 10.6862 15.0081 10.6862H0.578125" fill="#FFE4E3"/>
<path d="M0.578125 6.40625H15.0081C16.1881 6.40625 17.1481 7.36625 17.1481 8.54625C17.1481 9.72625 16.1881 10.6862 15.0081 10.6862H0.578125" stroke="#5E5E5A" stroke-width="0.15" stroke-miterlimit="10"/>
<path d="M9.04819 9.05707C8.16819 9.05707 7.23819 8.71707 6.28819 8.03707C6.13819 7.92707 5.99819 7.80707 5.85819 7.67707C5.53819 7.36707 5.29819 7.01707 5.13819 6.62707C4.73819 5.64707 4.58819 4.52707 4.70819 3.19707C4.75819 2.62707 4.96819 2.11707 5.31819 1.75707C5.67819 1.36707 6.10819 1.18707 6.61819 1.18707C7.02819 1.18707 7.49819 1.31707 8.00819 1.56707C8.21819 1.74707 8.46819 1.83707 8.75819 1.83707C9.15819 1.83707 9.61819 1.65707 10.1382 1.27707C10.6082 1.09707 11.0782 0.99707 11.4982 0.99707C12.0982 0.99707 12.6382 1.18707 13.1082 1.55707C13.8882 2.51707 13.9382 3.92707 13.2382 5.73707C12.9682 6.43707 12.5882 7.05707 12.1182 7.57707C11.8582 7.86707 11.5582 8.11707 11.2482 8.33707C10.5382 8.81707 9.80819 9.05707 9.05819 9.05707H9.04819Z" fill="white"/>
<path d="M11.4991 1.06699C12.0791 1.06699 12.5991 1.24699 13.0391 1.58699C13.8091 2.53699 13.8591 3.92699 13.1691 5.70699C12.8991 6.40699 12.529 7.01699 12.069 7.51699C11.809 7.80699 11.5191 8.05699 11.2091 8.26699C10.5191 8.73699 9.78905 8.97699 9.05905 8.97699C8.18905 8.97699 7.27905 8.63699 6.34905 7.97699C6.19905 7.86699 6.05905 7.75699 5.92905 7.62699C5.61905 7.32699 5.37905 6.97699 5.22905 6.59699C4.82905 5.62699 4.68905 4.51699 4.79905 3.20699C4.84905 2.65699 5.04905 2.15699 5.38905 1.80699C5.73905 1.43699 6.13905 1.25699 6.62905 1.25699C7.02905 1.25699 7.47905 1.37699 7.94905 1.60699C8.18905 1.80699 8.45905 1.90699 8.75905 1.90699C9.17905 1.90699 9.63905 1.71699 10.1691 1.33699C10.6491 1.15699 11.0991 1.06699 11.5091 1.06699M11.5091 0.916992C11.0691 0.916992 10.5991 1.01699 10.0991 1.20699C9.61905 1.54699 9.16905 1.75699 8.75905 1.75699C8.49905 1.75699 8.25905 1.67699 8.04905 1.49699C7.53905 1.24699 7.05905 1.10699 6.62905 1.10699C6.11905 1.10699 5.65905 1.29699 5.27905 1.70699C4.89905 2.10699 4.69905 2.64699 4.64905 3.19699C4.53905 4.45699 4.64905 5.61699 5.08905 6.65699C5.25905 7.06699 5.50905 7.42699 5.82905 7.73699C5.96905 7.86699 6.10905 7.99699 6.26905 8.10699C7.22905 8.78699 8.15905 9.13699 9.06905 9.13699C9.82905 9.13699 10.5791 8.897 11.2991 8.397C11.6291 8.177 11.9191 7.91699 12.1891 7.62699C12.6791 7.08699 13.059 6.44699 13.319 5.76699C14.029 3.93699 13.9891 2.50699 13.1691 1.50699C12.6791 1.11699 12.1291 0.926994 11.5191 0.926994L11.5091 0.916992Z" fill="#5E5E5A"/>
</svg>
