<svg width="18" height="20" viewBox="0 0 18 20" fill="none" xmlns="http://www.w3.org/2000/svg">
<path d="M4.93797 8.32641C3.10797 10.9564 2.16797 14.5264 2.16797 18.2564C2.22797 19.3464 2.56797 19.5864 3.12797 19.1164C3.46797 18.8364 3.68797 18.4264 3.77797 17.9964C4.32797 15.5664 5.09797 13.5364 6.23797 12.1464C7.56797 10.8064 8.70797 10.8764 9.70797 11.9264C10.988 13.0864 11.658 14.9464 12.008 17.1564C12.058 17.4864 12.168 17.8164 12.358 18.0964C12.738 18.6664 13.128 18.7064 13.528 18.1664C13.728 17.8964 13.838 17.5764 13.888 17.2464C14.298 14.1664 13.758 11.2364 12.308 8.4464C12.288 8.4064 12.268 8.36641 12.238 8.31641H4.93797V8.32641Z" fill="#F4DE9C" stroke="#5E5E5A" stroke-width="0.15" stroke-linecap="round" stroke-linejoin="round"/>
<path d="M17.58 10.6862H3.14C1.96 10.6862 1 9.72625 1 8.54625H1.01C1.01 7.36625 1.97 6.40625 3.15 6.40625H17.58" fill="#FFE4E3"/>
<path d="M17.58 10.6862H3.14C1.96 10.6862 1 9.72625 1 8.54625H1.01C1.01 7.36625 1.97 6.40625 3.15 6.40625H17.58" stroke="#5E5E5A" stroke-width="0.15" stroke-miterlimit="10"/>
<path d="M8.43964 9.54613C7.24964 9.54613 6.04964 9.22613 4.87964 8.59613C4.41964 8.34613 4.06964 7.98614 3.86964 7.56614C3.70964 7.23614 3.60964 6.86614 3.56964 6.47614C3.39964 5.42614 3.40964 4.32613 3.59964 3.12613C3.65964 2.72613 3.83964 2.36614 4.11964 2.08614C4.61964 1.57614 5.06964 1.29613 5.50964 1.23613C5.78964 1.14613 6.05964 1.09613 6.32964 1.09613C6.74964 1.09613 7.17964 1.20613 7.60964 1.43613C7.61964 1.43613 7.70964 1.43613 7.71964 1.43613C7.93964 1.54613 8.18964 1.60613 8.43964 1.60613C8.68964 1.60613 8.93964 1.54614 9.18964 1.42614C10.0096 1.16614 10.7396 1.03613 11.4196 1.03613C12.1496 1.03613 12.7896 1.18614 13.3896 1.49614C13.7196 1.73614 13.9596 2.27613 14.0896 3.07613C14.2096 4.72613 13.7296 6.34613 12.5996 8.01613C12.4996 8.15613 12.3896 8.28613 12.2696 8.40613C12.0896 8.57613 11.8896 8.70613 11.6696 8.80613C10.5896 9.29613 9.50964 9.54613 8.44964 9.54613H8.43964Z" fill="white"/>
<path d="M11.4178 1.10656C12.1378 1.10656 12.7678 1.25656 13.3278 1.54656C13.6478 1.78656 13.8778 2.29656 13.9978 3.06656C14.1178 4.70656 13.6378 6.30656 12.5178 7.96656C12.4278 8.10656 12.3178 8.22656 12.1978 8.33656C12.0278 8.49656 11.8378 8.62656 11.6178 8.72656C10.5478 9.21656 9.4778 9.46656 8.4378 9.46656C7.2578 9.46656 6.06779 9.14656 4.91779 8.52656C4.46779 8.28656 4.12779 7.93656 3.93779 7.52656C3.78779 7.20656 3.68779 6.84656 3.64779 6.45656C3.47779 5.41656 3.48779 4.33656 3.67779 3.13656C3.73779 2.75656 3.90779 2.40656 4.17779 2.13656C4.66779 1.63656 5.10779 1.36656 5.54779 1.30656C5.80779 1.21656 6.06779 1.17656 6.33779 1.17656C6.74779 1.17656 7.16779 1.28656 7.58779 1.50656C7.60779 1.51656 7.63779 1.52656 7.65779 1.52656H7.69779C7.94779 1.63656 8.19779 1.69656 8.44779 1.69656C8.69779 1.69656 8.96779 1.63656 9.20779 1.51656C10.0278 1.25656 10.7578 1.12656 11.4178 1.12656M11.4178 0.976562C10.6978 0.976562 9.93779 1.12656 9.15779 1.37656C8.91779 1.48656 8.68779 1.54656 8.44779 1.54656C8.20779 1.54656 7.9678 1.48656 7.7278 1.37656H7.65779C7.22779 1.14656 6.78779 1.02656 6.33779 1.02656C6.05779 1.02656 5.78779 1.07656 5.50779 1.16656C5.01779 1.23656 4.54779 1.55656 4.07779 2.03656C3.78779 2.33656 3.59779 2.71656 3.53779 3.12656C3.35779 4.26656 3.31779 5.39656 3.50779 6.49656C3.54779 6.88656 3.64779 7.25656 3.80779 7.60656C4.02779 8.06656 4.40779 8.42656 4.84779 8.67656C6.02779 9.31656 7.21779 9.63656 8.44779 9.63656C9.50779 9.63656 10.5978 9.38656 11.6978 8.88656C11.9278 8.78656 12.1378 8.63656 12.3178 8.46656C12.4478 8.34656 12.5578 8.21656 12.6578 8.06656C13.7278 6.48656 14.2978 4.83656 14.1678 3.07656C14.0278 2.21656 13.7778 1.69656 13.4278 1.44656C12.7978 1.12656 12.1278 0.976562 11.4278 0.976562H11.4178Z" fill="#5E5E5A"/>
</svg>
