<?xml version="1.0" encoding="utf-8"?><svg xmlns="http://www.w3.org/2000/svg" xmlns:xlink="http://www.w3.org/1999/xlink"><symbol viewBox="0 0 448 512" id="back-icon" xmlns="http://www.w3.org/2000/svg"><script/><path fill="currentColor" d="M9.4 233.4c-12.5 12.5-12.5 32.8 0 45.3l160 160c12.5 12.5 32.8 12.5 45.3 0s12.5-32.8 0-45.3L109.2 288H416c17.7 0 32-14.3 32-32s-14.3-32-32-32H109.3l105.3-105.4c12.5-12.5 12.5-32.8 0-45.3s-32.8-12.5-45.3 0l-160 160z"/></symbol><symbol fill="none" viewBox="0 0 15 15" id="back-reload-icon" xmlns="http://www.w3.org/2000/svg"><path fill-rule="evenodd" clip-rule="evenodd" d="M13.148 7.5c0-2.836-2.21-5.65-5.65-5.65C4.72 1.85 3.347 3.906 2.762 5h1.736a.5.5 0 1 1 0 1h-3a.5.5 0 0 1-.5-.5v-3a.5.5 0 0 1 1 0v1.813C2.703 3.07 4.332.85 7.498.85c4.063 0 6.65 3.335 6.65 6.65 0 3.314-2.587 6.65-6.65 6.65-1.943 0-3.562-.77-4.714-1.942a6.771 6.771 0 0 1-1.427-2.168.5.5 0 0 1 .924-.38c.281.682.692 1.314 1.216 1.847.972.989 2.336 1.643 4.001 1.643 3.44 0 5.65-2.815 5.65-5.65Z" fill="currentColor"/></symbol><symbol fill="none" viewBox="0 0 28 27" id="brush-icon" xmlns="http://www.w3.org/2000/svg"><path d="m10.57 13.388 9.415-9.068a3.33 3.33 0 0 1 1.08-.716 3.431 3.431 0 0 1 2.569-.02c.408.161.779.4 1.09.7.312.3.559.658.726 1.052a3.104 3.104 0 0 1-.02 2.477 3.207 3.207 0 0 1-.743 1.04l-9.404 9.09m-7.035-1.135c-1.936 0-3.5 1.518-3.5 3.397 0 1.496-2.916 1.71-2.333 2.273 1.26 1.237 2.905 2.272 4.667 2.272 2.566 0 4.666-2.025 4.666-4.545a3.281 3.281 0 0 0-.262-1.297 3.379 3.379 0 0 0-.758-1.1 3.523 3.523 0 0 0-1.137-.738 3.626 3.626 0 0 0-1.343-.262Z" stroke="currentColor" stroke-width="2" stroke-linecap="round" stroke-linejoin="round"/></symbol><symbol viewBox="0 0 448 512" id="caret-down-icon" xmlns="http://www.w3.org/2000/svg"><path fill="currentColor" d="M201.4 342.6c12.5 12.5 32.8 12.5 45.3 0l160-160c12.5-12.5 12.5-32.8 0-45.3s-32.8-12.5-45.3 0L224 274.7 86.6 137.4c-12.5-12.5-32.8-12.5-45.3 0s-12.5 32.8 0 45.3l160 160z"/></symbol><symbol fill="none" viewBox="0 0 15 17" id="caret-left-border-icon" xmlns="http://www.w3.org/2000/svg"><path d="M7.03 11.695 4.11 8.5m0 0 2.92-3.196M4.11 8.5h6.415m3.753-4.52v9.04c0 1.497-1.138 2.71-2.542 2.71H3.263C1.859 15.73.72 14.518.72 13.02V3.98c0-1.497 1.138-2.711 2.542-2.711h8.473c1.404 0 2.542 1.214 2.542 2.712Z" stroke="currentColor" stroke-linecap="round" stroke-linejoin="round"/></symbol><symbol fill="none" viewBox="0 0 15 17" id="caret-right-border-icon" xmlns="http://www.w3.org/2000/svg"><path d="M7.97 5.304 10.888 8.5m0 0-2.92 3.195M10.89 8.5H4.474M.721 13.02V3.98c0-1.497 1.138-2.711 2.542-2.711h8.473c1.404 0 2.542 1.214 2.542 2.712v9.038c0 1.498-1.138 2.712-2.542 2.712H3.263C1.859 15.73.72 14.517.72 13.019Z" stroke="currentColor" stroke-linecap="round" stroke-linejoin="round"/></symbol><symbol viewBox="0 0 448 512" id="carret-down-icon" xmlns="http://www.w3.org/2000/svg"><path fill="currentColor" d="M201.4 342.6c12.5 12.5 32.8 12.5 45.3 0l160-160c12.5-12.5 12.5-32.8 0-45.3s-32.8-12.5-45.3 0L224 274.7 86.6 137.4c-12.5-12.5-32.8-12.5-45.3 0s-12.5 32.8 0 45.3l160 160z"/></symbol><symbol viewBox="0 0 448 512" id="carret-up-icon" xmlns="http://www.w3.org/2000/svg"><path fill="currentColor" d="M201.4 137.4c12.5-12.5 32.8-12.5 45.3 0l160 160c12.5 12.5 12.5 32.8 0 45.3s-32.8 12.5-45.3 0L224 205.3 86.6 342.6c-12.5 12.5-32.8 12.5-45.3 0s-12.5-32.8 0-45.3l160-160z"/></symbol><symbol fill="none" viewBox="0 0 22 21" id="chain-icon" xmlns="http://www.w3.org/2000/svg"><path d="m5.8 8.518-2.55 2.55a5.055 5.055 0 0 0-1.49 3.608 5.08 5.08 0 0 0 1.544 3.63 5.08 5.08 0 0 0 3.63 1.543c1.392.01 2.657-.506 3.61-1.458l2.548-2.55m3.256-3.193 2.549-2.549a5.056 5.056 0 0 0 1.49-3.608 5.08 5.08 0 0 0-1.544-3.63 5.177 5.177 0 0 0-3.63-1.512 5.027 5.027 0 0 0-3.609 1.458L9.055 5.356M7.208 14.38l7.647-7.646" stroke="currentColor" stroke-width="2" stroke-linecap="round" stroke-linejoin="round"/></symbol><symbol fill="none" viewBox="0 0 16 16" id="circle-add-icon" xmlns="http://www.w3.org/2000/svg"><path d="M10.25 8H8m0 0H5.75M8 8v2.25M8 8V5.75M14 8A6 6 0 1 1 2 8a6 6 0 0 1 12 0Z" stroke="currentColor" stroke-width=".762" stroke-linecap="round" opacity=".9"/></symbol><symbol fill="none" viewBox="0 0 15 15" id="circle-check-icon" xmlns="http://www.w3.org/2000/svg"><path fill-rule="evenodd" clip-rule="evenodd" d="M7.502.877a6.623 6.623 0 1 0 0 13.246 6.623 6.623 0 0 0 0-13.246ZM1.829 7.5a5.673 5.673 0 1 1 11.346 0 5.673 5.673 0 0 1-11.346 0Zm8.332-1.962a.5.5 0 0 0-.818-.576l-2.821 4.01-1.163-1.185a.5.5 0 0 0-.714.7L6.228 10.1a.5.5 0 0 0 .766-.062l3.167-4.5Z" fill="currentColor"/></symbol><symbol fill="none" viewBox="0 0 24 24" id="circle-icon" xmlns="http://www.w3.org/2000/svg"><path d="M23 12c0 6.075-4.925 11-11 11S1 18.075 1 12 5.925 1 12 1s11 4.925 11 11Z" stroke="currentColor" stroke-width="2"/></symbol><symbol viewBox="0 0 512 512" id="circle-noth-icon" xmlns="http://www.w3.org/2000/svg"><path d="M222.7 32.1c5 16.9-4.6 34.8-21.5 39.8C121.8 95.6 64 169.1 64 256c0 106 86 192 192 192s192-86 192-192c0-86.9-57.8-160.4-137.1-184.1-16.9-5-26.6-22.9-21.5-39.8s22.9-26.6 39.8-21.5C434.9 42.1 512 140 512 256c0 141.4-114.6 256-256 256S0 397.4 0 256C0 140 77.1 42.1 182.9 10.6c16.9-5 34.8 4.6 39.8 21.5z" fill="currentColor"/></symbol><symbol fill="none" viewBox="0 0 24 24" id="collapse-icon" xmlns="http://www.w3.org/2000/svg"><path d="M21.6 4.8h-8.4m8.4 4.8H10.8m10.8 9.6h-8.4m-6-12L2.4 12l4.8 4.8m14.4-2.4H10.8" stroke="currentColor" stroke-width="2" stroke-linecap="round" stroke-linejoin="round"/></symbol><symbol viewBox="0 0 448 512" id="compress-icon" xmlns="http://www.w3.org/2000/svg"><path fill="currentColor" d="M160 64c0-17.7-14.3-32-32-32S96 46.3 96 64v64H32c-17.7 0-32 14.3-32 32s14.3 32 32 32h96c17.7 0 32-14.3 32-32V64zM32 320c-17.7 0-32 14.3-32 32s14.3 32 32 32h64v64c0 17.7 14.3 32 32 32s32-14.3 32-32v-96c0-17.7-14.3-32-32-32H32zM352 64c0-17.7-14.3-32-32-32s-32 14.3-32 32v96c0 17.7 14.3 32 32 32h96c17.7 0 32-14.3 32-32s-14.3-32-32-32h-64V64zm-32 256c-17.7 0-32 14.3-32 32v96c0 17.7 14.3 32 32 32s32-14.3 32-32v-64h64c17.7 0 32-14.3 32-32s-14.3-32-32-32h-96z"/></symbol><symbol fill="none" viewBox="0 0 15 15" id="contrast-icon" xmlns="http://www.w3.org/2000/svg"><path fill-rule="evenodd" clip-rule="evenodd" d="M7.502.877a6.623 6.623 0 1 0 0 13.246 6.623 6.623 0 0 0 0-13.246Zm0 .95a5.673 5.673 0 0 0 0 11.346V1.827Z" fill="currentColor"/></symbol><symbol fill="none" viewBox="0 0 28 27" id="cursor-icon" xmlns="http://www.w3.org/2000/svg"><path d="m18.688 17.995 5.37-1.807c1.006-.34 1.045-1.698.059-2.075L11.832 9.987c-.923-.353-1.852.52-1.508 1.42l4.022 12.175c.366.96 1.775.957 2.152-.004l2.19-5.583Z" fill="currentColor"/><path d="M6.557 13.991 5.065 15.43m-.155-5.273H2.8m2.265-5.272 1.492 1.438M10.533 2.7v2.034m5.468.15-1.492 1.438m4.179 11.673 5.37-1.807c1.006-.34 1.045-1.698.059-2.075L11.832 9.987c-.923-.353-1.852.52-1.508 1.42l4.022 12.175c.366.96 1.775.957 2.152-.004l2.19-5.583Z" stroke="currentColor" stroke-width="2" stroke-linecap="round" stroke-linejoin="round"/></symbol><symbol fill="none" viewBox="0 0 6 5" id="cute-check-icon" xmlns="http://www.w3.org/2000/svg"><path d="M5.669 1.372A.472.472 0 0 0 5.03.675L2.985 2.55a.92.92 0 0 1-1.243 0l-.302-.277a.472.472 0 0 0-.638.696l.886.813a1 1 0 0 0 1.352 0l2.629-2.41Z" fill="currentColor"/></symbol><symbol fill="none" viewBox="0 0 24 24" id="draw-icon" xmlns="http://www.w3.org/2000/svg"><path d="M12 14.25V12m0 0V9.75M12 12h2.25M12 12H9.752m-6.75 0a8.97 8.97 0 0 0 .765 3.636L3 20.999l4.596-1.149A9 9 0 0 0 21 12a9 9 0 1 0-17.998 0Z" stroke="#404061" stroke-width="2" stroke-linecap="round" stroke-linejoin="round"/></symbol><symbol fill="none" viewBox="0 0 10 12" id="edit-icon" xmlns="http://www.w3.org/2000/svg"><path d="M1 6.593V1.939a.98.98 0 0 1 .98-.98h4.164l2.694 2.694v6.124a.98.98 0 0 1-.98.98H5.165M5.9.959v2.94h2.94M4.144 6.156A1.029 1.029 0 1 1 5.6 7.612l-2.665 2.655-1.935.49.485-1.935 2.66-2.665Z" stroke="currentColor" stroke-width=".98" stroke-linecap="round" stroke-linejoin="round"/></symbol><symbol fill="none" viewBox="0 0 16 16" id="expand-icon" xmlns="http://www.w3.org/2000/svg"><path d="M4.333 15.333H.666m0 0v-3.667m0 3.667 4.125-4.125M11.666.667h3.667m0 0v3.666m0-3.666-4.125 4.125M.666 4.333V.667m0 0h3.667m-3.667 0 4.125 4.125m10.542 6.874v3.667m0 0h-3.667m3.667 0-4.125-4.125" stroke="currentColor" stroke-width="1.138" stroke-linecap="round" stroke-linejoin="round"/></symbol><symbol viewBox="0 0 640 512" id="eye-close-icon" xmlns="http://www.w3.org/2000/svg"><path fill="currentColor" d="M38.8 5.1C28.4-3.1 13.3-1.2 5.1 9.2s-6.3 25.5 4.1 33.7l592 464c10.4 8.2 25.5 6.3 33.7-4.1s6.3-25.5-4.1-33.7l-105.2-82.4c39.6-40.6 66.4-86.1 79.9-118.4 3.3-7.9 3.3-16.7 0-24.6-14.9-35.7-46.2-87.7-93-131.1C465.5 68.8 400.8 32 320 32c-68.2 0-125 26.3-169.3 60.8L38.8 5.1zm151 118.3C226 97.7 269.5 80 320 80c65.2 0 118.8 29.6 159.9 67.7C518.4 183.5 545 226 558.6 256c-12.6 28-36.6 66.8-70.9 100.9l-53.8-42.2c9.1-17.6 14.2-37.5 14.2-58.7 0-70.7-57.3-128-128-128-32.2 0-61.7 11.9-84.2 31.5l-46.1-36.1zm205.1 160.8-81.5-63.9c4.2-8.5 6.6-18.2 6.6-28.3 0-5.5-.7-10.9-2-16h2c44.2 0 80 35.8 80 80 0 9.9-1.8 19.4-5.1 28.2zm51.3 163.3-41.9-33C378.8 425.4 350.7 432 320 432c-65.2 0-118.8-29.6-159.9-67.7C121.6 328.5 95 286 81.4 256c8.3-18.4 21.5-41.5 39.4-64.8l-37.7-29.7c-22.8 29.7-39.1 59.3-48.6 82.2-3.3 7.9-3.3 16.7 0 24.6 14.9 35.7 46.2 87.7 93 131.1 47 43.8 111.7 80.6 192.5 80.6 47.8 0 89.9-12.9 126.2-32.5zm-88-69.3L302 334c-23.5-5.4-43.1-21.2-53.7-42.3l-56.1-44.2c-.2 2.8-.3 5.6-.3 8.5 0 70.7 57.3 128 128 128 13.3 0 26.1-2 38.2-5.8z"/></symbol><symbol fill="none" viewBox="0 0 24 24" id="eye-open-icon" xmlns="http://www.w3.org/2000/svg"><path d="M21.257 10.962c.474.62.474 1.457 0 2.076C19.764 14.987 16.182 19 12 19c-4.182 0-7.764-4.013-9.257-5.962a1.692 1.692 0 0 1 0-2.076C4.236 9.013 7.818 5 12 5c4.182 0 7.764 4.013 9.257 5.962Z" stroke="currentColor" stroke-linecap="round" stroke-linejoin="round" stroke-width="2"/><circle cx="12" cy="12" r="3" stroke="currentColor" stroke-linecap="round" stroke-linejoin="round" stroke-width="2"/></symbol><symbol fill="none" viewBox="0 0 8 5" id="fill-caret-down-icon" xmlns="http://www.w3.org/2000/svg"><path d="M4.28 4.871a.37.37 0 0 1-.56 0L.082.577C-.112.347.057 0 .364 0h7.272c.307 0 .476.347.28.577L4.282 4.87Z" fill="currentColor"/></symbol><symbol fill="none" viewBox="0 0 22 23" id="full-page-icon" xmlns="http://www.w3.org/2000/svg"><path d="M7.667 1H3.222C1.995 1 1 2.045 1 3.333V8m6.667 14H3.222C1.995 22 1 20.955 1 19.667V15M14.333 1h4.445C20.005 1 21 2.045 21 3.333V8m0 7v4.667C21 20.955 20.005 22 18.778 22h-4.445" stroke="currentColor" stroke-width="2" stroke-linecap="round" stroke-linejoin="round"/></symbol><symbol fill="none" viewBox="0 0 15 16" id="hexagon-icon" xmlns="http://www.w3.org/2000/svg"><path d="M7.5 1 14 4.5v7L7.5 15 1 11.5v-7L7.5 1Z" stroke="#BDFF00" stroke-width="2" stroke-linejoin="round"/></symbol><symbol viewBox="0 0 576 512" id="home-icon" xmlns="http://www.w3.org/2000/svg"><path fill="currentColor" d="M575.8 255.5c0 18-15 32.1-32 32.1h-32l.7 160.2c0 2.7-.2 5.4-.5 8.1V472c0 22.1-17.9 40-40 40h-16c-1.1 0-2.2 0-3.3-.1-1.4.1-2.8.1-4.2.1H392c-22.1 0-40-17.9-40-40v-88c0-17.7-14.3-32-32-32h-64c-17.7 0-32 14.3-32 32v88c0 22.1-17.9 40-40 40h-55.9c-1.5 0-3-.1-4.5-.2-1.2.1-2.4.2-3.6.2h-16c-22.1 0-40-17.9-40-40V360c0-.9 0-1.9.1-2.8v-69.6H32c-18 0-32-14-32-32.1 0-9 3-17 10-24L266.4 8c7-7 15-8 22-8s15 2 21 7l255.4 224.5c8 7 12 15 11 24z"/></symbol><symbol viewBox="0 0 576 512" id="layer-group-icon" xmlns="http://www.w3.org/2000/svg"><path fill="currentColor" d="M264.5 5.2c14.9-6.9 32.1-6.9 47 0l218.6 101c8.5 3.9 13.9 12.4 13.9 21.8s-5.4 17.9-13.9 21.8l-218.6 101c-14.9 6.9-32.1 6.9-47 0l-218.6-101c-8.5-4-13.9-12.5-13.9-21.8s5.4-17.9 13.9-21.8l218.6-101zm212.4 204.4 53.2 24.6c8.5 3.9 13.9 12.4 13.9 21.8s-5.4 17.9-13.9 21.8l-218.6 101c-14.9 6.9-32.1 6.9-47 0l-218.6-101c-8.5-4-13.9-12.5-13.9-21.8s5.4-17.9 13.9-21.8l53.2-24.6 152 70.2a88.1 88.1 0 0 0 73.8 0l152-70.2zm-152 198.2 152-70.2 53.2 24.6c8.5 3.9 13.9 12.4 13.9 21.8s-5.4 17.9-13.9 21.8l-218.6 101c-14.9 6.9-32.1 6.9-47 0l-218.6-101c-8.5-4-13.9-12.5-13.9-21.8s5.4-17.9 13.9-21.8l53.2-24.6 152 70.2a88.1 88.1 0 0 0 73.8 0z"/></symbol><symbol fill="none" viewBox="0 0 16 18" id="layer-icon" xmlns="http://www.w3.org/2000/svg"><path d="M8 1 1 4l7 3 7-3-7-3Z" stroke="currentColor" stroke-width="2" stroke-linejoin="round"/><path fill-rule="evenodd" clip-rule="evenodd" d="M3.025 7.043.606 8.08a1 1 0 0 0 0 1.838l7 3a1 1 0 0 0 .788 0l7-3a1 1 0 0 0 0-1.838l-2.42-1.037-2.538 1.088 2.025.868L8 10.911 3.539 8.999l2.025-.868-2.539-1.088Z" fill="currentColor"/><path fill-rule="evenodd" clip-rule="evenodd" d="M3.025 12.043.606 13.08a1 1 0 0 0 0 1.838l7 3a1 1 0 0 0 .788 0l7-3a1 1 0 0 0 0-1.838l-2.42-1.037-2.538 1.088 2.025.868L8 15.911l-4.461-1.912 2.025-.868-2.539-1.088Z" fill="currentColor"/></symbol><symbol fill="none" viewBox="0 0 15 15" id="left-arrow-icon" xmlns="http://www.w3.org/2000/svg"><path fill-rule="evenodd" clip-rule="evenodd" d="M7.686 11.02a.5.5 0 0 1-.708 0L4.312 8.354a.5.5 0 0 1 0-.707L6.978 4.98a.5.5 0 1 1 .708.707L5.872 7.5h5.46a.5.5 0 1 1 0 1h-5.46l1.814 1.813a.5.5 0 0 1 0 .707Z" fill="currentColor"/><path fill-rule="evenodd" clip-rule="evenodd" d="M2.5 13h10a.5.5 0 0 0 .5-.5v-10a.5.5 0 0 0-.5-.5h-10a.5.5 0 0 0-.5.5v10a.5.5 0 0 0 .5.5Zm10 1a1.5 1.5 0 0 0 1.5-1.5v-10A1.5 1.5 0 0 0 12.5 1h-10A1.5 1.5 0 0 0 1 2.5v10A1.5 1.5 0 0 0 2.5 14h10Z" fill="currentColor"/></symbol><symbol viewBox="0 0 512 512" id="list-icon" xmlns="http://www.w3.org/2000/svg"><path fill="currentColor" d="M40 48c-13.3 0-24 10.7-24 24v48c0 13.3 10.7 24 24 24h48c13.3 0 24-10.7 24-24V72c0-13.3-10.7-24-24-24H40zm152 16c-17.7 0-32 14.3-32 32s14.3 32 32 32h288c17.7 0 32-14.3 32-32s-14.3-32-32-32H192zm0 160c-17.7 0-32 14.3-32 32s14.3 32 32 32h288c17.7 0 32-14.3 32-32s-14.3-32-32-32H192zm0 160c-17.7 0-32 14.3-32 32s14.3 32 32 32h288c17.7 0 32-14.3 32-32s-14.3-32-32-32H192zM16 232v48c0 13.3 10.7 24 24 24h48c13.3 0 24-10.7 24-24v-48c0-13.3-10.7-24-24-24H40c-13.3 0-24 10.7-24 24zm24 136c-13.3 0-24 10.7-24 24v48c0 13.3 10.7 24 24 24h48c13.3 0 24-10.7 24-24v-48c0-13.3-10.7-24-24-24H40z"/></symbol><symbol viewBox="0 0 512 512" id="loading-icon" xmlns="http://www.w3.org/2000/svg"><path fill="currentColor" d="M304 48a48 48 0 1 0-96 0 48 48 0 1 0 96 0zm0 416a48 48 0 1 0-96 0 48 48 0 1 0 96 0zM48 304a48 48 0 1 0 0-96 48 48 0 1 0 0 96zm464-48a48 48 0 1 0-96 0 48 48 0 1 0 96 0zM142.9 437A48 48 0 1 0 75 369.1a48 48 0 1 0 67.9 67.9zm0-294.2A48 48 0 1 0 75 75a48 48 0 1 0 67.9 67.9zM369.1 437a48 48 0 1 0 67.9-67.9 48 48 0 1 0-67.9 67.9z"/></symbol><symbol viewBox="0 0 384 512" id="mark-icon" xmlns="http://www.w3.org/2000/svg"><path fill="currentColor" d="M342.6 150.6c12.5-12.5 12.5-32.8 0-45.3s-32.8-12.5-45.3 0L192 210.7 86.6 105.4c-12.5-12.5-32.8-12.5-45.3 0s-12.5 32.8 0 45.3L146.7 256 41.4 361.4c-12.5 12.5-12.5 32.8 0 45.3s32.8 12.5 45.3 0L192 301.3l105.4 105.3c12.5 12.5 32.8 12.5 45.3 0s12.5-32.8 0-45.3L237.3 256l105.3-105.4z"/></symbol><symbol fill="none" viewBox="0 0 70 70" id="move-icon" xmlns="http://www.w3.org/2000/svg"><path d="M48.776 15.022 34.998 4m0 0L21.221 15.022M34.998 4v20.667M54.978 48.78 66 35.004m0 0L54.978 21.225M66 35.003H45.334M48.776 54.978 34.998 66m0 0L21.221 54.978M34.998 66V45.333M15.022 48.78 4 35.004m0 0 11.022-13.778M4 35.003h20.667" stroke="currentColor" stroke-width="3.444" stroke-linecap="round" stroke-linejoin="round"/></symbol><symbol fill="none" viewBox="0 0 23 17" id="multi-tag-icon" xmlns="http://www.w3.org/2000/svg"><path d="m14.227 1 6.41 6.543a2.538 2.538 0 0 1 0 3.531l-4.375 4.465M8.122 1H1v7.27l6.4 6.532a2.433 2.433 0 0 0 3.48 0l3.642-3.718a2.557 2.557 0 0 0 0-3.552L8.122 1Z" stroke="currentColor" stroke-width="1.454" stroke-linecap="round" stroke-linejoin="round"/></symbol><symbol fill="none" viewBox="0 0 28 27" id="panel-cursor-icon" xmlns="http://www.w3.org/2000/svg"><path d="M11.2 22.087H5.334c-1.399 0-2.532-1.085-2.532-2.423V5.124C2.8 3.785 3.934 2.7 5.333 2.7h15.19c1.398 0 2.532 1.085 2.532 2.424V9.45m-2.812 8.524 4.333-1.413a.86.86 0 0 0 .041-1.64l-10.741-4.056c-.748-.282-1.495.406-1.215 1.118l4.092 10.396c.299.76 1.437.762 1.739.003l1.751-4.408Z" stroke="currentColor" stroke-width="2" stroke-linecap="round" stroke-linejoin="round"/></symbol><symbol fill="none" viewBox="0 0 28 27" id="pen-icon" xmlns="http://www.w3.org/2000/svg"><path d="M7.33 12.916a1 1 0 1 0 1.876.69l-1.877-.69Zm3.31-6.101-.938-.346.938.346Zm1.6-1.336-.19-.982.19.982Zm13.967-2.694.983.184a1 1 0 0 0-1.173-1.166l.19.982Zm-2.55 13.63-.982-.185.983.184Zm-1.47 1.606-.288-.958.288.958Zm-7.133 1.105a1 1 0 0 0 .577 1.915l-.577-1.915ZM26.648 3.749a1 1 0 1 0-1.388-1.44l1.388 1.44Zm-7.452 4.407a1 1 0 0 0 1.388 1.44l-1.388-1.44Zm-14.97 9.978-.695.72.694-.72Zm0-1.949.693.72-.694-.72Zm8.084 7.797.694.72-.694-.72Zm-2.02 0 .693-.72-.694.72Zm4.547-4.386-.694.72.694-.72Zm0 1.95-.694-.72.694.72Zm-6.064-7.797.694-.72-.694.72Zm-2.021 0-.694-.72.694.72Zm2.454-.142L11.58 7.16l-1.877-.69-2.373 6.446 1.877.69ZM12.43 6.46l13.966-2.694-.379-1.964-13.966 2.694.379 1.964ZM25.224 2.6l-2.55 13.63 1.967.367L27.19 2.97l-1.966-.368Zm-3.325 14.462-6.845 2.063.577 1.915 6.845-2.063-.577-1.915Zm.776-.833c-.07.376-.357.707-.776.833l.577 1.915a3.094 3.094 0 0 0 2.165-2.38l-1.966-.368ZM11.579 7.16c.127-.345.441-.62.85-.7l-.378-1.963A3.122 3.122 0 0 0 9.7 6.469l1.878.69Zm13.68-4.851-6.063 5.847 1.388 1.44 6.064-5.847-1.388-1.44ZM8.08 14.469l6.064 5.847 1.388-1.44-6.064-5.847-1.388 1.44Zm6.064 6.356-2.527 2.437 1.389 1.44 2.526-2.437-1.388-1.44Zm-3.16 2.437L4.92 17.414l-1.388 1.44 6.064 5.847 1.388-1.44ZM4.92 16.905l2.527-2.436-1.388-1.44-2.527 2.436 1.388 1.44Zm0 .51a.344.344 0 0 1 0-.51l-1.388-1.44a2.344 2.344 0 0 0 0 3.39l1.388-1.44Zm6.697 5.847a.467.467 0 0 1-.633 0l-1.388 1.44a2.467 2.467 0 0 0 3.41 0l-1.389-1.44Zm2.527-2.946c.15.145.15.364 0 .51l1.388 1.439a2.344 2.344 0 0 0 0-3.389l-1.388 1.44Zm-4.676-7.287a2.467 2.467 0 0 0-3.41 0l1.389 1.44a.467.467 0 0 1 .633 0l1.388-1.44Zm9.224-.487a1.934 1.934 0 0 1-2.655 0l-1.388 1.44c1.504 1.45 3.927 1.45 5.431 0l-1.388-1.44Zm-2.655 0a1.688 1.688 0 0 1 0-2.459l-1.388-1.44a3.687 3.687 0 0 0 0 5.338l1.388-1.44Zm0-2.459a1.934 1.934 0 0 1 2.655 0l1.388-1.44c-1.504-1.45-3.927-1.45-5.43 0l1.387 1.44Zm2.655 0a1.688 1.688 0 0 1 0 2.459l1.388 1.44a3.687 3.687 0 0 0 0-5.339l-1.388 1.44Z" fill="currentColor"/></symbol><symbol fill="none" viewBox="0 0 28 27" id="pencil-icon" xmlns="http://www.w3.org/2000/svg"><path d="m5.6 17.55 4.9 4.05m-5.6-4.05L18.705 3.775c1.486-1.433 3.896-1.433 5.382 0a3.578 3.578 0 0 1 0 5.19L9.801 22.275l-7 2.025 2.1-6.75Z" stroke="currentColor" stroke-width="2" stroke-linecap="round" stroke-linejoin="round"/></symbol><symbol viewBox="0 0 15 15" fill="none" id="plus-icon" xmlns="http://www.w3.org/2000/svg"><path fill-rule="evenodd" clip-rule="evenodd" d="M8 2.75a.5.5 0 0 0-1 0V7H2.75a.5.5 0 0 0 0 1H7v4.25a.5.5 0 0 0 1 0V8h4.25a.5.5 0 0 0 0-1H8V2.75Z" fill="currentColor"/></symbol><symbol fill="none" viewBox="0 0 15 15" id="prev-reload-icon" xmlns="http://www.w3.org/2000/svg"><path fill-rule="evenodd" clip-rule="evenodd" d="M1.852 7.5c0-2.836 2.21-5.65 5.65-5.65 2.778 0 4.151 2.056 4.736 3.15h-1.736a.5.5 0 1 0 0 1h3a.5.5 0 0 0 .5-.5v-3a.5.5 0 0 0-1 0v1.813C12.297 3.07 10.667.85 7.502.85 3.439.85.852 4.185.852 7.5c0 3.314 2.587 6.65 6.65 6.65 1.943 0 3.562-.77 4.714-1.942a6.77 6.77 0 0 0 1.427-2.168.5.5 0 0 0-.924-.38 5.773 5.773 0 0 1-1.216 1.847c-.972.989-2.336 1.643-4.001 1.643-3.44 0-5.65-2.815-5.65-5.65Z" fill="currentColor"/></symbol><symbol fill="none" viewBox="0 0 24 23" id="rect-dots-icon" xmlns="http://www.w3.org/2000/svg"><path d="M20.105 16.474V6.526m-2.895 12.71H7.368m-3.473-3.039V6.803m2.894-3.04h10.132M2.158 6.526h3.474c.64 0 1.157-.495 1.157-1.105V2.105C6.79 1.495 6.271 1 5.632 1H2.158C1.518 1 1 1.495 1 2.105v3.316c0 .61.518 1.105 1.158 1.105Zm16.21 0h3.474c.64 0 1.158-.495 1.158-1.105V2.105C23 1.495 22.482 1 21.842 1h-3.474c-.64 0-1.157.495-1.157 1.105v3.316c0 .61.518 1.105 1.157 1.105ZM2.158 22h3.474c.64 0 1.157-.495 1.157-1.105v-3.316c0-.61-.518-1.105-1.157-1.105H2.158c-.64 0-1.158.494-1.158 1.105v3.316C1 21.505 1.518 22 2.158 22Zm16.21 0h3.474c.64 0 1.158-.495 1.158-1.105v-3.316c0-.61-.518-1.105-1.158-1.105h-3.474c-.64 0-1.157.494-1.157 1.105v3.316c0 .61.518 1.105 1.157 1.105Z" stroke="currentColor" stroke-width="2" stroke-linecap="round"/></symbol><symbol fill="none" viewBox="0 0 24 24" id="rect-radius-icon" xmlns="http://www.w3.org/2000/svg"><path d="M18.875 1A4.125 4.125 0 0 1 23 5.125v13.75A4.125 4.125 0 0 1 18.875 23H5.125A4.125 4.125 0 0 1 1 18.875V5.125A4.125 4.125 0 0 1 5.125 1h13.75Z" stroke="currentColor" stroke-width="2" stroke-linecap="round" stroke-linejoin="round"/></symbol><symbol fill="none" viewBox="0 0 15 15" id="right-arrow-icon" xmlns="http://www.w3.org/2000/svg"><path fill-rule="evenodd" clip-rule="evenodd" d="M7.314 3.98a.5.5 0 0 1 .708 0l2.666 2.666a.5.5 0 0 1 0 .707L8.022 10.02a.5.5 0 1 1-.708-.707L9.128 7.5h-5.46a.5.5 0 1 1 0-1h5.46L7.314 4.687a.5.5 0 0 1 0-.708Z" fill="currentColor"/><path fill-rule="evenodd" clip-rule="evenodd" d="M12.5 2h-10a.5.5 0 0 0-.5.5v10a.5.5 0 0 0 .5.5h10a.5.5 0 0 0 .5-.5v-10a.5.5 0 0 0-.5-.5Zm-10-1A1.5 1.5 0 0 0 1 2.5v10A1.5 1.5 0 0 0 2.5 14h10a1.5 1.5 0 0 0 1.5-1.5v-10A1.5 1.5 0 0 0 12.5 1h-10Z" fill="currentColor"/></symbol><symbol viewBox="0 0 512 512" id="search-icon" xmlns="http://www.w3.org/2000/svg"><path fill="currentColor" d="M416 208c0 45.9-14.9 88.3-40 122.7l126.6 126.7c12.5 12.5 12.5 32.8 0 45.3s-32.8 12.5-45.3 0L330.7 376c-34.4 25.2-76.8 40-122.7 40C93.1 416 0 322.9 0 208S93.1 0 208 0s208 93.1 208 208zM208 352a144 144 0 1 0 0-288 144 144 0 1 0 0 288z"/></symbol><symbol viewBox="0 0 576 512" id="star-icon" xmlns="http://www.w3.org/2000/svg"><path fill="currentColor" d="M316.9 18c-5.3-11-16.5-18-28.8-18s-23.4 7-28.8 18L195 150.3 51.4 171.5c-12 1.8-22 10.2-25.7 21.7s-.7 24.2 7.9 32.7L137.8 329l-24.6 145.7c-2 12 3 24.2 12.9 31.3s23 8 33.8 2.3l128.3-68.5 128.3 68.5c10.8 5.7 23.9 4.9 33.8-2.3s14.9-19.3 12.9-31.3L438.5 329l104.2-103.1c8.6-8.5 11.7-21.2 7.9-32.7s-13.7-19.9-25.7-21.7l-143.7-21.2L316.9 18z"/></symbol><symbol fill="none" viewBox="0 0 15 20" id="tag-icon" xmlns="http://www.w3.org/2000/svg"><path d="M4.79 4.484h5.417M7.5 13.194l5.667 5.062a.5.5 0 0 0 .833-.373V3a2 2 0 0 0-2-2H3a2 2 0 0 0-2 2v14.883a.5.5 0 0 0 .833.373L7.5 13.194Z" stroke="currentColor" stroke-width="2" stroke-linecap="round" stroke-linejoin="round"/></symbol><symbol fill="none" viewBox="0 0 70 70" id="target-icon" xmlns="http://www.w3.org/2000/svg"><path d="M35.711 60.173c14.179 0 25.673-11.494 25.673-25.673 0-14.178-11.494-25.672-25.673-25.672-14.178 0-25.672 11.494-25.672 25.672 0 14.179 11.494 25.673 25.672 25.673Z" stroke="currentColor" stroke-width="3.416" stroke-miterlimit="10" stroke-linecap="round" stroke-linejoin="round"/><path d="M35.712 42.462a7.97 7.97 0 1 0 0-15.94 7.97 7.97 0 0 0 0 15.94ZM35.501 3.5v4.429M35.501 61.076v4.428M4.501 34.5H8.93M62.072 34.5h4.429" stroke="currentColor" stroke-width="3.416" stroke-miterlimit="10" stroke-linecap="round" stroke-linejoin="round"/></symbol><symbol fill="none" viewBox="0 0 14 17" id="thunderbolt-icon" xmlns="http://www.w3.org/2000/svg"><path d="M10.948 2.217a.968.968 0 0 0-.336-1.185 1.04 1.04 0 0 0-1.266.055l-8.12 6.898a.967.967 0 0 0-.282 1.087c.149.382.53.64.951.64a2.305 2.305 0 0 1 2.108 3.236l-1.01 2.29a.968.968 0 0 0 .336 1.185 1.04 1.04 0 0 0 1.266-.055l8.12-6.898a.967.967 0 0 0 .282-1.087 1.017 1.017 0 0 0-.952-.638A2.305 2.305 0 0 1 9.936 4.51l1.012-2.292Z" fill="currentColor"/></symbol><symbol fill="none" viewBox="0 0 10 11" id="trash-icon" xmlns="http://www.w3.org/2000/svg"><path d="M1 2.796h8.083m-.898 0v6.287c0 .45-.449.898-.898.898h-4.49c-.45 0-.899-.449-.899-.898V2.796m1.347 0v-.898c0-.449.45-.898.899-.898H5.94c.449 0 .898.45.898.898v.898" stroke="currentColor" stroke-width=".898" stroke-linecap="round" stroke-linejoin="round"/></symbol><symbol fill="none" viewBox="0 0 16 16" id="tree-view-icon" xmlns="http://www.w3.org/2000/svg"><path d="M11.84 2.88a1.28 1.28 0 1 0 2.56 0 1.28 1.28 0 0 0-2.56 0Zm0 0H4.4m7.44 10.24a1.28 1.28 0 1 0 2.56 0 1.28 1.28 0 0 0-2.56 0Zm0 0H8.16a.64.64 0 0 1-.64-.64V3.52M11.6 8h-4m6.8 0a1.28 1.28 0 1 1-2.56 0 1.28 1.28 0 0 1 2.56 0ZM4.16 2.88a1.28 1.28 0 1 1-2.56 0 1.28 1.28 0 0 1 2.56 0Z" stroke="currentColor" stroke-width="1.2" stroke-linecap="round"/></symbol><symbol fill="none" viewBox="0 0 18 18" id="turn-icon" xmlns="http://www.w3.org/2000/svg"><path d="M1.8 9a7.2 7.2 0 1 1 14.4 0A7.2 7.2 0 0 1 1.8 9Z" stroke="currentColor" stroke-width="1.5"/><path d="M13.5 9.375v-.75A4.125 4.125 0 0 0 9.377 4.5.375.375 0 0 0 9 4.875v8.25c0 .207.168.375.375.375A4.125 4.125 0 0 0 13.5 9.375Z" stroke="currentColor" stroke-width="1.5"/></symbol><symbol viewBox="0 0 640 512" id="user-plus-icon" xmlns="http://www.w3.org/2000/svg"><path fill="currentColor" d="M96 128a128 128 0 1 1 256 0 128 128 0 1 1-256 0zM0 482.3C0 383.8 79.8 304 178.3 304h91.4c98.5 0 178.3 79.8 178.3 178.3 0 16.4-13.3 29.7-29.7 29.7H29.7C13.3 512 0 498.7 0 482.3zM504 312v-64h-64c-13.3 0-24-10.7-24-24s10.7-24 24-24h64v-64c0-13.3 10.7-24 24-24s24 10.7 24 24v64h64c13.3 0 24 10.7 24 24s-10.7 24-24 24h-64v64c0 13.3-10.7 24-24 24s-24-10.7-24-24z"/></symbol><symbol viewBox="0 0 21 21" fill="none" id="zoom-icon" xmlns="http://www.w3.org/2000/svg"><path d="M16.767 15.481a1 1 0 0 0-1.39 1.438l1.39-1.438Zm2.538 5.238a1 1 0 0 0 1.39-1.438l-1.39 1.438ZM8.82 13.214a1 1 0 1 0 2 0h-2Zm2-6.785a1 1 0 1 0-2 0h2ZM6.43 8.82a1 1 0 1 0 0 2v-2Zm6.785 2a1 1 0 1 0 0-2v2Zm4.52-.954a7.867 7.867 0 0 1-7.867 7.866v2c5.449 0 9.866-4.417 9.866-9.866h-2Zm-7.867 7.866A7.867 7.867 0 0 1 2 9.867H0c0 5.449 4.417 9.866 9.867 9.866v-2ZM2 9.867A7.867 7.867 0 0 1 9.867 2V0C4.417 0 0 4.417 0 9.867h2ZM9.867 2a7.867 7.867 0 0 1 7.866 7.867h2C19.733 4.417 15.316 0 9.867 0v2Zm5.51 14.919 3.928 3.8 1.39-1.438-3.928-3.8-1.39 1.438Zm-4.556-3.705V9.821h-2v3.393h2Zm0-3.393V6.43h-2V9.82h2Zm-4.392 1H9.82v-2H6.43v2Zm3.392 0h3.393v-2H9.821v2Z" fill="currentColor"/></symbol><symbol fill="none" viewBox="0 0 16 16" id="zoom-in-icon" xmlns="http://www.w3.org/2000/svg"><path d="m13.44 13.44-2.784-2.784M7.04 5.12v3.84M5.12 7.04h3.84m3.2 0a5.12 5.12 0 1 1-10.24 0 5.12 5.12 0 0 1 10.24 0Z" stroke="currentColor" stroke-width="1.28" stroke-linecap="round" stroke-linejoin="round"/></symbol><symbol fill="none" viewBox="0 0 16 16" id="zoom-out-icon" xmlns="http://www.w3.org/2000/svg"><path d="m13.44 13.44-2.784-2.784M5.12 7.04h3.84m3.2 0a5.12 5.12 0 1 1-10.24 0 5.12 5.12 0 0 1 10.24 0Z" stroke="currentColor" stroke-width="1.28" stroke-linecap="round" stroke-linejoin="round"/></symbol></svg>