<svg width="11" height="28" viewBox="0 0 11 28" fill="none" xmlns="http://www.w3.org/2000/svg">
<path opacity="0.4" d="M5.7139 22.9102C6.38216 22.9102 6.92389 22.3685 6.92389 21.7002C6.92389 21.032 6.38216 20.4902 5.7139 20.4902C5.04563 20.4902 4.50391 21.032 4.50391 21.7002C4.50391 22.3685 5.04563 22.9102 5.7139 22.9102Z" fill="#3A3A3A" stroke="#3A3A3A" stroke-width="0.2" stroke-linecap="round" stroke-linejoin="round"/>
<path opacity="0.4" d="M5.7139 22.9102C6.38216 22.9102 6.92389 22.3685 6.92389 21.7002C6.92389 21.032 6.38216 20.4902 5.7139 20.4902C5.04563 20.4902 4.50391 21.032 4.50391 21.7002C4.50391 22.3685 5.04563 22.9102 5.7139 22.9102Z" stroke="#3A3A3A" stroke-width="0.2" stroke-linecap="round" stroke-linejoin="round"/>
<path opacity="0.7" d="M5.71204 22.5803C6.19805 22.5803 6.59204 22.1863 6.59204 21.7003C6.59204 21.2143 6.19805 20.8203 5.71204 20.8203C5.22603 20.8203 4.83203 21.2143 4.83203 21.7003C4.83203 22.1863 5.22603 22.5803 5.71204 22.5803Z" fill="#3A3A3A" stroke="#3A3A3A" stroke-width="0.2" stroke-linecap="round" stroke-linejoin="round"/>
<path opacity="0.8" d="M5.71204 22.5803C6.19805 22.5803 6.59204 22.1863 6.59204 21.7003C6.59204 21.2143 6.19805 20.8203 5.71204 20.8203C5.22603 20.8203 4.83203 21.2143 4.83203 21.7003C4.83203 22.1863 5.22603 22.5803 5.71204 22.5803Z" stroke="#3A3A3A" stroke-width="0.2" stroke-linecap="round" stroke-linejoin="round"/>
</svg>
