<svg width="9" height="27" viewBox="0 0 9 27" fill="none" xmlns="http://www.w3.org/2000/svg">
<path opacity="0.4" d="M4.33499 22.3604C5.00326 22.3604 5.54498 21.8187 5.54498 21.1504C5.54498 20.4822 5.00326 19.9404 4.33499 19.9404C3.66673 19.9404 3.125 20.4822 3.125 21.1504C3.125 21.8187 3.66673 22.3604 4.33499 22.3604Z" fill="#3A3A3A" stroke="#3A3A3A" stroke-width="0.2" stroke-linecap="round" stroke-linejoin="round"/>
<path opacity="0.4" d="M4.33499 22.3604C5.00326 22.3604 5.54498 21.8187 5.54498 21.1504C5.54498 20.4822 5.00326 19.9404 4.33499 19.9404C3.66673 19.9404 3.125 20.4822 3.125 21.1504C3.125 21.8187 3.66673 22.3604 4.33499 22.3604Z" stroke="#3A3A3A" stroke-width="0.2" stroke-linecap="round" stroke-linejoin="round"/>
<path opacity="0.7" d="M4.33313 22.0305C4.81914 22.0305 5.21313 21.6365 5.21313 21.1505C5.21313 20.6645 4.81914 20.2705 4.33313 20.2705C3.84712 20.2705 3.45312 20.6645 3.45312 21.1505C3.45312 21.6365 3.84712 22.0305 4.33313 22.0305Z" fill="#3A3A3A" stroke="#3A3A3A" stroke-width="0.2" stroke-linecap="round" stroke-linejoin="round"/>
<path opacity="0.8" d="M4.33313 22.0305C4.81914 22.0305 5.21313 21.6365 5.21313 21.1505C5.21313 20.6645 4.81914 20.2705 4.33313 20.2705C3.84712 20.2705 3.45312 20.6645 3.45312 21.1505C3.45312 21.6365 3.84712 22.0305 4.33313 22.0305Z" stroke="#3A3A3A" stroke-width="0.2" stroke-linecap="round" stroke-linejoin="round"/>
</svg>
