<svg width="10" height="32" viewBox="0 0 10 32" fill="none" xmlns="http://www.w3.org/2000/svg">
<path opacity="0.4" d="M4.84671 26.8702C5.51497 26.8702 6.0567 26.3285 6.0567 25.6602C6.0567 24.9919 5.51497 24.4502 4.84671 24.4502C4.17845 24.4502 3.63672 24.9919 3.63672 25.6602C3.63672 26.3285 4.17845 26.8702 4.84671 26.8702Z" fill="#3A3A3A" stroke="#3A3A3A" stroke-width="0.2" stroke-linecap="round" stroke-linejoin="round"/>
<path opacity="0.4" d="M4.84671 26.8702C5.51497 26.8702 6.0567 26.3285 6.0567 25.6602C6.0567 24.9919 5.51497 24.4502 4.84671 24.4502C4.17845 24.4502 3.63672 24.9919 3.63672 25.6602C3.63672 26.3285 4.17845 26.8702 4.84671 26.8702Z" stroke="#3A3A3A" stroke-width="0.2" stroke-linecap="round" stroke-linejoin="round"/>
<path opacity="0.7" d="M4.84485 26.5403C5.33086 26.5403 5.72485 26.1463 5.72485 25.6603C5.72485 25.1743 5.33086 24.7803 4.84485 24.7803C4.35884 24.7803 3.96484 25.1743 3.96484 25.6603C3.96484 26.1463 4.35884 26.5403 4.84485 26.5403Z" fill="#3A3A3A" stroke="#3A3A3A" stroke-width="0.2" stroke-linecap="round" stroke-linejoin="round"/>
<path opacity="0.8" d="M4.84485 26.5403C5.33086 26.5403 5.72485 26.1463 5.72485 25.6603C5.72485 25.1743 5.33086 24.7803 4.84485 24.7803C4.35884 24.7803 3.96484 25.1743 3.96484 25.6603C3.96484 26.1463 4.35884 26.5403 4.84485 26.5403Z" stroke="#3A3A3A" stroke-width="0.2" stroke-linecap="round" stroke-linejoin="round"/>
</svg>
