<svg width="12" height="28" viewBox="0 0 12 28" fill="none" xmlns="http://www.w3.org/2000/svg">
<path opacity="0.4" d="M5.64359 23.0196C6.31185 23.0196 6.85361 22.4779 6.85361 21.8096C6.85361 21.1413 6.31185 20.5996 5.64359 20.5996C4.97532 20.5996 4.43359 21.1413 4.43359 21.8096C4.43359 22.4779 4.97532 23.0196 5.64359 23.0196Z" fill="#3A3A3A" stroke="#3A3A3A" stroke-width="0.2" stroke-linecap="round" stroke-linejoin="round"/>
<path opacity="0.4" d="M5.64359 23.0196C6.31185 23.0196 6.85361 22.4779 6.85361 21.8096C6.85361 21.1413 6.31185 20.5996 5.64359 20.5996C4.97532 20.5996 4.43359 21.1413 4.43359 21.8096C4.43359 22.4779 4.97532 23.0196 5.64359 23.0196Z" stroke="#3A3A3A" stroke-width="0.2" stroke-linecap="round" stroke-linejoin="round"/>
<path opacity="0.7" d="M5.64172 22.6897C6.12773 22.6897 6.52173 22.2957 6.52173 21.8097C6.52173 21.3237 6.12773 20.9297 5.64172 20.9297C5.15571 20.9297 4.76172 21.3237 4.76172 21.8097C4.76172 22.2957 5.15571 22.6897 5.64172 22.6897Z" fill="#3A3A3A" stroke="#3A3A3A" stroke-width="0.2" stroke-linecap="round" stroke-linejoin="round"/>
<path opacity="0.8" d="M5.64172 22.6897C6.12773 22.6897 6.52173 22.2957 6.52173 21.8097C6.52173 21.3237 6.12773 20.9297 5.64172 20.9297C5.15571 20.9297 4.76172 21.3237 4.76172 21.8097C4.76172 22.2957 5.15571 22.6897 5.64172 22.6897Z" stroke="#3A3A3A" stroke-width="0.2" stroke-linecap="round" stroke-linejoin="round"/>
</svg>
