<svg width="9" height="27" viewBox="0 0 9 27" fill="none" xmlns="http://www.w3.org/2000/svg">
<path opacity="0.4" d="M4.4444 22.2003C5.11266 22.2003 5.65439 21.6585 5.65439 20.9903C5.65439 20.322 5.11266 19.7803 4.4444 19.7803C3.77613 19.7803 3.23438 20.322 3.23438 20.9903C3.23438 21.6585 3.77613 22.2003 4.4444 22.2003Z" fill="#3A3A3A" stroke="#3A3A3A" stroke-width="0.2" stroke-linecap="round" stroke-linejoin="round"/>
<path opacity="0.4" d="M4.4444 22.2003C5.11266 22.2003 5.65439 21.6585 5.65439 20.9903C5.65439 20.322 5.11266 19.7803 4.4444 19.7803C3.77613 19.7803 3.23438 20.322 3.23438 20.9903C3.23438 21.6585 3.77613 22.2003 4.4444 22.2003Z" stroke="#3A3A3A" stroke-width="0.2" stroke-linecap="round" stroke-linejoin="round"/>
<path opacity="0.7" d="M4.4425 21.8704C4.92852 21.8704 5.32248 21.4764 5.32248 20.9904C5.32248 20.5043 4.92852 20.1104 4.4425 20.1104C3.95649 20.1104 3.5625 20.5043 3.5625 20.9904C3.5625 21.4764 3.95649 21.8704 4.4425 21.8704Z" fill="#3A3A3A" stroke="#3A3A3A" stroke-width="0.2" stroke-linecap="round" stroke-linejoin="round"/>
<path opacity="0.8" d="M4.4425 21.8704C4.92852 21.8704 5.32248 21.4764 5.32248 20.9904C5.32248 20.5043 4.92852 20.1104 4.4425 20.1104C3.95649 20.1104 3.5625 20.5043 3.5625 20.9904C3.5625 21.4764 3.95649 21.8704 4.4425 21.8704Z" stroke="#3A3A3A" stroke-width="0.2" stroke-linecap="round" stroke-linejoin="round"/>
</svg>
