<svg width="13" height="28" viewBox="0 0 13 28" fill="none" xmlns="http://www.w3.org/2000/svg">
<path opacity="0.4" d="M6.32329 23.1397C6.99155 23.1397 7.53329 22.598 7.53329 21.9297C7.53329 21.2615 6.99155 20.7197 6.32329 20.7197C5.65502 20.7197 5.11328 21.2615 5.11328 21.9297C5.11328 22.598 5.65502 23.1397 6.32329 23.1397Z" fill="#3A3A3A" stroke="#3A3A3A" stroke-width="0.2" stroke-linecap="round" stroke-linejoin="round"/>
<path opacity="0.4" d="M6.32329 23.1397C6.99155 23.1397 7.53329 22.598 7.53329 21.9297C7.53329 21.2615 6.99155 20.7197 6.32329 20.7197C5.65502 20.7197 5.11328 21.2615 5.11328 21.9297C5.11328 22.598 5.65502 23.1397 6.32329 23.1397Z" stroke="#3A3A3A" stroke-width="0.2" stroke-linecap="round" stroke-linejoin="round"/>
<path opacity="0.7" d="M6.32141 22.8098C6.80742 22.8098 7.20142 22.4158 7.20142 21.9298C7.20142 21.4438 6.80742 21.0498 6.32141 21.0498C5.8354 21.0498 5.44141 21.4438 5.44141 21.9298C5.44141 22.4158 5.8354 22.8098 6.32141 22.8098Z" fill="#3A3A3A" stroke="#3A3A3A" stroke-width="0.2" stroke-linecap="round" stroke-linejoin="round"/>
<path opacity="0.8" d="M6.32141 22.8098C6.80742 22.8098 7.20142 22.4158 7.20142 21.9298C7.20142 21.4438 6.80742 21.0498 6.32141 21.0498C5.8354 21.0498 5.44141 21.4438 5.44141 21.9298C5.44141 22.4158 5.8354 22.8098 6.32141 22.8098Z" stroke="#3A3A3A" stroke-width="0.2" stroke-linecap="round" stroke-linejoin="round"/>
</svg>
