<svg width="14" height="25" viewBox="0 0 14 25" fill="none" xmlns="http://www.w3.org/2000/svg">
<path opacity="0.4" d="M6.92485 20.2003C7.59312 20.2003 8.13484 19.6585 8.13484 18.9903C8.13484 18.322 7.59312 17.7803 6.92485 17.7803C6.25659 17.7803 5.71484 18.322 5.71484 18.9903C5.71484 19.6585 6.25659 20.2003 6.92485 20.2003Z" fill="#3A3A3A" stroke="#3A3A3A" stroke-width="0.2" stroke-linecap="round" stroke-linejoin="round"/>
<path opacity="0.4" d="M6.92485 20.2003C7.59312 20.2003 8.13484 19.6585 8.13484 18.9903C8.13484 18.322 7.59312 17.7803 6.92485 17.7803C6.25659 17.7803 5.71484 18.322 5.71484 18.9903C5.71484 19.6585 6.25659 20.2003 6.92485 20.2003Z" stroke="#3A3A3A" stroke-width="0.2" stroke-linecap="round" stroke-linejoin="round"/>
<path opacity="0.7" d="M6.92297 19.8704C7.40898 19.8704 7.80296 19.4764 7.80296 18.9904C7.80296 18.5043 7.40898 18.1104 6.92297 18.1104C6.43696 18.1104 6.04297 18.5043 6.04297 18.9904C6.04297 19.4764 6.43696 19.8704 6.92297 19.8704Z" fill="#3A3A3A" stroke="#3A3A3A" stroke-width="0.2" stroke-linecap="round" stroke-linejoin="round"/>
<path opacity="0.8" d="M6.92297 19.8704C7.40898 19.8704 7.80296 19.4764 7.80296 18.9904C7.80296 18.5043 7.40898 18.1104 6.92297 18.1104C6.43696 18.1104 6.04297 18.5043 6.04297 18.9904C6.04297 19.4764 6.43696 19.8704 6.92297 19.8704Z" stroke="#3A3A3A" stroke-width="0.2" stroke-linecap="round" stroke-linejoin="round"/>
</svg>
