<svg width="12" height="24" viewBox="0 0 12 24" fill="none" xmlns="http://www.w3.org/2000/svg">
<path opacity="0.4" d="M5.85454 20.0196C6.5228 20.0196 7.06454 19.4779 7.06454 18.8096C7.06454 18.1413 6.5228 17.5996 5.85454 17.5996C5.18627 17.5996 4.64453 18.1413 4.64453 18.8096C4.64453 19.4779 5.18627 20.0196 5.85454 20.0196Z" fill="#3A3A3A" stroke="#3A3A3A" stroke-width="0.2" stroke-linecap="round" stroke-linejoin="round"/>
<path opacity="0.4" d="M5.85454 20.0196C6.5228 20.0196 7.06454 19.4779 7.06454 18.8096C7.06454 18.1413 6.5228 17.5996 5.85454 17.5996C5.18627 17.5996 4.64453 18.1413 4.64453 18.8096C4.64453 19.4779 5.18627 20.0196 5.85454 20.0196Z" stroke="#3A3A3A" stroke-width="0.2" stroke-linecap="round" stroke-linejoin="round"/>
<path opacity="0.7" d="M5.85266 19.6897C6.33867 19.6897 6.73267 19.2957 6.73267 18.8097C6.73267 18.3237 6.33867 17.9297 5.85266 17.9297C5.36665 17.9297 4.97266 18.3237 4.97266 18.8097C4.97266 19.2957 5.36665 19.6897 5.85266 19.6897Z" fill="#3A3A3A" stroke="#3A3A3A" stroke-width="0.2" stroke-linecap="round" stroke-linejoin="round"/>
<path opacity="0.8" d="M5.85266 19.6897C6.33867 19.6897 6.73267 19.2957 6.73267 18.8097C6.73267 18.3237 6.33867 17.9297 5.85266 17.9297C5.36665 17.9297 4.97266 18.3237 4.97266 18.8097C4.97266 19.2957 5.36665 19.6897 5.85266 19.6897Z" stroke="#3A3A3A" stroke-width="0.2" stroke-linecap="round" stroke-linejoin="round"/>
</svg>
