<svg width="11" height="28" viewBox="0 0 11 28" fill="none" xmlns="http://www.w3.org/2000/svg">
<path opacity="0.4" d="M5.36624 23.3604C6.03451 23.3604 6.57623 22.8187 6.57623 22.1504C6.57623 21.4822 6.03451 20.9404 5.36624 20.9404C4.69798 20.9404 4.15625 21.4822 4.15625 22.1504C4.15625 22.8187 4.69798 23.3604 5.36624 23.3604Z" fill="#3A3A3A" stroke="#3A3A3A" stroke-width="0.2" stroke-linecap="round" stroke-linejoin="round"/>
<path opacity="0.4" d="M5.36624 23.3604C6.03451 23.3604 6.57623 22.8187 6.57623 22.1504C6.57623 21.4822 6.03451 20.9404 5.36624 20.9404C4.69798 20.9404 4.15625 21.4822 4.15625 22.1504C4.15625 22.8187 4.69798 23.3604 5.36624 23.3604Z" stroke="#3A3A3A" stroke-width="0.2" stroke-linecap="round" stroke-linejoin="round"/>
<path opacity="0.7" d="M5.36438 23.0305C5.85039 23.0305 6.24438 22.6365 6.24438 22.1505C6.24438 21.6645 5.85039 21.2705 5.36438 21.2705C4.87837 21.2705 4.48438 21.6645 4.48438 22.1505C4.48438 22.6365 4.87837 23.0305 5.36438 23.0305Z" fill="#3A3A3A" stroke="#3A3A3A" stroke-width="0.2" stroke-linecap="round" stroke-linejoin="round"/>
<path opacity="0.8" d="M5.36438 23.0305C5.85039 23.0305 6.24438 22.6365 6.24438 22.1505C6.24438 21.6645 5.85039 21.2705 5.36438 21.2705C4.87837 21.2705 4.48438 21.6645 4.48438 22.1505C4.48438 22.6365 4.87837 23.0305 5.36438 23.0305Z" stroke="#3A3A3A" stroke-width="0.2" stroke-linecap="round" stroke-linejoin="round"/>
</svg>
