<svg width="9" height="27" viewBox="0 0 9 27" fill="none" xmlns="http://www.w3.org/2000/svg">
<path opacity="0.4" d="M4.6358 22.1397C5.30407 22.1397 5.84579 21.598 5.84579 20.9297C5.84579 20.2615 5.30407 19.7197 4.6358 19.7197C3.96754 19.7197 3.42578 20.2615 3.42578 20.9297C3.42578 21.598 3.96754 22.1397 4.6358 22.1397Z" fill="#3A3A3A" stroke="#3A3A3A" stroke-width="0.2" stroke-linecap="round" stroke-linejoin="round"/>
<path opacity="0.4" d="M4.6358 22.1397C5.30407 22.1397 5.84579 21.598 5.84579 20.9297C5.84579 20.2615 5.30407 19.7197 4.6358 19.7197C3.96754 19.7197 3.42578 20.2615 3.42578 20.9297C3.42578 21.598 3.96754 22.1397 4.6358 22.1397Z" stroke="#3A3A3A" stroke-width="0.2" stroke-linecap="round" stroke-linejoin="round"/>
<path opacity="0.7" d="M4.63391 21.8098C5.11992 21.8098 5.51389 21.4158 5.51389 20.9298C5.51389 20.4438 5.11992 20.0498 4.63391 20.0498C4.1479 20.0498 3.75391 20.4438 3.75391 20.9298C3.75391 21.4158 4.1479 21.8098 4.63391 21.8098Z" fill="#3A3A3A" stroke="#3A3A3A" stroke-width="0.2" stroke-linecap="round" stroke-linejoin="round"/>
<path opacity="0.8" d="M4.63391 21.8098C5.11992 21.8098 5.51389 21.4158 5.51389 20.9298C5.51389 20.4438 5.11992 20.0498 4.63391 20.0498C4.1479 20.0498 3.75391 20.4438 3.75391 20.9298C3.75391 21.4158 4.1479 21.8098 4.63391 21.8098Z" stroke="#3A3A3A" stroke-width="0.2" stroke-linecap="round" stroke-linejoin="round"/>
</svg>
