<svg width="10" height="32" viewBox="0 0 10 32" fill="none" xmlns="http://www.w3.org/2000/svg">
<path opacity="0.4" d="M5.4444 26.7501C6.11266 26.7501 6.65439 26.2083 6.65439 25.5401C6.65439 24.8718 6.11266 24.3301 5.4444 24.3301C4.77613 24.3301 4.23438 24.8718 4.23438 25.5401C4.23438 26.2083 4.77613 26.7501 5.4444 26.7501Z" fill="#3A3A3A" stroke="#3A3A3A" stroke-width="0.2" stroke-linecap="round" stroke-linejoin="round"/>
<path opacity="0.4" d="M5.4444 26.7501C6.11266 26.7501 6.65439 26.2083 6.65439 25.5401C6.65439 24.8718 6.11266 24.3301 5.4444 24.3301C4.77613 24.3301 4.23438 24.8718 4.23438 25.5401C4.23438 26.2083 4.77613 26.7501 5.4444 26.7501Z" stroke="#3A3A3A" stroke-width="0.2" stroke-linecap="round" stroke-linejoin="round"/>
<path opacity="0.7" d="M5.4425 26.4202C5.92852 26.4202 6.32248 26.0262 6.32248 25.5402C6.32248 25.0541 5.92852 24.6602 5.4425 24.6602C4.95649 24.6602 4.5625 25.0541 4.5625 25.5402C4.5625 26.0262 4.95649 26.4202 5.4425 26.4202Z" fill="#3A3A3A" stroke="#3A3A3A" stroke-width="0.2" stroke-linecap="round" stroke-linejoin="round"/>
<path opacity="0.8" d="M5.4425 26.4202C5.92852 26.4202 6.32248 26.0262 6.32248 25.5402C6.32248 25.0541 5.92852 24.6602 5.4425 24.6602C4.95649 24.6602 4.5625 25.0541 4.5625 25.5402C4.5625 26.0262 4.95649 26.4202 5.4425 26.4202Z" stroke="#3A3A3A" stroke-width="0.2" stroke-linecap="round" stroke-linejoin="round"/>
</svg>
