<svg width="12" height="28" viewBox="0 0 12 28" fill="none" xmlns="http://www.w3.org/2000/svg">
<path opacity="0.4" d="M6.10455 22.46C6.77282 22.46 7.31454 21.9183 7.31454 21.25C7.31454 20.5818 6.77282 20.04 6.10455 20.04C5.43629 20.04 4.89453 20.5818 4.89453 21.25C4.89453 21.9183 5.43629 22.46 6.10455 22.46Z" fill="#3A3A3A" stroke="#3A3A3A" stroke-width="0.2" stroke-linecap="round" stroke-linejoin="round"/>
<path opacity="0.4" d="M6.10455 22.46C6.77282 22.46 7.31454 21.9183 7.31454 21.25C7.31454 20.5818 6.77282 20.04 6.10455 20.04C5.43629 20.04 4.89453 20.5818 4.89453 21.25C4.89453 21.9183 5.43629 22.46 6.10455 22.46Z" stroke="#3A3A3A" stroke-width="0.2" stroke-linecap="round" stroke-linejoin="round"/>
<path opacity="0.7" d="M6.10266 22.1301C6.58867 22.1301 6.98264 21.7361 6.98264 21.2501C6.98264 20.7641 6.58867 20.3701 6.10266 20.3701C5.61665 20.3701 5.22266 20.7641 5.22266 21.2501C5.22266 21.7361 5.61665 22.1301 6.10266 22.1301Z" fill="#3A3A3A" stroke="#3A3A3A" stroke-width="0.2" stroke-linecap="round" stroke-linejoin="round"/>
<path opacity="0.8" d="M6.10266 22.1301C6.58867 22.1301 6.98264 21.7361 6.98264 21.2501C6.98264 20.7641 6.58867 20.3701 6.10266 20.3701C5.61665 20.3701 5.22266 20.7641 5.22266 21.2501C5.22266 21.7361 5.61665 22.1301 6.10266 22.1301Z" stroke="#3A3A3A" stroke-width="0.2" stroke-linecap="round" stroke-linejoin="round"/>
</svg>
