<svg width="9" height="27" viewBox="0 0 9 27" fill="none" xmlns="http://www.w3.org/2000/svg">
<path opacity="0.4" d="M4.57327 21.8702C5.24154 21.8702 5.78329 21.3285 5.78329 20.6602C5.78329 19.9919 5.24154 19.4502 4.57327 19.4502C3.90501 19.4502 3.36328 19.9919 3.36328 20.6602C3.36328 21.3285 3.90501 21.8702 4.57327 21.8702Z" fill="#3A3A3A" stroke="#3A3A3A" stroke-width="0.2" stroke-linecap="round" stroke-linejoin="round"/>
<path opacity="0.4" d="M4.57327 21.8702C5.24154 21.8702 5.78329 21.3285 5.78329 20.6602C5.78329 19.9919 5.24154 19.4502 4.57327 19.4502C3.90501 19.4502 3.36328 19.9919 3.36328 20.6602C3.36328 21.3285 3.90501 21.8702 4.57327 21.8702Z" stroke="#3A3A3A" stroke-width="0.2" stroke-linecap="round" stroke-linejoin="round"/>
<path opacity="0.7" d="M4.57138 21.5403C5.05739 21.5403 5.45139 21.1463 5.45139 20.6603C5.45139 20.1743 5.05739 19.7803 4.57138 19.7803C4.08537 19.7803 3.69141 20.1743 3.69141 20.6603C3.69141 21.1463 4.08537 21.5403 4.57138 21.5403Z" fill="#3A3A3A" stroke="#3A3A3A" stroke-width="0.2" stroke-linecap="round" stroke-linejoin="round"/>
<path opacity="0.8" d="M4.57138 21.5403C5.05739 21.5403 5.45139 21.1463 5.45139 20.6603C5.45139 20.1743 5.05739 19.7803 4.57138 19.7803C4.08537 19.7803 3.69141 20.1743 3.69141 20.6603C3.69141 21.1463 4.08537 21.5403 4.57138 21.5403Z" stroke="#3A3A3A" stroke-width="0.2" stroke-linecap="round" stroke-linejoin="round"/>
</svg>
