<svg width="13" height="28" viewBox="0 0 13 28" fill="none" xmlns="http://www.w3.org/2000/svg">
<path opacity="0.4" d="M6.75299 22.8702C7.42126 22.8702 7.96298 22.3285 7.96298 21.6602C7.96298 20.9919 7.42126 20.4502 6.75299 20.4502C6.08473 20.4502 5.54297 20.9919 5.54297 21.6602C5.54297 22.3285 6.08473 22.8702 6.75299 22.8702Z" fill="#3A3A3A" stroke="#3A3A3A" stroke-width="0.2" stroke-linecap="round" stroke-linejoin="round"/>
<path opacity="0.4" d="M6.75299 22.8702C7.42126 22.8702 7.96298 22.3285 7.96298 21.6602C7.96298 20.9919 7.42126 20.4502 6.75299 20.4502C6.08473 20.4502 5.54297 20.9919 5.54297 21.6602C5.54297 22.3285 6.08473 22.8702 6.75299 22.8702Z" stroke="#3A3A3A" stroke-width="0.2" stroke-linecap="round" stroke-linejoin="round"/>
<path opacity="0.7" d="M6.7511 22.5403C7.23711 22.5403 7.6311 22.1463 7.6311 21.6603C7.6311 21.1743 7.23711 20.7803 6.7511 20.7803C6.26509 20.7803 5.87109 21.1743 5.87109 21.6603C5.87109 22.1463 6.26509 22.5403 6.7511 22.5403Z" fill="#3A3A3A" stroke="#3A3A3A" stroke-width="0.2" stroke-linecap="round" stroke-linejoin="round"/>
<path opacity="0.8" d="M6.7511 22.5403C7.23711 22.5403 7.6311 22.1463 7.6311 21.6603C7.6311 21.1743 7.23711 20.7803 6.7511 20.7803C6.26509 20.7803 5.87109 21.1743 5.87109 21.6603C5.87109 22.1463 6.26509 22.5403 6.7511 22.5403Z" stroke="#3A3A3A" stroke-width="0.2" stroke-linecap="round" stroke-linejoin="round"/>
</svg>
