<svg width="14" height="25" viewBox="0 0 14 25" fill="none" xmlns="http://www.w3.org/2000/svg">
<path opacity="0.4" d="M6.85455 19.8702C7.52282 19.8702 8.06454 19.3285 8.06454 18.6602C8.06454 17.9919 7.52282 17.4502 6.85455 17.4502C6.18629 17.4502 5.64453 17.9919 5.64453 18.6602C5.64453 19.3285 6.18629 19.8702 6.85455 19.8702Z" fill="#3A3A3A" stroke="#3A3A3A" stroke-width="0.2" stroke-linecap="round" stroke-linejoin="round"/>
<path opacity="0.4" d="M6.85455 19.8702C7.52282 19.8702 8.06454 19.3285 8.06454 18.6602C8.06454 17.9919 7.52282 17.4502 6.85455 17.4502C6.18629 17.4502 5.64453 17.9919 5.64453 18.6602C5.64453 19.3285 6.18629 19.8702 6.85455 19.8702Z" stroke="#3A3A3A" stroke-width="0.2" stroke-linecap="round" stroke-linejoin="round"/>
<path opacity="0.7" d="M6.85266 19.5403C7.33867 19.5403 7.73264 19.1463 7.73264 18.6603C7.73264 18.1743 7.33867 17.7803 6.85266 17.7803C6.36665 17.7803 5.97266 18.1743 5.97266 18.6603C5.97266 19.1463 6.36665 19.5403 6.85266 19.5403Z" fill="#3A3A3A" stroke="#3A3A3A" stroke-width="0.2" stroke-linecap="round" stroke-linejoin="round"/>
<path opacity="0.8" d="M6.85266 19.5403C7.33867 19.5403 7.73264 19.1463 7.73264 18.6603C7.73264 18.1743 7.33867 17.7803 6.85266 17.7803C6.36665 17.7803 5.97266 18.1743 5.97266 18.6603C5.97266 19.1463 6.36665 19.5403 6.85266 19.5403Z" stroke="#3A3A3A" stroke-width="0.2" stroke-linecap="round" stroke-linejoin="round"/>
</svg>
