<svg width="12" height="24" viewBox="0 0 12 24" fill="none" xmlns="http://www.w3.org/2000/svg">
<path opacity="0.4" d="M6.01468 20.0802C6.68294 20.0802 7.2247 19.5384 7.2247 18.8702C7.2247 18.2019 6.68294 17.6602 6.01468 17.6602C5.34641 17.6602 4.80469 18.2019 4.80469 18.8702C4.80469 19.5384 5.34641 20.0802 6.01468 20.0802Z" fill="#3A3A3A" stroke="#3A3A3A" stroke-width="0.2" stroke-linecap="round" stroke-linejoin="round"/>
<path opacity="0.4" d="M6.01468 20.0802C6.68294 20.0802 7.2247 19.5384 7.2247 18.8702C7.2247 18.2019 6.68294 17.6602 6.01468 17.6602C5.34641 17.6602 4.80469 18.2019 4.80469 18.8702C4.80469 19.5384 5.34641 20.0802 6.01468 20.0802Z" stroke="#3A3A3A" stroke-width="0.2" stroke-linecap="round" stroke-linejoin="round"/>
<path opacity="0.7" d="M6.01279 19.7502C6.4988 19.7502 6.89279 19.3562 6.89279 18.8702C6.89279 18.3842 6.4988 17.9902 6.01279 17.9902C5.52678 17.9902 5.13281 18.3842 5.13281 18.8702C5.13281 19.3562 5.52678 19.7502 6.01279 19.7502Z" fill="#3A3A3A" stroke="#3A3A3A" stroke-width="0.2" stroke-linecap="round" stroke-linejoin="round"/>
<path opacity="0.8" d="M6.01279 19.7502C6.4988 19.7502 6.89279 19.3562 6.89279 18.8702C6.89279 18.3842 6.4988 17.9902 6.01279 17.9902C5.52678 17.9902 5.13281 18.3842 5.13281 18.8702C5.13281 19.3562 5.52678 19.7502 6.01279 19.7502Z" stroke="#3A3A3A" stroke-width="0.2" stroke-linecap="round" stroke-linejoin="round"/>
</svg>
