<svg width="9" height="24" viewBox="0 0 9 24" fill="none" xmlns="http://www.w3.org/2000/svg">
<path opacity="0.4" d="M4.56546 6.48055C5.23372 6.48055 5.77545 5.93881 5.77545 5.27055C5.77545 4.60228 5.23372 4.06055 4.56546 4.06055C3.8972 4.06055 3.35547 4.60228 3.35547 5.27055C3.35547 5.93881 3.8972 6.48055 4.56546 6.48055Z" fill="#3A3A3A" stroke="#3A3A3A" stroke-width="0.2" stroke-linecap="round" stroke-linejoin="round"/>
<path opacity="0.4" d="M4.56546 6.48055C5.23372 6.48055 5.77545 5.93881 5.77545 5.27055C5.77545 4.60228 5.23372 4.06055 4.56546 4.06055C3.8972 4.06055 3.35547 4.60228 3.35547 5.27055C3.35547 5.93881 3.8972 6.48055 4.56546 6.48055Z" stroke="#3A3A3A" stroke-width="0.2" stroke-linecap="round" stroke-linejoin="round"/>
<path opacity="0.7" d="M4.5636 6.15063C5.04961 6.15063 5.4436 5.75664 5.4436 5.27063C5.4436 4.78462 5.04961 4.39062 4.5636 4.39062C4.07759 4.39062 3.68359 4.78462 3.68359 5.27063C3.68359 5.75664 4.07759 6.15063 4.5636 6.15063Z" fill="#3A3A3A" stroke="#3A3A3A" stroke-width="0.2" stroke-linecap="round" stroke-linejoin="round"/>
<path opacity="0.8" d="M4.5636 6.15063C5.04961 6.15063 5.4436 5.75664 5.4436 5.27063C5.4436 4.78462 5.04961 4.39062 4.5636 4.39062C4.07759 4.39062 3.68359 4.78462 3.68359 5.27063C3.68359 5.75664 4.07759 6.15063 4.5636 6.15063Z" stroke="#3A3A3A" stroke-width="0.2" stroke-linecap="round" stroke-linejoin="round"/>
</svg>
