<svg width="9" height="25" viewBox="0 0 9 25" fill="none" xmlns="http://www.w3.org/2000/svg">
<path opacity="0.4" d="M4.6358 6.86043C5.30407 6.86043 5.84579 6.31869 5.84579 5.65043C5.84579 4.98216 5.30407 4.44043 4.6358 4.44043C3.96754 4.44043 3.42578 4.98216 3.42578 5.65043C3.42578 6.31869 3.96754 6.86043 4.6358 6.86043Z" fill="#3A3A3A" stroke="#3A3A3A" stroke-width="0.2" stroke-linecap="round" stroke-linejoin="round"/>
<path opacity="0.4" d="M4.6358 6.86043C5.30407 6.86043 5.84579 6.31869 5.84579 5.65043C5.84579 4.98216 5.30407 4.44043 4.6358 4.44043C3.96754 4.44043 3.42578 4.98216 3.42578 5.65043C3.42578 6.31869 3.96754 6.86043 4.6358 6.86043Z" stroke="#3A3A3A" stroke-width="0.2" stroke-linecap="round" stroke-linejoin="round"/>
<path opacity="0.7" d="M4.63391 6.5305C5.11992 6.5305 5.51389 6.13652 5.51389 5.65051C5.51389 5.16449 5.11992 4.77051 4.63391 4.77051C4.1479 4.77051 3.75391 5.16449 3.75391 5.65051C3.75391 6.13652 4.1479 6.5305 4.63391 6.5305Z" fill="#3A3A3A" stroke="#3A3A3A" stroke-width="0.2" stroke-linecap="round" stroke-linejoin="round"/>
<path opacity="0.8" d="M4.63391 6.5305C5.11992 6.5305 5.51389 6.13652 5.51389 5.65051C5.51389 5.16449 5.11992 4.77051 4.63391 4.77051C4.1479 4.77051 3.75391 5.16449 3.75391 5.65051C3.75391 6.13652 4.1479 6.5305 4.63391 6.5305Z" stroke="#3A3A3A" stroke-width="0.2" stroke-linecap="round" stroke-linejoin="round"/>
</svg>
