<svg width="9" height="30" viewBox="0 0 9 30" fill="none" xmlns="http://www.w3.org/2000/svg">
<path opacity="0.4" d="M4.83499 7.15047C5.50326 7.15047 6.04498 6.60873 6.04498 5.94047C6.04498 5.2722 5.50326 4.73047 4.83499 4.73047C4.16673 4.73047 3.625 5.2722 3.625 5.94047C3.625 6.60873 4.16673 7.15047 4.83499 7.15047Z" fill="#3A3A3A" stroke="#3A3A3A" stroke-width="0.2" stroke-linecap="round" stroke-linejoin="round"/>
<path opacity="0.4" d="M4.83499 7.15047C5.50326 7.15047 6.04498 6.60873 6.04498 5.94047C6.04498 5.2722 5.50326 4.73047 4.83499 4.73047C4.16673 4.73047 3.625 5.2722 3.625 5.94047C3.625 6.60873 4.16673 7.15047 4.83499 7.15047Z" stroke="#3A3A3A" stroke-width="0.2" stroke-linecap="round" stroke-linejoin="round"/>
<path opacity="0.7" d="M4.83313 6.82054C5.31914 6.82054 5.71313 6.42655 5.71313 5.94054C5.71313 5.45453 5.31914 5.06055 4.83313 5.06055C4.34712 5.06055 3.95312 5.45453 3.95312 5.94054C3.95312 6.42655 4.34712 6.82054 4.83313 6.82054Z" fill="#3A3A3A" stroke="#3A3A3A" stroke-width="0.2" stroke-linecap="round" stroke-linejoin="round"/>
<path opacity="0.8" d="M4.83313 6.82054C5.31914 6.82054 5.71313 6.42655 5.71313 5.94054C5.71313 5.45453 5.31914 5.06055 4.83313 5.06055C4.34712 5.06055 3.95312 5.45453 3.95312 5.94054C3.95312 6.42655 4.34712 6.82054 4.83313 6.82054Z" stroke="#3A3A3A" stroke-width="0.2" stroke-linecap="round" stroke-linejoin="round"/>
</svg>
