<svg width="10" height="25" viewBox="0 0 10 25" fill="none" xmlns="http://www.w3.org/2000/svg">
<path opacity="0.4" d="M5.0264 6.51962C5.69466 6.51962 6.23639 5.97788 6.23639 5.30962C6.23639 4.64135 5.69466 4.09961 5.0264 4.09961C4.35813 4.09961 3.81641 4.64135 3.81641 5.30962C3.81641 5.97788 4.35813 6.51962 5.0264 6.51962Z" fill="#3A3A3A" stroke="#3A3A3A" stroke-width="0.2" stroke-linecap="round" stroke-linejoin="round"/>
<path opacity="0.4" d="M5.0264 6.51962C5.69466 6.51962 6.23639 5.97788 6.23639 5.30962C6.23639 4.64135 5.69466 4.09961 5.0264 4.09961C4.35813 4.09961 3.81641 4.64135 3.81641 5.30962C3.81641 5.97788 4.35813 6.51962 5.0264 6.51962Z" stroke="#3A3A3A" stroke-width="0.2" stroke-linecap="round" stroke-linejoin="round"/>
<path opacity="0.7" d="M5.02454 6.18969C5.51055 6.18969 5.90454 5.7957 5.90454 5.30969C5.90454 4.82368 5.51055 4.42969 5.02454 4.42969C4.53853 4.42969 4.14453 4.82368 4.14453 5.30969C4.14453 5.7957 4.53853 6.18969 5.02454 6.18969Z" fill="#3A3A3A" stroke="#3A3A3A" stroke-width="0.2" stroke-linecap="round" stroke-linejoin="round"/>
<path opacity="0.8" d="M5.02454 6.18969C5.51055 6.18969 5.90454 5.7957 5.90454 5.30969C5.90454 4.82368 5.51055 4.42969 5.02454 4.42969C4.53853 4.42969 4.14453 4.82368 4.14453 5.30969C4.14453 5.7957 4.53853 6.18969 5.02454 6.18969Z" stroke="#3A3A3A" stroke-width="0.2" stroke-linecap="round" stroke-linejoin="round"/>
</svg>
