<svg width="11" height="25" viewBox="0 0 11 25" fill="none" xmlns="http://www.w3.org/2000/svg">
<path opacity="0.4" d="M5.22565 7.51962C5.89391 7.51962 6.43564 6.97788 6.43564 6.30962C6.43564 5.64135 5.89391 5.09961 5.22565 5.09961C4.55738 5.09961 4.01562 5.64135 4.01562 6.30962C4.01562 6.97788 4.55738 7.51962 5.22565 7.51962Z" fill="#3A3A3A" stroke="#3A3A3A" stroke-width="0.2" stroke-linecap="round" stroke-linejoin="round"/>
<path opacity="0.4" d="M5.22565 7.51962C5.89391 7.51962 6.43564 6.97788 6.43564 6.30962C6.43564 5.64135 5.89391 5.09961 5.22565 5.09961C4.55738 5.09961 4.01562 5.64135 4.01562 6.30962C4.01562 6.97788 4.55738 7.51962 5.22565 7.51962Z" stroke="#3A3A3A" stroke-width="0.2" stroke-linecap="round" stroke-linejoin="round"/>
<path opacity="0.7" d="M5.22375 7.18969C5.70977 7.18969 6.10376 6.7957 6.10376 6.30969C6.10376 5.82368 5.70977 5.42969 5.22375 5.42969C4.73774 5.42969 4.34375 5.82368 4.34375 6.30969C4.34375 6.7957 4.73774 7.18969 5.22375 7.18969Z" fill="#3A3A3A" stroke="#3A3A3A" stroke-width="0.2" stroke-linecap="round" stroke-linejoin="round"/>
<path opacity="0.8" d="M5.22375 7.18969C5.70977 7.18969 6.10376 6.7957 6.10376 6.30969C6.10376 5.82368 5.70977 5.42969 5.22375 5.42969C4.73774 5.42969 4.34375 5.82368 4.34375 6.30969C4.34375 6.7957 4.73774 7.18969 5.22375 7.18969Z" stroke="#3A3A3A" stroke-width="0.2" stroke-linecap="round" stroke-linejoin="round"/>
</svg>
