<svg width="15" height="25" viewBox="0 0 15 25" fill="none" xmlns="http://www.w3.org/2000/svg">
<path opacity="0.4" d="M7.70609 6.63972C8.37435 6.63972 8.91611 6.09799 8.91611 5.42973C8.91611 4.76146 8.37435 4.21973 7.70609 4.21973C7.03782 4.21973 6.49609 4.76146 6.49609 5.42973C6.49609 6.09799 7.03782 6.63972 7.70609 6.63972Z" fill="#3A3A3A" stroke="#3A3A3A" stroke-width="0.2" stroke-linecap="round" stroke-linejoin="round"/>
<path opacity="0.4" d="M7.70609 6.63972C8.37435 6.63972 8.91611 6.09799 8.91611 5.42973C8.91611 4.76146 8.37435 4.21973 7.70609 4.21973C7.03782 4.21973 6.49609 4.76146 6.49609 5.42973C6.49609 6.09799 7.03782 6.63972 7.70609 6.63972Z" stroke="#3A3A3A" stroke-width="0.2" stroke-linecap="round" stroke-linejoin="round"/>
<path opacity="0.7" d="M7.70422 6.30981C8.19023 6.30981 8.58423 5.91581 8.58423 5.4298C8.58423 4.94379 8.19023 4.5498 7.70422 4.5498C7.21821 4.5498 6.82422 4.94379 6.82422 5.4298C6.82422 5.91581 7.21821 6.30981 7.70422 6.30981Z" fill="#3A3A3A" stroke="#3A3A3A" stroke-width="0.2" stroke-linecap="round" stroke-linejoin="round"/>
<path opacity="0.8" d="M7.70422 6.30981C8.19023 6.30981 8.58423 5.91581 8.58423 5.4298C8.58423 4.94379 8.19023 4.5498 7.70422 4.5498C7.21821 4.5498 6.82422 4.94379 6.82422 5.4298C6.82422 5.91581 7.21821 6.30981 7.70422 6.30981Z" stroke="#3A3A3A" stroke-width="0.2" stroke-linecap="round" stroke-linejoin="round"/>
</svg>
