<svg width="13" height="24" viewBox="0 0 13 24" fill="none" xmlns="http://www.w3.org/2000/svg">
<path opacity="0.4" d="M6.59671 6.63972C7.26497 6.63972 7.8067 6.09799 7.8067 5.42973C7.8067 4.76146 7.26497 4.21973 6.59671 4.21973C5.92845 4.21973 5.38672 4.76146 5.38672 5.42973C5.38672 6.09799 5.92845 6.63972 6.59671 6.63972Z" fill="#3A3A3A" stroke="#3A3A3A" stroke-width="0.2" stroke-linecap="round" stroke-linejoin="round"/>
<path opacity="0.4" d="M6.59671 6.63972C7.26497 6.63972 7.8067 6.09799 7.8067 5.42973C7.8067 4.76146 7.26497 4.21973 6.59671 4.21973C5.92845 4.21973 5.38672 4.76146 5.38672 5.42973C5.38672 6.09799 5.92845 6.63972 6.59671 6.63972Z" stroke="#3A3A3A" stroke-width="0.2" stroke-linecap="round" stroke-linejoin="round"/>
<path opacity="0.7" d="M6.59485 6.30981C7.08086 6.30981 7.47485 5.91581 7.47485 5.4298C7.47485 4.94379 7.08086 4.5498 6.59485 4.5498C6.10884 4.5498 5.71484 4.94379 5.71484 5.4298C5.71484 5.91581 6.10884 6.30981 6.59485 6.30981Z" fill="#3A3A3A" stroke="#3A3A3A" stroke-width="0.2" stroke-linecap="round" stroke-linejoin="round"/>
<path opacity="0.8" d="M6.59485 6.30981C7.08086 6.30981 7.47485 5.91581 7.47485 5.4298C7.47485 4.94379 7.08086 4.5498 6.59485 4.5498C6.10884 4.5498 5.71484 4.94379 5.71484 5.4298C5.71484 5.91581 6.10884 6.30981 6.59485 6.30981Z" stroke="#3A3A3A" stroke-width="0.2" stroke-linecap="round" stroke-linejoin="round"/>
</svg>
