<svg width="12" height="22" viewBox="0 0 12 22" fill="none" xmlns="http://www.w3.org/2000/svg">
<path opacity="0.4" d="M5.81546 5.76962C6.48372 5.76962 7.02545 5.22788 7.02545 4.55962C7.02545 3.89135 6.48372 3.34961 5.81546 3.34961C5.1472 3.34961 4.60547 3.89135 4.60547 4.55962C4.60547 5.22788 5.1472 5.76962 5.81546 5.76962Z" fill="#3A3A3A" stroke="#3A3A3A" stroke-width="0.2" stroke-linecap="round" stroke-linejoin="round"/>
<path opacity="0.4" d="M5.81546 5.76962C6.48372 5.76962 7.02545 5.22788 7.02545 4.55962C7.02545 3.89135 6.48372 3.34961 5.81546 3.34961C5.1472 3.34961 4.60547 3.89135 4.60547 4.55962C4.60547 5.22788 5.1472 5.76962 5.81546 5.76962Z" stroke="#3A3A3A" stroke-width="0.2" stroke-linecap="round" stroke-linejoin="round"/>
<path opacity="0.7" d="M5.8136 5.43969C6.29961 5.43969 6.6936 5.0457 6.6936 4.55969C6.6936 4.07368 6.29961 3.67969 5.8136 3.67969C5.32759 3.67969 4.93359 4.07368 4.93359 4.55969C4.93359 5.0457 5.32759 5.43969 5.8136 5.43969Z" fill="#3A3A3A" stroke="#3A3A3A" stroke-width="0.2" stroke-linecap="round" stroke-linejoin="round"/>
<path opacity="0.8" d="M5.8136 5.43969C6.29961 5.43969 6.6936 5.0457 6.6936 4.55969C6.6936 4.07368 6.29961 3.67969 5.8136 3.67969C5.32759 3.67969 4.93359 4.07368 4.93359 4.55969C4.93359 5.0457 5.32759 5.43969 5.8136 5.43969Z" stroke="#3A3A3A" stroke-width="0.2" stroke-linecap="round" stroke-linejoin="round"/>
</svg>
