<svg width="9" height="24" viewBox="0 0 9 24" fill="none" xmlns="http://www.w3.org/2000/svg">
<path opacity="0.4" d="M4.74515 6.80965C5.41341 6.80965 5.95514 6.26791 5.95514 5.59965C5.95514 4.93138 5.41341 4.38965 4.74515 4.38965C4.07688 4.38965 3.53516 4.93138 3.53516 5.59965C3.53516 6.26791 4.07688 6.80965 4.74515 6.80965Z" fill="#3A3A3A" stroke="#3A3A3A" stroke-width="0.2" stroke-linecap="round" stroke-linejoin="round"/>
<path opacity="0.4" d="M4.74515 6.80965C5.41341 6.80965 5.95514 6.26791 5.95514 5.59965C5.95514 4.93138 5.41341 4.38965 4.74515 4.38965C4.07688 4.38965 3.53516 4.93138 3.53516 5.59965C3.53516 6.26791 4.07688 6.80965 4.74515 6.80965Z" stroke="#3A3A3A" stroke-width="0.2" stroke-linecap="round" stroke-linejoin="round"/>
<path opacity="0.7" d="M4.74329 6.47973C5.2293 6.47973 5.62329 6.08573 5.62329 5.59972C5.62329 5.11371 5.2293 4.71973 4.74329 4.71973C4.25728 4.71973 3.86328 5.11371 3.86328 5.59972C3.86328 6.08573 4.25728 6.47973 4.74329 6.47973Z" fill="#3A3A3A" stroke="#3A3A3A" stroke-width="0.2" stroke-linecap="round" stroke-linejoin="round"/>
<path opacity="0.8" d="M4.74329 6.47973C5.2293 6.47973 5.62329 6.08573 5.62329 5.59972C5.62329 5.11371 5.2293 4.71973 4.74329 4.71973C4.25728 4.71973 3.86328 5.11371 3.86328 5.59972C3.86328 6.08573 4.25728 6.47973 4.74329 6.47973Z" stroke="#3A3A3A" stroke-width="0.2" stroke-linecap="round" stroke-linejoin="round"/>
</svg>
