<svg width="9" height="25" viewBox="0 0 9 25" fill="none" xmlns="http://www.w3.org/2000/svg">
<path opacity="0.4" d="M4.39359 6.91023C5.06185 6.91023 5.60361 6.3685 5.60361 5.70023C5.60361 5.03197 5.06185 4.49023 4.39359 4.49023C3.72532 4.49023 3.18359 5.03197 3.18359 5.70023C3.18359 6.3685 3.72532 6.91023 4.39359 6.91023Z" fill="#3A3A3A" stroke="#3A3A3A" stroke-width="0.2" stroke-linecap="round" stroke-linejoin="round"/>
<path opacity="0.4" d="M4.39359 6.91023C5.06185 6.91023 5.60361 6.3685 5.60361 5.70023C5.60361 5.03197 5.06185 4.49023 4.39359 4.49023C3.72532 4.49023 3.18359 5.03197 3.18359 5.70023C3.18359 6.3685 3.72532 6.91023 4.39359 6.91023Z" stroke="#3A3A3A" stroke-width="0.2" stroke-linecap="round" stroke-linejoin="round"/>
<path opacity="0.7" d="M4.39172 6.58031C4.87773 6.58031 5.27173 6.18633 5.27173 5.70032C5.27173 5.21431 4.87773 4.82031 4.39172 4.82031C3.90571 4.82031 3.51172 5.21431 3.51172 5.70032C3.51172 6.18633 3.90571 6.58031 4.39172 6.58031Z" fill="#3A3A3A" stroke="#3A3A3A" stroke-width="0.2" stroke-linecap="round" stroke-linejoin="round"/>
<path opacity="0.8" d="M4.39172 6.58031C4.87773 6.58031 5.27173 6.18633 5.27173 5.70032C5.27173 5.21431 4.87773 4.82031 4.39172 4.82031C3.90571 4.82031 3.51172 5.21431 3.51172 5.70032C3.51172 6.18633 3.90571 6.58031 4.39172 6.58031Z" stroke="#3A3A3A" stroke-width="0.2" stroke-linecap="round" stroke-linejoin="round"/>
</svg>
