<svg width="9" height="30" viewBox="0 0 9 30" fill="none" xmlns="http://www.w3.org/2000/svg">
<path opacity="0.4" d="M4.20609 7.42C4.87435 7.42 5.41611 6.87826 5.41611 6.21C5.41611 5.54173 4.87435 5 4.20609 5C3.53782 5 2.99609 5.54173 2.99609 6.21C2.99609 6.87826 3.53782 7.42 4.20609 7.42Z" fill="#3A3A3A" stroke="#3A3A3A" stroke-width="0.2" stroke-linecap="round" stroke-linejoin="round"/>
<path opacity="0.4" d="M4.20609 7.42C4.87435 7.42 5.41611 6.87826 5.41611 6.21C5.41611 5.54173 4.87435 5 4.20609 5C3.53782 5 2.99609 5.54173 2.99609 6.21C2.99609 6.87826 3.53782 7.42 4.20609 7.42Z" stroke="#3A3A3A" stroke-width="0.2" stroke-linecap="round" stroke-linejoin="round"/>
<path opacity="0.7" d="M4.20422 7.09008C4.69023 7.09008 5.08423 6.69609 5.08423 6.21008C5.08423 5.72406 4.69023 5.33008 4.20422 5.33008C3.71821 5.33008 3.32422 5.72406 3.32422 6.21008C3.32422 6.69609 3.71821 7.09008 4.20422 7.09008Z" fill="#3A3A3A" stroke="#3A3A3A" stroke-width="0.2" stroke-linecap="round" stroke-linejoin="round"/>
<path opacity="0.8" d="M4.20422 7.09008C4.69023 7.09008 5.08423 6.69609 5.08423 6.21008C5.08423 5.72406 4.69023 5.33008 4.20422 5.33008C3.71821 5.33008 3.32422 5.72406 3.32422 6.21008C3.32422 6.69609 3.71821 7.09008 4.20422 7.09008Z" stroke="#3A3A3A" stroke-width="0.2" stroke-linecap="round" stroke-linejoin="round"/>
</svg>
