<svg width="10" height="25" viewBox="0 0 10 25" fill="none" xmlns="http://www.w3.org/2000/svg">
<path opacity="0.4" d="M4.9053 6.71004C5.57357 6.71004 6.1153 6.1683 6.1153 5.50004C6.1153 4.83177 5.57357 4.29004 4.9053 4.29004C4.23704 4.29004 3.69531 4.83177 3.69531 5.50004C3.69531 6.1683 4.23704 6.71004 4.9053 6.71004Z" fill="#3A3A3A" stroke="#3A3A3A" stroke-width="0.2" stroke-linecap="round" stroke-linejoin="round"/>
<path opacity="0.4" d="M4.9053 6.71004C5.57357 6.71004 6.1153 6.1683 6.1153 5.50004C6.1153 4.83177 5.57357 4.29004 4.9053 4.29004C4.23704 4.29004 3.69531 4.83177 3.69531 5.50004C3.69531 6.1683 4.23704 6.71004 4.9053 6.71004Z" stroke="#3A3A3A" stroke-width="0.2" stroke-linecap="round" stroke-linejoin="round"/>
<path opacity="0.7" d="M4.90344 6.38012C5.38945 6.38012 5.78345 5.98612 5.78345 5.50011C5.78345 5.0141 5.38945 4.62012 4.90344 4.62012C4.41743 4.62012 4.02344 5.0141 4.02344 5.50011C4.02344 5.98612 4.41743 6.38012 4.90344 6.38012Z" fill="#3A3A3A" stroke="#3A3A3A" stroke-width="0.2" stroke-linecap="round" stroke-linejoin="round"/>
<path opacity="0.8" d="M4.90344 6.38012C5.38945 6.38012 5.78345 5.98612 5.78345 5.50011C5.78345 5.0141 5.38945 4.62012 4.90344 4.62012C4.41743 4.62012 4.02344 5.0141 4.02344 5.50011C4.02344 5.98612 4.41743 6.38012 4.90344 6.38012Z" stroke="#3A3A3A" stroke-width="0.2" stroke-linecap="round" stroke-linejoin="round"/>
</svg>
