<svg width="11" height="25" viewBox="0 0 11 25" fill="none" xmlns="http://www.w3.org/2000/svg">
<path opacity="0.4" d="M5.4639 7.83993C6.13216 7.83993 6.67389 7.29819 6.67389 6.62993C6.67389 5.96166 6.13216 5.41992 5.4639 5.41992C4.79563 5.41992 4.25391 5.96166 4.25391 6.62993C4.25391 7.29819 4.79563 7.83993 5.4639 7.83993Z" fill="#3A3A3A" stroke="#3A3A3A" stroke-width="0.2" stroke-linecap="round" stroke-linejoin="round"/>
<path opacity="0.4" d="M5.4639 7.83993C6.13216 7.83993 6.67389 7.29819 6.67389 6.62993C6.67389 5.96166 6.13216 5.41992 5.4639 5.41992C4.79563 5.41992 4.25391 5.96166 4.25391 6.62993C4.25391 7.29819 4.79563 7.83993 5.4639 7.83993Z" stroke="#3A3A3A" stroke-width="0.2" stroke-linecap="round" stroke-linejoin="round"/>
<path opacity="0.7" d="M5.46204 7.51C5.94805 7.51 6.34204 7.11602 6.34204 6.63C6.34204 6.14399 5.94805 5.75 5.46204 5.75C4.97603 5.75 4.58203 6.14399 4.58203 6.63C4.58203 7.11602 4.97603 7.51 5.46204 7.51Z" fill="#3A3A3A" stroke="#3A3A3A" stroke-width="0.2" stroke-linecap="round" stroke-linejoin="round"/>
<path opacity="0.8" d="M5.46204 7.51C5.94805 7.51 6.34204 7.11602 6.34204 6.63C6.34204 6.14399 5.94805 5.75 5.46204 5.75C4.97603 5.75 4.58203 6.14399 4.58203 6.63C4.58203 7.11602 4.97603 7.51 5.46204 7.51Z" stroke="#3A3A3A" stroke-width="0.2" stroke-linecap="round" stroke-linejoin="round"/>
</svg>
