<svg width="15" height="25" viewBox="0 0 15 25" fill="none" xmlns="http://www.w3.org/2000/svg">
<path opacity="0.4" d="M7.81548 6.83015C8.48374 6.83015 9.02547 6.28842 9.02547 5.62016C9.02547 4.95189 8.48374 4.41016 7.81548 4.41016C7.14721 4.41016 6.60547 4.95189 6.60547 5.62016C6.60547 6.28842 7.14721 6.83015 7.81548 6.83015Z" fill="#3A3A3A" stroke="#3A3A3A" stroke-width="0.2" stroke-linecap="round" stroke-linejoin="round"/>
<path opacity="0.4" d="M7.81548 6.83015C8.48374 6.83015 9.02547 6.28842 9.02547 5.62016C9.02547 4.95189 8.48374 4.41016 7.81548 4.41016C7.14721 4.41016 6.60547 4.95189 6.60547 5.62016C6.60547 6.28842 7.14721 6.83015 7.81548 6.83015Z" stroke="#3A3A3A" stroke-width="0.2" stroke-linecap="round" stroke-linejoin="round"/>
<path opacity="0.7" d="M7.8136 6.50023C8.29961 6.50023 8.69359 6.10624 8.69359 5.62023C8.69359 5.13422 8.29961 4.74023 7.8136 4.74023C7.32759 4.74023 6.93359 5.13422 6.93359 5.62023C6.93359 6.10624 7.32759 6.50023 7.8136 6.50023Z" fill="#3A3A3A" stroke="#3A3A3A" stroke-width="0.2" stroke-linecap="round" stroke-linejoin="round"/>
<path opacity="0.8" d="M7.8136 6.50023C8.29961 6.50023 8.69359 6.10624 8.69359 5.62023C8.69359 5.13422 8.29961 4.74023 7.8136 4.74023C7.32759 4.74023 6.93359 5.13422 6.93359 5.62023C6.93359 6.10624 7.32759 6.50023 7.8136 6.50023Z" stroke="#3A3A3A" stroke-width="0.2" stroke-linecap="round" stroke-linejoin="round"/>
</svg>
