<svg width="13" height="24" viewBox="0 0 13 24" fill="none" xmlns="http://www.w3.org/2000/svg">
<path opacity="0.4" d="M6.41312 6.80965C7.08138 6.80965 7.62312 6.26791 7.62312 5.59965C7.62312 4.93138 7.08138 4.38965 6.41312 4.38965C5.74485 4.38965 5.20312 4.93138 5.20312 5.59965C5.20312 6.26791 5.74485 6.80965 6.41312 6.80965Z" fill="#3A3A3A" stroke="#3A3A3A" stroke-width="0.2" stroke-linecap="round" stroke-linejoin="round"/>
<path opacity="0.4" d="M6.41312 6.80965C7.08138 6.80965 7.62312 6.26791 7.62312 5.59965C7.62312 4.93138 7.08138 4.38965 6.41312 4.38965C5.74485 4.38965 5.20312 4.93138 5.20312 5.59965C5.20312 6.26791 5.74485 6.80965 6.41312 6.80965Z" stroke="#3A3A3A" stroke-width="0.2" stroke-linecap="round" stroke-linejoin="round"/>
<path opacity="0.7" d="M6.41124 6.47973C6.89725 6.47973 7.29124 6.08573 7.29124 5.59972C7.29124 5.11371 6.89725 4.71973 6.41124 4.71973C5.92523 4.71973 5.53125 5.11371 5.53125 5.59972C5.53125 6.08573 5.92523 6.47973 6.41124 6.47973Z" fill="#3A3A3A" stroke="#3A3A3A" stroke-width="0.2" stroke-linecap="round" stroke-linejoin="round"/>
<path opacity="0.8" d="M6.41124 6.47973C6.89725 6.47973 7.29124 6.08573 7.29124 5.59972C7.29124 5.11371 6.89725 4.71973 6.41124 4.71973C5.92523 4.71973 5.53125 5.11371 5.53125 5.59972C5.53125 6.08573 5.92523 6.47973 6.41124 6.47973Z" stroke="#3A3A3A" stroke-width="0.2" stroke-linecap="round" stroke-linejoin="round"/>
</svg>
