<svg width="12" height="22" viewBox="0 0 12 22" fill="none" xmlns="http://www.w3.org/2000/svg">
<path opacity="0.4" d="M6.26469 5.92976C6.93296 5.92976 7.47469 5.38803 7.47469 4.71976C7.47469 4.0515 6.93296 3.50977 6.26469 3.50977C5.59643 3.50977 5.05469 4.0515 5.05469 4.71976C5.05469 5.38803 5.59643 5.92976 6.26469 5.92976Z" fill="#3A3A3A" stroke="#3A3A3A" stroke-width="0.2" stroke-linecap="round" stroke-linejoin="round"/>
<path opacity="0.4" d="M6.26469 5.92976C6.93296 5.92976 7.47469 5.38803 7.47469 4.71976C7.47469 4.0515 6.93296 3.50977 6.26469 3.50977C5.59643 3.50977 5.05469 4.0515 5.05469 4.71976C5.05469 5.38803 5.59643 5.92976 6.26469 5.92976Z" stroke="#3A3A3A" stroke-width="0.2" stroke-linecap="round" stroke-linejoin="round"/>
<path opacity="0.7" d="M6.26282 5.59984C6.74883 5.59984 7.14281 5.20585 7.14281 4.71984C7.14281 4.23383 6.74883 3.83984 6.26282 3.83984C5.77681 3.83984 5.38281 4.23383 5.38281 4.71984C5.38281 5.20585 5.77681 5.59984 6.26282 5.59984Z" fill="#3A3A3A" stroke="#3A3A3A" stroke-width="0.2" stroke-linecap="round" stroke-linejoin="round"/>
<path opacity="0.8" d="M6.26282 5.59984C6.74883 5.59984 7.14281 5.20585 7.14281 4.71984C7.14281 4.23383 6.74883 3.83984 6.26282 3.83984C5.77681 3.83984 5.38281 4.23383 5.38281 4.71984C5.38281 5.20585 5.77681 5.59984 6.26282 5.59984Z" stroke="#3A3A3A" stroke-width="0.2" stroke-linecap="round" stroke-linejoin="round"/>
</svg>
