<svg width="8" height="20" viewBox="0 0 8 20" fill="none" xmlns="http://www.w3.org/2000/svg">
<path opacity="0.4" d="M4.19485 16.96C4.59801 16.96 4.92484 16.6332 4.92484 16.23C4.92484 15.8268 4.59801 15.5 4.19485 15.5C3.79168 15.5 3.46484 15.8268 3.46484 16.23C3.46484 16.6332 3.79168 16.96 4.19485 16.96Z" fill="#3A3A3A" stroke="#3A3A3A" stroke-width="0.15" stroke-linecap="round" stroke-linejoin="round"/>
<path opacity="0.4" d="M4.19485 16.96C4.59801 16.96 4.92484 16.6332 4.92484 16.23C4.92484 15.8268 4.59801 15.5 4.19485 15.5C3.79168 15.5 3.46484 15.8268 3.46484 16.23C3.46484 16.6332 3.79168 16.96 4.19485 16.96Z" stroke="#3A3A3A" stroke-width="0.15" stroke-linecap="round" stroke-linejoin="round"/>
<path opacity="0.7" d="M4.19407 16.7602C4.48678 16.7602 4.72407 16.5229 4.72407 16.2302C4.72407 15.9375 4.48678 15.7002 4.19407 15.7002C3.90136 15.7002 3.66406 15.9375 3.66406 16.2302C3.66406 16.5229 3.90136 16.7602 4.19407 16.7602Z" fill="#3A3A3A" stroke="#3A3A3A" stroke-width="0.15" stroke-linecap="round" stroke-linejoin="round"/>
<path opacity="0.8" d="M4.19407 16.7602C4.48678 16.7602 4.72407 16.5229 4.72407 16.2302C4.72407 15.9375 4.48678 15.7002 4.19407 15.7002C3.90136 15.7002 3.66406 15.9375 3.66406 16.2302C3.66406 16.5229 3.90136 16.7602 4.19407 16.7602Z" stroke="#3A3A3A" stroke-width="0.15" stroke-linecap="round" stroke-linejoin="round"/>
</svg>
