<svg width="6" height="19" viewBox="0 0 6 19" fill="none" xmlns="http://www.w3.org/2000/svg">
<path opacity="0.4" d="M3.09328 16.1602C3.49644 16.1602 3.82328 15.8334 3.82328 15.4302C3.82328 15.027 3.49644 14.7002 3.09328 14.7002C2.69011 14.7002 2.36328 15.027 2.36328 15.4302C2.36328 15.8334 2.69011 16.1602 3.09328 16.1602Z" fill="#3A3A3A" stroke="#3A3A3A" stroke-width="0.15" stroke-linecap="round" stroke-linejoin="round"/>
<path opacity="0.4" d="M3.09328 16.1602C3.49644 16.1602 3.82328 15.8334 3.82328 15.4302C3.82328 15.027 3.49644 14.7002 3.09328 14.7002C2.69011 14.7002 2.36328 15.027 2.36328 15.4302C2.36328 15.8334 2.69011 16.1602 3.09328 16.1602Z" stroke="#3A3A3A" stroke-width="0.15" stroke-linecap="round" stroke-linejoin="round"/>
<path opacity="0.7" d="M3.0925 15.9604C3.38521 15.9604 3.62251 15.7231 3.62251 15.4304C3.62251 15.1377 3.38521 14.9004 3.0925 14.9004C2.79979 14.9004 2.5625 15.1377 2.5625 15.4304C2.5625 15.7231 2.79979 15.9604 3.0925 15.9604Z" fill="#3A3A3A" stroke="#3A3A3A" stroke-width="0.15" stroke-linecap="round" stroke-linejoin="round"/>
<path opacity="0.8" d="M3.0925 15.9604C3.38521 15.9604 3.62251 15.7231 3.62251 15.4304C3.62251 15.1377 3.38521 14.9004 3.0925 14.9004C2.79979 14.9004 2.5625 15.1377 2.5625 15.4304C2.5625 15.7231 2.79979 15.9604 3.0925 15.9604Z" stroke="#3A3A3A" stroke-width="0.15" stroke-linecap="round" stroke-linejoin="round"/>
</svg>
