<svg width="7" height="22" viewBox="0 0 7 22" fill="none" xmlns="http://www.w3.org/2000/svg">
<path opacity="0.4" d="M3.91359 18.2305C4.31676 18.2305 4.64359 17.9037 4.64359 17.5005C4.64359 17.0973 4.31676 16.7705 3.91359 16.7705C3.51043 16.7705 3.18359 17.0973 3.18359 17.5005C3.18359 17.9037 3.51043 18.2305 3.91359 18.2305Z" fill="#3A3A3A" stroke="#3A3A3A" stroke-width="0.15" stroke-linecap="round" stroke-linejoin="round"/>
<path opacity="0.4" d="M3.91359 18.2305C4.31676 18.2305 4.64359 17.9037 4.64359 17.5005C4.64359 17.0973 4.31676 16.7705 3.91359 16.7705C3.51043 16.7705 3.18359 17.0973 3.18359 17.5005C3.18359 17.9037 3.51043 18.2305 3.91359 18.2305Z" stroke="#3A3A3A" stroke-width="0.15" stroke-linecap="round" stroke-linejoin="round"/>
<path opacity="0.7" d="M3.91282 18.0307C4.20553 18.0307 4.44281 17.7934 4.44281 17.5007C4.44281 17.208 4.20553 16.9707 3.91282 16.9707C3.6201 16.9707 3.38281 17.208 3.38281 17.5007C3.38281 17.7934 3.6201 18.0307 3.91282 18.0307Z" fill="#3A3A3A" stroke="#3A3A3A" stroke-width="0.15" stroke-linecap="round" stroke-linejoin="round"/>
<path opacity="0.8" d="M3.91282 18.0307C4.20553 18.0307 4.44281 17.7934 4.44281 17.5007C4.44281 17.208 4.20553 16.9707 3.91282 16.9707C3.6201 16.9707 3.38281 17.208 3.38281 17.5007C3.38281 17.7934 3.6201 18.0307 3.91282 18.0307Z" stroke="#3A3A3A" stroke-width="0.15" stroke-linecap="round" stroke-linejoin="round"/>
</svg>
