<svg width="11" height="20" viewBox="0 0 11 20" fill="none" xmlns="http://www.w3.org/2000/svg">
<path opacity="0.4" d="M5.75641 17.17C6.27556 17.17 6.69641 16.7492 6.69641 16.23C6.69641 15.7109 6.27556 15.29 5.75641 15.29C5.23726 15.29 4.81641 15.7109 4.81641 16.23C4.81641 16.7492 5.23726 17.17 5.75641 17.17Z" fill="#3A3A3A" stroke="#3A3A3A" stroke-width="0.15" stroke-linecap="round" stroke-linejoin="round"/>
<path opacity="0.4" d="M5.75641 17.17C6.27556 17.17 6.69641 16.7492 6.69641 16.23C6.69641 15.7109 6.27556 15.29 5.75641 15.29C5.23726 15.29 4.81641 15.7109 4.81641 16.23C4.81641 16.7492 5.23726 17.17 5.75641 17.17Z" stroke="#3A3A3A" stroke-width="0.15" stroke-linecap="round" stroke-linejoin="round"/>
<path opacity="0.7" d="M5.75813 16.9098C6.13368 16.9098 6.43813 16.6054 6.43813 16.2298C6.43813 15.8543 6.13368 15.5498 5.75813 15.5498C5.38257 15.5498 5.07812 15.8543 5.07812 16.2298C5.07812 16.6054 5.38257 16.9098 5.75813 16.9098Z" fill="#3A3A3A" stroke="#3A3A3A" stroke-width="0.15" stroke-linecap="round" stroke-linejoin="round"/>
<path opacity="0.8" d="M5.75813 16.9098C6.13368 16.9098 6.43813 16.6054 6.43813 16.2298C6.43813 15.8543 6.13368 15.5498 5.75813 15.5498C5.38257 15.5498 5.07812 15.8543 5.07812 16.2298C5.07812 16.6054 5.38257 16.9098 5.75813 16.9098Z" stroke="#3A3A3A" stroke-width="0.15" stroke-linecap="round" stroke-linejoin="round"/>
</svg>
