<svg width="14" height="20" viewBox="0 0 14 20" fill="none" xmlns="http://www.w3.org/2000/svg">
<path opacity="0.4" d="M7.99469 16.5704C8.51384 16.5704 8.93469 16.1496 8.93469 15.6304C8.93469 15.1113 8.51384 14.6904 7.99469 14.6904C7.47554 14.6904 7.05469 15.1113 7.05469 15.6304C7.05469 16.1496 7.47554 16.5704 7.99469 16.5704Z" fill="#3A3A3A" stroke="#3A3A3A" stroke-width="0.15" stroke-linecap="round" stroke-linejoin="round"/>
<path opacity="0.4" d="M7.99469 16.5704C8.51384 16.5704 8.93469 16.1496 8.93469 15.6304C8.93469 15.1113 8.51384 14.6904 7.99469 14.6904C7.47554 14.6904 7.05469 15.1113 7.05469 15.6304C7.05469 16.1496 7.47554 16.5704 7.99469 16.5704Z" stroke="#3A3A3A" stroke-width="0.15" stroke-linecap="round" stroke-linejoin="round"/>
<path opacity="0.7" d="M7.99641 16.3102C8.37196 16.3102 8.6764 16.0057 8.6764 15.6302C8.6764 15.2546 8.37196 14.9502 7.99641 14.9502C7.62085 14.9502 7.31641 15.2546 7.31641 15.6302C7.31641 16.0057 7.62085 16.3102 7.99641 16.3102Z" fill="#3A3A3A" stroke="#3A3A3A" stroke-width="0.15" stroke-linecap="round" stroke-linejoin="round"/>
<path opacity="0.8" d="M7.99641 16.3102C8.37196 16.3102 8.6764 16.0057 8.6764 15.6302C8.6764 15.2546 8.37196 14.9502 7.99641 14.9502C7.62085 14.9502 7.31641 15.2546 7.31641 15.6302C7.31641 16.0057 7.62085 16.3102 7.99641 16.3102Z" stroke="#3A3A3A" stroke-width="0.15" stroke-linecap="round" stroke-linejoin="round"/>
</svg>
