<svg width="8" height="20" viewBox="0 0 8 20" fill="none" xmlns="http://www.w3.org/2000/svg">
<path opacity="0.4" d="M3.54641 16.96C3.94958 16.96 4.27641 16.6332 4.27641 16.23C4.27641 15.8268 3.94958 15.5 3.54641 15.5C3.14324 15.5 2.81641 15.8268 2.81641 16.23C2.81641 16.6332 3.14324 16.96 3.54641 16.96Z" fill="#3A3A3A" stroke="#3A3A3A" stroke-width="0.15" stroke-linecap="round" stroke-linejoin="round"/>
<path opacity="0.4" d="M3.54641 16.96C3.94958 16.96 4.27641 16.6332 4.27641 16.23C4.27641 15.8268 3.94958 15.5 3.54641 15.5C3.14324 15.5 2.81641 15.8268 2.81641 16.23C2.81641 16.6332 3.14324 16.96 3.54641 16.96Z" stroke="#3A3A3A" stroke-width="0.15" stroke-linecap="round" stroke-linejoin="round"/>
<path opacity="0.7" d="M3.54562 16.7602C3.83833 16.7602 4.07562 16.5229 4.07562 16.2302C4.07562 15.9375 3.83833 15.7002 3.54562 15.7002C3.25291 15.7002 3.01562 15.9375 3.01562 16.2302C3.01562 16.5229 3.25291 16.7602 3.54562 16.7602Z" fill="#3A3A3A" stroke="#3A3A3A" stroke-width="0.15" stroke-linecap="round" stroke-linejoin="round"/>
<path opacity="0.8" d="M3.54562 16.7602C3.83833 16.7602 4.07562 16.5229 4.07562 16.2302C4.07562 15.9375 3.83833 15.7002 3.54562 15.7002C3.25291 15.7002 3.01562 15.9375 3.01562 16.2302C3.01562 16.5229 3.25291 16.7602 3.54562 16.7602Z" stroke="#3A3A3A" stroke-width="0.15" stroke-linecap="round" stroke-linejoin="round"/>
</svg>
