<svg width="7" height="19" viewBox="0 0 7 19" fill="none" xmlns="http://www.w3.org/2000/svg">
<path opacity="0.4" d="M3.74562 16.3301C4.14879 16.3301 4.47562 16.0033 4.47562 15.6001C4.47562 15.1969 4.14879 14.8701 3.74562 14.8701C3.34245 14.8701 3.01562 15.1969 3.01562 15.6001C3.01562 16.0033 3.34245 16.3301 3.74562 16.3301Z" fill="#3A3A3A" stroke="#3A3A3A" stroke-width="0.15" stroke-linecap="round" stroke-linejoin="round"/>
<path opacity="0.4" d="M3.74562 16.3301C4.14879 16.3301 4.47562 16.0033 4.47562 15.6001C4.47562 15.1969 4.14879 14.8701 3.74562 14.8701C3.34245 14.8701 3.01562 15.1969 3.01562 15.6001C3.01562 16.0033 3.34245 16.3301 3.74562 16.3301Z" stroke="#3A3A3A" stroke-width="0.15" stroke-linecap="round" stroke-linejoin="round"/>
<path opacity="0.7" d="M3.74484 16.1303C4.03755 16.1303 4.27484 15.893 4.27484 15.6003C4.27484 15.3076 4.03755 15.0703 3.74484 15.0703C3.45213 15.0703 3.21484 15.3076 3.21484 15.6003C3.21484 15.893 3.45213 16.1303 3.74484 16.1303Z" fill="#3A3A3A" stroke="#3A3A3A" stroke-width="0.15" stroke-linecap="round" stroke-linejoin="round"/>
<path opacity="0.8" d="M3.74484 16.1303C4.03755 16.1303 4.27484 15.893 4.27484 15.6003C4.27484 15.3076 4.03755 15.0703 3.74484 15.0703C3.45213 15.0703 3.21484 15.3076 3.21484 15.6003C3.21484 15.893 3.45213 16.1303 3.74484 16.1303Z" stroke="#3A3A3A" stroke-width="0.15" stroke-linecap="round" stroke-linejoin="round"/>
</svg>
