<svg width="7" height="22" viewBox="0 0 7 22" fill="none" xmlns="http://www.w3.org/2000/svg">
<path opacity="0.4" d="M3.96437 18.0704C4.36754 18.0704 4.69437 17.7435 4.69437 17.3404C4.69437 16.9372 4.36754 16.6104 3.96437 16.6104C3.5612 16.6104 3.23438 16.9372 3.23438 17.3404C3.23438 17.7435 3.5612 18.0704 3.96437 18.0704Z" fill="#3A3A3A" stroke="#3A3A3A" stroke-width="0.15" stroke-linecap="round" stroke-linejoin="round"/>
<path opacity="0.4" d="M3.96437 18.0704C4.36754 18.0704 4.69437 17.7435 4.69437 17.3404C4.69437 16.9372 4.36754 16.6104 3.96437 16.6104C3.5612 16.6104 3.23438 16.9372 3.23438 17.3404C3.23438 17.7435 3.5612 18.0704 3.96437 18.0704Z" stroke="#3A3A3A" stroke-width="0.15" stroke-linecap="round" stroke-linejoin="round"/>
<path opacity="0.7" d="M3.96359 17.8705C4.2563 17.8705 4.49359 17.6333 4.49359 17.3405C4.49359 17.0478 4.2563 16.8105 3.96359 16.8105C3.67088 16.8105 3.43359 17.0478 3.43359 17.3405C3.43359 17.6333 3.67088 17.8705 3.96359 17.8705Z" fill="#3A3A3A" stroke="#3A3A3A" stroke-width="0.15" stroke-linecap="round" stroke-linejoin="round"/>
<path opacity="0.8" d="M3.96359 17.8705C4.2563 17.8705 4.49359 17.6333 4.49359 17.3405C4.49359 17.0478 4.2563 16.8105 3.96359 16.8105C3.67088 16.8105 3.43359 17.0478 3.43359 17.3405C3.43359 17.6333 3.67088 17.8705 3.96359 17.8705Z" stroke="#3A3A3A" stroke-width="0.15" stroke-linecap="round" stroke-linejoin="round"/>
</svg>
