<svg width="11" height="20" viewBox="0 0 11 20" fill="none" xmlns="http://www.w3.org/2000/svg">
<path opacity="0.4" d="M4.97514 17.0099C5.49429 17.0099 5.91515 16.589 5.91515 16.0699C5.91515 15.5507 5.49429 15.1299 4.97514 15.1299C4.456 15.1299 4.03516 15.5507 4.03516 16.0699C4.03516 16.589 4.456 17.0099 4.97514 17.0099Z" fill="#3A3A3A" stroke="#3A3A3A" stroke-width="0.15" stroke-linecap="round" stroke-linejoin="round"/>
<path opacity="0.4" d="M4.97514 17.0099C5.49429 17.0099 5.91515 16.589 5.91515 16.0699C5.91515 15.5507 5.49429 15.1299 4.97514 15.1299C4.456 15.1299 4.03516 15.5507 4.03516 16.0699C4.03516 16.589 4.456 17.0099 4.97514 17.0099Z" stroke="#3A3A3A" stroke-width="0.15" stroke-linecap="round" stroke-linejoin="round"/>
<path opacity="0.7" d="M4.97687 16.7496C5.35242 16.7496 5.65688 16.4452 5.65688 16.0696C5.65688 15.6941 5.35242 15.3896 4.97687 15.3896C4.60131 15.3896 4.29688 15.6941 4.29688 16.0696C4.29688 16.4452 4.60131 16.7496 4.97687 16.7496Z" fill="#3A3A3A" stroke="#3A3A3A" stroke-width="0.15" stroke-linecap="round" stroke-linejoin="round"/>
<path opacity="0.8" d="M4.97687 16.7496C5.35242 16.7496 5.65688 16.4452 5.65688 16.0696C5.65688 15.6941 5.35242 15.3896 4.97687 15.3896C4.60131 15.3896 4.29688 15.6941 4.29688 16.0696C4.29688 16.4452 4.60131 16.7496 4.97687 16.7496Z" stroke="#3A3A3A" stroke-width="0.15" stroke-linecap="round" stroke-linejoin="round"/>
</svg>
