<svg width="14" height="20" viewBox="0 0 14 20" fill="none" xmlns="http://www.w3.org/2000/svg">
<path opacity="0.4" d="M5.81595 16.6504C6.35719 16.6504 6.79594 16.2117 6.79594 15.6704C6.79594 15.1292 6.35719 14.6904 5.81595 14.6904C5.27471 14.6904 4.83594 15.1292 4.83594 15.6704C4.83594 16.2117 5.27471 16.6504 5.81595 16.6504Z" fill="#3A3A3A" stroke="#3A3A3A" stroke-width="0.15" stroke-linecap="round" stroke-linejoin="round"/>
<path opacity="0.4" d="M5.81595 16.6504C6.35719 16.6504 6.79594 16.2117 6.79594 15.6704C6.79594 15.1292 6.35719 14.6904 5.81595 14.6904C5.27471 14.6904 4.83594 15.1292 4.83594 15.6704C4.83594 16.2117 5.27471 16.6504 5.81595 16.6504Z" stroke="#3A3A3A" stroke-width="0.15" stroke-linecap="round" stroke-linejoin="round"/>
<path opacity="0.7" d="M5.81548 16.38C6.2076 16.38 6.52547 16.0621 6.52547 15.67C6.52547 15.2778 6.2076 14.96 5.81548 14.96C5.42335 14.96 5.10547 15.2778 5.10547 15.67C5.10547 16.0621 5.42335 16.38 5.81548 16.38Z" fill="#3A3A3A" stroke="#3A3A3A" stroke-width="0.15" stroke-linecap="round" stroke-linejoin="round"/>
<path opacity="0.8" d="M5.81548 16.38C6.2076 16.38 6.52547 16.0621 6.52547 15.67C6.52547 15.2778 6.2076 14.96 5.81548 14.96C5.42335 14.96 5.10547 15.2778 5.10547 15.67C5.10547 16.0621 5.42335 16.38 5.81548 16.38Z" stroke="#3A3A3A" stroke-width="0.15" stroke-linecap="round" stroke-linejoin="round"/>
</svg>
