<svg width="5" height="19" viewBox="0 0 5 19" fill="none" xmlns="http://www.w3.org/2000/svg">
<path opacity="0.4" d="M2.61672 5.45023C3.01989 5.45023 3.34672 5.1234 3.34672 4.72023C3.34672 4.31706 3.01989 3.99023 2.61672 3.99023C2.21355 3.99023 1.88672 4.31706 1.88672 4.72023C1.88672 5.1234 2.21355 5.45023 2.61672 5.45023Z" fill="#3A3A3A" stroke="#3A3A3A" stroke-width="0.15" stroke-linecap="round" stroke-linejoin="round"/>
<path opacity="0.4" d="M2.61672 5.45023C3.01989 5.45023 3.34672 5.1234 3.34672 4.72023C3.34672 4.31706 3.01989 3.99023 2.61672 3.99023C2.21355 3.99023 1.88672 4.31706 1.88672 4.72023C1.88672 5.1234 2.21355 5.45023 2.61672 5.45023Z" stroke="#3A3A3A" stroke-width="0.15" stroke-linecap="round" stroke-linejoin="round"/>
<path opacity="0.7" d="M2.61594 5.25043C2.90865 5.25043 3.14594 5.01314 3.14594 4.72043C3.14594 4.42772 2.90865 4.19043 2.61594 4.19043C2.32323 4.19043 2.08594 4.42772 2.08594 4.72043C2.08594 5.01314 2.32323 5.25043 2.61594 5.25043Z" fill="#3A3A3A" stroke="#3A3A3A" stroke-width="0.15" stroke-linecap="round" stroke-linejoin="round"/>
<path opacity="0.8" d="M2.61594 5.25043C2.90865 5.25043 3.14594 5.01314 3.14594 4.72043C3.14594 4.42772 2.90865 4.19043 2.61594 4.19043C2.32323 4.19043 2.08594 4.42772 2.08594 4.72043C2.08594 5.01314 2.32323 5.25043 2.61594 5.25043Z" stroke="#3A3A3A" stroke-width="0.15" stroke-linecap="round" stroke-linejoin="round"/>
</svg>
