<svg width="6" height="19" viewBox="0 0 6 19" fill="none" xmlns="http://www.w3.org/2000/svg">
<path opacity="0.4" d="M2.74562 5.45023C3.14879 5.45023 3.47562 5.1234 3.47562 4.72023C3.47562 4.31706 3.14879 3.99023 2.74562 3.99023C2.34245 3.99023 2.01562 4.31706 2.01562 4.72023C2.01562 5.1234 2.34245 5.45023 2.74562 5.45023Z" fill="#3A3A3A" stroke="#3A3A3A" stroke-width="0.15" stroke-linecap="round" stroke-linejoin="round"/>
<path opacity="0.4" d="M2.74562 5.45023C3.14879 5.45023 3.47562 5.1234 3.47562 4.72023C3.47562 4.31706 3.14879 3.99023 2.74562 3.99023C2.34245 3.99023 2.01562 4.31706 2.01562 4.72023C2.01562 5.1234 2.34245 5.45023 2.74562 5.45023Z" stroke="#3A3A3A" stroke-width="0.15" stroke-linecap="round" stroke-linejoin="round"/>
<path opacity="0.7" d="M2.74484 5.25043C3.03755 5.25043 3.27484 5.01314 3.27484 4.72043C3.27484 4.42772 3.03755 4.19043 2.74484 4.19043C2.45213 4.19043 2.21484 4.42772 2.21484 4.72043C2.21484 5.01314 2.45213 5.25043 2.74484 5.25043Z" fill="#3A3A3A" stroke="#3A3A3A" stroke-width="0.15" stroke-linecap="round" stroke-linejoin="round"/>
<path opacity="0.8" d="M2.74484 5.25043C3.03755 5.25043 3.27484 5.01314 3.27484 4.72043C3.27484 4.42772 3.03755 4.19043 2.74484 4.19043C2.45213 4.19043 2.21484 4.42772 2.21484 4.72043C2.21484 5.01314 2.45213 5.25043 2.74484 5.25043Z" stroke="#3A3A3A" stroke-width="0.15" stroke-linecap="round" stroke-linejoin="round"/>
</svg>
