<svg width="7" height="23" viewBox="0 0 7 23" fill="none" xmlns="http://www.w3.org/2000/svg">
<path opacity="0.4" d="M3.63625 6.50004C4.03941 6.50004 4.36624 6.17321 4.36624 5.77004C4.36624 5.36687 4.03941 5.04004 3.63625 5.04004C3.23308 5.04004 2.90625 5.36687 2.90625 5.77004C2.90625 6.17321 3.23308 6.50004 3.63625 6.50004Z" fill="#3A3A3A" stroke="#3A3A3A" stroke-width="0.15" stroke-linecap="round" stroke-linejoin="round"/>
<path opacity="0.4" d="M3.63625 6.50004C4.03941 6.50004 4.36624 6.17321 4.36624 5.77004C4.36624 5.36687 4.03941 5.04004 3.63625 5.04004C3.23308 5.04004 2.90625 5.36687 2.90625 5.77004C2.90625 6.17321 3.23308 6.50004 3.63625 6.50004Z" stroke="#3A3A3A" stroke-width="0.15" stroke-linecap="round" stroke-linejoin="round"/>
<path opacity="0.7" d="M3.63547 6.30023C3.92818 6.30023 4.16547 6.06294 4.16547 5.77023C4.16547 5.47752 3.92818 5.24023 3.63547 5.24023C3.34276 5.24023 3.10547 5.47752 3.10547 5.77023C3.10547 6.06294 3.34276 6.30023 3.63547 6.30023Z" fill="#3A3A3A" stroke="#3A3A3A" stroke-width="0.15" stroke-linecap="round" stroke-linejoin="round"/>
<path opacity="0.8" d="M3.63547 6.30023C3.92818 6.30023 4.16547 6.06294 4.16547 5.77023C4.16547 5.47752 3.92818 5.24023 3.63547 5.24023C3.34276 5.24023 3.10547 5.47752 3.10547 5.77023C3.10547 6.06294 3.34276 6.30023 3.63547 6.30023Z" stroke="#3A3A3A" stroke-width="0.15" stroke-linecap="round" stroke-linejoin="round"/>
</svg>
