<svg width="12" height="19" viewBox="0 0 12 19" fill="none" xmlns="http://www.w3.org/2000/svg">
<path opacity="0.4" d="M6.57657 6.12969C7.18408 6.12969 7.67657 5.6372 7.67657 5.02969C7.67657 4.42217 7.18408 3.92969 6.57657 3.92969C5.96906 3.92969 5.47656 4.42217 5.47656 5.02969C5.47656 5.6372 5.96906 6.12969 6.57657 6.12969Z" fill="#3A3A3A" stroke="#3A3A3A" stroke-width="0.15" stroke-linecap="round" stroke-linejoin="round"/>
<path opacity="0.4" d="M6.57657 6.12969C7.18408 6.12969 7.67657 5.6372 7.67657 5.02969C7.67657 4.42217 7.18408 3.92969 6.57657 3.92969C5.96906 3.92969 5.47656 4.42217 5.47656 5.02969C5.47656 5.6372 5.96906 6.12969 6.57657 6.12969Z" stroke="#3A3A3A" stroke-width="0.15" stroke-linecap="round" stroke-linejoin="round"/>
<path opacity="0.7" d="M6.57515 5.81925C7.01145 5.81925 7.36514 5.46556 7.36514 5.02925C7.36514 4.59295 7.01145 4.23926 6.57515 4.23926C6.13884 4.23926 5.78516 4.59295 5.78516 5.02925C5.78516 5.46556 6.13884 5.81925 6.57515 5.81925Z" fill="#3A3A3A" stroke="#3A3A3A" stroke-width="0.15" stroke-linecap="round" stroke-linejoin="round"/>
<path opacity="0.8" d="M6.57515 5.81925C7.01145 5.81925 7.36514 5.46556 7.36514 5.02925C7.36514 4.59295 7.01145 4.23926 6.57515 4.23926C6.13884 4.23926 5.78516 4.59295 5.78516 5.02925C5.78516 5.46556 6.13884 5.81925 6.57515 5.81925Z" stroke="#3A3A3A" stroke-width="0.15" stroke-linecap="round" stroke-linejoin="round"/>
</svg>
