<svg width="13" height="20" viewBox="0 0 13 20" fill="none" xmlns="http://www.w3.org/2000/svg">
<path opacity="0.4" d="M6.21329 6.40019C6.8208 6.40019 7.31329 5.90771 7.31329 5.30019C7.31329 4.69268 6.8208 4.2002 6.21329 4.2002C5.60577 4.2002 5.11328 4.69268 5.11328 5.30019C5.11328 5.90771 5.60577 6.40019 6.21329 6.40019Z" fill="#3A3A3A" stroke="#3A3A3A" stroke-width="0.15" stroke-linecap="round" stroke-linejoin="round"/>
<path opacity="0.4" d="M6.21329 6.40019C6.8208 6.40019 7.31329 5.90771 7.31329 5.30019C7.31329 4.69268 6.8208 4.2002 6.21329 4.2002C5.60577 4.2002 5.11328 4.69268 5.11328 5.30019C5.11328 5.90771 5.60577 6.40019 6.21329 6.40019Z" stroke="#3A3A3A" stroke-width="0.15" stroke-linecap="round" stroke-linejoin="round"/>
<path opacity="0.7" d="M6.21187 6.08977C6.64817 6.08977 7.00186 5.73607 7.00186 5.29977C7.00186 4.86346 6.64817 4.50977 6.21187 4.50977C5.77556 4.50977 5.42188 4.86346 5.42188 5.29977C5.42188 5.73607 5.77556 6.08977 6.21187 6.08977Z" fill="#3A3A3A" stroke="#3A3A3A" stroke-width="0.15" stroke-linecap="round" stroke-linejoin="round"/>
<path opacity="0.8" d="M6.21187 6.08977C6.64817 6.08977 7.00186 5.73607 7.00186 5.29977C7.00186 4.86346 6.64817 4.50977 6.21187 4.50977C5.77556 4.50977 5.42188 4.86346 5.42188 5.29977C5.42188 5.73607 5.77556 6.08977 6.21187 6.08977Z" stroke="#3A3A3A" stroke-width="0.15" stroke-linecap="round" stroke-linejoin="round"/>
</svg>
