<svg width="5" height="19" viewBox="0 0 5 19" fill="none" xmlns="http://www.w3.org/2000/svg">
<path opacity="0.4" d="M2.16359 5.45023C2.56676 5.45023 2.89359 5.1234 2.89359 4.72023C2.89359 4.31706 2.56676 3.99023 2.16359 3.99023C1.76042 3.99023 1.43359 4.31706 1.43359 4.72023C1.43359 5.1234 1.76042 5.45023 2.16359 5.45023Z" fill="#3A3A3A" stroke="#3A3A3A" stroke-width="0.15" stroke-linecap="round" stroke-linejoin="round"/>
<path opacity="0.4" d="M2.16359 5.45023C2.56676 5.45023 2.89359 5.1234 2.89359 4.72023C2.89359 4.31706 2.56676 3.99023 2.16359 3.99023C1.76042 3.99023 1.43359 4.31706 1.43359 4.72023C1.43359 5.1234 1.76042 5.45023 2.16359 5.45023Z" stroke="#3A3A3A" stroke-width="0.15" stroke-linecap="round" stroke-linejoin="round"/>
<path opacity="0.7" d="M2.16281 5.25043C2.45552 5.25043 2.69282 5.01314 2.69282 4.72043C2.69282 4.42772 2.45552 4.19043 2.16281 4.19043C1.8701 4.19043 1.63281 4.42772 1.63281 4.72043C1.63281 5.01314 1.8701 5.25043 2.16281 5.25043Z" fill="#3A3A3A" stroke="#3A3A3A" stroke-width="0.15" stroke-linecap="round" stroke-linejoin="round"/>
<path opacity="0.8" d="M2.16281 5.25043C2.45552 5.25043 2.69282 5.01314 2.69282 4.72043C2.69282 4.42772 2.45552 4.19043 2.16281 4.19043C1.8701 4.19043 1.63281 4.42772 1.63281 4.72043C1.63281 5.01314 1.8701 5.25043 2.16281 5.25043Z" stroke="#3A3A3A" stroke-width="0.15" stroke-linecap="round" stroke-linejoin="round"/>
</svg>
