<svg width="6" height="19" viewBox="0 0 6 19" fill="none" xmlns="http://www.w3.org/2000/svg">
<path opacity="0.4" d="M3.05421 5.45023C3.45738 5.45023 3.78422 5.1234 3.78422 4.72023C3.78422 4.31706 3.45738 3.99023 3.05421 3.99023C2.65105 3.99023 2.32422 4.31706 2.32422 4.72023C2.32422 5.1234 2.65105 5.45023 3.05421 5.45023Z" fill="#3A3A3A" stroke="#3A3A3A" stroke-width="0.15" stroke-linecap="round" stroke-linejoin="round"/>
<path opacity="0.4" d="M3.05421 5.45023C3.45738 5.45023 3.78422 5.1234 3.78422 4.72023C3.78422 4.31706 3.45738 3.99023 3.05421 3.99023C2.65105 3.99023 2.32422 4.31706 2.32422 4.72023C2.32422 5.1234 2.65105 5.45023 3.05421 5.45023Z" stroke="#3A3A3A" stroke-width="0.15" stroke-linecap="round" stroke-linejoin="round"/>
<path opacity="0.7" d="M3.05344 5.25043C3.34615 5.25043 3.58344 5.01314 3.58344 4.72043C3.58344 4.42772 3.34615 4.19043 3.05344 4.19043C2.76073 4.19043 2.52344 4.42772 2.52344 4.72043C2.52344 5.01314 2.76073 5.25043 3.05344 5.25043Z" fill="#3A3A3A" stroke="#3A3A3A" stroke-width="0.15" stroke-linecap="round" stroke-linejoin="round"/>
<path opacity="0.8" d="M3.05344 5.25043C3.34615 5.25043 3.58344 5.01314 3.58344 4.72043C3.58344 4.42772 3.34615 4.19043 3.05344 4.19043C2.76073 4.19043 2.52344 4.42772 2.52344 4.72043C2.52344 5.01314 2.76073 5.25043 3.05344 5.25043Z" stroke="#3A3A3A" stroke-width="0.15" stroke-linecap="round" stroke-linejoin="round"/>
</svg>
