<svg width="6" height="23" viewBox="0 0 6 23" fill="none" xmlns="http://www.w3.org/2000/svg">
<path opacity="0.4" d="M2.99562 6.46C3.39879 6.46 3.72562 6.13317 3.72562 5.73C3.72562 5.32684 3.39879 5 2.99562 5C2.59246 5 2.26562 5.32684 2.26562 5.73C2.26562 6.13317 2.59246 6.46 2.99562 6.46Z" fill="#3A3A3A" stroke="#3A3A3A" stroke-width="0.15" stroke-linecap="round" stroke-linejoin="round"/>
<path opacity="0.4" d="M2.99562 6.46C3.39879 6.46 3.72562 6.13317 3.72562 5.73C3.72562 5.32684 3.39879 5 2.99562 5C2.59246 5 2.26562 5.32684 2.26562 5.73C2.26562 6.13317 2.59246 6.46 2.99562 6.46Z" stroke="#3A3A3A" stroke-width="0.15" stroke-linecap="round" stroke-linejoin="round"/>
<path opacity="0.7" d="M2.99484 6.26019C3.28755 6.26019 3.52485 6.0229 3.52485 5.73019C3.52485 5.43748 3.28755 5.2002 2.99484 5.2002C2.70213 5.2002 2.46484 5.43748 2.46484 5.73019C2.46484 6.0229 2.70213 6.26019 2.99484 6.26019Z" fill="#3A3A3A" stroke="#3A3A3A" stroke-width="0.15" stroke-linecap="round" stroke-linejoin="round"/>
<path opacity="0.8" d="M2.99484 6.26019C3.28755 6.26019 3.52485 6.0229 3.52485 5.73019C3.52485 5.43748 3.28755 5.2002 2.99484 5.2002C2.70213 5.2002 2.46484 5.43748 2.46484 5.73019C2.46484 6.0229 2.70213 6.26019 2.99484 6.26019Z" stroke="#3A3A3A" stroke-width="0.15" stroke-linecap="round" stroke-linejoin="round"/>
</svg>
