<svg width="12" height="19" viewBox="0 0 12 19" fill="none" xmlns="http://www.w3.org/2000/svg">
<path opacity="0.4" d="M5.22515 5.96984C5.7443 5.96984 6.16516 5.54899 6.16516 5.02984C6.16516 4.51069 5.7443 4.08984 5.22515 4.08984C4.70601 4.08984 4.28516 4.51069 4.28516 5.02984C4.28516 5.54899 4.70601 5.96984 5.22515 5.96984Z" fill="#3A3A3A" stroke="#3A3A3A" stroke-width="0.15" stroke-linecap="round" stroke-linejoin="round"/>
<path opacity="0.4" d="M5.22515 5.96984C5.7443 5.96984 6.16516 5.54899 6.16516 5.02984C6.16516 4.51069 5.7443 4.08984 5.22515 4.08984C4.70601 4.08984 4.28516 4.51069 4.28516 5.02984C4.28516 5.54899 4.70601 5.96984 5.22515 5.96984Z" stroke="#3A3A3A" stroke-width="0.15" stroke-linecap="round" stroke-linejoin="round"/>
<path opacity="0.7" d="M5.22687 5.70961C5.60243 5.70961 5.90687 5.40516 5.90687 5.02961C5.90687 4.65406 5.60243 4.34961 5.22687 4.34961C4.85132 4.34961 4.54688 4.65406 4.54688 5.02961C4.54688 5.40516 4.85132 5.70961 5.22687 5.70961Z" fill="#3A3A3A" stroke="#3A3A3A" stroke-width="0.15" stroke-linecap="round" stroke-linejoin="round"/>
<path opacity="0.8" d="M5.22687 5.70961C5.60243 5.70961 5.90687 5.40516 5.90687 5.02961C5.90687 4.65406 5.60243 4.34961 5.22687 4.34961C4.85132 4.34961 4.54688 4.65406 4.54688 5.02961C4.54688 5.40516 4.85132 5.70961 5.22687 5.70961Z" stroke="#3A3A3A" stroke-width="0.15" stroke-linecap="round" stroke-linejoin="round"/>
</svg>
