<svg width="13" height="20" viewBox="0 0 13 20" fill="none" xmlns="http://www.w3.org/2000/svg">
<path opacity="0.4" d="M6.55328 6.41028C7.07243 6.41028 7.49328 5.98942 7.49328 5.47028C7.49328 4.95113 7.07243 4.53027 6.55328 4.53027C6.03413 4.53027 5.61328 4.95113 5.61328 5.47028C5.61328 5.98942 6.03413 6.41028 6.55328 6.41028Z" fill="#3A3A3A" stroke="#3A3A3A" stroke-width="0.15" stroke-linecap="round" stroke-linejoin="round"/>
<path opacity="0.4" d="M6.55328 6.41028C7.07243 6.41028 7.49328 5.98942 7.49328 5.47028C7.49328 4.95113 7.07243 4.53027 6.55328 4.53027C6.03413 4.53027 5.61328 4.95113 5.61328 5.47028C5.61328 5.98942 6.03413 6.41028 6.55328 6.41028Z" stroke="#3A3A3A" stroke-width="0.15" stroke-linecap="round" stroke-linejoin="round"/>
<path opacity="0.7" d="M6.555 6.15004C6.93055 6.15004 7.235 5.84559 7.235 5.47004C7.235 5.09449 6.93055 4.79004 6.555 4.79004C6.17945 4.79004 5.875 5.09449 5.875 5.47004C5.875 5.84559 6.17945 6.15004 6.555 6.15004Z" fill="#3A3A3A" stroke="#3A3A3A" stroke-width="0.15" stroke-linecap="round" stroke-linejoin="round"/>
<path opacity="0.8" d="M6.555 6.15004C6.93055 6.15004 7.235 5.84559 7.235 5.47004C7.235 5.09449 6.93055 4.79004 6.555 4.79004C6.17945 4.79004 5.875 5.09449 5.875 5.47004C5.875 5.84559 6.17945 6.15004 6.555 6.15004Z" stroke="#3A3A3A" stroke-width="0.15" stroke-linecap="round" stroke-linejoin="round"/>
</svg>
