<svg width="24" height="24" viewBox="0 0 24 24" fill="none" xmlns="http://www.w3.org/2000/svg">
<path fill-rule="evenodd" clip-rule="evenodd" d="M19.7 4C19.8657 4 20 4.13431 20 4.3V19.7C20 19.8657 19.8657 20 19.7 20H4.3C4.13431 20 4 19.8657 4 19.7V4.3C4 4.13431 4.13431 4 4.3 4H19.7ZM10.8077 8.19386C10.7635 8.07719 10.6518 8 10.5271 8H9.38503C9.25948 8 9.1472 8.07819 9.10365 8.19595L6.36717 15.5959C6.29472 15.7919 6.43967 16 6.64855 16H7.41212C7.53891 16 7.652 15.9203 7.69464 15.8009L8.11096 14.6352C8.1536 14.5158 8.2667 14.4361 8.39348 14.4361H11.5105C11.638 14.4361 11.7516 14.5167 11.7937 14.6371L12.1997 15.799C12.2418 15.9194 12.3554 16 12.4829 16H13.3262C13.536 16 13.6811 15.7901 13.6068 15.5939L10.8077 8.19386ZM16.2559 8.3C16.2559 8.13431 16.1215 8 15.9559 8H15.1557C14.99 8 14.8557 8.13431 14.8557 8.3V15.7C14.8557 15.8657 14.99 16 15.1557 16H15.9559C16.1215 16 16.2559 15.8657 16.2559 15.7V8.3ZM9.662 10.1606C9.75458 9.89136 10.135 9.89041 10.2289 10.1592L11.1987 12.9343C11.2668 13.1294 11.122 13.3333 10.9154 13.3333H8.99135C8.78538 13.3333 8.64068 13.1305 8.70765 12.9358L9.662 10.1606ZM21.3333 16.3C21.3333 16.1343 21.4676 16 21.6333 16H23.7C23.8657 16 24 16.1343 24 16.3V18.3667C24 18.5324 23.8657 18.6667 23.7 18.6667H21.6333C21.4676 18.6667 21.3333 18.5324 21.3333 18.3667V16.3ZM5.33333 21.6333C5.33333 21.4676 5.46765 21.3333 5.63333 21.3333H7.7C7.86569 21.3333 8 21.4676 8 21.6333V23.7C8 23.8657 7.86569 24 7.7 24H5.63333C5.46765 24 5.33333 23.8657 5.33333 23.7V21.6333ZM10.6667 21.6333C10.6667 21.4676 10.801 21.3333 10.9667 21.3333H13.0333C13.199 21.3333 13.3333 21.4676 13.3333 21.6333V23.7C13.3333 23.8657 13.199 24 13.0333 24H10.9667C10.801 24 10.6667 23.8657 10.6667 23.7V21.6333ZM5.33333 0.3C5.33333 0.134315 5.46765 0 5.63333 0H7.7C7.86569 0 8 0.134315 8 0.3V2.36667C8 2.53235 7.86569 2.66667 7.7 2.66667H5.63333C5.46765 2.66667 5.33333 2.53235 5.33333 2.36667V0.3ZM16 21.6333C16 21.4676 16.1343 21.3333 16.3 21.3333H18.3667C18.5324 21.3333 18.6667 21.4676 18.6667 21.6333V23.7C18.6667 23.8657 18.5324 24 18.3667 24H16.3C16.1343 24 16 23.8657 16 23.7V21.6333ZM10.6667 0.3C10.6667 0.134315 10.801 0 10.9667 0H13.0333C13.199 0 13.3333 0.134315 13.3333 0.3V2.36667C13.3333 2.53235 13.199 2.66667 13.0333 2.66667H10.9667C10.801 2.66667 10.6667 2.53235 10.6667 2.36667V0.3ZM16 0.3C16 0.134315 16.1343 0 16.3 0H18.3667C18.5324 0 18.6667 0.134315 18.6667 0.3V2.36667C18.6667 2.53235 18.5324 2.66667 18.3667 2.66667H16.3C16.1343 2.66667 16 2.53235 16 2.36667V0.3ZM21.3333 10.9667C21.3333 10.801 21.4676 10.6667 21.6333 10.6667H23.7C23.8657 10.6667 24 10.801 24 10.9667V13.0333C24 13.199 23.8657 13.3333 23.7 13.3333H21.6333C21.4676 13.3333 21.3333 13.199 21.3333 13.0333V10.9667ZM0 16.3C0 16.1343 0.134315 16 0.3 16H2.36667C2.53235 16 2.66667 16.1343 2.66667 16.3V18.3667C2.66667 18.5324 2.53235 18.6667 2.36667 18.6667H0.3C0.134315 18.6667 0 18.5324 0 18.3667V16.3ZM21.3333 5.63333C21.3333 5.46765 21.4676 5.33333 21.6333 5.33333H23.7C23.8657 5.33333 24 5.46765 24 5.63333V7.7C24 7.86569 23.8657 8 23.7 8H21.6333C21.4676 8 21.3333 7.86569 21.3333 7.7V5.63333ZM0 10.9667C0 10.801 0.134315 10.6667 0.3 10.6667H2.36667C2.53235 10.6667 2.66667 10.801 2.66667 10.9667V13.0333C2.66667 13.199 2.53235 13.3333 2.36667 13.3333H0.3C0.134315 13.3333 0 13.199 0 13.0333V10.9667ZM0 5.63333C0 5.46765 0.134315 5.33333 0.3 5.33333H2.36667C2.53235 5.33333 2.66667 5.46765 2.66667 5.63333V7.7C2.66667 7.86569 2.53235 8 2.36667 8H0.3C0.134315 8 0 7.86569 0 7.7V5.63333Z" fill="#0B3777"/>
</svg>
