<svg width="17" height="17" viewBox="0 0 17 17" fill="none" xmlns="http://www.w3.org/2000/svg">
<path d="M5 7.60193L7.40289 10.0048L11.4077 6" stroke="white" stroke-width="1.30087" stroke-linecap="round" stroke-linejoin="round"/>
<path d="M16.0101 8.20646C16.0101 9.00742 15.3212 9.64018 15.097 10.345C14.8727 11.0499 15.0169 12.011 14.5763 12.6118C14.1358 13.2125 13.1907 13.3647 12.5739 13.8052C11.9572 14.2457 11.5487 15.1028 10.8278 15.343C10.107 15.5833 9.30599 15.1348 8.50502 15.1348C7.70406 15.1348 6.9031 15.5753 6.18223 15.351C5.46137 15.1268 5.03685 14.2537 4.43613 13.8132C3.83541 13.3727 2.89828 13.2365 2.43372 12.6198C1.96917 12.003 2.15339 11.0819 1.9131 10.353C1.67281 9.62416 1 9.00742 1 8.20646C1 7.40549 1.68883 6.76472 1.9131 6.05988C2.13737 5.35503 1.99319 4.39387 2.43372 3.79315C2.87425 3.19243 3.81939 3.04825 4.43613 2.59972C5.05287 2.15118 5.46137 1.31016 6.18223 1.06988C6.9031 0.829587 7.72809 1.28614 8.50502 1.28614C9.28196 1.28614 10.107 0.845606 10.8278 1.06988C11.5487 1.29415 11.9732 2.1672 12.5739 2.59972C13.1746 3.03224 14.1278 3.17641 14.5763 3.79315C15.0249 4.40989 14.8567 5.331 15.097 6.05988C15.3372 6.78875 16.0101 7.40549 16.0101 8.20646Z" stroke="white" stroke-width="1.30087" stroke-linecap="round" stroke-linejoin="round"/>
</svg>
