<svg width="20" height="17" viewBox="0 0 20 17" fill="none" xmlns="http://www.w3.org/2000/svg">
<path d="M14.7058 0H4.90195C1.96078 0 0 1.47058 0 4.90195V11.7647C0 15.196 1.96078 16.6666 4.90195 16.6666H14.7058C17.647 16.6666 19.6078 15.196 19.6078 11.7647V4.90195C19.6078 1.47058 17.647 0 14.7058 0ZM4.16666 10.7843C4.16666 11.1862 3.83332 11.5196 3.43136 11.5196C3.0294 11.5196 2.69607 11.1862 2.69607 10.7843V5.88234C2.69607 5.48038 3.0294 5.14705 3.43136 5.14705C3.83332 5.14705 4.16666 5.48038 4.16666 5.88234V10.7843ZM9.8039 11.2745C8.17645 11.2745 6.86273 9.96076 6.86273 8.33331C6.86273 6.70587 8.17645 5.39214 9.8039 5.39214C11.4313 5.39214 12.7451 6.70587 12.7451 8.33331C12.7451 9.96076 11.4313 11.2745 9.8039 11.2745ZM16.9117 10.7843C16.9117 11.1862 16.5784 11.5196 16.1764 11.5196C15.7745 11.5196 15.4411 11.1862 15.4411 10.7843V5.88234C15.4411 5.48038 15.7745 5.14705 16.1764 5.14705C16.5784 5.14705 16.9117 5.48038 16.9117 5.88234V10.7843Z" fill="#5071C8"/>
</svg>
