<svg width="26" height="22" viewBox="0 0 26 22" fill="none" xmlns="http://www.w3.org/2000/svg">
<path d="M15.1667 0H10.8334C4.84976 0 0 4.84976 0 10.8333C0 16.8169 4.84976 21.6666 10.8333 21.6666H15.1666C21.1502 21.6666 26 16.8169 26 10.8333C26 4.84976 21.1502 0 15.1667 0ZM8.10484 19.0489C8.11007 19.0533 8.10504 19.0619 8.09855 19.0598C4.65196 17.9148 2.16668 14.6647 2.16668 10.8333C2.16668 7.00204 4.65189 3.75195 8.09839 2.60693C8.10495 2.60475 8.11001 2.61345 8.10479 2.61798V2.61798C8.06122 2.65545 8.01826 2.69354 7.9753 2.73173C7.94991 2.75427 7.92426 2.77657 7.89913 2.79932C7.84931 2.84441 7.80025 2.89022 7.7513 2.93617C7.73363 2.95278 7.71565 2.96898 7.69813 2.98568C7.63202 3.0486 7.56671 3.11238 7.50222 3.17693C7.48754 3.1916 7.47332 3.20668 7.45875 3.22141C7.40914 3.27163 7.35973 3.32211 7.31108 3.3733C7.28818 3.39742 7.26578 3.422 7.24308 3.44637C7.20347 3.48882 7.16386 3.53138 7.12497 3.57449C7.10013 3.60197 7.07576 3.62989 7.05123 3.65762C7.01512 3.69845 6.97907 3.73938 6.94352 3.78071C6.91844 3.80996 6.89371 3.83947 6.86893 3.86897C6.83475 3.90965 6.80078 3.95043 6.76721 3.99161C6.74238 4.02208 6.7178 4.0527 6.69327 4.08342C6.66042 4.12461 6.62787 4.16599 6.59562 4.20768C6.5716 4.23871 6.54768 4.26984 6.52397 4.30112C6.49188 4.34352 6.46024 4.38623 6.42875 4.42914C6.4059 4.46032 6.383 4.4914 6.36045 4.52283C6.32861 4.56721 6.29733 4.612 6.26615 4.65684C6.24498 4.68731 6.2236 4.71768 6.20273 4.74835C6.16982 4.79675 6.13763 4.84565 6.10548 4.8946C6.0873 4.92233 6.06871 4.9498 6.05079 4.97773C6.01184 5.03826 5.97375 5.09945 5.93597 5.1608C5.92561 5.17761 5.9149 5.19416 5.90459 5.21107C5.85691 5.28948 5.81019 5.36854 5.76443 5.44827C5.75194 5.47005 5.73996 5.49225 5.72762 5.51413C5.69476 5.57238 5.66201 5.63068 5.63017 5.68958C5.61377 5.7199 5.59802 5.75057 5.58187 5.78109C5.55491 5.83213 5.528 5.88316 5.50184 5.9347C5.48478 5.96837 5.46818 6.00229 5.45142 6.03616C5.4272 6.08517 5.40307 6.13427 5.37951 6.18368C5.36265 6.21908 5.3462 6.25468 5.32975 6.29027C5.30725 6.33887 5.28501 6.38762 5.26322 6.43668C5.24707 6.47304 5.23113 6.50955 5.21534 6.54611C5.19421 6.59511 5.17344 6.64427 5.15303 6.69363C5.13779 6.73045 5.12266 6.76726 5.10783 6.80428C5.08772 6.85445 5.06817 6.90488 5.04877 6.95541C5.03476 6.99197 5.02069 7.02848 5.00703 7.0652C4.98758 7.1176 4.96884 7.17036 4.95021 7.22318C4.93777 7.25842 4.92507 7.29351 4.91298 7.32895C4.89338 7.38639 4.87464 7.44428 4.85596 7.50212C4.8459 7.53325 4.83544 7.56422 4.82564 7.5955C4.80152 7.67259 4.77846 7.75013 4.75607 7.82798C4.75252 7.84027 4.74861 7.85246 4.7451 7.8648C4.71946 7.95509 4.69498 8.04593 4.67162 8.13714C4.66451 8.16497 4.65806 8.19305 4.65116 8.22093C4.63541 8.28456 4.61977 8.34818 4.60515 8.41227C4.59702 8.44782 4.58961 8.48362 4.58184 8.51932C4.56945 8.57624 4.55716 8.63317 4.54563 8.6904C4.53791 8.72894 4.53075 8.76764 4.52344 8.80633C4.51303 8.86128 4.50282 8.91627 4.49323 8.97147C4.48627 9.01154 4.47977 9.05176 4.47327 9.09203C4.46448 9.14636 4.456 9.2008 4.44803 9.25539C4.44209 9.29622 4.43635 9.33715 4.43087 9.37813C4.4235 9.43297 4.41665 9.48792 4.4101 9.54302C4.40527 9.58385 4.4005 9.62467 4.39608 9.6656C4.39009 9.72167 4.38471 9.77793 4.37958 9.83425C4.37592 9.87447 4.37211 9.91463 4.36886 9.95495C4.36414 10.0136 4.36033 10.0725 4.35652 10.1314C4.35409 10.1696 4.35129 10.2077 4.34926 10.246C4.34576 10.3112 4.34337 10.3768 4.34104 10.4424C4.33992 10.4745 4.33824 10.5065 4.33738 10.5387C4.33474 10.6367 4.33327 10.7349 4.33327 10.8335C4.33327 10.932 4.33474 11.0302 4.33738 11.1282C4.33824 11.1604 4.33992 11.1924 4.34104 11.2245C4.34337 11.2901 4.34576 11.3557 4.34926 11.421C4.35129 11.4593 4.35409 11.4974 4.35652 11.5356C4.36028 11.5945 4.36414 11.6533 4.36886 11.712C4.37211 11.7523 4.37592 11.7925 4.37958 11.8327C4.38471 11.889 4.39009 11.9453 4.39608 12.0013C4.40045 12.0423 4.40522 12.0831 4.4101 12.1239C4.41665 12.179 4.4235 12.234 4.43087 12.2888C4.43635 12.3298 4.44209 12.3707 4.44803 12.4115C4.456 12.4661 4.46448 12.5206 4.47327 12.5749C4.47977 12.6151 4.48627 12.6553 4.49323 12.6955C4.50277 12.7507 4.51303 12.8057 4.52344 12.8606C4.53075 12.8993 4.53791 12.938 4.54563 12.9765C4.55711 13.0338 4.56945 13.0907 4.58184 13.1476C4.58961 13.1833 4.59702 13.2191 4.60515 13.2547C4.61977 13.3187 4.63541 13.3824 4.65116 13.446C4.65806 13.4739 4.66446 13.502 4.67162 13.5298C4.69498 13.6211 4.71941 13.7119 4.7451 13.8021C4.74861 13.8145 4.75252 13.8266 4.75607 13.839C4.77852 13.9168 4.80157 13.9943 4.82564 14.0714C4.83544 14.1027 4.8459 14.1336 4.85596 14.1648C4.87464 14.2227 4.89338 14.2806 4.91298 14.338C4.92507 14.3734 4.93777 14.4085 4.95021 14.4438C4.96884 14.4966 4.98758 14.5493 5.00703 14.6017C5.02069 14.6385 5.03476 14.675 5.04882 14.7116C5.06817 14.7621 5.08772 14.8125 5.10783 14.8627C5.12266 14.8997 5.13784 14.9365 5.15308 14.9734C5.17349 15.0228 5.19426 15.0719 5.21539 15.1209C5.23118 15.1575 5.24707 15.194 5.26327 15.2304C5.28506 15.2794 5.3073 15.3281 5.3298 15.3767C5.3463 15.4124 5.36275 15.448 5.37961 15.4834C5.40312 15.5328 5.4272 15.5818 5.45142 15.6308C5.46818 15.6646 5.48478 15.6986 5.50189 15.7323C5.52805 15.7838 5.55496 15.8349 5.58193 15.8859C5.59802 15.9164 5.61382 15.9471 5.63022 15.9774C5.66201 16.0362 5.69466 16.0944 5.72746 16.1525C5.73991 16.1745 5.75189 16.1968 5.76448 16.2188C5.81024 16.2984 5.85691 16.3775 5.90459 16.4559C5.91485 16.4728 5.92561 16.4893 5.93597 16.5062C5.97375 16.5675 6.01184 16.6287 6.05079 16.6893C6.06877 16.7172 6.08735 16.7447 6.10558 16.7725C6.13768 16.8213 6.16982 16.8702 6.20268 16.9185C6.2236 16.9493 6.24498 16.9797 6.2662 17.0102C6.29738 17.055 6.32861 17.0998 6.36045 17.1441C6.38305 17.1755 6.40595 17.2067 6.42886 17.2379C6.46029 17.2807 6.49193 17.3234 6.52397 17.3657C6.54768 17.397 6.57165 17.4282 6.59567 17.4593C6.62792 17.5009 6.66042 17.5423 6.69327 17.5835C6.7178 17.6142 6.74238 17.6448 6.76721 17.6753C6.80078 17.7164 6.8347 17.7572 6.86888 17.7979C6.89371 17.8274 6.91849 17.857 6.94362 17.8863C6.97907 17.9276 7.01507 17.9684 7.05113 18.0092C7.07571 18.037 7.10013 18.0649 7.12502 18.0924C7.16391 18.1355 7.20342 18.1779 7.24298 18.2204C7.26573 18.2448 7.28823 18.2695 7.31123 18.2936C7.35963 18.3446 7.40878 18.3948 7.45814 18.4448C7.47297 18.4597 7.48744 18.4751 7.50232 18.49C7.56681 18.5546 7.63212 18.6183 7.69818 18.6812C7.7158 18.698 7.73383 18.7143 7.75155 18.7309C7.80041 18.7768 7.84941 18.8226 7.89913 18.8675C7.92441 18.8904 7.95021 18.9128 7.97575 18.9355C8.01856 18.9736 8.06142 19.0115 8.10484 19.0489V19.0489ZM15.1667 19.5C10.3797 19.5 6.5 15.6203 6.5 10.8333C6.5 6.04637 10.3797 2.16663 15.1667 2.16663C19.9536 2.16663 23.8333 6.04637 23.8333 10.8333C23.8333 15.6203 19.9536 19.5 15.1667 19.5Z" fill="white"/>
<path d="M19.4532 13.5152L18.4842 12.798C18.0982 13.5218 17.6113 14.0684 17.0216 14.4428C16.4319 14.8155 15.7594 15.0043 15.0007 15.0043C13.9158 15.0043 13.0163 14.6349 12.3041 13.8929C11.5935 13.1508 11.2373 12.2099 11.2373 11.0703C11.2373 9.934 11.5935 8.9915 12.3041 8.24776C13.0163 7.50403 13.9158 7.12968 15.0007 7.12968C15.7064 7.12968 16.3458 7.29367 16.9172 7.61998C17.487 7.9463 17.9276 8.40181 18.2291 8.97825L19.2362 8.26102C18.7757 7.53716 18.1778 6.97729 17.4423 6.58637C16.7069 6.1938 15.8919 6 14.9974 6C13.5563 6 12.3637 6.4787 11.4162 7.4328C10.4721 8.38525 10 9.59941 10 11.0703C10 12.5379 10.4721 13.7487 11.4146 14.7012C12.3587 15.6553 13.5547 16.134 15.0024 16.134C15.9847 16.134 16.8609 15.9071 17.6295 15.4549C18.4014 15.0043 19.0109 14.355 19.4532 13.5152Z" fill="white"/>
</svg>
