<svg width="22" height="18" viewBox="0 0 22 18" fill="none" xmlns="http://www.w3.org/2000/svg">
<path d="M16.5098 4.57764e-05H6.5096C3.50953 4.57764e-05 1.50948 1.50008 1.50948 5.00016V8.56024C1.50948 8.93025 1.88949 9.16025 2.2195 9.01025C3.19952 8.56024 4.32955 8.39024 5.51957 8.60024C8.14963 9.07025 10.0797 11.5103 10.0097 14.1804C9.99968 14.6004 9.93967 15.0104 9.82967 15.4104C9.74967 15.7204 9.99968 16.0104 10.3197 16.0104H16.5098C19.5099 16.0104 21.5099 14.5104 21.5099 11.0103V5.00016C21.5099 1.50008 19.5099 4.57764e-05 16.5098 4.57764e-05ZM11.5097 10.5003C10.1297 10.5003 9.00965 9.38026 9.00965 8.00023C9.00965 6.6202 10.1297 5.50017 11.5097 5.50017C12.8897 5.50017 14.0098 6.6202 14.0098 8.00023C14.0098 9.38026 12.8897 10.5003 11.5097 10.5003ZM18.7599 10.0003C18.7599 10.4103 18.4199 10.7503 18.0099 10.7503C17.5998 10.7503 17.2598 10.4103 17.2598 10.0003V6.00018C17.2598 5.59017 17.5998 5.25016 18.0099 5.25016C18.4199 5.25016 18.7599 5.59017 18.7599 6.00018V10.0003Z" fill="#5071C8"/>
<path d="M4.5079 10.0006C2.29785 10.0006 0.507812 11.7906 0.507812 14.0007C0.507812 14.7507 0.717817 15.4607 1.08783 16.0607C1.77784 17.2207 3.04787 18.0007 4.5079 18.0007C5.96794 18.0007 7.23797 17.2207 7.92798 16.0607C8.29799 15.4607 8.50799 14.7507 8.50799 14.0007C8.50799 11.7906 6.71795 10.0006 4.5079 10.0006ZM5.99794 14.7307H5.25792V15.5107C5.25792 15.9207 4.91791 16.2607 4.5079 16.2607C4.09789 16.2607 3.75789 15.9207 3.75789 15.5107V14.7307H3.01787C2.60786 14.7307 2.26785 14.3907 2.26785 13.9807C2.26785 13.5706 2.60786 13.2306 3.01787 13.2306H3.75789V12.5206C3.75789 12.1106 4.09789 11.7706 4.5079 11.7706C4.91791 11.7706 5.25792 12.1106 5.25792 12.5206V13.2306H5.99794C6.40795 13.2306 6.74795 13.5706 6.74795 13.9807C6.74795 14.3907 6.41795 14.7307 5.99794 14.7307Z" fill="#5071C8"/>
</svg>
