<svg width="16" height="14" viewBox="0 0 16 14" fill="none" xmlns="http://www.w3.org/2000/svg">
<path d="M1 1L13.4444 13.4444M7.33733 4.20678C7.74157 4.08694 8.17072 4.07888 8.57917 4.18344C8.98762 4.288 9.36011 4.50128 9.65704 4.8006C9.95397 5.09993 10.1643 5.47412 10.2655 5.88339C10.3668 6.29267 10.3553 6.72174 10.2322 7.125M5.20778 2.46067C8.52422 0.814889 12.0966 2.14333 15 6.44444C14.2012 7.62744 13.3519 8.58567 12.4714 9.31911M10.52 10.5558C7.28133 11.9993 3.82411 10.6289 1 6.44444C1.78556 5.28089 2.62011 4.33433 3.48578 3.60556" stroke="white" stroke-width="0.98" stroke-linecap="round" stroke-linejoin="round"/>
</svg>
