<svg width="18" height="18" viewBox="0 0 18 18" fill="none" xmlns="http://www.w3.org/2000/svg">
<path fill-rule="evenodd" clip-rule="evenodd" d="M8.8823 12.4235C8.66732 12.2085 8.66732 11.8595 8.8823 11.644L11.159 9.37206L5.32125 9.37206C5.01806 9.37206 4.77 9.12563 4.77 8.82076C4.77 8.5159 5.01806 8.26946 5.32125 8.26946L11.159 8.26947L8.8823 5.99757C8.66732 5.78201 8.66732 5.43249 8.8823 5.21803C9.1028 5.00247 9.45011 5.00247 9.6651 5.21803L12.7852 8.33617C12.9175 8.46849 12.9561 8.64931 12.923 8.82076C12.9561 8.99222 12.9175 9.17304 12.7852 9.30535L9.6651 12.4235C9.45011 12.6391 9.1028 12.6391 8.8823 12.4235ZM18 8.82076C18 3.94895 14.0531 -1.79037e-07 9.18 -4.00083e-07C4.30695 -6.21129e-07 0.36 3.94894 0.36 8.82076C0.36 13.6926 4.30695 17.6415 9.18 17.6415C14.053 17.6415 18 13.6926 18 8.82076Z" fill="#BDD4FF"/>
</svg>
