<svg width="197" height="33" viewBox="0 0 197 33" fill="none" xmlns="http://www.w3.org/2000/svg">
<path d="M107.3 25.2479C104.92 25.2479 102.958 24.575 101.422 23.2264C99.8868 21.8837 99.1161 20.1942 99.1161 18.1549C99.1161 16.1127 99.8808 14.4202 101.41 13.0894C102.946 11.7585 104.908 11.0946 107.3 11.0946C109.713 11.0946 111.687 11.7585 113.222 13.0835C114.751 14.4084 115.516 16.1008 115.516 18.1549C115.516 20.2031 114.745 21.8926 113.21 23.2353C111.675 24.578 109.707 25.2479 107.3 25.2479ZM107.3 23.2916C109.087 23.2916 110.548 22.8114 111.675 21.8422C112.804 20.8789 113.364 19.6488 113.364 18.1579C113.364 16.6759 112.798 15.4517 111.663 14.4766C110.528 13.5073 109.072 13.0212 107.297 13.0212C105.521 13.0212 104.072 13.5014 102.946 14.4706C101.822 15.4339 101.262 16.664 101.262 18.1579C101.262 19.6488 101.825 20.8818 102.946 21.8422C104.075 22.8085 105.524 23.2916 107.3 23.2916ZM95.4644 24.8299V11.4147H97.5837V24.8299H95.4644ZM82.2833 24.8299V11.4443H83.38L91.8809 20.8492V11.4443H93.935V24.8299H92.8383L84.3374 15.4576V24.8299H82.2833ZM71.5891 24.8299H69.3749L76.1863 11.4443H77.5023L84.3671 24.8299H82.1262C80.3715 21.3946 78.605 17.9712 76.8621 14.5329L71.5891 24.8299ZM59.6825 18.9908V24.8329H57.5959V11.4799H66.7962C68.1656 11.4799 69.2356 11.8119 70.0122 12.4699C70.7858 13.1279 71.1712 14.0438 71.1712 15.2146C71.1712 16.1601 70.8659 16.9841 70.2523 17.6807C69.6417 18.3772 68.8444 18.8041 67.8603 18.9582L71.5891 24.8329H69.3157L65.5187 18.9908H59.6825ZM59.6825 17.0316H66.7962C67.5195 17.0316 68.0708 16.8774 68.4502 16.5603C68.8296 16.2431 69.0222 15.7956 69.0222 15.2057C69.0222 14.6218 68.8296 14.1742 68.4502 13.8689C68.0708 13.5577 67.5195 13.4036 66.7962 13.4036H59.6825V17.0316ZM54.1427 19.3109L55.8767 20.5943C55.0853 22.0971 53.9945 23.259 52.6133 24.0652C51.238 24.8744 49.67 25.2805 47.9123 25.2805C45.3218 25.2805 43.1817 24.4239 41.4922 22.7166C39.8057 21.0123 38.9609 18.8455 38.9609 16.2194C38.9609 13.5873 39.8057 11.4147 41.4952 9.71038C43.1906 8.00309 45.3247 7.14648 47.9034 7.14648C49.504 7.14648 50.9623 7.49327 52.2784 8.19575C53.5944 8.89527 54.6644 9.89711 55.4884 11.1924L53.6863 12.4758C53.1468 11.4443 52.3584 10.6292 51.3388 10.0453C50.3162 9.4614 49.1721 9.16796 47.9094 9.16796C45.9679 9.16796 44.3585 9.83783 43.0839 11.1687C41.8123 12.4995 41.1751 14.1861 41.1751 16.2194C41.1751 18.2587 41.8123 19.9422 43.0839 21.2701C44.3585 22.598 45.9679 23.259 47.9094 23.259C49.2669 23.259 50.4703 22.9211 51.5255 22.2542C52.5807 21.5843 53.4521 20.6062 54.1427 19.3109Z" fill="white"/>
<path d="M194.944 10.9046H195.288C195.451 10.9046 195.564 10.8809 195.623 10.8305C195.682 10.7831 195.712 10.7178 195.712 10.6378C195.712 10.5874 195.697 10.54 195.667 10.4985C195.638 10.457 195.599 10.4274 195.549 10.4066C195.498 10.3859 195.403 10.377 195.264 10.377H194.941V10.9046H194.944ZM194.659 11.8886V10.1399H195.261C195.469 10.1399 195.617 10.1576 195.709 10.1873C195.801 10.2199 195.875 10.2762 195.928 10.3562C195.981 10.4363 196.011 10.5222 196.011 10.6111C196.011 10.7386 195.967 10.8512 195.875 10.9461C195.783 11.0409 195.661 11.0943 195.51 11.1061C195.572 11.1328 195.623 11.1625 195.658 11.198C195.729 11.2662 195.815 11.3818 195.916 11.5448L196.13 11.8857H195.786L195.629 11.61C195.507 11.3936 195.406 11.2573 195.332 11.204C195.282 11.1654 195.205 11.1447 195.107 11.1447H194.941V11.8857H194.659V11.8886ZM195.377 9.63301C195.149 9.63301 194.923 9.69229 194.71 9.80789C194.494 9.92348 194.325 10.0924 194.203 10.3118C194.081 10.5311 194.019 10.7564 194.019 10.9905C194.019 11.2247 194.079 11.45 194.2 11.6634C194.319 11.8768 194.488 12.0457 194.704 12.1673C194.92 12.2858 195.146 12.3481 195.38 12.3481C195.614 12.3481 195.839 12.2888 196.056 12.1673C196.272 12.0487 196.438 11.8798 196.559 11.6634C196.678 11.45 196.737 11.2247 196.737 10.9905C196.737 10.7564 196.675 10.5281 196.554 10.3118C196.432 10.0954 196.263 9.92645 196.047 9.80789C195.824 9.69229 195.602 9.63301 195.377 9.63301ZM195.377 9.36328C195.649 9.36328 195.916 9.43442 196.177 9.57373C196.438 9.71304 196.639 9.91459 196.785 10.1754C196.93 10.4363 197.001 10.709 197.001 10.9905C197.001 11.2721 196.93 11.5419 196.788 11.7997C196.645 12.0576 196.444 12.2591 196.186 12.4014C195.928 12.5437 195.658 12.6148 195.377 12.6148C195.095 12.6148 194.825 12.5437 194.568 12.4014C194.31 12.2591 194.108 12.0576 193.966 11.7997C193.824 11.5419 193.75 11.2721 193.75 10.9905C193.75 10.709 193.824 10.4363 193.969 10.1754C194.114 9.91459 194.319 9.71304 194.579 9.57373C194.834 9.43442 195.101 9.36328 195.377 9.36328ZM135.275 24.8296H133.061L139.872 11.447H141.188L148.053 24.8296H145.812C144.057 21.3973 142.291 17.9738 140.548 14.5326L135.275 24.8296ZM181.372 18.6052V24.8326H179.285V11.45H181.372V16.6489H190.777V11.45H192.863V24.8326H190.777V18.6052H181.372V18.6052ZM175.767 21.5573C175.008 22.7548 174.006 23.6707 172.764 24.302C171.528 24.9334 170.117 25.2476 168.537 25.2476C166.19 25.2476 164.251 24.5836 162.728 23.2528C161.207 21.9219 160.449 20.2294 160.449 18.1872C160.449 16.1391 161.207 14.4466 162.728 13.1039C164.251 11.7612 166.19 11.0913 168.537 11.0913C170.002 11.0913 171.33 11.364 172.521 11.9153C173.716 12.4607 174.67 13.2373 175.405 14.2362L173.742 15.3921C173.191 14.6333 172.465 14.0435 171.561 13.6315C170.657 13.2195 169.652 13.015 168.543 13.015C166.827 13.015 165.407 13.5011 164.284 14.4792C163.161 15.4544 162.597 16.6785 162.597 18.1487C162.597 19.6189 163.161 20.846 164.287 21.8182C165.416 22.7963 166.833 23.2824 168.54 23.2824C169.729 23.2824 170.781 23.0483 171.691 22.5829C172.601 22.1116 173.398 21.3854 174.089 20.3954L175.767 21.5573ZM152.65 24.8296V13.3084H147.001V11.447H160.386V13.3084H154.737V24.8326H152.65V24.8296ZM132.089 21.5573C131.33 22.7548 130.328 23.6707 129.089 24.302C127.853 24.9334 126.442 25.2476 124.862 25.2476C122.515 25.2476 120.576 24.5836 119.053 23.2528C117.532 21.9219 116.773 20.2294 116.773 18.1872C116.773 16.1391 117.532 14.4466 119.053 13.1039C120.576 11.7612 122.515 11.0913 124.862 11.0913C126.33 11.0913 127.654 11.364 128.846 11.9153C130.04 12.4607 130.998 13.2373 131.73 14.2362L130.067 15.3921C129.516 14.6333 128.79 14.0435 127.886 13.6315C126.982 13.2195 125.977 13.015 124.868 13.015C123.152 13.015 121.732 13.5011 120.609 14.4792C119.486 15.4544 118.925 16.6785 118.925 18.1487C118.925 19.6189 119.489 20.846 120.615 21.8182C121.744 22.7963 123.161 23.2824 124.868 23.2824C126.057 23.2824 127.109 23.0483 128.019 22.5829C128.929 22.1116 129.726 21.3854 130.414 20.3954L132.089 21.5573Z" fill="white"/>
<path fill-rule="evenodd" clip-rule="evenodd" d="M18.3974 4.03012C19.0428 4.02694 19.5642 3.50078 19.5594 2.8554C19.5562 2.21002 19.0301 1.68862 18.3847 1.69339C17.7393 1.69657 17.2179 2.22273 17.2227 2.86811C17.2259 3.5135 17.752 4.0333 18.3974 4.03012Z" fill="white"/>
<path fill-rule="evenodd" clip-rule="evenodd" d="M6.97207 12.2188C5.62885 13.6717 4.73549 15.5331 4.49546 17.5853C4.18866 20.2034 4.97234 22.6991 6.48724 24.6145C8.00214 26.5316 10.2483 27.8701 12.8663 28.1769C15.006 28.428 17.0979 27.9432 18.856 26.8972C20.4997 25.918 21.8508 24.4476 22.6758 22.6244L20.1404 21.9106C19.5332 23.0758 18.6223 24.0216 17.5334 24.6686C16.2554 25.43 14.731 25.7797 13.1668 25.5969C11.2608 25.3744 9.62513 24.3984 8.52194 23.0043C7.41875 21.6086 6.84808 19.7933 7.07222 17.8857C7.24866 16.3804 7.89564 15.0228 8.86848 13.9705C9.84291 12.9166 11.1464 12.1631 12.6295 11.8722L12.1304 9.33203C10.1004 9.7342 8.31211 10.769 6.97207 12.2188Z" fill="white"/>
<path fill-rule="evenodd" clip-rule="evenodd" d="M19.9319 28.4548C17.8209 29.7106 15.3061 30.2908 12.7309 29.9888C9.58511 29.62 6.88754 28.0113 5.06903 25.7096C3.24892 23.4078 2.30787 20.4114 2.67666 17.2656C2.96756 14.7858 4.03737 12.546 5.64288 10.8102C7.25156 9.06955 9.39912 7.82648 11.8455 7.34482L11.3464 4.80463C8.35316 5.39437 5.71918 6.91881 3.74488 9.05365C1.76582 11.1917 0.45121 13.9369 0.0967266 16.962C-0.354723 20.8184 0.799334 24.4935 3.03115 27.3183C5.26296 30.143 8.57253 32.1141 12.4289 32.5672C15.5811 32.936 18.6634 32.2238 21.2544 30.6819C23.8296 29.1495 25.9152 26.7985 27.0994 23.8736L24.5847 23.1646C23.6039 25.4298 21.9523 27.2515 19.9319 28.4548Z" fill="white"/>
<path fill-rule="evenodd" clip-rule="evenodd" d="M34.5409 11.9952C34.5329 11.9602 34.517 11.9269 34.4964 11.8966L32.5491 9.31512C32.9306 7.30426 33.0355 6.67319 32.1167 4.75294C31.3426 2.87879 29.3667 0.724867 24.3658 0.885418C24.2465 0.376743 23.7887 -0.00158462 23.2435 4.9906e-06C22.6108 0.00318421 22.099 0.519808 22.1022 1.15247C22.1053 1.78514 22.622 2.29699 23.2546 2.29381C23.4867 2.29222 23.7013 2.22228 23.8809 2.10306C24.2942 2.43847 24.7298 3.02662 25.1145 3.81189C24.9698 3.92634 24.8585 4.08212 24.795 4.26016C24.0733 4.22678 23.4374 4.24903 22.9828 4.26652C22.9542 4.26811 22.9256 4.26811 22.897 4.2697C22.7905 3.94065 22.4853 3.70062 22.1196 3.70221C21.6698 3.7038 21.3074 4.071 21.3089 4.52086C21.3105 4.97072 21.6777 5.33315 22.1276 5.33156C22.4853 5.32997 22.7841 5.0963 22.8922 4.77519C22.9272 4.7736 22.9605 4.7736 23.0003 4.77201C23.439 4.75612 24.0542 4.73386 24.7536 4.76566C24.7918 4.97231 24.8935 5.1567 25.0398 5.29818C24.1607 5.845 23.4311 6.50787 22.9049 7.2375C22.7173 7.10715 22.49 7.02926 22.2436 7.03085C21.611 7.03403 21.0991 7.55065 21.1023 8.18332C21.1055 8.77147 21.549 9.25154 22.1196 9.31671C22.1387 10.9127 23.4279 12.8774 25.2655 14.8088C24.636 16.3539 23.6536 17.9547 22.153 19.4664C21.9877 19.3217 21.7715 19.2343 21.5347 19.2359C21.0165 19.2391 20.6 19.6603 20.6016 20.1785C20.6047 20.6967 21.026 21.1132 21.5442 21.1116C21.7699 21.11 21.9766 21.029 22.1371 20.897L26.4275 22.0336C26.4323 22.5502 26.8535 22.9651 27.3701 22.9635C27.8883 22.9603 28.3048 22.5391 28.3032 22.0209C28.3016 21.6505 28.0839 21.331 27.7707 21.1816C27.7818 20.4503 27.9678 19.8415 28.3223 19.4171C28.6514 19.0213 29.1203 18.8051 29.6433 18.8051C29.6465 18.8051 29.6496 18.8051 29.6528 18.8051H29.7164C30.8546 18.813 32.0325 18.8178 32.5729 18.0977C32.8797 17.6908 32.9369 17.1169 32.7462 16.3476C33.0832 16.1918 33.3041 15.9533 33.3645 15.6688C33.4027 15.4892 33.39 15.2348 33.1833 14.9439L33.5791 14.8088C33.6602 14.7818 33.7222 14.715 33.7429 14.6324C33.8541 14.2016 33.7969 13.7708 33.5871 13.4052C34.0831 13.1811 34.7141 12.7805 34.5409 11.9952ZM31.0978 3.93747C30.7163 3.87071 30.3125 3.8405 29.8944 3.84368C29.7752 3.53848 29.4795 3.3207 29.133 3.32229C28.982 3.32388 28.8437 3.3668 28.7229 3.43992C27.6642 2.56564 26.3162 1.86939 24.7075 1.38456C27.723 1.34958 29.8992 2.22069 31.0978 3.93747ZM29.8372 13.2462C29.3524 14.1905 28.7181 15.1013 27.9567 15.9438C27.8502 15.8929 27.731 15.8627 27.6038 15.8627C27.4576 15.8627 27.3224 15.9056 27.2048 15.974C26.7343 15.5464 26.286 15.1124 25.8648 14.6785C26.4958 13.0157 26.7406 11.4245 26.7979 10.0734C26.8026 10.0734 26.8074 10.0734 26.8122 10.0734C27.057 10.0718 27.2827 9.99388 27.4687 9.86195C28.3541 10.4803 29.1314 11.2465 29.7943 12.0636C29.648 12.2114 29.5574 12.4165 29.559 12.6406C29.5606 12.8838 29.6703 13.0968 29.8372 13.2462ZM27.8073 9.4868C27.9011 9.31989 27.9551 9.12755 27.9535 8.92249C27.9503 8.28982 27.4337 7.77797 26.801 7.78115C26.7756 7.78115 26.7502 7.78433 26.7247 7.78592C26.6341 6.9625 26.4752 6.15974 26.2606 5.41581C26.3989 5.32679 26.5133 5.20598 26.5928 5.06132C26.631 5.04543 26.6707 5.03112 26.7104 5.01523C28.4224 5.39832 30.1504 6.30917 30.8863 8.40586C30.8975 8.52191 30.9054 8.63954 30.9102 8.75876C30.9531 9.78088 30.7862 10.8173 30.4428 11.8315C30.419 11.8299 30.3952 11.8251 30.3713 11.8251C30.3316 11.8251 30.2934 11.8315 30.2553 11.8378C29.5606 10.9683 28.7436 10.1497 27.8073 9.4868ZM27.5672 4.71479C27.8486 4.63213 28.1316 4.56219 28.4145 4.50814C28.5512 4.77201 28.823 4.95323 29.141 4.95164C29.2602 4.95164 29.3714 4.92462 29.4732 4.87852C29.9024 5.41104 30.241 5.99284 30.481 6.62073C29.7005 5.63994 28.6529 5.05814 27.5672 4.71479ZM24.3022 1.79309C25.9665 2.26043 27.3399 2.9376 28.397 3.80076C28.3684 3.86435 28.3477 3.9327 28.335 4.00423C27.793 4.10915 27.2461 4.26652 26.7088 4.47158C26.6532 3.97721 26.232 3.59411 25.7233 3.59729C25.6756 3.59729 25.6279 3.60206 25.5834 3.60842C25.2083 2.83428 24.7695 2.2032 24.3022 1.79309ZM25.577 5.55887C25.6279 5.56682 25.6804 5.57159 25.7328 5.57159C25.7487 5.57159 25.7662 5.57 25.7821 5.56841C25.9872 6.28373 26.1445 7.07854 26.232 7.93534C26.0428 8.04661 25.887 8.20875 25.7869 8.40586C25.0366 8.12768 24.2322 7.96077 23.377 7.93693C23.3532 7.82248 23.3119 7.71597 23.2562 7.61742C23.8205 6.78923 24.6392 6.09298 25.577 5.55887ZM22.6315 9.25948C22.9971 9.13232 23.2785 8.82552 23.3691 8.44401C24.183 8.46627 24.9492 8.63 25.6629 8.89864C25.6629 8.90977 25.6613 8.92249 25.6613 8.93361C25.6629 9.38188 25.922 9.76657 26.2971 9.95414C26.2526 11.2179 26.0364 12.7058 25.4769 14.2683C23.7712 12.4308 22.6236 10.6265 22.6315 9.25948ZM25.6533 15.2014C26.038 15.5893 26.4418 15.974 26.8615 16.3539C26.8185 16.4541 26.7931 16.5653 26.7931 16.6814C26.7931 16.8038 26.8233 16.9182 26.8726 17.0231C25.6438 18.1263 24.1877 19.0658 22.5775 19.7573C24.0335 18.2773 25.0096 16.7179 25.6533 15.2014ZM27.936 19.0896C27.5211 19.5872 27.297 20.2755 27.2716 21.091C26.9711 21.1227 26.7136 21.296 26.5658 21.544L22.4407 20.4503C22.4503 20.4185 22.4582 20.3868 22.4646 20.355C24.2545 19.6301 25.8695 18.6048 27.2191 17.3888C27.3367 17.4539 27.4703 17.4937 27.6149 17.4937C27.7691 17.4921 27.9106 17.4476 28.033 17.3713C28.4288 17.7003 28.8294 18.023 29.2347 18.3346C28.7261 18.4252 28.2746 18.6843 27.936 19.0896ZM32.1692 17.7909C31.8194 18.2567 30.9324 18.2964 30.0184 18.2964C29.4557 17.8752 28.9009 17.4349 28.3636 16.985C28.4034 16.8896 28.424 16.7847 28.424 16.6734C28.424 16.5335 28.3843 16.4032 28.3207 16.2872C29.1219 15.4001 29.7895 14.4416 30.2982 13.4449C30.3252 13.4481 30.3522 13.4529 30.3793 13.4529C30.508 13.4529 30.6272 13.4195 30.7353 13.3654C31.4077 14.4066 31.9005 15.4383 32.201 16.2681C32.4092 16.9739 32.3981 17.4857 32.1692 17.7909ZM33.1023 13.0539C33.0244 13.0841 32.9671 13.1509 32.9481 13.2319C32.929 13.313 32.9512 13.3988 33.0069 13.4592C33.2374 13.7136 33.3328 14.0347 33.2803 14.3717L32.6524 14.5847C32.5666 14.6133 32.503 14.6864 32.4855 14.7754C32.468 14.8644 32.4998 14.9551 32.5682 15.0155C32.7955 15.2126 32.9036 15.4065 32.8702 15.5591C32.8463 15.6704 32.7446 15.7753 32.5872 15.858C32.2614 15.0186 31.7622 14.0124 31.0994 13.003C31.155 12.8917 31.19 12.7678 31.19 12.6342C31.1884 12.3894 31.0771 12.1732 30.9054 12.0238C31.279 10.9397 31.4618 9.83015 31.4157 8.7365C31.4093 8.5998 31.3998 8.46627 31.3871 8.33274C31.3871 8.3232 31.3855 8.31526 31.3839 8.30572C31.244 6.89573 30.7147 5.6304 29.834 4.55265C29.8706 4.49065 29.8992 4.42389 29.9183 4.35236C30.4667 4.34918 30.9881 4.40799 31.4586 4.53834C31.5285 4.67505 31.5953 4.81493 31.6541 4.96118C32.5157 6.76539 32.4251 7.25022 32.0372 9.29287L32.0293 9.3342C32.0166 9.40414 32.0325 9.47726 32.0754 9.5329L34.0544 12.1573C34.1117 12.523 33.8526 12.763 33.1023 13.0539Z" fill="white"/>
<path fill-rule="evenodd" clip-rule="evenodd" d="M21.8916 15.5416C22.4766 15.5384 22.9471 15.0615 22.9439 14.4781C22.9407 13.8931 22.4638 13.4226 21.8805 13.4258C21.2955 13.429 20.825 13.9059 20.8281 14.4892C20.8313 15.0726 21.3082 15.5447 21.8916 15.5416Z" fill="white"/>
<path fill-rule="evenodd" clip-rule="evenodd" d="M19.3906 17.5325C19.3938 18.0507 19.8151 18.4672 20.3333 18.4656C20.8515 18.4624 21.268 18.0412 21.2664 17.5229C21.2632 17.0047 20.842 16.5883 20.3237 16.5898C19.8055 16.593 19.3875 17.0143 19.3906 17.5325Z" fill="white"/>
<path fill-rule="evenodd" clip-rule="evenodd" d="M18.6792 11.5664C18.0339 11.5696 17.5125 12.0958 17.5156 12.7427C17.5188 13.3881 18.045 13.9095 18.6919 13.9063C19.3373 13.9031 19.8587 13.377 19.8555 12.73C19.8508 12.0846 19.3246 11.5632 18.6792 11.5664Z" fill="white"/>
<path fill-rule="evenodd" clip-rule="evenodd" d="M16.0454 10.2965C16.0423 9.63678 15.505 9.10426 14.8453 9.10744C14.1856 9.11062 13.6531 9.6479 13.6563 10.3076C13.6594 10.9673 14.1967 11.4998 14.8564 11.4966C15.5161 11.4934 16.0486 10.9562 16.0454 10.2965Z" fill="white"/>
<path fill-rule="evenodd" clip-rule="evenodd" d="M18.203 9.44562C18.8277 9.44244 19.3316 8.93377 19.3284 8.30905C19.3253 7.68434 18.8166 7.18043 18.1919 7.18361C17.5671 7.18679 17.0632 7.69546 17.0664 8.32018C17.0696 8.9449 17.5783 9.4488 18.203 9.44562Z" fill="white"/>
<path d="M14.4343 7.32956C15.343 7.32956 16.0796 6.59295 16.0796 5.68431C16.0796 4.77566 15.343 4.03906 14.4343 4.03906C13.5257 4.03906 12.7891 4.77566 12.7891 5.68431C12.7891 6.59295 13.5257 7.32956 14.4343 7.32956Z" fill="white"/>
<path d="M14.1493 21.3493C15.6944 21.3493 16.947 20.0968 16.947 18.5516C16.947 17.0065 15.6944 15.7539 14.1493 15.7539C12.6041 15.7539 11.3516 17.0065 11.3516 18.5516C11.3516 20.0968 12.6041 21.3493 14.1493 21.3493Z" fill="white"/>
</svg>
