<svg width="327" height="55" viewBox="0 0 327 55" fill="none" xmlns="http://www.w3.org/2000/svg">
<path d="M177.663 42.0585C173.722 42.0585 170.473 40.9444 167.931 38.7114C165.389 36.4882 164.113 33.6908 164.113 30.3142C164.113 26.9328 165.379 24.1305 167.911 21.9269C170.454 19.7233 173.703 18.624 177.663 18.624C181.658 18.624 184.927 19.7233 187.469 21.9171C190.001 24.1108 191.267 26.9132 191.267 30.3142C191.267 33.7055 189.991 36.5029 187.449 38.7262C184.907 40.9494 181.648 42.0585 177.663 42.0585ZM177.663 38.8194C180.622 38.8194 183.042 38.0243 184.907 36.4195C186.777 34.8245 187.704 32.7878 187.704 30.3191C187.704 27.8653 186.767 25.8384 184.887 24.2237C183.008 22.6189 180.598 21.814 177.658 21.814C174.718 21.814 172.319 22.6091 170.454 24.2139C168.594 25.8089 167.666 27.8456 167.666 30.3191C167.666 32.7878 168.598 34.8294 170.454 36.4195C172.323 38.0194 174.723 38.8194 177.663 38.8194ZM158.066 41.3665V19.154H161.575V41.3665H158.066ZM136.242 41.3665V19.2031H138.057L152.133 34.7754V19.2031H155.534V41.3665H153.718L139.643 25.8482V41.3665H136.242ZM118.534 41.3665H114.868L126.146 19.2031H128.325L139.692 41.3665H135.981C133.076 35.6784 130.151 30.01 127.265 24.317L118.534 41.3665ZM98.8199 31.6982V41.3714H95.3649V19.262H110.599C112.866 19.262 114.638 19.8116 115.923 20.9012C117.204 21.9907 117.842 23.5072 117.842 25.4457C117.842 27.0113 117.337 28.3757 116.321 29.529C115.31 30.6823 113.99 31.389 112.36 31.6443L118.534 41.3714H114.77L108.483 31.6982H98.8199ZM98.8199 28.4542H110.599C111.796 28.4542 112.709 28.199 113.337 27.6739C113.965 27.1487 114.284 26.4077 114.284 25.431C114.284 24.4642 113.965 23.7231 113.337 23.2176C112.709 22.7023 111.796 22.4471 110.599 22.4471H98.8199V28.4542ZM89.6473 32.2283L92.5184 34.3533C91.208 36.8416 89.4019 38.7654 87.1149 40.1003C84.8377 41.4401 82.2415 42.1125 79.3312 42.1125C75.0418 42.1125 71.4984 40.6942 68.701 37.8673C65.9085 35.0453 64.5098 31.4578 64.5098 27.1095C64.5098 22.7514 65.9085 19.154 68.7059 16.332C71.5131 13.5052 75.0467 12.0868 79.3165 12.0868C81.9667 12.0868 84.3813 12.661 86.5603 13.8242C88.7394 14.9824 90.5111 16.6412 91.8754 18.7859L88.8915 20.911C87.9983 19.2031 86.6928 17.8534 85.0046 16.8866C83.3114 15.9198 81.417 15.4339 79.3263 15.4339C76.1117 15.4339 73.4468 16.5431 71.3365 18.7466C69.231 20.9502 68.1759 23.7428 68.1759 27.1095C68.1759 30.486 69.231 33.2736 71.3365 35.4723C73.4468 37.671 76.1117 38.7654 79.3263 38.7654C81.5741 38.7654 83.5666 38.2059 85.3138 37.1017C87.0609 35.9925 88.5038 34.373 89.6473 32.2283Z" fill="#0B1536"/>
<path d="M322.782 18.3094H323.351C323.621 18.3094 323.808 18.2701 323.906 18.1867C324.004 18.1081 324.053 18.0002 324.053 17.8677C324.053 17.7842 324.029 17.7057 323.979 17.637C323.93 17.5683 323.867 17.5192 323.783 17.4849C323.7 17.4505 323.543 17.4358 323.312 17.4358H322.777V18.3094H322.782ZM322.311 19.9387V17.0432H323.307C323.651 17.0432 323.896 17.0726 324.048 17.1217C324.2 17.1757 324.323 17.2689 324.411 17.4014C324.5 17.5339 324.549 17.6763 324.549 17.8235C324.549 18.0345 324.475 18.221 324.323 18.3781C324.171 18.5351 323.97 18.6235 323.719 18.6431C323.822 18.6873 323.906 18.7363 323.965 18.7952C324.083 18.9081 324.225 19.0995 324.392 19.3694L324.745 19.9338H324.176L323.916 19.4774C323.714 19.1191 323.548 18.8934 323.425 18.805C323.341 18.7412 323.214 18.7069 323.052 18.7069H322.777V19.9338H322.311V19.9387ZM323.499 16.2039C323.121 16.2039 322.748 16.3021 322.394 16.4935C322.036 16.6849 321.756 16.9646 321.555 17.3278C321.354 17.691 321.251 18.064 321.251 18.4517C321.251 18.8394 321.349 19.2124 321.55 19.5658C321.746 19.9191 322.026 20.1989 322.384 20.4001C322.743 20.5964 323.116 20.6994 323.503 20.6994C323.891 20.6994 324.264 20.6013 324.622 20.4001C324.981 20.2038 325.256 19.924 325.457 19.5658C325.653 19.2124 325.751 18.8394 325.751 18.4517C325.751 18.064 325.648 17.6861 325.447 17.3278C325.246 16.9695 324.966 16.6898 324.608 16.4935C324.24 16.3021 323.872 16.2039 323.499 16.2039ZM323.499 15.7573C323.95 15.7573 324.392 15.8751 324.824 16.1058C325.255 16.3364 325.589 16.6702 325.83 17.1021C326.07 17.5339 326.188 17.9855 326.188 18.4517C326.188 18.9179 326.07 19.3645 325.835 19.7915C325.599 20.2185 325.265 20.5522 324.838 20.7878C324.411 21.0234 323.965 21.1411 323.499 21.1411C323.032 21.1411 322.586 21.0234 322.159 20.7878C321.732 20.5522 321.398 20.2185 321.162 19.7915C320.927 19.3645 320.804 18.9179 320.804 18.4517C320.804 17.9855 320.927 17.5339 321.167 17.1021C321.408 16.6702 321.746 16.3364 322.178 16.1058C322.6 15.8751 323.042 15.7573 323.499 15.7573ZM223.984 41.366H220.318L231.596 19.2075H233.775L245.141 41.366H241.431C238.526 35.6828 235.601 30.0144 232.715 24.3165L223.984 41.366ZM300.309 31.0597V41.3709H296.854V19.2124H300.309V27.8206H315.882V19.2124H319.337V41.3709H315.882V31.0597H300.309ZM291.029 35.9479C289.772 37.9306 288.114 39.4471 286.057 40.4924C284.011 41.5378 281.675 42.058 279.059 42.058C275.172 42.058 271.962 40.9587 269.44 38.7551C266.922 36.5515 265.665 33.7492 265.665 30.3677C265.665 26.9765 266.922 24.1741 269.44 21.9509C271.962 19.7277 275.172 18.6185 279.059 18.6185C281.483 18.6185 283.682 19.0701 285.655 19.9829C287.633 20.8859 289.213 22.1718 290.43 23.8257L287.677 25.7397C286.764 24.4833 285.562 23.5067 284.065 22.8245C282.568 22.1423 280.904 21.8037 279.069 21.8037C276.227 21.8037 273.876 22.6086 272.016 24.2281C270.156 25.8428 269.224 27.8697 269.224 30.3039C269.224 32.7382 270.156 34.77 272.021 36.3797C273.891 37.9993 276.237 38.8042 279.064 38.8042C281.032 38.8042 282.774 38.4165 284.281 37.6459C285.787 36.8656 287.107 35.6632 288.251 34.024L291.029 35.9479ZM252.753 41.366V22.2896H243.399V19.2075H265.562V22.2896H256.208V41.3709H252.753V41.366ZM218.708 35.9479C217.452 37.9306 215.793 39.4471 213.741 40.4924C211.695 41.5378 209.359 42.058 206.743 42.058C202.856 42.058 199.646 40.9587 197.124 38.7551C194.606 36.5515 193.35 33.7492 193.35 30.3677C193.35 26.9765 194.606 24.1741 197.124 21.9509C199.646 19.7277 202.856 18.6185 206.743 18.6185C209.172 18.6185 211.366 19.0701 213.339 19.9829C215.317 20.8859 216.902 22.1718 218.114 23.8257L215.361 25.7397C214.448 24.4833 213.246 23.5067 211.749 22.8245C210.252 22.1423 208.588 21.8037 206.753 21.8037C203.911 21.8037 201.56 22.6086 199.7 24.2281C197.84 25.8428 196.913 27.8697 196.913 30.3039C196.913 32.7382 197.845 34.77 199.71 36.3797C201.58 37.9993 203.926 38.8042 206.753 38.8042C208.721 38.8042 210.463 38.4165 211.97 37.6459C213.476 36.8656 214.797 35.6632 215.935 34.024L218.708 35.9479Z" fill="#0B1536"/>
<path fill-rule="evenodd" clip-rule="evenodd" d="M30.4612 6.92681C31.5298 6.92155 32.3931 6.05034 32.3852 4.98174C32.38 3.91314 31.5088 3.04984 30.4402 3.05773C29.3716 3.063 28.5083 3.9342 28.5162 5.0028C28.5214 6.0714 29.3926 6.93207 30.4612 6.92681Z" fill="#0B1536"/>
<path fill-rule="evenodd" clip-rule="evenodd" d="M11.5441 20.4853C9.32001 22.891 7.84081 25.9731 7.44338 29.371C6.93539 33.706 8.23298 37.8383 10.7413 41.0099C13.2496 44.1841 16.9687 46.4002 21.3036 46.9082C24.8463 47.3241 28.3101 46.5213 31.2211 44.7894C33.9426 43.1681 36.1798 40.7335 37.5459 37.7146L33.3478 36.5328C32.3423 38.4621 30.8342 40.0281 29.0313 41.0993C26.9151 42.3601 24.391 42.9391 21.8011 42.6365C18.6453 42.268 15.9369 40.6519 14.1103 38.3436C12.2837 36.0327 11.3388 33.0269 11.7099 29.8685C12.002 27.376 13.0733 25.1282 14.6841 23.3858C16.2975 21.6408 18.4558 20.3932 20.9115 19.9115L20.085 15.7056C16.7239 16.3715 13.7629 18.0849 11.5441 20.4853Z" fill="#0B1536"/>
<path fill-rule="evenodd" clip-rule="evenodd" d="M33.0026 47.3685C29.5072 49.4478 25.3434 50.4085 21.0795 49.9084C15.8707 49.2978 11.4042 46.6342 8.39313 42.823C5.37946 39.0118 3.8213 34.0505 4.43193 28.8417C4.9136 24.7357 6.68495 21.0272 9.3433 18.153C12.0069 15.271 15.5628 13.2127 19.6135 12.4152L18.787 8.20923C13.8309 9.18571 9.46963 11.7098 6.20066 15.2446C2.92378 18.7847 0.747099 23.3302 0.160157 28.339C-0.587338 34.7242 1.32351 40.8095 5.01888 45.4866C8.71424 50.1637 14.1941 53.4274 20.5794 54.1775C25.7987 54.7882 30.9022 53.609 35.1924 51.056C39.4563 48.5187 42.9095 44.6259 44.8704 39.783L40.7065 38.6091C39.0826 42.3598 36.3479 45.3761 33.0026 47.3685Z" fill="#0B1536"/>
<path fill-rule="evenodd" clip-rule="evenodd" d="M57.1916 20.1152C57.1784 20.0573 57.1521 20.002 57.1179 19.952L53.8936 15.6776C54.5253 12.3481 54.699 11.3032 53.1777 8.12367C51.8959 5.02051 48.6243 1.45412 40.344 1.71995C40.1466 0.877705 39.3885 0.251282 38.4858 0.253915C37.4382 0.259179 36.5907 1.11459 36.596 2.16213C36.6012 3.20968 37.4566 4.05719 38.5042 4.05193C38.8885 4.0493 39.2438 3.93349 39.5412 3.73608C40.2255 4.29144 40.9467 5.26529 41.5837 6.56551C41.3441 6.75502 41.1599 7.01296 41.0546 7.30774C39.8597 7.25247 38.8069 7.28932 38.0541 7.31827C38.0067 7.3209 37.9594 7.3209 37.912 7.32353C37.7356 6.77871 37.2303 6.38127 36.6249 6.3839C35.8801 6.38653 35.28 6.99453 35.2826 7.7394C35.2852 8.48426 35.8932 9.08436 36.6381 9.08173C37.2303 9.0791 37.7251 8.69219 37.9041 8.16052C37.962 8.15789 38.0173 8.15789 38.0831 8.15525C38.8095 8.12893 39.8281 8.09209 40.9862 8.14473C41.0494 8.48689 41.2178 8.79221 41.46 9.02646C40.0044 9.93187 38.7963 11.0294 37.9251 12.2375C37.6146 12.0217 37.2382 11.8927 36.8302 11.8954C35.7827 11.9006 34.9352 12.756 34.9404 13.8036C34.9457 14.7774 35.68 15.5723 36.6249 15.6802C36.6565 18.3228 38.7911 21.576 41.8337 24.7739C40.7914 27.3322 39.1648 29.9826 36.6802 32.4857C36.4065 32.2462 36.0485 32.1014 35.6563 32.1041C34.7983 32.1093 34.1087 32.8068 34.1113 33.6648C34.1166 34.5229 34.8141 35.2125 35.6721 35.2098C36.0459 35.2072 36.388 35.073 36.6539 34.8545L43.7577 36.7364C43.7656 37.5918 44.4631 38.2788 45.3185 38.2762C46.1765 38.2709 46.8661 37.5734 46.8635 36.7154C46.8609 36.1021 46.5003 35.5731 45.9818 35.3257C46.0002 34.1149 46.3081 33.1069 46.8951 32.4041C47.4399 31.7487 48.2164 31.3908 49.0823 31.3908C49.0876 31.3908 49.0928 31.3908 49.0981 31.3908H49.2034C51.0879 31.4039 53.0382 31.4118 53.9331 30.2195C54.4411 29.5457 54.5359 28.5956 54.22 27.3217C54.778 27.0637 55.1439 26.6689 55.2439 26.1978C55.307 25.9004 55.286 25.4792 54.9438 24.9976L55.5992 24.7739C55.7334 24.7291 55.8361 24.6186 55.8703 24.4817C56.0545 23.7684 55.9598 23.0552 55.6124 22.4498C56.4335 22.0787 57.4785 21.4154 57.1916 20.1152ZM51.4906 6.77344C50.8589 6.6629 50.1904 6.61289 49.4982 6.61815C49.3008 6.1128 48.8112 5.75222 48.2374 5.75485C47.9874 5.75748 47.7584 5.82854 47.5584 5.94962C45.8054 4.502 43.5735 3.34918 40.9099 2.54641C45.9028 2.4885 49.5061 3.93085 51.4906 6.77344ZM49.4034 22.1866C48.6006 23.75 47.5505 25.2582 46.2897 26.6531C46.1134 26.5689 45.916 26.5189 45.7054 26.5189C45.4633 26.5189 45.2395 26.59 45.0448 26.7031C44.2657 25.9951 43.5235 25.2766 42.826 24.558C43.8709 21.8049 44.2762 19.1703 44.371 16.9331C44.3789 16.9331 44.3868 16.9331 44.3947 16.9331C44.8 16.9304 45.1737 16.8015 45.4817 16.583C46.9477 17.6069 48.2348 18.8755 49.3323 20.2284C49.0902 20.4731 48.9402 20.8127 48.9428 21.1838C48.9454 21.5865 49.127 21.9392 49.4034 22.1866ZM46.0423 15.9618C46.1976 15.6855 46.2871 15.367 46.2845 15.0275C46.2792 13.9799 45.4238 13.1324 44.3762 13.1377C44.3341 13.1377 44.292 13.1429 44.2499 13.1456C44.0999 11.7822 43.8367 10.453 43.4813 9.22123C43.7103 9.07383 43.8998 8.8738 44.0314 8.63428C44.0946 8.60796 44.1604 8.58428 44.2262 8.55795C47.0609 9.19227 49.9219 10.7004 51.1405 14.1721C51.159 14.3642 51.1721 14.559 51.18 14.7564C51.2511 16.4488 50.9747 18.1648 50.4062 19.8441C50.3667 19.8414 50.3272 19.8336 50.2878 19.8336C50.222 19.8336 50.1588 19.8441 50.0956 19.8546C48.9454 18.4149 47.5926 17.0594 46.0423 15.9618ZM45.6449 8.0605C46.1107 7.92364 46.5792 7.80783 47.0477 7.71834C47.2741 8.15525 47.7242 8.45531 48.2506 8.45267C48.448 8.45267 48.6322 8.40793 48.8007 8.3316C49.5113 9.21333 50.0719 10.1767 50.4694 11.2163C49.177 9.59234 47.4425 8.62902 45.6449 8.0605ZM40.2387 3.22284C42.9944 3.99665 45.2685 5.1179 47.0188 6.54709C46.9714 6.65237 46.9372 6.76555 46.9161 6.88399C46.0186 7.0577 45.1132 7.31827 44.2236 7.6578C44.1315 6.83924 43.434 6.20492 42.5917 6.21019C42.5128 6.21019 42.4338 6.21808 42.3601 6.22861C41.7389 4.94682 41.0125 3.9019 40.2387 3.22284ZM42.3496 9.45811C42.4338 9.47127 42.5207 9.47916 42.6075 9.47916C42.6338 9.47916 42.6628 9.47653 42.6891 9.4739C43.0286 10.6583 43.2892 11.9743 43.434 13.393C43.1208 13.5772 42.8628 13.8457 42.697 14.1721C41.4547 13.7115 40.1229 13.4351 38.7069 13.3956C38.6674 13.2061 38.5989 13.0298 38.5068 12.8666C39.4412 11.4953 40.7967 10.3425 42.3496 9.45811ZM37.4724 15.5855C38.0778 15.3749 38.5437 14.8669 38.6937 14.2352C40.0413 14.2721 41.3099 14.5432 42.4917 14.988C42.4917 15.0064 42.4891 15.0275 42.4891 15.0459C42.4917 15.7881 42.9207 16.4251 43.5419 16.7357C43.4682 18.8281 43.1102 21.2917 42.1838 23.879C39.3596 20.8364 37.4593 17.849 37.4724 15.5855ZM42.4759 25.424C43.1129 26.0662 43.7814 26.7031 44.4763 27.3322C44.4052 27.498 44.3631 27.6823 44.3631 27.8744C44.3631 28.0771 44.4131 28.2666 44.4947 28.4403C42.4601 30.2669 40.0492 31.8224 37.3829 32.9674C39.7939 30.5169 41.4099 27.9349 42.4759 25.424ZM46.2555 31.8619C45.5685 32.6857 45.1974 33.8254 45.1553 35.1756C44.6579 35.2283 44.2315 35.5152 43.9867 35.9258L37.1566 34.1149C37.1724 34.0623 37.1855 34.0096 37.1961 33.957C40.1597 32.7568 42.8339 31.0591 45.0685 29.0456C45.2632 29.1536 45.4843 29.2194 45.7238 29.2194C45.9791 29.2167 46.2134 29.143 46.4161 29.0167C47.0714 29.5615 47.7347 30.0958 48.4059 30.6117C47.5636 30.7617 46.8161 31.1907 46.2555 31.8619ZM53.2646 29.7115C52.6855 30.4827 51.2169 30.5485 49.7035 30.5485C48.7717 29.851 47.8531 29.122 46.9635 28.3771C47.0293 28.2192 47.0635 28.0455 47.0635 27.8612C47.0635 27.6296 46.9977 27.4138 46.8925 27.2216C48.219 25.753 49.3244 24.1659 50.1667 22.5156C50.2114 22.5209 50.2562 22.5287 50.3009 22.5287C50.5141 22.5287 50.7115 22.4735 50.8905 22.384C52.0038 24.108 52.8198 25.8161 53.3172 27.1901C53.662 28.3587 53.6436 29.2062 53.2646 29.7115ZM54.8096 21.8681C54.6806 21.9181 54.5859 22.0287 54.5543 22.1629C54.5227 22.2971 54.5595 22.4393 54.6517 22.5393C55.0333 22.9604 55.1912 23.4921 55.1044 24.0501L54.0647 24.4027C53.9226 24.4501 53.8173 24.5712 53.7884 24.7186C53.7594 24.866 53.812 25.016 53.9252 25.116C54.3016 25.4424 54.4806 25.7635 54.4253 26.0162C54.3858 26.2004 54.2174 26.3741 53.9568 26.511C53.4172 25.1213 52.5908 23.4552 51.4932 21.7839C51.5854 21.5996 51.6433 21.3943 51.6433 21.1733C51.6406 20.7679 51.4564 20.41 51.1721 20.1626C51.7906 18.3675 52.0933 16.5304 52.017 14.7195C52.0065 14.4932 51.9907 14.2721 51.9696 14.051C51.9696 14.0352 51.967 14.022 51.9644 14.0062C51.7327 11.6716 50.8563 9.57655 49.3981 7.79204C49.4587 7.68939 49.5061 7.57884 49.5376 7.4604C50.4457 7.45514 51.309 7.55252 52.0881 7.76835C52.2039 7.9947 52.3144 8.22632 52.4118 8.46847C53.8384 11.4558 53.6883 12.2586 53.0461 15.6407L53.033 15.7092C53.0119 15.825 53.0382 15.9461 53.1093 16.0382L56.3862 20.3836C56.4809 20.989 56.0519 21.3864 54.8096 21.8681Z" fill="#0B1536"/>
<path fill-rule="evenodd" clip-rule="evenodd" d="M36.2472 25.9871C37.2158 25.9818 37.9948 25.1922 37.9896 24.2263C37.9843 23.2577 37.1947 22.4786 36.2288 22.4839C35.2602 22.4891 34.4811 23.2788 34.4864 24.2447C34.4916 25.2107 35.2812 25.9924 36.2472 25.9871Z" fill="#0B1536"/>
<path fill-rule="evenodd" clip-rule="evenodd" d="M32.1065 29.2836C32.1117 30.1416 32.8092 30.8312 33.6673 30.8286C34.5253 30.8233 35.2149 30.1259 35.2123 29.2678C35.207 28.4098 34.5095 27.7202 33.6515 27.7228C32.7934 27.7281 32.1012 28.4256 32.1065 29.2836Z" fill="#0B1536"/>
<path fill-rule="evenodd" clip-rule="evenodd" d="M30.9281 19.4052C29.8595 19.4105 28.9962 20.2817 29.0015 21.3529C29.0068 22.4215 29.878 23.2848 30.9492 23.2795C32.0178 23.2743 32.8811 22.4031 32.8758 21.3318C32.8679 20.2632 31.9967 19.3999 30.9281 19.4052Z" fill="#0B1536"/>
<path fill-rule="evenodd" clip-rule="evenodd" d="M26.5673 17.3025C26.562 16.2102 25.6724 15.3284 24.5801 15.3337C23.4878 15.339 22.6061 16.2286 22.6114 17.3209C22.6166 18.4132 23.5062 19.2949 24.5985 19.2896C25.6908 19.2844 26.5725 18.3947 26.5673 17.3025Z" fill="#0B1536"/>
<path fill-rule="evenodd" clip-rule="evenodd" d="M30.1397 15.8937C31.1741 15.8884 32.0085 15.0461 32.0032 14.0118C31.9979 12.9774 31.1557 12.143 30.1213 12.1483C29.0869 12.1535 28.2526 12.9958 28.2578 14.0302C28.2631 15.0646 29.1053 15.8989 30.1397 15.8937Z" fill="#0B1536"/>
<path d="M23.8994 12.3899C25.4039 12.3899 26.6236 11.1703 26.6236 9.6658C26.6236 8.16129 25.4039 6.94165 23.8994 6.94165C22.3949 6.94165 21.1753 8.16129 21.1753 9.6658C21.1753 11.1703 22.3949 12.3899 23.8994 12.3899Z" fill="#0B1536"/>
<path d="M23.4283 35.6034C25.9866 35.6034 28.0606 33.5295 28.0606 30.9711C28.0606 28.4127 25.9866 26.3387 23.4283 26.3387C20.8699 26.3387 18.7959 28.4127 18.7959 30.9711C18.7959 33.5295 20.8699 35.6034 23.4283 35.6034Z" fill="#0B1536"/>
</svg>
