<?xml version="1.0" encoding="UTF-8"?>
<svg id="katman_1" data-name="katman 1" xmlns="http://www.w3.org/2000/svg" viewBox="0 0 363.5 360.36">
  <defs>
    <style>
      .cls-1 {
        fill: none;
        stroke: #e7fa0b;
        stroke-miterlimit: 10;
        stroke-width: 2px;
      }

      .cls-2 {
        fill: #e7fa0b;
        opacity: .15;
      }
    </style>
  </defs>
  <g>
    <line class="cls-1" x1="1.57" y1="242.44" x2="361.93" y2="242.44"/>
    <line class="cls-1" x1="181.75" y1="360.36" x2="181.75"/>
  </g>
  <g>
    <path class="cls-2" d="m245.08,269.56c-46.31-1.87-92.62-3.63-138.91-5.68-16.63-.73-28.59-12.3-30.8-30.35-3.76-30.63,4.32-58.4,23.25-82.53,14.36-18.31,33.99-21.79,55.29-14.96,21.3,6.83,42.3,6.98,64.14,2.53,39.56-8.07,57.41,2.83,66.77,42.59,4.01,17.03,5.25,35.56,3.4,52.94-3.12,29.33-13.55,36.57-43.13,35.45Z"/>
    <path class="cls-1" d="m245.08,269.56c-46.31-1.87-92.62-3.63-138.91-5.68-16.63-.73-28.59-12.3-30.8-30.35-3.76-30.63,4.32-58.4,23.25-82.53,14.36-18.31,33.99-21.79,55.29-14.96,21.3,6.83,42.3,6.98,64.14,2.53,39.56-8.07,57.41,2.83,66.77,42.59,4.01,17.03,5.25,35.56,3.4,52.94-3.12,29.33-13.55,36.57-43.13,35.45Z"/>
  </g>
</svg>