<?xml version="1.0" encoding="UTF-8"?>
<svg id="katman_1" data-name="katman 1" xmlns="http://www.w3.org/2000/svg" viewBox="0 0 363.5 360.36">
  <defs>
    <style>
      .cls-1 {
        fill: none;
        stroke: #e7fa0b;
        stroke-miterlimit: 10;
        stroke-width: 2px;
      }

      .cls-2 {
        fill: #e7fa0b;
        opacity: .15;
      }
    </style>
  </defs>
  <g>
    <path class="cls-1" d="m56.7,196.98c-1.88-11.13-1.94-22.53.19-33.61,7.39-38.49,35.92-54.2,81.14-42.84,7.41,1.86,14.87,3.77,22,6.46,23.43,8.82,46.43,9.96,71.03,2.79,33.07-9.64,48.54-.77,62.1,31.01,11.85,27.78,14.65,56.65,9.36,86.22-4.67,26.12-13.98,30.77-40.2,25.74-17.66-3.38-36.02-3.25-54.09-4.36-11.83-.73-23.99.62-35.49-1.62-19.48-3.79-37.67-2.3-56.06,5.21-29.76,12.13-43.8,4.96-50.98-26.11-3.73-16.13-6.23-32.54-8.99-48.89Z"/>
    <path class="cls-2" d="m56.7,196.98c-1.88-11.13-1.94-22.53.19-33.61,7.39-38.49,35.92-54.2,81.14-42.84,7.41,1.86,14.87,3.77,22,6.46,23.43,8.82,46.43,9.96,71.03,2.79,33.07-9.64,48.54-.77,62.1,31.01,11.85,27.78,14.65,56.65,9.36,86.22-4.67,26.12-13.98,30.77-40.2,25.74-17.66-3.38-36.02-3.25-54.09-4.36-11.83-.73-23.99.62-35.49-1.62-19.48-3.79-37.67-2.3-56.06,5.21-29.76,12.13-43.8,4.96-50.98-26.11-3.73-16.13-6.23-32.54-8.99-48.89Z"/>
  </g>
  <line class="cls-1" y1="242.44" x2="360.36" y2="242.44"/>
  <line class="cls-1" x1="180.18" y1="360.36" x2="180.18"/>
</svg>