<svg width="13" height="12" viewBox="0 0 13 12" fill="none" xmlns="http://www.w3.org/2000/svg">
<path d="M10.382 11.7901H2.58692C2.14095 11.7891 1.71352 11.6115 1.39817 11.2962C1.08282 10.9808 0.905237 10.5534 0.904297 10.1074V3.31544C0.905153 2.86916 1.08293 2.44143 1.39864 2.12602C1.71436 1.8106 2.14226 1.63324 2.58854 1.63281H10.3836C10.8299 1.63367 11.2576 1.81144 11.5731 2.12716C11.8885 2.44288 12.0658 2.87078 12.0663 3.31706V10.1058C12.0658 10.5523 11.8881 10.9804 11.5724 11.2962C11.2567 11.6119 10.8286 11.7895 10.382 11.7901ZM2.58692 2.44015C2.35486 2.44041 2.13238 2.53271 1.96829 2.6968C1.80419 2.86089 1.71189 3.08338 1.71163 3.31544V10.1058C1.7124 10.3376 1.80492 10.5596 1.96895 10.7233C2.13298 10.887 2.35517 10.9791 2.58692 10.9795H10.382C10.6135 10.9788 10.8354 10.8865 10.999 10.7228C11.1627 10.5591 11.255 10.3373 11.2557 10.1058V3.31544C11.2551 3.08391 11.1629 2.86204 10.9991 2.69832C10.8354 2.53461 10.6136 2.44237 10.382 2.44177L2.58692 2.44015Z" fill="white"/>
<path d="M11.6619 6.16052H1.32049C1.21322 6.16052 1.11034 6.1179 1.03448 6.04205C0.95863 5.9662 0.916016 5.86331 0.916016 5.75604C0.916016 5.64877 0.95863 5.54589 1.03448 5.47003C1.11034 5.39418 1.21322 5.35156 1.32049 5.35156H11.6619C11.7691 5.35156 11.872 5.39418 11.9479 5.47003C12.0237 5.54589 12.0663 5.64877 12.0663 5.75604C12.0663 5.86331 12.0237 5.9662 11.9479 6.04205C11.872 6.1179 11.7691 6.16052 11.6619 6.16052Z" fill="white"/>
<path d="M3.88299 3.51431C3.82986 3.51436 3.77725 3.50392 3.72816 3.48361C3.67906 3.4633 3.63446 3.43351 3.59689 3.39594C3.55932 3.35837 3.52953 3.31377 3.50922 3.26467C3.48891 3.21558 3.47847 3.16296 3.47852 3.10984V1.03729C3.47852 0.930016 3.52113 0.827136 3.59698 0.751281C3.67284 0.675427 3.77572 0.632813 3.88299 0.632812C3.99027 0.632812 4.09315 0.675427 4.169 0.751281C4.24486 0.827136 4.28747 0.930016 4.28747 1.03729V3.10984C4.28747 3.21711 4.24486 3.31999 4.169 3.39584C4.09315 3.4717 3.99027 3.51431 3.88299 3.51431Z" fill="white"/>
<path d="M9.08807 3.51431C9.03494 3.51436 8.98233 3.50392 8.93323 3.48361C8.88414 3.4633 8.83954 3.43351 8.80197 3.39594C8.7644 3.35837 8.73461 3.31377 8.7143 3.26467C8.69398 3.21558 8.68355 3.16296 8.68359 3.10984V1.03729C8.68359 0.930016 8.72621 0.827136 8.80206 0.751281C8.87792 0.675427 8.9808 0.632813 9.08807 0.632812C9.19535 0.632812 9.29823 0.675427 9.37408 0.751281C9.44994 0.827136 9.49255 0.930016 9.49255 1.03729V3.10984C9.49255 3.21711 9.44994 3.31999 9.37408 3.39584C9.29823 3.4717 9.19535 3.51431 9.08807 3.51431Z" fill="white"/>
</svg>
