<svg width="13" height="14" viewBox="0 0 13 14" fill="none" xmlns="http://www.w3.org/2000/svg">
<path d="M4.67132 11.3608C4.32223 11.3608 4.07288 11.3469 4.07288 11.3469V9.65368H4.66744C5.32682 9.65368 5.74794 9.83045 5.74794 10.4175C5.74794 10.9157 5.56564 11.3608 4.67132 11.3608ZM4.68683 9.2364H3.59137V13.2854H4.07344V11.7872H4.77992C5.76789 11.7872 6.23943 11.2001 6.23943 10.4572C6.23943 9.70028 5.7568 9.2364 4.68794 9.2364M7.3371 11.4487H9.03432V11.0137H7.3371V9.64779H9.30306V9.2364H6.85504V13.211H9.38507V12.7996H7.3371V11.4487ZM11.8336 11.1096V11.5129H12.5479V12.5125C12.329 12.8269 11.7433 12.8269 11.7433 12.8269C11.2973 12.8269 10.9377 12.6785 10.6756 12.378C10.4151 12.0791 10.2838 11.7577 10.2838 11.2746C10.2838 10.7673 10.414 10.3774 10.6778 10.0656C10.9449 9.75331 11.315 9.58083 11.776 9.58083C12.0126 9.58083 12.2658 9.651 12.513 9.79777L12.8111 9.47531C12.544 9.26319 12.2038 9.15766 11.7915 9.15766C11.1765 9.15766 10.6806 9.35104 10.3198 9.73617C9.95579 10.1192 9.77128 10.6296 9.77128 11.2531C9.77128 11.8767 9.94028 12.3475 10.27 12.7235C10.5974 13.0942 11.0568 13.2844 11.622 13.2844C11.8769 13.2844 12.1384 13.2613 12.4105 13.1788C12.6199 13.1146 12.692 13.0631 13.0061 13.0631V11.1096H11.8336ZM2.06537 9.2364H1.74177V9.64779H2.06537V11.5606C2.06537 12.1504 2.08366 12.4959 1.8742 12.6983C1.74641 12.8208 1.57483 12.8912 1.39491 12.8949C0.640217 12.8949 0.612512 12.3105 0.612512 12.3105H0.150391C0.194719 13.3508 1.45918 13.2817 1.45918 13.2817C1.79552 13.264 2.06149 13.1569 2.26928 12.9555C2.54356 12.6882 2.55021 12.1938 2.55021 11.7813V9.23694L2.06537 9.2364ZM9.54354 0.429688H1.62597V8.07992H6.20618V4.8601H9.54354V0.429688ZM9.92366 5.28648H12.8122V8.08046H9.92366V5.28648Z" fill="white"/>
</svg>
