<svg width="17" height="15" viewBox="0 0 17 15" fill="none" xmlns="http://www.w3.org/2000/svg">
<path d="M1.07143 5.14821H5.14821V1.07143H10.7143V5.56071H11.7857V1.07143C11.7857 0.787268 11.6728 0.514746 11.4719 0.313814C11.271 0.112882 10.9984 0 10.7143 0H3.68036L0 3.68036V13.9286C0 14.2127 0.112882 14.4853 0.313814 14.6862C0.514746 14.8871 0.787268 15 1.07143 15H10.7143C10.9984 15 11.271 14.8871 11.4719 14.6862C11.6728 14.4853 11.7857 14.2127 11.7857 13.9286H1.07143V5.14821ZM1.07143 4.11964L4.11964 1.07143H4.28571V4.28571H1.07143V4.11964Z" fill="white"/>
<path d="M13.0252 6.6171C12.9227 6.52933 12.7909 6.48347 12.6561 6.48868C12.5213 6.49389 12.3934 6.54978 12.298 6.64519C12.2025 6.7406 12.1467 6.86849 12.1414 7.00332C12.1362 7.13814 12.1821 7.26997 12.2699 7.37245L14.0109 9.10817H7.49665C7.35457 9.10817 7.21831 9.16461 7.11784 9.26508C7.01738 9.36554 6.96094 9.5018 6.96094 9.64388C6.96094 9.78596 7.01738 9.92222 7.11784 10.0227C7.21831 10.1232 7.35457 10.1796 7.49665 10.1796H14.027L12.2699 11.9367C12.2138 11.9848 12.1682 12.0439 12.1361 12.1103C12.1039 12.1768 12.0859 12.2492 12.083 12.323C12.0802 12.3967 12.0926 12.4703 12.1195 12.5391C12.1465 12.6078 12.1873 12.6702 12.2395 12.7224C12.2917 12.7747 12.3542 12.8155 12.4229 12.8424C12.4917 12.8694 12.5652 12.8818 12.639 12.879C12.7128 12.8761 12.7852 12.858 12.8516 12.8259C12.9181 12.7937 12.9772 12.7482 13.0252 12.6921L16.0681 9.64388L13.0252 6.6171Z" fill="white"/>
</svg>
