<svg width="24" height="74" viewBox="0 0 24 74" fill="none" xmlns="http://www.w3.org/2000/svg">
<path d="M22.7466 26.5411C21.8211 31.2323 18.5022 47.6354 16.013 63.528C14.8322 71.1233 12.343 77.4739 10.0452 69.4638C7.74751 61.4537 6.31145 50.4118 5.57746 41.9549C4.84346 33.498 2.4819 28.6473 2.13086 26.4453L22.7466 26.5411Z" fill="#F4DE9C" stroke="#5E5E5A" stroke-width="0.478693" stroke-linecap="round" stroke-linejoin="round"/>
<path d="M22.5855 27.4212C21.7877 31.9209 18.2772 30.5486 16.5539 32.8464C14.8306 35.1441 11.1925 35.527 8.89482 32.8464C6.59709 30.1657 2.19311 29.4636 1.81016 25.1235C1.4272 20.7833 -1.25348 4.6035 1.81016 2.46534C4.87379 0.359093 20.7345 -0.757856 22.5535 2.46534C24.3726 5.68854 23.479 22.1875 22.5535 27.4212H22.5855Z" fill="white" stroke="#5E5E5A" stroke-width="0.478693" stroke-linecap="round" stroke-linejoin="round"/>
</svg>
