<svg width="36" height="66" viewBox="0 0 36 66" fill="none" xmlns="http://www.w3.org/2000/svg">
<path d="M34.1318 19.4922H4.3266C6.49657 23.0663 3.62455 27.0871 3.11397 31.5228C2.60338 35.9585 0.592968 34.3629 0.975905 44.415C1.35884 54.4351 2.98632 57.02 4.42233 61.0089C5.85834 65.0297 9.49624 67.5507 10.4217 61.8067C11.3471 56.0626 8.73037 43.5215 11.0599 38.8943C13.3894 34.2672 15.4956 32.7354 16.6763 35.9585C17.857 39.1815 20.0589 40.8409 19.5164 45.0213C18.9739 49.2017 15.4956 56.4456 14.6659 60.4664C13.8362 64.4872 14.8893 67.455 20.761 61.1365C26.6326 54.8181 31.0683 50.6696 30.3344 42.596C29.6004 34.5224 30.4939 31.3313 31.3236 27.9806C32.1533 24.6299 33.2383 22.4919 34.1318 19.5241V19.4922Z" fill="#F4DE9C" stroke="#5E5E5A" stroke-width="0.478671" stroke-linecap="round" stroke-linejoin="round"/>
<path d="M6.5582 24.3857C2.88839 21.7689 0.303567 15.4824 1.48429 8.81293C2.66501 2.17536 5.95188 3.89858 7.67509 3.57946C9.39831 3.26035 12.3661 0.324504 16.7379 1.18611C21.1417 2.07963 22.8011 1.53714 26.9496 0.611706C31.098 -0.345636 35.1827 2.33491 35.3103 8.27043C35.4699 14.2059 35.3103 19.216 32.6617 21.4179C30.0131 23.6198 22.0033 20.7797 19.3547 21.4179C16.706 22.0562 12.1746 28.4384 6.52628 24.3857H6.5582Z" fill="white" stroke="#5E5E5A" stroke-width="0.478671" stroke-linecap="round" stroke-linejoin="round"/>
</svg>
