<svg width="39" height="74" viewBox="0 0 39 74" fill="none" xmlns="http://www.w3.org/2000/svg">
<path d="M14.4658 22.0553H1.31836C2.43526 24.3849 4.92435 32.3308 4.89244 35.7772C4.89244 39.2237 2.14806 44.4252 2.97775 49.5629C3.80745 54.7007 6.42418 69.1565 9.10474 71.518C11.7534 73.9113 13.8276 65.8697 13.8276 57.7323C13.8276 49.5949 17.8485 40.4363 19.7312 40.4363C22.9224 40.4363 23.9116 51.7329 23.2734 53.9667C22.6352 56.2005 20.0503 73.9113 23.6244 72.7306C27.1985 71.5818 32.6553 62.7104 32.9744 56.4558C33.2616 50.2012 32.9425 42.1595 33.3574 39.0322C33.7722 35.9049 36.006 26.3634 37.2825 22.0234H14.4658V22.0553Z" fill="#F4DE9C" stroke="#5E5E5A" stroke-width="0.478671" stroke-linecap="round" stroke-linejoin="round"/>
<path d="M2.5683 25.4396C-0.239898 19.5998 -1.61209 8.0798 5.50415 4.47381C12.6204 0.867826 17.9496 4.6972 21.3641 2.55913C24.7786 0.421071 35.0541 -2.22758 37.1602 6.32466C39.2664 14.8769 37.5751 21.9612 36.5858 24.4184C35.5966 26.8437 32.565 26.0459 29.9802 25.5034C27.3954 24.9928 22.7682 29.971 20.0876 30.0029C13.482 30.0667 11.312 24.1312 8.15279 24.4184C4.99357 24.7056 3.9724 28.4073 2.53639 25.4715L2.5683 25.4396Z" fill="white" stroke="#5E5E5A" stroke-width="0.478671" stroke-linecap="round" stroke-linejoin="round"/>
<mask id="mask0_26_145" style="mask-type:luminance" maskUnits="userSpaceOnUse" x="0" y="0" width="39" height="31">
<path d="M2.65861 25.5293C-0.181502 19.6576 -1.68133 8.04182 5.46682 4.40392C12.615 0.766024 17.9761 4.62731 21.4225 2.48924C24.8689 0.319269 35.2082 -2.32937 37.2825 6.25479C39.3567 14.8389 37.7292 21.9871 36.7081 24.4124C35.6869 26.8695 32.6553 26.0398 30.0705 25.4973C27.4857 24.9868 22.8266 29.9969 20.146 30.0288C13.5085 30.0926 11.3385 24.1252 8.17928 24.4124C5.02006 24.6996 4.12653 28.4651 2.69052 25.4973L2.65861 25.5293Z" fill="white"/>
</mask>
<g mask="url(#mask0_26_145)">
<path opacity="0.75" d="M45.6774 10.3469C45.6774 10.3469 32.4342 4.47518 32.4342 14.623C32.4342 23.622 45.5498 18.8034 45.5498 18.8034L45.6455 10.3469H45.6774Z" fill="#E62C2F" stroke="#E62C2F" stroke-width="0.638228" stroke-linecap="round" stroke-linejoin="round"/>
</g>
</svg>
