<svg width="45" height="76" viewBox="0 0 45 76" fill="none" xmlns="http://www.w3.org/2000/svg">
<path d="M5.0394 26.0781L41.5797 27.0355C39.9202 31.5352 39.8564 33.5138 39.4734 37.5987C39.0905 41.6835 38.9309 50.1404 39.5692 54.4486C40.2074 58.7249 41.8669 71.9688 39.7287 73.8516C37.5906 75.7664 34.7184 71.905 32.8674 67.0861C31.0165 62.2673 28.7826 57.2889 27.889 49.566C26.9955 41.8431 25.0169 41.7154 23.4531 43.6302C21.8894 45.5449 20.4214 56.5549 19.7512 60.7036C19.0811 64.8522 23.1659 75.926 19.0811 75.0324C14.9962 74.1389 11.1348 66.5436 9.18808 62.2673C7.24139 57.991 4.40117 51.6722 5.16707 44.9067C5.90107 38.1412 6.34786 29.429 5.07134 26.11L5.0394 26.0781Z" fill="#F4DE9C" stroke="#5E5E5A" stroke-width="0.478693" stroke-linecap="round" stroke-linejoin="round"/>
<path d="M42.3137 25.7373C44.3881 19.8016 45.8242 9.81285 40.6224 6.27053C26.836 -3.14376 24.1872 2.37717 19.2726 1.4517C15.6026 0.781527 8.16694 -0.782211 3.60339 2.37716C-0.960148 5.53653 0.38022 19.1952 2.93325 23.4715C5.48628 27.7479 8.80522 28.2904 12.9539 28.0351C17.1026 27.7798 22.1767 31.2583 27.5381 29.6307C32.8994 28.0351 40.6543 30.3966 42.2818 25.7373H42.3137Z" fill="white" stroke="#5E5E5A" stroke-width="0.478693" stroke-linecap="round" stroke-linejoin="round"/>
</svg>
