<svg width="33" height="77" viewBox="0 0 33 77" fill="none" xmlns="http://www.w3.org/2000/svg">
<path d="M30.3631 25.875C28.6079 34.4276 27.2675 41.7038 26.0868 48.3097C25.0656 53.9902 20.9169 62.128 22.4487 66.7872C25.1932 75.308 24.2677 79.5843 17.4065 72.723C10.8005 66.0852 10.258 54.4051 9.97075 44.5121C9.68353 34.6191 6.87523 30.4066 4.51367 25.875H30.3631Z" fill="#F4DE9C" stroke="#5E5E5A" stroke-width="0.478693" stroke-linecap="round" stroke-linejoin="round"/>
<path d="M31.5738 21.6615C32.9141 15.9491 31.4461 9.59848 27.2336 6.94971C23.0211 4.30095 15.9365 -0.645537 12.4899 0.694802C9.04332 2.03514 8.62842 3.63078 6.3307 4.62008C4.03297 5.60938 0.33108 10.3006 0.650209 16.6193C0.969337 22.938 6.23498 27.4059 7.35193 29.927C8.46888 32.4481 16.6066 40.0114 21.9361 34.8415C27.2655 29.6716 29.2123 31.746 31.6057 21.6615H31.5738Z" fill="white" stroke="#5E5E5A" stroke-width="0.478693" stroke-linecap="round" stroke-linejoin="round"/>
</svg>
