<svg width="26" height="85" viewBox="0 0 26 85" fill="none" xmlns="http://www.w3.org/2000/svg">
<path d="M24.7583 61.6229C24.535 49.9433 21.7268 36.4448 20.0036 30.5093C18.2803 24.5738 17.0677 14.1068 12.8235 5.23545C8.57928 -3.63591 6.47313 4.37385 6.88798 8.20321C7.30282 12.0326 4.94138 27.35 3.47346 33.5728C2.00554 39.7955 3.12244 50.8368 0.984375 61.6229H24.7583Z" fill="#F4DE9C" stroke="#5E5E5A" stroke-width="0.478671" stroke-linecap="round" stroke-linejoin="round"/>
<path d="M3.69269 81.0627C0.437726 79.1799 1.01213 69.4788 0.852576 63.8624C0.565374 52.9488 12.9151 41.0458 21.4354 53.4912C24.1479 57.4802 25.4562 58.629 25.4562 68.7449C25.4562 78.8608 22.9991 87.1258 16.7444 83.2327C10.5217 79.3395 10.6494 85.0835 3.66077 81.0627H3.69269Z" fill="white" stroke="#5E5E5A" stroke-width="0.478671" stroke-linecap="round" stroke-linejoin="round"/>
<mask id="mask0_25_63" style="mask-type:luminance" maskUnits="userSpaceOnUse" x="0" y="47" width="26" height="38">
<path d="M3.37333 81.2786C0.0864567 79.364 1.01188 69.5672 0.852327 63.855C0.533213 52.7818 12.7553 40.6235 21.4352 53.2605C24.2114 57.3132 25.5198 58.4939 25.5198 68.7694C25.5198 79.0448 22.9988 87.4375 16.6804 83.4805C10.3619 79.5235 10.4896 85.3633 3.37333 81.2786Z" fill="white"/>
</mask>
<g mask="url(#mask0_25_63)">
<path opacity="0.75" d="M31.4523 62.8405C31.4523 62.8405 20.8896 60.2556 20.8896 67.6272C20.8896 76.5304 31.58 73.6903 31.58 73.6903L31.4523 62.8405Z" fill="#E62C2F" stroke="#E62C2F" stroke-width="1.59557" stroke-linecap="round" stroke-linejoin="round"/>
</g>
</svg>
