<svg width="31" height="87" viewBox="0 0 31 87" fill="none" xmlns="http://www.w3.org/2000/svg">
<path d="M29.0029 63.1907C28.2051 55.0533 26.3861 46.7563 25.6203 38.5232C24.8544 30.2901 21.759 23.6525 19.9719 11.1432C18.1849 -1.33412 13.8449 -1.90853 11.1963 4.53757C8.54766 10.9837 4.68639 28.3754 5.51608 37.9488C6.37769 47.5222 3.66525 58.6274 2.00586 63.1907H28.971H29.0029Z" fill="#F4DE9C" stroke="#5E5E5A" stroke-width="0.478671" stroke-linecap="round" stroke-linejoin="round"/>
<path d="M3.66768 84.4681C4.40164 84.6276 7.65663 86.4785 12.3157 86.0318C15.2196 85.7445 18.8256 86.9253 22.3678 85.6169C24.1548 84.9468 26.2291 84.851 28.2395 84.1809C30.4414 83.4469 30.6009 74.767 29.8669 66.6615C29.133 58.5561 27.5055 60.6303 24.8568 56.067C13.3049 36.1862 11.9647 54.0246 6.25254 54.4395C2.61465 54.6948 -3.51238 82.8087 3.66768 84.4362V84.4681Z" fill="white" stroke="#5E5E5A" stroke-width="0.478671" stroke-linecap="round" stroke-linejoin="round"/>
<mask id="mask0_25_72" style="mask-type:luminance" maskUnits="userSpaceOnUse" x="0" y="46" width="31" height="41">
<path d="M3.18663 84.7289C3.9525 84.9203 7.23938 86.7712 11.9623 86.3244C14.8981 86.0372 18.5679 87.2498 22.1739 85.9096C23.9928 85.2394 26.099 85.1118 28.1413 84.4416C30.3751 83.7077 30.5347 74.8682 29.8007 66.667C29.0667 58.4339 27.4074 60.54 24.7268 55.9129C12.9834 35.713 11.6112 53.8386 5.80334 54.2535C2.10162 54.5407 -2.84462 83.2928 3.18663 84.7608V84.7289Z" fill="white"/>
</mask>
<g mask="url(#mask0_25_72)">
<path opacity="0.75" d="M34.458 65.1705C34.458 65.1705 23.8953 62.5857 23.8953 69.9572C23.8953 78.8605 34.5856 76.0203 34.5856 76.0203L34.458 65.1705Z" fill="#E62C2F" stroke="#E62C2F" stroke-width="1.59557" stroke-linecap="round" stroke-linejoin="round"/>
</g>
</svg>
