<svg width="26" height="84" viewBox="0 0 26 84" fill="none" xmlns="http://www.w3.org/2000/svg">
<path d="M24.406 60.6725C24.1826 48.9924 21.3742 35.4933 19.6509 29.5575C17.9276 23.6217 16.7149 13.1543 12.4705 4.28251C8.22612 -4.58925 6.11987 3.42087 6.53474 7.25041C6.9496 11.0799 4.58805 26.3981 3.12006 32.6211C1.65207 38.8441 2.76902 49.8859 0.630859 60.6725H24.406Z" fill="#F4DE9C" stroke="#5E5E5A" stroke-width="0.478693" stroke-linecap="round" stroke-linejoin="round"/>
<path d="M3.37056 80.0876C0.115441 78.2047 0.689875 68.5033 0.530311 62.8866C0.243095 51.9724 12.5934 40.0689 21.1141 52.5149C23.8267 56.504 25.1351 57.6529 25.1351 67.7693C25.1351 77.8856 22.6779 86.151 16.4229 82.2577C10.1999 78.3643 10.3276 84.1086 3.33864 80.0876H3.37056Z" fill="white" stroke="#5E5E5A" stroke-width="0.478693" stroke-linecap="round" stroke-linejoin="round"/>
</svg>
