<svg width="29" height="83" viewBox="0 0 29 83" fill="none" xmlns="http://www.w3.org/2000/svg">
<path d="M1.0957 55.4919C1.0957 48.6945 2.91477 36.1527 4.2232 27.7596C5.53163 19.3666 10.4781 17.0369 9.55265 8.4843C8.62717 -0.0683395 12.5205 -1.79163 15.9033 4.52711C19.286 10.8458 21.3604 19.2708 20.4668 28.6213C19.5733 37.9718 21.4561 43.4608 26.6898 55.5238H1.12765L1.0957 55.4919Z" fill="#F4DE9C" stroke="#5E5E5A" stroke-width="0.478693" stroke-linecap="round" stroke-linejoin="round"/>
<path d="M27.1679 75.9786C25.6041 78.6273 20.4343 78.1486 19.6364 80.3506C18.8705 82.5207 11.1157 83.4781 8.94565 79.7124C6.77558 75.9786 2.72264 74.5744 1.76526 71.0002C0.839782 67.4259 -0.245256 53.3843 1.76526 51.9801C3.77577 50.576 7.19041 52.2993 8.91371 50.4164C10.637 48.5335 14.9133 43.3956 17.8493 46.6826C20.7853 49.9696 21.3278 52.1716 23.7213 52.6822C29.9762 53.9906 28.2848 74.0638 27.1679 75.9786Z" fill="white" stroke="#5E5E5A" stroke-width="0.478693" stroke-linecap="round" stroke-linejoin="round"/>
</svg>
