<svg width="36" height="84" viewBox="0 0 36 84" fill="none" xmlns="http://www.w3.org/2000/svg">
<path d="M27.4914 31.5229C26.1512 22.6515 23.1834 18.2159 21.0134 6.63203C18.8435 -4.9518 14.4397 1.87723 14.0567 9.40832C13.6738 16.9394 9.27004 21.5985 9.27004 27.183C9.27004 32.7674 7.83403 44.0322 3.68555 54.9778H31.9271C30.3635 48.4998 28.8317 40.3943 27.4914 31.5229Z" fill="#F4DE9C" stroke="#5E5E5A" stroke-width="0.478671" stroke-linecap="round" stroke-linejoin="round"/>
<path d="M0.978516 70.1284C0.978516 63.9057 2.86131 54.2046 6.43538 50.0242C8.79682 47.248 13.9026 44.7269 17.7958 45.2694C21.689 45.8119 23.0931 50.3114 26.0609 50.1838C28.9967 50.0562 31.6773 49.4179 32.2836 55.0024C32.9218 60.6188 34.1663 61.0656 34.7088 64.6716C35.2513 68.2456 36.4959 71.3091 29.7945 73.9897C23.0931 76.6702 21.4337 84.7757 15.4982 82.9887C9.53077 81.2016 10.3286 77.7871 6.11625 76.2235C1.90395 74.6598 0.978516 72.4898 0.978516 70.1603V70.1284Z" fill="white" stroke="#5E5E5A" stroke-width="0.478671" stroke-linecap="round" stroke-linejoin="round"/>
<mask id="mask0_24_37" style="mask-type:luminance" maskUnits="userSpaceOnUse" x="0" y="44" width="36" height="40">
<path d="M0.68493 70.2221C0.68493 63.8718 3.84415 52.639 6.2375 49.7988C8.59894 46.9587 13.8324 44.4058 17.7894 44.9483C21.7464 45.4908 23.1824 50.086 26.1821 49.9265C29.1818 49.7988 31.8943 49.1287 32.5006 54.8408C33.1388 60.553 34.4152 60.9997 34.9577 64.6696C35.5002 68.3074 36.7767 71.4028 29.9477 74.1472C23.1505 76.8597 21.4592 85.0928 15.3961 83.2739C9.33291 81.4549 10.1307 77.9766 5.85458 76.381C1.57846 74.7855 0.621094 72.5836 0.621094 70.2221H0.68493Z" fill="white"/>
</mask>
<g mask="url(#mask0_24_37)">
<path opacity="0.75" d="M40.7342 57.2944C40.7342 57.2944 28.4802 55.3798 28.4802 63.1342C28.4802 72.1332 40.4789 70.2186 40.4789 70.2186L40.7342 57.2944Z" fill="#E62C2F" stroke="#E62C2F" stroke-width="1.59557" stroke-linecap="round" stroke-linejoin="round"/>
</g>
</svg>
