<svg width="41" height="79" viewBox="0 0 41 79" fill="none" xmlns="http://www.w3.org/2000/svg">
<path d="M13.1339 7.54269C13.4211 1.16041 17.5695 2.50069 18.1758 7.82989C18.8141 13.1272 21.9414 23.4984 25.9622 33.7419L14.4103 35.9119C13.1339 32.1464 12.8786 13.9569 13.1339 7.54269Z" fill="#F4DE9C" stroke="#5E5E5A" stroke-width="0.478671" stroke-linecap="round" stroke-linejoin="round"/>
<path d="M1.61289 29.2546C2.69788 22.8723 2.31498 13.7137 5.44229 5.19338C8.56961 -3.32695 11.0268 2.57665 10.229 6.50175C9.43122 10.4588 11.0267 18.1494 13.1648 22.5213C15.3029 26.8931 17.8239 35.6368 22.3553 32.1266C26.8867 28.6163 24.3658 16.841 21.8128 8.0335C19.2599 -0.774045 24.3657 1.42784 26.2485 5.41676C28.0993 9.40569 35.0241 19.6812 34.8964 30.8182C34.7688 41.9553 33.8753 45.9761 37.226 51.9755L1.64483 52.486C0.527934 43.3594 0.495991 35.6688 1.61289 29.2865V29.2546Z" fill="#F4DE9C" stroke="#5E5E5A" stroke-width="0.478671" stroke-linecap="round" stroke-linejoin="round"/>
<path d="M36.3931 50.5022C40.8926 57.5227 41.2118 69.0427 35.755 72.17C30.2981 75.2973 27.1707 72.17 24.5221 72.9359C21.8734 73.7017 14.3743 81.8072 8.47067 76.3504C2.1203 70.4787 -0.719808 53.3104 2.08839 49.4172C8.11964 41.0564 13.4489 50.6936 21.8097 45.875C24.5541 44.2794 31.8618 43.5136 36.3613 50.5341L36.3931 50.5022Z" fill="white" stroke="#5E5E5A" stroke-width="0.478671" stroke-linecap="round" stroke-linejoin="round"/>
<mask id="mask0_26_124" style="mask-type:luminance" maskUnits="userSpaceOnUse" x="0" y="44" width="41" height="35">
<path d="M38.1809 52.9937C40.3508 59.1845 41.6592 69.1408 36.1067 72.3C30.5541 75.4593 26.8524 72.1086 24.2995 73.2893C21.4594 74.5977 13.1305 82.6712 7.13116 75.204C2.02534 68.8536 -0.974375 53.1213 1.89765 49.1643C8.02463 40.6759 13.4496 50.4727 21.938 45.5583C24.7143 43.9627 34.8621 43.5798 38.1809 52.9937Z" fill="white"/>
</mask>
<g mask="url(#mask0_26_124)">
<path opacity="0.75" d="M-4.73576 56.8426C-4.73576 56.8426 8.34793 51.9921 8.34793 62.3314C8.34793 71.458 -4.7677 67.9159 -4.7677 67.9159L-4.70386 56.8426H-4.73576Z" fill="#E62C2F" stroke="#E62C2F" stroke-width="0.638228" stroke-linecap="round" stroke-linejoin="round"/>
</g>
</svg>
