<svg width="29" height="83" viewBox="0 0 29 83" fill="none" xmlns="http://www.w3.org/2000/svg">
<path d="M28.2199 55.4582C28.2199 48.661 26.4009 36.1199 25.0926 27.7272C23.7842 19.3345 18.8379 17.0049 19.7634 8.4527C20.6888 -0.0995535 16.7956 -1.82277 13.413 4.49569C10.0304 10.8141 7.95616 19.2387 8.84967 28.5888C9.74319 37.9388 7.86042 43.4276 2.62695 55.4901H28.188L28.2199 55.4582Z" fill="#F4DE9C" stroke="#5E5E5A" stroke-width="0.478671" stroke-linecap="round" stroke-linejoin="round"/>
<path d="M2.15066 75.9459C3.71432 78.5946 8.88396 78.1159 9.68175 80.3178C10.4476 82.4878 18.2021 83.4451 20.3721 79.6796C22.542 75.946 26.5948 74.5418 27.5521 70.9678C28.4776 67.3937 29.5625 53.3527 27.5521 51.9486C25.5417 50.5445 22.1272 52.2677 20.404 50.3849C18.6808 48.5022 14.4046 43.3644 11.4688 46.6513C8.53293 49.9382 7.99044 52.1401 5.59708 52.6506C-0.657547 53.959 1.03376 74.0313 2.15066 75.9459Z" fill="white" stroke="#5E5E5A" stroke-width="0.478671" stroke-linecap="round" stroke-linejoin="round"/>
<mask id="mask0_24_28" style="mask-type:luminance" maskUnits="userSpaceOnUse" x="1" y="45" width="28" height="38">
<path d="M1.9581 76.1751C3.55367 78.8557 8.81905 78.377 9.61684 80.6108C10.4146 82.8127 18.2648 83.77 20.4986 79.9726C22.7005 76.1751 26.8171 74.7391 27.7744 71.1012C28.7318 67.4633 29.8487 53.1989 27.7744 51.7948C25.7321 50.3588 22.2537 52.114 20.4986 50.1993C18.7435 48.2846 14.4035 43.083 11.4358 46.4018C8.46803 49.7206 7.92554 52.114 5.46836 52.4969C0.0434274 53.3266 0.841212 74.2285 1.99002 76.1751H1.9581Z" fill="white"/>
</mask>
<g mask="url(#mask0_24_28)">
<path opacity="0.75" d="M36.4221 58.1908C36.4221 58.1908 23.2747 55.1592 22.9236 63.0094C22.5088 73.0934 36.5498 70.3809 36.5498 70.3809L36.4221 58.1908Z" fill="#E62C2F" stroke="#E62C2F" stroke-width="0.638228" stroke-linecap="round" stroke-linejoin="round"/>
</g>
</svg>
