<svg width="31" height="101" viewBox="0 0 31 101" fill="none" xmlns="http://www.w3.org/2000/svg">
<path d="M22.0992 27.8936C19.6419 20.3941 16.3868 14.203 15.4294 6.4801C14.472 -1.2428 11.2807 -1.11515 9.58931 3.12926C7.89792 7.37366 6.23846 26.1384 5.72785 38.3291C5.21724 50.5198 6.11082 62.0084 3.97266 69.3803H25.3224C22.4183 58.9129 24.5884 35.3931 22.0992 27.8936Z" fill="#F4DE9C" stroke="#5E5E5A" stroke-width="0.478693" stroke-linecap="round" stroke-linejoin="round"/>
<path d="M0.815671 89.1976C-0.748061 82.6554 3.01767 73.9432 3.81549 69.9541C4.5814 65.965 10.6448 60.7632 14.8573 61.0505C19.0698 61.3696 24.5269 64.7204 25.229 67.4011C28.8671 81.3151 32.8243 88.5593 26.2502 96.2184C22.0377 101.101 15.4956 101.58 10.8363 97.5906C6.17706 93.6015 2.57089 96.378 0.87951 89.1976H0.815671Z" fill="white" stroke="#5E5E5A" stroke-width="0.478693" stroke-linecap="round" stroke-linejoin="round"/>
</svg>
