<svg width="33" height="77" viewBox="0 0 33 77" fill="none" xmlns="http://www.w3.org/2000/svg">
<path d="M2.85547 25.875C4.61068 34.4276 5.95102 41.7038 7.1318 48.3097C8.15301 53.9902 12.3017 62.128 10.7699 66.7872C8.02535 75.308 8.95082 79.5843 15.8121 72.723C22.4181 66.0852 22.9606 54.4051 23.2478 44.5121C23.535 34.6191 26.3434 30.4066 28.7049 25.875H2.85547Z" fill="#F4DE9C" stroke="#5E5E5A" stroke-width="0.478693" stroke-linecap="round" stroke-linejoin="round"/>
<path d="M1.64081 21.6615C0.300467 15.9491 1.76846 9.59848 5.98096 6.94971C10.1935 4.30095 17.2781 -0.645537 20.7247 0.694802C24.1713 2.03514 24.5862 3.63078 26.8839 4.62008C29.1816 5.60938 32.8835 10.3006 32.5644 16.6193C32.2453 22.938 26.9796 27.4059 25.8627 29.927C24.7457 32.4481 16.608 40.0114 11.2785 34.8415C5.94905 29.6716 4.00237 31.746 1.6089 21.6615H1.64081Z" fill="white" stroke="#5E5E5A" stroke-width="0.478693" stroke-linecap="round" stroke-linejoin="round"/>
</svg>
