<svg width="27" height="79" viewBox="0 0 27 79" fill="none" xmlns="http://www.w3.org/2000/svg">
<path d="M25.1072 24.875C24.5008 30.5874 19.2033 46.0651 17.3524 67.1276C16.5865 75.7121 13.2356 82.7968 10.6506 73.7974C8.06571 64.798 6.43817 52.4158 5.64035 42.9058C4.84253 33.3957 1.97036 27.7791 1.14062 24.875H25.1072Z" fill="#F4DE9C" stroke="#5E5E5A" stroke-width="0.478693" stroke-linecap="round" stroke-linejoin="round"/>
<path d="M22.4232 1.11303C19.2319 -0.259222 15.3705 2.96398 13.9344 1.97468C12.4983 0.98538 5.31793 -0.865562 3.43507 2.0385C1.55221 4.94257 -0.554063 18.9842 0.91393 24.1222C2.35001 29.2602 10.2644 38.3872 13.2323 37.0788C16.2002 35.7704 23.7636 30.3771 24.3061 28.7495C26.1251 23.3244 27.0506 3.09163 22.4551 1.11303H22.4232Z" fill="white" stroke="#5E5E5A" stroke-width="0.478693" stroke-linecap="round" stroke-linejoin="round"/>
</svg>
