<svg width="28" height="97" viewBox="0 0 28 97" fill="none" xmlns="http://www.w3.org/2000/svg">
<path d="M25.835 24.7812L1.99609 24.9727C4.54912 31.3553 4.7725 46.8011 4.90015 59.662C4.99589 71.9803 7.61276 79.7351 10.8998 89.5962C14.1868 99.4573 17.9525 96.8404 17.9845 88.6069C18.0483 80.3734 20.2822 73.6398 23.3139 62.4065C24.6862 57.3323 24.9095 53.0879 24.8776 43.3226C24.8457 33.5573 25.452 27.1747 25.8669 24.7812H25.835Z" fill="#F4DE9C" stroke="#5E5E5A" stroke-width="0.478693" stroke-linecap="round" stroke-linejoin="round"/>
<path d="M5.34567 33.4534C1.13317 27.4857 0.68639 16.4758 1.35656 13.5079C2.02673 10.54 12.5261 1.02998 15.0472 1.12572C17.5683 1.22146 25.1317 4.15744 26.3443 6.99768C27.589 9.80601 26.9188 23.1456 24.6849 29.0175C22.451 34.8895 14.2494 41.304 12.2708 40.2828C10.2922 39.2296 7.54766 36.6447 5.34567 33.4853V33.4534Z" fill="white" stroke="#5E5E5A" stroke-width="0.478693" stroke-linecap="round" stroke-linejoin="round"/>
</svg>
