<svg width="29" height="83" viewBox="0 0 29 83" fill="none" xmlns="http://www.w3.org/2000/svg">
<path d="M1.46484 55.466C1.46484 48.6688 3.28383 36.1277 4.59219 27.735C5.90056 19.3423 10.8468 17.0128 9.92139 8.46051C8.99596 -0.091741 12.8891 -1.81495 16.2717 4.5035C19.6543 10.822 21.7286 19.2466 20.8351 28.5966C19.9416 37.9466 21.8243 43.4354 27.0578 55.4979H1.49679L1.46484 55.466Z" fill="#F4DE9C" stroke="#5E5E5A" stroke-width="0.478671" stroke-linecap="round" stroke-linejoin="round"/>
<path d="M27.5436 75.9459C25.9799 78.5946 20.8103 78.1159 20.0125 80.3178C19.2467 82.4878 11.4922 83.4451 9.32222 79.6796C7.15224 75.946 3.0995 74.5418 2.14216 70.9678C1.21673 67.3937 0.131738 53.3527 2.14216 51.9486C4.15257 50.5445 7.56711 52.2677 9.29032 50.3849C11.0135 48.5022 15.2896 43.3644 18.2255 46.6513C21.1613 49.9382 21.7038 52.1401 24.0972 52.6506C30.3518 53.959 28.6605 74.0313 27.5436 75.9459Z" fill="white" stroke="#5E5E5A" stroke-width="0.478671" stroke-linecap="round" stroke-linejoin="round"/>
<mask id="mask0_26_107" style="mask-type:luminance" maskUnits="userSpaceOnUse" x="0" y="45" width="29" height="38">
<path d="M27.7629 76.1517C26.1673 78.8323 20.9019 78.3536 20.1042 80.5874C19.3064 82.7893 11.4562 83.7466 9.22236 79.9492C7.02048 76.1517 2.90391 74.7157 1.94657 71.0778C0.989232 67.4399 -0.127666 53.1755 1.94657 51.7714C3.9889 50.3354 7.46724 52.0905 9.22236 50.1758C10.9775 48.2612 15.3174 43.0596 18.2852 46.3784C21.2529 49.6972 21.7954 52.0905 24.2526 52.4735C29.6775 53.3032 28.8798 74.2051 27.731 76.1517H27.7629Z" fill="white"/>
</mask>
<g mask="url(#mask0_26_107)">
<path opacity="0.75" d="M-6.73207 58.1671C-6.73207 58.1671 6.41541 55.1355 6.76643 62.9857C7.18128 73.0697 -6.85974 70.3572 -6.85974 70.3572L-6.73207 58.1671Z" fill="#E62C2F" stroke="#E62C2F" stroke-width="0.638228" stroke-linecap="round" stroke-linejoin="round"/>
</g>
</svg>
