<svg width="41" height="79" viewBox="0 0 41 79" fill="none" xmlns="http://www.w3.org/2000/svg">
<path d="M27.5862 7.52706C27.299 1.14479 23.1505 2.48507 22.5442 7.81427C21.906 13.1116 18.7786 23.4828 14.7578 33.7263L26.3097 35.8963C27.5862 32.1307 27.8415 13.9413 27.5862 7.52706Z" fill="#F4DE9C" stroke="#5E5E5A" stroke-width="0.478671" stroke-linecap="round" stroke-linejoin="round"/>
<path d="M39.1072 29.2624C38.0223 22.8801 38.4052 13.7215 35.2779 5.2012C32.1506 -3.31914 29.6934 2.58446 30.4912 6.50956C31.2889 10.4666 29.6934 18.1572 27.5553 22.5291C25.4173 26.9009 22.8963 35.6447 18.3648 32.1344C13.8334 28.6241 16.3544 16.8488 18.9073 8.04131C21.4602 -0.766232 16.3544 1.43565 14.4717 5.42458C12.6208 9.4135 5.69603 19.689 5.82368 30.826C5.95132 41.9631 6.84483 45.9839 3.49414 51.9833L39.0753 52.4939C40.1922 43.3672 40.2241 35.6766 39.1072 29.2943V29.2624Z" fill="#F4DE9C" stroke="#5E5E5A" stroke-width="0.478671" stroke-linecap="round" stroke-linejoin="round"/>
<path d="M4.32368 50.5256C-0.175825 57.5461 -0.494937 69.0661 4.96191 72.1934C10.4188 75.3207 13.5461 72.1934 16.1947 72.9593C18.8434 73.7252 26.3425 81.8307 32.2461 76.3738C38.5965 70.5021 41.4366 53.3338 38.6284 49.4406C32.5972 41.0798 27.268 50.7171 18.9072 45.8984C16.1628 44.3029 8.8551 43.537 4.35559 50.5575L4.32368 50.5256Z" fill="white" stroke="#5E5E5A" stroke-width="0.478671" stroke-linecap="round" stroke-linejoin="round"/>
<mask id="mask0_24_2" style="mask-type:luminance" maskUnits="userSpaceOnUse" x="0" y="44" width="40" height="35">
<path d="M2.53207 53.0015C0.362095 59.1923 -0.946272 69.1486 4.60631 72.3078C10.1589 75.4671 13.8606 72.1164 16.4135 73.2971C19.2536 74.6055 27.5825 82.679 33.5818 75.2118C38.6877 68.8614 41.6873 53.1291 38.8153 49.1721C32.6883 40.6837 27.2634 50.4805 18.775 45.5661C15.9987 43.9705 5.85085 43.5876 2.53207 53.0015Z" fill="white"/>
</mask>
<g mask="url(#mask0_24_2)">
<path opacity="0.75" d="M45.4581 56.8504C45.4581 56.8504 32.3744 51.9999 32.3744 62.3392C32.3744 71.4658 45.49 67.9237 45.49 67.9237L45.4261 56.8504H45.4581Z" fill="#E62C2F" stroke="#E62C2F" stroke-width="0.638228" stroke-linecap="round" stroke-linejoin="round"/>
</g>
</svg>
