<svg width="45" height="76" viewBox="0 0 45 76" fill="none" xmlns="http://www.w3.org/2000/svg">
<path d="M39.6616 26.0312L3.12305 26.9886C4.78244 31.4881 4.84626 33.4666 5.2292 37.5513C5.61213 41.6359 5.77169 50.0924 5.13347 54.4005C4.49524 58.6766 2.83584 71.9198 4.9739 73.8026C7.11196 75.7173 9.98399 71.856 11.8349 67.0374C13.6857 62.2187 15.9195 57.2406 16.813 49.518C17.7065 41.7955 19.6851 41.6678 21.2487 43.5825C22.8124 45.4972 24.2803 56.5066 24.9504 60.6551C25.6206 64.8036 21.5359 75.8768 25.6206 74.9833C29.7052 74.0898 33.5665 66.4949 35.5131 62.2187C37.4597 57.9426 40.2998 51.6242 39.5339 44.859C38.8 38.0938 38.3532 29.382 39.6297 26.0632L39.6616 26.0312Z" fill="#F4DE9C" stroke="#5E5E5A" stroke-width="0.478671" stroke-linecap="round" stroke-linejoin="round"/>
<path d="M2.38948 25.6893C0.315237 19.7538 -1.12078 9.76555 4.08078 6.22339C17.8665 -3.19047 20.5151 2.33021 25.4295 1.40478C29.0993 0.734638 36.5346 -0.829029 41.098 2.3302C45.6613 5.48942 44.321 19.1475 41.7681 23.4236C39.2152 27.6998 35.8964 28.2423 31.7479 27.987C27.5995 27.7317 22.5255 31.21 17.1644 29.5825C11.8033 27.987 4.04886 30.3484 2.42138 25.6893H2.38948Z" fill="white" stroke="#5E5E5A" stroke-width="0.478671" stroke-linecap="round" stroke-linejoin="round"/>
<mask id="mask0_26_161" style="mask-type:luminance" maskUnits="userSpaceOnUse" x="0" y="0" width="45" height="31">
<path d="M2.30549 25.7232C0.231247 19.7877 -1.20476 9.70371 3.9968 6.16155C17.8463 -3.28422 20.495 2.23645 25.4732 1.31102C29.143 0.640881 36.6421 -0.922774 41.2055 2.23645C45.7688 5.42759 44.4285 19.1176 41.8756 23.4256C39.3227 27.7337 35.972 28.2761 31.7916 27.9889C27.6112 27.7337 22.5054 31.212 17.1443 29.6164C11.7513 27.9889 3.96488 30.3823 2.3374 25.6913L2.30549 25.7232Z" fill="white"/>
</mask>
<g mask="url(#mask0_26_161)">
<path opacity="0.75" d="M49.8793 9.57378C49.8793 9.57378 37.4658 4.78708 37.4658 14.9349C37.4658 23.9339 50.0388 20.0726 50.0388 20.0726L49.8793 9.54188V9.57378Z" fill="#E62C2F" stroke="#E62C2F" stroke-width="0.638228" stroke-linecap="round" stroke-linejoin="round"/>
</g>
</svg>
