<svg width="31" height="102" viewBox="0 0 31 102" fill="none" xmlns="http://www.w3.org/2000/svg">
<path d="M22.4206 28.8377C19.9634 21.3385 16.7084 15.1477 15.7511 7.42513C14.7938 -0.297422 11.6026 -0.169776 9.91131 4.07444C8.22 8.31865 6.56061 27.0825 6.05003 39.2727C5.53945 51.4628 6.43298 62.9509 4.29492 70.3225H25.6436C22.7397 59.8555 24.9097 36.3368 22.4206 28.8377Z" fill="#F4DE9C" stroke="#5E5E5A" stroke-width="0.478671" stroke-linecap="round" stroke-linejoin="round"/>
<path d="M1.13987 90.1416C-0.423786 83.5998 3.34176 74.888 4.13955 70.899C4.90542 66.9101 10.9686 61.7086 15.1809 61.9958C19.3932 62.3149 24.85 65.6656 25.5521 68.3461C29.19 82.2595 33.147 89.5034 26.5732 97.1621C22.3609 102.045 15.8191 102.523 11.16 98.5343C6.50098 94.5454 2.89501 97.3217 1.20371 90.1416H1.13987Z" fill="white" stroke="#5E5E5A" stroke-width="0.478671" stroke-linecap="round" stroke-linejoin="round"/>
<mask id="mask0_25_46" style="mask-type:luminance" maskUnits="userSpaceOnUse" x="0" y="61" width="31" height="41">
<path d="M0.883705 90.3011C-0.711864 83.6316 3.40468 74.7602 4.20247 70.7394C5.00025 66.6867 10.8401 61.4213 15.1162 61.7404C19.3923 62.0595 24.9449 65.474 25.6469 68.1865C29.3486 82.3232 33.3695 89.6948 26.6681 97.4811C22.392 102.459 15.7544 102.906 10.9996 98.8852C6.24481 94.8325 2.60691 97.6407 0.851786 90.333L0.883705 90.3011Z" fill="white"/>
</mask>
<g mask="url(#mask0_25_46)">
<path opacity="0.75" d="M34.8394 75.7078C33.4034 75.5482 23.096 72.5486 23.096 80.654C23.096 89.5892 34.7117 86.6215 34.7117 86.6215L34.8394 75.7078Z" fill="#E62C2F" stroke="#E62C2F" stroke-width="1.59557" stroke-linecap="round" stroke-linejoin="round"/>
</g>
</svg>
