<svg width="26" height="84" viewBox="0 0 26 84" fill="none" xmlns="http://www.w3.org/2000/svg">
<path d="M0.964844 60.6463C1.18822 48.9667 3.99644 35.4682 5.71966 29.5327C7.44287 23.5972 8.6555 13.1303 12.8997 4.25889C17.1439 -4.61247 19.2501 3.39729 18.8352 7.22665C18.4204 11.056 20.7818 26.3735 22.2497 32.5962C23.7177 38.8189 22.6007 49.8603 24.7388 60.6463H0.964844Z" fill="#F4DE9C" stroke="#5E5E5A" stroke-width="0.478671" stroke-linecap="round" stroke-linejoin="round"/>
<path d="M22.0253 80.0939C25.2803 78.2112 24.7059 68.5101 24.8654 62.8937C25.1526 51.98 12.8029 40.0771 4.28253 52.5225C1.57007 56.5114 0.261719 57.6602 0.261719 67.7761C0.261719 77.892 2.71888 86.1571 8.97351 82.2639C15.1962 78.3707 15.0686 84.1148 22.0572 80.0939H22.0253Z" fill="white" stroke="#5E5E5A" stroke-width="0.478671" stroke-linecap="round" stroke-linejoin="round"/>
<mask id="mask0_25_89" style="mask-type:luminance" maskUnits="userSpaceOnUse" x="0" y="46" width="25" height="38">
<path d="M22.3418 80.3177C25.6287 78.403 24.7033 68.6062 24.8628 62.8941C25.182 51.8208 12.9599 39.6626 4.27996 52.2995C1.50368 56.3523 0.195312 57.533 0.195312 67.8084C0.195312 78.0839 2.71632 86.4766 9.03478 82.5196C15.3532 78.5626 15.2256 84.4024 22.3418 80.3177Z" fill="white"/>
</mask>
<g mask="url(#mask0_25_89)">
<path opacity="0.75" d="M-5.74182 61.8627C-5.74182 61.8627 4.82088 59.2779 4.82088 66.6494C4.82088 75.5527 -5.86945 72.7125 -5.86945 72.7125L-5.74182 61.8627Z" fill="#E62C2F" stroke="#E62C2F" stroke-width="1.59557" stroke-linecap="round" stroke-linejoin="round"/>
</g>
</svg>
