<svg width="39" height="86" viewBox="0 0 39 86" fill="none" xmlns="http://www.w3.org/2000/svg">
<path d="M25.4512 5.04529C24.7173 -2.2305 20.2497 -0.347732 19.9306 5.74734C19.6114 11.8424 16.8671 23.9049 13.1973 35.8717L26.0256 37.4353C27.1744 33.0316 26.2171 12.3211 25.4512 5.04529Z" fill="#F4DE9C" stroke="#5E5E5A" stroke-width="0.478671" stroke-linecap="round" stroke-linejoin="round"/>
<path d="M3.56055 55.3655C6.97506 47.8663 8.57063 48.4727 7.00697 41.2926C5.44331 34.1125 2.41173 26.1028 7.16652 14.0722C11.9213 2.04161 19.1971 -3.54289 17.8568 4.97745C16.5166 13.4978 14.4104 22.5606 16.7399 29.0386C19.0695 35.5166 24.3668 37.0484 26.0581 29.613C27.7494 22.1777 27.8451 16.7527 27.9408 11.9341C28.0366 7.14743 28.8024 -2.68128 32.568 3.701C36.3016 10.0833 38.9822 20.1673 37.6419 33.1871C37.6419 33.1871 34.5784 49.6853 37.3866 55.3974H3.56055V55.3655Z" fill="#F4DE9C" stroke="#5E5E5A" stroke-width="0.478671" stroke-linecap="round" stroke-linejoin="round"/>
<path d="M3.43459 55.336C0.977416 59.8036 0.0200735 76.7804 2.0624 79.7482C4.07282 82.716 9.52966 83.1627 11.7315 80.9927C13.9334 78.8228 14.6036 81.2799 16.5502 82.3649C18.4968 83.418 20.22 81.4395 22.3261 83.5137C26.315 87.4069 34.0057 84.7583 36.2076 75.5678C38.3776 66.3773 38.8562 58.1123 37.7712 55.3041C36.6862 52.4959 31.389 57.0273 27.6553 53.5809C23.9217 50.1664 18.4649 50.294 13.9334 52.3363C9.40202 54.3787 7.07248 48.8261 3.4665 55.3679L3.43459 55.336Z" fill="white" stroke="#5E5E5A" stroke-width="0.478671" stroke-linecap="round" stroke-linejoin="round"/>
<mask id="mask0_24_11" style="mask-type:luminance" maskUnits="userSpaceOnUse" x="0" y="50" width="39" height="36">
<path d="M3.59408 55.0631C1.10499 59.6265 -0.362924 76.9224 1.6794 79.9221C3.75364 82.9218 9.27431 83.4004 11.5081 81.1986C13.7419 78.9967 14.444 81.5177 16.4225 82.5708C18.401 83.6557 20.1561 81.6453 22.2942 83.7196C26.3469 87.6766 34.1652 84.996 36.399 75.646C38.6009 66.296 39.0795 57.9033 37.9945 55.0631C36.9096 52.223 31.5165 56.8183 27.7191 53.308C23.9216 49.8297 18.369 49.9892 13.7738 52.0316C9.17857 54.0739 7.29581 48.3937 3.626 55.0312L3.59408 55.0631Z" fill="white"/>
</mask>
<g mask="url(#mask0_24_11)">
<path opacity="0.75" d="M43.1246 63.2312C43.1246 63.2312 30.041 58.3807 30.041 68.72C30.041 77.8466 43.1565 74.3045 43.1565 74.3045L43.0927 63.2312H43.1246Z" fill="#E62C2F" stroke="#E62C2F" stroke-width="0.638228" stroke-linecap="round" stroke-linejoin="round"/>
</g>
</svg>
