<svg width="39" height="74" viewBox="0 0 39 74" fill="none" xmlns="http://www.w3.org/2000/svg">
<path d="M24.2376 22.1178H37.3857C36.2687 24.4475 33.7796 32.3938 33.8115 35.8404C33.8115 39.287 36.556 44.4887 35.7263 49.6267C34.8965 54.7647 32.2796 69.2212 29.5989 71.5827C26.9502 73.9762 24.8759 65.9342 24.8759 57.7964C24.8759 49.6586 20.8549 40.4996 18.972 40.4996C15.7807 40.4996 14.7914 51.7968 15.4296 54.0307C16.0679 56.2646 18.6529 73.9762 15.0786 72.7954C11.5044 71.6465 6.04731 62.7748 5.72818 56.5199C5.44096 50.265 5.76011 42.2229 5.34524 39.0955C4.93037 35.968 2.69644 26.4261 1.41992 22.0859H24.2376V22.1178Z" fill="#F4DE9C" stroke="#5E5E5A" stroke-width="0.478693" stroke-linecap="round" stroke-linejoin="round"/>
<path d="M36.1434 25.4876C38.9518 19.6475 40.324 8.12703 33.2074 4.52088C26.0908 0.914728 20.7614 4.74426 17.3467 2.6061C13.932 0.467941 3.65613 -2.18082 1.54988 6.37181C-0.55637 14.9245 1.13499 22.0091 2.12429 24.4664C3.11359 26.8918 6.14534 26.0939 8.73028 25.5514C11.3152 25.0408 15.9425 30.0192 18.6232 30.0511C25.2292 30.115 27.3993 24.1792 30.5587 24.4664C33.7181 24.7536 34.7392 28.4555 36.1753 25.5195L36.1434 25.4876Z" fill="white" stroke="#5E5E5A" stroke-width="0.478693" stroke-linecap="round" stroke-linejoin="round"/>
</svg>
