<svg width="36" height="84" viewBox="0 0 36 84" fill="none" xmlns="http://www.w3.org/2000/svg">
<path d="M8.82651 31.5243C10.1669 22.6526 13.1347 18.2167 15.3048 6.63231C17.4749 -4.95205 21.8789 1.8773 22.2618 9.40873C22.6448 16.9402 27.0487 21.5994 27.0487 27.1842C27.0487 32.7689 28.4848 44.0341 32.6335 54.9802H4.39062C5.95436 48.5019 7.48617 40.3961 8.82651 31.5243Z" fill="#F4DE9C" stroke="#5E5E5A" stroke-width="0.478693" stroke-linecap="round" stroke-linejoin="round"/>
<path d="M35.3433 70.1452C35.3433 63.9222 33.4604 54.2207 29.8862 50.0401C27.5246 47.2637 22.4186 44.7426 18.5252 45.2851C14.6318 45.8276 13.2277 50.3273 10.2598 50.1996C7.32379 50.072 4.64312 49.4337 4.03677 55.0185C3.39851 60.6351 2.15388 61.0819 1.61136 64.6881C1.06884 68.2623 -0.175733 71.3259 6.52597 74.0066C13.2277 76.6873 14.8871 84.7931 20.8229 83.006C26.7906 81.2189 25.9928 77.8042 30.2053 76.2405C34.4178 74.6768 35.3433 72.5067 35.3433 70.1771V70.1452Z" fill="white" stroke="#5E5E5A" stroke-width="0.478693" stroke-linecap="round" stroke-linejoin="round"/>
</svg>
