<svg width="36" height="84" viewBox="0 0 36 84" fill="none" xmlns="http://www.w3.org/2000/svg">
<path d="M8.19935 31.5073C9.53963 22.6359 12.5074 18.2002 14.6774 6.6164C16.8473 -4.96743 21.2511 1.86161 21.634 9.39269C22.0169 16.9238 26.4207 21.5828 26.4207 27.1673C26.4207 32.7518 27.8567 44.0165 32.0052 54.9621H3.76367C5.32733 48.4841 6.85907 40.3786 8.19935 31.5073Z" fill="#F4DE9C" stroke="#5E5E5A" stroke-width="0.478671" stroke-linecap="round" stroke-linejoin="round"/>
<path d="M34.7459 70.105C34.7459 63.8822 32.8632 54.1812 29.2891 50.0008C26.9277 47.2245 21.8219 44.7035 17.9287 45.246C14.0355 45.7885 12.6314 50.288 9.6636 50.1604C6.72776 50.0327 4.04721 49.3945 3.4409 54.979C2.80267 60.5954 1.55814 61.0421 1.01565 64.6481C0.473156 68.2222 -0.771409 71.2857 5.92998 73.9662C12.6314 76.6468 14.2908 84.7523 20.2263 82.9652C26.1937 81.1782 25.3959 77.7637 29.6082 76.2C33.8205 74.6364 34.7459 72.4664 34.7459 70.1369V70.105Z" fill="white" stroke="#5E5E5A" stroke-width="0.478671" stroke-linecap="round" stroke-linejoin="round"/>
<mask id="mask0_25_99" style="mask-type:luminance" maskUnits="userSpaceOnUse" x="0" y="44" width="36" height="40">
<path d="M35.0381 70.2143C35.0381 63.864 31.8789 52.6311 29.4855 49.791C27.1241 46.9509 21.8906 44.398 17.9336 44.9405C13.9766 45.483 12.5406 50.0782 9.54091 49.9187C6.54124 49.791 3.82878 49.1209 3.22247 54.833C2.58424 60.5452 1.30777 60.9919 0.765278 64.6617C0.222785 68.2996 -1.0537 71.395 5.77534 74.1394C12.5725 76.8519 14.2638 85.085 20.327 83.2661C26.3901 81.4471 25.5923 77.9688 29.8684 76.3732C34.1446 74.7776 35.1019 72.5758 35.1019 70.2143H35.0381Z" fill="white"/>
</mask>
<g mask="url(#mask0_25_99)">
<path opacity="0.75" d="M-5.01379 57.2776C-5.01379 57.2776 7.24016 55.3629 7.24016 63.1174C7.24016 72.1164 -4.7585 70.2017 -4.7585 70.2017L-5.01379 57.2776Z" fill="#E62C2F" stroke="#E62C2F" stroke-width="1.59557" stroke-linecap="round" stroke-linejoin="round"/>
</g>
</svg>
