<svg width="27" height="97" viewBox="0 0 27 97" fill="none" xmlns="http://www.w3.org/2000/svg">
<path d="M1.3815 24.7812L25.2204 24.9727C22.6674 31.3553 22.444 46.8011 22.3163 59.662C22.2206 71.9803 19.6037 79.7351 16.3167 89.5962C13.0297 99.4573 9.26396 96.8404 9.23205 88.6069C9.16822 80.3734 6.93432 73.6398 3.9026 62.4065C2.53035 57.3323 2.30699 53.0879 2.3389 43.3226C2.37081 33.5573 1.76448 27.1747 1.34961 24.7812H1.3815Z" fill="#F4DE9C" stroke="#5E5E5A" stroke-width="0.478693" stroke-linecap="round" stroke-linejoin="round"/>
<path d="M21.87 33.4534C26.0825 27.4857 26.5293 16.4758 25.8591 13.5079C25.1889 10.54 14.6896 1.02998 12.1685 1.12572C9.64739 1.22146 2.08401 4.15744 0.871317 6.99768C-0.373286 9.80601 0.296899 23.1456 2.5308 29.0175C4.7647 34.8895 12.9663 41.304 14.9449 40.2828C16.9235 39.2296 19.668 36.6447 21.87 33.4853V33.4534Z" fill="white" stroke="#5E5E5A" stroke-width="0.478693" stroke-linecap="round" stroke-linejoin="round"/>
</svg>
