<svg width="39" height="86" viewBox="0 0 39 86" fill="none" xmlns="http://www.w3.org/2000/svg">
<path d="M13.868 5.06894C14.602 -2.20718 19.0698 -0.324326 19.3889 5.77102C19.7081 11.8664 22.4526 23.9294 26.1225 35.8967L13.2936 37.4605C12.1447 33.0565 13.1021 12.3451 13.868 5.06894Z" fill="#F4DE9C" stroke="#5E5E5A" stroke-width="0.478693" stroke-linecap="round" stroke-linejoin="round"/>
<path d="M35.7594 55.4305C32.3447 47.931 30.7491 48.5373 32.3128 41.3569C33.8765 34.1766 36.9082 26.1664 32.1532 14.1353C27.3982 2.10416 20.1221 -3.48059 21.4624 5.04014C22.8028 13.5609 24.909 22.6241 22.5793 29.1024C20.2497 35.5807 14.9522 37.1125 13.2608 29.6768C11.5694 22.2412 11.4737 16.816 11.3779 11.9971C11.2822 7.21021 10.5163 -2.61894 6.75059 3.76362C3.01678 10.1462 0.336108 20.2306 1.67645 33.2511C1.67645 33.2511 4.74009 49.75 1.93176 55.4624H35.7594V55.4305Z" fill="#F4DE9C" stroke="#5E5E5A" stroke-width="0.478693" stroke-linecap="round" stroke-linejoin="round"/>
<path d="M35.888 55.344C38.3453 59.8118 39.3026 76.7894 37.2602 79.7573C35.2497 82.7252 29.7926 83.172 27.5906 81.0019C25.3886 78.8318 24.7185 81.2891 22.7718 82.3742C20.8251 83.4273 19.1017 81.4487 16.9955 83.523C13.0064 87.4164 5.31541 84.7676 3.11342 75.5767C0.943345 66.3858 0.464634 58.1204 1.54967 55.3121C2.63471 52.5038 7.93224 57.0354 11.666 53.5888C15.3999 50.1741 20.857 50.3018 25.3886 52.3442C29.9202 54.3866 32.2499 48.8338 35.856 55.3759L35.888 55.344Z" fill="white" stroke="#5E5E5A" stroke-width="0.478693" stroke-linecap="round" stroke-linejoin="round"/>
</svg>
