<svg width="40" height="79" viewBox="0 0 40 79" fill="none" xmlns="http://www.w3.org/2000/svg">
<path d="M27.2196 7.52726C26.9324 1.14469 22.7837 2.48503 22.1774 7.81447C21.5391 13.112 18.4116 23.4837 14.3906 33.7277L25.9431 35.8978C27.2196 32.132 27.4749 13.9417 27.2196 7.52726Z" fill="#F4DE9C" stroke="#5E5E5A" stroke-width="0.478693" stroke-linecap="round" stroke-linejoin="round"/>
<path d="M38.7749 29.2637C37.6899 22.8811 38.0729 13.7221 34.9454 5.2014C31.8179 -3.31933 29.3606 2.58454 30.1585 6.50982C30.9563 10.467 29.3606 18.158 27.2225 22.5301C25.0843 26.9021 22.5632 35.6462 18.0316 32.1358C13.4999 28.6254 16.021 16.8496 18.5741 8.04164C21.1271 -0.766305 16.021 1.43568 14.1382 5.42478C12.2872 9.41389 5.36215 19.6898 5.4898 30.8274C5.61745 41.965 6.51101 45.986 3.16016 51.9856L38.743 52.4962C39.86 43.3691 39.8919 35.6781 38.7749 29.2956V29.2637Z" fill="#F4DE9C" stroke="#5E5E5A" stroke-width="0.478693" stroke-linecap="round" stroke-linejoin="round"/>
<path d="M3.95861 50.5259C-0.541111 57.5467 -0.860237 69.0672 4.59687 72.1947C10.054 75.3221 13.1814 72.1947 15.8302 72.9606C18.479 73.7265 25.9785 81.8323 31.8824 76.3753C38.233 70.5033 41.0733 53.3342 38.2649 49.4408C32.2334 41.0797 26.904 50.7173 18.5428 45.8985C15.7983 44.3029 8.49023 43.537 3.99052 50.5578L3.95861 50.5259Z" fill="white" stroke="#5E5E5A" stroke-width="0.478693" stroke-linecap="round" stroke-linejoin="round"/>
</svg>
