<svg width="32" height="87" viewBox="0 0 32 87" fill="none" xmlns="http://www.w3.org/2000/svg">
<path d="M2.25391 63.7092C3.05173 55.5714 4.87075 47.2741 5.63666 39.0405C6.40257 30.807 9.49814 24.1692 11.2853 11.6593C13.0724 -0.818581 17.4125 -1.39301 20.0613 5.05338C22.7101 11.4998 26.5715 28.8923 25.7418 38.4661C24.8801 48.04 27.5927 59.1456 29.2522 63.7092H2.2858H2.25391Z" fill="#F4DE9C" stroke="#5E5E5A" stroke-width="0.478693" stroke-linecap="round" stroke-linejoin="round"/>
<path d="M27.5941 84.9307C26.8601 85.0903 23.605 86.9413 18.9457 86.4945C16.0417 86.2073 12.4355 87.388 8.8932 86.0796C7.10608 85.4094 5.03175 85.3137 3.02124 84.6435C0.81925 83.9095 0.659654 75.2292 1.39365 67.1234C2.12765 59.0175 3.75523 61.0919 6.404 56.5283C17.9565 36.6466 19.2968 54.4859 25.0092 54.9008C28.6473 55.1561 34.7745 83.2713 27.5941 84.8988V84.9307Z" fill="white" stroke="#5E5E5A" stroke-width="0.478693" stroke-linecap="round" stroke-linejoin="round"/>
</svg>
