<svg width="34" height="74" viewBox="0 0 34 74" fill="none" xmlns="http://www.w3.org/2000/svg">
<path d="M19.8534 5.52619C18.513 -0.728727 14.6516 1.28178 14.9069 6.61122C15.1622 11.9407 13.758 22.6953 11.4922 33.4499L23.2361 33.6733C23.8744 29.748 21.1618 11.7492 19.8214 5.49427L19.8534 5.52619Z" fill="#F4DE9C" stroke="#5E5E5A" stroke-width="0.478693" stroke-linecap="round" stroke-linejoin="round"/>
<path d="M32.2059 50.9891C30.1954 39.5643 32.0145 23.8313 30.6422 17.9593C29.27 12.0874 27.419 2.09867 23.6852 0.949808C19.9833 -0.199054 21.0045 9.56627 22.8555 17.6721C24.7383 25.778 22.7597 31.7138 16.0899 32.7988C9.45206 33.8839 14.4305 16.9381 13.6646 6.91751C12.8987 -3.10312 7.28198 -0.48627 7.8245 5.83247C8.39893 12.1512 2.04827 25.9376 2.3674 29.5756C2.68653 33.2456 4.6013 42.2131 1.79297 50.9572H32.1421L32.2059 50.9891Z" fill="#F4DE9C" stroke="#5E5E5A" stroke-width="0.478693" stroke-linecap="round" stroke-linejoin="round"/>
<path d="M1.85353 50.9465C-0.603761 56.4355 0.832319 71.275 6.32133 71.275C11.8104 71.275 13.1826 70.4133 15.225 72.4877C17.2675 74.562 20.363 71.4665 22.0863 71.8175C23.8096 72.1685 30.0964 76.764 31.8197 67.5412C33.5749 58.2865 33.7345 44.564 28.4051 45.6171C15.2569 48.1701 18.4801 34.3199 8.17228 48.3616C6.28942 50.9465 3.89596 46.383 1.82162 51.0103L1.85353 50.9465Z" fill="white" stroke="#5E5E5A" stroke-width="0.478693" stroke-linecap="round" stroke-linejoin="round"/>
</svg>
