<svg width="40" height="79" viewBox="0 0 40 79" fill="none" xmlns="http://www.w3.org/2000/svg">
<path d="M12.7374 7.52726C13.0246 1.14469 17.1733 2.48503 17.7797 7.81447C18.4179 13.112 21.5454 23.4837 25.5664 33.7277L14.014 35.8978C12.7375 32.132 12.4821 13.9417 12.7374 7.52726Z" fill="#F4DE9C" stroke="#5E5E5A" stroke-width="0.478693" stroke-linecap="round" stroke-linejoin="round"/>
<path d="M1.21449 29.2637C2.29953 22.8811 1.91652 13.7221 5.04398 5.2014C8.17144 -3.31933 10.6287 2.58454 9.83091 6.50982C9.03309 10.467 10.6288 18.158 12.7669 22.5301C14.9051 26.9021 17.4262 35.6462 21.9579 32.1358C26.4895 28.6254 23.9683 16.8496 21.4153 8.04164C18.8623 -0.766305 23.9684 1.43568 25.8512 5.42478C27.7022 9.41389 34.6272 19.6898 34.4996 30.8274C34.3719 41.965 33.4784 45.986 36.8293 51.9856L1.24643 52.4962C0.129484 43.3691 0.0975397 35.6781 1.21449 29.2956V29.2637Z" fill="#F4DE9C" stroke="#5E5E5A" stroke-width="0.478693" stroke-linecap="round" stroke-linejoin="round"/>
<path d="M36.0315 50.5259C40.5312 57.5467 40.8503 69.0672 35.3932 72.1947C29.9361 75.3221 26.8087 72.1947 24.1599 72.9606C21.5111 73.7265 14.0116 81.8323 8.10774 76.3753C1.75708 70.5033 -1.08317 53.3342 1.72516 49.4408C7.7567 41.0797 13.0861 50.7173 21.4473 45.8985C24.1918 44.3029 31.4998 43.537 35.9996 50.5578L36.0315 50.5259Z" fill="white" stroke="#5E5E5A" stroke-width="0.478693" stroke-linecap="round" stroke-linejoin="round"/>
</svg>
