<svg width="36" height="84" viewBox="0 0 36 84" fill="none" xmlns="http://www.w3.org/2000/svg">
<path d="M27.1683 31.5243C25.828 22.6526 22.8601 18.2167 20.69 6.63231C18.5199 -4.95205 14.116 1.8773 13.733 9.40873C13.3501 16.9402 8.94608 21.5994 8.94608 27.1842C8.94608 32.7689 7.51 44.0341 3.36133 54.9802H31.6042C30.0405 48.5019 28.5087 40.3961 27.1683 31.5243Z" fill="#F4DE9C" stroke="#5E5E5A" stroke-width="0.478693" stroke-linecap="round" stroke-linejoin="round"/>
<path d="M0.648438 70.1452C0.648438 63.9222 2.53129 54.2207 6.10554 50.0401C8.46709 47.2637 13.5731 44.7426 17.4665 45.2851C21.3599 45.8276 22.7641 50.3273 25.732 50.1996C28.668 50.072 31.3486 49.4337 31.955 55.0185C32.5932 60.6351 33.8378 61.0819 34.3804 64.6881C34.9229 68.2623 36.1675 71.3259 29.4658 74.0066C22.7641 76.6873 21.1046 84.7931 15.1688 83.006C9.20108 81.2189 9.99891 77.8042 5.78641 76.2405C1.57391 74.6768 0.648438 72.5067 0.648438 70.1771V70.1452Z" fill="white" stroke="#5E5E5A" stroke-width="0.478693" stroke-linecap="round" stroke-linejoin="round"/>
</svg>
