<svg width="34" height="75" viewBox="0 0 34 75" fill="none" xmlns="http://www.w3.org/2000/svg">
<path d="M20.1889 6.50257C18.8486 0.247942 14.9874 2.25836 15.2426 7.58756C15.4979 12.9168 14.0938 23.6709 11.8281 34.425L23.5715 34.6484C24.2097 30.7233 21.4973 12.7253 20.157 6.47066L20.1889 6.50257Z" fill="#F4DE9C" stroke="#5E5E5A" stroke-width="0.478671" stroke-linecap="round" stroke-linejoin="round"/>
<path d="M32.5365 51.979C30.5261 40.5547 32.3451 24.8224 30.9729 18.9507C29.6007 13.079 27.7498 3.09077 24.0162 1.94196C20.3145 0.793154 21.3357 10.558 23.1865 18.6635C25.0693 26.769 23.0908 32.7045 16.4213 33.7895C9.78373 34.8745 14.7619 17.9296 13.996 7.90939C13.2302 -2.11078 7.61376 0.50595 8.15625 6.8244C8.73066 13.1429 2.38029 26.9286 2.69941 30.5665C3.01852 34.2363 4.9332 43.2034 2.125 51.9471H32.4727L32.5365 51.979Z" fill="#F4DE9C" stroke="#5E5E5A" stroke-width="0.478671" stroke-linecap="round" stroke-linejoin="round"/>
<path d="M2.19137 51.9383C-0.265809 57.4271 1.1702 72.2658 6.65896 72.2658C12.1477 72.2658 13.5199 71.4042 15.5622 73.4785C17.6046 75.5527 20.7 72.4573 22.4232 72.8083C24.1464 73.1594 30.4329 77.7546 32.1562 68.5322C33.9113 59.2779 34.0708 45.556 28.7416 46.6091C15.5941 49.162 18.8172 35.3125 8.50982 49.3535C6.62705 51.9383 4.23369 47.375 2.15946 52.0021L2.19137 51.9383Z" fill="white" stroke="#5E5E5A" stroke-width="0.478671" stroke-linecap="round" stroke-linejoin="round"/>
<mask id="mask0_21_80" style="mask-type:luminance" maskUnits="userSpaceOnUse" x="0" y="42" width="34" height="33">
<path d="M2.18924 51.9932C-0.29985 57.5777 0.785137 72.7356 6.36963 72.7356C11.9541 72.7356 13.3263 71.874 15.4325 73.9483C17.5386 76.0225 20.6659 72.8952 22.3891 73.2462C24.1443 73.5972 30.5265 78.2882 32.2817 68.8743C34.0687 59.4605 34.2283 45.5471 28.8352 46.5683C15.4963 49.1531 18.7512 35.0802 8.28431 49.3446C6.36963 51.9613 4.26348 47.2384 2.18924 51.9613V51.9932Z" fill="white"/>
</mask>
<g mask="url(#mask0_21_80)">
<path opacity="0.75" d="M39.8145 56.0356C39.8145 56.0356 26.9542 50.0682 26.9542 60.3756C26.9542 69.5022 39.7188 64.6198 39.7188 64.6198L39.8145 56.0356Z" fill="#E62C2F" stroke="#E62C2F" stroke-width="0.638228" stroke-linecap="round" stroke-linejoin="round"/>
</g>
</svg>
