<svg width="39" height="86" viewBox="0 0 39 86" fill="none" xmlns="http://www.w3.org/2000/svg">
<path d="M3.23047 55.4305C6.64515 47.931 8.2408 48.5373 6.67707 41.3569C5.11333 34.1766 2.08161 26.1664 6.83663 14.1353C11.5916 2.10416 18.8678 -3.48059 17.5274 5.04014C16.1871 13.5609 14.0809 22.6241 16.4105 29.1024C18.7401 35.5807 24.0377 37.1125 25.729 29.6768C27.4204 22.2412 27.5162 16.816 27.6119 11.9971C27.7076 7.21021 28.4736 -2.61894 32.2393 3.76362C35.9731 10.1462 38.6538 20.2306 37.3134 33.2511C37.3134 33.2511 34.2498 49.75 37.0581 55.4624H3.23047V55.4305Z" fill="#F4DE9C" stroke="#5E5E5A" stroke-width="0.478693" stroke-linecap="round" stroke-linejoin="round"/>
<path d="M3.10072 55.344C0.643433 59.8118 -0.313955 76.7894 1.72847 79.7573C3.73898 82.7252 9.19609 83.172 11.3981 81.0019C13.6001 78.8318 14.2702 81.2891 16.2169 82.3742C18.1636 83.4273 19.8869 81.4487 21.9932 83.523C25.9823 87.4164 33.6733 84.7676 35.8753 75.5767C38.0453 66.3858 38.524 58.1204 37.439 55.3121C36.3539 52.5038 31.0564 57.0354 27.3226 53.5888C23.5888 50.1741 18.1317 50.3018 13.6001 52.3442C9.06844 54.3866 6.7388 48.8338 3.13264 55.3759L3.10072 55.344Z" fill="white" stroke="#5E5E5A" stroke-width="0.478693" stroke-linecap="round" stroke-linejoin="round"/>
</svg>
