<svg width="29" height="83" viewBox="0 0 29 83" fill="none" xmlns="http://www.w3.org/2000/svg">
<path d="M27.891 55.4919C27.891 48.6945 26.072 36.1527 24.7635 27.7596C23.4551 19.3666 18.5086 17.0369 19.4341 8.4843C20.3596 -0.0683395 16.4662 -1.79163 13.0834 4.52711C9.70067 10.8458 7.62633 19.2708 8.51989 28.6213C9.41345 37.9718 7.53059 43.4608 2.29688 55.5238H27.8591L27.891 55.4919Z" fill="#F4DE9C" stroke="#5E5E5A" stroke-width="0.478693" stroke-linecap="round" stroke-linejoin="round"/>
<path d="M1.82063 75.9786C3.38436 78.6273 8.55425 78.1486 9.35207 80.3506C10.118 82.5207 17.8728 83.4781 20.0429 79.7124C22.213 75.9786 26.2659 74.5744 27.2233 71.0002C28.1488 67.4259 29.2338 53.3843 27.2233 51.9801C25.2128 50.576 21.7981 52.2993 20.0748 50.4164C18.3515 48.5335 14.0752 43.3956 11.1392 46.6826C8.20321 49.9696 7.66069 52.1716 5.26723 52.6822C-0.987699 53.9906 0.703678 74.0638 1.82063 75.9786Z" fill="white" stroke="#5E5E5A" stroke-width="0.478693" stroke-linecap="round" stroke-linejoin="round"/>
</svg>
