<svg width="29" height="80" viewBox="0 0 29 80" fill="none" xmlns="http://www.w3.org/2000/svg">
<path d="M26.2065 25.2194C24.4513 33.804 23.0471 40.2504 21.3238 46.7287C19.8558 52.3134 17.8134 57.6429 18.5155 67.7592C19.1218 76.6948 17.9411 84.1305 13.4732 75.514C9.00545 66.8976 6.89921 53.1112 6.612 43.1863C6.32478 33.2934 3.9313 28.1873 3.10156 25.1875H26.2384L26.2065 25.2194Z" fill="#F4DE9C" stroke="#5E5E5A" stroke-width="0.478693" stroke-linecap="round" stroke-linejoin="round"/>
<path d="M24.1945 28.6499C26.8114 26.0331 28.407 18.0868 28.1836 13.6509C27.9602 9.24693 26.3646 8.95971 22.7584 5.99181C19.1523 3.02392 14.6526 -0.390752 11.3975 1.77932C3.06819 7.33215 -2.16551 3.98131 1.53639 17.4166C3.41925 24.214 2.78099 28.4904 5.5255 31.171C8.27 33.8517 11.7485 37.2664 15.1632 36.2452C18.5778 35.224 22.4393 30.4051 24.2264 28.6499H24.1945Z" fill="white" stroke="#5E5E5A" stroke-width="0.478693" stroke-linecap="round" stroke-linejoin="round"/>
</svg>
