<svg width="39" height="86" viewBox="0 0 39 86" fill="none" xmlns="http://www.w3.org/2000/svg">
<path d="M13.2332 5.06091C13.9672 -2.21488 18.4348 -0.332107 18.7539 5.76297C19.073 11.858 21.8174 23.9205 25.4872 35.8873L12.6588 37.451C11.51 33.0472 12.4673 12.3367 13.2332 5.06091Z" fill="#F4DE9C" stroke="#5E5E5A" stroke-width="0.478671" stroke-linecap="round" stroke-linejoin="round"/>
<path d="M35.1308 55.3968C31.7163 47.8976 30.1207 48.5039 31.6844 41.3239C33.248 34.1438 36.2796 26.134 31.5249 14.1034C26.7701 2.07285 19.4942 -3.51164 20.8345 5.0087C22.1748 13.529 24.281 22.5919 21.9514 29.0699C19.6219 35.5479 14.3246 37.0796 12.6333 29.6443C10.942 22.2089 10.8463 16.784 10.7505 11.9654C10.6548 7.17867 9.88892 -2.65003 6.12338 3.73224C2.38975 10.1145 -0.290799 20.1985 1.04948 33.2184C1.04948 33.2184 4.11298 49.7165 1.30478 55.4287H35.1308V55.3968Z" fill="#F4DE9C" stroke="#5E5E5A" stroke-width="0.478671" stroke-linecap="round" stroke-linejoin="round"/>
<path d="M35.2906 55.3516C37.7478 59.8192 38.7051 76.7961 36.6628 79.7638C34.6524 82.7316 29.1955 83.1783 26.9936 81.0084C24.7917 78.8384 24.1216 81.2956 22.175 82.3806C20.2284 83.4336 18.5052 81.4551 16.3991 83.5294C12.4101 87.4226 4.71947 84.7739 2.51758 75.5834C0.347608 66.393 -0.131031 58.1279 0.953955 55.3197C2.03894 52.5115 7.33623 57.0429 11.0699 53.5965C14.8035 50.182 20.2603 50.3096 24.7918 52.3519C29.3232 54.3943 31.6527 48.8417 35.2587 55.3835L35.2906 55.3516Z" fill="white" stroke="#5E5E5A" stroke-width="0.478671" stroke-linecap="round" stroke-linejoin="round"/>
<mask id="mask0_26_115" style="mask-type:luminance" maskUnits="userSpaceOnUse" x="0" y="50" width="39" height="36">
<path d="M35.1266 55.0866C37.6157 59.6499 39.0836 76.9459 37.0413 79.9455C34.967 82.9452 29.4464 83.4239 27.2126 81.222C24.9788 79.0201 24.2767 81.5411 22.2982 82.5942C20.3197 83.6792 18.5646 81.6688 16.4265 83.743C12.3738 87.7 4.55548 85.0195 2.32168 75.6694C0.119796 66.3194 -0.358874 57.9267 0.726113 55.0866C1.8111 52.2465 7.20413 56.8417 11.0016 53.3315C14.799 49.8531 20.3516 50.0127 24.9468 52.055C29.5421 54.0973 31.4249 48.4171 35.0947 55.0547L35.1266 55.0866Z" fill="white"/>
</mask>
<g mask="url(#mask0_26_115)">
<path opacity="0.75" d="M-4.41269 63.2547C-4.41269 63.2547 8.671 58.4041 8.671 68.7434C8.671 77.8701 -4.44458 74.3279 -4.44458 74.3279L-4.38074 63.2547H-4.41269Z" fill="#E62C2F" stroke="#E62C2F" stroke-width="0.638228" stroke-linecap="round" stroke-linejoin="round"/>
</g>
</svg>
