<svg width="30" height="80" viewBox="0 0 30 80" fill="none" xmlns="http://www.w3.org/2000/svg">
<path d="M3.01239 25.2194C4.7676 33.804 6.17176 40.2504 7.89506 46.7287C9.36305 52.3134 11.4055 57.6429 10.7034 67.7592C10.097 76.6948 11.2778 84.1305 15.7456 75.514C20.2134 66.8976 22.3197 53.1112 22.6069 43.1863C22.8941 33.2934 25.2876 28.1873 26.1173 25.1875H2.98047L3.01239 25.2194Z" fill="#F4DE9C" stroke="#5E5E5A" stroke-width="0.478693" stroke-linecap="round" stroke-linejoin="round"/>
<path d="M5.01964 28.6499C2.40278 26.0331 0.807139 18.0868 1.03053 13.6509C1.25392 9.24693 2.84955 8.95971 6.45571 5.99181C10.0619 3.02392 14.5616 -0.390752 17.8167 1.77932C26.146 7.33215 31.3797 3.98131 27.6778 17.4166C25.7949 24.214 26.4332 28.4904 23.6887 31.171C20.9442 33.8517 17.4657 37.2664 14.051 36.2452C10.6363 35.224 6.77484 30.4051 4.98772 28.6499H5.01964Z" fill="white" stroke="#5E5E5A" stroke-width="0.478693" stroke-linecap="round" stroke-linejoin="round"/>
</svg>
