<svg width="31" height="87" viewBox="0 0 31 87" fill="none" xmlns="http://www.w3.org/2000/svg">
<path d="M1.7168 63.2297C2.51458 55.0923 4.33357 46.7954 5.09944 38.5622C5.86532 30.3291 8.96068 23.6915 10.7477 11.1823C12.5348 -1.29506 16.8747 -1.86946 19.5234 4.57663C22.172 11.0227 26.0333 28.4144 25.2036 37.9878C24.342 47.5613 27.0545 58.6664 28.7138 63.2297H1.74874H1.7168Z" fill="#F4DE9C" stroke="#5E5E5A" stroke-width="0.478671" stroke-linecap="round" stroke-linejoin="round"/>
<path d="M27.0558 84.4447C26.3218 84.6042 23.0669 86.4551 18.4078 86.0083C15.5039 85.7211 11.8978 86.9018 8.35568 85.5935C6.56864 84.9233 4.49442 84.8276 2.484 84.1574C0.282113 83.4235 0.122574 74.7436 0.856535 66.6381C1.5905 58.5326 3.21795 60.6069 5.8666 56.0435C17.4185 36.1627 18.7588 54.0012 24.4709 54.416C28.1088 54.6713 34.2358 82.7853 27.0558 84.4127V84.4447Z" fill="white" stroke="#5E5E5A" stroke-width="0.478671" stroke-linecap="round" stroke-linejoin="round"/>
<mask id="mask0_25_73" style="mask-type:luminance" maskUnits="userSpaceOnUse" x="0" y="46" width="31" height="41">
<path d="M27.5339 84.7289C26.768 84.9203 23.4811 86.7712 18.7583 86.3244C15.8224 86.0372 12.1526 87.2498 8.54658 85.9096C6.72763 85.2394 4.62149 85.1118 2.57917 84.4416C0.34537 83.7077 0.185799 74.8682 0.919761 66.667C1.65372 58.4339 3.31315 60.54 5.99371 55.9129C17.7371 35.713 19.1093 53.8386 24.9171 54.2535C28.6189 54.5407 33.5651 83.2928 27.5339 84.7608V84.7289Z" fill="white"/>
</mask>
<g mask="url(#mask0_25_73)">
<path opacity="0.75" d="M-3.7757 65.1789C-3.7757 65.1789 6.78701 62.5941 6.78701 69.9656C6.78701 78.8689 -3.90332 76.0288 -3.90332 76.0288L-3.7757 65.1789Z" fill="#E62C2F" stroke="#E62C2F" stroke-width="1.59557" stroke-linecap="round" stroke-linejoin="round"/>
</g>
</svg>
