<svg width="45" height="76" viewBox="0 0 45 76" fill="none" xmlns="http://www.w3.org/2000/svg">
<path d="M40.175 26.0781L3.63477 27.0355C5.29424 31.5352 5.35806 33.5138 5.74102 37.5987C6.12397 41.6835 6.28354 50.1404 5.64528 54.4486C5.00702 58.7249 3.34756 71.9688 5.48572 73.8516C7.62388 75.7664 10.496 71.905 12.347 67.0861C14.1979 62.2673 16.4318 57.2889 17.3254 49.566C18.219 41.8431 20.1976 41.7154 21.7613 43.6302C23.325 45.5449 24.793 56.5549 25.4632 60.7036C26.1333 64.8522 22.0485 75.926 26.1333 75.0324C30.2182 74.1389 34.0797 66.5436 36.0263 62.2673C37.973 57.991 40.8133 51.6722 40.0474 44.9067C39.3134 38.1412 38.8666 29.429 40.1431 26.11L40.175 26.0781Z" fill="#F4DE9C" stroke="#5E5E5A" stroke-width="0.478693" stroke-linecap="round" stroke-linejoin="round"/>
<path d="M2.90128 25.7373C0.826947 19.8016 -0.609137 9.81285 4.59266 6.27053C18.379 -3.14376 21.0278 2.37717 25.9424 1.4517C29.6124 0.781527 37.0481 -0.782211 41.6116 2.37716C46.1752 5.53653 44.8348 19.1952 42.2818 23.4715C39.7287 27.7479 36.4098 28.2904 32.2611 28.0351C28.1125 27.7798 23.0383 31.2583 17.6769 29.6307C12.3156 28.0351 4.56075 30.3966 2.93319 25.7373H2.90128Z" fill="white" stroke="#5E5E5A" stroke-width="0.478693" stroke-linecap="round" stroke-linejoin="round"/>
</svg>
