<svg width="31" height="101" viewBox="0 0 31 101" fill="none" xmlns="http://www.w3.org/2000/svg">
<path d="M8.8892 27.8936C11.3465 20.3941 14.6016 14.203 15.559 6.4801C16.5164 -1.2428 19.7077 -1.11515 21.399 3.12926C23.0904 7.37366 24.7499 26.1384 25.2605 38.3291C25.7711 50.5198 24.8776 62.0084 27.0157 69.3803H5.66602C8.57009 58.9129 6.39999 35.3931 8.8892 27.8936Z" fill="#F4DE9C" stroke="#5E5E5A" stroke-width="0.478693" stroke-linecap="round" stroke-linejoin="round"/>
<path d="M30.1793 89.1976C31.743 82.6554 27.9773 73.9432 27.1795 69.9541C26.4136 65.965 20.3501 60.7632 16.1376 61.0505C11.9251 61.3696 6.468 64.7204 5.76592 67.4011C2.12785 81.3151 -1.82932 88.5593 4.74473 96.2184C8.95723 101.101 15.4993 101.58 20.1586 97.5906C24.8179 93.6015 28.4241 96.378 30.1155 89.1976H30.1793Z" fill="white" stroke="#5E5E5A" stroke-width="0.478693" stroke-linecap="round" stroke-linejoin="round"/>
</svg>
