<svg width="34" height="74" viewBox="0 0 34 74" fill="none" xmlns="http://www.w3.org/2000/svg">
<path d="M14.1387 5.52619C15.479 -0.728727 19.3404 1.28178 19.0851 6.61122C18.8298 11.9407 20.234 22.6953 22.4998 33.4499L10.7559 33.6733C10.1176 29.748 12.8302 11.7492 14.1705 5.49427L14.1387 5.52619Z" fill="#F4DE9C" stroke="#5E5E5A" stroke-width="0.478693" stroke-linecap="round" stroke-linejoin="round"/>
<path d="M1.79102 50.9891C3.80153 39.5643 1.98246 23.8313 3.35472 17.9593C4.72697 12.0874 6.57789 2.09867 10.3117 0.949808C14.0136 -0.199054 12.9924 9.56627 11.1415 17.6721C9.25861 25.778 11.2372 31.7138 17.907 32.7988C24.5449 33.8839 19.5665 16.9381 20.3324 6.91751C21.0983 -3.10312 26.7149 -0.48627 26.1724 5.83247C25.598 12.1512 31.9486 25.9376 31.6295 29.5756C31.3104 33.2456 29.3957 42.2131 32.204 50.9572H1.85481L1.79102 50.9891Z" fill="#F4DE9C" stroke="#5E5E5A" stroke-width="0.478693" stroke-linecap="round" stroke-linejoin="round"/>
<path d="M32.1346 50.9465C34.5919 56.4355 33.1558 71.275 27.6668 71.275C22.1778 71.275 20.8055 70.4133 18.7631 72.4877C16.7207 74.562 13.6251 71.4665 11.9018 71.8175C10.1785 72.1685 3.89175 76.764 2.16845 67.5412C0.413243 58.2865 0.253605 44.564 5.58306 45.6171C18.7312 48.1701 15.508 34.3199 25.8159 48.3616C27.6988 50.9465 30.0922 46.383 32.1665 51.0103L32.1346 50.9465Z" fill="white" stroke="#5E5E5A" stroke-width="0.478693" stroke-linecap="round" stroke-linejoin="round"/>
</svg>
