<svg width="26" height="79" viewBox="0 0 26 79" fill="none" xmlns="http://www.w3.org/2000/svg">
<path d="M1.07422 24.875C1.68056 30.5874 6.9781 46.0651 8.82905 67.1276C9.59496 75.7121 12.9458 82.7968 15.5307 73.7974C18.1157 64.798 19.7432 52.4158 20.5411 42.9058C21.3389 33.3957 24.2111 27.7791 25.0408 24.875H1.07422Z" fill="#F4DE9C" stroke="#5E5E5A" stroke-width="0.478693" stroke-linecap="round" stroke-linejoin="round"/>
<path d="M3.75839 1.11303C6.94967 -0.259222 10.8111 2.96398 12.2472 1.97468C13.6833 0.98538 20.8637 -0.865562 22.7465 2.0385C24.6294 4.94257 26.7357 18.9842 25.2677 24.1222C23.8316 29.2602 15.9172 38.3872 12.9493 37.0788C9.98139 35.7704 2.41803 30.3771 1.87551 28.7495C0.0564798 23.3244 -0.868988 3.09163 3.72647 1.11303H3.75839Z" fill="white" stroke="#5E5E5A" stroke-width="0.478693" stroke-linecap="round" stroke-linejoin="round"/>
</svg>
