<svg width="36" height="66" viewBox="0 0 36 66" fill="none" xmlns="http://www.w3.org/2000/svg">
<path d="M33.6392 19.5469H3.83262C6.00269 23.1211 3.13054 27.1421 2.61993 31.578C2.10932 36.0139 0.0988117 34.4183 0.481766 44.4708C0.864721 54.4914 2.49228 57.0764 3.92836 61.0655C5.36444 65.0865 9.00251 67.6076 9.92798 61.8633C10.8535 56.119 8.2366 43.5772 10.5662 38.9499C12.8959 34.3225 15.0021 32.7907 16.1829 36.0139C17.3637 39.2371 19.5657 40.8966 19.0231 45.0771C18.4806 49.2577 15.0021 56.5019 14.1724 60.5229C13.3427 64.544 14.3958 67.5119 20.2678 61.1931C26.1397 54.8744 30.5756 50.7257 29.8416 42.6518C29.1076 34.5778 30.0012 31.3865 30.8309 28.0357C31.6606 24.6848 32.7457 22.5467 33.6392 19.5788V19.5469Z" fill="#F4DE9C" stroke="#5E5E5A" stroke-width="0.478693" stroke-linecap="round" stroke-linejoin="round"/>
<path d="M6.06431 24.4336C2.39433 21.8168 -0.190616 15.53 0.990161 8.86019C2.17094 2.22232 5.45796 3.9456 7.18126 3.62647C8.90455 3.30734 11.8725 0.371363 16.2445 1.23301C20.6485 2.12657 22.308 1.58406 26.4566 0.658589C30.6053 -0.298795 34.6902 2.38187 34.8178 8.31766C34.9774 14.2534 34.8178 19.2638 32.169 21.4657C29.5203 23.6677 21.5101 20.8275 18.8614 21.4657C16.2126 22.104 11.681 28.4866 6.0324 24.4336H6.06431Z" fill="white" stroke="#5E5E5A" stroke-width="0.478693" stroke-linecap="round" stroke-linejoin="round"/>
</svg>
