<svg width="26" height="84" viewBox="0 0 26 84" fill="none" xmlns="http://www.w3.org/2000/svg">
<path d="M1.55664 60.6725C1.78003 48.9924 4.58833 35.4933 6.31163 29.5575C8.03492 23.6217 9.24761 13.1543 13.492 4.28251C17.7364 -4.58925 19.8427 3.42087 19.4278 7.25041C19.013 11.0799 21.3745 26.3981 22.8425 32.6211C24.3105 38.8441 23.1936 49.8859 25.3317 60.6725H1.55664Z" fill="#F4DE9C" stroke="#5E5E5A" stroke-width="0.478693" stroke-linecap="round" stroke-linejoin="round"/>
<path d="M22.6181 80.0876C25.8732 78.2047 25.2988 68.5033 25.4583 62.8866C25.7455 51.9724 13.3953 40.0689 4.87452 52.5149C2.16193 56.504 0.853516 57.6529 0.853516 67.7693C0.853516 77.8856 3.31079 86.151 9.56572 82.2577C15.7887 78.3643 15.6611 84.1086 22.65 80.0876H22.6181Z" fill="white" stroke="#5E5E5A" stroke-width="0.478693" stroke-linecap="round" stroke-linejoin="round"/>
</svg>
