<svg width="32" height="87" viewBox="0 0 32 87" fill="none" xmlns="http://www.w3.org/2000/svg">
<path d="M29.6878 63.256C28.8899 55.1183 27.0709 46.8209 26.305 38.5874C25.5391 30.3539 22.4435 23.716 20.6564 11.2062C18.8693 -1.27171 14.5291 -1.84613 11.8804 4.60026C9.23161 11.0466 5.37015 28.4391 6.19989 38.013C7.06154 47.5868 4.34892 58.6925 2.68945 63.256H29.6558H29.6878Z" fill="#F4DE9C" stroke="#5E5E5A" stroke-width="0.478693" stroke-linecap="round" stroke-linejoin="round"/>
<path d="M4.31824 84.4776C5.05224 84.6372 8.30732 86.4881 12.9666 86.0414C15.8707 85.7541 19.4769 86.9349 23.0192 85.6265C24.8063 84.9563 26.8806 84.8606 28.8912 84.1904C31.0931 83.4564 31.2527 74.7761 30.5187 66.6703C29.7847 58.5644 28.1572 60.6387 25.5084 56.0752C13.9559 36.1935 12.6156 54.0328 6.90318 54.4476C3.26511 54.703 -2.86216 82.8182 4.31824 84.4457V84.4776Z" fill="white" stroke="#5E5E5A" stroke-width="0.478693" stroke-linecap="round" stroke-linejoin="round"/>
</svg>
