<svg width="39" height="74" viewBox="0 0 39 74" fill="none" xmlns="http://www.w3.org/2000/svg">
<path d="M14.9743 22.1178H1.82617C2.94312 24.4475 5.43232 32.3938 5.40041 35.8404C5.40041 39.287 2.65591 44.4887 3.48564 49.6267C4.31538 54.7647 6.93223 69.2212 9.61291 71.5827C12.2617 73.9762 14.336 65.9342 14.336 57.7964C14.336 49.6586 18.357 40.4996 20.2399 40.4996C23.4312 40.4996 24.4205 51.7968 23.7822 54.0307C23.144 56.2646 20.559 73.9762 24.1333 72.7954C27.7075 71.6465 33.1646 62.7748 33.4837 56.5199C33.771 50.265 33.4518 42.2229 33.8667 39.0955C34.2816 35.968 36.5155 26.4261 37.792 22.0859H14.9743V22.1178Z" fill="#F4DE9C" stroke="#5E5E5A" stroke-width="0.478693" stroke-linecap="round" stroke-linejoin="round"/>
<path d="M3.07622 25.4876C0.26789 19.6475 -1.10436 8.12703 6.01221 4.52088C13.1288 0.914728 18.4582 4.74426 21.8729 2.6061C25.2876 0.467941 35.5635 -2.18082 37.6698 6.37181C39.776 14.9245 38.0847 22.0091 37.0954 24.4664C36.1061 26.8918 33.0743 26.0939 30.4894 25.5514C27.9044 25.0408 23.2771 30.0192 20.5964 30.0511C13.9904 30.115 11.8204 24.1792 8.66098 24.4664C5.5016 24.7536 4.48039 28.4555 3.04431 25.5195L3.07622 25.4876Z" fill="white" stroke="#5E5E5A" stroke-width="0.478693" stroke-linecap="round" stroke-linejoin="round"/>
</svg>
