<svg width="25" height="74" viewBox="0 0 25 74" fill="none" xmlns="http://www.w3.org/2000/svg">
<path d="M1.46875 26.5411C2.39422 31.2323 5.71316 47.6354 8.20237 63.528C9.38315 71.1233 11.8723 77.4739 14.1701 69.4638C16.4678 61.4537 17.9038 50.4118 18.6378 41.9549C19.3718 33.498 21.7334 28.6473 22.0844 26.4453L1.46875 26.5411Z" fill="#F4DE9C" stroke="#5E5E5A" stroke-width="0.478693" stroke-linecap="round" stroke-linejoin="round"/>
<path d="M1.62674 27.4212C2.42456 31.9209 5.93498 30.5486 7.65827 32.8464C9.38157 35.1441 13.0197 35.527 15.3174 32.8464C17.6151 30.1657 22.0191 29.4636 22.4021 25.1235C22.785 20.7833 25.4657 4.6035 22.4021 2.46534C19.3384 0.359093 3.47772 -0.757856 1.65868 2.46534C-0.16035 5.68854 0.733211 22.1875 1.65868 27.4212H1.62674Z" fill="white" stroke="#5E5E5A" stroke-width="0.478693" stroke-linecap="round" stroke-linejoin="round"/>
</svg>
