<svg width="31" height="102" viewBox="0 0 31 102" fill="none" xmlns="http://www.w3.org/2000/svg">
<path d="M8.30121 28.8689C10.7584 21.3697 14.0133 15.1789 14.9707 7.45638C15.928 -0.266172 19.1192 -0.138526 20.8105 4.10569C22.5018 8.3499 24.1611 27.1138 24.6717 39.3039C25.1823 51.4941 24.2888 62.9822 26.4268 70.3537H5.07812C7.98206 59.8868 5.81212 36.3681 8.30121 28.8689Z" fill="#F4DE9C" stroke="#5E5E5A" stroke-width="0.478671" stroke-linecap="round" stroke-linejoin="round"/>
<path d="M29.5822 90.1729C31.1459 83.631 27.3803 74.9192 26.5825 70.9303C25.8167 66.9414 19.7535 61.7398 15.5412 62.027C11.3289 62.3461 5.87208 65.6968 5.17003 68.3774C1.53214 82.2907 -2.4249 89.5346 4.14884 97.1934C8.36115 102.076 14.903 102.554 19.562 98.5655C24.2211 94.5766 27.8271 97.3529 29.5184 90.1729H29.5822Z" fill="white" stroke="#5E5E5A" stroke-width="0.478671" stroke-linecap="round" stroke-linejoin="round"/>
<mask id="mask0_25_98" style="mask-type:luminance" maskUnits="userSpaceOnUse" x="0" y="61" width="31" height="41">
<path d="M29.8152 90.3011C31.4107 83.6316 27.2942 74.7602 26.4964 70.7394C25.6986 66.6867 19.8588 61.4213 15.5827 61.7404C11.3066 62.0595 5.754 65.474 5.05195 68.1865C1.35023 82.3232 -2.67057 89.6948 4.03081 97.4811C8.30694 102.459 14.9445 102.906 19.6993 98.8852C24.4541 94.8325 28.092 97.6407 29.8471 90.333L29.8152 90.3011Z" fill="white"/>
</mask>
<g mask="url(#mask0_25_98)">
<path opacity="0.75" d="M-4.14886 75.7C-2.71285 75.5404 7.59455 72.5407 7.59455 80.6462C7.59455 89.5814 -4.02119 86.6137 -4.02119 86.6137L-4.14886 75.7Z" fill="#E62C2F" stroke="#E62C2F" stroke-width="1.59557" stroke-linecap="round" stroke-linejoin="round"/>
</g>
</svg>
