<svg width="36" height="66" viewBox="0 0 36 66" fill="none" xmlns="http://www.w3.org/2000/svg">
<path d="M1.57422 19.5469H31.3808C29.2108 23.1211 32.0829 27.1421 32.5935 31.578C33.1041 36.0139 35.1146 34.4183 34.7316 44.4708C34.3487 54.4914 32.7212 57.0764 31.2851 61.0655C29.849 65.0865 26.2109 67.6076 25.2855 61.8633C24.36 56.119 26.9768 43.5772 24.6472 38.9499C22.3175 34.3225 20.2113 32.7907 19.0306 36.0139C17.8498 39.2371 15.6478 40.8966 16.1903 45.0771C16.7328 49.2577 20.2113 56.5019 21.041 60.5229C21.8707 64.544 20.8177 67.5119 14.9457 61.1931C9.07375 54.8744 4.63786 50.7257 5.37186 42.6518C6.10586 34.5778 5.2123 31.3865 4.38257 28.0357C3.55283 24.6848 2.46778 22.5467 1.57422 19.5788V19.5469Z" fill="#F4DE9C" stroke="#5E5E5A" stroke-width="0.478693" stroke-linecap="round" stroke-linejoin="round"/>
<path d="M29.1502 24.4336C32.8201 21.8168 35.4051 15.53 34.2243 8.86019C33.0435 2.22232 29.7565 3.9456 28.0332 3.62647C26.3099 3.30734 23.342 0.371363 18.9699 1.23301C14.566 2.12657 12.9065 1.58406 8.75787 0.658589C4.6092 -0.298795 0.524367 2.38187 0.396716 8.31766C0.237151 14.2534 0.396673 19.2638 3.04544 21.4657C5.69421 23.6677 13.7044 20.8275 16.3532 21.4657C19.0019 22.104 23.5335 28.4866 29.1821 24.4336H29.1502Z" fill="white" stroke="#5E5E5A" stroke-width="0.478693" stroke-linecap="round" stroke-linejoin="round"/>
</svg>
