<svg width="33" height="75" viewBox="0 0 33 75" fill="none" xmlns="http://www.w3.org/2000/svg">
<path d="M13.4959 6.53382C14.8362 0.279194 18.6975 2.28961 18.4422 7.61881C18.1869 12.948 19.591 23.7021 21.8567 34.4563L10.1133 34.6797C9.47508 30.7546 12.1876 12.7565 13.5278 6.50191L13.4959 6.53382Z" fill="#F4DE9C" stroke="#5E5E5A" stroke-width="0.478671" stroke-linecap="round" stroke-linejoin="round"/>
<path d="M1.17969 51.9634C3.1901 40.5391 1.37112 24.8068 2.74331 18.9351C4.1155 13.0634 5.96634 3.07515 9.69997 1.92634C13.4017 0.777529 12.3806 10.5424 10.5297 18.6479C8.64693 26.7534 10.6254 32.6889 17.2949 33.7739C23.9325 34.8589 18.9543 17.9139 19.7202 7.89377C20.4861 -2.12641 26.1024 0.490325 25.5599 6.80878C24.9855 13.1272 31.336 26.9129 31.0168 30.5508C30.6977 34.2207 28.783 43.1878 31.5912 51.9315H1.24348L1.17969 51.9634Z" fill="#F4DE9C" stroke="#5E5E5A" stroke-width="0.478671" stroke-linecap="round" stroke-linejoin="round"/>
<path d="M31.5335 51.9539C33.9907 57.4427 32.5547 72.2815 27.0659 72.2815C21.5772 72.2815 20.205 71.4199 18.1627 73.4941C16.1204 75.5683 13.0249 72.4729 11.3017 72.824C9.57848 73.175 3.29197 77.7702 1.56876 68.5478C-0.186366 59.2935 -0.3459 45.5716 4.9833 46.6247C18.1308 49.1776 14.9077 35.3281 25.2151 49.3691C27.0979 51.9539 29.4912 47.3906 31.5654 52.0177L31.5335 51.9539Z" fill="white" stroke="#5E5E5A" stroke-width="0.478671" stroke-linecap="round" stroke-linejoin="round"/>
<mask id="mask0_26_133" style="mask-type:luminance" maskUnits="userSpaceOnUse" x="0" y="42" width="33" height="33">
<path d="M31.5296 51.9854C34.0187 57.5699 32.9337 72.7278 27.3492 72.7278C21.7647 72.7278 20.3925 71.8662 18.2864 73.9404C16.1802 76.0147 13.0529 72.8874 11.3297 73.2384C9.5746 73.5894 3.19231 78.2804 1.43718 68.8665C-0.349856 59.4527 -0.509358 45.5393 4.88366 46.5605C18.2226 49.1453 14.9677 35.0724 25.4346 49.3368C27.3493 51.9535 29.4553 47.2306 31.5296 51.9535V51.9854Z" fill="white"/>
</mask>
<g mask="url(#mask0_26_133)">
<path opacity="0.75" d="M-6.12488 56.0278C-6.12488 56.0278 6.7354 50.0604 6.7354 60.3677C6.7354 69.4944 -6.02915 64.612 -6.02915 64.612L-6.12488 56.0278Z" fill="#E62C2F" stroke="#E62C2F" stroke-width="0.638228" stroke-linecap="round" stroke-linejoin="round"/>
</g>
</svg>
