<svg width="18" height="13" viewBox="0 0 18 13" fill="none" xmlns="http://www.w3.org/2000/svg">
<path fill-rule="evenodd" clip-rule="evenodd" d="M1.25931 5.96047C2.13159 4.43402 4.58463 1 8.99994 1C13.4153 1 15.8684 4.43402 16.7406 5.96047C16.9196 6.2736 17.0091 6.4302 16.9992 6.66378C16.9894 6.89735 16.8842 7.04998 16.6738 7.35524C15.6355 8.86153 12.8167 12.3542 8.99994 12.3542C5.18326 12.3542 2.36444 8.86153 1.32618 7.35524C1.11578 7.04998 1.01059 6.89735 1.00073 6.66378C0.990881 6.4302 1.08036 6.2736 1.25931 5.96047ZM8.99994 9.11011C10.3437 9.11011 11.433 8.02084 11.433 6.67708C11.433 5.33331 10.3437 4.24404 8.99994 4.24404C7.65625 4.24404 6.56694 5.33331 6.56694 6.67708C6.56694 8.02084 7.65625 9.11011 8.99994 9.11011Z" fill="#5F7BC3" fill-opacity="0.1"/>
<path d="M8.99998 1C4.58464 1 2.1316 4.43402 1.25932 5.96047C1.08036 6.2736 0.990888 6.4302 1.00073 6.66378C1.01059 6.89735 1.11579 7.04998 1.32618 7.35524C2.36445 8.86153 5.18327 12.3542 8.99998 12.3542C12.8167 12.3542 15.6355 8.86153 16.6738 7.35524C16.8841 7.04998 16.9893 6.89735 16.9992 6.66378C17.009 6.4302 16.9196 6.2736 16.7407 5.96047C15.8684 4.43402 13.4153 1 8.99998 1Z" fill="#5F7BC3" fill-opacity="0.1" stroke="white" stroke-width="0.973213"/>
<path d="M9.00139 9.10825C10.3451 9.10825 11.4344 8.01895 11.4344 6.67522C11.4344 5.33149 10.3451 4.24219 9.00139 4.24219C7.65767 4.24219 6.56836 5.33149 6.56836 6.67522C6.56836 8.01895 7.65767 9.10825 9.00139 9.10825Z" fill="#5F7BC3" fill-opacity="0.1" stroke="white" stroke-width="0.973213"/>
</svg>
