<svg width="19" height="19" viewBox="0 0 19 19" fill="none" xmlns="http://www.w3.org/2000/svg">
<path d="M12.9406 0C14.37 0 15.5287 1.15874 15.5287 2.58812C15.5287 3.06457 15.1425 3.45082 14.666 3.45082C14.1895 3.45082 13.8033 3.06457 13.8033 2.58812C13.8033 2.11166 13.417 1.72541 12.9406 1.72541H2.58812C2.11166 1.72541 1.72541 2.11166 1.72541 2.58812V16.3914C1.72541 16.8679 2.11166 17.2541 2.58812 17.2541H12.9406C13.417 17.2541 13.8033 16.8679 13.8033 16.3914V15.5287C13.8033 15.0522 14.1895 14.666 14.666 14.666C15.1425 14.666 15.5287 15.0522 15.5287 15.5287V16.3914C15.5287 17.8208 14.37 18.9795 12.9406 18.9795H2.58812C1.15874 18.9795 0 17.8208 0 16.3914V2.58812C0 1.15874 1.15874 0 2.58812 0H12.9406Z" fill="white"/>
<path fill-rule="evenodd" clip-rule="evenodd" d="M17.0791 6.21061C16.8205 5.95194 16.4011 5.95194 16.1424 6.21061L9.41611 12.937C9.28895 13.0641 9.20467 13.2278 9.17516 13.4052L9.03325 14.2565L9.88456 14.1146C10.0619 14.0851 10.2257 14.0008 10.3528 13.8737L17.0791 7.14733C17.3378 6.88865 17.3378 6.46927 17.0791 6.21061ZM14.9223 4.99056C15.8548 4.05808 17.3667 4.05807 18.2992 4.99056C19.2316 5.92304 19.2316 7.43489 18.2992 8.3674L11.5729 15.0937C11.1914 15.4751 10.7003 15.7278 10.1682 15.8165L9.3169 15.9584C8.14915 16.1531 7.13667 15.1407 7.33131 13.9728L7.4732 13.1215C7.56189 12.5894 7.81459 12.0983 8.19599 11.7169L14.9223 4.99056Z" fill="white"/>
<path d="M3.45117 5.17414C3.45117 4.69768 3.83742 4.31143 4.31388 4.31143H11.2155C11.692 4.31143 12.0782 4.69768 12.0782 5.17414C12.0782 5.65059 11.692 6.03684 11.2155 6.03684H4.31388C3.83742 6.03684 3.45117 5.65059 3.45117 5.17414Z" fill="white"/>
<path d="M3.45117 8.6287C3.45117 8.15222 3.83742 7.76599 4.31388 7.76599H7.7647C8.24117 7.76599 8.6274 8.15222 8.6274 8.6287C8.6274 9.10517 8.24117 9.4914 7.7647 9.4914H4.31388C3.83742 9.4914 3.45117 9.10517 3.45117 8.6287Z" fill="white"/>
<path d="M3.45117 12.0765C3.45117 11.6 3.83742 11.2138 4.31388 11.2138H5.17658C5.65304 11.2138 6.03929 11.6 6.03929 12.0765C6.03929 12.553 5.65304 12.9392 5.17658 12.9392H4.31388C3.83742 12.9392 3.45117 12.553 3.45117 12.0765Z" fill="white"/>
</svg>
