<svg width="31" height="30" viewBox="0 0 31 30" fill="none" xmlns="http://www.w3.org/2000/svg">
<path fill-rule="evenodd" clip-rule="evenodd" d="M16.4989 3.61422C17.0777 3.61137 17.5453 3.13949 17.541 2.5607C17.5381 1.9819 17.0663 1.51431 16.4875 1.51858C15.9087 1.52143 15.4411 1.99331 15.4453 2.5721C15.4482 3.1509 15.9201 3.61707 16.4989 3.61422Z" fill="white"/>
<path fill-rule="evenodd" clip-rule="evenodd" d="M6.24882 10.958C5.04419 12.261 4.243 13.9304 4.02774 15.7709C3.75259 18.1188 4.45542 20.357 5.81402 22.0749C7.17261 23.7942 9.18699 24.9945 11.535 25.2697C13.4538 25.4949 15.3299 25.0601 16.9066 24.122C18.3807 23.2439 19.5925 21.9252 20.3323 20.29L18.0585 19.6499C17.5139 20.6949 16.6971 21.5431 15.7205 22.1234C14.5743 22.8062 13.2072 23.1198 11.8044 22.9559C10.0951 22.7563 8.62815 21.881 7.63879 20.6307C6.64942 19.3791 6.13763 17.751 6.33864 16.0403C6.49688 14.6903 7.0771 13.4728 7.94957 12.529C8.82346 11.5839 9.99246 10.9081 11.3225 10.6473L10.8749 8.36914C9.05441 8.72982 7.45061 9.65789 6.24882 10.958Z" fill="white"/>
<path fill-rule="evenodd" clip-rule="evenodd" d="M17.8754 25.5197C15.9822 26.6459 13.7269 27.1663 11.4174 26.8954C8.59617 26.5646 6.17692 25.1219 4.54603 23.0577C2.91372 20.9934 2.06976 18.3061 2.4005 15.4849C2.66139 13.2609 3.62082 11.2523 5.06067 9.6955C6.50338 8.13446 8.42937 7.01964 10.6234 6.58768L10.1757 4.30957C7.49132 4.83847 5.1291 6.20562 3.3585 8.12021C1.58363 10.0376 0.404656 12.4997 0.0867469 15.2126C-0.318124 18.6711 0.716863 21.9671 2.71841 24.5004C4.71995 27.0337 7.68806 28.8014 11.1466 29.2077C13.9735 29.5385 16.7378 28.8998 19.0615 27.5169C21.371 26.1427 23.2414 24.0342 24.3035 21.4111L22.0482 20.7753C21.1686 22.8068 19.6874 24.4405 17.8754 25.5197Z" fill="white"/>
<path fill-rule="evenodd" clip-rule="evenodd" d="M30.9738 10.7576C30.9666 10.7262 30.9524 10.6963 30.9339 10.6692L29.1875 8.35403C29.5296 6.55065 29.6237 5.98468 28.7997 4.26256C28.1055 2.58177 26.3334 0.650079 21.8485 0.794065C21.7416 0.337872 21.331 -0.00142113 20.842 4.4757e-06C20.2746 0.00285568 19.8156 0.466176 19.8184 1.03357C19.8213 1.60096 20.2846 2.06 20.852 2.05715C21.0601 2.05572 21.2526 1.993 21.4137 1.88608C21.7843 2.18688 22.175 2.71435 22.5199 3.4186C22.3902 3.52124 22.2904 3.66095 22.2334 3.82062C21.5862 3.79068 21.0159 3.81064 20.6082 3.82632C20.5826 3.82775 20.5569 3.82775 20.5312 3.82917C20.4357 3.53407 20.162 3.31881 19.8341 3.32023C19.4307 3.32166 19.1056 3.65097 19.1071 4.05442C19.1085 4.45786 19.4378 4.7829 19.8412 4.78148C20.162 4.78005 20.43 4.57049 20.527 4.28251C20.5583 4.28109 20.5883 4.28109 20.6239 4.27966C21.0174 4.26541 21.5691 4.24545 22.1963 4.27396C22.2305 4.45929 22.3218 4.62466 22.4529 4.75154C21.6646 5.24194 21.0102 5.83642 20.5384 6.49077C20.3701 6.37387 20.1663 6.30402 19.9453 6.30544C19.3779 6.3083 18.9189 6.77162 18.9217 7.33901C18.9246 7.86648 19.3223 8.29701 19.8341 8.35546C19.8512 9.78677 21.0074 11.5488 22.6554 13.2809C22.0908 14.6666 21.2098 16.1022 19.864 17.4579C19.7158 17.3282 19.5219 17.2498 19.3095 17.2512C18.8447 17.2541 18.4712 17.6319 18.4727 18.0966C18.4755 18.5613 18.8533 18.9349 19.318 18.9334C19.5205 18.932 19.7058 18.8593 19.8498 18.741L23.6975 19.7603C23.7018 20.2236 24.0796 20.5957 24.5429 20.5943C25.0076 20.5914 25.3811 20.2136 25.3797 19.7489C25.3783 19.4167 25.183 19.1302 24.9021 18.9962C24.9121 18.3404 25.0789 17.7944 25.3968 17.4137C25.6919 17.0588 26.1125 16.8649 26.5815 16.8649C26.5843 16.8649 26.5872 16.8649 26.59 16.8649H26.6471C27.6678 16.872 28.7242 16.8763 29.2089 16.2305C29.484 15.8655 29.5353 15.3509 29.3643 14.6609C29.6665 14.5212 29.8646 14.3074 29.9188 14.0522C29.953 13.8911 29.9416 13.663 29.7563 13.4021L30.1113 13.2809C30.184 13.2567 30.2396 13.1968 30.2581 13.1227C30.3579 12.7363 30.3066 12.35 30.1184 12.0221C30.5632 11.8211 31.1292 11.4618 30.9738 10.7576ZM27.8859 3.53122C27.5438 3.47135 27.1817 3.44426 26.8067 3.44711C26.6998 3.1734 26.4346 2.97809 26.1239 2.97951C25.9884 2.98094 25.8644 3.01943 25.7561 3.08501C24.8066 2.30093 23.5977 1.67651 22.155 1.2417C24.8594 1.21034 26.811 1.99157 27.8859 3.53122ZM26.7554 11.8795C26.3206 12.7264 25.7518 13.5432 25.0689 14.2988C24.9734 14.2532 24.8665 14.2261 24.7524 14.2261C24.6213 14.2261 24.5001 14.2646 24.3946 14.3259C23.9726 13.9424 23.5706 13.5532 23.1928 13.164C23.7588 11.6728 23.9783 10.2458 24.0297 9.03405C24.0339 9.03405 24.0382 9.03405 24.0425 9.03405C24.262 9.03262 24.4645 8.96277 24.6313 8.84444C25.4253 9.399 26.1224 10.0861 26.7169 10.8189C26.5858 10.9515 26.5045 11.1354 26.5059 11.3364C26.5074 11.5545 26.6057 11.7455 26.7554 11.8795ZM24.9349 8.508C25.019 8.35831 25.0675 8.18581 25.0661 8.00191C25.0632 7.43452 24.5999 6.97548 24.0325 6.97833C24.0097 6.97833 23.9869 6.98118 23.9641 6.9826C23.8828 6.24414 23.7403 5.52421 23.5478 4.85703C23.6718 4.7772 23.7745 4.66885 23.8458 4.53912C23.88 4.52487 23.9156 4.51204 23.9512 4.49778C25.4866 4.84135 27.0363 5.65822 27.6963 7.53859C27.7063 7.64266 27.7134 7.74815 27.7177 7.85507C27.7562 8.77174 27.6065 9.70123 27.2986 10.6108C27.2772 10.6093 27.2558 10.6051 27.2344 10.6051C27.1988 10.6051 27.1646 10.6108 27.1303 10.6165C26.5074 9.83666 25.7746 9.10248 24.9349 8.508ZM24.7196 4.22834C24.972 4.15421 25.2257 4.09148 25.4795 4.04301C25.6021 4.27966 25.8459 4.44218 26.131 4.44076C26.2379 4.44076 26.3377 4.41652 26.4289 4.37518C26.8139 4.85276 27.1175 5.37453 27.3328 5.93764C26.6328 5.05804 25.6933 4.53627 24.7196 4.22834ZM21.7915 1.60808C23.2841 2.02721 24.5158 2.63452 25.4638 3.40862C25.4382 3.46564 25.4196 3.52694 25.4082 3.5911C24.9221 3.68519 24.4317 3.82632 23.9498 4.01022C23.8999 3.56686 23.5221 3.22329 23.066 3.22614C23.0232 3.22614 22.9804 3.23042 22.9405 3.23612C22.6041 2.54185 22.2106 1.97589 21.7915 1.60808ZM22.9348 4.98534C22.9804 4.99246 23.0275 4.99674 23.0745 4.99674C23.0888 4.99674 23.1044 4.99532 23.1187 4.99389C23.3026 5.63541 23.4437 6.34821 23.5221 7.11661C23.3525 7.2164 23.2128 7.36182 23.123 7.53859C22.4501 7.28911 21.7287 7.13942 20.9618 7.11804C20.9404 7.01539 20.9033 6.91988 20.8534 6.83149C21.3595 6.08875 22.0937 5.46434 22.9348 4.98534ZM20.2932 8.30414C20.621 8.19009 20.8734 7.91495 20.9546 7.5728C21.6845 7.59276 22.3717 7.7396 23.0118 7.98053C23.0118 7.99051 23.0104 8.00191 23.0104 8.01189C23.0118 8.41391 23.2442 8.75891 23.5806 8.92713C23.5407 10.0605 23.3468 11.3948 22.845 12.7962C21.3153 11.1482 20.286 9.53016 20.2932 8.30414ZM23.0032 13.633C23.3482 13.9809 23.7103 14.3259 24.0867 14.6666C24.0482 14.7564 24.0254 14.8562 24.0254 14.9603C24.0254 15.07 24.0525 15.1727 24.0967 15.2668C22.9947 16.2561 21.6888 17.0987 20.2447 17.7188C21.5505 16.3916 22.4259 14.9931 23.0032 13.633ZM25.0504 17.1201C24.6783 17.5663 24.4773 18.1836 24.4545 18.9149C24.1851 18.9434 23.9541 19.0988 23.8215 19.3212L20.1221 18.3404C20.1306 18.3119 20.1378 18.2834 20.1435 18.2548C21.7487 17.6048 23.1971 16.6853 24.4074 15.5947C24.5129 15.6531 24.6327 15.6888 24.7624 15.6888C24.9007 15.6873 25.0276 15.6474 25.1374 15.579C25.4923 15.8741 25.8516 16.1635 26.2151 16.4429C25.7589 16.5242 25.354 16.7565 25.0504 17.1201ZM28.8468 15.9553C28.5331 16.373 27.7377 16.4087 26.9179 16.4087C26.4133 16.0309 25.9157 15.636 25.4339 15.2326C25.4695 15.147 25.4881 15.0529 25.4881 14.9531C25.4881 14.8277 25.4524 14.7108 25.3954 14.6067C26.1139 13.8112 26.7126 12.9516 27.1688 12.0577C27.1931 12.0606 27.2173 12.0649 27.2415 12.0649C27.357 12.0649 27.4639 12.0349 27.5609 11.9865C28.1639 12.9202 28.6058 13.8455 28.8753 14.5896C29.062 15.2226 29.0521 15.6816 28.8468 15.9553ZM29.6836 11.7071C29.6137 11.7341 29.5624 11.794 29.5453 11.8667C29.5282 11.9394 29.5482 12.0164 29.5981 12.0706C29.8048 12.2987 29.8903 12.5866 29.8433 12.8889L29.2802 13.0799C29.2032 13.1056 29.1461 13.1711 29.1305 13.251C29.1148 13.3308 29.1433 13.4121 29.2046 13.4662C29.4085 13.643 29.5054 13.8169 29.4755 13.9538C29.4541 14.0536 29.3628 14.1477 29.2217 14.2218C28.9295 13.4691 28.4818 12.5667 27.8873 11.6614C27.9372 11.5616 27.9686 11.4504 27.9686 11.3307C27.9672 11.1112 27.8674 10.9173 27.7134 10.7833C28.0484 9.811 28.2124 8.81593 28.171 7.83511C28.1653 7.71251 28.1568 7.59276 28.1454 7.47301C28.1454 7.46446 28.1439 7.45733 28.1425 7.44878C28.0171 6.18427 27.5423 5.04949 26.7526 4.08293C26.7853 4.02733 26.811 3.96746 26.8281 3.9033C27.32 3.90045 27.7875 3.9532 28.2095 4.0701C28.2723 4.1927 28.3321 4.31815 28.3849 4.44931C29.1576 6.06737 29.0763 6.50218 28.7284 8.33408L28.7213 8.37114C28.7099 8.43387 28.7242 8.49945 28.7627 8.54934L30.5375 10.903C30.5889 11.2309 30.3565 11.4462 29.6836 11.7071Z" fill="white"/>
<path fill-rule="evenodd" clip-rule="evenodd" d="M19.6334 13.9375C20.1581 13.9347 20.58 13.507 20.5772 12.9838C20.5743 12.4592 20.1466 12.0372 19.6234 12.0401C19.0988 12.0429 18.6769 12.4706 18.6797 12.9938C18.6826 13.517 19.1102 13.9404 19.6334 13.9375Z" fill="white"/>
<path fill-rule="evenodd" clip-rule="evenodd" d="M17.3867 15.7233C17.3896 16.1881 17.7674 16.5616 18.2321 16.5601C18.6969 16.5573 19.0704 16.1795 19.0689 15.7148C19.0661 15.25 18.6883 14.8765 18.2236 14.8779C17.7588 14.8808 17.3839 15.2586 17.3867 15.7233Z" fill="white"/>
<path fill-rule="evenodd" clip-rule="evenodd" d="M16.7506 10.3731C16.1718 10.3759 15.7042 10.8478 15.707 11.428C15.7099 12.0068 16.1818 12.4744 16.762 12.4715C17.3408 12.4687 17.8084 11.9968 17.8055 11.4166C17.8013 10.8378 17.3294 10.3702 16.7506 10.3731Z" fill="white"/>
<path fill-rule="evenodd" clip-rule="evenodd" d="M14.3927 9.23433C14.3898 8.64271 13.908 8.16513 13.3164 8.16798C12.7247 8.17083 12.2472 8.65269 12.25 9.24431C12.2529 9.83594 12.7347 10.3135 13.3263 10.3107C13.918 10.3078 14.3955 9.82596 14.3927 9.23433Z" fill="white"/>
<path fill-rule="evenodd" clip-rule="evenodd" d="M16.3318 8.47201C16.8921 8.46915 17.344 8.01296 17.3411 7.4527C17.3383 6.89244 16.8821 6.44052 16.3218 6.44337C15.7616 6.44622 15.3097 6.90242 15.3125 7.46268C15.3154 8.02294 15.7716 8.47486 16.3318 8.47201Z" fill="white"/>
<path d="M12.9442 6.57404C13.7591 6.57404 14.4197 5.91344 14.4197 5.09855C14.4197 4.28365 13.7591 3.62305 12.9442 3.62305C12.1294 3.62305 11.4688 4.28365 11.4688 5.09855C11.4688 5.91344 12.1294 6.57404 12.9442 6.57404Z" fill="white"/>
<path d="M12.6927 19.147C14.0784 19.147 15.2017 18.0237 15.2017 16.638C15.2017 15.2523 14.0784 14.1289 12.6927 14.1289C11.3069 14.1289 10.1836 15.2523 10.1836 16.638C10.1836 18.0237 11.3069 19.147 12.6927 19.147Z" fill="white"/>
</svg>
