<svg width="25" height="23" viewBox="0 0 25 23" fill="none" xmlns="http://www.w3.org/2000/svg">
<path fill-rule="evenodd" clip-rule="evenodd" d="M12.8932 2.82244C13.3453 2.82021 13.7105 2.45164 13.7072 1.99955C13.705 1.54746 13.3364 1.18223 12.8843 1.18557C12.4322 1.1878 12.067 1.55637 12.0703 2.00846C12.0726 2.46055 12.4411 2.82466 12.8932 2.82244Z" fill="#303030"/>
<path fill-rule="evenodd" clip-rule="evenodd" d="M4.87859 8.56121C3.93767 9.57896 3.31187 10.8829 3.14373 12.3204C2.92882 14.1544 3.47778 15.9026 4.53896 17.2444C5.60014 18.5873 7.17354 19.5249 9.0075 19.7398C10.5063 19.9157 11.9717 19.5761 13.2032 18.8434C14.3546 18.1575 15.3011 17.1275 15.879 15.8503L14.103 15.3503C13.6776 16.1665 13.0395 16.8291 12.2768 17.2823C11.3815 17.8156 10.3137 18.0606 9.21796 17.9326C7.88285 17.7767 6.73704 17.093 5.96426 16.1164C5.19148 15.1387 4.79173 13.8671 4.94874 12.5309C5.07234 11.4764 5.52554 10.5254 6.20701 9.7883C6.8896 9.05004 7.80268 8.52223 8.84159 8.31846L8.49195 6.53906C7.06999 6.82078 5.81728 7.54568 4.87859 8.56121Z" fill="#303030"/>
<path fill-rule="evenodd" clip-rule="evenodd" d="M13.9622 19.9341C12.4835 20.8138 10.7219 21.2202 8.91798 21.0086C6.71433 20.7503 4.8247 19.6234 3.55083 18.011C2.27586 16.3987 1.61666 14.2997 1.87499 12.096C2.07877 10.359 2.82816 8.79001 3.95281 7.57405C5.07969 6.35475 6.58405 5.48398 8.29775 5.14659L7.94811 3.36719C5.85136 3.7803 4.00626 4.84816 2.62328 6.34362C1.23695 7.84129 0.316071 9.76433 0.0677566 11.8834C-0.248482 14.5847 0.559931 17.1592 2.12331 19.1379C3.68668 21.1166 6.00502 22.4974 8.70641 22.8147C10.9145 23.0731 13.0736 22.5742 14.8887 21.4941C16.6925 20.4207 18.1535 18.7738 18.983 16.7249L17.2215 16.2283C16.5344 17.8151 15.3775 19.0911 13.9622 19.9341Z" fill="#303030"/>
<path fill-rule="evenodd" clip-rule="evenodd" d="M24.2019 8.40259C24.1964 8.37809 24.1852 8.35471 24.1707 8.33355L22.8067 6.5252C23.0739 5.11661 23.1474 4.67454 22.5038 3.32941C21.9615 2.01658 20.5774 0.507767 17.0743 0.620232C16.9908 0.263907 16.6701 -0.00111002 16.2882 3.4959e-06C15.845 0.00223053 15.4864 0.364123 15.4887 0.807302C15.4909 1.25048 15.8528 1.60903 16.296 1.60681C16.4585 1.60569 16.6089 1.5567 16.7347 1.47318C17.0242 1.70814 17.3293 2.12014 17.5988 2.67021C17.4974 2.75039 17.4195 2.85951 17.375 2.98422C16.8694 2.96084 16.424 2.97643 16.1055 2.98868C16.0855 2.98979 16.0655 2.98979 16.0454 2.99091C15.9708 2.76041 15.757 2.59227 15.5009 2.59338C15.1858 2.59449 14.9319 2.85172 14.933 3.16684C14.9341 3.48197 15.1914 3.73585 15.5065 3.73473C15.757 3.73362 15.9664 3.56993 16.0421 3.345C16.0666 3.34389 16.09 3.34389 16.1178 3.34278C16.4251 3.33164 16.8561 3.31605 17.346 3.33832C17.3727 3.48308 17.444 3.61225 17.5464 3.71135C16.9307 4.0944 16.4196 4.55874 16.051 5.06984C15.9196 4.97853 15.7604 4.92397 15.5878 4.92508C15.1446 4.92731 14.786 5.2892 14.7883 5.73238C14.7905 6.14438 15.1012 6.48066 15.5009 6.52632C15.5143 7.64429 16.4173 9.02059 17.7046 10.3735C17.2636 11.4559 16.5755 12.5772 15.5243 13.6361C15.4085 13.5348 15.2571 13.4735 15.0911 13.4747C14.7281 13.4769 14.4364 13.772 14.4375 14.135C14.4397 14.498 14.7348 14.7897 15.0978 14.7886C15.2559 14.7875 15.4007 14.7307 15.5132 14.6383L18.5185 15.4344C18.5219 15.7963 18.817 16.087 19.1789 16.0858C19.5419 16.0836 19.8336 15.7885 19.8325 15.4255C19.8314 15.1661 19.6788 14.9423 19.4595 14.8376C19.4673 14.3254 19.5975 13.8989 19.8458 13.6016C20.0763 13.3243 20.4048 13.1729 20.7712 13.1729C20.7734 13.1729 20.7756 13.1729 20.7779 13.1729H20.8224C21.6197 13.1785 22.4448 13.1818 22.8234 12.6774C23.0383 12.3923 23.0784 11.9903 22.9448 11.4514C23.1808 11.3423 23.3356 11.1752 23.3779 10.9759C23.4046 10.8501 23.3957 10.6719 23.251 10.4682L23.5282 10.3735C23.585 10.3546 23.6285 10.3078 23.6429 10.2499C23.7209 9.94815 23.6808 9.64639 23.5338 9.39028C23.8812 9.23327 24.3233 8.95267 24.2019 8.40259ZM21.79 2.75818C21.5228 2.71141 21.24 2.69026 20.9471 2.69248C20.8636 2.47869 20.6565 2.32614 20.4137 2.32725C20.308 2.32836 20.2111 2.35843 20.1265 2.40965C19.3849 1.79722 18.4406 1.3095 17.3137 0.969876C19.4261 0.945378 20.9505 1.55558 21.79 2.75818ZM20.907 9.27893C20.5674 9.94036 20.1231 10.5784 19.5897 11.1686C19.5151 11.1329 19.4316 11.1118 19.3425 11.1118C19.2401 11.1118 19.1454 11.1418 19.063 11.1897C18.7334 10.8902 18.4194 10.5862 18.1244 10.2822C18.5664 9.11747 18.7379 8.00284 18.778 7.05635C18.7813 7.05635 18.7847 7.05635 18.788 7.05635C18.9595 7.05524 19.1176 7.00068 19.2479 6.90825C19.8681 7.34141 20.4126 7.87813 20.877 8.45047C20.7745 8.55403 20.7111 8.69767 20.7122 8.85468C20.7133 9.02505 20.7901 9.17426 20.907 9.27893ZM19.4851 6.64546C19.5508 6.52854 19.5886 6.39381 19.5875 6.25017C19.5853 5.80699 19.2234 5.44843 18.7802 5.45066C18.7624 5.45066 18.7446 5.45289 18.7268 5.454C18.6633 4.8772 18.5519 4.31488 18.4016 3.79375C18.4985 3.73139 18.5787 3.64677 18.6343 3.54544C18.6611 3.5343 18.6889 3.52428 18.7167 3.51314C19.916 3.7815 21.1264 4.41955 21.6419 5.88827C21.6497 5.96956 21.6553 6.05196 21.6587 6.13547C21.6887 6.85146 21.5718 7.57748 21.3313 8.2879C21.3146 8.28679 21.2979 8.28345 21.2812 8.28345C21.2533 8.28345 21.2266 8.2879 21.1999 8.29235C20.7133 7.68326 20.1409 7.1098 19.4851 6.64546ZM19.3169 3.30269C19.514 3.24479 19.7122 3.19579 19.9104 3.15793C20.0062 3.34278 20.1966 3.46972 20.4193 3.4686C20.5028 3.4686 20.5808 3.44967 20.652 3.41738C20.9527 3.79041 21.1899 4.19796 21.358 4.6378C20.8113 3.95076 20.0775 3.54321 19.3169 3.30269ZM17.0298 1.25605C18.1956 1.58342 19.1577 2.05778 19.8982 2.66242C19.8781 2.70696 19.8637 2.75484 19.8548 2.80495C19.475 2.87844 19.092 2.98868 18.7156 3.13232C18.6767 2.78602 18.3816 2.51766 18.0253 2.51989C17.9918 2.51989 17.9584 2.52323 17.9273 2.52768C17.6645 1.9854 17.3571 1.54334 17.0298 1.25605ZM17.9228 3.89397C17.9584 3.89953 17.9952 3.90288 18.0319 3.90288C18.0431 3.90288 18.0553 3.90176 18.0665 3.90065C18.2101 4.40173 18.3203 4.95849 18.3816 5.55867C18.2491 5.63662 18.1399 5.7502 18.0698 5.88827C17.5442 5.69341 16.9808 5.57649 16.3817 5.55979C16.365 5.47961 16.336 5.40501 16.2971 5.33597C16.6924 4.75583 17.2658 4.26811 17.9228 3.89397ZM15.8595 6.48623C16.1156 6.39715 16.3127 6.18224 16.3761 5.915C16.9463 5.93059 17.483 6.04528 17.9829 6.23346C17.9829 6.24126 17.9818 6.25017 17.9818 6.25796C17.9829 6.57197 18.1644 6.84144 18.4272 6.97284C18.3961 7.85808 18.2446 8.90033 17.8527 9.99492C16.6579 8.7077 15.8539 7.44385 15.8595 6.48623ZM17.9763 10.6486C18.2457 10.9202 18.5286 11.1897 18.8225 11.4559C18.7925 11.526 18.7746 11.6039 18.7746 11.6852C18.7746 11.771 18.7958 11.8511 18.8303 11.9246C17.9696 12.6974 16.9496 13.3555 15.8216 13.8399C16.8416 12.8032 17.5253 11.7108 17.9763 10.6486ZM19.5753 13.3722C19.2846 13.7207 19.1276 14.2029 19.1098 14.7741C18.8994 14.7964 18.719 14.9178 18.6154 15.0915L15.7258 14.3254C15.7325 14.3031 15.7381 14.2808 15.7425 14.2586C16.9964 13.7508 18.1277 13.0326 19.0731 12.1807C19.1555 12.2264 19.249 12.2542 19.3503 12.2542C19.4583 12.2531 19.5574 12.2219 19.6432 12.1685C19.9205 12.399 20.2011 12.625 20.485 12.8433C20.1287 12.9068 19.8124 13.0883 19.5753 13.3722ZM22.5406 12.4625C22.2956 12.7887 21.6742 12.8166 21.034 12.8166C20.6398 12.5215 20.2512 12.213 19.8748 11.8979C19.9026 11.8311 19.9171 11.7576 19.9171 11.6797C19.9171 11.5817 19.8893 11.4904 19.8447 11.4091C20.4059 10.7877 20.8736 10.1163 21.2299 9.41812C21.2489 9.42035 21.2678 9.42369 21.2867 9.42369C21.3769 9.42369 21.4604 9.4003 21.5362 9.36244C22.0072 10.0918 22.3524 10.8145 22.5628 11.3957C22.7087 11.8901 22.7009 12.2487 22.5406 12.4625ZM23.1942 9.14419C23.1396 9.16535 23.0995 9.21212 23.0862 9.26891C23.0728 9.3257 23.0884 9.38583 23.1274 9.42814C23.2888 9.6063 23.3556 9.83123 23.3189 10.0673L22.8791 10.2165C22.8189 10.2366 22.7744 10.2878 22.7621 10.3501C22.7499 10.4125 22.7722 10.476 22.8201 10.5183C22.9793 10.6563 23.055 10.7922 23.0316 10.8991C23.0149 10.977 22.9436 11.0505 22.8334 11.1084C22.6051 10.5205 22.2555 9.81564 21.7912 9.10856C21.8301 9.03061 21.8546 8.94376 21.8546 8.85023C21.8535 8.67874 21.7756 8.52731 21.6553 8.42264C21.917 7.66322 22.045 6.88598 22.0128 6.11988C22.0083 6.02412 22.0016 5.93059 21.9927 5.83705C21.9927 5.83037 21.9916 5.8248 21.9905 5.81812C21.8925 4.83043 21.5217 3.94408 20.9048 3.18911C20.9304 3.14568 20.9505 3.09892 20.9638 3.04881C21.348 3.04658 21.7132 3.08778 22.0428 3.17909C22.0918 3.27485 22.1386 3.37284 22.1798 3.47529C22.7833 4.73913 22.7198 5.07875 22.4481 6.50961L22.4426 6.53857C22.4337 6.58756 22.4448 6.63878 22.4749 6.67776L23.8612 8.51617C23.9013 8.77228 23.7198 8.94042 23.1942 9.14419Z" fill="#303030"/>
<path fill-rule="evenodd" clip-rule="evenodd" d="M15.3348 10.8864C15.7446 10.8842 16.0742 10.5501 16.0719 10.1415C16.0697 9.73168 15.7357 9.40208 15.327 9.40431C14.9172 9.40654 14.5876 9.74059 14.5899 10.1493C14.5921 10.5579 14.9261 10.8886 15.3348 10.8864Z" fill="#303030"/>
<path fill-rule="evenodd" clip-rule="evenodd" d="M13.582 12.2795C13.5843 12.6425 13.8794 12.9342 14.2424 12.9331C14.6054 12.9309 14.8971 12.6358 14.896 12.2728C14.8938 11.9098 14.5987 11.618 14.2357 11.6191C13.8727 11.6214 13.5798 11.9165 13.582 12.2795Z" fill="#303030"/>
<path fill-rule="evenodd" clip-rule="evenodd" d="M13.0846 8.10157C12.6325 8.1038 12.2673 8.47237 12.2695 8.92557C12.2718 9.37766 12.6403 9.74289 13.0935 9.74067C13.5456 9.73844 13.9109 9.36987 13.9086 8.91667C13.9053 8.46458 13.5367 8.09935 13.0846 8.10157Z" fill="#303030"/>
<path fill-rule="evenodd" clip-rule="evenodd" d="M11.24 7.21183C11.2378 6.74972 10.8614 6.37669 10.3993 6.37892C9.93722 6.38114 9.56419 6.75751 9.56642 7.21962C9.56864 7.68173 9.94501 8.05476 10.4071 8.05253C10.8692 8.0503 11.2423 7.67393 11.24 7.21183Z" fill="#303030"/>
<path fill-rule="evenodd" clip-rule="evenodd" d="M12.7493 6.61579C13.1869 6.61357 13.5399 6.25724 13.5377 5.81963C13.5354 5.38202 13.1791 5.02903 12.7415 5.03126C12.3039 5.03349 11.9509 5.38981 11.9531 5.82742C11.9554 6.26504 12.3117 6.61802 12.7493 6.61579Z" fill="#303030"/>
<path d="M10.1134 5.13506C10.7499 5.13506 11.2659 4.61907 11.2659 3.98257C11.2659 3.34606 10.7499 2.83008 10.1134 2.83008C9.47692 2.83008 8.96094 3.34606 8.96094 3.98257C8.96094 4.61907 9.47692 5.13506 10.1134 5.13506Z" fill="#303030"/>
<path d="M9.90901 14.9567C10.9914 14.9567 11.8688 14.0793 11.8688 12.9969C11.8688 11.9145 10.9914 11.0371 9.90901 11.0371C8.82665 11.0371 7.94922 11.9145 7.94922 12.9969C7.94922 14.0793 8.82665 14.9567 9.90901 14.9567Z" fill="#303030"/>
</svg>
