<svg width="16" height="16" viewBox="0 0 16 16" fill="none" xmlns="http://www.w3.org/2000/svg">
<path d="M12.1057 5.45791L11.4185 6.14509C11.7409 6.73814 11.9245 7.41356 11.9245 8.13365C11.9245 10.4258 10.0583 12.2921 7.76611 12.2921C5.47393 12.2921 3.60771 10.4258 3.60771 8.13365C3.60771 5.84147 5.47393 3.97525 7.76611 3.97525C8.48624 3.97525 9.16166 4.15881 9.75467 4.48123L10.4419 3.79404C9.66289 3.3116 8.74743 3.03391 7.76608 3.03391C4.9538 3.03391 2.66633 5.32138 2.66633 8.13365C2.66633 10.9459 4.95384 13.2334 7.76611 13.2334C10.5784 13.2334 12.8659 10.946 12.8659 8.13372C12.8659 7.15237 12.5881 6.23691 12.1057 5.45791ZM10.1971 7.36888L9.37111 8.19259C9.34051 9.05389 8.63454 9.74104 7.76614 9.74104C6.87893 9.74104 6.1588 9.02094 6.1588 8.13372C6.1588 7.26533 6.84598 6.55932 7.70731 6.52876L8.53334 5.70508C8.29095 5.62742 8.03443 5.58506 7.76618 5.58506C6.36122 5.58506 5.21748 6.7288 5.21748 8.13376C5.21748 9.53872 6.36122 10.6825 7.76618 10.6825C9.17114 10.6825 10.3149 9.53872 10.3149 8.13376C10.3148 7.86776 10.2748 7.60892 10.1971 7.36888ZM14.4237 4.14006L13.7366 4.82724C14.2802 5.80624 14.5909 6.9335 14.5909 8.13372C14.5909 11.8968 11.5291 14.9585 7.76611 14.9585C4.00308 14.9585 0.941347 11.8968 0.941347 8.13369C0.941347 4.37065 4.00308 1.30892 7.76611 1.30892C8.96633 1.30892 10.0936 1.61957 11.0726 2.16319L11.7598 1.47601C10.5925 0.772389 9.2252 0.36761 7.76611 0.36761C3.48298 0.36761 0 3.85059 0 8.13369C0 12.4168 3.48298 15.8998 7.76611 15.8998C12.0492 15.8998 15.5322 12.4168 15.5322 8.13369C15.5322 6.67463 15.1274 5.30733 14.4237 4.14006ZM13.4038 4.16006L12.5053 4.06028L8.07866 8.48676C7.89485 8.67057 7.59691 8.67057 7.41311 8.48676C7.2293 8.30292 7.2293 8.00501 7.41311 7.82121L11.8395 3.39473L11.7398 2.49623L14.236 0L14.5688 1.33131L15.9 1.66407L13.4038 4.16006Z" fill="white"/>
</svg>
