<svg width="28" height="18" viewBox="0 0 28 18" fill="none" xmlns="http://www.w3.org/2000/svg">
<path d="M16.2646 5.53471C15.7681 5.35153 14.6781 5.20083 14.0704 5.72357C12.7952 5.01883 11.7809 5.12183 10.9401 6.02078C9.5841 7.47988 10.2103 8.95478 10.7949 9.59826C11.1493 9.98654 11.2505 10.2036 11.3063 10.455C11.3163 10.4985 11.3444 10.6475 11.348 10.7001C11.4501 13.1189 12.3064 13.4275 12.6136 13.4583C12.6818 13.4765 12.7493 13.4847 12.8156 13.4847C12.9513 13.4847 13.0815 13.4485 13.1996 13.375C13.6797 13.0827 13.8091 12.2739 13.9243 11.5615C13.9338 11.5062 13.942 11.4526 13.9511 11.4C14.0157 12.1787 14.1504 13.3559 15.0775 13.4585C15.1756 13.4767 15.3625 13.4849 15.5769 13.3552C16.0179 13.0882 16.3211 12.4039 16.508 11.2568L16.5335 11.087C16.5916 10.6893 16.6696 10.1411 16.9781 9.81901C17.5009 9.27078 17.923 8.07133 17.6952 7.08966C17.5244 6.35333 17.027 5.81598 16.2646 5.53471ZM16.4278 9.29687C15.955 9.79411 15.8525 10.5066 15.7834 10.9787L15.7608 11.1347C15.5494 12.4281 15.2409 12.6704 15.1801 12.7086C15.1756 12.7068 15.1719 12.7068 15.1664 12.7068C14.8101 12.6759 14.7322 11.7011 14.6958 11.2328C14.6807 11.073 14.6709 10.9314 14.6541 10.8224C14.6287 10.6418 14.4273 10.1308 14.0128 10.0945C13.6798 10.0755 13.4641 10.2933 13.3158 10.7598C13.2599 10.9323 13.2219 11.1672 13.1769 11.4397C13.1252 11.7673 12.9849 12.6305 12.7925 12.723C12.7561 12.7102 12.7503 12.7068 12.7199 12.7068C12.7163 12.7068 12.7122 12.7068 12.7077 12.7068C12.7031 12.7049 12.1817 12.529 12.1027 10.6682C12.0998 10.5974 12.0583 10.3559 12.0423 10.2869C11.9484 9.86581 11.7551 9.53088 11.3534 9.08893C11.2389 8.96358 10.2827 7.83553 11.4932 6.53756C11.8257 6.18132 12.4911 5.46391 14.3205 6.78082L13.5907 7.14794C13.47 7.20831 13.391 7.32725 13.3825 7.46379C13.3743 7.59957 13.4402 7.72702 13.5516 7.80318L14.3027 8.29477L13.6733 8.98012C13.5332 9.13335 13.5421 9.37303 13.6964 9.5118C13.8498 9.65341 14.089 9.64536 14.23 9.49094L15.1589 8.48079C15.2352 8.39911 15.2697 8.28836 15.2561 8.17761C15.2424 8.0691 15.1816 7.96834 15.0881 7.90901L14.5144 7.5319L15.1951 7.19057C15.3095 7.13288 15.3893 7.01945 15.402 6.89425C15.4166 6.76755 15.3658 6.64234 15.2659 6.56156C15.0999 6.42577 14.9374 6.30026 14.7808 6.18579C15.1489 6.06774 15.7125 6.14033 16.0002 6.24615C16.5222 6.43948 16.8434 6.78067 16.955 7.26405C17.1358 8.02692 16.7563 8.95106 16.4278 9.29687ZM5.24644 15.6292H22.6361C22.8466 15.6292 23.0155 15.4594 23.0155 15.2534V4.157C23.0155 3.94832 22.8457 3.77899 22.6361 3.77899H5.24644C5.03732 3.77899 4.86799 3.95011 4.86799 4.157V15.2527C4.86799 15.4595 5.03732 15.6292 5.24644 15.6292ZM5.62445 4.53545H22.2593V14.8732H5.62445V4.53545ZM27.5045 1.41737H0.378004C0.169327 1.41737 0 1.58759 0 1.79343C0 2.0036 0.169327 2.17203 0.378004 2.17203H2.59937V16.3627C2.59937 17.2086 3.28726 17.8966 4.13181 17.8966H23.7522C24.5954 17.8966 25.2833 17.2086 25.2833 16.3627V2.17203H27.5042C27.7147 2.17203 27.8827 2.0027 27.8827 1.79343C27.883 1.58744 27.7132 1.41737 27.5045 1.41737ZM24.5294 16.3645C24.5294 16.7928 24.1808 17.1413 23.7524 17.1413H4.13285C3.70447 17.1413 3.35672 16.7928 3.35672 16.3645V2.17203H24.5293L24.5294 16.3645ZM0.000894331 0.37711C0.000894331 0.167985 0.170221 0 0.379494 0H27.5063C27.715 0 27.8839 0.171116 27.8839 0.37711C27.8839 0.587278 27.7132 0.754666 27.5063 0.754666H0.379345C0.170221 0.756604 0.000894331 0.586383 0.000894331 0.37711Z" fill="white"/>
</svg>
