<?xml version="1.0" encoding="UTF-8"?>
<svg id="katman_1" data-name="katman 1" xmlns="http://www.w3.org/2000/svg" viewBox="0 0 130.61 710.55">
  <defs>
    <style>
      .cls-1 {
        fill: #e7fa0b;
        opacity: .5;
      }

      .cls-2 {
        fill: none;
        stroke: #e7fa0b;
        stroke-miterlimit: 10;
        stroke-width: 2px;
      }
    </style>
  </defs>
  <g>
    <path class="cls-1" d="m66.29,490.48l23.8-14.21v-112.61h18.64v-78.89l-1.55-210.28h10.84v54.69h7.24s.23,20.27,0,34.14,4.35,12.79,4.35,12.79v169.84c-1.07,8.78-6.85,9.42-7.93,12.71s2.28,5.85,1.29,9.71-10.57,7.78-9.21,11.64c.65,1.85,1.74,2.86,2.7,3.41,1.66.95,2.14,3.29.8,4.65-1.65,1.67-4.79.54-7.57,3.93-3.93,4.78,1.79,8.43,6.47,12.14s-14.75,13.49-5.9,16.07,4.5,5.64,4.5,5.64c-8.78,4.78-8.35,7.67-8,10.14s7.12,2.53,9.06,6.26-4.81,1.84-7.97,6.54,1.21,7.35,5.57,9.81,2.58,2.58-3.73,6.94-3.08,7.94-1.26,9.64,12.28,4.59,3.67,7.98c-4.72,1.86-6.03,4.3-6.24,6.13-.16,1.35.55,2.66,1.7,3.37,1.79,1.1,3.09,2.11,4.05,3,1.92,1.8,1.56,4.92-.62,6.39-6.72,4.51-5.15,7.37-3.83,9.35,1.47,2.2,14.41,3.21,5.51,8.49s-8.67,8.44-1.15,13.32-3.79,4.82-6.49,10.56c-1.45,3.08,1.49,6.07,4.53,8.17,2.08,1.44,2.18,4.52.21,6.11-.7.56-1.3,1.11-1.82,1.62-2.01,1.98-2.65,5.05-1.37,7.57.08.16.17.31.25.46,1.02,1.72.93,3.87-.08,5.59-15.28,25.74-13.06,66.78-13.06,66.78l-13.5,8.14c-2.07,1.38-4.51,2.12-7,2.12h-13.35c-3.67,0-7.26-1.12-10.28-3.22l-11.39-5.83s-.68-38.86-11.8-64.61v-5.86s-8.99-4.38-7.53-7.72,7.82-1.04,8.24-6.26-12.52-7.93-8.4-12.2,7.77-2.5,6.83-9.91-14.49-3.86-9.07-8.97,11.26-4.28,9.49-10.22-16.48-2.92-1.46-13.03c0,0,4.69-4.48-3.65-8.97s.42-7.09,3.13-10.11.73-6.88-4.28-8.76-6.57-3.44,2.82-9.7c9.38-6.26-11.47-9.07-6.67-14.08s9.91-4.8,9.59-9.59-14.07-2.5-10.32-8.03c3.75-5.53,10.42-3.96,9.9-10.53s-17.94-1.46-5.42-12.2c12.51-10.74-7.23-9.07-5.13-14.81s9.4-3.34,8.15-11.78c0,0-11.37-3.86-11.16-8.34s6.78-6.36,1.46-10.43-9.18-4.8-7.93-11.47-.24-7.2-.24-7.2l-3.73-2.29v-167.49s4.58-3.31,4.58-13.36v-88.88h17.88v289.66h16.15v112.37l26.68,13.98Z"/>
    <path class="cls-2" d="m66.29,490.48l23.8-14.21v-112.61h18.64v-78.89l-1.55-210.28h10.84v54.69h7.24s.23,20.27,0,34.14,4.35,12.79,4.35,12.79v169.84c-1.07,8.78-6.85,9.42-7.93,12.71s2.28,5.85,1.29,9.71-10.57,7.78-9.21,11.64c.65,1.85,1.74,2.86,2.7,3.41,1.66.95,2.14,3.29.8,4.65-1.65,1.67-4.79.54-7.57,3.93-3.93,4.78,1.79,8.43,6.47,12.14s-14.75,13.49-5.9,16.07,4.5,5.64,4.5,5.64c-8.78,4.78-8.35,7.67-8,10.14s7.12,2.53,9.06,6.26-4.81,1.84-7.97,6.54,1.21,7.35,5.57,9.81,2.58,2.58-3.73,6.94-3.08,7.94-1.26,9.64,12.28,4.59,3.67,7.98c-4.72,1.86-6.03,4.3-6.24,6.13-.16,1.35.55,2.66,1.7,3.37,1.79,1.1,3.09,2.11,4.05,3,1.92,1.8,1.56,4.92-.62,6.39-6.72,4.51-5.15,7.37-3.83,9.35,1.47,2.2,14.41,3.21,5.51,8.49s-8.67,8.44-1.15,13.32-3.79,4.82-6.49,10.56c-1.45,3.08,1.49,6.07,4.53,8.17,2.08,1.44,2.18,4.52.21,6.11-.7.56-1.3,1.11-1.82,1.62-2.01,1.98-2.65,5.05-1.37,7.57.08.16.17.31.25.46,1.02,1.72.93,3.87-.08,5.59-15.28,25.74-13.06,66.78-13.06,66.78l-13.5,8.14c-2.07,1.38-4.51,2.12-7,2.12h-13.35c-3.67,0-7.26-1.12-10.28-3.22l-11.39-5.83s-.68-38.86-11.8-64.61v-5.86s-8.99-4.38-7.53-7.72,7.82-1.04,8.24-6.26-12.52-7.93-8.4-12.2,7.77-2.5,6.83-9.91-14.49-3.86-9.07-8.97,11.26-4.28,9.49-10.22-16.48-2.92-1.46-13.03c0,0,4.69-4.48-3.65-8.97s.42-7.09,3.13-10.11.73-6.88-4.28-8.76-6.57-3.44,2.82-9.7c9.38-6.26-11.47-9.07-6.67-14.08s9.91-4.8,9.59-9.59-14.07-2.5-10.32-8.03c3.75-5.53,10.42-3.96,9.9-10.53s-17.94-1.46-5.42-12.2c12.51-10.74-7.23-9.07-5.13-14.81s9.4-3.34,8.15-11.78c0,0-11.37-3.86-11.16-8.34s6.78-6.36,1.46-10.43-9.18-4.8-7.93-11.47-.24-7.2-.24-7.2l-3.73-2.29v-167.49s4.58-3.31,4.58-13.36v-88.88h17.88v289.66h16.15v112.37l26.68,13.98Z"/>
  </g>
  <line class="cls-2" x1="65.31" x2="65.31" y2="710.55"/>
</svg>