<svg width="21" height="22" viewBox="0 0 21 22" fill="none" xmlns="http://www.w3.org/2000/svg">
<path fill-rule="evenodd" clip-rule="evenodd" d="M15.8902 14.0566H14.668V16.5011C14.668 16.6636 14.7327 16.8189 14.8464 16.9337L16.2605 18.3466L17.1246 17.4825L15.8902 16.2481V14.0566Z" fill="white"/>
<path fill-rule="evenodd" clip-rule="evenodd" d="M15.2813 20.7778C12.9224 20.7778 11.0035 18.8589 11.0035 16.5C11.0035 14.1411 12.9224 12.2222 15.2813 12.2222C17.6401 12.2222 19.559 14.1411 19.559 16.5C19.559 18.8589 17.6401 20.7778 15.2813 20.7778ZM15.2813 11C12.2489 11 9.78125 13.4677 9.78125 16.5C9.78125 19.5323 12.2489 22 15.2813 22C18.3136 22 20.7813 19.5323 20.7813 16.5C20.7813 13.4677 18.3136 11 15.2813 11Z" fill="white"/>
<path fill-rule="evenodd" clip-rule="evenodd" d="M17.1111 4.88889H1.22221V3.05556C1.22221 2.71823 1.49721 2.44444 1.83333 2.44444H3.66667V3.05556C3.66667 3.39289 3.94045 3.66667 4.27777 3.66667C4.61511 3.66667 4.88888 3.39289 4.88888 3.05556V2.44444H13.4444V3.05556C13.4444 3.39289 13.7182 3.66667 14.0556 3.66667C14.3929 3.66667 14.6667 3.39289 14.6667 3.05556V2.44444H16.5C16.8361 2.44444 17.1111 2.71823 17.1111 3.05556V4.88889ZM16.5 1.22223H14.6667V0.611107C14.6667 0.273774 14.3929 0 14.0556 0C13.7182 0 13.4444 0.273774 13.4444 0.611107V1.22223H4.88888V0.611107C4.88888 0.273774 4.61511 0 4.27777 0C3.94045 0 3.66667 0.273774 3.66667 0.611107V1.22223H1.83333C0.822559 1.22223 0 2.04477 0 3.05556V20.7778H8.55555V19.5556H1.22221V6.11111H17.1111V9.77777H18.3333V3.05556C18.3333 2.04477 17.5108 1.22223 16.5 1.22223Z" fill="white"/>
</svg>
