<svg width="35" height="35" viewBox="0 0 35 35" fill="none" xmlns="http://www.w3.org/2000/svg">
<rect width="35" height="35" rx="6.3938" fill="#1876FF"/>
<path d="M14.7765 11.0794C14.8458 11.0786 14.9143 11.0642 14.978 11.037C15.0422 11.0101 15.1014 10.9724 15.153 10.9256C15.1998 10.874 15.2375 10.8148 15.2644 10.7506C15.2916 10.6869 15.306 10.6184 15.3068 10.5491C15.3049 10.4086 15.25 10.2741 15.153 10.1725C15.1037 10.1228 15.0451 10.0833 14.9804 10.0564C14.9158 10.0295 14.8465 10.0156 14.7765 10.0156C14.7065 10.0156 14.6371 10.0295 14.5725 10.0564C14.5079 10.0833 14.4492 10.1228 14.3999 10.1725C14.3508 10.2221 14.3119 10.2808 14.2855 10.3455C14.2591 10.4101 14.2457 10.4793 14.2461 10.5491C14.2461 10.6897 14.302 10.8246 14.4014 10.9241C14.5009 11.0236 14.6358 11.0794 14.7765 11.0794ZM16.898 11.0794H19.0195C19.1601 11.0794 19.295 11.0236 19.3945 10.9241C19.494 10.8246 19.5498 10.6897 19.5498 10.5491C19.5498 10.4084 19.494 10.2735 19.3945 10.174C19.295 10.0746 19.1601 10.0187 19.0195 10.0187H16.898C16.7573 10.0187 16.6224 10.0746 16.5229 10.174C16.4235 10.2735 16.3676 10.4084 16.3676 10.5491C16.3676 10.6897 16.4235 10.8246 16.5229 10.9241C16.6224 11.0236 16.7573 11.0794 16.898 11.0794Z" fill="white"/>
<path d="M24.8496 9.47657H24.3192C24.2494 9.47617 24.1802 9.48955 24.1156 9.51594C24.051 9.54233 23.9922 9.58122 23.9427 9.63038L22.7281 10.8555V10.5373C22.7281 10.3967 22.6722 10.2618 22.5728 10.1623C22.4733 10.0628 22.3384 10.0069 22.1977 10.0069H21.137C20.9963 10.0069 20.8614 10.0628 20.7619 10.1623C20.6625 10.2618 20.6066 10.3967 20.6066 10.5373C20.6066 10.678 20.6625 10.8129 20.7619 10.9123C20.8614 11.0118 20.9963 11.0677 21.137 11.0677H21.6674C21.5348 15.5706 19.7209 19.0233 17.4244 19.0233C15.043 19.0233 13.1814 15.3107 13.1814 10.5373C13.1814 10.3967 13.1255 10.2618 13.026 10.1623C12.9266 10.0628 12.7917 10.0069 12.651 10.0069C12.5103 10.0069 12.3754 10.0628 12.276 10.1623C12.1765 10.2618 12.1206 10.3967 12.1206 10.5373V10.8555L10.9061 9.63038C10.8565 9.58122 10.7977 9.54233 10.7331 9.51594C10.6685 9.48955 10.5993 9.47617 10.5295 9.47657H9.99913C9.85847 9.47657 9.72357 9.53245 9.6241 9.63191C9.52464 9.73138 9.46876 9.86628 9.46876 10.0069V14.2499C9.46836 14.3197 9.48173 14.3889 9.50813 14.4535C9.53452 14.5182 9.57341 14.5769 9.62257 14.6265L11.2137 16.2176C11.2632 16.2668 11.322 16.3057 11.3866 16.3321C11.4513 16.3585 11.5205 16.3718 11.5903 16.3714H13.1814C13.9504 18.2118 15.0854 19.4953 16.4326 19.9249L14.5232 22.2055H12.651C12.5103 22.2055 12.3754 22.2614 12.276 22.3609C12.1765 22.4603 12.1206 22.5952 12.1206 22.7359V24.8574C12.1206 24.9981 12.1765 25.133 12.276 25.2324C12.3754 25.3319 12.5103 25.3878 12.651 25.3878H22.1977C22.3384 25.3878 22.4733 25.3319 22.5728 25.2324C22.6722 25.133 22.7281 24.9981 22.7281 24.8574V22.7359C22.7281 22.5952 22.6722 22.4603 22.5728 22.3609C22.4733 22.2614 22.3384 22.2055 22.1977 22.2055H20.3255L18.4215 19.9249C19.7686 19.5006 20.9036 18.2171 21.6727 16.3714H23.2638C23.3336 16.3718 23.4028 16.3585 23.4674 16.3321C23.532 16.3057 23.5908 16.2668 23.6403 16.2176L25.2315 14.6265C25.3288 14.5255 25.3822 14.3902 25.38 14.2499V10.0069C25.38 9.86628 25.3241 9.73138 25.2246 9.63191C25.1252 9.53245 24.9903 9.47657 24.8496 9.47657ZM11.8077 15.3107L10.5295 14.0325V10.7548L12.2214 12.4467C12.3175 13.4174 12.5075 14.3766 12.7889 15.3107H11.8077ZM20.0762 23.2663H21.6674V24.327H13.1814V23.2663H14.7725C14.8504 23.2664 14.9274 23.2494 14.998 23.2164C15.0686 23.1834 15.131 23.1352 15.1809 23.0753L17.4244 20.3811L19.6678 23.0753C19.7177 23.1352 19.7802 23.1834 19.8507 23.2164C19.9213 23.2494 19.9983 23.2664 20.0762 23.2663ZM24.3192 14.0325L23.041 15.3107H22.0598C22.343 14.3768 22.5348 13.4176 22.6326 12.4467L24.3192 10.7548V14.0325Z" fill="white"/>
</svg>
