<svg width="13" height="13" viewBox="0 0 13 13" fill="none" xmlns="http://www.w3.org/2000/svg">
<path d="M12.2782 6.13908C12.2782 7.76727 11.6314 9.32877 10.4801 10.4801C9.32877 11.6314 7.76727 12.2782 6.13908 12.2782C4.5109 12.2782 2.9494 11.6314 1.7981 10.4801C0.646794 9.32877 0 7.76727 0 6.13908C0 6.0034 0.0538996 5.87328 0.149841 5.77734C0.245783 5.68139 0.375908 5.62749 0.51159 5.62749C0.647273 5.62749 0.777398 5.68139 0.873339 5.77734C0.969281 5.87328 1.02318 6.0034 1.02318 6.13908C1.02318 7.15091 1.32322 8.14002 1.88537 8.98133C2.44751 9.82263 3.2465 10.4784 4.18131 10.8656C5.11612 11.2528 6.14476 11.3541 7.13715 11.1567C8.12954 10.9593 9.0411 10.472 9.75657 9.75657C10.472 9.0411 10.9593 8.12954 11.1567 7.13715C11.3541 6.14476 11.2528 5.11612 10.8656 4.18131C10.4784 3.2465 9.82263 2.44751 8.98133 1.88537C8.14002 1.32322 7.15091 1.02318 6.13908 1.02318C6.0034 1.02318 5.87328 0.969281 5.77734 0.873339C5.68139 0.777398 5.62749 0.647273 5.62749 0.51159C5.62749 0.375908 5.68139 0.245783 5.77734 0.149841C5.87328 0.0538996 6.0034 0 6.13908 0C7.76673 0.00176042 9.32721 0.64912 10.4781 1.80004C11.629 2.95096 12.2764 4.51144 12.2782 6.13908ZM5.25761 5.62749H4.09272C3.95704 5.62749 3.82692 5.68139 3.73097 5.77734C3.63503 5.87328 3.58113 6.0034 3.58113 6.13908C3.58113 6.27477 3.63503 6.40489 3.73097 6.50083C3.82692 6.59678 3.95704 6.65067 4.09272 6.65067H5.25761C5.33574 6.78636 5.44406 6.90224 5.57417 6.98935C5.70427 7.07645 5.85269 7.13243 6.00791 7.15296C6.16313 7.17349 6.321 7.15801 6.46927 7.10772C6.61755 7.05744 6.75227 6.97369 6.86298 6.86298C6.97369 6.75227 7.05744 6.61755 7.10772 6.46927C7.15801 6.321 7.17349 6.16313 7.15296 6.00791C7.13243 5.85269 7.07645 5.70427 6.98935 5.57417C6.90224 5.44406 6.78636 5.33574 6.65067 5.25761V3.58113C6.65067 3.44545 6.59678 3.31533 6.50083 3.21938C6.40489 3.12344 6.27477 3.06954 6.13908 3.06954C6.0034 3.06954 5.87328 3.12344 5.77734 3.21938C5.68139 3.31533 5.62749 3.44545 5.62749 3.58113V5.25761C5.47423 5.34678 5.34678 5.47423 5.25761 5.62749ZM0.934676 4.49381C1.03586 4.49381 1.13477 4.46381 1.2189 4.40759C1.30303 4.35138 1.3686 4.27148 1.40732 4.178C1.44604 4.08452 1.45618 3.98165 1.43644 3.88241C1.4167 3.78317 1.36797 3.69202 1.29642 3.62047C1.22488 3.54892 1.13372 3.5002 1.03448 3.48046C0.935243 3.46072 0.832379 3.47085 0.738898 3.50957C0.645418 3.54829 0.565518 3.61386 0.509304 3.698C0.453089 3.78213 0.423085 3.88104 0.423085 3.98222C0.423085 4.1179 0.476985 4.24803 0.572927 4.34397C0.668868 4.43991 0.798993 4.49381 0.934676 4.49381ZM2.15942 2.66385C2.26061 2.66385 2.35952 2.63385 2.44365 2.57763C2.52778 2.52142 2.59335 2.44152 2.63207 2.34804C2.67079 2.25456 2.68092 2.15169 2.66118 2.05245C2.64144 1.95322 2.59272 1.86206 2.52117 1.79051C2.44962 1.71896 2.35847 1.67024 2.25923 1.6505C2.15999 1.63076 2.05713 1.64089 1.96365 1.67961C1.87016 1.71833 1.79027 1.78391 1.73405 1.86804C1.67784 1.95217 1.64783 2.05108 1.64783 2.15226C1.64783 2.28794 1.70173 2.41807 1.79767 2.51401C1.89362 2.60995 2.02374 2.66385 2.15942 2.66385ZM3.97966 1.45343C4.08084 1.45343 4.17976 1.42342 4.26389 1.36721C4.34802 1.311 4.41359 1.2311 4.45231 1.13761C4.49103 1.04413 4.50116 0.94127 4.48142 0.842032C4.46168 0.742793 4.41296 0.651636 4.34141 0.580089C4.26986 0.508542 4.17871 0.459817 4.07947 0.440078C3.98023 0.420338 3.87737 0.430469 3.78388 0.46919C3.6904 0.507911 3.6105 0.573483 3.55429 0.657613C3.49808 0.741744 3.46807 0.840655 3.46807 0.941838C3.46807 1.07752 3.52197 1.20765 3.61791 1.30359C3.71385 1.39953 3.84398 1.45343 3.97966 1.45343Z" fill="white"/>
</svg>
