<svg width="21" height="26" viewBox="0 0 21 26" fill="none" xmlns="http://www.w3.org/2000/svg">
<path d="M11.558 15.0469H6.23819C5.74852 15.0469 5.35156 15.4438 5.35156 15.9335C5.35156 16.4232 5.74852 16.8201 6.23819 16.8201H11.558C12.0476 16.8201 12.4446 16.4232 12.4446 15.9335C12.4446 15.4438 12.0476 15.0469 11.558 15.0469Z" fill="#5071C8"/>
<path d="M15.1045 10.6094H6.23819C5.74852 10.6094 5.35156 11.0063 5.35156 11.496C5.35156 11.9857 5.74852 12.3826 6.23819 12.3826H15.1045C15.5941 12.3826 15.9911 11.9857 15.9911 11.496C15.9911 11.0063 15.5941 10.6094 15.1045 10.6094Z" fill="#5071C8"/>
<path d="M8.89807 19.4766H6.23819C5.74852 19.4766 5.35156 19.8735 5.35156 20.3632C5.35156 20.8529 5.74852 21.2498 6.23819 21.2498H8.89807C9.38774 21.2498 9.7847 20.8529 9.7847 20.3632C9.7847 19.8735 9.38774 19.4766 8.89807 19.4766Z" fill="#5071C8"/>
<path d="M18.6505 3.51926H15.9906V2.63263C15.9906 2.16233 15.8038 1.7113 15.4713 1.37875C15.1387 1.0462 14.6877 0.859375 14.2174 0.859375H7.12436C6.65407 0.859375 6.20303 1.0462 5.87048 1.37875C5.53793 1.7113 5.35111 2.16233 5.35111 2.63263V3.51926H2.69122C2.22093 3.51926 1.76989 3.70608 1.43734 4.03863C1.10479 4.37118 0.917969 4.82222 0.917969 5.29251V23.9117C0.917969 24.382 1.10479 24.833 1.43734 25.1656C1.76989 25.4981 2.22093 25.685 2.69122 25.685H18.6505C19.1208 25.685 19.5719 25.4981 19.9044 25.1656C20.237 24.833 20.4238 24.382 20.4238 23.9117V5.29251C20.4238 4.82222 20.237 4.37118 19.9044 4.03863C19.5719 3.70608 19.1208 3.51926 18.6505 3.51926ZM7.12436 2.63263H14.2174V6.17914H7.12436V2.63263ZM18.6505 23.9117H2.69122V5.29251H5.35111V6.70735C5.35111 7.39497 5.90854 7.9524 6.59616 7.9524H14.7456C15.4332 7.9524 15.9906 7.39497 15.9906 6.70735V5.29251H18.6505V23.9117Z" fill="#5071C8"/>
</svg>
