<svg width="25" height="29" viewBox="0 0 25 29" fill="none" xmlns="http://www.w3.org/2000/svg">
<path d="M23.2223 6.51469C22.4106 5.13377 21.0482 4.26935 19.4869 4.14308C19.3454 4.13119 19.2031 4.12553 19.0583 4.12553C18.9695 4.12553 18.8835 4.13643 18.7957 4.14074C17.0706 2.297 14.8144 1.27734 12.4124 1.27734C10.0104 1.27734 7.75419 2.297 6.02914 4.14074C5.94134 4.13649 5.85542 4.12553 5.76663 4.12553C5.62183 4.12553 5.47946 4.13124 5.33891 4.14261C3.77669 4.26935 2.41477 5.13377 1.60305 6.51422C0.758096 7.95065 0.663134 9.70893 1.3491 11.2185L2.73049 14.2576C2.86813 14.5599 2.96834 14.8775 3.02815 15.2022L4.94785 25.5705C5.19421 26.8973 6.35203 27.86 7.70113 27.86C8.73314 27.86 9.67778 27.2961 10.1662 26.3875L11.5771 23.7677C11.7451 23.4549 12.058 23.2683 12.413 23.2683C12.7681 23.2683 13.0805 23.4549 13.249 23.7672L14.6598 26.387C15.1478 27.2966 16.0925 27.8605 17.1245 27.8605C18.4736 27.8605 19.6314 26.8978 19.8778 25.5705L21.7975 15.2027C21.8573 14.8775 21.9574 14.5599 22.0951 14.258L23.4765 11.219C24.1622 9.70944 24.0673 7.95112 23.2223 6.51469ZM12.4124 2.22676C14.3411 2.22676 16.1706 2.96683 17.6441 4.3249C16.6472 4.60211 15.7581 5.17177 15.075 5.98209C14.2224 5.69825 13.3276 5.54965 12.4124 5.54965C11.4967 5.54965 10.6024 5.69825 9.74985 5.98209C9.06673 5.17177 8.17765 4.60216 7.18078 4.3249C8.65423 2.96678 10.4837 2.22676 12.4124 2.22676ZM22.6118 10.8254L21.2304 13.8645C21.061 14.2366 20.9376 14.6287 20.8635 15.0299L18.9438 25.3973C18.781 26.2745 18.0158 26.9111 17.1243 26.9111C16.4422 26.9111 15.8179 26.5385 15.4951 25.938L14.0843 23.3176C13.7473 22.6929 13.1226 22.3194 12.4124 22.3194C11.7023 22.3194 11.0775 22.6925 10.7405 23.3181L9.32971 25.938C9.00692 26.5385 8.38268 26.9111 7.70055 26.9111C6.80908 26.9111 6.04383 26.2745 5.88101 25.3978L3.96137 15.0299C3.88733 14.6287 3.76391 14.2366 3.59445 13.8645L2.21306 10.8254C1.65481 9.59735 1.73264 8.1657 2.421 6.99552C3.0742 5.88521 4.16552 5.19026 5.41685 5.08865C5.53221 5.07962 5.64898 5.07489 5.76668 5.07489C6.93442 5.07489 8.0182 5.53818 8.81757 6.358C7.73669 6.8664 6.74268 7.60455 5.88818 8.55536L6.59455 9.18957C8.15299 7.45455 10.2194 6.49896 12.4125 6.49896C14.6056 6.49896 16.672 7.45455 18.2304 9.18957L18.9368 8.55536C18.0823 7.60455 17.0883 6.8664 16.0074 6.35753C16.8068 5.53771 17.8901 5.07489 19.0583 5.07489C19.176 5.07489 19.2928 5.07962 19.4091 5.08912C20.6594 5.19021 21.7508 5.88521 22.4039 6.99552C23.0922 8.16617 23.1701 9.5974 22.6118 10.8254Z" fill="#303030" stroke="#303030" stroke-width="0.779432"/>
<path d="M15.6668 14.0869C15.4575 12.6348 14.3087 11.486 12.8566 11.2766V9.33984H11.9072V11.2766C10.4551 11.486 9.30628 12.6348 9.09694 14.0869H7.16016V15.0363H9.09694C9.30628 16.4884 10.4551 17.6372 11.9072 17.8465V19.7833H12.8566V17.8465C14.3087 17.6372 15.4575 16.4884 15.6668 15.0363H17.6036V14.0869H15.6668ZM11.9072 16.8871C10.9787 16.6977 10.2458 15.9648 10.0564 15.0363H11.9072V16.8871ZM11.9072 14.0869H10.0564C10.2458 13.1584 10.9787 12.4254 11.9072 12.236V14.0869ZM12.8566 16.8871V15.0363H14.7074C14.518 15.9648 13.7851 16.6977 12.8566 16.8871ZM12.8566 14.0869V12.236C13.7851 12.4254 14.518 13.1584 14.7074 14.0869H12.8566Z" fill="#303030" stroke="#303030" stroke-width="0.519621"/>
</svg>
