<svg width="21" height="26" viewBox="0 0 21 26" fill="none" xmlns="http://www.w3.org/2000/svg">
<path d="M13.3319 0.851562H7.08871C5.99991 0.851562 5.11719 1.73429 5.11719 2.82309V3.48028H15.3035V2.82309C15.3035 1.73429 14.4208 0.851562 13.3319 0.851562Z" fill="#5071C8"/>
<path d="M15.2972 5.44531H5.11694C4.79941 6.14699 4.62109 6.92514 4.62109 7.74543C4.62109 9.12947 5.12552 10.3948 5.95903 11.3707C6.07009 10.619 6.57277 9.93132 7.37648 9.44909C8.1481 8.98617 9.15334 8.73117 10.2071 8.73117C11.2609 8.73117 12.2661 8.98617 13.0377 9.44909C13.8414 9.93132 14.3441 10.619 14.4551 11.3707C15.2886 10.3948 15.7931 9.12942 15.7931 7.74543C15.7931 6.92514 15.6148 6.14699 15.2972 5.44531Z" fill="#5071C8"/>
<path d="M10.2142 10.7109C8.78733 10.7109 7.91406 11.3492 7.91406 11.6967C7.91406 12.0442 8.78733 12.6825 10.2142 12.6825C11.641 12.6825 12.5143 12.0442 12.5143 11.6967C12.5143 11.3492 11.641 10.7109 10.2142 10.7109Z" fill="#5071C8"/>
<path d="M13.2293 13.8203C13.0921 13.9138 12.9459 14.0019 12.7886 14.0824C12.0484 14.4612 11.1551 14.6614 10.2053 14.6614C9.25549 14.6614 8.36218 14.4612 7.62193 14.0824C7.46468 14.0018 7.31845 13.9138 7.1813 13.8203C3.21659 15.0969 0.347656 18.8155 0.347656 23.2047C0.347656 24.6565 1.52459 25.8334 2.97637 25.8334H17.4342C18.8861 25.8334 20.063 24.6565 20.063 23.2047C20.0629 18.8155 17.194 15.0969 13.2293 13.8203Z" fill="#5071C8"/>
</svg>
