<svg width="26" height="29" viewBox="0 0 26 29" fill="none" xmlns="http://www.w3.org/2000/svg">
<path d="M6.83594 11.668H9.9687" stroke="#5071C8" stroke-width="2.09443" stroke-linecap="round"/>
<path d="M21.9777 9.73992V3.24861C21.9777 2.55902 21.4187 2 20.7291 2H3.24861C2.55902 2 2 2.55902 2 3.24861V25.7235C2 26.4131 2.55902 26.9721 3.24861 26.9721H9.49163" stroke="#5071C8" stroke-width="2.09443" stroke-linecap="round" stroke-linejoin="round"/>
<path d="M6.83594 8.24219H14.9519" stroke="#5071C8" stroke-width="2.09443" stroke-linecap="round"/>
<path d="M11.9397 20.6727C11.9397 24.1206 14.7348 26.9157 18.1828 26.9157C21.6307 26.9157 24.4258 24.1206 24.4258 20.6727C24.4258 17.2248 21.6307 14.4297 18.1828 14.4297C14.7348 14.4297 11.9397 17.2248 11.9397 20.6727Z" stroke="#5071C8" stroke-width="2.01387" stroke-linecap="round" stroke-linejoin="round"/>
<path d="M20.2148 20.4578C20.0861 19.565 19.3797 18.8586 18.4869 18.7299V17.5391H17.9031V18.7299C17.0103 18.8586 16.3039 19.565 16.1752 20.4578H14.9844V21.0416H16.1752C16.3039 21.9344 17.0103 22.6408 17.9031 22.7695V23.9603H18.4869V22.7695C19.3797 22.6408 20.0861 21.9344 20.2148 21.0416H21.4056V20.4578H20.2148ZM17.9032 22.1796C17.3323 22.0631 16.8816 21.6125 16.7651 21.0416H17.9032V22.1796ZM17.9032 20.4578H16.7651C16.8816 19.8869 17.3323 19.4363 17.9032 19.3198V20.4578ZM18.4869 22.1796V21.0416H19.6249C19.5084 21.6125 19.0578 22.0631 18.4869 22.1796ZM18.4869 20.4578V19.3198C19.0578 19.4363 19.5084 19.8869 19.6249 20.4578H18.4869Z" fill="#5071C8" stroke="#5071C8" stroke-width="0.402775"/>
</svg>
