<svg width="25" height="28" viewBox="0 0 25 28" fill="none" xmlns="http://www.w3.org/2000/svg">
<path d="M6.14062 10.9453H9.27338" stroke="#303030" stroke-width="2.09443" stroke-linecap="round"/>
<path d="M21.2824 9.01726V2.52595C21.2824 1.83636 20.7234 1.27734 20.0338 1.27734H2.55329C1.86371 1.27734 1.30469 1.83636 1.30469 2.52595V25.0009C1.30469 25.6905 1.86371 26.2495 2.55329 26.2495H8.79632" stroke="#303030" stroke-width="2.09443" stroke-linecap="round" stroke-linejoin="round"/>
<path d="M6.14062 7.51953H14.2566" stroke="#303030" stroke-width="2.09443" stroke-linecap="round"/>
<path d="M11.2444 19.9501C11.2444 23.398 14.0395 26.1931 17.4874 26.1931C20.9354 26.1931 23.7305 23.398 23.7305 19.9501C23.7305 16.5021 20.9354 13.707 17.4874 13.707C14.0395 13.707 11.2444 16.5021 11.2444 19.9501Z" stroke="#303030" stroke-width="2.01387" stroke-linecap="round" stroke-linejoin="round"/>
<path d="M19.5195 19.7352C19.3908 18.8423 18.6844 18.136 17.7916 18.0073V16.8164H17.2078V18.0073C16.315 18.136 15.6086 18.8423 15.4799 19.7352H14.2891V20.3189H15.4799C15.6086 21.2118 16.315 21.9181 17.2078 22.0468V23.2377H17.7916V22.0468C18.6844 21.9181 19.3908 21.2118 19.5195 20.3189H20.7103V19.7352H19.5195ZM17.2079 21.4569C16.637 21.3405 16.1863 20.8898 16.0698 20.3189H17.2079V21.4569ZM17.2079 19.7352H16.0698C16.1863 19.1643 16.637 18.7136 17.2079 18.5971V19.7352ZM17.7916 21.4569V20.3189H18.9296C18.8131 20.8898 18.3625 21.3405 17.7916 21.4569ZM17.7916 19.7352V18.5971C18.3625 18.7136 18.8131 19.1643 18.9296 19.7352H17.7916Z" fill="#303030" stroke="#303030" stroke-width="0.402775"/>
</svg>
