<svg width="25" height="28" viewBox="0 0 25 28" fill="none" xmlns="http://www.w3.org/2000/svg">
<path d="M23.3278 6.23735C22.5161 4.85643 21.1537 3.99201 19.5924 3.86574C19.4509 3.85385 19.3085 3.84819 19.1637 3.84819C19.0749 3.84819 18.989 3.85909 18.9012 3.8634C17.1761 2.01966 14.9199 1 12.5179 1C10.1159 1 7.85966 2.01966 6.13461 3.8634C6.04681 3.85914 5.96088 3.84819 5.8721 3.84819C5.72729 3.84819 5.58493 3.8539 5.44438 3.86527C3.88215 3.99201 2.52024 4.85643 1.70851 6.23688C0.863565 7.6733 0.768603 9.43158 1.45457 10.9412L2.83596 13.9802C2.9736 14.2826 3.07381 14.6002 3.13362 14.9248L5.05332 25.2932C5.29968 26.62 6.4575 27.5827 7.80659 27.5827C8.83861 27.5827 9.78325 27.0187 10.2717 26.1102L11.6825 23.4903C11.8506 23.1775 12.1634 22.991 12.5185 22.991C12.8736 22.991 13.1859 23.1775 13.3545 23.4899L14.7653 26.1097C15.2533 27.0192 16.1979 27.5831 17.23 27.5831C18.5791 27.5831 19.7368 26.6204 19.9832 25.2932L21.9029 14.9253C21.9627 14.6001 22.0629 14.2826 22.2006 13.9807L23.582 10.9416C24.2676 9.4321 24.1727 7.67377 23.3278 6.23735ZM12.5179 1.94941C14.4466 1.94941 16.2761 2.68948 17.7495 4.04756C16.7527 4.32476 15.8635 4.89443 15.1805 5.70475C14.3279 5.4209 13.4331 5.27231 12.5179 5.27231C11.6022 5.27231 10.7078 5.4209 9.85531 5.70475C9.1722 4.89443 8.28312 4.32481 7.28625 4.04756C8.75969 2.68943 10.5892 1.94941 12.5179 1.94941ZM22.7173 10.5481L21.3359 13.5871C21.1664 13.9593 21.043 14.3514 20.969 14.7525L19.0493 25.1199C18.8865 25.9972 18.1213 26.6338 17.2298 26.6338C16.5476 26.6338 15.9234 26.2612 15.6006 25.6606L14.1898 23.0403C13.8528 22.4156 13.2281 22.042 12.5179 22.042C11.8077 22.042 11.183 22.4151 10.846 23.0408L9.43518 25.6606C9.11239 26.2612 8.48815 26.6338 7.80602 26.6338C6.91455 26.6338 6.1493 25.9972 5.98648 25.1205L4.06683 14.7525C3.9928 14.3514 3.86938 13.9593 3.69991 13.5871L2.31853 10.5481C1.76028 9.32001 1.83811 7.88836 2.52647 6.71818C3.17967 5.60787 4.27098 4.91291 5.52231 4.81131C5.63768 4.80227 5.75445 4.79755 5.87215 4.79755C7.03989 4.79755 8.12367 5.26083 8.92304 6.08065C7.84216 6.58905 6.84815 7.3272 5.99365 8.27802L6.70002 8.91222C8.25846 7.17721 10.3248 6.22162 12.5179 6.22162C14.711 6.22162 16.7774 7.17721 18.3359 8.91222L19.0422 8.27802C18.1878 7.3272 17.1938 6.58905 16.1128 6.08018C16.9123 5.26036 17.9955 4.79755 19.1637 4.79755C19.2814 4.79755 19.3982 4.80227 19.5146 4.81177C20.7649 4.91286 21.8563 5.60787 22.5094 6.71818C23.1977 7.88882 23.2755 9.32006 22.7173 10.5481Z" fill="#5071C8" stroke="#5071C8" stroke-width="0.779432"/>
<path d="M15.7723 13.8095C15.5629 12.3574 14.4142 11.2086 12.962 10.9993V9.0625H12.0126V10.9993C10.5605 11.2086 9.41175 12.3574 9.2024 13.8095H7.26562V14.7589H9.2024C9.41175 16.211 10.5605 17.3598 12.0126 17.5692V19.5059H12.962V17.5692C14.4142 17.3598 15.5629 16.211 15.7723 14.7589H17.7091V13.8095H15.7723ZM12.0127 16.6098C11.0842 16.4204 10.3512 15.6874 10.1618 14.7589H12.0127V16.6098ZM12.0127 13.8095H10.1618C10.3512 12.881 11.0842 12.1481 12.0127 11.9587V13.8095ZM12.962 16.6098V14.7589H14.8129C14.6235 15.6874 13.8906 16.4204 12.962 16.6098ZM12.962 13.8095V11.9587C13.8905 12.1481 14.6235 12.881 14.8129 13.8095H12.962Z" fill="#5071C8" stroke="#5071C8" stroke-width="0.519621"/>
</svg>
