<svg width="26" height="12" viewBox="0 0 26 12" fill="none" xmlns="http://www.w3.org/2000/svg">
<path d="M25.4547 0H8.68893C8.40316 0 8.17153 0.231634 8.17153 0.517397V1.49319H3.24005C2.95429 1.49319 2.72266 1.72482 2.72266 2.01059C2.72266 2.29635 2.95429 2.52798 3.24005 2.52798H8.17153V9.24729H5.22406C4.93829 9.24729 4.70666 9.47892 4.70666 9.76469C4.70666 10.0504 4.93829 10.2821 5.22406 10.2821H8.17153V11.2579C8.17153 11.5436 8.40316 11.7753 8.68893 11.7753H25.4547C25.7404 11.7753 25.9721 11.5436 25.9721 11.2579V0.517397C25.9721 0.231634 25.7404 0 25.4547 0ZM24.1783 1.03479L17.0725 6.868L9.99918 1.03479H24.1783ZM24.9373 10.7405H9.20637V1.72224L16.7426 7.93719C16.8382 8.01597 16.955 8.05544 17.0718 8.05544C17.1883 8.05544 17.3047 8.01627 17.4001 7.93795L24.9373 1.75059V10.7405Z" fill="white"/>
<path d="M6.07103 5.31836H0.517397C0.231634 5.31836 0 5.54999 0 5.83576C0 6.12152 0.231634 6.35315 0.517397 6.35315H6.07103C6.35679 6.35315 6.58842 6.12152 6.58842 5.83576C6.58847 5.54999 6.35679 5.31836 6.07103 5.31836Z" fill="white"/>
<path d="M3.51658 9.24609H3.24005C2.95429 9.24609 2.72266 9.47773 2.72266 9.76349C2.72266 10.0493 2.95429 10.2809 3.24005 10.2809H3.51658C3.80235 10.2809 4.03398 10.0493 4.03398 9.76349C4.03398 9.47773 3.80235 9.24609 3.51658 9.24609Z" fill="white"/>
</svg>
