<svg width="12" height="12" viewBox="0 0 12 12" fill="none" xmlns="http://www.w3.org/2000/svg">
<path d="M11.162 5.58099C11.162 8.66326 8.66326 11.162 5.58099 11.162C2.49869 11.162 0 8.66326 0 5.58099C0 2.49869 2.49869 0 5.58099 0C8.66326 0 11.162 2.49869 11.162 5.58099ZM1.01819 5.58099C1.01819 8.10095 3.06102 10.1438 5.58099 10.1438C8.10095 10.1438 10.1438 8.10095 10.1438 5.58099C10.1438 3.06102 8.10095 1.01819 5.58099 1.01819C3.06102 1.01819 1.01819 3.06102 1.01819 5.58099Z" fill="white"/>
<path d="M5.57963 2.03125C5.29941 2.03125 5.07227 2.2584 5.07227 2.53861V5.81957C5.07227 5.81957 5.07227 5.95184 5.13655 6.05134C5.17957 6.13571 5.24665 6.20902 5.33477 6.25991L7.67869 7.6132C7.92136 7.75328 8.23166 7.67013 8.37174 7.42745C8.51183 7.18478 8.42872 6.87448 8.18605 6.7344L6.08699 5.52251V2.53861C6.08699 2.25841 5.85984 2.03125 5.57963 2.03125Z" fill="white"/>
</svg>
