<svg width="25" height="28" viewBox="0 0 25 28" fill="none" xmlns="http://www.w3.org/2000/svg">
<path d="M2.23097 10.9847V8.45662C2.23097 7.11565 2.76368 5.82959 3.71189 4.88138C4.66011 3.93316 5.94616 3.40046 7.28714 3.40046H9.81522" stroke="white" stroke-width="1.44462" stroke-linecap="round" stroke-linejoin="round"/>
<path d="M7.64741 1.2334L9.81434 3.40033L7.64741 5.56725" stroke="white" stroke-width="1.44462" stroke-linecap="round" stroke-linejoin="round"/>
<path d="M23.1767 16.7632V19.2913C23.1767 20.6322 22.644 21.9183 21.6958 22.8665C20.7476 23.8147 19.4615 24.3474 18.1206 24.3474H15.5925" stroke="white" stroke-width="1.44462" stroke-linecap="round" stroke-linejoin="round"/>
<path d="M17.7594 26.5147L15.5925 24.3478L17.7594 22.1808" stroke="white" stroke-width="1.44462" stroke-linecap="round" stroke-linejoin="round"/>
<path d="M9.59364 8.49669C9.84752 7.21286 10.4454 6.02212 11.3235 5.0517C12.2016 4.08128 13.3268 3.36765 14.5789 2.98706C15.831 2.60647 17.1631 2.57321 18.4326 2.89085C19.7022 3.20848 20.8616 3.86507 21.787 4.79046C22.7124 5.71585 23.369 6.87527 23.6866 8.14484C24.0043 9.41441 23.971 10.7464 23.5904 11.9986C23.2098 13.2507 22.4962 14.3759 21.5258 15.254C20.5553 16.132 19.3646 16.7299 18.0808 16.9838" stroke="white" stroke-width="1.44462" stroke-linecap="round" stroke-linejoin="round"/>
<path d="M8.7309 25.0686C12.7201 25.0686 15.954 21.8347 15.954 17.8455C15.954 13.8563 12.7201 10.6224 8.7309 10.6224C4.7417 10.6224 1.50781 13.8563 1.50781 17.8455C1.50781 21.8347 4.7417 25.0686 8.7309 25.0686Z" stroke="white" stroke-width="1.44462" stroke-linecap="round" stroke-linejoin="round"/>
<path d="M12.977 21.0988H4.48984C4.4262 21.0988 4.36368 21.082 4.30863 21.0501C4.25357 21.0182 4.20793 20.9722 4.17633 20.917C4.14473 20.8617 4.12829 20.7991 4.12868 20.7355C4.12906 20.6718 4.14626 20.6094 4.17853 20.5546L8.42246 13.3412C8.45434 13.287 8.49984 13.242 8.55444 13.2108C8.60905 13.1796 8.67086 13.1631 8.73377 13.1631C8.79668 13.1631 8.85849 13.1796 8.9131 13.2108C8.9677 13.242 9.0132 13.287 9.04509 13.3412L13.2883 20.5546C13.3206 20.6094 13.3378 20.6718 13.3381 20.7355C13.3385 20.7991 13.3221 20.8617 13.2905 20.917C13.2589 20.9722 13.2132 21.0182 13.1582 21.0501C13.1031 21.082 13.0406 21.0988 12.977 21.0988ZM6.63907 19.6542H10.8285C10.8538 19.6541 10.8786 19.6474 10.9005 19.6347C10.9224 19.622 10.9406 19.6037 10.9532 19.5818C10.9658 19.5598 10.9724 19.5349 10.9724 19.5096C10.9724 19.4843 10.9657 19.4594 10.9531 19.4375L8.85837 15.8744C8.84562 15.8526 8.82742 15.8346 8.80556 15.8221C8.78371 15.8096 8.75896 15.803 8.73377 15.803C8.70858 15.803 8.68383 15.8096 8.66198 15.8221C8.64012 15.8346 8.62192 15.8526 8.60917 15.8744L6.51448 19.4375C6.50182 19.4594 6.49514 19.4843 6.49512 19.5096C6.4951 19.5349 6.50173 19.5598 6.51435 19.5818C6.52697 19.6037 6.54513 19.622 6.56702 19.6347C6.58891 19.6474 6.61376 19.6541 6.63907 19.6542Z" fill="white"/>
</svg>
