<svg width="12" height="14" viewBox="0 0 12 14" fill="none" xmlns="http://www.w3.org/2000/svg">
<path d="M3.58051 8.41406H6.40607Z" fill="#253159"/>
<path d="M3.58051 8.41406H6.40607" stroke="white" stroke-width="0.829306" stroke-miterlimit="10" stroke-linecap="round" stroke-linejoin="round"/>
<path d="M2.52972 4.30981V1.3125Z" fill="#253159"/>
<path d="M2.52972 4.30981V1.3125" stroke="white" stroke-width="0.829306" stroke-miterlimit="10" stroke-linecap="round" stroke-linejoin="round"/>
<path d="M3.98914 2.81897H0.992181Z" fill="#253159"/>
<path d="M3.98914 2.81897H0.992181" stroke="white" stroke-width="0.829306" stroke-miterlimit="10" stroke-linecap="round" stroke-linejoin="round"/>
<path d="M3.58051 6.16406H8.1014Z" fill="#253159"/>
<path d="M3.58051 6.16406H8.1014" stroke="white" stroke-width="0.829306" stroke-miterlimit="10" stroke-linecap="round" stroke-linejoin="round"/>
<path d="M5.27582 1.63281H8.66649C10.5483 1.73454 11.4921 2.42971 11.4921 5.01823V9.54531" fill="#253159"/>
<path d="M5.27582 1.63281H8.66649C10.5483 1.73454 11.4921 2.42971 11.4921 5.01823V9.54531" stroke="white" stroke-width="0.829306" stroke-miterlimit="10" stroke-linecap="round" stroke-linejoin="round"/>
<path d="M1.32074 5.58594V9.52523C1.32074 11.7916 1.88585 12.9276 4.71141 12.9276H6.40675C6.50282 12.9276 8.01167 12.9276 8.10209 12.9276" fill="#253159"/>
<path d="M1.32074 5.58594V9.52523C1.32074 11.7916 1.88585 12.9276 4.71141 12.9276H6.40675C6.50282 12.9276 8.01167 12.9276 8.10209 12.9276" stroke="white" stroke-width="0.829306" stroke-miterlimit="10" stroke-linecap="round" stroke-linejoin="round"/>
<path d="M11.4888 9.53906L8.09808 12.9301V11.2346C8.09808 10.1042 8.6632 9.53906 9.79342 9.53906H11.4888Z" fill="#253159" stroke="white" stroke-width="0.829306" stroke-linecap="round" stroke-linejoin="round"/>
</svg>
