<svg width="18" height="18" viewBox="0 0 18 18" fill="none" xmlns="http://www.w3.org/2000/svg">
<path d="M8.67887 0.101562C6.99055 0.101562 5.34015 0.602207 3.93636 1.54019C2.53258 2.47817 1.43846 3.81135 0.792368 5.37116C0.146277 6.93096 -0.0227703 8.64732 0.306604 10.3032C0.635979 11.9591 1.44898 13.4801 2.6428 14.6739C3.83663 15.8677 5.35765 16.6807 7.01353 17.0101C8.6694 17.3395 10.3858 17.1704 11.9456 16.5244C13.5054 15.8783 14.8386 14.7841 15.7765 13.3804C16.7145 11.9766 17.2152 10.3262 17.2152 8.63785C17.2125 6.37471 16.3123 4.20502 14.712 2.60473C13.1117 1.00445 10.942 0.104232 8.67887 0.101562ZM8.67887 15.6221C7.29752 15.6221 5.94719 15.2125 4.79864 14.445C3.65009 13.6776 2.7549 12.5868 2.22628 11.3106C1.69766 10.0344 1.55935 8.63011 1.82883 7.2753C2.09832 5.92049 2.76351 4.67601 3.74027 3.69925C4.71703 2.72249 5.96151 2.0573 7.31632 1.78782C8.67112 1.51833 10.0754 1.65664 11.3516 2.18526C12.6278 2.71388 13.7186 3.60907 14.4861 4.75762C15.2535 5.90617 15.6631 7.2565 15.6631 8.63785C15.6611 10.4896 14.9246 12.2648 13.6152 13.5742C12.3059 14.8835 10.5306 15.62 8.67887 15.6221ZM12.3316 6.0824L6.12342 12.2906C6.05183 12.3647 5.9662 12.4238 5.87152 12.4645C5.77684 12.5052 5.67501 12.5266 5.57197 12.5275C5.46893 12.5284 5.36675 12.5088 5.27138 12.4697C5.17601 12.4307 5.08936 12.3731 5.0165 12.3002C4.94363 12.2274 4.88601 12.1407 4.84699 12.0453C4.80797 11.95 4.78834 11.8478 4.78923 11.7448C4.79013 11.6417 4.81154 11.5399 4.85221 11.4452C4.89288 11.3505 4.952 11.2649 5.02612 11.1933L11.2343 4.9851C11.3059 4.91098 11.3915 4.85186 11.4862 4.81119C11.5809 4.77052 11.6827 4.74911 11.7858 4.74821C11.8888 4.74732 11.991 4.76695 12.0864 4.80597C12.1817 4.84499 12.2684 4.90261 12.3412 4.97548C12.4141 5.04834 12.4717 5.13499 12.5108 5.23036C12.5498 5.32573 12.5694 5.42791 12.5685 5.53095C12.5676 5.634 12.5462 5.73583 12.5055 5.8305C12.4649 5.92518 12.4057 6.01081 12.3316 6.0824ZM4.41073 5.92176C4.41073 5.61479 4.50175 5.31472 4.6723 5.05949C4.84284 4.80425 5.08523 4.60532 5.36883 4.48785C5.65244 4.37038 5.9645 4.33964 6.26557 4.39953C6.56664 4.45942 6.84319 4.60724 7.06025 4.82429C7.27731 5.04135 7.42512 5.3179 7.48501 5.61897C7.5449 5.92004 7.51416 6.2321 7.39669 6.51571C7.27922 6.79931 7.08029 7.0417 6.82505 7.21225C6.56982 7.38279 6.26975 7.47381 5.96278 7.47381C5.55115 7.47381 5.15638 7.31029 4.86531 7.01923C4.57425 6.72816 4.41073 6.33339 4.41073 5.92176ZM12.947 11.3539C12.947 11.6609 12.856 11.961 12.6855 12.2162C12.5149 12.4715 12.2725 12.6704 11.9889 12.7879C11.7053 12.9053 11.3932 12.9361 11.0922 12.8762C10.7911 12.8163 10.5146 12.6685 10.2975 12.4514C10.0804 12.2344 9.93262 11.9578 9.87273 11.6567C9.81285 11.3557 9.84358 11.0436 9.96106 10.76C10.0785 10.4764 10.2775 10.234 10.5327 10.0635C10.7879 9.89292 11.088 9.80189 11.395 9.80189C11.8066 9.80189 12.2014 9.96541 12.4924 10.2565C12.7835 10.5475 12.947 10.9423 12.947 11.3539Z" fill="white"/>
</svg>
