<svg width="23" height="16" viewBox="0 0 23 16" fill="none" xmlns="http://www.w3.org/2000/svg">
<path d="M16.1581 1.38092C15.3882 1.38092 14.6524 1.52656 13.97 1.78096V3.03035C14.5958 2.73226 15.2812 2.54417 16.0159 2.52372V3.02343H16.1342L15.3719 4.54902H15.889V7.68272C15.889 7.70792 15.9096 7.72486 15.9167 7.7481C15.9217 7.77083 15.9122 7.79469 15.9254 7.81607L16.9551 9.59916L16.5079 9.85769L17.9752 10.8262L17.8697 9.07155L17.4224 9.32998L16.4288 7.6099V4.54902H16.9457L16.1835 3.02343H16.2979L16.3004 2.52372C17.1356 2.54665 17.9161 2.77781 18.6086 3.15544L18.3646 3.57655L18.6112 3.71743L18.8571 3.2894C19.5471 3.71423 20.1245 4.29131 20.5496 4.9819L20.1225 5.22959L20.264 5.47305L20.6836 5.22959C21.061 5.92339 21.2919 6.70261 21.317 7.53791H20.8169V7.82092H21.317C21.2919 8.65798 21.061 9.43792 20.6836 10.1316L20.264 9.88764L20.1239 10.133L20.5502 10.3801C20.1239 11.0701 19.5459 11.6475 18.8566 12.0726L18.61 11.6463L18.366 11.7859L18.6088 12.2073C17.9151 12.5846 17.1371 12.8167 16.3006 12.8387V12.3399H16.0176V12.8387C15.283 12.8193 14.5955 12.6311 13.9704 12.3318V13.5821C14.6527 13.8362 15.3885 13.9821 16.1585 13.9821C19.6322 13.9821 22.4593 11.1556 22.4593 7.68003C22.4589 4.20713 19.6318 1.38092 16.1581 1.38092Z" fill="white"/>
<path d="M11.5051 0.148438H1.87099C1.04013 0.148438 0.365234 0.822712 0.365234 1.65357V13.6972C0.365234 14.5281 1.04013 15.2023 1.87099 15.2023H11.5051C12.3366 15.2023 13.0108 14.5281 13.0108 13.6972V1.65357C13.0108 0.823332 12.3366 0.148438 11.5051 0.148438ZM12.0448 13.6978C12.0448 13.9953 11.8027 14.2368 11.5051 14.2368H1.87099C1.57352 14.2368 1.3313 13.9953 1.3313 13.6978V1.65419C1.3313 1.35672 1.57341 1.11512 1.87099 1.11512H11.5051C11.8026 1.11512 12.0448 1.35662 12.0448 1.65419V13.6978Z" fill="white"/>
<path d="M10.7046 4.25232H2.67167C2.5188 4.25232 2.39526 4.37472 2.39526 4.52841C2.39526 4.68252 2.51818 4.80544 2.67167 4.80544H10.7046C10.8581 4.80544 10.981 4.68252 10.981 4.52841C10.981 4.37461 10.858 4.25232 10.7046 4.25232Z" fill="white"/>
<path d="M10.7046 5.52222H2.67167C2.5188 5.52222 2.39526 5.64513 2.39526 5.79831C2.39526 5.95118 2.51818 6.07482 2.67167 6.07482H10.7046C10.8581 6.07482 10.981 5.9519 10.981 5.79831C10.981 5.64523 10.858 5.52222 10.7046 5.52222Z" fill="white"/>
<path d="M10.7046 6.78558H2.67167C2.5188 6.78558 2.39526 6.90922 2.39526 7.0624C2.39526 7.21578 2.51818 7.3388 2.67167 7.3388H10.7046C10.8581 7.3388 10.981 7.21589 10.981 7.0624C10.981 6.90922 10.858 6.78558 10.7046 6.78558Z" fill="white"/>
<path d="M7.5303 8.04895H2.67167C2.5188 8.04895 2.39526 8.17279 2.39526 8.32577C2.39526 8.47915 2.51818 8.60248 2.67167 8.60248H7.52968C7.68276 8.60248 7.80578 8.48039 7.80578 8.32577C7.8064 8.17279 7.68276 8.04895 7.5303 8.04895Z" fill="white"/>
<path d="M6.57777 10.5448H2.67167C2.5188 10.5448 2.39526 10.6674 2.39526 10.8209C2.39526 10.9743 2.51818 11.0976 2.67167 11.0976H6.57777C6.73084 11.0976 6.85386 10.9749 6.85386 10.8209C6.85386 10.6674 6.73084 10.5448 6.57777 10.5448Z" fill="white"/>
</svg>
