<svg width="18" height="18" viewBox="0 0 18 18" fill="none" xmlns="http://www.w3.org/2000/svg">
<path d="M1 15.8256V2.52635C1 2.29426 1.26037 2.03379 1.49256 2.03379H3.40105V1.0002H5.98031V2.03399L11.1389 2.03202V1H13.7182V2.03182L15.7769 2.03379C16.0091 2.03409 16.2695 2.29426 16.2695 2.52635V15.8256C16.2695 16.0579 16.0091 16.3181 15.7769 16.3181H1.49256C1.26037 16.3181 1 16.0579 1 15.8256Z" stroke="white" stroke-width="0.9" stroke-linecap="round" stroke-linejoin="round"/>
<path d="M11.5905 11.4265H14.0993V13.6915H11.5905V11.4265ZM7.34017 11.4265H9.84899V13.6915H7.34017V11.4265ZM3.08984 11.4265H5.59867V13.6915H3.08984V11.4265ZM11.5905 6.73633H14.0993V9.00133H11.5905V6.73633ZM7.34017 6.73633H9.84899V9.00133H7.34017V6.73633ZM3.08984 6.73633H5.59867V9.00133H3.08984V6.73633Z" stroke="white" stroke-width="0.9" stroke-miterlimit="5" stroke-linecap="round" stroke-linejoin="round"/>
<path d="M1 4.3125H16.2695" stroke="white" stroke-width="0.9" stroke-miterlimit="5" stroke-linecap="round" stroke-linejoin="round"/>
</svg>
