<svg width="16" height="16" viewBox="0 0 16 16" fill="none" xmlns="http://www.w3.org/2000/svg">
<path d="M13.8541 1.61442V4.1245H1.30208V1.61442H13.8541ZM13.8541 0.359375H1.30208C0.969178 0.359375 0.649912 0.491602 0.414516 0.726968C0.179119 0.962334 0.046875 1.28156 0.046875 1.61442V4.1245C0.046875 4.45736 0.179119 4.77658 0.414516 5.01195C0.649912 5.24732 0.969178 5.37954 1.30208 5.37954H13.8541C14.187 5.37954 14.5063 5.24732 14.7417 5.01195C14.9771 4.77658 15.1093 4.45736 15.1093 4.1245V1.61442C15.1093 1.28156 14.9771 0.962334 14.7417 0.726968C14.5063 0.491602 14.187 0.359375 13.8541 0.359375Z" fill="white"/>
<path d="M3.81249 7.89127V14.1665H1.30208V7.89127H3.81249ZM3.81249 6.63623H1.30208C0.969178 6.63623 0.649912 6.76846 0.414516 7.00382C0.179119 7.23919 0.046875 7.55841 0.046875 7.89127V14.1665C0.046875 14.4993 0.179119 14.8186 0.414516 15.0539C0.649912 15.2893 0.969178 15.4215 1.30208 15.4215H3.81249C4.14539 15.4215 4.46465 15.2893 4.70005 15.0539C4.93545 14.8186 5.06769 14.4993 5.06769 14.1665V7.89127C5.06769 7.55841 4.93545 7.23919 4.70005 7.00382C4.46465 6.76846 4.14539 6.63623 3.81249 6.63623Z" fill="white"/>
<path d="M13.855 7.89127V14.1665H7.57893V7.89127H13.855ZM13.855 6.63623H7.57893C7.24603 6.63623 6.92677 6.76846 6.69137 7.00382C6.45598 7.23919 6.32373 7.55841 6.32373 7.89127V14.1665C6.32373 14.4993 6.45598 14.8186 6.69137 15.0539C6.92677 15.2893 7.24603 15.4215 7.57893 15.4215H13.855C14.1879 15.4215 14.5071 15.2893 14.7425 15.0539C14.9779 14.8186 15.1102 14.4993 15.1102 14.1665V7.89127C15.1102 7.55841 14.9779 7.23919 14.7425 7.00382C14.5071 6.76846 14.1879 6.63623 13.855 6.63623Z" fill="white"/>
</svg>
