<svg width="14" height="14" viewBox="0 0 14 14" fill="none" xmlns="http://www.w3.org/2000/svg">
<path d="M12.4938 3.67495L6.80614 9.3626C6.23975 9.92899 4.55847 10.1913 4.18287 9.81571C3.80727 9.44011 4.06363 7.75885 4.63002 7.19246L10.3237 1.49883C10.4641 1.34564 10.6341 1.22251 10.8234 1.13683C11.0127 1.05116 11.2174 1.00472 11.4252 1.00034C11.6329 0.99597 11.8394 1.03373 12.0322 1.11136C12.2249 1.18899 12.4 1.30489 12.5467 1.45203C12.6934 1.59917 12.8089 1.77451 12.8859 1.96748C12.963 2.16045 13.0003 2.36703 12.9953 2.57477C12.9904 2.78252 12.9434 2.98712 12.8572 3.17621C12.771 3.36529 12.6474 3.53496 12.4938 3.67495Z" stroke="white" stroke-width="0.98" stroke-linecap="round" stroke-linejoin="round"/>
<path d="M6.36574 2.24219H3.38477C2.75229 2.24219 2.14575 2.49344 1.69852 2.94067C1.25129 3.3879 1 3.99448 1 4.62696V10.5889C1 11.2214 1.25129 11.828 1.69852 12.2752C2.14575 12.7224 2.75229 12.9737 3.38477 12.9737H9.9429C11.2605 12.9737 11.7315 11.9005 11.7315 10.5889V7.60793" stroke="white" stroke-width="0.98" stroke-linecap="round" stroke-linejoin="round"/>
</svg>
