<svg width="102" height="149" viewBox="0 0 102 149" fill="none" xmlns="http://www.w3.org/2000/svg">
<path d="M22.5 79.4998C30.6666 53.1664 49.8 0.699768 61 1.49977C72.7339 2.3379 66.2035 31.2751 67.9034 43.5647C68.3075 46.4866 71.2767 46.2909 72.7973 43.7634C82.5534 27.5471 98.3237 4.29506 100.5 13C103.5 25 91 82.5 93.5 92M22.5 79.4998C49 83 40.5277 90.5576 60 92C73.5 93 86.8333 93.5 93.5 92M22.5 79.4998C16.1666 83.1665 3.19997 93.3 1.99997 104.5C0.499973 118.5 3.49997 135.5 25 138.5C46.5 141.5 40 137 52.5 144C63.5555 150.191 82.8242 147.386 90.9352 133.165C93.1347 129.309 93.5221 124.754 93.5514 120.315C93.6192 110.078 93.6635 96.1741 93.5 92" stroke="black" stroke-width="2"/>
</svg>
