<svg width="82" height="129" viewBox="0 0 82 129" fill="none" xmlns="http://www.w3.org/2000/svg">
<path d="M30 42.5C33.2238 49.664 46.7123 49.3434 54.523 48.0014C55.7962 47.7826 56.9933 48.7484 57.1757 50.0274C58.4691 59.095 66.6014 63.4285 71.5 64.5M30 42.5C17.8457 63.3805 -4.7982 107.717 2.52298 124.43C3.47333 126.599 5.80926 127.77 8.14844 127.399C25.1458 124.699 52.4323 92.869 71.5 64.5M30 42.5C35.5 35.5001 45.1473 33.7206 54 26.0001C61.673 19.3084 65.0043 8.66394 74 3.00002C87.5 -5.49992 77.8333 37.1667 71.5 64.5" stroke="black" stroke-width="2"/>
</svg>
