<svg width="74" height="147" viewBox="0 0 74 147" fill="none" xmlns="http://www.w3.org/2000/svg">
<path d="M21.5 94.5006C26.0799 87.3915 37.579 83.467 45.0673 84.8134C46.3395 85.0421 47.682 84.2621 48.0854 83.0341C51.2257 73.4759 63.0961 70.3535 68.4999 70.0004M21.5 94.5006C17.927 57.432 -4.92625 23.046 3.53659 6.24571C5.56099 2.22692 10.5971 0.815053 14.7008 2.66133C30.8327 9.91917 48.775 39.7556 68.4999 70.0004M21.5 94.5006C26.1985 102.839 37.3631 109.353 45.5 119C52.5526 127.361 53.6822 136 62.7014 143.384C77.5003 155.499 70.7899 100.12 68.4999 70.0004" stroke="black" stroke-width="2"/>
</svg>
