<svg width="98" height="137" viewBox="0 0 98 137" fill="none" xmlns="http://www.w3.org/2000/svg">
<path d="M84.0001 64.5001C76.3335 87.1668 57.6001 133 44.0001 135C27.0001 137.5 55.5001 90.5003 50.0001 82.0003C44.5001 73.5003 37 99.0001 15 121.5C-2.59997 139.5 0.833356 108 5.50002 88.5001L15 50.0001M84.0001 64.5001C77.1668 64.0001 62.5223 59.3955 52.5001 53.5001C44.0001 48.5001 27.5 62.0001 15 50.0001M84.0001 64.5001C102.5 47 99 2.5 82 7.5C64.7852 12.5632 56.7548 10.2129 51.6803 6.63523C49.0807 4.80248 46.4008 2.92314 43.2769 2.32521C13.4269 -3.38817 11.8264 31.1169 15 50.0001" stroke="black" stroke-width="2"/>
</svg>
