<svg width="15" height="28" viewBox="0 0 15 28" fill="none" xmlns="http://www.w3.org/2000/svg">
<path d="M9.93265 20.1775C9.68265 17.6275 9.11265 15.0275 8.87265 12.4475C8.63265 9.86749 7.66265 7.78749 7.10265 3.86749C6.54265 -0.042515 5.18265 -0.222515 4.35265 1.79749C3.52265 3.81749 2.31265 9.26748 2.57265 12.2675C2.84265 15.2675 1.99266 18.7475 1.47266 20.1775H9.92265H9.93265Z" fill="#F4DE9C" stroke="#5E5E5A" stroke-width="0.15" stroke-linecap="round" stroke-linejoin="round"/>
<path d="M1.99267 26.8275C2.22267 26.8775 3.24268 27.4575 4.70268 27.3175C5.61268 27.2275 6.74267 27.5975 7.85267 27.1875C8.41267 26.9775 9.06268 26.9475 9.69268 26.7375C10.3827 26.5075 10.4327 23.7875 10.2027 21.2475C9.97268 18.7075 9.46267 19.3575 8.63267 17.9275C5.01267 11.6975 4.59267 17.2875 2.80267 17.4175C1.66267 17.4975 -0.257328 26.3075 1.99267 26.8175V26.8275Z" fill="white" stroke="#5E5E5A" stroke-width="0.15" stroke-linecap="round" stroke-linejoin="round"/>
<path d="M1.03125 22.2373H1.53125" stroke="#5E5E5A" stroke-width="0.15" stroke-miterlimit="10"/>
<path d="M2.57031 22.2373H10.4203" stroke="#5E5E5A" stroke-width="0.15" stroke-miterlimit="10"/>
<path d="M10.9531 22.2373H11.4531" stroke="#5E5E5A" stroke-width="0.15" stroke-miterlimit="10"/>
<path d="M14.832 22.3177V19.5977" stroke="#5E5E5A" stroke-width="0.16" stroke-miterlimit="10"/>
<path d="M14.8324 22.2471H9.40234" stroke="#5E5E5A" stroke-width="0.16" stroke-miterlimit="10"/>
<path d="M9.88281 19.6777H14.8328" stroke="#5E5E5A" stroke-width="0.16" stroke-miterlimit="10"/>
</svg>
