<svg width="11" height="27" viewBox="0 0 11 27" fill="none" xmlns="http://www.w3.org/2000/svg">
<path d="M10.0516 19.2769C9.98156 15.6169 9.10156 11.3869 8.56156 9.52686C8.02156 7.66686 7.64156 4.38686 6.31156 1.60686C4.98156 -1.17314 4.32156 1.33686 4.45156 2.53686C4.58156 3.73686 3.84156 8.53686 3.38156 10.4869C2.92156 12.4369 3.27156 15.8969 2.60156 19.2769H10.0516Z" fill="#F4DE9C" stroke="#5E5E5A" stroke-width="0.15" stroke-linecap="round" stroke-linejoin="round"/>
<path d="M3.45013 25.367C2.43013 24.777 2.61014 21.737 2.56014 19.977C2.47014 16.557 6.34013 12.827 9.01013 16.727C9.86013 17.977 10.2701 18.337 10.2701 21.507C10.2701 24.677 9.50013 27.267 7.54013 26.047C5.59013 24.827 5.63013 26.627 3.44013 25.367H3.45013Z" fill="white" stroke="#5E5E5A" stroke-width="0.15" stroke-linecap="round" stroke-linejoin="round"/>
<path d="M0.140625 21.2066V17.8066" stroke="#5E5E5A" stroke-width="0.16" stroke-miterlimit="10"/>
<path d="M3.02063 17.8867H0.140625" stroke="#5E5E5A" stroke-width="0.16" stroke-miterlimit="10"/>
<path d="M10.2812 21.1367H9.78125" stroke="#5E5E5A" stroke-width="0.15" stroke-miterlimit="10"/>
<path d="M8.76281 21.1367H1.65281H1.13281" stroke="#5E5E5A" stroke-width="0.15" stroke-miterlimit="10"/>
<path d="M0.621094 21.1367H0.481094H0.121094" stroke="#5E5E5A" stroke-width="0.15" stroke-miterlimit="10"/>
<path d="M0.421875 21.1367H3.82187" stroke="#5E5E5A" stroke-width="0.15" stroke-miterlimit="10"/>
<path opacity="0.7" d="M2.58186 21.137C2.58186 20.697 2.58185 20.277 2.57185 19.917C2.48185 16.547 6.35186 12.857 9.02186 16.707C9.85186 17.897 10.2519 18.277 10.2819 21.137H2.58186Z" fill="#76FF5A"/>
<path opacity="0.7" d="M2.96281 17.8867C2.69281 18.5367 2.54281 19.2267 2.56281 19.9167C2.57281 20.2767 2.57281 20.6967 2.57281 21.1367H0.132812V17.8867H2.95281H2.96281Z" fill="#76FF5A"/>
</svg>
