<svg width="12" height="33" viewBox="0 0 12 33" fill="none" xmlns="http://www.w3.org/2000/svg">
<path d="M8.89094 9.66712C8.12094 7.31712 7.10094 5.37712 6.80094 2.95712C6.50094 0.537121 5.50094 0.577122 4.97094 1.90712C4.44094 3.23712 3.92094 9.11712 3.76094 12.9371C3.60094 16.7571 3.88094 20.3571 3.21094 22.6671H9.90094C8.99094 19.3871 9.67094 12.0171 8.89094 9.66712Z" fill="#F4DE9C" stroke="#5E5E5A" stroke-width="0.15" stroke-linecap="round" stroke-linejoin="round"/>
<path d="M2.22336 28.887C1.73336 26.837 2.91336 24.107 3.16336 22.857C3.40336 21.607 5.30336 19.977 6.62336 20.067C7.94336 20.167 9.65336 21.217 9.87336 22.057C11.0134 26.417 12.2534 28.687 10.1934 31.087C8.87336 32.617 6.82336 32.767 5.36336 31.517C3.90336 30.267 2.77336 31.137 2.24336 28.887H2.22336Z" fill="white" stroke="#5E5E5A" stroke-width="0.15" stroke-linecap="round" stroke-linejoin="round"/>
<path d="M0.511719 27.207H3.34172" stroke="#5E5E5A" stroke-width="0.16" stroke-miterlimit="10"/>
<path d="M0.511719 27.2872V22.1572" stroke="#5E5E5A" stroke-width="0.16" stroke-miterlimit="10"/>
<path d="M3.39172 22.2373H0.511719" stroke="#5E5E5A" stroke-width="0.16" stroke-miterlimit="10"/>
<path d="M11.3125 27.207H10.8125" stroke="#5E5E5A" stroke-width="0.15" stroke-miterlimit="10"/>
<path d="M9.74266 27.207H1.72266" stroke="#5E5E5A" stroke-width="0.15" stroke-miterlimit="10"/>
<path d="M1.19141 27.207H0.691406" stroke="#5E5E5A" stroke-width="0.15" stroke-miterlimit="10"/>
<path opacity="0.7" d="M2.14062 27.197C2.29063 25.517 2.98063 23.777 3.16063 22.857C3.40063 21.607 5.30063 19.977 6.62063 20.067C7.94063 20.167 9.65063 21.217 9.87063 22.057C10.4306 24.187 11.0006 25.807 11.2106 27.197H2.14062Z" fill="#76FF5A"/>
<path opacity="0.7" d="M3.41344 22.2373C3.30344 22.4473 3.20344 22.6573 3.16344 22.8573C2.98344 23.7773 2.28343 25.5173 2.14343 27.1973H4.20344V27.2173H0.523438V22.2473H3.41344V22.2373Z" fill="#76FF5A"/>
</svg>
