<svg width="16" height="29" viewBox="0 0 16 29" fill="none" xmlns="http://www.w3.org/2000/svg">
<path d="M11.0317 5.97711C10.8317 3.16711 10.6417 1.03711 11.1217 1.03711C12.8017 1.03711 13.7817 7.15711 13.8417 7.87711C13.9517 9.30711 13.9717 11.1471 14.0117 12.4071C14.1417 16.2771 14.4017 18.9871 14.4017 18.9871C13.0617 15.9071 12.5217 13.3271 12.2817 11.5471C12.1717 10.7571 11.6917 8.48711 11.0317 5.96711V5.97711Z" fill="#EDD091" stroke="#5E5E5A" stroke-width="0.15" stroke-linecap="round" stroke-linejoin="round"/>
<path d="M14.3919 18.997L10.6719 18.957L14.3919 18.997Z" fill="#EDD091" stroke="#5E5E5A" stroke-width="0.15" stroke-linecap="round" stroke-linejoin="round"/>
<path d="M14.3908 18.9971L5.80078 18.8871C5.80078 18.8871 7.79078 10.9271 7.94078 2.67711C7.94078 2.28711 8.26078 1.03711 8.85078 1.03711C9.55078 1.03711 9.90078 2.05711 10.0308 2.47711C11.1608 6.08711 12.1108 10.4071 12.2708 11.5571C12.5108 13.3371 13.0508 15.9171 14.3908 18.9971Z" fill="#F4DE9C" stroke="#5E5E5A" stroke-width="0.15" stroke-linecap="round" stroke-linejoin="round"/>
<path d="M4.68359 24.2478C4.68359 22.2978 5.27359 19.2578 6.39359 17.9478C7.13359 17.0778 8.7336 16.2878 9.9536 16.4578C11.1736 16.6278 11.6136 18.0378 12.5436 17.9978C13.4636 17.9578 14.3036 17.7578 14.4936 19.5078C14.6936 21.2678 15.0836 21.4078 15.2536 22.5378C15.4236 23.6578 15.8136 24.6178 13.7136 25.4578C11.6136 26.2978 11.0936 28.8378 9.2336 28.2778C7.3636 27.7178 7.61359 26.6478 6.29359 26.1578C4.97359 25.6678 4.68359 24.9878 4.68359 24.2578V24.2478Z" fill="white" stroke="#5E5E5A" stroke-width="0.15" stroke-linecap="round" stroke-linejoin="round"/>
<path d="M1.04297 23.208H6.12297" stroke="#5E5E5A" stroke-width="0.16" stroke-miterlimit="10"/>
<path d="M1.04297 23.1982V18.1582" stroke="#5E5E5A" stroke-width="0.16" stroke-miterlimit="10"/>
<path d="M6.18109 18.2383H1.12109" stroke="#5E5E5A" stroke-width="0.16" stroke-miterlimit="10"/>
<path d="M15.3633 23.208H14.8633" stroke="#5E5E5A" stroke-width="0.15" stroke-miterlimit="10"/>
<path d="M13.8816 23.208H2.60156" stroke="#5E5E5A" stroke-width="0.15" stroke-miterlimit="10"/>
<path d="M2.10156 23.208H1.60156" stroke="#5E5E5A" stroke-width="0.15" stroke-miterlimit="10"/>
<path opacity="0.7" d="M4.73438 23.2078C4.89437 21.3378 5.45437 19.0478 6.39437 17.9478C7.13437 17.0778 8.73438 16.2878 9.95438 16.4578C11.1744 16.6278 11.6144 18.0378 12.5444 17.9978C13.4644 17.9578 14.3044 17.7578 14.4944 19.5078C14.6944 21.2678 15.0844 21.4078 15.2544 22.5378C15.2844 22.7678 15.3344 22.9878 15.3644 23.2078H4.73438Z" fill="#76FF5A"/>
<path opacity="0.7" d="M6.18297 18.2383C5.37297 19.4183 4.88297 21.4883 4.73297 23.2083H1.04297V18.2383H6.18297Z" fill="#76FF5A"/>
</svg>
