<svg width="15" height="27" viewBox="0 0 15 27" fill="none" xmlns="http://www.w3.org/2000/svg">
<path d="M8.66844 17.9676C8.66844 15.8376 8.09844 11.9076 7.68844 9.27756C7.27844 6.64756 5.72844 5.91756 6.01844 3.23756C6.30844 0.547559 5.08844 0.0175592 4.02844 1.99756C2.96844 3.97756 2.31844 6.61756 2.59844 9.54756C2.87844 12.4776 2.28844 14.1976 0.648438 17.9776H8.65844L8.66844 17.9676Z" fill="#F4DE9C" stroke="#5E5E5A" stroke-width="0.15" stroke-linecap="round" stroke-linejoin="round"/>
<path d="M0.511032 24.3874C1.00103 25.2174 2.62103 25.0674 2.87103 25.7574C3.11103 26.4374 5.54103 26.7374 6.22103 25.5574C6.90103 24.3874 8.17103 23.9474 8.47103 22.8274C8.76103 21.7074 9.10103 17.3074 8.47103 16.8674C7.84103 16.4274 6.77103 16.9674 6.23103 16.3774C5.69103 15.7874 4.35103 14.1774 3.43103 15.2074C2.51103 16.2374 2.34103 16.9274 1.59103 17.0874C-0.368966 17.4974 0.161032 23.7874 0.511032 24.3874Z" fill="white" stroke="#5E5E5A" stroke-width="0.15" stroke-linecap="round" stroke-linejoin="round"/>
<path d="M0.160156 21.208H0.660156" stroke="#5E5E5A" stroke-width="0.15" stroke-miterlimit="10"/>
<path d="M1.60938 21.208H8.71937" stroke="#5E5E5A" stroke-width="0.15" stroke-miterlimit="10"/>
<path d="M9.19141 21.208H9.69141" stroke="#5E5E5A" stroke-width="0.15" stroke-miterlimit="10"/>
<path d="M14.0387 21.208H7.21875" stroke="#5E5E5A" stroke-width="0.16" stroke-miterlimit="10"/>
<path d="M14.0391 21.1978V16.9678" stroke="#5E5E5A" stroke-width="0.16" stroke-miterlimit="10"/>
<path d="M8.66016 17.0479H14.0402" stroke="#5E5E5A" stroke-width="0.16" stroke-miterlimit="10"/>
</svg>
