<svg width="14" height="28" viewBox="0 0 14 28" fill="none" xmlns="http://www.w3.org/2000/svg">
<path d="M8.06266 2.22771C7.83266 -0.0522873 6.43266 0.537713 6.33266 2.44771C6.23266 4.35771 5.37266 8.13771 4.22266 11.8877L8.24266 12.3777C8.60266 10.9977 8.30266 4.50771 8.06266 2.22771Z" fill="#F4DE9C" stroke="#5E5E5A" stroke-width="0.15" stroke-linecap="round" stroke-linejoin="round"/>
<path d="M1.19922 17.9974C2.26922 15.6474 2.76922 15.8375 2.27922 13.5875C1.78922 11.3375 0.839216 8.82745 2.32922 5.05745C3.81922 1.28745 6.09922 -0.462549 5.67922 2.20745C5.25922 4.87745 4.59922 7.71745 5.32922 9.74745C6.05922 11.7775 7.71922 12.2575 8.24922 9.92745C8.77922 7.59745 8.80922 5.89745 8.83922 4.38745C8.86922 2.88745 9.10922 -0.192549 10.2892 1.80745C11.4592 3.80745 12.2992 6.96745 11.8792 11.0475C11.8792 11.0475 10.9192 16.2175 11.7992 18.0075H1.19922V17.9974Z" fill="#F4DE9C" stroke="#5E5E5A" stroke-width="0.15" stroke-linecap="round" stroke-linejoin="round"/>
<path d="M1.16104 17.9878C0.391037 19.3878 0.0910362 24.7078 0.731036 25.6378C1.36104 26.5678 3.07103 26.7078 3.76103 26.0278C4.45103 25.3478 4.66104 26.1178 5.27104 26.4578C5.88104 26.7878 6.42103 26.1678 7.08103 26.8178C8.33103 28.0378 10.741 27.2078 11.431 24.3278C12.111 21.4478 12.261 18.8578 11.921 17.9778C11.581 17.0978 9.92104 18.5178 8.75104 17.4378C7.58104 16.3678 5.87104 16.4078 4.45104 17.0478C3.03104 17.6878 2.30103 15.9478 1.17103 17.9978L1.16104 17.9878Z" fill="white" stroke="#5E5E5A" stroke-width="0.15" stroke-linecap="round" stroke-linejoin="round"/>
<path d="M0.410156 22.208H0.910156" stroke="#5E5E5A" stroke-width="0.15" stroke-miterlimit="10"/>
<path d="M1.96094 22.208H11.9909" stroke="#5E5E5A" stroke-width="0.15" stroke-miterlimit="10"/>
<path d="M12.5195 22.208H13.0195" stroke="#5E5E5A" stroke-width="0.15" stroke-miterlimit="10"/>
<path d="M13.5791 22.208H10.5391" stroke="#5E5E5A" stroke-width="0.16" stroke-miterlimit="10"/>
<path d="M13.5 22.1976V17.5576" stroke="#5E5E5A" stroke-width="0.16" stroke-miterlimit="10"/>
<path d="M11.6484 17.6377H13.4984" stroke="#5E5E5A" stroke-width="0.16" stroke-miterlimit="10"/>
</svg>
