<svg width="15" height="25" viewBox="0 0 15 25" fill="none" xmlns="http://www.w3.org/2000/svg">
<path d="M9.23875 2.19722C9.14875 0.197221 7.84875 0.617221 7.65875 2.28722C7.45875 3.94722 6.47875 7.19722 5.21875 10.4072L8.83875 11.0872C9.23875 9.90722 9.31875 4.20722 9.23875 2.19722Z" fill="#F4DE9C" stroke="#5E5E5A" stroke-width="0.15" stroke-linecap="round" stroke-linejoin="round"/>
<path d="M12.8475 9.00754C12.5075 7.00754 12.6275 4.13754 11.6475 1.46754C10.6675 -1.20246 9.8975 0.647542 10.1475 1.87754C10.3975 3.11754 9.8975 5.52754 9.2275 6.89754C8.5575 8.26754 7.7675 11.0075 6.3475 9.90754C4.9275 8.80754 5.7175 5.11754 6.5175 2.35754C7.3175 -0.402458 5.7175 0.287542 5.1275 1.53754C4.5475 2.78754 2.3775 6.00754 2.4175 9.49754C2.4575 12.9875 2.7375 14.2475 1.6875 16.1275L12.8375 16.2875C13.1875 13.4275 13.1975 11.0175 12.8475 9.01754V9.00754Z" fill="#F4DE9C" stroke="#5E5E5A" stroke-width="0.15" stroke-linecap="round" stroke-linejoin="round"/>
<path d="M1.94921 15.6677C0.539207 17.8677 0.439207 21.4777 2.14921 22.4577C3.85921 23.4377 4.83921 22.4577 5.66921 22.6977C6.49921 22.9377 8.84921 25.4777 10.6992 23.7677C12.6892 21.9277 13.5792 16.5477 12.6992 15.3277C10.8092 12.7077 9.13921 15.7277 6.51921 14.2177C5.65921 13.7177 3.36921 13.4777 1.95921 15.6777L1.94921 15.6677Z" fill="white" stroke="#5E5E5A" stroke-width="0.15" stroke-linecap="round" stroke-linejoin="round"/>
<path d="M0.878906 19.207H1.37891" stroke="#5E5E5A" stroke-width="0.15" stroke-miterlimit="10"/>
<path d="M2.45703 19.207H12.747" stroke="#5E5E5A" stroke-width="0.15" stroke-miterlimit="10"/>
<path d="M13.2891 19.207H13.7891" stroke="#5E5E5A" stroke-width="0.15" stroke-miterlimit="10"/>
<path d="M14.3603 19.207H11.3203" stroke="#5E5E5A" stroke-width="0.16" stroke-miterlimit="10"/>
<path d="M14.2773 19.1971V15.5371" stroke="#5E5E5A" stroke-width="0.16" stroke-miterlimit="10"/>
<path d="M12.8398 15.6172H14.2798" stroke="#5E5E5A" stroke-width="0.16" stroke-miterlimit="10"/>
</svg>
