<svg width="12" height="24" viewBox="0 0 12 24" fill="none" xmlns="http://www.w3.org/2000/svg">
<path d="M7.00281 2.13796C6.58281 0.177958 5.37281 0.807958 5.45281 2.47796C5.53281 4.14796 5.09281 7.51796 4.38281 10.888L8.06281 10.958C8.26281 9.72796 7.41281 4.08796 6.99281 2.12796L7.00281 2.13796Z" fill="#F4DE9C" stroke="#5E5E5A" stroke-width="0.15" stroke-linecap="round" stroke-linejoin="round"/>
<path d="M10.8737 16.3778C10.2437 12.7978 10.8137 7.86782 10.3837 6.02782C9.95375 4.18782 9.37375 1.05782 8.20375 0.697816C7.04375 0.337816 7.36375 3.39782 7.94375 5.93782C8.53375 8.47782 7.91375 10.3378 5.82375 10.6778C3.74375 11.0178 5.30375 5.70782 5.06375 2.56782C4.82375 -0.572184 3.06375 0.247816 3.23375 2.22782C3.41375 4.20782 1.42375 8.52782 1.52375 9.66782C1.62375 10.8178 2.22375 13.6278 1.34375 16.3678H10.8537L10.8737 16.3778Z" fill="#F4DE9C" stroke="#5E5E5A" stroke-width="0.15" stroke-linecap="round" stroke-linejoin="round"/>
<path d="M1.36293 16.3679C0.592931 18.0879 1.04293 22.7379 2.76293 22.7379C4.48293 22.7379 4.91293 22.4679 5.55293 23.1179C6.19293 23.7679 7.16293 22.7979 7.70293 22.9079C8.24293 23.0179 10.2129 24.4579 10.7529 21.5679C11.3029 18.6679 11.3529 14.3679 9.68293 14.6979C5.56293 15.4979 6.57293 11.1579 3.34293 15.5579C2.75293 16.3679 2.00293 14.9379 1.35293 16.3879L1.36293 16.3679Z" fill="white" stroke="#5E5E5A" stroke-width="0.15" stroke-linecap="round" stroke-linejoin="round"/>
</svg>
