<svg width="15" height="28" viewBox="0 0 15 28" fill="none" xmlns="http://www.w3.org/2000/svg">
<path d="M5.63281 20.1775C5.88281 17.6275 6.45283 15.0275 6.69283 12.4475C6.93283 9.86749 7.90281 7.78749 8.46281 3.86749C9.02281 -0.042515 10.3828 -0.222515 11.2128 1.79749C12.0428 3.81749 13.2528 9.26748 12.9928 12.2675C12.7228 15.2675 13.5728 18.7475 14.0928 20.1775H5.64282H5.63281Z" fill="#F4DE9C" stroke="#5E5E5A" stroke-width="0.15" stroke-linecap="round" stroke-linejoin="round"/>
<path d="M13.5716 26.8275C13.3416 26.8775 12.3216 27.4575 10.8616 27.3175C9.95164 27.2275 8.82163 27.5975 7.71163 27.1875C7.15163 26.9775 6.50163 26.9475 5.87163 26.7375C5.18163 26.5075 5.13164 23.7875 5.36164 21.2475C5.59164 18.7075 6.10163 19.3575 6.93163 17.9275C10.5516 11.6975 10.9716 17.2875 12.7616 17.4175C13.9016 17.4975 15.8216 26.3075 13.5716 26.8175V26.8275Z" fill="white" stroke="#5E5E5A" stroke-width="0.15" stroke-linecap="round" stroke-linejoin="round"/>
<path d="M14.5312 22.2373H14.0312" stroke="#5E5E5A" stroke-width="0.15" stroke-miterlimit="10"/>
<path d="M12.9906 22.2373H5.14062" stroke="#5E5E5A" stroke-width="0.15" stroke-miterlimit="10"/>
<path d="M4.60938 22.2373H4.10938" stroke="#5E5E5A" stroke-width="0.15" stroke-miterlimit="10"/>
<path d="M0.832031 22.2373H6.73203" stroke="#5E5E5A" stroke-width="0.16" stroke-miterlimit="10"/>
<path d="M5.68202 19.6777H0.832031" stroke="#5E5E5A" stroke-width="0.16" stroke-miterlimit="10"/>
<path d="M0.832031 22.3177V19.5977" stroke="#5E5E5A" stroke-width="0.16" stroke-miterlimit="10"/>
</svg>
