<svg width="11" height="27" viewBox="0 0 11 27" fill="none" xmlns="http://www.w3.org/2000/svg">
<path d="M0.511719 19.3071C0.581719 15.6471 1.46172 11.4171 2.00172 9.55713C2.54172 7.69713 2.92172 4.41713 4.25172 1.63713C5.58172 -1.14287 6.24172 1.36713 6.11172 2.56713C5.98172 3.76713 6.72172 8.56713 7.18172 10.5171C7.64172 12.4671 7.29172 15.9271 7.96172 19.3071H0.511719Z" fill="#F4DE9C" stroke="#5E5E5A" stroke-width="0.15" stroke-linecap="round" stroke-linejoin="round"/>
<path d="M7.11298 25.3972C8.13298 24.8072 7.95298 21.7672 8.00298 20.0072C8.09298 16.5872 4.22296 12.8572 1.55296 16.7572C0.702963 18.0072 0.292969 18.3672 0.292969 21.5372C0.292969 24.7072 1.06296 27.2972 3.02296 26.0772C4.97296 24.8572 4.93297 26.6572 7.12297 25.3972H7.11298Z" fill="white" stroke="#5E5E5A" stroke-width="0.15" stroke-linecap="round" stroke-linejoin="round"/>
<path d="M10.4219 21.2469V17.8369" stroke="#5E5E5A" stroke-width="0.16" stroke-miterlimit="10"/>
<path d="M7.54297 17.917H10.423" stroke="#5E5E5A" stroke-width="0.16" stroke-miterlimit="10"/>
<path d="M0.28125 21.167H0.78125" stroke="#5E5E5A" stroke-width="0.15" stroke-miterlimit="10"/>
<path d="M1.79297 21.167H8.91296H9.43297" stroke="#5E5E5A" stroke-width="0.15" stroke-miterlimit="10"/>
<path d="M9.94141 21.167H10.0814H10.4414" stroke="#5E5E5A" stroke-width="0.15" stroke-miterlimit="10"/>
<path d="M10.1405 21.167H6.73047" stroke="#5E5E5A" stroke-width="0.15" stroke-miterlimit="10"/>
<path opacity="0.7" d="M7.98125 21.1673C7.98125 20.7273 7.98124 20.3073 7.99124 19.9473C8.08124 16.5773 4.21124 12.8873 1.54124 16.7373C0.711245 17.9273 0.31125 18.3073 0.28125 21.1673H7.98125Z" fill="#76FF5A"/>
<path opacity="0.7" d="M7.60156 17.917C7.87156 18.567 8.02157 19.257 8.00157 19.947C7.99157 20.307 7.99156 20.727 7.99156 21.167H10.4316V17.917H7.61157H7.60156Z" fill="#76FF5A"/>
</svg>
