<svg width="12" height="33" viewBox="0 0 12 33" fill="none" xmlns="http://www.w3.org/2000/svg">
<path d="M2.67017 9.70716C3.44017 7.35716 4.46016 5.41716 4.76016 2.99716C5.06016 0.57716 6.06016 0.617161 6.59016 1.94716C7.12016 3.27716 7.64016 9.15716 7.80016 12.9772C7.96016 16.7972 7.68016 20.3972 8.35016 22.7072H1.66016C2.57016 19.4272 1.89017 12.0572 2.67017 9.70716Z" fill="#F4DE9C" stroke="#5E5E5A" stroke-width="0.15" stroke-linecap="round" stroke-linejoin="round"/>
<path d="M9.34172 28.9173C9.83172 26.8673 8.65172 24.1373 8.40172 22.8873C8.16172 21.6373 6.26173 20.0073 4.94173 20.0973C3.62173 20.1973 1.91173 21.2473 1.69173 22.0873C0.551728 26.4473 -0.688279 28.7173 1.37172 31.1173C2.69172 32.6473 4.74172 32.7973 6.20172 31.5473C7.66172 30.2973 8.79172 31.1673 9.32172 28.9173H9.34172Z" fill="white" stroke="#5E5E5A" stroke-width="0.15" stroke-linecap="round" stroke-linejoin="round"/>
<path d="M11.0487 27.2471H8.21875" stroke="#5E5E5A" stroke-width="0.16" stroke-miterlimit="10"/>
<path d="M11.0508 27.3175V22.1875" stroke="#5E5E5A" stroke-width="0.16" stroke-miterlimit="10"/>
<path d="M8.16016 22.2676H11.0502" stroke="#5E5E5A" stroke-width="0.16" stroke-miterlimit="10"/>
<path d="M0.25 27.2471H0.75" stroke="#5E5E5A" stroke-width="0.15" stroke-miterlimit="10"/>
<path d="M1.82031 27.2471H9.84032" stroke="#5E5E5A" stroke-width="0.15" stroke-miterlimit="10"/>
<path d="M10.3711 27.2471H10.8711" stroke="#5E5E5A" stroke-width="0.15" stroke-miterlimit="10"/>
<path opacity="0.7" d="M9.42157 27.2273C9.27157 25.5473 8.58157 23.8073 8.40157 22.8873C8.16157 21.6373 6.26157 20.0073 4.94157 20.0973C3.62157 20.1973 1.91157 21.2473 1.69157 22.0873C1.13157 24.2173 0.561562 25.8373 0.351562 27.2273H9.42157Z" fill="#76FF5A"/>
<path opacity="0.7" d="M8.14937 22.2676C8.25937 22.4776 8.35937 22.6876 8.39937 22.8876C8.57937 23.8076 9.27937 25.5476 9.41937 27.2276H7.35938V27.2476H11.0394V22.2776H8.14937V22.2676Z" fill="#76FF5A"/>
</svg>
