<svg width="15" height="29" viewBox="0 0 15 29" fill="none" xmlns="http://www.w3.org/2000/svg">
<path d="M4.52234 5.97711C4.72234 3.16711 4.91234 1.03711 4.43234 1.03711C2.75234 1.03711 1.77234 7.15711 1.71234 7.87711C1.60234 9.30711 1.58234 11.1471 1.54234 12.4071C1.41234 16.2771 1.15234 18.9871 1.15234 18.9871C2.49234 15.9071 3.03234 13.3271 3.27234 11.5471C3.38234 10.7571 3.86234 8.48711 4.52234 5.96711V5.97711Z" fill="#EDD091" stroke="#5E5E5A" stroke-width="0.15" stroke-linecap="round" stroke-linejoin="round"/>
<path d="M1.16406 18.997L4.87407 18.957L1.16406 18.997Z" fill="#EDD091" stroke="#5E5E5A" stroke-width="0.15" stroke-linecap="round" stroke-linejoin="round"/>
<path d="M1.16406 18.9971L9.75407 18.8871C9.75407 18.8871 7.76407 10.9271 7.61407 2.67711C7.61407 2.28711 7.29407 1.03711 6.70407 1.03711C6.00407 1.03711 5.65406 2.05711 5.52406 2.47711C4.39406 6.08711 3.44407 10.4071 3.28407 11.5571C3.04407 13.3371 2.50406 15.9171 1.16406 18.9971Z" fill="#F4DE9C" stroke="#5E5E5A" stroke-width="0.15" stroke-linecap="round" stroke-linejoin="round"/>
<path d="M10.8812 24.2771C10.8812 22.3271 10.2912 19.2871 9.1712 17.9771C8.4312 17.1071 6.8312 16.3171 5.6112 16.4871C4.3912 16.6571 3.95119 18.0671 3.02119 18.0271C2.10119 17.9871 1.26119 17.7871 1.07119 19.5371C0.87119 21.2971 0.481195 21.4371 0.311195 22.5671C0.141195 23.6871 -0.248811 24.6471 1.85119 25.4871C3.95119 26.3271 4.4712 28.8671 6.3312 28.3071C8.2012 27.7471 7.95119 26.6771 9.27119 26.1871C10.5912 25.6971 10.8812 25.0171 10.8812 24.2871V24.2771Z" fill="white" stroke="#5E5E5A" stroke-width="0.15" stroke-linecap="round" stroke-linejoin="round"/>
<path d="M14.5214 23.2373H9.44141" stroke="#5E5E5A" stroke-width="0.16" stroke-miterlimit="10"/>
<path d="M14.5234 23.2275V18.1875" stroke="#5E5E5A" stroke-width="0.16" stroke-miterlimit="10"/>
<path d="M9.375 18.2676H14.445" stroke="#5E5E5A" stroke-width="0.16" stroke-miterlimit="10"/>
<path d="M0.203125 23.2373H0.703125" stroke="#5E5E5A" stroke-width="0.15" stroke-miterlimit="10"/>
<path d="M1.68359 23.2373H12.9636" stroke="#5E5E5A" stroke-width="0.15" stroke-miterlimit="10"/>
<path d="M13.4531 23.2373H13.9531" stroke="#5E5E5A" stroke-width="0.15" stroke-miterlimit="10"/>
<path opacity="0.7" d="M10.8331 23.2371C10.6731 21.3671 10.1131 19.0771 9.17313 17.9771C8.43313 17.1071 6.83313 16.3171 5.61313 16.4871C4.39313 16.6571 3.95312 18.0671 3.02312 18.0271C2.10312 17.9871 1.26312 17.7871 1.07312 19.5371C0.87312 21.2971 0.483126 21.4371 0.313126 22.5671C0.283126 22.7971 0.233125 23.0171 0.203125 23.2371H10.8331Z" fill="#76FF5A"/>
<path opacity="0.7" d="M9.38281 18.2676C10.1928 19.4476 10.6828 21.5176 10.8328 23.2376H14.5228V18.2676H9.38281Z" fill="#76FF5A"/>
</svg>
