<svg width="15" height="27" viewBox="0 0 15 27" fill="none" xmlns="http://www.w3.org/2000/svg">
<path d="M5.87891 17.9969C5.87891 15.8669 6.44892 11.9369 6.85892 9.30686C7.26892 6.67686 8.81892 5.94686 8.52892 3.26686C8.23892 0.576856 9.45891 0.046856 10.5189 2.02686C11.5789 4.00686 12.2289 6.64686 11.9489 9.57686C11.6689 12.5069 12.2589 14.2269 13.8989 18.0069H5.88892L5.87891 17.9969Z" fill="#F4DE9C" stroke="#5E5E5A" stroke-width="0.15" stroke-linecap="round" stroke-linejoin="round"/>
<path d="M14.0504 24.4167C13.5604 25.2467 11.9405 25.0967 11.6905 25.7867C11.4505 26.4667 9.02045 26.7667 8.34045 25.5867C7.66045 24.4167 6.39045 23.9767 6.09045 22.8567C5.80045 21.7367 5.46045 17.3367 6.09045 16.8967C6.72045 16.4567 7.79046 16.9967 8.33046 16.4067C8.87046 15.8167 10.2104 14.2067 11.1304 15.2367C12.0504 16.2667 12.2205 16.9567 12.9705 17.1167C14.9305 17.5267 14.4004 23.8167 14.0504 24.4167Z" fill="white" stroke="#5E5E5A" stroke-width="0.15" stroke-linecap="round" stroke-linejoin="round"/>
<path d="M14.3906 21.2373H13.8906" stroke="#5E5E5A" stroke-width="0.15" stroke-miterlimit="10"/>
<path d="M12.9498 21.2373H5.83984" stroke="#5E5E5A" stroke-width="0.15" stroke-miterlimit="10"/>
<path d="M5.37109 21.2373H4.87109" stroke="#5E5E5A" stroke-width="0.15" stroke-miterlimit="10"/>
<path d="M0.519531 21.2373H7.33954" stroke="#5E5E5A" stroke-width="0.16" stroke-miterlimit="10"/>
<path d="M0.519531 21.2268V17.0068" stroke="#5E5E5A" stroke-width="0.16" stroke-miterlimit="10"/>
<path d="M5.89954 17.0771H0.519531" stroke="#5E5E5A" stroke-width="0.16" stroke-miterlimit="10"/>
</svg>
