<svg width="15" height="28" viewBox="0 0 15 28" fill="none" xmlns="http://www.w3.org/2000/svg">
<path d="M6.49119 2.25701C6.72119 -0.0229905 8.1212 0.56701 8.2212 2.47701C8.3212 4.38701 9.1812 8.16701 10.3312 11.917L6.3112 12.407C5.9512 11.027 6.25119 4.53701 6.49119 2.25701Z" fill="#F4DE9C" stroke="#5E5E5A" stroke-width="0.15" stroke-linecap="round" stroke-linejoin="round"/>
<path d="M13.3523 18.0375C12.2823 15.6875 11.7823 15.8775 12.2723 13.6275C12.7623 11.3775 13.7123 8.86749 12.2223 5.09749C10.7323 1.32749 8.45226 -0.42251 8.87226 2.24749C9.29226 4.91749 9.95226 7.75749 9.22226 9.78749C8.49226 11.8175 6.83225 12.2975 6.30225 9.96749C5.77225 7.63749 5.74225 5.93749 5.71225 4.42749C5.68225 2.92749 5.44226 -0.15251 4.26226 1.84749C3.09226 3.84749 2.25226 7.00749 2.67226 11.0875C2.67226 11.0875 3.63226 16.2575 2.75226 18.0475H13.3523V18.0375Z" fill="#F4DE9C" stroke="#5E5E5A" stroke-width="0.15" stroke-linecap="round" stroke-linejoin="round"/>
<path d="M13.4001 18.0171C14.1701 19.4171 14.4702 24.7371 13.8302 25.6671C13.2002 26.5971 11.4901 26.7371 10.8001 26.0571C10.1101 25.3771 9.90014 26.1471 9.29014 26.4871C8.68014 26.8171 8.14015 26.1971 7.48015 26.8471C6.23015 28.0671 3.82014 27.2371 3.13014 24.3571C2.45014 21.4771 2.30015 18.8871 2.64015 18.0071C2.98015 17.1271 4.64015 18.5471 5.81015 17.4671C6.98015 16.3971 8.69015 16.4371 10.1102 17.0771C11.5302 17.7171 12.2601 15.9771 13.3901 18.0271L13.4001 18.0171Z" fill="white" stroke="#5E5E5A" stroke-width="0.15" stroke-linecap="round" stroke-linejoin="round"/>
<path d="M14.1484 22.2373H13.6484" stroke="#5E5E5A" stroke-width="0.15" stroke-miterlimit="10"/>
<path d="M12.6003 22.2373H2.57031" stroke="#5E5E5A" stroke-width="0.15" stroke-miterlimit="10"/>
<path d="M2.03906 22.2373H1.53906" stroke="#5E5E5A" stroke-width="0.15" stroke-miterlimit="10"/>
<path d="M0.980469 22.2373H4.02046" stroke="#5E5E5A" stroke-width="0.16" stroke-miterlimit="10"/>
<path d="M1.05859 22.2269V17.5869" stroke="#5E5E5A" stroke-width="0.16" stroke-miterlimit="10"/>
<path d="M2.90858 17.667H1.05859" stroke="#5E5E5A" stroke-width="0.16" stroke-miterlimit="10"/>
</svg>
