<svg width="14" height="25" viewBox="0 0 14 25" fill="none" xmlns="http://www.w3.org/2000/svg">
<path d="M5.32085 2.22749C5.41085 0.227494 6.71083 0.647495 6.90083 2.31749C7.10083 3.97749 8.08084 7.22749 9.34084 10.4375L5.72084 11.1175C5.32084 9.93749 5.24085 4.23749 5.32085 2.22749Z" fill="#F4DE9C" stroke="#5E5E5A" stroke-width="0.15" stroke-linecap="round" stroke-linejoin="round"/>
<path d="M1.71067 9.03782C2.05067 7.03782 1.93069 4.16781 2.91069 1.49781C3.89069 -1.17219 4.66069 0.677815 4.41069 1.90781C4.16069 3.14781 4.66067 5.55781 5.33067 6.92781C6.00067 8.29781 6.79067 11.0378 8.21067 9.93781C9.63067 8.83781 8.84069 5.14781 8.04069 2.38781C7.24069 -0.372186 8.84068 0.317815 9.43068 1.56781C10.0107 2.81781 12.1807 6.03781 12.1407 9.52781C12.1007 13.0178 11.8207 14.2778 12.8707 16.1578L1.72068 16.3178C1.37068 13.4578 1.36067 11.0478 1.71067 9.04782V9.03782Z" fill="#F4DE9C" stroke="#5E5E5A" stroke-width="0.15" stroke-linecap="round" stroke-linejoin="round"/>
<path d="M12.6127 15.697C14.0227 17.897 14.1227 21.507 12.4127 22.487C10.7027 23.467 9.72267 22.487 8.89267 22.727C8.06267 22.967 5.71267 25.507 3.86267 23.797C1.87267 21.957 0.982669 16.577 1.86267 15.357C3.75267 12.737 5.42269 15.757 8.04269 14.247C8.90269 13.747 11.1927 13.507 12.6027 15.707L12.6127 15.697Z" fill="white" stroke="#5E5E5A" stroke-width="0.15" stroke-linecap="round" stroke-linejoin="round"/>
<path d="M13.6797 19.2373H13.1797" stroke="#5E5E5A" stroke-width="0.15" stroke-miterlimit="10"/>
<path d="M12.0986 19.2373H1.80859" stroke="#5E5E5A" stroke-width="0.15" stroke-miterlimit="10"/>
<path d="M1.26953 19.2373H0.769531" stroke="#5E5E5A" stroke-width="0.15" stroke-miterlimit="10"/>
<path d="M0.199219 19.2373H3.23921" stroke="#5E5E5A" stroke-width="0.16" stroke-miterlimit="10"/>
<path d="M0.277344 19.2274V15.5674" stroke="#5E5E5A" stroke-width="0.16" stroke-miterlimit="10"/>
<path d="M1.71735 15.6475H0.277344" stroke="#5E5E5A" stroke-width="0.16" stroke-miterlimit="10"/>
</svg>
