<svg width="11" height="24" viewBox="0 0 11 24" fill="none" xmlns="http://www.w3.org/2000/svg">
<path d="M4.55093 2.16726C4.97093 0.207255 6.18095 0.837255 6.10095 2.50725C6.02095 4.17725 6.46093 7.54725 7.17093 10.9173L3.49094 10.9873C3.29094 9.75725 4.14094 4.11726 4.56094 2.15726L4.55093 2.16726Z" fill="#F4DE9C" stroke="#5E5E5A" stroke-width="0.15" stroke-linecap="round" stroke-linejoin="round"/>
<path d="M0.691406 16.4071C1.32141 12.8271 0.751396 7.89711 1.1814 6.05711C1.6114 4.21711 2.19139 1.08711 3.36139 0.727113C4.52139 0.367113 4.2014 3.42711 3.6214 5.96711C3.0314 8.50711 3.65139 10.3671 5.74139 10.7071C7.82139 11.0471 6.2614 5.73711 6.5014 2.59711C6.7414 -0.542887 8.50139 0.277113 8.33139 2.25711C8.15139 4.23711 10.1414 8.55711 10.0414 9.69711C9.94141 10.8471 9.34141 13.6571 10.2214 16.3971H0.711395L0.691406 16.4071Z" fill="#F4DE9C" stroke="#5E5E5A" stroke-width="0.15" stroke-linecap="round" stroke-linejoin="round"/>
<path d="M10.2022 16.3972C10.9722 18.1172 10.5222 22.7672 8.80222 22.7672C7.08222 22.7672 6.65225 22.4972 6.01225 23.1472C5.37225 23.7972 4.40222 22.8272 3.86222 22.9372C3.32222 23.0472 1.35223 24.4872 0.812233 21.5972C0.262233 18.6972 0.212241 14.3972 1.88224 14.7272C6.00224 15.5272 4.99224 11.1872 8.22224 15.5872C8.81224 16.3972 9.56223 14.9672 10.2122 16.4172L10.2022 16.3972Z" fill="white" stroke="#5E5E5A" stroke-width="0.15" stroke-linecap="round" stroke-linejoin="round"/>
</svg>
