<svg width="14" height="24" viewBox="0 0 14 24" fill="none" xmlns="http://www.w3.org/2000/svg">
<path d="M13.2803 8.43723C12.9903 9.90723 11.9503 15.0472 11.1703 20.0272C10.8003 22.4072 10.0203 24.3972 9.30031 21.8872C8.58031 19.3772 8.13031 15.9172 7.90031 13.2672C7.67031 10.6172 6.93031 9.09723 6.82031 8.40723L13.2803 8.43723Z" fill="#F4DE9C" stroke="#5E5E5A" stroke-width="0.15" stroke-linecap="round" stroke-linejoin="round"/>
<path d="M13.2419 8.71764C12.9919 10.1276 11.8919 9.69763 11.3519 10.4176C10.8119 11.1376 9.67195 11.2576 8.95195 10.4176C8.23195 9.57763 6.85195 9.35763 6.73195 7.99763C6.61195 6.63763 5.77195 1.56763 6.73195 0.897631C7.69195 0.237631 12.662 -0.112369 13.232 0.897631C13.802 1.90763 13.522 7.07764 13.232 8.71764H13.2419Z" fill="white" stroke="#5E5E5A" stroke-width="0.15" stroke-linecap="round" stroke-linejoin="round"/>
<path d="M13.5703 2.97754H13.0703" stroke="#5E5E5A" stroke-width="0.15" stroke-miterlimit="10"/>
<path d="M12.0612 2.97754H4.53125" stroke="#5E5E5A" stroke-width="0.15" stroke-miterlimit="10"/>
<path d="M4.03125 2.97754H3.53125" stroke="#5E5E5A" stroke-width="0.15" stroke-miterlimit="10"/>
<path d="M0.832031 2.97754H6.22203" stroke="#5E5E5A" stroke-width="0.16" stroke-miterlimit="10"/>
<path d="M6.92203 8.64746H0.832031" stroke="#5E5E5A" stroke-width="0.16" stroke-miterlimit="10"/>
<path d="M0.832031 2.9873V8.7273" stroke="#5E5E5A" stroke-width="0.16" stroke-miterlimit="10"/>
</svg>
