<svg width="12" height="25" viewBox="0 0 12 25" fill="none" xmlns="http://www.w3.org/2000/svg">
<path d="M10.8928 7.91699C10.7028 9.70699 9.04281 14.557 8.46281 21.157C8.22281 23.847 7.17282 26.067 6.36282 23.247C5.55282 20.427 5.04282 16.547 4.79282 13.567C4.54282 10.587 3.64281 8.82699 3.38281 7.91699H10.8928Z" fill="#F4DE9C" stroke="#5E5E5A" stroke-width="0.15" stroke-linecap="round" stroke-linejoin="round"/>
<path d="M10.0504 0.467018C9.05043 0.0370175 7.84044 1.04702 7.39044 0.737018C6.94044 0.427018 4.69043 -0.152982 4.10043 0.757018C3.51043 1.66702 2.85044 6.06702 3.31044 7.67702C3.76044 9.28702 6.24044 12.147 7.17044 11.737C8.10044 11.327 10.4704 9.63702 10.6404 9.12702C11.2104 7.42702 11.5004 1.08702 10.0604 0.467018H10.0504Z" fill="white" stroke="#5E5E5A" stroke-width="0.15" stroke-linecap="round" stroke-linejoin="round"/>
<path d="M10.9727 2.97656H10.4727" stroke="#5E5E5A" stroke-width="0.15" stroke-miterlimit="10"/>
<path d="M9.4736 2.97656H1.93359" stroke="#5E5E5A" stroke-width="0.15" stroke-miterlimit="10"/>
<path d="M1.43359 2.97656H0.933594" stroke="#5E5E5A" stroke-width="0.15" stroke-miterlimit="10"/>
<path d="M0.921875 2.97656H3.62187" stroke="#5E5E5A" stroke-width="0.16" stroke-miterlimit="10"/>
<path d="M1 2.98633V8.72633" stroke="#5E5E5A" stroke-width="0.16" stroke-miterlimit="10"/>
<path d="M3.7314 8.64648H0.941406" stroke="#5E5E5A" stroke-width="0.16" stroke-miterlimit="10"/>
</svg>
