<svg width="12" height="30" viewBox="0 0 12 30" fill="none" xmlns="http://www.w3.org/2000/svg">
<path d="M3.61937 7.57715L11.0894 7.63715C10.2894 9.63715 10.2194 14.4771 10.1794 18.5071C10.1494 22.3671 9.32936 24.7971 8.29936 27.8871C7.26936 30.9771 6.08938 30.1571 6.07938 27.5771C6.05938 24.9971 5.35936 22.8871 4.40936 19.3671C3.97936 17.7771 3.90937 16.4471 3.91937 13.3871C3.92937 10.3271 3.73937 8.32715 3.60938 7.57715H3.61937Z" fill="#F4DE9C" stroke="#5E5E5A" stroke-width="0.15" stroke-linecap="round" stroke-linejoin="round"/>
<path d="M10.0514 10.2875C11.3714 8.41745 11.5114 4.96745 11.3014 4.03745C11.0914 3.10745 7.80142 0.127451 7.01142 0.157451C6.22142 0.187451 3.85143 1.10745 3.47143 1.99745C3.08143 2.87745 3.29142 7.05745 3.99142 8.89745C4.69142 10.7375 7.26142 12.7475 7.88142 12.4275C8.50142 12.0975 9.36141 11.2874 10.0514 10.2974V10.2875Z" fill="white" stroke="#5E5E5A" stroke-width="0.15" stroke-linecap="round" stroke-linejoin="round"/>
<path d="M10.6016 2.96777H10.1016" stroke="#5E5E5A" stroke-width="0.15" stroke-miterlimit="10"/>
<path d="M9.0925 2.96777H1.5625" stroke="#5E5E5A" stroke-width="0.15" stroke-miterlimit="10"/>
<path d="M1.0625 2.96777H0.5625" stroke="#5E5E5A" stroke-width="0.15" stroke-miterlimit="10"/>
<path d="M0.550781 2.96777H3.25079" stroke="#5E5E5A" stroke-width="0.16" stroke-miterlimit="10"/>
<path d="M0.628906 2.97754V8.72754" stroke="#5E5E5A" stroke-width="0.16" stroke-miterlimit="10"/>
<path d="M3.81032 8.64746H0.570312" stroke="#5E5E5A" stroke-width="0.16" stroke-miterlimit="10"/>
</svg>
