<svg width="12" height="25" viewBox="0 0 12 25" fill="none" xmlns="http://www.w3.org/2000/svg">
<path d="M11.2712 7.70727C10.7212 10.3973 10.2812 12.4173 9.74124 14.4473C9.28124 16.1973 8.64125 17.8673 8.86125 21.0373C9.05125 23.8373 8.68125 26.1673 7.28125 23.4673C5.88125 20.7673 5.22124 16.4473 5.13124 13.3373C5.04124 10.2373 4.29125 8.63727 4.03125 7.69727H11.2812L11.2712 7.70727Z" fill="#F4DE9C" stroke="#5E5E5A" stroke-width="0.15" stroke-linecap="round" stroke-linejoin="round"/>
<path d="M10.6309 8.78717C11.4509 7.96717 11.9509 5.47717 11.8809 4.08717C11.8109 2.70717 11.3109 2.61717 10.1809 1.68717C9.05095 0.757169 7.64095 -0.31283 6.62095 0.36717C4.01095 2.10717 2.37096 1.05717 3.53096 5.26717C4.12096 7.39717 3.92096 8.73717 4.78096 9.57717C5.64096 10.4172 6.73094 11.4872 7.80094 11.1672C8.87094 10.8472 10.081 9.33717 10.641 8.78717H10.6309Z" fill="white" stroke="#5E5E5A" stroke-width="0.15" stroke-linecap="round" stroke-linejoin="round"/>
<path d="M11.582 2.9668H11.082" stroke="#5E5E5A" stroke-width="0.15" stroke-miterlimit="10"/>
<path d="M9.99249 2.9668H1.8125" stroke="#5E5E5A" stroke-width="0.15" stroke-miterlimit="10"/>
<path d="M1.26172 2.9668H0.761719" stroke="#5E5E5A" stroke-width="0.15" stroke-miterlimit="10"/>
<path d="M0.75 2.9668H3.45" stroke="#5E5E5A" stroke-width="0.16" stroke-miterlimit="10"/>
<path d="M0.828125 2.97656V8.71656" stroke="#5E5E5A" stroke-width="0.16" stroke-miterlimit="10"/>
<path d="M4.22954 8.63672H0.769531" stroke="#5E5E5A" stroke-width="0.16" stroke-miterlimit="10"/>
</svg>
