<svg width="12" height="25" viewBox="0 0 12 25" fill="none" xmlns="http://www.w3.org/2000/svg">
<path d="M11.1195 8.91699C10.5695 11.597 10.1495 13.877 9.77954 15.947C9.45954 17.727 8.15954 20.277 8.63954 21.737C9.49954 24.407 9.20954 25.747 7.05954 23.597C4.98954 21.517 4.81954 17.857 4.72954 14.757C4.63954 11.657 3.75953 10.337 3.01953 8.91699H11.1195Z" fill="#F4DE9C" stroke="#5E5E5A" stroke-width="0.15" stroke-linecap="round" stroke-linejoin="round"/>
<path d="M11.489 7.59689C11.909 5.80689 11.449 3.81689 10.129 2.98689C8.80903 2.15689 6.58904 0.606889 5.50904 1.02689C4.42904 1.44689 4.29905 1.94689 3.57905 2.25689C2.85905 2.56689 1.69903 4.03689 1.79903 6.01689C1.89903 7.99689 3.54904 9.39689 3.89904 10.1869C4.24904 10.9769 6.79905 13.3469 8.46905 11.7269C10.139 10.1069 10.749 10.7569 11.499 7.59689H11.489Z" fill="white" stroke="#5E5E5A" stroke-width="0.15" stroke-linecap="round" stroke-linejoin="round"/>
<path d="M11.0625 3.95703H10.5625" stroke="#5E5E5A" stroke-width="0.15" stroke-miterlimit="10"/>
<path d="M9.46124 3.95703H1.28125" stroke="#5E5E5A" stroke-width="0.15" stroke-miterlimit="10"/>
<path d="M0.742188 3.95703H0.242188" stroke="#5E5E5A" stroke-width="0.15" stroke-miterlimit="10"/>
<path d="M0.230469 3.95703H2.93047" stroke="#5E5E5A" stroke-width="0.16" stroke-miterlimit="10"/>
<path d="M0.308594 3.9668V9.7168" stroke="#5E5E5A" stroke-width="0.16" stroke-miterlimit="10"/>
<path d="M3.56219 9.63672H0.242188" stroke="#5E5E5A" stroke-width="0.16" stroke-miterlimit="10"/>
</svg>
