<svg width="15" height="25" viewBox="0 0 15 25" fill="none" xmlns="http://www.w3.org/2000/svg">
<path d="M2.48059 8.97656L13.9306 9.27657C13.4106 10.6866 13.3906 11.3066 13.2706 12.5866C13.1506 13.8666 13.1006 16.5166 13.3006 17.8666C13.5006 19.2066 14.0206 23.3566 13.3506 23.9466C12.6806 24.5466 11.7806 23.3366 11.2006 21.8266C10.6206 20.3166 9.92059 18.7566 9.64059 16.3366C9.36059 13.9166 8.74059 13.8766 8.25059 14.4766C7.76059 15.0766 7.30059 18.5266 7.09059 19.8266C6.88059 21.1266 8.16058 24.5966 6.88058 24.3166C5.60058 24.0366 4.39059 21.6566 3.78059 20.3166C3.17059 18.9766 2.28058 16.9966 2.52058 14.8766C2.75058 12.7566 2.89058 10.0266 2.49058 8.98656L2.48059 8.97656Z" fill="#F4DE9C" stroke="#5E5E5A" stroke-width="0.15" stroke-linecap="round" stroke-linejoin="round"/>
<path d="M14.1512 8.87699C14.8012 7.01699 15.2512 3.88699 13.6212 2.77699C9.30121 -0.173008 8.47121 1.55699 6.93121 1.26699C5.78121 1.05699 3.45121 0.566991 2.02121 1.55699C0.591206 2.54699 1.01121 6.82699 1.81121 8.16699C2.61121 9.50699 3.65121 9.67699 4.95121 9.59699C6.25121 9.51699 7.84121 10.607 9.52121 10.097C11.2012 9.59699 13.6312 10.337 14.1412 8.87699H14.1512Z" fill="white" stroke="#5E5E5A" stroke-width="0.15" stroke-linecap="round" stroke-linejoin="round"/>
<path d="M14.5 3.95703H14" stroke="#5E5E5A" stroke-width="0.15" stroke-miterlimit="10"/>
<path d="M13.0422 3.95703H1.99219" stroke="#5E5E5A" stroke-width="0.15" stroke-miterlimit="10"/>
<path d="M1.51172 3.95703H1.01172" stroke="#5E5E5A" stroke-width="0.15" stroke-miterlimit="10"/>
<path d="M0.441406 3.95703H3.6114" stroke="#5E5E5A" stroke-width="0.16" stroke-miterlimit="10"/>
<path d="M0.519531 3.9668V9.2468" stroke="#5E5E5A" stroke-width="0.16" stroke-miterlimit="10"/>
<path d="M2.73125 9.16699H0.53125" stroke="#5E5E5A" stroke-width="0.16" stroke-miterlimit="10"/>
</svg>
