<svg width="15" height="24" viewBox="0 0 15 24" fill="none" xmlns="http://www.w3.org/2000/svg">
<path d="M9.61093 7.73754H13.7309C13.3809 8.46754 12.6009 10.9575 12.6109 12.0375C12.6109 13.1175 13.4709 14.7475 13.2109 16.3575C12.9509 17.9675 12.131 22.4975 11.291 23.2375C10.461 23.9875 9.81094 21.4675 9.81094 18.9175C9.81094 16.3675 8.55094 13.4975 7.96094 13.4975C6.96094 13.4975 6.65095 17.0375 6.85095 17.7375C7.05095 18.4375 7.86094 23.9875 6.74094 23.6175C5.62094 23.2575 3.91094 20.4775 3.81094 18.5175C3.72094 16.5575 3.82095 14.0375 3.69095 13.0575C3.56095 12.0775 2.86094 9.08754 2.46094 7.72754H9.61093V7.73754Z" fill="#F4DE9C" stroke="#5E5E5A" stroke-width="0.15" stroke-linecap="round" stroke-linejoin="round"/>
<path d="M13.3319 8.79775C14.2119 6.96775 14.6419 3.35776 12.4119 2.22776C10.1819 1.09776 8.51192 2.29775 7.44192 1.62775C6.37192 0.957754 3.15191 0.127754 2.49191 2.80775C1.83191 5.48775 2.3619 7.70775 2.6719 8.47775C2.9819 9.23775 3.93191 8.98776 4.74191 8.81776C5.55191 8.65776 7.00192 10.2178 7.84192 10.2278C9.91192 10.2478 10.5919 8.38775 11.5819 8.47775C12.5719 8.56775 12.8919 9.72775 13.3419 8.80775L13.3319 8.79775Z" fill="white" stroke="#5E5E5A" stroke-width="0.15" stroke-linecap="round" stroke-linejoin="round"/>
<path d="M13.7305 3.95801H13.2305" stroke="#5E5E5A" stroke-width="0.15" stroke-miterlimit="10"/>
<path d="M12.1805 3.95801H2.23047" stroke="#5E5E5A" stroke-width="0.15" stroke-miterlimit="10"/>
<path d="M1.69922 3.95801H1.19922" stroke="#5E5E5A" stroke-width="0.15" stroke-miterlimit="10"/>
<path d="M0.640625 3.95801H3.81062" stroke="#5E5E5A" stroke-width="0.16" stroke-miterlimit="10"/>
<path d="M0.71875 3.96777V8.87777" stroke="#5E5E5A" stroke-width="0.16" stroke-miterlimit="10"/>
<path d="M2.92874 8.79785H0.71875" stroke="#5E5E5A" stroke-width="0.16" stroke-miterlimit="10"/>
</svg>
