<svg width="13" height="22" viewBox="0 0 13 22" fill="none" xmlns="http://www.w3.org/2000/svg">
<path d="M2.3125 6.9375H11.6525C10.9725 8.0575 11.8725 9.3175 12.0325 10.7075C12.1925 12.0975 12.8225 11.5975 12.7025 14.7475C12.5825 17.8875 12.0725 18.6975 11.6225 19.9475C11.1725 21.2075 10.0325 21.9975 9.74249 20.1975C9.45249 18.3975 10.2725 14.4675 9.54251 13.0175C8.81251 11.5675 8.1525 11.0875 7.7825 12.0975C7.4125 13.1075 6.72249 13.6275 6.89249 14.9375C7.06249 16.2475 8.15251 18.5175 8.41251 19.7775C8.67251 21.0375 8.3425 21.9675 6.5025 19.9875C4.6625 18.0075 3.2725 16.7075 3.5025 14.1775C3.7325 11.6475 3.4525 10.6475 3.1925 9.5975C2.9325 8.5475 2.5925 7.8775 2.3125 6.9475V6.9375Z" fill="#F4DE9C" stroke="#5E5E5A" stroke-width="0.15" stroke-linecap="round" stroke-linejoin="round"/>
<path d="M10.9415 8.4675C12.0915 7.6475 12.9015 5.67749 12.5315 3.58749C12.1615 1.50749 11.1315 2.04749 10.5915 1.94749C10.0515 1.84749 9.12151 0.927491 7.75151 1.19749C6.37151 1.47749 5.8515 1.30749 4.5515 1.01749C3.2515 0.717495 1.9715 1.55749 1.9315 3.41749C1.8815 5.27749 1.93152 6.84749 2.76152 7.53749C3.59152 8.22749 6.1015 7.33749 6.9315 7.53749C7.7615 7.73749 9.18149 9.7375 10.9515 8.4675H10.9415Z" fill="white" stroke="#5E5E5A" stroke-width="0.15" stroke-linecap="round" stroke-linejoin="round"/>
<path d="M12.5898 3.95703H12.0898" stroke="#5E5E5A" stroke-width="0.15" stroke-miterlimit="10"/>
<path d="M11.1078 3.95703H1.75781" stroke="#5E5E5A" stroke-width="0.15" stroke-miterlimit="10"/>
<path d="M1.26953 3.95703H0.769531" stroke="#5E5E5A" stroke-width="0.15" stroke-miterlimit="10"/>
<path d="M0.199219 3.95703H3.23923" stroke="#5E5E5A" stroke-width="0.16" stroke-miterlimit="10"/>
<path d="M0.277344 3.9668V7.6268" stroke="#5E5E5A" stroke-width="0.16" stroke-miterlimit="10"/>
<path d="M2.48734 7.54688H0.277344" stroke="#5E5E5A" stroke-width="0.16" stroke-miterlimit="10"/>
</svg>
