<svg width="13" height="23" viewBox="0 0 13 23" fill="none" xmlns="http://www.w3.org/2000/svg">
<g clip-path="url(#clip0_227_2596)">
<path d="M0.359375 8.24973C0.649375 9.71973 1.68938 14.8597 2.46938 19.8397C2.83938 22.2197 3.61937 24.2097 4.33938 21.6997C5.05938 19.1897 5.50937 15.7297 5.73937 13.0797C5.96937 10.4297 6.70938 8.90973 6.81938 8.21973L0.359375 8.24973Z" fill="#F4DE9C" stroke="#5E5E5A" stroke-width="0.15" stroke-linecap="round" stroke-linejoin="round"/>
<path d="M0.410484 8.53013C0.660484 9.94013 1.76048 9.51013 2.30048 10.2301C2.84048 10.9501 3.98048 11.0701 4.70048 10.2301C5.42048 9.39013 6.80048 9.17013 6.92048 7.81013C7.04048 6.45013 7.88048 1.38013 6.92048 0.710131C5.96048 0.0501313 0.990484 -0.299869 0.420484 0.710131C-0.149516 1.72013 0.130484 6.89013 0.420484 8.53013H0.410484Z" fill="white" stroke="#5E5E5A" stroke-width="0.15" stroke-linecap="round" stroke-linejoin="round"/>
<path d="M0.078125 2.78027H0.578125" stroke="#5E5E5A" stroke-width="0.15" stroke-miterlimit="10"/>
<path d="M1.57812 2.78027H9.10812" stroke="#5E5E5A" stroke-width="0.15" stroke-miterlimit="10"/>
<path d="M9.61719 2.78027H10.1172" stroke="#5E5E5A" stroke-width="0.15" stroke-miterlimit="10"/>
<path d="M12.4702 2.78027H7.91016" stroke="#5E5E5A" stroke-width="0.16" stroke-miterlimit="10"/>
<path d="M12.4688 2.78027L12.4387 8.46027H6.71875" stroke="#5E5E5A" stroke-width="0.16" stroke-miterlimit="10"/>
</g>
<defs>
<clipPath id="clip0_227_2596">
<rect width="12.55" height="22.93" fill="white"/>
</clipPath>
</defs>
</svg>
