<svg width="12" height="25" viewBox="0 0 12 25" fill="none" xmlns="http://www.w3.org/2000/svg">
<path d="M1.12109 7.91699C1.31109 9.70699 2.97109 14.557 3.55109 21.157C3.79109 23.847 4.84109 26.067 5.65109 23.247C6.46109 20.427 6.97109 16.547 7.22109 13.567C7.47109 10.587 8.3711 8.82699 8.6311 7.91699H1.12109Z" fill="#F4DE9C" stroke="#5E5E5A" stroke-width="0.15" stroke-linecap="round" stroke-linejoin="round"/>
<path d="M1.96008 0.467018C2.96008 0.0370175 4.17009 1.04702 4.62009 0.737018C5.07009 0.427018 7.32009 -0.152982 7.91009 0.757018C8.50009 1.66702 9.16009 6.06702 8.70009 7.67702C8.25009 9.28702 5.77009 12.147 4.84009 11.737C3.91009 11.327 1.54009 9.63702 1.37009 9.12702C0.800086 7.42702 0.510088 1.08702 1.95009 0.467018H1.96008Z" fill="white" stroke="#5E5E5A" stroke-width="0.15" stroke-linecap="round" stroke-linejoin="round"/>
<path d="M1.03906 2.97656H1.53906" stroke="#5E5E5A" stroke-width="0.15" stroke-miterlimit="10"/>
<path d="M2.53906 2.97656H10.0791" stroke="#5E5E5A" stroke-width="0.15" stroke-miterlimit="10"/>
<path d="M10.5781 2.97656H11.0781" stroke="#5E5E5A" stroke-width="0.15" stroke-miterlimit="10"/>
<path d="M11.0906 2.97656H8.39062" stroke="#5E5E5A" stroke-width="0.16" stroke-miterlimit="10"/>
<path d="M11.0078 2.98633V8.72633" stroke="#5E5E5A" stroke-width="0.16" stroke-miterlimit="10"/>
<path d="M8.27734 8.64648H11.0673" stroke="#5E5E5A" stroke-width="0.16" stroke-miterlimit="10"/>
</svg>
