<svg width="12" height="30" viewBox="0 0 12 30" fill="none" xmlns="http://www.w3.org/2000/svg">
<path d="M8.38406 7.57715L0.914062 7.63715C1.71406 9.63715 1.78406 14.4771 1.82406 18.5071C1.85406 22.3671 2.67406 24.7971 3.70406 27.8871C4.73406 30.9771 5.91406 30.1571 5.92406 27.5771C5.94406 24.9971 6.64406 22.8871 7.59406 19.3671C8.02406 17.7771 8.09406 16.4471 8.08406 13.3871C8.07406 10.3271 8.26406 8.32715 8.39406 7.57715H8.38406Z" fill="#F4DE9C" stroke="#5E5E5A" stroke-width="0.15" stroke-linecap="round" stroke-linejoin="round"/>
<path d="M1.9621 10.2875C0.642105 8.41745 0.502105 4.96745 0.712105 4.03745C0.922105 3.10745 4.21211 0.127451 5.00211 0.157451C5.79211 0.187451 8.16211 1.10745 8.54211 1.99745C8.93211 2.87745 8.72211 7.05745 8.02211 8.89745C7.32211 10.7375 4.75211 12.7475 4.13211 12.4275C3.51211 12.0975 2.6521 11.2874 1.9621 10.2974V10.2875Z" fill="white" stroke="#5E5E5A" stroke-width="0.15" stroke-linecap="round" stroke-linejoin="round"/>
<path d="M1.41406 2.96777H1.91406" stroke="#5E5E5A" stroke-width="0.15" stroke-miterlimit="10"/>
<path d="M2.91406 2.96777H10.4541" stroke="#5E5E5A" stroke-width="0.15" stroke-miterlimit="10"/>
<path d="M10.9531 2.96777H11.4531" stroke="#5E5E5A" stroke-width="0.15" stroke-miterlimit="10"/>
<path d="M11.4656 2.96777H8.76562" stroke="#5E5E5A" stroke-width="0.16" stroke-miterlimit="10"/>
<path d="M11.3828 2.97754V8.72754" stroke="#5E5E5A" stroke-width="0.16" stroke-miterlimit="10"/>
<path d="M8.20312 8.64746H11.4431" stroke="#5E5E5A" stroke-width="0.16" stroke-miterlimit="10"/>
</svg>
