<svg width="12" height="25" viewBox="0 0 12 25" fill="none" xmlns="http://www.w3.org/2000/svg">
<path d="M0.740471 7.70727C1.29047 10.3973 1.73047 12.4173 2.27047 14.4473C2.73047 16.1973 3.37047 17.8673 3.15047 21.0373C2.96047 23.8373 3.33047 26.1673 4.73047 23.4673C6.13047 20.7673 6.79047 16.4473 6.88047 13.3373C6.97047 10.2373 7.72047 8.63727 7.98047 7.69727H0.730469L0.740471 7.70727Z" fill="#F4DE9C" stroke="#5E5E5A" stroke-width="0.15" stroke-linecap="round" stroke-linejoin="round"/>
<path d="M1.36979 8.78717C0.549788 7.96717 0.0497877 5.47717 0.119788 4.08717C0.189788 2.70717 0.689785 2.61717 1.81978 1.68717C2.94978 0.757169 4.35979 -0.31283 5.37979 0.36717C7.98979 2.10717 9.62979 1.05717 8.46979 5.26717C7.87979 7.39717 8.07979 8.73717 7.21979 9.57717C6.35979 10.4172 5.26979 11.4872 4.19979 11.1672C3.12979 10.8472 1.91979 9.33717 1.35979 8.78717H1.36979Z" fill="white" stroke="#5E5E5A" stroke-width="0.15" stroke-linecap="round" stroke-linejoin="round"/>
<path d="M0.417969 2.9668H0.917969" stroke="#5E5E5A" stroke-width="0.15" stroke-miterlimit="10"/>
<path d="M2.01953 2.9668H10.1995" stroke="#5E5E5A" stroke-width="0.15" stroke-miterlimit="10"/>
<path d="M10.7383 2.9668H11.2383" stroke="#5E5E5A" stroke-width="0.15" stroke-miterlimit="10"/>
<path d="M11.2469 2.9668H8.54688" stroke="#5E5E5A" stroke-width="0.16" stroke-miterlimit="10"/>
<path d="M11.168 2.97656V8.71656" stroke="#5E5E5A" stroke-width="0.16" stroke-miterlimit="10"/>
<path d="M7.77734 8.63672H11.2273" stroke="#5E5E5A" stroke-width="0.16" stroke-miterlimit="10"/>
</svg>
