<svg width="12" height="25" viewBox="0 0 12 25" fill="none" xmlns="http://www.w3.org/2000/svg">
<path d="M0.890625 8.91699C1.44063 11.597 1.86063 13.877 2.23063 15.947C2.55063 17.727 3.85062 20.277 3.37062 21.737C2.51062 24.407 2.80063 25.747 4.95063 23.597C7.02063 21.517 7.19063 17.857 7.28063 14.757C7.37063 11.657 8.25063 10.337 8.99063 8.91699H0.890625Z" fill="#F4DE9C" stroke="#5E5E5A" stroke-width="0.15" stroke-linecap="round" stroke-linejoin="round"/>
<path d="M0.509989 7.59689C0.0899887 5.80689 0.549989 3.81689 1.86999 2.98689C3.18999 2.15689 5.40999 0.606889 6.48999 1.02689C7.56999 1.44689 7.69999 1.94689 8.41999 2.25689C9.13999 2.56689 10.3 4.03689 10.2 6.01689C10.1 7.99689 8.44999 9.39689 8.09999 10.1869C7.74999 10.9769 5.19999 13.3469 3.52999 11.7269C1.85999 10.1069 1.24999 10.7569 0.49999 7.59689H0.509989Z" fill="white" stroke="#5E5E5A" stroke-width="0.15" stroke-linecap="round" stroke-linejoin="round"/>
<path d="M0.949219 3.95703H1.44922" stroke="#5E5E5A" stroke-width="0.15" stroke-miterlimit="10"/>
<path d="M2.53906 3.95703H10.7191" stroke="#5E5E5A" stroke-width="0.15" stroke-miterlimit="10"/>
<path d="M11.2695 3.95703H11.7695" stroke="#5E5E5A" stroke-width="0.15" stroke-miterlimit="10"/>
<path d="M11.7781 3.95703H9.07812" stroke="#5E5E5A" stroke-width="0.16" stroke-miterlimit="10"/>
<path d="M11.6992 3.9668V9.7168" stroke="#5E5E5A" stroke-width="0.16" stroke-miterlimit="10"/>
<path d="M8.4375 9.63672H11.7575" stroke="#5E5E5A" stroke-width="0.16" stroke-miterlimit="10"/>
</svg>
