<svg width="16" height="25" viewBox="0 0 16 25" fill="none" xmlns="http://www.w3.org/2000/svg">
<path d="M13.1805 8.97656L1.73047 9.27657C2.25047 10.6866 2.27047 11.3066 2.39047 12.5866C2.51047 13.8666 2.56047 16.5166 2.36047 17.8666C2.16047 19.2066 1.64047 23.3566 2.31047 23.9466C2.98047 24.5466 3.88047 23.3366 4.46047 21.8266C5.04047 20.3166 5.74047 18.7566 6.02047 16.3366C6.30047 13.9166 6.92047 13.8766 7.41047 14.4766C7.90047 15.0766 8.36047 18.5266 8.57047 19.8266C8.78047 21.1266 7.50047 24.5966 8.78047 24.3166C10.0605 24.0366 11.2705 21.6566 11.8805 20.3166C12.4905 18.9766 13.3805 16.9966 13.1405 14.8766C12.9105 12.7566 12.7705 10.0266 13.1705 8.98656L13.1805 8.97656Z" fill="#F4DE9C" stroke="#5E5E5A" stroke-width="0.15" stroke-linecap="round" stroke-linejoin="round"/>
<path d="M1.50042 8.87699C0.850421 7.01699 0.40042 3.88699 2.03042 2.77699C6.35042 -0.173008 7.18042 1.55699 8.72042 1.26699C9.87042 1.05699 12.2004 0.566991 13.6304 1.55699C15.0604 2.54699 14.6404 6.82699 13.8404 8.16699C13.0404 9.50699 12.0004 9.67699 10.7004 9.59699C9.40042 9.51699 7.81042 10.607 6.13042 10.097C4.45042 9.59699 2.02042 10.337 1.51042 8.87699H1.50042Z" fill="white" stroke="#5E5E5A" stroke-width="0.15" stroke-linecap="round" stroke-linejoin="round"/>
<path d="M1.16016 3.95703H1.66016" stroke="#5E5E5A" stroke-width="0.15" stroke-miterlimit="10"/>
<path d="M2.62109 3.95703H13.6711" stroke="#5E5E5A" stroke-width="0.15" stroke-miterlimit="10"/>
<path d="M14.1484 3.95703H14.6484" stroke="#5E5E5A" stroke-width="0.15" stroke-miterlimit="10"/>
<path d="M15.2091 3.95703H12.0391" stroke="#5E5E5A" stroke-width="0.16" stroke-miterlimit="10"/>
<path d="M15.1289 3.9668V9.2468" stroke="#5E5E5A" stroke-width="0.16" stroke-miterlimit="10"/>
<path d="M12.9297 9.16699H15.1297" stroke="#5E5E5A" stroke-width="0.16" stroke-miterlimit="10"/>
</svg>
