<svg width="15" height="24" viewBox="0 0 15 24" fill="none" xmlns="http://www.w3.org/2000/svg">
<path d="M5.05359 7.73754H0.933594C1.28359 8.46754 2.06359 10.9575 2.05359 12.0375C2.05359 13.1175 1.19359 14.7475 1.45359 16.3575C1.71359 17.9675 2.53359 22.4975 3.37359 23.2375C4.20359 23.9875 4.85359 21.4675 4.85359 18.9175C4.85359 16.3675 6.11359 13.4975 6.70359 13.4975C7.70359 13.4975 8.01359 17.0375 7.81359 17.7375C7.61359 18.4375 6.80359 23.9875 7.92359 23.6175C9.04359 23.2575 10.7536 20.4775 10.8536 18.5175C10.9436 16.5575 10.8436 14.0375 10.9736 13.0575C11.1036 12.0775 11.8036 9.08754 12.2036 7.72754H5.05359V7.73754Z" fill="#F4DE9C" stroke="#5E5E5A" stroke-width="0.15" stroke-linecap="round" stroke-linejoin="round"/>
<path d="M1.323 8.79775C0.443004 6.96775 0.0130038 3.35776 2.243 2.22776C4.473 1.09776 6.143 2.29775 7.213 1.62775C8.283 0.957754 11.503 0.127754 12.163 2.80775C12.813 5.48775 12.293 7.70775 11.983 8.47775C11.673 9.23775 10.723 8.98776 9.913 8.81776C9.103 8.65776 7.653 10.2178 6.813 10.2278C4.743 10.2478 4.063 8.38775 3.073 8.47775C2.083 8.56775 1.763 9.72775 1.313 8.80775L1.323 8.79775Z" fill="white" stroke="#5E5E5A" stroke-width="0.15" stroke-linecap="round" stroke-linejoin="round"/>
<path d="M0.933594 3.95801H1.43359" stroke="#5E5E5A" stroke-width="0.15" stroke-miterlimit="10"/>
<path d="M2.47266 3.95801H12.4327" stroke="#5E5E5A" stroke-width="0.15" stroke-miterlimit="10"/>
<path d="M12.9531 3.95801H13.4531" stroke="#5E5E5A" stroke-width="0.15" stroke-miterlimit="10"/>
<path d="M14.0255 3.95801H10.8555" stroke="#5E5E5A" stroke-width="0.16" stroke-miterlimit="10"/>
<path d="M13.9453 3.96777V8.87777" stroke="#5E5E5A" stroke-width="0.16" stroke-miterlimit="10"/>
<path d="M11.7344 8.79785H13.9344" stroke="#5E5E5A" stroke-width="0.16" stroke-miterlimit="10"/>
</svg>
