<svg width="13" height="22" viewBox="0 0 13 22" fill="none" xmlns="http://www.w3.org/2000/svg">
<path d="M10.702 6.9375H1.36197C2.04197 8.0575 1.14197 9.3175 0.98197 10.7075C0.82197 12.0975 0.19197 11.5975 0.31197 14.7475C0.43197 17.8875 0.94197 18.6975 1.39197 19.9475C1.84197 21.2075 2.98197 21.9975 3.27197 20.1975C3.56197 18.3975 2.74197 14.4675 3.47197 13.0175C4.20197 11.5675 4.86197 11.0875 5.23197 12.0975C5.60197 13.1075 6.29197 13.6275 6.12197 14.9375C5.95197 16.2475 4.86197 18.5175 4.60197 19.7775C4.34197 21.0375 4.67197 21.9675 6.51197 19.9875C8.35197 18.0075 9.74197 16.7075 9.51197 14.1775C9.28197 11.6475 9.56197 10.6475 9.82197 9.5975C10.082 8.5475 10.422 7.8775 10.702 6.9475V6.9375Z" fill="#F4DE9C" stroke="#5E5E5A" stroke-width="0.15" stroke-linecap="round" stroke-linejoin="round"/>
<path d="M2.06337 8.4675C0.913368 7.6475 0.103368 5.67749 0.473368 3.58749C0.843368 1.50749 1.87337 2.04749 2.41337 1.94749C2.95337 1.84749 3.88337 0.927491 5.25337 1.19749C6.63337 1.47749 7.15337 1.30749 8.45337 1.01749C9.75337 0.717495 11.0334 1.55749 11.0734 3.41749C11.1234 5.27749 11.0734 6.84749 10.2434 7.53749C9.41337 8.22749 6.90337 7.33749 6.07337 7.53749C5.24337 7.73749 3.82337 9.7375 2.05337 8.4675H2.06337Z" fill="white" stroke="#5E5E5A" stroke-width="0.15" stroke-linecap="round" stroke-linejoin="round"/>
<path d="M0.421875 3.95703H0.921875" stroke="#5E5E5A" stroke-width="0.15" stroke-miterlimit="10"/>
<path d="M1.90234 3.95703H11.2523" stroke="#5E5E5A" stroke-width="0.15" stroke-miterlimit="10"/>
<path d="M11.7422 3.95703H12.2422" stroke="#5E5E5A" stroke-width="0.15" stroke-miterlimit="10"/>
<path d="M12.8017 3.95703H9.76172" stroke="#5E5E5A" stroke-width="0.16" stroke-miterlimit="10"/>
<path d="M12.7227 3.9668V7.6268" stroke="#5E5E5A" stroke-width="0.16" stroke-miterlimit="10"/>
<path d="M10.5234 7.54688H12.7234" stroke="#5E5E5A" stroke-width="0.16" stroke-miterlimit="10"/>
</svg>
