<svg width="13" height="28" viewBox="0 0 13 28" fill="none" xmlns="http://www.w3.org/2000/svg">
<mask id="mask0_230_383" style="mask-type:luminance" maskUnits="userSpaceOnUse" x="0" y="16" width="13" height="12">
<path d="M11.7558 17.8867C12.5258 19.2867 12.9758 24.6267 12.3458 25.5567C11.7158 26.4867 10.0058 26.6267 9.31578 25.9467C8.62578 25.2667 8.41577 26.0367 7.80577 26.3767C7.19577 26.7067 6.65577 26.0867 5.99577 26.7367C4.74577 27.9567 2.33576 27.1267 1.64576 24.2467C0.965765 21.3667 0.815774 18.7767 1.15577 17.8967C1.49577 17.0167 3.15576 18.4367 4.32576 17.3567C5.49576 16.2867 7.20578 16.3267 8.62578 16.9667C10.0458 17.6067 10.6258 15.8467 11.7458 17.8967L11.7558 17.8867Z" fill="white"/>
</mask>
<g mask="url(#mask0_230_383)">
<path opacity="0.75" d="M15.0456 23.5265C15.0456 23.5265 11.0156 25.0165 11.0156 21.8365C11.0156 19.0165 15.0656 20.1165 15.0656 20.1165L15.0456 23.5265Z" fill="#3A3A3A" stroke="#3A3A3A" stroke-width="0.2" stroke-linecap="round" stroke-linejoin="round"/>
</g>
</svg>
