<svg width="12" height="24" viewBox="0 0 12 24" fill="none" xmlns="http://www.w3.org/2000/svg">
<mask id="mask0_230_317" style="mask-type:luminance" maskUnits="userSpaceOnUse" x="1" y="13" width="11" height="11">
<path d="M10.6352 16.2366C11.4052 17.9566 11.0652 22.6266 9.3452 22.6266C7.6252 22.6266 7.19519 22.3566 6.55519 23.0066C5.91519 23.6566 4.9452 22.6866 4.4052 22.7966C3.8652 22.9066 1.89521 24.3466 1.35521 21.4566C0.805212 18.5566 0.755189 14.2566 2.42519 14.5866C6.54519 15.3866 5.53518 11.0466 8.76518 15.4466C9.35518 16.2566 10.0052 14.8066 10.6452 16.2566L10.6352 16.2366Z" fill="white"/>
</mask>
<g mask="url(#mask0_230_317)">
<path opacity="0.75" d="M13.4739 20.2061C13.4739 20.2061 9.50391 22.0461 9.50391 18.8661C9.50391 16.0461 13.4439 17.5561 13.4439 17.5561L13.4739 20.2061Z" fill="#3A3A3A" stroke="#3A3A3A" stroke-width="0.2" stroke-linecap="round" stroke-linejoin="round"/>
</g>
</svg>
