<svg width="10" height="25" viewBox="0 0 10 25" fill="none" xmlns="http://www.w3.org/2000/svg">
<mask id="mask0_230_305" style="mask-type:luminance" maskUnits="userSpaceOnUse" x="0" y="0" width="10" height="12">
<path d="M8.14658 8.64654C8.96658 7.82654 9.46658 5.33654 9.39658 3.94654C9.32658 2.56654 8.8266 2.47654 7.6966 1.54654C6.5666 0.616544 5.1566 -0.453455 4.1366 0.226545C1.5266 1.96654 -0.113423 0.916539 1.04658 5.12654C1.63658 7.25654 1.43658 8.59654 2.29658 9.43654C3.15658 10.2765 4.2466 11.3465 5.3166 11.0265C6.3866 10.7065 7.59659 9.19654 8.15659 8.64654H8.14658Z" fill="white"/>
</mask>
<g mask="url(#mask0_230_305)">
<path opacity="0.75" d="M11.9152 6.80669C11.9152 6.80669 7.78516 8.6367 7.78516 5.4767C7.78516 2.6767 11.8752 4.1767 11.8752 4.1767L11.9052 6.80669H11.9152Z" fill="#3A3A3A" stroke="#3A3A3A" stroke-width="0.2" stroke-linecap="round" stroke-linejoin="round"/>
</g>
</svg>
