<svg width="15" height="25" viewBox="0 0 15 25" fill="none" xmlns="http://www.w3.org/2000/svg">
<mask id="mask0_230_281" style="mask-type:luminance" maskUnits="userSpaceOnUse" x="0" y="0" width="15" height="11">
<path d="M13.6629 8.7266C14.3129 6.8666 14.7629 3.7366 13.1329 2.6266C8.81294 -0.323404 7.98294 1.4066 6.44294 1.1166C5.29294 0.906601 2.96294 0.416602 1.53294 1.4066C0.102939 2.3966 0.522917 6.6766 1.32292 8.0166C2.12292 9.3566 3.16293 9.5266 4.46293 9.4466C5.76293 9.3666 7.35294 10.4566 9.03294 9.9466C10.7129 9.4466 13.1429 10.1866 13.6529 8.7266H13.6629Z" fill="white"/>
</mask>
<g mask="url(#mask0_230_281)">
<path opacity="0.75" d="M16.1949 7.63694C16.1949 7.63694 12.3349 9.16694 12.3049 6.00694C12.2749 3.20694 16.2149 4.35694 16.2149 4.35694V7.63694H16.1949Z" fill="#3A3A3A" stroke="#3A3A3A" stroke-width="0.2" stroke-linecap="round" stroke-linejoin="round"/>
</g>
</svg>
