<svg width="13" height="24" viewBox="0 0 13 24" fill="none" xmlns="http://www.w3.org/2000/svg">
<mask id="mask0_230_269" style="mask-type:luminance" maskUnits="userSpaceOnUse" x="0" y="0" width="13" height="11">
<path d="M11.7931 8.66638C12.6731 6.83638 13.1531 3.21639 10.9231 2.07639C8.69308 0.936386 7.02308 2.14639 5.95308 1.47639C4.88308 0.806387 1.6631 -0.0236127 1.0031 2.65639C0.353101 5.33639 0.873093 7.55639 1.18309 8.32639C1.49309 9.08639 2.4431 8.83638 3.2531 8.66638C4.0631 8.50638 5.51311 10.0664 6.35311 10.0764C8.42311 10.0964 9.1031 8.23639 10.0931 8.32639C11.0831 8.41639 11.3531 9.59638 11.8031 8.66638H11.7931Z" fill="white"/>
</mask>
<g mask="url(#mask0_230_269)">
<path opacity="0.75" d="M15.0519 7.06646C15.0519 7.06646 10.9219 8.89646 10.9219 5.73646C10.9219 2.93646 15.0119 4.43647 15.0119 4.43647L15.0419 7.06646H15.0519Z" fill="#3A3A3A" stroke="#3A3A3A" stroke-width="0.2" stroke-linecap="round" stroke-linejoin="round"/>
</g>
</svg>
