<svg width="9" height="31" viewBox="0 0 9 31" fill="none" xmlns="http://www.w3.org/2000/svg">
<mask id="mask0_230_582" style="mask-type:luminance" maskUnits="userSpaceOnUse" x="0" y="0" width="9" height="14">
<path d="M1.48554 11.057C0.165542 9.18698 0.0255423 5.73698 0.235542 4.80698C0.445542 3.87698 3.73555 0.896983 4.52555 0.926983C5.31555 0.956983 7.68556 1.87698 8.06556 2.76698C8.45556 3.64698 8.24554 7.82698 7.54554 9.66698C6.84554 11.507 4.27556 13.517 3.65556 13.197C3.03556 12.867 2.17554 12.057 1.48554 11.067V11.057Z" fill="white"/>
</mask>
<g mask="url(#mask0_230_582)">
<path opacity="0.75" d="M10.8644 5.82684C10.8644 5.82684 6.73438 3.99685 6.73438 7.15685C6.73438 9.95685 10.8244 8.45684 10.8244 8.45684L10.8544 5.82684H10.8644Z" fill="#3A3A3A" stroke="#3A3A3A" stroke-width="0.2" stroke-linecap="round" stroke-linejoin="round"/>
</g>
</svg>
