<svg width="11" height="25" viewBox="0 0 11 25" fill="none" xmlns="http://www.w3.org/2000/svg">
<mask id="mask0_230_522" style="mask-type:luminance" maskUnits="userSpaceOnUse" x="0" y="0" width="11" height="13">
<path d="M1.03343 7.46701C0.613428 5.67701 1.07341 3.68701 2.39341 2.85701C3.71341 2.02701 5.93341 0.477006 7.01341 0.897006C8.09341 1.31701 8.22343 1.817 8.94343 2.127C9.66343 2.437 10.8234 3.907 10.7234 5.887C10.6234 7.867 8.97342 9.267 8.62343 10.057C8.27343 10.847 5.72342 13.217 4.05342 11.597C2.38342 9.977 1.77342 10.627 1.02342 7.46701H1.03343Z" fill="white"/>
</mask>
<g mask="url(#mask0_230_522)">
<path opacity="0.75" d="M13.4542 5.237C13.4542 5.237 9.32422 3.407 9.32422 6.567C9.32422 9.367 13.4142 7.86701 13.4142 7.86701L13.4442 5.237H13.4542Z" fill="#3A3A3A" stroke="#3A3A3A" stroke-width="0.2" stroke-linecap="round" stroke-linejoin="round"/>
</g>
</svg>
