<svg width="15" height="25" viewBox="0 0 15 25" fill="none" xmlns="http://www.w3.org/2000/svg">
<mask id="mask0_230_570" style="mask-type:luminance" maskUnits="userSpaceOnUse" x="0" y="0" width="15" height="11">
<path d="M1.37542 8.74613C0.725421 6.88613 0.27542 3.75613 1.90542 2.64613C6.22542 -0.303865 7.05542 1.42613 8.59542 1.13613C9.74542 0.926133 12.0754 0.436134 13.5054 1.42613C14.9354 2.41613 14.5154 6.69613 13.7154 8.03613C12.9154 9.37613 11.8754 9.54613 10.5754 9.46613C9.27542 9.38613 7.68541 10.4761 6.00541 9.96613C4.32541 9.46613 1.89542 10.2061 1.38542 8.74613H1.37542Z" fill="white"/>
</mask>
<g mask="url(#mask0_230_570)">
<path opacity="0.75" d="M16.7456 4.08612C16.7456 4.08612 12.8856 2.55612 12.8556 5.71612C12.8256 8.51612 16.7656 7.36612 16.7656 7.36612V4.08612H16.7456Z" fill="#3A3A3A" stroke="#3A3A3A" stroke-width="0.2" stroke-linecap="round" stroke-linejoin="round"/>
</g>
</svg>
