<svg width="13" height="24" viewBox="0 0 13 24" fill="none" xmlns="http://www.w3.org/2000/svg">
<mask id="mask0_230_558" style="mask-type:luminance" maskUnits="userSpaceOnUse" x="0" y="0" width="13" height="11">
<path d="M1.24372 8.6869C0.363724 6.8569 -0.116281 3.23689 2.11372 2.09689C4.34372 0.956893 6.01372 2.16689 7.08372 1.49689C8.15372 0.826895 11.3737 -0.00310493 12.0337 2.6769C12.6837 5.3569 12.1637 7.57689 11.8537 8.34689C11.5437 9.10689 10.5937 8.8569 9.78373 8.6869C8.97373 8.5269 7.52373 10.0869 6.68373 10.0969C4.61373 10.1169 3.93372 8.25689 2.94372 8.34689C1.95372 8.43689 1.68373 9.6169 1.23373 8.6869H1.24372Z" fill="white"/>
</mask>
<g mask="url(#mask0_230_558)">
<path opacity="0.75" d="M15.1534 4.20673C15.1534 4.20673 11.0234 2.37673 11.0234 5.53673C11.0234 8.33673 15.1134 6.83673 15.1134 6.83673L15.1434 4.20673H15.1534Z" fill="#3A3A3A" stroke="#3A3A3A" stroke-width="0.2" stroke-linecap="round" stroke-linejoin="round"/>
</g>
</svg>
