<svg width="7" height="22" viewBox="0 0 7 22" fill="none" xmlns="http://www.w3.org/2000/svg">
<mask id="mask0_230_178" style="mask-type:luminance" maskUnits="userSpaceOnUse" x="0" y="13" width="7" height="9">
<path d="M1.78536 14.4871C2.00536 14.1571 2.27536 13.8671 2.60536 13.6371C3.69536 12.8571 4.81536 12.9671 5.95536 14.1471C6.72536 15.3871 7.10536 16.6371 6.82536 17.8671C6.46536 19.0771 5.78536 20.0371 4.87536 20.8271C4.55536 21.1072 4.14536 21.2471 3.72536 21.2471H3.45536C3.27536 21.2471 3.08536 21.2272 2.91536 21.1672C1.09536 20.5472 0.575356 18.7071 1.24536 15.7771C1.34536 15.3171 1.53536 14.8771 1.79536 14.4871H1.78536Z" fill="white"/>
</mask>
<g mask="url(#mask0_230_178)">
<path opacity="0.75" d="M7.90547 17.7573C7.90547 17.7573 5.60547 18.8673 5.60547 16.9473C5.60547 15.2473 7.88547 16.1573 7.88547 16.1573L7.90547 17.7573Z" fill="#3A3A3A" stroke="#3A3A3A" stroke-width="0.2" stroke-linecap="round" stroke-linejoin="round"/>
</g>
</svg>
