<svg width="8" height="20" viewBox="0 0 8 20" fill="none" xmlns="http://www.w3.org/2000/svg">
<mask id="mask0_230_151" style="mask-type:luminance" maskUnits="userSpaceOnUse" x="0" y="12" width="8" height="8">
<path d="M1.32548 13.4764C1.15548 13.6964 1.01547 13.9364 0.915473 14.1964C-0.064527 16.5564 -0.604525 18.6364 1.31547 19.2064C3.15547 19.2664 4.99548 19.3264 5.90548 18.9864C7.08548 18.1164 7.27548 16.7364 6.87548 15.0664C6.77548 14.6464 6.60548 14.2364 6.37548 13.8764C5.91548 13.1464 5.20547 12.5964 4.34547 12.3964C3.96547 12.3064 3.58548 12.2864 3.21548 12.3364C2.45548 12.4464 1.78548 12.8764 1.32548 13.4764Z" fill="white"/>
</mask>
<g mask="url(#mask0_230_151)">
<path opacity="0.75" d="M7.85516 15.3459C7.85516 15.3459 5.78516 14.2759 5.78516 16.1259C5.78516 17.7659 7.83516 16.8859 7.83516 16.8859L7.85516 15.3459Z" fill="#3A3A3A" stroke="#3A3A3A" stroke-width="0.2" stroke-linecap="round" stroke-linejoin="round"/>
</g>
</svg>
