<svg width="14" height="20" viewBox="0 0 14 20" fill="none" xmlns="http://www.w3.org/2000/svg">
<mask id="mask0_230_115" style="mask-type:luminance" maskUnits="userSpaceOnUse" x="0" y="11" width="11" height="9">
<path d="M2.35368 13.3969C2.22368 13.5469 2.09369 13.6969 1.96369 13.8669C0.853685 15.4869 0.193692 17.0269 1.56369 18.2469C2.51369 18.9769 3.90368 19.1769 5.44368 19.1969C5.71368 19.1969 5.94368 19.0469 6.08368 18.8269C6.36368 18.3969 6.89368 18.5969 7.52368 19.0269C7.71368 19.1569 7.93368 19.2369 8.16368 19.2469C8.70368 19.2769 9.16368 19.1669 9.58368 18.9369C10.5137 18.4369 11.0137 17.3969 10.9437 16.3469C10.9237 15.9369 10.8537 15.5369 10.7537 15.1469C10.5637 14.3469 10.0937 13.6469 9.43369 13.1569C6.74369 11.1969 4.36368 11.1569 2.35368 13.4069V13.3969Z" fill="white"/>
</mask>
<g mask="url(#mask0_230_115)">
<path opacity="0.75" d="M12.4741 14.9271C12.4741 14.9271 9.41406 13.4471 9.41406 15.9971C9.41406 18.2571 12.4441 17.0471 12.4441 17.0471L12.4741 14.9271Z" fill="#3A3A3A" stroke="#3A3A3A" stroke-width="0.2" stroke-linecap="round" stroke-linejoin="round"/>
</g>
</svg>
