<svg width="5" height="19" viewBox="0 0 5 19" fill="none" xmlns="http://www.w3.org/2000/svg">
<mask id="mask0_230_67" style="mask-type:luminance" maskUnits="userSpaceOnUse" x="0" y="0" width="5" height="9">
<path d="M4.12391 7.74697C4.33391 7.34697 4.4339 6.89697 4.4539 6.44697L4.58391 2.97697C4.63391 2.17697 4.30391 1.77697 3.83391 1.47697C3.12391 0.966972 2.1039 0.73697 1.2439 0.78697C0.643902 0.97697 0.623905 0.836972 0.543905 1.36697C0.503905 1.61697 0.493907 1.86697 0.513907 2.11697C0.623907 3.71697 0.783907 5.18697 0.943907 6.55697C0.983907 6.92697 1.1239 7.26697 1.3439 7.56697C1.3639 7.59697 1.3939 7.62697 1.4139 7.66697C2.4439 8.93697 3.3039 9.03697 3.9939 7.99697C4.0439 7.92697 4.0939 7.84697 4.1339 7.76697" fill="white"/>
</mask>
<g mask="url(#mask0_230_67)">
<path opacity="0.75" d="M5.69234 4.05653C5.69234 4.05653 3.65234 3.06653 3.65234 4.77653C3.65234 6.28653 5.68234 5.47653 5.68234 5.47653L5.70234 4.05653H5.69234Z" fill="#3A3A3A" stroke="#3A3A3A" stroke-width="0.2" stroke-linecap="round" stroke-linejoin="round"/>
</g>
</svg>
