<svg width="6" height="19" viewBox="0 0 6 19" fill="none" xmlns="http://www.w3.org/2000/svg">
<mask id="mask0_230_59" style="mask-type:luminance" maskUnits="userSpaceOnUse" x="0" y="0" width="6" height="9">
<path d="M0.933668 7.1366C1.03367 7.3566 1.17367 7.5666 1.34367 7.7366C2.05367 8.4466 2.76367 8.6866 3.49367 8.4866C3.97367 8.3566 4.35367 8.0366 4.59367 7.6266C4.75367 7.3566 4.85367 7.04661 4.87367 6.72661L5.17367 3.13661C5.12367 2.59661 4.99366 2.12661 4.77366 1.72661C4.53366 1.29661 4.07367 1.0166 3.57367 0.986603L1.10367 0.826607C0.473666 0.796607 0.273663 0.956604 0.303663 1.7366C0.303663 1.9366 0.323673 2.13661 0.313673 2.33661C0.273673 3.92661 0.39366 5.33661 0.75366 6.46661C0.77366 6.69661 0.833668 6.9266 0.933668 7.1366Z" fill="white"/>
</mask>
<g mask="url(#mask0_230_59)">
<path opacity="0.75" d="M6.05531 3.99696C6.05531 3.99696 3.94531 3.31696 3.94531 5.04696C3.94531 6.57696 6.04532 6.43696 6.04532 6.43696L6.06532 3.99696H6.05531Z" fill="#3A3A3A" stroke="#3A3A3A" stroke-width="0.2" stroke-linecap="round" stroke-linejoin="round"/>
</g>
</svg>
