<svg width="7" height="26" viewBox="0 0 7 26" fill="none" xmlns="http://www.w3.org/2000/svg">
<path d="M3.36169 1.05957H3.8017C4.5217 1.05957 5.1317 1.44957 5.1817 1.94957L6.39172 20.8496H0.761719L1.97171 1.94957C2.02171 1.44957 2.64172 1.05957 3.35172 1.05957H3.36169Z" fill="#DDDDDD" stroke="#5E5E5A" stroke-width="0.15" stroke-miterlimit="10"/>
<mask id="mask0_226_143" style="mask-type:luminance" maskUnits="userSpaceOnUse" x="0" y="1" width="7" height="20">
<path d="M3.36169 1.05957H3.8017C4.5217 1.05957 5.1317 1.44957 5.1817 1.94957L6.39172 20.8496H0.761719L1.97171 1.94957C2.02171 1.44957 2.64172 1.05957 3.35172 1.05957H3.36169Z" fill="white"/>
</mask>
<g mask="url(#mask0_226_143)">
<path d="M-0.957031 20.3795L8.13297 16.9395" stroke="#5E5E5A" stroke-width="0.3" stroke-miterlimit="10"/>
<path d="M-0.957031 18.3592L8.13297 14.9092" stroke="#5E5E5A" stroke-width="0.3" stroke-miterlimit="10"/>
<path d="M-0.957031 16.3296L8.13297 12.8896" stroke="#5E5E5A" stroke-width="0.3" stroke-miterlimit="10"/>
<path d="M-0.957031 14.2994L8.13297 10.8594" stroke="#5E5E5A" stroke-width="0.3" stroke-miterlimit="10"/>
<path d="M-0.957031 12.2791L8.13297 8.8291" stroke="#5E5E5A" stroke-width="0.3" stroke-miterlimit="10"/>
<path d="M-0.957031 10.2496L8.13297 6.80957" stroke="#5E5E5A" stroke-width="0.3" stroke-miterlimit="10"/>
<path d="M-0.957031 8.2293L8.13297 4.7793" stroke="#5E5E5A" stroke-width="0.3" stroke-miterlimit="10"/>
<path d="M-0.957031 6.19977L8.13297 2.75977" stroke="#5E5E5A" stroke-width="0.3" stroke-miterlimit="10"/>
<path d="M-0.957031 4.16949L8.13297 0.729492" stroke="#5E5E5A" stroke-width="0.3" stroke-miterlimit="10"/>
</g>
<path d="M2.17953 25.8695H4.99954C5.22954 25.8695 5.41955 25.6595 5.44955 25.3995C5.48955 24.9995 5.54956 24.3895 5.63956 23.7095C5.81956 22.3395 6.16956 20.7695 6.16956 20.7695H1.01953C1.01953 20.7695 1.37953 22.3395 1.54953 23.7095C1.62953 24.3895 1.69953 24.9995 1.73953 25.3995C1.76953 25.6695 1.95954 25.8695 2.18954 25.8695H2.17953Z" fill="#DDDDDD" stroke="#5E5E5A" stroke-width="0.15" stroke-miterlimit="10"/>
<path d="M0.670388 20.9894H6.49037C6.60037 20.9894 6.64036 20.4994 6.58036 19.9094C6.52036 19.3494 6.39038 18.8994 6.29038 18.8994H0.88038C0.78038 18.8994 0.640371 19.3394 0.590371 19.9094C0.530371 20.4994 0.570367 20.9894 0.680367 20.9894H0.670388Z" fill="#757577" stroke="#5E5E5A" stroke-width="0.15" stroke-miterlimit="10"/>
</svg>
