<svg width="5" height="16" viewBox="0 0 5 16" fill="none" xmlns="http://www.w3.org/2000/svg">
<path d="M2.64203 15.0403H2.34203C1.85203 15.0403 1.44202 14.7803 1.40202 14.4403L0.582031 4.32031H4.40202L3.58203 14.4403C3.55203 14.7803 3.13203 15.0403 2.64203 15.0403Z" fill="#DDDDDD" stroke="#5E5E5A" stroke-width="0.15" stroke-miterlimit="10"/>
<mask id="mask0_226_963" style="mask-type:luminance" maskUnits="userSpaceOnUse" x="0" y="4" width="5" height="12">
<path d="M2.64203 15.0403H2.34203C1.85203 15.0403 1.44202 14.7803 1.40202 14.4403L0.582031 4.32031H4.40202L3.58203 14.4403C3.55203 14.7803 3.13203 15.0403 2.64203 15.0403Z" fill="white"/>
</mask>
<g mask="url(#mask0_226_963)">
<path d="M5.01437 6.89024L-0.015625 4.99023" stroke="#5E5E5A" stroke-width="0.3" stroke-miterlimit="10"/>
<path d="M4.89328 8.30063L-0.136719 6.39062" stroke="#5E5E5A" stroke-width="0.3" stroke-miterlimit="10"/>
<path d="M4.77219 9.7098L-0.257812 7.7998" stroke="#5E5E5A" stroke-width="0.3" stroke-miterlimit="10"/>
<path d="M4.655 11.12L-0.375 9.20996" stroke="#5E5E5A" stroke-width="0.3" stroke-miterlimit="10"/>
<path d="M4.5439 12.5201L-0.496094 10.6201" stroke="#5E5E5A" stroke-width="0.3" stroke-miterlimit="10"/>
<path d="M4.42453 13.9305L-0.605469 12.0205" stroke="#5E5E5A" stroke-width="0.3" stroke-miterlimit="10"/>
<path d="M4.30344 15.3407L-0.726562 13.4307" stroke="#5E5E5A" stroke-width="0.3" stroke-miterlimit="10"/>
</g>
<path d="M3.45 0.910156H1.53999C1.38999 0.910156 1.25001 1.05016 1.24001 1.23016C1.21001 1.50016 1.17 1.92016 1.11 2.38016C0.990001 3.31016 0.75 4.38015 0.75 4.38015H4.25C4.25 4.38015 4.01 3.31016 3.89 2.38016C3.83 1.92016 3.78999 1.50016 3.75999 1.23016C3.73999 1.05016 3.61001 0.910156 3.46001 0.910156H3.45Z" fill="#DDDDDD" stroke="#5E5E5A" stroke-width="0.15" stroke-miterlimit="10"/>
<path d="M4.4714 4.21973H0.521404C0.441404 4.21973 0.421407 4.55972 0.461407 4.94972C0.501407 5.32972 0.591404 5.62972 0.661404 5.62972H4.3314C4.4014 5.62972 4.4914 5.32972 4.5314 4.94972C4.5714 4.54972 4.5514 4.21973 4.4714 4.21973Z" fill="#757577" stroke="#5E5E5A" stroke-width="0.15" stroke-miterlimit="10"/>
</svg>
