<svg width="11" height="29" viewBox="0 0 11 29" fill="none" xmlns="http://www.w3.org/2000/svg">
<mask id="mask0_254_12709" style="mask-type:luminance" maskUnits="userSpaceOnUse" x="0" y="16" width="11" height="13">
<path d="M0.148438 24.1469C0.148438 22.1869 0.738439 19.1369 1.86844 17.8169C2.61844 16.9469 4.21843 16.1469 5.44843 16.3169C6.67843 16.4869 7.11843 17.9069 8.04843 17.8669C8.97843 17.8269 9.81842 17.6169 10.0084 19.3869C10.2084 21.1569 10.6084 21.2969 10.7684 22.4269C10.9384 23.5569 11.3284 24.5169 9.21844 25.3569C7.10845 26.1969 6.58844 28.7469 4.71844 28.1869C2.84844 27.6269 3.08843 26.5469 1.76843 26.0569C0.448433 25.5669 0.148438 24.8769 0.148438 24.1469Z" fill="white"/>
</mask>
<g mask="url(#mask0_254_12709)">
<path d="M3.04139 28.3971C3.10139 28.3671 2.7214 25.7371 3.8014 24.4671C4.1814 24.0171 4.70138 23.7871 5.35138 23.7871C5.96138 23.7871 6.4214 23.9971 6.7714 24.3971C7.7614 25.5671 7.4614 28.0671 7.4014 28.4971L3.04139 28.3971Z" fill="#DDDDDD"/>
<path d="M5.37961 23.717V23.867C5.93961 23.867 6.38963 24.067 6.70963 24.447C7.63963 25.547 7.39962 27.857 7.32962 28.427L3.15964 28.327C3.09964 27.787 2.90961 25.627 3.84961 24.517C4.21961 24.087 4.71961 23.867 5.34961 23.857L5.36963 23.707M5.37961 23.717C5.37961 23.717 5.35961 23.717 5.34961 23.717C2.29961 23.747 3.02963 28.477 3.02963 28.477L7.45963 28.577C7.45963 28.577 8.26961 23.717 5.37961 23.717Z" fill="#999993"/>
</g>
</svg>
