<svg width="10" height="27" viewBox="0 0 10 27" fill="none" xmlns="http://www.w3.org/2000/svg">
<mask id="mask0_254_12699" style="mask-type:luminance" maskUnits="userSpaceOnUse" x="0" y="14" width="10" height="13">
<path d="M1.05893 24.2974C1.54893 25.1274 3.17894 24.9874 3.42894 25.6674C3.67894 26.3574 6.10894 26.6474 6.79894 25.4674C7.48894 24.2874 8.75893 23.8474 9.05893 22.7174C9.34893 21.5874 9.69893 17.1774 9.05893 16.7374C8.41893 16.2974 7.34893 16.8374 6.80893 16.2474C6.26893 15.6574 4.91893 14.0374 3.99893 15.0674C3.07893 16.0974 2.90894 16.7974 2.14894 16.9574C0.178942 17.3674 0.71894 23.6874 1.06894 24.2874L1.05893 24.2974Z" fill="white"/>
</mask>
<g mask="url(#mask0_254_12699)">
<path d="M2.60904 26.3779C2.66904 26.3479 2.29905 23.7379 3.36905 22.4779C3.74905 22.0379 4.26904 21.8079 4.90904 21.7979C5.50904 21.7979 5.97905 21.9979 6.31905 22.4079C7.30905 23.5679 7.00904 26.0579 6.93904 26.4879L2.60904 26.3879V26.3779Z" fill="#DDDDDD"/>
<path d="M4.93816 21.7178V21.8678C5.48816 21.8678 5.93816 22.0678 6.26816 22.4478C7.18816 23.5378 6.95815 25.8378 6.88815 26.3978L2.74815 26.2978C2.68815 25.7578 2.50816 23.6078 3.43816 22.5178C3.79816 22.0878 4.29816 21.8678 4.92816 21.8678L4.94815 21.7178M4.93816 21.7178C4.93816 21.7178 4.91816 21.7178 4.90816 21.7178C1.87816 21.7478 2.59816 26.4478 2.59816 26.4478L6.99815 26.5478C6.99815 26.5478 7.79816 21.7178 4.92816 21.7178H4.93816Z" fill="#999993"/>
</g>
</svg>
