<svg width="13" height="28" viewBox="0 0 13 28" fill="none" xmlns="http://www.w3.org/2000/svg">
<mask id="mask0_254_12688" style="mask-type:luminance" maskUnits="userSpaceOnUse" x="0" y="16" width="13" height="12">
<path d="M1.70792 17.8768C0.937917 19.2868 0.637909 24.6268 1.27791 25.5568C1.91791 26.4868 3.62792 26.6368 4.31792 25.9468C5.00792 25.2568 5.22792 26.0368 5.83792 26.3768C6.44792 26.7068 6.98792 26.0868 7.64792 26.7368C8.89792 27.9668 11.3279 27.1268 12.0079 24.2368C12.6979 21.3468 12.8379 18.7468 12.4979 17.8668C12.1579 16.9868 10.4879 18.4068 9.30791 17.3268C8.12791 16.2468 6.41791 16.2968 4.99791 16.9368C3.57791 17.5768 2.83792 15.8268 1.70792 17.8868V17.8768Z" fill="white"/>
</mask>
<g mask="url(#mask0_254_12688)">
<path d="M3.53764 27.2767C3.59764 27.2467 3.15764 24.3967 4.37764 22.9467C4.84764 22.3867 5.50764 22.0967 6.34764 22.0967C7.12764 22.0967 7.71764 22.3567 8.14764 22.8667C9.27764 24.2167 8.90764 26.9567 8.83764 27.4067L3.53764 27.2967V27.2767Z" fill="#DDDDDD"/>
<path d="M6.36928 22.0166V22.1666C7.08928 22.1666 7.66927 22.4166 8.07927 22.9066C9.14927 24.1766 8.84928 26.7266 8.76928 27.3166L3.65927 27.2066C3.58927 26.6466 3.35928 24.2666 4.42928 22.9966C4.88928 22.4566 5.52928 22.1766 6.33928 22.1666L6.36928 22.0166ZM6.36928 22.0166C6.36928 22.0166 6.34928 22.0166 6.33928 22.0166C2.64928 22.0466 3.52927 27.3566 3.52927 27.3566L8.89928 27.4666C8.89928 27.4666 9.87928 22.0166 6.37928 22.0166H6.36928Z" fill="#999993"/>
</g>
</svg>
