<svg width="13" height="26" viewBox="0 0 13 26" fill="none" xmlns="http://www.w3.org/2000/svg">
<mask id="mask0_254_12677" style="mask-type:luminance" maskUnits="userSpaceOnUse" x="0" y="14" width="13" height="12">
<path d="M1.41774 16.5473C0.00773692 18.7573 -0.102251 22.3773 1.61775 23.3673C3.33775 24.3473 4.31775 23.3673 5.14775 23.6173C5.97775 23.8673 8.34774 26.4073 10.1977 24.6973C12.1977 22.8473 13.0877 17.4473 12.2077 16.2173C10.3177 13.5873 8.63774 16.6173 5.99774 15.0973C5.13774 14.5973 2.82774 14.3473 1.41774 16.5573V16.5473Z" fill="white"/>
</mask>
<g mask="url(#mask0_254_12677)">
<path d="M2.45799 25.1078C2.50799 25.0678 2.11799 22.8478 3.14799 21.5878C3.61799 21.0178 4.30798 20.7278 5.19798 20.7178C6.02798 20.7178 6.64798 20.9778 7.07798 21.4978C8.02798 22.6678 7.70798 24.8078 7.63798 25.1978L2.45799 25.0978V25.1078Z" fill="#DDDDDD"/>
<path d="M5.23674 20.6475V20.7975C6.01674 20.7975 6.61674 21.0475 7.02674 21.5475C7.91674 22.6375 7.66675 24.6175 7.58675 25.1275L2.58675 25.0375C2.51675 24.5575 2.32674 22.7275 3.21674 21.6375C3.66674 21.0875 4.33674 20.8075 5.20674 20.7975L5.23674 20.6475ZM5.23674 20.6475C5.23674 20.6475 5.21674 20.6475 5.20674 20.6475C1.59674 20.6775 2.45674 25.1775 2.45674 25.1775L7.70674 25.2775C7.70674 25.2775 8.66674 20.6475 5.23674 20.6475Z" fill="#999993"/>
</g>
</svg>
