<svg width="11" height="24" viewBox="0 0 11 24" fill="none" xmlns="http://www.w3.org/2000/svg">
<mask id="mask0_254_12666" style="mask-type:luminance" maskUnits="userSpaceOnUse" x="0" y="13" width="11" height="11">
<path d="M0.917617 16.2562C0.147617 17.9862 0.597626 22.6562 2.31763 22.6562C4.03763 22.6562 4.47762 22.3862 5.12762 23.0362C5.77762 23.6862 6.74763 22.7162 7.28763 22.8162C7.82763 22.9262 9.80762 24.3762 10.3576 21.4662C10.9076 18.5562 10.9576 14.2362 9.28763 14.5662C5.15763 15.3662 6.16762 11.0062 2.91762 15.4262C2.32762 16.2362 1.56762 14.7962 0.917617 16.2562Z" fill="white"/>
</mask>
<g mask="url(#mask0_254_12666)">
<path d="M3.06887 23.6056C3.11887 23.5656 2.76887 21.3956 3.73887 20.2256C4.14887 19.7356 4.73886 19.4756 5.49886 19.4756C6.20886 19.4756 6.73886 19.7056 7.10886 20.1556C8.00886 21.2456 7.71887 23.3256 7.64887 23.7056L3.05886 23.6156L3.06887 23.6056Z" fill="#DDDDDD"/>
<path d="M5.52929 19.3857V19.5357C6.18929 19.5357 6.69928 19.7557 7.05928 20.1857C7.89928 21.1957 7.66929 23.1057 7.59929 23.6157L3.19928 23.5257C3.13928 23.0457 2.96929 21.2657 3.79929 20.2657C4.18929 19.7857 4.76929 19.5457 5.49929 19.5357L5.52929 19.3857ZM5.52929 19.3857C5.52929 19.3857 5.50929 19.3857 5.49929 19.3857C2.29929 19.4157 3.05928 23.6757 3.05928 23.6757L7.71929 23.7657C7.71929 23.7657 8.56929 19.3857 5.52929 19.3857Z" fill="#999993"/>
</g>
</svg>
