<svg width="12" height="29" viewBox="0 0 12 29" fill="none" xmlns="http://www.w3.org/2000/svg">
<mask id="mask0_254_12551" style="mask-type:luminance" maskUnits="userSpaceOnUse" x="0" y="16" width="12" height="13">
<path d="M11.0792 24.1469C11.0792 22.1869 10.4892 19.1369 9.35922 17.8169C8.60922 16.9469 7.00923 16.1469 5.77923 16.3169C4.54923 16.4869 4.10923 17.9069 3.17923 17.8669C2.24923 17.8269 1.40924 17.6169 1.21924 19.3869C1.01924 21.1569 0.619227 21.2969 0.459227 22.4269C0.289227 23.5569 -0.100785 24.5169 2.00921 25.3569C4.11921 26.1969 4.63921 28.7469 6.50921 28.1869C8.37922 27.6269 8.13923 26.5469 9.45923 26.0569C10.7792 25.5669 11.0792 24.8769 11.0792 24.1469Z" fill="white"/>
</mask>
<g mask="url(#mask0_254_12551)">
<path d="M3.82766 28.5069C3.76766 28.0769 3.46767 25.5769 4.45767 24.4069C4.79767 24.0069 5.26765 23.7969 5.84765 23.7969C6.52765 23.7969 7.04767 24.0369 7.42767 24.4869C8.51767 25.7769 8.12767 28.4469 8.11767 28.4769L3.82766 28.5169V28.5069Z" fill="#DDDDDD"/>
<path d="M5.84856 23.7168L5.86858 23.8668C6.49858 23.8668 6.99858 24.0968 7.36858 24.5268C8.30858 25.6268 8.11859 27.7968 8.05859 28.3368L3.88857 28.4368C3.81857 27.8668 3.57857 25.5568 4.50857 24.4568C4.83857 24.0668 5.28858 23.8768 5.83858 23.8768V23.7268M5.84856 23.7168C2.95856 23.7168 3.76858 28.5768 3.76858 28.5768L8.19857 28.4768C8.19857 28.4768 8.92856 23.7468 5.87856 23.7168C5.87856 23.7168 5.85856 23.7168 5.84856 23.7168Z" fill="#999993"/>
</g>
</svg>
