<svg width="10" height="27" viewBox="0 0 10 27" fill="none" xmlns="http://www.w3.org/2000/svg">
<mask id="mask0_254_12541" style="mask-type:luminance" maskUnits="userSpaceOnUse" x="0" y="14" width="10" height="13">
<path d="M9.16893 24.2974C8.67893 25.1274 7.04894 24.9874 6.79894 25.6674C6.54894 26.3574 4.11894 26.6474 3.42894 25.4674C2.73894 24.2874 1.46893 23.8474 1.16893 22.7174C0.878934 21.5874 0.528934 17.1774 1.16893 16.7374C1.80893 16.2974 2.87893 16.8374 3.41893 16.2474C3.95893 15.6574 5.30893 14.0374 6.22893 15.0674C7.14893 16.0974 7.31894 16.7974 8.07894 16.9574C10.0489 17.3674 9.50896 23.6874 9.15895 24.2874L9.16893 24.2974Z" fill="white"/>
</mask>
<g mask="url(#mask0_254_12541)">
<path d="M3.27758 26.4781C3.21758 26.0481 2.91757 23.5681 3.89757 22.3981C4.23757 21.9981 4.70758 21.7881 5.27758 21.7881C5.94758 21.7881 6.46755 22.0281 6.84755 22.4681C7.93755 23.7481 7.53756 26.4081 7.53756 26.4381L3.27758 26.4781Z" fill="#DDDDDD"/>
<path d="M5.28824 21.7178L5.30826 21.8678C5.92826 21.8678 6.42825 22.0978 6.79825 22.5178C7.72825 23.6178 7.54825 25.7578 7.48825 26.2978L3.34824 26.3978C3.27824 25.8278 3.03826 23.5378 3.96826 22.4478C4.29826 22.0678 4.73825 21.8678 5.29825 21.8678V21.7178M5.28824 21.7178C2.40824 21.7178 3.21826 26.5478 3.21826 26.5478L7.61826 26.4478C7.61826 26.4478 8.33826 21.7478 5.30826 21.7178C5.30826 21.7178 5.28826 21.7178 5.27826 21.7178H5.28824Z" fill="#999993"/>
</g>
</svg>
