<svg width="13" height="28" viewBox="0 0 13 28" fill="none" xmlns="http://www.w3.org/2000/svg">
<mask id="mask0_254_12530" style="mask-type:luminance" maskUnits="userSpaceOnUse" x="0" y="16" width="13" height="12">
<path d="M11.5184 17.8768C12.2884 19.2868 12.5884 24.6268 11.9484 25.5568C11.3084 26.4868 9.59843 26.6368 8.90843 25.9468C8.21843 25.2568 7.99841 26.0368 7.38841 26.3768C6.77841 26.7068 6.23841 26.0868 5.57841 26.7368C4.32841 27.9668 1.89843 27.1268 1.21843 24.2368C0.528426 21.3468 0.388405 18.7468 0.728405 17.8668C1.06841 16.9868 2.73841 18.4068 3.91841 17.3268C5.09841 16.2468 6.80841 16.2968 8.22841 16.9368C9.64841 17.5768 10.3884 15.8268 11.5184 17.8868V17.8768Z" fill="white"/>
</mask>
<g mask="url(#mask0_254_12530)">
<path d="M4.39879 27.3862C4.32879 26.9362 3.95879 24.1962 5.08879 22.8462C5.50879 22.3362 6.10878 22.0762 6.85878 22.0762C7.72878 22.0762 8.38878 22.3762 8.85878 22.9262C10.0988 24.3962 9.62877 27.2962 9.62877 27.3262L4.39879 27.3762V27.3862Z" fill="#DDDDDD"/>
<path d="M6.85722 22.0166L6.88721 22.1666C7.69721 22.1666 8.34722 22.4566 8.79722 22.9966C9.86722 24.2666 9.63721 26.6466 9.56721 27.2066L4.45722 27.3166C4.36722 26.7266 4.07722 24.1766 5.14722 22.9066C5.55722 22.4166 6.13722 22.1666 6.85722 22.1666V22.0166ZM6.85722 22.0166C3.35722 22.0166 4.33723 27.4666 4.33723 27.4666L9.70722 27.3566C9.70722 27.3566 10.5872 22.0566 6.89722 22.0166C6.88722 22.0166 6.87722 22.0166 6.86722 22.0166H6.85722Z" fill="#999993"/>
</g>
</svg>
