<svg width="13" height="26" viewBox="0 0 13 26" fill="none" xmlns="http://www.w3.org/2000/svg">
<mask id="mask0_254_12519" style="mask-type:luminance" maskUnits="userSpaceOnUse" x="0" y="14" width="13" height="12">
<path d="M11.8087 16.5473C13.2187 18.7573 13.3287 22.3773 11.6087 23.3673C9.88873 24.3473 8.90874 23.3673 8.07874 23.6173C7.24874 23.8673 4.87875 26.4073 3.02875 24.6973C1.02875 22.8473 0.138738 17.4473 1.01874 16.2173C2.90874 13.5873 4.58873 16.6173 7.22873 15.0973C8.08873 14.5973 10.3987 14.3473 11.8087 16.5573V16.5473Z" fill="white"/>
</mask>
<g mask="url(#mask0_254_12519)">
<path d="M5.58862 25.1978C5.51862 24.8078 5.19862 22.6678 6.14862 21.4978C6.56862 20.9778 7.18863 20.7178 7.99863 20.7178C8.92863 20.7178 9.61861 21.0178 10.0786 21.5878C11.1286 22.8678 10.7086 25.1478 10.6986 25.1678L5.58862 25.2078V25.1978Z" fill="#DDDDDD"/>
<path d="M7.98817 20.6475L8.01817 20.7975C8.88817 20.7975 9.55816 21.0875 10.0082 21.6375C10.8982 22.7175 10.7082 24.5575 10.6382 25.0375L5.63817 25.1275C5.55817 24.6175 5.30817 22.6475 6.19817 21.5475C6.60817 21.0475 7.20817 20.7975 7.98817 20.7975V20.6475ZM7.98817 20.6475C4.55817 20.6475 5.51817 25.2775 5.51817 25.2775L10.7682 25.1775C10.7682 25.1775 11.6282 20.6775 8.01817 20.6475C8.00817 20.6475 7.99817 20.6475 7.98817 20.6475Z" fill="#999993"/>
</g>
</svg>
