<svg width="11" height="24" viewBox="0 0 11 24" fill="none" xmlns="http://www.w3.org/2000/svg">
<mask id="mask0_254_12508" style="mask-type:luminance" maskUnits="userSpaceOnUse" x="0" y="13" width="11" height="11">
<path d="M10.3186 16.2562C11.0886 17.9862 10.6386 22.6562 8.91865 22.6562C7.19865 22.6562 6.75865 22.3862 6.10865 23.0362C5.45865 23.6862 4.48865 22.7162 3.94865 22.8162C3.40865 22.9262 1.42864 24.3762 0.87864 21.4662C0.32864 18.5562 0.278647 14.2362 1.94865 14.5662C6.07865 15.3662 5.06864 11.0062 8.31864 15.4262C8.90864 16.2362 9.66864 14.7962 10.3186 16.2562Z" fill="white"/>
</mask>
<g mask="url(#mask0_254_12508)">
<path d="M3.56869 23.6958C3.50869 23.3158 3.2087 21.2358 4.1087 20.1458C4.4787 19.6958 5.00872 19.4658 5.68872 19.4658C6.47872 19.4658 7.06869 19.7258 7.47869 20.2158C8.46869 21.4058 8.0887 23.6358 8.0787 23.6658L3.55871 23.6958H3.56869Z" fill="#DDDDDD"/>
<path d="M5.69777 19.3857L5.72777 19.5357C6.46777 19.5357 7.03779 19.7857 7.42779 20.2657C8.26779 21.2757 8.09779 23.0557 8.02779 23.5257L3.62777 23.6157C3.54777 23.1157 3.32778 21.2057 4.16778 20.1857C4.52778 19.7557 5.03777 19.5357 5.69777 19.5357V19.3857ZM5.69777 19.3857C2.65777 19.3857 3.50777 23.7657 3.50777 23.7657L8.16778 23.6757C8.16778 23.6757 8.92777 19.4157 5.72777 19.3857C5.72777 19.3857 5.70777 19.3857 5.69777 19.3857Z" fill="#999993"/>
</g>
</svg>
