<svg width="10" height="26" viewBox="0 0 10 26" fill="none" xmlns="http://www.w3.org/2000/svg">
<mask id="mask0_254_12498" style="mask-type:luminance" maskUnits="userSpaceOnUse" x="0" y="0" width="10" height="12">
<path d="M7.88849 9.51659C8.7185 8.68659 9.2185 6.17659 9.1485 4.77659C9.0785 3.37659 8.5785 3.28659 7.4285 2.34659C6.2885 1.40659 4.8685 0.326592 3.8285 1.01659C1.1985 2.76659 -0.461488 1.71659 0.718512 5.96659C1.31851 8.11659 1.10849 9.46659 1.97849 10.3166C2.84849 11.1666 3.94851 12.2366 5.02851 11.9166C6.10851 11.5966 7.3285 10.0766 7.88849 9.51659Z" fill="white"/>
</mask>
<g mask="url(#mask0_254_12498)">
<path d="M4.77993 5.41703C4.16993 5.41703 3.67993 5.18703 3.30993 4.75703C2.16993 3.42703 2.56991 0.527032 2.57991 0.497032L6.85991 0.457031C6.79991 0.487031 7.2399 3.53703 6.1299 4.83703C5.7999 5.22703 5.34993 5.41703 4.80993 5.41703H4.78991H4.77993Z" fill="#DDDDDD"/>
<path d="M6.7194 0.536953C6.7894 1.13695 7.03939 3.65695 6.05939 4.78695C5.73939 5.15695 5.32939 5.34695 4.77939 5.34695C4.18939 5.34695 3.71938 5.12695 3.35938 4.71695C2.37938 3.56695 2.56937 1.20696 2.62937 0.636955L6.7194 0.536953ZM6.84937 0.376953L2.4994 0.486954C2.4994 0.486954 1.78939 5.45696 4.77939 5.49696C4.77939 5.49696 4.79939 5.49696 4.80939 5.49696C7.64939 5.49696 6.85938 0.386955 6.85938 0.386955L6.84937 0.376953Z" fill="#999993"/>
</g>
</svg>
