<svg width="11" height="25" viewBox="0 0 11 25" fill="none" xmlns="http://www.w3.org/2000/svg">
<mask id="mask0_254_12488" style="mask-type:luminance" maskUnits="userSpaceOnUse" x="0" y="0" width="11" height="13">
<path d="M10.6398 7.50709C11.0698 5.69709 10.5998 3.69709 9.26978 2.85709C7.93978 2.01709 5.69976 0.457091 4.59976 0.877091C3.49976 1.30709 3.37978 1.79709 2.64978 2.11709C1.91978 2.42709 0.749764 3.90709 0.849764 5.91709C0.949764 7.92709 2.61979 9.32709 2.96979 10.1271C3.31979 10.9271 5.88978 13.3171 7.57978 11.6771C9.25978 10.0371 9.87977 10.7071 10.6398 7.50709Z" fill="white"/>
</mask>
<g mask="url(#mask0_254_12488)">
<path d="M5.43151 5.41695C4.78151 5.41695 4.2615 5.17695 3.8915 4.73695C2.7815 3.43695 3.18152 0.696954 3.19152 0.666954L7.55151 0.626953C7.49151 0.656953 7.93149 3.53695 6.85149 4.80695C6.51149 5.20695 6.04152 5.41695 5.47152 5.41695H5.4515H5.43151Z" fill="#DDDDDD"/>
<path d="M7.40997 0.706642C7.48997 1.28664 7.71996 3.64664 6.77996 4.76664C6.44996 5.15664 6.00996 5.34664 5.42996 5.34664C4.80996 5.34664 4.30997 5.11664 3.93997 4.68664C2.98997 3.56664 3.16995 1.34664 3.23995 0.806641L7.40997 0.706642ZM7.53994 0.556641L3.09994 0.656643C3.09994 0.656643 2.36995 5.46664 5.41995 5.49664C5.41995 5.49664 5.43994 5.49664 5.44994 5.49664C8.34994 5.49664 7.53994 0.556641 7.53994 0.556641Z" fill="#999993"/>
</g>
</svg>
