<svg width="14" height="25" viewBox="0 0 14 25" fill="none" xmlns="http://www.w3.org/2000/svg">
<mask id="mask0_254_12478" style="mask-type:luminance" maskUnits="userSpaceOnUse" x="0" y="0" width="14" height="11">
<path d="M13.3178 8.80729C13.9778 6.93729 14.4278 3.76729 12.7878 2.64729C8.42775 -0.332708 7.58777 1.41729 6.02777 1.12729C4.86777 0.907292 2.50775 0.427291 1.06775 1.42729C-0.372247 2.42729 0.0477613 6.74729 0.857761 8.1073C1.65776 9.46729 2.71775 9.62729 4.03775 9.54729C5.34775 9.46729 6.95778 10.5673 8.65778 10.0573C10.3478 9.54729 12.8078 10.2973 13.3278 8.81729L13.3178 8.80729Z" fill="white"/>
</mask>
<g mask="url(#mask0_254_12478)">
<path d="M6.73113 5.40785C5.85113 5.40785 5.16115 5.09785 4.68115 4.51785C3.43115 3.01785 3.90116 0.127851 3.91116 0.0978508L9.37115 0.0478516C9.31115 0.0778516 9.84114 3.13785 8.61114 4.61785C8.17114 5.14785 7.55114 5.41785 6.77114 5.41785H6.74114L6.73113 5.40785Z" fill="#DDDDDD"/>
<path d="M9.23948 0.127773C9.32948 0.717773 9.62947 3.27778 8.54947 4.56778C8.11947 5.07778 7.51947 5.33777 6.72947 5.33777C5.87947 5.33777 5.20947 5.03778 4.72947 4.47778C3.64947 3.18778 3.87947 0.797774 3.94947 0.237774L9.22947 0.127773M9.36948 -0.0322266L3.82947 0.0877724C3.82947 0.0877724 2.91947 5.44777 6.72947 5.48777C6.73947 5.48777 6.74947 5.48777 6.75947 5.48777C10.3795 5.48777 9.36948 -0.0222244 9.36948 -0.0222244V-0.0322266Z" fill="#999993"/>
</g>
</svg>
