<svg width="13" height="24" viewBox="0 0 13 24" fill="none" xmlns="http://www.w3.org/2000/svg">
<mask id="mask0_254_12468" style="mask-type:luminance" maskUnits="userSpaceOnUse" x="0" y="0" width="13" height="11">
<path d="M11.4689 8.72671C12.3589 6.87671 12.7889 3.23672 10.5389 2.09672C8.28892 0.956715 6.60893 2.17671 5.51893 1.48671C4.43893 0.806715 1.17894 -0.0232866 0.52894 2.67671C-0.12106 5.37671 0.388932 7.62672 0.708932 8.39672C1.02893 9.16672 1.97893 8.90672 2.79893 8.74672C3.61893 8.58672 5.07893 10.1667 5.92893 10.1667C8.01893 10.1867 8.69892 8.30672 9.69892 8.39672C10.6989 8.48672 11.0189 9.65671 11.4689 8.72671Z" fill="white"/>
</mask>
<g mask="url(#mask0_254_12468)">
<path d="M6.29796 5.01691C5.49796 5.01691 4.86795 4.73692 4.41795 4.20692C3.26795 2.82692 3.69796 0.146915 3.70796 0.126915L8.71797 0.0869141C8.65797 0.116914 9.14795 2.93692 8.00795 4.29692C7.60795 4.77692 7.03795 5.02692 6.31795 5.02692H6.28795L6.29796 5.01691Z" fill="#DDDDDD"/>
<path d="M8.59913 0.147068C8.67913 0.717068 8.94914 3.04707 7.95914 4.23707C7.56914 4.70707 7.01914 4.93707 6.29914 4.93707C5.51914 4.93707 4.90913 4.66707 4.47913 4.14707C3.48913 2.96707 3.69913 0.78707 3.75913 0.24707L8.58915 0.147068M8.72913 -0.00292969L3.63914 0.107067C3.63914 0.107067 2.79914 5.05707 6.29914 5.08707C6.30914 5.08707 6.31914 5.08707 6.32914 5.08707C9.64914 5.08707 8.71915 -0.00292969 8.71915 -0.00292969H8.72913Z" fill="#999993"/>
</g>
</svg>
