<svg width="12" height="22" viewBox="0 0 12 22" fill="none" xmlns="http://www.w3.org/2000/svg">
<mask id="mask0_254_12458" style="mask-type:luminance" maskUnits="userSpaceOnUse" x="0" y="0" width="12" height="9">
<path d="M10.0393 8.38683C11.1993 7.55683 12.0193 5.56682 11.6493 3.46682C11.2793 1.36682 10.2393 1.90682 9.68928 1.80682C9.14928 1.70682 8.20925 0.776823 6.81925 1.05682C5.42925 1.33682 4.89927 1.17682 3.58927 0.876823C2.27927 0.576823 0.989276 1.41682 0.939276 3.29682C0.889276 5.17683 0.939272 6.75682 1.77927 7.45682C2.61927 8.14682 5.14926 7.25682 5.98926 7.45682C6.82926 7.65682 8.25925 9.67683 10.0393 8.39683V8.38683Z" fill="white"/>
</mask>
<g mask="url(#mask0_254_12458)">
<path d="M6.43276 4.7375C5.69276 4.7375 5.11275 4.4775 4.70275 3.9875C3.64275 2.7175 4.04275 0.257501 4.04275 0.227501L8.65276 0.1875C8.59276 0.2175 9.03276 2.8075 7.99276 4.0575C7.62276 4.4975 7.10277 4.7275 6.44277 4.7275H6.41277L6.43276 4.7375Z" fill="#DDDDDD"/>
<path d="M8.53088 0.267185C8.61088 0.807185 8.84089 2.93719 7.94089 4.01719C7.58089 4.44719 7.08087 4.65719 6.42087 4.65719C5.71087 4.65719 5.15089 4.40719 4.75089 3.93719C3.84089 2.85719 4.03088 0.877185 4.09088 0.357185L8.52087 0.267185M8.66089 0.117188L3.97089 0.217186C3.97089 0.217186 3.20088 4.77719 6.43088 4.80719C6.43088 4.80719 6.45088 4.80719 6.46088 4.80719C9.52088 4.80719 8.67087 0.117188 8.67087 0.117188H8.66089Z" fill="#999993"/>
</g>
</svg>
