<svg width="9" height="26" viewBox="0 0 9 26" fill="none" xmlns="http://www.w3.org/2000/svg">
<mask id="mask0_254_12656" style="mask-type:luminance" maskUnits="userSpaceOnUse" x="0" y="0" width="9" height="12">
<path d="M1.29776 9.5078C0.467764 8.6778 -0.0322461 6.1678 0.0377539 4.7678C0.107754 3.3678 0.607755 3.2778 1.75776 2.3378C2.89776 1.3978 4.31776 0.317804 5.35776 1.0078C7.98776 2.7578 9.64778 1.7078 8.46778 5.9578C7.86778 8.1078 8.07777 9.4578 7.20777 10.3078C6.33777 11.1578 5.23778 12.2278 4.15778 11.9078C3.07778 11.5878 1.85776 10.0678 1.29776 9.5078Z" fill="white"/>
</mask>
<g mask="url(#mask0_254_12656)">
<path d="M4.37768 5.4077C3.83768 5.4077 3.3877 5.20769 3.0577 4.82769C1.9277 3.51769 2.3977 0.417695 2.3977 0.387695L6.66769 0.557693C6.60769 0.587693 6.9877 3.44769 5.8677 4.75769C5.4977 5.18769 5.0077 5.40769 4.3977 5.41769H4.37768V5.4077Z" fill="#DDDDDD"/>
<path d="M2.46753 0.517422L6.55752 0.617424C6.61752 1.18742 6.80751 3.54742 5.82751 4.69742C5.47751 5.10742 4.99751 5.31742 4.38751 5.32742C3.85751 5.32742 3.4475 5.14742 3.1275 4.76742C2.1575 3.62742 2.39753 1.11742 2.46753 0.517422ZM2.32751 0.367424C2.32751 0.367424 1.5375 5.47742 4.3775 5.47742C4.3775 5.47742 4.39753 5.47742 4.40753 5.47742C7.39753 5.44742 6.68753 0.467422 6.68753 0.467422L2.33752 0.357422L2.32751 0.367424Z" fill="#999993"/>
</g>
</svg>
