<svg width="11" height="25" viewBox="0 0 11 25" fill="none" xmlns="http://www.w3.org/2000/svg">
<mask id="mask0_254_12646" style="mask-type:luminance" maskUnits="userSpaceOnUse" x="0" y="0" width="11" height="13">
<path d="M0.549165 7.49733C0.119165 5.68733 0.58916 3.68732 1.91916 2.84732C3.24916 2.00732 5.48917 0.447325 6.58917 0.867325C7.68917 1.29732 7.80917 1.78732 8.53917 2.10732C9.26917 2.41732 10.4392 3.89733 10.3392 5.90733C10.2392 7.91733 8.56916 9.31732 8.21916 10.1173C7.86916 10.9173 5.29916 13.3073 3.60916 11.6673C1.92916 10.0273 1.30917 10.6973 0.549165 7.49733Z" fill="white"/>
</mask>
<g mask="url(#mask0_254_12646)">
<path d="M5.7426 5.40688C5.1626 5.40688 4.7026 5.19688 4.3626 4.79688C3.2626 3.50688 3.73261 0.576875 3.73261 0.546875L8.09261 0.716873C8.03261 0.746873 8.4126 3.43687 7.3226 4.71687C6.94261 5.16687 6.4226 5.39687 5.7826 5.39687H5.76261L5.7426 5.40688Z" fill="#DDDDDD"/>
<path d="M3.78091 0.697109L7.95091 0.797112C8.01091 1.34711 8.20092 3.56711 7.25092 4.67711C6.88092 5.10711 6.38092 5.32711 5.74092 5.33711C5.19092 5.33711 4.74092 5.13711 4.41092 4.75711C3.47092 3.64711 3.70091 1.27711 3.78091 0.697109ZM3.65093 0.537109C3.65093 0.537109 2.84092 5.47711 5.74092 5.47711C5.74092 5.47711 5.76092 5.47711 5.77092 5.47711C8.82092 5.44711 8.09093 0.637112 8.09093 0.637112L3.65093 0.537109Z" fill="#999993"/>
</g>
</svg>
