<svg width="15" height="25" viewBox="0 0 15 25" fill="none" xmlns="http://www.w3.org/2000/svg">
<mask id="mask0_254_12636" style="mask-type:luminance" maskUnits="userSpaceOnUse" x="0" y="0" width="15" height="11">
<path d="M0.867294 8.79752C0.207294 6.92752 -0.242707 3.75753 1.39729 2.63753C5.75729 -0.342473 6.59729 1.40753 8.15729 1.11753C9.31729 0.897526 11.6773 0.417526 13.1173 1.41753C14.5573 2.41753 14.1373 6.73753 13.3273 8.09753C12.5273 9.45753 11.4673 9.61753 10.1473 9.53753C8.83729 9.45753 7.22728 10.5575 5.52728 10.0475C3.83728 9.53752 1.37728 10.2875 0.857284 8.80752L0.867294 8.79752Z" fill="white"/>
</mask>
<g mask="url(#mask0_254_12636)">
<path d="M7.41716 5.3968C6.63716 5.3968 6.01717 5.1268 5.57717 4.5968C4.33717 3.1068 4.88716 -0.00320313 4.88716 -0.0332031L10.3472 0.146797C10.2872 0.176797 10.7372 3.0268 9.50717 4.5068C9.01717 5.0868 8.32717 5.3868 7.45717 5.3968H7.42717H7.41716Z" fill="#DDDDDD"/>
<path d="M4.93705 0.117268L10.2171 0.227268C10.2871 0.787268 10.5271 3.17727 9.43705 4.46727C8.96705 5.02727 8.29705 5.31727 7.40705 5.32727C6.64705 5.32727 6.04706 5.06727 5.61706 4.55727C4.53706 3.25727 4.83706 0.707268 4.92706 0.117268M4.81706 -0.0427322C4.81706 -0.0427322 3.80706 5.46727 7.42706 5.46727C7.43706 5.46727 7.44706 5.46727 7.45706 5.46727C11.2671 5.43727 10.3571 0.0672684 10.3571 0.0672684L4.81706 -0.0527344V-0.0427322Z" fill="#999993"/>
</g>
</svg>
