<svg width="12" height="24" viewBox="0 0 12 24" fill="none" xmlns="http://www.w3.org/2000/svg">
<mask id="mask0_254_12626" style="mask-type:luminance" maskUnits="userSpaceOnUse" x="0" y="0" width="12" height="11">
<path d="M0.720107 8.70718C-0.169893 6.85718 -0.599885 3.21718 1.65011 2.07718C3.90012 0.937183 5.5801 2.15718 6.6701 1.46718C7.7501 0.787182 11.0101 -0.0428157 11.6601 2.65718C12.3201 5.35718 11.8001 7.60718 11.4801 8.37718C11.1601 9.14718 10.2101 8.88718 9.39011 8.72718C8.57011 8.56718 7.11012 10.1472 6.26012 10.1472C4.17012 10.1672 3.49011 8.28718 2.49011 8.37718C1.49011 8.46718 1.17011 9.63718 0.720107 8.70718Z" fill="white"/>
</mask>
<g mask="url(#mask0_254_12626)">
<path d="M5.85137 5.00684C5.14137 5.00684 4.57136 4.75684 4.16136 4.27684C3.01136 2.90684 3.52136 0.0368359 3.53136 0.00683594L8.54137 0.176834C8.49137 0.206834 8.90137 2.83683 7.76137 4.19683C7.31137 4.72683 6.68136 5.00684 5.88136 5.00684H5.85137Z" fill="#DDDDDD"/>
<path d="M3.58976 0.137306L8.41974 0.237305C8.48974 0.777305 8.69975 2.95731 7.70975 4.13731C7.27975 4.64731 6.66975 4.9173 5.85975 4.9273C5.16975 4.9273 4.61976 4.68731 4.22976 4.22731C3.23976 3.04731 3.50976 0.707306 3.58976 0.137306ZM3.45975 -0.0126953C3.45975 -0.0126953 2.52975 5.0773 5.84975 5.0773C5.84975 5.0773 5.86975 5.0773 5.87975 5.0773C9.37975 5.0473 8.53975 0.0973053 8.53975 0.0973053L3.44974 -0.0126953H3.45975Z" fill="#999993"/>
</g>
</svg>
