<svg width="12" height="22" viewBox="0 0 12 22" fill="none" xmlns="http://www.w3.org/2000/svg">
<mask id="mask0_254_12616" style="mask-type:luminance" maskUnits="userSpaceOnUse" x="0" y="0" width="12" height="9">
<path d="M2.14899 8.37706C0.988995 7.54706 0.168994 5.55706 0.538994 3.45706C0.908994 1.35706 1.94899 1.89706 2.49899 1.79706C3.03899 1.69706 3.979 0.767058 5.369 1.04706C6.759 1.32706 7.28899 1.16706 8.59899 0.867058C9.90899 0.567058 11.199 1.40706 11.249 3.28706C11.299 5.16706 11.249 6.74706 10.409 7.44706C9.56899 8.13706 7.03898 7.24706 6.19898 7.44706C5.35898 7.64706 3.92899 9.66706 2.14899 8.38706V8.37706Z" fill="white"/>
</mask>
<g mask="url(#mask0_254_12616)">
<path d="M5.72711 4.71719C5.06711 4.71719 4.5471 4.48719 4.1771 4.04719C3.1271 2.78719 3.5871 0.137187 3.5971 0.117188L8.2071 0.277187C8.1571 0.307187 8.52711 2.72719 7.47711 3.97719C7.06711 4.46719 6.4871 4.71719 5.7471 4.72719H5.7171L5.72711 4.71719Z" fill="#DDDDDD"/>
<path d="M3.65886 0.257423L8.08887 0.347424C8.15887 0.857424 8.33886 2.83742 7.42886 3.92742C7.02886 4.39742 6.46887 4.63742 5.72887 4.64742C5.09887 4.64742 4.58886 4.42742 4.23886 4.00742C3.33886 2.92742 3.57887 0.797423 3.64887 0.257423M3.52885 0.107422C3.52885 0.107422 2.66886 4.79742 5.73886 4.79742C5.73886 4.79742 5.75886 4.79742 5.76886 4.79742C8.99886 4.76742 8.22887 0.207424 8.22887 0.207424L3.53886 0.107422H3.52885Z" fill="#999993"/>
</g>
</svg>
