<svg width="11" height="20" viewBox="0 0 11 20" fill="none" xmlns="http://www.w3.org/2000/svg">
<mask id="mask0_254_12761" style="mask-type:luminance" maskUnits="userSpaceOnUse" x="1" y="12" width="9" height="8">
<path d="M7.62922 13.3873C7.83922 13.6073 8.04922 13.8673 8.24922 14.1473C8.90922 15.0073 9.31922 16.1073 9.28922 17.6073C9.23922 18.4773 8.88922 18.8873 8.31922 18.9773C7.91922 19.0373 7.49922 18.9173 7.17922 18.6673C6.84922 18.4073 6.49922 18.4973 6.13922 18.7573C5.77922 19.0173 5.36922 19.1873 4.92922 19.1873C4.10922 19.1873 3.31922 19.0873 2.53922 18.8973C1.90922 18.8273 1.51922 18.3973 1.49922 17.4673C1.31922 16.4373 1.46922 15.4173 1.95922 14.4073C2.04922 14.2273 2.16922 14.0573 2.30922 13.9073C2.32922 13.8873 2.33922 13.8673 2.35922 13.8573C4.17922 11.8973 5.94922 11.5773 7.62922 13.3773V13.3873Z" fill="white"/>
</mask>
<g mask="url(#mask0_254_12761)">
<path d="M3.78765 20.247C3.73765 19.837 3.48765 17.587 4.33765 16.597C4.60765 16.287 4.95765 16.127 5.39765 16.127C5.90765 16.127 6.30765 16.307 6.60765 16.657C7.55765 17.757 7.21765 20.197 7.21765 20.227L3.78765 20.247Z" fill="#DDDDDD"/>
<path d="M5.4079 16.0471L5.4279 16.1971C5.8979 16.1971 6.2679 16.3671 6.5579 16.6971C7.3579 17.6271 7.2179 19.5671 7.1679 20.0771L3.8579 20.1571C3.7979 19.6171 3.6079 17.5471 4.4079 16.6271C4.6679 16.3271 4.9979 16.1871 5.4079 16.1871V16.0371M5.4079 16.0471C3.0779 16.0471 3.7279 20.3271 3.7279 20.3271L7.2979 20.2371C7.2979 20.2371 7.8879 16.0771 5.4279 16.0471C5.4279 16.0471 5.4179 16.0471 5.4079 16.0471Z" fill="#999993"/>
</g>
</svg>
