<svg width="14" height="20" viewBox="0 0 14 20" fill="none" xmlns="http://www.w3.org/2000/svg">
<mask id="mask0_254_12748" style="mask-type:luminance" maskUnits="userSpaceOnUse" x="3" y="11" width="11" height="9">
<path d="M11.9693 13.3668C12.0993 13.5168 12.2293 13.6668 12.3593 13.8368C13.4693 15.4568 14.1193 16.9968 12.7593 18.2068C11.8093 18.9368 10.4193 19.1368 8.87929 19.1568C8.61929 19.1568 8.37929 19.0068 8.23929 18.7868C7.95929 18.3568 7.42929 18.5568 6.79929 18.9868C6.60929 19.1168 6.38929 19.1968 6.15929 19.2068C5.61929 19.2368 5.15929 19.1268 4.74929 18.8968C3.81929 18.3968 3.31929 17.3568 3.38929 16.3068C3.40929 15.8968 3.47929 15.4968 3.57929 15.1068C3.76929 14.3068 4.23929 13.6068 4.89929 13.1268C7.58929 11.1668 9.96929 11.1268 11.9693 13.3668Z" fill="white"/>
</mask>
<g mask="url(#mask0_254_12748)">
<path d="M6.3875 19.9273C6.3275 19.5373 6.0575 17.4373 6.9275 16.3873C7.2675 15.9873 7.7375 15.7773 8.3375 15.7773C9.0275 15.7773 9.5575 16.0073 9.9275 16.4573C10.8975 17.6173 10.5275 19.8773 10.5275 19.8973L6.3875 19.9273Z" fill="#DDDDDD"/>
<path d="M8.33936 15.707L8.35936 15.857C8.99936 15.857 9.50936 16.087 9.86936 16.507C10.6894 17.487 10.5294 19.277 10.4694 19.767L6.44936 19.857C6.37936 19.347 6.16936 17.427 6.98936 16.447C7.30936 16.057 7.76936 15.867 8.33936 15.867V15.717M8.33936 15.707C5.53936 15.707 6.32936 19.997 6.32936 19.997L10.6094 19.907C10.6094 19.907 11.3094 15.727 8.36936 15.707H8.34936H8.33936Z" fill="#999993"/>
</g>
</svg>
