<svg width="11" height="20" viewBox="0 0 11 20" fill="none" xmlns="http://www.w3.org/2000/svg">
<mask id="mask0_254_12603" style="mask-type:luminance" maskUnits="userSpaceOnUse" x="1" y="12" width="9" height="8">
<path d="M3.14983 13.4566C2.93983 13.6766 2.72982 13.9366 2.52982 14.2166C1.86982 15.0766 1.45982 16.1766 1.48982 17.6766C1.53982 18.5466 1.88982 18.9566 2.45982 19.0466C2.85982 19.1066 3.27982 18.9866 3.59982 18.7366C3.92982 18.4766 4.27982 18.5666 4.63982 18.8266C4.99982 19.0866 5.40982 19.2566 5.84982 19.2566C6.66982 19.2566 7.45982 19.1566 8.23982 18.9666C8.86982 18.8966 9.25982 18.4666 9.27982 17.5366C9.45982 16.5066 9.30982 15.4866 8.81982 14.4766C8.72982 14.2966 8.60982 14.1266 8.46982 13.9766C8.44982 13.9566 8.43982 13.9366 8.41982 13.9266C6.59982 11.9666 4.82983 11.6466 3.14983 13.4466V13.4566Z" fill="white"/>
</mask>
<g mask="url(#mask0_254_12603)">
<path d="M3.47662 20.2265C3.53662 20.1865 3.22661 17.8065 4.15661 16.7165C4.45661 16.3665 4.85661 16.1865 5.34661 16.1865C5.80661 16.1865 6.15661 16.3465 6.42661 16.6565C7.27661 17.6465 7.03661 19.8965 6.98661 20.3065L3.48661 20.2165L3.47662 20.2265Z" fill="#DDDDDD"/>
<path d="M5.35825 16.1064V16.2564C5.77825 16.2564 6.10825 16.4064 6.35825 16.6964C7.14825 17.6164 6.96825 19.6864 6.90825 20.2264L3.59826 20.1464C3.54826 19.6364 3.40826 17.6964 4.20826 16.7664C4.49826 16.4364 4.86826 16.2664 5.33826 16.2664L5.35825 16.1164M5.35825 16.1064C5.35825 16.1064 5.34826 16.1064 5.33826 16.1064C2.87826 16.1364 3.46825 20.2964 3.46825 20.2964L7.03826 20.3864C7.03826 20.3864 7.68825 16.1064 5.35825 16.1064Z" fill="#999993"/>
</g>
</svg>
