<svg width="14" height="20" viewBox="0 0 14 20" fill="none" xmlns="http://www.w3.org/2000/svg">
<mask id="mask0_254_12590" style="mask-type:luminance" maskUnits="userSpaceOnUse" x="0" y="11" width="11" height="9">
<path d="M1.80249 13.4264C1.67249 13.5764 1.54249 13.7264 1.41249 13.8964C0.30249 15.5164 -0.347504 17.0564 1.0125 18.2664C1.9625 18.9964 3.35249 19.1964 4.89249 19.2164C5.15249 19.2164 5.39249 19.0664 5.53249 18.8464C5.81249 18.4164 6.34249 18.6164 6.97249 19.0464C7.16249 19.1764 7.38249 19.2564 7.61249 19.2664C8.15249 19.2964 8.61249 19.1864 9.02249 18.9564C9.95249 18.4564 10.4525 17.4164 10.3825 16.3664C10.3625 15.9564 10.2925 15.5564 10.1925 15.1664C10.0025 14.3664 9.5325 13.6664 8.8725 13.1864C6.1825 11.2264 3.80249 11.1864 1.80249 13.4264Z" fill="white"/>
</mask>
<g mask="url(#mask0_254_12590)">
<path d="M3.17278 19.8969C3.22278 19.8569 2.89279 17.6569 3.84279 16.5169C4.21279 16.0769 4.74278 15.8469 5.41278 15.8369C6.03278 15.8369 6.50279 16.0369 6.84279 16.4469C7.72279 17.4969 7.44278 19.5969 7.38278 19.9869L3.17278 19.8969Z" fill="#DDDDDD"/>
<path d="M5.43441 15.7668V15.9168C6.00441 15.9168 6.4644 16.1168 6.7844 16.4968C7.6044 17.4768 7.39441 19.3968 7.32441 19.9068L3.30441 19.8168C3.24441 19.3368 3.08441 17.5368 3.90441 16.5568C4.26441 16.1268 4.77441 15.9068 5.41441 15.9068L5.43441 15.7568M5.43441 15.7668H5.41441C2.47441 15.7968 3.1744 19.9668 3.1744 19.9668L7.4544 20.0568C7.4544 20.0568 8.23441 15.7668 5.44441 15.7668H5.43441Z" fill="#999993"/>
</g>
</svg>
