<svg width="12" height="18" viewBox="0 0 12 18" fill="none" xmlns="http://www.w3.org/2000/svg">
<mask id="mask0_254_12578" style="mask-type:luminance" maskUnits="userSpaceOnUse" x="1" y="0" width="10" height="9">
<path d="M9.39112 7.19734C9.70112 6.88734 9.96112 6.52734 10.1311 6.11734C10.5611 5.07734 10.6811 3.91734 10.5711 2.65734C10.5211 2.10734 10.3211 1.56734 9.94112 1.16734C9.23112 0.417339 8.29112 0.40734 7.17112 0.95734C6.61112 1.42734 5.90113 1.22734 5.12113 0.667339C3.91113 0.197339 2.89112 0.29734 2.06112 0.95734C1.24112 1.96734 1.20112 3.38734 1.91112 5.21734C2.17112 5.90734 2.55113 6.53734 3.04113 7.07734C3.30113 7.36734 3.60112 7.62734 3.92112 7.84734C5.51112 8.92734 7.18112 8.81734 8.95112 7.55734C9.11111 7.44734 9.25112 7.32734 9.39112 7.18734V7.19734Z" fill="white"/>
</mask>
<g mask="url(#mask0_254_12578)">
<path d="M6.20301 4.17754C5.57301 4.17754 5.08302 3.96754 4.74302 3.55754C3.83302 2.45754 4.25302 0.247539 4.25302 0.227539L8.47302 0.377537C8.42302 0.417537 8.74302 2.40754 7.85302 3.48754C7.47302 3.93754 6.93303 4.17754 6.23303 4.17754H6.21302H6.20301Z" fill="#DDDDDD"/>
<path d="M4.31188 0.357265L8.35189 0.437267C8.41189 0.887267 8.56189 2.50727 7.79189 3.42727C7.43189 3.86727 6.90188 4.08727 6.20188 4.09727C5.60188 4.09727 5.13188 3.89727 4.80188 3.49727C4.04188 2.56727 4.23188 0.827266 4.30188 0.357265M4.18189 0.207268C4.18189 0.207268 3.40188 4.24727 6.20188 4.24727H6.22188C9.17188 4.22727 8.47188 0.287266 8.47188 0.287266L4.17188 0.197266L4.18189 0.207268Z" fill="#999993"/>
</g>
</svg>
