<svg width="13" height="19" viewBox="0 0 13 19" fill="none" xmlns="http://www.w3.org/2000/svg">
<mask id="mask0_254_12566" style="mask-type:luminance" maskUnits="userSpaceOnUse" x="0" y="0" width="11" height="10">
<path d="M9.34781 8.07695C9.79781 7.83695 10.1778 7.47695 10.3878 7.00695C10.5578 6.65695 10.6478 6.28695 10.6878 5.89695C10.8678 4.79695 10.8378 3.66695 10.6578 2.52695C10.5878 2.11695 10.4078 1.73695 10.1178 1.44695C9.64781 0.966948 9.1778 0.646949 8.6878 0.576949C7.9478 0.326949 7.23781 0.416948 6.53781 0.786948H6.4678C5.9778 1.01695 5.50781 1.00695 5.03781 0.786948C3.48781 0.296948 2.0478 0.196948 0.7778 0.856948C0.4278 1.10695 0.17781 1.62695 0.0378101 2.48695C-0.0921898 4.24695 0.47781 5.89695 1.53781 7.47695C1.63781 7.62695 1.74781 7.75695 1.87781 7.87695C2.05781 8.04695 2.2678 8.18695 2.4978 8.29695C4.8578 9.37695 7.13781 9.27695 9.33781 8.08695L9.34781 8.07695Z" fill="white"/>
</mask>
<g mask="url(#mask0_254_12566)">
<path d="M5.53613 4.17617C4.88613 4.17617 4.37612 3.95617 4.02612 3.52617C3.08612 2.38617 3.51613 0.0961719 3.51613 0.0761719L7.88612 0.226173C7.83612 0.266173 8.17613 2.33617 7.23613 3.45617C6.84613 3.92617 6.27612 4.16617 5.55612 4.17617H5.52612H5.53613Z" fill="#DDDDDD"/>
<path d="M3.56735 0.206642L7.76735 0.28664C7.82735 0.74664 7.98734 2.43664 7.18734 3.39664C6.80734 3.84664 6.26735 4.08664 5.53735 4.08664C4.90735 4.08664 4.41735 3.87664 4.08735 3.46664C3.28735 2.50664 3.49734 0.68664 3.57734 0.19664M3.44734 0.0566406C3.44734 0.0566406 2.63734 4.24664 5.54734 4.24664C5.54734 4.24664 5.56734 4.24664 5.57734 4.24664C8.63734 4.21664 7.90735 0.146641 7.90735 0.146641L3.45735 0.0566406H3.44734Z" fill="#999993"/>
</g>
</svg>
