<svg width="12" height="19" viewBox="0 0 12 19" fill="none" xmlns="http://www.w3.org/2000/svg">
<mask id="mask0_254_12736" style="mask-type:luminance" maskUnits="userSpaceOnUse" x="1" y="0" width="10" height="10">
<path d="M2.3278 7.74715C2.0178 7.43715 1.7578 7.07714 1.5878 6.66714C1.1578 5.62714 1.0378 4.46715 1.1478 3.20715C1.1978 2.65715 1.3978 2.11714 1.7778 1.71714C2.4878 0.967143 3.4278 0.957144 4.5478 1.50714C5.1078 1.97714 5.8178 1.77714 6.5978 1.21714C7.8078 0.747143 8.8278 0.847144 9.6578 1.50714C10.4778 2.51714 10.5178 3.93714 9.8078 5.76714C9.5478 6.45714 9.1678 7.08714 8.6778 7.62714C8.4178 7.91714 8.1178 8.17715 7.7978 8.39715C6.2078 9.47715 4.5378 9.36715 2.7678 8.10715C2.6078 7.99715 2.4678 7.87714 2.3278 7.73714V7.74715Z" fill="white"/>
</mask>
<g mask="url(#mask0_254_12736)">
<path d="M5.49047 4.72668C4.79047 4.72668 4.24047 4.48668 3.87047 4.03668C2.96047 2.93668 3.31047 0.88668 3.32047 0.86668L7.54047 0.84668C7.49047 0.88668 7.87047 3.03668 6.98047 4.11668C6.64047 4.52668 6.15047 4.73668 5.52047 4.73668H5.50047L5.49047 4.72668Z" fill="#DDDDDD"/>
<path d="M7.40876 0.916836C7.47876 1.39684 7.67876 3.13684 6.91876 4.05684C6.58876 4.45684 6.11876 4.65684 5.49876 4.65684C4.81876 4.65684 4.29876 4.42684 3.93876 3.98684C3.17876 3.06684 3.31876 1.44684 3.37876 0.996838L7.41876 0.916836M7.52876 0.756836L3.22876 0.846836C3.22876 0.846836 2.52876 4.77683 5.47876 4.80684H5.49876C8.30876 4.80684 7.51876 0.766834 7.51876 0.766834L7.52876 0.756836Z" fill="#999993"/>
</g>
</svg>
