<svg width="13" height="20" viewBox="0 0 13 20" fill="none" xmlns="http://www.w3.org/2000/svg">
<mask id="mask0_254_12724" style="mask-type:luminance" maskUnits="userSpaceOnUse" x="1" y="0" width="12" height="10">
<path d="M3.37109 8.62675C2.92109 8.38675 2.54109 8.02675 2.33109 7.55675C2.16109 7.20675 2.07109 6.83675 2.03109 6.44675C1.85109 5.34675 1.88109 4.21675 2.06109 3.07675C2.13109 2.66675 2.31109 2.28675 2.60109 1.99675C3.07109 1.51675 3.54109 1.19675 4.03109 1.12675C4.77109 0.876752 5.48109 0.966751 6.18109 1.33675H6.25109C6.74109 1.56675 7.21109 1.55675 7.68109 1.33675C9.23109 0.846751 10.6711 0.746755 11.9411 1.40675C12.2911 1.65675 12.5411 2.17675 12.6811 3.03675C12.8111 4.79675 12.2411 6.44675 11.1811 8.02675C11.0811 8.17675 10.9711 8.30676 10.8411 8.42675C10.6611 8.59676 10.4511 8.73675 10.2211 8.84675C7.86109 9.92675 5.58109 9.82675 3.38109 8.63675L3.37109 8.62675Z" fill="white"/>
</mask>
<g mask="url(#mask0_254_12724)">
<path d="M7.15125 4.7275C6.42125 4.7275 5.86125 4.4775 5.47125 4.0075C4.52125 2.8675 4.89125 0.737499 4.89125 0.717499L9.27125 0.6875C9.22125 0.7275 9.62125 2.9575 8.69125 4.0775C8.34125 4.5075 7.83125 4.7275 7.18125 4.7275H7.16125H7.15125Z" fill="#DDDDDD"/>
<path d="M9.14226 0.767185C9.21226 1.25719 9.42226 3.06719 8.63226 4.03719C8.29226 4.44719 7.80226 4.65719 7.15226 4.65719C6.45226 4.65719 5.90226 4.41719 5.52226 3.96719C4.72226 3.00719 4.88226 1.31719 4.94226 0.857185L9.14226 0.777187M9.27226 0.617188L4.82226 0.707188C4.82226 0.707188 4.09226 4.78719 7.15226 4.80719C7.15226 4.80719 7.17226 4.80719 7.18226 4.80719C10.0923 4.80719 9.28226 0.617188 9.28226 0.617188H9.27226Z" fill="#999993"/>
</g>
</svg>
