<svg width="12" height="29" viewBox="0 0 12 29" fill="none" xmlns="http://www.w3.org/2000/svg">
<path opacity="0.5" d="M2.01331 27.5164C2.27331 27.5764 3.41333 28.2264 5.03333 28.0664C6.04333 27.9664 7.31332 28.3764 8.55332 27.9264C9.18332 27.6964 9.90334 27.6564 10.6033 27.4164C11.3733 27.1564 11.4233 24.1164 11.1733 21.2864C10.9133 18.4564 10.3533 19.1764 9.42332 17.5764C5.38332 10.6164 4.90333 16.8664 2.90333 17.0064C1.62333 17.0964 -0.516666 26.9364 2.00333 27.5164H2.01331Z" fill="#E62C2F" stroke="#E62C2F" stroke-width="0.2" stroke-linecap="round" stroke-linejoin="round"/>
<path d="M2.43408 26.9564C2.66408 27.0064 3.68407 27.5864 5.14407 27.4464C6.05407 27.3564 7.18406 27.7264 8.29406 27.3164C8.85406 27.1064 9.50409 27.0764 10.1341 26.8664C10.8241 26.6364 10.8741 23.9164 10.6441 21.3764C10.4141 18.8364 9.90406 19.4864 9.07406 18.0564C5.45406 11.8264 5.03408 17.4164 3.24408 17.5464C2.10408 17.6264 0.184078 26.4364 2.43408 26.9464V26.9564Z" fill="white"/>
</svg>
