<svg width="10" height="28" viewBox="0 0 10 28" fill="none" xmlns="http://www.w3.org/2000/svg">
<path opacity="0.5" d="M1.4634 26.2071C0.2934 25.5371 0.503411 22.0471 0.443411 20.0371C0.333411 16.1271 4.7734 11.8471 7.8334 16.3171C8.8134 17.7471 9.27341 18.1671 9.28341 21.7971C9.28341 25.4271 8.39341 28.3971 6.16341 26.9971C3.92341 25.5971 3.9734 27.6571 1.4634 26.2171V26.2071Z" fill="#E62C2F" stroke="#E62C2F" stroke-width="0.2" stroke-linecap="round" stroke-linejoin="round"/>
<path d="M1.90328 25.5271C0.883275 24.9371 1.06326 21.8971 1.01326 20.1371C0.92326 16.7171 4.79327 12.9871 7.46327 16.8871C8.31327 18.1371 8.72328 18.4971 8.72328 21.6671C8.72328 24.8371 7.95327 27.4271 5.99327 26.2071C4.04327 24.9871 4.08327 26.7871 1.89327 25.5271H1.90328Z" fill="white"/>
</svg>
