<svg width="12" height="33" viewBox="0 0 12 33" fill="none" xmlns="http://www.w3.org/2000/svg">
<path opacity="0.5" d="M1.09675 28.3871C0.546754 26.0771 1.87675 22.9971 2.15675 21.5871C2.43675 20.1871 4.56675 18.3371 6.05675 18.4471C7.54675 18.5571 9.46675 19.7471 9.71675 20.6871C11.0067 25.6071 12.4067 28.1671 10.0767 30.8771C8.58673 32.6071 6.27675 32.7671 4.62675 31.3671C2.97675 29.9671 1.70676 30.9371 1.10676 28.3971L1.09675 28.3871Z" fill="#E62C2F" stroke="#E62C2F" stroke-width="0.2" stroke-linecap="round" stroke-linejoin="round"/>
<path d="M1.67648 28.0472C1.18648 25.9972 2.36649 23.2672 2.61649 22.0172C2.85649 20.7672 4.75648 19.1372 6.07648 19.2272C7.39648 19.3272 9.10648 20.3772 9.32648 21.2172C10.4665 25.5772 11.7065 27.8472 9.64648 30.2472C8.32648 31.7772 6.2765 31.9272 4.8165 30.6772C3.3565 29.4272 2.2265 30.2972 1.6965 28.0472H1.67648Z" fill="white"/>
</svg>
