<svg width="13" height="29" viewBox="0 0 13 29" fill="none" xmlns="http://www.w3.org/2000/svg">
<path opacity="0.5" d="M0.453125 23.6464C0.453125 21.4464 1.11314 18.0364 2.37314 16.5564C3.21314 15.5764 5.01315 14.6864 6.38315 14.8764C7.75315 15.0664 8.25312 16.6564 9.29312 16.6064C10.3331 16.5564 11.2731 16.3364 11.4931 18.3064C11.7131 20.2864 12.1631 20.4464 12.3531 21.7164C12.5431 22.9764 12.9831 24.0564 10.6231 25.0064C8.25314 25.9564 7.67312 28.8064 5.57312 28.1764C3.47312 27.5464 3.74312 26.3364 2.26312 25.7864C0.783123 25.2364 0.453125 24.4664 0.453125 23.6464Z" fill="#E62C2F" stroke="#E62C2F" stroke-width="0.2" stroke-linecap="round" stroke-linejoin="round"/>
<path d="M1.125 23.406C1.125 21.456 1.71499 18.416 2.83499 17.106C3.57499 16.236 5.17499 15.446 6.39499 15.616C7.61499 15.786 8.05499 17.196 8.98499 17.156C9.90499 17.116 10.745 16.916 10.935 18.666C11.135 20.426 11.525 20.566 11.695 21.696C11.865 22.816 12.255 23.776 10.155 24.616C8.055 25.456 7.53499 27.996 5.67499 27.436C3.80499 26.876 4.05499 25.806 2.73499 25.316C1.41499 24.826 1.125 24.146 1.125 23.416V23.406Z" fill="white"/>
</svg>
