<svg width="11" height="28" viewBox="0 0 11 28" fill="none" xmlns="http://www.w3.org/2000/svg">
<path opacity="0.5" d="M1.42602 25.0568C1.97602 25.9968 3.82602 25.8268 4.09602 26.6068C4.37602 27.3768 7.12601 27.7168 7.89601 26.3868C8.66601 25.0568 10.106 24.5568 10.446 23.2868C10.776 22.0168 11.166 17.0368 10.446 16.5368C9.72601 16.0368 8.51602 16.6468 7.90602 15.9868C7.29602 15.3268 5.77602 13.4968 4.73602 14.6568C3.69602 15.8168 3.50601 16.6068 2.64601 16.7868C0.426009 17.2568 1.02602 24.3868 1.42602 25.0568Z" fill="#E62C2F" stroke="#E62C2F" stroke-width="0.2" stroke-linecap="round" stroke-linejoin="round"/>
<path d="M1.95634 24.5563C2.44634 25.3863 4.06634 25.2363 4.31634 25.9263C4.55634 26.6063 6.98634 26.9063 7.66634 25.7263C8.34634 24.5563 9.61634 24.1163 9.91634 22.9963C10.2063 21.8763 10.5463 17.4763 9.91634 17.0363C9.28634 16.5963 8.21635 17.1363 7.67635 16.5463C7.13635 15.9563 5.79634 14.3463 4.87634 15.3763C3.95634 16.4063 3.78635 17.0963 3.03635 17.2563C1.07635 17.6663 1.60634 23.9563 1.95634 24.5563Z" fill="white"/>
</svg>
