<svg width="14" height="29" viewBox="0 0 14 29" fill="none" xmlns="http://www.w3.org/2000/svg">
<path opacity="0.5" d="M1.1333 17.8665C0.283298 19.4165 -0.0466973 25.3165 0.653303 26.3365C1.3533 27.3665 3.25329 27.5265 4.00329 26.7665C4.75329 26.0065 5.0033 26.8665 5.6833 27.2365C6.3633 27.6065 6.9533 26.9165 7.6833 27.6265C9.0633 28.9765 11.7433 28.0565 12.5033 24.8665C13.2633 21.6765 13.4233 18.8065 13.0433 17.8365C12.6633 16.8665 10.8233 18.4365 9.5233 17.2365C8.2233 16.0465 6.3333 16.0965 4.7633 16.8065C3.1933 17.5165 2.3733 15.5865 1.1333 17.8565V17.8665Z" fill="#E62C2F" stroke="#E62C2F" stroke-width="0.2" stroke-linecap="round" stroke-linejoin="round"/>
<path d="M1.60244 18.1567C0.832438 19.5567 0.532445 24.8767 1.17244 25.8067C1.80244 26.7367 3.51244 26.8767 4.20244 26.1967C4.89244 25.5167 5.10244 26.2867 5.71244 26.6267C6.32244 26.9567 6.86244 26.3367 7.52244 26.9867C8.77244 28.2067 11.1824 27.3767 11.8724 24.4967C12.5524 21.6167 12.7024 19.0267 12.3624 18.1467C12.0224 17.2667 10.3624 18.6867 9.19243 17.6067C8.02243 16.5367 6.31243 16.5767 4.89243 17.2167C3.47243 17.8567 2.74243 16.1167 1.61243 18.1667L1.60244 18.1567Z" fill="white"/>
</svg>
