<svg width="15" height="26" viewBox="0 0 15 26" fill="none" xmlns="http://www.w3.org/2000/svg">
<path opacity="0.5" d="M1.8834 15.8065C0.333397 18.2265 0.213398 22.2065 2.1034 23.2865C3.9834 24.3665 5.06339 23.2865 5.97339 23.5565C6.88339 23.8265 9.4834 26.6165 11.5134 24.7365C13.7034 22.7065 14.6834 16.7765 13.7134 15.4365C11.6334 12.5465 9.7934 15.8765 6.9034 14.2065C5.9534 13.6565 3.4234 13.3865 1.8734 15.8065H1.8834Z" fill="#E62C2F" stroke="#E62C2F" stroke-width="0.2" stroke-linecap="round" stroke-linejoin="round"/>
<path d="M2.39451 15.8269C0.984514 18.0269 0.884526 21.6369 2.59453 22.6169C4.30453 23.5969 5.28451 22.6169 6.11451 22.8569C6.94451 23.0969 9.29451 25.6369 11.1445 23.9269C13.1345 22.0869 14.0245 16.7069 13.1445 15.4869C11.2545 12.8669 9.58452 15.8869 6.96452 14.3769C6.10452 13.8769 3.81452 13.6369 2.40452 15.8369L2.39451 15.8269Z" fill="white"/>
</svg>
