<svg width="13" height="25" viewBox="0 0 13 25" fill="none" xmlns="http://www.w3.org/2000/svg">
<path opacity="0.5" d="M1.17324 16.2465C0.303244 18.2065 0.80324 23.4865 2.76324 23.4865C4.72324 23.4865 5.20324 23.1765 5.93324 23.9165C6.66324 24.6565 7.76324 23.5465 8.37324 23.6765C8.98324 23.7965 11.2232 25.4465 11.8432 22.1465C12.4632 18.8565 12.5232 13.9665 10.6332 14.3365C5.95324 15.2465 7.09324 10.3065 3.43324 15.3165C2.76324 16.2365 1.90324 14.6065 1.17324 16.2565V16.2465Z" fill="#E62C2F" stroke="#E62C2F" stroke-width="0.2" stroke-linecap="round" stroke-linejoin="round"/>
<path d="M1.81215 16.5271C1.04215 18.2471 1.49215 22.8971 3.21215 22.8971C4.93215 22.8971 5.36214 22.6271 6.00214 23.2771C6.64214 23.9271 7.61215 22.9571 8.15215 23.0671C8.69215 23.1771 10.6622 24.6171 11.2022 21.7271C11.7522 18.8271 11.8021 14.5271 10.1321 14.8571C6.01214 15.6571 7.02215 11.3171 3.79215 15.7171C3.20215 16.5271 2.45214 15.0971 1.80214 16.5471L1.81215 16.5271Z" fill="white"/>
</svg>
