<svg width="12" height="29" viewBox="0 0 12 29" fill="none" xmlns="http://www.w3.org/2000/svg">
<path opacity="0.5" d="M10.0444 27.5271C9.78444 27.5871 8.64445 28.2371 7.02445 28.0771C6.01445 27.9771 4.74446 28.3871 3.50446 27.9371C2.87446 27.7071 2.15445 27.6671 1.45445 27.4271C0.684446 27.1671 0.634469 24.1271 0.884469 21.2971C1.14447 18.4671 1.70447 19.1871 2.63447 17.5871C6.67447 10.6271 7.15446 16.8771 9.15446 17.0171C10.4345 17.1071 12.5745 26.9471 10.0545 27.5271H10.0444Z" fill="#E62C2F" stroke="#E62C2F" stroke-width="0.2" stroke-linecap="round" stroke-linejoin="round"/>
<path d="M9.61459 26.9769C9.38459 27.0269 8.3646 27.6069 6.9046 27.4669C5.9946 27.3769 4.86461 27.7469 3.75461 27.3369C3.19461 27.1269 2.54461 27.0969 1.91461 26.8869C1.22461 26.6569 1.1746 23.9369 1.4046 21.3969C1.6346 18.8569 2.14461 19.5069 2.97461 18.0769C6.59461 11.8469 7.0146 17.4369 8.8046 17.5669C9.9446 17.6469 11.8646 26.4569 9.61459 26.9669V26.9769Z" fill="white"/>
</svg>
