<svg width="10" height="28" viewBox="0 0 10 28" fill="none" xmlns="http://www.w3.org/2000/svg">
<path opacity="0.5" d="M8.58563 26.2169C9.75563 25.5469 9.54565 22.0569 9.60565 20.0469C9.71565 16.1369 5.27564 11.8569 2.21564 16.3269C1.23564 17.7569 0.775625 18.1769 0.765625 21.8069C0.765625 25.4369 1.65565 28.4069 3.88565 27.0069C6.12565 25.6069 6.07563 27.6669 8.58563 26.2269V26.2169Z" fill="#E62C2F" stroke="#E62C2F" stroke-width="0.2" stroke-linecap="round" stroke-linejoin="round"/>
<path d="M8.15594 25.5467C9.17594 24.9567 8.99593 21.9167 9.04593 20.1567C9.13593 16.7367 5.26595 13.0067 2.59595 16.9067C1.74595 18.1567 1.33594 18.5167 1.33594 21.6867C1.33594 24.8567 2.10595 27.4467 4.06595 26.2267C6.01595 25.0067 5.97595 26.8067 8.16595 25.5467H8.15594Z" fill="white"/>
</svg>
