<svg width="12" height="33" viewBox="0 0 12 33" fill="none" xmlns="http://www.w3.org/2000/svg">
<path opacity="0.5" d="M10.9545 28.4066C11.5045 26.0966 10.1745 23.0166 9.89454 21.6066C9.61454 20.2066 7.48454 18.3566 5.99454 18.4666C4.50454 18.5766 2.58454 19.7666 2.33454 20.7066C1.04454 25.6266 -0.355446 28.1866 1.97455 30.8966C3.46455 32.6266 5.77454 32.7866 7.42454 31.3866C9.07454 29.9866 10.3446 30.9566 10.9446 28.4166L10.9545 28.4066Z" fill="#E62C2F" stroke="#E62C2F" stroke-width="0.2" stroke-linecap="round" stroke-linejoin="round"/>
<path d="M10.3847 28.0667C10.8747 26.0167 9.6947 23.2867 9.4447 22.0367C9.2047 20.7867 7.30468 19.1567 5.98468 19.2467C4.66468 19.3467 2.95468 20.3967 2.73468 21.2367C1.59468 25.5967 0.3547 27.8667 2.4147 30.2667C3.7347 31.7967 5.78469 31.9467 7.24469 30.6967C8.70469 29.4467 9.83468 30.3167 10.3647 28.0667H10.3847Z" fill="white"/>
</svg>
