<svg width="13" height="29" viewBox="0 0 13 29" fill="none" xmlns="http://www.w3.org/2000/svg">
<path opacity="0.5" d="M12.5958 23.6571C12.5958 21.4571 11.9358 18.0471 10.6758 16.5671C9.83582 15.5871 8.03584 14.6971 6.66584 14.8871C5.29584 15.0771 4.79583 16.6671 3.75583 16.6171C2.71583 16.5671 1.77582 16.3471 1.55582 18.3171C1.33582 20.2971 0.885837 20.4571 0.695837 21.7271C0.505837 22.9871 0.0658171 24.0671 2.42582 25.0171C4.79582 25.9671 5.37584 28.8171 7.47584 28.1871C9.57584 27.5571 9.30583 26.3471 10.7858 25.7971C12.2658 25.2471 12.5958 24.4771 12.5958 23.6571Z" fill="#E62C2F" stroke="#E62C2F" stroke-width="0.2" stroke-linecap="round" stroke-linejoin="round"/>
<path d="M11.9241 23.4275C11.9241 21.4775 11.3342 18.4375 10.2142 17.1275C9.47415 16.2575 7.87416 15.4675 6.65416 15.6375C5.43416 15.8075 4.99416 17.2175 4.06416 17.1775C3.14416 17.1375 2.30415 16.9375 2.11415 18.6875C1.91415 20.4475 1.52417 20.5875 1.35417 21.7175C1.18417 22.8375 0.794146 23.7975 2.89415 24.6375C4.99415 25.4775 5.51416 28.0175 7.37416 27.4575C9.24416 26.8975 8.99416 25.8275 10.3142 25.3375C11.6342 24.8475 11.9241 24.1675 11.9241 23.4375V23.4275Z" fill="white"/>
</svg>
