<svg width="11" height="28" viewBox="0 0 11 28" fill="none" xmlns="http://www.w3.org/2000/svg">
<path opacity="0.5" d="M9.62572 25.0773C9.07572 26.0173 7.22571 25.8473 6.95571 26.6273C6.67571 27.3973 3.92572 27.7373 3.15572 26.4073C2.38572 25.0773 0.945733 24.5773 0.605733 23.3073C0.275733 22.0373 -0.114267 17.0573 0.605733 16.5573C1.32573 16.0573 2.53571 16.6673 3.14571 16.0073C3.75571 15.3473 5.27572 13.5173 6.31572 14.6773C7.35572 15.8373 7.54572 16.6273 8.40572 16.8073C10.6257 17.2773 10.0257 24.4073 9.62572 25.0773Z" fill="#E62C2F" stroke="#E62C2F" stroke-width="0.2" stroke-linecap="round" stroke-linejoin="round"/>
<path d="M9.09732 24.5671C8.60732 25.3971 6.9873 25.2471 6.7373 25.9371C6.4973 26.6171 4.06733 26.9171 3.38733 25.7371C2.70733 24.5671 1.43733 24.1271 1.13733 23.0071C0.847329 21.8871 0.507329 17.4871 1.13733 17.0471C1.76733 16.6071 2.83732 17.1471 3.37732 16.5571C3.91732 15.9671 5.25731 14.3571 6.17731 15.3871C7.09731 16.4171 7.2673 17.1071 8.0173 17.2671C9.9773 17.6771 9.44732 23.9671 9.09732 24.5671Z" fill="white"/>
</svg>
