<svg width="14" height="29" viewBox="0 0 14 29" fill="none" xmlns="http://www.w3.org/2000/svg">
<path opacity="0.5" d="M12.9166 17.8762C13.7666 19.4262 14.0966 25.3262 13.3966 26.3462C12.6966 27.3762 10.7966 27.5362 10.0466 26.7762C9.29659 26.0162 9.0466 26.8762 8.3666 27.2462C7.6866 27.6162 7.0966 26.9262 6.3666 27.6362C4.9866 28.9862 2.30659 28.0662 1.54659 24.8762C0.786594 21.6862 0.626616 18.8162 1.00662 17.8462C1.38662 16.8762 3.2266 18.4462 4.5266 17.2462C5.8266 16.0562 7.71661 16.1062 9.28661 16.8162C10.8566 17.5262 11.6766 15.5962 12.9166 17.8662V17.8762Z" fill="#E62C2F" stroke="#E62C2F" stroke-width="0.2" stroke-linecap="round" stroke-linejoin="round"/>
<path d="M12.447 18.1665C13.217 19.5665 13.517 24.8865 12.877 25.8165C12.247 26.7465 10.537 26.8865 9.84703 26.2065C9.15703 25.5265 8.94702 26.2965 8.33702 26.6365C7.72702 26.9665 7.18702 26.3465 6.52702 26.9965C5.27702 28.2165 2.86701 27.3865 2.17701 24.5065C1.49701 21.6265 1.34702 19.0365 1.68702 18.1565C2.02702 17.2765 3.68704 18.6965 4.85704 17.6165C6.02704 16.5465 7.73703 16.5865 9.15703 17.2265C10.577 17.8665 11.307 16.1265 12.437 18.1765L12.447 18.1665Z" fill="white"/>
</svg>
