<svg width="15" height="26" viewBox="0 0 15 26" fill="none" xmlns="http://www.w3.org/2000/svg">
<path opacity="0.5" d="M13.1651 15.8271C14.7151 18.2471 14.8351 22.2271 12.9451 23.3071C11.0651 24.3871 9.98509 23.3071 9.07509 23.5771C8.16509 23.8471 5.56511 26.6371 3.53511 24.7571C1.34511 22.7271 0.365097 16.7971 1.3351 15.4571C3.4151 12.5671 5.25509 15.8971 8.14509 14.2271C9.09509 13.6771 11.6251 13.4071 13.1751 15.8271H13.1651Z" fill="#E62C2F" stroke="#E62C2F" stroke-width="0.2" stroke-linecap="round" stroke-linejoin="round"/>
<path d="M12.6556 15.8474C14.0656 18.0474 14.1656 21.6574 12.4556 22.6374C10.7456 23.6174 9.76564 22.6374 8.93564 22.8774C8.10564 23.1174 5.75564 25.6574 3.90564 23.9474C1.91564 22.1074 1.02564 16.7274 1.90564 15.5074C3.79564 12.8874 5.46563 15.9074 8.08563 14.3974C8.94563 13.8974 11.2356 13.6574 12.6456 15.8574L12.6556 15.8474Z" fill="white"/>
</svg>
