<svg width="13" height="25" viewBox="0 0 13 25" fill="none" xmlns="http://www.w3.org/2000/svg">
<path opacity="0.5" d="M11.8744 16.2661C12.7444 18.2261 12.2444 23.5061 10.2844 23.5061C8.32438 23.5061 7.84437 23.1961 7.11437 23.9361C6.38437 24.6761 5.28436 23.5661 4.67436 23.6961C4.06436 23.8161 1.82436 25.4661 1.20436 22.1661C0.584363 18.8761 0.524385 13.9861 2.41438 14.3561C7.09438 15.2661 5.95437 10.3261 9.61437 15.3361C10.2844 16.2561 11.1444 14.6261 11.8744 16.2761V16.2661Z" fill="#E62C2F" stroke="#E62C2F" stroke-width="0.2" stroke-linecap="round" stroke-linejoin="round"/>
<path d="M11.2452 16.5466C12.0152 18.2666 11.5652 22.9166 9.8452 22.9166C8.1252 22.9166 7.69519 22.6466 7.05519 23.2966C6.41519 23.9466 5.4452 22.9766 4.9052 23.0866C4.3652 23.1966 2.39521 24.6366 1.85521 21.7466C1.30521 18.8466 1.25519 14.5466 2.92519 14.8766C7.04519 15.6766 6.03518 11.3366 9.26518 15.7366C9.85518 16.5466 10.6052 15.1166 11.2552 16.5666L11.2452 16.5466Z" fill="white"/>
</svg>
