<svg width="10" height="25" viewBox="0 0 10 25" fill="none" xmlns="http://www.w3.org/2000/svg">
<path opacity="0.5" d="M8.80375 10.6269C8.51375 12.2569 7.24375 11.7569 6.62375 12.5969C6.00375 13.4269 4.68376 13.5669 3.85376 12.5969C3.02376 11.6269 1.42376 11.3669 1.28376 9.79687C1.14376 8.22687 0.173757 2.34687 1.28376 1.57687C2.39376 0.806872 8.14375 0.406872 8.80375 1.57687C9.46375 2.74687 9.14375 8.73687 8.80375 10.6269Z" fill="#E62C2F" stroke="#E62C2F" stroke-width="0.2" stroke-linecap="round" stroke-linejoin="round"/>
<path d="M8.28493 9.86705C8.03493 11.277 6.93491 10.847 6.39491 11.567C5.85491 12.287 4.71492 12.407 3.99492 11.567C3.27492 10.727 1.89492 10.507 1.77492 9.14705C1.65492 7.78705 0.81492 2.71705 1.77492 2.04705C2.73492 1.38705 7.70492 1.03705 8.27492 2.04705C8.84492 3.05705 8.56492 8.22705 8.27492 9.86705H8.28493Z" fill="white"/>
</svg>
