<svg width="10" height="26" viewBox="0 0 10 26" fill="none" xmlns="http://www.w3.org/2000/svg">
<path opacity="0.5" d="M8.55492 0.736276C7.39493 0.246276 5.98493 1.40627 5.46493 1.04627C4.94493 0.686274 2.33493 0.0162745 1.65493 1.06627C0.974931 2.11627 0.204917 7.21628 0.734917 9.08628C1.26492 10.9563 4.12492 14.2663 5.20492 13.7963C6.28492 13.3263 9.03494 11.3663 9.22494 10.7763C9.88494 8.80627 10.2249 1.44628 8.55492 0.736276Z" fill="#E62C2F" stroke="#E62C2F" stroke-width="0.2" stroke-linecap="round" stroke-linejoin="round"/>
<path d="M8.0934 1.61643C7.0934 1.18643 5.8834 2.19643 5.4334 1.88643C4.9834 1.57643 2.73339 0.996432 2.14339 1.90643C1.55339 2.81643 0.89341 7.21643 1.35341 8.82643C1.80341 10.4364 4.2834 13.2964 5.2134 12.8864C6.1434 12.4764 8.5134 10.7864 8.6834 10.2764C9.2534 8.57643 9.54341 2.23643 8.10341 1.61643H8.0934Z" fill="white"/>
</svg>
