<svg width="11" height="32" viewBox="0 0 11 32" fill="none" xmlns="http://www.w3.org/2000/svg">
<path opacity="0.5" d="M8.52422 12.2464C10.0542 10.0764 10.2242 6.08644 9.97424 4.99644C9.72424 3.91644 5.91423 0.456438 4.99423 0.496438C4.07422 0.536438 1.33424 1.59644 0.88424 2.62644C0.43424 3.65644 0.674225 8.49644 1.49423 10.6264C2.31423 12.7564 5.28424 15.0964 6.00423 14.7164C6.72423 14.3364 7.71422 13.3864 8.52422 12.2464Z" fill="#E62C2F" stroke="#E62C2F" stroke-width="0.2" stroke-linecap="round" stroke-linejoin="round"/>
<path d="M8.09441 11.4369C9.41441 9.56687 9.55441 6.11686 9.34441 5.18686C9.13441 4.25686 5.8444 1.27687 5.0544 1.30687C4.2644 1.33687 1.89439 2.25687 1.51439 3.14687C1.12439 4.02687 1.33441 8.20687 2.03441 10.0469C2.73441 11.8869 5.30439 13.8969 5.92439 13.5769C6.54439 13.2469 7.40441 12.4369 8.09441 11.4469V11.4369Z" fill="white"/>
</svg>
