<svg width="11" height="26" viewBox="0 0 11 26" fill="none" xmlns="http://www.w3.org/2000/svg">
<path opacity="0.5" d="M9.16453 10.4265C10.1145 9.47653 10.6845 6.59653 10.6045 4.99653C10.5245 3.39653 9.94453 3.29653 8.63453 2.21653C7.32453 1.13653 5.69451 -0.0934665 4.51451 0.696534C1.50451 2.70653 -0.395469 1.49653 0.944531 6.35653C1.62453 8.82653 1.39453 10.3665 2.38453 11.3365C3.38453 12.3065 4.64452 13.5365 5.87452 13.1765C7.10452 12.8065 8.51452 11.0665 9.15452 10.4265H9.16453Z" fill="#E62C2F" stroke="#E62C2F" stroke-width="0.2" stroke-linecap="round" stroke-linejoin="round"/>
<path d="M8.67393 9.93659C9.49393 9.11659 9.99393 6.62658 9.92393 5.23658C9.85393 3.85658 9.35395 3.76658 8.22395 2.83658C7.09395 1.90658 5.68395 0.836584 4.66395 1.51658C2.05395 3.25658 0.413921 2.20659 1.57392 6.41659C2.16392 8.54659 1.96392 9.88659 2.82392 10.7266C3.68392 11.5666 4.77394 12.6366 5.84394 12.3166C6.91394 11.9966 8.12394 10.4866 8.68394 9.93659H8.67393Z" fill="white"/>
</svg>
