<svg width="13" height="25" viewBox="0 0 13 25" fill="none" xmlns="http://www.w3.org/2000/svg">
<path opacity="0.5" d="M12.3563 7.91687C12.8463 5.82687 12.3063 3.49687 10.7663 2.52687C9.22626 1.55687 6.62629 -0.253128 5.35629 0.236873C4.08629 0.726873 3.94628 1.30687 3.09628 1.66687C2.25628 2.02687 0.896282 3.74687 1.00628 6.06687C1.12628 8.38687 3.05627 10.0269 3.46627 10.9469C3.87627 11.8669 6.85627 14.6469 8.80627 12.7469C10.7563 10.8469 11.4763 11.6169 12.3463 7.91687H12.3563Z" fill="#E62C2F" stroke="#E62C2F" stroke-width="0.2" stroke-linecap="round" stroke-linejoin="round"/>
<path d="M11.5359 7.74728C11.9559 5.95728 11.4959 3.96728 10.1759 3.13728C8.85589 2.30728 6.6359 0.75728 5.5559 1.17728C4.4759 1.59728 4.34591 2.09728 3.62591 2.40728C2.90591 2.71728 1.74591 4.18728 1.84591 6.16728C1.94591 8.14728 3.59591 9.54728 3.94591 10.3373C4.29591 11.1273 6.84589 13.4973 8.51589 11.8773C10.1859 10.2573 10.7959 10.9073 11.5459 7.74728H11.5359Z" fill="white"/>
</svg>
