<svg width="16" height="25" viewBox="0 0 16 25" fill="none" xmlns="http://www.w3.org/2000/svg">
<path opacity="0.5" d="M14.7965 9.15648C15.5065 7.12648 15.9966 3.68648 14.2166 2.47648C9.48656 -0.743522 8.57657 1.13648 6.88657 0.82648C5.63657 0.59648 3.07654 0.0664801 1.51654 1.14648C-0.0434577 2.22648 0.416562 6.91648 1.28656 8.37648C2.15656 9.84648 3.30656 10.0265 4.72656 9.93648C6.14656 9.84648 7.89656 11.0365 9.72656 10.4865C11.5666 9.93648 14.2266 10.7465 14.7866 9.14648L14.7965 9.15648Z" fill="#E62C2F" stroke="#E62C2F" stroke-width="0.2" stroke-linecap="round" stroke-linejoin="round"/>
<path d="M14.1981 9.0264C14.8481 7.1664 15.2981 4.03641 13.6681 2.92641C9.34809 -0.0235935 8.51809 1.70641 6.97809 1.41641C5.82809 1.20641 3.49808 0.716405 2.06808 1.70641C0.638081 2.69641 1.05809 6.97641 1.85809 8.31641C2.65809 9.65641 3.69807 9.82641 4.99807 9.74641C6.29807 9.66641 7.88808 10.7564 9.56808 10.2464C11.2481 9.74641 13.6781 10.4864 14.1881 9.0264H14.1981Z" fill="white"/>
<path d="M14.1981 9.0264C14.8481 7.1664 15.2981 4.03641 13.6681 2.92641C9.34809 -0.0235935 8.51809 1.70641 6.97809 1.41641C5.82809 1.20641 3.49808 0.716405 2.06808 1.70641C0.638081 2.69641 1.05809 6.97641 1.85809 8.31641C2.65809 9.65641 3.69807 9.82641 4.99807 9.74641C6.29807 9.66641 7.88808 10.7564 9.56808 10.2464C11.2481 9.74641 13.6781 10.4864 14.1881 9.0264H14.1981Z" fill="white"/>
</svg>
