<svg width="15" height="24" viewBox="0 0 15 24" fill="none" xmlns="http://www.w3.org/2000/svg">
<path opacity="0.5" d="M13.1635 9.25703C14.1835 7.14703 14.6635 3.00703 12.1035 1.70703C9.54352 0.40703 7.6235 1.79703 6.3935 1.01703C5.1635 0.247031 1.45351 -0.70297 0.713509 2.36703C-0.036491 5.43703 0.5535 7.99703 0.9235 8.87703C1.2835 9.75703 2.37351 9.45703 3.30351 9.26703C4.23351 9.07703 5.8935 10.877 6.8635 10.887C9.2435 10.907 10.0235 8.76703 11.1535 8.86703C12.2935 8.96703 12.6535 10.307 13.1735 9.24703L13.1635 9.25703Z" fill="#E62C2F" stroke="#E62C2F" stroke-width="0.2" stroke-linecap="round" stroke-linejoin="round"/>
<path d="M12.3743 8.94717C13.2543 7.11717 13.6843 3.50717 11.4543 2.37717C9.22433 1.24717 7.55433 2.44717 6.48433 1.77717C5.41433 1.10717 2.19435 0.277169 1.53435 2.95717C0.884351 5.63717 1.40434 7.85717 1.71434 8.62717C2.02434 9.38717 2.97435 9.13717 3.78435 8.96717C4.59435 8.80717 6.04436 10.3672 6.88436 10.3772C8.95436 10.3972 9.63435 8.53717 10.6243 8.62717C11.6143 8.71717 11.9344 9.87717 12.3844 8.95717L12.3743 8.94717Z" fill="white"/>
</svg>
