<svg width="14" height="22" viewBox="0 0 14 22" fill="none" xmlns="http://www.w3.org/2000/svg">
<path opacity="0.5" d="M11.6258 9.05666C12.9758 8.08666 13.9358 5.77666 13.4958 3.32666C13.0658 0.87666 11.8558 1.51666 11.2158 1.39666C10.5858 1.27666 9.49584 0.196659 7.87584 0.516659C6.25584 0.846659 5.63583 0.646659 4.11583 0.306659C2.58583 -0.0433405 1.08584 0.936659 1.03584 3.12666C0.975844 5.31666 1.03582 7.15666 2.01582 7.96666C2.99582 8.77666 5.93585 7.73666 6.91585 7.96666C7.89585 8.19666 9.55585 10.5567 11.6358 9.05666H11.6258Z" fill="#E62C2F" stroke="#E62C2F" stroke-width="0.2" stroke-linecap="round" stroke-linejoin="round"/>
<path d="M10.9845 8.61691C12.1345 7.79691 12.9444 5.82691 12.5744 3.73691C12.2044 1.65691 11.1745 2.19691 10.6345 2.09691C10.0945 1.99691 9.16445 1.07691 7.79445 1.34691C6.41445 1.62691 5.89447 1.45691 4.59447 1.16691C3.29447 0.866909 2.01447 1.70691 1.97447 3.56691C1.92447 5.42691 1.97446 6.99691 2.80446 7.68691C3.63446 8.37691 6.14447 7.48691 6.97447 7.68691C7.80447 7.88691 9.22446 9.88691 10.9945 8.61691H10.9845Z" fill="white"/>
</svg>
