<svg width="10" height="25" viewBox="0 0 10 25" fill="none" xmlns="http://www.w3.org/2000/svg">
<path opacity="0.5" d="M1.37635 10.6269C1.66635 12.2569 2.93634 11.7569 3.55634 12.5969C4.17634 13.4269 5.49633 13.5669 6.32633 12.5969C7.15633 11.6269 8.75633 11.3669 8.89633 9.79687C9.03633 8.22687 10.0063 2.34687 8.89633 1.57687C7.78633 0.806872 2.03635 0.406872 1.37635 1.57687C0.716345 2.74687 1.03635 8.73687 1.37635 10.6269Z" fill="#E62C2F" stroke="#E62C2F" stroke-width="0.2" stroke-linecap="round" stroke-linejoin="round"/>
<path d="M1.90657 9.86705C2.15657 11.277 3.25655 10.847 3.79655 11.567C4.33655 12.287 5.47658 12.407 6.19658 11.567C6.91658 10.727 8.29658 10.507 8.41658 9.14705C8.53658 7.78705 9.37658 2.71705 8.41658 2.04705C7.45658 1.38705 2.48658 1.03705 1.91658 2.04705C1.34658 3.05705 1.62658 8.22705 1.91658 9.86705H1.90657Z" fill="white"/>
</svg>
