<svg width="10" height="26" viewBox="0 0 10 26" fill="none" xmlns="http://www.w3.org/2000/svg">
<path opacity="0.5" d="M1.62728 0.737253C2.78728 0.247253 4.19728 1.40725 4.71728 1.04725C5.23728 0.687251 7.84727 0.0172511 8.52727 1.06725C9.20727 2.11725 9.97729 7.21726 9.44729 9.08726C8.91729 10.9573 6.05729 14.2673 4.97729 13.7973C3.89729 13.3273 1.14727 11.3673 0.957266 10.7773C0.297266 8.80725 -0.0427202 1.44725 1.62728 0.737253Z" fill="#E62C2F" stroke="#E62C2F" stroke-width="0.2" stroke-linecap="round" stroke-linejoin="round"/>
<path d="M2.089 1.61741C3.089 1.18741 4.299 2.19741 4.749 1.88741C5.199 1.57741 7.44901 0.997409 8.03901 1.90741C8.62901 2.81741 9.28899 7.21741 8.82899 8.82741C8.37899 10.4374 5.899 13.2974 4.969 12.8874C4.039 12.4774 1.669 10.7874 1.499 10.2774C0.928999 8.57741 0.638986 2.23741 2.07899 1.61741H2.089Z" fill="white"/>
</svg>
