<svg width="10" height="32" viewBox="0 0 10 32" fill="none" xmlns="http://www.w3.org/2000/svg">
<path opacity="0.5" d="M1.65776 12.2474C0.12776 10.0774 -0.0422526 6.08741 0.207747 4.99741C0.457747 3.91741 4.26776 0.457414 5.18776 0.497414C6.10776 0.537414 8.84774 1.59742 9.29774 2.62742C9.74774 3.65742 9.50776 8.49741 8.68776 10.6274C7.86776 12.7574 4.89775 15.0974 4.17775 14.7174C3.45775 14.3374 2.46776 13.3874 1.65776 12.2474Z" fill="#E62C2F" stroke="#E62C2F" stroke-width="0.2" stroke-linecap="round" stroke-linejoin="round"/>
<path d="M2.09882 11.4378C0.778823 9.56784 0.638824 6.11784 0.848824 5.18784C1.05882 4.25784 4.34883 1.27784 5.13883 1.30784C5.92883 1.33784 8.29881 2.25784 8.67881 3.14784C9.06881 4.02784 8.85882 8.20784 8.15882 10.0478C7.45882 11.8878 4.88881 13.8978 4.26881 13.5778C3.64881 13.2478 2.78882 12.4378 2.09882 11.4478V11.4378Z" fill="white"/>
</svg>
