<svg width="11" height="26" viewBox="0 0 11 26" fill="none" xmlns="http://www.w3.org/2000/svg">
<path opacity="0.5" d="M2.01776 10.4275C1.06776 9.47751 0.497761 6.59751 0.577761 4.99751C0.657761 3.39751 1.23776 3.29751 2.54776 2.21751C3.85776 1.13751 5.48779 -0.09249 6.66779 0.69751C9.67779 2.70751 11.5778 1.49751 10.2378 6.35751C9.55777 8.82751 9.78776 10.3675 8.79776 11.3375C7.79776 12.3075 6.53777 13.5375 5.30777 13.1775C4.07777 12.8075 2.66777 11.0675 2.02777 10.4275H2.01776Z" fill="#E62C2F" stroke="#E62C2F" stroke-width="0.2" stroke-linecap="round" stroke-linejoin="round"/>
<path d="M2.50651 9.93756C1.68651 9.11756 1.18651 6.62756 1.25651 5.23756C1.32651 3.85756 1.82649 3.76756 2.95649 2.83756C4.08649 1.90756 5.49649 0.83756 6.51649 1.51756C9.12649 3.25756 10.7665 2.20756 9.60651 6.41756C9.01651 8.54756 9.21651 9.88756 8.35651 10.7276C7.49651 11.5676 6.40649 12.6376 5.33649 12.3176C4.26649 11.9976 3.0565 10.4876 2.4965 9.93756H2.50651Z" fill="white"/>
</svg>
