<svg width="13" height="25" viewBox="0 0 13 25" fill="none" xmlns="http://www.w3.org/2000/svg">
<path opacity="0.5" d="M0.835391 7.91723C0.345391 5.82723 0.885402 3.49723 2.4254 2.52723C3.9654 1.54723 6.56539 -0.252771 7.83539 0.237229C9.10539 0.727229 9.2454 1.30723 10.0954 1.66723C10.9354 2.02723 12.2954 3.74723 12.1854 6.06723C12.0654 8.38723 10.1354 10.0272 9.72539 10.9472C9.31539 11.8672 6.33539 14.6472 4.38539 12.7472C2.43539 10.8472 1.7154 11.6172 0.8454 7.91723H0.835391Z" fill="#E62C2F" stroke="#E62C2F" stroke-width="0.2" stroke-linecap="round" stroke-linejoin="round"/>
<path d="M1.64671 7.74728C1.22671 5.95728 1.68671 3.96728 3.00671 3.13728C4.32671 2.30728 6.54672 0.75728 7.62672 1.17728C8.70672 1.59728 8.83671 2.09728 9.55671 2.40728C10.2767 2.71728 11.4367 4.18728 11.3367 6.16728C11.2367 8.14728 9.58672 9.54728 9.23672 10.3373C8.88672 11.1273 6.33671 13.4973 4.66671 11.8773C2.99671 10.2573 2.38671 10.9073 1.63671 7.74728H1.64671Z" fill="white"/>
</svg>
