<svg width="16" height="25" viewBox="0 0 16 25" fill="none" xmlns="http://www.w3.org/2000/svg">
<path opacity="0.5" d="M1.39796 9.15746C0.687962 7.12746 0.197964 3.68745 1.97796 2.47745C6.70796 -0.742545 7.61797 1.13746 9.30797 0.827457C10.558 0.597457 13.118 0.0674567 14.678 1.14746C16.238 2.22746 15.778 6.91745 14.908 8.37745C14.038 9.84745 12.888 10.0275 11.468 9.93746C10.048 9.84746 8.29797 11.0375 6.46797 10.4875C4.62797 9.93745 1.96797 10.7475 1.40797 9.14746L1.39796 9.15746Z" fill="#E62C2F" stroke="#E62C2F" stroke-width="0.2" stroke-linecap="round" stroke-linejoin="round"/>
<path d="M1.9887 9.02738C1.3387 7.16738 0.888701 4.03738 2.5187 2.92738C6.8387 -0.022617 7.6687 1.70738 9.2087 1.41738C10.3587 1.20738 12.6887 0.717382 14.1187 1.70738C15.5487 2.69738 15.1287 6.97738 14.3287 8.31738C13.5287 9.65738 12.4887 9.82738 11.1887 9.74738C9.8887 9.66738 8.29869 10.7574 6.61869 10.2474C4.93869 9.74738 2.5087 10.4874 1.9987 9.02738H1.9887Z" fill="white"/>
<path d="M1.9887 9.02738C1.3387 7.16738 0.888701 4.03738 2.5187 2.92738C6.8387 -0.022617 7.6687 1.70738 9.2087 1.41738C10.3587 1.20738 12.6887 0.717382 14.1187 1.70738C15.5487 2.69738 15.1287 6.97738 14.3287 8.31738C13.5287 9.65738 12.4887 9.82738 11.1887 9.74738C9.8887 9.66738 8.29869 10.7574 6.61869 10.2474C4.93869 9.74738 2.5087 10.4874 1.9987 9.02738H1.9887Z" fill="white"/>
</svg>
