<svg width="14" height="24" viewBox="0 0 14 24" fill="none" xmlns="http://www.w3.org/2000/svg">
<path opacity="0.5" d="M1.02461 9.25703C0.00460899 7.14703 -0.475393 3.00703 2.08461 1.70703C4.64461 0.40703 6.56461 1.79703 7.79461 1.01703C9.02461 0.247031 12.7346 -0.70297 13.4746 2.36703C14.2246 5.43703 13.6346 7.99703 13.2646 8.87703C12.9046 9.75703 11.8146 9.45703 10.8846 9.26703C9.95461 9.07703 8.29461 10.877 7.32461 10.887C4.94461 10.907 4.16462 8.76703 3.03462 8.86703C1.89462 8.96703 1.53461 10.307 1.01461 9.24703L1.02461 9.25703Z" fill="#E62C2F" stroke="#E62C2F" stroke-width="0.2" stroke-linecap="round" stroke-linejoin="round"/>
<path d="M1.80347 8.94717C0.923473 7.11717 0.493472 3.50717 2.72347 2.37717C4.95347 1.24717 6.62347 2.44717 7.69347 1.77717C8.76347 1.10717 11.9835 0.277169 12.6435 2.95717C13.2935 5.63717 12.7735 7.85717 12.4635 8.62717C12.1535 9.38717 11.2035 9.13717 10.3935 8.96717C9.58347 8.80717 8.13348 10.3672 7.29348 10.3772C5.22348 10.3972 4.54347 8.53717 3.55347 8.62717C2.56347 8.71717 2.24348 9.87717 1.79348 8.95717L1.80347 8.94717Z" fill="white"/>
</svg>
