<svg width="14" height="22" viewBox="0 0 14 22" fill="none" xmlns="http://www.w3.org/2000/svg">
<path opacity="0.5" d="M2.55613 9.05763C1.20613 8.08763 0.246136 5.77764 0.686136 3.32764C1.11614 0.877636 2.32613 1.51764 2.96613 1.39764C3.59613 1.27764 4.68613 0.197635 6.30613 0.517635C7.92613 0.847635 8.54614 0.647636 10.0661 0.307636C11.5961 -0.0423639 13.0961 0.937636 13.1461 3.12764C13.2061 5.31764 13.1461 7.15764 12.1661 7.96764C11.1861 8.77764 8.24614 7.73764 7.26614 7.96764C6.28614 8.19764 4.62614 10.5576 2.54614 9.05763H2.55613Z" fill="#E62C2F" stroke="#E62C2F" stroke-width="0.2" stroke-linecap="round" stroke-linejoin="round"/>
<path d="M3.19618 8.61789C2.04618 7.79789 1.23618 5.82788 1.60618 3.73788C1.97618 1.65789 3.00618 2.19788 3.54618 2.09788C4.08618 1.99788 5.01618 1.07788 6.38618 1.34788C7.76618 1.62788 8.28618 1.45789 9.58618 1.16789C10.8862 0.867885 12.1662 1.70788 12.2062 3.56788C12.2562 5.42788 12.2062 6.99788 11.3762 7.68788C10.5462 8.37788 8.03619 7.48788 7.20619 7.68788C6.37619 7.88788 4.95618 9.88789 3.18618 8.61789H3.19618Z" fill="white"/>
</svg>
