<svg width="9" height="21" viewBox="0 0 9 21" fill="none" xmlns="http://www.w3.org/2000/svg">
<g opacity="0.5">
<path d="M7.27488 13.4473C7.46488 13.6973 7.62489 13.9673 7.74489 14.2673C8.86489 16.9573 9.47489 19.3373 7.28489 19.9773C5.18489 20.0473 3.08489 20.1073 2.03489 19.7273C0.684887 18.7273 0.474886 17.1573 0.924886 15.2473C1.03489 14.7673 1.23489 14.2973 1.49489 13.8873C2.02489 13.0573 2.83489 12.4273 3.81489 12.1973C4.24489 12.0973 4.67489 12.0773 5.10489 12.1373C5.97489 12.2573 6.73489 12.7473 7.26489 13.4373" fill="#E62C2F"/>
<path d="M7.27488 13.4473C7.46488 13.6973 7.62489 13.9673 7.74489 14.2673C8.86489 16.9573 9.47489 19.3373 7.28489 19.9773C5.18489 20.0473 3.08489 20.1073 2.03489 19.7273C0.684887 18.7273 0.474886 17.1573 0.924886 15.2473C1.03489 14.7673 1.23489 14.2973 1.49489 13.8873C2.02489 13.0573 2.83489 12.4273 3.81489 12.1973C4.24489 12.0973 4.67489 12.0773 5.10489 12.1373C5.97489 12.2573 6.73489 12.7473 7.26489 13.4373" stroke="#E62C2F" stroke-width="0.2" stroke-linecap="round" stroke-linejoin="round"/>
</g>
<path d="M6.96657 13.7674C7.13657 13.9874 7.27657 14.2274 7.37657 14.4874C8.35657 16.8474 8.89657 18.9274 6.97657 19.4974C5.13657 19.5574 3.29657 19.6174 2.38657 19.2774C1.20657 18.4074 1.01657 17.0274 1.41657 15.3574C1.51657 14.9374 1.68657 14.5274 1.91657 14.1674C2.37657 13.4374 3.08657 12.8874 3.94657 12.6874C4.32657 12.5974 4.70657 12.5774 5.07657 12.6274C5.83657 12.7374 6.50657 13.1674 6.96657 13.7674Z" fill="white"/>
</svg>
