<svg width="7" height="20" viewBox="0 0 7 20" fill="none" xmlns="http://www.w3.org/2000/svg">
<path opacity="0.5" d="M1.54328 12.7073C0.43328 14.2673 0.193276 15.9173 0.633276 17.6373C0.783276 18.2373 1.27328 18.6873 1.87328 18.8173C2.88328 19.0273 4.25328 18.9173 5.58328 18.8373C6.75328 18.8373 6.74328 18.0273 6.60328 17.2273C6.49328 15.9473 6.24328 14.6973 5.85328 13.4873C5.75328 13.1673 5.58328 12.8673 5.36328 12.6173C5.17328 12.3973 4.93328 12.2073 4.65328 12.0873C3.62328 11.6073 2.58328 11.8173 1.54328 12.7173V12.7073Z" fill="#E62C2F" stroke="#E62C2F" stroke-width="0.2" stroke-linecap="round" stroke-linejoin="round"/>
<path d="M3.36111 18.4669C2.84111 18.4669 2.41111 18.4369 2.07111 18.3669C1.56111 18.2569 1.14111 17.8669 1.02111 17.3769C0.621109 15.7869 0.881109 14.3669 1.82111 13.0469C2.40111 12.5569 2.99111 12.2969 3.57111 12.2969C3.88111 12.2969 4.19111 12.3669 4.50111 12.5169C4.73111 12.6269 4.94111 12.7769 5.11111 12.9769C5.30111 13.1869 5.44111 13.4369 5.53111 13.7269C5.87111 14.7869 6.09111 15.9069 6.19111 17.0469C6.26111 17.4469 6.30111 17.8869 6.09111 18.1469C5.95111 18.3169 5.71111 18.3969 5.36111 18.3969L5.01111 18.4169C4.45111 18.4469 3.89111 18.4869 3.36111 18.4869V18.4669Z" fill="white"/>
</svg>
