<svg width="8" height="23" viewBox="0 0 8 23" fill="none" xmlns="http://www.w3.org/2000/svg">
<path opacity="0.5" d="M1.91468 14.4468C2.16468 14.0768 2.46468 13.7468 2.83468 13.4868C4.06468 12.6068 5.31468 12.7368 6.59468 14.0568C7.45468 15.4468 7.88468 16.8468 7.56468 18.2368C7.16468 19.5968 6.39468 20.6768 5.37468 21.5568C5.01468 21.8668 4.55468 22.0268 4.08468 22.0268H3.77468C3.57468 22.0268 3.36468 21.9968 3.16468 21.9368C1.12468 21.2368 0.544682 19.1768 1.28468 15.8968C1.40468 15.3768 1.60468 14.8868 1.90468 14.4468H1.91468Z" fill="#E62C2F" stroke="#E62C2F" stroke-width="0.2" stroke-linecap="round" stroke-linejoin="round"/>
<path d="M3.85409 21.4668C3.66409 21.4668 3.49409 21.4368 3.33409 21.3868C1.59409 20.7968 1.04409 19.0068 1.71409 16.0868C1.81409 15.6268 2.00409 15.1968 2.25409 14.8168C2.47409 14.4768 2.74409 14.1968 3.05409 13.9868C3.50409 13.6668 3.95409 13.5068 4.40409 13.5068C5.03409 13.5068 5.68409 13.8368 6.31409 14.4968C7.13409 15.8368 7.41409 17.0368 7.16409 18.1568C6.82409 19.2868 6.19409 20.2368 5.23409 21.0768C4.93409 21.3368 4.54409 21.4768 4.13409 21.4768H3.86409L3.85409 21.4668Z" fill="white"/>
</svg>
