<svg width="11" height="21" viewBox="0 0 11 21" fill="none" xmlns="http://www.w3.org/2000/svg">
<path opacity="0.5" d="M7.87402 13.4163C8.11402 13.6663 8.34402 13.9563 8.57402 14.2763C9.31402 15.2463 9.77402 16.4863 9.74402 18.1863C9.69402 19.1663 9.29402 19.6363 8.64402 19.7363C8.19402 19.8063 7.72402 19.6663 7.36402 19.3863C6.99402 19.0963 6.59402 19.1963 6.19402 19.4963C5.79402 19.7863 5.32402 19.9863 4.82402 19.9863C3.90402 19.9863 3.00402 19.8763 2.12402 19.6563C1.41402 19.5763 0.974017 19.0963 0.954017 18.0463C0.744017 16.8863 0.914017 15.7363 1.47402 14.5863C1.57402 14.3863 1.71402 14.1863 1.86402 14.0163C1.88402 13.9963 1.90402 13.9763 1.92402 13.9563C3.98402 11.7363 5.97402 11.3863 7.87402 13.4163Z" fill="#E62C2F" stroke="#E62C2F" stroke-width="0.2" stroke-linecap="round" stroke-linejoin="round"/>
<path d="M4.86437 19.4664C4.08437 19.4664 3.29437 19.3664 2.51437 19.1764C1.87437 19.1064 1.55437 18.6564 1.53437 17.8164C1.35437 16.7864 1.50437 15.7764 1.99437 14.7864C2.08437 14.6164 2.19437 14.4464 2.33437 14.2964C3.39437 13.1564 4.37437 12.6064 5.29437 12.6064C6.06437 12.6064 6.82437 12.9964 7.54437 13.7664C7.75437 13.9864 7.96437 14.2364 8.16437 14.5264C8.87437 15.4664 9.21437 16.5864 9.19437 17.9464C9.15437 18.7364 8.85437 19.1564 8.28437 19.2464C8.22437 19.2464 8.15437 19.2564 8.08437 19.2564C7.77437 19.2564 7.45437 19.1464 7.19437 18.9464C7.04437 18.8364 6.89437 18.7764 6.72437 18.7764C6.51437 18.7764 6.30437 18.8664 6.06437 19.0364C5.69437 19.3064 5.28437 19.4564 4.89437 19.4564H4.87437L4.86437 19.4664Z" fill="white"/>
</svg>
