<svg width="15" height="21" viewBox="0 0 15 21" fill="none" xmlns="http://www.w3.org/2000/svg">
<path opacity="0.5" d="M12.2819 13.4869C12.4219 13.6469 12.5719 13.8169 12.7119 13.9969C13.9419 15.7769 14.6519 17.4769 13.1519 18.8169C12.1119 19.6269 10.5819 19.8469 8.88188 19.8669C8.59188 19.8669 8.33188 19.7069 8.17188 19.4569C7.86188 18.9769 7.28188 19.2069 6.59188 19.6769C6.38188 19.8169 6.14188 19.9069 5.88188 19.9169C5.29188 19.9469 4.78188 19.8269 4.32188 19.5769C3.30188 19.0269 2.75188 17.8869 2.83188 16.7269C2.86188 16.2769 2.93188 15.8369 3.04188 15.3969C3.25188 14.5169 3.77188 13.7369 4.49188 13.2069C7.45188 11.0569 10.0719 11.0069 12.2819 13.4769V13.4869Z" fill="#E62C2F" stroke="#E62C2F" stroke-width="0.2" stroke-linecap="round" stroke-linejoin="round"/>
<path d="M5.95253 19.4671C5.51253 19.4671 5.10253 19.3672 4.73253 19.1672C3.86253 18.6972 3.34253 17.7171 3.41253 16.6471C3.43253 16.2671 3.50253 15.8671 3.59253 15.4571C3.78253 14.6671 4.24253 13.9771 4.88253 13.5171C6.20253 12.5571 7.43253 12.0771 8.55253 12.0771C9.76253 12.0771 10.8725 12.6371 11.8625 13.7471C11.9925 13.8971 12.1225 14.0471 12.2425 14.2071C13.2725 15.6971 14.0325 17.2571 12.6525 18.4771C11.8525 19.0971 10.6725 19.3871 8.82253 19.4071C8.59253 19.4071 8.38253 19.2771 8.24253 19.0671C8.12253 18.8871 7.96253 18.7871 7.74253 18.7871C7.48253 18.7871 7.14253 18.9272 6.69253 19.2372C6.51253 19.3572 6.30253 19.4271 6.09253 19.4371H5.94253L5.95253 19.4671Z" fill="white"/>
</svg>
