<svg width="10" height="21" viewBox="0 0 10 21" fill="none" xmlns="http://www.w3.org/2000/svg">
<g opacity="0.5">
<path d="M2.39595 13.4473C2.20595 13.6973 2.04595 13.9673 1.92595 14.2673C0.805947 16.9573 0.195946 19.3373 2.38595 19.9773C4.48595 20.0473 6.58595 20.1073 7.63595 19.7273C8.98595 18.7273 9.19595 17.1573 8.74595 15.2473C8.63595 14.7673 8.43595 14.2973 8.17595 13.8873C7.64595 13.0573 6.83595 12.4273 5.85595 12.1973C5.42595 12.0973 4.99595 12.0773 4.56595 12.1373C3.69595 12.2573 2.93595 12.7473 2.40595 13.4373" fill="#E62C2F"/>
<path d="M2.39595 13.4473C2.20595 13.6973 2.04595 13.9673 1.92595 14.2673C0.805947 16.9573 0.195946 19.3373 2.38595 19.9773C4.48595 20.0473 6.58595 20.1073 7.63595 19.7273C8.98595 18.7273 9.19595 17.1573 8.74595 15.2473C8.63595 14.7673 8.43595 14.2973 8.17595 13.8873C7.64595 13.0573 6.83595 12.4273 5.85595 12.1973C5.42595 12.0973 4.99595 12.0773 4.56595 12.1373C3.69595 12.2573 2.93595 12.7473 2.40595 13.4373" stroke="#E62C2F" stroke-width="0.2" stroke-linecap="round" stroke-linejoin="round"/>
</g>
<path d="M2.70438 13.7674C2.53438 13.9874 2.39438 14.2274 2.29438 14.4874C1.31438 16.8474 0.774381 18.9274 2.69438 19.4974C4.53438 19.5574 6.37438 19.6174 7.28438 19.2774C8.46438 18.4074 8.65438 17.0274 8.25438 15.3574C8.15438 14.9374 7.98438 14.5274 7.75438 14.1674C7.29438 13.4374 6.58438 12.8874 5.72438 12.6874C5.34438 12.5974 4.96437 12.5774 4.59437 12.6274C3.83437 12.7374 3.16438 13.1674 2.70438 13.7674Z" fill="white"/>
</svg>
