<svg width="8" height="20" viewBox="0 0 8 20" fill="none" xmlns="http://www.w3.org/2000/svg">
<path opacity="0.5" d="M6.12439 12.6976C7.23439 14.2576 7.47439 15.9076 7.03439 17.6276C6.88439 18.2276 6.39439 18.6776 5.79439 18.8076C4.78439 19.0176 3.41439 18.9076 2.08439 18.8276C0.914389 18.8276 0.924384 18.0176 1.06438 17.2176C1.17438 15.9376 1.42438 14.6876 1.81438 13.4776C1.91438 13.1576 2.08438 12.8576 2.30438 12.6076C2.49438 12.3876 2.73439 12.1976 3.01439 12.0776C4.04439 11.5976 5.08439 11.8076 6.12439 12.7076V12.6976Z" fill="#E62C2F" stroke="#E62C2F" stroke-width="0.2" stroke-linecap="round" stroke-linejoin="round"/>
<path d="M4.31145 18.4573C3.79145 18.4573 3.22145 18.4273 2.66145 18.3873L2.31145 18.3673C1.96145 18.3673 1.72146 18.2873 1.58146 18.1173C1.36146 17.8573 1.41145 17.4173 1.48145 17.0273C1.58145 15.8773 1.81146 14.7673 2.14146 13.7073C2.23146 13.4273 2.37145 13.1673 2.56145 12.9573C2.73145 12.7673 2.93145 12.6073 3.17145 12.4973C3.48145 12.3573 3.79145 12.2773 4.10145 12.2773C4.68145 12.2773 5.27146 12.5373 5.87146 13.0473C6.80146 14.3573 7.06145 15.7673 6.66145 17.3573C6.54145 17.8573 6.12146 18.2473 5.61146 18.3473C5.27146 18.4173 4.84146 18.4473 4.32146 18.4473L4.31145 18.4573Z" fill="white"/>
</svg>
