<svg width="8" height="23" viewBox="0 0 8 23" fill="none" xmlns="http://www.w3.org/2000/svg">
<path opacity="0.5" d="M6.76356 14.4468C6.51356 14.0768 6.21356 13.7468 5.84356 13.4868C4.61356 12.6068 3.36355 12.7368 2.08355 14.0568C1.22355 15.4468 0.793553 16.8468 1.11355 18.2368C1.51355 19.5968 2.28356 20.6768 3.30356 21.5568C3.66356 21.8668 4.12356 22.0268 4.59356 22.0268H4.90356C5.10356 22.0268 5.31356 21.9968 5.51356 21.9368C7.55356 21.2368 8.13355 19.1768 7.39355 15.8968C7.27355 15.3768 7.07356 14.8868 6.77356 14.4468H6.76356Z" fill="#E62C2F" stroke="#E62C2F" stroke-width="0.2" stroke-linecap="round" stroke-linejoin="round"/>
<path d="M4.53987 21.4571C4.12987 21.4571 3.72987 21.3171 3.42987 21.0571C2.46987 20.2171 1.83986 19.2671 1.49986 18.1271C1.23986 17.0171 1.51986 15.8171 2.35986 14.4671C2.97986 13.8271 3.62987 13.4971 4.25987 13.4971C4.69987 13.4971 5.15986 13.6571 5.60986 13.9771C5.91986 14.1971 6.18987 14.4771 6.40987 14.8071C6.65987 15.1871 6.83987 15.6071 6.94987 16.0771C7.60987 18.9971 7.06986 20.7871 5.32986 21.3771C5.17986 21.4271 5.00987 21.4571 4.81987 21.4571H4.54986H4.53987Z" fill="white"/>
</svg>
