<svg width="11" height="21" viewBox="0 0 11 21" fill="none" xmlns="http://www.w3.org/2000/svg">
<path opacity="0.5" d="M2.79325 13.4163C2.55325 13.6663 2.32326 13.9563 2.09326 14.2763C1.35326 15.2463 0.893259 16.4863 0.923259 18.1863C0.973259 19.1663 1.37325 19.6363 2.02325 19.7363C2.47325 19.8063 2.94325 19.6663 3.30325 19.3863C3.67325 19.0963 4.07325 19.1963 4.47325 19.4963C4.87325 19.7863 5.34326 19.9863 5.84326 19.9863C6.76326 19.9863 7.66325 19.8763 8.54325 19.6563C9.25325 19.5763 9.69325 19.0963 9.71325 18.0463C9.92325 16.8863 9.75325 15.7363 9.19325 14.5863C9.09325 14.3863 8.95325 14.1863 8.80325 14.0163C8.78325 13.9963 8.76325 13.9763 8.74325 13.9563C6.68325 11.7363 4.69325 11.3863 2.79325 13.4163Z" fill="#E62C2F" stroke="#E62C2F" stroke-width="0.2" stroke-linecap="round" stroke-linejoin="round"/>
<path d="M5.78305 19.4564C5.39305 19.4564 4.98304 19.3164 4.61304 19.0364C4.37304 18.8564 4.16305 18.7764 3.95305 18.7764C3.79305 18.7764 3.63305 18.8364 3.48305 18.9464C3.22305 19.1464 2.91304 19.2564 2.60304 19.2564C2.53304 19.2564 2.47305 19.2564 2.40305 19.2464C1.83305 19.1564 1.53304 18.7364 1.49304 17.9464C1.47304 16.5864 1.80304 15.4664 2.52304 14.5264C2.72304 14.2364 2.93304 13.9864 3.14304 13.7664C3.86304 12.9964 4.62304 12.6064 5.39304 12.6064C6.31304 12.6064 7.29304 13.1564 8.30304 14.2464C8.48304 14.4464 8.60304 14.6064 8.69304 14.7864C9.17304 15.7764 9.33305 16.7864 9.15305 17.8064C9.13305 18.6564 8.81305 19.1064 8.17305 19.1764C7.38305 19.3664 6.58305 19.4664 5.81305 19.4664H5.79305L5.78305 19.4564Z" fill="white"/>
</svg>
