<svg width="15" height="21" viewBox="0 0 15 21" fill="none" xmlns="http://www.w3.org/2000/svg">
<path opacity="0.5" d="M2.38533 13.4869C2.24533 13.6469 2.09533 13.8169 1.95533 13.9969C0.725333 15.7769 0.0153307 17.4769 1.51533 18.8169C2.55533 19.6269 4.08534 19.8469 5.78534 19.8669C6.07534 19.8669 6.33533 19.7069 6.49533 19.4569C6.80533 18.9769 7.38533 19.2069 8.07533 19.6769C8.28533 19.8169 8.52533 19.9069 8.78533 19.9169C9.37533 19.9469 9.88533 19.8269 10.3453 19.5769C11.3653 19.0269 11.9153 17.8869 11.8353 16.7269C11.8053 16.2769 11.7353 15.8369 11.6253 15.3969C11.4153 14.5169 10.8953 13.7369 10.1753 13.2069C7.21533 11.0569 4.59533 11.0069 2.38533 13.4769V13.4869Z" fill="#E62C2F" stroke="#E62C2F" stroke-width="0.2" stroke-linecap="round" stroke-linejoin="round"/>
<path d="M8.56516 19.4574C8.35516 19.4574 8.13515 19.3774 7.96515 19.2574C7.51515 18.9474 7.18515 18.8074 6.91515 18.8074C6.70515 18.8074 6.53515 18.8974 6.41515 19.0874C6.28515 19.2974 6.06515 19.4274 5.83515 19.4274C3.98515 19.3974 2.80515 19.1174 1.99515 18.4874C0.615149 17.2574 1.37515 15.7074 2.40515 14.2074C2.52515 14.0474 2.65516 13.8974 2.78516 13.7474C3.77516 12.6374 4.89516 12.0674 6.09516 12.0674C7.21516 12.0674 8.44515 12.5474 9.76515 13.5074C10.4052 13.9774 10.8651 14.6674 11.0551 15.4474C11.1551 15.8474 11.2152 16.2474 11.2352 16.6374C11.3052 17.6974 10.7951 18.6874 9.91515 19.1574C9.53515 19.3574 9.13515 19.4574 8.69515 19.4574H8.54515H8.56516Z" fill="white"/>
</svg>
