<svg width="6" height="19" viewBox="0 0 6 19" fill="none" xmlns="http://www.w3.org/2000/svg">
<g opacity="0.5">
<path d="M4.80575 8.70638C5.05575 8.22638 5.18575 7.68639 5.20575 7.15639L5.36575 3.02638C5.42575 2.07638 5.02575 1.59639 4.46575 1.23639C3.61575 0.626387 2.40575 0.346386 1.37575 0.406386C0.655754 0.626386 0.635752 0.466384 0.545752 1.09638C0.495752 1.38638 0.485751 1.68639 0.505751 1.98639C0.635751 3.88639 0.835753 5.64638 1.01575 7.27638C1.06575 7.71638 1.23575 8.12638 1.48575 8.48638C1.51575 8.52638 1.54575 8.56638 1.57575 8.59638C2.79575 10.1064 3.82575 10.2364 4.64575 8.98638C4.70575 8.89638 4.75575 8.80639 4.80575 8.71639" fill="#E62C2F"/>
<path d="M4.80575 8.70638C5.05575 8.22638 5.18575 7.68639 5.20575 7.15639L5.36575 3.02638C5.42575 2.07638 5.02575 1.59639 4.46575 1.23639C3.61575 0.626387 2.40575 0.346386 1.37575 0.406386C0.655754 0.626386 0.635752 0.466384 0.545752 1.09638C0.495752 1.38638 0.485751 1.68639 0.505751 1.98639C0.635751 3.88639 0.835753 5.64638 1.01575 7.27638C1.06575 7.71638 1.23575 8.12638 1.48575 8.48638C1.51575 8.52638 1.54575 8.56638 1.57575 8.59638C2.79575 10.1064 3.82575 10.2364 4.64575 8.98638C4.70575 8.89638 4.75575 8.80639 4.80575 8.71639" stroke="#E62C2F" stroke-width="0.2" stroke-linecap="round" stroke-linejoin="round"/>
</g>
<path d="M4.50672 7.99599C4.71672 7.59599 4.81672 7.14599 4.83672 6.69599L4.96672 3.22599C5.01672 2.42599 4.68672 2.02599 4.21672 1.72599C3.50672 1.21599 2.48672 0.985993 1.62672 1.03599C1.02672 1.22599 1.00672 1.08599 0.926718 1.61599C0.886718 1.86599 0.876719 2.11599 0.896719 2.36599C1.00672 3.96599 1.16672 5.43599 1.32672 6.80599C1.36672 7.17599 1.50672 7.51599 1.72672 7.81599C1.74672 7.84599 1.77672 7.87599 1.79672 7.91599C2.82672 9.18599 3.68672 9.28599 4.37672 8.24599C4.42672 8.17599 4.47672 8.09599 4.51672 8.01599" fill="white"/>
</svg>
