<svg width="7" height="20" viewBox="0 0 7 20" fill="none" xmlns="http://www.w3.org/2000/svg">
<path opacity="0.5" d="M0.98626 8.01641C1.10626 8.27641 1.26627 8.52641 1.47627 8.73641C2.31627 9.57641 3.16626 9.85641 4.02626 9.62641C4.59626 9.47641 5.04627 9.09641 5.33627 8.59641C5.52627 8.27641 5.64626 7.91641 5.67626 7.52641L6.02626 3.26641C5.96626 2.62641 5.80626 2.06641 5.54627 1.59641C5.25627 1.08641 4.71627 0.75641 4.12627 0.71641L1.19627 0.526407C0.456267 0.486407 0.206262 0.676409 0.246262 1.60641C0.246262 1.83641 0.266264 2.07641 0.256264 2.31641C0.206264 4.20641 0.346261 5.86641 0.776261 7.21641C0.806261 7.49641 0.87626 7.76641 0.98626 8.01641Z" fill="#E62C2F" stroke="#E62C2F" stroke-width="0.2" stroke-linecap="round" stroke-linejoin="round"/>
<path d="M1.31647 7.42665C1.41647 7.64665 1.55648 7.85665 1.72648 8.02665C2.43648 8.73665 3.14648 8.97665 3.87648 8.77665C4.35648 8.64665 4.73648 8.32665 4.97648 7.91665C5.13648 7.64665 5.23647 7.33665 5.25647 7.01665L5.55647 3.42665C5.50647 2.88665 5.37648 2.41665 5.15648 2.01665C4.91648 1.58665 4.45647 1.30665 3.95647 1.27665L1.48647 1.11665C0.856471 1.08665 0.656475 1.24665 0.686475 2.02665C0.686475 2.22665 0.706477 2.42665 0.696477 2.62665C0.656477 4.21665 0.776472 5.62665 1.13647 6.75665C1.15647 6.98665 1.21647 7.21665 1.31647 7.42665Z" fill="white"/>
</svg>
