<svg width="8" height="23" viewBox="0 0 8 23" fill="none" xmlns="http://www.w3.org/2000/svg">
<path opacity="0.5" d="M6.43551 9.49689C7.32551 8.38689 7.73551 6.86689 7.74551 5.00689C7.74551 4.37689 7.57551 3.75689 7.25551 3.21689C4.94551 -0.703114 2.81551 -1.02311 0.91551 3.17689C0.36551 5.67689 0.545515 7.79689 1.54551 9.49689C1.60551 9.60688 1.67552 9.70688 1.73552 9.80688C3.34552 12.3269 4.91551 12.3469 6.43551 9.49689Z" fill="#E62C2F" stroke="#E62C2F" stroke-width="0.2" stroke-linecap="round" stroke-linejoin="round"/>
<path d="M4.06413 10.6767C3.46413 10.6767 2.82413 10.1567 2.17413 9.14672C2.11413 9.06672 2.06412 8.97672 2.01412 8.88672C1.20412 7.50672 1.02412 5.73672 1.49412 3.62672C2.24412 1.97672 3.05412 1.13672 3.90412 1.13672C4.75412 1.13672 5.69411 1.99672 6.69411 3.67672C6.95411 4.12672 7.09412 4.62672 7.09412 5.14672C7.09412 6.72672 6.72412 7.98672 6.01412 8.87672C5.37412 10.0767 4.72413 10.6767 4.06413 10.6767Z" fill="white"/>
</svg>
