<svg width="12" height="19" viewBox="0 0 12 19" fill="none" xmlns="http://www.w3.org/2000/svg">
<path opacity="0.5" d="M9.82495 8.26693C10.1849 7.91693 10.4749 7.50693 10.6649 7.03693C11.1549 5.84693 11.2849 4.51693 11.1649 3.08693C11.1149 2.45693 10.885 1.84693 10.455 1.38693C9.64495 0.526929 8.56495 0.516931 7.29495 1.14693C6.65495 1.67693 5.84495 1.45693 4.95495 0.81693C3.57495 0.27693 2.40495 0.386931 1.45495 1.14693C0.524951 2.29693 0.474953 3.92693 1.28495 6.01693C1.58495 6.79693 2.01495 7.52693 2.57495 8.13693C2.87495 8.46693 3.21494 8.76693 3.58494 9.01693C5.39494 10.2469 7.31495 10.1169 9.32495 8.68693C9.50495 8.55693 9.66495 8.41693 9.82495 8.26693Z" fill="#E62C2F" stroke="#E62C2F" stroke-width="0.2" stroke-linecap="round" stroke-linejoin="round"/>
<path d="M6.1007 9.19695C5.3507 9.19695 4.6207 8.95695 3.9107 8.46695C3.5907 8.25695 3.3007 7.99695 3.0407 7.70695C2.5707 7.18695 2.20071 6.57695 1.92071 5.86695C1.22071 4.05695 1.27071 2.65695 2.06071 1.67695C2.52071 1.31695 3.0607 1.12695 3.6507 1.12695C4.0807 1.12695 4.54071 1.22695 5.03071 1.41695C5.54071 1.78695 5.9907 1.97695 6.4007 1.97695C6.6807 1.97695 6.9407 1.88695 7.1607 1.69695C7.6607 1.45695 8.12071 1.32695 8.53071 1.32695C9.04071 1.32695 9.4607 1.51695 9.8307 1.89695C10.1707 2.25695 10.3907 2.77695 10.4407 3.33695C10.5507 4.66695 10.4107 5.78695 10.0107 6.76695C9.8507 7.15695 9.6007 7.50695 9.2907 7.81695C9.1607 7.94695 9.0107 8.06695 8.8607 8.17695C7.9107 8.84695 6.9907 9.19695 6.1107 9.19695H6.1007Z" fill="white"/>
</svg>
