<svg width="13" height="20" viewBox="0 0 13 20" fill="none" xmlns="http://www.w3.org/2000/svg">
<path opacity="0.5" d="M10.8866 9.29648C11.3966 9.01648 11.8366 8.60648 12.0866 8.07648C12.2766 7.67648 12.3866 7.24648 12.4366 6.80648C12.6466 5.54648 12.6066 4.25647 12.3966 2.93647C12.3266 2.46647 12.1066 2.03647 11.7766 1.69647C11.2366 1.14647 10.6966 0.776475 10.1366 0.696475C9.29659 0.416475 8.47659 0.516473 7.66659 0.936473H7.58659C7.02659 1.19647 6.47659 1.19647 5.94659 0.936473C4.17659 0.366473 2.50659 0.266475 1.05659 1.01647C0.656588 1.30647 0.366591 1.89647 0.216591 2.88647C0.0665912 4.90647 0.716587 6.80648 1.94659 8.61648C2.05659 8.78648 2.18659 8.93648 2.33659 9.07648C2.54659 9.27648 2.78659 9.43647 3.04659 9.55647C5.75659 10.7965 8.36658 10.6765 10.8966 9.31647L10.8866 9.29648Z" fill="#E62C2F" stroke="#E62C2F" stroke-width="0.2" stroke-linecap="round" stroke-linejoin="round"/>
<path d="M6.71511 9.68676C5.66511 9.68676 4.57511 9.43675 3.49511 8.94675C3.27511 8.84675 3.0751 8.70676 2.8951 8.54676C2.7651 8.42676 2.65511 8.29676 2.56511 8.15676C1.43511 6.48676 0.945108 4.86676 1.07511 3.20676C1.20511 2.40676 1.4351 1.87676 1.7751 1.62676C2.3551 1.32676 3.00511 1.17676 3.73511 1.17676C4.40511 1.17676 5.1451 1.30676 5.9751 1.56676C6.2151 1.67676 6.46511 1.73676 6.71511 1.73676C6.96511 1.73676 7.21511 1.67676 7.46511 1.55676C7.96511 1.32676 8.40511 1.21676 8.82511 1.21676C9.09511 1.21676 9.36511 1.26676 9.63511 1.35676C10.0851 1.41676 10.5351 1.69676 11.0351 2.20676C11.3151 2.49676 11.4951 2.85676 11.5551 3.24676C11.7451 4.45676 11.7651 5.54676 11.5851 6.59676C11.5451 6.99676 11.4451 7.35676 11.2851 7.68676C11.0851 8.10676 10.7351 8.46676 10.2751 8.71676C9.1051 9.34676 7.90511 9.66676 6.71511 9.66676V9.68676Z" fill="white"/>
</svg>
