<svg width="6" height="19" viewBox="0 0 6 19" fill="none" xmlns="http://www.w3.org/2000/svg">
<g opacity="0.5">
<path d="M0.796429 8.7474C0.546429 8.2674 0.416428 7.7274 0.396428 7.1974L0.236424 3.0674C0.176424 2.1174 0.576426 1.6374 1.13643 1.2774C1.98643 0.667399 3.19643 0.387401 4.22643 0.447401C4.94643 0.667401 4.96642 0.5074 5.05642 1.1374C5.10642 1.4274 5.11643 1.7274 5.09643 2.0274C4.96642 3.9274 4.76643 5.6874 4.58643 7.3174C4.53643 7.7574 4.36643 8.1674 4.11643 8.5274C4.08643 8.5674 4.05643 8.6074 4.02643 8.6374C2.80643 10.1474 1.77643 10.2774 0.956425 9.0274C0.896425 8.9374 0.846429 8.8474 0.796429 8.7574" fill="#E62C2F"/>
<path d="M0.796429 8.7474C0.546429 8.2674 0.416428 7.7274 0.396428 7.1974L0.236424 3.0674C0.176424 2.1174 0.576426 1.6374 1.13643 1.2774C1.98643 0.667399 3.19643 0.387401 4.22643 0.447401C4.94643 0.667401 4.96642 0.5074 5.05642 1.1374C5.10642 1.4274 5.11643 1.7274 5.09643 2.0274C4.96643 3.9274 4.76643 5.6874 4.58643 7.3174C4.53643 7.7574 4.36643 8.1674 4.11643 8.5274C4.08643 8.5674 4.05643 8.6074 4.02643 8.6374C2.80643 10.1474 1.77643 10.2774 0.956425 9.0274C0.896425 8.9374 0.846429 8.8474 0.796429 8.7574" stroke="#E62C2F" stroke-width="0.2" stroke-linecap="round" stroke-linejoin="round"/>
</g>
<path d="M1.09782 8.03701C0.887816 7.63701 0.787822 7.18701 0.767822 6.73701L0.637817 3.26701C0.587817 2.46701 0.917817 2.06701 1.38782 1.76701C2.09782 1.25701 3.11782 1.02701 3.97782 1.07701C4.57782 1.26701 4.59782 1.12701 4.67782 1.65701C4.71782 1.90701 4.72782 2.15701 4.70782 2.40701C4.59782 4.00701 4.43782 5.47701 4.27782 6.84701C4.23782 7.21701 4.09782 7.55701 3.87782 7.85701C3.85782 7.88701 3.82782 7.91701 3.80782 7.95701C2.77782 9.22701 1.91782 9.32701 1.22782 8.28701C1.17782 8.21701 1.12782 8.137 1.08782 8.057" fill="white"/>
</svg>
