<svg width="7" height="20" viewBox="0 0 7 20" fill="none" xmlns="http://www.w3.org/2000/svg">
<path opacity="0.5" d="M5.61422 8.05644C5.49422 8.31644 5.33422 8.56645 5.12422 8.77645C4.28422 9.61645 3.43422 9.89644 2.57422 9.66644C2.00422 9.51645 1.55422 9.13645 1.26422 8.63645C1.07422 8.31645 0.954217 7.95645 0.924217 7.56645L0.574219 3.30645C0.634219 2.66645 0.794218 2.10645 1.05422 1.63645C1.34422 1.12645 1.88422 0.796449 2.47422 0.756449L5.40422 0.566446C6.14422 0.526446 6.39422 0.716448 6.35422 1.64645C6.35422 1.87645 6.33422 2.11645 6.34422 2.35645C6.39422 4.24645 6.25422 5.90645 5.82422 7.25645C5.79422 7.53645 5.72422 7.80644 5.61422 8.05644Z" fill="#E62C2F" stroke="#E62C2F" stroke-width="0.2" stroke-linecap="round" stroke-linejoin="round"/>
<path d="M5.27516 7.46669C5.17516 7.68669 5.03516 7.89669 4.86516 8.06669C4.15516 8.77669 3.44516 9.01669 2.71516 8.81669C2.23516 8.68669 1.85516 8.36668 1.61516 7.95668C1.45516 7.68668 1.35516 7.37669 1.33516 7.05669L1.03516 3.46669C1.08516 2.92669 1.21516 2.45669 1.43516 2.05669C1.67516 1.62669 2.13515 1.34669 2.63515 1.31669L5.10516 1.15669C5.73516 1.12669 5.93516 1.28669 5.90516 2.06669C5.90516 2.26669 5.88516 2.46669 5.89516 2.66669C5.93516 4.25669 5.81516 5.66668 5.45516 6.79668C5.43516 7.02668 5.37516 7.25669 5.27516 7.46669Z" fill="white"/>
</svg>
