<svg width="9" height="23" viewBox="0 0 9 23" fill="none" xmlns="http://www.w3.org/2000/svg">
<path opacity="0.5" d="M2.16547 9.53692C1.27547 8.42692 0.865469 6.90692 0.855469 5.04692C0.855469 4.41692 1.02547 3.79693 1.34547 3.25693C3.65547 -0.663075 5.78547 -0.983076 7.68547 3.21692C8.23547 5.71692 8.05547 7.83692 7.05547 9.53692C6.99547 9.64692 6.92547 9.74692 6.86547 9.84692C5.25547 12.3669 3.68547 12.3869 2.16547 9.53692Z" fill="#E62C2F" stroke="#E62C2F" stroke-width="0.2" stroke-linecap="round" stroke-linejoin="round"/>
<path d="M4.52219 10.7168C3.87219 10.7168 3.21219 10.1168 2.58219 8.92676C1.86219 8.02676 1.49219 6.76676 1.49219 5.18676C1.49219 4.67676 1.63219 4.16676 1.89219 3.71676C2.88219 2.02676 3.82219 1.17676 4.68219 1.17676C5.54219 1.17676 6.34219 2.01676 7.09219 3.67676C7.55219 5.76676 7.38219 7.53676 6.56219 8.91676C6.51219 9.00676 6.46219 9.08676 6.40219 9.17676C5.75219 10.1968 5.12219 10.7068 4.51219 10.7068L4.52219 10.7168Z" fill="white"/>
</svg>
