<svg width="12" height="19" viewBox="0 0 12 19" fill="none" xmlns="http://www.w3.org/2000/svg">
<path opacity="0.5" d="M1.77632 8.30697C1.41632 7.95697 1.12632 7.54697 0.93632 7.07697C0.44632 5.88697 0.31632 4.55697 0.43632 3.12697C0.48632 2.49697 0.716321 1.88697 1.14632 1.42697C1.95632 0.56697 3.03632 0.556968 4.30632 1.18697C4.94632 1.71697 5.75632 1.49697 6.64632 0.85697C8.02632 0.31697 9.19632 0.426968 10.1463 1.18697C11.0763 2.33697 11.1263 3.96697 10.3163 6.05697C10.0163 6.83697 9.58632 7.56697 9.02632 8.17697C8.72632 8.50697 8.38632 8.80697 8.01632 9.05697C6.20632 10.287 4.28632 10.157 2.27632 8.72697C2.09632 8.59697 1.93632 8.45697 1.77632 8.30697Z" fill="#E62C2F" stroke="#E62C2F" stroke-width="0.2" stroke-linecap="round" stroke-linejoin="round"/>
<path d="M5.4947 9.2475C4.6147 9.2475 3.6847 8.9075 2.7347 8.2275C2.5847 8.1175 2.4447 7.9975 2.3047 7.8675C1.9847 7.5575 1.7447 7.2075 1.5847 6.8175C1.1747 5.8375 1.0347 4.7175 1.1547 3.3875C1.2047 2.8175 1.4147 2.3075 1.7647 1.9475C2.1247 1.5575 2.5547 1.3775 3.0647 1.3775C3.4747 1.3775 3.9447 1.5075 4.4547 1.7575C4.6647 1.9375 4.9147 2.0275 5.2047 2.0275C5.6047 2.0275 6.0647 1.8475 6.5847 1.4675C7.0547 1.2875 7.5247 1.1875 7.9447 1.1875C8.5447 1.1875 9.0847 1.3775 9.5547 1.7475C10.3347 2.7075 10.3847 4.1175 9.6847 5.9275C9.4147 6.6275 9.0347 7.2475 8.5647 7.7675C8.3047 8.0575 8.0047 8.3075 7.6947 8.5275C6.9847 9.0075 6.2547 9.2475 5.5047 9.2475H5.4947Z" fill="white"/>
</svg>
