<svg width="14" height="20" viewBox="0 0 14 20" fill="none" xmlns="http://www.w3.org/2000/svg">
<path opacity="0.5" d="M2.70455 9.34725C2.19455 9.06725 1.75454 8.65725 1.50454 8.12725C1.31454 7.72725 1.20455 7.29726 1.15455 6.85725C0.944545 5.59725 0.984545 4.30726 1.19455 2.98726C1.26455 2.51726 1.48454 2.08725 1.81454 1.74725C2.35454 1.19725 2.89455 0.827254 3.45455 0.747254C4.29454 0.467254 5.11454 0.567256 5.92454 0.987256H6.00454C6.56454 1.24726 7.11454 1.24726 7.64455 0.987256C9.41455 0.417256 11.0845 0.317254 12.5345 1.06725C12.9345 1.35725 13.2245 1.94725 13.3745 2.93725C13.5245 4.95725 12.8745 6.85725 11.6445 8.66725C11.5345 8.83725 11.4045 8.98725 11.2545 9.12725C11.0445 9.32725 10.8045 9.48726 10.5445 9.60725C7.83455 10.8473 5.22455 10.7273 2.69455 9.36726L2.70455 9.34725Z" fill="#E62C2F" stroke="#E62C2F" stroke-width="0.2" stroke-linecap="round" stroke-linejoin="round"/>
<path d="M6.88495 9.73754C5.69495 9.73754 4.49495 9.41754 3.32495 8.78754C2.86495 8.53754 2.50495 8.17754 2.31495 7.75754C2.15495 7.42754 2.05495 7.05754 2.01495 6.66754C1.84495 5.61754 1.85495 4.52754 2.04495 3.31754C2.10495 2.91754 2.28495 2.55754 2.56495 2.27754C3.06495 1.76754 3.51495 1.48754 3.95495 1.42754C4.23495 1.33754 4.50495 1.28754 4.77495 1.28754C5.19495 1.28754 5.62495 1.39754 6.05495 1.62754C6.06495 1.62754 6.15495 1.62754 6.16495 1.62754C6.38495 1.73754 6.63495 1.79754 6.88495 1.79754C7.13495 1.79754 7.38495 1.73754 7.63495 1.61754C8.45495 1.35754 9.18495 1.22754 9.86495 1.22754C10.5949 1.22754 11.2349 1.37754 11.8349 1.68754C12.1649 1.92754 12.4049 2.46754 12.5349 3.26754C12.6549 4.91754 12.1749 6.53754 11.0449 8.20754C10.9549 8.34754 10.8349 8.47754 10.7149 8.59754C10.5349 8.76754 10.3349 8.89754 10.1149 8.99754C9.03495 9.48754 7.95495 9.73754 6.89495 9.73754H6.88495Z" fill="white"/>
</svg>
