<svg width="16" height="28" viewBox="0 0 16 28" fill="none" xmlns="http://www.w3.org/2000/svg">
<path d="M12.9912 20.4001C12.7412 17.8501 12.1712 15.2501 11.9312 12.6701C11.6912 10.0901 10.7213 8.01014 10.1613 4.09014C9.60125 0.180141 8.24125 0.00014174 7.41125 2.02014C6.58125 4.04014 5.37126 9.49014 5.63126 12.4901C5.90126 15.4901 5.05125 18.9701 4.53125 20.4001H12.9813H12.9912Z" fill="#F4DE9C" stroke="#5E5E5A" stroke-width="0.15" stroke-linecap="round" stroke-linejoin="round"/>
<path d="M13.1611 15.0801H3.57111C2.07994 15.0801 0.871094 16.2889 0.871094 17.7801V17.7901C0.871094 19.2812 2.07994 20.4901 3.57111 20.4901H13.1611C14.6523 20.4901 15.8611 19.2812 15.8611 17.7901V17.7801C15.8611 16.2889 14.6523 15.0801 13.1611 15.0801Z" fill="#FFE4E3" stroke="#5E5E5A" stroke-width="0.15" stroke-miterlimit="10"/>
<path d="M5.05127 27.0502C5.28127 27.1002 6.30129 27.6802 7.76129 27.5402C8.67129 27.4502 9.80128 27.8202 10.9113 27.4102C11.4713 27.2002 12.1213 27.1702 12.7513 26.9602C13.4413 26.7302 13.4913 24.0102 13.2613 21.4702C13.0313 18.9302 12.5213 19.5802 11.6913 18.1502C8.07128 11.9202 7.65126 17.5102 5.86126 17.6402C4.72126 17.7202 2.80127 26.5302 5.05127 27.0402V27.0502Z" fill="white" stroke="#5E5E5A" stroke-width="0.15" stroke-linecap="round" stroke-linejoin="round"/>
</svg>
