<svg width="16" height="27" viewBox="0 0 16 27" fill="none" xmlns="http://www.w3.org/2000/svg">
<path d="M12.1101 19.5298C12.0401 15.8698 11.1601 11.6398 10.6201 9.77979C10.0801 7.91979 9.70015 4.63979 8.37015 1.85979C7.04015 -0.920213 6.38016 1.58979 6.51016 2.78979C6.64016 3.98979 5.90016 8.78979 5.44016 10.7398C4.98016 12.6898 5.33016 16.1498 4.66016 19.5298H12.1101Z" fill="#F4DE9C" stroke="#5E5E5A" stroke-width="0.15" stroke-linecap="round" stroke-linejoin="round"/>
<path d="M12.9619 14.0801H3.37186C1.88069 14.0801 0.671875 15.2889 0.671875 16.7801V16.7901C0.671875 18.2812 1.88069 19.4901 3.37186 19.4901H12.9619C14.453 19.4901 15.6619 18.2812 15.6619 16.7901V16.7801C15.6619 15.2889 14.453 14.0801 12.9619 14.0801Z" fill="#FFE4E3" stroke="#5E5E5A" stroke-width="0.15" stroke-miterlimit="10"/>
<path d="M5.52043 25.6199C4.50043 25.0299 4.68045 21.9899 4.63045 20.2299C4.54045 16.8099 8.41043 13.0799 11.0804 16.9799C11.9304 18.2299 12.3404 18.5899 12.3404 21.7599C12.3404 24.9299 11.5704 27.5199 9.61043 26.2999C7.66043 25.0799 7.70045 26.8799 5.51045 25.6199H5.52043Z" fill="white" stroke="#5E5E5A" stroke-width="0.15" stroke-linecap="round" stroke-linejoin="round"/>
</svg>
