<svg width="16" height="32" viewBox="0 0 16 32" fill="none" xmlns="http://www.w3.org/2000/svg">
<path d="M9.96124 8.92982C9.19124 6.57982 8.17125 4.63982 7.87125 2.21982C7.57125 -0.200184 6.57126 -0.160183 6.04126 1.16982C5.51126 2.49982 4.99124 8.37982 4.83124 12.1998C4.67124 16.0198 4.95125 19.6198 4.28125 21.9298H10.9713C10.0613 18.6498 10.7412 11.2798 9.96124 8.92982Z" fill="#F4DE9C" stroke="#5E5E5A" stroke-width="0.15" stroke-linecap="round" stroke-linejoin="round"/>
<path d="M12.7588 19.0801H3.16876C1.67759 19.0801 0.46875 20.2889 0.46875 21.7801V21.7901C0.46875 23.2812 1.67759 24.4901 3.16876 24.4901H12.7588C14.2499 24.4901 15.4587 23.2812 15.4587 21.7901V21.7801C15.4587 20.2889 14.2499 19.0801 12.7588 19.0801Z" fill="#FFE4E3" stroke="#5E5E5A" stroke-width="0.15" stroke-miterlimit="10"/>
<path d="M3.28976 28.14C2.79976 26.09 3.97977 23.36 4.22977 22.11C4.46977 20.86 6.36976 19.23 7.68976 19.32C9.00976 19.42 10.7198 20.47 10.9398 21.31C12.0798 25.67 13.3198 27.94 11.2598 30.34C9.93977 31.87 7.88975 32.02 6.42975 30.77C4.96975 29.52 3.83975 30.39 3.30975 28.14H3.28976Z" fill="white" stroke="#5E5E5A" stroke-width="0.15" stroke-linecap="round" stroke-linejoin="round"/>
</svg>
