<svg width="16" height="28" viewBox="0 0 16 28" fill="none" xmlns="http://www.w3.org/2000/svg">
<path d="M9.09807 5.19977C8.89807 2.38977 8.70806 0.259766 9.18806 0.259766C10.8681 0.259766 11.8481 6.37977 11.9081 7.09977C12.0181 8.52977 12.038 10.3698 12.078 11.6298C12.208 15.4998 12.4681 18.2098 12.4681 18.2098C11.1281 15.1298 10.5881 12.5498 10.3481 10.7698C10.2381 9.97977 9.75807 7.70976 9.09807 5.18976V5.19977Z" fill="#EDD091" stroke="#5E5E5A" stroke-width="0.15" stroke-linecap="round" stroke-linejoin="round"/>
<path d="M12.46 18.2197L8.75 18.1797L12.46 18.2197Z" fill="#EDD091" stroke="#5E5E5A" stroke-width="0.15" stroke-linecap="round" stroke-linejoin="round"/>
<path d="M12.4611 18.2198L3.87109 18.1098C3.87109 18.1098 5.86111 10.1498 6.01111 1.89977C6.01111 1.50977 6.33111 0.259766 6.92111 0.259766C7.62111 0.259766 7.9711 1.27977 8.1011 1.69977C9.2311 5.30977 10.1811 9.62977 10.3411 10.7798C10.5811 12.5598 11.1211 15.1398 12.4611 18.2198Z" fill="#F4DE9C" stroke="#5E5E5A" stroke-width="0.15" stroke-linecap="round" stroke-linejoin="round"/>
<path d="M12.5595 15.2197H2.96954C1.47837 15.2197 0.269531 16.4286 0.269531 17.9197V17.9297C0.269531 19.4209 1.47837 20.6297 2.96954 20.6297H12.5595C14.0507 20.6297 15.2596 19.4209 15.2596 17.9297V17.9197C15.2596 16.4286 14.0507 15.2197 12.5595 15.2197Z" fill="#FFE4E3" stroke="#5E5E5A" stroke-width="0.15" stroke-miterlimit="10"/>
<path d="M2.73828 23.4998C2.73828 21.5498 3.3283 18.5098 4.4483 17.1998C5.1883 16.3298 6.7883 15.5398 8.0083 15.7098C9.2283 15.8798 9.6683 17.2898 10.5983 17.2498C11.5183 17.2098 12.3583 17.0098 12.5483 18.7598C12.7483 20.5198 13.1383 20.6598 13.3083 21.7898C13.4783 22.9098 13.8683 23.8698 11.7683 24.7098C9.66828 25.5498 9.1483 28.0898 7.2883 27.5298C5.4183 26.9698 5.6683 25.8998 4.3483 25.4098C3.0283 24.9198 2.73828 24.2398 2.73828 23.5098V23.4998Z" fill="white" stroke="#5E5E5A" stroke-width="0.15" stroke-linecap="round" stroke-linejoin="round"/>
</svg>
