<svg width="17" height="27" viewBox="0 0 17 27" fill="none" xmlns="http://www.w3.org/2000/svg">
<path d="M12.7388 18.2205C12.7388 16.0905 12.1687 12.1605 11.7587 9.53049C11.3487 6.90049 9.79875 6.17049 10.0887 3.49048C10.3787 0.810485 9.15875 0.270485 8.09875 2.25049C7.03875 4.23049 6.38875 6.87048 6.66875 9.80048C6.94875 12.7305 6.35875 14.4505 4.71875 18.2305H12.7287L12.7388 18.2205Z" fill="#F4DE9C" stroke="#5E5E5A" stroke-width="0.15" stroke-linecap="round" stroke-linejoin="round"/>
<path d="M13.3486 14.0801H3.75859C2.26742 14.0801 1.05859 15.2889 1.05859 16.7801V16.7901C1.05859 18.2812 2.26742 19.4901 3.75859 19.4901H13.3486C14.8398 19.4901 16.0486 18.2812 16.0486 16.7901V16.7801C16.0486 15.2889 14.8398 14.0801 13.3486 14.0801Z" fill="#FFE4E3" stroke="#5E5E5A" stroke-width="0.15" stroke-miterlimit="10"/>
<path d="M4.56963 24.6403C5.05963 25.4703 6.67962 25.3203 6.92962 26.0103C7.16962 26.6903 9.59962 26.9903 10.2796 25.8103C10.9596 24.6403 12.2296 24.2003 12.5296 23.0803C12.8196 21.9603 13.1596 17.5603 12.5296 17.1203C11.8996 16.6803 10.8296 17.2203 10.2896 16.6303C9.74962 16.0403 8.40963 14.4303 7.48963 15.4603C6.56963 16.4903 6.39962 17.1803 5.64962 17.3403C3.68962 17.7503 4.21963 24.0403 4.56963 24.6403Z" fill="white" stroke="#5E5E5A" stroke-width="0.15" stroke-linecap="round" stroke-linejoin="round"/>
</svg>
