<svg width="16" height="28" viewBox="0 0 16 28" fill="none" xmlns="http://www.w3.org/2000/svg">
<path d="M10.1291 2.47967C9.89907 0.199666 8.49906 0.789666 8.39906 2.69967C8.29906 4.60967 7.43906 8.38967 6.28906 12.1397L10.3091 12.6297C10.6691 11.2497 10.3691 4.75967 10.1291 2.47967Z" fill="#F4DE9C" stroke="#5E5E5A" stroke-width="0.15" stroke-linecap="round" stroke-linejoin="round"/>
<path d="M3.26953 18.2601C4.33953 15.9101 4.83953 16.1001 4.34953 13.8501C3.85953 11.6001 2.90952 9.09015 4.39952 5.32015C5.88952 1.55015 8.16953 -0.199853 7.74953 2.47015C7.32953 5.14015 6.66952 7.98015 7.39952 10.0101C8.12952 12.0401 9.78953 12.5201 10.3195 10.1901C10.8495 7.86015 10.8795 6.16015 10.9095 4.65015C10.9395 3.15015 11.1795 0.0701462 12.3595 2.07015C13.5295 4.07015 14.3695 7.23015 13.9495 11.3101C13.9495 11.3101 12.9895 16.4801 13.8695 18.2701H3.26953V18.2601Z" fill="#F4DE9C" stroke="#5E5E5A" stroke-width="0.15" stroke-linecap="round" stroke-linejoin="round"/>
<path d="M13.1611 15.0801H3.57111C2.07994 15.0801 0.871094 16.2889 0.871094 17.7801V17.7901C0.871094 19.2812 2.07994 20.4901 3.57111 20.4901H13.1611C14.6523 20.4901 15.8611 19.2812 15.8611 17.7901V17.7801C15.8611 16.2889 14.6523 15.0801 13.1611 15.0801Z" fill="#FFE4E3" stroke="#5E5E5A" stroke-width="0.15" stroke-miterlimit="10"/>
<path d="M3.23134 18.2397C2.46134 19.6397 2.16135 24.9597 2.80135 25.8897C3.43135 26.8197 5.14135 26.9597 5.83135 26.2797C6.52135 25.5997 6.73134 26.3697 7.34134 26.7097C7.95134 27.0397 8.49134 26.4197 9.15134 27.0697C10.4013 28.2897 12.8113 27.4597 13.5013 24.5797C14.1813 21.6997 14.3314 19.1097 13.9914 18.2297C13.6514 17.3497 11.9914 18.7697 10.8214 17.6897C9.65136 16.6197 7.94135 16.6597 6.52135 17.2997C5.10135 17.9397 4.37135 16.1997 3.24135 18.2497L3.23134 18.2397Z" fill="white" stroke="#5E5E5A" stroke-width="0.15" stroke-linecap="round" stroke-linejoin="round"/>
</svg>
