<svg width="16" height="25" viewBox="0 0 16 25" fill="none" xmlns="http://www.w3.org/2000/svg">
<path d="M10.3013 2.45015C10.2113 0.450151 8.91125 0.870151 8.72125 2.54015C8.52125 4.20015 7.54125 7.45015 6.28125 10.6602L9.90125 11.3402C10.3012 10.1602 10.3813 4.46015 10.3013 2.45015Z" fill="#F4DE9C" stroke="#5E5E5A" stroke-width="0.15" stroke-linecap="round" stroke-linejoin="round"/>
<path d="M13.9217 9.26047C13.5817 7.26047 13.7017 4.39047 12.7217 1.72047C11.7417 -0.949529 10.9717 0.900471 11.2217 2.13047C11.4717 3.37047 10.9717 5.78047 10.3017 7.15047C9.63173 8.52047 8.84172 11.2605 7.42172 10.1605C6.00172 9.06047 6.79172 5.37047 7.59172 2.61047C8.39172 -0.149529 6.79172 0.540471 6.20172 1.79047C5.62172 3.04047 3.45173 6.26047 3.49173 9.75047C3.53173 13.2405 3.81172 14.5005 2.76172 16.3805L13.9117 16.5405C14.2617 13.6805 14.2717 11.2705 13.9217 9.27047V9.26047Z" fill="#F4DE9C" stroke="#5E5E5A" stroke-width="0.15" stroke-linecap="round" stroke-linejoin="round"/>
<path d="M12.9697 12.0801H3.3797C1.88853 12.0801 0.679688 13.2889 0.679688 14.7801V14.7901C0.679688 16.2812 1.88853 17.4901 3.3797 17.4901H12.9697C14.4609 17.4901 15.6697 16.2812 15.6697 14.7901V14.7801C15.6697 13.2889 14.4609 12.0801 12.9697 12.0801Z" fill="#FFE4E3" stroke="#5E5E5A" stroke-width="0.15" stroke-miterlimit="10"/>
<path d="M3.0117 15.9197C1.6017 18.1197 1.50171 21.7297 3.21171 22.7097C4.92171 23.6897 5.9017 22.7097 6.7317 22.9497C7.5617 23.1897 9.9117 25.7297 11.7617 24.0197C13.7517 22.1797 14.6417 16.7997 13.7617 15.5797C11.8717 12.9597 10.2017 15.9797 7.58171 14.4697C6.72171 13.9697 4.43171 13.7297 3.02171 15.9297L3.0117 15.9197Z" fill="white" stroke="#5E5E5A" stroke-width="0.15" stroke-linecap="round" stroke-linejoin="round"/>
</svg>
