<svg width="16" height="24" viewBox="0 0 16 24" fill="none" xmlns="http://www.w3.org/2000/svg">
<path d="M9.06923 2.38991C8.64923 0.429912 7.43923 1.05991 7.51923 2.72991C7.59923 4.39991 7.15922 7.76991 6.44922 11.1399L10.1292 11.2099C10.3292 9.97991 9.47922 4.33991 9.05922 2.37991L9.06923 2.38991Z" fill="#F4DE9C" stroke="#5E5E5A" stroke-width="0.15" stroke-linecap="round" stroke-linejoin="round"/>
<path d="M12.9402 16.6298C12.3102 13.0498 12.8801 8.11977 12.4501 6.27977C12.0201 4.43977 11.4402 1.30977 10.2702 0.94977C9.11016 0.58977 9.43015 3.64977 10.0101 6.18977C10.6001 8.72977 9.98015 10.5898 7.89015 10.9298C5.81015 11.2698 7.37016 5.95977 7.13016 2.81977C6.89016 -0.320231 5.13016 0.499769 5.30016 2.47977C5.48016 4.45977 3.49015 8.77977 3.59015 9.91977C3.69015 11.0698 4.29016 13.8798 3.41016 16.6198H12.9202L12.9402 16.6298Z" fill="#F4DE9C" stroke="#5E5E5A" stroke-width="0.15" stroke-linecap="round" stroke-linejoin="round"/>
<path d="M12.7705 11.0801H3.18047C1.6893 11.0801 0.480469 12.2889 0.480469 13.7801V13.7901C0.480469 15.2812 1.6893 16.4901 3.18047 16.4901H12.7705C14.2616 16.4901 15.4705 15.2812 15.4705 13.7901V13.7801C15.4705 12.2889 14.2616 11.0801 12.7705 11.0801Z" fill="#FFE4E3" stroke="#5E5E5A" stroke-width="0.15" stroke-miterlimit="10"/>
<path d="M3.42934 16.6199C2.65934 18.3399 3.10934 22.9899 4.82934 22.9899C6.54934 22.9899 6.97934 22.7199 7.61934 23.3699C8.25934 24.0199 9.22935 23.0499 9.76935 23.1599C10.3093 23.2699 12.2794 24.7099 12.8194 21.8199C13.3694 18.9199 13.4193 14.6199 11.7493 14.9499C7.62934 15.7499 8.63935 11.4099 5.40935 15.8099C4.81935 16.6199 4.06934 15.1899 3.41934 16.6399L3.42934 16.6199Z" fill="white" stroke="#5E5E5A" stroke-width="0.15" stroke-linecap="round" stroke-linejoin="round"/>
</svg>
