<svg width="16" height="28" viewBox="0 0 16 28" fill="none" xmlns="http://www.w3.org/2000/svg">
<path d="M3.28125 20.4001C3.53125 17.8501 4.10125 15.2501 4.34125 12.6701C4.58125 10.0901 5.55124 8.01014 6.11124 4.09014C6.67124 0.180141 8.03124 0.00014174 8.86124 2.02014C9.69124 4.04014 10.9013 9.49014 10.6413 12.4901C10.3713 15.4901 11.2212 18.9701 11.7412 20.4001H3.29126H3.28125Z" fill="#F4DE9C" stroke="#5E5E5A" stroke-width="0.15" stroke-linecap="round" stroke-linejoin="round"/>
<path d="M12.3603 15.0801H2.77029C1.27913 15.0801 0.0703125 16.2889 0.0703125 17.7801V17.7901C0.0703125 19.2812 1.27913 20.4901 2.77029 20.4901H12.3603C13.8515 20.4901 15.0603 19.2812 15.0603 17.7901V17.7801C15.0603 16.2889 13.8515 15.0801 12.3603 15.0801Z" fill="#FFE4E3" stroke="#5E5E5A" stroke-width="0.15" stroke-miterlimit="10"/>
<path d="M11.2201 27.0502C10.9901 27.1002 9.97008 27.6802 8.51008 27.5402C7.60008 27.4502 6.47005 27.8202 5.36005 27.4102C4.80005 27.2002 4.15006 27.1702 3.52006 26.9602C2.83006 26.7302 2.78008 24.0102 3.01008 21.4702C3.24008 18.9302 3.75006 19.5802 4.58006 18.1502C8.20006 11.9202 8.62007 17.5102 10.4101 17.6402C11.5501 17.7202 13.4701 26.5302 11.2201 27.0402V27.0502Z" fill="white" stroke="#5E5E5A" stroke-width="0.15" stroke-linecap="round" stroke-linejoin="round"/>
</svg>
