<svg width="16" height="27" viewBox="0 0 16 27" fill="none" xmlns="http://www.w3.org/2000/svg">
<path d="M4.16016 19.5298C4.23016 15.8698 5.11015 11.6398 5.65015 9.77979C6.19015 7.91979 6.57015 4.63979 7.90015 1.85979C9.23015 -0.920213 9.89016 1.58979 9.76016 2.78979C9.63016 3.98979 10.3701 8.78979 10.8301 10.7398C11.2901 12.6898 10.9401 16.1498 11.6101 19.5298H4.16016Z" fill="#F4DE9C" stroke="#5E5E5A" stroke-width="0.15" stroke-linecap="round" stroke-linejoin="round"/>
<path d="M12.5595 14.0801H2.96954C1.47837 14.0801 0.269531 15.2889 0.269531 16.7801V16.7901C0.269531 18.2812 1.47837 19.4901 2.96954 19.4901H12.5595C14.0507 19.4901 15.2596 18.2812 15.2596 16.7901V16.7801C15.2596 15.2889 14.0507 14.0801 12.5595 14.0801Z" fill="#FFE4E3" stroke="#5E5E5A" stroke-width="0.15" stroke-miterlimit="10"/>
<path d="M10.7614 25.6199C11.7814 25.0299 11.6014 21.9899 11.6514 20.2299C11.7414 16.8099 7.87142 13.0799 5.20142 16.9799C4.35142 18.2299 3.94141 18.5899 3.94141 21.7599C3.94141 24.9299 4.71142 27.5199 6.67142 26.2999C8.62142 25.0799 8.58139 26.8799 10.7714 25.6199H10.7614Z" fill="white" stroke="#5E5E5A" stroke-width="0.15" stroke-linecap="round" stroke-linejoin="round"/>
</svg>
