<svg width="16" height="32" viewBox="0 0 16 32" fill="none" xmlns="http://www.w3.org/2000/svg">
<path d="M6.3186 8.92982C7.0886 6.57982 8.1086 4.63982 8.4086 2.21982C8.7086 -0.200184 9.70859 -0.160183 10.2386 1.16982C10.7686 2.49982 11.2886 8.37982 11.4486 12.1998C11.6086 16.0198 11.3286 19.6198 11.9986 21.9298H5.30859C6.21859 18.6498 5.5386 11.2798 6.3186 8.92982Z" fill="#F4DE9C" stroke="#5E5E5A" stroke-width="0.15" stroke-linecap="round" stroke-linejoin="round"/>
<path d="M12.7704 19.0801H3.18045C1.68928 19.0801 0.480469 20.2889 0.480469 21.7801V21.7901C0.480469 23.2812 1.68928 24.4901 3.18045 24.4901H12.7704C14.2616 24.4901 15.4705 23.2812 15.4705 21.7901V21.7801C15.4705 20.2889 14.2616 19.0801 12.7704 19.0801Z" fill="#FFE4E3" stroke="#5E5E5A" stroke-width="0.15" stroke-miterlimit="10"/>
<path d="M12.9902 28.14C13.4802 26.09 12.3002 23.36 12.0502 22.11C11.8102 20.86 9.91017 19.23 8.59017 19.32C7.27017 19.42 5.56017 20.47 5.34017 21.31C4.20017 25.67 2.96016 27.94 5.02016 30.34C6.34016 31.87 8.39018 32.02 9.85018 30.77C11.3102 29.52 12.4402 30.39 12.9702 28.14H12.9902Z" fill="white" stroke="#5E5E5A" stroke-width="0.15" stroke-linecap="round" stroke-linejoin="round"/>
</svg>
