<svg width="16" height="28" viewBox="0 0 16 28" fill="none" xmlns="http://www.w3.org/2000/svg">
<path d="M7.17859 5.19977C7.37859 2.38977 7.56859 0.259766 7.08859 0.259766C5.40859 0.259766 4.42859 6.37977 4.36859 7.09977C4.25859 8.52977 4.23861 10.3698 4.19861 11.6298C4.06861 15.4998 3.80859 18.2098 3.80859 18.2098C5.14859 15.1298 5.68859 12.5498 5.92859 10.7698C6.03859 9.97977 6.51859 7.70976 7.17859 5.18976V5.19977Z" fill="#EDD091" stroke="#5E5E5A" stroke-width="0.15" stroke-linecap="round" stroke-linejoin="round"/>
<path d="M3.80859 18.2197L7.52859 18.1797L3.80859 18.2197Z" fill="#EDD091" stroke="#5E5E5A" stroke-width="0.15" stroke-linecap="round" stroke-linejoin="round"/>
<path d="M3.80859 18.2198L12.3986 18.1098C12.3986 18.1098 10.4086 10.1498 10.2586 1.89977C10.2586 1.50977 9.9386 0.259766 9.3486 0.259766C8.6486 0.259766 8.29861 1.27977 8.16861 1.69977C7.03861 5.30977 6.08859 9.62977 5.92859 10.7798C5.68859 12.5598 5.14859 15.1398 3.80859 18.2198Z" fill="#F4DE9C" stroke="#5E5E5A" stroke-width="0.15" stroke-linecap="round" stroke-linejoin="round"/>
<path d="M12.9502 15.0801H3.36014C1.86897 15.0801 0.660156 16.2889 0.660156 17.7801V17.7901C0.660156 19.2812 1.86897 20.4901 3.36014 20.4901H12.9502C14.4413 20.4901 15.6501 19.2812 15.6501 17.7901V17.7801C15.6501 16.2889 14.4413 15.0801 12.9502 15.0801Z" fill="#FFE4E3" stroke="#5E5E5A" stroke-width="0.15" stroke-miterlimit="10"/>
<path d="M13.5296 23.4998C13.5296 21.5498 12.9396 18.5098 11.8196 17.1998C11.0796 16.3298 9.47965 15.5398 8.25965 15.7098C7.03965 15.8798 6.59965 17.2898 5.66965 17.2498C4.74965 17.2098 3.90964 17.0098 3.71964 18.7598C3.51964 20.5198 3.12963 20.6598 2.95963 21.7898C2.78963 22.9098 2.39964 23.8698 4.49964 24.7098C6.59964 25.5498 7.11965 28.0898 8.97965 27.5298C10.8496 26.9698 10.5997 25.8998 11.9197 25.4098C13.2397 24.9198 13.5296 24.2398 13.5296 23.5098V23.4998Z" fill="white" stroke="#5E5E5A" stroke-width="0.15" stroke-linecap="round" stroke-linejoin="round"/>
</svg>
