<svg width="16" height="27" viewBox="0 0 16 27" fill="none" xmlns="http://www.w3.org/2000/svg">
<path d="M4.53906 18.2205C4.53906 16.0905 5.10904 12.1605 5.51904 9.53049C5.92904 6.90049 7.47906 6.17049 7.18906 3.49048C6.89906 0.810485 8.11905 0.270485 9.17905 2.25049C10.239 4.23049 10.889 6.87048 10.609 9.80048C10.329 12.7305 10.9191 14.4505 12.5591 18.2305H4.54904L4.53906 18.2205Z" fill="#F4DE9C" stroke="#5E5E5A" stroke-width="0.15" stroke-linecap="round" stroke-linejoin="round"/>
<path d="M13.1494 14.0801H3.55939C2.06822 14.0801 0.859375 15.2889 0.859375 16.7801V16.7901C0.859375 18.2812 2.06822 19.4901 3.55939 19.4901H13.1494C14.6406 19.4901 15.8494 18.2812 15.8494 16.7901V16.7801C15.8494 15.2889 14.6406 14.0801 13.1494 14.0801Z" fill="#FFE4E3" stroke="#5E5E5A" stroke-width="0.15" stroke-miterlimit="10"/>
<path d="M12.7106 24.6403C12.2206 25.4703 10.6006 25.3203 10.3506 26.0103C10.1106 26.6903 7.68061 26.9903 7.00061 25.8103C6.32061 24.6403 5.05061 24.2003 4.75061 23.0803C4.46061 21.9603 4.12061 17.5603 4.75061 17.1203C5.38061 16.6803 6.4506 17.2203 6.9906 16.6303C7.5306 16.0403 8.87062 14.4303 9.79062 15.4603C10.7106 16.4903 10.8806 17.1803 11.6306 17.3403C13.5906 17.7503 13.0606 24.0403 12.7106 24.6403Z" fill="white" stroke="#5E5E5A" stroke-width="0.15" stroke-linecap="round" stroke-linejoin="round"/>
</svg>
