<svg width="17" height="28" viewBox="0 0 17 28" fill="none" xmlns="http://www.w3.org/2000/svg">
<path d="M7.15135 2.47967C7.38135 0.199666 8.78136 0.789666 8.88136 2.69967C8.98136 4.60967 9.84134 8.38967 10.9913 12.1397L6.97136 12.6297C6.61136 11.2497 6.91135 4.75967 7.15135 2.47967Z" fill="#F4DE9C" stroke="#5E5E5A" stroke-width="0.15" stroke-linecap="round" stroke-linejoin="round"/>
<path d="M14.0085 18.2601C12.9385 15.9101 12.4385 16.1001 12.9285 13.8501C13.4185 11.6001 14.3685 9.09015 12.8785 5.32015C11.3885 1.55015 9.10852 -0.199853 9.52852 2.47015C9.94852 5.14015 10.6085 7.98015 9.87853 10.0101C9.14853 12.0401 7.48851 12.5201 6.95851 10.1901C6.42851 7.86015 6.39852 6.16015 6.36852 4.65015C6.33852 3.15015 6.09853 0.0701462 4.91853 2.07015C3.74853 4.07015 2.90851 7.23015 3.32851 11.3101C3.32851 11.3101 4.28852 16.4801 3.40852 18.2701H14.0085V18.2601Z" fill="#F4DE9C" stroke="#5E5E5A" stroke-width="0.15" stroke-linecap="round" stroke-linejoin="round"/>
<path d="M13.3408 15.0801H3.75079C2.25962 15.0801 1.05078 16.2889 1.05078 17.7801V17.7901C1.05078 19.2812 2.25962 20.4901 3.75079 20.4901H13.3408C14.832 20.4901 16.0408 19.2812 16.0408 17.7901V17.7801C16.0408 16.2889 14.832 15.0801 13.3408 15.0801Z" fill="#FFE4E3" stroke="#5E5E5A" stroke-width="0.15" stroke-miterlimit="10"/>
<path d="M14.0486 18.2397C14.8186 19.6397 15.1186 24.9597 14.4786 25.8897C13.8486 26.8197 12.1386 26.9597 11.4486 26.2797C10.7586 25.5997 10.5486 26.3697 9.93858 26.7097C9.32858 27.0397 8.78858 26.4197 8.12858 27.0697C6.87858 28.2897 4.46858 27.4597 3.77858 24.5797C3.09858 21.6997 2.94859 19.1097 3.28859 18.2297C3.62859 17.3497 5.28857 18.7697 6.45857 17.6897C7.62857 16.6197 9.33859 16.6597 10.7586 17.2997C12.1786 17.9397 12.9086 16.1997 14.0386 18.2497L14.0486 18.2397Z" fill="white" stroke="#5E5E5A" stroke-width="0.15" stroke-linecap="round" stroke-linejoin="round"/>
</svg>
