<svg width="16" height="25" viewBox="0 0 16 25" fill="none" xmlns="http://www.w3.org/2000/svg">
<path d="M5.96928 2.45015C6.05928 0.450151 7.35927 0.870151 7.54927 2.54015C7.74927 4.20015 8.72927 7.45015 9.98927 10.6602L6.36928 11.3402C5.96928 10.1602 5.88928 4.46015 5.96928 2.45015Z" fill="#F4DE9C" stroke="#5E5E5A" stroke-width="0.15" stroke-linecap="round" stroke-linejoin="round"/>
<path d="M2.35911 9.26047C2.69911 7.26047 2.57912 4.39047 3.55912 1.72047C4.53912 -0.949529 5.30912 0.900471 5.05912 2.13047C4.80912 3.37047 5.30914 5.78047 5.97914 7.15047C6.64914 8.52047 7.43911 11.2605 8.85911 10.1605C10.2791 9.06047 9.48913 5.37047 8.68913 2.61047C7.88913 -0.149529 9.48911 0.540471 10.0791 1.79047C10.6591 3.04047 12.8291 6.26047 12.7891 9.75047C12.7491 13.2405 12.4691 14.5005 13.5191 16.3805L2.36912 16.5405C2.01912 13.6805 2.00911 11.2705 2.35911 9.27047V9.26047Z" fill="#F4DE9C" stroke="#5E5E5A" stroke-width="0.15" stroke-linecap="round" stroke-linejoin="round"/>
<path d="M12.54 12.0801H2.95001C1.45884 12.0801 0.25 13.2889 0.25 14.7801V14.7901C0.25 16.2812 1.45884 17.4901 2.95001 17.4901H12.54C14.0312 17.4901 15.24 16.2812 15.24 14.7901V14.7801C15.24 13.2889 14.0312 12.0801 12.54 12.0801Z" fill="#FFE4E3" stroke="#5E5E5A" stroke-width="0.15" stroke-miterlimit="10"/>
<path d="M13.2611 15.9197C14.6711 18.1197 14.7711 21.7297 13.0611 22.7097C11.3511 23.6897 10.3711 22.7097 9.5411 22.9497C8.7111 23.1897 6.36111 25.7297 4.51111 24.0197C2.52111 22.1797 1.63111 16.7997 2.51111 15.5797C4.40111 12.9597 6.0711 15.9797 8.6911 14.4697C9.5511 13.9697 11.8411 13.7297 13.2511 15.9297L13.2611 15.9197Z" fill="white" stroke="#5E5E5A" stroke-width="0.15" stroke-linecap="round" stroke-linejoin="round"/>
</svg>
