<svg width="16" height="24" viewBox="0 0 16 24" fill="none" xmlns="http://www.w3.org/2000/svg">
<path d="M7.21109 2.38991C7.63109 0.429912 8.84111 1.05991 8.76111 2.72991C8.68111 4.39991 9.12109 7.76991 9.83109 11.1399L6.15109 11.2099C5.95109 9.97991 6.8011 4.33991 7.2211 2.37991L7.21109 2.38991Z" fill="#F4DE9C" stroke="#5E5E5A" stroke-width="0.15" stroke-linecap="round" stroke-linejoin="round"/>
<path d="M3.33984 16.6298C3.96984 13.0498 3.39983 8.11977 3.82983 6.27977C4.25983 4.43977 4.83986 1.30977 6.00986 0.94977C7.16986 0.58977 6.84984 3.64977 6.26984 6.18977C5.67984 8.72977 6.29986 10.5898 8.38986 10.9298C10.4699 11.2698 8.90984 5.95977 9.14984 2.81977C9.38984 -0.320231 11.1499 0.499769 10.9799 2.47977C10.7999 4.45977 12.7898 8.77977 12.6898 9.91977C12.5898 11.0698 11.9898 13.8798 12.8698 16.6198H3.35983L3.33984 16.6298Z" fill="#F4DE9C" stroke="#5E5E5A" stroke-width="0.15" stroke-linecap="round" stroke-linejoin="round"/>
<path d="M12.7392 11.0801H3.1492C1.65803 11.0801 0.449219 12.2889 0.449219 13.7801V13.7901C0.449219 15.2812 1.65803 16.4901 3.1492 16.4901H12.7392C14.2304 16.4901 15.4392 15.2812 15.4392 13.7901V13.7801C15.4392 12.2889 14.2304 11.0801 12.7392 11.0801Z" fill="#FFE4E3" stroke="#5E5E5A" stroke-width="0.15" stroke-miterlimit="10"/>
<path d="M12.8507 16.6199C13.6207 18.3399 13.1707 22.9899 11.4507 22.9899C9.73069 22.9899 9.30068 22.7199 8.66068 23.3699C8.02068 24.0199 7.05069 23.0499 6.51069 23.1599C5.97069 23.2699 4.00067 24.7099 3.46067 21.8199C2.91067 18.9199 2.86068 14.6199 4.53068 14.9499C8.65068 15.7499 7.64067 11.4099 10.8707 15.8099C11.4607 16.6199 12.2107 15.1899 12.8607 16.6399L12.8507 16.6199Z" fill="white" stroke="#5E5E5A" stroke-width="0.15" stroke-linecap="round" stroke-linejoin="round"/>
</svg>
