<svg width="16" height="24" viewBox="0 0 16 24" fill="none" xmlns="http://www.w3.org/2000/svg">
<path d="M10.9405 8.65989C10.6505 10.1299 9.61044 15.2699 8.83044 20.2499C8.46044 22.6299 7.68045 24.6199 6.96045 22.1099C6.24045 19.5999 5.79046 16.1399 5.56046 13.4899C5.33046 10.8399 4.59047 9.31988 4.48047 8.62988L10.9405 8.65989Z" fill="#F4DE9C" stroke="#5E5E5A" stroke-width="0.15" stroke-linecap="round" stroke-linejoin="round"/>
<path d="M12.3594 7.26953H2.80939C1.31822 7.26953 0.109375 8.47837 0.109375 9.96954V9.97954C0.109375 11.4707 1.31822 12.6795 2.80939 12.6795H12.3594C13.8505 12.6795 15.0594 11.4707 15.0594 9.97954V9.96954C15.0594 8.47837 13.8505 7.26953 12.3594 7.26953Z" fill="#FFE4E3" stroke="#5E5E5A" stroke-width="0.15" stroke-miterlimit="10"/>
<path d="M10.8904 8.94029C10.6404 10.3503 9.54038 9.92029 9.00038 10.6403C8.46038 11.3603 7.32039 11.4803 6.60039 10.6403C5.88039 9.80029 4.50039 9.58029 4.38039 8.22029C4.26039 6.86029 3.42039 1.79029 4.38039 1.12029C5.34039 0.460288 10.3104 0.110288 10.8804 1.12029C11.4504 2.13029 11.1704 7.30029 10.8804 8.94029H10.8904Z" fill="white" stroke="#5E5E5A" stroke-width="0.15" stroke-linecap="round" stroke-linejoin="round"/>
</svg>
