<svg width="16" height="25" viewBox="0 0 16 25" fill="none" xmlns="http://www.w3.org/2000/svg">
<path d="M11.5413 8.13965C11.3513 9.92965 9.69124 14.7796 9.11124 21.3796C8.87124 24.0696 7.82126 26.2897 7.01126 23.4697C6.20126 20.6497 5.69125 16.7696 5.44125 13.7896C5.19125 10.8096 4.29125 9.04965 4.03125 8.13965H11.5413Z" fill="#F4DE9C" stroke="#5E5E5A" stroke-width="0.15" stroke-linecap="round" stroke-linejoin="round"/>
<path d="M12.5508 7.26953H3.00079C1.50962 7.26953 0.300781 8.47837 0.300781 9.96954V9.97954C0.300781 11.4707 1.50962 12.6795 3.00079 12.6795H12.5508C14.042 12.6795 15.2508 11.4707 15.2508 9.97954V9.96954C15.2508 8.47837 14.042 7.26953 12.5508 7.26953Z" fill="#FFE4E3" stroke="#5E5E5A" stroke-width="0.15" stroke-miterlimit="10"/>
<path d="M10.6989 0.689674C9.69889 0.259674 8.48889 1.26967 8.03889 0.959674C7.58889 0.649674 5.33888 0.0696747 4.74888 0.979675C4.15888 1.88967 3.49887 6.28968 3.95887 7.89968C4.40887 9.50968 6.88889 12.3697 7.81889 11.9597C8.74889 11.5497 11.1189 9.85967 11.2889 9.34967C11.8589 7.64967 12.1489 1.30967 10.7089 0.689674H10.6989Z" fill="white" stroke="#5E5E5A" stroke-width="0.15" stroke-linecap="round" stroke-linejoin="round"/>
</svg>
