<svg width="16" height="31" viewBox="0 0 16 31" fill="none" xmlns="http://www.w3.org/2000/svg">
<path d="M4.27954 7.7998L11.7495 7.8598C10.9495 9.8598 10.8795 14.6998 10.8395 18.7298C10.8095 22.5898 9.98953 25.0198 8.95953 28.1098C7.92953 31.1998 6.74953 30.3798 6.73953 27.7998C6.71953 25.2198 6.01955 23.1098 5.06955 19.5898C4.63955 17.9998 4.56953 16.6698 4.57953 13.6098C4.58953 10.5498 4.39953 8.5498 4.26953 7.7998H4.27954Z" fill="#F4DE9C" stroke="#5E5E5A" stroke-width="0.15" stroke-linecap="round" stroke-linejoin="round"/>
<path d="M12.75 7.26953H3.20001C1.70884 7.26953 0.5 8.47837 0.5 9.96954V9.97954C0.5 11.4707 1.70884 12.6795 3.20001 12.6795H12.75C14.2412 12.6795 15.45 11.4707 15.45 9.97954V9.96954C15.45 8.47837 14.2412 7.26953 12.75 7.26953Z" fill="#FFE4E3" stroke="#5E5E5A" stroke-width="0.15" stroke-miterlimit="10"/>
<path d="M10.6999 10.5101C12.0199 8.64011 12.1599 5.1901 11.9499 4.2601C11.7399 3.3301 8.44987 0.350108 7.65987 0.380108C6.86987 0.410108 4.49986 1.33011 4.11986 2.22011C3.72986 3.10011 3.93988 7.28011 4.63988 9.12011C5.33988 10.9601 7.90986 12.9701 8.52986 12.6501C9.14986 12.3201 10.0099 11.5101 10.6999 10.5201V10.5101Z" fill="white" stroke="#5E5E5A" stroke-width="0.15" stroke-linecap="round" stroke-linejoin="round"/>
</svg>
