<svg width="16" height="25" viewBox="0 0 16 25" fill="none" xmlns="http://www.w3.org/2000/svg">
<path d="M11.9197 7.92992C11.3697 10.6199 10.9297 12.6399 10.3897 14.6699C9.92971 16.4199 9.2897 18.0899 9.5097 21.2599C9.6997 24.0599 9.32969 26.3899 7.92969 23.6899C6.52969 20.9899 5.86969 16.6699 5.77969 13.5599C5.68969 10.4599 4.93969 8.85992 4.67969 7.91992H11.9297L11.9197 7.92992Z" fill="#F4DE9C" stroke="#5E5E5A" stroke-width="0.15" stroke-linecap="round" stroke-linejoin="round"/>
<path d="M12.9492 7.26953H3.3992C1.90803 7.26953 0.699219 8.47837 0.699219 9.96954V9.97954C0.699219 11.4707 1.90803 12.6795 3.3992 12.6795H12.9492C14.4404 12.6795 15.6492 11.4707 15.6492 9.97954V9.96954C15.6492 8.47837 14.4404 7.26953 12.9492 7.26953Z" fill="#FFE4E3" stroke="#5E5E5A" stroke-width="0.15" stroke-miterlimit="10"/>
<path d="M11.2911 9.00983C12.1111 8.18983 12.6111 5.69983 12.5411 4.30983C12.4711 2.92983 11.9711 2.83983 10.8411 1.90983C9.71111 0.979826 8.30111 -0.090174 7.28111 0.589826C4.67111 2.32983 3.03111 1.27983 4.19111 5.48983C4.78111 7.61983 4.58111 8.95983 5.44111 9.79983C6.30111 10.6398 7.3911 11.7098 8.4611 11.3898C9.5311 11.0698 10.7411 9.55983 11.3011 9.00983H11.2911Z" fill="white" stroke="#5E5E5A" stroke-width="0.15" stroke-linecap="round" stroke-linejoin="round"/>
</svg>
