<svg width="16" height="24" viewBox="0 0 16 24" fill="none" xmlns="http://www.w3.org/2000/svg">
<path d="M12.7719 8.13965C12.2219 10.8196 11.8019 13.0996 11.4319 15.1696C11.1119 16.9496 9.81187 19.4996 10.2919 20.9596C11.1519 23.6296 10.8619 24.9696 8.71185 22.8196C6.64185 20.7396 6.47187 17.0797 6.38187 13.9797C6.29187 10.8797 5.41188 9.55965 4.67188 8.13965H12.7719Z" fill="#F4DE9C" stroke="#5E5E5A" stroke-width="0.15" stroke-linecap="round" stroke-linejoin="round"/>
<path d="M13.1484 7.26953H3.59845C2.10728 7.26953 0.898438 8.47837 0.898438 9.96954V9.97954C0.898438 11.4707 2.10728 12.6795 3.59845 12.6795H13.1484C14.6396 12.6795 15.8484 11.4707 15.8484 9.97954V9.96954C15.8484 8.47837 14.6396 7.26953 13.1484 7.26953Z" fill="#FFE4E3" stroke="#5E5E5A" stroke-width="0.15" stroke-miterlimit="10"/>
<path d="M13.1492 6.81954C13.5692 5.02954 13.1092 3.03954 11.7892 2.20954C10.4692 1.37954 8.24921 -0.170455 7.16921 0.249545C6.08921 0.669545 5.95919 1.16954 5.23919 1.47954C4.51919 1.78954 3.35919 3.25955 3.45919 5.23955C3.55919 7.21955 5.20919 8.61955 5.55919 9.40955C5.90919 10.1995 8.4592 12.5695 10.1292 10.9495C11.7992 9.32954 12.4092 9.97954 13.1592 6.81954H13.1492Z" fill="white" stroke="#5E5E5A" stroke-width="0.15" stroke-linecap="round" stroke-linejoin="round"/>
</svg>
