<svg width="17" height="24" viewBox="0 0 17 24" fill="none" xmlns="http://www.w3.org/2000/svg">
<path d="M3.12901 8.2002L14.579 8.5002C14.059 9.9102 14.039 10.5302 13.919 11.8102C13.799 13.0902 13.749 15.7402 13.949 17.0902C14.149 18.4302 14.669 22.5802 13.999 23.1702C13.329 23.7702 12.429 22.5602 11.849 21.0502C11.269 19.5402 10.569 17.9802 10.289 15.5602C10.009 13.1402 9.389 13.1002 8.899 13.7002C8.409 14.3002 7.949 17.7502 7.739 19.0502C7.529 20.3502 8.80901 23.8202 7.52901 23.5402C6.24901 23.2602 5.039 20.8802 4.429 19.5402C3.819 18.2002 2.92902 16.2202 3.16902 14.1002C3.39902 11.9802 3.53902 9.2502 3.13902 8.2102L3.12901 8.2002Z" fill="#F4DE9C" stroke="#5E5E5A" stroke-width="0.15" stroke-linecap="round" stroke-linejoin="round"/>
<path d="M13.3408 7.26953H3.75079C2.25962 7.26953 1.05078 8.47837 1.05078 9.96954V9.97954C1.05078 11.4707 2.25962 12.6795 3.75079 12.6795H13.3408C14.832 12.6795 16.0408 11.4707 16.0408 9.97954V9.96954C16.0408 8.47837 14.832 7.26953 13.3408 7.26953Z" fill="#FFE4E3" stroke="#5E5E5A" stroke-width="0.15" stroke-miterlimit="10"/>
<path d="M14.8114 8.09965C15.4614 6.23965 15.9114 3.10965 14.2814 1.99965C9.96137 -0.950351 9.13137 0.77965 7.59137 0.48965C6.44137 0.27965 4.11136 -0.210353 2.68136 0.779647C1.25136 1.76965 1.67137 6.04965 2.47137 7.38965C3.27137 8.72965 4.31136 8.89965 5.61136 8.81965C6.91136 8.73965 8.50136 9.82965 10.1814 9.31965C11.8614 8.81965 14.2914 9.55965 14.8014 8.09965H14.8114Z" fill="white" stroke="#5E5E5A" stroke-width="0.15" stroke-linecap="round" stroke-linejoin="round"/>
</svg>
