<svg width="16" height="23" viewBox="0 0 16 23" fill="none" xmlns="http://www.w3.org/2000/svg">
<path d="M9.2594 6.96019H13.3794C13.0294 7.69019 12.2494 10.1802 12.2594 11.2602C12.2594 12.3402 13.1194 13.9702 12.8594 15.5802C12.5994 17.1902 11.7794 21.7202 10.9394 22.4602C10.1094 23.2102 9.45938 20.6902 9.45938 18.1402C9.45938 15.5902 8.19937 12.7202 7.60938 12.7202C6.60938 12.7202 6.29939 16.2602 6.49939 16.9602C6.69939 17.6602 7.5094 23.2102 6.3894 22.8402C5.2694 22.4802 3.55938 19.7002 3.45938 17.7402C3.36938 15.7802 3.46939 13.2602 3.33939 12.2802C3.20939 11.3002 2.50938 8.3102 2.10938 6.9502H9.2594V6.96019Z" fill="#F4DE9C" stroke="#5E5E5A" stroke-width="0.15" stroke-linecap="round" stroke-linejoin="round"/>
<path d="M12.5195 7.26953H2.96954C1.47837 7.26953 0.269531 8.47837 0.269531 9.96954V9.97954C0.269531 11.4707 1.47837 12.6795 2.96954 12.6795H12.5195C14.0107 12.6795 15.2195 11.4707 15.2195 9.97954V9.96954C15.2195 8.47837 14.0107 7.26953 12.5195 7.26953Z" fill="#FFE4E3" stroke="#5E5E5A" stroke-width="0.15" stroke-miterlimit="10"/>
<path d="M12.9882 8.02041C13.8682 6.19041 14.2982 2.58041 12.0682 1.45041C9.83818 0.320413 8.16817 1.52041 7.09817 0.850411C6.02817 0.180411 2.80816 -0.649589 2.14816 2.03041C1.48816 4.71041 2.01815 6.93041 2.32815 7.70041C2.63815 8.46041 3.58816 8.21041 4.39816 8.04041C5.20816 7.88041 6.65817 9.44041 7.49817 9.45041C9.56817 9.47041 10.2482 7.61041 11.2382 7.70041C12.2282 7.79041 12.5482 8.95041 12.9982 8.03041L12.9882 8.02041Z" fill="white" stroke="#5E5E5A" stroke-width="0.15" stroke-linecap="round" stroke-linejoin="round"/>
</svg>
