<svg width="16" height="21" viewBox="0 0 16 21" fill="none" xmlns="http://www.w3.org/2000/svg">
<path d="M2.96094 6.16016H12.3009C11.6209 7.28016 12.5209 8.54016 12.6809 9.93016C12.8409 11.3202 13.471 10.8202 13.351 13.9702C13.231 17.1102 12.7209 17.9202 12.2709 19.1702C11.8209 20.4302 10.681 21.2202 10.391 19.4202C10.101 17.6202 10.9209 13.6902 10.1909 12.2402C9.46095 10.7902 8.80094 10.3102 8.43094 11.3202C8.06094 12.3302 7.37095 12.8502 7.54095 14.1602C7.71095 15.4702 8.80094 17.7402 9.06094 19.0002C9.32094 20.2602 8.99094 21.1902 7.15094 19.2102C5.31094 17.2302 3.92094 15.9302 4.15094 13.4002C4.38094 10.8702 4.10094 9.87016 3.84094 8.82016C3.58094 7.77016 3.24094 7.10015 2.96094 6.17015V6.16016Z" fill="#F4DE9C" stroke="#5E5E5A" stroke-width="0.15" stroke-linecap="round" stroke-linejoin="round"/>
<path d="M12.7383 7.26953H3.18829C1.69712 7.26953 0.488281 8.47837 0.488281 9.96954V9.97954C0.488281 11.4707 1.69712 12.6795 3.18829 12.6795H12.7383C14.2295 12.6795 15.4383 11.4707 15.4383 9.97954V9.96954C15.4383 8.47837 14.2295 7.26953 12.7383 7.26953Z" fill="#FFE4E3" stroke="#5E5E5A" stroke-width="0.15" stroke-miterlimit="10"/>
<path d="M11.6017 7.69015C12.7517 6.87015 13.5617 4.90015 13.1917 2.81015C12.8217 0.730151 11.7917 1.27015 11.2517 1.17015C10.7117 1.07015 9.78167 0.150147 8.41167 0.420147C7.03167 0.700147 6.51165 0.530151 5.21165 0.240151C3.91165 -0.0598491 2.63166 0.780149 2.59166 2.64015C2.54166 4.50015 2.59168 6.07015 3.42168 6.76015C4.25168 7.45015 6.76166 6.56015 7.59166 6.76015C8.42166 6.96015 9.84165 8.96015 11.6116 7.69015H11.6017Z" fill="white" stroke="#5E5E5A" stroke-width="0.15" stroke-linecap="round" stroke-linejoin="round"/>
</svg>
