<svg width="16" height="24" viewBox="0 0 16 24" fill="none" xmlns="http://www.w3.org/2000/svg">
<path d="M5.41016 8.65989C5.70016 10.1299 6.74014 15.2699 7.52014 20.2499C7.89014 22.6299 8.67017 24.6199 9.39017 22.1099C10.1102 19.5999 10.5602 16.1399 10.7902 13.4899C11.0202 10.8399 11.7601 9.31988 11.8701 8.62988L5.41016 8.65989Z" fill="#F4DE9C" stroke="#5E5E5A" stroke-width="0.15" stroke-linecap="round" stroke-linejoin="round"/>
<path d="M13.1602 7.26953H3.61014C2.11897 7.26953 0.910156 8.47837 0.910156 9.96954V9.97954C0.910156 11.4707 2.11897 12.6795 3.61014 12.6795H13.1602C14.6513 12.6795 15.8601 11.4707 15.8601 9.97954V9.96954C15.8601 8.47837 14.6513 7.26953 13.1602 7.26953Z" fill="#FFE4E3" stroke="#5E5E5A" stroke-width="0.15" stroke-miterlimit="10"/>
<path d="M5.46126 8.94029C5.71126 10.3503 6.81127 9.92029 7.35127 10.6403C7.89127 11.3603 9.03126 11.4803 9.75126 10.6403C10.4713 9.80029 11.8513 9.58029 11.9713 8.22029C12.0913 6.86029 12.9313 1.79029 11.9713 1.12029C11.0113 0.460288 6.04127 0.110288 5.47127 1.12029C4.90127 2.13029 5.18127 7.30029 5.47127 8.94029H5.46126Z" fill="white" stroke="#5E5E5A" stroke-width="0.15" stroke-linecap="round" stroke-linejoin="round"/>
</svg>
