<svg width="16" height="25" viewBox="0 0 16 25" fill="none" xmlns="http://www.w3.org/2000/svg">
<path d="M4.80078 8.13965C4.99078 9.92965 6.6508 14.7796 7.2308 21.3796C7.4708 24.0696 8.52078 26.2897 9.33078 23.4697C10.1408 20.6497 10.6508 16.7696 10.9008 13.7896C11.1508 10.8096 12.0508 9.04965 12.3108 8.13965H4.80078Z" fill="#F4DE9C" stroke="#5E5E5A" stroke-width="0.15" stroke-linecap="round" stroke-linejoin="round"/>
<path d="M12.9609 7.26953H3.41095C1.91978 7.26953 0.710938 8.47837 0.710938 9.96954V9.97954C0.710938 11.4707 1.91978 12.6795 3.41095 12.6795H12.9609C14.4521 12.6795 15.6609 11.4707 15.6609 9.97954V9.96954C15.6609 8.47837 14.4521 7.26953 12.9609 7.26953Z" fill="#FFE4E3" stroke="#5E5E5A" stroke-width="0.15" stroke-miterlimit="10"/>
<path d="M5.63979 0.689674C6.63979 0.259674 7.84977 1.26967 8.29977 0.959674C8.74977 0.649674 10.9998 0.0696747 11.5898 0.979675C12.1798 1.88967 12.8398 6.28968 12.3798 7.89968C11.9298 9.50968 9.44977 12.3697 8.51977 11.9597C7.58977 11.5497 5.21977 9.85967 5.04977 9.34967C4.47977 7.64967 4.18978 1.30967 5.62978 0.689674H5.63979Z" fill="white" stroke="#5E5E5A" stroke-width="0.15" stroke-linecap="round" stroke-linejoin="round"/>
</svg>
