<svg width="16" height="31" viewBox="0 0 16 31" fill="none" xmlns="http://www.w3.org/2000/svg">
<path d="M12.0716 7.7998L4.60156 7.8598C5.40156 9.8598 5.47157 14.6998 5.51157 18.7298C5.54157 22.5898 6.36157 25.0198 7.39157 28.1098C8.42157 31.1998 9.60154 30.3798 9.61154 27.7998C9.63154 25.2198 10.3316 23.1098 11.2816 19.5898C11.7116 17.9998 11.7815 16.6698 11.7715 13.6098C11.7615 10.5498 11.9515 8.5498 12.0815 7.7998H12.0716Z" fill="#F4DE9C" stroke="#5E5E5A" stroke-width="0.15" stroke-linecap="round" stroke-linejoin="round"/>
<path d="M12.7617 7.26953H3.2117C1.72053 7.26953 0.511719 8.47837 0.511719 9.96954V9.97954C0.511719 11.4707 1.72053 12.6795 3.2117 12.6795H12.7617C14.2529 12.6795 15.4617 11.4707 15.4617 9.97954V9.96954C15.4617 8.47837 14.2529 7.26953 12.7617 7.26953Z" fill="#FFE4E3" stroke="#5E5E5A" stroke-width="0.15" stroke-miterlimit="10"/>
<path d="M5.6496 10.5101C4.3296 8.64011 4.1896 5.1901 4.3996 4.2601C4.6096 3.3301 7.89961 0.350108 8.68961 0.380108C9.47961 0.410108 11.8496 1.33011 12.2296 2.22011C12.6196 3.10011 12.4096 7.28011 11.7096 9.12011C11.0096 10.9601 8.43962 12.9701 7.81962 12.6501C7.19962 12.3201 6.3396 11.5101 5.6496 10.5201V10.5101Z" fill="white" stroke="#5E5E5A" stroke-width="0.15" stroke-linecap="round" stroke-linejoin="round"/>
</svg>
