<svg width="16" height="25" viewBox="0 0 16 25" fill="none" xmlns="http://www.w3.org/2000/svg">
<path d="M4.43185 7.92992C4.98185 10.6199 5.42185 12.6399 5.96185 14.6699C6.42185 16.4199 7.06186 18.0899 6.84186 21.2599C6.65186 24.0599 7.02188 26.3899 8.42188 23.6899C9.82187 20.9899 10.4819 16.6699 10.5719 13.5599C10.6619 10.4599 11.4119 8.85992 11.6719 7.91992H4.42188L4.43185 7.92992Z" fill="#F4DE9C" stroke="#5E5E5A" stroke-width="0.15" stroke-linecap="round" stroke-linejoin="round"/>
<path d="M12.5703 7.26953H3.02029C1.52913 7.26953 0.320312 8.47837 0.320312 9.96954V9.97954C0.320312 11.4707 1.52913 12.6795 3.02029 12.6795H12.5703C14.0615 12.6795 15.2703 11.4707 15.2703 9.97954V9.96954C15.2703 8.47837 14.0615 7.26953 12.5703 7.26953Z" fill="#FFE4E3" stroke="#5E5E5A" stroke-width="0.15" stroke-miterlimit="10"/>
<path d="M5.06119 9.00983C4.24119 8.18983 3.74119 5.69983 3.81119 4.30983C3.88119 2.92983 4.38121 2.83983 5.51121 1.90983C6.64121 0.979826 8.0512 -0.090174 9.0712 0.589826C11.6812 2.32983 13.3212 1.27983 12.1612 5.48983C11.5712 7.61983 11.7712 8.95983 10.9112 9.79983C10.0512 10.6398 8.96121 11.7098 7.89121 11.3898C6.82121 11.0698 5.61118 9.55983 5.05118 9.00983H5.06119Z" fill="white" stroke="#5E5E5A" stroke-width="0.15" stroke-linecap="round" stroke-linejoin="round"/>
</svg>
