<svg width="16" height="24" viewBox="0 0 16 24" fill="none" xmlns="http://www.w3.org/2000/svg">
<path d="M3.57812 8.13965C4.12813 10.8196 4.54812 13.0996 4.91812 15.1696C5.23812 16.9496 6.53812 19.4996 6.05812 20.9596C5.19812 23.6296 5.48812 24.9696 7.63812 22.8196C9.70812 20.7396 9.87812 17.0797 9.96812 13.9797C10.0581 10.8797 10.9381 9.55965 11.6781 8.13965H3.57812Z" fill="#F4DE9C" stroke="#5E5E5A" stroke-width="0.15" stroke-linecap="round" stroke-linejoin="round"/>
<path d="M12.3711 7.26953H2.82111C1.32994 7.26953 0.121094 8.47837 0.121094 9.96954V9.97954C0.121094 11.4707 1.32994 12.6795 2.82111 12.6795H12.3711C13.8623 12.6795 15.0711 11.4707 15.0711 9.97954V9.96954C15.0711 8.47837 13.8623 7.26953 12.3711 7.26953Z" fill="#FFE4E3" stroke="#5E5E5A" stroke-width="0.15" stroke-miterlimit="10"/>
<path d="M3.20139 6.81954C2.78139 5.02954 3.2414 3.03954 4.5614 2.20954C5.8814 1.37954 8.10139 -0.170455 9.18139 0.249545C10.2614 0.669545 10.3914 1.16954 11.1114 1.47954C11.8314 1.78954 12.9914 3.25955 12.8914 5.23955C12.7914 7.21955 11.1414 8.61955 10.7914 9.40955C10.4414 10.1995 7.8914 12.5695 6.2214 10.9495C4.5514 9.32954 3.9414 9.97954 3.1914 6.81954H3.20139Z" fill="white" stroke="#5E5E5A" stroke-width="0.15" stroke-linecap="round" stroke-linejoin="round"/>
</svg>
