<svg width="16" height="24" viewBox="0 0 16 24" fill="none" xmlns="http://www.w3.org/2000/svg">
<path d="M14.2195 8.2002L2.76953 8.5002C3.28953 9.9102 3.30952 10.5302 3.42952 11.8102C3.54952 13.0902 3.59952 15.7402 3.39952 17.0902C3.19952 18.4302 2.67953 22.5802 3.34953 23.1702C4.01953 23.7702 4.91953 22.5602 5.49953 21.0502C6.07953 19.5402 6.77952 17.9802 7.05952 15.5602C7.33952 13.1402 7.95952 13.1002 8.44952 13.7002C8.93952 14.3002 9.39953 17.7502 9.60953 19.0502C9.81953 20.3502 8.53953 23.8202 9.81953 23.5402C11.0995 23.2602 12.3095 20.8802 12.9195 19.5402C13.5295 18.2002 14.4195 16.2202 14.1795 14.1002C13.9495 11.9802 13.8095 9.2502 14.2095 8.2102L14.2195 8.2002Z" fill="#F4DE9C" stroke="#5E5E5A" stroke-width="0.15" stroke-linecap="round" stroke-linejoin="round"/>
<path d="M13.1719 7.26953H3.62187C2.1307 7.26953 0.921875 8.47837 0.921875 9.96954V9.97954C0.921875 11.4707 2.1307 12.6795 3.62187 12.6795H13.1719C14.663 12.6795 15.8719 11.4707 15.8719 9.97954V9.96954C15.8719 8.47837 14.663 7.26953 13.1719 7.26953Z" fill="#FFE4E3" stroke="#5E5E5A" stroke-width="0.15" stroke-miterlimit="10"/>
<path d="M2.53948 8.09965C1.88948 6.23965 1.43949 3.10965 3.06949 1.99965C7.38949 -0.950351 8.21948 0.77965 9.75948 0.48965C10.9095 0.27965 13.2395 -0.210353 14.6695 0.779647C16.0995 1.76965 15.6795 6.04965 14.8795 7.38965C14.0795 8.72965 13.0395 8.89965 11.7395 8.81965C10.4395 8.73965 8.84948 9.82965 7.16948 9.31965C5.48948 8.81965 3.05949 9.55965 2.54949 8.09965H2.53948Z" fill="white" stroke="#5E5E5A" stroke-width="0.15" stroke-linecap="round" stroke-linejoin="round"/>
</svg>
