<svg width="16" height="23" viewBox="0 0 16 23" fill="none" xmlns="http://www.w3.org/2000/svg">
<path d="M7.08875 6.96019H2.96875C3.31875 7.69019 4.09875 10.1802 4.08875 11.2602C4.08875 12.3402 3.22875 13.9702 3.48875 15.5802C3.74875 17.1902 4.56875 21.7202 5.40875 22.4602C6.23875 23.2102 6.88875 20.6902 6.88875 18.1402C6.88875 15.5902 8.14875 12.7202 8.73875 12.7202C9.73875 12.7202 10.0488 16.2602 9.84875 16.9602C9.64875 17.6602 8.83876 23.2102 9.95876 22.8402C11.0788 22.4802 12.7887 19.7002 12.8887 17.7402C12.9787 15.7802 12.8787 13.2602 13.0087 12.2802C13.1387 11.3002 13.8388 8.3102 14.2388 6.9502H7.08875V6.96019Z" fill="#F4DE9C" stroke="#5E5E5A" stroke-width="0.15" stroke-linecap="round" stroke-linejoin="round"/>
<path d="M12.9688 7.26953H3.41875C1.92758 7.26953 0.71875 8.47837 0.71875 9.96954V9.97954C0.71875 11.4707 1.92758 12.6795 3.41875 12.6795H12.9688C14.4599 12.6795 15.6687 11.4707 15.6687 9.97954V9.96954C15.6687 8.47837 14.4599 7.26953 12.9688 7.26953Z" fill="#FFE4E3" stroke="#5E5E5A" stroke-width="0.15" stroke-miterlimit="10"/>
<path d="M3.35816 8.02041C2.47816 6.19041 2.04816 2.58041 4.27816 1.45041C6.50816 0.320413 8.17816 1.52041 9.24816 0.850411C10.3182 0.180411 13.5382 -0.649589 14.1982 2.03041C14.8582 4.71041 14.3282 6.93041 14.0182 7.70041C13.7082 8.46041 12.7582 8.21041 11.9482 8.04041C11.1382 7.88041 9.68817 9.44041 8.84817 9.45041C6.77817 9.47041 6.09816 7.61041 5.10816 7.70041C4.11816 7.79041 3.79817 8.95041 3.34817 8.03041L3.35816 8.02041Z" fill="white" stroke="#5E5E5A" stroke-width="0.15" stroke-linecap="round" stroke-linejoin="round"/>
</svg>
