<svg width="16" height="21" viewBox="0 0 16 21" fill="none" xmlns="http://www.w3.org/2000/svg">
<path d="M13.3895 6.16016H4.04947C4.72947 7.28016 3.82947 8.54016 3.66947 9.93016C3.50947 11.3202 2.87947 10.8202 2.99947 13.9702C3.11947 17.1102 3.62947 17.9202 4.07947 19.1702C4.52947 20.4302 5.66948 21.2202 5.95948 19.4202C6.24948 17.6202 5.42947 13.6902 6.15947 12.2402C6.88947 10.7902 7.54947 10.3102 7.91947 11.3202C8.28947 12.3302 8.97947 12.8502 8.80947 14.1602C8.63947 15.4702 7.54946 17.7402 7.28946 19.0002C7.02946 20.2602 7.35947 21.1902 9.19947 19.2102C11.0395 17.2302 12.4295 15.9302 12.1995 13.4002C11.9695 10.8702 12.2495 9.87016 12.5095 8.82016C12.7695 7.77016 13.1095 7.10015 13.3895 6.17015V6.16016Z" fill="#F4DE9C" stroke="#5E5E5A" stroke-width="0.15" stroke-linecap="round" stroke-linejoin="round"/>
<path d="M12.7695 7.26953H3.21953C1.72836 7.26953 0.519531 8.47837 0.519531 9.96954V9.97954C0.519531 11.4707 1.72836 12.6795 3.21953 12.6795H12.7695C14.2607 12.6795 15.4695 11.4707 15.4695 9.97954V9.96954C15.4695 8.47837 14.2607 7.26953 12.7695 7.26953Z" fill="#FFE4E3" stroke="#5E5E5A" stroke-width="0.15" stroke-miterlimit="10"/>
<path d="M4.75086 7.69015C3.60086 6.87015 2.79087 4.90015 3.16087 2.81015C3.53087 0.730151 4.56087 1.27015 5.10087 1.17015C5.64087 1.07015 6.57087 0.150147 7.94087 0.420147C9.32087 0.700147 9.84086 0.530151 11.1409 0.240151C12.4409 -0.0598491 13.7209 0.780149 13.7609 2.64015C13.8109 4.50015 13.7609 6.07015 12.9309 6.76015C12.1009 7.45015 9.59086 6.56015 8.76086 6.76015C7.93086 6.96015 6.51087 8.96015 4.74087 7.69015H4.75086Z" fill="white" stroke="#5E5E5A" stroke-width="0.15" stroke-linecap="round" stroke-linejoin="round"/>
</svg>
