<svg width="16" height="20" viewBox="0 0 16 20" fill="none" xmlns="http://www.w3.org/2000/svg">
<path d="M5.51172 14.2404C6.45172 10.8804 7.19171 7.04039 7.17171 1.93039C7.17171 1.46039 7.33171 0.99039 7.67171 0.65039C8.08171 0.25039 8.42171 0.44039 8.67171 1.36039C9.29171 6.62039 9.92171 9.86039 10.5617 13.8404V14.2404H5.51172Z" fill="#F4DE9C" stroke="#5E5E5A" stroke-width="0.15" stroke-linecap="round" stroke-linejoin="round"/>
<path d="M13.6811 10.5303H3.01109C1.8292 10.5303 0.871094 11.4884 0.871094 12.6703C0.871094 13.8522 1.8292 14.8103 3.01109 14.8103H13.6811C14.863 14.8103 15.8211 13.8522 15.8211 12.6703C15.8211 11.4884 14.863 10.5303 13.6811 10.5303Z" fill="#FFE4E3" stroke="#5E5E5A" stroke-width="0.15" stroke-miterlimit="10"/>
<path d="M10.5603 13.8396C10.7303 14.0596 10.8703 14.2996 10.9703 14.5596C11.9503 16.9196 12.4903 18.9996 10.5703 19.5696C8.73032 19.6296 6.89032 19.6896 5.98032 19.3496C4.80032 18.4796 4.61032 17.0996 5.01032 15.4296C5.11032 15.0096 5.28032 14.5996 5.51032 14.2396C5.97032 13.5096 6.68032 12.9596 7.54032 12.7596C7.92032 12.6696 8.30031 12.6496 8.67031 12.6996C9.43031 12.8096 10.1003 13.2396 10.5603 13.8396Z" fill="white" stroke="#5E5E5A" stroke-width="0.15" stroke-linecap="round" stroke-linejoin="round"/>
</svg>
