<svg width="16" height="19" viewBox="0 0 16 19" fill="none" xmlns="http://www.w3.org/2000/svg">
<path d="M6.36156 13.2102C7.24156 9.74016 7.42156 6.56016 7.41156 2.62016C7.41156 2.09016 7.57157 1.56016 7.90157 1.14016C8.33157 0.600161 8.67156 0.690162 8.93156 1.24016C9.10156 1.60016 9.10157 2.00016 9.13157 2.40016C9.55157 7.39016 9.72156 9.41016 9.84156 13.2102H6.35156H6.36156Z" fill="#F4DE9C" stroke="#5E5E5A" stroke-width="0.15" stroke-linecap="round" stroke-linejoin="round"/>
<path d="M13.4819 9.53027H2.81188C1.62999 9.53027 0.671875 10.4884 0.671875 11.6703C0.671875 12.8522 1.62999 13.8103 2.81188 13.8103H13.4819C14.6638 13.8103 15.6219 12.8522 15.6219 11.6703C15.6219 10.4884 14.6638 9.53027 13.4819 9.53027Z" fill="#FFE4E3" stroke="#5E5E5A" stroke-width="0.15" stroke-miterlimit="10"/>
<path d="M7.95877 18.5401C7.43877 18.5401 7.00876 18.5101 6.66876 18.4401C6.15876 18.3301 5.73877 17.9401 5.61877 17.4501C5.21877 15.8601 5.47876 14.4401 6.41876 13.1201C6.99876 12.6301 7.59876 12.3701 8.16876 12.3701C8.47876 12.3701 8.78877 12.4401 9.09877 12.5901C9.32877 12.7001 9.53877 12.8501 9.69877 13.0501C9.88877 13.2601 10.0288 13.5201 10.1188 13.8001C10.4588 14.8601 10.6788 15.9801 10.7788 17.1201C10.8488 17.5201 10.8888 17.9601 10.6788 18.2201C10.5388 18.3901 10.2988 18.4701 9.94877 18.4701L9.59877 18.4901C9.03877 18.5201 8.46877 18.5601 7.94877 18.5601L7.95877 18.5401Z" fill="white"/>
<path d="M8.16982 12.4303C8.46982 12.4303 8.76983 12.5003 9.05983 12.6403C9.27983 12.7503 9.47983 12.8903 9.63983 13.0803C9.81983 13.2903 9.95983 13.5303 10.0498 13.8003C10.3898 14.8603 10.6098 15.9703 10.7098 17.1203C10.7798 17.5003 10.8198 17.9203 10.6198 18.1503C10.4998 18.3003 10.2698 18.3703 9.93983 18.3703L9.58983 18.3903C9.03983 18.4203 8.46983 18.4603 7.94983 18.4603C7.42983 18.4603 7.00982 18.4303 6.66982 18.3603C6.17982 18.2603 5.78983 17.8903 5.67983 17.4203C5.27983 15.8503 5.53983 14.4603 6.44983 13.1803C7.02983 12.6803 7.60982 12.4303 8.16982 12.4303ZM8.16982 12.2803C7.56982 12.2803 6.95983 12.5403 6.34983 13.0603C5.35983 14.4503 5.14983 15.9203 5.53983 17.4503C5.66983 17.9803 6.10983 18.3903 6.64983 18.5003C7.03983 18.5803 7.47983 18.6103 7.95983 18.6103C8.58983 18.6103 9.27983 18.5603 9.95983 18.5203C10.9998 18.5203 10.9898 17.8003 10.8698 17.0903C10.7698 15.9503 10.5498 14.8403 10.1998 13.7603C10.1098 13.4703 9.95982 13.2103 9.75982 12.9803C9.58982 12.7803 9.36983 12.6203 9.12983 12.5003C8.80983 12.3503 8.48982 12.2803 8.16982 12.2803Z" fill="#5E5E5A"/>
</svg>
