<svg width="16" height="22" viewBox="0 0 16 22" fill="none" xmlns="http://www.w3.org/2000/svg">
<path d="M5.78906 14.8498C6.58906 11.4798 6.95906 7.52975 7.14906 2.17975C7.16906 1.61975 7.45906 1.08975 7.96906 0.849752C8.34906 0.669752 8.65906 0.729752 8.89906 1.03975C9.06906 1.25975 9.13906 1.54975 9.12906 1.83975C8.88906 6.64975 9.18906 10.7298 10.0591 14.8598H5.78906V14.8498Z" fill="#F4DE9C" stroke="#5E5E5A" stroke-width="0.15" stroke-linecap="round" stroke-linejoin="round"/>
<path d="M13.2787 12.5303H2.60875C1.42686 12.5303 0.46875 13.4884 0.46875 14.6703C0.46875 15.8522 1.42686 16.8103 2.60875 16.8103H13.2787C14.4606 16.8103 15.4187 15.8522 15.4187 14.6703C15.4187 13.4884 14.4606 12.5303 13.2787 12.5303Z" fill="#FFE4E3" stroke="#5E5E5A" stroke-width="0.15" stroke-miterlimit="10"/>
<path d="M7.44784 21.5401C7.25784 21.5401 7.08784 21.5101 6.92784 21.4601C5.18784 20.8701 4.63784 19.0801 5.30784 16.1601C5.40784 15.7001 5.59783 15.2701 5.84783 14.8901C6.06783 14.5501 6.33784 14.2701 6.64784 14.0601C7.09784 13.7401 7.54784 13.5801 7.99784 13.5801C8.62784 13.5801 9.27784 13.9101 9.90784 14.5701C10.7278 15.9101 11.0078 17.1101 10.7578 18.2301C10.4178 19.3601 9.78784 20.3101 8.82784 21.1501C8.52784 21.4101 8.13784 21.5501 7.72784 21.5501H7.45784L7.44784 21.5401Z" fill="white"/>
<path d="M7.99882 13.6498C8.60882 13.6498 9.23882 13.9698 9.83882 14.5898C10.6588 15.9198 10.9388 17.0998 10.6888 18.1898C10.3588 19.3098 9.72882 20.2498 8.78882 21.0798C8.49882 21.3298 8.12882 21.4598 7.72882 21.4598H7.45882C7.27882 21.4598 7.10882 21.4298 6.96882 21.3898C5.24882 20.7998 4.72882 19.0998 5.39882 16.1798C5.49882 15.7198 5.67882 15.3098 5.92882 14.9398C6.14882 14.6098 6.40882 14.3398 6.70882 14.1298C7.14882 13.8198 7.58882 13.6598 8.00882 13.6598M8.00882 13.5098C7.53882 13.5098 7.07882 13.6798 6.61882 14.0098C6.28882 14.2398 6.01882 14.5298 5.79882 14.8598C5.53882 15.2498 5.34882 15.6898 5.24882 16.1498C4.58882 19.0798 5.09882 20.9198 6.91882 21.5398C7.08882 21.5998 7.27882 21.6198 7.45882 21.6198H7.72882C8.14882 21.6198 8.56882 21.4798 8.87882 21.1998C9.77882 20.4098 10.4688 19.4498 10.8288 18.2398C11.1088 16.9998 10.7288 15.7598 9.95882 14.5198C9.29882 13.8398 8.63882 13.5098 7.99882 13.5098H8.00882Z" fill="#5E5E5A"/>
</svg>
