<svg width="16" height="20" viewBox="0 0 16 20" fill="none" xmlns="http://www.w3.org/2000/svg">
<path d="M5.7114 8.90998C6.2814 7.01998 6.38141 4.60998 6.24141 1.94998C6.23141 1.66998 6.28141 1.37998 6.45141 1.14998C6.66141 0.83998 6.89141 0.839981 7.12141 1.16998C7.27141 1.38998 7.35141 1.65998 7.37141 1.92998C7.59141 4.41998 8.21141 6.88998 9.26141 9.32998L9.24141 11.29L5.69141 11.26L5.7114 8.91998V8.90998Z" fill="#F4DE9C" stroke="#5E5E5A" stroke-width="0.15" stroke-linecap="round" stroke-linejoin="round"/>
<path d="M4.91187 14.2698C3.31187 10.8498 2.85188 6.93975 2.67188 2.50975C2.67188 2.32975 2.67187 2.14975 2.71187 1.97975C2.86187 1.21975 3.57187 1.03975 3.91187 1.86975C3.95187 1.96975 3.98187 2.08975 4.00187 2.19975C4.35187 4.73975 4.88187 7.05975 5.74187 8.92975C5.80187 9.05975 5.84188 9.19975 5.93188 9.31975C6.35188 9.88975 7.00187 10.0698 7.66187 10.0598C8.29187 10.0498 8.87187 9.75975 9.30187 9.31975C9.53187 9.07975 9.72188 8.79975 9.85188 8.47975C10.5619 6.77975 10.7019 4.80975 11.0119 2.73975C11.0919 2.21975 11.2219 1.68975 11.5719 1.29975C12.2219 0.579751 12.7519 0.93975 12.8119 2.21975C13.0319 6.91975 11.7819 11.4598 10.1819 14.2898H4.92188L4.91187 14.2698Z" fill="#F4DE9C" stroke="#5E5E5A" stroke-width="0.15" stroke-linecap="round" stroke-linejoin="round"/>
<path d="M13.0795 10.46H2.40953C1.22764 10.46 0.269531 11.4181 0.269531 12.6C0.269531 13.7819 1.22764 14.74 2.40953 14.74H13.0795C14.2614 14.74 15.2195 13.7819 15.2195 12.6C15.2195 11.4181 14.2614 10.46 13.0795 10.46Z" fill="#FFE4E3" stroke="#5E5E5A" stroke-width="0.15" stroke-miterlimit="10"/>
<path d="M7.45812 19.5302C6.67812 19.5302 5.88812 19.4302 5.10812 19.2402C4.46812 19.1702 4.14812 18.7202 4.12812 17.8802C3.94812 16.8502 4.09812 15.8402 4.58812 14.8502C4.67812 14.6802 4.78812 14.5102 4.92812 14.3602C5.98812 13.2202 6.96812 12.6602 7.88812 12.6602C8.65812 12.6602 9.41812 13.0502 10.1381 13.8202C10.3481 14.0402 10.5481 14.2902 10.7581 14.5802C11.4681 15.5202 11.8081 16.6402 11.7881 18.0002C11.7481 18.7902 11.4481 19.2102 10.8781 19.3002C10.8081 19.3102 10.7481 19.3102 10.6781 19.3102C10.3681 19.3102 10.0481 19.2002 9.78812 19.0002C9.63812 18.8902 9.48812 18.8302 9.31812 18.8302C9.10812 18.8302 8.89812 18.9202 8.65812 19.0902C8.28812 19.3602 7.87812 19.5102 7.48812 19.5102H7.46812L7.45812 19.5302Z" fill="white"/>
<path d="M7.86863 12.7501C8.61863 12.7501 9.35863 13.1301 10.0686 13.8901C10.2786 14.1201 10.4886 14.3701 10.6786 14.6401C11.3786 15.5601 11.7086 16.6701 11.6886 18.0101C11.6386 19.0101 11.1786 19.1901 10.8386 19.2401C10.7786 19.2401 10.7186 19.2501 10.6486 19.2501C10.3586 19.2501 10.0586 19.1501 9.80863 18.9601C9.64863 18.8401 9.47863 18.7801 9.29863 18.7801C9.07863 18.7801 8.84863 18.8701 8.59863 19.0601C8.23863 19.3201 7.84863 19.4601 7.44863 19.4601C6.67863 19.4601 5.88863 19.3601 5.08863 19.1701C4.70863 19.1301 4.20863 18.9501 4.17863 17.8601C3.99863 16.8601 4.14863 15.8601 4.62863 14.8901C4.71863 14.7201 4.82863 14.5601 4.94863 14.4201L4.99863 14.3601C5.99863 13.2901 6.95863 12.7401 7.84863 12.7401M7.84863 12.5901C6.87863 12.5901 5.88863 13.1701 4.88863 14.2601C4.86863 14.2801 4.85863 14.3001 4.83863 14.3101C4.69863 14.4601 4.57863 14.6301 4.48863 14.8101C3.98863 15.8301 3.83863 16.8501 4.02863 17.8801C4.04863 18.8101 4.43863 19.2401 5.06863 19.3101C5.83863 19.5001 6.62863 19.6001 7.43863 19.6001H7.45863C7.89863 19.6001 8.31863 19.4301 8.66863 19.1701C8.87863 19.0201 9.07863 18.9201 9.28863 18.9201C9.42863 18.9201 9.56863 18.9701 9.70863 19.0701C9.97863 19.2801 10.3086 19.3901 10.6386 19.3901C10.7086 19.3901 10.7786 19.3901 10.8486 19.3701C11.4186 19.2801 11.7786 18.8701 11.8286 18.0001C11.8486 16.4901 11.4486 15.4001 10.7886 14.5301C10.5786 14.2401 10.3786 13.9901 10.1686 13.7701C9.41863 12.9701 8.64863 12.5801 7.85863 12.5801L7.84863 12.5901Z" fill="#5E5E5A"/>
</svg>
