<svg width="16" height="20" viewBox="0 0 16 20" fill="none" xmlns="http://www.w3.org/2000/svg">
<path d="M5.98047 8.57043C6.62047 7.03043 6.69047 4.59043 6.56047 1.84043C6.54047 1.48043 6.63047 1.10043 6.86047 0.820434C7.19047 0.410434 7.54047 0.520434 7.91047 0.980434C8.04047 1.14043 8.10047 1.34043 8.11047 1.54043C8.21047 3.78043 8.99047 6.31043 10.0305 8.96043V10.9304H5.98047V8.57043Z" fill="#F4DE9C" stroke="#5E5E5A" stroke-width="0.15" stroke-linecap="round" stroke-linejoin="round"/>
<path d="M5.39015 13.7799C3.53015 10.6299 2.05015 6.64991 0.920153 2.53991C0.800153 2.07991 0.880153 1.56991 1.20015 1.21991C1.52015 0.85991 1.86015 0.90991 2.22015 1.51991C3.11015 4.29991 4.31015 6.71991 5.99015 8.55991C7.44015 9.82991 8.84015 9.99991 10.1702 9.03991C10.2102 9.00991 10.2402 8.97991 10.2802 8.94991C11.5302 7.28991 11.6802 4.79991 11.4702 2.02991C11.4402 1.59991 11.5302 1.15991 11.8002 0.81991C12.0902 0.44991 12.3902 0.46991 12.7002 0.87991C12.8702 1.11991 12.9802 1.39991 13.0302 1.68991C13.8602 6.21991 13.7802 10.3199 12.3802 13.7599H5.39015V13.7799Z" fill="#F4DE9C" stroke="#5E5E5A" stroke-width="0.15" stroke-linecap="round" stroke-linejoin="round"/>
<path d="M12.8881 10.5303H2.21813C1.03624 10.5303 0.078125 11.4884 0.078125 12.6703C0.078125 13.8522 1.03624 14.8103 2.21813 14.8103H12.8881C14.07 14.8103 15.0281 13.8522 15.0281 12.6703C15.0281 11.4884 14.07 10.5303 12.8881 10.5303Z" fill="#FFE4E3" stroke="#5E5E5A" stroke-width="0.15" stroke-miterlimit="10"/>
<path d="M6.40956 19.5404C5.95956 19.5404 5.55956 19.4404 5.18956 19.2404C4.31956 18.7704 3.79956 17.7904 3.86956 16.7204C3.88956 16.3304 3.95956 15.9304 4.04956 15.5304C4.23956 14.7404 4.69956 14.0504 5.33956 13.5904C6.65956 12.6304 7.88956 12.1504 9.00956 12.1504C10.2096 12.1504 11.3296 12.7104 12.3196 13.8204C12.4496 13.9704 12.5796 14.1204 12.6996 14.2804C13.7296 15.7704 14.4896 17.3304 13.1096 18.5504C12.3096 19.1704 11.1296 19.4604 9.27956 19.4804C9.04956 19.4804 8.83956 19.3504 8.69956 19.1404C8.57956 18.9604 8.41956 18.8604 8.20956 18.8604C7.93956 18.8604 7.60956 19.0004 7.15956 19.3104C6.97956 19.4304 6.76956 19.5104 6.55956 19.5104H6.40956V19.5404Z" fill="white"/>
<path d="M9.00945 12.0803V12.2303C10.1894 12.2303 11.2894 12.7903 12.2694 13.8803C12.3994 14.0203 12.5194 14.1803 12.6494 14.3303C14.0294 16.3403 14.1494 17.5503 13.0794 18.5003C12.2894 19.1103 11.1194 19.4003 9.28945 19.4203C9.08945 19.4203 8.89945 19.3103 8.77945 19.1203C8.64945 18.9203 8.45945 18.8103 8.21945 18.8103C7.93945 18.8103 7.58945 18.9603 7.12945 19.2803C6.95945 19.3903 6.76945 19.4603 6.56945 19.4703C6.51945 19.4703 6.46945 19.4703 6.41945 19.4703C5.98945 19.4703 5.59945 19.3703 5.22945 19.1803C4.37945 18.7303 3.87945 17.7703 3.94945 16.7303C3.96945 16.3503 4.02945 15.9503 4.12945 15.5503C4.31945 14.7903 4.75945 14.1203 5.37945 13.6603C5.37945 13.6603 5.38945 13.6603 5.39945 13.6603C6.69945 12.7103 7.91945 12.2303 9.01945 12.2303V12.0803M9.01945 12.0803C7.85945 12.0803 6.61945 12.5803 5.30945 13.5303C4.64945 14.0103 4.17945 14.7203 3.98945 15.5203C3.88945 15.9203 3.82945 16.3203 3.79945 16.7203C3.72945 17.7703 4.22945 18.8103 5.15945 19.3103C5.52945 19.5103 5.94945 19.6203 6.41945 19.6203C6.46945 19.6203 6.51945 19.6203 6.57945 19.6203C6.80945 19.6203 7.02945 19.5303 7.21945 19.4003C7.59945 19.1403 7.94945 18.9603 8.21945 18.9603C8.39945 18.9603 8.53945 19.0303 8.64945 19.2003C8.78945 19.4203 9.02945 19.5703 9.28945 19.5703C10.8294 19.5503 12.2194 19.3503 13.1694 18.6203C14.5394 17.4003 13.8894 15.8603 12.7694 14.2403C12.6394 14.0703 12.5094 13.9203 12.3794 13.7703C11.3494 12.6203 10.2294 12.0703 9.00945 12.0703L9.01945 12.0803Z" fill="#5E5E5A"/>
</svg>
