<svg width="17" height="20" viewBox="0 0 17 20" fill="none" xmlns="http://www.w3.org/2000/svg">
<path d="M11.3703 14.2404C10.4303 10.8804 9.69031 7.04039 9.71031 1.93039C9.71031 1.46039 9.55031 0.99039 9.21031 0.65039C8.80031 0.25039 8.46031 0.44039 8.21031 1.36039C7.59031 6.62039 6.96031 9.86039 6.32031 13.8404V14.2404H11.3703Z" fill="#F4DE9C" stroke="#5E5E5A" stroke-width="0.15" stroke-linecap="round" stroke-linejoin="round"/>
<path d="M13.8686 10.5303H3.19859C2.0167 10.5303 1.05859 11.4884 1.05859 12.6703C1.05859 13.8522 2.0167 14.8103 3.19859 14.8103H13.8686C15.0505 14.8103 16.0086 13.8522 16.0086 12.6703C16.0086 11.4884 15.0505 10.5303 13.8686 10.5303Z" fill="#FFE4E3" stroke="#5E5E5A" stroke-width="0.15" stroke-miterlimit="10"/>
<path d="M6.32157 13.8396C6.15157 14.0596 6.01157 14.2996 5.91157 14.5596C4.93157 16.9196 4.39156 18.9996 6.31156 19.5696C8.15156 19.6296 9.99157 19.6896 10.9016 19.3496C12.0816 18.4796 12.2716 17.0996 11.8716 15.4296C11.7716 15.0096 11.6016 14.5996 11.3716 14.2396C10.9116 13.5096 10.2016 12.9596 9.34156 12.7596C8.96156 12.6696 8.58157 12.6496 8.21157 12.6996C7.45157 12.8096 6.78157 13.2396 6.32157 13.8396Z" fill="white" stroke="#5E5E5A" stroke-width="0.15" stroke-linecap="round" stroke-linejoin="round"/>
</svg>
