<svg width="16" height="19" viewBox="0 0 16 19" fill="none" xmlns="http://www.w3.org/2000/svg">
<path d="M9.51906 13.2004C8.63906 9.7304 8.45906 6.5504 8.46906 2.6104C8.46906 2.0804 8.30906 1.5504 7.97906 1.1304C7.54906 0.590396 7.20906 0.680396 6.94906 1.2304C6.77906 1.5904 6.77906 1.9904 6.74906 2.3904C6.32906 7.3804 6.15906 9.4004 6.03906 13.2004H9.52906H9.51906Z" fill="#F4DE9C" stroke="#5E5E5A" stroke-width="0.15" stroke-linecap="round" stroke-linejoin="round"/>
<path d="M13.1108 9.91992H2.44078C1.25889 9.91992 0.300781 10.878 0.300781 12.0599C0.300781 13.2418 1.25889 14.1999 2.44078 14.1999H13.1108C14.2927 14.1999 15.2508 13.2418 15.2508 12.0599C15.2508 10.878 14.2927 9.91992 13.1108 9.91992Z" fill="#FFE4E3" stroke="#5E5E5A" stroke-width="0.15" stroke-miterlimit="10"/>
<path d="M7.91911 18.5296C7.39911 18.5296 6.82911 18.4996 6.26911 18.4596L5.91911 18.4396C5.56911 18.4396 5.32911 18.3596 5.17911 18.1896C4.95911 17.9296 5.00911 17.4896 5.07911 17.0996C5.17911 15.9496 5.40911 14.8396 5.73911 13.7796C5.82911 13.4996 5.96911 13.2396 6.15911 13.0296C6.32911 12.8396 6.52911 12.6796 6.76911 12.5696C7.07911 12.4296 7.38911 12.3496 7.69911 12.3496C8.27911 12.3496 8.86911 12.6096 9.46911 13.1196C10.3991 14.4296 10.6591 15.8396 10.2591 17.4296C10.1391 17.9296 9.71911 18.3196 9.20911 18.4196C8.86911 18.4896 8.43911 18.5196 7.91911 18.5196V18.5296Z" fill="white"/>
<path d="M7.70979 12.43C8.26979 12.43 8.8498 12.68 9.3998 13.15C10.3298 14.45 10.5898 15.85 10.1898 17.42C10.0698 17.89 9.67979 18.26 9.19979 18.36C8.85979 18.43 8.43979 18.46 7.91979 18.46C7.39979 18.46 6.82979 18.43 6.27979 18.39L5.91979 18.37C5.59979 18.37 5.36979 18.29 5.24979 18.15C5.04979 17.92 5.09979 17.5 5.16979 17.11C5.26979 15.98 5.4898 14.87 5.8298 13.81C5.9198 13.54 6.04979 13.29 6.23979 13.09C6.39979 12.9 6.59979 12.76 6.81979 12.65C7.11979 12.51 7.41979 12.44 7.70979 12.44M7.70979 12.29C7.38979 12.29 7.06979 12.36 6.74979 12.51C6.50979 12.63 6.2898 12.79 6.1198 12.99C5.9198 13.21 5.76979 13.48 5.67979 13.77C5.33979 14.85 5.1198 15.96 5.0098 17.1C4.8798 17.81 4.86979 18.53 5.91979 18.53C6.59979 18.57 7.28979 18.62 7.91979 18.62C8.39979 18.62 8.8398 18.59 9.2298 18.51C9.7698 18.4 10.2098 17.99 10.3398 17.46C10.7298 15.93 10.5198 14.46 9.52979 13.07C8.91979 12.55 8.31979 12.29 7.70979 12.29Z" fill="#5E5E5A"/>
</svg>
