<svg width="16" height="22" viewBox="0 0 16 22" fill="none" xmlns="http://www.w3.org/2000/svg">
<path d="M10.0903 14.8498C9.2903 11.4798 8.9203 7.52975 8.7303 2.17975C8.7103 1.61975 8.42031 1.08975 7.91031 0.849752C7.53031 0.669752 7.2203 0.729752 6.9803 1.03975C6.8103 1.25975 6.74031 1.54975 6.75031 1.83975C6.99031 6.64975 6.69031 10.7298 5.82031 14.8598H10.0903V14.8498Z" fill="#F4DE9C" stroke="#5E5E5A" stroke-width="0.15" stroke-linecap="round" stroke-linejoin="round"/>
<path d="M13.2709 12.9199H2.60094C1.41906 12.9199 0.460938 13.878 0.460938 15.0599C0.460938 16.2418 1.41906 17.1999 2.60094 17.1999H13.2709C14.4528 17.1999 15.4109 16.2418 15.4109 15.0599C15.4109 13.878 14.4528 12.9199 13.2709 12.9199Z" fill="#FFE4E3" stroke="#5E5E5A" stroke-width="0.15" stroke-miterlimit="10"/>
<path d="M8.14943 21.5303C7.73943 21.5303 7.33944 21.3903 7.04944 21.1303C6.08944 20.2903 5.45943 19.3403 5.11943 18.2003C4.86943 17.0903 5.14943 15.8903 5.97943 14.5403C6.59943 13.9003 7.24944 13.5703 7.87944 13.5703C8.31944 13.5703 8.77943 13.7303 9.22943 14.0503C9.53943 14.2703 9.80944 14.5503 10.0294 14.8803C10.2794 15.2603 10.4594 15.6803 10.5694 16.1503C11.2294 19.0703 10.6894 20.8603 8.94943 21.4503C8.79943 21.5003 8.62943 21.5303 8.42943 21.5303H8.15944H8.14943Z" fill="white"/>
<path d="M7.87889 13.6405C8.30889 13.6405 8.74887 13.8005 9.17887 14.1105C9.47887 14.3205 9.73889 14.6005 9.95889 14.9205C10.2089 15.2905 10.3889 15.7105 10.4889 16.1605C11.1489 19.0805 10.6389 20.7905 8.90888 21.3705C8.76888 21.4205 8.59888 21.4405 8.41888 21.4405H8.14887C7.74887 21.4405 7.37888 21.3005 7.08888 21.0605C6.13888 20.2305 5.51888 19.2905 5.18888 18.1805C4.93888 17.0805 5.21888 15.9005 6.01888 14.5905C6.63888 13.9505 7.25889 13.6305 7.87889 13.6305M7.87889 13.4805C7.22889 13.4805 6.57888 13.8105 5.91888 14.4905C5.14888 15.7305 4.76888 16.9805 5.04888 18.2105C5.40888 19.4205 6.08888 20.3805 6.99888 21.1705C7.31888 21.4505 7.72887 21.5905 8.14887 21.5905H8.41888C8.59888 21.5905 8.78889 21.5705 8.95889 21.5105C10.7789 20.8905 11.2989 19.0505 10.6289 16.1205C10.5289 15.6605 10.3389 15.2205 10.0789 14.8305C9.85888 14.5005 9.58888 14.2105 9.25888 13.9805C8.79888 13.6505 8.33888 13.4805 7.86888 13.4805H7.87889Z" fill="#5E5E5A"/>
</svg>
