<svg width="16" height="20" viewBox="0 0 16 20" fill="none" xmlns="http://www.w3.org/2000/svg">
<path d="M10.1711 8.90998C9.6011 7.01998 9.5011 4.60998 9.6411 1.94998C9.6511 1.66998 9.60109 1.37998 9.43109 1.14998C9.22109 0.83998 8.99109 0.839981 8.76109 1.16998C8.61109 1.38998 8.53109 1.65998 8.51109 1.92998C8.29109 4.41998 7.67109 6.88998 6.62109 9.32998L6.6411 11.29L10.1911 11.26L10.1711 8.91998V8.90998Z" fill="#F4DE9C" stroke="#5E5E5A" stroke-width="0.15" stroke-linecap="round" stroke-linejoin="round"/>
<path d="M10.9681 14.2698C12.5681 10.8498 13.0282 6.93975 13.2082 2.50975C13.2082 2.32975 13.2081 2.14975 13.1681 1.97975C13.0181 1.21975 12.3081 1.03975 11.9681 1.86975C11.9281 1.96975 11.8982 2.08975 11.8782 2.19975C11.5282 4.73975 10.9981 7.05975 10.1381 8.92975C10.0781 9.05975 10.0381 9.19975 9.94814 9.31975C9.52814 9.88975 8.87815 10.0698 8.21815 10.0598C7.58815 10.0498 7.00815 9.75975 6.57815 9.31975C6.34815 9.07975 6.15814 8.79975 6.02814 8.47975C5.31814 6.77975 5.17814 4.80975 4.86814 2.73975C4.78814 2.21975 4.65814 1.68975 4.30814 1.29975C3.65814 0.579751 3.12815 0.93975 3.06815 2.21975C2.84815 6.91975 4.09814 11.4598 5.69814 14.2898H10.9582L10.9681 14.2698Z" fill="#F4DE9C" stroke="#5E5E5A" stroke-width="0.15" stroke-linecap="round" stroke-linejoin="round"/>
<path d="M13.4702 10.9199H2.80016C1.61827 10.9199 0.660156 11.878 0.660156 13.0599C0.660156 14.2418 1.61827 15.1999 2.80016 15.1999H13.4702C14.652 15.1999 15.6102 14.2418 15.6102 13.0599C15.6102 11.878 14.652 10.9199 13.4702 10.9199Z" fill="#FFE4E3" stroke="#5E5E5A" stroke-width="0.15" stroke-miterlimit="10"/>
<path d="M8.3985 19.5297C8.0085 19.5297 7.5985 19.3897 7.2285 19.1097C6.9885 18.9297 6.77851 18.8497 6.56851 18.8497C6.40851 18.8497 6.24851 18.9097 6.09851 19.0197C5.83851 19.2197 5.52851 19.3297 5.20851 19.3297C5.14851 19.3297 5.0785 19.3297 5.0085 19.3197C4.4385 19.2297 4.13851 18.8097 4.09851 18.0197C4.07851 16.6597 4.40851 15.5397 5.12851 14.5997C5.33851 14.3097 5.53851 14.0597 5.74851 13.8397C6.46851 13.0697 7.22851 12.6797 7.99851 12.6797C8.91851 12.6797 9.89851 13.2297 10.9085 14.3197C11.0885 14.5197 11.2085 14.6797 11.2985 14.8597C11.7785 15.8397 11.9385 16.8597 11.7585 17.8797C11.7385 18.7297 11.4185 19.1797 10.7785 19.2497C9.98851 19.4397 9.1885 19.5397 8.4185 19.5397H8.3985V19.5297Z" fill="white"/>
<path d="M8.01013 12.7496C8.91013 12.7496 9.87014 13.2896 10.8901 14.3896L10.9201 14.4196C11.0501 14.5596 11.1601 14.7196 11.2501 14.8896C11.7301 15.8596 11.8801 16.8596 11.7001 17.8896C11.6701 18.9496 11.1701 19.1296 10.7701 19.1796C9.99014 19.3696 9.20014 19.4696 8.41014 19.4696C8.03014 19.4696 7.64013 19.3296 7.29013 19.0696C7.04013 18.8796 6.81013 18.7896 6.59013 18.7896C6.41013 18.7896 6.24014 18.8496 6.08014 18.9696C5.83014 19.1596 5.53014 19.2596 5.24014 19.2596C5.18014 19.2596 5.12014 19.2596 5.06014 19.2496C4.72014 19.1996 4.27014 19.0096 4.21014 18.0196C4.19014 16.6696 4.52014 15.5696 5.22014 14.6396C5.41014 14.3696 5.62014 14.1196 5.83014 13.8896C6.54014 13.1296 7.28014 12.7496 8.03014 12.7496M8.03014 12.5996C7.25014 12.5996 6.48014 12.9796 5.72014 13.7896C5.51014 14.0096 5.30014 14.2696 5.10014 14.5496C4.44014 15.4096 4.03014 16.5096 4.06014 18.0196C4.11014 18.8896 4.46013 19.2996 5.04013 19.3896C5.11013 19.3996 5.18014 19.4096 5.25014 19.4096C5.58014 19.4096 5.91013 19.2896 6.18013 19.0896C6.32013 18.9796 6.46014 18.9396 6.60014 18.9396C6.80014 18.9396 7.01014 19.0296 7.22014 19.1896C7.58014 19.4496 7.99013 19.6196 8.43013 19.6196H8.45013C9.26013 19.6196 10.0501 19.5196 10.8201 19.3296C11.4501 19.2596 11.8401 18.8296 11.8601 17.8996C12.0401 16.8696 11.8901 15.8496 11.4001 14.8296C11.3101 14.6496 11.1901 14.4796 11.0501 14.3296C11.0301 14.3096 11.0201 14.2896 11.0001 14.2796C9.99014 13.1896 9.00013 12.6096 8.04013 12.6096L8.03014 12.5996Z" fill="#5E5E5A"/>
</svg>
