<svg width="16" height="20" viewBox="0 0 16 20" fill="none" xmlns="http://www.w3.org/2000/svg">
<path d="M9.74141 8.55969C9.10141 7.01969 9.03141 4.57969 9.16141 1.82969C9.18141 1.46969 9.0914 1.08969 8.8614 0.809692C8.5314 0.399692 8.1814 0.509692 7.8114 0.969692C7.6814 1.12969 7.6214 1.32969 7.6114 1.52969C7.5114 3.76969 6.73141 6.29969 5.69141 8.94969V10.9197H9.74141V8.55969Z" fill="#F4DE9C" stroke="#5E5E5A" stroke-width="0.15" stroke-linecap="round" stroke-linejoin="round"/>
<path d="M10.3418 13.7701C12.2018 10.6201 13.6818 6.64014 14.8118 2.53014C14.9318 2.07014 14.8519 1.56014 14.5319 1.21014C14.2119 0.850144 13.8718 0.900144 13.5118 1.51014C12.6218 4.29014 11.4219 6.71014 9.74186 8.55014C8.29186 9.82014 6.89185 9.99014 5.56185 9.03014C5.52185 9.00014 5.49185 8.97014 5.45185 8.94014C4.20185 7.28014 4.05185 4.79014 4.26185 2.02014C4.29185 1.59014 4.20184 1.15014 3.93184 0.810144C3.64184 0.440144 3.34185 0.460144 3.03185 0.870144C2.86185 1.11014 2.75185 1.39014 2.70185 1.68014C1.87185 6.21014 1.95186 10.3101 3.35186 13.7501H10.3418V13.7701Z" fill="#F4DE9C" stroke="#5E5E5A" stroke-width="0.15" stroke-linecap="round" stroke-linejoin="round"/>
<path d="M13.6694 10.9199H2.99937C1.81748 10.9199 0.859375 11.878 0.859375 13.0599C0.859375 14.2418 1.81748 15.1999 2.99937 15.1999H13.6694C14.8513 15.1999 15.8094 14.2418 15.8094 13.0599C15.8094 11.878 14.8513 10.9199 13.6694 10.9199Z" fill="#FFE4E3" stroke="#5E5E5A" stroke-width="0.15" stroke-miterlimit="10"/>
<path d="M9.16843 19.5294C8.95843 19.5294 8.73844 19.4494 8.56844 19.3294C8.11844 19.0194 7.78843 18.8794 7.51843 18.8794C7.30843 18.8794 7.13843 18.9694 7.02843 19.1594C6.88843 19.3694 6.67843 19.4994 6.44843 19.4994C4.59843 19.4794 3.41843 19.1894 2.60843 18.5594C1.22843 17.3294 1.98843 15.7794 3.01843 14.2794C3.13843 14.1194 3.26842 13.9694 3.39842 13.8194C4.38842 12.7094 5.50844 12.1494 6.70844 12.1494C7.82844 12.1494 9.05844 12.6294 10.3784 13.5894C11.0184 14.0594 11.4784 14.7494 11.6684 15.5294C11.7684 15.9394 11.8284 16.3394 11.8484 16.7194C11.9184 17.7794 11.3984 18.7694 10.5284 19.2394C10.1484 19.4394 9.74843 19.5394 9.30843 19.5394H9.15843L9.16843 19.5294Z" fill="white"/>
<path d="M6.72026 12.2196C7.82026 12.2196 9.04025 12.6996 10.3403 13.6496C10.3403 13.6496 10.3403 13.6496 10.3503 13.6496C10.9703 14.1096 11.4203 14.7796 11.6003 15.5396C11.7003 15.9396 11.7603 16.3396 11.7803 16.7196C11.8503 17.7496 11.3503 18.7096 10.5003 19.1596C10.1303 19.3596 9.75025 19.4496 9.31025 19.4496C9.26025 19.4496 9.21026 19.4496 9.16026 19.4496C8.96026 19.4496 8.76026 19.3696 8.60026 19.2596C8.14026 18.9396 7.79025 18.7896 7.51025 18.7896C7.28025 18.7896 7.08025 18.8996 6.95025 19.0996C6.83025 19.2896 6.64025 19.3996 6.43025 19.3996C4.60025 19.3696 3.43025 19.0896 2.65025 18.4896C1.57025 17.5296 1.69025 16.3196 3.06025 14.3196C3.19025 14.1596 3.31026 13.9996 3.44026 13.8596C4.42026 12.7696 5.51025 12.2096 6.70025 12.2096M6.70025 12.0596C5.48025 12.0596 4.36026 12.6096 3.33026 13.7596C3.20026 13.9096 3.07026 14.0596 2.94026 14.2296C1.83026 15.8496 1.17025 17.3896 2.54025 18.6096C3.49025 19.3396 4.88025 19.5396 6.42025 19.5596C6.68025 19.5596 6.92025 19.4096 7.06025 19.1896C7.17025 19.0196 7.32026 18.9496 7.49026 18.9496C7.77026 18.9496 8.11026 19.1296 8.49026 19.3896C8.68026 19.5196 8.90026 19.5996 9.13026 19.6096C9.18026 19.6096 9.23025 19.6096 9.29025 19.6096C9.76025 19.6096 10.1803 19.4996 10.5503 19.2996C11.4803 18.7996 11.9803 17.7596 11.9103 16.7096C11.8903 16.2996 11.8203 15.8996 11.7203 15.5096C11.5303 14.7096 11.0602 14.0096 10.4002 13.5196C9.09025 12.5696 7.85026 12.0696 6.69026 12.0696L6.70025 12.0596Z" fill="#5E5E5A"/>
</svg>
