<svg width="17" height="18" viewBox="0 0 17 18" fill="none" xmlns="http://www.w3.org/2000/svg">
<path d="M7.32031 6.91992H10.1203C10.1203 6.91992 10.1203 7.10993 10.1203 7.11993C9.73032 10.3499 9.67032 13.4099 10.1203 16.2099C10.2903 17.4799 9.99031 17.6499 9.42031 17.1299C9.02031 16.7699 8.72032 16.2999 8.55032 15.7799C7.82032 13.5599 7.47031 10.4699 7.33031 6.91992" fill="#F4DE9C"/>
<path d="M7.32031 6.91992H10.1203C10.1203 6.91992 10.1203 7.10993 10.1203 7.11993C9.73032 10.3499 9.67032 13.4099 10.1203 16.2099C10.2903 17.4799 9.99031 17.6499 9.42031 17.1299C9.02031 16.7699 8.72032 16.2999 8.55032 15.7799C7.82032 13.5599 7.47031 10.4699 7.33031 6.91992" stroke="#5E5E5A" stroke-width="0.15" stroke-linecap="round" stroke-linejoin="round"/>
<path d="M13.8686 5.66992H3.19859C2.0167 5.66992 1.05859 6.62803 1.05859 7.80992C1.05859 8.99181 2.0167 9.94992 3.19859 9.94992H13.8686C15.0505 9.94992 16.0086 8.99181 16.0086 7.80992C16.0086 6.62803 15.0505 5.66992 13.8686 5.66992Z" fill="#FFE4E3" stroke="#5E5E5A" stroke-width="0.15" stroke-miterlimit="10"/>
<path d="M10.12 7.12002C10.33 6.72002 10.43 6.27002 10.45 5.82002L10.58 2.35002C10.63 1.55002 10.3 1.15002 9.83 0.850015C9.12 0.340015 8.1 0.110017 7.24 0.160017C6.64 0.350017 6.62 0.210019 6.54 0.740019C6.5 0.990019 6.49 1.24002 6.51 1.49002C6.62 3.09002 6.78 4.56002 6.94 5.93002C6.98 6.30002 7.11999 6.64002 7.33999 6.94002C7.35999 6.97002 7.39 7.00002 7.41 7.04002C8.44 8.31002 9.3 8.41002 9.99 7.37002C10.04 7.30002 10.09 7.22002 10.13 7.14002" fill="white"/>
<path d="M10.12 7.12002C10.33 6.72002 10.43 6.27002 10.45 5.82002L10.58 2.35002C10.63 1.55002 10.3 1.15002 9.83 0.850015C9.12 0.340015 8.1 0.110017 7.24 0.160017C6.64 0.350017 6.62 0.210019 6.54 0.740019C6.5 0.990019 6.49 1.24002 6.51 1.49002C6.62 3.09002 6.78 4.56002 6.94 5.93002C6.98 6.30002 7.11999 6.64002 7.33999 6.94002C7.35999 6.97002 7.39 7.00002 7.41 7.04002C8.44 8.31002 9.3 8.41002 9.99 7.37002C10.04 7.30002 10.09 7.22002 10.13 7.14002" stroke="#5E5E5A" stroke-width="0.15" stroke-linecap="round" stroke-linejoin="round"/>
</svg>
