<svg width="16" height="19" viewBox="0 0 16 19" fill="none" xmlns="http://www.w3.org/2000/svg">
<path d="M9.58968 6.5V6.99C9.03968 10.44 8.84969 13.72 9.18969 16.77C9.30969 18.07 9.01969 18.4 8.40969 17.99C7.95969 17.69 7.64969 17.21 7.48969 16.69C6.63969 13.96 6.16969 10.46 5.92969 6.5H9.58968Z" fill="#F4DE9C" stroke="#5E5E5A" stroke-width="0.15" stroke-linecap="round" stroke-linejoin="round"/>
<path d="M13.0717 5.66992H2.40172C1.21983 5.66992 0.261719 6.62803 0.261719 7.80992C0.261719 8.99181 1.21983 9.94992 2.40172 9.94992H13.0717C14.2536 9.94992 15.2117 8.99181 15.2117 7.80992C15.2117 6.62803 14.2536 5.66992 13.0717 5.66992Z" fill="#FFE4E3" stroke="#5E5E5A" stroke-width="0.15" stroke-miterlimit="10"/>
<path d="M5.92975 6.49989C6.02975 6.71989 6.16975 6.92989 6.33975 7.09989C7.04975 7.80989 7.75975 8.04989 8.48975 7.84989C8.96975 7.71989 9.34975 7.39989 9.58975 6.98989C9.74975 6.71989 9.84976 6.40989 9.86976 6.08989L10.1698 2.49989C10.1198 1.95989 9.98975 1.48989 9.76975 1.08989C9.52975 0.65989 9.06975 0.379888 8.56975 0.349888L6.09975 0.189889C5.46975 0.159889 5.26976 0.319889 5.29976 1.09989C5.29976 1.29989 5.31975 1.49989 5.30975 1.69989C5.26975 3.28989 5.38975 4.69989 5.74975 5.82989C5.76975 6.05989 5.82975 6.28989 5.92975 6.49989Z" fill="white" stroke="#5E5E5A" stroke-width="0.15" stroke-linecap="round" stroke-linejoin="round"/>
</svg>
