<svg width="16" height="22" viewBox="0 0 16 22" fill="none" xmlns="http://www.w3.org/2000/svg">
<path d="M9.67859 8.00024C9.01859 12.2502 8.63859 16.4002 8.58859 20.4402C8.58859 20.7202 8.5286 21.0102 8.3886 21.2602C8.1686 21.6502 7.8786 21.7102 7.5186 21.4402C7.1786 21.1902 6.9686 20.8102 6.8886 20.4002C6.0586 16.4702 5.65859 12.3202 5.55859 7.99023H9.67859V8.00024Z" fill="#F4DE9C" stroke="#5E5E5A" stroke-width="0.15" stroke-linecap="round" stroke-linejoin="round"/>
<path d="M13.2709 5.66992H2.60094C1.41906 5.66992 0.460938 6.62803 0.460938 7.80992C0.460938 8.99181 1.41906 9.94992 2.60094 9.94992H13.2709C14.4528 9.94992 15.4109 8.99181 15.4109 7.80992C15.4109 6.62803 14.4528 5.66992 13.2709 5.66992Z" fill="#FFE4E3" stroke="#5E5E5A" stroke-width="0.15" stroke-miterlimit="10"/>
<path d="M7.67739 9.74996C7.07739 9.74996 6.43739 9.23996 5.78739 8.21996C5.72739 8.13996 5.6774 8.04996 5.6274 7.95996C4.8174 6.57996 4.6374 4.80996 5.1074 2.69996C5.8574 1.04996 6.6674 0.209961 7.5174 0.209961C8.3674 0.209961 9.3074 1.06996 10.3074 2.74996C10.5674 3.19996 10.7074 3.70996 10.7074 4.21996C10.7074 5.79996 10.3374 7.05996 9.6274 7.94996C8.9874 9.14996 8.33739 9.74996 7.67739 9.74996Z" fill="white"/>
<path d="M7.50824 0.28965C8.33824 0.28965 9.24824 1.12965 10.2282 2.79965C10.4882 3.23965 10.6182 3.72965 10.6182 4.22965C10.6182 5.79965 10.2582 7.03965 9.53824 7.93965C8.91824 9.09965 8.28824 9.68965 7.66824 9.68965C7.08824 9.68965 6.47824 9.18965 5.83824 8.18965C5.77824 8.10965 5.72824 8.01965 5.67824 7.93965C4.87824 6.56965 4.69825 4.81965 5.15825 2.76965C5.89825 1.13965 6.68825 0.30965 7.49825 0.30965M7.49825 0.159649C6.62825 0.159649 5.79825 0.979648 5.01825 2.70965C4.54825 4.80965 4.70825 6.58965 5.54825 8.01965C5.59825 8.10965 5.65825 8.19965 5.70825 8.27965C6.36825 9.30965 7.01825 9.83965 7.65825 9.83965C8.33825 9.83965 9.00824 9.24965 9.66824 8.00965C10.4182 7.07965 10.7682 5.79965 10.7682 4.22965C10.7682 3.69965 10.6182 3.17965 10.3582 2.71965C9.36825 1.02965 8.40824 0.139648 7.50824 0.139648L7.49825 0.159649Z" fill="#5E5E5A"/>
</svg>
