<svg width="16" height="18" viewBox="0 0 16 18" fill="none" xmlns="http://www.w3.org/2000/svg">
<path d="M11.9496 6.94984C12.9496 10.1198 13.7096 13.1198 13.6396 15.5798C13.6296 16.0798 13.5196 16.5798 13.2996 17.0298C12.9996 17.6198 12.6796 17.7098 12.3296 17.2298C12.1696 16.9998 12.0596 16.7298 12.0096 16.4498L11.1696 12.5098C10.9696 11.5998 10.4396 10.7698 9.63961 10.2898C9.11961 9.97984 8.57961 9.85984 8.02961 9.94984C7.37961 10.0598 6.81961 10.4598 6.44961 10.9998C5.66961 12.0998 3.98962 15.2998 3.98962 15.2998C3.20962 16.4198 2.74961 16.3598 2.64961 15.0098C2.59961 13.3298 4.15962 9.64984 5.62962 6.83984L11.9796 6.94984H11.9496Z" fill="#F4DE9C" stroke="#5E5E5A" stroke-width="0.15" stroke-linecap="round" stroke-linejoin="round"/>
<path d="M13.4702 5.66992H2.80016C1.61827 5.66992 0.660156 6.62803 0.660156 7.80992C0.660156 8.99181 1.61827 9.94992 2.80016 9.94992H13.4702C14.652 9.94992 15.6102 8.99181 15.6102 7.80992C15.6102 6.62803 14.652 5.66992 13.4702 5.66992Z" fill="#FFE4E3" stroke="#5E5E5A" stroke-width="0.15" stroke-miterlimit="10"/>
<path d="M8.71009 8.27019C7.96009 8.27019 7.23009 8.0302 6.52009 7.5402C6.20009 7.3302 5.91008 7.07019 5.65008 6.78019C5.18008 6.27019 4.81008 5.65019 4.53008 4.94019C3.83008 3.13019 3.88008 1.72019 4.67008 0.750195C5.13008 0.390195 5.67008 0.200195 6.26008 0.200195C6.69008 0.200195 7.15008 0.300196 7.64008 0.490196C8.15008 0.860196 8.60008 1.05019 9.01008 1.05019C9.29008 1.05019 9.55009 0.960195 9.77009 0.770195C10.2701 0.530195 10.7301 0.400196 11.1401 0.400196C11.6501 0.400196 12.0701 0.590196 12.4401 0.970196C12.7801 1.3302 13.0001 1.84019 13.0501 2.41019C13.1601 3.74019 13.0201 4.86019 12.6201 5.84019C12.4601 6.23019 12.2201 6.58019 11.9001 6.89019C11.7601 7.02019 11.6201 7.14019 11.4701 7.25019C10.5201 7.92019 9.60009 8.27019 8.72009 8.27019H8.71009Z" fill="white"/>
<path d="M6.26972 0.289883C6.67972 0.289883 7.12971 0.379883 7.60971 0.559883C8.13971 0.939883 8.59972 1.12988 9.01972 1.12988C9.31972 1.12988 9.58972 1.02988 9.79972 0.84988C10.2997 0.59988 10.7597 0.479881 11.1497 0.479881C11.6397 0.479881 12.0397 0.659881 12.3897 1.02988C12.7197 1.37988 12.9297 1.87988 12.9797 2.42988C13.0897 3.74988 12.9497 4.84988 12.5497 5.81988C12.3897 6.19988 12.1597 6.53988 11.8497 6.84988C11.7197 6.97988 11.5797 7.09988 11.4297 7.19988C10.4997 7.85988 9.57972 8.19988 8.71972 8.19988C7.98972 8.19988 7.26972 7.95988 6.56972 7.48988C6.25972 7.27988 5.96972 7.02988 5.70972 6.73988C5.24972 6.22988 4.87972 5.61988 4.60972 4.92988C3.91972 3.14988 3.95972 1.76988 4.70972 0.839882C5.16972 0.479882 5.68972 0.289883 6.26972 0.289883ZM6.26972 0.139881C5.64972 0.139881 5.09971 0.329883 4.61971 0.719883C3.79971 1.72988 3.75972 3.14988 4.46972 4.97988C4.73972 5.66988 5.10972 6.30988 5.59972 6.83988C5.85972 7.12988 6.15972 7.38988 6.48972 7.60988C7.21972 8.09988 7.95972 8.34988 8.71972 8.34988C9.62972 8.34988 10.5597 7.99988 11.5197 7.31988C11.6797 7.20988 11.8197 7.08988 11.9597 6.94988C12.2697 6.63988 12.5297 6.27988 12.6997 5.86988C13.1297 4.82988 13.2497 3.66988 13.1397 2.40988C13.0897 1.85988 12.8897 1.31988 12.5097 0.91988C12.1297 0.50988 11.6697 0.319881 11.1597 0.319881C10.7297 0.319881 10.2497 0.449881 9.73972 0.709881C9.51972 0.889881 9.27971 0.969883 9.02971 0.969883C8.61971 0.969883 8.16972 0.75988 7.68972 0.41988C7.18972 0.22988 6.71971 0.129883 6.27971 0.129883L6.26972 0.139881Z" fill="#5E5E5A"/>
</svg>
