<svg width="16" height="19" viewBox="0 0 16 19" fill="none" xmlns="http://www.w3.org/2000/svg">
<path d="M11.8292 7.55004C13.6592 10.18 14.5992 13.75 14.5992 17.48C14.5392 18.57 14.1992 18.81 13.6392 18.34C13.2992 18.06 13.0792 17.65 12.9892 17.22C12.4392 14.79 11.6692 12.76 10.5292 11.37C9.1992 10.03 8.0592 10.1 7.0592 11.15C5.7792 12.31 5.1092 14.17 4.7592 16.38C4.7092 16.71 4.59921 17.04 4.40921 17.32C4.02921 17.89 3.63921 17.93 3.23921 17.39C3.03921 17.12 2.92921 16.8 2.87921 16.47C2.46921 13.39 3.00921 10.46 4.45921 7.67004C4.47921 7.63004 4.4992 7.59004 4.5292 7.54004H11.8292V7.55004Z" fill="#F4DE9C" stroke="#5E5E5A" stroke-width="0.15" stroke-linecap="round" stroke-linejoin="round"/>
<path d="M13.6694 5.66992H2.99937C1.81748 5.66992 0.859375 6.62803 0.859375 7.80992C0.859375 8.99181 1.81748 9.94992 2.99937 9.94992H13.6694C14.8513 9.94992 15.8094 8.99181 15.8094 7.80992C15.8094 6.62803 14.8513 5.66992 13.6694 5.66992Z" fill="#FFE4E3" stroke="#5E5E5A" stroke-width="0.15" stroke-miterlimit="10"/>
<path d="M8.32839 8.76C7.26839 8.76 6.18839 8.51 5.10839 8.02C4.88839 7.92 4.68838 7.78 4.50838 7.62C4.37838 7.5 4.26838 7.37 4.17838 7.23C3.04838 5.56 2.55839 3.94 2.68839 2.28C2.81839 1.48 3.04838 0.950001 3.39838 0.700001C3.97838 0.400001 4.62839 0.25 5.35839 0.25C6.03839 0.25 6.76839 0.379999 7.59839 0.639999C7.83839 0.749999 8.08838 0.810001 8.33838 0.810001C8.58838 0.810001 8.83838 0.750001 9.08838 0.630001C9.58838 0.400001 10.0284 0.290001 10.4484 0.290001C10.7184 0.290001 10.9884 0.34 11.2584 0.43C11.7084 0.49 12.1584 0.769999 12.6584 1.28C12.9384 1.57 13.1184 1.93 13.1784 2.32C13.3684 3.53 13.3884 4.62 13.2084 5.67C13.1684 6.07 13.0684 6.43 12.9084 6.76C12.7084 7.18 12.3584 7.54 11.8984 7.79C10.7284 8.42 9.52838 8.74 8.33838 8.74L8.32839 8.76Z" fill="white"/>
<path d="M5.34812 0.330158C6.01812 0.330158 6.73812 0.460155 7.54812 0.710155C7.80812 0.830155 8.06812 0.890156 8.32812 0.890156C8.58812 0.890156 8.82812 0.830158 9.07812 0.720158H9.11811C9.11811 0.720158 9.16812 0.720157 9.18812 0.700157C9.60812 0.480157 10.0281 0.370155 10.4381 0.370155C10.6981 0.370155 10.9681 0.410155 11.2481 0.510155C11.6681 0.570155 12.1081 0.840157 12.5881 1.34016C12.8581 1.62016 13.0281 1.96016 13.0881 2.34016C13.2781 3.54016 13.2881 4.63015 13.1181 5.67015C13.0781 6.05015 12.9781 6.41016 12.8281 6.73016C12.6381 7.14016 12.2981 7.48016 11.8481 7.73016C10.6881 8.36016 9.50812 8.67015 8.32812 8.67015C7.28812 8.67015 6.20811 8.42016 5.13811 7.93016C4.92811 7.83016 4.72811 7.70016 4.55811 7.54016C4.43811 7.43016 4.32812 7.30015 4.23812 7.17015C3.11812 5.51015 2.63811 3.91016 2.75811 2.28016C2.87811 1.50016 3.10811 0.980155 3.41811 0.760155C3.99811 0.460155 4.62812 0.310158 5.34812 0.310158M5.34812 0.160156C4.63812 0.160156 3.96812 0.300157 3.34812 0.630157C2.99812 0.880157 2.74811 1.40015 2.60811 2.26015C2.47811 4.02015 3.04811 5.68016 4.11811 7.25016C4.21811 7.40016 4.32812 7.53016 4.45812 7.65016C4.63812 7.82016 4.84812 7.96016 5.07812 8.07016C6.17812 8.57016 7.25812 8.82016 8.32812 8.82016C9.54812 8.82016 10.7481 8.49016 11.9281 7.86016C12.3781 7.62016 12.7581 7.26016 12.9681 6.79016C13.1381 6.44016 13.2381 6.07016 13.2681 5.68016C13.4481 4.58016 13.4181 3.45016 13.2381 2.31016C13.1681 1.90016 12.9881 1.52016 12.6981 1.22016C12.2281 0.740158 11.7581 0.420155 11.2681 0.350155C10.9881 0.260155 10.7081 0.210155 10.4381 0.210155C9.98812 0.210155 9.54811 0.330158 9.11811 0.560158H9.04812C8.80812 0.670158 8.56812 0.730156 8.32812 0.730156C8.08812 0.730156 7.84811 0.670158 7.61811 0.560158C6.83811 0.310158 6.07811 0.160156 5.35811 0.160156H5.34812Z" fill="#5E5E5A"/>
</svg>
