<svg width="16" height="18" viewBox="0 0 16 18" fill="none" xmlns="http://www.w3.org/2000/svg">
<path d="M9.51144 7.00977H6.71144C6.71144 7.00977 6.71144 7.19976 6.71144 7.20976C7.10144 10.4398 7.16144 13.4998 6.71144 16.2998C6.54144 17.5698 6.84144 17.7398 7.41144 17.2198C7.81144 16.8598 8.11144 16.3898 8.28144 15.8698C9.01144 13.6498 9.36144 10.5598 9.50144 7.00977" fill="#F4DE9C"/>
<path d="M9.51144 7.00977H6.71144C6.71144 7.00977 6.71144 7.19976 6.71144 7.20976C7.10144 10.4398 7.16144 13.4998 6.71144 16.2998C6.54144 17.5698 6.84144 17.7398 7.41144 17.2198C7.81144 16.8598 8.11144 16.3898 8.28144 15.8698C9.01144 13.6498 9.36144 10.5598 9.50144 7.00977" stroke="#5E5E5A" stroke-width="0.15" stroke-linecap="round" stroke-linejoin="round"/>
<path d="M13.6303 5.66992H2.96031C1.77842 5.66992 0.820312 6.62803 0.820312 7.80992C0.820312 8.99181 1.77842 9.94992 2.96031 9.94992H13.6303C14.8122 9.94992 15.7703 8.99181 15.7703 7.80992C15.7703 6.62803 14.8122 5.66992 13.6303 5.66992Z" fill="#FFE4E3" stroke="#5E5E5A" stroke-width="0.15" stroke-miterlimit="10"/>
<path d="M6.71891 7.20009C6.50891 6.80009 6.40891 6.35009 6.38891 5.90009L6.25891 2.43009C6.20891 1.63009 6.53891 1.23009 7.00891 0.930094C7.71891 0.420094 8.73891 0.190095 9.59891 0.240095C10.1989 0.430095 10.2189 0.290093 10.2989 0.820093C10.3389 1.07009 10.3489 1.32009 10.3289 1.57009C10.2189 3.17009 10.0589 4.64009 9.89891 6.01009C9.85891 6.38009 9.71891 6.72009 9.49891 7.02009C9.47891 7.05009 9.44891 7.0801 9.42891 7.1201C8.39891 8.3901 7.53891 8.49009 6.84891 7.45009C6.79891 7.38009 6.74891 7.30009 6.70891 7.22009" fill="white"/>
<path d="M6.71891 7.20009C6.50891 6.80009 6.40891 6.35009 6.38891 5.90009L6.25891 2.43009C6.20891 1.63009 6.53891 1.23009 7.00891 0.930094C7.71891 0.420094 8.73891 0.190095 9.59891 0.240095C10.1989 0.430095 10.2189 0.290093 10.2989 0.820093C10.3389 1.07009 10.3489 1.32009 10.3289 1.57009C10.2189 3.17009 10.0589 4.64009 9.89891 6.01009C9.85891 6.38009 9.71891 6.72009 9.49891 7.02009C9.47891 7.05009 9.44891 7.0801 9.42891 7.1201C8.39891 8.3901 7.53891 8.49009 6.84891 7.45009C6.79891 7.38009 6.74891 7.30009 6.70891 7.22009" stroke="#5E5E5A" stroke-width="0.15" stroke-linecap="round" stroke-linejoin="round"/>
</svg>
