<svg width="16" height="19" viewBox="0 0 16 19" fill="none" xmlns="http://www.w3.org/2000/svg">
<path d="M6.23828 6.54004V7.03004C6.78828 10.48 6.97828 13.76 6.63828 16.81C6.51828 18.11 6.80828 18.44 7.41828 18.03C7.86828 17.73 8.17828 17.25 8.33828 16.73C9.18828 14 9.65828 10.5 9.89828 6.54004H6.23828Z" fill="#F4DE9C" stroke="#5E5E5A" stroke-width="0.15" stroke-linecap="round" stroke-linejoin="round"/>
<path d="M13.4819 5.66992H2.81188C1.62999 5.66992 0.671875 6.62803 0.671875 7.80992C0.671875 8.99181 1.62999 9.94992 2.81188 9.94992H13.4819C14.6638 9.94992 15.6219 8.99181 15.6219 7.80992C15.6219 6.62803 14.6638 5.66992 13.4819 5.66992Z" fill="#FFE4E3" stroke="#5E5E5A" stroke-width="0.15" stroke-miterlimit="10"/>
<path d="M9.91188 6.53993C9.81188 6.75993 9.67188 6.96993 9.50188 7.13993C8.79188 7.84993 8.08188 8.08993 7.35188 7.88993C6.87188 7.75993 6.49188 7.43993 6.25188 7.02993C6.09188 6.75993 5.99188 6.44993 5.97188 6.12993L5.67188 2.53993C5.72188 1.99993 5.85188 1.52993 6.07188 1.12993C6.31188 0.699929 6.77188 0.419928 7.27188 0.389928L9.74188 0.229928C10.3719 0.199928 10.5719 0.359928 10.5419 1.13993C10.5419 1.33993 10.5219 1.53993 10.5319 1.73993C10.5719 3.32993 10.4519 4.73993 10.0919 5.86993C10.0719 6.09993 10.0119 6.32993 9.91188 6.53993Z" fill="white" stroke="#5E5E5A" stroke-width="0.15" stroke-linecap="round" stroke-linejoin="round"/>
</svg>
