<svg width="16" height="22" viewBox="0 0 16 22" fill="none" xmlns="http://www.w3.org/2000/svg">
<path d="M6.14844 8.04028C6.80844 12.2903 7.18844 16.4403 7.23844 20.4803C7.23844 20.7603 7.29843 21.0503 7.43843 21.3003C7.65843 21.6903 7.94844 21.7503 8.30844 21.4803C8.64844 21.2303 8.85843 20.8503 8.93843 20.4403C9.76843 16.5103 10.1684 12.3603 10.2684 8.03027H6.14844V8.04028Z" fill="#F4DE9C" stroke="#5E5E5A" stroke-width="0.15" stroke-linecap="round" stroke-linejoin="round"/>
<path d="M13.2787 5.66992H2.60875C1.42686 5.66992 0.46875 6.62803 0.46875 7.80992C0.46875 8.99181 1.42686 9.94992 2.60875 9.94992H13.2787C14.4606 9.94992 15.4187 8.99181 15.4187 7.80992C15.4187 6.62803 14.4606 5.66992 13.2787 5.66992Z" fill="#FFE4E3" stroke="#5E5E5A" stroke-width="0.15" stroke-miterlimit="10"/>
<path d="M8.15891 9.79C7.50891 9.79 6.84891 9.19 6.21891 8C5.49891 7.1 5.12891 5.84 5.12891 4.26C5.12891 3.75 5.2689 3.24 5.5289 2.79C6.5189 1.1 7.4589 0.25 8.3189 0.25C9.1789 0.25 9.9789 1.09 10.7289 2.75C11.1889 4.84 11.0189 6.61 10.1989 7.99C10.1489 8.08 10.0989 8.16 10.0389 8.25C9.38891 9.27 8.75891 9.78 8.14891 9.78L8.15891 9.79Z" fill="white"/>
<path d="M8.32078 0.179688V0.329689C9.14078 0.329689 9.92078 1.15969 10.6508 2.75969C11.1108 4.84969 10.9408 6.59969 10.1408 7.95969C10.0908 8.04969 10.0408 8.12969 9.98078 8.21969C9.35078 9.20969 8.73078 9.71969 8.16078 9.71969C7.54078 9.71969 6.91078 9.12968 6.27078 7.94968C5.56078 7.06968 5.21078 5.82969 5.20078 4.26969C5.20078 3.76969 5.34078 3.27969 5.59078 2.83969C6.57078 1.17969 7.49078 0.329689 8.31078 0.329689V0.179688M8.31078 0.179688C7.40078 0.179688 6.45078 1.06969 5.46078 2.75969C5.19078 3.21969 5.05078 3.73969 5.05078 4.26969C5.05078 5.83969 5.40078 7.10969 6.15078 8.04969C6.81078 9.27969 7.48078 9.87968 8.16078 9.87968C8.80078 9.87968 9.45078 9.34969 10.1108 8.31969C10.1708 8.23969 10.2208 8.14968 10.2708 8.05968C11.1108 6.62968 11.2708 4.84969 10.8008 2.74969C10.0208 1.01969 9.19078 0.199688 8.32078 0.199688L8.31078 0.179688Z" fill="#5E5E5A"/>
</svg>
