<svg width="16" height="18" viewBox="0 0 16 18" fill="none" xmlns="http://www.w3.org/2000/svg">
<path d="M3.87807 6.99965C2.87807 10.1696 2.11807 13.1696 2.18807 15.6296C2.19807 16.1296 2.30807 16.6297 2.52807 17.0797C2.82807 17.6697 3.14807 17.7596 3.49807 17.2796C3.65807 17.0496 3.76807 16.7796 3.81807 16.4996L4.65807 12.5596C4.85807 11.6496 5.38807 10.8196 6.18807 10.3396C6.70807 10.0296 7.24807 9.90965 7.79807 9.99965C8.44807 10.1096 9.00807 10.5097 9.37807 11.0497C10.1581 12.1497 11.8381 15.3496 11.8381 15.3496C12.6181 16.4696 13.0781 16.4096 13.1781 15.0596C13.2281 13.3796 11.6681 9.69965 10.1981 6.88965L3.84807 6.99965H3.87807Z" fill="#F4DE9C" stroke="#5E5E5A" stroke-width="0.15" stroke-linecap="round" stroke-linejoin="round"/>
<path d="M13.0405 5.66992H2.37047C1.18858 5.66992 0.230469 6.62803 0.230469 7.80992C0.230469 8.99181 1.18858 9.94992 2.37047 9.94992H13.0405C14.2224 9.94992 15.1805 8.99181 15.1805 7.80992C15.1805 6.62803 14.2224 5.66992 13.0405 5.66992Z" fill="#FFE4E3" stroke="#5E5E5A" stroke-width="0.15" stroke-miterlimit="10"/>
<path d="M7.1185 8.31977C6.2385 8.31977 5.3085 7.97977 4.3585 7.29977C4.2085 7.18977 4.0685 7.06977 3.9285 6.93977C3.6085 6.62977 3.3685 6.27977 3.2085 5.88977C2.8085 4.90977 2.6585 3.78977 2.7785 2.45977C2.8285 1.88977 3.0385 1.37977 3.3885 1.01977C3.7485 0.629768 4.1785 0.449768 4.6885 0.449768C5.0985 0.449768 5.5685 0.579769 6.0785 0.829769C6.2885 1.00977 6.5385 1.09977 6.8285 1.09977C7.2285 1.09977 7.6885 0.919768 8.2085 0.539768C8.6785 0.359768 9.1485 0.259766 9.5685 0.259766C10.1685 0.259766 10.7085 0.449767 11.1785 0.819767C11.9585 1.77977 12.0085 3.18977 11.3085 4.99977C11.0385 5.69977 10.6585 6.31977 10.1885 6.83977C9.9285 7.12977 9.6285 7.37977 9.3185 7.59977C8.6085 8.07977 7.8785 8.31977 7.1285 8.31977H7.1185Z" fill="white"/>
<path d="M9.56936 0.329689C10.1494 0.329689 10.6694 0.509686 11.1094 0.849686C11.8794 1.79969 11.9294 3.18969 11.2394 4.96969C10.9694 5.66969 10.5994 6.27969 10.1394 6.77969C9.87936 7.06969 9.58936 7.31969 9.27936 7.52969C8.58936 7.99969 7.85936 8.23969 7.12936 8.23969C6.25936 8.23969 5.34936 7.89969 4.41936 7.23969C4.26936 7.12969 4.12936 7.01969 3.99936 6.88969C3.68936 6.58969 3.44936 6.23969 3.29936 5.85969C2.89936 4.88969 2.75936 3.77969 2.86936 2.46969C2.91936 1.91969 3.11936 1.41969 3.45936 1.06969C3.80936 0.699687 4.20936 0.519688 4.69936 0.519688C5.09936 0.519688 5.54936 0.639686 6.01936 0.869686C6.25936 1.06969 6.52936 1.16969 6.82936 1.16969C7.24936 1.16969 7.70936 0.979686 8.23936 0.599686C8.71936 0.419686 9.16936 0.329689 9.57936 0.329689M9.57936 0.179688C9.13936 0.179688 8.66936 0.279688 8.16936 0.469688C7.68936 0.809688 7.23936 1.01969 6.82936 1.01969C6.56936 1.01969 6.32936 0.939686 6.11936 0.759686C5.60936 0.509686 5.12936 0.369686 4.69936 0.369686C4.18936 0.369686 3.72936 0.559688 3.34936 0.969688C2.96936 1.36969 2.76936 1.90969 2.71936 2.45969C2.60936 3.71969 2.71936 4.87969 3.15936 5.91969C3.32936 6.32969 3.57936 6.68969 3.89936 6.99969C4.03936 7.12969 4.17936 7.25969 4.33936 7.36969C5.29936 8.04969 6.22936 8.39969 7.13936 8.39969C7.89936 8.39969 8.64936 8.15969 9.36936 7.65969C9.69936 7.43969 9.98936 7.17969 10.2594 6.88969C10.7494 6.34969 11.1294 5.70969 11.3894 5.02969C12.0994 3.19969 12.0594 1.76969 11.2394 0.769688C10.7494 0.379688 10.1994 0.189686 9.58936 0.189686L9.57936 0.179688Z" fill="#5E5E5A"/>
</svg>
