<svg width="16" height="19" viewBox="0 0 16 19" fill="none" xmlns="http://www.w3.org/2000/svg">
<path d="M4.00828 7.59007C2.17828 10.2201 1.23828 13.7901 1.23828 17.5201C1.29828 18.6101 1.63828 18.8501 2.19828 18.3801C2.53828 18.1001 2.75828 17.6901 2.84828 17.2601C3.39828 14.8301 4.16828 12.8001 5.30828 11.4101C6.63828 10.0701 7.77828 10.1401 8.77828 11.1901C10.0583 12.3501 10.7283 14.2101 11.0783 16.4201C11.1283 16.7501 11.2383 17.0801 11.4283 17.3601C11.8083 17.9301 12.1983 17.9701 12.5983 17.4301C12.7983 17.1601 12.9083 16.8401 12.9583 16.5101C13.3683 13.4301 12.8283 10.5001 11.3783 7.71008C11.3583 7.67008 11.3383 7.63008 11.3083 7.58008H4.00828V7.59007Z" fill="#F4DE9C" stroke="#5E5E5A" stroke-width="0.15" stroke-linecap="round" stroke-linejoin="round"/>
<path d="M12.8881 5.66992H2.21813C1.03624 5.66992 0.078125 6.62803 0.078125 7.80992C0.078125 8.99181 1.03624 9.94992 2.21813 9.94992H12.8881C14.07 9.94992 15.0281 8.99181 15.0281 7.80992C15.0281 6.62803 14.07 5.66992 12.8881 5.66992Z" fill="#FFE4E3" stroke="#5E5E5A" stroke-width="0.15" stroke-miterlimit="10"/>
<path d="M7.50995 8.8098C6.31995 8.8098 5.11995 8.48981 3.94995 7.85981C3.48995 7.60981 3.13995 7.24981 2.93995 6.82981C2.77995 6.49981 2.67995 6.12981 2.63995 5.73981C2.46995 4.68981 2.47995 3.5898 2.66995 2.3898C2.72995 1.9898 2.90995 1.6298 3.18995 1.3498C3.68995 0.839804 4.13995 0.559805 4.57995 0.499805C4.85995 0.409805 5.12995 0.359806 5.39995 0.359806C5.81995 0.359806 6.24995 0.469806 6.67995 0.699806C6.68995 0.699806 6.77995 0.699806 6.78995 0.699806C7.00995 0.809806 7.25995 0.869804 7.50995 0.869804C7.75995 0.869804 8.00995 0.809804 8.25995 0.689804C9.07995 0.429804 9.80995 0.299805 10.4899 0.299805C11.2199 0.299805 11.8599 0.449804 12.4599 0.759804C12.7899 0.999804 13.0299 1.53981 13.1599 2.33981C13.2799 3.98981 12.7999 5.6098 11.6699 7.2798C11.5699 7.4198 11.4599 7.5498 11.3399 7.6698C11.1599 7.8398 10.9599 7.96981 10.7399 8.06981C9.65995 8.55981 8.57995 8.8098 7.51995 8.8098H7.50995Z" fill="white"/>
<path d="M10.4881 0.370232C11.2081 0.370232 11.8381 0.520234 12.3981 0.810234C12.7181 1.05023 12.9481 1.56023 13.0681 2.33023C13.1881 3.97023 12.7081 5.57024 11.5881 7.23024C11.4981 7.37024 11.3881 7.49023 11.2681 7.60023C11.0981 7.76023 10.9081 7.89023 10.6881 7.99023C9.61811 8.48023 8.54811 8.73024 7.50811 8.73024C6.32811 8.73024 5.13811 8.41023 3.98811 7.79023C3.53811 7.55023 3.19811 7.20023 3.00811 6.79023C2.85811 6.47023 2.75811 6.11023 2.71811 5.72023C2.54811 4.68023 2.55811 3.60023 2.74811 2.40023C2.80811 2.02023 2.97811 1.67023 3.24811 1.40023C3.73811 0.900234 4.17811 0.630232 4.61811 0.570232C4.87811 0.480232 5.13811 0.440231 5.40811 0.440231C5.81811 0.440231 6.23811 0.550233 6.65811 0.770233C6.67811 0.780233 6.70811 0.790234 6.72811 0.790234H6.76811C7.01811 0.900234 7.26811 0.960232 7.51811 0.960232C7.76811 0.960232 8.03811 0.900231 8.27811 0.780231C9.09811 0.520231 9.82811 0.390232 10.4881 0.390232M10.4881 0.240234C9.76811 0.240234 9.00811 0.390232 8.22811 0.640232C7.98811 0.750232 7.75811 0.810234 7.51811 0.810234C7.27811 0.810234 7.03811 0.750232 6.79811 0.640232H6.72811C6.29811 0.410232 5.85811 0.290234 5.40811 0.290234C5.12811 0.290234 4.85811 0.340233 4.57811 0.430233C4.08811 0.500233 3.61811 0.820232 3.14811 1.30023C2.85811 1.60023 2.66811 1.98023 2.60811 2.39023C2.42811 3.53023 2.38811 4.66023 2.57811 5.76023C2.61811 6.15023 2.71811 6.52023 2.87811 6.87023C3.09811 7.33023 3.47811 7.69024 3.91811 7.94024C5.09811 8.58024 6.28811 8.90023 7.51811 8.90023C8.57811 8.90023 9.66811 8.65023 10.7681 8.15023C10.9981 8.05023 11.2081 7.90024 11.3881 7.73024C11.5181 7.61024 11.6281 7.48023 11.7281 7.33023C12.7981 5.75023 13.3681 4.10023 13.2381 2.34023C13.0981 1.48023 12.8481 0.960232 12.4981 0.710232C11.8681 0.390232 11.1981 0.240234 10.4981 0.240234H10.4881Z" fill="#5E5E5A"/>
</svg>
