<svg width="10" height="33" viewBox="0 0 10 33" fill="none" xmlns="http://www.w3.org/2000/svg">
<mask id="mask0_254_17104" style="mask-type:luminance" maskUnits="userSpaceOnUse" x="0" y="19" width="10" height="14">
<path d="M0.224703 28.7474C-0.265297 26.6974 1.0047 23.9574 1.2547 22.7074C1.4947 21.4574 3.3047 19.8374 4.6247 19.9274C5.9447 20.0274 7.6547 21.0774 7.8747 21.9174C9.0147 26.2774 10.2547 28.5474 8.1947 30.9474C6.8747 32.4774 4.82469 32.6274 3.36469 31.3774C1.90469 30.1274 0.774692 30.9974 0.244692 28.7474H0.224703Z" fill="white"/>
</mask>
<g mask="url(#mask0_254_17104)">
<path opacity="0.75" d="M-1.98438 27.6674C-1.54438 27.7174 1.64563 28.6374 1.64563 26.1474C1.64563 23.3874 -1.93436 24.3074 -1.93436 24.3074L-1.97437 27.6674H-1.98438Z" fill="#E62C2F" stroke="#E62C2F" stroke-width="0.5" stroke-linecap="round" stroke-linejoin="round"/>
</g>
</svg>
