<svg width="12" height="29" viewBox="0 0 12 29" fill="none" xmlns="http://www.w3.org/2000/svg">
<mask id="mask0_254_17166" style="mask-type:luminance" maskUnits="userSpaceOnUse" x="0" y="16" width="12" height="13">
<path d="M0.683594 24.1367C0.683594 22.1867 1.66359 18.7167 2.39359 17.8367C3.12359 16.9567 4.73358 16.1767 5.95358 16.3467C7.17358 16.5167 7.61358 17.9267 8.54358 17.8867C9.46358 17.8467 10.3036 17.6467 10.4936 19.3967C10.6936 21.1567 11.0836 21.2967 11.2536 22.4267C11.4236 23.5467 11.8136 24.5067 9.71359 25.3467C7.61359 26.1867 7.09358 28.7267 5.23358 28.1667C3.36358 27.6067 3.61358 26.5367 2.29358 26.0467C0.973579 25.5567 0.683594 24.8767 0.683594 24.1467V24.1367Z" fill="white"/>
</mask>
<g mask="url(#mask0_254_17166)">
<path opacity="0.75" d="M-1.20703 23.4164C-1.20703 23.4164 2.57297 24.0064 2.57297 21.6164C2.57297 18.8364 -1.12701 19.4364 -1.12701 19.4364L-1.20703 23.4164Z" fill="#E62C2F" stroke="#E62C2F" stroke-width="0.5" stroke-linecap="round" stroke-linejoin="round"/>
</g>
</svg>
