<svg width="13" height="28" viewBox="0 0 13 28" fill="none" xmlns="http://www.w3.org/2000/svg">
<mask id="mask0_254_17155" style="mask-type:luminance" maskUnits="userSpaceOnUse" x="0" y="16" width="13" height="12">
<path d="M1.32567 17.8564C0.555673 19.2564 0.105677 24.5964 0.735677 25.5264C1.36568 26.4564 3.07568 26.5964 3.76568 25.9164C4.45568 25.2364 4.66567 26.0064 5.27567 26.3464C5.88567 26.6764 6.42567 26.0564 7.08567 26.7064C8.33567 27.9264 10.7457 27.0964 11.4357 24.2164C12.1157 21.3364 12.2657 18.7464 11.9257 17.8664C11.5857 16.9864 9.92567 18.4064 8.75567 17.3264C7.58567 16.2564 5.87568 16.2964 4.45568 16.9364C3.03568 17.5764 2.45567 15.8164 1.33567 17.8664L1.32567 17.8564Z" fill="white"/>
</mask>
<g mask="url(#mask0_254_17155)">
<path opacity="0.75" d="M-1.92531 22.9162C-1.92531 22.9162 2.10469 24.4062 2.10469 21.2262C2.10469 18.4062 -1.94531 19.5062 -1.94531 19.5062L-1.92531 22.9162Z" fill="#E62C2F" stroke="#E62C2F" stroke-width="0.2" stroke-linecap="round" stroke-linejoin="round"/>
</g>
</svg>
