<svg width="14" height="26" viewBox="0 0 14 26" fill="none" xmlns="http://www.w3.org/2000/svg">
<mask id="mask0_254_17140" style="mask-type:luminance" maskUnits="userSpaceOnUse" x="0" y="14" width="13" height="12">
<path d="M1.65407 16.9768C0.604074 19.2668 0.484066 22.3068 2.11407 23.3068C3.78407 24.3368 4.80407 23.3068 5.63407 23.5468C6.46407 23.7868 8.89407 26.3968 10.8641 24.3168C12.5341 22.5568 13.5441 17.3868 12.6641 16.1668C10.7741 13.5468 9.13408 16.5368 6.48408 15.0568C5.33408 14.4168 2.69407 14.7168 1.66407 16.9668L1.65407 16.9768Z" fill="white"/>
</mask>
<g mask="url(#mask0_254_17140)">
<path opacity="0.75" d="M-1.60501 20.7668C-1.60501 20.7668 2.425 22.2568 2.425 19.0768C2.425 16.2568 -1.625 17.3568 -1.625 17.3568L-1.60501 20.7668Z" fill="#E62C2F" stroke="#E62C2F" stroke-width="0.2" stroke-linecap="round" stroke-linejoin="round"/>
</g>
</svg>
