<svg width="11" height="28" viewBox="0 0 11 28" fill="none" xmlns="http://www.w3.org/2000/svg">
<mask id="mask0_254_17077" style="mask-type:luminance" maskUnits="userSpaceOnUse" x="0" y="14" width="10" height="14">
<path d="M9.08725 26.6869C8.85725 26.7469 7.83726 27.3169 6.37726 27.1769C5.46726 27.0869 4.33726 27.4569 3.22726 27.0469C2.66726 26.8369 2.01727 26.8069 1.38727 26.5969C0.697268 26.3669 0.647258 23.6469 0.877258 21.1069C1.10726 18.5669 1.61727 19.2169 2.44727 17.7869C6.06727 11.5569 6.48725 17.1469 8.27725 17.2769C9.41725 17.3569 10.9472 26.2369 9.08725 26.6769V26.6869Z" fill="white"/>
</mask>
<g mask="url(#mask0_254_17077)">
<path opacity="0.75" d="M-1.19437 21.1573C-1.19437 21.1573 2.06564 20.3573 2.06564 22.6273C2.06564 25.3673 -1.23438 24.4973 -1.23438 24.4973L-1.19437 21.1473V21.1573Z" fill="#E62C2F" stroke="#E62C2F" stroke-width="0.5" stroke-linecap="round" stroke-linejoin="round"/>
</g>
</svg>
