<svg width="11" height="25" viewBox="0 0 11 25" fill="none" xmlns="http://www.w3.org/2000/svg">
<mask id="mask0_254_16894" style="mask-type:luminance" maskUnits="userSpaceOnUse" x="0" y="0" width="11" height="13">
<path d="M10.0047 7.45626C10.4247 5.66626 9.96464 3.67626 8.64464 2.84626C7.32464 2.01626 5.10465 0.466264 4.02465 0.886264C2.94465 1.30626 2.81466 1.80627 2.09466 2.11627C1.37466 2.42627 0.214657 3.89626 0.314657 5.87626C0.414657 7.85626 2.06466 9.25627 2.41466 10.0463C2.76466 10.8363 5.31464 13.2063 6.98464 11.5863C8.65464 9.96627 9.26464 10.6163 10.0146 7.45626H10.0047Z" fill="white"/>
</mask>
<g mask="url(#mask0_254_16894)">
<path opacity="0.75" d="M-2.41406 5.22626C-2.41406 5.22626 1.71594 3.39626 1.71594 6.55626C1.71594 9.35626 -2.37405 7.85626 -2.37405 7.85626L-2.40405 5.22626H-2.41406Z" fill="#E62C2F" stroke="#E62C2F" stroke-width="0.2" stroke-linecap="round" stroke-linejoin="round"/>
</g>
</svg>
