<svg width="9" height="25" viewBox="0 0 9 25" fill="none" xmlns="http://www.w3.org/2000/svg">
<mask id="mask0_254_17203" style="mask-type:luminance" maskUnits="userSpaceOnUse" x="0" y="0" width="9" height="12">
<path d="M1.49525 0.32737C2.49525 -0.10263 3.70525 0.907367 4.15525 0.597367C4.60525 0.287367 6.85526 -0.292629 7.44526 0.617371C8.03526 1.52737 8.69524 5.92737 8.23524 7.53737C7.78524 9.14737 5.30525 12.0074 4.37525 11.5974C3.44525 11.1874 1.07525 9.49737 0.905249 8.98737C0.335249 7.28737 0.0452359 0.94737 1.48524 0.32737H1.49525Z" fill="white"/>
</mask>
<g mask="url(#mask0_254_17203)">
<path opacity="0.75" d="M-2.25391 6.74713C-2.25391 6.74713 1.8761 8.57713 1.8761 5.41713C1.8761 2.61713 -2.2139 4.11713 -2.2139 4.11713L-2.2439 6.74713H-2.25391Z" fill="#E62C2F" stroke="#E62C2F" stroke-width="0.5" stroke-linecap="round" stroke-linejoin="round"/>
</g>
</svg>
