<svg width="9" height="31" viewBox="0 0 9 31" fill="none" xmlns="http://www.w3.org/2000/svg">
<mask id="mask0_254_17251" style="mask-type:luminance" maskUnits="userSpaceOnUse" x="0" y="0" width="9" height="14">
<path d="M1.49335 11.0472C0.173355 9.17722 0.0333548 5.72722 0.243355 4.79722C0.453355 3.86722 3.74336 0.887217 4.53336 0.917217C5.32336 0.947217 7.69334 1.86722 8.07334 2.75722C8.46334 3.63722 8.25335 7.81722 7.55335 9.65722C6.85335 11.4972 4.28337 13.5072 3.66337 13.1872C3.04337 12.8572 2.18335 12.0472 1.49335 11.0572V11.0472Z" fill="white"/>
</mask>
<g mask="url(#mask0_254_17251)">
<path opacity="0.75" d="M-2.47656 8.49713C-2.47656 8.49713 1.65344 10.3271 1.65344 7.16713C1.65344 4.36713 -2.43655 5.86713 -2.43655 5.86713L-2.46655 8.49713H-2.47656Z" fill="#E62C2F" stroke="#E62C2F" stroke-width="0.2" stroke-linecap="round" stroke-linejoin="round"/>
</g>
</svg>
