<svg width="15" height="25" viewBox="0 0 15 25" fill="none" xmlns="http://www.w3.org/2000/svg">
<mask id="mask0_254_17239" style="mask-type:luminance" maskUnits="userSpaceOnUse" x="0" y="0" width="15" height="11">
<path d="M1.39495 8.7266C0.744945 6.8666 0.294959 3.7366 1.92496 2.6266C6.24496 -0.323404 7.07495 1.4066 8.61495 1.1166C9.76495 0.906601 12.0949 0.416602 13.525 1.4066C14.955 2.3966 14.535 6.6766 13.735 8.0166C12.935 9.3566 11.895 9.5266 10.595 9.4466C9.29496 9.3666 7.70495 10.4566 6.02495 9.9466C4.34495 9.4466 1.91495 10.1866 1.40495 8.7266H1.39495Z" fill="white"/>
</mask>
<g mask="url(#mask0_254_17239)">
<path opacity="0.75" d="M-1.57375 7.31662C-1.57375 7.31662 2.28625 8.84663 2.31625 5.68663C2.34625 2.88663 -1.59375 4.03662 -1.59375 4.03662V7.31662H-1.57375Z" fill="#E62C2F" stroke="#E62C2F" stroke-width="0.2" stroke-linecap="round" stroke-linejoin="round"/>
</g>
</svg>
