<svg width="6" height="19" viewBox="0 0 6 19" fill="none" xmlns="http://www.w3.org/2000/svg">
<mask id="mask0_254_17325" style="mask-type:luminance" maskUnits="userSpaceOnUse" x="0" y="11" width="6" height="8">
<path d="M1.34592 12.7069C0.355919 14.0969 0.145921 15.5669 0.535921 17.0969C0.665921 17.6269 1.10592 18.0369 1.64592 18.1469C2.54592 18.3269 3.76592 18.2369 4.95592 18.1669C5.99592 18.1669 5.98592 17.4469 5.86592 16.7369C5.76592 15.5969 5.54592 14.4869 5.19592 13.4069C5.10592 13.1169 4.95592 12.8569 4.75592 12.6269C4.58592 12.4269 4.36593 12.2669 4.12593 12.1469C3.20593 11.7169 2.28592 11.9069 1.35592 12.7069H1.34592Z" fill="white"/>
</mask>
<g mask="url(#mask0_254_17325)">
<path opacity="0.75" d="M-0.855469 14.6566C-0.855469 14.6566 1.21453 13.6566 1.21453 15.3866C1.21453 16.9166 -0.835472 16.0966 -0.835472 16.0966L-0.855469 14.6666V14.6566Z" fill="#E62C2F" stroke="#E62C2F" stroke-width="0.2" stroke-linecap="round" stroke-linejoin="round"/>
</g>
</svg>
