<svg width="7" height="23" viewBox="0 0 7 23" fill="none" xmlns="http://www.w3.org/2000/svg">
<mask id="mask0_254_16786" style="mask-type:luminance" maskUnits="userSpaceOnUse" x="0" y="0" width="7" height="11">
<path d="M5.68559 8.63686C6.43559 7.70686 6.7856 6.42686 6.7856 4.85686C6.7856 4.32686 6.6356 3.80686 6.3756 3.34686C4.4356 0.0468569 2.64559 -0.223142 1.04559 3.31686C0.575594 5.41686 0.735592 7.19686 1.57559 8.62686C1.62559 8.71686 1.6856 8.80686 1.7356 8.88686C3.0856 11.0069 4.40559 11.0269 5.69559 8.62686L5.68559 8.63686Z" fill="white"/>
</mask>
<g mask="url(#mask0_254_16786)">
<path opacity="0.75" d="M-0.292969 6.59706C-0.292969 6.59706 1.85703 7.63707 1.85703 5.83707C1.85703 4.24707 -0.27298 5.09706 -0.27298 5.09706L-0.292969 6.59706Z" fill="#E62C2F" stroke="#E62C2F" stroke-width="0.2" stroke-linecap="round" stroke-linejoin="round"/>
</g>
</svg>
