<svg width="13" height="20" viewBox="0 0 13 20" fill="none" xmlns="http://www.w3.org/2000/svg">
<mask id="mask0_254_16768" style="mask-type:luminance" maskUnits="userSpaceOnUse" x="0" y="0" width="12" height="10">
<path d="M9.92594 8.50687C10.3759 8.26687 10.7559 7.90687 10.9659 7.43687C11.1359 7.08687 11.2359 6.71687 11.2659 6.32687C11.4459 5.22687 11.4159 4.09687 11.2359 2.95687C11.1659 2.54687 10.9859 2.16687 10.6959 1.86687C10.2259 1.38687 9.75594 1.06687 9.26594 0.996871C8.52594 0.746871 7.81593 0.83687 7.11593 1.20687H7.04593C6.55593 1.43687 6.08593 1.42687 5.61593 1.20687C4.06593 0.71687 2.61593 0.61687 1.35593 1.27687C1.00593 1.52687 0.755927 2.04687 0.615927 2.90687C0.485927 4.66687 1.05594 6.32687 2.12594 7.89687C2.22594 8.04687 2.33593 8.17687 2.46593 8.29687C2.64593 8.46687 2.85593 8.60687 3.08593 8.71687C5.45593 9.79687 7.72594 9.69687 9.92594 8.50687Z" fill="white"/>
</mask>
<g mask="url(#mask0_254_16768)">
<path opacity="0.75" d="M-0.915787 6.14687C-0.915787 6.14687 2.11421 7.61687 2.11421 5.07687C2.11421 2.83687 -0.895782 4.03687 -0.895782 4.03687L-0.925781 6.14687H-0.915787Z" fill="#E62C2F" stroke="#E62C2F" stroke-width="0.2" stroke-linecap="round" stroke-linejoin="round"/>
</g>
</svg>
