<svg width="5" height="19" viewBox="0 0 5 19" fill="none" xmlns="http://www.w3.org/2000/svg">
<mask id="mask0_254_16843" style="mask-type:luminance" maskUnits="userSpaceOnUse" x="0" y="0" width="5" height="9">
<path d="M0.675941 7.74697C0.465941 7.34697 0.36594 6.89697 0.34594 6.44697L0.215942 2.97697C0.165942 2.17697 0.495942 1.77697 0.965942 1.47697C1.67594 0.966972 2.69594 0.73697 3.55594 0.78697C4.15594 0.97697 4.17594 0.836972 4.25594 1.36697C4.29594 1.61697 4.30594 1.86697 4.28594 2.11697C4.17594 3.71697 4.01594 5.18697 3.85594 6.55697C3.81594 6.92697 3.67594 7.26697 3.45594 7.56697C3.43594 7.59697 3.40594 7.62697 3.38594 7.66697C2.35594 8.93697 1.49594 9.03697 0.805939 7.99697C0.755939 7.92697 0.705939 7.84697 0.665939 7.76697" fill="white"/>
</mask>
<g mask="url(#mask0_254_16843)">
<path opacity="0.75" d="M-0.923592 4.30653C-0.923592 4.30653 1.11641 3.31653 1.11641 5.02653C1.11641 6.53653 -0.913589 5.72653 -0.913589 5.72653L-0.933594 4.30653H-0.923592Z" fill="#E62C2F" stroke="#E62C2F" stroke-width="0.2" stroke-linecap="round" stroke-linejoin="round"/>
</g>
</svg>
